<svg width="100" height="100" xmlns="http://www.w3.org/2000/svg" version="1.1" xml:space="preserve">
 <g id="Layer_1">
  <title>Layer 1</title>
  <path stroke="null" d="m19.92273,48.09354c0,0.40536 -0.10134,0.81073 -0.20268,1.21609c-0.20268,1.31743 -0.40536,2.63488 -0.50671,3.95232c0.91207,0.30402 1.82415,0.30402 2.73622,0.50671c0,2.02683 0.10134,4.15501 0.50671,6.18184c0.60805,-0.10134 1.21609,-0.20268 1.72281,-0.10134c-0.30402,0.70939 -0.70939,1.31743 -1.11475,2.02683c-1.41879,2.33086 -2.9389,5.06709 -3.34428,7.80331c0.10134,0.10134 0.30402,0.20268 0.30402,0.30402c0.10134,1.01341 0,2.02683 0.10134,3.14158c0.10134,1.01341 0.10134,2.33086 0.60805,3.24294c0.91207,-0.10134 1.82415,-0.10134 2.73622,-0.10134c0.20268,0.30402 0.30402,0.70939 0.40536,1.11475c0.40536,1.62147 1.01341,3.04024 1.52013,4.56037c0.91207,-0.20268 1.82415,-0.50671 2.73622,-0.70939c0.91207,1.52013 1.62147,3.34428 2.4322,4.86439c0.91207,-0.30402 1.72281,-0.81073 2.63488,-1.01341c0.60805,0.60805 1.01341,1.31743 1.62147,1.92549c0.50671,0.81073 1.31743,1.31743 1.82415,2.12817c0.30402,0.20268 0.60805,0.91207 1.11475,0.60805c0.50671,-0.50671 1.21609,-0.91207 1.72281,-1.41879c0.60805,-0.10134 1.21609,0.81073 1.72281,1.11475c1.01341,0.81073 2.02683,1.52013 3.14158,2.33086c0.30402,-0.10134 0.40536,-0.50671 0.70939,-0.70939c0.40536,-0.40536 0.60805,-0.81073 0.91207,-1.21609c0.20268,0 0.40536,0.10134 0.60805,0.20268c1.41879,0.81073 2.83756,1.62147 4.35769,2.33086c0.10134,0.10134 0.30402,0.10134 0.40536,0.10134c0.50671,-0.81073 0.81073,-1.72281 1.52013,-2.4322c2.02683,0.50671 3.85098,1.21609 6.0805,1.31743l0.10134,-0.10134c0.20268,-0.81073 0.30402,-1.72281 0.60805,-2.53354c0.20268,-0.20268 0.60805,-0.10134 0.91207,-0.10134c1.21609,0.10134 2.53354,0.10134 3.74964,0.10134c0.40536,0 0.81073,0 1.11475,-0.20268c0,-0.81073 0,-1.52013 0,-2.33086c0.50671,-0.20268 1.01341,-0.20268 1.52013,-0.30402c1.52013,-0.20268 3.04024,-0.60805 4.56037,-1.11475c-0.20268,-0.91207 -0.50671,-1.82415 -0.70939,-2.73622c1.92549,-0.60805 3.85098,-1.21609 5.67512,-1.92549l0.10134,-0.10134c-0.20268,-1.01341 -0.70939,-1.92549 -0.70939,-2.9389c1.62147,-1.11475 3.44562,-2.12817 4.86439,-3.54696c-0.60805,-0.60805 -1.01341,-1.41879 -1.52013,-2.12817c0.40536,-0.60805 1.11475,-1.11475 1.52013,-1.62147c1.01341,-0.91207 1.82415,-2.02683 2.63488,-3.14158c-0.70939,-0.50671 -1.41879,-1.21609 -2.12817,-1.62147c-0.10134,-0.10134 -0.10134,-0.30402 0,-0.50671c1.01341,-1.41879 2.12817,-2.9389 3.04024,-4.45903c-0.60805,-0.60805 -1.41879,-1.11475 -2.02683,-1.62147c0,-0.50671 0.30402,-1.01341 0.50671,-1.52013c0.60805,-1.52013 1.01341,-3.04024 1.41879,-4.66171c-0.40536,-0.10134 -0.30402,-0.30402 -0.20268,-0.60805c0.30402,-0.30402 0.60805,-0.60805 0.91207,-1.01341c-1.01341,0 -2.12817,0 -3.14158,0c0.10134,-1.41879 0.50671,-2.73622 0.60805,-4.15501c0,-0.40536 0.20268,-0.81073 0,-1.21609c-0.81073,-0.10134 -1.62147,-0.20268 -2.4322,-0.30402l-0.20268,-0.20268c0,-2.02683 -0.20268,-4.05366 -0.50671,-6.0805c-0.60805,-0.10134 -1.21609,0.20268 -1.82415,0.10134c0.10134,-0.40536 0.30402,-0.70939 0.50671,-1.11475c1.62147,-2.73622 3.34428,-5.57378 3.95232,-8.81672c-0.81073,-0.40536 -0.30402,-1.01341 -0.40536,-1.72281c-0.10134,-1.52013 -0.10134,-2.9389 -0.40536,-4.45903c0,-0.20268 -0.10134,-0.40536 -0.20268,-0.50671c-0.91207,0 -1.92549,0.30402 -2.83756,0c-0.40536,-1.92549 -1.01341,-3.74964 -1.82415,-5.57378c-0.70939,0.10134 -1.41879,0.40536 -2.12817,0.60805c-0.30402,0.10134 -0.60805,0.20268 -0.70939,-0.20268c-0.81073,-1.52013 -1.52013,-3.14158 -2.33086,-4.66171c-0.91207,0.30402 -1.82415,0.91207 -2.73622,1.01341c-0.91207,-1.11475 -1.82415,-2.22951 -2.73622,-3.34428c-0.50671,-0.50671 -0.91207,-1.01341 -1.31743,-1.52013c-0.70939,0.60805 -1.41879,1.11475 -2.02683,1.72281c-0.40536,0.10134 -0.50671,-0.20268 -0.70939,-0.40536c-1.31743,-1.01341 -2.63488,-2.12817 -4.05366,-3.04024c-0.40536,0.20268 -0.40536,0.60805 -0.70939,0.91207c-0.30402,0.30402 -0.50671,0.81073 -0.91207,1.01341c-1.72281,-0.81073 -3.44562,-1.92549 -5.26976,-2.63488c-0.50671,0.70939 -1.01341,1.62147 -1.41879,2.4322c-0.50671,0.10134 -0.81073,-0.10134 -1.31743,-0.30402c-1.62147,-0.50671 -3.34428,-0.91207 -5.06709,-1.01341c-0.20268,0.70939 -0.30402,1.52013 -0.50671,2.22951c-0.10134,0.30402 -0.10134,0.60805 -0.50671,0.60805c-0.91207,-0.10134 -1.82415,-0.10134 -2.73622,-0.20268c-0.91207,-0.10134 -1.82415,0.10134 -2.63488,0.10134c-0.20268,0.81073 -0.10134,1.62147 -0.10134,2.53354c-2.02683,0.30402 -4.05366,0.70939 -5.97916,1.41879c0.20268,0.91207 0.60805,1.82415 0.60805,2.83756c-1.92549,0.60805 -3.85098,1.21609 -5.77646,1.82415c0.10134,1.01341 0.70939,2.02683 0.70939,3.14158c-1.72281,0.91207 -3.24294,2.12817 -4.76305,3.34428c0.40536,0.81073 1.11475,1.52013 1.52013,2.22951c-1.52013,1.52013 -3.04024,2.83756 -4.25635,4.76305c0.60805,0.50671 1.31743,1.01341 2.02683,1.52013c0.30402,0.20268 0.20268,0.60805 0,0.81073c-1.01341,1.41879 -2.02683,2.73622 -2.9389,4.25635c0.70939,0.50671 1.41879,1.01341 2.02683,1.62147c-0.10134,0.60805 -0.40536,1.11475 -0.60805,1.72281c-0.50671,1.41879 -0.91207,2.83756 -1.31743,4.25635c0.20268,0.30402 0.30402,0.30402 0.20268,0.70939c-0.20268,0.40536 -0.70939,0.70939 -0.91207,1.11475c1.01341,0.10134 2.12817,0.10134 3.14158,0.10134l-0.00003,0zm2.53354,1.82415c0,0.10134 -0.10134,0.30402 -0.10134,0.40536l0,0l0,0c-0.10134,0.30402 -0.20268,0.50671 -0.20268,0.81073l-0.20268,0l-0.20268,-0.70939l0.40536,0l0.10134,-0.10134c0,0 0,0 0,0l-0.40536,0c0.30402,-1.82415 0.60805,-3.54696 1.21609,-5.16842c0.30402,-0.50671 0.91207,-0.70939 1.41879,-1.11475c0.50671,-0.40536 1.11475,-0.60805 1.62147,-1.11475l0.10134,0.10134l0,0.40536c-0.50671,0.40536 -0.70939,0.91207 -1.11475,1.41879c-1.11475,1.52013 -1.92549,3.24294 -2.63488,5.06709l-0.00002,0zm0.20268,-10.64087c0.20268,-0.70939 0.60805,-1.31743 1.01341,-1.92549c0.50671,-0.40536 0.70939,0.70939 0.70939,1.01341c-0.50671,0.30402 -1.21609,0.50671 -1.72281,0.91207zm59.48751,20.26831c-0.60805,0.50671 -0.81073,1.11475 -1.41879,1.62147c-0.20268,0.50671 -0.60805,0.91207 -0.91207,1.31743c-0.30402,0.60805 -0.70939,1.21609 -1.21609,1.72281c-1.52013,2.12817 -3.54696,4.05366 -5.67512,5.57378c-0.30402,0.20268 -0.70939,0.30402 -0.91207,0.60805c2.22951,-0.60805 4.45903,-1.41879 6.48586,-2.63488c1.01341,-0.40536 1.92549,-1.21609 2.63488,-2.02683c-0.50671,0.81073 -1.41879,1.52013 -1.92549,2.33086c-0.81073,0.91207 -1.72281,1.72281 -2.83756,2.4322c-2.4322,1.82415 -5.16842,3.24294 -7.90465,4.25635c2.53354,0.10134 4.76305,-0.30402 7.09391,-1.31743c1.11475,-0.30402 2.22951,-0.91207 3.24294,-1.52013c0.10134,0 0.30402,-0.10134 0.40536,-0.10134c-0.50671,0.10134 -0.70939,0.50671 -1.11475,0.70939c-0.50671,0.50671 -1.01341,0.70939 -1.52013,1.21609c-3.6483,2.4322 -7.80331,3.95232 -12.05964,4.66171l0,0.10134c0.81073,-0.20268 1.62147,-0.10134 2.4322,-0.10134c1.92549,0 3.95232,-0.10134 5.87782,-0.30402c0.40536,0 0.81073,0 1.21609,0c-0.30402,0.40536 -0.81073,0.30402 -1.21609,0.60805c-3.14158,1.01341 -6.28318,1.92549 -9.52612,2.12817c-1.11475,0 -2.22951,-0.10134 -3.34428,0.10134c2.83756,0.60805 5.3711,1.52013 8.41135,1.52013l0.10134,0.30402l-0.10134,0.20268c-1.11475,0.30402 -2.33086,0.40536 -3.44562,0.60805c-3.44562,0.30402 -6.99257,-0.10134 -10.23549,-1.21609c0.10134,0.20268 0.50671,0.30402 0.70939,0.50671c2.02683,1.31743 4.35769,1.92549 6.68854,2.53354c0.50671,0.50671 1.11475,-0.20268 1.31743,0.60805c-0.70939,0 -1.52013,0.10134 -2.22951,0c-3.6483,-0.30402 -7.09391,-1.21609 -10.43819,-2.53354c-0.40536,-0.20268 -0.81073,-0.40536 -1.21609,-0.50671c1.21609,1.41879 2.83756,2.53354 4.45903,3.44562c1.21609,0.60805 2.4322,1.01341 3.6483,1.72281c0.20268,0.20268 0.70939,0.10134 0.81073,0.40536c0.20268,0 0.40536,0 0.70939,0.20268c-1.82415,-0.20268 -3.6483,-0.40536 -5.3711,-1.21609c-3.14158,-1.11475 -5.97916,-2.9389 -8.61404,-4.86439c-0.20268,-0.20268 -0.40536,-0.50671 -0.70939,-0.50671c1.41879,2.12817 3.14158,4.05366 5.16842,5.67512c0.81073,0.81073 1.62147,1.52013 2.63488,2.12817c-0.50671,-0.20268 -0.91207,-0.60805 -1.41879,-0.70939c-0.60805,-0.30402 -1.11475,-0.60805 -1.82415,-0.81073c-2.9389,-1.62147 -5.77646,-3.6483 -8.10733,-6.0805c-0.40536,-0.40536 -0.81073,-1.11475 -1.31743,-1.41879c1.11475,2.12817 2.12817,4.15501 3.74964,5.87782c0.40536,0.91207 1.31743,1.62147 2.02683,2.4322c-0.40536,-0.20268 -0.70939,-0.50671 -1.01341,-0.81073c-0.50671,-0.20268 -0.70939,-0.60805 -1.21609,-0.81073c-0.30402,-0.10134 -0.50671,-0.40536 -0.81073,-0.60805c-3.14158,-2.4322 -5.87782,-5.57378 -7.39793,-9.32342c0.20268,1.11475 0.40536,2.22951 0.81073,3.24294c0.60805,1.82415 1.41879,3.44562 2.22951,5.16842c0.20268,0.60805 0.81073,0.91207 0.91207,1.62147c-0.60805,-0.81073 -1.31743,-1.72281 -2.12817,-2.4322c-0.30402,-0.50671 -0.70939,-0.81073 -1.01341,-1.31743c-2.12817,-2.83756 -4.25635,-6.28318 -4.56037,-9.93147c0,0.10134 -0.10134,0.20268 -0.10134,0.30402c0,1.52013 0,3.04024 0.30402,4.56037c0.20268,1.21609 0.60805,2.4322 0.70939,3.6483c0.30402,0.40536 0.30402,1.11475 0.60805,1.52013c-0.30402,-0.40536 -0.50671,-0.91207 -0.60805,-1.41879c-0.50671,-0.70939 -1.01341,-1.62147 -1.31743,-2.4322c-1.21609,-2.4322 -2.22951,-4.86439 -2.4322,-7.49927c0,-1.01341 0.10134,-2.12817 -0.10134,-3.14158c-1.11475,2.83756 -1.01341,5.77646 -0.50671,8.71538c0.10134,0.50671 0,1.01341 0,1.52013c0.10134,0.10134 0.20268,0.20268 0.20268,0.30402c-0.10134,0.10134 -0.10134,0.20268 -0.20268,0.40536l0,-0.40536c-0.40536,-0.40536 -0.40536,-1.01341 -0.70939,-1.41879c-0.40536,-1.11475 -0.70939,-2.33086 -0.91207,-3.54696c-0.70939,-3.04024 -0.60805,-6.0805 -0.30402,-9.12074c0.10134,-0.40536 0.20268,-0.81073 0.10134,-1.21609c-0.40536,1.11475 -0.91207,2.12817 -1.21609,3.34428c-0.50671,1.52013 -0.70939,3.14158 -1.01341,4.66171c-0.10134,0.40536 -0.10134,0.91207 -0.30402,1.31743c-0.20268,0.40536 0,0.91207 -0.20268,1.21609c-0.10134,-0.60805 -0.10134,-1.11475 -0.30402,-1.62147c-0.60805,-4.56037 0.81073,-9.32342 1.92549,-13.68111c0.20268,-0.60805 0.20268,-0.60805 0.81073,-0.60805l0.20268,0.40536c0.40536,1.92549 1.01341,3.74964 1.72281,5.57378l0.10134,0.10134c0.70939,-0.20268 1.41879,-0.60805 2.12817,-0.81073c0.10134,0 0.30402,0.10134 0.40536,0.20268c0.70939,1.82415 1.62147,3.54696 2.73622,5.16842c1.01341,-0.20268 1.92549,-0.91207 2.9389,-1.11475c1.01341,1.41879 2.12817,2.9389 3.34428,4.25635c0.40536,-0.30402 0.70939,-0.70939 1.21609,-1.01341c0.40536,-0.30402 0.70939,-0.91207 1.21609,-0.81073c1.62147,1.41879 3.24294,2.83756 5.06709,4.05366c0.50671,-0.70939 1.01341,-1.41879 1.41879,-2.12817c0.10134,0 0.30402,0 0.40536,0c1.62147,1.01341 3.34428,1.72281 5.16842,2.4322c0.40536,-0.81073 0.70939,-1.82415 1.21609,-2.63488c2.02683,0.50671 4.05366,0.91207 6.0805,1.31743c0.20268,-0.70939 0.30402,-1.41879 0.50671,-2.22951c0.10134,-0.20268 0.20268,-0.20268 0.40536,-0.20268c1.92549,0.20268 3.85098,0.30402 5.77646,0.10134c-0.10134,-0.91207 -0.10134,-1.82415 -0.10134,-2.73622c2.02683,-0.10134 4.35769,-0.40536 6.18184,-1.11475c-0.10134,-0.91207 -0.30402,-1.82415 -0.40536,-2.73622c0,-0.20268 0.10134,-0.30402 0.20268,-0.40536c0.50671,-0.20268 1.11475,-0.30402 1.62147,-0.40536c0,0.50671 -0.30402,0.60805 -0.60805,1.01341c2.02683,-0.40536 3.85098,-2.33086 5.3711,-3.54696c0.50671,-0.50671 0.91207,-1.01341 1.41879,-1.52013c0.20268,-0.30402 0.30402,-0.81073 0.81073,-1.11475l-0.00002,-0.00003zm-4.66171,0.91207c0.40536,-0.40536 1.31743,-0.70939 1.72281,-1.01341c-0.20268,0.70939 -0.70939,1.31743 -1.01341,1.92549c-0.40536,0 -0.60805,-0.60805 -0.70939,-0.91207zm0.81073,-9.0194c0.81073,-1.62147 1.62147,-3.54696 1.92549,-5.26976l0,0c0,0.50671 0.10134,0.91207 -0.10134,1.41879c-0.30402,2.12817 -0.60805,4.05366 -1.31743,6.0805c-0.30402,0.40536 -0.91207,0.70939 -1.31743,1.01341c-0.50671,0.40536 -1.11475,0.81073 -1.62147,1.01341c0,-0.30402 0.10134,-0.50671 0.30402,-0.70939c0.70939,-1.21609 1.52013,-2.33086 2.12817,-3.54696zm-2.63488,3.6483c0,0.20268 0,0.50671 0,0.70939c-1.52013,1.01341 -3.14158,1.82415 -4.76305,2.53354l-0.10134,0.10134c2.12817,-0.40536 4.25635,-0.81073 6.38452,-1.31743c0,0.30402 -0.10134,0.60805 -0.30402,0.91207c-3.24294,1.82415 -6.99257,2.9389 -10.53953,3.85098l-0.10134,0.10134c1.21609,0.20268 2.4322,0.40536 3.74964,0.40536c1.72281,0 3.34428,-0.30402 5.06709,-0.50671c0.50671,-0.30402 1.21609,-0.30402 1.72281,-0.60805c-0.30402,0.30402 -0.60805,0.40536 -1.01341,0.40536c0,0.20268 -0.20268,0.30402 -0.50671,0.20268l-0.10134,0.20268c-0.70939,0.20268 -1.41879,0.60805 -2.12817,0.81073c-3.74964,1.11475 -7.60061,1.31743 -11.4516,1.41879c2.9389,1.11475 6.18184,1.52013 9.42476,1.72281c0.50671,0.10134 1.11475,0 1.62147,0.10134c-0.30402,0.10134 -0.60805,-0.10134 -0.81073,0.20268c-0.30402,0 -0.50671,0.10134 -0.81073,0.30402c-4.96573,1.01341 -9.72879,0.30402 -14.59318,-0.91207c0.10134,0.20268 0.40536,0.30402 0.60805,0.40536c1.82415,1.21609 3.74964,2.22951 5.87782,2.9389c0.40536,0.20268 0.91207,0.20268 1.21609,0.50671c0.40536,0.10134 0.91207,0 1.31743,0.20268c-0.91207,0 -1.82415,0.10134 -2.73622,0c-3.44562,-0.30402 -6.78989,-1.31743 -9.93147,-2.73622c-0.50671,-0.20268 -1.01341,-0.60805 -1.52013,-0.70939c0.70939,0.70939 1.31743,1.41879 2.12817,2.02683c1.31743,1.21609 2.83756,1.82415 4.25635,2.73622c0.60805,0.20268 1.31743,0.60805 2.02683,0.60805l0,0.10134c-0.30402,0 -0.50671,-0.10134 -0.70939,-0.20268c-0.30402,-0.10134 -0.50671,0 -0.81073,-0.20268c-1.92549,-0.10134 -3.95232,-0.81073 -5.67512,-1.52013c-1.72281,-0.70939 -3.24294,-1.62147 -4.66171,-2.73622c-0.60805,-0.50671 -1.01341,-1.01341 -1.62147,-1.52013c1.11475,2.12817 2.83756,3.85098 4.56037,5.3711c0.91207,0.50671 1.52013,1.52013 2.4322,1.82415c0.20268,0.10134 0.30402,0.20268 0.40536,0.40536c-0.10134,-0.10134 -0.20268,-0.20268 -0.30402,-0.30402l-0.40536,0c-0.60805,-0.30402 -1.31743,-0.60805 -2.02683,-0.81073c-1.21609,-0.60805 -2.4322,-1.41879 -3.6483,-2.22951c-2.4322,-1.72281 -4.45903,-3.85098 -6.48586,-5.97916c0.60805,1.52013 1.21609,2.9389 2.02683,4.35769c0.70939,1.11475 1.21609,2.22951 2.12817,3.14158c-0.70939,-0.60805 -1.21609,-1.21609 -2.02683,-1.62147c-1.11475,-1.11475 -2.22951,-2.12817 -3.24294,-3.44562c-1.21609,-1.52013 -2.4322,-3.24294 -3.14158,-5.06709c0,1.11475 0.30402,2.22951 0.60805,3.34428c0.30402,1.21609 0.81073,2.33086 1.11475,3.54696c0.40536,0.91207 0.91207,1.62147 1.41879,2.4322c-0.81073,-0.91207 -1.41879,-2.12817 -2.33086,-2.9389c-2.22951,-3.14158 -3.95232,-6.68854 -5.26976,-10.33683c0,0.70939 0,1.52013 0,2.22951c0.10134,1.52013 0.50671,2.83756 0.91207,4.25635c0.40536,1.31743 0.91207,2.53354 1.01341,3.95232c0.20268,0.10134 0.10134,0.50671 0.10134,0.70939c-0.10134,-0.20268 -0.10134,-0.40536 -0.20268,-0.60805c-0.20268,-0.30402 -0.40536,-0.60805 -0.70939,-0.81073c-2.63488,-4.56037 -3.54696,-9.42476 -4.05366,-14.49184c0,1.82415 -0.50671,3.54696 -0.60805,5.3711c-0.20268,1.01341 -0.10134,2.4322 -0.20268,3.34428c-0.50671,0 -0.20268,-0.60805 -0.50671,-0.91207c-0.91207,-3.54696 -1.01341,-7.49927 -0.60805,-11.14757c0,-0.20268 0,-0.40536 0,-0.60805c-0.81073,2.33086 -1.82415,4.66171 -2.33086,7.09391c-0.30402,0.50671 -0.20268,0.91207 -0.30402,1.41879l-0.20268,0c0,-0.20268 0,-0.40536 0,-0.60805c-0.30402,-0.60805 -0.20268,-1.41879 -0.20268,-2.02683c-0.10134,-3.6483 0.50671,-7.29659 1.82415,-10.64087c0.10134,-0.40536 0.40536,-0.70939 0.20268,-1.11475c0.50671,-0.50671 1.21609,-0.81073 1.82415,-1.11475c1.01341,-0.60805 2.02683,-1.01341 2.9389,-1.41879c-1.62147,0.20268 -3.14158,0.60805 -4.66171,0.91207c-0.50671,0.10134 -1.11475,0.40536 -1.62147,0.20268c0.10134,-0.20268 0.20268,-0.50671 0.30402,-0.70939c3.24294,-1.82415 6.99257,-3.04024 10.64087,-3.85098c-0.10134,-0.10134 -0.20268,-0.20268 -0.30402,-0.20268c-1.11475,-0.20268 -2.33086,-0.30402 -3.44562,-0.40536c-1.92549,0 -4.05366,0.40536 -5.87782,0.70939c-0.30402,0.20268 -0.60805,0.20268 -0.91207,0.40536c0.20268,-0.30402 0.70939,-0.30402 0.91207,-0.50671c0.10134,-0.10134 0.30402,-0.10134 0.50671,0c0,-0.40536 0.81073,-0.40536 1.01341,-0.60805c3.85098,-1.52013 8.51269,-1.82415 12.6677,-1.82415c-0.20268,-0.20268 -0.50671,-0.20268 -0.81073,-0.30402c-2.83756,-0.91207 -5.77646,-1.31743 -8.71538,-1.41879c-0.50671,-0.10134 -1.01341,0 -1.41879,-0.10134l0.40536,0c0.30402,-0.40536 0.70939,-0.20268 1.01341,-0.50671c2.33086,-0.60805 4.35769,-0.50671 6.78989,-0.50671c2.73622,0.20268 5.47244,0.70939 8.10733,1.41879c-2.02683,-1.41879 -4.05366,-2.53354 -6.38452,-3.34428c-0.50671,-0.20268 -1.01341,-0.20268 -1.41879,-0.50671c-0.20268,-0.10134 -0.81073,0.10134 -0.91207,-0.20268c0.30402,-0.10134 0.81073,0.10134 1.01341,-0.20268c4.45903,0.20268 8.81672,1.52013 12.76904,3.6483c-0.30402,-0.40536 -0.70939,-0.81073 -1.11475,-1.21609c-1.41879,-1.41879 -3.04024,-2.4322 -4.86439,-3.34428c-0.30402,-0.30402 -0.81073,-0.30402 -1.11475,-0.60805c-0.60805,0.10134 -0.70939,-0.30402 -1.21609,-0.20268l0,-0.10134c0.30402,0 0.40536,0 0.70939,0.20268c0.30402,0 0.60805,-0.10134 0.81073,0.20268c2.33086,0.20268 4.66171,1.01341 6.68854,2.02683c1.92549,1.01341 3.85098,2.22951 5.16842,3.95232c-0.81073,-1.52013 -1.92549,-2.9389 -3.04024,-4.15501c-0.81073,-0.91207 -1.92549,-1.52013 -2.73622,-2.53354c-0.60805,-0.30402 -1.11475,-0.91207 -1.82415,-1.11475c0.91207,0.30402 1.82415,0.81073 2.73622,1.01341c2.02683,1.01341 3.85098,2.33086 5.57378,3.74964c0.50671,0.50671 1.01341,1.01341 1.62147,1.52013c1.11475,0.91207 1.92549,2.02683 2.83756,2.9389c-0.70939,-1.62147 -1.31743,-3.24294 -2.33086,-4.76305c-0.20268,-0.30402 -0.20268,-0.70939 -0.50671,-0.91207c-0.30402,-0.30402 -0.40536,-0.60805 -0.30402,-1.11475c0.10134,0.10134 0.10134,0.30402 0.20268,0.40536c1.11475,0.81073 2.12817,1.62147 2.9389,2.73622c1.72281,1.92549 3.04024,3.85098 4.25635,6.18184c-0.10134,-1.92549 -0.70939,-3.85098 -1.31743,-5.67512c-0.30402,-1.21609 -0.91207,-2.22951 -1.62147,-3.24294l0.10134,0c0.70939,0.91207 1.31743,1.92549 2.12817,2.73622c2.02683,2.9389 3.6483,6.0805 4.76305,9.32342c0.10134,0.20268 0.10134,0.50671 0.30402,0.70939c0.10134,-0.50671 0.10134,-1.01341 0.10134,-1.41879c-0.10134,-2.53354 -1.01341,-5.06709 -1.72281,-7.49927c-0.10134,-0.70939 -0.30402,-1.31743 -0.40536,-2.02683c0.20268,0.10134 0,0.40536 0.30402,0.50671c0.81073,0.91207 1.31743,1.92549 1.72281,3.04024c1.72281,3.85098 2.4322,7.80331 2.9389,11.9583c0.20268,-2.63488 0.91207,-4.96573 0.81073,-7.49927c0,-0.40536 0.20268,-0.81073 0.20268,-1.31743c0.30402,0.30402 0.10134,0.81073 0.40536,1.21609c1.01341,3.95232 1.01341,7.90465 0.60805,11.9583c0.20268,-0.10134 0.20268,-0.40536 0.30402,-0.70939c0.70939,-1.82415 1.41879,-3.6483 1.92549,-5.57378c0.10134,-0.50671 0.10134,-1.01341 0.30402,-1.41879c0.20268,-0.81073 0,-1.82415 0.20268,-2.63488c-0.10134,0.60805 0,1.11475 0,1.72281l0.20268,0.10134c0.70939,4.56037 0.10134,9.42476 -1.62147,13.68111l0.00006,0.0001zm-54.52176,-17.63344c0.20268,-0.60805 0.70939,-1.11475 1.11475,-1.62147c0.30402,-0.70939 0.81073,-1.21609 1.31743,-1.92549c1.21609,-1.62147 2.73622,-3.14158 4.35769,-4.35769c0.60805,-0.50671 1.41879,-0.91207 2.02683,-1.41879c-1.92549,0.50671 -3.85098,1.11475 -5.57378,2.12817c-1.11475,0.70939 -2.22951,1.01341 -3.14158,2.12817c-0.20268,0.30402 -0.50671,0.40536 -0.81073,0.60805c0.91207,-0.81073 1.72281,-1.82415 2.53354,-2.73622c2.9389,-2.9389 6.68854,-5.06709 10.53953,-6.48586c-2.4322,-0.30402 -5.16842,0.50671 -7.39793,1.41879c-1.01341,0.30402 -2.02683,0.81073 -2.9389,1.41879c0.60805,-0.50671 1.31743,-1.01341 1.92549,-1.52013c0.40536,-0.50671 1.01341,-0.81073 1.62147,-1.11475c2.73622,-1.62147 5.67512,-2.73622 8.81672,-3.54696c0.70939,-0.20268 1.31743,-0.30402 2.12817,-0.40536c-2.22951,0 -4.56037,0 -6.78989,0.20268c-0.60805,0.10134 -1.31743,0 -1.92549,0.20268l-0.10134,-0.30402l0.10134,-0.20268c4.35769,-1.52013 8.71538,-2.53354 13.37709,-2.33086c-2.33086,-0.50671 -4.56037,-1.31743 -6.99257,-1.52013c-0.70939,0 -1.41879,0 -2.12817,-0.30402c0.50671,-0.30402 0.81073,-0.40536 1.31743,-0.50671c4.15501,-0.81073 8.51269,-0.60805 12.46502,0.60805l0.40536,0c-0.20268,-0.10134 -0.50671,-0.30402 -0.70939,-0.40536c-2.22951,-1.41879 -4.86439,-2.12817 -7.39793,-2.63488c-0.50671,-0.30402 -1.21609,-0.10134 -1.72281,-0.30402c0.70939,0 1.52013,-0.10134 2.22951,-0.20268c4.45903,0.10134 8.81672,1.31743 12.97172,3.14158c-0.91207,-1.21609 -2.4322,-2.33086 -3.74964,-3.04024c-1.31743,-0.81073 -2.83756,-1.31743 -4.25635,-2.12817c-0.20268,-0.20268 -0.60805,-0.10134 -0.70939,-0.40536c-0.20268,-0.10134 -0.60805,0.10134 -0.60805,-0.20268c0.91207,0.10134 2.02683,0.30402 2.9389,0.40536c4.05366,1.01341 7.80331,3.24294 11.04623,5.77646c0.20268,0.10134 0.30402,0.20268 0.50671,0.30402c-1.21609,-2.02683 -2.83756,-3.54696 -4.45903,-5.06709c-0.40536,-0.50671 -1.01341,-0.70939 -1.41879,-1.31743c-0.60805,-0.30402 -1.01341,-0.91207 -1.62147,-1.11475c0.91207,0.20268 1.62147,0.81073 2.53354,1.11475c1.92549,1.01341 3.85098,2.22951 5.57378,3.6483c1.31743,1.01341 2.4322,2.22951 3.54696,3.34428c0.30402,0.30402 0.50671,0.81073 0.81073,1.01341c-1.01341,-1.92549 -2.02683,-3.85098 -3.34428,-5.57378c-0.70939,-1.01341 -1.31743,-1.92549 -2.12817,-2.73622c0.81073,0.50671 1.52013,1.21609 2.4322,1.62147c2.83756,2.33086 5.67512,5.06709 7.19525,8.51269c0.20268,0.30402 0.30402,0.70939 0.50671,1.01341c-0.30402,-1.31743 -0.50671,-2.63488 -1.01341,-3.95232c-0.40536,-1.21609 -1.11475,-2.4322 -1.52013,-3.6483c-0.40536,-0.70939 -0.81073,-1.52013 -1.41879,-2.22951c0.60805,0.60805 1.21609,1.21609 1.72281,1.92549c0.60805,0.40536 0.91207,1.01341 1.41879,1.52013c2.02683,2.63488 3.74964,5.3711 4.45903,8.61404c0.10134,0.60805 0.20268,1.11475 0.30402,1.72281c0,-0.40536 -0.10134,-0.70939 -0.10134,-1.11475c0.20268,-2.22951 -0.30402,-4.45903 -0.70939,-6.5872c-0.10134,-0.30402 0,-0.70939 -0.20268,-0.91207c0,-0.30402 -0.10134,-0.50671 -0.20268,-0.60805c0,-0.30402 -0.10134,-0.50671 -0.30402,-0.81073c0.10134,0 0.10134,0.10134 0.20268,0.20268c0.30402,0.70939 0.81073,1.72281 1.21609,2.33086c0.40536,0.81073 0.81073,1.72281 1.21609,2.53354c1.31743,2.83756 2.02683,5.87782 1.62147,9.0194c0.50671,-1.01341 0.81073,-2.73622 0.91207,-3.95232c0.10134,-2.02683 -0.20268,-4.05366 -0.40536,-6.0805c0,-0.20268 -0.10134,-0.50671 0.10134,-0.50671c0,0.20268 0,0.40536 0.10134,0.60805c0.30402,0.10134 0.30402,0.60805 0.50671,0.81073c0.91207,2.33086 1.31743,4.86439 1.41879,7.29659c0.10134,2.22951 -0.10134,4.45903 -0.30402,6.68854c0.30402,-0.60805 0.50671,-1.21609 0.70939,-1.82415c1.11475,-2.9389 1.31743,-5.77646 1.92549,-8.91806c0,0.50671 0.10134,0.91207 0.30402,1.41879c0.40536,3.04024 0,6.18184 -0.70939,9.22208c-0.40536,1.82415 -0.81073,3.6483 -1.31743,5.47244c-0.20268,0 -0.50671,0.10134 -0.70939,0.10134c-0.50671,-1.92549 -0.91207,-3.85098 -1.82415,-5.77646l-0.20268,-0.30402c-0.70939,0.30402 -1.62147,0.91207 -2.4322,0.81073c-0.70939,-1.92549 -1.72281,-3.6483 -2.83756,-5.3711c-1.01341,0.10134 -1.82415,0.81073 -2.73622,1.11475c-0.60805,-0.20268 -1.01341,-1.11475 -1.41879,-1.52013c-0.60805,-1.01341 -1.41879,-1.72281 -2.12817,-2.63488c-0.40536,0.30402 -0.81073,0.81073 -1.21609,1.01341c-0.40536,0.30402 -0.70939,0.91207 -1.21609,0.70939c-1.62147,-1.41879 -3.24294,-2.83756 -5.06709,-4.05366c-0.40536,0.70939 -1.01341,1.41879 -1.41879,2.22951c-0.60805,0.10134 -0.81073,-0.30402 -1.31743,-0.50671c-1.31743,-0.70939 -2.83756,-1.52013 -4.35769,-1.82415c-0.30402,0.70939 -0.60805,1.31743 -0.91207,2.02683c-0.10134,0.30402 -0.20268,0.50671 -0.60805,0.40536c-1.41879,-0.30402 -2.9389,-0.70939 -4.35769,-0.91207c-0.50671,-0.10134 -1.01341,-0.30402 -1.41879,-0.20268c-0.10134,0.70939 -0.20268,1.52013 -0.40536,2.22951l-0.20268,0.20268c-1.92549,-0.20268 -3.85098,-0.30402 -5.87782,-0.10134c-0.20268,0.40536 0,1.01341 -0.10134,1.41879c0,0.40536 0.20268,1.01341 -0.10134,1.31743c-2.02683,0.20268 -4.25635,0.40536 -6.0805,1.21609c0.20268,0.50671 0.20268,1.01341 0.30402,1.62147c0.10134,0.50671 0.20268,0.91207 0.10134,1.41879c-0.70939,0.20268 -1.41879,0.40536 -2.12817,0.60805c0.10134,-0.10134 0.10134,-0.20268 0.30402,-0.20268c0,-0.50671 0.60805,-0.70939 0.91207,-1.11475c-0.70939,0.20268 -1.31743,0.50671 -2.02683,0.91207c-1.31743,0.70939 -2.22951,1.72281 -3.44562,2.63488c-0.91207,0.91207 -1.62147,1.82415 -2.4322,2.83756c0.20268,-0.70939 0.60805,-1.21609 1.01341,-1.72281l0.00003,-0.00003z" id="svg_1" fill="#f68e45"/>
 </g>
</svg>