<svg xmlns="http://www.w3.org/2000/svg" viewBox="0 -0.5 40 40" shape-rendering="crispEdges">
<metadata>Made with Pixels to Svg https://codepen.io/shshaw/pen/XbxvNj</metadata>
<path stroke="#3100ff" d="M0 0h8M32 0h8M0 1h7M34 1h6M0 2h6M35 2h5M0 3h4M36 3h4M0 4h3M37 4h3M0 5h2M38 5h2M0 6h1M39 6h1M0 7h1M39 7h1M0 29h1M0 30h1M39 32h1M0 33h2M39 33h1M0 34h3M38 34h2M0 35h3M37 35h3M0 36h3M36 36h4M0 37h3M35 37h5M0 38h3M34 38h6M0 39h3M34 39h6" />
<path stroke="#3101ff" d="M8 0h1M31 0h1M7 1h1M33 1h1M6 2h1M34 2h1M4 3h1M35 3h1M3 4h1M36 4h1M2 5h1M37 5h1M1 6h1M38 6h1M0 8h1M39 8h1M0 28h1M39 31h1M38 33h1M37 34h1M3 35h1M36 35h1M35 36h1M34 37h1M3 39h1" />
<path stroke="#3005ff" d="M9 0h1M32 1h1M5 3h1M33 37h1" />
<path stroke="#3009ff" d="M10 0h1M0 26h1" />
<path stroke="#300cff" d="M11 0h1M0 25h1" />
<path stroke="#2e16ff" d="M12 0h1" />
<path stroke="#2b25ff" d="M13 0h1M28 0h1M10 1h1" />
<path stroke="#2a29ff" d="M14 0h1M5 38h1" />
<path stroke="#2a2aff" d="M15 0h2M1 25h1" />
<path stroke="#292bff" d="M17 0h1M27 0h1" />
<path stroke="#2438ff" d="M18 0h1M39 13h1M0 14h1M0 22h1M39 27h1" />
<path stroke="#144eff" d="M19 0h1M1 14h1M2 24h1M39 26h1" />
<path stroke="#0556ff" d="M20 0h1M24 0h1M17 2h2M26 2h1M12 3h1M37 13h1M2 14h1M39 15h1M0 16h1M0 20h1M3 24h1M39 25h1" />
<path stroke="#0057ff" d="M21 0h3M21 1h3M20 2h5M14 3h14M11 4h18M10 5h21M9 6h23M7 7h6M23 7h10M6 8h6M24 8h10M5 9h6M25 9h8M5 10h5M26 10h3M4 11h6M27 11h1M4 12h6M36 12h1M3 13h6M35 13h2M3 14h6M33 14h4M3 15h6M35 15h3M2 16h7M29 16h1M36 16h4M0 17h9M29 17h2M36 17h4M0 18h8M29 18h4M35 18h5M0 19h7M30 19h10M2 20h4M30 20h10M3 21h3M30 21h10M3 22h4M29 22h11M4 23h4M10 23h2M27 23h12M4 24h10M26 24h14M4 25h11M25 25h13M9 26h6M24 26h13M9 27h7M23 27h14M11 28h6M23 28h13M12 29h6M23 29h12M12 30h6M24 30h11M11 31h6M25 31h9M11 32h5M26 32h7M12 33h4M27 33h5M13 34h2" />
<path stroke="#134eff" d="M25 0h1M30 3h1M38 13h1" />
<path stroke="#2338ff" d="M26 0h1" />
<path stroke="#2f16ff" d="M29 0h1M9 1h1M32 2h1M5 4h1M2 7h1M37 7h1M1 9h1M39 10h1M0 11h1M0 24h1M1 27h1M39 29h1M37 32h1M33 36h1M5 39h1" />
<path stroke="#3007ff" d="M30 0h1M8 1h1M7 2h1M33 2h1M34 3h1M4 4h1M35 4h1M3 5h1M36 5h1M2 6h1M37 6h1M39 9h1M39 30h1M37 33h1M36 34h1M35 35h1M34 36h1M4 39h1" />
<path stroke="#292aff" d="M11 1h1" />
<path stroke="#2634ff" d="M12 1h1M30 2h1M7 4h1M2 9h1M37 9h1M1 11h1M1 24h1M37 30h1" />
<path stroke="#1d45ff" d="M13 1h1M28 1h1M6 5h1M2 10h1M38 11h1M1 23h1" />
<path stroke="#184bff" d="M14 1h1M11 2h1M1 13h1M2 25h1" />
<path stroke="#184cff" d="M15 1h2" />
<path stroke="#174cff" d="M17 1h1M27 1h1" />
<path stroke="#144fff" d="M18 1h1M0 15h1" />
<path stroke="#0b54ff" d="M19 1h1M29 3h1M1 15h1M1 21h1M38 26h1" />
<path stroke="#0357ff" d="M20 1h1M24 1h1M4 10h1M3 12h1M37 14h1M2 15h1M2 21h1M3 23h1M37 26h1M35 29h1" />
<path stroke="#0a54ff" d="M25 1h1M38 14h1" />
<path stroke="#134fff" d="M26 1h1M39 14h1" />
<path stroke="#2830ff" d="M29 1h1M8 3h1M32 3h1M33 4h1M5 5h1M4 6h1M36 7h1M38 10h1M38 29h1M36 32h1M35 33h1M34 34h1M33 35h1" />
<path stroke="#2e18ff" d="M30 1h1M7 3h1M38 9h1M38 30h1" />
<path stroke="#300bff" d="M31 1h1M6 3h1M1 8h1M38 8h1M0 10h1M38 31h1" />
<path stroke="#2e17ff" d="M8 2h1M33 3h1M34 4h1M4 5h1M35 5h1M3 6h1M36 6h1M36 33h1M35 34h1M34 35h1" />
<path stroke="#282fff" d="M9 2h1M3 7h1" />
<path stroke="#1d44ff" d="M10 2h1M3 8h1M1 12h1M2 26h1M38 28h1M36 31h1M32 35h1M12 36h1" />
<path stroke="#154eff" d="M12 2h1M7 5h1M2 11h1M0 21h1M1 22h1M38 27h1M36 30h1" />
<path stroke="#0c53ff" d="M13 2h1M31 4h1M32 5h1M33 6h1M34 7h1M34 32h1M10 33h1" />
<path stroke="#0656ff" d="M14 2h3M27 2h1M11 3h1M30 4h1M7 6h1M4 9h1M3 11h1M37 12h1M2 22h1M37 27h1M35 30h1M31 34h1M13 35h1" />
<path stroke="#0257ff" d="M19 2h1M25 2h1M13 3h1M29 4h1M8 6h1M38 15h1M1 16h1M1 20h1M38 25h1M10 32h1M30 34h1" />
<path stroke="#0d53ff" d="M28 2h1M10 3h1M9 4h1M6 6h1M5 7h1M4 8h1M37 11h1M2 12h1M2 23h1M3 26h1M37 28h1M35 31h1M33 33h1M11 34h1M32 34h1M12 35h1" />
<path stroke="#1a48ff" d="M29 2h1M35 7h1" />
<path stroke="#2b26ff" d="M31 2h1M6 4h1M2 8h1M37 8h1M1 10h1M0 23h1M39 28h1M37 31h1" />
<path stroke="#1b47ff" d="M9 3h1M8 4h1M5 6h1M4 7h1M37 29h1M34 33h1M10 34h1M33 34h1M11 35h1" />
<path stroke="#0456ff" d="M28 3h1M10 4h1M9 5h1M31 5h1M32 6h1M6 7h1M33 7h1M5 8h1M36 11h1M36 28h1M34 31h1M33 32h1M11 33h1M32 33h1M12 34h1" />
<path stroke="#1c45ff" d="M31 3h1M36 8h1" />
<path stroke="#1b48ff" d="M32 4h1M37 10h1M35 32h1" />
<path stroke="#0c54ff" d="M8 5h1M36 29h1" />
<path stroke="#1948ff" d="M33 5h1M34 6h1" />
<path stroke="#2730ff" d="M34 5h1M35 6h1" />
<path stroke="#3105ff" d="M1 7h1M38 7h1M0 9h1M0 27h1M38 32h1M3 36h1M3 38h1" />
<path stroke="#000000" d="M13 7h10M12 8h1M23 8h1M34 8h2M11 9h1M24 9h1M33 9h1M36 9h1M10 10h1M25 10h1M29 10h4M36 10h1M10 11h5M17 11h7M26 11h1M28 11h1M35 11h1M10 12h1M15 12h2M24 12h4M35 12h1M9 13h1M27 13h1M30 13h5M9 14h1M28 14h1M32 14h1M9 15h1M28 15h2M33 15h2M9 16h1M14 16h1M20 16h1M28 16h1M30 16h1M35 16h1M9 17h1M13 17h2M19 17h2M27 17h2M31 17h2M35 17h1M8 18h3M15 18h1M24 18h2M28 18h1M33 18h2M7 19h1M16 19h3M26 19h1M29 19h1M6 20h1M9 20h4M25 20h1M27 20h1M29 20h1M6 21h1M8 21h1M13 21h4M24 21h1M29 21h1M7 22h1M10 22h3M14 22h11M27 22h2M8 23h2M12 23h2M15 23h4M22 23h2M26 23h1M14 24h1M16 24h2M21 24h3M25 24h1M15 25h1M17 25h1M20 25h3M24 25h1M4 26h3M15 26h1M17 26h5M23 26h1M2 27h2M7 27h1M16 27h1M18 27h3M22 27h1M1 28h1M4 28h1M8 28h3M17 28h1M21 28h2M1 29h1M5 29h1M8 29h1M11 29h1M18 29h3M22 29h1M2 30h1M6 30h2M11 30h1M18 30h1M22 30h2M3 31h2M10 31h1M17 31h2M23 31h2M9 32h1M16 32h1M25 32h1M16 33h1M26 33h1M9 34h1M15 34h1M27 34h3M10 35h1M14 35h2M30 35h2M11 36h1M13 36h1M31 36h2M12 37h1M32 37h1M12 38h1M28 38h1M33 38h1M12 39h1M15 39h1M28 39h2M33 39h1" />
<path stroke="#53b300" d="M13 8h10M12 9h3M23 9h1M11 10h4M23 10h2M24 11h2" />
<path stroke="#154dff" d="M3 9h1M9 33h1" />
<path stroke="#54b300" d="M15 9h8M15 10h8M15 11h2M4 27h3M2 28h2M5 28h3M2 29h3M6 29h2M9 29h2M21 29h1M3 30h2M9 30h2M19 30h3M9 31h1M19 31h4M17 32h8M17 33h9M16 34h1M19 34h5M9 35h1M21 35h2M28 35h2M9 36h2M14 36h2M29 36h2M9 37h3M13 37h2M29 37h3M8 38h4M13 38h2M29 38h4M8 39h4M13 39h2M30 39h3" />
<path stroke="#f30000" d="M34 9h2M33 10h3M29 11h6M11 12h4M17 12h7M28 12h7M10 13h2M15 13h3M21 13h6M28 13h2M10 14h2M16 14h2M22 14h6M29 14h3M10 15h2M16 15h2M22 15h6M30 15h3M10 16h2M16 16h2M22 16h6M31 16h4M10 17h2M16 17h2M22 17h2M33 17h2M11 18h4M18 18h5M19 23h3M18 24h3M18 25h2M6 32h1M7 36h1" />
<path stroke="#0d54ff" d="M3 10h1" />
<path stroke="#2c25ff" d="M39 11h1M0 12h1" />
<path stroke="#174bff" d="M38 12h1" />
<path stroke="#2a2bff" d="M39 12h1M0 13h1" />
<path stroke="#0756ff" d="M2 13h1M3 25h1" />
<path stroke="#ffffff" d="M12 13h3M18 13h3M12 14h4M18 14h4M12 15h4M18 15h4M12 16h2M15 16h1M18 16h2M21 16h1M12 17h1M15 17h1M18 17h1M21 17h1" />
<path stroke="#ff8900" d="M24 17h3M16 18h2M23 18h1M26 18h2M8 19h8M19 19h7M27 19h2M7 20h2M13 20h12M26 20h1M28 20h1M7 21h1M9 21h4M17 21h7M25 21h4M8 22h2M13 22h1M25 22h2M14 23h1M24 23h2M15 24h1M24 24h1M16 25h1M23 25h1M16 26h1M22 26h1M17 27h1M21 27h1M18 28h3" />
<path stroke="#0056ff" d="M39 23h1" />
<path stroke="#2c24ff" d="M1 26h1" />
<path stroke="#eeb40c" d="M7 26h2" />
<path stroke="#c28d09" d="M8 27h1M2 31h1M0 32h1" />
<path stroke="#eeb50c" d="M1 30h1M1 31h1M2 33h1M3 34h1M4 35h1M5 37h1M8 37h1M6 38h2M7 39h1" />
<path stroke="#ffd969" d="M5 30h1M8 30h1M0 31h1M6 31h1M8 31h1M2 32h3M7 32h1M3 33h2M7 33h2M4 34h1M6 34h1M8 34h1M5 35h2M5 36h1M6 37h2" />
<path stroke="#f8e4ab" d="M5 31h1M7 31h1M8 32h1M5 34h1M7 34h1M6 36h1" />
<path stroke="#c28e09" d="M1 32h1" />
<path stroke="#b60605" d="M5 32h1M5 33h2M7 35h2M8 36h1" />
<path stroke="#c48a02" d="M17 34h2M24 34h3M16 35h1M19 35h2M23 35h1M27 35h1M16 36h1M20 36h3M21 37h1M21 38h1M27 38h1M20 39h3M27 39h1" />
<path stroke="#ffb400" d="M17 35h2M24 35h3M17 36h3M23 36h5M16 37h5M22 37h6M16 38h5M22 38h5M17 39h3M23 39h4" />
<path stroke="#2f12ff" d="M4 36h1" />
<path stroke="#c48902" d="M28 36h1M15 37h1M28 37h1M15 38h1M16 39h1" />
<path stroke="#3008ff" d="M3 37h1" />
<path stroke="#2e1dff" d="M4 37h1" />
<path stroke="#2f13ff" d="M4 38h1" />
<path stroke="#292eff" d="M6 39h1" />
</svg>