<svg xmlns="http://www.w3.org/2000/svg" viewBox="0 -0.5 40 40" shape-rendering="crispEdges">
<metadata>Made with Pixels to Svg https://codepen.io/shshaw/pen/XbxvNj</metadata>
<path stroke="#11da9e" d="M0 0h14M16 0h1M19 0h2M22 0h18M0 1h15M19 1h1M21 1h2M24 1h16M0 2h13M14 2h2M21 2h1M23 2h17M0 3h14M22 3h18M0 4h15M22 4h18M0 5h14M23 5h17M0 6h14M24 6h16M0 7h13M25 7h15M0 8h12M25 8h15M0 9h12M26 9h14M0 10h11M26 10h14M0 11h11M27 11h13M0 12h11M27 12h13M0 13h10M27 13h13M0 14h10M28 14h12M0 15h9M28 15h12M0 16h9M28 16h12M0 17h9M29 17h11M0 18h8M29 18h11M0 19h7M30 19h10M0 20h6M30 20h10M0 21h6M30 21h10M0 22h7M29 22h11M0 23h8M10 23h2M27 23h13M0 24h14M26 24h14M0 25h15M25 25h15M0 26h15M24 26h16M0 27h16M23 27h17M0 28h16M25 28h15M0 29h15M26 29h14M0 30h15M26 30h14M0 31h15M26 31h14M0 32h16M26 32h14M0 33h16M27 33h13M0 34h15M30 34h10M0 35h14M31 35h9M0 36h13M32 36h8M0 37h12M33 37h7M0 38h12M33 38h7M0 39h12M33 39h7" />
<path stroke="#000000" d="M14 0h2M17 0h2M21 0h1M15 1h4M20 1h1M23 1h1M13 2h1M16 2h5M22 2h1M14 3h2M21 3h1M11 10h13M11 11h13M12 12h1M15 12h1M17 12h1M21 12h1M11 13h1M15 13h1M17 13h1M21 13h1M11 14h1M13 14h3M17 14h1M19 14h3M9 15h3M13 15h3M17 15h1M19 15h3M9 16h1M11 16h1M13 16h3M17 16h1M19 16h3M23 16h4M9 17h1M12 17h1M15 17h3M21 17h2M27 17h2M8 18h8M17 18h1M20 18h2M24 18h2M28 18h1M7 19h1M16 19h5M26 19h1M29 19h1M6 20h1M9 20h4M25 20h1M27 20h1M29 20h1M6 21h1M8 21h1M13 21h4M24 21h1M29 21h1M7 22h1M10 22h3M14 22h1M17 22h8M27 22h2M8 23h2M12 23h2M15 23h1M23 23h1M26 23h1M14 24h1M16 24h1M23 24h1M25 24h1M15 25h1M17 25h1M22 25h1M24 25h1M15 26h1M17 26h1M21 26h1M23 26h1M16 27h1M18 27h3M22 27h1M16 28h2M21 28h4M15 29h1M18 29h3M25 29h1M15 30h1M25 30h1M15 31h1M25 31h1M16 32h1M25 32h1M16 33h1M24 33h1M26 33h1M15 34h1M17 34h1M23 34h1M27 34h3M14 35h1M18 35h1M22 35h1M30 35h1M13 36h1M19 36h1M21 36h1M31 36h1M12 37h1M20 37h1M32 37h1M12 38h1M16 38h1M28 38h1M32 38h1M12 39h1M16 39h1M28 39h1M32 39h1" />
<path stroke="#f3dc02" d="M16 3h1M15 4h2M14 5h2M14 6h1M13 7h2M12 8h2M12 9h1M10 13h1M10 14h1" />
<path stroke="#ffe803" d="M17 3h3M17 4h1M20 4h1M16 5h1M21 5h1M15 6h2M21 6h2M15 7h2M21 7h3M17 8h7M13 9h12M24 10h1M24 11h2M16 12h1M24 12h2M16 13h1M25 13h1M16 14h1M25 14h1M16 15h1M16 16h1" />
<path stroke="#ffef4c" d="M20 3h1M21 4h1M22 5h1M23 6h1M24 7h1M24 8h1M25 9h1M25 10h1M26 11h1M26 12h1M26 13h1M26 14h2M26 15h2M27 16h1" />
<path stroke="#ffe903" d="M18 4h2M17 5h4M17 6h4M17 7h4M14 8h3M22 12h2M22 13h3M22 14h3M22 15h4M22 16h1" />
<path stroke="#f3db02" d="M11 12h1" />
<path stroke="#ffffff" d="M13 12h2M18 12h3M12 13h3M18 13h3M12 14h1M18 14h1M12 15h1M18 15h1M12 16h1M18 16h1M13 17h2M18 17h3M18 18h2M21 29h3M19 30h5M19 31h4M18 33h1M20 33h1M22 33h1M18 34h1M20 34h1M22 34h1M20 35h1" />
<path stroke="#ff8a00" d="M10 16h1M10 17h2M23 17h4M16 18h1M22 18h2M26 18h2M8 19h8M21 19h5M27 19h2M7 20h2M13 20h12M26 20h1M28 20h1M7 21h1M9 21h4M17 21h7M25 21h4M8 22h2M13 22h1M25 22h2M14 23h1M24 23h2M15 24h1M24 24h1M16 25h1M23 25h1M16 26h1M22 26h1M17 27h1M21 27h1M18 28h3" />
<path stroke="#ff0000" d="M15 22h2M16 23h3M22 23h1M17 24h1M21 24h2M20 25h2M18 26h3" />
<path stroke="#fc809a" d="M19 23h3M18 24h3M18 25h2" />
<path stroke="#a8a8ad" d="M16 29h1M16 30h1M16 31h2M17 32h5" />
<path stroke="#d1d1d7" d="M17 29h1M17 30h1M17 33h1M19 33h1M21 33h1M19 34h1M21 34h1M19 35h1M21 35h1M20 36h1" />
<path stroke="#e8e8ed" d="M24 29h1M18 30h1M24 30h1M18 31h1M23 31h2M23 33h1" />
<path stroke="#bfbfc4" d="M22 32h3" />
<path stroke="#02c700" d="M25 33h1M16 34h1" />
<path stroke="#080af0" d="M24 34h1M15 35h1M24 35h1M27 35h1M15 36h1M18 36h1M24 36h1M27 36h1M30 36h1M15 37h1M18 37h1M21 37h1M24 37h1M27 37h1M30 37h1M15 38h1M18 38h1M21 38h1M24 38h1M27 38h1M30 38h1M15 39h1M18 39h1M21 39h1M24 39h1M27 39h1M30 39h1" />
<path stroke="#03c700" d="M25 34h1M16 35h1M25 35h1M28 35h1M16 36h1M22 36h1M25 36h1M28 36h1M13 37h1M16 37h1M19 37h1M22 37h1M25 37h1M28 37h1M31 37h1M13 38h1M19 38h1M22 38h1M25 38h1M31 38h1M13 39h1M19 39h1M22 39h1M25 39h1M31 39h1" />
<path stroke="#da0504" d="M26 34h1M17 35h1M23 35h1M26 35h1M29 35h1M14 36h1M17 36h1M23 36h1M26 36h1M29 36h1M14 37h1M17 37h1M23 37h1M26 37h1M29 37h1M14 38h1M17 38h1M20 38h1M23 38h1M26 38h1M29 38h1M14 39h1M17 39h1M20 39h1M23 39h1M26 39h1M29 39h1" />
</svg>