<svg xmlns="http://www.w3.org/2000/svg" viewBox="0 -0.5 40 40" shape-rendering="crispEdges">
<metadata>Made with Pixels to Svg https://codepen.io/shshaw/pen/XbxvNj</metadata>
<path stroke="#ea6000" d="M0 0h9M28 0h8M0 1h9M29 1h2M0 2h5M30 2h1M0 3h5M39 3h1M0 4h5M39 4h1M0 5h5M39 5h1M0 6h5M39 6h1M0 7h2M39 7h1M0 8h2M39 8h1M0 9h2M35 9h5M0 10h2M35 10h5M35 11h5M31 12h9M31 13h9M10 14h1M31 14h9M6 15h4M31 15h9M6 16h3M31 16h9M6 17h3M29 17h6M6 18h2M29 18h6M6 19h1M30 19h5M3 20h3M30 20h5M3 21h3M30 21h5M3 22h4M29 22h3M0 23h8M10 23h1M27 23h5M0 24h11M26 24h6M0 25h7M25 25h7M0 26h7M24 26h4M0 27h7M23 27h5M0 28h2M23 28h5M0 29h2M15 29h3M23 29h5M0 30h2M15 30h2M36 30h4M0 31h2M15 31h1M36 31h4M0 32h2M36 32h4M10 33h4M36 33h4M10 34h4M32 34h8M10 35h4M32 35h8M10 36h3M33 36h7M7 37h5M33 37h7M7 38h5M34 38h6M7 39h5M34 39h6" />
<path stroke="#eac600" d="M9 0h1M36 0h4M31 1h9M5 2h3M31 2h9M5 3h2M31 3h8M5 4h1M32 4h7M5 5h1M32 5h7M5 6h1M32 6h7M2 7h4M32 7h7M2 8h4M32 8h7M2 9h4M32 9h3M2 10h5M32 10h3M0 11h8M31 11h4M0 12h9M0 13h10M0 14h10M30 14h1M0 15h6M29 15h2M0 16h6M29 16h2M0 17h6M35 17h5M0 18h6M35 18h5M0 19h6M35 19h5M0 20h3M35 20h5M0 21h3M35 21h5M0 22h3M32 22h8M11 23h1M32 23h8M11 24h3M32 24h8M7 25h8M32 25h8M7 26h8M28 26h12M7 27h9M28 27h12M2 28h15M28 28h12M2 29h13M28 29h12M2 30h13M24 30h12M2 31h13M25 31h11M2 32h13M26 32h10M0 33h10M27 33h9M0 34h10M30 34h2M0 35h10M0 36h10M0 37h7M0 38h7M0 39h7" />
<path stroke="#814338" d="M10 0h9M20 0h1M22 0h2M25 0h2M9 1h1M11 1h1M14 1h7M22 1h1M25 1h2M8 2h3M13 2h1M16 2h2M20 2h2M26 2h1M29 2h1M7 3h1M13 3h8M22 3h1M6 4h1M12 4h1M14 4h7M22 4h1M24 4h1M9 5h1M12 5h1M14 5h1M16 5h7M31 5h1M6 6h2M11 6h1M14 6h7M22 6h1M24 6h1M27 6h1M30 6h2M6 7h1M8 7h1M12 7h9M22 7h1M25 7h1M28 7h2M31 7h1M23 8h1M25 8h2M28 8h1M9 9h2M24 9h1M31 9h1M7 10h1M27 10h1M30 10h2M26 11h1M30 11h1M9 12h1M25 12h1M28 12h1M30 12h1M26 13h1M28 13h3M28 14h2M23 15h1M18 35h1M22 36h1M18 37h1M23 37h1M22 38h1M20 39h1" />
<path stroke="#a05143" d="M19 0h1M21 1h1M23 1h2M18 2h2M22 2h1M8 3h3M21 3h1M25 3h1M27 3h2M7 4h2M10 4h1M21 4h1M25 4h2M11 5h1M26 5h1M28 5h1M30 5h1M8 6h1M26 6h1M30 7h1M10 8h1M27 8h1M8 9h1M27 9h1M30 9h1M28 11h2" />
<path stroke="#b75240" d="M21 0h1M24 0h1M27 0h1M27 1h2M23 2h1M25 2h1M27 2h2M30 3h1M23 4h1M29 4h1M31 4h1M23 5h1M29 5h1M28 6h1M30 8h2M29 9h1M23 35h1M18 39h1M22 39h1" />
<path stroke="#6c342a" d="M10 1h1M12 1h2M11 2h2M14 2h2M24 2h1M11 3h2M23 3h2M26 3h1M29 3h1M9 4h1M11 4h1M13 4h1M27 4h1M30 4h1M6 5h3M10 5h1M13 5h1M15 5h1M24 5h2M27 5h1M9 6h2M12 6h2M21 6h1M23 6h1M25 6h1M29 6h1M7 7h1M9 7h3M21 7h1M23 7h2M26 7h2M6 8h4M11 8h1M24 8h1M29 8h1M6 9h2M28 9h1M8 10h2M25 10h2M28 10h2M8 11h2M25 11h1M27 11h1M26 12h2M29 12h1M10 13h1M24 13h2M24 14h2M24 15h2" />
<path stroke="#884539" d="M28 4h1M25 9h2" />
<path stroke="#000000" d="M12 8h1M11 9h3M18 9h4M10 10h1M22 10h1M10 11h1M13 11h2M18 11h3M10 12h1M12 12h1M15 12h1M17 12h1M21 12h1M11 13h1M15 13h1M17 13h1M21 13h1M11 14h1M15 14h1M17 14h1M20 14h2M10 15h2M14 15h2M17 15h1M19 15h3M28 15h1M9 16h1M11 16h1M14 16h2M17 16h1M19 16h3M23 16h4M28 16h1M9 17h1M12 17h1M14 17h4M19 17h4M27 17h2M8 18h8M17 18h1M20 18h2M24 18h2M28 18h1M7 19h1M16 19h5M26 19h1M29 19h1M6 20h1M9 20h4M25 20h1M27 20h1M29 20h1M6 21h1M8 21h1M13 21h4M24 21h1M29 21h1M7 22h1M10 22h3M14 22h1M17 22h8M27 22h2M8 23h2M12 23h2M15 23h1M23 23h1M26 23h1M14 24h1M16 24h1M23 24h1M25 24h1M15 25h1M17 25h1M22 25h1M24 25h1M15 26h1M17 26h1M21 26h1M23 26h1M16 27h1M18 27h3M22 27h1M17 28h1M21 28h2M18 29h2M22 29h1M17 30h1M22 30h2M16 31h1M24 31h1M15 32h1M25 32h1M14 33h1M26 33h1M14 34h1M27 34h3M14 35h1M30 35h2M13 36h1M31 36h2M12 37h1M32 37h1M12 38h1M33 38h1M12 39h1M33 39h1" />
<path stroke="#ffffff" d="M13 8h10M14 9h4M22 9h2M11 10h11M23 10h2M11 11h2M15 11h3M21 11h4M11 12h1M16 12h1M22 12h3M16 13h1M22 13h2M27 13h1M14 14h1M16 14h1M19 14h1M22 14h2M26 14h2M16 15h1M22 15h1M26 15h2M16 16h1M22 16h1M27 16h1M20 29h2M18 30h4M18 31h5M17 32h1M19 32h3M23 32h2M17 33h1M19 33h2M22 33h3M17 34h2M20 34h1M22 34h2M19 35h1M21 35h2M18 36h1M23 36h1M22 37h1M18 38h1M23 38h1M19 39h1M21 39h1M23 39h1" />
<path stroke="#a6dcee" d="M13 12h2M18 12h3M12 13h3M18 13h3M12 14h2M18 14h1M12 15h2M18 15h1M12 16h2M18 16h1M13 17h1M18 17h1M18 18h2" />
<path stroke="#ff8a00" d="M10 16h1M10 17h2M23 17h4M16 18h1M22 18h2M26 18h2M8 19h8M21 19h5M27 19h2M7 20h2M13 20h12M26 20h1M28 20h1M7 21h1M9 21h4M17 21h7M25 21h4M8 22h2M13 22h1M25 22h2M14 23h1M24 23h2M15 24h1M24 24h1M16 25h1M23 25h1M16 26h1M22 26h1M17 27h1M21 27h1M18 28h3" />
<path stroke="#ff0000" d="M15 22h2M16 23h3M22 23h1M17 24h1M21 24h2M20 25h2M18 26h3" />
<path stroke="#fc809a" d="M19 23h3M18 24h3M18 25h2" />
<path stroke="#fcab06" d="M17 31h1M22 32h1M18 33h1M19 34h1M21 34h1M20 35h1M20 36h1M19 37h1M21 37h1M20 38h1" />
<path stroke="#fce806" d="M23 31h1M18 32h1M21 33h1M19 36h1M21 36h1M20 37h1M19 38h1M21 38h1" />
<path stroke="#673297" d="M16 32h1M16 33h1M25 33h1M16 34h1M24 34h1M17 35h1M24 35h1M29 35h1M17 36h1M24 36h1M29 36h1M14 37h1M17 37h1M24 37h1M28 37h1M15 38h1M17 38h1M24 38h1M27 38h1M16 39h1M25 39h2" />
<path stroke="#c189f4" d="M15 33h1M15 34h1M25 34h2M15 35h2M25 35h4M14 36h3M25 36h4M30 36h1M13 37h1M15 37h2M25 37h3M29 37h3M13 38h2M16 38h1M25 38h2M28 38h5M13 39h3M17 39h1M24 39h1M27 39h6" />
</svg>