<svg xmlns="http://www.w3.org/2000/svg" viewBox="0 -0.5 40 40" shape-rendering="crispEdges">
<metadata>Made with Pixels to Svg https://codepen.io/shshaw/pen/XbxvNj</metadata>
<path stroke="#000000" d="M0 0h1M13 0h3M19 0h1M21 0h7M13 1h3M19 1h1M21 1h6M13 2h3M19 2h1M21 2h6M6 3h2M19 3h1M21 3h4M6 4h4M32 4h2M8 5h9M30 5h4M11 6h21M12 7h1M17 7h11M11 8h1M27 8h1M10 9h1M12 9h2M18 9h4M28 9h1M10 10h1M22 10h1M29 10h1M10 11h1M13 11h2M18 11h3M29 11h1M10 12h1M12 12h4M17 12h5M29 12h1M9 13h1M11 13h5M17 13h5M29 13h1M9 14h1M11 14h1M15 14h1M17 14h1M21 14h1M29 14h1M10 15h2M13 15h1M15 15h1M17 15h1M19 15h1M21 15h1M29 15h1M9 16h1M11 16h1M15 16h1M17 16h1M21 16h1M23 16h4M29 16h1M9 17h1M12 17h11M27 17h1M29 17h1M8 18h8M17 18h5M24 18h2M28 18h1M7 19h1M17 19h4M26 19h1M29 19h1M6 20h1M9 20h4M25 20h1M27 20h1M29 20h1M6 21h1M8 21h1M13 21h4M24 21h1M29 21h1M7 22h1M10 22h3M14 22h1M17 22h8M27 22h2M8 23h2M13 23h1M15 23h1M23 23h1M26 23h1M14 24h1M16 24h1M23 24h1M25 24h1M15 25h1M17 25h1M22 25h1M24 25h1M15 26h1M17 26h1M21 26h1M23 26h1M26 26h8M10 27h2M16 27h1M18 27h3M22 27h1M26 27h8M9 28h3M17 28h1M21 28h1M32 28h2M8 29h4M18 29h3M31 29h2M10 30h2M30 30h2M10 31h2M29 31h4M10 32h2M32 32h2M10 33h2M32 33h2M10 34h2M32 34h2M10 35h2M26 35h2M32 35h2M0 36h1M8 36h6M26 36h7M0 37h1M8 37h6M27 37h5M0 38h2M0 39h3M39 39h1" />
<path stroke="#020000" d="M1 0h1M39 0h1M0 1h1M0 35h1M1 37h1M2 38h1M39 38h1M3 39h1M38 39h1" />
<path stroke="#0a0000" d="M2 0h1M1 1h1M39 1h1M0 2h1M39 37h1M38 38h1M37 39h1" />
<path stroke="#1a0101" d="M3 0h1M36 39h1" />
<path stroke="#390303" d="M4 0h1M35 39h1" />
<path stroke="#620404" d="M5 0h1M38 4h1" />
<path stroke="#8b0404" d="M6 0h1M0 7h1" />
<path stroke="#b70404" d="M7 0h1M0 8h1M39 31h1" />
<path stroke="#e60202" d="M8 0h1M0 9h1M0 27h1M1 28h1M39 30h1" />
<path stroke="#fc0101" d="M9 0h1M30 0h1M2 28h1M9 39h1M31 39h1" />
<path stroke="#ff0000" d="M10 0h3M28 0h2M10 1h3M27 1h3M9 2h4M27 2h4M8 3h6M27 3h6M10 4h4M27 4h5M5 5h3M26 5h4M34 5h1M5 6h6M32 6h4M4 7h8M28 7h8M3 8h8M28 8h9M3 9h7M29 9h8M2 10h8M30 10h8M0 11h10M30 11h10M0 12h10M30 12h10M0 13h9M30 13h10M0 14h9M30 14h10M0 15h10M30 15h10M0 16h9M30 16h10M0 17h9M30 17h10M0 18h8M29 18h11M0 19h7M30 19h10M0 20h6M30 20h10M0 21h6M30 21h10M0 22h7M16 22h1M29 22h11M0 23h8M10 23h3M16 23h1M18 23h1M20 23h1M22 23h1M27 23h13M0 24h14M17 24h6M26 24h14M0 25h15M18 25h4M25 25h15M2 26h13M19 26h1M24 26h2M34 26h6M3 27h7M12 27h4M23 27h3M34 27h6M3 28h6M12 28h5M22 28h10M34 28h6M3 29h5M12 29h6M21 29h10M33 29h5M4 30h6M12 30h18M32 30h5M4 31h6M12 31h17M33 31h4M5 32h5M12 32h20M34 32h2M6 33h4M12 33h20M34 33h2M6 34h4M12 34h20M34 34h1M7 35h3M12 35h14M28 35h4M14 36h12M14 37h13M10 38h21M10 39h21" />
<path stroke="#7d7979" d="M16 0h3M16 1h3M16 2h3M18 3h1" />
<path stroke="#6b6969" d="M20 0h1M20 1h1M20 2h1M20 3h1" />
<path stroke="#e70202" d="M31 0h1M39 9h1" />
<path stroke="#b80404" d="M32 0h1M0 28h1" />
<path stroke="#8c0404" d="M33 0h1M39 32h1" />
<path stroke="#670505" d="M34 0h1" />
<path stroke="#4c0505" d="M35 0h1" />
<path stroke="#3b0505" d="M36 0h1" />
<path stroke="#250303" d="M37 0h1" />
<path stroke="#0f0101" d="M38 0h1" />
<path stroke="#190101" d="M2 1h1M1 2h1M38 37h1M37 38h1" />
<path stroke="#360303" d="M3 1h1M39 4h1M36 38h1" />
<path stroke="#650303" d="M4 1h1M36 37h1M35 38h1" />
<path stroke="#9d0404" d="M5 1h1" />
<path stroke="#ca0303" d="M6 1h1M37 5h1M1 7h1" />
<path stroke="#e40202" d="M7 1h1M32 1h1M1 8h1M38 31h1M8 39h1" />
<path stroke="#f60101" d="M8 1h1M1 9h1M1 27h1M38 30h1" />
<path stroke="#fe0000" d="M9 1h1M30 1h1M8 2h1M31 2h1M4 6h1M36 7h1M2 9h1M37 9h1M1 10h1M38 10h1M1 26h1M2 27h1M38 29h1M3 30h1M37 30h1M36 32h1M5 33h1M9 38h1M31 38h1" />
<path stroke="#f70101" d="M31 1h1M38 9h1" />
<path stroke="#cb0303" d="M33 1h1M38 32h1" />
<path stroke="#9f0404" d="M34 1h1M34 38h1" />
<path stroke="#6c0505" d="M35 1h1" />
<path stroke="#470404" d="M36 1h1" />
<path stroke="#2d0303" d="M37 1h1M0 4h1" />
<path stroke="#180202" d="M38 1h1" />
<path stroke="#360202" d="M2 2h1M37 37h1" />
<path stroke="#640303" d="M3 2h1M37 36h1" />
<path stroke="#9e0303" d="M4 2h1M36 36h1" />
<path stroke="#d20202" d="M5 2h1M3 33h1M35 36h1M34 37h1M7 38h1" />
<path stroke="#f00101" d="M6 2h1M4 4h1M2 7h1M3 32h1M36 34h1M6 36h1" />
<path stroke="#fb0101" d="M7 2h1M32 2h1M4 5h1M36 6h1M2 8h1M37 8h1M37 31h1M36 33h1" />
<path stroke="#f10101" d="M33 2h1M5 3h1M36 5h1M2 30h1M35 35h1M34 36h1M7 37h1" />
<path stroke="#d20303" d="M34 2h1M4 3h1M36 35h1" />
<path stroke="#a00404" d="M35 2h1" />
<path stroke="#6a0404" d="M36 2h1M37 3h1M39 6h1" />
<path stroke="#420404" d="M37 2h1" />
<path stroke="#280303" d="M38 2h1" />
<path stroke="#150101" d="M39 2h1" />
<path stroke="#180101" d="M0 3h1" />
<path stroke="#300303" d="M1 3h1" />
<path stroke="#5f0404" d="M2 3h1" />
<path stroke="#9c0303" d="M3 3h1M37 35h1" />
<path stroke="#464646" d="M14 3h4M25 3h2M14 4h4M22 4h5M17 5h1M22 5h4" />
<path stroke="#fd0000" d="M33 3h1M5 4h1M34 4h1M35 5h1M3 7h1M4 32h1M35 34h1M6 35h1M34 35h1M7 36h1M33 36h1M32 37h1" />
<path stroke="#f20101" d="M34 3h1M35 4h1M37 7h1M37 32h1M33 37h1" />
<path stroke="#d40303" d="M35 3h1M2 6h1M33 38h1" />
<path stroke="#a10404" d="M36 3h1" />
<path stroke="#400404" d="M38 3h1" />
<path stroke="#230202" d="M39 3h1" />
<path stroke="#4a0404" d="M1 4h1" />
<path stroke="#870404" d="M2 4h1" />
<path stroke="#c90303" d="M3 4h1M37 34h1" />
<path stroke="#585656" d="M18 4h4M18 5h4" />
<path stroke="#d30303" d="M36 4h1" />
<path stroke="#9e0404" d="M37 4h1M1 6h1" />
<path stroke="#460505" d="M0 5h1" />
<path stroke="#6d0404" d="M1 5h1" />
<path stroke="#ab0404" d="M2 5h1M38 6h1" />
<path stroke="#e20202" d="M3 5h1M37 6h1M37 33h1" />
<path stroke="#880404" d="M38 5h1" />
<path stroke="#4f0404" d="M39 5h1" />
<path stroke="#660404" d="M0 6h1M39 33h1" />
<path stroke="#f30101" d="M3 6h1M4 33h1M8 38h1M32 38h1" />
<path stroke="#ffffff" d="M13 7h4M12 8h15M11 9h1M14 9h4M22 9h6M11 10h11M23 10h6M11 11h2M15 11h3M21 11h8M11 12h1M16 12h1M22 12h7M10 13h1M16 13h1M22 13h7M10 14h1M12 14h3M16 14h1M18 14h3M22 14h7M12 15h1M14 15h1M16 15h1M18 15h1M20 15h1M22 15h7M10 16h1M12 16h3M16 16h1M18 16h3M22 16h1M27 16h2M10 17h2M23 17h4M28 17h1M16 18h1M22 18h2M26 18h2M8 19h9M21 19h5M27 19h2M7 20h2M13 20h12M26 20h1M28 20h1M7 21h1M9 21h4M17 21h7M25 21h4M8 22h2M13 22h1M15 22h1M25 22h2M14 23h1M17 23h1M19 23h1M21 23h1M24 23h2M15 24h1M24 24h1M16 25h1M23 25h1M16 26h1M18 26h1M20 26h1M22 26h1M17 27h1M21 27h1M18 28h3" />
<path stroke="#cc0303" d="M38 7h1" />
<path stroke="#8d0404" d="M39 7h1" />
<path stroke="#e50202" d="M38 8h1M32 39h1" />
<path stroke="#b90404" d="M39 8h1" />
<path stroke="#fc0000" d="M0 10h1M39 10h1M0 26h1M39 29h1" />
<path stroke="#960404" d="M0 29h1" />
<path stroke="#d90202" d="M1 29h1" />
<path stroke="#f90101" d="M2 29h1" />
<path stroke="#800404" d="M0 30h1" />
<path stroke="#c80303" d="M1 30h1" />
<path stroke="#5d0303" d="M0 31h1" />
<path stroke="#a50303" d="M1 31h1" />
<path stroke="#e10202" d="M2 31h1M4 34h1" />
<path stroke="#fa0000" d="M3 31h1M5 34h1" />
<path stroke="#3c0202" d="M0 32h1" />
<path stroke="#810202" d="M1 32h1" />
<path stroke="#c80202" d="M2 32h1" />
<path stroke="#220101" d="M0 33h1M2 36h1" />
<path stroke="#550202" d="M1 33h1M3 36h1" />
<path stroke="#990202" d="M2 33h1" />
<path stroke="#a80404" d="M38 33h1" />
<path stroke="#0d0000" d="M0 34h1M3 38h1M4 39h1" />
<path stroke="#2a0101" d="M1 34h1M3 37h1M4 38h1" />
<path stroke="#610202" d="M2 34h1" />
<path stroke="#a70202" d="M3 34h1" />
<path stroke="#850303" d="M38 34h1" />
<path stroke="#440303" d="M39 34h1" />
<path stroke="#100000" d="M1 35h1" />
<path stroke="#3b0202" d="M2 35h1" />
<path stroke="#800202" d="M3 35h1" />
<path stroke="#c70202" d="M4 35h1" />
<path stroke="#ef0101" d="M5 35h1" />
<path stroke="#5e0303" d="M38 35h1" />
<path stroke="#2b0202" d="M39 35h1" />
<path stroke="#070000" d="M1 36h1" />
<path stroke="#970202" d="M4 36h1" />
<path stroke="#cf0202" d="M5 36h1" />
<path stroke="#350202" d="M38 36h1" />
<path stroke="#170101" d="M39 36h1" />
<path stroke="#0e0000" d="M2 37h1" />
<path stroke="#5c0202" d="M4 37h1" />
<path stroke="#9a0202" d="M5 37h1" />
<path stroke="#d00202" d="M6 37h1" />
<path stroke="#9f0303" d="M35 37h1" />
<path stroke="#5b0202" d="M5 38h1" />
<path stroke="#9b0202" d="M6 38h1" />
<path stroke="#2c0101" d="M5 39h1" />
<path stroke="#620202" d="M6 39h1" />
<path stroke="#aa0303" d="M7 39h1" />
<path stroke="#ad0404" d="M33 39h1" />
<path stroke="#6c0404" d="M34 39h1" />
</svg>