<svg xmlns="http://www.w3.org/2000/svg" viewBox="0 -0.5 40 40" shape-rendering="crispEdges">
<metadata>Made with Pixels to Svg https://codepen.io/shshaw/pen/XbxvNj</metadata>
<path stroke="#fef9e1" d="M0 0h1" />
<path stroke="#fafaf6" d="M1 0h1" />
<path stroke="#fcfcfb" d="M2 0h1M33 16h1" />
<path stroke="#e0efd9" d="M3 0h1" />
<path stroke="#78b757" d="M4 0h1" />
<path stroke="#deedd6" d="M5 0h1" />
<path stroke="#ffffff" d="M6 0h8M29 0h6M8 1h6M29 1h2M9 2h4M28 2h2M38 5h1M14 9h4M11 10h11M23 10h1M11 11h2M15 11h3M21 11h4M11 12h1M16 12h1M22 12h4M16 13h1M22 13h4M14 14h1M16 14h1M19 14h1M22 14h3M16 15h1M22 15h3M16 16h1M22 16h1M34 16h4M35 17h1M20 29h2M19 30h3M19 31h4M18 32h7M18 33h7M18 34h7M18 35h7M28 35h2M14 36h2M19 36h5M28 36h3M13 37h3M20 37h3M28 37h4M13 38h3M29 38h4M13 39h2M30 39h3" />
<path stroke="#fffae4" d="M14 0h1M27 1h1M37 15h1" />
<path stroke="#fcdb48" d="M15 0h1" />
<path stroke="#d10707" d="M16 0h5M24 0h1M14 1h6M25 1h1M13 2h5M27 2h1M12 3h5M28 3h1M11 4h10M29 4h1M23 5h1M30 5h1M10 6h3M22 6h1M25 6h1M30 6h1M9 7h3M24 7h1M27 7h1M31 7h1M9 8h2M26 8h1M28 8h1M31 8h1M9 9h2M22 9h2M27 9h1M30 9h2M24 10h1M29 10h1M25 11h1M31 11h2M26 12h1M32 12h1M27 13h2M32 13h1M29 14h4" />
<path stroke="#dd0000" d="M21 0h3M20 1h5M18 2h9M17 3h11M21 4h8M24 5h6M13 6h9M26 6h4M12 7h12M28 7h3M11 8h15M29 8h2M24 9h3M25 10h4M26 11h5M27 12h5M29 13h3M17 32h1M16 33h2M25 33h1M16 34h2M25 34h2M16 35h2M25 35h2M16 36h2M25 36h2M16 37h2M25 37h2M17 38h2M25 38h2M17 39h2M25 39h2" />
<path stroke="#facf09" d="M25 0h1M1 7h1" />
<path stroke="#fbd424" d="M26 0h1" />
<path stroke="#fcdb45" d="M27 0h1" />
<path stroke="#fffae2" d="M28 0h1" />
<path stroke="#fcfcfc" d="M35 0h1M31 1h1M39 5h1M4 14h2M39 15h1" />
<path stroke="#fbfbfb" d="M36 0h1M32 1h1M34 17h1" />
<path stroke="#fbfbfa" d="M37 0h1M33 1h1M10 3h2" />
<path stroke="#fafafa" d="M38 0h2M3 9h1M0 10h1" />
<path stroke="#f2d759" d="M0 1h1" />
<path stroke="#e3ddc9" d="M1 1h1" />
<path stroke="#e4e4e2" d="M2 1h1" />
<path stroke="#ddecd6" d="M3 1h1" />
<path stroke="#74b551" d="M4 1h1" />
<path stroke="#c1deb3" d="M5 1h1" />
<path stroke="#e2efdb" d="M6 1h1" />
<path stroke="#fafcf9" d="M7 1h1" />
<path stroke="#fef3c0" d="M26 1h1" />
<path stroke="#fffffb" d="M28 1h1M34 15h1" />
<path stroke="#f3f5f1" d="M34 1h1" />
<path stroke="#ccd8c3" d="M35 1h1" />
<path stroke="#c9d5bf" d="M36 1h1" />
<path stroke="#dcdcd4" d="M37 1h1" />
<path stroke="#e3ddc5" d="M38 1h1M3 10h1" />
<path stroke="#e4ddc1" d="M39 1h1M0 11h1" />
<path stroke="#ded8bf" d="M0 2h1M38 11h1" />
<path stroke="#dad9d3" d="M1 2h1M0 3h1" />
<path stroke="#dfdedc" d="M2 2h1" />
<path stroke="#dae9d2" d="M3 2h1" />
<path stroke="#5ea936" d="M4 2h1" />
<path stroke="#54a329" d="M5 2h1" />
<path stroke="#6caf48" d="M6 2h1" />
<path stroke="#cce2c0" d="M7 2h1" />
<path stroke="#f7f9f5" d="M8 2h1" />
<path stroke="#f9f8f8" d="M30 2h1M38 16h1" />
<path stroke="#e4e3e2" d="M31 2h1M39 6h1" />
<path stroke="#dcddd9" d="M32 2h1M37 7h1" />
<path stroke="#c9d5c1" d="M33 2h1" />
<path stroke="#b4cba1" d="M34 2h1" />
<path stroke="#66a639" d="M35 2h1" />
<path stroke="#69a73b" d="M36 2h1" />
<path stroke="#cbcd92" d="M37 2h1" />
<path stroke="#f2d136" d="M38 2h1" />
<path stroke="#f6d022" d="M39 2h1M4 11h1M2 12h1" />
<path stroke="#ded8c3" d="M1 3h1" />
<path stroke="#dbdad4" d="M2 3h1" />
<path stroke="#c5d3bc" d="M3 3h1" />
<path stroke="#55a22b" d="M4 3h1" />
<path stroke="#3a9408" d="M5 3h1M5 4h1M6 7h1M6 8h1M32 9h1M11 34h1" />
<path stroke="#3e950d" d="M6 3h1M7 4h1M8 5h1M9 6h1M32 8h1M34 9h1" />
<path stroke="#61a63a" d="M7 3h1" />
<path stroke="#b8cea9" d="M8 3h1" />
<path stroke="#f2f5f1" d="M9 3h1" />
<path stroke="#f8f8f7" d="M29 3h1M38 6h1" />
<path stroke="#e3e3de" d="M30 3h1" />
<path stroke="#dad6bb" d="M31 3h1" />
<path stroke="#b5c68e" d="M32 3h1" />
<path stroke="#65a637" d="M33 3h1" />
<path stroke="#4f9c1d" d="M34 3h1" />
<path stroke="#3f950a" d="M35 3h1" />
<path stroke="#579f11" d="M36 3h1" />
<path stroke="#dacc39" d="M37 3h1" />
<path stroke="#fad52d" d="M38 3h1M39 13h1" />
<path stroke="#fbd529" d="M39 3h1" />
<path stroke="#e1d6a7" d="M0 4h1M2 4h1" />
<path stroke="#efd14b" d="M1 4h1" />
<path stroke="#c5cea3" d="M3 4h1" />
<path stroke="#549f29" d="M4 4h1" />
<path stroke="#3b9409" d="M6 4h1M35 4h1M7 5h1M33 5h2M7 6h2M33 6h2M7 7h2M33 7h2M7 8h2M33 8h1M8 9h1M8 10h2M8 11h2M8 12h1M38 19h2M36 20h4M34 21h6M34 22h2M33 23h2M8 24h1M12 26h1M14 26h1M13 27h3M15 28h2M16 29h2M16 30h2M25 30h4M16 31h1M26 31h1M13 33h1" />
<path stroke="#5fa438" d="M8 4h1" />
<path stroke="#b5cba6" d="M9 4h1" />
<path stroke="#dbddd7" d="M10 4h1" />
<path stroke="#c6cfab" d="M30 4h1" />
<path stroke="#bfc443" d="M31 4h1" />
<path stroke="#67a416" d="M32 4h1" />
<path stroke="#3f9509" d="M33 4h1" />
<path stroke="#3b9408" d="M34 4h1M6 5h1M35 5h1M6 6h1M34 8h1M7 9h1M33 9h1M7 10h1M8 13h1M8 14h1M35 20h1M4 21h1M36 22h2M6 23h1M32 23h1M35 23h1M7 24h1M33 24h2M8 25h1M11 27h2M13 28h2M15 29h1M15 30h1M24 30h1M15 31h1M25 31h1M27 31h4M15 32h1M26 32h1M14 33h2M12 34h2" />
<path stroke="#58a329" d="M36 4h1" />
<path stroke="#e0e9bc" d="M37 4h1" />
<path stroke="#fff9de" d="M38 4h2M3 8h1M0 9h1M39 14h1" />
<path stroke="#f7d01c" d="M0 5h1M2 5h1" />
<path stroke="#f8ce0c" d="M1 5h1M6 17h1" />
<path stroke="#dbc930" d="M3 5h1" />
<path stroke="#68a73a" d="M4 5h1" />
<path stroke="#3f960d" d="M5 5h1M32 5h1" />
<path stroke="#5ea337" d="M9 5h1" />
<path stroke="#ad0b0b" d="M10 5h13M23 6h2M25 7h2M27 8h1M28 9h2M30 10h2" />
<path stroke="#53a124" d="M31 5h1" />
<path stroke="#59a52e" d="M36 5h1" />
<path stroke="#e0eed8" d="M37 5h1" />
<path stroke="#face06" d="M0 6h3M0 7h1M5 18h2M0 22h1M0 23h2M0 24h3" />
<path stroke="#f2ce1c" d="M3 6h1" />
<path stroke="#b5c57a" d="M4 6h1" />
<path stroke="#509e24" d="M5 6h1" />
<path stroke="#4f9f21" d="M31 6h1" />
<path stroke="#3f960e" d="M32 6h1M35 6h1" />
<path stroke="#6daf48" d="M36 6h1" />
<path stroke="#e1edda" d="M37 6h1" />
<path stroke="#fbd422" d="M2 7h1" />
<path stroke="#fbd62b" d="M3 7h1" />
<path stroke="#d7cd48" d="M4 7h1" />
<path stroke="#55a127" d="M5 7h1" />
<path stroke="#4e9f21" d="M32 7h1" />
<path stroke="#53a027" d="M35 7h1" />
<path stroke="#b5cda6" d="M36 7h1" />
<path stroke="#e0dfdd" d="M38 7h1M37 8h1" />
<path stroke="#dbdad9" d="M39 7h1M38 8h1" />
<path stroke="#fbd528" d="M0 8h1" />
<path stroke="#fbda40" d="M1 8h1M37 14h1" />
<path stroke="#fef4c6" d="M2 8h1" />
<path stroke="#e0eac1" d="M4 8h1" />
<path stroke="#59a42e" d="M5 8h1" />
<path stroke="#54a028" d="M35 8h1" />
<path stroke="#c5d2bb" d="M36 8h1" />
<path stroke="#dad9d7" d="M39 8h1M39 9h1" />
<path stroke="#fdf8e2" d="M1 9h1" />
<path stroke="#fbfbf6" d="M2 9h1M0 14h1" />
<path stroke="#e2eddb" d="M4 9h1" />
<path stroke="#70b14b" d="M5 9h1" />
<path stroke="#40970e" d="M6 9h1" />
<path stroke="#000000" d="M11 9h3M18 9h4M10 10h1M22 10h1M10 11h1M13 11h2M18 11h3M9 12h2M12 12h1M15 12h1M17 12h1M21 12h1M9 13h3M15 13h1M17 13h1M21 13h1M26 13h1M9 14h3M15 14h1M17 14h1M20 14h2M25 14h4M8 15h4M14 15h2M17 15h1M19 15h3M25 15h3M29 15h3M8 16h2M11 16h1M14 16h2M17 16h1M19 16h3M23 16h4M28 16h4M8 17h2M12 17h1M14 17h4M19 17h4M27 17h1M29 17h3M7 18h9M17 18h1M20 18h2M24 18h2M28 18h1M30 18h2M7 19h1M16 19h5M26 19h1M29 19h3M6 20h1M9 20h4M25 20h1M27 20h1M29 20h3M6 21h1M8 21h1M13 21h4M18 21h5M24 21h1M29 21h5M7 22h1M10 22h1M12 22h13M27 22h6M8 23h3M12 23h2M15 23h1M22 23h2M26 23h6M9 24h3M13 24h2M16 24h1M23 24h1M25 24h8M9 25h3M14 25h2M17 25h1M22 25h1M24 25h5M30 25h2M10 26h2M13 26h1M15 26h1M17 26h1M21 26h1M23 26h6M30 26h1M16 27h1M18 27h3M22 27h1M25 27h3M17 28h1M21 28h2M19 29h1M22 29h1M18 30h1M22 30h2M17 31h2M23 31h2M16 32h1M25 32h1M26 33h1M15 34h1M27 34h3M14 35h2M30 35h2M13 36h1M31 36h2M12 37h1M32 37h1M12 38h1M16 38h1M28 38h1M33 38h1M12 39h1M15 39h2M28 39h2M33 39h1" />
<path stroke="#65a73f" d="M35 9h1" />
<path stroke="#dce9d4" d="M36 9h1M34 18h1" />
<path stroke="#f4f3f2" d="M37 9h1" />
<path stroke="#dededc" d="M38 9h1" />
<path stroke="#f7f7f7" d="M1 10h1M2 15h2" />
<path stroke="#e3e3dd" d="M2 10h1" />
<path stroke="#dfdabc" d="M4 10h1" />
<path stroke="#b7ca90" d="M5 10h1" />
<path stroke="#529e22" d="M6 10h1" />
<path stroke="#4e9a09" d="M32 10h1" />
<path stroke="#3f9508" d="M33 10h1M3 20h1M34 20h1M5 22h1M7 23h1M18 29h1M23 29h1M29 30h1" />
<path stroke="#519d1f" d="M34 10h1" />
<path stroke="#b2caa2" d="M35 10h1" />
<path stroke="#f0f1ed" d="M36 10h1" />
<path stroke="#e3e3e1" d="M37 10h1M1 15h1" />
<path stroke="#dbdad5" d="M38 10h1" />
<path stroke="#ded7bf" d="M39 10h1" />
<path stroke="#e3dcc0" d="M1 11h1M2 16h2" />
<path stroke="#e2d7a7" d="M2 11h1" />
<path stroke="#f2d036" d="M3 11h1" />
<path stroke="#dec81e" d="M5 11h1" />
<path stroke="#6ea50e" d="M6 11h1" />
<path stroke="#3f9609" d="M7 11h1" />
<path stroke="#549d09" d="M33 11h1" />
<path stroke="#67a630" d="M34 11h1" />
<path stroke="#c7cfa5" d="M35 11h1" />
<path stroke="#dfddd8" d="M36 11h1" />
<path stroke="#dbdad8" d="M37 11h1" />
<path stroke="#f2d03a" d="M39 11h1" />
<path stroke="#f7d53e" d="M0 12h1" />
<path stroke="#f6d126" d="M1 12h1" />
<path stroke="#fad426" d="M3 12h2" />
<path stroke="#f2cf22" d="M5 12h1" />
<path stroke="#c6c31e" d="M6 12h1" />
<path stroke="#549d0f" d="M7 12h1" />
<path stroke="#c3d9f9" d="M13 12h2M18 12h3M12 13h3M18 13h3M12 14h2M18 14h1M12 15h2M18 15h1M12 16h2M18 16h1M13 17h1M18 17h1M18 18h2" />
<path stroke="#579d07" d="M33 12h1" />
<path stroke="#c4c016" d="M34 12h1" />
<path stroke="#eecf34" d="M35 12h1" />
<path stroke="#e1d7a6" d="M36 12h1" />
<path stroke="#dfd8bb" d="M37 12h1M0 16h2" />
<path stroke="#e2d6a4" d="M38 12h1" />
<path stroke="#f6ce1f" d="M39 12h1" />
<path stroke="#fef4c7" d="M0 13h1" />
<path stroke="#fcda43" d="M1 13h1M35 14h1" />
<path stroke="#fcda41" d="M2 13h1" />
<path stroke="#fef4c5" d="M3 13h1M38 14h1" />
<path stroke="#fcf6db" d="M4 13h1" />
<path stroke="#eee8cc" d="M5 13h1" />
<path stroke="#dde7ba" d="M6 13h1" />
<path stroke="#59a32a" d="M7 13h1" />
<path stroke="#6da50e" d="M33 13h1" />
<path stroke="#dfcb1f" d="M34 13h1" />
<path stroke="#f9cf0d" d="M35 13h1" />
<path stroke="#f7d01e" d="M36 13h1" />
<path stroke="#f7d126" d="M37 13h1" />
<path stroke="#f7d63c" d="M38 13h1" />
<path stroke="#faf5df" d="M1 14h1" />
<path stroke="#fef9e2" d="M2 14h1" />
<path stroke="#fefefa" d="M3 14h1M38 15h1" />
<path stroke="#dfeed8" d="M6 14h1" />
<path stroke="#58a42d" d="M7 14h1" />
<path stroke="#cddd96" d="M33 14h1" />
<path stroke="#f9f1c2" d="M34 14h1" />
<path stroke="#fbd52a" d="M36 14h1" />
<path stroke="#dfdfdd" d="M0 15h1" />
<path stroke="#e8e7e6" d="M4 15h1" />
<path stroke="#f7f7f3" d="M5 15h1" />
<path stroke="#e2e9c5" d="M6 15h1" />
<path stroke="#67a941" d="M7 15h1" />
<path stroke="#242323" d="M28 15h1M27 16h1M28 17h1M29 18h1M32 18h1M32 19h1M32 20h1M11 22h1M33 22h1M11 23h1M12 24h1M12 25h2M29 25h1M32 25h1M9 26h1M29 26h1M31 26h1M28 27h1" />
<path stroke="#cadfac" d="M32 15h1" />
<path stroke="#fafcf5" d="M33 15h1" />
<path stroke="#fffae5" d="M35 15h1" />
<path stroke="#fff9df" d="M36 15h1" />
<path stroke="#e0d9bc" d="M4 16h1" />
<path stroke="#e6dbac" d="M5 16h1" />
<path stroke="#efd44e" d="M6 16h1" />
<path stroke="#b6c57c" d="M7 16h1" />
<path stroke="#ff8a00" d="M10 16h1M10 17h2M23 17h4M16 18h1M22 18h2M26 18h2M8 19h8M21 19h5M27 19h2M7 20h2M13 20h12M26 20h1M28 20h1M7 21h1M9 21h4M17 21h1M23 21h1M25 21h4M8 22h2M25 22h2M14 23h1M24 23h2M15 24h1M24 24h1M16 25h1M23 25h1M16 26h1M22 26h1M17 27h1M21 27h1M18 28h3" />
<path stroke="#e2eeda" d="M32 16h1" />
<path stroke="#e4e3e3" d="M39 16h1" />
<path stroke="#f6d021" d="M0 17h5" />
<path stroke="#f7d01d" d="M5 17h1" />
<path stroke="#d9c619" d="M7 17h1" />
<path stroke="#dedbc0" d="M32 17h1" />
<path stroke="#e4e4de" d="M33 17h1" />
<path stroke="#f7f9f6" d="M36 17h1" />
<path stroke="#dfead7" d="M37 17h1" />
<path stroke="#c8d7c0" d="M38 17h1" />
<path stroke="#c2cfb7" d="M39 17h1" />
<path stroke="#f5cc05" d="M0 18h1M0 21h1M1 22h1M2 23h1M39 24h1" />
<path stroke="#dfc605" d="M1 18h1" />
<path stroke="#dac406" d="M2 18h1M5 19h1" />
<path stroke="#dec505" d="M3 18h1" />
<path stroke="#f4cd05" d="M4 18h1" />
<path stroke="#dfdbbe" d="M33 18h1" />
<path stroke="#d7e6cf" d="M35 18h1" />
<path stroke="#b5cca2" d="M36 18h1" />
<path stroke="#65a73a" d="M37 18h1" />
<path stroke="#539f27" d="M38 18h1" />
<path stroke="#539e24" d="M39 18h1" />
<path stroke="#e1c705" d="M0 19h1M0 20h1M38 24h1" />
<path stroke="#72a606" d="M1 19h1" />
<path stroke="#589d06" d="M2 19h1" />
<path stroke="#6ba207" d="M3 19h1" />
<path stroke="#c3bd05" d="M4 19h1" />
<path stroke="#dbc506" d="M6 19h1" />
<path stroke="#b4c475" d="M33 19h1" />
<path stroke="#67a737" d="M34 19h1" />
<path stroke="#54a024" d="M35 19h1" />
<path stroke="#4f9d1c" d="M36 19h1" />
<path stroke="#3e9509" d="M37 19h1" />
<path stroke="#70a406" d="M1 20h1" />
<path stroke="#409607" d="M2 20h1M3 21h1M7 25h1" />
<path stroke="#519b07" d="M4 20h1" />
<path stroke="#5c9e07" d="M5 20h1" />
<path stroke="#529c0a" d="M33 20h1" />
<path stroke="#ccc105" d="M1 21h1" />
<path stroke="#69a206" d="M2 21h1M3 22h1M7 26h1" />
<path stroke="#4d9907" d="M5 21h1" />
<path stroke="#cbc005" d="M2 22h1" />
<path stroke="#3e9507" d="M4 22h1M10 27h1" />
<path stroke="#529c07" d="M6 22h1M39 22h1" />
<path stroke="#3f9507" d="M38 22h1M36 23h1M35 24h1M33 25h1M12 28h1M14 29h1" />
<path stroke="#ccc104" d="M3 23h1M4 24h1M5 25h1M6 26h1" />
<path stroke="#6aa206" d="M4 23h1M5 24h1M6 25h1" />
<path stroke="#3f9607" d="M5 23h1M6 24h1M8 26h1" />
<path stroke="#ff0000" d="M16 23h3M17 24h1M21 24h2M20 25h2M18 26h3" />
<path stroke="#fc809a" d="M19 23h3M18 24h3M18 25h2" />
<path stroke="#549c06" d="M37 23h1M11 28h1" />
<path stroke="#6ea506" d="M38 23h1M33 26h1" />
<path stroke="#c7bf05" d="M39 23h1M37 24h1" />
<path stroke="#f5cc04" d="M3 24h1M4 25h1M37 25h1M5 26h1M36 26h1M6 27h1M34 27h1" />
<path stroke="#68a206" d="M36 24h1" />
<path stroke="#face05" d="M0 25h4M38 25h2M0 26h5M37 26h3M0 27h6M35 27h5M0 28h3M39 28h1" />
<path stroke="#539c06" d="M34 25h1" />
<path stroke="#6da406" d="M35 25h1" />
<path stroke="#cac004" d="M36 25h1" />
<path stroke="#5ea005" d="M32 26h1" />
<path stroke="#c7be04" d="M34 26h1" />
<path stroke="#e1c704" d="M35 26h1M33 27h1" />
<path stroke="#cbbf04" d="M7 27h1" />
<path stroke="#6ea406" d="M8 27h1" />
<path stroke="#539c07" d="M9 27h1" />
<path stroke="#439707" d="M23 27h1" />
<path stroke="#589d07" d="M24 27h1M29 27h1" />
<path stroke="#6ca207" d="M30 27h1" />
<path stroke="#c6be04" d="M31 27h1" />
<path stroke="#dcc405" d="M32 27h1" />
<path stroke="#facd05" d="M3 28h3M34 28h5M0 29h2" />
<path stroke="#facc05" d="M6 28h1M32 28h2M2 29h1M39 29h1" />
<path stroke="#f5ca04" d="M7 28h1" />
<path stroke="#e2c404" d="M8 28h1" />
<path stroke="#c7bb04" d="M9 28h1" />
<path stroke="#6fa306" d="M10 28h1" />
<path stroke="#4e9907" d="M23 28h1" />
<path stroke="#a5b005" d="M24 28h1" />
<path stroke="#bbb605" d="M25 28h1" />
<path stroke="#bcb705" d="M26 28h3" />
<path stroke="#c0b904" d="M29 28h1" />
<path stroke="#dbc105" d="M30 28h1" />
<path stroke="#f5c904" d="M31 28h1" />
<path stroke="#facb05" d="M3 29h1M37 29h2M0 30h1" />
<path stroke="#faca05" d="M4 29h2M34 29h3M1 30h1" />
<path stroke="#fac905" d="M6 29h1M33 29h1M2 30h1M39 30h1" />
<path stroke="#fac805" d="M7 29h1M38 30h1" />
<path stroke="#fac705" d="M8 29h1M3 30h1" />
<path stroke="#f4c404" d="M9 29h1" />
<path stroke="#e1be04" d="M10 29h1" />
<path stroke="#c6b704" d="M11 29h1" />
<path stroke="#6da106" d="M12 29h1" />
<path stroke="#549a06" d="M13 29h1" />
<path stroke="#519907" d="M24 29h1M30 30h1" />
<path stroke="#579b07" d="M25 29h4" />
<path stroke="#6aa007" d="M29 29h1" />
<path stroke="#c2b704" d="M30 29h1" />
<path stroke="#debf04" d="M31 29h1" />
<path stroke="#f5c604" d="M32 29h1" />
<path stroke="#f9c605" d="M4 30h1M35 30h1M0 31h1" />
<path stroke="#f9c505" d="M5 30h1" />
<path stroke="#f8c405" d="M6 30h1" />
<path stroke="#f8c205" d="M7 30h1" />
<path stroke="#f8c005" d="M8 30h1" />
<path stroke="#f7be05" d="M9 30h1" />
<path stroke="#f7bc05" d="M10 30h1" />
<path stroke="#f1b904" d="M11 30h1" />
<path stroke="#ddb404" d="M12 30h1" />
<path stroke="#bfad05" d="M13 30h1" />
<path stroke="#549907" d="M14 30h1" />
<path stroke="#6a9f07" d="M31 30h1" />
<path stroke="#c3b504" d="M32 30h1" />
<path stroke="#dcbd04" d="M33 30h1" />
<path stroke="#f3c404" d="M34 30h1" />
<path stroke="#f9c705" d="M36 30h2" />
<path stroke="#f9c504" d="M1 31h1" />
<path stroke="#f9c304" d="M2 31h1" />
<path stroke="#f8c104" d="M3 31h1" />
<path stroke="#f7bf04" d="M4 31h1M36 31h1" />
<path stroke="#f7bd04" d="M5 31h1M1 32h1" />
<path stroke="#f6bb04" d="M6 31h1" />
<path stroke="#f6b904" d="M7 31h1" />
<path stroke="#f5b604" d="M8 31h1" />
<path stroke="#f4b404" d="M9 31h1M0 33h1" />
<path stroke="#f4b104" d="M10 31h1" />
<path stroke="#efad03" d="M11 31h1" />
<path stroke="#d8a803" d="M12 31h1" />
<path stroke="#baa304" d="M13 31h1" />
<path stroke="#539807" d="M14 31h1" />
<path stroke="#3f9407" d="M31 31h1" />
<path stroke="#529807" d="M32 31h1" />
<path stroke="#6b9d07" d="M33 31h1" />
<path stroke="#c6b103" d="M34 31h1" />
<path stroke="#f2bd03" d="M35 31h1" />
<path stroke="#f7c104" d="M37 31h1" />
<path stroke="#f8c204" d="M38 31h1" />
<path stroke="#f8c305" d="M39 31h1" />
<path stroke="#f7bf05" d="M0 32h1" />
<path stroke="#f6ba04" d="M2 32h1" />
<path stroke="#f5b704" d="M3 32h1M37 32h1" />
<path stroke="#f4b504" d="M4 32h1" />
<path stroke="#f4b204" d="M5 32h1M1 33h1" />
<path stroke="#f3af04" d="M6 32h1" />
<path stroke="#f3ac04" d="M7 32h1" />
<path stroke="#f2a904" d="M8 32h1" />
<path stroke="#eda403" d="M9 32h1" />
<path stroke="#d8a003" d="M10 32h1" />
<path stroke="#bf9c03" d="M11 32h1" />
<path stroke="#6a9607" d="M12 32h1" />
<path stroke="#519507" d="M13 32h1" />
<path stroke="#3e9408" d="M14 32h1" />
<path stroke="#3e9407" d="M27 32h1" />
<path stroke="#519607" d="M28 32h1" />
<path stroke="#579607" d="M29 32h2" />
<path stroke="#579707" d="M31 32h2" />
<path stroke="#5b9806" d="M33 32h1" />
<path stroke="#849f06" d="M34 32h1" />
<path stroke="#dfaf03" d="M35 32h1" />
<path stroke="#f5b504" d="M36 32h1" />
<path stroke="#f5b904" d="M38 32h1" />
<path stroke="#f6ba05" d="M39 32h1" />
<path stroke="#f3ae04" d="M2 33h1" />
<path stroke="#f2aa04" d="M3 33h1" />
<path stroke="#f1a704" d="M4 33h1" />
<path stroke="#f0a303" d="M5 33h1" />
<path stroke="#ef9f03" d="M6 33h1" />
<path stroke="#ee9b03" d="M7 33h1" />
<path stroke="#e99702" d="M8 33h1" />
<path stroke="#c09403" d="M9 33h1" />
<path stroke="#699205" d="M10 33h1" />
<path stroke="#509207" d="M11 33h1" />
<path stroke="#3e9308" d="M12 33h1" />
<path stroke="#699305" d="M27 33h1" />
<path stroke="#bc9003" d="M28 33h1" />
<path stroke="#cf9203" d="M29 33h1" />
<path stroke="#d19603" d="M30 33h1" />
<path stroke="#d19903" d="M31 33h1" />
<path stroke="#d29b03" d="M32 33h1" />
<path stroke="#d39d03" d="M33 33h1" />
<path stroke="#d79f02" d="M34 33h1" />
<path stroke="#eca303" d="M35 33h1" />
<path stroke="#f1a604" d="M36 33h1" />
<path stroke="#f1a904" d="M37 33h1" />
<path stroke="#f2ab04" d="M38 33h1" />
<path stroke="#f2ad04" d="M39 33h1" />
<path stroke="#f0a504" d="M0 34h1" />
<path stroke="#f0a304" d="M1 34h1" />
<path stroke="#ef9e04" d="M2 34h1" />
<path stroke="#ee9a04" d="M3 34h1" />
<path stroke="#ec9504" d="M4 34h1" />
<path stroke="#eb9003" d="M5 34h1" />
<path stroke="#e68c02" d="M6 34h1" />
<path stroke="#cf8902" d="M7 34h1" />
<path stroke="#b88703" d="M8 34h1" />
<path stroke="#638f05" d="M9 34h1" />
<path stroke="#3d9307" d="M10 34h1" />
<path stroke="#3e9307" d="M14 34h1" />
<path stroke="#e88103" d="M30 34h1M4 35h1M36 35h1" />
<path stroke="#e98503" d="M31 34h1" />
<path stroke="#e98703" d="M32 34h1M3 35h1" />
<path stroke="#ea8a03" d="M33 34h1M39 35h1" />
<path stroke="#eb8e03" d="M34 34h1" />
<path stroke="#eb9104" d="M35 34h1" />
<path stroke="#ec9404" d="M36 34h1" />
<path stroke="#ed9704" d="M37 34h1" />
<path stroke="#ee9b04" d="M38 34h1" />
<path stroke="#ee9c04" d="M39 34h1" />
<path stroke="#ec9403" d="M0 35h1" />
<path stroke="#ec9103" d="M1 35h1" />
<path stroke="#eb8c03" d="M2 35h1" />
<path stroke="#e77c03" d="M5 35h1M1 36h1" />
<path stroke="#cf7b03" d="M6 35h1" />
<path stroke="#6b8905" d="M7 35h1" />
<path stroke="#4f8e07" d="M8 35h1" />
<path stroke="#429207" d="M9 35h1" />
<path stroke="#508e06" d="M10 35h1" />
<path stroke="#558c06" d="M11 35h3" />
<path stroke="#ece205" d="M27 35h1M27 36h1M27 37h1M27 38h1M27 39h1" />
<path stroke="#e57303" d="M32 35h1M38 36h1" />
<path stroke="#e67603" d="M33 35h1" />
<path stroke="#e67903" d="M34 35h1" />
<path stroke="#e77d03" d="M35 35h1" />
<path stroke="#e98403" d="M37 35h1" />
<path stroke="#ea8803" d="M38 35h1" />
<path stroke="#e87f03" d="M0 36h1" />
<path stroke="#e67703" d="M2 36h1" />
<path stroke="#e57203" d="M3 36h1" />
<path stroke="#e56c03" d="M4 36h1" />
<path stroke="#e46703" d="M5 36h1" />
<path stroke="#ce6802" d="M6 36h1" />
<path stroke="#6b8405" d="M7 36h1" />
<path stroke="#548b06" d="M8 36h1" />
<path stroke="#678405" d="M9 36h1" />
<path stroke="#b36403" d="M10 36h1" />
<path stroke="#c55b03" d="M11 36h1" />
<path stroke="#c65903" d="M12 36h1" />
<path stroke="#ece305" d="M18 36h1M24 36h1M18 37h2M23 37h2M19 38h6M19 39h6" />
<path stroke="#e26103" d="M33 36h1" />
<path stroke="#e36403" d="M34 36h1" />
<path stroke="#e36703" d="M35 36h1" />
<path stroke="#e46b03" d="M36 36h1M0 37h1" />
<path stroke="#e56f03" d="M37 36h1" />
<path stroke="#e67503" d="M39 36h1" />
<path stroke="#e36803" d="M1 37h1" />
<path stroke="#e36303" d="M2 37h1" />
<path stroke="#e25e03" d="M3 37h1" />
<path stroke="#e15903" d="M4 37h1M36 37h1" />
<path stroke="#e15503" d="M5 37h1M1 38h1" />
<path stroke="#dc5202" d="M6 37h1" />
<path stroke="#c95602" d="M7 37h1" />
<path stroke="#c45503" d="M8 37h1" />
<path stroke="#c85102" d="M9 37h1" />
<path stroke="#da4502" d="M10 37h1" />
<path stroke="#de4203" d="M11 37h1M6 38h1M34 38h1M37 39h1" />
<path stroke="#e04f03" d="M33 37h1M39 38h1" />
<path stroke="#e05203" d="M34 37h1" />
<path stroke="#e05503" d="M35 37h1" />
<path stroke="#e15c03" d="M37 37h1" />
<path stroke="#e26003" d="M38 37h1" />
<path stroke="#e26203" d="M39 37h1" />
<path stroke="#e15703" d="M0 38h1" />
<path stroke="#e05103" d="M2 38h1" />
<path stroke="#df4d03" d="M3 38h1M38 38h1M0 39h1" />
<path stroke="#df4903" d="M4 38h1" />
<path stroke="#de4503" d="M5 38h1M35 38h1M38 39h1" />
<path stroke="#dd3f03" d="M7 38h1M36 39h1" />
<path stroke="#dd3c03" d="M8 38h1" />
<path stroke="#dd3a03" d="M9 38h1M6 39h1" />
<path stroke="#dc3803" d="M10 38h1M7 39h1" />
<path stroke="#dc3703" d="M11 38h1" />
<path stroke="#de4803" d="M36 38h1" />
<path stroke="#df4b03" d="M37 38h1M1 39h1" />
<path stroke="#df4803" d="M2 39h1" />
<path stroke="#de4403" d="M3 39h1" />
<path stroke="#de4103" d="M4 39h1" />
<path stroke="#dd3d03" d="M5 39h1M35 39h1" />
<path stroke="#dc3603" d="M8 39h1" />
<path stroke="#dc3403" d="M9 39h1" />
<path stroke="#dc3203" d="M10 39h1" />
<path stroke="#db3103" d="M11 39h1" />
<path stroke="#dc3b03" d="M34 39h1" />
<path stroke="#de4603" d="M39 39h1" />
</svg>