<svg xmlns="http://www.w3.org/2000/svg" viewBox="0 -0.5 40 40" shape-rendering="crispEdges">
<metadata>Made with Pixels to Svg https://codepen.io/shshaw/pen/XbxvNj</metadata>
<path stroke="#23c2d6" d="M0 0h3M13 0h2M1 2h1M7 6h1M30 6h2M7 10h2" />
<path stroke="#21c3d0" d="M3 0h1" />
<path stroke="#17c7b3" d="M4 0h1" />
<path stroke="#15c7ab" d="M5 0h5" />
<path stroke="#18c6b4" d="M10 0h1M7 1h3" />
<path stroke="#22c2d5" d="M11 0h1M27 2h1" />
<path stroke="#23c2d7" d="M12 0h1M28 0h1" />
<path stroke="#23c3d5" d="M15 0h1" />
<path stroke="#23c6d0" d="M16 0h1M5 10h1" />
<path stroke="#24c7cf" d="M17 0h1" />
<path stroke="#24c6cf" d="M18 0h1M33 7h3M2 10h1M4 10h1" />
<path stroke="#22c7c9" d="M19 0h1" />
<path stroke="#19cbac" d="M20 0h1" />
<path stroke="#17cca4" d="M21 0h4M13 4h3" />
<path stroke="#19cbad" d="M25 0h1" />
<path stroke="#20c4cf" d="M26 0h1M26 2h1" />
<path stroke="#22c2d6" d="M27 0h1" />
<path stroke="#24c1dc" d="M29 0h1M29 2h1" />
<path stroke="#25c1dd" d="M30 0h6M28 3h2M28 4h2M28 5h2M6 8h1M6 9h1" />
<path stroke="#24c4d1" d="M36 0h1M23 3h1" />
<path stroke="#21d895" d="M37 0h2" />
<path stroke="#24c5d1" d="M39 0h1" />
<path stroke="#1bc5bd" d="M0 1h2" />
<path stroke="#1ac6bb" d="M2 1h1M10 1h1" />
<path stroke="#e757ec" d="M3 1h1M3 2h1M4 3h1M7 4h1M4 6h1M1 7h2M4 7h1M6 7h1M1 8h1M4 8h1M7 8h1M1 9h1M4 9h1M7 9h1M0 10h2M3 10h1M6 10h1" />
<path stroke="#e457ec" d="M4 1h2M7 2h1M6 3h1M4 4h3M2 6h1M6 6h1" />
<path stroke="#b1167f" d="M6 1h1M2 3h2M2 4h2M5 5h1" />
<path stroke="#21c3d2" d="M11 1h1" />
<path stroke="#1cc5c4" d="M12 1h1M28 1h1" />
<path stroke="#1bc5be" d="M13 1h2M27 1h1" />
<path stroke="#1cc8b9" d="M15 1h1" />
<path stroke="#21d4a0" d="M16 1h1" />
<path stroke="#22d799" d="M17 1h2" />
<path stroke="#21d798" d="M19 1h1" />
<path stroke="#20d890" d="M20 1h1" />
<path stroke="#20d88e" d="M21 1h2" />
<path stroke="#20d88f" d="M23 1h2" />
<path stroke="#1fd597" d="M25 1h1" />
<path stroke="#1bc9b7" d="M26 1h1" />
<path stroke="#23c1d9" d="M29 1h1M36 6h1" />
<path stroke="#25c0dd" d="M30 1h6M30 2h10M34 6h2" />
<path stroke="#24c1db" d="M36 1h1M39 1h1" />
<path stroke="#24c5d2" d="M37 1h2" />
<path stroke="#23c1d6" d="M0 2h1M8 2h2M24 3h1M0 6h2M15 6h2M22 6h1M39 11h1" />
<path stroke="#cc46d9" d="M2 2h1" />
<path stroke="#b11681" d="M4 2h1" />
<path stroke="#e257ec" d="M5 2h1M5 3h1" />
<path stroke="#f0b3f3" d="M6 2h1M7 3h1" />
<path stroke="#23c1d8" d="M10 2h1" />
<path stroke="#24c2d9" d="M11 2h1" />
<path stroke="#22c6cc" d="M12 2h1" />
<path stroke="#22c7c8" d="M13 2h2" />
<path stroke="#22c8c7" d="M15 2h1" />
<path stroke="#23cac4" d="M16 2h1" />
<path stroke="#23c7cb" d="M17 2h1" />
<path stroke="#23cac3" d="M18 2h1M22 2h1" />
<path stroke="#23cbc0" d="M19 2h3" />
<path stroke="#23c6cd" d="M23 2h1" />
<path stroke="#23c6ce" d="M24 2h1M36 7h1" />
<path stroke="#22c6cb" d="M25 2h1" />
<path stroke="#23c2d8" d="M28 2h1" />
<path stroke="#21b9d7" d="M0 3h1" />
<path stroke="#ce46d9" d="M1 3h1M1 4h1M1 5h4M6 5h1M3 6h1M5 6h1" />
<path stroke="#24c0dc" d="M8 3h1M33 6h1" />
<path stroke="#24bfdd" d="M9 3h1" />
<path stroke="#22bdd9" d="M10 3h1M31 3h1M2 9h1" />
<path stroke="#22c4cd" d="M11 3h1" />
<path stroke="#20d59b" d="M12 3h1M16 3h1" />
<path stroke="#20d88d" d="M13 3h3" />
<path stroke="#22c8c2" d="M17 3h1" />
<path stroke="#20d59c" d="M18 3h1" />
<path stroke="#20d98c" d="M19 3h1" />
<path stroke="#20dc84" d="M20 3h1" />
<path stroke="#21dc82" d="M21 3h1" />
<path stroke="#21d894" d="M22 3h1" />
<path stroke="#1cc9b6" d="M25 3h1M26 5h1" />
<path stroke="#1ccab6" d="M26 3h1" />
<path stroke="#23c3d6" d="M27 3h1M27 5h1" />
<path stroke="#24c0dd" d="M30 3h1M30 5h1M5 7h1M7 7h1" />
<path stroke="#22bcd8" d="M32 3h2M3 9h1" />
<path stroke="#22bbd8" d="M34 3h1" />
<path stroke="#21bbd8" d="M35 3h1" />
<path stroke="#21b8d6" d="M36 3h1" />
<path stroke="#21b7d5" d="M37 3h3" />
<path stroke="#14a0b7" d="M0 4h1" />
<path stroke="#20c2d2" d="M8 4h1" />
<path stroke="#20bad5" d="M9 4h1" />
<path stroke="#16afc5" d="M10 4h1" />
<path stroke="#17c2b6" d="M11 4h1" />
<path stroke="#17cba7" d="M12 4h1M16 4h1M18 4h1" />
<path stroke="#17c8b1" d="M17 4h1" />
<path stroke="#18cf9e" d="M19 4h1" />
<path stroke="#1dda7f" d="M20 4h1" />
<path stroke="#1fdd76" d="M21 4h1" />
<path stroke="#1fd98a" d="M22 4h1" />
<path stroke="#22c5ca" d="M23 4h1" />
<path stroke="#22c5cb" d="M24 4h1M7 18h1" />
<path stroke="#1ed594" d="M25 4h1" />
<path stroke="#1ed695" d="M26 4h1" />
<path stroke="#23c5d2" d="M27 4h1" />
<path stroke="#23beda" d="M30 4h1M5 8h1" />
<path stroke="#19afcb" d="M31 4h1" />
<path stroke="#14acc3" d="M32 4h1" />
<path stroke="#16abc7" d="M33 4h1" />
<path stroke="#17aac8" d="M34 4h1" />
<path stroke="#16a7c6" d="M35 4h1" />
<path stroke="#149bbc" d="M36 4h1" />
<path stroke="#1498b8" d="M37 4h2" />
<path stroke="#1498b9" d="M39 4h1" />
<path stroke="#17bfb5" d="M0 5h1" />
<path stroke="#18c6b8" d="M7 5h1" />
<path stroke="#1ac2bf" d="M8 5h1" />
<path stroke="#17afc6" d="M9 5h1" />
<path stroke="#14acc2" d="M10 5h1" />
<path stroke="#17c1b9" d="M11 5h1" />
<path stroke="#18c6b6" d="M12 5h7M39 12h1M38 14h2" />
<path stroke="#18c7b5" d="M19 5h1" />
<path stroke="#19caaf" d="M20 5h1M7 16h1" />
<path stroke="#1acaad" d="M21 5h1M5 16h2" />
<path stroke="#1ac9b0" d="M22 5h1" />
<path stroke="#1ac6bc" d="M23 5h2" />
<path stroke="#1acab1" d="M25 5h1" />
<path stroke="#21bed5" d="M31 5h1" />
<path stroke="#1bbfc3" d="M32 5h1" />
<path stroke="#20bbd4" d="M33 5h1M5 19h1" />
<path stroke="#22bad9" d="M34 5h2M0 20h1M2 30h1" />
<path stroke="#21b9d5" d="M36 5h1" />
<path stroke="#1fbace" d="M37 5h1" />
<path stroke="#20bdca" d="M38 5h1" />
<path stroke="#21b9d3" d="M39 5h1" />
<path stroke="#22c1d7" d="M8 6h1" />
<path stroke="#f3dd00" d="M9 6h6M17 6h5M25 6h5M15 7h3M22 7h2M30 7h1M33 8h2M33 9h1M33 10h1M32 11h1M32 12h1M32 13h1M32 14h1M32 15h1M32 16h1M32 17h1M32 18h1M32 19h1M32 20h1M31 21h1M31 22h1M31 23h1M31 24h1M31 25h1M31 26h1M31 27h1M31 28h1M31 29h1M31 30h1M31 31h1M31 32h1M31 33h1M31 34h1M31 35h1" />
<path stroke="#22c1d5" d="M23 6h1" />
<path stroke="#20c2d0" d="M24 6h1" />
<path stroke="#23c1d7" d="M32 6h1" />
<path stroke="#1dc8bc" d="M37 6h1" />
<path stroke="#20d39d" d="M38 6h1" />
<path stroke="#21beca" d="M39 6h1" />
<path stroke="#22bcda" d="M0 7h1" />
<path stroke="#22bbd9" d="M3 7h1M39 16h1" />
<path stroke="#22bdda" d="M8 7h1M8 9h1" />
<path stroke="#baaa0a" d="M9 7h1M24 7h2M9 8h2M24 8h1M24 9h1M30 9h1M25 10h2M29 10h1M29 11h1M29 12h3M9 26h1M9 27h1M9 28h1M9 29h3M26 29h3M25 30h1M25 31h1M12 32h3M25 32h1M11 33h1M25 33h1M11 34h1M25 34h1M11 35h1M26 35h3M12 36h3M23 36h2" />
<path stroke="#dfcd0b" d="M10 7h1M25 8h2M25 9h2M30 10h2M30 11h2M10 26h1M10 27h2M10 28h2M26 30h3M26 31h4M26 32h4M12 33h4M26 33h4M12 34h4M26 34h3M12 35h4" />
<path stroke="#ffeb00" d="M11 7h4M18 7h4M26 7h4M11 8h13M27 8h6M10 9h14M27 9h3M31 9h2M10 10h1M12 10h1M14 10h1M16 10h1M18 10h1M20 10h1M22 10h3M27 10h2M32 10h1M10 11h2M16 11h1M21 11h8M10 12h1M22 12h7M23 13h3M27 13h5M23 14h9M23 15h9M27 16h5M29 17h3M29 18h3M30 19h2M30 20h2M30 21h1M29 22h2M27 23h4M9 24h3M26 24h5M9 25h5M25 25h3M30 25h1M11 26h3M24 26h4M30 26h1M12 27h3M23 27h8M12 28h4M22 28h9M12 29h5M21 29h5M29 29h2M9 30h16M29 30h2M10 31h15M30 31h1M10 32h2M15 32h5M22 32h3M30 32h1M10 33h1M16 33h4M22 33h3M30 33h1M10 34h1M16 34h9M29 34h2M10 35h1M16 35h10M29 35h2M36 35h1M6 36h2M36 36h1M5 37h2M36 37h1M5 38h2M36 38h1M4 39h3M36 39h1" />
<path stroke="#1bcab3" d="M31 7h1" />
<path stroke="#22c7ca" d="M32 7h1" />
<path stroke="#22cbbe" d="M37 7h1" />
<path stroke="#1fd388" d="M38 7h1" />
<path stroke="#15ab9f" d="M39 7h1" />
<path stroke="#16aac8" d="M0 8h1M0 9h1" />
<path stroke="#19afcc" d="M2 8h1M8 8h1" />
<path stroke="#17abc8" d="M3 8h1" />
<path stroke="#ada011" d="M35 8h1M34 9h3M34 10h1M37 10h1M33 11h2M37 11h2M33 12h6M33 13h1M37 13h1M33 14h1M37 14h1M33 15h1M37 15h1M33 16h1M36 16h1M33 17h4M33 18h1M36 18h1M33 19h1M33 20h1M32 21h4M32 22h4M32 23h4M32 24h1M32 25h1M32 26h1M32 27h1M32 28h1M32 29h2M32 30h1M32 34h1M32 35h3M32 36h3M33 37h2M34 38h1" />
<path stroke="#22d699" d="M36 8h1" />
<path stroke="#21d796" d="M37 8h1" />
<path stroke="#20d989" d="M38 8h1" />
<path stroke="#1fd18c" d="M39 8h1" />
<path stroke="#24c1dd" d="M5 9h1" />
<path stroke="#f3de00" d="M9 9h1M9 10h1M9 11h1M9 12h1M9 13h1M9 14h1M9 15h1M8 16h1M8 17h1M8 24h1M8 25h1M8 26h1M8 27h1M8 28h1M8 29h1M8 30h1M9 31h1M9 32h1M9 33h1M9 34h1M36 34h1M9 35h1M9 36h3M15 36h8M25 36h7" />
<path stroke="#24c4cf" d="M37 9h3M0 14h1M5 14h4M2 18h3" />
<path stroke="#000000" d="M11 10h1M13 10h1M15 10h1M17 10h1M19 10h1M21 10h1M12 11h3M18 11h3M12 12h1M15 12h1M17 12h1M21 12h1M11 13h1M16 13h1M21 13h1M11 14h1M16 14h1M21 14h1M10 15h2M14 15h1M16 15h1M19 15h1M21 15h1M9 16h1M11 16h1M16 16h1M21 16h1M23 16h4M9 17h1M12 17h1M16 17h1M21 17h2M27 17h2M8 18h8M17 18h1M20 18h2M24 18h2M28 18h1M7 19h1M16 19h5M26 19h1M29 19h1M6 20h1M9 20h4M25 20h1M27 20h1M29 20h1M6 21h1M8 21h1M13 21h4M24 21h1M29 21h1M7 22h1M10 22h3M14 22h1M17 22h8M27 22h2M8 23h2M12 23h2M15 23h1M23 23h1M26 23h1M14 24h1M16 24h1M23 24h1M25 24h1M15 25h1M17 25h1M22 25h1M24 25h1M15 26h1M17 26h1M21 26h1M23 26h1M16 27h1M18 27h3M22 27h1M17 28h1M21 28h1M35 28h2M7 29h1M18 29h3M34 29h1M37 29h1M6 30h1M33 30h1M38 30h1M5 31h1M32 31h1M39 31h1M4 32h1M32 32h1M39 32h1M4 33h1M33 33h6M4 34h5M9 37h1M14 37h1M25 37h1M32 37h1M10 38h1M15 38h1M17 38h1M22 38h1M24 38h1M33 38h1M10 39h1M16 39h1M23 39h1M34 39h1" />
<path stroke="#877b0a" d="M35 10h2M35 11h1M34 13h2M34 14h1M34 15h1M33 28h2" />
<path stroke="#25bfdd" d="M38 10h2" />
<path stroke="#21d697" d="M0 11h1" />
<path stroke="#1fd392" d="M1 11h1" />
<path stroke="#1fd291" d="M2 11h3" />
<path stroke="#1dcf98" d="M5 11h1" />
<path stroke="#18c3b2" d="M6 11h1" />
<path stroke="#17c0b8" d="M7 11h2" />
<path stroke="#dfcc0b" d="M15 11h1M17 11h1M11 12h1M16 12h1M10 13h1M22 13h1M10 14h1M22 14h1M22 15h1M22 16h1M10 23h2M12 24h2M14 25h1M14 26h1M15 27h1M16 28h1M17 29h1M20 32h2M20 33h2M6 35h2" />
<path stroke="#938609" d="M36 11h1M35 14h1M35 15h1M35 19h1M35 20h1M34 25h1M34 26h1M34 27h1M32 33h1M33 34h2" />
<path stroke="#22c1cc" d="M0 12h1" />
<path stroke="#18b5ba" d="M1 12h1" />
<path stroke="#15b6aa" d="M2 12h1" />
<path stroke="#15b7a7" d="M3 12h2" />
<path stroke="#14b6a9" d="M5 12h1" />
<path stroke="#12b3af" d="M6 12h1" />
<path stroke="#12b2b0" d="M7 12h2" />
<path stroke="#ffffff" d="M13 12h2M18 12h3M12 13h4M17 13h4M12 14h1M17 14h1M12 15h1M17 15h1M12 16h1M17 16h1M13 17h3M17 17h4M18 18h2M36 29h1M35 30h3M7 31h2M34 31h5M6 32h3M34 32h5M6 33h3M10 37h4M15 37h3M22 37h3M26 37h6M11 38h4M16 38h1M23 38h1M25 38h8M11 39h5M17 39h2M21 39h2M24 39h10" />
<path stroke="#24bedd" d="M0 13h1" />
<path stroke="#22bfd0" d="M1 13h1" />
<path stroke="#1fcfa0" d="M2 13h1" />
<path stroke="#1fd292" d="M3 13h6M0 28h1" />
<path stroke="#dfcb0b" d="M26 13h1M28 25h2M28 26h2" />
<path stroke="#877a0a" d="M36 13h1M36 14h1M34 16h1M34 24h2M33 27h1" />
<path stroke="#15c7ad" d="M38 13h2" />
<path stroke="#23c5cd" d="M1 14h1M4 14h1" />
<path stroke="#23c9c3" d="M2 14h2" />
<path stroke="#b4ccf9" d="M13 14h1M18 14h1" />
<path stroke="#316ef9" d="M14 14h1M19 14h1M13 15h1" />
<path stroke="#3170f9" d="M15 14h1M20 14h1M15 15h1M18 15h1M20 15h1M13 16h2M18 16h2" />
<path stroke="#21db82" d="M0 15h1" />
<path stroke="#21db86" d="M1 15h1" />
<path stroke="#21d793" d="M2 15h1" />
<path stroke="#20d49d" d="M3 15h1" />
<path stroke="#22c4cc" d="M4 15h1" />
<path stroke="#23c0d6" d="M5 15h4" />
<path stroke="#87790a" d="M36 15h1M35 16h1M34 18h2M34 19h1M34 20h1M33 24h1M33 25h1M35 25h1M33 26h1M35 26h1M35 27h1" />
<path stroke="#20bcd2" d="M38 15h1" />
<path stroke="#22bfd6" d="M39 15h1" />
<path stroke="#21e068" d="M0 16h1" />
<path stroke="#21dd7a" d="M1 16h1" />
<path stroke="#21cfaf" d="M2 16h1" />
<path stroke="#1bcea4" d="M3 16h1" />
<path stroke="#19cbaa" d="M4 16h1" />
<path stroke="#ff8a00" d="M10 16h1M10 17h2M23 17h4M16 18h1M22 18h2M26 18h2M8 19h8M21 19h5M27 19h2M7 20h2M13 20h12M26 20h1M28 20h1M7 21h1M9 21h4M17 21h7M25 21h4M8 22h2M13 22h1M25 22h2M14 23h1M24 23h2M15 24h1M24 24h1M16 25h1M23 25h1M16 26h1M22 26h1M17 27h1M21 27h1M18 28h3" />
<path stroke="#6698fe" d="M15 16h1M20 16h1" />
<path stroke="#12aac1" d="M37 16h1" />
<path stroke="#16aec5" d="M38 16h1" />
<path stroke="#21e06e" d="M0 17h1" />
<path stroke="#21db83" d="M1 17h1" />
<path stroke="#21d794" d="M2 17h1" />
<path stroke="#20d790" d="M3 17h1" />
<path stroke="#20d78e" d="M4 17h3" />
<path stroke="#1ed595" d="M7 17h1" />
<path stroke="#19bfbe" d="M37 17h1M6 19h1" />
<path stroke="#19c0bf" d="M38 17h1" />
<path stroke="#23bfd8" d="M39 17h1" />
<path stroke="#21d893" d="M0 18h1" />
<path stroke="#23c8c5" d="M1 18h1" />
<path stroke="#23c5ce" d="M5 18h1" />
<path stroke="#22c6c9" d="M6 18h1" />
<path stroke="#20bbd2" d="M37 18h2" />
<path stroke="#21bad7" d="M39 18h1" />
<path stroke="#23c3d1" d="M0 19h1" />
<path stroke="#22bcd7" d="M1 19h1" />
<path stroke="#22bad8" d="M2 19h3" />
<path stroke="#15aeba" d="M36 19h1" />
<path stroke="#12a6c1" d="M37 19h1" />
<path stroke="#12a4c3" d="M38 19h2M2 20h3M3 28h1" />
<path stroke="#16a9c8" d="M1 20h1" />
<path stroke="#11a4c2" d="M5 20h1M5 21h1" />
<path stroke="#1acd91" d="M36 20h1M38 24h1" />
<path stroke="#10aeb4" d="M37 20h1M36 23h1M37 24h1" />
<path stroke="#0da6bb" d="M38 20h2M39 22h1M39 26h1M36 27h1M37 28h1" />
<path stroke="#1eb2d1" d="M0 21h1" />
<path stroke="#10a0be" d="M1 21h1" />
<path stroke="#0a9bb9" d="M2 21h2M3 23h1M3 24h2" />
<path stroke="#0b9dbb" d="M4 21h1M4 23h1" />
<path stroke="#16cba6" d="M36 21h1" />
<path stroke="#13c2af" d="M37 21h1M37 25h1" />
<path stroke="#12bcb2" d="M38 21h1" />
<path stroke="#12bbb3" d="M39 21h1" />
<path stroke="#0e90b1" d="M0 22h1" />
<path stroke="#088cae" d="M1 22h1" />
<path stroke="#068bad" d="M2 22h2" />
<path stroke="#0d93b4" d="M4 22h1" />
<path stroke="#1cb1cc" d="M5 22h1" />
<path stroke="#20c2c1" d="M6 22h1" />
<path stroke="#ff0000" d="M15 22h2M16 23h3M22 23h1M17 24h1M21 24h2M20 25h2M18 26h3M18 37h4M18 38h4M19 39h2" />
<path stroke="#13c3ae" d="M36 22h1" />
<path stroke="#12bdb2" d="M37 22h1M36 25h1M37 26h1" />
<path stroke="#0eabb9" d="M38 22h1M38 26h1" />
<path stroke="#10a7ae" d="M0 23h1" />
<path stroke="#0fa5b0" d="M1 23h1" />
<path stroke="#0b9db7" d="M2 23h1" />
<path stroke="#12abbb" d="M5 23h1" />
<path stroke="#1ccc98" d="M6 23h1" />
<path stroke="#1ed67f" d="M7 23h1" />
<path stroke="#fc809a" d="M19 23h3M18 24h3M18 25h2" />
<path stroke="#0da7ba" d="M37 23h1M36 24h1" />
<path stroke="#10abb4" d="M38 23h1" />
<path stroke="#11abb2" d="M39 23h1" />
<path stroke="#1bd287" d="M0 24h1" />
<path stroke="#19c58f" d="M1 24h1" />
<path stroke="#0ea4b2" d="M2 24h1" />
<path stroke="#0a9db8" d="M5 24h1" />
<path stroke="#0da5b1" d="M6 24h1" />
<path stroke="#0ea7ae" d="M7 24h1" />
<path stroke="#1cd387" d="M39 24h1" />
<path stroke="#15c4a3" d="M0 25h1" />
<path stroke="#0e9d9f" d="M1 25h1" />
<path stroke="#0689a6" d="M2 25h1" />
<path stroke="#0486a8" d="M3 25h5" />
<path stroke="#15c5a9" d="M38 25h1" />
<path stroke="#16c6a7" d="M39 25h1" />
<path stroke="#16beb5" d="M0 26h1" />
<path stroke="#1099b0" d="M1 26h1" />
<path stroke="#0e8daf" d="M2 26h2" />
<path stroke="#0d8eac" d="M4 26h1" />
<path stroke="#0d949f" d="M5 26h1" />
<path stroke="#0d959c" d="M6 26h2" />
<path stroke="#12c0b1" d="M36 26h1" />
<path stroke="#21c4c8" d="M0 27h1" />
<path stroke="#20bcc9" d="M1 27h1" />
<path stroke="#1eb3cf" d="M2 27h1" />
<path stroke="#1eb1d0" d="M3 27h1" />
<path stroke="#1eb7c5" d="M4 27h1" />
<path stroke="#1ecf89" d="M5 27h1" />
<path stroke="#1ed475" d="M6 27h1" />
<path stroke="rgba(30,212,117,0.9764705882352941)" d="M7 27h1" />
<path stroke="#0ca5bc" d="M37 27h1" />
<path stroke="#0ba0bc" d="M38 27h1" />
<path stroke="#0a9cba" d="M39 27h1" />
<path stroke="#1dcc9b" d="M1 28h1" />
<path stroke="#14acbc" d="M2 28h1" />
<path stroke="#14adba" d="M4 28h1" />
<path stroke="#1cd08a" d="M5 28h1" />
<path stroke="#1dd77b" d="M6 28h1" />
<path stroke="rgba(29,214,125,0.8941176470588236)" d="M7 28h1" />
<path stroke="#0ca1b8" d="M38 28h1" />
<path stroke="#068cab" d="M39 28h1" />
<path stroke="#12b2b2" d="M0 29h1" />
<path stroke="#14afb9" d="M1 29h1" />
<path stroke="#12a7c2" d="M2 29h1" />
<path stroke="#11a5c2" d="M3 29h1" />
<path stroke="#0ea8bb" d="M4 29h1" />
<path stroke="rgba(16,175,177,0.9764705882352941)" d="M5 29h1" />
<path stroke="rgba(16,174,176,0.8627450980392157)" d="M6 29h1" />
<path stroke="#e6dfdf" d="M35 29h1M7 30h1M34 30h1M6 31h1M33 31h1M5 32h1M33 32h1M5 33h1" />
<path stroke="rgba(17,184,174,0.8627450980392157)" d="M38 29h1" />
<path stroke="rgba(7,140,166,0.8352941176470589)" d="M39 29h1" />
<path stroke="#14b8b6" d="M0 30h1" />
<path stroke="#1fbad2" d="M1 30h1" />
<path stroke="#20bbd5" d="M3 30h1" />
<path stroke="#18bfbe" d="M4 30h1" />
<path stroke="rgba(19,192,178,0.8941176470588236)" d="M5 30h1" />
<path stroke="rgba(21,185,134,0.32941176470588235)" d="M39 30h1" />
<path stroke="#0e95af" d="M0 31h1" />
<path stroke="#1dafce" d="M1 31h1" />
<path stroke="#21b7d7" d="M2 31h1" />
<path stroke="#24bddb" d="M3 31h1" />
<path stroke="rgba(33,193,211,0.9764705882352941)" d="M4 31h1" />
<path stroke="#0582a6" d="M0 32h1" />
<path stroke="#0c8aad" d="M1 32h1" />
<path stroke="#1294b6" d="M2 32h1" />
<path stroke="#1fb0d0" d="M3 32h1" />
<path stroke="#017aa1" d="M0 33h2" />
<path stroke="#057ca3" d="M2 33h1" />
<path stroke="#0b84aa" d="M3 33h1" />
<path stroke="#0a97b8" d="M39 33h1" />
<path stroke="#025b95" d="M0 34h2" />
<path stroke="#025c96" d="M2 34h1" />
<path stroke="#026298" d="M3 34h1" />
<path stroke="#f3dc00" d="M35 34h1M35 35h1M35 36h1M35 37h1M35 38h1M35 39h1" />
<path stroke="#0a95b7" d="M37 34h1" />
<path stroke="#098eb3" d="M38 34h1" />
<path stroke="#066c9f" d="M39 34h1" />
<path stroke="#05579b" d="M0 35h2M7 37h1M0 38h3M7 39h3" />
<path stroke="#045d9d" d="M2 35h1" />
<path stroke="#0472a5" d="M3 35h1" />
<path stroke="#0376a6" d="M4 35h1" />
<path stroke="#0174a0" d="M5 35h1" />
<path stroke="#025995" d="M8 35h1M8 36h1" />
<path stroke="#056b9e" d="M37 35h1" />
<path stroke="#04679d" d="M38 35h1" />
<path stroke="#045a9c" d="M39 35h1" />
<path stroke="#0a69bb" d="M0 36h2M0 37h3M4 37h1" />
<path stroke="#0a6abc" d="M2 36h1M3 37h1" />
<path stroke="#0a6fbd" d="M3 36h1" />
<path stroke="#096db7" d="M4 36h1" />
<path stroke="#045f9c" d="M5 36h1M37 37h1" />
<path stroke="#0478a3" d="M37 36h1" />
<path stroke="#0371a2" d="M38 36h1" />
<path stroke="#0767b0" d="M39 36h1" />
<path stroke="#05589b" d="M8 37h1" />
<path stroke="#025a96" d="M38 37h1" />
<path stroke="#03579a" d="M39 37h1" />
<path stroke="#065aa0" d="M3 38h1" />
<path stroke="#0965b4" d="M4 38h1" />
<path stroke="#0965b3" d="M7 38h3" />
<path stroke="#035394" d="M37 38h1M3 39h1" />
<path stroke="#035292" d="M38 38h2M0 39h3M37 39h3" />
</svg>