<svg xmlns="http://www.w3.org/2000/svg" viewBox="0 -0.5 40 40" shape-rendering="crispEdges">
<metadata>Made with Pixels to Svg https://codepen.io/shshaw/pen/XbxvNj</metadata>
<path stroke="#000000" d="M0 0h1M2 0h9M28 0h9M38 0h2M0 1h7M8 1h2M29 1h11M0 2h3M4 2h5M30 2h5M36 2h4M0 3h8M31 3h9M0 4h7M32 4h8M0 5h7M33 5h7M0 6h6M33 6h7M1 7h4M34 7h5M0 8h5M35 8h5M0 9h5M35 9h5M0 10h4M35 10h5M0 11h4M35 11h5M0 12h4M36 12h4M0 13h4M36 13h4M0 14h3M36 14h4M0 15h3M37 15h3M0 16h3M37 16h3M0 17h3M37 17h3M0 18h4M37 18h3M0 19h4M37 19h3M0 20h5M36 20h4M0 21h5M35 21h5M0 22h5M35 22h4M0 23h1M2 23h4M34 23h6M0 24h7M34 24h6M0 25h8M33 25h7M0 26h8M32 26h8M1 27h9M31 27h9M0 28h3M4 28h3M8 28h3M29 28h11M0 29h4M7 29h7M26 29h14M0 30h3M8 30h8M24 30h16M1 31h1M4 31h1M6 31h1M9 31h7M25 31h15M10 32h5M27 32h13M5 33h2M8 33h1M10 33h3M32 33h6M7 34h5M33 34h4M7 35h4" />
<path stroke="#ffffff" d="M1 0h1M13 0h5M21 0h4M37 0h1M7 1h1M11 1h6M20 1h7M3 2h1M10 2h7M19 2h9M35 2h1M9 3h8M19 3h10M8 4h8M19 4h12M8 5h8M18 5h14M8 6h8M18 6h15M0 7h1M7 7h7M22 7h11M39 7h1M6 8h4M24 8h10M6 9h3M25 9h9M5 10h2M27 10h7M5 11h1M28 11h6M4 12h2M29 12h6M4 13h2M30 13h5M30 14h4M32 15h1M5 18h1M5 19h1M33 19h1M5 20h2M32 20h2M5 21h2M31 21h3M6 22h2M30 22h3M39 22h1M1 23h1M7 23h2M29 23h4M7 24h3M28 24h4M8 25h3M27 25h4M10 26h2M26 26h4M0 27h1M11 27h3M23 27h5M3 28h1M7 28h1M12 28h14M4 29h3M14 29h10M3 30h5M2 31h2M5 31h1M7 31h2M24 31h1M1 32h9M15 32h2M23 32h4M1 33h1M3 33h1M7 33h1M9 33h1M13 33h6M21 33h11M4 34h1M6 34h1M12 34h21M11 35h1M13 35h6M21 35h11M33 35h2M10 36h3M14 36h10M26 36h5M32 36h4M9 37h4M14 37h2M18 37h1M21 37h2M27 37h3M32 37h4M9 38h4M14 38h2M18 38h5M27 38h3M31 38h2M36 38h1M8 39h4M13 39h6M21 39h2M27 39h2M30 39h3M34 39h1M36 39h1" />
<path stroke="#d1cdce" d="M11 0h2M25 0h3M10 1h1M27 1h2M9 2h1M28 2h2M8 3h1M29 3h2M7 4h1M31 4h1M7 5h1M32 5h1M6 6h2M5 7h2M14 7h8M33 7h1M5 8h1M10 8h14M34 8h1M5 9h1M9 9h2M34 9h1M4 10h1M7 10h2M26 10h1M34 10h1M4 11h1M6 11h2M34 11h1M6 12h1M35 12h1M29 13h1M35 13h1M4 17h1M4 18h1M6 18h1M4 19h1M36 19h1M34 20h2M7 21h1M34 21h1M5 22h1M33 22h2M6 23h1M33 23h1M32 24h2M11 25h1M31 25h2M8 26h2M25 26h1M30 26h2M10 27h1M14 27h1M22 27h1M28 27h3M11 28h1M26 28h3M24 29h2M19 31h3M17 37h1M25 37h1M16 38h1M34 38h1" />
<path stroke="#3a5df8" d="M18 0h3M17 1h3M17 2h2M17 3h2M16 4h3M16 5h2M16 6h2M16 31h1M23 31h1M17 32h6M24 36h2M23 37h2M26 37h1M23 38h1M26 38h1M35 38h1M23 39h1M25 39h1M35 39h1" />
<path stroke="#e1d987" d="M11 9h1M25 10h1M30 18h1M6 19h1M30 19h1M30 20h1M29 22h1M28 23h1M27 24h1M25 25h2M12 26h2M22 26h3M15 27h7" />
<path stroke="#867e00" d="M12 9h1M10 10h1M18 11h3M26 12h1M28 15h1" />
<path stroke="#a89e00" d="M13 9h1M19 9h3M22 10h1M10 11h1M13 11h2M10 12h1M27 13h1M28 14h1" />
<path stroke="#fff557" d="M14 9h2M22 9h1M15 10h4M23 10h2M11 11h2M11 12h1M25 13h2M27 14h1M31 16h1" />
<path stroke="#fff43f" d="M16 9h2M12 10h3" />
<path stroke="#c0b500" d="M18 9h1" />
<path stroke="#fff779" d="M23 9h1M11 10h1M19 10h3M15 11h3M21 11h5M22 12h4M26 14h1M31 15h1M5 16h1M32 16h1M5 17h1M31 17h2" />
<path stroke="#ded795" d="M24 9h1M9 10h1M27 11h1M28 12h1" />
<path stroke="#8e8644" d="M8 11h1M7 12h1M6 13h1" />
<path stroke="#b5ab2c" d="M9 11h1M6 14h2M6 15h2M6 16h1" />
<path stroke="#eae061" d="M26 11h1M27 12h1M28 13h1M30 17h1" />
<path stroke="#cabe1f" d="M8 12h2M7 13h2" />
<path stroke="#575200" d="M12 12h1M15 12h1M17 12h1M21 12h1M11 13h1M15 13h1M17 13h1M21 13h1M11 14h1M15 14h1M17 14h1M20 14h2M10 15h2M14 15h2M17 15h1M19 15h3M9 16h1M11 16h1M14 16h2M17 16h1M19 16h3M23 16h4M28 16h1M9 17h1M12 17h1M14 17h4M19 17h4M27 17h2M8 18h8M17 18h1M20 18h2M24 18h2M28 18h1M7 19h1M16 19h5M26 19h1M29 19h1M9 20h4M25 20h1M27 20h1M29 20h1M8 21h1M13 21h4M24 21h1M29 21h1M10 22h3M14 22h1M17 22h8M27 22h2M9 23h1M12 23h2M15 23h1M23 23h1M26 23h1M14 24h1M16 24h1M23 24h1M25 24h1M15 25h1M17 25h1M22 25h1M24 25h1M15 26h1M17 26h1M21 26h1" />
<path stroke="#d8e1a4" d="M13 12h2M18 12h3M12 13h3M18 13h3M12 14h2M18 14h1M12 15h2M18 15h1M12 16h2M18 16h1M13 17h1M18 17h1M18 18h2" />
<path stroke="#fffaa8" d="M16 12h1M16 13h1M22 13h3M5 14h1M14 14h1M16 14h1M19 14h1M22 14h4M4 15h2M16 15h1M22 15h6M4 16h1M16 16h1M22 16h1M27 16h1M31 18h2M31 19h2M31 20h1M30 21h1" />
<path stroke="#c3b93b" d="M9 13h1M8 14h1M29 16h1" />
<path stroke="#aba452" d="M10 13h1M9 14h2M8 15h2M7 16h2M7 17h2M29 17h1M7 18h1M29 18h1M10 23h2M27 23h1M10 24h4M26 24h1M12 25h3M14 26h1" />
<path stroke="#6d6d6d" d="M3 14h1M34 14h2M3 15h1M33 15h2M36 15h1M3 16h1M33 16h1M36 16h1M3 17h1M33 17h1M36 17h1M33 18h2M36 18h1M34 19h2M0 31h1M0 32h1M0 33h1M2 33h1M0 34h2M5 34h1M0 35h1M35 35h4M1 36h6M39 36h1M0 37h2M36 37h2M39 37h1M0 38h1M6 38h1" />
<path stroke="#9e9696" d="M4 14h1M35 16h1M35 17h1M17 31h2M22 31h1M4 33h1M19 33h2M38 33h2M2 34h2M37 34h3M1 35h6M12 35h1M19 35h2M32 35h1M0 36h1M7 36h3M13 36h1M31 36h1M36 36h1M3 37h1M6 37h3M13 37h1M19 37h2M30 37h2M38 37h1M1 38h2M4 38h2M7 38h2M13 38h1M24 38h2M30 38h1M37 38h3M0 39h8M12 39h1M19 39h2M24 39h1M26 39h1M29 39h1M37 39h3" />
<path stroke="#f0e546" d="M29 14h1M29 15h2M30 16h1" />
<path stroke="#4c4a4a" d="M35 15h1M34 16h1M34 17h1M35 18h1M16 30h8M39 35h1M37 36h2M2 37h1M4 37h2M3 38h1" />
<path stroke="#ffad00" d="M10 16h1M10 17h2M23 17h4M16 18h1M22 18h2M26 18h2M8 19h8M21 19h5M27 19h2M7 20h2M13 20h12M26 20h1M28 20h1M9 21h4M17 21h7M25 21h2M28 21h1M8 22h2M13 22h1M25 22h2M14 23h1M24 23h2M15 24h1M24 24h1M16 25h1M23 25h1M16 26h1" />
<path stroke="#99903e" d="M6 17h1" />
<path stroke="#ff8a00" d="M27 21h1" />
<path stroke="#ff5200" d="M15 22h2M16 23h3M22 23h1M17 24h1M21 24h2M20 25h2M18 26h3" />
<path stroke="#fda765" d="M19 23h3M18 24h3M18 25h2" />
<path stroke="#ec0b0b" d="M16 37h1M17 38h1M33 38h1M33 39h1" />
</svg>