<svg xmlns="http://www.w3.org/2000/svg" viewBox="0 -0.5 40 40" shape-rendering="crispEdges">
<metadata>Made with Pixels to Svg https://codepen.io/shshaw/pen/XbxvNj</metadata>
<path stroke="#19009e" d="M0 0h14M26 0h14M0 1h6M7 1h6M27 1h9M37 1h3M0 2h11M28 2h12M0 3h11M29 3h3M34 3h6M0 4h10M29 4h3M34 4h6M0 5h3M4 5h6M30 5h10M0 6h5M6 6h4M30 6h10M0 7h10M30 7h5M36 7h4M0 8h10M30 8h10M0 9h10M30 9h10M0 10h10M30 10h10M0 11h9M30 11h10M0 12h9M30 12h10M0 13h2M3 13h6M30 13h10M0 14h9M30 14h10M0 15h10M30 15h10M0 16h9M29 16h11M0 17h9M29 17h11M0 18h8M29 18h11M0 19h7M30 19h10M0 20h6M30 20h10M0 21h6M30 21h10M0 22h7M29 22h11M0 23h8M10 23h2M27 23h13M0 24h1M4 24h10M26 24h14M0 25h1M5 25h10M25 25h15M0 26h2M6 26h9M24 26h16M0 27h3M7 27h9M23 27h17M0 28h3M8 28h9M23 28h17M0 29h1M9 29h10M23 29h13M9 30h3M13 30h6M30 30h4M0 34h2M4 36h2M34 36h1M39 36h1M39 37h1M38 38h2M37 39h3" />
<path stroke="#000000" d="M14 0h12M13 1h2M25 1h2M11 2h2M26 2h2M11 3h1M27 3h2M10 4h1M28 4h1M10 5h1M29 5h1M10 6h1M29 6h1M10 7h1M29 7h1M10 8h1M29 8h1M10 9h1M21 9h2M29 9h1M10 10h3M20 10h2M23 10h1M29 10h1M9 11h2M12 11h1M19 11h4M24 11h1M29 11h1M9 12h3M13 12h1M18 12h7M29 12h1M9 13h5M18 13h7M29 13h1M9 14h6M17 14h8M29 14h1M10 15h5M17 15h7M28 15h2M9 16h1M11 16h4M17 16h10M28 16h1M9 17h1M12 17h11M27 17h2M8 18h8M17 18h5M24 18h2M28 18h1M7 19h1M16 19h5M26 19h1M29 19h1M6 20h1M9 20h4M25 20h1M27 20h1M29 20h1M6 21h1M8 21h1M13 21h4M24 21h1M29 21h1M7 22h1M10 22h3M14 22h1M17 22h8M27 22h2M8 23h2M12 23h2M15 23h1M23 23h1M26 23h1M1 24h3M14 24h1M16 24h1M23 24h1M25 24h1M1 25h1M4 25h1M15 25h1M17 25h1M22 25h1M24 25h1M2 26h1M5 26h1M15 26h1M17 26h1M21 26h1M23 26h1M3 27h1M6 27h1M16 27h1M18 27h3M22 27h1M3 28h2M6 28h2M17 28h1M21 28h2M1 29h1M4 29h1M7 29h2M19 29h1M22 29h1M2 30h2M5 30h1M8 30h1M19 30h1M22 30h1M3 31h1M8 31h1M18 31h1M22 31h2M4 32h1M8 32h1M18 32h1M22 32h1M24 32h1M5 33h2M8 33h1M16 33h2M19 33h1M21 33h1M25 33h1M6 34h1M8 34h1M16 34h1M20 34h1M26 34h2M6 35h1M8 35h1M14 35h2M28 35h2M6 36h1M8 36h1M14 36h1M30 36h1M6 37h1M8 37h1M13 37h1M31 37h1M6 38h1M8 38h1M12 38h2M16 38h1M28 38h1M32 38h1M6 39h1M8 39h1M11 39h2M15 39h2M28 39h2M33 39h1" />
<path stroke="#ffffff" d="M6 1h1M36 1h1M32 3h2M32 4h2M3 5h1M5 6h1M35 7h1M22 10h1M11 11h1M23 11h1M12 12h1M2 13h1" />
<path stroke="#9a9dab" d="M15 1h10M13 2h13M12 3h15M11 4h17M11 5h18M11 6h18M11 7h18M11 8h18M11 9h10M23 9h6M13 10h7M24 10h5M13 11h6M25 11h4M14 12h4M25 12h4M14 13h4M25 13h4M15 14h2M25 14h4M15 15h2M24 15h4M15 16h2M27 16h1M2 25h2M3 26h2M4 27h2M5 28h1M2 29h2M5 29h2M20 29h2M4 30h1M6 30h2M20 30h2M4 31h4M19 31h3M5 32h3M19 32h3M23 32h1M7 33h1M18 33h1M20 33h1M22 33h3M7 34h1M17 34h3M21 34h5M7 35h1M16 35h3M22 35h6M7 36h1M15 36h5M21 36h9M7 37h1M14 37h17M7 38h1M14 38h2M17 38h11M29 38h3M7 39h1M13 39h2M17 39h11M30 39h3" />
<path stroke="#ff8a00" d="M10 16h1M10 17h2M23 17h4M16 18h1M22 18h2M26 18h2M8 19h8M21 19h5M27 19h2M7 20h2M13 20h12M26 20h1M28 20h1M7 21h1M9 21h4M17 21h7M25 21h4M8 22h2M13 22h1M25 22h2M14 23h1M24 23h2M15 24h1M24 24h1M16 25h1M23 25h1M16 26h1M22 26h1M17 27h1M21 27h1M18 28h3" />
<path stroke="#241571" d="M15 22h2M16 23h3M22 23h1M17 24h1M21 24h2M20 25h2M18 26h3" />
<path stroke="#fc809a" d="M19 23h3M18 24h3M18 25h2" />
<path stroke="#4e009e" d="M36 29h4M0 30h2M12 30h1M23 30h1M27 30h3M34 30h3M39 30h1M0 31h3M9 31h1M14 31h4M24 31h1M27 31h13M0 32h4M9 32h1M14 32h4M25 32h7M37 32h3M0 33h5M9 33h7M26 33h6M33 33h1M37 33h3M4 34h2M9 34h7M28 34h12M0 35h2M4 35h2M9 35h5M30 35h10M0 36h4M9 36h5M31 36h3M35 36h2M38 36h1M0 37h6M9 37h4M32 37h7M0 38h2M3 38h3M9 38h3M33 38h5M0 39h6M9 39h2M34 39h3" />
<path stroke="#83009e" d="M24 30h3M37 30h2M10 31h4M25 31h2M10 32h4M32 32h5M32 33h1M34 33h3M2 34h2M2 35h2M37 36h1M2 38h1" />
<path stroke="#00ff1a" d="M19 35h1M21 35h1M20 36h1" />
<path stroke="#d700ff" d="M20 35h1" />
</svg>