<svg xmlns="http://www.w3.org/2000/svg" viewBox="0 -0.5 40 40" shape-rendering="crispEdges">
<metadata>Made with Pixels to Svg https://codepen.io/shshaw/pen/XbxvNj</metadata>
<path stroke="#6d084a" d="M0 0h15M0 1h10M0 2h1M6 2h2M38 15h2M38 16h2M37 17h3" />
<path stroke="#6d084c" d="M15 0h1M10 1h1M8 2h1" />
<path stroke="#6c0851" d="M16 0h1M11 1h1" />
<path stroke="#6c0853" d="M17 0h2M12 1h2M9 2h1M6 8h1" />
<path stroke="#6c0855" d="M19 0h1M14 1h1" />
<path stroke="#6a0d67" d="M20 0h1M15 1h1M32 22h1" />
<path stroke="#641488" d="M21 0h1M16 1h1M32 21h1" />
<path stroke="#611794" d="M22 0h1M17 1h1" />
<path stroke="#651797" d="M23 0h1" />
<path stroke="#6e199c" d="M24 0h1" />
<path stroke="#6b31bc" d="M25 0h1" />
<path stroke="#6d64f2" d="M26 0h1" />
<path stroke="#868fff" d="M27 0h1" />
<path stroke="#8e99ff" d="M28 0h1" />
<path stroke="#949fff" d="M29 0h1" />
<path stroke="#000000" d="M30 0h2M27 1h6M25 2h6M32 2h2M22 3h2M26 3h1M29 3h2M33 3h2M17 4h6M30 4h2M12 5h2M16 5h1M26 5h1M30 5h2M11 6h5M19 6h2M26 6h1M31 6h2M10 7h2M14 7h2M18 7h4M26 7h1M31 7h2M10 8h1M15 8h1M17 8h2M21 8h2M27 8h1M32 8h1M10 9h1M17 9h1M22 9h2M28 9h1M10 10h1M23 10h1M28 10h1M10 11h1M13 11h2M18 11h3M28 11h1M10 12h1M12 12h1M15 12h1M17 12h1M21 12h1M28 12h1M11 13h1M15 13h1M17 13h1M21 13h1M29 13h1M11 14h1M15 14h1M17 14h1M20 14h2M29 14h1M10 15h2M14 15h2M17 15h1M19 15h3M29 15h1M9 16h1M11 16h1M14 16h2M17 16h1M19 16h3M23 16h4M29 16h1M9 17h1M12 17h1M14 17h4M19 17h4M27 17h1M29 17h1M8 18h8M17 18h1M20 18h2M24 18h2M28 18h1M7 19h1M16 19h5M26 19h1M29 19h1M6 20h1M9 20h4M25 20h1M27 20h1M29 20h1M6 21h1M8 21h1M13 21h4M24 21h1M29 21h1M7 22h1M10 22h3M14 22h1M17 22h8M27 22h2M8 23h2M12 23h2M15 23h1M23 23h1M26 23h2M14 24h1M16 24h1M23 24h1M25 24h2M14 25h2M17 25h1M22 25h1M24 25h2M15 26h1M17 26h1M21 26h1M23 26h1M26 26h1M15 27h2M18 27h3M22 27h2M27 27h1M32 27h5M13 28h2M16 28h2M21 28h2M28 28h1M30 28h2M37 28h2M8 29h5M17 29h5M29 29h1M7 30h1M18 30h3M28 30h1M6 31h1M18 31h2M27 31h1M5 32h1M19 32h1M21 32h1M26 32h1M4 33h1M19 33h3M25 33h1M4 34h1M25 34h1M4 35h1M3 36h1M3 37h1M13 37h1M3 38h1M13 38h1M3 39h1M13 39h2" />
<path stroke="#8a94ff" d="M32 0h1M32 5h1M28 7h1M29 27h1" />
<path stroke="#858eff" d="M33 0h1M29 9h1M29 10h1M30 17h1M30 18h1" />
<path stroke="#6e64f3" d="M34 0h1M25 1h1" />
<path stroke="#6e2fb5" d="M35 0h1" />
<path stroke="#7c0e74" d="M36 0h1" />
<path stroke="#81015a" d="M37 0h1M37 6h1" />
<path stroke="#820057" d="M38 0h2M39 1h1M39 2h1M39 3h1M39 4h1M39 5h1M38 6h2M37 7h3M37 8h3M37 9h3M37 10h3M39 11h1" />
<path stroke="#611795" d="M18 1h1M13 2h1M7 7h1M7 8h1M7 9h1M7 10h1M32 20h1" />
<path stroke="#611998" d="M19 1h1" />
<path stroke="#602cae" d="M20 1h1" />
<path stroke="#5f46d8" d="M21 1h1M11 3h1M5 23h1" />
<path stroke="#5e4fea" d="M22 1h1M17 2h1" />
<path stroke="#6050ed" d="M23 1h1" />
<path stroke="#6453ee" d="M24 1h1" />
<path stroke="#8187ff" d="M26 1h1M38 27h1" />
<path stroke="#8993ff" d="M33 1h1" />
<path stroke="#8286ff" d="M34 1h1" />
<path stroke="#705be3" d="M35 1h1" />
<path stroke="#712aa9" d="M36 1h1" />
<path stroke="#7d096f" d="M37 1h1M37 5h1" />
<path stroke="#820059" d="M38 1h1M38 5h1" />
<path stroke="#6e074a" d="M1 2h5M0 3h7M0 4h1M4 4h2M0 5h1M5 5h1M5 6h1M5 7h1M4 8h2M4 9h2M3 10h3M3 11h3M2 12h4M2 13h2M2 14h2M36 14h4M2 15h2M36 15h2M35 16h3M35 17h2M34 18h6M34 19h6M34 20h2M34 22h1" />
<path stroke="#6a0d66" d="M10 2h1" />
<path stroke="#641487" d="M11 2h1" />
<path stroke="#611694" d="M12 2h1M7 6h1" />
<path stroke="#611997" d="M14 2h1" />
<path stroke="#612cae" d="M15 2h1" />
<path stroke="#6046d8" d="M16 2h1" />
<path stroke="#5d4feb" d="M18 2h1M8 27h1" />
<path stroke="#5e50ec" d="M19 2h1" />
<path stroke="#6760f2" d="M20 2h1" />
<path stroke="#7679ff" d="M21 2h1" />
<path stroke="#7881ff" d="M22 2h1M14 26h1" />
<path stroke="#7f87ff" d="M23 2h1M9 12h1M29 22h1" />
<path stroke="#fdb055" d="M24 2h1M25 3h1" />
<path stroke="#8c96ff" d="M31 2h1" />
<path stroke="#8992ff" d="M34 2h1" />
<path stroke="#7b7bff" d="M35 2h1" />
<path stroke="#6745db" d="M36 2h1" />
<path stroke="#76128e" d="M37 2h1M35 8h1" />
<path stroke="#81005d" d="M38 2h1M38 4h1M36 8h1" />
<path stroke="#6c084f" d="M7 3h1" />
<path stroke="#6a0c65" d="M8 3h1" />
<path stroke="#63168a" d="M9 3h1" />
<path stroke="#612cad" d="M10 3h1" />
<path stroke="#5d4fea" d="M12 3h1M8 7h1" />
<path stroke="#5e51eb" d="M13 3h1M31 14h1M31 15h1M31 16h1M31 17h1M31 18h1M31 19h1M34 25h2" />
<path stroke="#6053ed" d="M14 3h1" />
<path stroke="#6a64f2" d="M15 3h1" />
<path stroke="#7c81fe" d="M16 3h1" />
<path stroke="#7f86ff" d="M17 3h1" />
<path stroke="#757bff" d="M18 3h1M9 7h1M9 11h1" />
<path stroke="#7176ff" d="M19 3h1" />
<path stroke="#747aff" d="M20 3h1" />
<path stroke="#757eff" d="M21 3h1" />
<path stroke="#f7a442" d="M24 3h1M25 4h2" />
<path stroke="#97a3ff" d="M27 3h2M31 3h1" />
<path stroke="#96a1ff" d="M32 3h1" />
<path stroke="#7a80ff" d="M35 3h1" />
<path stroke="#644ee9" d="M36 3h1" />
<path stroke="#731598" d="M37 3h1" />
<path stroke="#81005f" d="M38 3h1" />
<path stroke="#6e064a" d="M1 4h1M4 6h1M4 7h1M3 9h1M4 13h1M36 13h1M2 16h1M34 17h1M0 19h2M0 20h2M39 20h1M34 21h1M35 22h1" />
<path stroke="#6d054a" d="M2 4h1" />
<path stroke="#6d064a" d="M3 4h1" />
<path stroke="#6c074c" d="M6 4h1" />
<path stroke="#690c66" d="M7 4h1" />
<path stroke="#6128a2" d="M8 4h1" />
<path stroke="#6048d8" d="M9 4h1" />
<path stroke="#6962f0" d="M10 4h1M8 24h1" />
<path stroke="#767bff" d="M11 4h1" />
<path stroke="#7980ff" d="M12 4h1M13 25h1" />
<path stroke="#8087ff" d="M13 4h1" />
<path stroke="#858cff" d="M14 4h1M30 15h1" />
<path stroke="#8991ff" d="M15 4h1" />
<path stroke="#8d95ff" d="M16 4h1" />
<path stroke="#7454fd" d="M23 4h2M17 5h9M16 6h3M21 6h5M12 7h2M16 7h2M22 7h4M11 8h4M16 8h1M19 8h2M23 8h4M11 9h6M18 9h4M24 9h4M11 10h12M24 10h4M11 11h2M15 11h3M21 11h7M11 12h1M16 12h1M22 12h6M16 13h1M22 13h7M16 14h1M22 14h7M16 15h1M22 15h7M16 16h1M22 16h1M27 16h2M28 17h1M24 26h2M24 27h3M15 28h1M23 28h5M32 28h5M13 29h4M22 29h7M30 29h10M8 30h10M21 30h7M29 30h11M7 31h11M20 31h7M28 31h12M6 32h13M20 32h1M22 32h4M27 32h13M5 33h14M22 33h3M26 33h14M5 34h20M26 34h14M5 35h35M4 36h36M4 37h9M14 37h26M4 38h9M14 38h26M4 39h9M15 39h25" />
<path stroke="#939eff" d="M27 4h1M32 4h1" />
<path stroke="#8f9aff" d="M28 4h1M27 24h1" />
<path stroke="#939fff" d="M29 4h1" />
<path stroke="#8690ff" d="M33 4h1" />
<path stroke="#7a82ff" d="M34 4h1M31 26h1" />
<path stroke="#7574fe" d="M35 4h1" />
<path stroke="#6744d9" d="M36 4h1" />
<path stroke="#76128d" d="M37 4h1" />
<path stroke="#6d054d" d="M1 5h1M3 7h1M0 8h1M2 9h1M1 13h1M5 13h1M1 14h1M36 22h1" />
<path stroke="#6c034e" d="M2 5h1M34 14h1M0 17h1M1 22h1" />
<path stroke="#6b044d" d="M3 5h1" />
<path stroke="#6c064b" d="M4 5h1M0 6h1M3 8h1M2 11h1M34 12h1M35 13h1M4 14h1M35 14h1M35 15h1M34 16h1M2 17h1M0 18h2M36 20h1M35 21h1" />
<path stroke="#6c0752" d="M6 5h1" />
<path stroke="#631388" d="M7 5h1" />
<path stroke="#5e46d8" d="M8 5h1" />
<path stroke="#777afd" d="M9 5h1" />
<path stroke="#828aff" d="M10 5h1" />
<path stroke="#7b82ff" d="M11 5h1M33 6h1M30 12h1" />
<path stroke="#958bf2" d="M14 5h1" />
<path stroke="#8b8bfe" d="M15 5h1" />
<path stroke="#8d98ff" d="M27 5h1M27 25h1" />
<path stroke="#7f88ff" d="M28 5h1M28 24h1" />
<path stroke="#848eff" d="M29 5h1" />
<path stroke="#737aff" d="M33 5h1" />
<path stroke="#5d5aff" d="M34 5h1" />
<path stroke="#6345e3" d="M35 5h1" />
<path stroke="#7126a7" d="M36 5h1" />
<path stroke="#6c034f" d="M1 6h1M2 8h1M1 9h1M1 10h1M1 11h1" />
<path stroke="#6c024f" d="M2 6h1M1 8h1M0 15h1M0 16h1M37 21h2M37 22h1" />
<path stroke="#6d044d" d="M3 6h1M34 13h1M34 15h1" />
<path stroke="#6c0753" d="M6 6h1M6 7h1M6 9h1M6 10h1" />
<path stroke="#5d4fe9" d="M8 6h1" />
<path stroke="#7e86ff" d="M9 6h1M31 8h1M8 28h1" />
<path stroke="#8285ff" d="M10 6h1" />
<path stroke="#919cff" d="M27 6h1M31 27h1" />
<path stroke="#828bff" d="M28 6h1M5 21h1M10 24h1M12 24h1" />
<path stroke="#737bff" d="M29 6h1" />
<path stroke="#8089ff" d="M30 6h1M29 8h1M28 26h1" />
<path stroke="#5c4af5" d="M34 6h1" />
<path stroke="#691bb4" d="M35 6h1" />
<path stroke="#7c0874" d="M36 6h1" />
<path stroke="#6c064d" d="M0 7h1" />
<path stroke="#6c0250" d="M1 7h1M0 11h1M0 14h1" />
<path stroke="#6c0150" d="M2 7h1M0 13h1M39 22h1" />
<path stroke="#979cff" d="M27 7h1" />
<path stroke="#747bff" d="M29 7h1M9 28h1M12 28h1" />
<path stroke="#7b84ff" d="M30 7h1" />
<path stroke="#848cff" d="M33 7h1" />
<path stroke="#6450ed" d="M34 7h1" />
<path stroke="#71159c" d="M35 7h1" />
<path stroke="#800061" d="M36 7h1" />
<path stroke="#5c4eea" d="M8 8h1M8 9h1M8 10h1M31 20h1" />
<path stroke="#7174ff" d="M9 8h1" />
<path stroke="#939dff" d="M28 8h1" />
<path stroke="#6e73ff" d="M30 8h1" />
<path stroke="#7e7ffd" d="M33 8h1" />
<path stroke="#6946da" d="M34 8h1" />
<path stroke="#6d054c" d="M0 9h1M2 10h1M1 15h1M1 16h1M3 16h1M1 17h1M37 20h2M0 21h2" />
<path stroke="#7074ff" d="M9 9h1" />
<path stroke="#5d5dff" d="M30 9h1" />
<path stroke="#5f5cfc" d="M31 9h1" />
<path stroke="#7371f8" d="M32 9h1" />
<path stroke="#6c59df" d="M33 9h1" />
<path stroke="#6e2aa6" d="M34 9h1" />
<path stroke="#7c0a6f" d="M35 9h1" />
<path stroke="#810059" d="M36 9h1" />
<path stroke="#6b044e" d="M0 10h1M36 21h1" />
<path stroke="#7075ff" d="M9 10h1" />
<path stroke="#5955fe" d="M30 10h1" />
<path stroke="#4e31e3" d="M31 10h1" />
<path stroke="#5a3ad1" d="M32 10h1" />
<path stroke="#6229a3" d="M33 10h1" />
<path stroke="#6f0f6d" d="M34 10h1" />
<path stroke="#7a0457" d="M35 10h1" />
<path stroke="#800056" d="M36 10h1" />
<path stroke="#6c0653" d="M6 11h1" />
<path stroke="#611796" d="M7 11h1" />
<path stroke="#5c4feb" d="M8 11h1" />
<path stroke="#8892ff" d="M29 11h1" />
<path stroke="#6364ff" d="M30 11h1" />
<path stroke="#4c2fe7" d="M31 11h1" />
<path stroke="#5b13a8" d="M32 11h1" />
<path stroke="#680b6b" d="M33 11h1" />
<path stroke="#6f0650" d="M34 11h1" />
<path stroke="#74054f" d="M35 11h1" />
<path stroke="#7a0352" d="M36 11h1M38 12h1" />
<path stroke="#7e0154" d="M37 11h1" />
<path stroke="#810056" d="M38 11h1" />
<path stroke="#6b0151" d="M0 12h1" />
<path stroke="#6d044e" d="M1 12h1M4 15h1M39 21h1" />
<path stroke="#6b0654" d="M6 12h1M33 19h1" />
<path stroke="#601696" d="M7 12h1" />
<path stroke="#5d50eb" d="M8 12h1" />
<path stroke="#fff8d5" d="M13 12h2M18 12h3M12 13h3M18 13h3M12 14h2M18 14h1M12 15h2M18 15h1M12 16h2M18 16h1M13 17h1M18 17h1M18 18h2M16 22h1M17 23h1M19 23h1M21 23h1M21 25h1M18 26h1M20 26h1" />
<path stroke="#919bff" d="M29 12h1" />
<path stroke="#5848ec" d="M31 12h1" />
<path stroke="#5f1398" d="M32 12h1" />
<path stroke="#6b0556" d="M33 12h1M33 13h1M33 15h1" />
<path stroke="#6f064b" d="M35 12h1M37 13h1" />
<path stroke="#72064c" d="M36 12h1M38 13h1" />
<path stroke="#75054f" d="M37 12h1" />
<path stroke="#7e0254" d="M39 12h1" />
<path stroke="#6a0558" d="M6 13h1" />
<path stroke="#5f1899" d="M7 13h1" />
<path stroke="#5f53ec" d="M8 13h1" />
<path stroke="#838cff" d="M9 13h1M6 22h1M11 24h1M34 26h1" />
<path stroke="#838dff" d="M10 13h1M10 14h1" />
<path stroke="#848dff" d="M30 13h1M30 14h1M32 26h2M35 26h2" />
<path stroke="#5e50ed" d="M31 13h1" />
<path stroke="#5f1697" d="M32 13h1M32 14h1M32 15h1M34 24h2" />
<path stroke="#73064d" d="M39 13h1" />
<path stroke="#6b0351" d="M5 14h1" />
<path stroke="#680a6c" d="M6 14h1" />
<path stroke="#5f2cb0" d="M7 14h1" />
<path stroke="#6963f1" d="M8 14h1" />
<path stroke="#8791ff" d="M9 14h1" />
<path stroke="#ffffff" d="M14 14h1M19 14h1" />
<path stroke="#6a0457" d="M33 14h1" />
<path stroke="#6a0259" d="M5 15h1" />
<path stroke="#61158d" d="M6 15h1" />
<path stroke="#5f49db" d="M7 15h1" />
<path stroke="#7b81ff" d="M8 15h1M7 17h1M29 23h1" />
<path stroke="#8b96ff" d="M9 15h1M6 19h1M7 29h1" />
<path stroke="#6b0453" d="M4 16h1" />
<path stroke="#660d6f" d="M5 16h1" />
<path stroke="#602eb1" d="M6 16h1" />
<path stroke="#6862f1" d="M7 16h1" />
<path stroke="#818bff" d="M8 16h1" />
<path stroke="#ff8a00" d="M10 16h1M10 17h2M23 17h4M16 18h1M22 18h2M26 18h2M8 19h8M21 19h5M27 19h2M7 20h2M13 20h12M26 20h1M28 20h1M7 21h1M9 21h4M17 21h7M25 21h4M8 22h2M13 22h1M25 22h2M14 23h1M24 23h2M15 24h1M24 24h1M16 25h1M23 25h1M16 26h1M22 26h1M17 27h1M21 27h1M18 28h3" />
<path stroke="#858dff" d="M30 16h1" />
<path stroke="#601697" d="M32 16h1M32 17h1M32 18h1M32 19h1" />
<path stroke="#6b0555" d="M33 16h1M36 23h1" />
<path stroke="#6b0551" d="M3 17h1" />
<path stroke="#670d6c" d="M4 17h1" />
<path stroke="#622da5" d="M5 17h1" />
<path stroke="#695be0" d="M6 17h1" />
<path stroke="#7982ff" d="M8 17h1" />
<path stroke="#6b0655" d="M33 17h1M33 18h1M34 23h2" />
<path stroke="#6c044f" d="M2 18h1" />
<path stroke="#680a69" d="M3 18h1" />
<path stroke="#612aa4" d="M4 18h1" />
<path stroke="#695bdf" d="M5 18h1" />
<path stroke="#7f85fd" d="M6 18h1M6 29h1" />
<path stroke="#828cff" d="M7 18h1M3 33h1" />
<path stroke="#959fff" d="M29 18h1" />
<path stroke="#6b0553" d="M2 19h1" />
<path stroke="#611289" d="M3 19h1M3 22h1" />
<path stroke="#5e47d8" d="M4 19h1" />
<path stroke="#7b80fd" d="M5 19h1" />
<path stroke="#8189ff" d="M30 19h1" />
<path stroke="#6b0454" d="M2 20h1" />
<path stroke="#5f1595" d="M3 20h1M3 21h1" />
<path stroke="#5e50e9" d="M4 20h1M4 21h1" />
<path stroke="#838bff" d="M5 20h1" />
<path stroke="#767cff" d="M30 20h1" />
<path stroke="#6c0754" d="M33 20h1M33 23h1" />
<path stroke="#6a0355" d="M2 21h1M37 23h1" />
<path stroke="#6c6eff" d="M30 21h1" />
<path stroke="#5d44d9" d="M31 21h1" />
<path stroke="#6c0751" d="M33 21h1" />
<path stroke="#6b024f" d="M0 22h1" />
<path stroke="#6b0155" d="M2 22h1" />
<path stroke="#5d46d8" d="M4 22h1" />
<path stroke="#777bfc" d="M5 22h1" />
<path stroke="#ff0000" d="M15 22h1M16 23h1M17 24h1M21 24h2M20 25h1" />
<path stroke="#645bf1" d="M30 22h1" />
<path stroke="#602bae" d="M31 22h1" />
<path stroke="#6d074c" d="M33 22h1" />
<path stroke="#6b0051" d="M38 22h1" />
<path stroke="#65004e" d="M0 23h1M3 25h1" />
<path stroke="#68004f" d="M1 23h1" />
<path stroke="#6b0052" d="M2 23h1M39 23h1" />
<path stroke="#67086a" d="M3 23h1" />
<path stroke="#6025a3" d="M4 23h1" />
<path stroke="#6861ef" d="M6 23h1" />
<path stroke="#7b80fe" d="M7 23h1M9 24h1M7 28h1" />
<path stroke="#8792ff" d="M10 23h1" />
<path stroke="#828eff" d="M11 23h1" />
<path stroke="#f8ecb8" d="M18 23h1M20 23h1M22 23h1" />
<path stroke="#909bff" d="M28 23h1" />
<path stroke="#5f48dc" d="M30 23h1" />
<path stroke="#62178f" d="M31 23h1" />
<path stroke="#6b085c" d="M32 23h1" />
<path stroke="#6b0053" d="M38 23h1" />
<path stroke="#5a0045" d="M0 24h1" />
<path stroke="#62004b" d="M1 24h1M4 26h1" />
<path stroke="#670050" d="M2 24h1" />
<path stroke="#6a0055" d="M3 24h1" />
<path stroke="#67076a" d="M4 24h1" />
<path stroke="#61138c" d="M5 24h1" />
<path stroke="#5f2aae" d="M6 24h1" />
<path stroke="#5f48da" d="M7 24h1" />
<path stroke="#7782ff" d="M13 24h1M3 35h1" />
<path stroke="#fc809a" d="M18 24h3M18 25h2" />
<path stroke="#605dfd" d="M29 24h1" />
<path stroke="#552dd2" d="M30 24h1" />
<path stroke="#5d17a7" d="M31 24h1" />
<path stroke="#601797" d="M32 24h1" />
<path stroke="#601796" d="M33 24h1" />
<path stroke="#5f1696" d="M36 24h1" />
<path stroke="#61128b" d="M37 24h1" />
<path stroke="#67096b" d="M38 24h1" />
<path stroke="#690157" d="M39 24h1" />
<path stroke="#51003d" d="M0 25h1" />
<path stroke="#590043" d="M1 25h1" />
<path stroke="#61004a" d="M2 25h1" />
<path stroke="#690052" d="M4 25h1" />
<path stroke="#690059" d="M5 25h1" />
<path stroke="#67086c" d="M6 25h1" />
<path stroke="#601590" d="M7 25h1" />
<path stroke="#5e2bb2" d="M8 25h1" />
<path stroke="#5d45dc" d="M9 25h1" />
<path stroke="#5c50ed" d="M10 25h1" />
<path stroke="#5e52ef" d="M11 25h1" />
<path stroke="#6863f5" d="M12 25h1" />
<path stroke="#96a0ff" d="M26 25h1" />
<path stroke="#6f75ff" d="M28 25h1M10 28h2" />
<path stroke="#4843ff" d="M29 25h1" />
<path stroke="#4532f9" d="M30 25h1" />
<path stroke="#5747ef" d="M31 25h1" />
<path stroke="#5e51ed" d="M32 25h1" />
<path stroke="#5f52eb" d="M33 25h1" />
<path stroke="#5e50ea" d="M36 25h1" />
<path stroke="#5e47d9" d="M37 25h1M7 27h1" />
<path stroke="#602aa7" d="M38 25h1" />
<path stroke="#660d71" d="M39 25h1" />
<path stroke="#490036" d="M0 26h1" />
<path stroke="#4c0039" d="M1 26h1" />
<path stroke="#53003f" d="M2 26h1" />
<path stroke="#5a0044" d="M3 26h1" />
<path stroke="#670155" d="M5 26h1" />
<path stroke="#67096c" d="M6 26h1" />
<path stroke="#601390" d="M7 26h1" />
<path stroke="#5c18a6" d="M8 26h1" />
<path stroke="#561fbd" d="M9 26h1" />
<path stroke="#5221c7" d="M10 26h1" />
<path stroke="#5324c9" d="M11 26h1" />
<path stroke="#5b41d9" d="M12 26h1" />
<path stroke="#7171fa" d="M13 26h1" />
<path stroke="#f3e7b0" d="M19 26h1" />
<path stroke="#929eff" d="M27 26h1" />
<path stroke="#6367ff" d="M29 26h1" />
<path stroke="#6265ff" d="M30 26h1" />
<path stroke="#7c81ff" d="M37 26h1" />
<path stroke="#695ce2" d="M38 26h1" />
<path stroke="#5e30b4" d="M39 26h1" />
<path stroke="#3a012b" d="M0 27h1" />
<path stroke="#3e002f" d="M1 27h1" />
<path stroke="#470034" d="M2 27h1" />
<path stroke="#4d003a" d="M3 27h1" />
<path stroke="#560147" d="M4 27h1" />
<path stroke="#5e0e69" d="M5 27h1" />
<path stroke="#5f2aa4" d="M6 27h1" />
<path stroke="#5b4fee" d="M9 27h1" />
<path stroke="#5a4eef" d="M10 27h1" />
<path stroke="#5b50ef" d="M11 27h1" />
<path stroke="#6762f5" d="M12 27h1" />
<path stroke="#7e85ff" d="M13 27h1" />
<path stroke="#7d88ff" d="M14 27h1" />
<path stroke="#929dff" d="M28 27h1" />
<path stroke="#8a93ff" d="M30 27h1" />
<path stroke="#929cff" d="M37 27h1" />
<path stroke="#6a64f3" d="M39 27h1" />
<path stroke="#310125" d="M0 28h1M0 29h2M0 30h1" />
<path stroke="#330126" d="M1 28h1" />
<path stroke="#38012a" d="M2 28h1" />
<path stroke="#3e0135" d="M3 28h1" />
<path stroke="#460e5e" d="M4 28h1" />
<path stroke="#522ea1" d="M5 28h1" />
<path stroke="#665bdf" d="M6 28h1" />
<path stroke="#97a1ff" d="M29 28h1" />
<path stroke="#8a91ff" d="M39 28h1" />
<path stroke="#31022e" d="M2 29h1" />
<path stroke="#330f56" d="M3 29h1" />
<path stroke="#422e9c" d="M4 29h1" />
<path stroke="#5f5bdc" d="M5 29h1" />
<path stroke="#30022e" d="M1 30h1" />
<path stroke="#310f55" d="M2 30h1" />
<path stroke="#3d2e9b" d="M3 30h1" />
<path stroke="#5c5bdb" d="M4 30h1M3 31h1" />
<path stroke="#7981fc" d="M5 30h1" />
<path stroke="#818cff" d="M6 30h1M3 34h1" />
<path stroke="#30012a" d="M0 31h1" />
<path stroke="#300b50" d="M1 31h1" />
<path stroke="#3b2b9a" d="M2 31h1" />
<path stroke="#7c85fb" d="M4 31h1" />
<path stroke="#828cfc" d="M5 31h1" />
<path stroke="#2f0234" d="M0 32h1" />
<path stroke="#30177d" d="M1 32h1" />
<path stroke="#4b49d5" d="M2 32h1" />
<path stroke="#7881fb" d="M3 32h1" />
<path stroke="#8b95fc" d="M4 32h1" />
<path stroke="#2d0b51" d="M0 33h1" />
<path stroke="#382da5" d="M1 33h1" />
<path stroke="#5f62ee" d="M2 33h1" />
<path stroke="#291479" d="M0 34h1" />
<path stroke="#4847d4" d="M1 34h1" />
<path stroke="#7880fd" d="M2 34h1" />
<path stroke="#291787" d="M0 35h1" />
<path stroke="#4f4fe6" d="M1 35h1" />
<path stroke="#7d86ff" d="M2 35h1" />
<path stroke="#291788" d="M0 36h1M0 37h1M0 38h1M0 39h1" />
<path stroke="#4e4fe8" d="M1 36h1" />
<path stroke="#737cff" d="M2 36h1" />
<path stroke="#4d4ee8" d="M1 37h1M1 38h1M1 39h1" />
<path stroke="#6e76ff" d="M2 37h1" />
<path stroke="#6d76ff" d="M2 38h1M2 39h1" />
</svg>