<svg xmlns="http://www.w3.org/2000/svg" viewBox="0 -0.5 40 40" shape-rendering="crispEdges">
<metadata>Made with Pixels to Svg https://codepen.io/shshaw/pen/XbxvNj</metadata>
<path stroke="#046ffb" d="M0 0h1" />
<path stroke="#0b83fc" d="M1 0h1" />
<path stroke="#12b1fe" d="M2 0h1" />
<path stroke="#10daff" d="M3 0h1" />
<path stroke="#0cecff" d="M4 0h1" />
<path stroke="#07f3ff" d="M5 0h1M7 1h1" />
<path stroke="#04f6ff" d="M6 0h1M8 1h1" />
<path stroke="#02f7ff" d="M7 0h1" />
<path stroke="#00f7ff" d="M8 0h1M18 0h22M20 1h20M21 2h16M22 3h1M29 3h6M39 20h1" />
<path stroke="#23f8ff" d="M9 0h1M35 19h5M38 21h2" />
<path stroke="#6ffaff" d="M10 0h1M37 18h1" />
<path stroke="#bcfdff" d="M11 0h1" />
<path stroke="#c5feff" d="M12 0h1" />
<path stroke="#8cfbff" d="M13 0h1" />
<path stroke="#46f9ff" d="M14 0h1" />
<path stroke="#19f8ff" d="M15 0h1M19 3h1" />
<path stroke="#05f8ff" d="M16 0h1M17 1h1M19 2h1M20 3h1M37 3h1M35 4h1M34 5h1M37 20h1" />
<path stroke="#00f8ff" d="M17 0h1M18 1h2M20 2h1M37 2h3M21 3h1M35 3h2M32 4h3M38 20h1" />
<path stroke="#026efb" d="M0 1h1" />
<path stroke="#0776fb" d="M1 1h1" />
<path stroke="#0d92fd" d="M2 1h1" />
<path stroke="#12b6fe" d="M3 1h1" />
<path stroke="#14d0ff" d="M4 1h1" />
<path stroke="#10e3ff" d="M5 1h1" />
<path stroke="#0cedff" d="M6 1h1M8 2h1" />
<path stroke="#1df7ff" d="M9 1h1" />
<path stroke="#62f9ff" d="M10 1h1" />
<path stroke="#adfcff" d="M11 1h1M13 3h1M17 4h1" />
<path stroke="#cbfeff" d="M12 1h1" />
<path stroke="#b7feff" d="M13 1h1" />
<path stroke="#81fbff" d="M14 1h1" />
<path stroke="#44f9ff" d="M15 1h1" />
<path stroke="#19f9ff" d="M16 1h1" />
<path stroke="#0171fb" d="M0 2h1" />
<path stroke="#0370fb" d="M1 2h1" />
<path stroke="#0778fc" d="M2 2h1" />
<path stroke="#0e8ffd" d="M3 2h1" />
<path stroke="#15aefe" d="M4 2h1" />
<path stroke="#17c6ff" d="M5 2h1" />
<path stroke="#15d4ff" d="M6 2h1" />
<path stroke="#11e4ff" d="M7 2h1" />
<path stroke="#13f4ff" d="M9 2h1" />
<path stroke="#3ef7ff" d="M10 2h1" />
<path stroke="#7efaff" d="M11 2h1" />
<path stroke="#b6fdff" d="M12 2h1" />
<path stroke="#cafeff" d="M13 2h1" />
<path stroke="#b5fdff" d="M14 2h1" />
<path stroke="#80fbff" d="M15 2h1" />
<path stroke="#45f9ff" d="M16 2h1M35 6h1" />
<path stroke="#23f9ff" d="M17 2h1M37 4h1M35 20h1" />
<path stroke="#11f8ff" d="M18 2h1M38 3h1M36 4h1" />
<path stroke="#0194fc" d="M0 3h1" />
<path stroke="#017efc" d="M1 3h1" />
<path stroke="#0371fb" d="M2 3h1" />
<path stroke="#0878fc" d="M3 3h1" />
<path stroke="#0f8efd" d="M4 3h1M6 8h1" />
<path stroke="#14a6fe" d="M5 3h1" />
<path stroke="#17b6ff" d="M6 3h1" />
<path stroke="#17c7ff" d="M7 3h1" />
<path stroke="#16d5ff" d="M8 3h1" />
<path stroke="#12e4ff" d="M9 3h1" />
<path stroke="#1bedff" d="M10 3h1" />
<path stroke="#42f4ff" d="M11 3h1" />
<path stroke="#7ef9ff" d="M12 3h1" />
<path stroke="#bbfdff" d="M14 3h1" />
<path stroke="#adfdff" d="M15 3h1M39 5h1" />
<path stroke="#89fbff" d="M16 3h1" />
<path stroke="#67faff" d="M17 3h1M37 5h1M35 21h1" />
<path stroke="#3ff9ff" d="M18 3h1M36 5h1" />
<path stroke="#3a3bfa" d="M23 3h1M28 3h1M19 4h1M31 4h1M12 5h1M16 5h1M33 5h1M15 6h1M34 6h1M14 7h1M30 10h1M31 11h2M33 12h1M34 13h1M35 14h1M31 17h1M32 18h1M33 20h1M34 24h1" />
<path stroke="#0504e3" d="M24 3h4M20 4h2M24 4h7M17 5h4M26 5h7M14 6h1M17 6h3M26 6h8M13 7h1M15 7h4M26 7h5M14 8h3M18 8h1M26 8h1M16 9h1M26 9h1M16 10h1M26 10h1M28 10h2M23 11h3M29 11h2M23 12h3M30 12h3M16 13h1M23 13h4M31 13h3M23 14h5M31 14h4M23 15h4M30 15h1M35 15h1M27 16h2M30 16h1M30 17h1M30 18h2M30 19h3M30 20h3M30 21h4M30 22h4M31 23h3M32 24h2M33 25h2M34 26h1" />
<path stroke="#1ef8ff" d="M39 3h1" />
<path stroke="#01cdfe" d="M0 4h1" />
<path stroke="#01a7fd" d="M1 4h1" />
<path stroke="#0281fc" d="M2 4h1" />
<path stroke="#0777fb" d="M3 4h1" />
<path stroke="#0c81fc" d="M4 4h1" />
<path stroke="#0e89fc" d="M5 4h1" />
<path stroke="#1194fd" d="M6 4h1M8 6h1" />
<path stroke="#16abfe" d="M7 4h1" />
<path stroke="#19beff" d="M8 4h1" />
<path stroke="#18caff" d="M9 4h1" />
<path stroke="#0405e3" d="M10 4h1M10 5h2M20 7h2M10 12h1M10 13h1M10 14h1M24 33h1M27 36h2M13 37h1M13 38h1" />
<path stroke="#3a3dfa" d="M11 4h1M26 12h1M27 13h1M28 15h1" />
<path stroke="#3feaff" d="M12 4h1" />
<path stroke="#65efff" d="M13 4h1" />
<path stroke="#87f6ff" d="M14 4h1" />
<path stroke="#acfbff" d="M15 4h1M33 17h1" />
<path stroke="#bafcff" d="M16 4h1" />
<path stroke="#7dfaff" d="M18 4h1" />
<path stroke="#0404e3" d="M22 4h2M21 5h3M10 6h2M13 6h1M16 6h1M20 6h3M10 7h1M12 7h1M19 7h1M11 8h3M17 8h1M19 8h2M14 9h2M17 9h1M21 9h3M15 10h1M22 10h4M27 10h1M10 11h1M16 11h1M27 11h2M15 12h2M28 12h2M29 13h2M16 14h1M29 14h2M27 15h1M21 29h1M19 30h3M19 31h4M17 32h7M16 33h8M16 34h2M23 34h3M15 35h2M24 35h3M14 36h3M25 36h2M14 37h2M25 37h3M14 38h2M26 38h1M31 38h1M14 39h1M26 39h2M31 39h1" />
<path stroke="#40f9ff" d="M38 4h1" />
<path stroke="#63faff" d="M39 4h1" />
<path stroke="#04eefd" d="M0 5h1" />
<path stroke="#02d6fd" d="M1 5h1" />
<path stroke="#03a8fd" d="M2 5h1" />
<path stroke="#0989fc" d="M3 5h1" />
<path stroke="#0f8bfd" d="M4 5h2" />
<path stroke="#0f8afd" d="M6 5h1" />
<path stroke="#1193fd" d="M7 5h1" />
<path stroke="#15a6fe" d="M8 5h1" />
<path stroke="#17affe" d="M9 5h1" />
<path stroke="#29d7ff" d="M13 5h1" />
<path stroke="#46e4ff" d="M14 5h1" />
<path stroke="#7decff" d="M15 5h1" />
<path stroke="#070c9c" d="M24 5h2M23 6h1M21 8h1" />
<path stroke="#18f8ff" d="M35 5h1" />
<path stroke="#88fbff" d="M38 5h1" />
<path stroke="#0ff9e5" d="M0 6h1" />
<path stroke="#09f0f6" d="M1 6h1" />
<path stroke="#03cffd" d="M2 6h1" />
<path stroke="#069bfd" d="M3 6h1" />
<path stroke="#0d8afd" d="M4 6h1" />
<path stroke="#1298fd" d="M5 6h1" />
<path stroke="#149ffe" d="M6 6h1" />
<path stroke="#1297fd" d="M7 6h1" />
<path stroke="#108efd" d="M9 6h1" />
<path stroke="#07089c" d="M12 6h1M11 7h1M14 10h1M15 11h1M26 11h1M27 12h1M28 13h1M28 14h1M29 15h1M29 16h1M29 17h1M29 18h1" />
<path stroke="#eb9d73" d="M24 6h1M23 7h1M22 8h1" />
<path stroke="#070b9c" d="M25 6h1M22 7h1M25 7h1M31 7h5M25 8h1M27 8h4M19 9h2M25 9h1M27 9h1M31 15h4M35 16h2M29 22h1M29 23h2M31 24h1M32 25h1M33 26h1M34 27h1" />
<path stroke="#7ffbff" d="M36 6h1" />
<path stroke="#aefdff" d="M37 6h1" />
<path stroke="#bdfeff" d="M38 6h2" />
<path stroke="#1afda9" d="M0 7h1" />
<path stroke="#10f7e3" d="M1 7h1" />
<path stroke="#05e2fb" d="M2 7h1" />
<path stroke="#03b1fd" d="M3 7h1" />
<path stroke="#0789fc" d="M4 7h1" />
<path stroke="#0e8dfd" d="M5 7h1" />
<path stroke="#15a2fe" d="M6 7h1" />
<path stroke="#17aafe" d="M7 7h1" />
<path stroke="#16a5fe" d="M8 7h1" />
<path stroke="#108ffd" d="M9 7h1" />
<path stroke="#fdbd98" d="M24 7h1M24 8h1M24 9h1M22 34h1M23 35h1M24 36h1M30 37h1M25 38h1" />
<path stroke="#b4fdff" d="M36 7h1" />
<path stroke="#c9ffff" d="M37 7h1" />
<path stroke="#b5feff" d="M38 7h1" />
<path stroke="#8afcff" d="M39 7h1" />
<path stroke="#1ffe75" d="M0 8h1" />
<path stroke="#16fbc7" d="M1 8h1" />
<path stroke="#0bf2f1" d="M2 8h1" />
<path stroke="#06d7fa" d="M3 8h1" />
<path stroke="#05abfa" d="M4 8h1" />
<path stroke="#0889fb" d="M5 8h1M6 9h1" />
<path stroke="#16a6fe" d="M7 8h1" />
<path stroke="#19b2ff" d="M8 8h1" />
<path stroke="#17a8fe" d="M9 8h1" />
<path stroke="#1099fd" d="M10 8h1" />
<path stroke="#f7b28b" d="M23 8h1M7 34h1M19 34h3M7 35h2M18 35h5M8 36h2M18 36h6M9 37h2M19 37h6M10 38h2M19 38h6M29 38h2M11 39h2M20 39h6M29 39h2" />
<path stroke="#99eeff" d="M31 8h1" />
<path stroke="#a2efff" d="M32 8h1" />
<path stroke="#9deeff" d="M33 8h1" />
<path stroke="#9defff" d="M34 8h1" />
<path stroke="#a5f2ff" d="M35 8h1" />
<path stroke="#b4f9ff" d="M36 8h1" />
<path stroke="#adfbff" d="M37 8h1" />
<path stroke="#7ffaff" d="M38 8h1" />
<path stroke="#46f8ff" d="M39 8h1" />
<path stroke="#2aff46" d="M0 9h1" />
<path stroke="#21fe8d" d="M1 9h1" />
<path stroke="#16fac6" d="M2 9h1" />
<path stroke="#12f3d9" d="M3 9h1" />
<path stroke="#0fd8e3" d="M4 9h1" />
<path stroke="#09acf3" d="M5 9h1" />
<path stroke="#0f8ffd" d="M7 9h1M8 10h1M9 11h1" />
<path stroke="#16a7fe" d="M8 9h1" />
<path stroke="#19b4ff" d="M9 9h1" />
<path stroke="#17baff" d="M10 9h1" />
<path stroke="#07079c" d="M11 9h3" />
<path stroke="#070a9c" d="M18 9h1M17 10h1M29 36h1M28 37h1M27 38h1" />
<path stroke="#1bc4ff" d="M28 9h1" />
<path stroke="#1fcbff" d="M29 9h1" />
<path stroke="#3ccfff" d="M30 9h1" />
<path stroke="#62d1ff" d="M31 9h1" />
<path stroke="#6dd1ff" d="M32 9h1" />
<path stroke="#6ed1ff" d="M33 9h1" />
<path stroke="#6ed2ff" d="M34 9h1" />
<path stroke="#6fd9ff" d="M35 9h1" />
<path stroke="#6fe6ff" d="M36 9h1" />
<path stroke="#64ebff" d="M37 9h1" />
<path stroke="#40ebff" d="M38 9h1" />
<path stroke="#1ceaff" d="M39 9h1" />
<path stroke="#55ff1c" d="M0 10h1" />
<path stroke="#39ff46" d="M1 10h1" />
<path stroke="#23ff70" d="M2 10h1" />
<path stroke="#1efd83" d="M3 10h1" />
<path stroke="#1af5a8" d="M4 10h1" />
<path stroke="#10d9e1" d="M5 10h1" />
<path stroke="#06abf9" d="M6 10h1" />
<path stroke="#0889fc" d="M7 10h1M9 12h1" />
<path stroke="#16a8fe" d="M9 10h1" />
<path stroke="#19bcff" d="M10 10h1" />
<path stroke="#3a3afa" d="M11 10h3M18 10h4M11 11h1M14 11h1M17 11h2M22 11h1M17 12h1" />
<path stroke="#29c0ff" d="M31 10h1" />
<path stroke="#2cc0ff" d="M32 10h1" />
<path stroke="#2dc0ff" d="M33 10h1" />
<path stroke="#2dc1ff" d="M34 10h1" />
<path stroke="#2cc4ff" d="M35 10h1" />
<path stroke="#2bcbff" d="M36 10h1" />
<path stroke="#27cfff" d="M37 10h1" />
<path stroke="#1eceff" d="M38 10h1" />
<path stroke="#19ceff" d="M39 10h1" />
<path stroke="#89ff06" d="M0 11h1" />
<path stroke="#58ff13" d="M1 11h1" />
<path stroke="#2dff22" d="M2 11h1" />
<path stroke="#23ff34" d="M3 11h1" />
<path stroke="#20fd75" d="M4 11h1" />
<path stroke="#16f3c6" d="M5 11h1" />
<path stroke="#0bd7f0" d="M6 11h1" />
<path stroke="#05a9fb" d="M7 11h1M8 12h1" />
<path stroke="#0888fc" d="M8 11h1" />
<path stroke="#eeeded" d="M12 11h2M19 11h3M11 12h1M18 12h1M11 13h1M17 13h1M11 14h1M11 15h1M6 29h1M5 30h1" />
<path stroke="#1cc0ff" d="M33 11h2M36 11h4M37 12h3" />
<path stroke="#1cbfff" d="M35 11h1" />
<path stroke="#a1ff00" d="M0 12h1" />
<path stroke="#73ff00" d="M1 12h1M3 18h1M2 26h1" />
<path stroke="#3fff00" d="M2 12h1M3 16h1M4 18h1" />
<path stroke="#26ff14" d="M3 12h1" />
<path stroke="#22ff46" d="M4 12h1" />
<path stroke="#1dfd8f" d="M5 12h1" />
<path stroke="#14f3d0" d="M6 12h1M7 13h1" />
<path stroke="#0ad6f2" d="M7 12h1" />
<path stroke="#ffffff" d="M12 12h3M19 12h4M12 13h2M15 13h1M18 13h2M21 13h2M12 14h2M17 14h3M22 14h1M6 15h1M12 15h2M16 15h4M22 15h1M12 16h2M16 16h4M22 16h1M13 17h2M17 17h5M18 18h3M16 22h1M3 23h2M17 23h5M3 24h2M3 25h2M4 26h1M6 26h3M3 27h1M5 27h2M8 27h1M3 28h2M7 28h2M2 29h1M4 29h1M7 29h1M2 30h2M6 30h1M5 31h1M7 31h2M6 32h2M4 33h3" />
<path stroke="#19c9ff" d="M34 12h1" />
<path stroke="#1bc3ff" d="M35 12h1" />
<path stroke="#1bc1ff" d="M36 12h1" />
<path stroke="#aeff00" d="M0 13h1M1 17h1M2 19h1M3 21h1M11 29h1" />
<path stroke="#90ff00" d="M1 13h1M7 23h1M11 27h1" />
<path stroke="#57ff00" d="M2 13h1" />
<path stroke="#2bff06" d="M3 13h1" />
<path stroke="#24ff1b" d="M4 13h1M5 14h1" />
<path stroke="#22ff4b" d="M5 13h1M6 14h1" />
<path stroke="#1dfd91" d="M6 13h1M7 14h1" />
<path stroke="#0ad7f1" d="M8 13h1" />
<path stroke="#05abfb" d="M9 13h1" />
<path stroke="#000000" d="M14 13h1M20 13h1M14 14h2M20 14h2M5 15h1M10 15h1M14 15h2M20 15h2M5 16h3M9 16h1M11 16h1M14 16h2M20 16h2M23 16h4M5 17h3M9 17h1M12 17h1M15 17h2M22 17h1M27 17h2M6 18h10M17 18h1M21 18h1M24 18h2M28 18h1M7 19h1M16 19h5M26 19h1M29 19h1M6 20h1M9 20h4M25 20h1M27 20h1M29 20h1M6 21h1M8 21h1M13 21h4M24 21h1M29 21h1M3 22h2M7 22h1M10 22h3M14 22h1M17 22h8M27 22h2M2 23h1M5 23h1M8 23h2M12 23h2M15 23h1M23 23h1M26 23h1M2 24h1M5 24h1M14 24h1M16 24h1M23 24h1M25 24h1M2 25h1M5 25h4M15 25h1M17 25h1M22 25h1M24 25h1M3 26h1M5 26h1M9 26h1M15 26h1M17 26h1M21 26h1M23 26h1M2 27h1M4 27h1M7 27h1M9 27h1M16 27h1M18 27h3M22 27h1M2 28h1M5 28h2M9 28h1M17 28h1M21 28h2M1 29h1M3 29h1M5 29h1M8 29h1M19 29h2M22 29h1M1 30h1M4 30h1M7 30h2M18 30h1M23 30h1M2 31h3M6 31h1M9 31h1M17 31h2M24 31h1M3 32h3M8 32h2M16 32h1M25 32h1M3 33h1M7 33h2M15 33h1M26 33h1M4 34h3M8 34h1M15 34h1M27 34h1M6 35h1M9 35h1M14 35h1M28 35h2M6 36h1M10 36h1M13 36h1M30 36h1M7 37h1M11 37h2M31 37h1M8 38h1M12 38h1M32 38h1M9 39h1M13 39h1M32 39h1" />
<path stroke="#15ccff" d="M35 13h1" />
<path stroke="#17cbff" d="M36 13h1" />
<path stroke="#18cbff" d="M37 13h3" />
<path stroke="#b3ff00" d="M0 14h1M0 15h1M1 18h1M2 20h1M2 22h1M6 24h1M10 28h1" />
<path stroke="#9cff00" d="M1 14h1M1 23h1" />
<path stroke="#60ff00" d="M2 14h1" />
<path stroke="#2dff00" d="M3 14h1M4 17h1M1 27h1M13 27h1M30 32h1M35 34h1M38 35h1" />
<path stroke="#24ff06" d="M4 14h1" />
<path stroke="#14f3cf" d="M8 14h1" />
<path stroke="#0ad8f1" d="M9 14h1" />
<path stroke="#17cffe" d="M36 14h1" />
<path stroke="#21d0fe" d="M37 14h1" />
<path stroke="#25d0fe" d="M38 14h1" />
<path stroke="#26d0fe" d="M39 14h1" />
<path stroke="#9eff00" d="M1 15h1" />
<path stroke="#63ff00" d="M2 15h1" />
<path stroke="#30ff00" d="M3 15h1" />
<path stroke="#24ff00" d="M4 15h1M6 19h1M11 23h1M12 24h2M13 25h2M14 26h1M0 27h1M14 27h1M0 28h1M0 29h1M23 29h1M0 30h1M24 30h2M0 31h2M0 32h3M0 33h3M0 34h2M32 34h2M0 35h1M34 35h1M0 36h1M36 36h2M39 37h1" />
<path stroke="#22ff4c" d="M7 15h1" />
<path stroke="#1dfd90" d="M8 15h1" />
<path stroke="#14f4cf" d="M9 15h1" />
<path stroke="#44c0fd" d="M36 15h1" />
<path stroke="#64c2fd" d="M37 15h1" />
<path stroke="#71c2fd" d="M38 15h1" />
<path stroke="#72c2fd" d="M39 15h1" />
<path stroke="#b4ff00" d="M0 16h1M0 20h1M2 21h1M11 30h1M12 31h1M10 35h1" />
<path stroke="#a3ff00" d="M1 16h1M0 21h1" />
<path stroke="#74ff00" d="M2 16h1M4 20h1M6 22h1" />
<path stroke="#27ff00" d="M4 16h1M5 18h1M13 26h1M24 29h1M26 30h1M34 34h1M36 35h1" />
<path stroke="#22ff4a" d="M8 16h1" />
<path stroke="#ff8a00" d="M10 16h1M10 17h2M23 17h4M16 18h1M22 18h2M26 18h2M8 19h8M21 19h5M27 19h2M7 20h2M13 20h12M26 20h1M28 20h1M7 21h1M9 21h4M17 21h7M25 21h4M8 22h2M13 22h1M25 22h2M14 23h1M24 23h2M15 24h1M24 24h1M16 25h1M23 25h1M16 26h1M22 26h1M17 27h1M21 27h1M18 28h3" />
<path stroke="#a2f9ff" d="M31 16h1" />
<path stroke="#baf5ff" d="M32 16h1" />
<path stroke="#bcebff" d="M33 16h1" />
<path stroke="#ace4ff" d="M34 16h1" />
<path stroke="#ade5fe" d="M37 16h1" />
<path stroke="#bce6fe" d="M38 16h1" />
<path stroke="#bee6fe" d="M39 16h1" />
<path stroke="#b5ff00" d="M0 17h1M0 18h1M0 19h2M1 20h1M9 29h2M9 30h2M10 31h2M10 32h4M9 33h6M10 34h5M11 35h3M12 36h1" />
<path stroke="#91ff00" d="M2 17h1M3 19h1" />
<path stroke="#59ff00" d="M3 17h1M4 19h1M12 27h1" />
<path stroke="#24ff1c" d="M8 17h1" />
<path stroke="#87fbff" d="M32 17h1M37 29h1" />
<path stroke="#b4fbff" d="M34 17h1" />
<path stroke="#a6faff" d="M35 17h2" />
<path stroke="#b6fbff" d="M37 17h1" />
<path stroke="#bdfbff" d="M38 17h1" />
<path stroke="#befbff" d="M39 17h1" />
<path stroke="#a2ff00" d="M2 18h1M3 20h1M6 23h1M11 28h1" />
<path stroke="#62faff" d="M33 18h1" />
<path stroke="#6efaff" d="M34 18h1" />
<path stroke="#6cfaff" d="M35 18h2" />
<path stroke="#71faff" d="M38 18h2" />
<path stroke="#2eff00" d="M5 19h1M39 35h1" />
<path stroke="#2af8ff" d="M33 19h1" />
<path stroke="#27f8ff" d="M34 19h1" />
<path stroke="#42ff00" d="M5 20h1" />
<path stroke="#41f9ff" d="M34 20h1M36 21h1" />
<path stroke="#12f8ff" d="M36 20h1" />
<path stroke="#afff00" d="M1 21h1" />
<path stroke="#97ff00" d="M4 21h1M5 22h1" />
<path stroke="#6cff00" d="M5 21h1M9 24h1M10 25h1" />
<path stroke="#8afbff" d="M34 21h1" />
<path stroke="#27f9ff" d="M37 21h1" />
<path stroke="#7cff00" d="M0 22h1" />
<path stroke="#a4ff00" d="M1 22h1" />
<path stroke="#ff0000" d="M15 22h1M16 23h1M22 23h1M17 24h1M21 24h2M20 25h2M18 26h3" />
<path stroke="#c4fdff" d="M34 22h1" />
<path stroke="#aefcff" d="M35 22h1" />
<path stroke="#86faff" d="M36 22h1" />
<path stroke="#70faff" d="M37 22h2" />
<path stroke="#72faff" d="M39 22h1" />
<path stroke="#62ff00" d="M0 23h1" />
<path stroke="#29ff00" d="M10 23h1M11 24h1M12 25h1" />
<path stroke="#8fcafe" d="M27 23h1" />
<path stroke="#a2ddff" d="M28 23h1" />
<path stroke="#bcf0ff" d="M34 23h1M39 24h1" />
<path stroke="#b6f0ff" d="M35 23h1" />
<path stroke="#a6f2ff" d="M36 23h1" />
<path stroke="#a6f8ff" d="M37 23h1" />
<path stroke="#b5fcff" d="M38 23h1" />
<path stroke="#bdfcff" d="M39 23h1" />
<path stroke="#56ff00" d="M0 24h1" />
<path stroke="#8eff00" d="M1 24h1" />
<path stroke="#adff00" d="M7 24h1M10 27h1" />
<path stroke="#96ff00" d="M8 24h1M9 25h1M10 26h1" />
<path stroke="#41ff00" d="M10 24h1M11 25h1M1 26h1" />
<path stroke="#fc809a" d="M18 24h3M18 25h2" />
<path stroke="#3ba5fc" d="M26 24h1" />
<path stroke="#78b4fd" d="M27 24h1" />
<path stroke="#a2d1fe" d="M28 24h1" />
<path stroke="#acdeff" d="M29 24h1" />
<path stroke="#b5e7ff" d="M30 24h1" />
<path stroke="#74d3ff" d="M35 24h1" />
<path stroke="#72d9ff" d="M36 24h1" />
<path stroke="#86e7ff" d="M37 24h1" />
<path stroke="#acefff" d="M38 24h1" />
<path stroke="#3dff00" d="M0 25h1M12 26h1" />
<path stroke="#6aff00" d="M1 25h1" />
<path stroke="#1be5f3" d="M25 25h1" />
<path stroke="#23d3fa" d="M26 25h1" />
<path stroke="#3fbcfc" d="M27 25h1" />
<path stroke="#63befd" d="M28 25h1" />
<path stroke="#85cbfe" d="M29 25h1" />
<path stroke="#abdcfe" d="M30 25h1" />
<path stroke="#bae5ff" d="M31 25h1" />
<path stroke="#50c7ff" d="M35 25h1" />
<path stroke="#3ec7ff" d="M36 25h1" />
<path stroke="#4cceff" d="M37 25h1M38 26h1" />
<path stroke="#67d2ff" d="M38 25h1" />
<path stroke="#72d2ff" d="M39 25h1" />
<path stroke="#28ff00" d="M0 26h1" />
<path stroke="#6bff00" d="M11 26h1" />
<path stroke="#33fd9d" d="M24 26h1" />
<path stroke="#4bfac8" d="M25 26h1" />
<path stroke="#4bf4e2" d="M26 26h1" />
<path stroke="#35e6f3" d="M27 26h1" />
<path stroke="#2ce1fb" d="M28 26h1" />
<path stroke="#41dafd" d="M29 26h1" />
<path stroke="#65cdfe" d="M30 26h1" />
<path stroke="#87cefe" d="M31 26h1" />
<path stroke="#ade0ff" d="M32 26h1" />
<path stroke="#89d9ff" d="M35 26h1" />
<path stroke="#75d2ff" d="M36 26h1" />
<path stroke="#68d2ff" d="M37 26h1" />
<path stroke="#3cc6ff" d="M39 26h1" />
<path stroke="#24fe01" d="M15 27h1M1 35h1M35 36h1M0 37h1" />
<path stroke="#29ff2c" d="M23 27h1" />
<path stroke="#48ff49" d="M24 27h1" />
<path stroke="#6fff74" d="M25 27h1" />
<path stroke="#75fd9c" d="M26 27h1" />
<path stroke="#62faca" d="M27 27h1" />
<path stroke="#4ef8e3" d="M28 27h1" />
<path stroke="#33f2f5" d="M29 27h1" />
<path stroke="#27e6fd" d="M30 27h1" />
<path stroke="#45dcfe" d="M31 27h1" />
<path stroke="#7ddbfe" d="M32 27h1" />
<path stroke="#abefff" d="M33 27h1" />
<path stroke="#afe7ff" d="M35 27h1" />
<path stroke="#b5ebff" d="M36 27h1" />
<path stroke="#adeeff" d="M37 27h1" />
<path stroke="#8ae7ff" d="M38 27h1" />
<path stroke="#76d9ff" d="M39 27h1" />
<path stroke="#26ff00" d="M1 28h1M29 32h1M31 33h1" />
<path stroke="#74fd01" d="M12 28h1" />
<path stroke="#42f702" d="M13 28h1" />
<path stroke="#28f302" d="M14 28h1" />
<path stroke="#23f203" d="M15 28h1M35 37h1" />
<path stroke="#23f302" d="M16 28h1" />
<path stroke="#27ff06" d="M23 28h1" />
<path stroke="#38ff13" d="M24 28h1" />
<path stroke="#53ff26" d="M25 28h1" />
<path stroke="#66ff48" d="M26 28h1" />
<path stroke="#77ff74" d="M27 28h1" />
<path stroke="#75fe9c" d="M28 28h1" />
<path stroke="#5afbd1" d="M29 28h1" />
<path stroke="#35f8f2" d="M30 28h1" />
<path stroke="#28f4fb" d="M31 28h1" />
<path stroke="#43eefd" d="M32 28h1" />
<path stroke="#63f3fe" d="M33 28h1" />
<path stroke="#71eeff" d="M34 28h1" />
<path stroke="#86e3ff" d="M35 28h1" />
<path stroke="#abf0ff" d="M36 28h1" />
<path stroke="#bbfbff" d="M37 28h1" />
<path stroke="#bdf9ff" d="M38 28h1" />
<path stroke="#bef5ff" d="M39 28h1" />
<path stroke="#97f902" d="M12 29h1" />
<path stroke="#6ceb03" d="M13 29h1" />
<path stroke="#42de04" d="M14 29h1" />
<path stroke="#2dda05" d="M15 29h1" />
<path stroke="#26d905" d="M16 29h1" />
<path stroke="#23df05" d="M17 29h1M28 34h1M3 35h1M30 35h1M2 37h1M33 37h1M36 38h1M1 39h1" />
<path stroke="#23ec03" d="M18 29h1M27 33h1M29 34h1M2 36h1M32 36h1M34 37h1M1 38h1M37 38h1" />
<path stroke="#2dff06" d="M25 29h1M27 30h1" />
<path stroke="#3dff13" d="M26 29h1" />
<path stroke="#54ff27" d="M27 29h1" />
<path stroke="#65ff4d" d="M28 29h1" />
<path stroke="#6dfe8e" d="M29 29h1" />
<path stroke="#62fcc6" d="M30 29h1" />
<path stroke="#59fbda" d="M31 29h1" />
<path stroke="#51fae4" d="M32 29h1M35 30h1" />
<path stroke="#3df9f4" d="M33 29h1" />
<path stroke="#32f4fb" d="M34 29h1" />
<path stroke="#45eefd" d="M35 29h1" />
<path stroke="#66f5fe" d="M36 29h1" />
<path stroke="#acfdff" d="M38 29h1" />
<path stroke="#bbfeff" d="M39 29h1" />
<path stroke="#adfc01" d="M12 30h1" />
<path stroke="#97f203" d="M13 30h1" />
<path stroke="#74e204" d="M14 30h1" />
<path stroke="#59d705" d="M15 30h1" />
<path stroke="#3dd005" d="M16 30h1" />
<path stroke="#28cf05" d="M17 30h1" />
<path stroke="#3a3ffa" d="M22 30h1M23 31h1M24 32h1M25 33h1M26 34h1M27 35h1" />
<path stroke="#3eff1b" d="M28 30h1" />
<path stroke="#5dff45" d="M29 30h1" />
<path stroke="#77ff6f" d="M30 30h1" />
<path stroke="#85fe82" d="M31 30h1" />
<path stroke="#85fe9c" d="M32 30h1M35 31h1" />
<path stroke="#6cfcc7" d="M33 30h1" />
<path stroke="#5afbda" d="M34 30h1" />
<path stroke="#3ffaf4" d="M36 30h1" />
<path stroke="#46fbfc" d="M37 30h1" />
<path stroke="#63fcff" d="M38 30h1" />
<path stroke="#6ffcff" d="M39 30h1" />
<path stroke="#aefc01" d="M13 31h1" />
<path stroke="#a2f702" d="M14 31h1" />
<path stroke="#90ee03" d="M15 31h1" />
<path stroke="#6bdc05" d="M16 31h1" />
<path stroke="#24fb01" d="M25 31h1M27 32h1M29 33h1M37 37h1" />
<path stroke="#24fe00" d="M26 31h1M28 32h1M30 33h1M33 35h1M38 37h1" />
<path stroke="#25ff00" d="M27 31h1M35 35h1M38 36h2" />
<path stroke="#29ff06" d="M28 31h1" />
<path stroke="#3bff13" d="M29 31h1" />
<path stroke="#55ff21" d="M30 31h1" />
<path stroke="#6eff2a" d="M31 31h1" />
<path stroke="#86ff49" d="M32 31h1M37 33h1" />
<path stroke="#87ff70" d="M33 31h1" />
<path stroke="#86fe82" d="M34 31h1" />
<path stroke="#6cfdc8" d="M36 31h1" />
<path stroke="#54fde2" d="M37 31h1" />
<path stroke="#3dfdf4" d="M38 31h1" />
<path stroke="#30fdfc" d="M39 31h1" />
<path stroke="#b3fe00" d="M14 32h1M11 36h1" />
<path stroke="#adfb01" d="M15 32h1" />
<path stroke="#23f502" d="M26 32h1M30 34h1M33 36h1" />
<path stroke="#3fff06" d="M31 32h1M34 33h1" />
<path stroke="#55ff14" d="M32 32h1M37 34h1" />
<path stroke="#5fff22" d="M33 32h1" />
<path stroke="#6fff2c" d="M34 32h1" />
<path stroke="#87ff49" d="M35 32h1" />
<path stroke="#8bff74" d="M36 32h1" />
<path stroke="#86ff9c" d="M37 32h1" />
<path stroke="#6cffc8" d="M38 32h1" />
<path stroke="#59ffda" d="M39 32h1" />
<path stroke="#24f502" d="M28 33h1M38 38h1" />
<path stroke="#2bff00" d="M32 33h1M37 35h1" />
<path stroke="#2fff00" d="M33 33h1" />
<path stroke="#57ff13" d="M35 33h1" />
<path stroke="#6fff26" d="M36 33h1" />
<path stroke="#86ff70" d="M38 33h1" />
<path stroke="#81ff7f" d="M39 33h1" />
<path stroke="#23fc01" d="M2 34h1" />
<path stroke="#23ef03" d="M3 34h1M31 35h1" />
<path stroke="#b3fe01" d="M9 34h1" />
<path stroke="#e8a580" d="M18 34h1M17 35h1M7 36h1M17 36h1M8 37h1M16 37h3M29 37h1M9 38h1M16 38h3M28 38h1M10 39h1M15 39h5M28 39h1" />
<path stroke="#24fc01" d="M31 34h1M39 38h1" />
<path stroke="#3eff06" d="M36 34h1" />
<path stroke="#5dff21" d="M38 34h1" />
<path stroke="#5dff27" d="M39 34h1" />
<path stroke="#23f503" d="M2 35h1" />
<path stroke="#23cf06" d="M4 35h1" />
<path stroke="#23c906" d="M5 35h1M4 37h1M3 39h1M33 39h1" />
<path stroke="#23fb01" d="M32 35h1M1 36h1M34 36h1M0 38h1" />
<path stroke="#23d505" d="M3 36h1M32 37h1M2 38h1" />
<path stroke="#23ca06" d="M4 36h1M3 38h1M34 39h1" />
<path stroke="#23c806" d="M5 36h1M6 37h1M4 38h1M7 38h1M8 39h1" />
<path stroke="#23dc05" d="M31 36h1" />
<path stroke="#23f603" d="M1 37h1M0 39h1M39 39h1" />
<path stroke="#23ce06" d="M3 37h1M33 38h1M2 39h1M36 39h1" />
<path stroke="#23c807" d="M5 37h1M5 38h2M4 39h4" />
<path stroke="#24f602" d="M36 37h1" />
<path stroke="#23d506" d="M34 38h1" />
<path stroke="#23d905" d="M35 38h1" />
<path stroke="#23cb06" d="M35 39h1" />
<path stroke="#23d605" d="M37 39h1" />
<path stroke="#23e305" d="M38 39h1" />
</svg>