<svg xmlns="http://www.w3.org/2000/svg" viewBox="0 -0.5 40 40" shape-rendering="crispEdges">
<metadata>Made with Pixels to Svg https://codepen.io/shshaw/pen/XbxvNj</metadata>
<path stroke="#65b2ee" d="M0 0h1M39 0h1" />
<path stroke="#64afec" d="M1 0h1" />
<path stroke="#3d87cd" d="M2 0h1" />
<path stroke="#156ab9" d="M3 0h1" />
<path stroke="#0066b5" d="M4 0h3M28 0h1M33 0h3M5 1h2M33 1h2M5 2h2M33 2h1M39 3h1M0 4h1M0 5h2M0 6h3M0 7h3M35 7h5M0 8h4" />
<path stroke="#2a77c1" d="M7 0h1M0 2h1" />
<path stroke="#5ba6e5" d="M8 0h1M31 1h1M38 1h1M1 2h1M36 2h1M4 6h1" />
<path stroke="#6cbaf5" d="M9 0h1" />
<path stroke="#6c342a" d="M10 0h1M8 1h1M13 1h1M28 1h3M25 2h2M29 2h3M6 3h1M10 3h3M24 3h6M32 3h1M8 4h1M10 4h1M24 4h2M27 4h1M30 4h4M20 5h1M24 5h2M27 5h1M31 5h1M33 5h1M14 6h1M23 6h1M25 6h3M29 6h1M32 6h1M34 6h1M6 7h1M14 7h1M17 7h4M23 7h1M25 7h1M34 7h1M8 8h1M10 8h1M14 8h9M24 8h2M29 8h1M25 9h1M28 9h1M35 9h1M6 10h1M10 10h1M23 10h1M25 10h2M24 11h2M30 12h1M25 13h1M30 13h1M33 14h1M25 15h1M30 15h1M32 16h1M29 17h2M29 18h1M31 20h1M19 31h1M21 31h1M20 33h1" />
<path stroke="#814338" d="M11 0h1M14 0h1M16 0h3M20 0h1M22 0h2M25 0h2M22 1h1M26 1h1M8 2h1M16 2h1M20 2h2M28 2h1M14 3h1M19 3h2M12 4h2M16 4h3M20 4h1M9 5h1M12 5h2M22 5h1M30 5h1M15 6h1M17 6h2M24 6h1M30 6h1M15 7h2M21 7h1M31 7h1M12 8h1M31 8h1M7 9h1M31 9h1M27 10h1M33 10h1M26 11h1M25 12h1M32 12h1M26 13h1M27 14h1M29 14h1M26 15h1M32 18h1" />
<path stroke="#b75240" d="M12 0h2M15 0h1M21 0h1M24 0h1M27 0h1M9 1h4M14 1h7M24 1h2M27 1h1M7 2h1M10 2h6M17 2h2M23 2h2M27 2h1M9 3h1M13 3h1M15 3h4M22 3h2M14 4h2M19 4h1M22 4h2M26 4h1M14 5h6M21 5h1M23 5h1M26 5h1M13 6h1M16 6h1M19 6h4M28 6h1M24 7h1M26 7h1M22 9h1M29 9h1" />
<path stroke="#a05143" d="M19 0h1M21 1h1M23 1h1M19 2h1M22 2h1M21 3h1M21 4h1M27 9h1" />
<path stroke="#2f7bc4" d="M29 0h1" />
<path stroke="#62afec" d="M30 0h1M38 0h1" />
<path stroke="#63afec" d="M31 0h1M1 1h1M3 3h1M4 5h1" />
<path stroke="#307bc4" d="M32 0h1" />
<path stroke="#156ab8" d="M36 0h1M38 3h1" />
<path stroke="#3c86cc" d="M37 0h1" />
<path stroke="#3f8ace" d="M0 1h1" />
<path stroke="#5ea9e8" d="M2 1h1M5 5h1" />
<path stroke="#3a84cb" d="M3 1h1" />
<path stroke="#156bb8" d="M4 1h1" />
<path stroke="#146ab8" d="M7 1h1M35 1h1M32 2h1M34 2h1M39 2h1M0 3h1M33 3h1M2 5h1M35 6h1M3 7h1M4 8h1" />
<path stroke="#2b77c1" d="M32 1h1" />
<path stroke="#3983ca" d="M36 1h1M38 2h1" />
<path stroke="#5ca6e5" d="M37 1h1" />
<path stroke="#3c86cd" d="M39 1h1" />
<path stroke="#6ab7f3" d="M2 2h1M5 6h1" />
<path stroke="#5ca7e6" d="M3 2h1" />
<path stroke="#2b77c2" d="M4 2h1" />
<path stroke="#592820" d="M9 2h1M7 3h2M30 3h2M6 4h2M9 4h1M11 4h1M28 4h2M6 5h3M10 5h2M28 5h2M32 5h1M6 6h7M31 6h1M33 6h1M7 7h7M27 7h4M32 7h2M6 8h2M9 8h1M11 8h1M13 8h1M26 8h3M30 8h1M32 8h4M6 9h1M8 9h4M30 9h1M32 9h3M7 10h3M28 10h5M34 10h2M7 11h3M27 11h9M7 12h3M26 12h4M31 12h1M33 12h3M8 13h3M27 13h3M31 13h5M28 14h1M30 14h3M34 14h2M29 15h1M31 15h5M29 16h3M33 16h3M31 17h5M30 18h2M33 18h2M30 19h5M30 20h1M32 20h2M30 21h4M29 22h4M27 23h5M26 24h4" />
<path stroke="#3883c9" d="M35 2h1M2 4h1M4 7h1M5 8h1" />
<path stroke="#5ca7e5" d="M37 2h1" />
<path stroke="#3783c9" d="M1 3h1" />
<path stroke="#5ea9e7" d="M2 3h1M5 7h1" />
<path stroke="#3d87ce" d="M4 3h1" />
<path stroke="#156bb9" d="M5 3h1" />
<path stroke="#3883ca" d="M34 3h1M35 5h1" />
<path stroke="#5aa6e5" d="M35 3h2M3 4h1M34 4h2M34 5h1" />
<path stroke="#3983c9" d="M37 3h1" />
<path stroke="#136ab8" d="M1 4h1" />
<path stroke="#5ba7e6" d="M4 4h1" />
<path stroke="#3984cc" d="M5 4h1" />
<path stroke="#428bc7" d="M36 4h1" />
<path stroke="#4c8daa" d="M37 4h1" />
<path stroke="#498aa7" d="M38 4h1" />
<path stroke="#2370b2" d="M39 4h1" />
<path stroke="#3b86cc" d="M3 5h1" />
<path stroke="#4385ad" d="M36 5h1" />
<path stroke="#84c27f" d="M37 5h2" />
<path stroke="#4082aa" d="M39 5h1" />
<path stroke="#2977c1" d="M3 6h1" />
<path stroke="#226fb2" d="M36 6h1" />
<path stroke="#4789a7" d="M37 6h2" />
<path stroke="#236fb2" d="M39 6h1" />
<path stroke="#884539" d="M22 7h1M23 8h1M23 9h2M26 9h1M24 10h1" />
<path stroke="#335bab" d="M36 8h4M0 9h5" />
<path stroke="#375fae" d="M5 9h1" />
<path stroke="#ffffff" d="M12 9h10M11 10h12M11 11h13M11 12h14M15 13h3M22 13h3M16 14h1M23 15h2M16 16h1M27 16h1M18 18h3M15 22h2M16 23h1M18 23h2M21 23h2M18 24h2M21 24h2M18 26h2M20 29h2M18 30h4M18 31h1M20 31h1M22 31h1M19 32h3M14 33h2M19 33h1M22 33h1M25 33h2M13 34h3M18 34h1M20 34h1M22 34h1M25 34h3M13 35h3M18 35h2M21 35h2M25 35h3M29 35h2M13 36h3M18 36h1M22 36h1M25 36h3M29 36h3M12 37h1M14 37h2M18 37h1M24 37h3M28 37h4M11 38h3M15 38h2M24 38h3M28 38h5M11 39h4M16 39h1M19 39h3M24 39h2M27 39h6" />
<path stroke="#692a86" d="M36 9h1M0 10h6" />
<path stroke="#692c86" d="M37 9h3" />
<path stroke="#750378" d="M36 10h1M0 11h7M36 11h1M0 12h7M36 12h1M0 13h1M5 13h3M36 13h1M0 14h1M5 14h4M36 14h4M0 15h1M5 15h4M36 15h4M0 16h9M36 16h4M0 17h3M6 17h3M38 17h2M0 18h3M6 18h2M0 19h3M6 19h1M0 20h3M0 21h6M34 21h3M0 22h7M37 22h3M0 23h8M32 23h1M37 23h3M0 24h1M5 24h4M30 24h2M38 24h2M0 25h1M5 25h4M30 25h2M38 25h2M0 26h1M5 26h4M29 26h2M39 26h1M2 27h6" />
<path stroke="#75237f" d="M37 10h1M39 10h1M1 13h1M4 13h1M37 13h1M39 13h1M4 15h1M3 17h1M5 17h1M37 17h1M5 20h1M37 21h1M1 24h1M4 24h1M4 26h1" />
<path stroke="#74408e" d="M38 10h1" />
<path stroke="#000000" d="M10 11h1M10 12h1M23 14h4M16 15h1M27 15h2M9 16h1M23 16h4M28 16h1M9 17h1M15 17h3M22 17h1M27 17h2M8 18h8M17 18h1M21 18h1M24 18h2M28 18h1M7 19h1M16 19h5M26 19h1M29 19h1M6 20h1M9 20h4M25 20h1M27 20h1M29 20h1M6 21h1M8 21h1M13 21h4M24 21h1M29 21h1M7 22h1M10 22h3M14 22h1M17 22h8M27 22h2M8 23h2M12 23h2M15 23h1M17 23h1M20 23h1M23 23h1M26 23h1M14 24h1M16 24h2M20 24h1M23 24h1M25 24h1M13 25h3M17 25h6M24 25h4M12 26h1M15 26h1M17 26h1M20 26h2M23 26h1M28 26h1M11 27h1M16 27h1M18 27h3M22 27h1M29 27h1M10 28h1M12 28h1M17 28h1M21 28h1M28 28h1M30 28h1M11 29h1M13 29h1M18 29h2M26 29h2M29 29h1M14 30h2M17 30h1M22 30h2M25 30h1M15 31h2M24 31h1M14 32h2M25 32h3M13 33h1M16 33h1M24 33h1M27 33h1M12 34h1M16 34h1M24 34h1M28 34h3M12 35h1M16 35h1M24 35h1M28 35h1M31 35h1M11 36h2M16 36h1M24 36h1M28 36h1M32 36h1M11 37h1M13 37h1M16 37h1M23 37h1M27 37h1M32 37h1M10 38h1M14 38h1M17 38h1M23 38h1M27 38h1M33 38h1M10 39h1M15 39h1M17 39h1M23 39h1M26 39h1M33 39h1" />
<path stroke="#744993" d="M37 11h1M39 11h1M37 12h1M39 12h1M36 17h1M3 18h1M5 18h1" />
<path stroke="#7284c2" d="M38 11h1M38 12h1M2 14h2M4 18h1M2 25h2" />
<path stroke="#744994" d="M2 13h2M38 18h1M2 24h2" />
<path stroke="#7704c3" d="M11 13h2M11 14h1M10 15h1M12 15h1M20 15h1M10 16h1M19 16h1M13 17h1" />
<path stroke="#b76ff4" d="M13 13h1M12 14h1M11 15h1" />
<path stroke="#7904c3" d="M14 13h1M18 13h2M21 13h1M10 14h1M13 14h3M17 14h2M20 14h3M13 15h1M15 15h1M19 15h1M11 16h2M14 16h2M18 16h1M11 17h1M14 17h1M18 17h1" />
<path stroke="#bc6ff4" d="M20 13h1M14 15h1M21 15h1M13 16h1M20 16h1M12 17h1M19 17h1" />
<path stroke="#743e8d" d="M38 13h1M4 20h1" />
<path stroke="#743f8d" d="M1 14h1M4 17h1M1 25h1" />
<path stroke="#74408d" d="M4 14h1M4 25h1" />
<path stroke="#730375" d="M9 14h1" />
<path stroke="#be6ff4" d="M19 14h1M18 15h1" />
<path stroke="#75227f" d="M1 15h1M3 20h1M34 20h1M1 26h1" />
<path stroke="#744892" d="M2 15h2M36 20h1M2 26h2" />
<path stroke="#7c0275" d="M9 15h1" />
<path stroke="#7b04c3" d="M17 15h1M22 15h1M17 16h1M21 16h2M21 17h1" />
<path stroke="#ff8a00" d="M10 17h1M23 17h4M16 18h1M22 18h2M26 18h2M8 19h8M21 19h5M27 19h2M7 20h2M13 20h12M26 20h1M28 20h1M7 21h1M9 21h4M17 21h7M25 21h4M8 22h2M13 22h1M25 22h2M14 23h1M24 23h2M15 24h1M24 24h1M16 25h1M23 25h1M16 26h1M22 26h1M17 27h1M21 27h1M18 28h3" />
<path stroke="#7304c3" d="M20 17h1" />
<path stroke="#7197d4" d="M35 18h1M36 19h1M38 19h1" />
<path stroke="#7198d5" d="M36 18h1" />
<path stroke="#745299" d="M37 18h1M39 18h1" />
<path stroke="#744792" d="M3 19h1M35 20h1M38 21h1" />
<path stroke="#7283c1" d="M4 19h1" />
<path stroke="#744893" d="M5 19h1" />
<path stroke="#7195d3" d="M35 19h1" />
<path stroke="#7367a9" d="M37 19h1" />
<path stroke="#70a9e5" d="M39 19h1" />
<path stroke="#745098" d="M37 20h1" />
<path stroke="#7196d3" d="M38 20h1" />
<path stroke="#70a8e4" d="M39 20h1" />
<path stroke="#744f98" d="M39 21h1" />
<path stroke="#730377" d="M33 22h1M36 22h1M9 24h1M32 24h1M37 24h1M31 26h1M38 26h1M1 27h1M8 27h1M2 28h1M7 28h1" />
<path stroke="#6d0376" d="M34 22h2M0 27h1" />
<path stroke="#6b0375" d="M10 23h1M9 26h1M30 27h1M39 27h1" />
<path stroke="#3f036a" d="M11 23h1M10 26h1" />
<path stroke="#6d0375" d="M33 23h1M9 25h1M32 25h1M37 25h1" />
<path stroke="#4c036d" d="M34 23h2" />
<path stroke="#6c0375" d="M36 23h1" />
<path stroke="#640373" d="M10 24h1M33 24h1M32 26h1M37 26h1M9 27h1M31 27h1M38 27h1M2 29h1M7 29h1" />
<path stroke="#3b036a" d="M11 24h1M34 24h2M10 27h1" />
<path stroke="#320367" d="M12 24h1" />
<path stroke="#610367" d="M13 24h1" />
<path stroke="#630373" d="M36 24h1" />
<path stroke="#49036c" d="M10 25h1M33 25h1M0 28h1" />
<path stroke="#2e0367" d="M11 25h1M32 28h1M9 29h1M1 30h1M8 30h1" />
<path stroke="#290467" d="M12 25h1M11 26h1M10 29h1M12 29h1M28 29h1M30 29h3M39 29h1M0 30h1M9 30h5M26 30h4M33 30h3M39 30h1M0 31h15M25 31h5M33 31h3M39 31h1M0 32h1M5 32h9M28 32h2M33 32h3M39 32h1M0 33h1M5 33h2M10 33h3M28 33h9M0 34h1M5 34h2M10 34h2M31 34h6M0 35h2M5 35h2M10 35h2M32 35h5M0 36h2M5 36h6M33 36h4M0 37h2M5 37h6M33 37h7M0 38h2M5 38h5M34 38h6M0 39h10M34 39h6" />
<path stroke="#790276" d="M28 25h1" />
<path stroke="#770277" d="M29 25h1" />
<path stroke="#2e0467" d="M34 25h2" />
<path stroke="#48036c" d="M36 25h1" />
<path stroke="#6b78f4" d="M13 26h2M25 26h3M12 27h1M26 27h3M11 28h1M25 28h3M29 28h1" />
<path stroke="#6b77f4" d="M24 26h1M13 27h3M23 27h3M13 28h4M22 28h3M14 29h4M22 29h4M16 30h1M24 30h1M16 32h2M23 32h2M17 33h1M23 33h1M17 34h1M23 34h1M17 35h1M23 35h1M17 36h1M23 36h1M17 37h1M22 37h1M18 38h1M22 38h1M18 39h1M22 39h1" />
<path stroke="#453068" d="M33 26h1M36 26h1" />
<path stroke="#53635e" d="M34 26h1M39 34h1M4 36h1M4 37h1" />
<path stroke="#53645e" d="M35 26h1M36 28h1" />
<path stroke="#46036c" d="M32 27h1M9 28h1M8 29h1" />
<path stroke="#55635f" d="M33 27h1" />
<path stroke="#9acd3c" d="M34 27h1M35 28h1" />
<path stroke="#9acf3c" d="M35 27h1" />
<path stroke="#55645f" d="M36 27h1" />
<path stroke="#46036b" d="M37 27h1" />
<path stroke="#650373" d="M1 28h1" />
<path stroke="#782f76" d="M3 28h1" />
<path stroke="#82626e" d="M4 28h1" />
<path stroke="#82636e" d="M5 28h1" />
<path stroke="#783076" d="M6 28h1" />
<path stroke="#660374" d="M8 28h1" />
<path stroke="#3b0369" d="M31 28h1M2 30h1M7 30h1" />
<path stroke="#52615f" d="M33 28h1" />
<path stroke="#99cb3c" d="M34 28h1" />
<path stroke="#2d0468" d="M37 28h1" />
<path stroke="#3a0369" d="M38 28h1" />
<path stroke="#3e036a" d="M39 28h1" />
<path stroke="#2d0367" d="M0 29h1" />
<path stroke="#45036c" d="M1 29h1" />
<path stroke="#76556d" d="M3 29h1" />
<path stroke="#94b250" d="M4 29h1" />
<path stroke="#94b34f" d="M5 29h1" />
<path stroke="#76576d" d="M6 29h1" />
<path stroke="#352e65" d="M33 29h1M37 36h1M2 38h1" />
<path stroke="#52605f" d="M34 29h1" />
<path stroke="#52625f" d="M35 29h1M37 35h1" />
<path stroke="#393b6e" d="M36 29h1" />
<path stroke="#364181" d="M37 29h1" />
<path stroke="#2d2470" d="M38 29h1" />
<path stroke="#442e68" d="M3 30h1" />
<path stroke="#546060" d="M4 30h1" />
<path stroke="#546260" d="M5 30h1" />
<path stroke="#443068" d="M6 30h1" />
<path stroke="#2d236f" d="M30 30h1M32 30h1M1 32h1M4 32h1M30 32h1M32 32h1M36 32h1M38 32h1M7 33h1M9 33h1M4 34h1M7 35h1M9 35h1" />
<path stroke="#354081" d="M31 30h1M37 32h1M8 33h1" />
<path stroke="#394987" d="M36 30h1M2 32h2M2 34h2" />
<path stroke="#5385be" d="M37 30h1" />
<path stroke="#394988" d="M38 30h1M38 31h1" />
<path stroke="#fcab06" d="M17 31h1M22 32h1M18 33h1M19 34h1M21 34h1M20 35h1" />
<path stroke="#fcaa06" d="M23 31h1M18 32h1M21 33h1M19 36h1M19 37h2M19 38h2" />
<path stroke="#353e80" d="M30 31h1M8 35h1" />
<path stroke="#4b72ac" d="M31 31h1M8 34h1" />
<path stroke="#353f80" d="M32 31h1M31 32h1M7 34h1" />
<path stroke="#394887" d="M36 31h1" />
<path stroke="#5384be" d="M37 31h1" />
<path stroke="#363f81" d="M1 33h1" />
<path stroke="#5484be" d="M2 33h2" />
<path stroke="#364081" d="M4 33h1" />
<path stroke="#363065" d="M37 33h1M39 33h1M2 35h1M4 35h1" />
<path stroke="#4b5660" d="M38 33h1M3 35h1" />
<path stroke="#2d226f" d="M1 34h1" />
<path stroke="#363f80" d="M9 34h1" />
<path stroke="#52635f" d="M37 34h1M2 36h1M2 37h1" />
<path stroke="#88b348" d="M38 34h1M3 36h1M3 37h1" />
<path stroke="#87b249" d="M38 35h1" />
<path stroke="#52625e" d="M39 35h1" />
<path stroke="#fce706" d="M20 36h1M21 37h1" />
<path stroke="#fff8b1" d="M21 36h1" />
<path stroke="#4a5461" d="M38 36h1" />
<path stroke="#352f65" d="M39 36h1M4 38h1" />
<path stroke="#4a5561" d="M3 38h1" />
<path stroke="#fce806" d="M21 38h1" />
</svg>