<svg xmlns="http://www.w3.org/2000/svg" viewBox="0 -0.5 40 40" shape-rendering="crispEdges">
<metadata>Made with Pixels to Svg https://codepen.io/shshaw/pen/XbxvNj</metadata>
<path stroke="#000000" d="M0 0h6M25 0h1M31 0h1M0 1h5M6 1h2M25 1h1M31 1h1M1 2h3M8 2h3M25 2h1M31 2h1M2 3h1M11 3h1M24 3h1M31 3h1M2 4h1M12 4h1M24 4h1M30 4h1M3 5h2M13 5h1M16 5h7M24 5h1M30 5h1M5 6h1M14 6h2M23 6h2M29 6h1M6 7h3M13 7h1M25 7h1M29 7h1M9 8h2M28 8h1M11 9h1M28 9h1M10 10h1M28 10h1M10 11h1M28 11h1M10 12h1M29 12h1M9 13h1M29 13h1M9 14h1M13 14h1M20 14h1M29 14h1M10 15h2M13 15h2M20 15h2M29 15h1M9 16h1M11 16h1M13 16h2M20 16h2M23 16h4M28 16h1M9 17h1M12 17h1M15 17h3M22 17h1M27 17h2M39 17h1M8 18h8M17 18h1M21 18h1M24 18h2M28 18h1M38 18h1M7 19h1M16 19h5M26 19h1M29 19h1M36 19h2M6 20h1M9 20h4M25 20h1M27 20h1M29 20h1M35 20h1M6 21h1M8 21h1M13 21h4M24 21h1M29 21h1M33 21h2M7 22h1M10 22h3M14 22h1M17 22h8M27 22h2M32 22h1M8 23h2M12 23h2M15 23h1M23 23h1M26 23h1M31 23h1M14 24h1M16 24h1M23 24h1M25 24h1M30 24h1M15 25h1M17 25h1M22 25h1M24 25h1M30 25h4M15 26h1M17 26h1M21 26h1M23 26h1M29 26h2M33 26h2M16 27h1M18 27h3M22 27h2M27 27h2M32 27h1M35 27h1M17 28h1M21 28h1M23 28h1M26 28h1M34 28h1M11 29h6M18 29h3M24 29h2M35 29h1M39 29h1M10 30h1M16 30h3M34 30h1M38 30h2M10 31h1M19 31h1M33 31h1M38 31h1M10 32h1M20 32h1M32 32h1M38 32h1M11 33h1M21 33h1M31 33h3M38 33h1M12 34h1M21 34h1M30 34h1M33 34h1M38 34h1M13 35h1M19 35h1M21 35h1M28 35h2M33 35h1M38 35h1M14 36h2M18 36h1M20 36h1M28 36h1M33 36h2M38 36h1M13 37h1M16 37h2M19 37h1M29 37h1M34 37h1M38 37h1M13 38h1M29 38h1M34 38h1M38 38h1M13 39h1M29 39h1M34 39h1M38 39h1" />
<path stroke="#009fff" d="M6 0h3M17 0h4M8 1h1M17 1h4M0 2h1M18 2h3M0 3h2M18 3h2M0 4h2M19 4h1M4 6h1M7 8h2M9 9h2M39 12h1M38 13h2M0 14h1M37 14h3M0 15h2M35 15h5M0 16h4M34 16h6M0 17h6M33 17h6M6 31h1M39 31h1M4 32h2M39 32h1M0 33h5M39 33h1M0 34h4M39 34h1M0 35h3M0 36h2M13 36h1M0 37h1M0 38h1M12 38h1M30 38h1M0 39h1M11 39h2M30 39h2" />
<path stroke="#28a2ff" d="M9 0h1M1 39h1" />
<path stroke="#73b7ff" d="M10 0h1" />
<path stroke="#c4deff" d="M11 0h1M13 4h1M0 7h1M4 13h1" />
<path stroke="#ecf4ff" d="M12 0h1M33 11h1M9 34h1" />
<path stroke="#d9e9ff" d="M13 0h1M0 20h6M30 20h5M0 22h5" />
<path stroke="#8ac2ff" d="M14 0h1" />
<path stroke="#37a5ff" d="M15 0h1M1 24h1M0 25h1" />
<path stroke="#099fff" d="M16 0h1M32 0h1M17 2h1M39 2h1M20 3h1M18 4h1M2 5h1M3 6h1M5 7h1M6 8h1M8 9h1M9 10h1M39 11h1M38 12h1M36 14h1M34 15h1M33 16h1M32 17h1M7 30h2M5 31h1M7 31h1M3 32h1M5 33h1M4 34h1M3 35h1M39 35h1M2 36h1M12 37h1M11 38h1M10 39h1" />
<path stroke="#30a4ff" d="M21 0h1M21 1h1M16 2h1M21 2h1M17 4h1M3 7h1M6 9h1M9 11h1M34 14h1M9 28h1M7 29h1M5 30h1M3 31h1M0 32h1M12 35h1" />
<path stroke="#85bfff" d="M22 0h1M22 1h1M22 2h1" />
<path stroke="#d8e9ff" d="M23 0h1M3 26h1" />
<path stroke="#fafcff" d="M24 0h1" />
<path stroke="#ffeb00" d="M26 0h5M5 1h1M26 1h5M4 2h4M26 2h5M3 3h8M25 3h5M5 4h7M25 4h4M6 5h7M25 5h4M9 6h5M16 6h7M25 6h3M10 7h3M14 7h11M26 7h2M12 8h16M12 9h16M11 10h17M11 11h17M11 12h18M10 13h19M10 14h3M15 14h5M22 14h7M12 15h1M15 15h5M22 15h7M12 16h1M15 16h5M22 16h1M27 16h1M13 17h2M18 17h4M18 18h3M39 18h1M38 19h2M36 20h4M35 21h5M33 22h7M32 23h8M31 24h9M34 25h6M31 26h2M35 26h5M29 27h3M33 27h2M36 27h3M22 28h1M27 28h7M35 28h2M17 29h1M21 29h3M26 29h9M11 30h5M19 30h15M11 31h8M20 31h11M34 31h1M11 32h9M21 32h9M33 32h2M13 33h8M22 33h7M34 33h1M14 34h7M22 34h7M34 34h2M15 35h4M20 35h1M22 35h6M34 35h2M16 36h2M19 36h1M21 36h7M35 36h1M14 37h2M18 37h1M20 37h9M35 37h1M14 38h15M35 38h2M14 39h15M35 39h3" />
<path stroke="#36a5ff" d="M33 0h1M21 3h1M36 5h1M39 10h1M28 23h1" />
<path stroke="#89c0ff" d="M34 0h1" />
<path stroke="#d6e8ff" d="M35 0h1M23 2h1M31 22h1M0 30h1" />
<path stroke="#eaf3ff" d="M36 0h1" />
<path stroke="#c3ddff" d="M37 0h1M3 39h1" />
<path stroke="#74b8ff" d="M38 0h1M39 4h1M30 23h1M1 31h1" />
<path stroke="#29a3ff" d="M39 0h1M39 3h1M1 32h1" />
<path stroke="#18a0ff" d="M9 1h1" />
<path stroke="#50abff" d="M10 1h1" />
<path stroke="#9ecaff" d="M11 1h1M5 14h1" />
<path stroke="#dcebff" d="M12 1h1" />
<path stroke="#deecff" d="M13 1h1M33 4h1M33 12h1M7 14h1M8 24h1" />
<path stroke="#a2ccff" d="M14 1h1M2 8h1M8 12h1M1 26h1" />
<path stroke="#52acff" d="M15 1h1M16 3h1M21 4h1M1 25h1" />
<path stroke="#1aa1ff" d="M16 1h1M17 3h1M1 5h1M7 9h1" />
<path stroke="#d7e9ff" d="M23 1h1" />
<path stroke="#f9fcff" d="M24 1h1M0 9h1M3 27h1M2 28h1M0 29h1M5 39h1" />
<path stroke="#23a2ff" d="M32 1h1M38 2h1M2 6h1M5 8h1M8 10h1M38 11h1M37 12h1M36 13h1M33 15h1M32 16h1M31 17h1M29 25h1M10 29h1M9 30h1M8 31h1M7 32h1M6 33h1M5 34h1M4 35h1M3 36h1M39 36h1M2 37h1M11 37h1M31 37h1M10 38h1M9 39h1" />
<path stroke="#57aeff" d="M33 1h1M36 3h1M37 5h1M2 13h1M33 14h1M13 27h1M32 37h1" />
<path stroke="#9ecbff" d="M34 1h1M12 25h1M2 30h1" />
<path stroke="#d1e5ff" d="M35 1h1" />
<path stroke="#c9e1ff" d="M36 1h1" />
<path stroke="#92c5ff" d="M37 1h1M33 2h1M36 2h1M34 5h1M30 6h1M35 7h1M3 13h1M13 28h1M16 28h1M10 36h1M3 38h1" />
<path stroke="#4dabff" d="M38 1h1M38 4h1M35 13h1M11 36h1M2 38h1" />
<path stroke="#19a0ff" d="M39 1h1M20 4h1M12 36h1M1 38h1M32 39h1" />
<path stroke="#79baff" d="M11 2h1M31 4h1M36 6h1M3 8h1M6 10h1M9 12h1M34 13h1M9 27h1M7 28h1M11 35h1" />
<path stroke="#c5deff" d="M12 2h1M36 7h1M34 12h1M6 14h1M30 22h1M1 30h1M10 35h1" />
<path stroke="#e4efff" d="M13 2h1M32 12h1M39 39h1" />
<path stroke="#c6deff" d="M14 2h1M15 4h1" />
<path stroke="#7abaff" d="M15 2h1M16 4h1" />
<path stroke="#f2f8ff" d="M24 2h1M1 9h1M2 27h1" />
<path stroke="#54adff" d="M32 2h1M37 2h1M37 11h1M36 12h1M32 15h1M31 16h1M12 28h1M9 31h1M8 32h1M7 33h1M6 34h1M5 35h1M4 36h1M3 37h1M10 37h1M9 38h1" />
<path stroke="#c0dcff" d="M34 2h1M31 6h2M14 28h2" />
<path stroke="#c1dcff" d="M35 2h1" />
<path stroke="#9fcaff" d="M12 3h1" />
<path stroke="#daeaff" d="M13 3h1M14 5h1M5 22h1" />
<path stroke="#dbebff" d="M14 3h1M15 5h1" />
<path stroke="#a1cbff" d="M15 3h1M22 4h1M11 34h1" />
<path stroke="#89c1ff" d="M22 3h1M39 9h1" />
<path stroke="#d7e8ff" d="M23 3h1" />
<path stroke="#ff8b00" d="M30 3h1M3 4h2M29 4h1M5 5h1M29 5h1M6 6h3M28 6h1M9 7h1M28 7h1M11 8h1M31 31h2M30 32h2M12 33h1M29 33h2M13 34h1M29 34h1M14 35h1" />
<path stroke="#93c5ff" d="M32 3h1M38 5h1M33 6h1M35 12h1" />
<path stroke="#c9e0ff" d="M33 3h1M30 7h1" />
<path stroke="#d0e4ff" d="M34 3h1M38 6h1M37 9h1M7 12h1M7 38h1" />
<path stroke="#9dcaff" d="M35 3h1M31 5h1M32 7h1M6 23h1" />
<path stroke="#24a2ff" d="M37 3h1M37 4h1M28 24h1M11 28h1" />
<path stroke="#1ba1ff" d="M38 3h1M29 24h1M10 28h1" />
<path stroke="#e3efff" d="M14 4h1M4 26h1M1 27h1M10 33h1M6 39h1" />
<path stroke="#e1eeff" d="M23 4h1M38 8h1M2 9h1M31 13h1M30 14h1" />
<path stroke="#c2ddff" d="M32 4h1M34 4h1M31 8h1" />
<path stroke="#78baff" d="M35 4h1M1 12h1M11 26h1M5 29h1M3 30h1" />
<path stroke="#31a4ff" d="M36 4h1M0 18h7M32 18h6M11 27h1" />
<path stroke="#2aa3ff" d="M0 5h1" />
<path stroke="#f2f7ff" d="M23 5h1M10 24h1" />
<path stroke="#cfe4ff" d="M32 5h1M31 7h1M33 10h1M3 12h1M8 15h1M27 26h1M15 27h1M25 27h1M6 36h1M8 37h1" />
<path stroke="#c8e0ff" d="M33 5h1M29 10h1" />
<path stroke="#51acff" d="M35 5h1M0 12h1M29 23h1M12 26h1M10 27h1M8 28h1M6 29h1M4 30h1M2 31h1" />
<path stroke="#c3deff" d="M39 5h1" />
<path stroke="#75b8ff" d="M0 6h1M2 25h1" />
<path stroke="#4eabff" d="M1 6h1M4 8h1M7 10h1" />
<path stroke="#5bafff" d="M34 6h1M34 7h1" />
<path stroke="#55adff" d="M35 6h1M30 17h1M27 24h1M28 25h1" />
<path stroke="#a1ccff" d="M37 6h1M33 13h1M4 25h1" />
<path stroke="#eff6ff" d="M39 6h1M38 7h1M3 10h1M6 12h1M6 13h1M9 15h1M10 23h1M25 25h1M26 26h1M5 38h1M4 39h1" />
<path stroke="#94c5ff" d="M1 7h1M7 11h1" />
<path stroke="#58aeff" d="M2 7h1M5 9h1M38 10h1M8 11h1M39 37h1M8 39h1" />
<path stroke="#19a1ff" d="M4 7h1M35 14h1M8 29h1M6 30h1M4 31h1M2 32h1" />
<path stroke="#5eb0ff" d="M33 7h1" />
<path stroke="#dfedff" d="M37 7h1M29 9h1M2 11h1M5 13h1M8 13h1" />
<path stroke="#f8fbff" d="M39 7h1" />
<path stroke="#f1f7ff" d="M0 8h1M4 11h1M7 25h1M5 27h1M3 28h1M1 29h1" />
<path stroke="#d2e6ff" d="M1 8h1M4 10h1" />
<path stroke="#cbe2ff" d="M29 8h1M30 9h1M31 12h1M31 14h1M30 15h1" />
<path stroke="#e0edff" d="M30 8h1M12 24h1M8 26h1M6 27h1M4 28h1M2 29h1" />
<path stroke="#7dbcff" d="M32 8h1" />
<path stroke="#61b1ff" d="M33 8h1" />
<path stroke="#95c6ff" d="M34 8h1M4 9h1M29 17h1M27 25h1M7 34h1M6 35h1M9 37h1M8 38h1" />
<path stroke="#cee3ff" d="M35 8h1M34 9h1M36 10h1M32 11h1M35 11h1M8 34h1M32 35h1M9 36h1M5 37h1M4 38h1" />
<path stroke="#edf4ff" d="M36 8h1M34 11h1M30 21h1M9 35h1" />
<path stroke="#eef5ff" d="M37 8h1M35 9h2M34 10h2M4 12h1M7 13h1M8 14h1M9 25h1M25 26h1M8 35h1M8 36h1M6 37h2" />
<path stroke="#d9eaff" d="M39 8h1" />
<path stroke="#c7dfff" d="M3 9h1M6 11h1M5 25h1M7 27h1" />
<path stroke="#96c7ff" d="M31 9h1M29 11h1" />
<path stroke="#72b7ff" d="M32 9h1" />
<path stroke="#97c7ff" d="M33 9h1M26 24h1M28 26h1" />
<path stroke="#a2cdff" d="M38 9h1" />
<path stroke="#e2efff" d="M0 10h1M5 11h1" />
<path stroke="#f0f7ff" d="M1 10h1M3 11h1M11 24h1M5 26h1M7 26h1M26 27h1M6 38h1" />
<path stroke="#f6faff" d="M2 10h1M5 12h1M0 21h6M6 26h1" />
<path stroke="#a3cdff" d="M5 10h1" />
<path stroke="#98c8ff" d="M30 10h1M31 11h1M30 12h1" />
<path stroke="#77b9ff" d="M31 10h1M30 11h1" />
<path stroke="#99c8ff" d="M32 10h1" />
<path stroke="#94c6ff" d="M37 10h1M36 11h1M32 14h1M31 15h1M30 16h1M24 27h1M9 32h1M8 33h1M5 36h1M32 36h1M4 37h1" />
<path stroke="#a0cbff" d="M0 11h1M7 15h1M25 28h1M33 37h1" />
<path stroke="#c5dfff" d="M1 11h1" />
<path stroke="#a0ccff" d="M2 12h1M29 22h1" />
<path stroke="#18a1ff" d="M0 13h1M3 15h1M5 16h1" />
<path stroke="#2ea4ff" d="M1 13h1M4 15h1M6 16h1" />
<path stroke="#cce2ff" d="M30 13h1M7 24h1" />
<path stroke="#cde3ff" d="M32 13h1M29 16h1M9 33h1M31 34h1" />
<path stroke="#089fff" d="M37 13h1M1 14h1M2 15h1M4 16h1M6 17h1M6 32h1M29 36h1M1 37h1M30 37h1M31 38h1" />
<path stroke="#22a2ff" d="M2 14h1M7 17h1" />
<path stroke="#4babff" d="M3 14h1" />
<path stroke="#76baff" d="M4 14h1" />
<path stroke="#ffffff" d="M14 14h1M21 14h1" />
<path stroke="#50acff" d="M5 15h1" />
<path stroke="#77baff" d="M6 15h1" />
<path stroke="#56aeff" d="M7 16h1M24 28h1" />
<path stroke="#93c6ff" d="M8 16h1M31 35h1" />
<path stroke="#ff0909" d="M10 16h1M10 17h2M23 17h4M22 18h2M26 18h2M22 19h4M27 19h2M23 20h2M26 20h1M28 20h1M25 21h4" />
<path stroke="#53adff" d="M8 17h1" />
<path stroke="#32a4ff" d="M7 18h1M31 18h1M0 24h1" />
<path stroke="#ff8a00" d="M16 18h1M8 19h8M21 19h1M7 20h2M13 20h10M7 21h1M9 21h4M17 21h7M8 22h2M13 22h1M25 22h2M14 23h1M24 23h2M15 24h1M24 24h1M16 25h1M23 25h1M16 26h1M22 26h1M17 27h1M21 27h1M18 28h3" />
<path stroke="#71b7ff" d="M29 18h1" />
<path stroke="#41a8ff" d="M30 18h1" />
<path stroke="#86bfff" d="M0 19h7M31 19h5M0 23h4" />
<path stroke="#8bc2ff" d="M30 19h1" />
<path stroke="#f5f9ff" d="M31 21h1" />
<path stroke="#f7fbff" d="M32 21h1M4 27h1" />
<path stroke="#dbeaff" d="M6 22h1M0 27h1" />
<path stroke="#b00000" d="M15 22h2M16 23h7M17 24h2M21 24h2" />
<path stroke="#88c0ff" d="M4 23h1M3 25h1" />
<path stroke="#8fc3ff" d="M5 23h1" />
<path stroke="#b2d4ff" d="M7 23h1" />
<path stroke="#fcfdff" d="M11 23h1" />
<path stroke="#37a6ff" d="M27 23h1" />
<path stroke="#40a7ff" d="M2 24h1" />
<path stroke="#48a9ff" d="M3 24h1" />
<path stroke="#5fb0ff" d="M4 24h1" />
<path stroke="#83beff" d="M5 24h1M0 31h1" />
<path stroke="#a7cfff" d="M6 24h1" />
<path stroke="#e7f1ff" d="M9 24h1" />
<path stroke="#c6dfff" d="M13 24h1M11 25h1M2 26h1M9 26h1M5 28h1M3 29h1" />
<path stroke="#f43774" d="M19 24h2M18 25h2" />
<path stroke="#e0eeff" d="M6 25h1" />
<path stroke="#f5faff" d="M8 25h1" />
<path stroke="#deedff" d="M10 25h1" />
<path stroke="#7bbbff" d="M13 25h1M14 26h1" />
<path stroke="#70b7ff" d="M14 25h1" />
<path stroke="#f43771" d="M20 25h2" />
<path stroke="#d0e5ff" d="M26 25h1" />
<path stroke="#8ac1ff" d="M0 26h1" />
<path stroke="#9fcbff" d="M10 26h1M8 27h1M6 28h1M4 29h1" />
<path stroke="#44a8ff" d="M13 26h1" />
<path stroke="#f4376c" d="M18 26h3" />
<path stroke="#cde2ff" d="M24 26h1" />
<path stroke="#2ba3ff" d="M12 27h1" />
<path stroke="#9ccaff" d="M14 27h1" />
<path stroke="#ff8c00" d="M39 27h1M37 28h3M36 29h3M35 30h3M35 31h3M35 32h3M35 33h3M36 34h2M36 35h2M36 36h2M36 37h2M37 38h1" />
<path stroke="#fbfdff" d="M0 28h2" />
<path stroke="#0d9fff" d="M9 29h1" />
<path stroke="#ddecff" d="M10 34h1" />
<path stroke="#f0f6ff" d="M32 34h1" />
<path stroke="#cfe3ff" d="M7 35h1" />
<path stroke="#52adff" d="M30 35h1M31 36h1" />
<path stroke="#eef6ff" d="M7 36h1" />
<path stroke="#21a2ff" d="M30 36h1" />
<path stroke="#2fa4ff" d="M32 38h1" />
<path stroke="#78b9ff" d="M33 38h1" />
<path stroke="#a5ceff" d="M39 38h1" />
<path stroke="#73b8ff" d="M2 39h1" />
<path stroke="#a3ccff" d="M7 39h1" />
<path stroke="#51abff" d="M33 39h1" />
</svg>