<svg xmlns="http://www.w3.org/2000/svg" viewBox="0 -0.5 40 40" shape-rendering="crispEdges">
<metadata>Made with Pixels to Svg https://codepen.io/shshaw/pen/XbxvNj</metadata>
<path stroke="#57abfd" d="M0 0h7M21 0h3M25 0h5M0 1h4M5 1h3M20 1h2M25 1h5M0 2h4M5 2h5M18 2h2M24 2h7M39 2h1M0 3h2M7 3h7M17 3h1M23 3h2M30 3h3M35 3h5M0 4h2M7 4h9M29 4h8M39 4h1M0 5h4M5 5h9M27 5h1M30 5h6M0 6h4M5 6h7M28 6h1M31 6h4M0 7h2M6 7h7M26 7h1M28 7h6M0 8h1M6 8h6M27 8h8M0 9h1M7 9h4M28 9h7M0 10h2M7 10h3M28 10h7M0 11h1M6 11h4M29 11h6M4 12h5M29 12h6M6 13h3M30 13h4M7 14h2M30 14h3M7 15h1M0 16h1M5 16h3M0 17h2M4 17h4M0 18h2M4 18h4M4 19h3M5 20h1" />
<path stroke="#ece9e9" d="M7 0h1M20 0h1M8 1h2M18 1h1M30 1h1M39 1h1M10 2h5M31 2h2M35 2h4M15 3h2M33 3h2M0 15h1M5 15h2M1 16h1M4 16h1" />
<path stroke="#ffffff" d="M8 0h9M19 0h1M30 0h10M10 1h8M31 1h8M33 2h2M0 12h2M13 12h2M18 12h3M0 13h2M5 13h1M12 13h3M18 13h1M20 13h1M0 14h2M6 14h1M12 14h1M14 14h1M18 14h3M1 15h1M4 15h1M12 15h3M18 15h3M12 16h3M18 16h3M18 17h2M21 24h2M18 25h2M21 25h1M18 26h2M3 33h1M36 33h1M2 34h1M4 34h1M35 34h1M37 34h1M3 35h1M36 35h1M5 36h1M7 36h1M5 38h1M7 38h1" />
<path stroke="#000000" d="M17 0h2M24 0h1M19 1h1M22 1h3M15 2h3M20 2h4M14 3h1M18 3h5M25 3h5M16 4h3M20 4h9M14 5h2M18 5h1M20 5h7M28 5h2M12 6h2M17 6h2M21 6h1M23 6h5M29 6h2M16 7h1M21 7h1M24 7h2M27 7h1M21 8h1M25 8h2M26 9h1M13 11h2M18 11h3M12 12h1M15 12h1M17 12h1M21 12h1M11 13h1M15 13h1M17 13h1M19 13h1M21 13h1M11 14h1M13 14h1M15 14h1M17 14h1M21 14h1M10 15h2M15 15h1M17 15h1M21 15h1M9 16h1M15 16h1M17 16h1M23 16h4M9 17h1M15 17h3M22 17h1M27 17h1M8 18h8M17 18h1M21 18h1M24 18h2M28 18h1M7 19h1M16 19h5M26 19h1M6 20h1M9 20h4M25 20h1M27 20h1M29 20h1M6 21h1M8 21h1M13 21h4M24 21h1M29 21h1M7 22h1M10 22h3M14 22h1M17 22h8M27 22h2M8 23h2M12 23h2M15 23h1M23 23h1M26 23h1M14 24h1M16 24h1M23 24h1M25 24h1M15 25h1M17 25h1M22 25h1M24 25h1M15 26h1M17 26h1M21 26h1M23 26h1M16 27h1M18 27h3M22 27h1M17 28h1M21 28h1" />
<path stroke="#e88042" d="M4 1h1M4 2h1M4 6h1M27 9h1M6 10h1M5 11h1M28 11h1M29 13h1M5 14h1M30 15h1M31 18h1M29 24h1M28 25h2M27 26h2M9 27h2M27 27h1M36 27h1M10 28h2M38 28h1M12 29h1M21 29h1M29 29h1M39 29h1M10 30h2M13 30h1M20 30h1M11 31h2M14 31h2M18 31h3M25 31h1M13 32h1M15 32h4M21 32h2M14 33h1M19 33h1M9 34h2M10 35h2M14 35h6M21 35h2M11 36h3M17 36h3M24 37h2M32 37h1M22 38h1M32 38h1M18 39h1" />
<path stroke="#e1102b" d="M2 3h1M2 4h4" />
<path stroke="#f6253a" d="M3 3h3M6 4h1" />
<path stroke="#f9556a" d="M6 3h1" />
<path stroke="#be4903" d="M19 4h1M16 5h2M14 6h1M16 6h1M2 7h3M13 7h1M17 7h1M1 8h2M12 8h1M1 9h2M4 9h2M11 9h1M2 10h4M10 10h2M1 11h1M3 11h1M10 11h1M9 12h1M4 13h1M9 13h1M2 14h1M2 15h2M8 15h1M2 16h1M8 16h1M22 16h1M2 17h1M8 17h1M2 18h1M2 19h1M2 20h1M30 20h1M2 21h1M30 21h1M2 22h1M29 22h2M2 23h1M27 23h3M2 24h2M9 24h3M26 24h3M3 25h1M9 25h5M27 25h1M3 26h1M10 26h5M24 26h3M31 26h1M4 27h1M7 27h1M11 27h3M30 27h3M5 28h1M7 28h1M12 28h3M25 28h1M30 28h7M6 29h3M13 29h1M23 29h2M30 29h2M8 30h2M14 30h1M29 30h2M32 30h1M8 31h3M28 31h3M32 31h1M8 32h3M23 32h1M26 32h3M32 32h1M9 33h3M24 33h4M31 33h2M11 34h15M31 34h1M9 35h1M12 35h2M30 35h2M28 36h3M32 36h1M11 37h1M27 37h3M33 37h1M23 38h2M26 38h2M33 38h1M11 39h1M32 39h2" />
<path stroke="#d43a07" d="M37 4h2M35 6h5" />
<path stroke="#c76e39" d="M4 5h1" />
<path stroke="#cf540b" d="M19 5h1M22 6h1M22 7h2M23 8h2M23 9h3M24 10h4M4 11h1M21 11h1M25 11h3M2 12h1M22 12h1M26 12h3M3 13h1M22 13h1M27 13h2M4 14h1M22 14h1M27 14h3M22 15h1M27 15h3M3 16h1M27 16h3M3 17h1M29 17h1M3 18h1M29 18h2M3 19h1M29 19h2M3 20h1M3 21h1M3 22h2M3 23h2M4 24h1M4 25h2M8 25h1M25 25h2M4 26h2M8 26h2M5 27h2M14 27h2M23 27h3M33 27h3M6 28h1M8 28h1M15 28h2M22 28h3M14 29h3M22 29h1M36 29h3M15 30h2M21 30h2M38 30h2M16 31h2M39 31h1M14 32h1M15 33h1" />
<path stroke="#ec4108" d="M36 5h4M34 7h6" />
<path stroke="#cc6223" d="M15 6h1M19 6h2M14 7h2M18 7h3M13 8h8M22 8h1M12 9h11M12 10h12M11 11h2M15 11h3M22 11h3M10 12h2M16 12h1M23 12h3M10 13h1M16 13h1M23 13h4M9 14h2M16 14h1M23 14h4M9 15h1M16 15h1M23 15h4M16 16h1M28 17h1" />
<path stroke="#8f3d0c" d="M5 7h1M3 8h2M3 9h1M2 11h1M3 12h1M2 13h1M3 14h1M7 30h1M7 31h1M7 32h1M8 33h1M8 34h1M8 35h1M9 36h1M9 37h1M10 38h1M10 39h1" />
<path stroke="#f39259" d="M5 8h1M6 9h1M30 23h1M30 24h1M29 27h1M27 28h3M25 29h4M23 30h5M31 30h1M21 31h4M31 31h1M19 32h2M29 32h2M16 33h3M28 33h3M26 34h4M20 35h1M24 35h5M10 36h1M14 36h3M20 36h7M12 37h12M31 37h1M14 38h8M30 38h2M26 39h5" />
<path stroke="#b28004" d="M35 8h5" />
<path stroke="#ecab08" d="M35 9h3M35 10h1M35 11h1M38 11h2" />
<path stroke="#ecaa08" d="M38 9h1M38 10h1M35 12h1" />
<path stroke="#c7fefc" d="M39 9h1M39 10h1" />
<path stroke="#e90069" d="M36 10h2M36 11h2M36 12h2" />
<path stroke="#22c100" d="M38 12h2M35 13h5M33 14h7M31 15h9M31 16h9M31 17h9M32 18h8M0 19h2M32 19h8M0 20h2M4 20h1M32 20h8M0 21h2M4 21h2M32 21h8M0 22h2M5 22h2M32 22h8M0 23h2M5 23h3M32 23h8M0 24h2M5 24h3M32 24h8M0 25h3M6 25h2M32 25h8M0 26h3M6 26h2M33 26h7M0 27h4M37 27h3M0 28h5M2 29h4M33 29h3M5 30h2M33 30h1M6 31h1" />
<path stroke="#23c100" d="M34 13h1" />
<path stroke="#ff8a00" d="M10 16h1M10 17h1M23 17h4M16 18h1M22 18h2M26 18h2M8 19h8M21 19h5M27 19h2M7 20h2M13 20h12M26 20h1M28 20h1M7 21h1M9 21h4M17 21h7M25 21h4M8 22h2M13 22h1M25 22h2M14 23h1M24 23h2M15 24h1M24 24h1M16 25h1M23 25h1M16 26h1M22 26h1M17 27h1M21 27h1M18 28h3" />
<path stroke="#d50313" d="M11 16h1M21 16h1M11 17h4M20 17h2M18 18h3" />
<path stroke="#e15d0e" d="M30 16h1M30 17h1M31 19h1M31 20h1M31 21h1M31 22h1M31 24h1M31 25h1M32 26h1M37 28h1" />
<path stroke="#ff0000" d="M15 22h2M16 23h3M22 23h1M17 24h1M20 26h1" />
<path stroke="#9d3f07" d="M10 23h2M31 23h1M8 24h1M12 24h2M14 25h1M30 25h1M29 26h2M8 27h1M26 27h1M28 27h1M9 28h1M26 28h1M9 29h3M32 29h1M12 30h1M28 30h1M13 31h1M26 31h2M11 32h2M24 32h2M31 32h1M12 33h2M20 33h4M30 34h1M32 34h1M29 35h1M32 35h1M27 36h1M31 36h1M10 37h1M26 37h1M30 37h1M11 38h3M25 38h1M28 38h2M12 39h6M19 39h7M31 39h1" />
<path stroke="#fc809a" d="M19 23h3M18 24h3" />
<path stroke="#fc809d" d="M20 25h1" />
<path stroke="#1d8c03" d="M39 28h1M0 29h2M0 30h5M34 30h3M2 31h4M33 31h3M5 32h2M1 33h2M6 33h2M6 34h2M4 35h1M4 36h1M6 36h1M5 37h1M7 37h1M6 38h1" />
<path stroke="#e05e11" d="M17 29h4M17 30h3" />
<path stroke="#1c8c03" d="M37 30h1M0 31h2M36 31h3M0 32h5M33 32h7M0 33h1M4 33h2M33 33h3M37 33h3M0 34h2M5 34h1M33 34h2M38 34h2M0 35h3M5 35h3M33 35h3M37 35h3M0 36h4M8 36h1M33 36h7M0 37h5M8 37h1M34 37h6M0 38h5M8 38h2M34 38h6M0 39h10M34 39h6" />
<path stroke="#fff400" d="M3 34h1M36 34h1M6 37h1" />
<path stroke="#f29259" d="M23 35h1" />
</svg>