<svg xmlns="http://www.w3.org/2000/svg" viewBox="0 -0.5 40 40" shape-rendering="crispEdges">
<metadata>Made with Pixels to Svg https://codepen.io/shshaw/pen/XbxvNj</metadata>
<path stroke="#1a5aff" d="M0 0h17M24 0h13M0 1h17M24 1h7M35 1h4M1 2h12M15 2h2M23 2h6M38 2h1M1 3h9M28 3h1M37 3h3M28 4h5M37 4h3M5 5h7M28 5h12M5 6h6M33 6h7M36 7h4M37 8h3M1 10h1M1 11h1M39 11h1M0 12h3M37 12h3M0 13h4M36 13h4M0 14h4M36 14h4M0 15h4M35 15h5M0 16h5M35 16h5M0 17h5M35 17h5M0 18h6M34 18h4M0 19h6M33 19h2M0 20h6M32 20h2M0 21h6M32 21h3M2 22h5M31 22h8M6 23h2M30 23h10M7 24h4M29 24h11M4 25h8M28 25h8M38 25h2M0 26h13M26 26h10M0 27h1M6 27h8M30 27h2M7 28h2M11 28h4M8 29h1M13 29h3" />
<path stroke="#000000" d="M17 0h1M20 0h1M23 0h1M17 1h1M20 1h1M23 1h1M17 2h1M20 2h1M22 2h1M14 3h4M21 3h4M13 4h1M24 4h2M12 5h1M26 5h1M11 6h1M27 6h1M10 7h1M13 7h10M27 7h1M31 7h3M4 8h3M9 8h1M12 8h1M23 8h1M28 8h1M30 8h1M34 8h1M3 9h1M7 9h2M11 9h1M24 9h1M29 9h1M35 9h1M3 10h1M8 10h1M10 10h1M25 10h1M28 10h1M35 10h1M3 11h1M8 11h1M10 11h1M13 11h2M18 11h3M26 11h1M35 11h1M3 12h1M8 12h1M10 12h1M12 12h1M15 12h1M17 12h1M21 12h1M26 12h1M35 12h1M4 13h1M8 13h1M11 13h1M15 13h1M17 13h1M21 13h1M26 13h1M35 13h1M4 14h1M8 14h1M11 14h1M13 14h3M17 14h1M19 14h3M26 14h1M35 14h1M4 15h1M10 15h2M13 15h3M17 15h1M19 15h3M26 15h1M34 15h1M5 16h1M9 16h1M11 16h1M15 16h1M17 16h1M21 16h1M23 16h4M34 16h1M5 17h1M9 17h1M12 17h1M15 17h3M21 17h2M27 17h2M33 17h1M6 18h1M8 18h8M17 18h1M20 18h2M24 18h2M28 18h1M32 18h1M6 19h2M16 19h5M26 19h1M29 19h1M32 19h1M6 20h1M9 20h4M25 20h1M27 20h1M29 20h1M31 20h1M6 21h1M8 21h1M13 21h4M24 21h1M29 21h1M31 21h1M7 22h1M10 22h3M14 22h1M17 22h8M27 22h2M30 22h1M8 23h3M12 23h2M15 23h1M23 23h1M26 23h1M29 23h1M11 24h1M14 24h1M16 24h1M23 24h1M25 24h1M28 24h1M12 25h1M15 25h1M17 25h1M22 25h1M24 25h1M26 25h2M13 26h1M15 26h1M17 26h1M21 26h1M23 26h1M25 26h1M3 27h3M14 27h1M16 27h1M18 27h3M24 27h1M2 28h1M6 28h1M15 28h1M17 28h1M21 28h1M23 28h1M2 29h1M7 29h1M16 29h1M18 29h3M22 29h1M1 30h1M7 30h3M17 30h1M23 30h1M1 31h1M7 31h1M10 31h1M17 31h1M24 31h1M1 32h1M10 32h1M16 32h1M25 32h1M1 33h1M9 33h1M15 33h1M26 33h1M2 34h1M8 34h1M14 34h1M27 34h3M2 35h1M7 35h2M14 35h1M30 35h2M2 36h1M8 36h1M13 36h1M32 36h1M3 37h1M8 37h1M12 37h1M28 37h1M32 37h1M3 38h1M9 38h1M12 38h1M15 38h1M28 38h1M33 38h1M4 39h1M10 39h2M15 39h1M28 39h1M33 39h1" />
<path stroke="#ffe500" d="M18 0h2M22 0h1M18 1h2M22 1h1M18 2h2M18 3h3M14 4h10M13 5h13M12 6h15M11 7h2M23 7h4M10 8h2M24 8h4M31 8h3M4 9h3M9 9h2M25 9h4M30 9h1M34 9h1M4 10h1M7 10h1M9 10h1M26 10h2M29 10h1M34 10h1M4 11h1M7 11h1M9 11h1M27 11h3M34 11h1M4 12h1M9 12h1M27 12h2M34 12h1M5 13h1M9 13h2M27 13h2M34 13h1M5 14h1M9 14h2M27 14h2M33 14h2M5 15h2M8 15h2M27 15h2M32 15h2M6 16h1M8 16h1M27 16h3M31 16h3M6 17h3M29 17h4M7 18h1M29 18h3M30 19h2M30 20h1M30 21h1M29 22h1M11 23h1M27 23h2M12 24h2M26 24h2M13 25h2M25 25h1M14 26h1M24 26h1M15 27h1M22 27h2M3 28h3M16 28h1M22 28h1M3 29h4M17 29h1M21 29h1M2 30h5M22 30h1M2 31h5M8 31h2M18 31h6M2 32h8M17 32h8M2 33h7M16 33h10M3 34h5M15 34h12M3 35h4M15 35h15M3 36h5M14 36h18M4 37h4M13 37h5M25 37h3M29 37h3M4 38h5M13 38h2M16 38h1M26 38h2M29 38h4M5 39h5M12 39h3M16 39h1M26 39h2M29 39h4" />
<path stroke="#ffce00" d="M21 0h1M21 1h1M21 2h1M18 30h4" />
<path stroke="#1a58ff" d="M37 0h3M39 1h1M0 2h1M13 2h2M39 2h1M0 3h1M10 3h4M25 3h3M0 4h13M26 4h2M0 5h5M27 5h1M0 6h5M28 6h5M0 7h10M28 7h3M34 7h2M0 8h4M7 8h2M29 8h1M35 8h2M0 9h3M36 9h4M0 10h1M2 10h1M36 10h4M0 11h1M2 11h1M36 11h3M36 12h1M34 17h1" />
<path stroke="#ffffff" d="M31 1h4M29 2h9M29 3h8M33 4h4M13 12h2M18 12h3M12 13h1M18 13h1M13 17h2M18 17h3M18 18h2M38 18h2M35 19h5M34 20h6M35 21h5M0 22h2M39 22h1M0 23h6M0 24h7M0 25h4" />
<path stroke="#fb9d6f" d="M13 8h10M23 9h1M5 10h2M24 10h1M30 10h3M6 11h1M25 11h1M30 11h1M7 12h1M29 12h2M29 13h1M29 14h1" />
<path stroke="#fdd4c0" d="M12 9h11M31 9h3M11 10h13M33 10h1M5 11h1M11 11h2M15 11h3M21 11h4M31 11h3M5 12h2M11 12h1M16 12h1M22 12h4M31 12h3M6 13h2M16 13h1M22 13h4M30 13h4M6 14h2M16 14h1M22 14h4M30 14h3M7 15h1M16 15h1M22 15h4M29 15h3M7 16h1M16 16h1M22 16h1M30 16h1" />
<path stroke="#805707" d="M13 13h1M19 13h1M12 14h1M18 14h1M12 15h1M18 15h1M12 16h3M18 16h3" />
<path stroke="#805607" d="M14 13h1M20 13h1" />
<path stroke="#ff8a00" d="M10 16h1M10 17h2M23 17h4M16 18h1M22 18h2M26 18h2M8 19h8M21 19h5M27 19h2M7 20h2M13 20h12M26 20h1M28 20h1M7 21h1M9 21h4M17 21h7M25 21h4M8 22h2M13 22h1M25 22h2M14 23h1M24 23h2M15 24h1M24 24h1M16 25h1M23 25h1M16 26h1M22 26h1M17 27h1M21 27h1M18 28h3" />
<path stroke="#2862fe" d="M33 18h1" />
<path stroke="#ff0000" d="M15 22h2M16 23h3M22 23h1M17 24h1M21 24h2M20 25h2M18 26h3" />
<path stroke="#fc809a" d="M19 23h3M18 24h3M18 25h2" />
<path stroke="#1a5cff" d="M36 25h2M36 26h4M1 27h2M32 27h8M0 28h2M9 28h2M34 28h6M9 29h4M10 30h5M11 31h1" />
<path stroke="#089d21" d="M25 27h5M24 28h10M23 29h13M11 32h5M11 33h2" />
<path stroke="#089d23" d="M0 29h2M36 29h4M0 30h1M32 30h6M0 31h1" />
<path stroke="#089d24" d="M15 30h2M24 30h8M12 31h5M25 31h5M31 31h1M33 31h2" />
<path stroke="#067519" d="M38 30h2M35 31h3M0 32h1M10 33h1M13 33h2M11 34h3" />
<path stroke="#fc897d" d="M30 31h1M32 31h1M30 33h1M32 33h1M35 34h1M37 34h1M35 36h1M37 36h1" />
<path stroke="#07db2d" d="M38 31h2M28 32h3M32 32h8M0 33h1M35 33h1M37 33h3M9 34h1M0 35h1M32 35h4M37 35h3M9 36h1M38 36h2" />
<path stroke="#07db2f" d="M26 32h2M27 33h3M31 33h1M33 33h2M0 34h2M10 34h1M30 34h4M38 34h2M1 35h1M9 35h5" />
<path stroke="#ffa100" d="M31 32h1M36 35h1" />
<path stroke="#07db2a" d="M36 33h1M34 34h1M36 34h1" />
<path stroke="#0ff339" d="M0 36h2M33 36h1M0 37h3M9 37h3M33 37h3M39 37h1M0 38h3M10 38h2M34 38h2M39 38h1M0 39h3M34 39h2M38 39h2" />
<path stroke="#0ff337" d="M10 36h3M34 36h1M36 36h1M36 37h3M36 38h3M3 39h1M36 39h2" />
<path stroke="#b4b0b7" d="M18 37h1M20 37h1M22 37h1M24 37h1M17 38h1M19 38h3M23 38h1M25 38h1M18 39h2M21 39h2M24 39h1" />
<path stroke="#c7c5c8" d="M19 37h1M21 37h1M23 37h1M18 38h1M22 38h1M24 38h1M17 39h1M20 39h1M23 39h1M25 39h1" />
</svg>