<svg xmlns="http://www.w3.org/2000/svg" viewBox="0 -0.5 40 40" shape-rendering="crispEdges">
<metadata>Made with Pixels to Svg https://codepen.io/shshaw/pen/XbxvNj</metadata>
<path stroke="#ff9204" d="M0 0h18M19 0h21M0 1h12M13 1h4M18 1h2M23 1h17M0 2h11M12 2h1M14 2h2M17 2h2M20 2h3M24 2h16M0 3h14M15 3h1M17 3h1M19 3h2M23 3h17M0 4h10M12 4h3M18 4h2M25 4h15M0 5h9M26 5h14M0 6h8M27 6h13M0 7h8M28 7h12M0 8h7M28 8h12M0 9h7M25 9h1M27 9h13M0 10h8M9 10h1M26 10h14M0 11h10M27 11h13M0 12h10M28 12h12M0 13h11M28 13h12M0 14h11M29 14h11M0 15h10M29 15h11M0 16h9M29 16h11M0 17h9M29 17h11M0 18h8M29 18h11M0 19h7M30 19h10M0 20h6M30 20h10M0 21h6M30 21h10M0 22h7M29 22h11M0 23h8M10 23h2M27 23h13M0 24h14M26 24h14M0 25h15M25 25h15M0 26h15M24 26h16M0 27h16M23 27h17M0 28h17M23 28h17M0 29h19M23 29h17M0 30h18M24 30h16M0 31h17M25 31h15M0 32h16M26 32h14M0 33h16M27 33h13M0 34h15M30 34h10M0 35h14M32 35h8M0 36h13M33 36h7M0 37h12M33 37h7M0 38h12M34 38h6M0 39h12M34 39h6" />
<path stroke="#f900c9" d="M18 0h1M17 1h1M16 2h1M17 4h1M14 5h5M22 30h1M18 31h2M21 31h2M20 32h2M25 33h1M16 34h1M23 34h3M16 35h9M18 36h6M29 36h3M13 37h1M28 37h4M13 38h3M17 38h1M26 38h2M29 38h2M13 39h2M17 39h11" />
<path stroke="#f900c0" d="M12 1h1M20 1h1M13 2h1M14 3h1M18 3h1" />
<path stroke="#f900c7" d="M21 1h2M11 2h1M19 2h1M23 2h1M16 3h1M15 4h2M15 6h3" />
<path stroke="#000000" d="M21 3h2M10 4h2M20 4h1M23 4h2M9 5h1M12 5h2M19 5h1M25 5h1M8 6h1M14 6h1M18 6h1M26 6h1M8 7h1M15 7h3M22 7h1M27 7h1M7 8h1M10 8h1M12 8h1M23 8h1M25 8h1M27 8h1M7 9h1M9 9h1M11 9h3M18 9h4M24 9h1M26 9h1M8 10h1M10 10h1M22 10h1M25 10h1M10 11h1M13 11h2M18 11h3M26 11h1M10 12h1M12 12h1M15 12h1M17 12h1M21 12h1M26 12h2M11 13h1M15 13h1M17 13h1M21 13h1M27 13h1M11 14h1M15 14h1M17 14h1M21 14h1M28 14h1M10 15h2M15 15h1M17 15h1M21 15h1M28 15h1M9 16h1M11 16h1M13 16h1M15 16h1M17 16h1M19 16h1M21 16h1M23 16h4M28 16h1M9 17h1M11 17h1M15 17h1M17 17h1M21 17h2M27 17h2M8 18h8M17 18h1M20 18h2M24 18h2M28 18h1M7 19h1M16 19h5M26 19h1M29 19h1M6 20h1M9 20h4M25 20h1M27 20h1M29 20h1M6 21h1M8 21h1M13 21h4M24 21h1M29 21h1M7 22h1M10 22h3M14 22h1M17 22h8M27 22h2M8 23h2M12 23h2M17 23h1M20 23h1M23 23h1M26 23h1M14 24h1M16 24h2M20 24h1M23 24h1M25 24h1M15 25h1M17 25h6M24 25h1M15 26h1M17 26h1M19 26h1M21 26h1M23 26h1M16 27h1M18 27h3M22 27h1M17 28h1M21 28h2M19 29h1M22 29h1M18 30h1M23 30h1M17 31h1M24 31h1M16 32h1M25 32h1M16 33h1M26 33h1M15 34h1M27 34h3M14 35h1M30 35h2M13 36h1M32 36h1M12 37h1M32 37h1M12 38h1M16 38h1M28 38h1M33 38h1M12 39h1M15 39h2M28 39h2M33 39h1" />
<path stroke="#8d05b8" d="M21 4h1M22 5h1M12 6h1M12 7h2M18 7h1M23 7h1M15 8h1" />
<path stroke="#a715cf" d="M22 4h1M10 5h2M24 5h1M13 6h1M25 6h1M14 7h1M26 7h1M26 8h1M24 10h1M25 11h1M25 12h1M26 13h1M27 14h1M27 15h1M27 16h1" />
<path stroke="#8705b8" d="M20 5h2M19 6h2M11 7h1M19 7h1M24 7h2M11 8h1M24 8h1M10 9h1" />
<path stroke="#8a05b8" d="M23 5h1M9 6h3M21 6h4M9 7h2M20 7h2M8 8h2M8 9h1" />
<path stroke="#9505b8" d="M13 8h2M16 8h6M14 9h3M23 9h1M11 10h11M23 10h1M11 11h2M15 11h3M21 11h4M11 12h1M16 12h1M22 12h3M16 13h1M22 13h4M16 14h1M22 14h5M16 15h1M22 15h5M22 16h1M20 29h2M19 30h1M21 30h1M23 31h1M17 32h2M22 32h3M17 33h8M17 34h6M26 34h1M15 35h1M25 35h5M14 36h3M24 36h5M14 37h14M18 38h8M31 38h2M30 39h3" />
<path stroke="#9105b8" d="M22 8h1M17 9h1M22 9h1M16 16h1M16 17h1M20 30h1M20 31h1M17 36h1" />
<path stroke="#fefa38" d="M13 12h2M18 12h3M12 13h3M18 13h3M20 14h1M13 17h2M19 17h2M18 18h2" />
<path stroke="#fef938" d="M12 14h3M18 14h2M12 15h3M18 15h3M12 16h1M18 16h1M20 16h1M18 17h1" />
<path stroke="#c276d8" d="M10 16h1M10 17h1M23 17h4M16 18h1M22 18h2M26 18h2M8 19h8M21 19h5M27 19h2M7 20h2M13 20h12M26 20h1M28 20h1M7 21h1M9 21h4M17 21h7M25 21h4M8 22h2M13 22h1M25 22h2M14 23h1M24 23h2M15 24h1M24 24h1M16 25h1M23 25h1M16 26h1M22 26h1M17 27h1M21 27h1M18 28h3" />
<path stroke="#fef838" d="M14 16h1M12 17h1" />
<path stroke="#ff6ead" d="M15 22h2M18 23h2M21 23h2" />
<path stroke="#ffffff" d="M15 23h2M18 24h2M21 24h2M18 26h1M20 26h1" />
<path stroke="#f900c8" d="M19 32h1" />
</svg>