<svg xmlns="http://www.w3.org/2000/svg" viewBox="0 -0.5 40 40" shape-rendering="crispEdges">
<metadata>Made with Pixels to Svg https://codepen.io/shshaw/pen/XbxvNj</metadata>
<path stroke="#69d7ec" d="M0 0h40M0 1h25M26 1h14M0 2h40M0 3h20M25 3h15M0 4h15M26 4h14M0 5h13M28 5h12M0 6h12M29 6h11M0 7h12M30 7h10M0 8h11M31 8h9M0 9h11M32 9h8M0 10h10M33 10h7M0 11h10M34 11h6M0 12h10M35 12h5M0 13h11M35 13h5M0 14h11M36 14h4M0 15h10M36 15h4M0 16h4M7 16h2M36 16h4M0 17h4M8 17h1M36 17h4M0 18h4M36 18h4M0 19h5M36 19h4M0 20h6M36 20h4M0 21h6M36 21h4M0 22h7M36 22h4M0 23h8M10 23h2M36 23h4M0 24h14M26 24h1M36 24h4M0 25h15M25 25h2M35 25h5M0 26h15M24 26h4M34 26h6M0 27h16M24 27h6M33 27h7M0 28h17M23 28h17M0 29h18M23 29h17M0 30h18M24 30h16M0 31h17M25 31h15M0 32h17M26 32h14M0 33h16M27 33h13M0 34h15M28 34h12M0 35h15M29 35h11M0 36h14M30 36h10M0 37h13M31 37h9M0 38h13M31 38h9M0 39h12M32 39h8" />
<path stroke="#69d6ec" d="M25 1h1M24 3h1" />
<path stroke="#000000" d="M20 3h4M15 4h5M24 4h2M13 5h2M26 5h2M12 6h1M28 6h1M12 7h1M29 7h1M11 8h4M18 8h3M30 8h1M11 9h1M31 9h1M10 10h1M32 10h1M10 11h1M33 11h1M10 12h1M13 12h2M18 12h2M29 12h1M34 12h1M11 13h1M14 13h1M19 13h1M28 13h1M31 13h1M34 13h1M11 14h1M13 14h2M18 14h2M28 14h1M30 14h3M35 14h1M10 15h2M13 15h2M18 15h2M28 15h1M30 15h4M35 15h1M4 16h3M9 16h1M11 16h1M23 16h4M28 16h1M30 16h4M35 16h1M4 17h4M9 17h1M12 17h1M15 17h3M21 17h2M27 17h2M30 17h4M35 17h1M4 18h12M17 18h1M20 18h2M24 18h2M28 18h1M31 18h3M35 18h1M5 19h3M16 19h5M26 19h1M29 19h1M31 19h3M35 19h1M6 20h1M9 20h4M25 20h1M27 20h1M29 20h1M31 20h3M35 20h1M6 21h1M8 21h1M13 21h4M24 21h1M29 21h1M31 21h3M35 21h1M7 22h1M10 22h3M14 22h11M27 22h2M30 22h4M35 22h1M8 23h2M12 23h2M15 23h9M26 23h2M29 23h5M35 23h1M14 24h1M16 24h4M22 24h2M25 24h1M27 24h1M29 24h4M35 24h1M15 25h1M17 25h1M21 25h2M24 25h1M27 25h1M30 25h2M34 25h1M15 26h1M17 26h1M20 26h2M23 26h1M28 26h2M33 26h1M16 27h1M18 27h3M22 27h1M30 27h3M17 28h1M21 28h2M18 29h1M22 29h1M18 30h6M17 31h1M24 31h1M17 32h7M25 32h1M16 33h1M26 33h1M15 34h1M27 34h1M15 35h1M28 35h1M14 36h1M26 36h1M29 36h1M13 37h1M26 37h1M30 37h1M13 38h1M16 38h1M26 38h1M30 38h1M12 39h1M15 39h2M26 39h1M31 39h1" />
<path stroke="#ffffff" d="M20 4h4M15 5h11M13 6h15M13 7h16M15 8h3M21 8h9M12 9h19M11 10h21M11 11h22M11 12h2M15 12h3M20 12h9M30 12h4M12 13h2M15 13h4M20 13h8M29 13h2M32 13h2M12 14h1M15 14h3M20 14h8M29 14h1M33 14h2M12 15h1M15 15h3M20 15h8M29 15h1M34 15h1M12 16h11M27 16h1M29 16h1M34 16h1M13 17h2M18 17h3M29 17h1M34 17h1M18 18h2M29 18h2M34 18h1M30 19h1M34 19h1M30 20h1M34 20h1M30 21h1M34 21h1M29 22h1M34 22h1M28 23h1M34 23h1M28 24h1M33 24h2M28 25h2M32 25h2M30 26h3M19 29h3M24 32h1M17 33h9M16 34h11M16 35h12M15 36h11M27 36h2M14 37h12M27 37h3M14 38h2M17 38h9M27 38h3M13 39h2M17 39h9M27 39h4" />
<path stroke="#ff8a00" d="M10 16h1M10 17h2M23 17h4M16 18h1M22 18h2M26 18h2M8 19h8M21 19h5M27 19h2M7 20h2M13 20h12M26 20h1M28 20h1M7 21h1M9 21h4M17 21h7M25 21h4M8 22h2M13 22h1M25 22h2M14 23h1M24 23h2M15 24h1M24 24h1M16 25h1M23 25h1M16 26h1M22 26h1M17 27h1M21 27h1M18 28h3" />
<path stroke="#ff0000" d="M20 24h2M18 25h3M18 26h2M18 31h6" />
<path stroke="#69d6eb" d="M23 27h1" />
</svg>