<svg xmlns="http://www.w3.org/2000/svg" viewBox="0 -0.5 40 40" shape-rendering="crispEdges">
<metadata>Made with Pixels to Svg https://codepen.io/shshaw/pen/XbxvNj</metadata>
<path stroke="#bf5dfa" d="M0 0h40M0 1h12M20 1h20M0 2h10M22 2h18M0 3h9M24 3h16M0 4h8M26 4h14M0 5h7M28 5h12M0 6h6M29 6h11M0 7h5M30 7h10M0 8h4M31 8h9M0 9h4M31 9h9M0 10h5M7 10h2M31 10h9M0 11h10M31 11h9M0 12h10M31 12h9M0 13h10M31 13h9M0 14h10M30 14h10M0 15h10M30 15h10M0 16h9M29 16h11M0 17h9M29 17h11M0 18h6M7 18h1M29 18h11M0 19h6" />
<path stroke="#000000" d="M12 1h8M10 2h2M20 2h2M9 3h1M22 3h2M8 4h1M24 4h2M7 5h1M26 5h2M6 6h1M13 6h12M28 6h1M5 7h1M11 7h2M25 7h1M27 7h1M29 7h1M4 8h1M10 8h1M26 8h1M30 8h1M4 9h1M7 9h4M25 9h1M30 9h1M5 10h2M9 10h1M24 10h1M30 10h1M10 11h1M24 11h1M30 11h1M10 12h1M24 12h1M30 12h1M10 13h1M24 13h1M30 13h1M10 14h1M29 14h1M10 15h1M25 15h1M29 15h1M9 16h1M14 16h1M21 16h1M24 16h3M28 16h1M9 17h1M16 17h2M27 17h2M8 18h8M17 18h1M24 18h2M28 18h1M7 19h1M16 19h5M26 19h1M29 19h1M6 20h1M9 20h4M25 20h1M27 20h1M29 20h1M6 21h1M8 21h1M13 21h4M24 21h1M29 21h1M7 22h1M10 22h3M14 22h11M27 22h2M8 23h2M12 23h2M15 23h9M26 23h1M14 24h1M16 24h4M23 24h1M25 24h1M15 25h1M17 25h2M22 25h1M24 25h1M15 26h1M17 26h2M20 26h2M23 26h1M16 27h1M18 27h3M22 27h1M17 28h1M21 28h2M19 29h2M22 29h1M18 30h1M23 30h1M17 31h1M19 31h1M22 31h1M24 31h1M17 32h1M20 32h2M25 32h1M17 33h1M26 33h1M16 34h1M25 34h3M16 35h1M24 35h1M28 35h1M16 36h1M23 36h1M29 36h1M15 37h1M23 37h1M29 37h1M15 38h1M23 38h1M29 38h1M15 39h1M23 39h1M29 39h1" />
<path stroke="#2369c4" d="M12 2h7M10 3h1M13 3h3M13 4h1M11 5h2M25 5h1M28 7h1M11 9h4M21 9h2M11 10h1M13 10h2M19 10h1" />
<path stroke="#2367c4" d="M19 2h1M20 3h2M14 4h8M23 4h1M14 5h11M10 6h2M25 6h2M10 7h1M26 7h1M9 8h1M27 8h2M19 9h2M26 9h3M12 10h1M20 10h3M26 10h1M25 12h5M25 13h5M28 14h1" />
<path stroke="#236ac4" d="M11 3h2M9 4h4M8 5h3M7 6h3M6 7h4M5 8h4M5 9h2" />
<path stroke="#2365c4" d="M16 3h4M22 4h1M13 5h1M12 6h1M27 6h1M29 8h1M29 9h1M25 10h1M27 10h3M25 11h5M26 15h2M27 16h1" />
<path stroke="#fffa00" d="M13 7h12M11 8h15M15 9h4M23 9h2M10 10h1M15 10h4M23 10h1M11 11h13M11 12h1M16 12h3M23 12h1M17 13h1M17 14h1M24 15h1M17 16h1M21 29h1M19 30h4M20 31h2" />
<path stroke="#c3000c" d="M12 12h4M19 12h3M11 13h1M18 13h1M22 13h1M11 14h1M18 14h1M22 14h1M11 15h1M15 15h4M22 15h1M11 16h1M18 16h1M20 18h1" />
<path stroke="#c3000e" d="M22 12h1M15 13h2M23 13h1M15 14h2M23 15h1M15 16h2M22 16h2M11 17h1M15 17h1M18 17h1M22 17h2M18 18h2M21 18h2" />
<path stroke="#fffffd" d="M12 13h3M19 13h3M12 14h3M19 14h3M12 15h3M19 15h3M12 16h2M19 16h2M12 17h3M19 17h3" />
<path stroke="#c30015" d="M23 14h1M25 14h3M28 15h1" />
<path stroke="#c30011" d="M24 14h1" />
<path stroke="#ff8a00" d="M10 16h1M10 17h1M24 17h3M16 18h1M23 18h1M26 18h2M8 19h8M21 19h5M27 19h2M7 20h2M13 20h12M26 20h1M28 20h1M7 21h1M9 21h4M17 21h7M25 21h4M8 22h2M13 22h1M25 22h2M14 23h1M24 23h2M15 24h1M24 24h1M16 25h1M23 25h1M16 26h1M22 26h1M17 27h1M21 27h1M18 28h3" />
<path stroke="#bf5cfa" d="M6 18h1M6 19h1" />
<path stroke="#bd5dfa" d="M30 19h10M0 20h6M30 20h10M0 21h6M30 21h10M0 22h7M29 22h11M0 23h8M10 23h2M27 23h13M0 24h14M26 24h14M0 25h15M25 25h15M0 26h15M24 26h16M0 27h16M23 27h17M0 28h17M23 28h17M0 29h19M23 29h17M0 30h18M24 30h16M0 31h17M25 31h15M0 32h17M26 32h14M0 33h17M27 33h13M0 34h16M28 34h12M0 35h16M29 35h11M0 36h16M30 36h10M0 37h15M30 37h10M0 38h15M30 38h10M0 39h15M30 39h10" />
<path stroke="#e40111" d="M20 24h1M19 25h3" />
<path stroke="#e40113" d="M21 24h2M19 26h1" />
<path stroke="#d884a2" d="M18 31h1M23 31h1M19 32h1M22 32h3M19 33h5M19 34h4M18 35h3M18 36h1" />
<path stroke="#d884a5" d="M18 32h1M18 33h1M17 34h2M17 35h1M17 36h1M26 37h1M25 38h2M25 39h3" />
<path stroke="#d884a6" d="M24 33h1M24 34h1M25 35h3M24 36h5M24 37h2M27 37h2M24 38h1M27 38h2M24 39h1M28 39h1" />
<path stroke="#d884a4" d="M25 33h1M23 34h1M21 35h3M19 36h4M16 37h7M16 38h7M16 39h7" />
</svg>