<svg xmlns="http://www.w3.org/2000/svg" viewBox="0 -0.5 40 40" shape-rendering="crispEdges">
<metadata>Made with Pixels to Svg https://codepen.io/shshaw/pen/XbxvNj</metadata>
<path stroke="#b5b9be" d="M0 0h1M28 0h1" />
<path stroke="#8e949c" d="M1 0h1M29 0h1" />
<path stroke="#858c94" d="M2 0h2M10 0h1M30 0h1" />
<path stroke="#828991" d="M4 0h2" />
<path stroke="#888f96" d="M6 0h1M4 1h2" />
<path stroke="#979ea5" d="M7 0h1M13 0h1M32 0h1M9 1h1M39 1h1M0 4h1" />
<path stroke="#9aa1a7" d="M8 0h1M14 0h1M33 0h2M38 0h2M7 1h2M12 1h1M32 1h3M38 1h1M0 2h4M6 2h5M33 2h5M0 3h8M1 4h7M3 5h4" />
<path stroke="#979ea4" d="M9 0h1M2 1h1M30 1h1M4 6h1" />
<path stroke="#858c93" d="M11 0h1" />
<path stroke="#888f97" d="M12 0h1M31 0h1" />
<path stroke="#9da4a9" d="M15 0h1" />
<path stroke="#acb2b7" d="M16 0h1M14 1h1" />
<path stroke="#b7bfc8" d="M17 0h1" />
<path stroke="#b9c1c9" d="M18 0h1" />
<path stroke="#babfc4" d="M19 0h1" />
<path stroke="#bbbfc3" d="M20 0h1" />
<path stroke="#b5bdc6" d="M21 0h1" />
<path stroke="#91b1d6" d="M22 0h1" />
<path stroke="#88abd2" d="M23 0h1M24 2h1M0 6h1M1 7h1" />
<path stroke="#8392a5" d="M24 0h1" />
<path stroke="#8a9199" d="M25 0h1" />
<path stroke="#b2b6bb" d="M26 0h1" />
<path stroke="#babfc3" d="M27 0h1" />
<path stroke="#9fa6ab" d="M35 0h1M37 0h1" />
<path stroke="#b2b7bc" d="M36 0h1" />
<path stroke="#9fa5ab" d="M0 1h1M28 1h1M36 1h1M37 3h1" />
<path stroke="#989fa5" d="M1 1h1M29 1h1M31 1h1M4 2h2M38 2h1M38 3h1" />
<path stroke="#959ca2" d="M3 1h1M6 1h1M11 1h1M3 6h1" />
<path stroke="#8b9299" d="M10 1h1M39 2h1" />
<path stroke="#aab0b4" d="M13 1h1" />
<path stroke="#b5bbc0" d="M15 1h1" />
<path stroke="#d5dde6" d="M16 1h1" />
<path stroke="#a0bbdb" d="M17 1h1" />
<path stroke="#94b1d3" d="M18 1h1" />
<path stroke="#9caaba" d="M19 1h1" />
<path stroke="#9da8b4" d="M20 1h1" />
<path stroke="#9aa9ba" d="M21 1h1" />
<path stroke="#8caed5" d="M22 1h1" />
<path stroke="#89aed8" d="M23 1h1M24 3h1" />
<path stroke="#87a7cb" d="M24 1h1" />
<path stroke="#838e9c" d="M25 1h1" />
<path stroke="#8c929a" d="M26 1h1" />
<path stroke="#9ba1a7" d="M27 1h1" />
<path stroke="#9ba2a8" d="M35 1h1M37 1h1" />
<path stroke="#a9afb4" d="M11 2h1" />
<path stroke="#b5babf" d="M12 2h1" />
<path stroke="#e1e5ea" d="M13 2h1" />
<path stroke="#e8ecf1" d="M14 2h1" />
<path stroke="#e0e6ef" d="M15 2h1" />
<path stroke="#a9c2e1" d="M16 2h1" />
<path stroke="#8cb1da" d="M17 2h1M26 4h1M9 6h4M34 14h4M39 15h1M0 19h2M3 20h3M3 25h4M10 25h5M32 26h2M30 27h1M39 30h1M0 31h8M28 32h1M0 35h1M29 35h4M35 35h5M8 36h1M11 36h2" />
<path stroke="#89afd9" d="M18 2h1M22 2h2M17 3h7M17 4h1M10 5h5M0 7h1M31 9h1M37 10h3M37 11h3M32 12h8M34 13h6M39 14h1M0 15h2M0 16h2M0 17h6M0 18h8M3 19h4M30 20h4M30 21h10M29 22h11M27 23h4M36 23h4M5 24h4M26 24h3M37 24h3M0 25h2M8 25h1M25 25h3M32 25h8M0 26h1M24 26h3M0 27h1M23 27h1M0 28h1M0 29h2M0 30h4M25 31h3M39 31h1M26 32h2M39 32h1M26 33h3M35 33h5M27 34h2M35 34h5M9 36h1" />
<path stroke="#8badd4" d="M19 2h1M21 2h1" />
<path stroke="#8badd3" d="M20 2h1" />
<path stroke="#8393a6" d="M25 2h1" />
<path stroke="#838f9d" d="M26 2h1" />
<path stroke="#8a96a2" d="M27 2h1" />
<path stroke="#98a3ae" d="M28 2h1M9 3h1M8 4h1M6 6h1" />
<path stroke="#9aa5b0" d="M29 2h2" />
<path stroke="#9aa4af" d="M31 2h1" />
<path stroke="#98a0a6" d="M32 2h1" />
<path stroke="#9aa1a8" d="M8 3h1M7 5h1" />
<path stroke="#a5afb9" d="M10 3h1" />
<path stroke="#dde2e8" d="M11 3h1" />
<path stroke="#dfe6ef" d="M12 3h1" />
<path stroke="#b3cae5" d="M13 3h1" />
<path stroke="#a9c4e3" d="M14 3h1M31 7h1" />
<path stroke="#a5c2e1" d="M15 3h1" />
<path stroke="#8eb2db" d="M16 3h1M31 27h1" />
<path stroke="#88abd3" d="M25 3h1" />
<path stroke="#8aacd2" d="M26 3h1" />
<path stroke="#96b4d5" d="M27 3h1" />
<path stroke="#9ab8d8" d="M28 3h3" />
<path stroke="#98b4d2" d="M31 3h1" />
<path stroke="#8d9cab" d="M32 3h1" />
<path stroke="#99a3ae" d="M33 3h1" />
<path stroke="#9fa6ad" d="M34 3h1" />
<path stroke="#a0a7ac" d="M35 3h1" />
<path stroke="#a0a6ac" d="M36 3h1" />
<path stroke="#949ba2" d="M39 3h1" />
<path stroke="#8eacce" d="M9 4h1" />
<path stroke="#8eafd5" d="M10 4h1" />
<path stroke="#9cbade" d="M11 4h1" />
<path stroke="#9cbbdf" d="M12 4h1" />
<path stroke="#8fb3db" d="M13 4h1M1 35h1" />
<path stroke="#8bb1da" d="M14 4h2M31 8h1M37 9h3M0 12h1M0 13h1M32 13h1M1 14h1M35 20h5M5 23h3M0 24h4M10 24h4M29 27h1M3 29h1M14 32h3M13 34h1M8 35h4M36 39h3" />
<path stroke="#89afda" d="M16 4h1M33 13h1M0 14h1M38 14h1M2 19h1M34 20h1M4 24h1M9 24h1M2 25h1M1 26h1M31 26h1M25 27h1M1 28h1M2 29h1M12 35h1M28 35h1M33 35h2M10 36h1M9 37h1M39 39h1" />
<path stroke="#000000" d="M18 4h8M15 5h3M26 5h2M13 6h2M28 6h1M12 7h1M29 7h1M12 8h1M30 8h1M11 9h1M30 9h1M11 10h4M18 10h3M31 10h1M11 11h1M15 11h1M17 11h1M21 11h1M31 11h1M10 12h1M12 12h3M16 12h1M18 12h3M22 12h1M31 12h1M10 13h1M12 13h3M16 13h1M18 13h3M22 13h1M26 13h3M31 13h1M10 14h1M12 14h3M16 14h1M18 14h3M22 14h5M29 14h1M31 14h1M10 15h1M12 15h3M16 15h1M18 15h3M22 15h1M29 15h1M31 15h1M9 16h2M12 16h3M16 16h1M18 16h3M22 16h5M29 16h1M31 16h1M9 17h1M11 17h1M15 17h2M18 17h3M22 17h1M27 17h2M30 17h2M8 18h8M17 18h1M21 18h1M24 18h2M28 18h1M30 18h1M7 19h1M16 19h5M26 19h1M29 19h1M6 20h1M9 20h4M25 20h1M27 20h1M29 20h1M6 21h1M8 21h1M13 21h4M24 21h1M29 21h1M7 22h1M10 22h3M14 22h1M17 22h8M27 22h2M8 23h2M12 23h2M15 23h1M23 23h1M26 23h1M14 24h1M16 24h1M23 24h1M25 24h1M15 25h1M17 25h1M22 25h1M24 25h1M15 26h1M17 26h1M21 26h1M23 26h1M16 27h1M18 27h3M22 27h1M17 28h1M21 28h2M18 29h1M22 29h1M19 30h3M23 30h1M18 31h1M24 31h1M17 32h1M25 32h1M17 33h1M25 33h1M14 34h6M26 34h1M13 35h1M15 35h1M20 35h1M27 35h1M13 36h5M20 36h1M27 36h1M13 37h1M15 37h1M20 37h4M27 37h2M13 38h5M26 38h3M13 39h1M15 39h1M25 39h4" />
<path stroke="#98bade" d="M27 4h1M8 7h4M10 8h2M37 8h1M39 8h1M10 10h1M7 11h1M2 12h2M33 15h4M37 16h1M37 18h3M36 19h4M0 20h1M2 21h3M4 22h2M0 23h3M11 23h1M4 26h1M11 26h4M28 28h1M28 29h1M0 32h12M12 33h1M0 34h2M8 34h3M30 36h2M36 36h4M12 37h1M33 37h2M39 37h1M35 38h3M9 39h1M34 39h1" />
<path stroke="#9abbde" d="M28 4h3M8 11h3M33 16h4M35 17h1M35 18h2M0 21h2M0 22h4M3 27h1M0 33h12M29 37h4M35 37h4M11 38h2M29 38h6M10 39h3M29 39h5" />
<path stroke="#9cbcde" d="M31 4h1" />
<path stroke="#a8c0dc" d="M32 4h1" />
<path stroke="#b0c4db" d="M33 4h1" />
<path stroke="#c2c9d1" d="M34 4h1" />
<path stroke="#c4c8cc" d="M35 4h1" />
<path stroke="#bdc1c5" d="M36 4h1" />
<path stroke="#b6babe" d="M37 4h1" />
<path stroke="#969ba1" d="M38 4h1" />
<path stroke="#878e95" d="M39 4h1" />
<path stroke="#8995a2" d="M0 5h1" />
<path stroke="#96a0ac" d="M1 5h1" />
<path stroke="#989fa6" d="M2 5h1" />
<path stroke="#96a5b5" d="M8 5h1" />
<path stroke="#8baed4" d="M9 5h1" />
<path stroke="#198829" d="M18 5h3M15 6h6M13 7h13M13 8h2M20 8h7M24 9h4M24 10h5M16 11h1M26 11h3M25 12h4M23 13h2M30 14h1M30 15h1M30 16h1M29 17h1M29 18h1" />
<path stroke="#198828" d="M21 5h5M21 6h7M26 7h3M27 8h3M28 9h2M29 10h2M29 11h2M29 12h2M25 13h1M29 13h2" />
<path stroke="#acc6e4" d="M28 5h3M39 28h1M4 34h2" />
<path stroke="#b8cee7" d="M31 5h1M30 7h1M4 13h1M10 27h1" />
<path stroke="#ecf1f8" d="M32 5h1M5 13h1M2 36h1" />
<path stroke="#f5f8fb" d="M33 5h1M11 28h1M33 29h1M4 35h1" />
<path stroke="#f8f8fa" d="M34 5h1M2 37h1" />
<path stroke="#f3f3f4" d="M35 5h1" />
<path stroke="#cfd4d8" d="M36 5h1" />
<path stroke="#bdc4cb" d="M37 5h1" />
<path stroke="#bac0c5" d="M38 5h1" />
<path stroke="#8e98a4" d="M39 5h1" />
<path stroke="#8aa9cc" d="M1 6h1" />
<path stroke="#8893a0" d="M2 6h1" />
<path stroke="#979fa6" d="M5 6h1" />
<path stroke="#98a6b6" d="M7 6h1" />
<path stroke="#90aed1" d="M8 6h1" />
<path stroke="#f3f6fb" d="M29 6h1M32 6h1M16 28h1M0 37h1" />
<path stroke="#eaf0f8" d="M30 6h2" />
<path stroke="#f4f7fb" d="M33 6h2M6 13h4M12 28h4M1 37h1" />
<path stroke="#f3f6fa" d="M35 6h1" />
<path stroke="#e3eaf2" d="M36 6h1" />
<path stroke="#b0c6e0" d="M37 6h1" />
<path stroke="#d5dfec" d="M38 6h1" />
<path stroke="#9cb8d7" d="M39 6h1" />
<path stroke="#8494a6" d="M2 7h1" />
<path stroke="#85929f" d="M3 7h1" />
<path stroke="#86929f" d="M4 7h1" />
<path stroke="#8796a7" d="M5 7h1" />
<path stroke="#8dabce" d="M6 7h1" />
<path stroke="#98b7d8" d="M7 7h1" />
<path stroke="#a9c4e2" d="M32 7h3" />
<path stroke="#a9c5e3" d="M35 7h1" />
<path stroke="#a8c4e3" d="M36 7h1" />
<path stroke="#9cbcdf" d="M37 7h1" />
<path stroke="#9ebde0" d="M38 7h1" />
<path stroke="#99bbdf" d="M39 7h1M10 26h1" />
<path stroke="#92b2d7" d="M0 8h1M34 11h1M4 16h2M8 17h1M31 19h2M6 30h2M14 31h2M35 32h2M31 34h2" />
<path stroke="#92b2d6" d="M1 8h1" />
<path stroke="#91aed0" d="M2 8h1M5 8h1" />
<path stroke="#91adce" d="M3 8h2" />
<path stroke="#94b3d7" d="M6 8h1" />
<path stroke="#9ebbdb" d="M7 8h1M3 39h1" />
<path stroke="#9fbcdc" d="M8 8h1M33 17h1M7 39h1" />
<path stroke="#99bbde" d="M9 8h1M9 10h1M8 39h1" />
<path stroke="#19882a" d="M15 8h5M12 9h12M15 10h3M21 10h3M22 11h4M23 12h2" />
<path stroke="#8cb2da" d="M32 8h1" />
<path stroke="#93b4d9" d="M33 8h1M9 31h1" />
<path stroke="#94b4d8" d="M34 8h1M1 11h4M10 31h3M16 31h1" />
<path stroke="#95b5d9" d="M35 8h1M5 11h1M8 38h1" />
<path stroke="#98b9de" d="M36 8h1M6 11h1M32 14h1" />
<path stroke="#97b9de" d="M38 8h1M37 15h1M1 20h1M5 21h1M12 32h1M32 36h1M10 38h1" />
<path stroke="#b9c1ca" d="M0 9h5M34 9h1M0 10h5M34 10h1M8 16h1M6 29h2M36 31h1M31 33h2" />
<path stroke="#b8c1cb" d="M5 9h1" />
<path stroke="#b3bfcc" d="M6 9h1M33 9h1M35 10h1M37 31h1M33 33h1" />
<path stroke="#b4c0cd" d="M7 9h1" />
<path stroke="#b1bfd0" d="M8 9h1M33 18h1" />
<path stroke="#94b5da" d="M9 9h1" />
<path stroke="#8eb3db" d="M10 9h1M33 14h1M38 15h1M38 17h2M34 19h1M2 20h1M4 23h1M13 32h1M28 36h1M33 36h2M9 38h1M39 38h1M35 39h1" />
<path stroke="#91b2d7" d="M32 9h1M36 10h1M38 31h1M34 33h1" />
<path stroke="#b4bfcd" d="M35 9h1" />
<path stroke="#93b4d8" d="M36 9h1" />
<path stroke="#b5c0cc" d="M5 10h1" />
<path stroke="#9ab6d6" d="M6 10h1" />
<path stroke="#96b5d9" d="M7 10h1M2 39h1" />
<path stroke="#9dbbdb" d="M8 10h1" />
<path stroke="#90b2d7" d="M32 10h1M29 33h1" />
<path stroke="#b2bfcd" d="M33 10h1M30 33h1" />
<path stroke="#92b3d8" d="M0 11h1M2 15h1M4 29h1M13 31h1" />
<path stroke="#8c4418" d="M12 11h3M18 11h3M11 12h1M15 12h1M17 12h1M21 12h1M11 13h1M15 13h1M17 13h1M21 13h1M11 14h1M15 14h1M17 14h1M21 14h1M27 14h2M11 15h1M15 15h1M17 15h1M21 15h1M23 15h6M11 16h1M15 16h1M17 16h1M21 16h1M27 16h2M12 17h3M17 17h1M21 17h1M18 18h3" />
<path stroke="#8ab0d9" d="M32 11h1M36 11h1M2 16h1M6 17h1M4 30h1M38 32h1M29 34h1M34 34h1" />
<path stroke="#91b2d8" d="M33 11h1M35 11h1M3 16h1M7 17h1M30 19h1M33 19h1M5 30h1M37 32h1M30 34h1M33 34h1" />
<path stroke="#96b9de" d="M1 12h1M1 13h1M38 16h1M35 19h1M6 22h1M3 23h1M10 23h1M3 26h1M3 28h1M11 34h1M29 36h1M35 36h1M11 37h1M38 38h1" />
<path stroke="#9bbcdf" d="M4 12h1M2 13h1M5 26h1M29 28h1M2 34h1M7 34h1" />
<path stroke="#a7c3e2" d="M5 12h1M6 26h1" />
<path stroke="#abc6e3" d="M6 12h1M8 12h2M11 27h1M13 27h2" />
<path stroke="#acc6e3" d="M7 12h1M12 27h1" />
<path stroke="#aac5e3" d="M3 13h1M3 34h1M6 34h1" />
<path stroke="#9cbbde" d="M2 14h1M39 29h1M17 31h1" />
<path stroke="#e0e8f1" d="M3 14h1" />
<path stroke="#eef1f5" d="M4 14h1" />
<path stroke="#f6f7f8" d="M5 14h1" />
<path stroke="#f8f8f8" d="M6 14h4M10 29h6M31 31h1" />
<path stroke="#bcc7d3" d="M3 15h1" />
<path stroke="#c3cad2" d="M4 15h2M10 30h6" />
<path stroke="#c4cbd2" d="M6 15h1M37 30h1" />
<path stroke="#c8cdd1" d="M7 15h1" />
<path stroke="#c9cdd0" d="M8 15h2M7 28h1M31 32h1" />
<path stroke="#a6c3e2" d="M32 15h1" />
<path stroke="#98b4d6" d="M6 16h1" />
<path stroke="#b4bfcc" d="M7 16h1" />
<path stroke="#9fbee0" d="M32 16h1" />
<path stroke="#96b8dd" d="M39 16h1M14 33h3" />
<path stroke="#ff8a00" d="M10 17h1M23 17h4M16 18h1M22 18h2M26 18h2M8 19h8M21 19h5M27 19h2M7 20h2M13 20h12M26 20h1M28 20h1M7 21h1M9 21h4M17 21h7M25 21h4M8 22h2M13 22h1M25 22h2M14 23h1M24 23h2M15 24h1M24 24h1M16 25h1M23 25h1M16 26h1M22 26h1M17 27h1M21 27h1M18 28h3" />
<path stroke="#adc4df" d="M32 17h1" />
<path stroke="#9bbbde" d="M34 17h1M4 27h1" />
<path stroke="#99bade" d="M36 17h1" />
<path stroke="#90b4dc" d="M37 17h1" />
<path stroke="#c1c9d2" d="M31 18h1" />
<path stroke="#b6c2ce" d="M32 18h1" />
<path stroke="#9dbbdc" d="M34 18h1M4 28h1" />
<path stroke="#ff0000" d="M15 22h2M16 23h3M22 23h1M31 23h5M17 24h1M21 24h2M29 24h8M20 25h2M28 25h4M18 26h3M27 26h4M34 26h4M26 27h3M32 27h7M25 28h3M30 28h5M19 29h3M23 29h5M29 29h4M24 30h7" />
<path stroke="#fc809a" d="M19 23h3M18 24h3M18 25h2" />
<path stroke="#8ab0da" d="M7 25h1M9 25h1" />
<path stroke="#8db2db" d="M2 26h1M2 28h1M12 34h1M10 37h1" />
<path stroke="#a1bee0" d="M7 26h1" />
<path stroke="#9fbcdf" d="M8 26h1M38 26h2M0 36h1" />
<path stroke="#9ebcdf" d="M9 26h1M7 35h1M0 39h1" />
<path stroke="#8bb0da" d="M1 27h1" />
<path stroke="#95b7dd" d="M2 27h1" />
<path stroke="#acc4df" d="M5 27h1" />
<path stroke="#e3eaf1" d="M6 27h1" />
<path stroke="#eceff4" d="M7 27h1" />
<path stroke="#edf0f5" d="M8 27h1" />
<path stroke="#eaeff7" d="M9 27h1" />
<path stroke="#adc8e4" d="M15 27h1" />
<path stroke="#89b0d9" d="M24 27h1M23 28h2" />
<path stroke="#e7eef6" d="M39 27h1" />
<path stroke="#b8c3cf" d="M5 28h1" />
<path stroke="#c7cbd0" d="M6 28h1" />
<path stroke="#d1d5d7" d="M8 28h1" />
<path stroke="#f7f8f9" d="M9 28h1" />
<path stroke="#f6f9fc" d="M10 28h1" />
<path stroke="#adc7e4" d="M35 28h1" />
<path stroke="#b9cfe8" d="M36 28h1M38 28h1" />
<path stroke="#bbd0e8" d="M37 28h1" />
<path stroke="#b3bfcd" d="M5 29h1" />
<path stroke="#c3cad1" d="M8 29h1" />
<path stroke="#f0f1f2" d="M9 29h1" />
<path stroke="#f0f2f6" d="M16 29h1" />
<path stroke="#bdd0e7" d="M17 29h1" />
<path stroke="#f3f7fb" d="M34 29h1" />
<path stroke="#edf1f5" d="M35 29h1" />
<path stroke="#ecf0f4" d="M36 29h1" />
<path stroke="#ebf0f5" d="M37 29h1" />
<path stroke="#dde6f3" d="M38 29h1M29 31h1" />
<path stroke="#9ab6d7" d="M8 30h1" />
<path stroke="#bdc7d3" d="M9 30h1" />
<path stroke="#c8cfd8" d="M16 30h1" />
<path stroke="#e1e8f2" d="M17 30h1" />
<path stroke="#e7eef7" d="M18 30h1" />
<path stroke="#ffffff" d="M22 30h1M31 30h2M19 31h5M18 32h7M18 33h7M20 34h6M14 35h1M16 35h4M21 35h6M4 36h2M18 36h2M21 36h6M14 37h1M16 37h4M24 37h3M18 38h8M14 39h1M16 39h9" />
<path stroke="#f9f9fa" d="M33 30h1" />
<path stroke="#f2f3f4" d="M34 30h1" />
<path stroke="#d0d4d7" d="M35 30h1" />
<path stroke="#c9cdd1" d="M36 30h1" />
<path stroke="#a3bddd" d="M38 30h1" />
<path stroke="#8db2da" d="M8 31h1" />
<path stroke="#99b9de" d="M28 31h1" />
<path stroke="#f5f7f8" d="M30 31h1" />
<path stroke="#f2f3f3" d="M32 31h1" />
<path stroke="#d0d3d7" d="M33 31h1" />
<path stroke="#c3c9d1" d="M34 31h1" />
<path stroke="#bbc3cc" d="M35 31h1" />
<path stroke="#a2bddd" d="M29 32h1" />
<path stroke="#c4cad3" d="M30 32h1" />
<path stroke="#c8cbcf" d="M32 32h1" />
<path stroke="#bbc2cb" d="M33 32h1" />
<path stroke="#99b5d5" d="M34 32h1" />
<path stroke="#96b8de" d="M13 33h1" />
<path stroke="#adc6e4" d="M2 35h1" />
<path stroke="#ebf0f8" d="M3 35h1" />
<path stroke="#f6f8fb" d="M5 35h1M6 36h1" />
<path stroke="#eaf0f7" d="M6 35h1" />
<path stroke="#adc5e4" d="M1 36h1" />
<path stroke="#fefeff" d="M3 36h1" />
<path stroke="#adc5e3" d="M7 36h1" />
<path stroke="#f8f8f9" d="M3 37h3" />
<path stroke="#f7f7f9" d="M6 37h1" />
<path stroke="#e2e8f2" d="M7 37h1" />
<path stroke="#9ab9dd" d="M8 37h1" />
<path stroke="#f2f6fb" d="M0 38h1" />
<path stroke="#ecf1f6" d="M1 38h1" />
<path stroke="#cad1d9" d="M2 38h1" />
<path stroke="#c5cbd3" d="M3 38h4" />
<path stroke="#bec8d4" d="M7 38h1" />
<path stroke="#9dbbde" d="M1 39h1" />
<path stroke="#a0bcdb" d="M4 39h3" />
</svg>