<svg xmlns="http://www.w3.org/2000/svg" viewBox="0 -0.5 40 40" shape-rendering="crispEdges">
<metadata>Made with Pixels to Svg https://codepen.io/shshaw/pen/XbxvNj</metadata>
<path stroke="#75b1ef" d="M0 0h10M13 0h2M18 0h5M27 0h1M29 0h3M34 0h6M0 1h4M6 1h3M14 1h1M18 1h3M27 1h5M34 1h6M0 2h4M6 2h4M14 2h2M19 2h2M26 2h13M0 3h11M15 3h1M19 3h1M24 3h7M32 3h7M0 4h7M8 4h4M23 4h15M0 5h13M22 5h15M0 6h4M6 6h7M22 6h7M30 6h4M35 6h2M0 7h2M6 7h1M8 7h3M36 7h1M0 8h6M0 9h3M4 9h2M32 9h1M34 9h6M0 10h10M26 10h7M34 10h1M36 10h1M38 10h1M0 11h1M7 11h1M9 11h1M27 11h2M31 11h2M0 12h1M7 12h3M28 12h1M31 12h2M0 13h1M8 13h3M28 13h2M31 13h3M0 14h6M8 14h3M29 14h6M0 15h6M7 15h3M29 15h6M0 16h5M7 16h2M29 16h6M0 17h5M7 17h2M29 17h6M0 18h5M7 18h1M29 18h6M0 19h5M30 19h2M0 20h3M4 20h1M30 20h2M0 21h3M4 21h1M30 21h2M0 22h2M4 22h1M29 22h4M0 23h2M4 23h2M11 23h1M27 23h5M33 23h1M0 24h1M4 24h2M8 24h1M10 24h4M26 24h2M29 24h3M33 24h2M4 25h2M8 25h1M11 25h4M25 25h3M30 25h2M33 25h2M4 26h2M8 26h1M12 26h3M24 26h4M32 26h1M34 26h1M26 27h2M32 27h1M34 27h1M32 28h1M32 29h1M0 30h1M0 31h1M17 31h1" />
<path stroke="#000000" d="M10 0h1M12 0h1M15 0h1M17 0h1M23 0h1M26 0h1M9 1h1M13 1h1M15 1h1M17 1h1M21 1h2M26 1h1M10 2h1M13 2h1M16 2h1M18 2h1M21 2h1M24 2h2M11 3h1M14 3h1M16 3h1M18 3h1M20 3h1M23 3h1M12 4h1M15 4h1M19 4h1M22 4h1M13 5h1M21 5h1M13 6h1M21 6h1M13 7h1M22 7h1M12 8h1M23 8h1M11 9h3M18 9h4M24 9h1M10 10h1M22 10h1M25 10h1M10 11h1M13 11h2M18 11h3M26 11h1M10 12h1M12 12h1M15 12h1M17 12h1M21 12h1M26 12h2M11 13h1M15 13h1M17 13h1M21 13h1M27 13h1M11 14h1M15 14h1M17 14h1M21 14h1M28 14h1M10 15h2M14 15h2M17 15h1M19 15h3M28 15h1M9 16h1M11 16h1M14 16h2M17 16h1M19 16h3M23 16h4M28 16h1M9 17h1M12 17h1M14 17h4M19 17h4M27 17h2M8 18h8M17 18h1M20 18h2M24 18h2M28 18h1M7 19h1M16 19h5M26 19h1M29 19h1M6 20h1M9 20h4M25 20h1M27 20h1M29 20h1M6 21h1M8 21h1M13 21h4M24 21h1M29 21h1M7 22h1M10 22h3M14 22h1M17 22h8M27 22h2M8 23h2M12 23h2M15 23h1M23 23h1M26 23h1M14 24h1M16 24h8M25 24h1M15 25h1M17 25h1M22 25h1M24 25h1M15 26h1M17 26h1M21 26h1M23 26h1M16 27h1M18 27h3M22 27h1M17 28h1M21 28h2M19 29h1M22 29h1M19 30h1M23 30h1M18 31h1M24 31h5M17 32h1M25 32h1M29 32h1M16 33h1M26 33h1M29 33h1M15 34h1M27 34h3M14 35h1M17 35h1M19 35h1M23 35h1M25 35h1M29 35h5M13 36h1M18 36h1M24 36h1M31 36h1M34 36h1M12 37h1M20 37h1M22 37h1M32 37h1M34 37h1M12 38h1M16 38h1M21 38h1M24 38h1M26 38h1M28 38h1M33 38h1M35 38h1M12 39h1M15 39h2M19 39h1M25 39h1M28 39h2M33 39h1M35 39h1" />
<path stroke="#f76c6c" d="M11 0h1M16 0h1M24 0h2M10 1h3M16 1h1M24 1h2M11 2h1" />
<path stroke="#ffffff" d="M28 0h1M32 0h2M4 1h2M32 1h2M4 2h2M31 3h1M7 4h1M4 6h1M29 6h1M33 7h1M6 8h1M8 11h1M13 12h2M18 12h3M12 13h3M18 13h3M30 13h1M12 14h3M18 14h3M12 15h2M18 15h1M12 16h2M18 16h1M13 17h1M18 17h1M18 18h2M15 22h2M16 23h7M18 25h4M18 26h3" />
<path stroke="#f9a3a3" d="M23 1h1M12 2h1M17 2h1M22 2h2M12 3h2M17 3h1M21 3h2M13 4h2M16 4h3M20 4h2M14 5h7M14 6h7M14 7h8M13 8h10M14 9h4M22 9h2M11 10h11M23 10h2M11 11h2M15 11h3M21 11h5M11 12h1M16 12h1M22 12h4M16 13h1M22 13h5M16 14h1M22 14h6M16 15h1M22 15h6M16 16h1M22 16h1M27 16h1M20 30h3M19 31h5M18 32h7M17 33h9M16 34h11M15 35h2M18 35h1M20 35h3M24 35h1M26 35h3M14 36h4M19 36h5M25 36h6M13 37h7M21 37h1M23 37h9M13 38h3M17 38h4M22 38h2M25 38h1M27 38h1M29 38h4M13 39h2M17 39h2M20 39h5M26 39h2M30 39h3" />
<path stroke="#75b2ef" d="M39 2h1M39 3h1M38 4h2M37 5h3M5 6h1M37 6h3M3 7h2M7 7h1M37 7h3M37 8h3M33 19h1M32 23h1M28 24h1M32 24h1M28 25h1M28 26h2M31 26h1M28 27h3M28 28h1M30 28h1" />
<path stroke="#75b3ef" d="M34 6h1M35 7h1M33 9h1M29 11h2M29 12h2M39 13h1M38 14h2" />
<path stroke="#79b4f0" d="M2 7h1M1 13h1" />
<path stroke="#8ec0f2" d="M5 7h1M23 7h10M12 27h4" />
<path stroke="#e5f1fc" d="M11 7h1M16 28h1M23 28h1" />
<path stroke="#d5e8fb" d="M12 7h1" />
<path stroke="#8ec1f2" d="M34 7h1" />
<path stroke="#e0eefc" d="M7 8h2M10 8h1M24 29h1" />
<path stroke="#d5e7fb" d="M9 8h1M25 29h1M27 30h1" />
<path stroke="#e5f0fc" d="M11 8h1M23 29h1" />
<path stroke="#cbe2f9" d="M24 8h12M3 12h2M12 28h1" />
<path stroke="#bfdbf8" d="M36 8h1" />
<path stroke="#89bcf2" d="M3 9h1" />
<path stroke="#8dbff2" d="M6 9h5M25 9h7M12 29h1M24 30h1" />
<path stroke="#ae60be" d="M33 10h1M35 10h1M37 10h1M39 10h1M33 11h7M33 12h7M36 14h2M35 15h1M37 15h1M35 16h1M37 16h1M35 17h3M36 18h2M36 19h1M32 20h8M32 21h8M35 22h1M38 22h1M35 24h4M36 25h3M35 26h1M37 26h2M35 27h1M37 27h1M35 28h1M35 29h1" />
<path stroke="#7ab4f0" d="M1 11h1M6 11h1M25 27h1" />
<path stroke="#8bbdf2" d="M2 11h1M5 11h1M26 28h1" />
<path stroke="#90c0f2" d="M3 11h2M32 30h1" />
<path stroke="#85baf1" d="M1 12h1" />
<path stroke="#bbd9f8" d="M2 12h1M5 12h1" />
<path stroke="#86bbf1" d="M6 12h1" />
<path stroke="#8abdf2" d="M2 13h1M5 13h1M5 27h1M24 27h1" />
<path stroke="#8ebff2" d="M3 13h1" />
<path stroke="#8fc0f2" d="M4 13h1M23 27h1" />
<path stroke="#729d71" d="M6 13h1M3 28h1M27 28h1" />
<path stroke="#547853" d="M7 13h1M7 14h1M6 16h1M6 17h1M6 18h1M6 19h1M6 22h1M7 23h1M1 24h1M7 24h1M0 25h1M2 25h1M7 25h1M10 25h1M32 25h1M0 26h1M2 26h1M7 26h1M9 26h1M33 26h1M0 27h1M2 27h1M33 27h1M38 27h1M0 28h1M2 28h1M34 28h1M38 28h1M0 29h1M34 29h1M38 29h1M1 30h1M7 30h1M10 30h1M13 30h1M38 30h1M1 31h1M3 31h1M5 31h1M8 31h1M10 31h1M12 31h1M15 31h1M38 31h1M1 32h1M3 32h1M5 32h1M8 32h3M13 32h1M15 32h1M1 33h1M5 33h1M7 33h1M9 33h2M13 33h1M15 33h1M31 33h1M33 33h1M35 33h1M1 34h1M5 34h1M7 34h1M10 34h1M12 34h1M31 34h1M1 35h1M4 35h1M6 35h1M10 35h1M12 35h1M2 36h1M4 36h1M6 36h1M10 36h1M2 37h1M4 37h1M6 37h1" />
<path stroke="#9652a6" d="M34 13h5M36 22h2M34 23h6" />
<path stroke="#6d996c" d="M6 14h1M6 15h1M5 16h1M5 17h1M5 18h1M5 19h1M3 20h1M5 20h1M3 21h1M5 21h1M2 22h2M5 22h1M2 23h2M6 23h1M10 23h1M2 24h2M6 24h1M9 24h1M1 25h1M3 25h1M6 25h1M9 25h1M29 25h1M35 25h1M1 26h1M3 26h1M6 26h1M10 26h2M30 26h1M36 26h1M39 26h1M1 27h1M3 27h1M31 27h1M36 27h1M1 28h1M29 28h1M31 28h1M33 28h1M36 28h2M1 29h2M31 29h1M33 29h1M36 29h2M39 29h1M2 30h1M6 30h1M8 30h2M11 30h2M36 30h2M39 30h1M2 31h1M4 31h1M6 31h2M9 31h1M11 31h1M13 31h2M16 31h1M36 31h2M0 32h1M2 32h1M4 32h1M6 32h2M11 32h2M14 32h1M16 32h1M36 32h2M0 33h1M2 33h3M6 33h1M8 33h1M11 33h2M14 33h1M30 33h1M32 33h1M34 33h1M0 34h1M2 34h3M6 34h1M8 34h2M11 34h1M13 34h2M30 34h1M0 35h1M2 35h2M5 35h1M7 35h3M11 35h1M13 35h1M0 36h2M3 36h1M5 36h1M7 36h3M11 36h1M0 37h2M3 37h1M5 37h1M7 37h1M0 38h2" />
<path stroke="#723b80" d="M35 14h1M36 16h1M38 16h1" />
<path stroke="#ac60be" d="M36 15h1M32 19h1M34 19h1" />
<path stroke="#9552a6" d="M38 15h2M35 19h1M37 19h1M33 22h2M39 22h1M39 24h1M39 25h1M39 27h1M39 28h1" />
<path stroke="#ff8a00" d="M10 16h1M10 17h2M23 17h4M16 18h1M22 18h2M26 18h2M8 19h8M21 19h5M27 19h2M7 20h2M13 20h12M26 20h1M28 20h1M7 21h1M9 21h4M17 21h7M25 21h4M8 22h2M13 22h1M25 22h2M14 23h1M24 23h2M15 24h1M24 24h1M16 25h1M23 25h1M16 26h1M22 26h1M17 27h1M21 27h1M18 28h3" />
<path stroke="#733b80" d="M39 16h1M38 17h2M38 18h2M38 19h2" />
<path stroke="#713b80" d="M35 18h1" />
<path stroke="#597c58" d="M4 27h1M3 30h1M5 30h1" />
<path stroke="#88ac87" d="M6 27h1M8 27h1M10 27h2M6 29h1M30 32h1M32 32h1" />
<path stroke="#739173" d="M7 27h1M9 27h1M31 32h1M33 32h1" />
<path stroke="#8fb18e" d="M4 28h1" />
<path stroke="#afc0ae" d="M5 28h1" />
<path stroke="#c7d8c7" d="M6 28h1" />
<path stroke="#beccbe" d="M7 28h1M10 28h1M13 28h1M31 31h1M33 31h1" />
<path stroke="#c8d8c7" d="M8 28h2M11 28h1M32 31h1" />
<path stroke="#cddccd" d="M14 28h1" />
<path stroke="#e1eefc" d="M15 28h1" />
<path stroke="#d6e8fb" d="M24 28h1" />
<path stroke="#a1caf4" d="M25 28h1" />
<path stroke="#678766" d="M3 29h1" />
<path stroke="#a9c3a9" d="M4 29h1" />
<path stroke="#829c81" d="M5 29h1" />
<path stroke="#729071" d="M7 29h1M10 29h1M13 29h1" />
<path stroke="#87ab86" d="M8 29h2M11 29h1M16 30h3" />
<path stroke="#98b797" d="M14 29h1" />
<path stroke="#c9d4c9" d="M15 29h1" />
<path stroke="#e4f0fc" d="M16 29h1" />
<path stroke="#e3ece3" d="M17 29h1" />
<path stroke="#dee5de" d="M18 29h1" />
<path stroke="#ee9b9b" d="M20 29h2M26 32h3M27 33h2M32 36h2M33 37h1M34 38h1M34 39h1" />
<path stroke="#d0e5fa" d="M26 29h1" />
<path stroke="#9ab99a" d="M27 29h1" />
<path stroke="#90c1f2" d="M28 29h1" />
<path stroke="#84a983" d="M29 29h1M34 30h1" />
<path stroke="#5a7d59" d="M30 29h1M35 30h1M35 32h1" />
<path stroke="#7da47c" d="M4 30h1" />
<path stroke="#719c70" d="M14 30h1" />
<path stroke="#6c8b6b" d="M15 30h1" />
<path stroke="#9ec8f4" d="M25 30h1" />
<path stroke="#cfe4fa" d="M26 30h1" />
<path stroke="#dfe9de" d="M28 30h1" />
<path stroke="#d3e1d3" d="M29 30h1" />
<path stroke="#9bba9b" d="M30 30h1" />
<path stroke="#759274" d="M31 30h1" />
<path stroke="#be7fcb" d="M33 30h1" />
<path stroke="#dee8dd" d="M29 31h1" />
<path stroke="#d0e4fa" d="M30 31h1" />
<path stroke="#b6ccb6" d="M34 31h1" />
<path stroke="#688867" d="M35 31h1" />
<path stroke="#a94833" d="M39 31h1M38 32h2M36 33h4M32 34h5M34 35h1M37 35h3M12 36h1M35 36h5M8 37h4M35 37h2M2 38h5M9 38h3M36 38h4M0 39h9M37 39h3" />
<path stroke="#83a882" d="M34 32h1" />
<path stroke="#943520" d="M37 34h3M35 35h2M37 37h3M7 38h2M9 39h3M36 39h1" />
</svg>