<svg xmlns="http://www.w3.org/2000/svg" viewBox="0 -0.5 40 40" shape-rendering="crispEdges">
<metadata>Made with Pixels to Svg https://codepen.io/shshaw/pen/XbxvNj</metadata>
<path stroke="#b0b8bb" d="M0 0h1M0 1h1M0 2h1M0 3h1M0 4h1M0 5h1M0 6h1M0 7h1M0 8h1M0 9h1M0 10h1M0 11h1M0 12h1M0 13h1M0 14h1M0 15h1M0 16h1M0 17h1M0 18h1M0 19h1M0 20h1M0 21h1M0 22h1M0 23h1M0 24h1M0 25h1M0 26h1M0 27h1M0 28h1M0 29h1M0 30h1M0 31h1M0 32h1M0 33h1M0 34h1M0 35h1M0 36h1M0 37h1M0 38h1M0 39h1" />
<path stroke="#b1b9bc" d="M1 0h1M1 1h1M1 2h1M1 3h1M1 4h1M1 5h1M1 6h1M1 7h1M1 8h1M1 9h1M1 10h1M1 11h1M1 12h1M1 13h1M1 14h1M1 15h1M1 16h1M1 17h1M1 18h1M1 19h1M1 20h1M1 21h1M1 22h1M1 23h1M1 24h1M1 25h1M1 26h1M1 27h1M15 27h1M1 28h1M15 28h1M1 29h1M15 29h1M1 30h1M15 30h1M1 31h1M15 31h1M1 32h1M1 33h1M1 34h1M1 35h1M1 36h1M1 37h1M1 38h1M1 39h1" />
<path stroke="#b6bec1" d="M2 0h1M15 0h1M2 1h1M15 1h1M2 2h1M15 2h1M2 3h1M2 4h1M2 5h1M2 6h1M2 7h1M2 8h1M2 9h1M2 10h1M2 11h1M2 12h1M2 13h1M2 14h1M2 15h1M2 16h1M2 17h1M2 18h1M2 19h1M2 20h1M2 21h1M2 22h1M2 23h1M2 24h1M2 25h1M14 25h1M2 26h1M14 26h1M2 27h1M14 27h1M2 28h1M14 28h1M2 29h1M14 29h1M2 30h1M14 30h1M2 31h1M14 31h1M2 32h1M14 32h1M2 33h1M14 33h1M2 34h1M2 35h1M2 36h1M2 37h1M2 38h1M2 39h1" />
<path stroke="#c1cbcf" d="M3 0h1M14 0h1M3 1h1M14 1h1M3 2h1M14 2h1M3 3h1M3 4h1M3 5h1M3 6h1M3 7h1M3 8h1M3 9h1M3 10h1M3 11h1M3 12h1M3 13h1M3 14h1M3 15h1M3 16h1M3 17h1M3 18h1M3 19h1M3 20h1M3 21h1M3 22h1M3 23h1M3 24h1M13 24h1M3 25h1M13 25h1M3 26h1M13 26h1M3 27h1M13 27h1M3 28h1M13 28h1M3 29h1M13 29h1M3 30h1M13 30h1M3 31h1M13 31h1M3 32h1M13 32h1M3 33h1M13 33h1M3 34h1M13 34h1M3 35h1M3 36h1M3 37h1M3 38h1M3 39h1" />
<path stroke="#c6d0d4" d="M4 0h10M4 1h10M4 2h10M4 3h8M4 4h7M4 5h7M4 6h6M4 7h6M4 8h7M4 9h7M4 10h6M4 11h6M4 12h6M4 13h7M4 14h7M4 15h6M4 16h5M4 17h5M4 18h4M4 19h3M4 20h2M4 21h2M4 22h3M4 23h4M10 23h2M4 24h9M4 25h9M4 26h9M4 27h9M4 28h9M4 29h9M4 30h9M4 31h9M4 32h9M4 33h9M4 34h9M4 35h9M4 36h8M4 37h8M4 38h7M4 39h7" />
<path stroke="#afb8bc" d="M16 0h1M16 1h1M16 2h1" />
<path stroke="#9baeb9" d="M17 0h1M17 1h1M17 2h1" />
<path stroke="#5795b4" d="M18 0h1M18 1h1M18 2h1" />
<path stroke="#1d89b2" d="M19 0h1M19 1h1M19 2h1" />
<path stroke="#1488b2" d="M20 0h7M20 1h8M20 2h8M22 3h7M26 4h5M28 5h5M29 6h6M30 7h7M34 8h6M35 9h5M37 10h3M38 11h2" />
<path stroke="#1388b2" d="M27 0h1M28 2h1M21 3h1M29 3h1M31 4h1M33 5h1M35 6h1M37 7h1" />
<path stroke="#127fab" d="M28 0h1" />
<path stroke="#0c6698" d="M29 0h1M30 1h1M38 5h1" />
<path stroke="#06528a" d="M30 0h1" />
<path stroke="#044d87" d="M31 0h1M33 1h1M35 2h1M37 3h1M39 4h1" />
<path stroke="#044c86" d="M32 0h8M34 1h6M36 2h4M38 3h2" />
<path stroke="#1385b0" d="M28 1h1" />
<path stroke="#1079a6" d="M29 1h1M32 14h1" />
<path stroke="#095a90" d="M31 1h1M33 2h1M35 3h1M37 4h1" />
<path stroke="#05518a" d="M32 1h1M34 2h1M36 3h1M38 4h1" />
<path stroke="#1285b0" d="M29 2h1M31 3h1M33 4h1M35 5h1M37 6h1" />
<path stroke="#117fab" d="M30 2h1M32 3h1M34 4h1M36 5h1M38 6h1" />
<path stroke="#0f76a4" d="M31 2h1" />
<path stroke="#0b6598" d="M32 2h1" />
<path stroke="#251205" d="M12 3h3M17 3h4M11 4h2M16 4h2M21 4h1M11 5h2M15 5h2M19 5h2M25 5h1M10 6h1M13 6h1M18 6h2M22 6h6M10 7h1M13 7h2M16 7h4M21 7h4M11 8h1M15 8h2M28 8h2M25 9h2M28 9h2M25 10h3M29 10h1M26 11h3M26 12h4M25 13h2M29 13h2M25 14h1M27 14h1M30 14h1M28 15h1M30 15h2M28 16h1M31 16h1M28 17h3M29 18h3M31 19h1M30 20h1M30 21h1M29 22h1M27 23h1M29 23h1M27 24h1M29 24h1M27 25h2" />
<path stroke="#381c08" d="M15 3h1M13 4h2M20 4h1M23 4h3M13 5h1M23 5h2M26 5h2M11 6h2M15 6h1M20 6h2M28 6h1M11 7h2M15 7h1M20 7h1M28 7h2M23 8h1M25 8h3M30 8h1M24 9h1M27 9h1M30 9h1M28 10h1M30 10h1M29 11h2M30 12h1M27 13h2M31 13h1M26 14h1M28 14h2M31 14h1M29 15h1M29 16h2M31 17h1M30 19h1M31 20h1M30 22h1M28 23h1M28 24h1" />
<path stroke="#4d260a" d="M16 3h1M15 4h1M22 4h1M14 5h1M18 5h1M21 5h2M14 6h1M17 6h1M25 7h3M24 8h1" />
<path stroke="#1387b2" d="M30 3h1M32 4h1M34 5h1M36 6h1M38 7h2" />
<path stroke="#0f77a4" d="M33 3h1M35 4h1M37 5h1" />
<path stroke="#0b6698" d="M34 3h1M36 4h1" />
<path stroke="#badbe8" d="M18 4h2M17 5h1M16 6h1" />
<path stroke="#0a5e93" d="M39 5h1" />
<path stroke="#117da9" d="M39 6h1" />
<path stroke="#000000" d="M12 8h1M11 9h3M18 9h4M10 10h1M22 10h1M10 11h1M13 11h2M18 11h3M10 12h1M12 12h1M15 12h1M17 12h1M21 12h1M11 13h1M15 13h1M17 13h1M21 13h1M11 14h1M15 14h1M17 14h1M20 14h2M10 15h2M14 15h2M17 15h1M19 15h3M9 16h1M11 16h1M14 16h2M17 16h1M19 16h3M23 16h4M9 17h1M12 17h1M14 17h4M19 17h4M27 17h1M8 18h8M17 18h1M20 18h2M24 18h2M28 18h1M7 19h1M16 19h5M26 19h1M29 19h1M6 20h1M9 20h4M25 20h1M27 20h1M29 20h1M6 21h1M8 21h1M13 21h4M24 21h1M29 21h1M7 22h1M10 22h3M14 22h1M17 22h8M27 22h2M8 23h2M12 23h2M15 23h1M23 23h1M26 23h1M14 24h1M16 24h1M23 24h1M25 24h2M15 25h1M17 25h1M22 25h1M24 25h1M15 26h1M17 26h1M21 26h1M23 26h1M16 27h1M18 27h3M22 27h1M17 28h1M21 28h2M19 29h1M22 29h1M18 30h2M22 30h2M17 31h2M20 31h2M23 31h1M16 32h2M19 32h1M22 32h1M24 32h1M16 33h3M23 33h4M16 34h2M24 34h1M17 35h2M17 36h2M17 37h2M25 37h1M18 38h2M23 38h2M18 39h1M22 39h2" />
<path stroke="#ffffff" d="M13 8h2M17 8h6M14 9h4M22 9h2M11 10h11M23 10h2M11 11h2M15 11h3M21 11h5M11 12h1M16 12h1M22 12h4M16 13h1M22 13h3M14 14h1M16 14h1M19 14h1M22 14h3M16 15h1M22 15h6M16 16h1M22 16h1M27 16h1M20 29h2M20 30h2M19 31h1M22 31h1M18 32h1M23 32h1" />
<path stroke="#188ab3" d="M31 8h2" />
<path stroke="#1589b2" d="M33 8h1M36 10h1M39 12h1" />
<path stroke="#3998bf" d="M31 9h1" />
<path stroke="#3b9ac0" d="M32 9h1" />
<path stroke="#268fb8" d="M33 9h1" />
<path stroke="#1689b3" d="M34 9h1" />
<path stroke="#5aa9cd" d="M31 10h1" />
<path stroke="#66b8d9" d="M32 10h1M35 12h1" />
<path stroke="#4aa4c9" d="M33 10h1" />
<path stroke="#2890b8" d="M34 10h1M37 12h1" />
<path stroke="#198ab4" d="M35 10h1" />
<path stroke="#4888b1" d="M31 11h1" />
<path stroke="#65aecf" d="M32 11h1" />
<path stroke="#60afd1" d="M33 11h1" />
<path stroke="#4ba2c7" d="M34 11h1" />
<path stroke="#3c9ac1" d="M35 11h1" />
<path stroke="#278fb8" d="M36 11h1M39 13h1" />
<path stroke="#1789b3" d="M37 11h1" />
<path stroke="#c3d9f9" d="M13 12h2M18 12h3M12 13h3M18 13h3M12 14h2M18 14h1M12 15h2M18 15h1M12 16h2M18 16h1M13 17h1M18 17h1M18 18h2" />
<path stroke="#226799" d="M31 12h1" />
<path stroke="#3a77a3" d="M32 12h1" />
<path stroke="#4989b1" d="M33 12h1M35 14h1" />
<path stroke="#60aacd" d="M34 12h1" />
<path stroke="#4ba5c9" d="M36 12h1" />
<path stroke="#198ab3" d="M38 12h1" />
<path stroke="#136597" d="M32 13h1" />
<path stroke="#246294" d="M33 13h1" />
<path stroke="#4887af" d="M34 13h1" />
<path stroke="#69b2d4" d="M35 13h1" />
<path stroke="#6abbdc" d="M36 13h1" />
<path stroke="#50a8cb" d="M37 13h1" />
<path stroke="#3d9bc1" d="M38 13h1" />
<path stroke="#106799" d="M33 14h1" />
<path stroke="#24699a" d="M34 14h1" />
<path stroke="#66aed0" d="M36 14h1" />
<path stroke="#6ab7d8" d="M37 14h1" />
<path stroke="#67b9da" d="M38 14h1" />
<path stroke="#51a9cd" d="M39 14h1" />
<path stroke="#1282ad" d="M32 15h1M34 16h1" />
<path stroke="#117eaa" d="M33 15h1M33 16h1" />
<path stroke="#1377a5" d="M34 15h1" />
<path stroke="#226f9e" d="M35 15h1" />
<path stroke="#3978a4" d="M36 15h1" />
<path stroke="#4e8eb5" d="M37 15h1" />
<path stroke="#6ab4d5" d="M38 15h1" />
<path stroke="#74c5e4" d="M39 15h1" />
<path stroke="#ff8a00" d="M10 16h1M10 17h2M23 17h4M16 18h1M22 18h2M26 18h2M8 19h8M21 19h5M27 19h2M7 20h2M13 20h12M26 20h1M28 20h1M7 21h1M9 21h4M17 21h7M25 21h4M8 22h2M13 22h1M25 22h2M14 23h1M24 23h2M15 24h1M24 24h1M16 25h1M23 25h1M16 26h1M22 26h1M17 27h1M21 27h1M18 28h3" />
<path stroke="#0f75a4" d="M32 16h1M34 17h1" />
<path stroke="#1179a6" d="M35 16h1" />
<path stroke="#14699a" d="M36 16h1" />
<path stroke="#246a9a" d="M37 16h1" />
<path stroke="#498ab2" d="M38 16h1" />
<path stroke="#6ab2d4" d="M39 16h1" />
<path stroke="#095a8f" d="M32 17h1M34 18h1" />
<path stroke="#0b6597" d="M33 17h1" />
<path stroke="#107ca8" d="M35 17h1" />
<path stroke="#117ca8" d="M36 17h1" />
<path stroke="#1377a4" d="M37 17h1" />
<path stroke="#2371a0" d="M38 17h1" />
<path stroke="#397faa" d="M39 17h1" />
<path stroke="#044c87" d="M32 18h1M34 19h1M38 21h2" />
<path stroke="#055089" d="M33 18h1M35 19h1M37 20h1" />
<path stroke="#0b6497" d="M35 18h1M37 19h1" />
<path stroke="#0f75a3" d="M36 18h1M38 19h1" />
<path stroke="#107ba8" d="M37 18h1M39 19h1" />
<path stroke="#127ca9" d="M38 18h1" />
<path stroke="#157eaa" d="M39 18h1" />
<path stroke="#044b86" d="M32 19h2M32 20h2M31 21h2M37 21h1M31 22h1M37 22h3M37 23h3M37 24h3M37 25h3M38 26h2M39 27h1" />
<path stroke="#085a8f" d="M36 19h1" />
<path stroke="#daebf0" d="M34 20h1M34 21h2M33 22h1M35 22h1M31 23h1M34 23h1M30 24h1M35 24h1M31 25h1M29 26h1M32 26h2M38 28h1M37 29h1M36 30h1" />
<path stroke="#677377" d="M35 20h1M36 21h1M32 22h1M36 22h1M32 23h2M33 24h2M30 25h1M34 25h2M34 26h1M33 27h1M33 28h1M34 29h1M39 29h1M34 30h2M38 30h1M35 31h3" />
<path stroke="#8fa6ad" d="M36 20h1M36 23h1M30 26h2M35 26h2M32 27h1M34 27h2M34 28h1M39 28h1M38 29h1M37 30h1" />
<path stroke="#08598f" d="M38 20h1" />
<path stroke="#095d91" d="M39 20h1" />
<path stroke="#98a1a4" d="M33 21h1M34 22h1M36 24h1M36 25h1" />
<path stroke="#ff0000" d="M15 22h2M16 23h3M22 23h1M17 24h1M21 24h2M20 25h2M18 26h3" />
<path stroke="#fc809a" d="M19 23h3M18 24h3M18 25h2" />
<path stroke="#034b86" d="M30 23h1M39 30h1" />
<path stroke="#cad8dd" d="M35 23h1" />
<path stroke="#77868a" d="M31 24h2M32 25h2M37 27h2M36 28h2M35 29h2" />
<path stroke="#033e71" d="M25 25h1" />
<path stroke="#034175" d="M26 25h1" />
<path stroke="#6b7271" d="M29 25h1" />
<path stroke="#033866" d="M24 26h1M28 28h1" />
<path stroke="#033b6a" d="M25 26h1M27 27h1M34 31h1" />
<path stroke="#033d6d" d="M26 26h1M28 26h1" />
<path stroke="#033e6f" d="M27 26h1" />
<path stroke="#8a9ca0" d="M37 26h1M36 27h1M35 28h1" />
<path stroke="#032e52" d="M23 27h1M25 28h1M27 29h1M34 33h1M37 34h1M39 35h1" />
<path stroke="#033158" d="M24 27h1M26 28h1M28 29h1M36 33h1M38 34h1" />
<path stroke="#033661" d="M25 27h1M27 28h1M34 32h1M39 34h1" />
<path stroke="#033966" d="M26 27h1" />
<path stroke="#033b6b" d="M28 27h1M39 33h1" />
<path stroke="#033c6c" d="M29 27h1" />
<path stroke="#033d6e" d="M30 27h1M31 28h1" />
<path stroke="#034074" d="M31 27h1" />
<path stroke="#b4bcc0" d="M16 28h1M16 29h1M16 30h1" />
<path stroke="#505f66" d="M23 28h1M24 29h1M25 30h1M26 31h1M26 32h2" />
<path stroke="#032c4e" d="M24 28h1M26 29h1M28 30h1M32 32h1M33 33h1M36 34h1M38 35h1" />
<path stroke="#033a6a" d="M29 28h1" />
<path stroke="#033b6c" d="M30 28h1" />
<path stroke="#deb56c" d="M32 28h1M31 29h2M30 30h2M29 31h2M28 32h2M27 33h1M25 34h2M24 35h2M23 36h2M21 37h2M20 38h2M19 39h2" />
<path stroke="#a8b2b7" d="M17 29h1M17 30h1" />
<path stroke="#5f6b7a" d="M18 29h1" />
<path stroke="#cfd7dd" d="M23 29h1M24 30h1M25 31h1" />
<path stroke="#032b4c" d="M25 29h1M26 30h2M27 31h2M31 32h1M31 33h2M32 34h4M35 35h3M37 36h3" />
<path stroke="#033663" d="M29 29h1" />
<path stroke="#033a69" d="M30 29h1" />
<path stroke="#cda660" d="M33 29h1M32 30h2M31 31h2M30 32h1M28 33h2M27 34h2M26 35h1M25 36h1M23 37h2M22 38h1M21 39h1" />
<path stroke="#033056" d="M29 30h1M33 32h1" />
<path stroke="#727a7c" d="M16 31h1" />
<path stroke="#cecece" d="M24 31h1M25 32h1M15 34h1M29 34h1M14 35h1M16 35h1M28 35h3M13 36h1M15 36h1M27 36h5M13 37h1M15 37h1M27 37h4M13 38h2M16 38h1M27 38h3M31 38h2M13 39h3M26 39h3M30 39h3" />
<path stroke="#033763" d="M33 31h1" />
<path stroke="#034880" d="M38 31h2" />
<path stroke="#727a7b" d="M15 32h1M15 33h1" />
<path stroke="#da0000" d="M20 32h2M19 33h4M20 35h2M20 36h2M20 37h1" />
<path stroke="#033865" d="M35 32h1" />
<path stroke="#033969" d="M36 32h1" />
<path stroke="#033d6f" d="M37 32h1" />
<path stroke="#033f72" d="M38 32h1" />
<path stroke="#034072" d="M39 32h1" />
<path stroke="#042b4c" d="M30 33h1M31 34h1M32 35h3M33 36h4M33 37h7M34 38h6M34 39h6" />
<path stroke="#032f54" d="M35 33h1" />
<path stroke="#033662" d="M37 33h1" />
<path stroke="#033867" d="M38 33h1" />
<path stroke="#7a8182" d="M14 34h1" />
<path stroke="#c5d7ff" d="M18 34h2M23 34h1M23 35h1" />
<path stroke="#b30101" d="M20 34h2" />
<path stroke="#c5d8ff" d="M22 34h1M19 35h1M22 35h1M19 36h1M22 36h1M19 37h1" />
<path stroke="#515f66" d="M30 34h1" />
<path stroke="#757d7f" d="M13 35h1" />
<path stroke="#d9d9d9" d="M15 35h1M16 36h1M16 37h1M17 38h1M26 38h1M17 39h1" />
<path stroke="#5b6161" d="M27 35h1M26 36h1M26 37h1M25 38h1M25 39h1" />
<path stroke="#505657" d="M31 35h1M14 36h1M32 36h1M12 37h1M14 37h1M31 37h2M12 38h1M15 38h1M30 38h1M33 38h1M12 39h1M16 39h1M24 39h1M29 39h1M33 39h1" />
<path stroke="#767e80" d="M12 36h1" />
<path stroke="#c6d0d5" d="M11 38h1" />
<path stroke="#c4d0d5" d="M11 39h1" />
</svg>