<svg xmlns="http://www.w3.org/2000/svg" viewBox="0 -0.5 40 40" shape-rendering="crispEdges">
<metadata>Made with Pixels to Svg https://codepen.io/shshaw/pen/XbxvNj</metadata>
<path stroke="#00cfcb" d="M0 0h1M2 0h10M13 0h8M23 0h1M30 0h1M32 0h1M34 0h2M37 0h3M0 1h19M20 1h5M28 1h3M32 1h6M39 1h1M0 2h1M2 2h7M10 2h5M24 2h4M29 2h1M31 2h1M33 2h1M35 2h5M0 3h13M26 3h6M35 3h1M37 3h3M0 4h4M6 4h3M10 4h2M27 4h2M30 4h2M34 4h6M0 5h4M6 5h5M28 5h3M36 5h4M0 6h11M29 6h3M36 6h4M0 7h10M29 7h3M36 7h4M0 8h2M3 8h7M30 8h2M36 8h4M0 9h11M30 9h2M36 9h4M0 10h10M30 10h3M36 10h4M0 11h3M5 11h5M30 11h3M36 11h4M0 12h3M5 12h5M30 12h3M36 12h4M0 13h8M9 13h2M30 13h3M36 13h4M0 14h11M29 14h4M39 14h1M0 15h10M31 15h1M37 15h1M39 15h1M0 16h9M38 16h2M0 17h3M4 17h2M29 17h2M33 17h2M36 17h1M38 17h2M0 18h7M36 18h1M38 18h2M5 19h2M30 19h2M36 19h4M0 20h6M30 20h8M31 21h9M31 23h3M38 23h1M10 24h3M39 24h1M13 25h2M25 25h4M24 26h2M11 27h3M38 27h2M7 28h6M23 28h1M0 30h1M34 30h3M15 31h1M8 33h3M33 36h1M38 37h2" />
<path stroke="#d0e1f9" d="M1 0h1M31 0h1M36 0h1M19 1h1M9 2h1M36 3h1M4 4h1M4 5h2M2 8h1M3 11h1M3 12h2M8 13h1M23 17h4M22 18h1M26 18h2M8 19h6M21 19h1M27 19h2M7 20h2M16 20h5M28 20h1M28 21h1M34 24h1M30 26h1M19 27h2M29 27h1M28 28h1M26 34h1M6 35h1M25 35h1M5 36h1M24 37h1M4 38h1" />
<path stroke="#ffffff" d="M12 0h1M38 1h1M1 2h1M32 2h1M34 2h1M32 3h3M5 4h1M9 4h1M29 4h1M33 4h1M4 11h1M14 12h1M20 12h1M34 13h1M12 16h1M18 16h1M3 17h1M13 17h2M18 17h3M18 18h2M9 22h1M11 22h1M9 23h1M11 23h1M13 23h1M15 23h1M13 24h1M15 24h1M17 24h1M19 24h1M21 24h1M18 26h1M20 26h1" />
<path stroke="#ff0000" d="M21 0h2M24 0h6M33 0h1M25 1h3M31 1h1M28 2h1M30 2h1M32 4h1M32 5h1M35 5h1M12 15h1M18 15h1M13 16h2M19 16h2" />
<path stroke="#000000" d="M15 2h9M13 3h2M24 3h2M12 4h2M26 4h1M11 5h1M27 5h1M11 6h1M28 6h1M10 7h1M28 7h1M10 8h1M29 8h1M11 9h3M18 9h4M29 9h1M10 10h1M22 10h1M29 10h1M10 11h1M13 11h2M18 11h3M29 11h1M10 12h1M12 12h2M15 12h1M17 12h3M21 12h1M29 12h1M11 13h5M17 13h5M28 13h2M33 13h1M35 13h1M11 14h5M17 14h5M28 14h1M10 15h2M13 15h3M17 15h1M19 15h3M28 15h1M9 16h1M11 16h1M15 16h1M17 16h1M21 16h1M23 16h4M28 16h1M9 17h1M12 17h1M15 17h3M21 17h2M27 17h2M8 18h8M17 18h1M20 18h2M24 18h2M28 18h1M7 19h1M16 19h5M26 19h1M29 19h1M6 20h1M9 20h4M25 20h1M27 20h1M29 20h1M6 21h1M8 21h1M13 21h4M24 21h1M29 21h1M7 22h1M10 22h1M12 22h1M17 22h8M27 22h2M8 23h1M12 23h1M23 23h1M26 23h1M34 23h4M14 24h1M16 24h1M23 24h1M25 24h1M32 24h2M37 24h1M15 25h1M17 25h1M22 25h1M24 25h1M30 25h3M36 25h1M15 26h1M17 26h1M21 26h1M23 26h1M28 26h2M36 26h1M16 27h1M22 27h1M26 27h2M35 27h1M17 28h2M22 28h1M25 28h1M35 28h1M19 29h1M23 29h2M34 29h1M18 30h1M25 30h2M33 30h1M17 31h1M27 31h1M33 31h1M16 32h1M28 32h1M32 32h1M16 33h1M29 33h1M32 33h1M6 34h8M15 34h1M25 34h1M30 34h1M32 34h1M5 35h1M14 35h2M24 35h1M31 35h2M4 36h1M23 36h2M32 36h1M4 37h1M23 37h1M32 37h1M3 38h1M6 38h3M23 38h1M29 38h1M32 38h2M3 39h1M5 39h2M9 39h1M23 39h1M29 39h1M33 39h1" />
<path stroke="#a3bde1" d="M15 3h8M14 4h11M12 5h14M12 6h15M11 7h17M11 8h17M14 9h4M22 9h7M11 10h1M15 10h3M23 10h6M16 11h1M23 11h6M16 12h1M22 12h7M16 13h1M22 13h6M16 14h1M22 14h6M16 15h1M22 15h6M16 16h1M22 16h1M27 16h1M35 24h2M34 25h2M31 26h5M28 27h1M30 27h5M19 28h3M26 28h2M29 28h6M20 29h3M25 29h9M19 30h6M27 30h6M18 31h9M28 31h5M17 32h11M29 32h3M17 33h12M30 33h2M16 34h3M23 34h2M27 34h3M31 34h1M7 35h7M16 35h2M26 35h5M6 36h11M25 36h7M5 37h12M25 37h7M5 38h1M9 38h7M24 38h5M30 38h2M4 39h1M10 39h6M24 39h5M30 39h3" />
<path stroke="#c3d9f9" d="M23 3h1M25 4h1M26 5h1M27 6h1M28 8h1M12 10h3M18 10h4M11 11h2M15 11h1M17 11h1M21 11h2M11 12h1M10 16h1M10 17h2M16 18h1M23 18h1M14 19h2M22 19h4M13 20h3M21 20h4M26 20h1M7 21h1M17 21h7M25 21h3M8 22h1M25 22h2M14 23h1M24 23h2M24 24h1M16 25h1M23 25h1M33 25h1M16 26h1M22 26h1M17 27h2M21 27h1M19 34h4M18 35h6M17 36h6M17 37h6M16 38h7M16 39h7" />
<path stroke="#eeb078" d="M31 5h1M34 5h1M33 6h3M33 7h3M33 8h3M34 9h2M34 10h2M34 11h2M34 12h2M33 14h6M32 15h5M38 15h1M32 16h1M35 16h3M31 17h2M35 17h1M37 17h1M32 18h1M35 18h1M37 18h1M34 19h2" />
<path stroke="#ffbebe" d="M33 5h1" />
<path stroke="#dba26e" d="M32 6h1M32 7h1M32 8h1M32 9h2M33 10h1M33 11h1M33 12h1M33 16h2" />
<path stroke="#00abcf" d="M29 15h2M29 16h3M6 17h3M7 18h1M29 18h2M33 18h2M0 19h5M32 19h2M38 20h2M0 21h6M30 21h1M0 22h7M29 22h11M0 23h8M10 23h1M27 23h3M39 23h1M0 24h10M0 25h13M29 25h1M37 25h3M9 26h5M26 26h2M37 26h3M9 27h2M14 27h2M23 27h3M36 27h2M0 28h7M13 28h4M24 28h1M36 28h4M0 29h14M18 29h1M35 29h5M1 30h3M11 30h3M0 31h1M11 31h2M16 31h1M0 32h1M33 32h1M37 32h3M0 33h8M11 33h5M38 33h2M0 34h1M3 34h3M33 34h7M0 35h1M39 35h1M0 36h3M34 36h1M39 36h1M33 37h5M0 38h3M34 38h3" />
<path stroke="#fadd9e" d="M31 18h1" />
<path stroke="#fcdbdb" d="M9 21h1M11 21h1M13 22h1M15 22h1M17 23h1M19 23h1M21 23h1" />
<path stroke="#f3bebe" d="M10 21h1M12 21h1M14 22h1M16 22h1M18 23h1M20 23h1M22 23h1" />
<path stroke="#870202" d="M16 23h1M18 24h1M20 24h1M22 24h1M18 25h4M19 26h1" />
<path stroke="#00aacf" d="M30 23h1" />
<path stroke="#008fcf" d="M26 24h6M38 24h1M0 26h9M14 26h1M0 27h9M14 29h4M4 30h7M14 30h4M37 30h3M1 31h10M13 31h2M34 31h6M1 32h15M34 32h3M33 33h5M1 34h2M14 34h1M1 35h4M33 35h6M3 36h1M35 36h4M0 37h4M37 38h3M0 39h3M7 39h2M34 39h6" />
</svg>