<svg xmlns="http://www.w3.org/2000/svg" viewBox="0 -0.5 40 40" shape-rendering="crispEdges">
<metadata>Made with Pixels to Svg https://codepen.io/shshaw/pen/XbxvNj</metadata>
<path stroke="#0030f3" d="M0 0h11M15 0h25M0 1h10M19 1h2M24 1h16M0 2h9M25 2h15M0 3h8M30 3h10M0 4h7M32 4h8M0 5h7M33 5h7M0 6h7M34 6h6M1 7h7M35 7h5M0 8h9M35 8h5M0 9h1M2 9h10M35 9h5M0 10h11M35 10h5M0 11h3M6 11h4M34 11h6M0 12h2M8 12h2M28 12h1M34 12h6M0 13h2M9 13h1M28 13h4M34 13h6M0 14h2M29 14h3M35 14h5M0 15h2M8 15h2M29 15h4M36 15h4M0 16h2M8 16h1M29 16h5M35 16h5M0 17h4M29 17h11M0 18h1M2 18h2M29 18h11M0 19h4M30 19h10M0 20h4M30 20h10M0 21h5M30 21h10M0 22h7M29 22h11M0 23h5M6 23h2M10 23h2M27 23h13M0 24h14M26 24h14M0 25h4M5 25h10M25 25h15M0 26h15M24 26h16M0 27h15M23 27h17M0 28h15M23 28h17M0 29h16M23 29h17M0 30h18M24 30h16M0 31h17M25 31h15M0 32h16M26 32h14M0 33h16M27 33h13M0 34h15M30 34h10M0 35h14M32 35h8M0 36h13M33 36h7M0 37h12M33 37h7M0 38h12M34 38h6M0 39h12M34 39h6" />
<path stroke="#000000" d="M11 0h4M10 1h1M15 1h4M21 1h3M9 2h1M19 2h6M8 3h1M25 3h5M7 4h1M30 4h2M7 5h1M15 5h8M32 5h1M7 6h1M13 6h11M33 6h1M8 7h2M12 7h13M34 7h1M9 8h4M23 8h3M34 8h1M12 9h2M18 9h4M24 9h3M34 9h1M11 10h1M22 10h1M25 10h2M34 10h1M10 11h1M14 11h1M20 11h1M26 11h3M33 11h1M10 12h1M13 12h3M18 12h4M26 12h2M29 12h5M4 13h1M10 13h1M13 13h1M15 13h1M18 13h2M21 13h1M27 13h1M32 13h2M4 14h2M14 14h2M20 14h2M28 14h1M32 14h3M10 15h1M13 15h2M19 15h1M21 15h1M28 15h1M33 15h3M9 16h1M18 16h4M23 16h4M28 16h1M34 16h1M9 17h1M14 17h4M19 17h4M27 17h2M6 18h1M13 18h3M17 18h5M24 18h2M28 18h1M6 19h2M16 19h5M26 19h1M29 19h1M10 20h3M25 20h1M27 20h1M29 20h1M13 21h4M24 21h1M29 21h1M7 22h1M10 22h3M14 22h1M17 22h8M27 22h2M8 23h2M12 23h2M15 23h1M23 23h1M26 23h1M14 24h1M16 24h1M23 24h1M25 24h1M15 25h1M22 25h1M24 25h1M21 26h1M23 26h1M22 27h1M20 28h3M22 29h1M18 30h1M22 30h2M17 31h2M23 31h2M16 32h1M19 32h1M22 32h1M25 32h1M16 33h1M20 33h1M22 33h1M26 33h1M15 34h1M19 34h1M23 34h1M27 34h3M14 35h2M20 35h1M22 35h1M26 35h1M30 35h2M13 36h1M16 36h1M19 36h1M23 36h1M25 36h2M31 36h2M12 37h1M17 37h2M24 37h1M32 37h1M12 38h1M16 38h1M28 38h1M33 38h1M12 39h1M15 39h2M28 39h2M33 39h1" />
<path stroke="#00b737" d="M11 1h4M10 2h9M9 3h16M8 4h22M8 5h7M23 5h9M8 6h5M24 6h9M10 7h2M25 7h9M26 8h8M27 9h7M27 10h7M29 11h4" />
<path stroke="#ffffff" d="M0 7h1M13 8h10M1 9h1M14 9h4M22 9h2M12 10h10M23 10h2M3 11h1M5 11h1M11 11h2M15 11h3M21 11h5M2 12h1M6 12h1M11 12h1M16 12h1M22 12h4M2 13h1M5 13h1M11 13h1M16 13h1M22 13h5M16 14h1M22 14h6M11 15h1M22 15h6M5 16h3M11 16h1M16 16h1M22 16h1M27 16h1M4 17h1M1 18h1M4 18h1M7 18h1M4 20h1M5 21h2M8 21h1M5 23h1M4 25h1M20 29h2M19 30h3M19 31h4M20 32h2M27 35h3M14 36h2M20 36h3M27 36h4M13 37h4M19 37h5M25 37h7M13 38h3M17 38h11M29 38h4M13 39h2M17 39h11M30 39h3" />
<path stroke="#ff0000" d="M4 11h1M2 14h1M8 14h1M10 14h1M7 15h1M4 16h1M12 18h1M4 19h1M10 19h1M9 20h1M7 21h1M15 22h2M16 23h3M22 24h1M21 25h1M20 26h1M17 32h2M23 32h2M17 33h3M21 33h1M23 33h3M16 34h3M20 34h3M24 34h3M16 35h4M21 35h1M23 35h3M17 36h2M24 36h1" />
<path stroke="#767070" d="M13 11h1M18 11h2M12 12h1M17 12h1M12 13h1M17 13h1M17 14h1M12 15h1M12 16h1M17 16h1M18 17h1" />
<path stroke="#20a2f8" d="M3 12h3M3 13h1M6 13h1M3 14h1M6 14h1M4 15h3M5 17h3M5 18h1M8 18h1M5 19h1M8 19h1M6 20h3" />
<path stroke="#ff699c" d="M7 12h1M7 13h2M20 13h1M7 14h1M9 14h1M11 14h3M18 14h2M15 15h3M13 16h1M15 16h1M8 17h1M11 17h3M9 18h3M9 19h1M19 23h1M21 23h1M17 24h2M20 24h1M16 25h2M19 25h1M15 26h2M18 26h1M15 27h4M15 28h3M16 29h1" />
<path stroke="#fc809a" d="M14 13h1M18 15h1M20 15h1" />
<path stroke="#dfd7d7" d="M2 15h1M2 16h2" />
<path stroke="#41b4ff" d="M3 15h1M5 20h1" />
<path stroke="#ff8a00" d="M10 16h1M10 17h1M23 17h4M16 18h1M22 18h2M26 18h2M11 19h5M21 19h5M27 19h2M13 20h12M26 20h1M28 20h1M9 21h4M17 21h7M25 21h4M8 22h2M13 22h1M25 22h2M14 23h1M24 23h2M15 24h1M24 24h1M23 25h1M22 26h1M20 27h2" />
<path stroke="#f0395f" d="M14 16h1" />
<path stroke="#df0303" d="M20 23h1M19 24h1M18 25h1M17 26h1" />
<path stroke="#ffa2c8" d="M22 23h1M21 24h1M20 25h1M19 26h1M19 27h1M18 28h2M17 29h3" />
</svg>