<svg xmlns="http://www.w3.org/2000/svg" viewBox="0 -0.5 40 40" shape-rendering="crispEdges">
<metadata>Made with Pixels to Svg https://codepen.io/shshaw/pen/XbxvNj</metadata>
<path stroke="#093f76" d="M0 0h11M15 0h16M34 0h6M0 1h10M19 1h2M24 1h7M34 1h6M0 2h9M25 2h4M30 2h1M34 2h1M36 2h4M0 3h8M36 3h4M0 4h7M38 4h2M0 5h7M39 5h1M0 6h7M0 7h8M0 8h9M0 9h11M0 10h10M39 10h1M0 11h10M38 11h2M0 12h10M37 12h3M0 13h11M36 13h4M0 14h11M29 14h3M35 14h5M0 15h10M29 15h11M0 16h9M29 16h11M0 17h9M29 17h11M0 18h8M29 18h11M0 19h7M30 19h10M0 20h6M30 20h10M0 21h6M30 21h10M0 22h7M29 22h11M0 23h8M27 23h13M0 24h4M8 24h1M12 24h2M26 24h14M0 25h4M12 25h3M25 25h15M0 26h6M11 26h4M24 26h16M0 27h3M4 27h2M11 27h5M23 27h17M0 28h4M11 28h6M23 28h17M0 29h3M12 29h7M23 29h17M0 30h2M13 30h5M24 30h16M0 31h2M13 31h4M25 31h15M0 32h2M13 32h3M26 32h14M0 33h2M13 33h3M27 33h13M0 34h2M13 34h2M30 34h10M0 35h2M13 35h1M32 35h8M0 36h3M12 36h1M33 36h7M0 37h4M11 37h1M33 37h7M0 38h6M10 38h2M34 38h6M0 39h12M34 39h6" />
<path stroke="#000000" d="M11 0h4M10 1h1M15 1h4M21 1h3M9 2h1M19 2h6M8 3h1M25 3h4M7 4h1M29 4h1M36 4h2M7 5h1M15 5h8M28 5h1M38 5h1M7 6h1M13 6h11M28 6h5M34 6h4M39 6h1M8 7h2M12 7h13M27 7h1M29 7h1M32 7h3M37 7h1M39 7h1M9 8h4M23 8h3M27 8h1M29 8h2M32 8h1M34 8h2M37 8h1M39 8h1M11 9h3M18 9h4M24 9h2M27 9h1M29 9h4M34 9h4M39 9h1M10 10h1M22 10h1M25 10h3M38 10h1M10 11h1M13 11h2M18 11h3M26 11h1M31 11h2M34 11h2M37 11h1M10 12h1M12 12h4M17 12h5M32 12h3M36 12h1M11 13h5M17 13h5M28 13h4M35 13h1M11 14h3M15 14h1M17 14h4M25 14h4M32 14h3M10 15h3M15 15h1M17 15h3M22 15h1M28 15h1M9 16h1M11 16h2M15 16h1M17 16h2M21 16h1M23 16h4M28 16h1M9 17h1M12 17h1M15 17h3M21 17h2M27 17h2M8 18h8M17 18h1M20 18h2M24 18h2M28 18h1M7 19h1M16 19h5M26 19h1M29 19h1M6 20h1M9 20h4M25 20h1M27 20h1M29 20h1M6 21h1M8 21h1M13 21h4M24 21h1M29 21h1M7 22h1M10 22h3M14 22h1M17 22h8M27 22h2M8 23h2M12 23h2M15 23h1M23 23h1M26 23h1M9 24h1M11 24h1M14 24h1M16 24h1M23 24h1M25 24h1M8 25h1M11 25h1M15 25h1M17 25h1M22 25h1M24 25h1M10 26h1M15 26h1M17 26h1M21 26h1M23 26h1M10 27h1M16 27h1M18 27h3M22 27h1M10 28h1M17 28h1M21 28h2M3 29h1M11 29h1M19 29h1M22 29h1M2 30h1M4 30h3M8 30h3M12 30h1M18 30h1M22 30h2M2 31h1M7 31h1M12 31h1M17 31h2M23 31h2M2 32h2M5 32h1M7 32h1M9 32h1M11 32h2M16 32h1M19 32h1M22 32h1M25 32h1M2 33h1M7 33h1M12 33h1M16 33h1M20 33h1M22 33h1M26 33h1M2 34h1M4 34h3M8 34h3M12 34h1M15 34h1M19 34h1M23 34h1M27 34h3M2 35h1M12 35h1M14 35h2M20 35h1M22 35h1M26 35h1M30 35h2M3 36h1M6 36h2M9 36h1M11 36h1M13 36h1M16 36h1M19 36h1M23 36h1M25 36h2M31 36h2M4 37h2M10 37h1M12 37h1M17 37h2M24 37h1M32 37h1M6 38h4M12 38h1M16 38h1M28 38h1M33 38h1M12 39h1M15 39h2M28 39h2M33 39h1" />
<path stroke="#a900c0" d="M31 0h3M29 2h1M35 2h1M29 3h1M35 3h1" />
<path stroke="#0667f9" d="M11 1h4M10 2h9M9 3h16M8 4h21M8 5h7M23 5h3M8 6h5M24 6h2M10 7h2M25 7h2M26 8h1" />
<path stroke="#ad00c0" d="M31 1h3M30 3h5" />
<path stroke="#87039a" d="M31 2h3" />
<path stroke="#00c006" d="M30 4h6M29 5h4M33 8h1M33 9h1M32 10h3M36 10h1M29 11h1M26 12h2M30 12h1M23 13h2M26 13h2M14 14h1M21 14h1M23 14h2M13 15h1M21 15h1M13 16h2M19 16h1M19 17h2M10 24h1M9 25h1M8 26h1M5 29h1M3 35h1M4 36h1M6 37h4" />
<path stroke="#0669f9" d="M26 5h2M26 6h2" />
<path stroke="#00c004" d="M33 5h5M33 6h1M30 7h2M35 7h2M29 10h3M37 10h1M30 11h1M36 11h1M35 12h1M32 13h3M6 29h5M7 30h1M11 30h1M3 34h1M7 34h1M11 34h1M4 35h1M10 35h2M5 36h1" />
<path stroke="#00c002" d="M38 6h1M28 7h1M38 7h1M28 8h1M38 8h1M28 9h1M38 9h1M28 10h1M35 10h1M31 12h1M3 31h1M11 31h1M3 33h1M11 33h1M5 35h5" />
<path stroke="#ffffff" d="M13 8h10M31 8h1M36 8h1M14 9h4M22 9h2M11 10h11M23 10h2M11 11h2M15 11h3M21 11h5M33 11h1M11 12h1M16 12h1M22 12h3M16 13h1M16 14h1M16 15h1M23 15h5M16 16h1M22 16h1M27 16h1M20 29h2M19 30h3M4 31h3M8 31h3M19 31h4M4 32h1M6 32h1M8 32h1M10 32h1M20 32h2M4 33h3M8 33h3M27 35h3M8 36h1M14 36h2M20 36h3M27 36h4M13 37h4M19 37h5M25 37h7M13 38h3M17 38h11M29 38h4M13 39h2M17 39h11M30 39h3" />
<path stroke="#066af9" d="M26 9h1" />
<path stroke="#079608" d="M27 11h2M25 12h1M22 13h1M25 13h1M22 14h1M20 15h1M20 16h1" />
<path stroke="#079609" d="M28 12h1" />
<path stroke="#079607" d="M29 12h1M14 15h1M13 17h2M18 17h1M18 18h2M10 23h2M10 25h1M9 26h1M8 27h1M9 28h1" />
<path stroke="#ff8a00" d="M10 16h1M10 17h2M23 17h4M16 18h1M22 18h2M26 18h2M8 19h8M21 19h5M27 19h2M7 20h2M13 20h12M26 20h1M28 20h1M7 21h1M9 21h4M17 21h7M25 21h4M8 22h2M13 22h1M25 22h2M14 23h1M24 23h2M15 24h1M24 24h1M16 25h1M23 25h1M16 26h1M22 26h1M17 27h1M21 27h1M18 28h3" />
<path stroke="#ff0000" d="M15 22h2M16 23h3M22 23h1M17 24h1M21 24h2M20 25h2M18 26h3M17 32h2M23 32h2M17 33h3M21 33h1M23 33h3M16 34h3M20 34h3M24 34h3M16 35h4M21 35h1M23 35h3M17 36h2M24 36h1" />
<path stroke="#fc809a" d="M19 23h3M18 24h3M18 25h2" />
<path stroke="#fdf60e" d="M4 24h3M4 25h2M7 25h1M6 26h2M3 27h1M9 27h1M4 28h5" />
<path stroke="#ea980d" d="M7 24h1M6 25h1" />
<path stroke="#f745c0" d="M6 27h2" />
<path stroke="#00c000" d="M4 29h1M3 30h1M10 36h1" />
</svg>