<svg xmlns="http://www.w3.org/2000/svg" viewBox="0 -0.5 40 40" shape-rendering="crispEdges">
<metadata>Made with Pixels to Svg https://codepen.io/shshaw/pen/XbxvNj</metadata>
<path stroke="#7407f5" d="M0 0h13M14 0h13M28 0h12M1 1h8M10 1h16M28 1h8M37 1h3M0 2h3M4 2h5M11 2h14M28 2h4M33 2h7M0 3h9M12 3h3M23 3h1M28 3h12M1 4h5M8 4h1M12 4h2M28 4h10M0 5h9M28 5h6M35 5h4M0 6h9M28 6h11M1 7h8M28 7h9M6 8h3M28 8h6M6 9h3M28 9h6M4 10h2M7 10h2M39 10h1M0 11h9M32 11h8M1 12h8M28 12h1M34 12h6M6 13h3M28 13h5M6 14h3M29 14h2M8 16h1M2 17h7M1 18h7" />
<path stroke="#ffea57" d="M13 0h1M36 1h1M3 2h1M32 2h1M6 4h1M34 5h1M2 8h1M6 10h1M29 10h2M29 11h2M12 15h2M15 15h1M18 15h1M20 15h2M13 16h1M15 16h1M18 16h1M20 16h1M14 17h1M18 17h2M35 17h1M37 34h1" />
<path stroke="#000000" d="M27 0h1M9 2h1M9 3h1M15 3h8M26 3h1M9 4h2M14 4h9M26 4h1M9 5h2M12 5h10M25 5h2M9 6h3M13 6h8M22 6h5M9 7h3M14 7h6M21 7h5M9 8h4M14 8h6M21 8h3M14 9h6M15 10h4M16 11h2M9 15h3M14 15h1M19 15h1M9 16h1M11 16h2M14 16h1M19 16h1M23 16h4M9 17h1M12 17h2M15 17h2M22 17h1M27 17h1M8 18h8M17 18h1M21 18h1M24 18h2M28 18h1M7 19h1M16 19h5M26 19h1M29 19h1M6 20h1M9 20h4M25 20h1M27 20h1M29 20h1M6 21h1M8 21h1M13 21h4M24 21h1M29 21h1M7 22h1M10 22h3M14 22h1M17 22h8M27 22h2M8 23h2M12 23h2M15 23h1M23 23h1M26 23h1M14 24h1M16 24h1M23 24h1M25 24h1M15 25h1M17 25h1M22 25h1M24 25h1M15 26h1M17 26h1M21 26h1M23 26h1M16 27h1M18 27h3M22 27h1M17 28h1M21 28h2M20 30h2M20 31h2M19 32h4M19 33h5M17 34h9M16 35h11M15 36h4M23 36h5M15 37h3M19 37h2M25 37h4M14 38h3M18 38h3M26 38h4M14 39h2M20 39h1M22 39h3M27 39h4" />
<path stroke="#fff5ad" d="M0 1h1M36 9h1M1 13h2M1 14h2M38 14h2M33 15h1M38 15h2M7 26h1M10 27h1" />
<path stroke="#09023e" d="M9 1h1M27 1h1M26 2h2M10 3h1M25 3h1M27 3h1M24 4h2M27 4h1M11 5h1M22 5h3M27 5h1M12 6h1M21 6h1M27 6h1M12 7h2M20 7h1M26 7h2M13 8h1M20 8h1M24 8h4M9 9h5M20 9h8M9 10h2M14 10h1M19 10h1M23 10h5M9 11h5M15 11h1M18 11h1M20 11h8M9 12h6M16 12h2M19 12h9M9 13h19M9 14h20M16 15h2M22 15h7M16 16h2M21 16h2M27 16h2M17 17h1M20 17h2M28 17h1M18 18h3M19 29h4M17 30h3M22 30h3M17 31h3M22 31h4M15 32h4M23 32h5M13 33h6M24 33h7M11 34h6M26 34h7M10 35h6M27 35h7M9 36h6M28 36h7M8 37h7M29 37h6M8 38h6M30 38h6M7 39h7M31 39h5" />
<path stroke="#1a07ab" d="M26 1h1M10 2h1M25 2h1M11 3h1M24 3h1M11 4h1M23 4h1M11 10h3M20 10h3M14 11h1M19 11h1M15 12h1M18 12h1" />
<path stroke="#a207f5" d="M0 4h1M7 4h1M38 4h2M39 5h1M39 6h1M0 7h1M37 7h3M0 8h2M3 8h3M34 8h6M0 9h6M34 9h2M37 9h3M0 10h4M28 10h1M31 10h8M28 11h1M31 11h1M0 12h1M29 12h5M0 13h1M3 13h3M33 13h7M0 14h1M3 14h3M31 14h7M0 15h9M29 15h4M34 15h4M0 16h8M29 16h11M0 17h2M29 17h6M36 17h4M0 18h1M29 18h11M0 19h7M30 19h10M0 20h6M30 20h10M0 21h6M30 21h10M0 22h7M29 22h11M0 23h3M4 23h4M10 23h2M27 23h13M0 24h3M4 24h10M26 24h14M0 25h3M4 25h11M25 25h6M34 25h6M0 26h3M4 26h3M8 26h7M24 26h6M34 26h6M0 27h2M4 27h6M11 27h5M23 27h7M35 27h4M0 28h2M5 28h12M23 28h7M35 28h4M0 29h2M5 29h14M23 29h7M35 29h4M0 30h2M5 30h4M11 30h1M14 30h3M25 30h4M35 30h3M0 31h2M5 31h4M11 31h1M14 31h3M26 31h3M35 31h2M0 32h1M5 32h4M11 32h1M14 32h1M28 32h1M0 33h1M5 33h1M8 33h1M11 33h1M8 34h1" />
<path stroke="#ff8a00" d="M10 16h1M10 17h2M23 17h4M16 18h1M22 18h2M26 18h2M8 19h8M21 19h5M27 19h2M7 20h2M13 20h12M26 20h1M28 20h1M7 21h1M9 21h4M17 21h7M25 21h4M8 22h2M13 22h1M25 22h2M14 23h1M24 23h2M15 24h1M24 24h1M16 25h1M23 25h1M16 26h1M22 26h1M17 27h1M21 27h1M18 28h3" />
<path stroke="#ff0000" d="M15 22h2M16 23h3M22 23h1M17 24h1M21 24h2M20 25h2M18 26h3" />
<path stroke="#3643fe" d="M3 23h1M3 24h1M3 25h1M3 26h1M3 27h1M34 27h1M3 28h2M34 28h1M3 29h2M34 29h1M3 30h2M34 30h1M3 31h2M34 31h1M3 32h2M3 33h2M3 34h2M3 35h1" />
<path stroke="#fc809a" d="M19 23h3M18 24h3M18 25h2" />
<path stroke="#1322f8" d="M31 25h3M30 26h4M2 27h1M30 27h1M32 27h2M2 28h1M30 28h4M2 29h1M30 29h1M32 29h2M2 30h1M9 30h2M12 30h2M29 30h4M2 31h1M9 31h2M12 31h2M29 31h2M32 31h2M37 31h1M1 32h2M9 32h2M12 32h2M29 32h8M1 33h2M9 33h2M12 33h1M31 33h3M2 34h1M9 34h2M2 35h1M8 35h2" />
<path stroke="#9299f8" d="M31 27h1M31 29h1M33 30h1M31 31h1" />
<path stroke="#0a16c7" d="M39 27h1M39 28h1M39 29h1M38 30h2M38 31h2M37 32h2M6 33h2M34 33h6M0 34h2M5 34h3M33 34h4M38 34h1M0 35h2M4 35h4M34 35h6M0 36h9M35 36h2M38 36h2M0 37h2M3 37h1M5 37h1M7 37h1M35 37h5M0 38h8M36 38h4M0 39h7M36 39h4" />
<path stroke="#ffd134" d="M39 32h1M39 34h1M19 36h4M37 36h1M2 37h1M4 37h1M6 37h1M18 37h1M21 37h4M17 38h1M21 38h5M16 39h4M21 39h1M25 39h2" />
</svg>