<svg xmlns="http://www.w3.org/2000/svg" viewBox="0 -0.5 40 40" shape-rendering="crispEdges">
<metadata>Made with Pixels to Svg https://codepen.io/shshaw/pen/XbxvNj</metadata>
<path stroke="#45b1fd" d="M0 0h10M27 0h4M0 1h4M0 6h1M35 6h2M0 7h3M34 7h6M34 14h1M0 18h2M0 19h2M5 19h1" />
<path stroke="#171717" d="M10 0h17M12 1h16M14 2h2M17 2h11M15 3h2M18 3h3M26 3h2M9 4h1M18 4h1M4 5h1M33 5h1M4 6h2M32 6h2M5 7h2M31 7h2M6 8h7M18 8h1M20 8h1M26 8h4M8 9h4M20 9h2M27 9h1" />
<path stroke="#47b2fd" d="M31 0h1M4 1h1M28 1h1M0 2h1M28 3h1M29 4h1M0 5h1M1 6h1M34 6h1M37 6h1M33 7h1M34 8h1M39 8h1M0 14h1M30 14h2M33 14h1" />
<path stroke="#52b4fd" d="M32 0h1M38 8h1" />
<path stroke="#5ab7fc" d="M33 0h1M2 8h1M34 15h1M4 18h2" />
<path stroke="#5bb7fc" d="M34 0h2M6 15h1M35 15h1M33 19h3" />
<path stroke="#64bafb" d="M36 0h1M5 9h1M39 10h1" />
<path stroke="#85c6f4" d="M37 0h1M4 12h1" />
<path stroke="#8bc8f3" d="M38 0h1" />
<path stroke="#8bc8f2" d="M39 0h1M34 3h3M29 9h2M6 12h3" />
<path stroke="#4fb4fd" d="M5 1h1M29 1h1M1 2h1M2 6h1M38 6h1M35 8h1M28 13h1M30 13h1M32 13h1M1 14h2M4 14h1M29 14h1" />
<path stroke="#52b4fc" d="M6 1h2M31 1h1M0 8h1M0 20h2M38 25h2" />
<path stroke="#50b4fd" d="M8 1h1M30 1h1" />
<path stroke="#09b344" d="M9 1h1M9 2h1M16 4h1M20 4h1M12 5h1M20 5h1M17 6h1M14 7h1M13 8h1M12 9h1M18 9h1M22 9h1M11 10h1M23 10h1M11 11h1M25 11h1M25 12h2" />
<path stroke="#0bcd4d" d="M10 1h1M11 2h2M10 3h1M12 3h2M22 3h1M28 4h1M14 5h2M29 5h1M30 6h1M25 7h1M17 8h1M26 10h1" />
<path stroke="#11ed5a" d="M11 1h1M13 2h1M17 7h1" />
<path stroke="#7dc3f6" d="M32 1h1" />
<path stroke="#99d0f8" d="M33 1h1" />
<path stroke="#9ed2f8" d="M34 1h2M5 10h2M34 11h1M6 16h1M36 16h2M36 17h2M38 19h2M35 20h1" />
<path stroke="#9fd3f8" d="M36 1h1M7 10h1M39 11h1M35 12h1" />
<path stroke="#a2d5f7" d="M37 1h1M37 2h1M39 2h1M30 8h1M10 11h1M0 22h1" />
<path stroke="#a3d5f6" d="M38 1h2M34 2h3M7 3h1M9 10h1M4 11h6M35 21h1M38 22h2M30 23h1M13 24h1M29 24h2" />
<path stroke="#51b4fc" d="M2 2h2M35 5h2M39 6h1M29 13h1M5 14h2M0 15h3M30 15h1M0 17h3M38 24h2" />
<path stroke="#59b6fb" d="M4 2h1M30 4h1M34 5h1M37 5h1M3 13h2M3 15h1M37 24h1" />
<path stroke="#79c1f6" d="M5 2h1M4 8h1M32 9h1M3 16h1" />
<path stroke="#83c5f5" d="M6 2h1" />
<path stroke="#84c5f4" d="M7 2h1M32 2h1M3 12h1M0 21h2" />
<path stroke="#7fc3f6" d="M8 2h1" />
<path stroke="#079538" d="M10 2h1M11 3h1M14 4h2M19 4h1M22 4h1M22 6h1M23 7h1M23 8h1M19 9h1M24 9h1M25 10h1" />
<path stroke="#09b342" d="M16 2h1M23 3h1M25 3h1M23 4h1M27 4h1M28 5h1M24 6h1M29 6h1M30 7h1" />
<path stroke="#4eb4fc" d="M28 2h1" />
<path stroke="#71bef7" d="M29 2h1" />
<path stroke="#77c0f5" d="M30 2h1M30 12h1" />
<path stroke="#62b9fa" d="M31 2h1" />
<path stroke="#9fd3f6" d="M33 2h1M6 3h1M6 4h1M31 23h1M31 24h1M2 25h1" />
<path stroke="#a0d3f8" d="M38 2h1M4 10h1M7 16h1M6 17h1M32 17h1M36 20h1" />
<path stroke="#4fb4fc" d="M0 3h1M0 4h1M30 5h1M3 7h1M0 13h1" />
<path stroke="#76c0f6" d="M1 3h1M1 13h1M0 16h3" />
<path stroke="#7ec3f4" d="M2 3h1" />
<path stroke="#7ec3f3" d="M3 3h1M0 9h1" />
<path stroke="#7fc4f3" d="M4 3h1" />
<path stroke="#89c7f3" d="M5 3h1M31 9h1M10 13h1M0 24h1" />
<path stroke="#a0d3f6" d="M8 3h1M7 4h1M2 10h1M3 11h1M10 12h1M9 15h1M30 21h1M34 21h1M37 22h1M29 23h1M11 25h1M27 25h2M4 26h2" />
<path stroke="#079537" d="M9 3h1M10 4h1M12 4h1M11 5h1M13 5h1M20 6h1" />
<path stroke="#11ed57" d="M14 3h1" />
<path stroke="#09b343" d="M17 3h1M11 4h1M21 5h1M15 7h1M21 7h1M21 8h2M24 8h1" />
<path stroke="#079539" d="M21 3h1M17 4h1M23 5h2M25 6h3M19 7h1M28 7h2M16 8h1M19 8h1M15 9h1M13 10h1M12 11h1M15 11h1M11 12h1M14 12h3M13 13h2" />
<path stroke="#0bcd4c" d="M24 3h1M13 4h1M23 6h1" />
<path stroke="#57b6fc" d="M29 3h1M1 5h1" />
<path stroke="#77c0f6" d="M30 3h1M1 4h1M38 5h1M35 9h1M5 13h1" />
<path stroke="#7fc3f3" d="M31 3h1M36 26h1M8 27h2M0 28h1" />
<path stroke="#85c5f2" d="M32 3h1M3 4h2M0 10h1M28 10h1M29 11h1" />
<path stroke="#8ac8f2" d="M33 3h1M5 4h1M6 5h2M1 10h1" />
<path stroke="#86c6f4" d="M37 3h1M38 10h1M2 21h1M4 21h1" />
<path stroke="#71bff9" d="M38 3h1" />
<path stroke="#86c6f5" d="M39 3h1" />
<path stroke="#84c5f3" d="M2 4h1M39 4h1M27 10h1M28 11h1M8 13h1" />
<path stroke="#93ccf4" d="M8 4h1M28 23h1" />
<path stroke="#0bcd4f" d="M21 4h1M22 5h1M21 6h1M16 7h1M22 7h1M24 7h1M14 8h2M25 8h1M13 9h2M16 9h1M23 9h1M25 9h2M12 10h1M14 10h1M24 10h1M13 11h1M26 11h1M12 12h1M27 12h1" />
<path stroke="#09b340" d="M24 4h1M18 5h1M25 5h2M19 6h1" />
<path stroke="#0bcd47" d="M25 4h1M27 5h1M28 6h1" />
<path stroke="#0bcd49" d="M26 4h1" />
<path stroke="#7fc3f4" d="M31 4h1M34 4h1M38 4h1M7 6h1M0 11h1M27 11h1M30 11h1M1 12h1M7 13h1M0 26h1" />
<path stroke="#85c5f3" d="M32 4h1M1 11h1M2 12h1" />
<path stroke="#4a4e4b" d="M33 4h1M5 5h1M31 5h2M6 6h1M31 6h1M7 7h7M18 7h1M20 7h1M26 7h2" />
<path stroke="#7ec2f5" d="M35 4h2M3 5h1M39 5h1M8 6h1M5 8h1M6 13h1" />
<path stroke="#7ec2f4" d="M37 4h1M29 12h1" />
<path stroke="#78c0f6" d="M2 5h1M4 7h1M28 12h1M2 13h1" />
<path stroke="#87c6f2" d="M8 5h1" />
<path stroke="#373a38" d="M9 5h2M16 5h2M19 5h1M9 6h8M18 6h1M28 35h2M14 36h2M28 36h3M13 37h4M27 37h5M13 38h3M26 38h2M29 38h4M13 39h2M17 39h1M25 39h3M30 39h3" />
<path stroke="#52b5fc" d="M3 6h1M33 13h1M29 16h1" />
<path stroke="#53b5fc" d="M1 8h1M36 8h1M5 20h1" />
<path stroke="#61b9fb" d="M3 8h1M5 15h1" />
<path stroke="#97cff7" d="M31 8h1" />
<path stroke="#7cc2f6" d="M32 8h1" />
<path stroke="#50b4fc" d="M33 8h1M33 9h2M39 9h1" />
<path stroke="#59b6fc" d="M37 8h1" />
<path stroke="#83c6f4" d="M1 9h1" />
<path stroke="#9ad0f8" d="M2 9h1M34 12h1M33 20h1" />
<path stroke="#97cff9" d="M3 9h1M30 17h1M31 18h1" />
<path stroke="#6fbefb" d="M4 9h1" />
<path stroke="#63bafc" d="M6 9h1" />
<path stroke="#63bafb" d="M7 9h1M34 10h1" />
<path stroke="#11ed5c" d="M17 9h1M16 10h1M14 11h1M13 12h1M12 13h1" />
<path stroke="#89c8f3" d="M28 9h1" />
<path stroke="#82c5f4" d="M36 9h1" />
<path stroke="#92cdf6" d="M37 9h1" />
<path stroke="#7cc3f6" d="M38 9h1" />
<path stroke="#a6d6f7" d="M3 10h1M30 20h1" />
<path stroke="#a3d5f7" d="M8 10h1M35 11h1M38 11h1M2 22h1" />
<path stroke="#85c6f6" d="M10 10h1" />
<path stroke="#09da50" d="M15 10h1M11 13h1" />
<path stroke="#067b30" d="M17 10h1M19 10h2M16 11h4M17 12h1" />
<path stroke="#07953b" d="M18 10h1M21 10h1M20 11h2M22 12h1M23 13h1M23 14h2M24 15h1M24 16h1M24 17h1M23 18h2M23 19h1M23 20h1M22 21h1M21 22h1M17 23h4M16 24h2" />
<path stroke="#00ba45" d="M22 10h1M23 11h2M19 12h1M24 12h1M18 13h1M12 14h1M19 14h1M25 14h1M12 15h1M20 15h1M12 16h1M12 17h1M12 18h1M20 18h1M13 20h1M24 20h1M24 21h1M14 22h4M23 22h1M15 23h1M22 23h1M21 24h1" />
<path stroke="#85c5f1" d="M29 10h1" />
<path stroke="#84c5f2" d="M30 10h1" />
<path stroke="#79c1f5" d="M31 10h1M36 24h1" />
<path stroke="#5ab7fb" d="M32 10h1M31 11h1M0 12h1" />
<path stroke="#59b7fc" d="M33 10h1" />
<path stroke="#85c6f5" d="M35 10h1" />
<path stroke="#8cc9f3" d="M36 10h1" />
<path stroke="#8fcaf3" d="M37 10h1M9 12h1M30 22h1" />
<path stroke="#8ecaf3" d="M2 11h1" />
<path stroke="#058c35" d="M22 11h1M23 12h1M24 13h1M25 15h1M25 16h1M25 17h1M25 18h1M24 19h1M23 21h1M22 22h1M21 23h1M18 24h3" />
<path stroke="#5fb8fc" d="M32 11h1" />
<path stroke="#91ccf8" d="M33 11h1" />
<path stroke="#a4d5f6" d="M36 11h2M3 22h2" />
<path stroke="#8ac8f3" d="M5 12h1M9 14h1" />
<path stroke="#09da53" d="M18 12h1M16 13h2M19 13h1M17 14h2M20 14h1M17 15h3M21 15h1M17 16h5M18 17h3M18 18h2M21 18h1M18 19h3M18 20h2M17 21h1" />
<path stroke="#09b345" d="M20 12h2M20 13h3M21 14h2M22 15h2M22 16h2M21 17h3M22 18h1M21 19h2M20 20h3M18 21h4M18 22h3" />
<path stroke="#58b6fb" d="M31 12h1" />
<path stroke="#72bff7" d="M32 12h1" />
<path stroke="#86c7f5" d="M33 12h1" />
<path stroke="#a7d7f7" d="M36 12h1M8 16h1M7 17h1M37 20h1" />
<path stroke="#a8d7f6" d="M37 12h3M38 13h2M8 17h1M38 20h2M38 21h2M6 22h1M3 23h2M11 23h1M3 24h2" />
<path stroke="#86c6f2" d="M9 13h1" />
<path stroke="#0bcd51" d="M15 13h1M13 14h2M16 14h1M13 15h1M15 15h2M13 16h4M13 17h5M13 18h5M13 19h5M14 20h4M14 21h3" />
<path stroke="#ffffff" d="M25 13h2M26 14h2M26 15h2M27 16h1M20 29h2M20 30h3M19 31h1M21 31h1M20 32h1M22 32h1M19 33h1M23 33h1M19 34h2M22 34h2M19 35h1M23 35h1" />
<path stroke="#000000" d="M27 13h1M11 14h1M28 14h1M10 15h2M28 15h1M9 16h1M11 16h1M26 16h1M28 16h1M9 17h1M27 17h2M8 18h4M28 18h1M7 19h1M26 19h1M29 19h1M6 20h1M9 20h4M25 20h1M27 20h1M29 20h1M6 21h1M8 21h1M13 21h1M29 21h1M7 22h1M10 22h3M24 22h1M27 22h2M8 23h2M12 23h2M23 23h1M26 23h1M14 24h1M23 24h1M25 24h1M15 25h1M17 25h1M22 25h1M24 25h1M15 26h1M17 26h1M21 26h1M23 26h1M16 27h1M18 27h3M22 27h1M17 28h1M21 28h2M19 29h1M22 29h1M18 30h2M23 30h1M17 31h2M20 31h1M22 31h3M16 32h1M18 32h1M21 32h1M24 32h2M16 33h1M18 33h1M24 33h1M26 33h1M15 34h1M18 34h1M24 34h1M27 34h3M14 35h2M18 35h1M24 35h1M27 35h1M30 35h2M13 36h1M16 36h1M19 36h1M23 36h1M27 36h1M31 36h2M12 37h1M17 37h1M19 37h1M23 37h1M26 37h1M32 37h1M12 38h1M16 38h2M20 38h1M22 38h1M25 38h1M28 38h1M33 38h1M12 39h1M15 39h2M18 39h1M21 39h1M24 39h1M28 39h2M33 39h1" />
<path stroke="#49b2fd" d="M31 13h1M3 14h1" />
<path stroke="#58b7fc" d="M34 13h1" />
<path stroke="#66bbfc" d="M35 13h1M6 18h1M32 18h1" />
<path stroke="#96cff9" d="M36 13h1M31 16h1M33 17h1M38 17h1M37 19h1" />
<path stroke="#a6d7f7" d="M37 13h1" />
<path stroke="#5cb7fb" d="M7 14h1" />
<path stroke="#84c6f5" d="M8 14h1" />
<path stroke="#81c4f3" d="M10 14h1" />
<path stroke="#d9fee6" d="M15 14h1" />
<path stroke="#4eb3fd" d="M32 14h1" />
<path stroke="#48b2fd" d="M35 14h1M2 18h1M6 19h1" />
<path stroke="#64bbfc" d="M36 14h1M29 17h1" />
<path stroke="#95cff9" d="M37 14h1M34 16h1M35 17h1M7 18h1M29 18h1" />
<path stroke="#9dd2f8" d="M38 14h2M33 16h1M5 17h1M34 20h1M8 25h1" />
<path stroke="#74bff7" d="M4 15h1" />
<path stroke="#69bcfc" d="M7 15h1" />
<path stroke="#9bd1f7" d="M8 15h1M31 20h1" />
<path stroke="#88fcb1" d="M14 15h1" />
<path stroke="#70bef8" d="M29 15h1" />
<path stroke="#5fb9fc" d="M31 15h1M3 17h1" />
<path stroke="#79c1f7" d="M32 15h1" />
<path stroke="#62b9fb" d="M33 15h1" />
<path stroke="#5eb8fc" d="M36 15h1M39 18h1M32 19h1" />
<path stroke="#6abcfc" d="M37 15h1M37 18h2" />
<path stroke="#6cbdfb" d="M38 15h2" />
<path stroke="#8bc9f4" d="M4 16h1" />
<path stroke="#9bd1f8" d="M5 16h1" />
<path stroke="#ff8a00" d="M10 16h1M10 17h2M26 17h1M26 18h2M8 19h5M25 19h1M27 19h2M7 20h2M26 20h1M28 20h1M7 21h1M9 21h4M25 21h4M8 22h2M13 22h1M25 22h2M14 23h1M24 23h2M15 24h1M24 24h1M16 25h1M23 25h1M16 26h1M22 26h1M17 27h1M21 27h1M18 28h3" />
<path stroke="#65bbfc" d="M30 16h1" />
<path stroke="#a2d4f7" d="M32 16h1M7 25h1" />
<path stroke="#9cd2f9" d="M35 16h1M38 16h1" />
<path stroke="#94cef9" d="M39 16h1" />
<path stroke="#91cdf8" d="M4 17h1" />
<path stroke="#a5d6f7" d="M31 17h1M30 18h1" />
<path stroke="#72c0fb" d="M34 17h1" />
<path stroke="#68bcfc" d="M39 17h1M36 19h1" />
<path stroke="#57b6fd" d="M3 18h1M33 18h1M35 18h1M2 19h1" />
<path stroke="#4cb3fd" d="M34 18h1" />
<path stroke="#5db8fc" d="M36 18h1" />
<path stroke="#89c9fa" d="M3 19h1" />
<path stroke="#58b7fd" d="M4 19h1" />
<path stroke="#a1d4f7" d="M30 19h1M10 25h1" />
<path stroke="#75c1fb" d="M31 19h1" />
<path stroke="#62b9fc" d="M2 20h1" />
<path stroke="#90ccf8" d="M3 20h1" />
<path stroke="#62bafc" d="M4 20h1" />
<path stroke="#99cff7" d="M32 20h1" />
<path stroke="#8dc9f4" d="M3 21h1" />
<path stroke="#88c7f5" d="M5 21h1" />
<path stroke="#8fc9f3" d="M31 21h1M33 21h1M36 22h1M12 25h1M26 25h1M29 25h1M3 26h1M6 26h1M2 29h1M17 29h1" />
<path stroke="#8bc7f2" d="M32 21h1M31 22h1M35 22h1M13 25h1M25 25h1M30 25h1M4 28h1M8 28h8M23 28h2M28 28h8M39 28h1M0 29h2M18 29h1" />
<path stroke="#a4d6f6" d="M36 21h1M12 24h1M26 24h1M3 25h1" />
<path stroke="#a7d7f6" d="M37 21h1M5 23h1M7 23h1M10 23h1M11 24h1M27 24h1M4 25h2" />
<path stroke="#9cd2f7" d="M1 22h1M0 23h1" />
<path stroke="#a5d6f6" d="M5 22h1M6 23h1M5 24h1M7 24h2M28 24h1" />
<path stroke="#8ec9f3" d="M29 22h1" />
<path stroke="#86c5f2" d="M32 22h2M32 25h1M12 26h1M24 26h1M26 26h1M29 26h1M3 27h1M6 27h1M2 28h1" />
<path stroke="#8ac7f2" d="M34 22h1M32 23h1M32 24h1M1 25h1M14 25h1M31 25h1M2 26h1M27 26h2M4 27h2M3 28h1M5 28h1M7 28h1M16 28h1M25 28h1M27 28h1M36 28h1M38 28h1" />
<path stroke="#7cc3fa" d="M1 23h1" />
<path stroke="#a0d3f7" d="M2 23h1" />
<path stroke="#00ba43" d="M16 23h1" />
<path stroke="#a1d3f6" d="M27 23h1M6 25h1M5 29h1M16 29h1M25 29h1M27 29h1M36 29h1" />
<path stroke="#85c4f1" d="M33 23h2M33 24h2M33 25h2M13 26h2M25 26h1M30 26h5M12 27h4M23 27h17" />
<path stroke="#85c4f2" d="M35 23h1M0 25h1M2 27h1M11 27h1" />
<path stroke="#85c4f3" d="M36 23h1M1 26h1" />
<path stroke="#84c5f5" d="M37 23h3" />
<path stroke="#87c6f4" d="M1 24h1" />
<path stroke="#a3d4f6" d="M2 24h1" />
<path stroke="#98cef4" d="M6 24h1M9 24h1" />
<path stroke="#a5d5f6" d="M10 24h1" />
<path stroke="#ff0000" d="M22 24h1M20 25h2M18 26h3" />
<path stroke="#84c4f2" d="M35 24h1M35 26h1M7 27h1M10 27h1M1 28h1" />
<path stroke="#9ad1f7" d="M9 25h1" />
<path stroke="#fc809a" d="M18 25h2" />
<path stroke="#80c2f3" d="M35 25h1" />
<path stroke="#62b9f9" d="M36 25h1" />
<path stroke="#54b5fc" d="M37 25h1" />
<path stroke="#86c5f4" d="M7 26h1" />
<path stroke="#6bbcfa" d="M8 26h2" />
<path stroke="#86c5f5" d="M10 26h1" />
<path stroke="#8ac7f3" d="M11 26h1" />
<path stroke="#7ec2f3" d="M37 26h3" />
<path stroke="#63b9f9" d="M0 27h1" />
<path stroke="#80c2f4" d="M1 27h1" />
<path stroke="#87c5f2" d="M6 28h1M26 28h1M37 28h1" />
<path stroke="#a0d2f6" d="M3 29h1M38 29h1" />
<path stroke="#a4d4f6" d="M4 29h1M10 29h1M15 29h1M23 29h2M39 29h1" />
<path stroke="#94ccf4" d="M6 29h1" />
<path stroke="#a4d4f7" d="M7 29h1" />
<path stroke="#a8d6f7" d="M8 29h1M12 29h2M29 29h3M34 29h2M0 30h2" />
<path stroke="#a5d5f7" d="M9 29h1M11 29h1M14 29h1M28 29h1M32 29h2" />
<path stroke="#93cbf4" d="M26 29h1M37 29h1" />
<path stroke="#a9d7f7" d="M2 30h1M17 30h1M26 30h1M37 30h1" />
<path stroke="#acd8f7" d="M3 30h3M16 30h1M24 30h2M27 30h1M38 30h2" />
<path stroke="#acd8f8" d="M6 30h1" />
<path stroke="#bce1fc" d="M7 30h1M29 30h1M34 30h1" />
<path stroke="#bde1fc" d="M8 30h1M12 30h2M31 30h1M35 30h1" />
<path stroke="#afdbf8" d="M9 30h1M14 30h1" />
<path stroke="#acd9f7" d="M10 30h1M15 30h1" />
<path stroke="#afdaf8" d="M11 30h1M28 30h1M32 30h2M36 30h1" />
<path stroke="#bfe2fc" d="M30 30h1" />
<path stroke="#b3d7eb" d="M0 31h3M14 31h3M25 31h2M32 31h1M36 31h1M38 31h2" />
<path stroke="#b0d7ea" d="M3 31h4M9 31h3M27 31h2" />
<path stroke="#b3d9eb" d="M7 31h2M12 31h1M29 31h1" />
<path stroke="#b4d9eb" d="M13 31h1M30 31h1M34 31h1" />
<path stroke="#b6d9ec" d="M31 31h1M35 31h1" />
<path stroke="#b1d7ea" d="M33 31h1M37 31h1" />
<path stroke="#709589" d="M0 32h1" />
<path stroke="#6e9687" d="M1 32h1M38 32h1" />
<path stroke="#6a9785" d="M2 32h1M14 32h1M31 32h2M35 32h2" />
<path stroke="#5b9a7c" d="M3 32h1M13 32h1M27 32h1M30 32h1M33 32h2" />
<path stroke="#589a7a" d="M4 32h2M10 32h3M28 32h2" />
<path stroke="#599a7a" d="M6 32h1M9 32h1" />
<path stroke="#5c9a7d" d="M7 32h2" />
<path stroke="#6d9687" d="M15 32h1" />
<path stroke="#474b49" d="M17 32h1M17 33h1M25 33h1M16 34h2M25 34h2M16 35h2M25 35h2M17 36h2M24 36h3M18 37h1M24 37h2M18 38h2M23 38h2M19 39h2M22 39h2" />
<path stroke="#fc5435" d="M19 32h1M23 32h1M21 33h2M21 35h2M20 36h1M22 36h1M21 37h1M21 38h1" />
<path stroke="#6b9786" d="M26 32h1" />
<path stroke="#5f997e" d="M37 32h1" />
<path stroke="#719589" d="M39 32h1" />
<path stroke="#588467" d="M0 33h1M0 34h1M1 35h1M38 35h1" />
<path stroke="#418859" d="M1 33h1M14 33h1M1 34h1" />
<path stroke="#3a8955" d="M2 33h1M12 33h1M29 33h1M32 33h1M35 33h2M4 34h1M7 34h2M10 34h1" />
<path stroke="#358a52" d="M3 33h1M11 33h1M28 33h1M33 33h2M5 34h2M8 35h1" />
<path stroke="#348a52" d="M4 33h2M10 33h1" />
<path stroke="#398955" d="M6 33h1M9 33h1" />
<path stroke="#4e8661" d="M7 33h2" />
<path stroke="#3c8956" d="M13 33h1M37 34h1" />
<path stroke="#46875c" d="M15 33h1" />
<path stroke="#fa8f7b" d="M20 33h1M21 34h1M20 35h1M21 36h1M20 37h1M22 37h1" />
<path stroke="#368a53" d="M27 33h1M9 34h1" />
<path stroke="#3b8956" d="M30 33h2M37 33h1M2 34h2M32 34h5" />
<path stroke="#538564" d="M38 33h1" />
<path stroke="#5b8369" d="M39 33h1M0 35h1M39 35h1" />
<path stroke="#3f8858" d="M11 34h1" />
<path stroke="#508562" d="M12 34h1" />
<path stroke="#568466" d="M13 34h1" />
<path stroke="#578467" d="M14 34h1M13 35h1" />
<path stroke="#538565" d="M30 34h1" />
<path stroke="#408859" d="M31 34h1" />
<path stroke="#45875c" d="M38 34h1M12 35h1M12 36h1" />
<path stroke="#588468" d="M39 34h1" />
<path stroke="#568366" d="M2 35h1M32 35h1M34 35h1M37 35h1" />
<path stroke="#548164" d="M3 35h1M35 35h2" />
<path stroke="#508161" d="M4 35h1" />
<path stroke="#3c8455" d="M5 35h1" />
<path stroke="#368652" d="M6 35h1" />
<path stroke="#348952" d="M7 35h1" />
<path stroke="#3e8857" d="M9 35h1" />
<path stroke="#518262" d="M10 35h1" />
<path stroke="#538464" d="M11 35h1" />
<path stroke="#558165" d="M33 35h1" />
<path stroke="#5b8269" d="M0 36h1" />
<path stroke="#5a8068" d="M1 36h1" />
<path stroke="#597f67" d="M2 36h1M37 36h1" />
<path stroke="#4d705a" d="M3 36h1M35 36h2" />
<path stroke="#496c56" d="M4 36h1" />
<path stroke="#456e53" d="M5 36h1" />
<path stroke="#427253" d="M6 36h1" />
<path stroke="#398253" d="M7 36h1" />
<path stroke="#3e8757" d="M8 36h1" />
<path stroke="#4f7f5f" d="M9 36h1" />
<path stroke="#4c765b" d="M10 36h1" />
<path stroke="#537f62" d="M11 36h1" />
<path stroke="#4f735d" d="M33 36h1" />
<path stroke="#577d65" d="M34 36h1" />
<path stroke="#587e66" d="M38 36h1" />
<path stroke="#587f67" d="M39 36h1" />
<path stroke="#598067" d="M0 37h1" />
<path stroke="#4f735c" d="M1 37h1" />
<path stroke="#547962" d="M2 37h1" />
<path stroke="#496b56" d="M3 37h1M35 37h1" />
<path stroke="#456550" d="M4 37h2" />
<path stroke="#466852" d="M6 37h1" />
<path stroke="#467055" d="M7 37h1" />
<path stroke="#4e795d" d="M8 37h1" />
<path stroke="#487056" d="M9 37h1" />
<path stroke="#3f7b53" d="M10 37h1" />
<path stroke="#497258" d="M11 37h1" />
<path stroke="#4d6f59" d="M33 37h1" />
<path stroke="#547961" d="M34 37h1" />
<path stroke="#486954" d="M36 37h1M1 38h1" />
<path stroke="#51755e" d="M37 37h1" />
<path stroke="#43624e" d="M38 37h1M10 39h1" />
<path stroke="#466752" d="M39 37h1" />
<path stroke="#547a62" d="M0 38h1" />
<path stroke="#476853" d="M2 38h1" />
<path stroke="#43634e" d="M3 38h1" />
<path stroke="#3a5744" d="M4 38h2M39 38h1" />
<path stroke="#42634e" d="M6 38h1" />
<path stroke="#43634f" d="M7 38h1" />
<path stroke="#3d5b47" d="M8 38h1" />
<path stroke="#3b5945" d="M9 38h1" />
<path stroke="#426850" d="M10 38h1" />
<path stroke="#446751" d="M11 38h1" />
<path stroke="#496a55" d="M34 38h1" />
<path stroke="#44644f" d="M35 38h1" />
<path stroke="#3b5845" d="M36 38h2M11 39h1" />
<path stroke="#385341" d="M38 38h1" />
<path stroke="#3c5946" d="M0 39h1" />
<path stroke="#395643" d="M1 39h1" />
<path stroke="#395542" d="M2 39h1M9 39h1" />
<path stroke="#385441" d="M3 39h1M6 39h2M38 39h1" />
<path stroke="#36513f" d="M4 39h2M8 39h1M36 39h2" />
<path stroke="#456551" d="M34 39h1" />
<path stroke="#3b5744" d="M35 39h1" />
<path stroke="#42624e" d="M39 39h1" />
</svg>