<svg xmlns="http://www.w3.org/2000/svg" viewBox="0 -0.5 40 40" shape-rendering="crispEdges">
<metadata>Made with Pixels to Svg https://codepen.io/shshaw/pen/XbxvNj</metadata>
<path stroke="#030966" d="M0 0h40M0 1h12M25 1h15M0 2h9M28 2h12M0 3h8M29 3h11M0 4h7M31 4h9M0 5h6M32 5h8M0 6h5M32 6h8M0 7h5M33 7h7M0 8h4M37 8h3M0 9h4M39 9h1M0 10h3M0 11h1" />
<path stroke="#93f9ce" d="M12 1h3M9 2h3M8 3h2M7 4h1M5 6h1M5 7h1M4 8h2M4 9h1M4 10h1M4 11h1M4 12h1M4 13h1M4 14h1M4 15h1M4 16h1M4 17h1M4 18h1M4 19h1M4 20h1M4 21h1M4 22h1M4 23h1M4 24h1M4 25h1M4 26h1M4 27h1M4 28h1" />
<path stroke="#9effd8" d="M15 1h9M24 2h3M27 3h1" />
<path stroke="#d9f7ea" d="M24 1h1M27 2h1M28 3h1M30 4h1M31 5h1M32 7h1M33 9h1" />
<path stroke="#a6f2c5" d="M12 2h1" />
<path stroke="#175f61" d="M13 2h1M15 2h1" />
<path stroke="#186061" d="M14 2h1" />
<path stroke="#175e61" d="M16 2h1M21 2h2M30 6h1" />
<path stroke="#1a6162" d="M17 2h1" />
<path stroke="#287367" d="M18 2h1" />
<path stroke="#297367" d="M19 2h1" />
<path stroke="#1b6262" d="M20 2h1" />
<path stroke="#185f61" d="M23 2h1" />
<path stroke="#1f6466" d="M10 3h1" />
<path stroke="#337274" d="M11 3h1" />
<path stroke="#1c6061" d="M12 3h1" />
<path stroke="#246e62" d="M13 3h1" />
<path stroke="#287363" d="M14 3h1" />
<path stroke="#2a7668" d="M15 3h1M16 4h1" />
<path stroke="#1b6462" d="M16 3h1" />
<path stroke="#287467" d="M17 3h1M17 4h1" />
<path stroke="#6fca81" d="M18 3h1" />
<path stroke="#70cd82" d="M19 3h1" />
<path stroke="#297568" d="M20 3h1" />
<path stroke="#1e6465" d="M21 3h1" />
<path stroke="#3b7879" d="M22 3h1" />
<path stroke="#528c87" d="M23 3h1" />
<path stroke="#4e8783" d="M24 3h1" />
<path stroke="#397475" d="M25 3h1" />
<path stroke="#195c5f" d="M26 3h1M27 4h1" />
<path stroke="#226769" d="M8 4h1" />
<path stroke="#4c8985" d="M9 4h1" />
<path stroke="#6c9e9a" d="M10 4h1" />
<path stroke="#a5c3c0" d="M11 4h1" />
<path stroke="#45847a" d="M12 4h1" />
<path stroke="#6bc67c" d="M13 4h1" />
<path stroke="#7cda82" d="M14 4h1" />
<path stroke="#72ce83" d="M15 4h1" />
<path stroke="#6cc881" d="M18 4h1" />
<path stroke="#6fcb81" d="M19 4h1" />
<path stroke="#246e61" d="M20 4h1" />
<path stroke="#2d6b6d" d="M21 4h1" />
<path stroke="#9fbebc" d="M22 4h1" />
<path stroke="#d9ede2" d="M23 4h1" />
<path stroke="#e9f6ee" d="M24 4h1" />
<path stroke="#cbdeda" d="M25 4h1" />
<path stroke="#568989" d="M26 4h1" />
<path stroke="#12585b" d="M28 4h1M29 5h1M29 6h1" />
<path stroke="#b1f8dc" d="M29 4h1M30 5h1M31 6h1M32 8h1M32 9h1M33 10h1M33 11h1M33 12h1M33 13h1M33 14h1M33 15h1M33 16h1M33 17h1M33 18h1M33 19h1M33 20h1M33 21h1M33 22h1M33 23h1M33 24h1M33 25h1M33 26h1M33 27h1M33 28h1" />
<path stroke="#97eec0" d="M6 5h1" />
<path stroke="#1d6365" d="M7 5h1" />
<path stroke="#5b978f" d="M8 5h1" />
<path stroke="#ddf1e6" d="M9 5h1" />
<path stroke="#eef9f2" d="M10 5h1" />
<path stroke="#d4e9df" d="M11 5h1" />
<path stroke="#508f81" d="M12 5h1" />
<path stroke="#69c37c" d="M13 5h1" />
<path stroke="#79d882" d="M14 5h1" />
<path stroke="#15581e" d="M15 5h6M18 9h4M22 10h1M14 11h1M18 11h3M15 12h1M17 12h1M21 12h1M15 13h1M17 13h1M21 13h1M15 14h1M17 14h1M20 14h2M14 15h2M17 15h1M19 15h3M14 16h2M17 16h1M19 16h3M23 16h3M14 17h4M19 17h4M8 18h1M14 18h2M17 18h1M20 18h2M24 18h2M7 19h1M16 19h5M6 20h1M25 20h1M6 21h1M8 21h1M14 21h3M24 21h1M7 22h1M14 22h1M17 22h8M15 23h1M23 23h1M14 24h1M16 24h1M23 24h1M25 24h1M15 25h1M17 25h1M22 25h1M24 25h1M15 26h1M17 26h1M21 26h1M23 26h1M16 27h1M18 27h3M22 27h1M17 28h1M21 28h2M18 29h3M22 29h1M18 30h1M22 30h1" />
<path stroke="#1b5c23" d="M21 5h1M23 6h1M24 7h1" />
<path stroke="#306937" d="M22 5h1" />
<path stroke="#a5d6ba" d="M23 5h1" />
<path stroke="#e9faec" d="M24 5h1M30 12h1" />
<path stroke="#f9fdfb" d="M25 5h1M26 6h1" />
<path stroke="#d2e2df" d="M26 5h1" />
<path stroke="#548788" d="M27 5h1" />
<path stroke="#195c60" d="M28 5h1" />
<path stroke="#9ddaa5" d="M6 6h1" />
<path stroke="#468a7f" d="M7 6h1" />
<path stroke="#b0e2c3" d="M8 6h1" />
<path stroke="#f2fef4" d="M9 6h1" />
<path stroke="#e2f3e9" d="M10 6h1" />
<path stroke="#6c9f98" d="M11 6h1" />
<path stroke="#1f6463" d="M12 6h1" />
<path stroke="#105219" d="M13 6h2M12 7h1M12 8h1M11 9h3M10 10h1M10 11h1M13 11h1M10 12h1M12 12h1M11 13h1M11 14h1M10 15h2M11 16h1M26 16h1M12 17h1M27 17h1M10 18h4M26 19h1M10 20h3M27 20h1M13 21h1M10 22h3M13 23h1M26 23h1" />
<path stroke="#bdffc5" d="M15 6h8M15 7h9M15 8h10M14 9h4M22 9h3M14 10h8M23 10h3M15 11h3M21 11h6M16 12h1M22 12h5M16 13h1M22 13h5M14 14h1M16 14h1M19 14h1M22 14h4M16 15h1M22 15h4M16 16h1M22 16h1M21 29h1M20 30h2" />
<path stroke="#a5d8ba" d="M24 6h1" />
<path stroke="#e9fbed" d="M25 6h1" />
<path stroke="#caddd9" d="M27 6h1" />
<path stroke="#387375" d="M28 6h1" />
<path stroke="#327772" d="M6 7h1" />
<path stroke="#aaddbe" d="M7 7h1" />
<path stroke="#e9fdec" d="M8 7h1" />
<path stroke="#e0f7e3" d="M9 7h1" />
<path stroke="#6da397" d="M10 7h1" />
<path stroke="#1e6265" d="M11 7h1" />
<path stroke="#b7f9c0" d="M13 7h2M13 8h2M11 10h3M11 11h2M11 12h1M27 13h1M26 14h2M26 15h2M27 16h1" />
<path stroke="#518157" d="M25 7h1" />
<path stroke="#f4fdf5" d="M26 7h1" />
<path stroke="#eff9f3" d="M27 7h1" />
<path stroke="#679997" d="M28 7h1" />
<path stroke="#195d63" d="M29 7h1" />
<path stroke="#175e63" d="M30 7h1" />
<path stroke="#175e62" d="M31 7h1M5 9h1" />
<path stroke="#498581" d="M6 8h1" />
<path stroke="#def1e7" d="M7 8h1" />
<path stroke="#effaf2" d="M8 8h1" />
<path stroke="#9ad7a9" d="M9 8h1" />
<path stroke="#2b726e" d="M10 8h1" />
<path stroke="#125869" d="M11 8h1" />
<path stroke="#c5ffcd" d="M25 8h1" />
<path stroke="#bacdbc" d="M26 8h1" />
<path stroke="#fafefb" d="M27 8h1" />
<path stroke="#ccdfdf" d="M28 8h1" />
<path stroke="#397584" d="M29 8h1" />
<path stroke="#175f6f" d="M30 8h1" />
<path stroke="#175e68" d="M31 8h1M5 10h1" />
<path stroke="#02086a" d="M33 8h1M36 9h1M38 10h1M3 11h1" />
<path stroke="#020869" d="M34 8h1" />
<path stroke="#020867" d="M35 8h1M37 9h1M39 10h1M2 11h1" />
<path stroke="#020866" d="M36 8h1M38 9h1M3 10h1M1 11h1M0 12h1" />
<path stroke="#3f7a7e" d="M6 9h1" />
<path stroke="#dde8e8" d="M7 9h1" />
<path stroke="#dde9e9" d="M8 9h1" />
<path stroke="#498488" d="M9 9h1" />
<path stroke="#145a73" d="M10 9h1" />
<path stroke="#beffc7" d="M25 9h1M26 10h1" />
<path stroke="#c8facf" d="M26 9h1" />
<path stroke="#c2d3c4" d="M27 9h1" />
<path stroke="#e9f6f0" d="M28 9h1" />
<path stroke="#609ca0" d="M29 9h1" />
<path stroke="#2a7685" d="M30 9h1" />
<path stroke="#19617a" d="M31 9h1" />
<path stroke="#02087b" d="M34 9h1" />
<path stroke="#020871" d="M35 9h1M37 10h1" />
<path stroke="#367381" d="M6 10h1" />
<path stroke="#b7cdd4" d="M7 10h1" />
<path stroke="#b8ced6" d="M8 10h1" />
<path stroke="#336e90" d="M9 10h1" />
<path stroke="#528158" d="M27 10h1" />
<path stroke="#e3f7ea" d="M28 10h1" />
<path stroke="#b2ecbc" d="M29 10h1" />
<path stroke="#89d7a2" d="M30 10h1" />
<path stroke="#2e788f" d="M31 10h1" />
<path stroke="#165e88" d="M32 10h1" />
<path stroke="#010799" d="M34 10h1M3 13h1" />
<path stroke="#01078a" d="M35 10h1M37 11h1" />
<path stroke="#01077d" d="M36 10h1M39 12h1" />
<path stroke="#165d75" d="M5 11h1" />
<path stroke="#1c6185" d="M6 11h1" />
<path stroke="#357398" d="M7 11h1" />
<path stroke="#35739a" d="M8 11h1" />
<path stroke="#1c6193" d="M9 11h1" />
<path stroke="#c1fac8" d="M27 11h1" />
<path stroke="#b3c8b6" d="M28 11h1" />
<path stroke="#f2fef3" d="M29 11h1" />
<path stroke="#dcf7e1" d="M30 11h1" />
<path stroke="#4a8ca2" d="M31 11h1" />
<path stroke="#165e92" d="M32 11h1" />
<path stroke="#0007ad" d="M34 11h1M36 12h1M1 16h1" />
<path stroke="#0007a5" d="M35 11h1" />
<path stroke="#01079a" d="M36 11h1" />
<path stroke="#02087c" d="M38 11h1M3 12h1" />
<path stroke="#02086e" d="M39 11h1" />
<path stroke="#020868" d="M1 12h1M0 13h1" />
<path stroke="#020870" d="M2 12h1" />
<path stroke="#165d85" d="M5 12h1" />
<path stroke="#155d8f" d="M6 12h1" />
<path stroke="#155d92" d="M7 12h1" />
<path stroke="#155d93" d="M8 12h1M6 13h3M5 14h2M32 14h1M5 15h1M32 15h1M32 16h1M5 20h1" />
<path stroke="#165e93" d="M9 12h1M32 12h1M32 13h1M8 14h1M5 16h1M5 19h1" />
<path stroke="#90e0bc" d="M13 12h1M12 13h2M12 14h2M12 15h2M12 16h2M13 17h1" />
<path stroke="#95e7c1" d="M14 12h1M18 12h3M14 13h1M18 13h3M18 14h1M18 15h1M18 16h1M18 17h1M18 18h2" />
<path stroke="#b9f9c1" d="M27 12h1" />
<path stroke="#497b50" d="M28 12h1" />
<path stroke="#ebfded" d="M29 12h1" />
<path stroke="#5190a6" d="M31 12h1" />
<path stroke="#0007b3" d="M34 12h1M34 13h3M34 14h4M34 15h5M3 16h1M34 16h6M1 17h3M34 17h6M0 18h4M34 18h6M0 19h4M34 19h6M0 20h4M34 20h6" />
<path stroke="#0007b1" d="M35 12h1" />
<path stroke="#0007a4" d="M37 12h1" />
<path stroke="#010795" d="M38 12h1" />
<path stroke="#020872" d="M1 13h1" />
<path stroke="#010785" d="M2 13h1" />
<path stroke="#155d90" d="M5 13h1" />
<path stroke="#11578e" d="M9 13h1" />
<path stroke="#236f8c" d="M10 13h1" />
<path stroke="#16561e" d="M28 13h1" />
<path stroke="#bff2ca" d="M29 13h1" />
<path stroke="#d7f2e1" d="M30 13h1" />
<path stroke="#4e8ca6" d="M31 13h1" />
<path stroke="#0007b0" d="M37 13h1" />
<path stroke="#0107a5" d="M38 13h1" />
<path stroke="#010790" d="M39 13h1" />
<path stroke="#010772" d="M0 14h1" />
<path stroke="#010786" d="M1 14h1" />
<path stroke="#01079d" d="M2 14h1" />
<path stroke="#0007ac" d="M3 14h1M2 15h1" />
<path stroke="#155e93" d="M7 14h1M5 21h1M5 22h2M5 23h3M5 24h3M5 25h1" />
<path stroke="#12588e" d="M9 14h1" />
<path stroke="#226d8c" d="M10 14h1" />
<path stroke="#105218" d="M28 14h1M28 15h1M9 16h1M28 16h1M9 17h1M28 17h1M9 18h1M28 18h1M9 20h1M27 22h2M8 23h2M12 23h1" />
<path stroke="#98d2bc" d="M29 14h1" />
<path stroke="#bfd7de" d="M30 14h1" />
<path stroke="#427ea6" d="M31 14h1" />
<path stroke="#0007af" d="M38 14h1" />
<path stroke="#0007a7" d="M39 14h1" />
<path stroke="#01078c" d="M0 15h1" />
<path stroke="#01079e" d="M1 15h1" />
<path stroke="#0007b2" d="M3 15h1M39 15h1M2 16h1M0 17h1" />
<path stroke="#196193" d="M6 15h1" />
<path stroke="#287593" d="M7 15h1" />
<path stroke="#2c7993" d="M8 15h1" />
<path stroke="#27738c" d="M9 15h1" />
<path stroke="#7db8b3" d="M29 15h1" />
<path stroke="#9fc0d1" d="M30 15h1" />
<path stroke="#3875a3" d="M31 15h1" />
<path stroke="#0007a6" d="M0 16h1" />
<path stroke="#257392" d="M6 16h1" />
<path stroke="#72cf92" d="M7 16h1" />
<path stroke="#84e591" d="M8 16h1" />
<path stroke="#b7ac19" d="M10 16h1M10 17h2M26 17h1M26 18h2M10 19h4M27 19h1M13 20h1M26 20h1M10 21h3M26 21h1M13 22h1M26 22h1" />
<path stroke="#286d94" d="M29 16h1" />
<path stroke="#3f82a0" d="M30 16h1" />
<path stroke="#1f6596" d="M31 16h1" />
<path stroke="#165e94" d="M5 17h1M5 18h1" />
<path stroke="#297691" d="M6 17h1M6 18h1" />
<path stroke="#84e492" d="M7 17h1M7 18h1" />
<path stroke="#98fd92" d="M8 17h1" />
<path stroke="#bdb31e" d="M23 17h3M16 18h1M22 18h2M8 19h1M14 19h2M21 19h5M7 20h2M14 20h11M7 21h1M17 21h7M25 21h1M25 22h1M14 23h1M24 23h2M15 24h1M24 24h1M16 25h1M23 25h1M16 26h1M22 26h1M17 27h1M21 27h1M18 28h3" />
<path stroke="#236990" d="M29 17h1" />
<path stroke="#67b0a1" d="M30 17h1" />
<path stroke="#4182a2" d="M31 17h1" />
<path stroke="#1c6296" d="M32 17h1" />
<path stroke="#33709d" d="M29 18h1" />
<path stroke="#bad1de" d="M30 18h1" />
<path stroke="#b9cfdf" d="M31 18h1" />
<path stroke="#3673a2" d="M32 18h1" />
<path stroke="#257192" d="M6 19h1" />
<path stroke="#b7ac18" d="M9 19h1M28 19h1M28 20h1M9 21h1M27 21h2M8 22h2" />
<path stroke="#376e3d" d="M29 19h1M29 20h1M29 21h1" />
<path stroke="#d7e4ed" d="M30 19h1M30 20h1M30 21h1M30 22h1" />
<path stroke="#d9e5ee" d="M31 19h1M31 20h1M31 21h1M31 22h1" />
<path stroke="#3c78a5" d="M32 19h1M32 20h1M32 21h1" />
<path stroke="#0008b3" d="M0 21h4M34 21h6M0 22h4M34 22h6" />
<path stroke="#bd581e" d="M15 22h2M16 23h3M22 23h1M17 24h1M21 24h2M20 25h2M18 26h3" />
<path stroke="#37739f" d="M29 22h1" />
<path stroke="#3c79a5" d="M32 22h1M32 23h1" />
<path stroke="#0009b3" d="M0 23h4M34 23h6M0 24h4M34 24h6M0 25h4M34 25h6M0 26h4M37 26h3M0 27h2M39 27h1" />
<path stroke="#10588e" d="M10 23h2M10 24h1M26 24h1" />
<path stroke="#baac83" d="M19 23h3M18 24h3M18 25h2" />
<path stroke="#10588d" d="M27 23h1M8 24h2M27 24h1" />
<path stroke="#145b8d" d="M28 23h1" />
<path stroke="#46869f" d="M29 23h1" />
<path stroke="#dae8ed" d="M30 23h1" />
<path stroke="#d9e6ee" d="M31 23h1" />
<path stroke="#14588d" d="M11 24h1" />
<path stroke="#19588d" d="M12 24h1" />
<path stroke="#1f588e" d="M13 24h1" />
<path stroke="#1f6d8c" d="M28 24h1" />
<path stroke="#81ce9e" d="M29 24h1" />
<path stroke="#e6f6ec" d="M30 24h1" />
<path stroke="#dce9ee" d="M31 24h1" />
<path stroke="#3d7aa5" d="M32 24h1" />
<path stroke="#195e93" d="M6 25h1" />
<path stroke="#1f5e93" d="M7 25h1M5 26h1" />
<path stroke="#1f588d" d="M8 25h1" />
<path stroke="#22588d" d="M9 25h1" />
<path stroke="#23588e" d="M10 25h1M26 25h1" />
<path stroke="#25588d" d="M11 25h1" />
<path stroke="#2e588e" d="M12 25h1" />
<path stroke="#3a588f" d="M13 25h1" />
<path stroke="#455e94" d="M14 25h1" />
<path stroke="#285f93" d="M25 25h1" />
<path stroke="#23588d" d="M27 25h1" />
<path stroke="#2f6b8d" d="M28 25h1" />
<path stroke="#84cb9f" d="M29 25h1" />
<path stroke="#e7f6ed" d="M30 25h1" />
<path stroke="#dde9ee" d="M31 25h1" />
<path stroke="#3f7aa5" d="M32 25h1" />
<path stroke="#275e93" d="M6 26h1" />
<path stroke="#335e94" d="M7 26h1M5 27h1" />
<path stroke="#3a588e" d="M8 26h1" />
<path stroke="#3f588e" d="M9 26h1" />
<path stroke="#41588f" d="M10 26h1" />
<path stroke="#42588e" d="M11 26h1" />
<path stroke="#4b588f" d="M12 26h1" />
<path stroke="#575890" d="M13 26h1" />
<path stroke="#625e95" d="M14 26h1" />
<path stroke="#527494" d="M24 26h1" />
<path stroke="#517493" d="M25 26h1" />
<path stroke="#486393" d="M26 26h1" />
<path stroke="#41588e" d="M27 26h1" />
<path stroke="#425b8e" d="M28 26h1" />
<path stroke="#6782a0" d="M29 26h1" />
<path stroke="#e0e7ed" d="M30 26h1" />
<path stroke="#dde5ed" d="M31 26h1" />
<path stroke="#4d79a5" d="M32 26h1" />
<path stroke="#1709b3" d="M34 26h1" />
<path stroke="#0e09b3" d="M35 26h1M37 27h1M1 28h1" />
<path stroke="#0509b3" d="M36 26h1M2 27h1M38 27h1M0 28h1M39 28h1" />
<path stroke="#0d09b3" d="M3 27h1" />
<path stroke="#415e94" d="M6 27h1" />
<path stroke="#4e5e95" d="M7 27h1M5 28h1" />
<path stroke="#57588f" d="M8 27h1" />
<path stroke="#5d588f" d="M9 27h1" />
<path stroke="#5e5890" d="M10 27h1M27 27h1" />
<path stroke="#5f588f" d="M11 27h1" />
<path stroke="#615890" d="M12 27h1" />
<path stroke="#675890" d="M13 27h1M8 28h1" />
<path stroke="#6f5e96" d="M14 27h2M7 29h1M32 29h1M5 30h1" />
<path stroke="#6c7395" d="M23 27h1" />
<path stroke="#87c792" d="M24 27h1" />
<path stroke="#82bc93" d="M25 27h1" />
<path stroke="#697194" d="M26 27h1" />
<path stroke="#5e588f" d="M28 27h1" />
<path stroke="#7773a1" d="M29 27h1" />
<path stroke="#dfdfea" d="M30 27h1" />
<path stroke="#cfd3e2" d="M31 27h1" />
<path stroke="#6074a3" d="M32 27h1" />
<path stroke="#4009b4" d="M34 27h1" />
<path stroke="#2d09b4" d="M35 27h1M3 28h1" />
<path stroke="#1b09b3" d="M36 27h1M2 28h1" />
<path stroke="#5d5e95" d="M6 28h1" />
<path stroke="#665e95" d="M7 28h1M5 29h1" />
<path stroke="#695890" d="M9 28h1" />
<path stroke="#6a5890" d="M10 28h2M27 28h2" />
<path stroke="#6b5890" d="M12 28h2M8 29h1" />
<path stroke="#715e96" d="M14 28h1M6 30h1" />
<path stroke="#715f96" d="M15 28h2M32 30h1" />
<path stroke="#747195" d="M23 28h1" />
<path stroke="#86b793" d="M24 28h1" />
<path stroke="#798495" d="M25 28h1" />
<path stroke="#706395" d="M26 28h1" />
<path stroke="#8173a2" d="M29 28h1" />
<path stroke="#d2cedf" d="M30 28h1" />
<path stroke="#918bb3" d="M31 28h1" />
<path stroke="#686398" d="M32 28h1" />
<path stroke="#6c09b6" d="M34 28h1M36 29h1M2 30h1" />
<path stroke="#5809b5" d="M35 28h1" />
<path stroke="#4309b4" d="M36 28h1M2 29h1" />
<path stroke="#2b09b4" d="M37 28h1M1 29h1" />
<path stroke="#1409b3" d="M38 28h1M0 29h1M39 29h1" />
<path stroke="#5709b5" d="M3 29h1" />
<path stroke="#83f1c4" d="M4 29h1M33 29h1M4 30h1M33 30h1" />
<path stroke="#6c5e96" d="M6 29h1" />
<path stroke="#6c5890" d="M9 29h2M28 29h1" />
<path stroke="#56a860" d="M11 29h2M27 29h1M8 30h2M28 30h1" />
<path stroke="#56a861" d="M13 29h1M10 30h1" />
<path stroke="#5caf66" d="M14 29h4M23 29h4M7 30h1M5 31h2M31 31h2" />
<path stroke="#7f6d9e" d="M29 29h1" />
<path stroke="#beb5cf" d="M30 29h1" />
<path stroke="#8475a5" d="M31 29h1" />
<path stroke="#8409b7" d="M34 29h1M37 31h1" />
<path stroke="#7b09b6" d="M35 29h1M3 30h1" />
<path stroke="#5109b5" d="M37 29h1M1 30h1" />
<path stroke="#2f09b4" d="M38 29h1" />
<path stroke="#3109b4" d="M0 30h1M39 30h1" />
<path stroke="#76cd81" d="M11 30h4M7 31h8M7 32h7M7 33h7" />
<path stroke="#76cd82" d="M15 30h3M23 30h4M26 31h1M30 31h1M5 32h2M14 32h1M28 32h5M6 33h1M14 33h2M25 33h1M28 33h3M10 34h19" />
<path stroke="#b5f7bd" d="M19 30h1" />
<path stroke="#71c67c" d="M27 30h1M27 31h3M26 32h2M26 33h2" />
<path stroke="#5aaa64" d="M29 30h1" />
<path stroke="#6cb776" d="M30 30h1" />
<path stroke="#746398" d="M31 30h1" />
<path stroke="#8b09b7" d="M34 30h1M36 31h1M37 32h1M1 33h1M38 33h1" />
<path stroke="#8909b7" d="M35 30h1M3 31h1" />
<path stroke="#8309b7" d="M36 30h1M2 31h1" />
<path stroke="#7109b6" d="M37 30h1" />
<path stroke="#5209b5" d="M38 30h1" />
<path stroke="#5a09b5" d="M0 31h1M39 31h1" />
<path stroke="#7209b6" d="M1 31h1M38 31h1" />
<path stroke="#73e3b4" d="M4 31h1M33 31h1M4 32h1" />
<path stroke="#5ea064" d="M15 31h4M15 32h1M17 32h1M19 32h1M16 33h5" />
<path stroke="#6cae72" d="M19 31h7M21 32h1M23 32h1M25 32h1M21 33h4" />
<path stroke="#6a3b09" d="M34 31h1M34 32h1M6 34h2M30 34h2M34 34h1M29 35h1M32 35h3M6 36h2M30 36h3M6 37h2M6 38h2M6 39h2" />
<path stroke="#6a3a09" d="M35 31h1M35 32h1M33 33h1M35 34h1M35 35h1M35 36h1M35 37h1" />
<path stroke="#7c09b7" d="M0 32h1M39 32h1" />
<path stroke="#8509b7" d="M1 32h1M38 32h1" />
<path stroke="#512c05" d="M2 32h2M2 33h4M5 34h1M2 35h3M2 36h1M5 36h1M2 37h2M5 37h1M3 38h3M4 39h1" />
<path stroke="#89cb90" d="M16 32h1M18 32h1M20 32h1M22 32h1M24 32h1" />
<path stroke="#6a3c09" d="M33 32h1M31 33h2M8 34h2M29 34h1M9 35h20M8 36h1M33 36h2M8 37h4M27 37h8M8 38h3M28 38h7M8 39h3M28 39h6" />
<path stroke="#8c09b7" d="M36 32h1M37 33h1" />
<path stroke="#8a09b7" d="M0 33h1M39 33h1" />
<path stroke="#3e2002" d="M34 33h1M32 34h2M7 35h2M30 35h2M9 36h21" />
<path stroke="#8c0ab7" d="M35 33h2M0 34h3M36 34h4M0 35h2M36 35h4M0 36h2M36 36h4M0 37h2M36 37h4M0 38h3M35 38h5M0 39h4M34 39h6" />
<path stroke="#3e1e02" d="M3 34h1" />
<path stroke="#3e1f02" d="M4 34h1" />
<path stroke="#3e2102" d="M5 35h2" />
<path stroke="#512d05" d="M3 36h2M4 37h1M5 39h1" />
<path stroke="#ec7d04" d="M12 37h9M22 37h2M25 37h2M11 38h9M22 38h1M25 38h3M11 39h8M21 39h2M24 39h4" />
<path stroke="#fbb30d" d="M21 37h1M24 37h1M20 38h2M23 38h2M23 39h1" />
<path stroke="#fbb20d" d="M19 39h2" />
</svg>