<svg xmlns="http://www.w3.org/2000/svg" viewBox="0 -0.5 40 40" shape-rendering="crispEdges">
<metadata>Made with Pixels to Svg https://codepen.io/shshaw/pen/XbxvNj</metadata>
<path stroke="#1fbeff" d="M0 0h4M38 0h2M37 1h3M0 2h3M37 2h3M0 3h3M37 3h3M0 4h2M36 4h4M0 5h1M36 5h4M0 6h1M36 6h4M0 7h1M36 7h4M36 8h4M36 9h4M36 10h4M36 11h4M39 12h1M35 18h2M39 18h1M37 19h3M37 20h2M39 22h1M6 23h1M35 23h5M6 24h1M35 24h5M35 25h5M8 26h1M35 26h5M8 27h1M35 27h5M8 28h1M35 28h5M8 29h1M38 29h2M0 30h2M39 30h1M0 31h2M3 31h3M0 32h1M3 32h4M35 32h2M0 33h1M2 33h7M36 33h1M0 34h1M3 34h6M0 35h2M3 35h6M0 36h2M4 36h5M0 37h3M5 37h4M39 37h1M0 38h4M6 38h3M38 38h2M0 39h5M7 39h2" />
<path stroke="#c49f52" d="M4 0h1M1 1h1M3 1h1M3 7h1M5 7h1M0 8h1M2 8h1M1 9h1M2 11h2M4 12h1M5 13h1M5 15h1M5 17h1M4 18h1M3 19h1M3 21h1M3 28h1M2 29h1M2 31h1M1 32h1M1 34h2M23 34h1M25 34h1M20 35h1M22 35h1M26 35h1M2 36h2M18 36h1M20 36h1M26 36h1M17 37h1M27 37h1M4 38h1M16 38h1M28 38h1M5 39h1M29 39h1M38 39h1" />
<path stroke="#b28731" d="M5 0h1M0 1h1M2 1h1M4 1h1M4 7h1M1 8h1M3 8h1M0 9h1M1 10h2M3 12h1M4 13h1M5 14h1M5 16h1M4 17h1M3 18h1M3 20h1M3 29h1M2 30h1M2 32h1M1 33h1M24 34h1M2 35h1M21 35h1M23 35h1M25 35h1M19 36h1M27 36h1M3 37h2M18 37h1M28 37h1M5 38h1M17 38h1M29 38h1M6 39h1M15 39h2M39 39h1" />
<path stroke="#593905" d="M6 0h2M19 0h2M5 1h1M21 1h1M36 1h1M5 2h1M23 2h1M36 2h1M4 3h1M24 3h1M36 3h1M4 4h1M25 4h1M5 5h1M26 5h1M5 6h1M27 6h1M35 6h1M6 7h1M28 7h1M35 7h1M6 8h1M29 8h1M35 8h1M7 9h1M30 9h2M35 9h1M8 10h1M32 10h1M35 10h1M33 11h3M35 12h4M39 13h1M39 16h1M34 17h5" />
<path stroke="#c88c25" d="M8 0h11M31 0h6M6 1h15M32 1h4M6 2h17M33 2h3M5 3h5M21 3h3M34 3h2M5 4h7M23 4h2M6 5h5M24 5h2M6 6h4M25 6h2M7 7h2M27 7h1M7 8h2M28 8h1M8 9h1M29 9h1M30 10h2M31 11h2M33 12h2M33 13h6M34 14h6M36 15h4M35 16h4M2 23h3M0 24h2M4 24h1M1 25h2M4 25h1M6 26h1M0 27h2M4 27h2M4 28h1M4 29h1M34 34h1M34 35h3M34 36h5M31 37h7M31 38h6M32 39h1M34 39h1M36 39h1" />
<path stroke="#0c5bd5" d="M21 0h3M23 1h1M31 1h1M24 2h2M31 2h2M25 3h2M33 3h1M26 4h1M33 4h2M27 5h2M28 6h2M29 7h1M30 8h1M32 9h3M33 10h2M27 28h2M25 29h4M15 30h3M26 30h2M11 31h2M15 31h5M22 31h2M28 31h2M11 32h3M15 32h5M22 32h2M27 32h3M13 33h1M16 33h3M16 35h3M24 35h1M17 36h1M22 36h4M23 37h2M25 39h2" />
<path stroke="#ffffff" d="M24 0h1M26 0h1M26 1h1M27 2h1M29 2h1M27 3h3M28 4h1M30 4h2M29 5h1M32 6h2M31 7h1M32 8h1M13 12h2M18 12h3M12 13h3M18 13h3M12 14h3M18 14h3M12 15h1M14 15h1M18 15h1M20 15h1M12 16h1M14 16h1M18 16h1M20 16h1M12 17h3M18 17h3M18 18h2" />
<path stroke="#0c5dd5" d="M25 0h1M27 0h4M25 1h1M27 1h4M26 2h1M28 2h1M30 2h1M30 3h3M29 4h1M32 4h1M30 5h5M30 6h2M34 6h1M32 7h3M31 8h1M33 8h2" />
<path stroke="#593805" d="M37 0h1M22 1h1M15 3h6M21 4h1M35 4h1M23 5h1M35 5h1M24 6h1M26 7h1M27 8h1M28 9h1M29 10h1M30 11h1M31 12h2M33 14h1M34 15h1M34 16h1M34 33h2M33 34h1M35 34h3M37 35h3M31 36h3M39 36h1M30 37h1M38 37h1M37 38h1M31 39h1M37 39h1" />
<path stroke="#0c5ed5" d="M24 1h1M27 4h1M30 7h1" />
<path stroke="#1fbbff" d="M3 2h2M3 3h1M2 4h2M1 5h4M1 6h4M1 7h2M4 8h2M2 9h5M0 10h1M3 10h5M0 11h2M4 11h5M0 12h3M5 12h4M0 13h4M6 13h3M0 14h5M6 14h3M0 15h5M6 15h3M0 16h5M6 16h3M0 17h4M6 17h3M0 18h3M5 18h3M0 19h3M4 19h3M0 20h3M4 20h2M0 21h3M4 21h2M0 22h1M5 22h2M7 23h1M7 24h2M8 25h1" />
<path stroke="#593605" d="M10 3h3M14 3h1M1 22h4M0 23h2M5 23h1M5 24h1M6 25h2M1 26h1M7 26h1M6 27h2M5 28h1M3 30h2" />
<path stroke="#593705" d="M13 3h1M12 4h1M22 4h1M11 5h1M10 6h1M9 7h1M9 8h1M9 9h1M9 10h1M9 11h1M32 13h1M35 15h1M33 35h1M30 38h1M30 39h1M33 39h1M35 39h1" />
<path stroke="#ebd207" d="M13 4h1M17 4h1M20 4h1M12 5h1M16 5h2M19 5h2M11 6h1M13 6h1M16 6h1M13 8h1M12 9h3M16 9h1M18 9h3M11 10h11M25 10h1M11 11h2M15 11h3M21 11h4M11 12h1M16 12h1M22 12h3M26 12h2M16 13h1M22 13h6M31 13h1M16 14h1M22 14h4M28 14h5M16 15h1M22 15h9M32 15h2M16 16h1M22 16h1M27 16h3M32 16h2M28 17h3M32 17h2M29 18h3M33 18h1M30 19h1M30 20h3M30 21h3M29 22h2M32 22h1M11 23h1M27 23h5M13 24h1M26 24h6M13 25h2M25 25h6M13 26h2M24 26h6M13 27h3M23 27h6M13 28h4M22 28h5M32 28h1M14 29h4M21 29h4M32 29h1M18 30h4M31 30h2M30 31h2M12 35h1M29 35h2M12 36h2M16 36h1M12 37h5M12 38h3M12 39h3M18 39h4" />
<path stroke="#ebd007" d="M14 4h2M18 4h1M14 5h1M18 7h1M34 30h3M37 31h2M33 32h1M38 32h1M33 33h1M38 33h1M29 34h2M31 35h1M29 36h2M17 39h1" />
<path stroke="#d59404" d="M16 4h1M19 4h1" />
<path stroke="#d59504" d="M13 5h1M15 5h1" />
<path stroke="#d59604" d="M18 5h1M22 6h1M29 12h1M32 18h1M31 19h1" />
<path stroke="#ebd107" d="M21 5h2M12 6h1M14 6h2M17 6h5M23 6h1M10 7h3M14 7h4M20 7h6M10 8h2M15 8h3M19 8h1M21 8h4M26 8h1M10 9h1M22 9h2M25 9h3M10 10h1M22 10h3M26 10h1M28 10h1M10 11h1M25 11h1M27 11h3M10 12h1M25 12h1M28 12h1M30 12h1M10 13h1M29 13h2M10 14h1M26 14h2M31 16h1M31 17h1M32 19h2M33 20h1M33 21h1M33 22h1M10 23h1M10 24h3M10 25h3M10 26h3M11 27h2M33 27h1M6 28h1M12 28h1M33 28h1M6 29h1M6 30h2M10 30h1M7 31h2M10 31h1M32 31h2M10 32h1M30 32h3M10 33h3M30 33h3M10 34h4M31 34h2M10 35h2M13 35h2M32 35h1M10 36h2M14 36h2M10 37h2M10 38h2M15 38h1M18 38h2M10 39h2" />
<path stroke="#000000" d="M13 7h1M19 7h1M12 8h1M14 8h1M18 8h1M20 8h1M11 9h1M15 9h1M17 9h1M21 9h1M13 11h2M18 11h3M12 12h1M15 12h1M17 12h1M21 12h1M11 13h1M15 13h1M17 13h1M21 13h1M11 14h1M15 14h1M17 14h1M21 14h1M10 15h2M13 15h1M15 15h1M17 15h1M19 15h1M21 15h1M9 16h1M11 16h1M13 16h1M15 16h1M17 16h1M19 16h1M21 16h1M23 16h4M9 17h1M11 17h1M15 17h3M21 17h2M27 17h1M8 18h8M17 18h1M20 18h2M24 18h2M28 18h1M7 19h1M16 19h5M26 19h1M29 19h1M6 20h1M9 20h4M25 20h1M27 20h1M29 20h1M6 21h1M8 21h1M13 21h4M24 21h1M29 21h1M7 22h1M10 22h3M14 22h1M17 22h8M27 22h2M8 23h2M12 23h2M15 23h1M23 23h1M26 23h1M14 24h1M16 24h1M23 24h1M25 24h1M15 25h1M17 25h1M22 25h1M24 25h1M15 26h1M17 26h1M21 26h1M23 26h1M16 27h1M18 27h3M22 27h1M17 28h1M21 28h1M18 29h3" />
<path stroke="#d59704" d="M25 8h1M24 9h1M27 10h1M26 11h1M28 13h1M31 15h1M30 16h1M31 22h1M32 23h1" />
<path stroke="#c67700" d="M9 12h1M9 13h1M9 14h1M9 15h1M34 18h1M34 19h1M34 20h1M9 24h1M9 25h1M34 25h1M9 26h1M34 26h1M34 27h1M34 28h1M34 29h1M34 32h1M9 33h1M9 34h1M9 35h1M9 36h1M9 37h1M9 38h1M9 39h1" />
<path stroke="#ff8a00" d="M10 16h1M10 17h1M23 17h4M16 18h1M22 18h2M26 18h2M8 19h8M21 19h5M27 19h2M7 20h2M13 20h12M26 20h1M28 20h1M7 21h1M9 21h4M17 21h7M25 21h4M8 22h2M13 22h1M25 22h2M14 23h1M24 23h2M15 24h1M24 24h1M16 25h1M23 25h1M16 26h1M22 26h1M17 27h1M21 27h1M18 28h3" />
<path stroke="#df0000" d="M39 17h1M37 18h2M35 19h2M35 20h2M39 20h1M34 21h6M34 22h5M33 23h2M32 24h3M31 25h3M30 26h4M9 27h2M29 27h4M9 28h3M29 28h3M10 29h4M29 29h3M11 30h4M22 30h4M28 30h3M13 31h2M20 31h2M24 31h4M14 32h1M20 32h2M24 32h3M14 33h2M19 33h11M14 34h9M26 34h3M15 35h1M19 35h1M27 35h2M21 36h1M19 37h4M25 37h2M20 38h8M22 39h3M27 39h2" />
<path stroke="#ff0000" d="M15 22h2M16 23h3M22 23h1M17 24h1M21 24h2M20 25h2M18 26h3" />
<path stroke="#fc809a" d="M19 23h3M18 24h3M18 25h2" />
<path stroke="#593505" d="M2 24h1M0 25h1M5 25h1M0 26h1M4 26h2M2 27h2M0 28h2M5 29h1" />
<path stroke="#593405" d="M3 24h1M3 25h1M2 26h2M2 28h1" />
<path stroke="#c67400" d="M7 28h1M38 30h1M39 33h1M39 34h1" />
<path stroke="#1fbfff" d="M0 29h2" />
<path stroke="#c67500" d="M7 29h1M5 30h1M8 30h1M6 31h1M7 32h3M37 32h1M37 33h1" />
<path stroke="#c67600" d="M9 29h1M33 29h1M35 29h3M9 30h1M33 30h1M9 31h1M34 31h3M39 31h1M39 32h1" />
<path stroke="#ebcf07" d="M37 30h1M38 34h1M28 36h1M29 37h1" />
</svg>