<svg xmlns="http://www.w3.org/2000/svg" viewBox="0 -0.5 40 40" shape-rendering="crispEdges">
<metadata>Made with Pixels to Svg https://codepen.io/shshaw/pen/XbxvNj</metadata>
<path stroke="#ff1000" d="M0 0h40M0 1h40M0 2h16M20 2h20M0 3h14M21 3h1M24 3h16M0 4h13M25 4h15M0 5h12M27 5h13M28 6h2" />
<path stroke="#3b2000" d="M16 2h3M14 3h5M22 3h1M13 4h4M19 4h1M12 5h2M15 5h1M17 5h1M19 5h1M24 5h1M13 6h1M25 6h1M18 7h1M25 7h1M28 7h1M11 8h1M28 8h2M15 9h3M28 9h2M28 10h2M9 11h1M28 11h1M30 11h1M8 12h2M28 12h1M8 13h2M29 13h1M31 13h1M24 14h1M29 14h1M32 14h2M7 15h2M29 15h1M31 15h1M33 15h1M7 16h2M30 16h1M32 16h4M8 17h1M32 17h2M35 17h1M29 18h1M32 18h2M31 19h1M33 19h1M31 20h1M34 20h1M31 21h1M7 23h1M7 24h1M9 24h1M11 24h1M28 24h1M30 24h2M9 25h1M31 25h1M27 27h2M31 27h1M25 28h1M27 28h2M32 28h1M17 29h1M28 29h2M17 30h1M26 30h1M29 30h1M29 31h2M30 32h1" />
<path stroke="#673702" d="M19 2h1M20 3h1M17 4h1M18 5h1M22 5h1M19 6h1M23 6h1M27 6h1M23 7h1M25 10h1M26 11h1M29 11h1M30 12h1M30 13h1M31 14h1M32 15h1M30 19h1M32 19h1M32 20h1M31 22h1M29 28h1M26 29h1M30 30h1" />
<path stroke="#3b1f00" d="M19 3h1M22 4h2M20 5h1M26 5h1M11 6h1M24 6h1M26 6h1M10 7h2M19 7h1M24 7h1M26 7h2M10 8h1M23 8h1M25 8h1M10 9h2M24 9h2M9 10h1M26 10h1M30 10h1M13 11h2M17 11h4M27 11h1M31 12h2M26 13h1M33 13h1M8 14h2M30 14h1M27 15h1M30 20h1M30 21h1M10 27h1M9 28h1M5 38h2" />
<path stroke="#673802" d="M23 3h1M24 4h1M25 5h1M34 14h1M34 15h1M36 17h1M34 18h1M34 19h1M35 20h1M35 21h1" />
<path stroke="#2c1800" d="M18 4h1M14 5h1M16 5h1M21 5h1M23 5h1M12 6h1M14 6h4M20 6h3M12 7h1M15 7h1M20 7h3M22 8h1M24 8h1M26 8h2M12 9h2M20 9h1M23 9h1M26 9h2M11 10h4M17 10h5M24 10h1M27 10h1M24 11h2M25 12h1M27 12h1M10 13h1M24 13h1M28 13h1M10 14h1M26 14h1M28 14h1M9 15h1M31 16h1M29 17h3M30 18h2M30 22h1M10 23h2M27 23h2M30 23h2M10 24h1M12 24h3M26 24h2M10 25h2M13 25h3M25 25h4M10 26h2M13 26h1M15 26h1M25 26h1M27 26h2M31 26h1M15 27h1M25 27h1M15 28h1M15 29h1" />
<path stroke="#673502" d="M20 4h2M15 11h1M21 11h1" />
<path stroke="#ff6f00" d="M0 6h11M30 6h10M0 7h10M29 7h11M0 8h10M30 8h10M0 9h10M31 9h9M0 10h9M32 10h8M0 11h3M6 11h3M37 11h3" />
<path stroke="#ece8e8" d="M18 6h1M13 7h2M17 7h1M15 8h2M16 14h1M16 15h1M16 16h1M21 29h1M19 30h2M27 35h1M26 36h1M8 37h2M26 37h1M26 38h1M26 39h1" />
<path stroke="#673602" d="M16 7h1M14 9h1M21 9h1M30 9h1M16 10h1M22 10h1M31 11h1M24 12h1M32 13h1" />
<path stroke="#ffffff" d="M12 8h3M17 8h5M19 9h1M22 9h1M23 10h1M11 11h1M16 11h1M22 11h2M11 12h1M16 12h1M22 12h2M26 12h1M16 13h1M22 13h2M25 13h1M27 13h1M14 14h1M19 14h1M22 14h2M25 14h1M27 14h1M22 15h5M22 16h1M27 16h1M7 30h1M21 30h1M4 31h2M7 31h1M19 31h4M4 32h1M6 32h1M17 32h7M5 33h2M17 33h7M4 34h2M7 34h1M16 34h8M4 35h1M6 35h2M16 35h7M28 35h2M4 36h3M14 36h8M27 36h4M13 37h9M27 37h5M9 38h2M13 38h3M17 38h4M27 38h1M29 38h4M10 39h2M13 39h2M17 39h3M27 39h1M30 39h3" />
<path stroke="#3b2100" d="M18 9h1" />
<path stroke="#000000" d="M10 10h1M10 11h1M10 12h1M12 12h1M15 12h1M17 12h1M21 12h1M11 13h1M15 13h1M17 13h1M21 13h1M11 14h1M15 14h1M17 14h1M20 14h2M10 15h2M14 15h2M17 15h1M19 15h3M28 15h1M9 16h1M11 16h1M14 16h2M17 16h1M19 16h3M23 16h4M28 16h1M9 17h1M12 17h1M14 17h4M19 17h4M27 17h2M8 18h8M17 18h1M20 18h2M24 18h2M28 18h1M7 19h1M16 19h5M26 19h1M29 19h1M6 20h1M9 20h4M25 20h1M27 20h1M29 20h1M6 21h1M8 21h1M13 21h4M24 21h1M29 21h1M7 22h1M10 22h3M14 22h1M17 22h8M27 22h2M8 23h2M12 23h2M15 23h1M23 23h1M26 23h1M16 24h1M23 24h1M25 24h1M17 25h1M22 25h1M24 25h1M17 26h1M21 26h1M23 26h1M16 27h1M18 27h3M22 27h1M17 28h1M21 28h2M7 29h1M18 29h3M22 29h1M4 30h3M8 30h1M18 30h1M22 30h2M3 31h1M6 31h1M8 31h1M17 31h2M23 31h2M3 32h1M5 32h1M7 32h1M16 32h1M3 33h2M7 33h1M16 33h1M3 34h1M6 34h1M8 34h1M15 34h1M27 34h3M3 35h1M5 35h1M8 35h1M14 35h2M30 35h2M3 36h1M7 36h3M13 36h1M31 36h2M4 37h4M10 37h1M12 37h1M32 37h1M8 38h1M11 38h2M16 38h1M28 38h1M33 38h1M9 39h1M12 39h1M15 39h2M28 39h2M33 39h1" />
<path stroke="#2c1700" d="M15 10h1M12 11h1" />
<path stroke="#ffbe00" d="M31 10h1M32 11h5M0 12h3M7 12h1M29 12h1M33 12h7M0 13h2M7 13h1M34 13h6M0 14h2M7 14h1M35 14h5M0 15h2M30 15h1M35 15h5M0 16h2M29 16h1M36 16h4M0 17h2M7 17h1M34 17h1M37 17h3M0 18h2M7 18h1M35 18h5M0 19h2M6 19h1" />
<path stroke="#6f3f06" d="M3 11h1M3 12h1M2 13h1M2 14h1M2 15h1M2 16h1M2 17h1M2 18h1M2 19h1M3 20h1M3 21h1M3 22h1M3 23h1M4 24h1M4 25h1M4 26h1M4 27h1M4 28h1M6 39h1" />
<path stroke="#8e5109" d="M4 11h2M4 12h1M3 13h1M3 14h1M3 15h1M3 16h1M3 17h1M3 18h1M3 19h1M4 20h1M4 21h1M4 22h1M4 23h1M7 38h1" />
<path stroke="#9f5c0a" d="M5 12h2M4 13h3M4 14h3M4 15h3M4 16h3M4 17h3M4 18h3M4 19h2M5 20h1M5 21h1M5 22h1M5 23h1M5 24h1M5 25h1M5 27h2M5 28h2M5 29h2M7 39h1" />
<path stroke="#c3d9f9" d="M13 12h2M18 12h3M12 13h3M18 13h3M12 14h2M18 14h1M12 15h2M18 15h1M12 16h2M18 16h1M13 17h1M18 17h1M18 18h2" />
<path stroke="#ff8a00" d="M10 16h1M10 17h2M23 17h4M16 18h1M22 18h2M26 18h2M8 19h8M21 19h5M27 19h2M7 20h2M13 20h12M26 20h1M28 20h1M7 21h1M9 21h4M17 21h7M25 21h4M8 22h2M13 22h1M25 22h2M14 23h1M24 23h2M15 24h1M24 24h1M16 25h1M23 25h1M16 26h1M22 26h1M17 27h1M21 27h1M18 28h3" />
<path stroke="#ffd600" d="M35 19h5M0 20h3M33 20h1M36 20h4M0 21h3M32 21h3M36 21h4M0 22h3M6 22h1M29 22h1M32 22h6M0 23h3M6 23h1M29 23h1M32 23h3M0 24h4M6 24h1M8 24h1M29 24h1M32 24h2M0 25h4M6 25h3M12 25h1M29 25h2M32 25h1M0 26h4M7 26h3M12 26h1M14 26h1M24 26h1M26 26h1M29 26h2M32 26h1M0 27h3M9 27h1M11 27h4M23 27h2M26 27h1M29 27h2M0 28h2M10 28h5M16 28h1M23 28h2M26 28h1M30 28h2M11 29h4M16 29h1M23 29h3M27 29h1M12 30h5M24 30h2M27 30h2M13 31h4M25 31h4M14 32h2M26 32h3M27 33h1" />
<path stroke="#ff0000" d="M15 22h2M16 23h3M22 23h1M17 24h1M21 24h2M20 25h2M18 26h3" />
<path stroke="#e4ba6c" d="M38 22h2M38 23h1M34 29h1M36 29h1M37 31h1M36 32h3M38 33h1" />
<path stroke="#fc809a" d="M19 23h3M18 24h3M18 25h2" />
<path stroke="#4fae31" d="M35 23h2M36 24h1M36 26h2M37 27h3M35 28h1M35 29h1M38 30h1M39 31h1" />
<path stroke="#dea841" d="M37 23h1M33 26h2M3 27h1M32 27h2M2 28h2M0 29h4M30 29h3M0 30h4M31 30h1M0 31h3M31 31h1M0 32h3M29 32h1M0 33h3M8 33h1M28 33h9M0 34h3M9 34h1M30 34h4M2 35h1M9 35h5" />
<path stroke="#e4bb6c" d="M39 23h1M38 24h2M39 25h1M35 26h1M7 27h2M34 27h2M7 28h2M33 28h2M8 29h3M33 29h1M9 30h3M32 30h5M9 31h4M32 31h5M8 32h6M31 32h5M9 33h7M37 33h1M10 34h5" />
<path stroke="#50ae31" d="M34 24h1M33 25h2M39 29h1M39 30h1M38 31h1" />
<path stroke="#caf6ff" d="M35 24h1" />
<path stroke="#439d23" d="M37 24h1M38 25h1M39 26h1M38 28h1M38 29h1" />
<path stroke="#4eae31" d="M35 25h3M38 26h1M36 28h2M39 28h1M39 32h1M39 33h1M38 34h2" />
<path stroke="#9f5b0a" d="M5 26h2" />
<path stroke="#429d23" d="M36 27h1M37 29h1M37 30h1" />
<path stroke="#6f3e06" d="M4 29h1" />
<path stroke="#be8209" d="M24 32h1M26 33h1M25 35h2M22 37h1M25 37h1M21 38h2M24 38h1M20 39h1M25 39h1" />
<path stroke="#de9500" d="M25 32h1M24 33h1M24 34h1M23 35h1M22 36h1M24 37h1M23 38h1M22 39h2" />
<path stroke="#271500" d="M25 33h1M24 35h1M25 36h1M23 37h1M21 39h1M24 39h1" />
<path stroke="#de9400" d="M25 34h2M23 36h2M25 38h1" />
<path stroke="#af8331" d="M34 34h4M32 35h8M2 36h1M33 36h7M0 37h4M33 37h7M0 38h5M34 38h6M0 39h6M8 39h1M34 39h6" />
<path stroke="#af8231" d="M0 35h2M0 36h2M10 36h3M11 37h1" />
</svg>