<svg xmlns="http://www.w3.org/2000/svg" viewBox="0 -0.5 40 40" shape-rendering="crispEdges">
<metadata>Made with Pixels to Svg https://codepen.io/shshaw/pen/XbxvNj</metadata>
<path stroke="#71653a" d="M0 0h1M1 1h1M2 2h1M1 3h1M3 3h1M1 4h2M4 4h1M38 4h1M1 5h2M5 5h1M38 5h1M1 6h2M4 6h1M6 6h1M2 7h1M4 7h2M7 7h1M4 8h2M7 8h1M9 8h2M12 8h4M23 8h7M5 9h1M7 9h1M9 9h2M12 9h2M25 9h5M7 10h1M9 10h2M12 10h1M26 10h4M9 11h2M27 11h3M9 12h2M28 12h2M9 13h2M28 13h2M9 14h2M29 14h1M9 15h1M29 15h1M10 23h1M9 24h2M9 25h2M9 26h2M9 27h2M10 28h1M10 29h1M12 31h1M9 36h1M9 37h2M13 37h1M9 38h2M12 38h2M9 39h2M12 39h2" />
<path stroke="#3b351f" d="M1 0h39M0 1h1M2 1h37M1 2h1M3 2h1M38 2h1M2 3h1M3 4h1M4 5h1M36 5h1M0 6h1M5 6h1M0 7h2M6 7h1M8 7h1M0 8h1M3 8h1M8 8h1M11 8h1M30 8h1M0 9h1M4 9h1M8 9h1M11 9h1M30 9h1M0 10h2M6 10h1M8 10h1M11 10h1M30 10h1M0 11h2M7 11h2M11 11h1M30 11h1M0 12h2M8 12h1M11 12h1M30 12h1M0 13h2M8 13h1M30 13h1M0 14h2M8 14h1M30 14h1M0 15h2M8 15h1M30 15h1M0 16h2M8 16h1M0 17h2M8 17h1M0 18h2M0 19h2M0 20h2M0 21h2M0 22h2M0 23h1M8 24h1M11 24h1M8 25h1M11 25h1M8 26h1M11 26h1M0 27h2M11 27h1M0 28h1M11 28h1M11 29h1M11 30h1M11 31h1M1 32h1M11 32h1M0 33h2M0 34h1M0 35h1M8 35h1M0 36h2M8 36h1M38 36h2M0 37h2M8 37h1M38 37h2M0 38h2M8 38h1M11 38h1M39 38h1M0 39h2M8 39h1M11 39h1" />
<path stroke="#8c7e49" d="M39 1h1M0 2h1M39 2h1M0 3h1M39 3h1M0 4h1M39 4h1M0 5h1M3 5h1M37 5h1M39 5h1M3 6h1M32 6h1M36 6h1M3 7h1M31 7h2M6 8h1M31 8h2M6 9h1M31 9h2M31 10h2M31 11h2M4 12h1M31 12h2M4 13h1M31 13h2M4 14h2M7 14h1M31 14h2M4 15h1M31 15h2M4 16h2M7 16h1M31 16h2M4 17h2M7 17h1M32 17h1M4 18h2M7 18h1M32 18h1M4 19h2M32 19h1M4 20h2M4 22h3M6 23h2M7 24h1M6 31h1M6 32h1M5 33h3M5 34h3M4 35h4M4 36h4M4 37h4M37 37h1M4 38h4M34 38h5M4 39h4M24 39h2M34 39h6" />
<path stroke="#383118" d="M4 2h31M4 3h30" />
<path stroke="#000000" d="M35 2h3M34 3h1M38 3h1M33 4h1M36 4h2M33 5h1M35 5h1M33 6h1M35 6h1M37 6h3M33 7h1M35 7h2M16 8h7M33 8h1M38 8h1M14 9h2M23 9h2M33 9h1M36 9h2M39 9h1M13 10h1M15 10h1M19 10h3M25 10h1M33 10h1M38 10h1M12 11h1M16 11h1M18 11h1M22 11h1M26 11h1M33 11h1M35 11h2M39 11h1M12 12h1M17 12h1M22 12h1M26 12h2M33 12h1M36 12h2M11 13h1M17 13h1M27 13h1M33 13h1M36 13h1M38 13h2M11 14h1M28 14h1M33 14h1M36 14h1M10 15h2M15 15h1M28 15h1M33 15h1M36 15h1M9 16h1M11 16h1M19 16h1M23 16h4M28 16h3M33 16h1M36 16h1M9 17h1M12 17h1M15 17h3M21 17h2M27 17h2M31 17h1M33 17h1M36 17h1M8 18h8M17 18h1M20 18h2M24 18h2M28 18h1M31 18h1M33 18h1M36 18h1M7 19h1M16 19h5M26 19h1M29 19h1M31 19h1M33 19h1M36 19h1M6 20h1M9 20h4M25 20h1M27 20h1M29 20h1M32 20h2M36 20h1M6 21h1M8 21h1M13 21h1M24 21h1M29 21h1M33 21h1M36 21h1M7 22h1M10 22h15M27 22h2M33 22h1M36 22h1M1 23h5M8 23h2M11 23h1M24 23h1M27 23h1M32 23h1M36 23h1M0 24h1M6 24h1M12 24h1M24 24h1M27 24h1M35 24h1M2 25h2M7 25h1M12 25h1M25 25h1M27 25h1M34 25h2M0 26h2M3 26h2M7 26h1M12 26h1M14 26h1M26 26h2M34 26h1M36 26h1M2 27h1M8 27h1M12 27h1M14 27h1M27 27h1M34 27h1M37 27h1M1 28h1M4 28h1M8 28h2M12 28h1M14 28h1M28 28h1M34 28h1M37 28h1M0 29h1M3 29h2M6 29h1M9 29h1M12 29h1M15 29h1M28 29h1M34 29h1M37 29h1M2 30h2M6 30h1M9 30h2M12 30h1M16 30h5M28 30h1M34 30h1M37 30h1M1 31h1M3 31h1M5 31h1M7 31h1M10 31h1M13 31h1M21 31h1M28 31h1M34 31h1M37 31h2M0 32h1M2 32h1M5 32h1M7 32h1M10 32h1M12 32h1M14 32h10M27 32h1M34 32h1M37 32h1M39 32h1M2 33h1M4 33h1M8 33h1M11 33h2M16 33h1M24 33h3M29 33h1M33 33h1M39 33h1M1 34h1M4 34h1M8 34h1M12 34h1M15 34h1M17 34h1M20 34h1M28 34h1M33 34h1M39 34h1M1 35h1M3 35h1M9 35h1M14 35h1M18 35h1M21 35h3M26 35h2M32 35h1M38 35h1M2 36h1M10 36h1M13 36h1M19 36h1M24 36h2M37 36h1M11 37h2M20 37h2M34 37h3M22 38h4M33 38h1M26 39h8" />
<path stroke="#02d514" d="M35 3h2M34 4h2M34 5h1M34 6h1M34 7h1M37 7h2M34 8h4M16 9h5M34 9h2M17 10h1M23 11h2M38 11h1M38 12h1M25 13h1M34 13h1M25 14h1M34 14h1M25 15h1M34 15h1M34 16h1M34 17h1M34 18h1M34 19h1M31 20h1M34 20h1M31 21h1M31 22h1M29 23h3M1 24h4M28 24h4M33 24h1M0 25h2M4 25h2M28 25h6M5 26h2M28 26h6M3 27h4M28 27h4M36 27h1M2 28h1M5 28h3M29 28h4M36 28h1M1 29h1M5 29h1M7 29h1M29 29h4M36 29h1M0 30h1M4 30h1M7 30h2M29 30h4M36 30h1M4 31h1M8 31h1M29 31h3M36 31h1M3 32h1M9 32h1M28 32h2M31 32h1M36 32h1M3 33h1M9 33h1M27 33h2M35 33h3M2 34h1M23 34h1M26 34h1M30 34h1M35 34h4M2 35h1M11 35h3M30 35h2M34 35h3M11 36h2M30 36h6M28 37h6M32 38h1" />
<path stroke="#2af33a" d="M37 3h1M39 7h1M39 8h1M16 10h1M22 10h1M24 10h1M17 11h1M25 11h1M25 12h1M35 12h1M39 12h1M26 13h1M35 13h1M27 14h1M35 14h1M35 15h1M35 16h1M35 17h1M29 18h1M35 18h1M30 19h1M35 19h1M30 20h1M35 20h1M30 21h1M35 21h1M29 22h2M28 23h1M5 24h1M6 25h1M35 26h1M7 27h1M35 27h1M35 28h1M8 29h1M35 29h1M35 30h1M9 31h1M35 31h1M30 32h1M35 32h1M38 32h1M10 33h1M30 33h1M34 33h1M38 33h1M29 34h1M34 34h1M33 35h1" />
<path stroke="#231e0c" d="M5 4h1M6 5h2M32 5h1M7 6h25M9 7h22M17 35h1M14 36h1M17 36h2M14 37h1M17 37h3M14 38h1M17 38h5M14 39h1M17 39h7" />
<path stroke="#2d2711" d="M6 4h27M8 5h24" />
<path stroke="#5e5432" d="M1 8h2M1 9h3M38 9h1M2 10h4M39 10h1M2 11h4M2 12h2M2 13h2M37 13h1M2 14h2M37 14h3M2 15h2M37 15h3M2 16h2M37 16h3M2 17h2M37 17h3M3 18h1M37 18h3M37 19h1M39 19h1M39 20h1M39 21h1M3 22h1M39 22h1M37 23h1M39 23h1M36 24h4M36 25h4M2 26h1M37 26h3M38 27h2M38 28h2M38 29h2M38 30h2M2 31h1M39 31h1M16 34h1M15 35h2M39 35h1M3 36h1M15 36h2M2 37h2M15 37h2M2 38h2M15 38h2M2 39h2M15 39h2" />
<path stroke="#2af339" d="M21 9h2M14 10h1M13 11h3M19 11h3M13 12h1M16 12h1M18 12h1M21 12h1M23 13h1M23 14h1M23 15h1" />
<path stroke="#02d516" d="M18 10h1M23 10h1M24 12h1M24 13h1M24 14h1M26 14h1M24 15h1M26 15h2M27 16h1" />
<path stroke="#02d512" d="M34 10h4M34 11h1M23 12h1M34 12h1M29 17h2M30 18h1M34 21h1M34 22h1M33 23h2M32 24h1M32 27h2M33 28h1M33 29h1M33 30h1M32 31h2M32 32h2M31 33h2M10 34h2M13 34h1M21 34h2M24 34h2M27 34h1M31 34h2M24 35h2M28 35h2M27 36h3" />
<path stroke="#dfd2a7" d="M6 11h1M5 12h3M5 13h3M6 14h1" />
<path stroke="#02d510" d="M37 11h1M35 22h1M35 23h1M20 33h4" />
<path stroke="#05be12" d="M14 12h2M19 12h2M14 13h1M19 13h1M32 21h1M32 22h1M34 24h1M3 28h1M2 29h1M1 30h1M5 30h1M0 31h1M4 32h1M8 32h1M13 32h1M13 33h3M3 34h1M9 34h1M14 34h1M10 35h1M37 35h1M36 36h1M26 37h2" />
<path stroke="#05be14" d="M12 13h2M15 13h2M18 13h1M20 13h3M12 14h1M17 14h1M22 14h1M12 15h1M17 15h1M22 15h1M12 16h1M17 16h1M22 16h1M17 33h3M18 34h2M19 35h2M20 36h4M26 36h1M22 37h4M26 38h6" />
<path stroke="#fff600" d="M13 14h1M18 14h4M13 15h1M21 15h1M13 16h1M21 16h1M13 17h2M18 18h2" />
<path stroke="#ff0202" d="M14 14h3M14 15h1M16 15h1M18 15h3M14 16h3M18 16h1M20 16h1M18 17h3" />
<path stroke="#886b00" d="M5 15h2M2 19h1M2 20h1M38 20h1M2 21h4M37 21h2M2 22h1M37 22h2M38 23h1" />
<path stroke="#c69c06" d="M7 15h1M6 16h1M6 17h1M2 18h1M6 18h1M3 19h1M6 19h1M38 19h1M3 20h1M37 20h1" />
<path stroke="#2af33c" d="M10 16h1M10 17h2" />
<path stroke="#ff8900" d="M23 17h4M16 18h1M22 18h2M26 18h2M8 19h8M21 19h5M27 19h2M7 20h2M13 20h12M26 20h1M28 20h1M7 21h1M9 21h4M14 21h10M25 21h4M8 22h2M25 22h2M25 23h2M25 24h2M26 25h1M13 29h2M13 30h3M14 31h7" />
<path stroke="#ff7878" d="M12 23h2M15 23h1M18 23h1M21 23h1M18 26h4M23 26h2M18 27h5M24 27h2M18 28h6M25 28h2M21 29h4M26 29h1M22 30h6M24 31h4" />
<path stroke="#fb9797" d="M14 23h1M17 23h1M20 23h1M23 23h1" />
<path stroke="#fa8b8b" d="M16 23h1M19 23h1M22 23h1" />
<path stroke="#ffffff" d="M13 24h1M16 24h1M19 24h1M22 24h1M13 25h1M16 25h1M19 25h1M22 25h1" />
<path stroke="#fafedd" d="M14 24h1M17 24h1M20 24h1M23 24h1M14 25h1M17 25h1M20 25h1M23 25h1" />
<path stroke="#850606" d="M15 24h1M18 24h1M21 24h1M15 25h1M15 26h1" />
<path stroke="#f74b4b" d="M18 25h1M21 25h1M16 26h2M22 26h1M15 27h2M23 27h1M15 28h1M17 28h1M24 28h1M18 29h2M25 29h1" />
<path stroke="#f99898" d="M24 25h1M25 26h1M26 27h1M27 28h1M27 29h1" />
<path stroke="#d87706" d="M13 26h1M13 27h1" />
<path stroke="#fb6464" d="M17 27h1M16 28h1M16 29h2M20 29h1M21 30h1M22 31h2M24 32h3" />
<path stroke="#eb8003" d="M13 28h1" />
</svg>