<svg xmlns="http://www.w3.org/2000/svg" viewBox="0 -0.5 40 40" shape-rendering="crispEdges">
<metadata>Made with Pixels to Svg https://codepen.io/shshaw/pen/XbxvNj</metadata>
<path stroke="#9b9b9b" d="M0 0h40M0 1h15M25 1h15M0 2h14M26 2h14M0 3h13M27 3h13M0 4h12M28 4h12M0 5h11M29 5h11M0 6h11M30 6h10M0 7h10M30 7h10M0 8h10M30 8h10M0 9h10M30 9h10M0 10h10M30 10h10M0 11h11M30 11h10M0 12h10M30 12h10M0 13h10M30 13h10M0 14h11M29 14h11M0 15h10M29 15h11M0 16h9M29 16h11M0 17h9M29 17h11M0 18h8M29 18h11M0 19h7M30 19h10M0 20h6M30 20h10M0 21h6M30 21h10M0 22h7M29 22h11M0 23h8M10 23h2M27 23h13M0 24h14M26 24h14M0 25h15M25 25h15M0 26h15M24 26h16M0 27h16M23 27h17M0 28h17M23 28h17M0 29h19M24 29h16M0 30h18M25 30h15M0 31h17M26 31h14M0 32h16M27 32h13M0 33h16M28 33h12M0 34h15M30 34h10M0 35h14M31 35h9M0 36h13M32 36h8M0 37h12M33 37h7M0 38h12M34 38h6M0 39h12M34 39h6" />
<path stroke="#000000" d="M15 1h10M14 2h1M25 2h1M13 3h1M26 3h1M12 4h1M27 4h1M11 5h1M28 5h1M11 6h1M29 6h1M10 7h1M20 7h2M29 7h1M10 8h1M19 8h1M29 8h1M10 9h1M12 9h4M18 9h1M29 9h1M10 10h1M29 10h1M11 11h6M18 11h6M29 11h1M10 12h2M16 12h1M18 12h1M23 12h7M10 13h2M16 13h3M23 13h5M29 13h1M11 14h1M13 14h2M16 14h3M20 14h2M23 14h1M28 14h1M10 15h2M13 15h2M16 15h1M18 15h1M20 15h2M23 15h1M28 15h1M9 16h1M11 16h1M16 16h1M18 16h1M23 16h4M28 16h1M9 17h1M11 17h1M16 17h3M23 17h1M27 17h2M8 18h8M18 18h8M28 18h1M7 19h1M16 19h5M26 19h1M29 19h1M6 20h1M9 20h4M25 20h1M27 20h1M29 20h1M6 21h1M8 21h1M13 21h4M24 21h1M29 21h1M7 22h1M10 22h3M14 22h1M17 22h8M27 22h2M8 23h2M12 23h2M15 23h1M23 23h1M26 23h1M14 24h1M16 24h1M23 24h1M25 24h1M15 25h1M17 25h1M22 25h1M24 25h1M15 26h1M17 26h1M21 26h1M23 26h1M16 27h1M18 27h3M22 27h1M17 28h1M21 28h2M19 29h1M23 29h1M18 30h1M24 30h1M17 31h1M19 31h1M23 31h1M25 31h1M16 32h1M20 32h1M22 32h1M26 32h1M16 33h2M21 33h1M25 33h1M27 33h1M15 34h1M18 34h1M20 34h1M22 34h1M24 34h1M28 34h2M14 35h1M19 35h1M23 35h1M30 35h1M13 36h1M21 36h1M31 36h1M12 37h1M32 37h1M12 38h1M16 38h1M21 38h1M28 38h1M33 38h1M12 39h1M15 39h2M28 39h2M33 39h1" />
<path stroke="#4c2e03" d="M15 2h10M14 3h6M27 6h2M26 7h3M26 8h3M27 9h2" />
<path stroke="#ffffff" d="M20 3h6M13 4h14M12 5h16M12 6h15M11 7h9M22 7h4M11 8h8M20 8h6M11 9h1M16 9h2M19 9h8M11 10h18M17 11h1M24 11h5M17 12h1M28 13h1M24 14h4M17 15h1M24 15h4M17 16h1M27 16h1M20 29h3M19 30h5M20 31h3M21 32h1M26 33h1M16 34h1M18 35h1M22 35h1M26 35h1M14 36h1M16 36h1M20 36h1M24 36h1M28 36h1M18 37h1M22 37h1M26 37h1M30 37h1M14 38h1M20 38h1M24 38h1M32 38h1M18 39h1M22 39h1M30 39h1" />
<path stroke="#9ffbb6" d="M12 12h4M19 12h4" />
<path stroke="#caffd7" d="M12 13h4M19 13h4M12 14h1M15 14h1M19 14h1M22 14h1M12 15h1M15 15h1M19 15h1M22 15h1M12 16h4M19 16h4M12 17h4M19 17h4" />
<path stroke="#ff8a00" d="M10 16h1M10 17h1M24 17h3M16 18h2M26 18h2M8 19h8M21 19h5M27 19h2M7 20h2M13 20h12M26 20h1M28 20h1M7 21h1M9 21h4M17 21h7M25 21h4M8 22h2M13 22h1M25 22h2M14 23h1M24 23h2M15 24h1M24 24h1M16 25h1M23 25h1M16 26h1M22 26h1M17 27h1M21 27h1M18 28h3" />
<path stroke="#ff0000" d="M15 22h2M16 23h3M22 23h1M17 24h1M21 24h2M20 25h2M18 26h3" />
<path stroke="#fc809a" d="M19 23h3M18 24h3M18 25h2" />
<path stroke="#b6d5ff" d="M18 31h1M24 31h1M17 32h3M23 32h3M18 33h3M22 33h3M17 34h1M19 34h1M21 34h1M23 34h1M25 34h3M15 35h3M20 35h2M24 35h2M27 35h3M15 36h1M17 36h3M22 36h2M26 36h2M29 36h2M13 37h5M19 37h3M23 37h2M27 37h3M31 37h1M13 38h1M15 38h1M17 38h3M22 38h2M26 38h2M29 38h3M13 39h2M17 39h1M19 39h3M27 39h1M31 39h2" />
<path stroke="#f0908f" d="M25 36h1" />
<path stroke="#fee776" d="M25 37h1M25 38h1" />
<path stroke="#75aaf2" d="M23 39h4" />
</svg>