<svg xmlns="http://www.w3.org/2000/svg" viewBox="0 -0.5 40 40" shape-rendering="crispEdges">
<metadata>Made with Pixels to Svg https://codepen.io/shshaw/pen/XbxvNj</metadata>
<path stroke="#6cb4ff" d="M0 0h28M34 0h6M0 1h21M35 1h5M0 2h19M35 2h5M0 3h16M34 3h6M0 4h15M33 4h7M0 5h14M31 5h9M0 6h11M32 6h8M0 7h9M32 7h8M0 8h8M32 8h8M0 9h7M32 9h8M0 10h7M32 10h8M0 11h7M33 11h7M0 12h8M33 12h7M0 13h8M9 13h2M33 13h7M0 14h11M32 14h8M0 15h10M31 15h9M0 16h9M29 16h11M0 17h9M29 17h11M0 18h8M29 18h11M0 19h7M30 19h10M0 20h6M30 20h10M0 21h6M30 21h10M0 22h7M29 22h11M0 23h8M10 23h2M27 23h13M0 24h14M26 24h14M0 25h2M7 25h8M25 25h15M0 26h1M8 26h7M24 26h16M0 27h1M8 27h2M11 27h5M23 27h17M0 28h1M8 28h1M12 28h5M23 28h17M0 29h1M12 29h7M23 29h17M0 30h1M11 30h7M24 30h16M0 31h1M10 31h7M25 31h15M0 32h2M9 32h7M26 32h14M0 33h3M8 33h8M27 33h13M0 34h3M8 34h7M30 34h10M0 35h3M8 35h6M32 35h8M0 36h4M9 36h4M33 36h7M0 37h4M10 37h2M33 37h7M0 38h5M10 38h2M34 38h6M0 39h5M11 39h1M34 39h6" />
<path stroke="#000000" d="M28 0h1M33 0h1M21 1h8M34 1h1M19 2h2M28 2h1M34 2h1M16 3h3M29 3h1M33 3h1M15 4h1M19 4h5M30 4h3M14 5h1M24 5h3M30 5h1M27 6h1M31 6h1M28 7h1M31 7h1M29 8h1M31 8h1M29 9h1M31 9h1M30 10h2M32 11h1M10 12h1M12 12h3M18 12h3M32 12h1M11 13h1M15 13h1M17 13h1M21 13h1M32 13h1M11 14h1M15 14h1M17 14h1M21 14h4M28 14h1M31 14h1M10 15h2M13 15h1M15 15h3M19 15h1M21 15h1M28 15h3M9 16h1M11 16h1M15 16h1M17 16h1M21 16h1M23 16h4M28 16h1M9 17h1M12 17h1M15 17h3M21 17h2M27 17h2M8 18h8M17 18h1M20 18h2M24 18h2M28 18h1M7 19h1M16 19h5M26 19h1M29 19h1M6 20h1M9 20h4M25 20h1M27 20h1M29 20h1M6 21h1M8 21h1M13 21h4M24 21h1M29 21h1M7 22h1M10 22h3M14 22h1M17 22h8M27 22h2M8 23h2M12 23h2M15 23h1M23 23h1M26 23h1M14 24h1M16 24h1M23 24h1M25 24h1M2 25h5M15 25h1M17 25h1M22 25h1M24 25h1M1 26h1M3 26h1M5 26h1M7 26h1M15 26h1M17 26h1M21 26h1M23 26h1M1 27h1M3 27h1M5 27h1M7 27h1M10 27h1M16 27h1M18 27h3M22 27h1M1 28h1M3 28h1M5 28h1M7 28h1M9 28h1M11 28h1M17 28h1M21 28h2M1 29h1M3 29h1M5 29h1M7 29h2M11 29h1M19 29h1M22 29h1M1 30h1M6 30h1M10 30h1M18 30h1M22 30h2M1 31h1M9 31h1M17 31h1M23 31h2M2 32h1M8 32h1M16 32h1M25 32h1M3 33h5M16 33h1M26 33h1M3 34h1M7 34h1M15 34h1M27 34h3M3 35h1M7 35h1M14 35h1M30 35h2M4 36h1M8 36h1M13 36h1M31 36h2M4 37h1M9 37h1M12 37h1M32 37h1M5 38h1M9 38h1M12 38h1M16 38h1M28 38h1M33 38h1M5 39h1M10 39h1M12 39h1M15 39h2M28 39h2M33 39h1" />
<path stroke="#e90000" d="M29 0h4M29 1h5M29 2h5M30 3h3M16 4h3M15 5h9M15 6h12M23 7h5M23 8h6M25 9h4M26 10h4M27 11h5M27 12h5M28 13h4M29 14h2M18 31h5M17 32h8M15 35h15M5 36h3M14 36h17M5 37h4M13 39h2M17 39h11M30 39h3" />
<path stroke="#ffffff" d="M21 2h7M19 3h10M24 4h6M27 5h3M28 6h3M29 7h2M30 8h1M30 9h1M22 10h2M12 11h12M11 12h1M15 12h3M21 12h3M12 13h3M16 13h1M18 13h3M22 13h3M12 14h3M16 14h1M18 14h3M12 15h1M14 15h1M18 15h1M20 15h1M22 15h5M12 16h3M16 16h1M18 16h3M22 16h1M27 16h1M13 17h2M18 17h3M18 18h2M2 26h1M4 26h1M6 26h1M2 27h1M4 27h1M6 27h1M2 28h1M4 28h1M6 28h1M10 28h1M2 29h1M4 29h1M6 29h1M9 29h2M20 29h2M2 30h4M7 30h3M19 30h3M2 31h7M3 32h5M17 33h9M4 34h3M16 34h11M4 35h3M13 37h19M6 38h3M13 38h3M17 38h11M29 38h4M6 39h4" />
<path stroke="#803807" d="M11 6h4M17 8h3M25 10h1" />
<path stroke="#682e07" d="M9 7h13M8 8h2M24 9h1M25 11h1M25 12h1M25 13h1M27 13h1M27 14h1" />
<path stroke="#682d07" d="M22 7h1M7 9h1" />
<path stroke="#803907" d="M10 8h7M20 8h2M8 9h2M22 9h2M7 10h2M11 10h11M24 10h1M7 11h1M9 11h3M24 11h1M26 11h1M8 12h2M24 12h1M26 12h1M8 13h1M26 13h1M25 14h2M27 15h1" />
<path stroke="#682f07" d="M22 8h1M10 9h12M9 10h2M8 11h1" />
<path stroke="#ff8a00" d="M10 16h1M10 17h2M23 17h4M16 18h1M22 18h2M26 18h2M8 19h8M21 19h5M27 19h2M7 20h2M13 20h12M26 20h1M28 20h1M7 21h1M9 21h4M17 21h7M25 21h4M8 22h2M13 22h1M25 22h2M14 23h1M24 23h2M15 24h1M24 24h1M16 25h1M23 25h1M16 26h1M22 26h1M17 27h1M21 27h1M18 28h3" />
<path stroke="#ff0000" d="M15 22h2M16 23h3M22 23h1M17 24h1M21 24h2M20 25h2M18 26h3" />
<path stroke="#fc809a" d="M19 23h3M18 24h3M18 25h2" />
</svg>