<svg xmlns="http://www.w3.org/2000/svg" viewBox="0 -0.5 40 40" shape-rendering="crispEdges">
<metadata>Made with Pixels to Svg https://codepen.io/shshaw/pen/XbxvNj</metadata>
<path stroke="#630192" d="M0 0h15M23 0h17M0 1h14M26 1h14M0 2h13M27 2h13M0 3h12M28 3h12M0 4h11M29 4h11M0 5h11M29 5h11M0 6h10M29 6h11M0 7h10M30 7h10M0 8h10M30 8h10M0 9h11M30 9h10M0 10h10M30 10h10M0 11h10M30 11h10M0 12h10M30 12h10M0 13h11M30 13h10M0 14h11M30 14h10M0 15h10M29 15h11M0 16h9M28 16h12M0 17h9M29 17h11M0 18h8M29 18h11M0 19h7M30 19h10M0 20h6M30 20h10M0 21h6M30 21h10M0 22h7M29 22h11M0 23h8M10 23h2M27 23h13M0 24h14M26 24h14M0 25h15M25 25h15M0 26h15M24 26h16M0 27h16M23 27h17M0 28h17M23 28h17M0 29h19M22 29h18M0 30h18M23 30h17M0 31h16M24 31h16M0 32h15M27 32h13M0 33h14M31 33h9M0 34h13M32 34h8M0 35h12M33 35h7M0 36h12M33 36h7M0 37h12M28 37h1M33 37h7M0 38h12M28 38h2M33 38h7M0 39h12M28 39h2M33 39h7" />
<path stroke="#000000" d="M15 0h8M14 1h1M23 1h3M13 2h1M22 2h1M26 2h1M12 3h1M21 3h1M27 3h1M11 4h1M20 4h1M28 4h1M11 5h1M19 5h1M28 5h1M10 6h1M18 6h2M28 6h1M10 7h1M18 7h1M20 7h1M29 7h1M10 8h1M29 8h1M11 9h3M18 9h4M29 9h1M10 10h1M22 10h1M29 10h1M10 11h1M13 11h2M18 11h3M29 11h1M10 12h1M12 12h4M17 12h5M29 12h1M11 13h2M15 13h1M17 13h2M21 13h1M29 13h1M11 14h1M15 14h1M17 14h1M21 14h1M29 14h1M10 15h2M14 15h2M17 15h1M20 15h2M28 15h1M9 16h1M11 16h2M15 16h1M17 16h1M21 16h1M23 16h5M9 17h1M12 17h2M15 17h4M21 17h2M27 17h2M8 18h8M17 18h5M24 18h2M28 18h1M7 19h1M16 19h5M26 19h1M29 19h1M6 20h1M9 20h4M25 20h1M27 20h1M29 20h1M6 21h1M8 21h1M13 21h4M24 21h1M29 21h1M7 22h1M10 22h3M14 22h5M22 22h3M27 22h2M8 23h2M12 23h2M15 23h4M21 23h3M26 23h1M14 24h1M16 24h2M20 24h4M25 24h1M15 25h1M17 25h1M19 25h4M24 25h1M15 26h1M17 26h5M23 26h1M16 27h1M18 27h3M22 27h1M17 28h1M21 28h2M19 29h1M21 29h1M18 30h1M22 30h1M16 31h4M21 31h3M15 32h1M24 32h3M14 33h2M17 33h1M23 33h1M27 33h4M13 34h1M18 34h2M21 34h4M31 34h1M12 35h1M16 35h2M24 35h5M32 35h1M12 36h1M15 36h5M21 36h9M32 36h1M12 37h1M14 37h2M27 37h1M29 37h2M32 37h1M12 38h1M14 38h5M22 38h6M30 38h1M32 38h1M12 39h1M14 39h2M27 39h1M30 39h1M32 39h1" />
<path stroke="#dcdada" d="M15 1h8M14 2h1M24 2h2M13 3h1M26 3h1M12 4h1M27 4h1M12 5h1M11 6h1M27 6h1M11 7h1M28 7h1M11 8h1M14 10h1M17 10h1M12 11h1M15 11h1M17 11h1M23 11h1M11 12h1M23 12h1M23 13h1M23 14h1M28 14h1M23 15h1M20 29h1M20 31h1M19 32h3M20 34h1M14 35h1M20 35h1M30 35h1M20 37h1M20 39h1" />
<path stroke="#ffffff" d="M15 2h7M23 2h1M14 3h7M22 3h4M13 4h7M21 4h6M13 5h6M20 5h8M12 6h6M20 6h7M12 7h6M19 7h1M21 7h7M12 8h17M14 9h4M22 9h7M11 10h3M15 10h2M18 10h4M23 10h6M11 11h1M16 11h1M21 11h2M24 11h5M16 12h1M22 12h1M24 12h5M16 13h1M22 13h1M24 13h5M13 14h1M16 14h1M19 14h1M22 14h1M24 14h4M16 15h1M22 15h1M24 15h4M16 16h1M22 16h1M19 30h3M16 32h3M22 32h2M16 33h1M18 33h5M24 33h3M14 34h4M25 34h6M13 35h1M15 35h1M18 35h2M21 35h3M29 35h1M31 35h1M13 36h2M20 36h1M30 36h2M13 37h1M16 37h4M21 37h6M31 37h1M13 38h1M19 38h3M31 38h1M13 39h1M16 39h4M21 39h6M31 39h1" />
<path stroke="#ff0400" d="M13 13h2M19 13h2M12 14h1M18 14h1M12 15h1M18 15h1M18 16h1M14 17h1M19 17h2" />
<path stroke="#20f508" d="M14 14h1M20 14h1M13 15h1M19 15h1M13 16h2M19 16h2" />
<path stroke="#ff8a00" d="M10 16h1M10 17h2M23 17h4M16 18h1M22 18h2M26 18h2M8 19h8M21 19h5M27 19h2M7 20h2M13 20h12M26 20h1M28 20h1M7 21h1M9 21h4M17 21h7M25 21h4M8 22h2M13 22h1M25 22h2M14 23h1M24 23h2M15 24h1M24 24h1M16 25h1M23 25h1M16 26h1M22 26h1M17 27h1M21 27h1M18 28h3" />
<path stroke="#686666" d="M19 22h3M19 23h2M18 24h2M18 25h1" />
</svg>