<svg xmlns="http://www.w3.org/2000/svg" viewBox="0 -0.5 40 40" shape-rendering="crispEdges">
<metadata>Made with Pixels to Svg https://codepen.io/shshaw/pen/XbxvNj</metadata>
<path stroke="#16e33e" d="M0 0h40M0 1h40M0 2h40M0 3h40M0 4h40M0 5h40M0 6h40M0 7h40M0 8h40M0 9h40M0 10h40M0 11h12M16 11h1M25 11h15M0 12h11M29 12h11M0 13h8M9 13h1M31 13h9M0 14h7M8 14h1M31 14h9M0 15h9M31 15h9M0 16h9M31 16h9M0 17h8M33 17h7M0 18h8M34 18h6M0 19h7M34 19h6M0 20h6M34 20h6M0 21h6M34 21h6M0 22h4M34 22h6M0 23h3M33 23h7M0 24h3M32 24h8M0 25h2M11 25h1M32 25h8M0 26h2M10 26h2M32 26h8M0 27h2M10 27h1M32 27h8M0 28h1M39 28h1" />
<path stroke="#000000" d="M12 11h4M17 11h4M11 12h1M16 12h1M21 12h1M11 13h1M14 13h3M21 13h1M11 14h1M14 14h5M21 14h1M10 15h2M14 15h5M21 15h1M9 16h1M11 16h1M16 16h3M21 16h1M23 16h4M9 17h1M12 17h1M15 17h2M21 17h2M27 17h2M8 18h8M17 18h1M20 18h2M24 18h2M28 18h1M7 19h1M16 19h5M26 19h1M29 19h1M6 20h1M9 20h4M25 20h1M27 20h1M29 20h1M6 21h1M8 21h1M13 21h4M24 21h1M29 21h1M7 22h1M10 22h3M14 22h11M27 22h2M8 23h2M12 23h2M15 23h9M26 23h1M14 24h1M16 24h3M20 24h4M25 24h1M15 25h1M17 25h3M21 25h2M24 25h1M15 26h1M17 26h1M19 26h3M23 26h1M16 27h1M18 27h3M22 27h1M17 28h1M21 28h1" />
<path stroke="#15e43e" d="M21 11h3M25 12h4M29 13h2M30 14h1M31 17h2M33 19h1M33 21h1M4 22h2M3 23h2M32 23h1M31 26h1M30 27h2" />
<path stroke="#0848ec" d="M24 11h1M23 12h1M10 13h1M22 13h1M24 13h2M9 14h1M26 14h2M28 15h1M28 16h2M29 17h1M29 18h2M30 19h2M30 20h1M32 20h1M30 21h1M29 22h2M5 23h2M28 23h2M5 24h1M30 24h1M4 25h1M13 26h1M8 27h2M12 27h1M27 27h2M4 28h1M8 28h1M12 28h2M26 28h1M31 28h1M4 29h2M11 29h2M4 30h2M11 30h2M14 30h1M16 30h4M25 30h2M2 31h2M10 31h2M14 31h1M17 31h7M25 31h2M10 32h2M14 32h3M20 32h4M3 33h1M10 33h2M14 33h1M17 33h2M20 33h4M34 33h2M9 34h2M14 34h1M20 34h1M22 34h1M30 34h3M36 34h1M9 35h2M15 35h1M21 35h2M24 35h2M30 35h3M9 36h3M14 36h1M17 36h1M21 36h1M24 36h1M26 36h1M31 36h1M33 36h1M7 37h2M10 37h2M16 37h1M22 37h1M26 37h1M30 37h1M7 38h2M11 38h1M15 38h1M30 38h2M35 38h1M11 39h2" />
<path stroke="#ffffff" d="M12 12h4M17 12h4M12 13h2M17 13h4M12 14h2M19 14h2M12 15h2M19 15h2M12 16h4M19 16h2M13 17h2M17 17h4M18 18h2" />
<path stroke="#15e43d" d="M22 12h1M24 12h1M26 13h1M28 13h1M29 14h1M30 15h1M30 16h1M30 17h1M31 18h2M33 20h1M6 22h1M31 22h2M31 23h1M9 24h1M31 24h1M31 25h1M30 26h1" />
<path stroke="#0849ec" d="M8 13h1M7 14h1M8 17h1M3 24h2M2 25h2M7 27h1M2 28h2M7 28h1M2 29h2M22 29h1M2 30h1M22 30h1M3 34h1M3 35h2M3 36h2M3 37h3M4 38h1M36 39h1" />
<path stroke="#0845ec" d="M23 13h1M23 14h3M23 15h5M27 16h1M27 24h2M26 25h3M3 26h2M24 26h2M27 26h2M2 27h3M13 27h2M23 27h3M29 27h1M14 28h2M22 28h4M29 28h1M6 29h1M13 29h3M21 29h1M23 29h5M29 29h2M13 30h1M15 30h1M20 30h1M23 30h2M27 30h5M12 31h1M15 31h2M24 31h1M28 31h4M3 32h2M12 32h1M17 32h1M19 32h1M25 32h1M27 32h6M4 33h2M12 33h1M15 33h1M19 33h1M25 33h1M27 33h7M4 34h2M11 34h2M15 34h2M18 34h2M23 34h1M25 34h1M27 34h3M33 34h2M6 35h2M11 35h3M16 35h1M18 35h2M23 35h1M27 35h1M29 35h1M33 35h2M5 36h3M12 36h2M16 36h1M19 36h1M22 36h2M27 36h3M34 36h2M6 37h1M12 37h3M17 37h1M19 37h3M24 37h1M27 37h2M32 37h4M5 38h1M12 38h3M17 38h5M24 38h4M32 38h2M7 39h2M13 39h9M23 39h5M29 39h7" />
<path stroke="#15e53d" d="M27 13h1M32 19h1M32 21h1M30 25h1M29 26h1" />
<path stroke="#073cb9" d="M10 14h1M9 15h1M22 15h1M22 16h1M27 23h1M11 24h1M26 24h1M25 25h1M12 26h1M4 31h1M8 36h1M9 37h1M9 38h1M9 39h1" />
<path stroke="#073eb9" d="M22 14h1M2 26h1M3 30h1M5 31h1M2 32h1M5 32h1M2 33h1M5 35h1" />
<path stroke="#14e63c" d="M28 14h1M29 15h1M31 20h1" />
<path stroke="#ff8a00" d="M10 16h1M10 17h2M23 17h4M16 18h1M22 18h2M26 18h2M8 19h8M21 19h5M27 19h2M7 20h2M13 20h12M26 20h1M28 20h1M7 21h1M9 21h4M17 21h7M25 21h4M8 22h2M13 22h1M25 22h2M14 23h1M24 23h2M15 24h1M24 24h1M16 25h1M23 25h1M16 26h1M22 26h1M17 27h1M21 27h1M18 28h3" />
<path stroke="#16e43e" d="M33 18h1M33 22h1M10 24h1M10 25h1" />
<path stroke="#14e53d" d="M31 21h1M30 23h1" />
<path stroke="#14e73c" d="M7 23h1M29 25h1" />
<path stroke="#0336a9" d="M10 23h2M12 24h2M14 25h1M15 27h1M1 31h1" />
<path stroke="#e0b461" d="M6 24h3M19 24h1M5 25h1M7 25h3M20 25h1M5 26h3M9 26h1M18 26h1M6 27h1M5 28h2M16 29h1M21 30h1M18 32h1M16 33h1" />
<path stroke="#12e93b" d="M29 24h1" />
<path stroke="#634712" d="M6 25h1M8 26h1M5 27h1" />
<path stroke="#073ab9" d="M12 25h2M14 26h1M26 26h1M11 27h1M26 27h1M11 28h1M16 28h1M27 28h2M7 29h2M10 29h1M17 29h4M28 29h1M6 30h2M10 30h1M6 31h1M9 31h1M13 31h1M27 31h1M9 32h1M13 32h1M24 32h1M26 32h1M8 33h2M13 33h1M24 33h1M26 33h1M8 34h1M13 34h1M17 34h1M21 34h1M24 34h1M26 34h1M8 35h1M14 35h1M17 35h1M20 35h1M26 35h1M28 35h1M15 36h1M18 36h1M20 36h1M25 36h1M30 36h1M32 36h1M15 37h1M18 37h1M23 37h1M25 37h1M29 37h1M31 37h1M6 38h1M16 38h1M22 38h2M28 38h2M34 38h1M5 39h2M22 39h1M28 39h1" />
<path stroke="#073fb9" d="M1 28h1M1 29h1M1 30h1M2 34h1M2 35h1M2 36h1M2 37h1M3 38h1M4 39h1" />
<path stroke="#15e33e" d="M9 28h2M30 28h1M32 28h7M0 29h1M38 29h2M0 30h1" />
<path stroke="#15e03c" d="M9 29h1M31 29h4M39 30h1" />
<path stroke="#15e13c" d="M35 29h2" />
<path stroke="#15e23d" d="M37 29h1" />
<path stroke="#12d437" d="M8 30h2M32 30h3M39 31h1" />
<path stroke="#12d537" d="M35 30h1" />
<path stroke="#13d838" d="M36 30h1" />
<path stroke="#14dd3a" d="M37 30h1" />
<path stroke="#14df3b" d="M38 30h1M0 31h1" />
<path stroke="#0cc12f" d="M7 31h1" />
<path stroke="#0cc02f" d="M8 31h1M39 32h1" />
<path stroke="#0dc12f" d="M32 31h1" />
<path stroke="#0dc02f" d="M33 31h2" />
<path stroke="#0dc22f" d="M35 31h1" />
<path stroke="#0ec731" d="M36 31h1" />
<path stroke="#10ce34" d="M37 31h1" />
<path stroke="#11d336" d="M38 31h1M0 32h1" />
<path stroke="#0338a9" d="M1 32h1M1 33h1M1 34h1M1 35h1M1 36h1M1 37h1M2 38h1M10 38h1M3 39h1M10 39h1" />
<path stroke="#08b429" d="M6 32h1M35 32h1" />
<path stroke="#08b329" d="M7 32h2M33 32h2" />
<path stroke="#09b72b" d="M36 32h1" />
<path stroke="#0bbc2d" d="M37 32h1" />
<path stroke="#0cbf2e" d="M38 32h1M0 33h1" />
<path stroke="#06af27" d="M6 33h2M0 35h1" />
<path stroke="#06b027" d="M36 33h1" />
<path stroke="#07b228" d="M37 33h1" />
<path stroke="#07b328" d="M38 33h1M0 34h1" />
<path stroke="#07b329" d="M39 33h1" />
<path stroke="#05af27" d="M6 34h1M35 34h1M37 34h3M36 35h1M37 36h1" />
<path stroke="#05b027" d="M7 34h1M35 35h1" />
<path stroke="#05ae27" d="M37 35h3M38 36h2M1 38h1M2 39h1" />
<path stroke="#06ae27" d="M0 36h1M0 37h1M0 38h1M0 39h2" />
<path stroke="#05b128" d="M36 36h1M37 37h1" />
<path stroke="#04b529" d="M36 37h1" />
<path stroke="#05af28" d="M38 37h1M38 38h1" />
<path stroke="#05ae28" d="M39 37h1M39 38h1" />
<path stroke="#04bc2a" d="M36 38h1" />
<path stroke="#05b329" d="M37 38h1" />
<path stroke="#05b629" d="M37 39h1" />
<path stroke="#05b029" d="M38 39h1" />
<path stroke="#05ae29" d="M39 39h1" />
</svg>