<svg xmlns="http://www.w3.org/2000/svg" viewBox="0 -0.5 40 40" shape-rendering="crispEdges">
<metadata>Made with Pixels to Svg https://codepen.io/shshaw/pen/XbxvNj</metadata>
<path stroke="#da0020" d="M0 0h40M4 1h36M5 2h35M5 3h35M5 4h11M19 4h21M38 5h2M39 6h1M39 7h1M39 8h1M39 9h1M39 10h1" />
<path stroke="#da001f" d="M0 1h4M0 2h5M3 3h2M3 4h2M3 5h11M22 5h16M3 6h10M24 6h15M36 7h3M37 8h2M37 9h2M37 10h2M37 11h3" />
<path stroke="#da001e" d="M0 3h3M2 4h1M2 5h1M2 6h1M2 7h10M25 7h11M2 8h9M34 8h3M35 9h2M35 10h2M35 11h2M36 12h4" />
<path stroke="#da001d" d="M0 4h2M0 5h2M0 6h2M0 7h2M0 8h2M26 8h8M0 9h11M27 9h8M0 10h10M27 10h8M0 11h10M28 11h7M0 12h10M29 12h7M0 13h9M29 13h11M0 14h9M30 14h10" />
<path stroke="#48027b" d="M16 4h3M14 5h2M19 5h3M13 6h1M22 6h2M12 7h1M24 7h1M11 8h1M25 8h1M26 9h1M10 10h1M26 10h1M10 11h1M27 11h1M10 12h1M28 12h1M9 13h1M28 13h1M9 14h1M29 14h1M9 15h1M29 15h1M29 16h1M10 23h1M9 25h1M36 25h2M9 26h1M30 26h1M38 26h1M30 27h1M38 27h1M5 28h1M29 28h1M38 28h1M6 29h1M29 29h1M38 29h1M28 30h1M27 31h1M27 32h1M26 33h1M26 34h1M34 35h1M5 36h1M34 36h1M31 37h1M34 37h1M8 38h1M35 38h1M7 39h1M35 39h1" />
<path stroke="#7502b9" d="M16 5h1M14 6h2M13 7h2M11 10h2M11 11h1M10 13h1M10 14h1M11 23h1M10 24h4M30 24h1M10 25h1M13 25h2M30 25h1M10 26h1M14 26h1M9 27h2M15 27h1M29 27h1M1 28h1M9 28h2M16 28h1M1 29h1M9 29h2M28 29h1M1 30h2M10 30h1M27 30h1M2 31h2M10 31h1M2 32h2M26 32h1M3 33h2M4 34h2M5 35h2M33 35h1M6 36h1M33 36h1M7 37h3M32 37h1M8 39h3" />
<path stroke="#8400c5" d="M17 5h2M16 6h6M19 7h1M23 7h1M24 8h1M16 9h2M13 10h5M15 11h3M21 11h2M16 12h1M22 12h1M27 12h1M16 13h1M22 13h2M27 13h1M16 14h1M22 14h1M27 14h2M16 15h1M22 15h7M16 16h1M22 16h1M27 16h2M28 17h1M29 18h1M29 22h1M27 23h3M29 24h1M12 25h1M25 25h1M29 25h1M12 26h2M24 26h2M11 27h4M23 27h2M27 27h1M11 28h1M14 28h2M22 28h2M26 28h3M32 28h1M16 29h2M21 29h1M26 29h2M32 29h1M17 30h5M26 30h1M32 30h1M13 31h1M17 31h2M20 31h2M26 31h1M31 31h2M15 32h1M18 32h1M21 32h1M24 32h2M31 32h1M18 33h1M23 33h3M29 33h1M31 33h2M12 34h2M18 34h1M20 34h1M22 34h4M29 34h3M18 35h1M20 35h1M23 35h5M29 35h3M23 36h1M25 36h7M10 37h1M22 37h2M25 37h6M10 38h5M18 38h12M34 38h1M11 39h5M18 39h12M34 39h1" />
<path stroke="#7f00c5" d="M15 7h4M20 7h3M16 8h2M22 8h2M23 9h3M18 10h8M23 11h4M23 12h4M24 13h3M23 14h4M29 17h1M26 24h3M11 25h1M26 25h3M32 25h3M11 26h1M26 26h4M31 26h3M36 26h2M6 27h2M25 27h2M28 27h1M31 27h3M35 27h3M6 28h2M12 28h2M24 28h2M30 28h2M33 28h5M4 29h2M7 29h1M11 29h5M22 29h4M30 29h2M33 29h5M3 30h6M11 30h1M13 30h4M22 30h4M29 30h3M33 30h3M4 31h5M11 31h2M14 31h3M19 31h1M22 31h3M28 31h3M33 31h2M5 32h3M9 32h1M11 32h3M16 32h2M19 32h2M22 32h2M28 32h3M5 33h6M12 33h6M20 33h3M27 33h2M30 33h1M6 34h6M14 34h4M19 34h1M27 34h2M32 34h1M7 35h10M19 35h1M22 35h1M8 36h12M21 36h2M11 37h2M15 37h4M20 37h2M33 37h1M15 38h3M30 38h4M16 39h1M30 39h4" />
<path stroke="#000000" d="M12 8h4M18 8h4M11 9h5M18 9h5M12 11h3M18 11h3M11 12h1M15 12h1M17 12h1M21 12h1M11 13h1M15 13h1M17 13h1M21 13h1M11 14h1M15 14h1M17 14h1M21 14h1M10 15h2M14 15h2M17 15h1M20 15h2M9 16h1M11 16h1M14 16h2M17 16h1M20 16h2M23 16h4M9 17h1M12 17h1M15 17h3M21 17h2M27 17h1M8 18h8M17 18h1M21 18h1M24 18h2M28 18h1M7 19h1M16 19h5M26 19h1M29 19h1M6 20h1M9 20h4M25 20h1M27 20h1M29 20h1M6 21h1M8 21h1M13 21h4M24 21h1M29 21h1M7 22h1M10 22h3M14 22h11M27 22h2M8 23h2M12 23h2M15 23h9M26 23h1M14 24h1M16 24h4M22 24h2M25 24h1M15 25h1M17 25h2M21 25h2M24 25h1M15 26h1M17 26h2M20 26h2M23 26h1M16 27h1M18 27h3M22 27h1M17 28h1M21 28h1M18 29h3" />
<path stroke="#8703d7" d="M12 12h3M18 12h3M12 13h3M18 13h3" />
<path stroke="#ffffff" d="M12 14h3M18 14h3M12 15h2M18 15h2M12 16h2M18 16h2M13 17h2M18 17h3M18 18h3" />
<path stroke="#da021d" d="M0 15h9" />
<path stroke="#da011d" d="M30 15h10" />
<path stroke="#da061d" d="M0 16h9" />
<path stroke="#ff8a00" d="M10 16h1M10 17h2M23 17h4M16 18h1M22 18h2M26 18h2M8 19h8M23 19h3M27 19h2M7 20h2M13 20h7M22 20h3M26 20h1M28 20h1M7 21h1M9 21h4M17 21h3M21 21h3M25 21h4M8 22h2M13 22h1M25 22h2M14 23h1M24 23h2M15 24h1M24 24h1M16 25h1M23 25h1M16 26h1M22 26h1M17 27h1M21 27h1M18 28h3" />
<path stroke="#da031d" d="M30 16h10" />
<path stroke="#db0f1c" d="M0 17h9" />
<path stroke="#45027b" d="M30 17h1M30 18h1M30 19h1M30 20h1M30 21h1M30 22h1M30 23h1M9 24h1M31 24h4M31 25h1M35 25h1M35 26h1M36 30h2M35 31h1M34 32h1M33 34h1M32 36h1" />
<path stroke="#db081c" d="M31 17h9" />
<path stroke="#dc1f1c" d="M0 18h8" />
<path stroke="#db101c" d="M31 18h9" />
<path stroke="#df381b" d="M0 19h7" />
<path stroke="#ff8900" d="M21 19h2M20 20h2M20 21h1" />
<path stroke="#dd1f1b" d="M31 19h9" />
<path stroke="#e35919" d="M0 20h6" />
<path stroke="#e03419" d="M31 20h9" />
<path stroke="#ea7a15" d="M0 21h6" />
<path stroke="#e54f17" d="M31 21h9" />
<path stroke="#f39b10" d="M0 22h7" />
<path stroke="#eb6e13" d="M31 22h9" />
<path stroke="#f9b20b" d="M0 23h8" />
<path stroke="#f18b0e" d="M31 23h9" />
<path stroke="#fdbf07" d="M0 24h9" />
<path stroke="#e8001e" d="M20 24h2" />
<path stroke="#f8a50a" d="M35 24h5" />
<path stroke="#ffc604" d="M0 25h2M5 25h4" />
<path stroke="#4b027b" d="M2 25h3M0 26h2M5 26h3M0 27h1M5 27h1M8 27h1M0 28h1M8 28h1M0 29h1M0 30h1M1 31h1M1 32h1M2 33h1M3 34h1M4 35h1M6 37h1M7 38h1" />
<path stroke="#e8001b" d="M19 25h2M19 26h1" />
<path stroke="#fcb706" d="M38 25h2" />
<path stroke="#7202b9" d="M2 26h1M1 27h1" />
<path stroke="#7b00c5" d="M3 26h2M4 27h1M4 28h1M32 32h2M9 38h1" />
<path stroke="#ffc802" d="M8 26h1" />
<path stroke="#43027b" d="M34 26h1M34 27h1M33 33h1M32 35h1" />
<path stroke="#fec103" d="M39 26h1" />
<path stroke="#7900c5" d="M2 27h2M2 28h2M2 29h2" />
<path stroke="#ffc701" d="M39 27h1" />
<path stroke="#ffc900" d="M39 28h1M39 29h1M38 30h2M0 31h1M36 31h4M0 32h1M35 32h5M0 33h2M34 33h6M0 34h3M34 34h6M0 35h4M35 35h5M0 36h5M35 36h5M0 37h6M35 37h5M0 38h7M36 38h4M0 39h7M36 39h4" />
<path stroke="#4d027b" d="M8 29h1M9 31h1M10 32h1M11 33h1" />
<path stroke="#50027b" d="M9 30h1" />
<path stroke="#6a02a8" d="M12 30h1M25 31h1M4 32h1M8 32h1M14 32h1M19 33h1M21 34h1M17 35h1M21 35h1M28 35h1M7 36h1M20 36h1M24 36h1M13 37h2M19 37h1M24 37h1M17 39h1" />
</svg>