<svg xmlns="http://www.w3.org/2000/svg" viewBox="0 -0.5 40 40" shape-rendering="crispEdges">
<metadata>Made with Pixels to Svg https://codepen.io/shshaw/pen/XbxvNj</metadata>
<path stroke="#87077f" d="M0 0h1M39 0h1M0 1h1M39 1h1M0 2h1M39 2h1M0 3h1M39 3h1M0 4h1M39 4h1M0 5h1M39 5h1M0 6h1M39 6h1M0 7h1M39 7h1M0 8h1M39 8h1M0 9h1M39 9h1M0 10h1M39 10h1M0 11h1M39 11h1M39 12h1M39 13h1M39 14h1M1 15h1M1 16h1M38 16h1M1 17h1M38 17h1M1 18h1M38 18h1M1 19h1M38 19h1M1 20h1M37 20h2M1 21h1M37 21h2M1 22h2M37 22h1M2 23h1M37 23h1M2 24h1M37 24h1M2 25h1M36 25h2M2 26h1M36 26h2M2 27h2M36 27h2M2 28h2M36 28h1M3 29h1M35 29h2M3 30h1M35 30h2M3 31h1M35 31h2M3 32h1M35 32h2M3 33h1M35 33h2M2 34h2M37 34h2M1 35h2M39 35h1M0 36h1" />
<path stroke="#000000" d="M1 0h6M33 0h6M1 1h6M33 1h6M1 2h5M33 2h6M1 3h4M34 3h5M1 4h4M34 4h5M1 5h3M35 5h4M1 6h2M35 6h4M1 7h2M36 7h3M1 8h1M36 8h3M37 9h2M38 10h1M12 11h3M18 11h3M11 12h1M15 12h1M17 12h1M21 12h1M11 13h1M15 13h1M17 13h1M21 13h1M11 14h1M13 14h1M15 14h1M17 14h1M19 14h1M21 14h1M10 15h2M13 15h3M17 15h1M19 15h3M28 15h1M9 16h1M11 16h1M15 16h1M17 16h1M21 16h1M23 16h4M28 16h1M9 17h1M11 17h1M15 17h3M21 17h2M27 17h2M8 18h8M17 18h1M21 18h1M24 18h2M28 18h1M2 19h1M7 19h1M16 19h5M26 19h1M29 19h1M2 20h2M6 20h1M9 20h4M25 20h1M27 20h1M29 20h1M2 21h3M6 21h1M8 21h1M13 21h4M24 21h1M29 21h1M36 21h1M3 22h3M7 22h1M10 22h3M14 22h1M17 22h8M27 22h2M35 22h2M3 23h3M8 23h2M12 23h2M15 23h1M23 23h1M26 23h1M34 23h3M3 24h4M14 24h1M16 24h1M23 24h1M25 24h1M32 24h5M3 25h5M15 25h1M17 25h1M22 25h1M24 25h1M31 25h5M3 26h6M15 26h1M17 26h1M21 26h1M23 26h1M30 26h6M4 27h6M16 27h1M18 27h3M22 27h1M29 27h7M4 28h7M17 28h1M21 28h1M28 28h8M4 29h8M18 29h3M28 29h7M4 30h8M27 30h8M4 31h9M26 31h9M4 32h10M25 32h10M4 33h11M24 33h11M7 38h6M26 38h8M5 39h10M25 39h11" />
<path stroke="#000d08" d="M7 0h1M32 0h1M5 3h1M33 3h1M4 5h1M34 5h1M3 6h1M35 7h1M2 8h1M36 9h1M37 10h1M38 11h1M35 21h1M34 22h1M31 24h1M30 25h1M29 26h1M28 27h1M26 30h1M25 31h1M24 32h1M23 33h1" />
<path stroke="#002a1a" d="M8 0h1M6 3h1M4 6h1M37 19h1M34 21h1M33 22h1M30 24h1M29 25h1M28 26h1M11 27h1M26 29h1M25 30h1M24 31h1M15 32h1M23 32h1M22 33h1" />
<path stroke="#00603b" d="M9 0h1M7 3h1M5 6h1M3 17h1M27 26h1" />
<path stroke="#00a667" d="M10 0h1" />
<path stroke="#00e08a" d="M11 0h1M33 10h1" />
<path stroke="#ec003e" d="M12 0h1M26 8h1M29 14h1" />
<path stroke="#ff19dc" d="M13 0h1M20 0h1M14 1h2M19 1h1M15 2h1M18 2h1" />
<path stroke="#ffb741" d="M14 0h1M17 0h1M19 0h1" />
<path stroke="#ed7500" d="M15 0h1M16 1h1M16 2h1" />
<path stroke="#ff8002" d="M16 0h1M18 0h1M17 1h2M17 2h1" />
<path stroke="#ec000c" d="M21 0h1M24 0h2M12 1h1M29 1h1M19 2h1M24 2h1M30 2h1M25 3h2M31 3h1M8 4h1M26 4h2M12 5h1M24 5h1M27 5h1M7 6h1M25 6h1M28 6h1M32 6h1M7 7h1M26 7h1M27 8h1M27 9h2M32 9h1M28 10h1M9 11h1M28 11h1M29 12h1M32 12h1M29 13h1M32 13h1M31 14h1M29 16h2M29 17h1" />
<path stroke="#ae0353" d="M22 0h1M13 1h1M22 1h1M14 2h1M20 2h2M20 3h1" />
<path stroke="#ec006e" d="M23 0h1M26 0h1M23 1h2M26 1h3M11 2h1M23 2h1M28 2h1M11 3h1M13 3h1M21 3h2M24 3h1M29 3h1M10 4h1M12 4h1M23 4h3M30 4h1M8 5h2M25 5h1M30 5h1M9 6h1M26 6h2M30 6h1M27 7h2M31 7h1M29 8h1M31 8h1M30 9h1M30 10h2M7 11h1M31 11h1M8 12h1M31 12h1M9 13h1M30 13h2M8 14h2M30 14h1M29 15h1" />
<path stroke="#fe3899" d="M27 0h1M11 1h1M25 1h1M10 2h1M22 2h1M26 2h2M29 2h1M9 3h2M23 3h1M27 3h1M30 3h1M28 4h1M31 4h1M28 5h2M31 5h1M29 6h1M31 6h1M30 7h1M28 8h1M30 8h1M29 9h1M29 10h1M29 11h1M30 12h1" />
<path stroke="#00f698" d="M28 0h1M1 14h1" />
<path stroke="#00d886" d="M29 0h1" />
<path stroke="#009059" d="M30 0h1" />
<path stroke="#004128" d="M31 0h1" />
<path stroke="#001f13" d="M7 1h1M5 4h1M34 6h1M1 9h1M36 20h1M27 28h1M12 29h1" />
<path stroke="#005333" d="M8 1h1M4 7h1M36 19h1M32 22h1" />
<path stroke="#00955c" d="M9 1h1M5 7h1M1 11h1M17 32h1" />
<path stroke="#00ce7f" d="M10 1h1M6 7h1M35 12h1M38 15h1M4 16h1M37 16h1M13 26h1" />
<path stroke="#ec003b" d="M20 1h1M13 4h1M9 12h1M10 13h1M10 14h1M9 15h1" />
<path stroke="#ff19e1" d="M21 1h1M13 2h1" />
<path stroke="#00a666" d="M30 1h1M34 10h1M3 16h1" />
<path stroke="#005a38" d="M31 1h1M32 4h1" />
<path stroke="#002013" d="M32 1h1M33 4h1M35 8h1" />
<path stroke="#000b07" d="M6 2h1M2 18h1M3 19h1M4 20h1M5 21h1M6 23h1M7 24h1M8 25h1M9 26h1M10 27h1M11 28h1M12 30h1M13 31h1M14 32h1M15 33h1" />
<path stroke="#003822" d="M7 2h1M3 8h1" />
<path stroke="#007d4d" d="M8 2h1M6 5h1M4 8h1M35 19h1M31 22h1" />
<path stroke="#00c278" d="M9 2h1M5 8h1M35 18h1M31 21h1M18 32h1" />
<path stroke="#ec0073" d="M12 2h1M28 3h1M32 5h1M8 7h1M32 7h1M7 8h2M32 8h1M7 9h2M7 10h2M32 10h1M32 11h1M31 15h1M30 17h1M29 18h1" />
<path stroke="#fff668" d="M25 2h1M12 3h1M9 4h1M29 4h1M26 5h1M8 6h1M29 7h1M31 9h1M8 11h1M30 11h1M8 13h1M30 15h1" />
<path stroke="#00794b" d="M31 2h1" />
<path stroke="#00311e" d="M32 2h1" />
<path stroke="#00a465" d="M8 3h1M33 8h1M34 19h1" />
<path stroke="#f6dd04" d="M14 3h1M19 3h1M15 4h1M15 5h1M16 6h2" />
<path stroke="#f6ba04" d="M15 3h1M18 3h1M23 5h1M23 6h1M25 7h1M10 8h1M25 9h1M28 12h1" />
<path stroke="#f60404" d="M16 3h1M17 4h1M17 5h1" />
<path stroke="#ffdede" d="M17 3h1" />
<path stroke="#004027" d="M32 3h1" />
<path stroke="#005434" d="M6 4h1M1 10h1" />
<path stroke="#00965c" d="M7 4h1M21 32h1" />
<path stroke="#ec0010" d="M11 4h1M10 5h2M10 6h1M9 7h1M9 8h1M9 10h1" />
<path stroke="#e4ac06" d="M14 4h1M14 5h1M14 6h1" />
<path stroke="#ff4747" d="M16 4h1M16 5h1" />
<path stroke="#f6de04" d="M18 4h1M18 5h1M17 7h1" />
<path stroke="#f6bb04" d="M19 4h1M21 4h1M19 5h1M21 5h1M12 6h1" />
<path stroke="#fff06b" d="M20 4h1M22 4h1M13 5h1M20 5h1M22 5h1M13 6h1M18 6h1M22 6h1M24 6h1M11 7h1M24 7h1M24 8h1M11 9h1M13 9h1M15 9h1M17 9h1M19 9h1M21 9h1M26 9h1M10 10h1M22 10h1M26 10h1M27 11h1M27 12h1M28 13h1" />
<path stroke="#003823" d="M5 5h1M34 7h1M2 9h1M38 12h1M27 27h1" />
<path stroke="#00c379" d="M7 5h1M2 11h1M20 32h1" />
<path stroke="#003923" d="M33 5h1M35 9h1" />
<path stroke="#00a565" d="M6 6h1M26 26h1" />
<path stroke="#f6b904" d="M11 6h1M10 7h1M25 8h1M9 9h1M27 10h1" />
<path stroke="#ffe71d" d="M15 6h1M14 7h1M16 7h1M19 7h1" />
<path stroke="#4fe4cd" d="M19 6h3M20 7h4M12 8h1M14 8h7M22 8h2M22 9h3M16 10h1M23 10h3M16 11h1M23 11h4M16 12h1M23 12h4M16 13h1M24 13h3M16 14h1M23 14h5M16 15h1M22 15h6M16 16h1M22 16h1M27 16h1" />
<path stroke="#005937" d="M33 6h1M34 8h1M4 18h1M5 19h1M9 24h1M10 25h1M14 30h1M15 31h1" />
<path stroke="#001e13" d="M3 7h1M6 22h1M32 23h1" />
<path stroke="#4fe4cb" d="M12 7h2M11 8h1M10 9h1" />
<path stroke="#4fe4cc" d="M15 7h1M18 7h1M13 8h1M21 8h1M16 9h1M22 13h2M22 14h1" />
<path stroke="#007e4e" d="M33 7h1M2 10h1" />
<path stroke="#00ec92" d="M6 8h1M31 20h1M24 27h1M23 28h1M22 29h1M18 31h1M20 31h1" />
<path stroke="#00643e" d="M3 9h1" />
<path stroke="#00a466" d="M4 9h1M30 22h1" />
<path stroke="#00dd89" d="M5 9h1M34 18h1M14 27h1" />
<path stroke="#00f99a" d="M6 9h1M34 17h1M15 27h1" />
<path stroke="#dd10c3" d="M12 9h1M14 9h1M18 9h1M20 9h1M11 10h1M21 10h1" />
<path stroke="#00c67a" d="M33 9h1" />
<path stroke="#007f4e" d="M34 9h1M38 13h1" />
<path stroke="#00a566" d="M3 10h1M37 13h1" />
<path stroke="#00d181" d="M4 10h1M36 13h1" />
<path stroke="#00f195" d="M5 10h1M4 11h1M1 13h1M4 15h1M33 18h1" />
<path stroke="#00fd9d" d="M6 10h1M4 14h1M32 16h1M33 17h1" />
<path stroke="#e66bd5" d="M12 10h4M17 10h4M11 11h1M15 11h1M17 11h1M21 11h1" />
<path stroke="#00613c" d="M35 10h1" />
<path stroke="#002b1a" d="M36 10h1M37 11h1" />
<path stroke="#00de8a" d="M3 11h1" />
<path stroke="#00fc9c" d="M5 11h1M33 12h1M2 13h1M34 13h1M35 14h1M5 15h1M6 16h1M35 16h1M7 17h1M32 18h1M31 19h1M13 24h1M14 25h1M18 30h1M20 30h1" />
<path stroke="#00ff9e" d="M6 11h1M5 12h2M3 13h5M33 13h1M5 14h3M33 14h2M6 15h3M33 15h3M7 16h2M33 16h2M8 17h1M31 18h1M30 19h1M19 30h1" />
<path stroke="#4fe4c9" d="M10 11h1M10 12h1" />
<path stroke="#e66bd7" d="M22 11h1M22 12h1" />
<path stroke="#00f295" d="M33 11h1M36 14h1" />
<path stroke="#00d081" d="M34 11h1" />
<path stroke="#00995f" d="M35 11h1M36 12h1" />
<path stroke="#005c39" d="M36 11h1" />
<path stroke="#a00396" d="M0 12h1M0 13h1M0 14h1M0 15h1M39 15h1M0 16h1M39 16h1M0 17h1M39 17h1M0 18h1M39 18h1M0 19h1M39 19h1M0 20h1M39 20h1M0 21h1M39 21h1M0 22h1M38 22h2M0 23h2M38 23h2M0 24h2M38 24h2M0 25h2M38 25h2M0 26h2M38 26h2M0 27h2M38 27h2M0 28h2M37 28h3M0 29h3M37 29h3M0 30h3M37 30h3M0 31h3M37 31h3M0 32h3M37 32h3M0 33h3M37 33h3M0 34h2M39 34h1M0 35h1" />
<path stroke="#00cf80" d="M1 12h1M29 22h1" />
<path stroke="#00ed92" d="M2 12h1M16 29h1" />
<path stroke="#00fa9a" d="M3 12h1M36 15h1M16 28h1M17 29h1" />
<path stroke="#00fe9d" d="M4 12h1" />
<path stroke="#ec0013" d="M7 12h1" />
<path stroke="#ffffff" d="M12 12h3M18 12h3M14 13h1M20 13h1M14 14h1M20 14h1M12 16h1M18 16h1M12 17h3M18 17h3M18 18h3M17 23h5M18 26h3M39 37h1M2 38h1" />
<path stroke="#00ef94" d="M34 12h1" />
<path stroke="#00603c" d="M37 12h1" />
<path stroke="#73fb95" d="M12 13h2M18 13h1M12 14h1M18 14h1M12 15h1M18 15h1M13 16h2M19 16h2" />
<path stroke="#73fb93" d="M19 13h1" />
<path stroke="#f6b804" d="M27 13h1M28 14h1" />
<path stroke="#00f094" d="M35 13h1" />
<path stroke="#00f89a" d="M2 14h1" />
<path stroke="#00fb9b" d="M3 14h1M32 14h1M32 15h1" />
<path stroke="#00dc88" d="M37 14h1" />
<path stroke="#00bf76" d="M38 14h1" />
<path stroke="#00d785" d="M2 15h1" />
<path stroke="#00e08b" d="M3 15h1" />
<path stroke="#00ea91" d="M37 15h1" />
<path stroke="#008f58" d="M2 16h1" />
<path stroke="#00ed93" d="M5 16h1M7 18h1M11 23h1M12 24h1M17 30h1" />
<path stroke="#ff8a00" d="M10 16h1M10 17h1M23 17h4M16 18h1M22 18h2M26 18h2M8 19h8M21 19h5M27 19h2M7 20h2M17 20h7M26 20h1M28 20h1M7 21h1M9 21h3M26 21h3M8 22h2M26 22h1M25 23h1" />
<path stroke="#00f496" d="M31 16h1" />
<path stroke="#00ee93" d="M36 16h1M6 17h1M32 19h1M27 23h1M26 24h1M13 25h1M21 30h1" />
<path stroke="#003f27" d="M2 17h1" />
<path stroke="#00975d" d="M4 17h1M6 19h1M28 24h1M12 26h1M24 29h1M23 30h1M22 31h1" />
<path stroke="#00cc7e" d="M5 17h1M6 18h1M32 20h1M10 23h1M28 23h1M11 24h1M27 24h1M12 25h1M24 28h1M23 29h1M16 30h1M22 30h1M17 31h1M21 31h1" />
<path stroke="#00fe9c" d="M31 17h1" />
<path stroke="#00ff9d" d="M32 17h1M30 18h1" />
<path stroke="#00ec93" d="M35 17h1" />
<path stroke="#00cd7f" d="M36 17h1" />
<path stroke="#00985e" d="M37 17h1M33 20h1M29 23h1" />
<path stroke="#002818" d="M3 18h1M4 19h1M8 24h1M9 25h1M13 30h1M14 31h1M16 33h1" />
<path stroke="#00965d" d="M5 18h1M10 24h1M11 25h1M15 30h1M16 31h1" />
<path stroke="#00945b" d="M36 18h1M32 21h1" />
<path stroke="#005b38" d="M37 18h1M33 21h1M29 24h1M28 25h1M25 29h1M24 30h1M23 31h1M16 32h1M22 32h1" />
<path stroke="#00ce80" d="M33 19h1" />
<path stroke="#002918" d="M5 20h1M10 26h1" />
<path stroke="#dd10c5" d="M13 20h4M24 20h1M12 21h1M17 21h7M25 21h1M13 22h1M25 22h1M14 23h1M24 23h1M15 24h1M24 24h1M16 25h1M23 25h1M16 26h1M22 26h1M17 27h1M21 27h1M18 28h3" />
<path stroke="#00f999" d="M30 20h1M24 26h1" />
<path stroke="#005f3b" d="M34 20h1M30 23h1M12 27h1" />
<path stroke="#003722" d="M35 20h1M31 23h1M12 28h1" />
<path stroke="#00de89" d="M30 21h1" />
<path stroke="#dc0000" d="M15 22h2M16 23h1M22 23h1M17 24h3M18 25h1" />
<path stroke="#002919" d="M7 23h1" />
<path stroke="#000c07" d="M33 23h1" />
<path stroke="#ff6aa5" d="M20 24h3M21 25h1" />
<path stroke="#ff6aa3" d="M19 25h2" />
<path stroke="#00f194" d="M25 25h1" />
<path stroke="#00cf7f" d="M26 25h1" />
<path stroke="#00985d" d="M27 25h1" />
<path stroke="#005a37" d="M11 26h1" />
<path stroke="#00f095" d="M14 26h1M22 28h1" />
<path stroke="#00df89" d="M25 26h1" />
<path stroke="#00a365" d="M13 27h1" />
<path stroke="#00f798" d="M23 27h1" />
<path stroke="#00c378" d="M25 27h1" />
<path stroke="#007d4e" d="M26 27h1" />
<path stroke="#007c4b" d="M13 28h1" />
<path stroke="#00c177" d="M14 28h1" />
<path stroke="#00ec91" d="M15 28h1" />
<path stroke="#00945c" d="M25 28h1" />
<path stroke="#005433" d="M26 28h1" />
<path stroke="#005232" d="M13 29h1" />
<path stroke="#00935b" d="M14 29h1" />
<path stroke="#00cb7d" d="M15 29h1" />
<path stroke="#00f799" d="M21 29h1" />
<path stroke="#000c08" d="M27 29h1" />
<path stroke="#00f598" d="M19 31h1" />
<path stroke="#00d382" d="M19 32h1" />
<path stroke="#005736" d="M17 33h1" />
<path stroke="#008552" d="M18 33h1" />
<path stroke="#009a5f" d="M19 33h1" />
<path stroke="#008652" d="M20 33h1" />
<path stroke="#005836" d="M21 33h1" />
<path stroke="#dd10c8" d="M4 34h33M3 35h1M0 37h38M3 38h4M13 38h1M17 38h2M21 38h2M24 38h2M34 38h3M4 39h1M36 39h1" />
<path stroke="#dd10cd" d="M4 35h7M32 35h7M14 38h2" />
<path stroke="#b004a2" d="M11 35h21M1 36h39" />
<path stroke="#ff0000" d="M38 37h1M0 38h2M16 38h1M23 38h1M37 38h3M0 39h4M37 39h3" />
<path stroke="#fff253" d="M19 38h1M18 39h4" />
<path stroke="#fffffd" d="M20 38h1" />
<path stroke="#b004a5" d="M15 39h3M22 39h3" />
</svg>