<svg xmlns="http://www.w3.org/2000/svg" viewBox="0 -0.5 40 40" shape-rendering="crispEdges">
<metadata>Made with Pixels to Svg https://codepen.io/shshaw/pen/XbxvNj</metadata>
<path stroke="#1584e0" d="M0 0h1" />
<path stroke="#1383de" d="M1 0h1" />
<path stroke="#1382dd" d="M2 0h1" />
<path stroke="#2184df" d="M3 0h1" />
<path stroke="#4692e5" d="M4 0h1" />
<path stroke="#7aadef" d="M5 0h1" />
<path stroke="#a9caf8" d="M6 0h1" />
<path stroke="#bbd5fb" d="M7 0h1" />
<path stroke="#a7c9f8" d="M8 0h1" />
<path stroke="#7daef1" d="M9 0h1" />
<path stroke="#4f96e6" d="M10 0h1" />
<path stroke="#2d89e1" d="M11 0h1" />
<path stroke="#2089e5" d="M12 0h1" />
<path stroke="#2591ee" d="M13 0h1" />
<path stroke="#f0f2f4" d="M14 0h2M14 1h1M13 2h1M12 3h1M12 4h1M11 5h2M11 6h3M27 9h1M28 10h1M33 13h1M32 15h1M31 16h1M21 29h1M17 30h1M17 31h1M18 32h1M18 33h1" />
<path stroke="#ffffff" d="M16 0h12M15 1h1M19 1h10M14 2h2M17 2h2M20 2h10M13 3h3M17 3h2M20 3h11M13 4h3M17 4h2M20 4h12M13 5h3M19 5h13M14 6h19M27 7h6M31 8h3M31 9h3M27 10h1M31 10h3M27 11h3M31 11h3M27 12h7M12 13h1M27 13h6M12 14h1M27 14h6M12 15h1M28 15h4M29 16h2M18 18h1M23 29h1M20 30h2M24 30h2M15 31h2M19 31h1M24 31h3M16 32h2M20 32h1M22 32h1M24 32h2M20 33h1M24 33h2M20 34h1M24 34h1M20 35h1M31 38h2M13 39h2M30 39h3" />
<path stroke="#2b90ec" d="M28 0h1" />
<path stroke="#4190e5" d="M29 0h1" />
<path stroke="#6fa3e6" d="M30 0h1" />
<path stroke="#a0c0ef" d="M31 0h1" />
<path stroke="#b9d2f8" d="M32 0h1" />
<path stroke="#accefd" d="M33 0h1M36 30h1" />
<path stroke="#81bafd" d="M34 0h1" />
<path stroke="#52a5f8" d="M35 0h1" />
<path stroke="#3d99f1" d="M36 0h1" />
<path stroke="#4c97e9" d="M37 0h1" />
<path stroke="#6ca0e6" d="M38 0h1" />
<path stroke="#85ace8" d="M39 0h1" />
<path stroke="#1d89e5" d="M0 1h1" />
<path stroke="#1986e1" d="M1 1h1" />
<path stroke="#1583de" d="M2 1h1" />
<path stroke="#1c83de" d="M3 1h1" />
<path stroke="#388ce2" d="M4 1h1" />
<path stroke="#64a0ea" d="M5 1h1" />
<path stroke="#91baf2" d="M6 1h1" />
<path stroke="#adccf8" d="M7 1h2" />
<path stroke="#94bbf2" d="M9 1h1" />
<path stroke="#6ca3e9" d="M10 1h1" />
<path stroke="#4691e3" d="M11 1h1" />
<path stroke="#2e8de6" d="M12 1h1" />
<path stroke="#dee1e5" d="M13 1h1M12 2h1M11 3h1M11 4h1M10 5h1M10 6h1M27 15h1M28 16h1M29 17h2" />
<path stroke="#ff0000" d="M16 1h3M16 2h1M19 2h1M16 3h1M19 3h1M16 4h1M19 4h1M16 5h3M15 22h2M16 23h3M22 23h1M17 24h1M21 24h2M20 25h2M18 26h3" />
<path stroke="#5399ea" d="M29 1h1" />
<path stroke="#7daceb" d="M30 1h1" />
<path stroke="#a1c2f2" d="M31 1h1" />
<path stroke="#aacbfa" d="M32 1h1" />
<path stroke="#94c2fc" d="M33 1h1" />
<path stroke="#6caffa" d="M34 1h1" />
<path stroke="#4ca0f4" d="M35 1h1" />
<path stroke="#4e9bed" d="M36 1h1" />
<path stroke="#6ea4ea" d="M37 1h1" />
<path stroke="#92b5ec" d="M38 1h1" />
<path stroke="#aac5ef" d="M39 1h1" />
<path stroke="#3192ed" d="M0 2h1" />
<path stroke="#298ce7" d="M1 2h1" />
<path stroke="#1f86e1" d="M2 2h1" />
<path stroke="#1a84df" d="M3 2h1" />
<path stroke="#2686e0" d="M4 2h1" />
<path stroke="#4591e4" d="M5 2h1" />
<path stroke="#6da5eb" d="M6 2h1" />
<path stroke="#92baf2" d="M7 2h1" />
<path stroke="#a6c6f6" d="M8 2h1" />
<path stroke="#a2c3f3" d="M9 2h1" />
<path stroke="#88b1eb" d="M10 2h1" />
<path stroke="#639ee6" d="M11 2h1" />
<path stroke="#8cb7f1" d="M30 2h1" />
<path stroke="#9ac1f6" d="M31 2h1" />
<path stroke="#8fbef9" d="M32 2h1" />
<path stroke="#72b0f9" d="M33 2h1" />
<path stroke="#55a3f4" d="M34 2h1" />
<path stroke="#539dee" d="M35 2h1" />
<path stroke="#6fa6eb" d="M36 2h1" />
<path stroke="#93b7ed" d="M37 2h1" />
<path stroke="#adc8f2" d="M38 2h1M37 3h1" />
<path stroke="#bad1f6" d="M39 2h1" />
<path stroke="#5aa3f5" d="M0 3h1" />
<path stroke="#4f9bee" d="M1 3h1" />
<path stroke="#3c90e7" d="M2 3h1" />
<path stroke="#2988e1" d="M3 3h1" />
<path stroke="#1f85df" d="M4 3h1" />
<path stroke="#2a88e0" d="M5 3h1" />
<path stroke="#4792e4" d="M6 3h1" />
<path stroke="#6ba3ea" d="M7 3h1" />
<path stroke="#8bb5ef" d="M8 3h1" />
<path stroke="#98bcef" d="M9 3h1" />
<path stroke="#8fb5eb" d="M10 3h1" />
<path stroke="#8dbaf5" d="M31 3h1" />
<path stroke="#70adf4" d="M32 3h1" />
<path stroke="#55a1f1" d="M33 3h1" />
<path stroke="#549eed" d="M34 3h1" />
<path stroke="#71a7eb" d="M35 3h1M36 7h1" />
<path stroke="#95b9ed" d="M36 3h1" />
<path stroke="#b0ccf5" d="M38 3h1" />
<path stroke="#a8c8f6" d="M39 3h1" />
<path stroke="#93bffa" d="M0 4h1" />
<path stroke="#84b5f6" d="M1 4h1" />
<path stroke="#69a5ef" d="M2 4h1" />
<path stroke="#4995e9" d="M3 4h1" />
<path stroke="#2d8be4" d="M4 4h1" />
<path stroke="#2087e1" d="M5 4h1" />
<path stroke="#2988e0" d="M6 4h1" />
<path stroke="#4390e3" d="M7 4h1" />
<path stroke="#609de6" d="M8 4h1" />
<path stroke="#76a7e8" d="M9 4h1" />
<path stroke="#7daae7" d="M10 4h1" />
<path stroke="#599eec" d="M32 4h1" />
<path stroke="#529aea" d="M33 4h1" />
<path stroke="#6ea5ea" d="M34 4h1M6 8h1" />
<path stroke="#94b9ed" d="M35 4h1" />
<path stroke="#b0caf2" d="M36 4h1" />
<path stroke="#b5cef4" d="M37 4h1" />
<path stroke="#9fc1f2" d="M38 4h1" />
<path stroke="#81b0ee" d="M39 4h1" />
<path stroke="#c0d9fe" d="M0 5h1" />
<path stroke="#b4d1fb" d="M1 5h1M37 14h1" />
<path stroke="#99c0f7" d="M2 5h1" />
<path stroke="#73abf2" d="M3 5h1" />
<path stroke="#4c99ec" d="M4 5h1M5 6h1" />
<path stroke="#2e8ce5" d="M5 5h1M38 18h1M4 24h1" />
<path stroke="#2086e0" d="M6 5h1" />
<path stroke="#2587df" d="M7 5h1" />
<path stroke="#378bdf" d="M8 5h1M38 7h1" />
<path stroke="#4b91e0" d="M9 5h1" />
<path stroke="#4f97e6" d="M32 5h1" />
<path stroke="#639fe8" d="M33 5h1" />
<path stroke="#8bb4ec" d="M34 5h1" />
<path stroke="#aac6f1" d="M35 5h1" />
<path stroke="#b4cdf4" d="M36 5h1" />
<path stroke="#a5c4f1" d="M37 5h1" />
<path stroke="#82aeeb" d="M38 5h1" />
<path stroke="#5a9ae6" d="M39 5h1" />
<path stroke="#cadefd" d="M0 6h1" />
<path stroke="#c8ddfd" d="M1 6h1" />
<path stroke="#b8d4fc" d="M2 6h1" />
<path stroke="#99c2f9" d="M3 6h1" />
<path stroke="#72acf4" d="M4 6h1" />
<path stroke="#2d8ce3" d="M6 6h1" />
<path stroke="#1c85df" d="M7 6h1M31 23h1" />
<path stroke="#1d84dd" d="M8 6h1" />
<path stroke="#2a87de" d="M9 6h1" />
<path stroke="#72a8ec" d="M33 6h1" />
<path stroke="#96bcf2" d="M34 6h1" />
<path stroke="#a5c5f4" d="M35 6h1M5 10h1" />
<path stroke="#9bbff1" d="M36 6h1" />
<path stroke="#80aeeb" d="M37 6h1" />
<path stroke="#5c9ae4" d="M38 6h1" />
<path stroke="#3a8ce0" d="M39 6h1" />
<path stroke="#acccf8" d="M0 7h1" />
<path stroke="#b7d2fa" d="M1 7h1" />
<path stroke="#bad5fc" d="M2 7h1" />
<path stroke="#afcffc" d="M3 7h1M4 20h1" />
<path stroke="#95c0f9" d="M4 7h1" />
<path stroke="#70aaf2" d="M5 7h1" />
<path stroke="#4996e7" d="M6 7h1" />
<path stroke="#2b89e0" d="M7 7h1" />
<path stroke="#1a83dc" d="M8 7h1" />
<path stroke="#b2acac" d="M9 7h13M24 7h3M9 8h13M24 8h7M29 10h1M30 11h1" />
<path stroke="#c2bebe" d="M22 7h2M22 8h2M28 9h3M30 10h1" />
<path stroke="#75adf3" d="M33 7h1" />
<path stroke="#8ab8f5" d="M34 7h1" />
<path stroke="#87b6f2" d="M35 7h1" />
<path stroke="#5397e4" d="M37 7h1" />
<path stroke="#2284dd" d="M39 7h1" />
<path stroke="#77acf1" d="M0 8h1" />
<path stroke="#8ab6f4" d="M1 8h1" />
<path stroke="#9fc3f7" d="M2 8h1" />
<path stroke="#acccfa" d="M3 8h1" />
<path stroke="#a9cbfa" d="M4 8h1" />
<path stroke="#92bcf5" d="M5 8h1M32 17h1" />
<path stroke="#4791e1" d="M7 8h1" />
<path stroke="#2987dd" d="M8 8h1" />
<path stroke="#73aef5" d="M34 8h1" />
<path stroke="#61a2ed" d="M35 8h1" />
<path stroke="#4694e5" d="M36 8h1" />
<path stroke="#2e8ae0" d="M37 8h1M36 11h1" />
<path stroke="#1e85dd" d="M38 8h1" />
<path stroke="#1783dc" d="M39 8h1" />
<path stroke="#4c99ee" d="M0 9h1" />
<path stroke="#5b9fef" d="M1 9h1" />
<path stroke="#75abf0" d="M2 9h1" />
<path stroke="#93bcf4" d="M3 9h1" />
<path stroke="#a8c8f8" d="M4 9h1" />
<path stroke="#a7c7f5" d="M5 9h1" />
<path stroke="#90b7ee" d="M6 9h1" />
<path stroke="#6aa1e5" d="M7 9h1" />
<path stroke="#448fdf" d="M8 9h1" />
<path stroke="#8dc3f7" d="M9 9h1M26 9h1M9 10h1M26 10h1M9 11h1M26 11h1M9 12h1M26 12h1M9 13h1M26 13h1M9 14h1M26 14h1M25 15h1M9 16h1M15 16h1M17 16h1M24 16h1M10 17h1M14 17h1M18 17h1M23 17h1M11 18h3M19 18h4" />
<path stroke="#ced8e4" d="M10 9h1M11 10h1M14 10h1M21 10h1M11 11h1M21 11h1M11 12h1M22 16h1" />
<path stroke="#5b6975" d="M11 9h1M14 9h1M21 9h1M10 10h1M14 11h1M21 12h1M11 13h1M21 13h1M11 14h1M21 14h1M11 15h1M14 15h1M21 15h1M11 16h1M13 16h2M19 16h3M12 17h1M19 17h4" />
<path stroke="#757575" d="M12 9h1M24 9h1M24 10h1M24 11h1M12 12h1M24 12h1" />
<path stroke="#5b6875" d="M13 9h1M18 9h3M17 10h1M10 11h1M13 11h1M16 11h1M18 11h3M10 12h1M15 12h1M17 12h1M15 13h1M17 13h1M13 14h1M15 14h1M17 14h1M19 14h1M10 15h1M13 15h1M15 15h1M17 15h1M19 15h2M23 16h1" />
<path stroke="#ced7e4" d="M15 9h3M23 9h1M13 10h1M15 10h2M18 10h3M23 10h1M15 11h1M17 11h1M23 11h1M16 12h1M23 12h1M16 13h1M22 13h2M16 14h1M22 14h3M16 15h1M22 15h3" />
<path stroke="#e8e4e4" d="M22 9h1M12 10h1M22 10h1M12 11h1M22 11h1M22 12h1M24 13h1" />
<path stroke="#b5daff" d="M25 9h1M25 10h1M25 11h1M25 12h1" />
<path stroke="#6baaf2" d="M34 9h1" />
<path stroke="#4796e8" d="M35 9h1" />
<path stroke="#2a8ae1" d="M36 9h1" />
<path stroke="#1d86de" d="M37 9h1" />
<path stroke="#1d85de" d="M38 9h1" />
<path stroke="#2286df" d="M39 9h1" />
<path stroke="#529ef3" d="M0 10h1" />
<path stroke="#4c9af0" d="M1 10h1" />
<path stroke="#549bed" d="M2 10h1" />
<path stroke="#6fa8ef" d="M3 10h1" />
<path stroke="#90baf3" d="M4 10h1" />
<path stroke="#a1c1f0" d="M6 10h1" />
<path stroke="#88b0e9" d="M7 10h1" />
<path stroke="#639ce2" d="M8 10h1" />
<path stroke="#6ba6ec" d="M34 10h1" />
<path stroke="#3d91e4" d="M35 10h1" />
<path stroke="#2388df" d="M36 10h1" />
<path stroke="#2788e0" d="M37 10h1" />
<path stroke="#398ee3" d="M38 10h1M35 12h1" />
<path stroke="#4894e6" d="M39 10h1" />
<path stroke="#80b5fa" d="M0 11h1" />
<path stroke="#6caaf6" d="M1 11h1" />
<path stroke="#569ff1" d="M2 11h1" />
<path stroke="#569dee" d="M3 11h1" />
<path stroke="#6fa7ef" d="M4 11h1" />
<path stroke="#8bb5f0" d="M5 11h1" />
<path stroke="#99bcee" d="M6 11h1" />
<path stroke="#91b6ea" d="M7 11h1" />
<path stroke="#7aa8e6" d="M8 11h1" />
<path stroke="#5e9ee7" d="M34 11h1" />
<path stroke="#368de1" d="M35 11h1" />
<path stroke="#4793e4" d="M37 11h1" />
<path stroke="#67a3ea" d="M38 11h1" />
<path stroke="#7fb0ef" d="M39 11h1" />
<path stroke="#accefe" d="M0 12h1" />
<path stroke="#97c2fb" d="M1 12h1" />
<path stroke="#79b1f7" d="M2 12h1" />
<path stroke="#62a5f2" d="M3 12h1" />
<path stroke="#5da0ee" d="M4 12h1" />
<path stroke="#6aa4eb" d="M5 12h1" />
<path stroke="#7aaae9" d="M6 12h1" />
<path stroke="#82ade8" d="M7 12h1" />
<path stroke="#80abe7" d="M8 12h1" />
<path stroke="#e5f3ff" d="M13 12h2M18 12h3M13 13h2M18 13h3M14 14h1M18 14h1M20 14h1M18 15h1M12 16h1M18 16h1M13 17h1" />
<path stroke="#4994e4" d="M34 12h1" />
<path stroke="#4c96e6" d="M36 12h1" />
<path stroke="#71a8ec" d="M37 12h1" />
<path stroke="#98bef3" d="M38 12h1" />
<path stroke="#b4cff8" d="M39 12h1" />
<path stroke="#bcd8ff" d="M0 13h1M3 15h1M8 27h1M1 39h1" />
<path stroke="#b3d3ff" d="M1 13h1M1 14h1M7 27h1" />
<path stroke="#a2c8fc" d="M2 13h1" />
<path stroke="#8cbbf8" d="M3 13h1" />
<path stroke="#75adf2" d="M4 13h1" />
<path stroke="#65a3ed" d="M5 13h1" />
<path stroke="#619ee8" d="M6 13h1" />
<path stroke="#68a0e5" d="M7 13h1" />
<path stroke="#74a5e6" d="M8 13h1" />
<path stroke="#98c2f4" d="M10 13h1" />
<path stroke="#2a4f74" d="M25 13h1M25 14h1" />
<path stroke="#4794e5" d="M34 13h1" />
<path stroke="#589ce9" d="M35 13h1" />
<path stroke="#76abee" d="M36 13h1" />
<path stroke="#9ac0f5" d="M37 13h1" />
<path stroke="#bbd5fa" d="M38 13h1" />
<path stroke="#d1e3fd" d="M39 13h1" />
<path stroke="#a9ceff" d="M0 14h1M3 18h1M1 37h1" />
<path stroke="#b8d6fe" d="M2 14h1" />
<path stroke="#b2d1fc" d="M3 14h1" />
<path stroke="#a1c5f8" d="M4 14h1" />
<path stroke="#8cb7f3" d="M5 14h1" />
<path stroke="#76a9ed" d="M6 14h1" />
<path stroke="#68a0e7" d="M7 14h1" />
<path stroke="#69a0e5" d="M8 14h1" />
<path stroke="#9dc3f3" d="M10 14h1" />
<path stroke="#5198e8" d="M33 14h1" />
<path stroke="#6ba5eb" d="M34 14h1" />
<path stroke="#88b6f2" d="M35 14h1" />
<path stroke="#a1c5f7" d="M36 14h1" />
<path stroke="#c1dafe" d="M38 14h1" />
<path stroke="#c8dfff" d="M39 14h1" />
<path stroke="#84bdff" d="M0 15h1" />
<path stroke="#9bc7ff" d="M1 15h1M2 16h1M32 34h1" />
<path stroke="#b1d2ff" d="M2 15h1M2 19h1" />
<path stroke="#bcd7fd" d="M4 15h1M1 27h1" />
<path stroke="#b2d0fa" d="M5 15h1" />
<path stroke="#a0c3f4" d="M6 15h1" />
<path stroke="#8ab4ed" d="M7 15h1" />
<path stroke="#76a6e7" d="M8 15h1" />
<path stroke="#67a9f1" d="M9 15h1" />
<path stroke="#000000" d="M26 15h1M25 16h3M9 17h1M15 17h3M27 17h2M31 17h1M8 18h3M14 18h2M17 18h1M24 18h2M28 18h3M7 19h1M16 19h5M26 19h1M29 19h1M6 20h1M9 20h4M25 20h1M27 20h1M29 20h1M6 21h1M8 21h1M13 21h4M24 21h1M29 21h1M7 22h1M10 22h3M14 22h1M17 22h8M27 22h2M8 23h2M12 23h2M15 23h1M23 23h1M26 23h1M14 24h1M16 24h1M23 24h1M25 24h1M15 25h1M17 25h1M22 25h1M24 25h1M15 26h1M17 26h1M21 26h1M23 26h1M16 27h1M18 27h3M22 27h1M16 28h2M21 28h3M17 29h4M22 29h1M24 29h2M15 30h2M18 30h1M23 30h1M26 30h1M14 31h1M18 31h1M23 31h1M27 31h1M14 32h2M19 32h1M23 32h1M26 32h1M16 33h2M19 33h1M23 33h1M26 33h1M15 34h1M18 34h2M23 34h1M25 34h1M27 34h3M14 35h2M19 35h1M23 35h2M30 35h2M13 36h1M20 36h1M23 36h1M31 36h2M12 37h1M32 37h1M12 38h1M16 38h1M22 38h1M28 38h1M33 38h1M12 39h1M15 39h2M21 39h1M28 39h2M33 39h1" />
<path stroke="#73a9ed" d="M33 15h1" />
<path stroke="#98bff3" d="M34 15h1" />
<path stroke="#b3d0f9" d="M35 15h1" />
<path stroke="#bbd6fc" d="M36 15h1M5 20h1" />
<path stroke="#b4d3fd" d="M37 15h1" />
<path stroke="#a7ccfd" d="M38 15h1" />
<path stroke="#9dc6fd" d="M39 15h1" />
<path stroke="#75b6ff" d="M0 16h1" />
<path stroke="#87bdff" d="M1 16h1M36 38h1" />
<path stroke="#aacfff" d="M3 16h1M5 18h1M26 29h1M30 29h1" />
<path stroke="#b7d6ff" d="M4 16h1M27 29h1" />
<path stroke="#bed9fe" d="M5 16h1" />
<path stroke="#bcd5fa" d="M6 16h1" />
<path stroke="#afcaf4" d="M7 16h1" />
<path stroke="#97baed" d="M8 16h1" />
<path stroke="#e5b475" d="M10 16h1M11 17h1" />
<path stroke="#9dbfe4" d="M16 16h1" />
<path stroke="#72aaf0" d="M32 16h1" />
<path stroke="#9bc0f4" d="M33 16h1" />
<path stroke="#bbd4f9" d="M34 16h1" />
<path stroke="#c6dcfc" d="M35 16h1" />
<path stroke="#b9d4fc" d="M36 16h1" />
<path stroke="#9bc3fa" d="M37 16h1" />
<path stroke="#7bb3f8" d="M38 16h1" />
<path stroke="#66a9f6" d="M39 16h1" />
<path stroke="#8ec1ff" d="M0 17h1" />
<path stroke="#95c4ff" d="M1 17h1M26 25h1M8 28h1" />
<path stroke="#9ac6ff" d="M2 17h1" />
<path stroke="#9cc8ff" d="M3 17h1M8 38h1" />
<path stroke="#a4ccff" d="M4 17h1M27 30h1" />
<path stroke="#b0d3ff" d="M5 17h1" />
<path stroke="#bad7fe" d="M6 17h1" />
<path stroke="#bad4fa" d="M7 17h1" />
<path stroke="#aecbf5" d="M8 17h1" />
<path stroke="#ff8a00" d="M24 17h3M16 18h1M23 18h1M26 18h2M8 19h8M21 19h5M27 19h2M7 20h2M13 20h12M26 20h1M28 20h1M7 21h1M9 21h4M17 21h7M25 21h4M8 22h2M13 22h1M25 22h2M14 23h1M24 23h2M15 24h1M24 24h1M16 25h1M23 25h1M16 26h1M22 26h1M17 27h1M21 27h1M18 28h3" />
<path stroke="#b3cff8" d="M33 17h1" />
<path stroke="#c4d9fa" d="M34 17h1" />
<path stroke="#bcd4f9" d="M35 17h1" />
<path stroke="#9dc2f6" d="M36 17h1" />
<path stroke="#74acf2" d="M37 17h1" />
<path stroke="#4f9cee" d="M38 17h1" />
<path stroke="#3993eb" d="M39 17h1" />
<path stroke="#a8cdff" d="M0 18h1" />
<path stroke="#afd1ff" d="M1 18h2" />
<path stroke="#a7cdff" d="M4 18h1M0 37h1" />
<path stroke="#aed1ff" d="M6 18h1M11 26h1M31 29h1M13 30h1M30 34h1M3 36h1" />
<path stroke="#b0d1fe" d="M7 18h1" />
<path stroke="#87b7f5" d="M31 18h1" />
<path stroke="#9dc1f4" d="M32 18h1M5 21h1" />
<path stroke="#adcaf4" d="M33 18h1" />
<path stroke="#adc9f3" d="M34 18h1" />
<path stroke="#97bcf1" d="M35 18h1" />
<path stroke="#72a8ed" d="M36 18h1" />
<path stroke="#4b96e9" d="M37 18h1" />
<path stroke="#1f87e3" d="M39 18h1" />
<path stroke="#9dc6fe" d="M0 19h1M4 27h1" />
<path stroke="#aacdfe" d="M1 19h1" />
<path stroke="#b4d4ff" d="M3 19h1" />
<path stroke="#b7d5ff" d="M4 19h1" />
<path stroke="#b8d6ff" d="M5 19h1M4 35h1" />
<path stroke="#b4d3ff" d="M6 19h1" />
<path stroke="#77aef2" d="M30 19h1" />
<path stroke="#85b3f0" d="M31 19h1" />
<path stroke="#89b3ed" d="M32 19h1" />
<path stroke="#88b1ea" d="M33 19h1" />
<path stroke="#7dabe9" d="M34 19h1" />
<path stroke="#659fe7" d="M35 19h1" />
<path stroke="#4692e4" d="M36 19h1" />
<path stroke="#2b8ae2" d="M37 19h1" />
<path stroke="#1c86e1" d="M38 19h1" />
<path stroke="#1885e0" d="M39 19h1" />
<path stroke="#73aef6" d="M0 20h1" />
<path stroke="#82b6f8" d="M1 20h1" />
<path stroke="#90befa" d="M2 20h1M27 24h1" />
<path stroke="#9fc6fc" d="M3 20h1" />
<path stroke="#64a1ea" d="M30 20h1" />
<path stroke="#67a1e7" d="M31 20h1" />
<path stroke="#609be4" d="M32 20h1" />
<path stroke="#5496e3" d="M33 20h1" />
<path stroke="#4891e1" d="M34 20h1" />
<path stroke="#388be0" d="M35 20h1" />
<path stroke="#2687df" d="M36 20h1M31 22h1" />
<path stroke="#1c86e0" d="M37 20h1" />
<path stroke="#1a87e3" d="M38 20h1" />
<path stroke="#1c89e5" d="M39 20h1M34 23h1" />
<path stroke="#4395eb" d="M0 21h1" />
<path stroke="#4f9aee" d="M1 21h1" />
<path stroke="#5ea2f1" d="M2 21h1" />
<path stroke="#71abf3" d="M3 21h1" />
<path stroke="#88b6f4" d="M4 21h1" />
<path stroke="#4a94e4" d="M30 21h1" />
<path stroke="#418fe1" d="M31 21h1" />
<path stroke="#368be0" d="M32 21h1" />
<path stroke="#2c88e0" d="M33 21h1" />
<path stroke="#2486df" d="M34 21h1" />
<path stroke="#1d84de" d="M35 21h1" />
<path stroke="#1784df" d="M36 21h1" />
<path stroke="#1785e1" d="M37 21h1" />
<path stroke="#1b88e5" d="M38 21h1" />
<path stroke="#1e8ae7" d="M39 21h1" />
<path stroke="#2388e4" d="M0 22h1" />
<path stroke="#298ae5" d="M1 22h1" />
<path stroke="#328de7" d="M2 22h1" />
<path stroke="#4192e9" d="M3 22h1" />
<path stroke="#5499e9" d="M4 22h1" />
<path stroke="#6ba2ea" d="M5 22h1" />
<path stroke="#7eabea" d="M6 22h1" />
<path stroke="#619fe9" d="M29 22h1" />
<path stroke="#3c8ee2" d="M30 22h1" />
<path stroke="#1e86e0" d="M32 22h1" />
<path stroke="#1b87e2" d="M33 22h1" />
<path stroke="#1987e2" d="M34 22h1" />
<path stroke="#1785e0" d="M35 22h1" />
<path stroke="#1583df" d="M36 22h1" />
<path stroke="#1784e0" d="M37 22h1" />
<path stroke="#1a86e3" d="M38 22h1" />
<path stroke="#1c88e5" d="M39 22h1M33 24h1" />
<path stroke="#1d87e4" d="M0 23h1" />
<path stroke="#1c86e2" d="M1 23h1" />
<path stroke="#1d86e2" d="M2 23h1" />
<path stroke="#2387e2" d="M3 23h1" />
<path stroke="#2e89e3" d="M4 23h1" />
<path stroke="#3d8ee4" d="M5 23h1" />
<path stroke="#4c94e4" d="M6 23h1" />
<path stroke="#5799e5" d="M7 23h1" />
<path stroke="#69a6ee" d="M10 23h1" />
<path stroke="#60a4ef" d="M11 23h1" />
<path stroke="#fc809a" d="M19 23h3M18 24h3M18 25h2" />
<path stroke="#a2c7f9" d="M27 23h1" />
<path stroke="#85b3f2" d="M28 23h1" />
<path stroke="#5a9be8" d="M29 23h1" />
<path stroke="#338be1" d="M30 23h1" />
<path stroke="#1985e1" d="M32 23h1" />
<path stroke="#1b88e4" d="M33 23h1" />
<path stroke="#1b87e4" d="M35 23h1" />
<path stroke="#1985e2" d="M36 23h2" />
<path stroke="#1a85e3" d="M38 23h1" />
<path stroke="#1b86e4" d="M39 23h1" />
<path stroke="#2f8fe8" d="M0 24h1" />
<path stroke="#2c8ce5" d="M1 24h1" />
<path stroke="#2b8ae3" d="M2 24h2" />
<path stroke="#3891e8" d="M5 24h1" />
<path stroke="#4696ea" d="M6 24h1" />
<path stroke="#559ceb" d="M7 24h1" />
<path stroke="#5fa1ec" d="M8 24h1" />
<path stroke="#66a5ef" d="M9 24h1" />
<path stroke="#69a9f3" d="M10 24h1" />
<path stroke="#6bacf6" d="M11 24h1" />
<path stroke="#7cb4f7" d="M12 24h1" />
<path stroke="#99c3f9" d="M13 24h1" />
<path stroke="#9dc8fe" d="M26 24h1" />
<path stroke="#6faaf3" d="M28 24h1" />
<path stroke="#4896ea" d="M29 24h1" />
<path stroke="#2a8ae4" d="M30 24h1" />
<path stroke="#1b85e2" d="M31 24h1" />
<path stroke="#1986e3" d="M32 24h1" />
<path stroke="#1f8be8" d="M34 24h1" />
<path stroke="#208be9" d="M35 24h3" />
<path stroke="#218ce9" d="M38 24h2" />
<path stroke="#5ba1ef" d="M0 25h1" />
<path stroke="#5a9fed" d="M1 25h1" />
<path stroke="#589deb" d="M2 25h1" />
<path stroke="#569cec" d="M3 25h1" />
<path stroke="#569fee" d="M4 25h1" />
<path stroke="#5ea4f3" d="M5 25h1" />
<path stroke="#70acf5" d="M6 25h1" />
<path stroke="#83b6f6" d="M7 25h1" />
<path stroke="#90bdf7" d="M8 25h1" />
<path stroke="#94bff8" d="M9 25h1" />
<path stroke="#93c0fa" d="M10 25h1" />
<path stroke="#93c1fc" d="M11 25h1" />
<path stroke="#9fc8fd" d="M12 25h1M34 29h1M11 34h1" />
<path stroke="#b3d3fe" d="M13 25h1" />
<path stroke="#c1dbff" d="M14 25h1M13 29h1M35 39h1" />
<path stroke="#94c5ff" d="M25 25h1" />
<path stroke="#83bafc" d="M27 25h1" />
<path stroke="#67aaf6" d="M28 25h1" />
<path stroke="#4b9cf1" d="M29 25h1" />
<path stroke="#3591eb" d="M30 25h1" />
<path stroke="#278ce8" d="M31 25h1" />
<path stroke="#2089e6" d="M32 25h1" />
<path stroke="#1f8ae7" d="M33 25h1" />
<path stroke="#218cea" d="M34 25h1" />
<path stroke="#238eed" d="M35 25h1" />
<path stroke="#2691ef" d="M36 25h1" />
<path stroke="#2893f1" d="M37 25h1" />
<path stroke="#2a95f3" d="M38 25h1" />
<path stroke="#2a96f4" d="M39 25h1" />
<path stroke="#95bff6" d="M0 26h1" />
<path stroke="#94bef6" d="M1 26h1" />
<path stroke="#8fbbf6" d="M2 26h1" />
<path stroke="#89b8f7" d="M3 26h1" />
<path stroke="#85b8f8" d="M4 26h1" />
<path stroke="#8abcfa" d="M5 26h1" />
<path stroke="#9ac5fc" d="M6 26h1" />
<path stroke="#aecffd" d="M7 26h1" />
<path stroke="#bad6fd" d="M8 26h1" />
<path stroke="#bcd7fe" d="M9 26h1" />
<path stroke="#b5d4ff" d="M10 26h1" />
<path stroke="#b2d3ff" d="M12 26h1M34 30h1" />
<path stroke="#bedaff" d="M13 26h1M8 37h1" />
<path stroke="#c7dfff" d="M14 26h1M10 34h1" />
<path stroke="#8ec2ff" d="M24 26h1" />
<path stroke="#a4cdff" d="M25 26h1M9 31h1" />
<path stroke="#a6ceff" d="M26 26h1" />
<path stroke="#99c6fe" d="M27 26h1" />
<path stroke="#86bbfc" d="M28 26h1M30 27h1" />
<path stroke="#70aff9" d="M29 26h1M3 29h1" />
<path stroke="#59a4f5" d="M30 26h1" />
<path stroke="#469bf3" d="M31 26h1" />
<path stroke="#3794ee" d="M32 26h1" />
<path stroke="#2e90ec" d="M33 26h1" />
<path stroke="#288feb" d="M34 26h1" />
<path stroke="#268fed" d="M35 26h1M39 36h1" />
<path stroke="#2792f0" d="M36 26h1" />
<path stroke="#2a96f3" d="M37 26h1" />
<path stroke="#2c99f6" d="M38 26h1" />
<path stroke="#2e9af8" d="M39 26h1M39 38h1" />
<path stroke="#c0d9fc" d="M0 27h1" />
<path stroke="#b3d2fd" d="M2 27h1" />
<path stroke="#a6cbfd" d="M3 27h1" />
<path stroke="#9dc7ff" d="M5 27h1" />
<path stroke="#a6ccff" d="M6 27h1" />
<path stroke="#bbd8ff" d="M9 27h1M15 28h1M28 28h1" />
<path stroke="#b2d4ff" d="M10 27h1" />
<path stroke="#aad0ff" d="M11 27h1" />
<path stroke="#b1d3ff" d="M12 27h1M12 28h1M28 29h1M32 29h1M33 30h1M2 38h1" />
<path stroke="#c1dcff" d="M13 27h1" />
<path stroke="#cce2ff" d="M14 27h1" />
<path stroke="#c9e0ff" d="M15 27h1M4 38h1M5 39h1" />
<path stroke="#67b2ff" d="M23 27h1" />
<path stroke="#8bc1ff" d="M24 27h1" />
<path stroke="#abd1ff" d="M25 27h1" />
<path stroke="#bad9ff" d="M26 27h1" />
<path stroke="#b8d7ff" d="M27 27h1" />
<path stroke="#acd0ff" d="M28 27h1M32 30h1" />
<path stroke="#9ac6fe" d="M29 27h1" />
<path stroke="#72b1fb" d="M31 27h1" />
<path stroke="#61a8f7" d="M32 27h1" />
<path stroke="#53a1f4" d="M33 27h1" />
<path stroke="#449af0" d="M34 27h1" />
<path stroke="#3795ef" d="M35 27h1" />
<path stroke="#3093ee" d="M36 27h1" />
<path stroke="#2c93f0" d="M37 27h1" />
<path stroke="#2b95f2" d="M38 27h1" />
<path stroke="#2b96f4" d="M39 27h1" />
<path stroke="#bfdaff" d="M0 28h1M33 36h1M34 37h1" />
<path stroke="#bbd7ff" d="M1 28h1M39 32h1" />
<path stroke="#aecfff" d="M2 28h1" />
<path stroke="#9ac5fe" d="M3 28h1" />
<path stroke="#8bbdfe" d="M4 28h1" />
<path stroke="#86bcfe" d="M5 28h1" />
<path stroke="#8abeff" d="M6 28h1" />
<path stroke="#91c2ff" d="M7 28h1M14 30h1" />
<path stroke="#96c6ff" d="M9 28h2" />
<path stroke="#9dc9ff" d="M11 28h1" />
<path stroke="#c5ddff" d="M13 28h1" />
<path stroke="#cae0ff" d="M14 28h1M9 32h1" />
<path stroke="#76b8ff" d="M24 28h1" />
<path stroke="#9fcaff" d="M25 28h1M28 32h1" />
<path stroke="#bbd9ff" d="M26 28h1" />
<path stroke="#c2dcff" d="M27 28h1" />
<path stroke="#b0d2ff" d="M29 28h1M31 34h1M9 36h1M2 39h1" />
<path stroke="#a6cdff" d="M30 28h1M11 29h1" />
<path stroke="#9cc8fe" d="M31 28h1" />
<path stroke="#92c2fd" d="M32 28h1" />
<path stroke="#85bafa" d="M33 28h1" />
<path stroke="#72b0f7" d="M34 28h1" />
<path stroke="#60a6f4" d="M35 28h1" />
<path stroke="#529ef1" d="M36 28h1" />
<path stroke="#4498ef" d="M37 28h1" />
<path stroke="#3894ee" d="M38 28h1" />
<path stroke="#3492ed" d="M39 28h1" />
<path stroke="#96c4ff" d="M0 29h1" />
<path stroke="#91c1fe" d="M1 29h1" />
<path stroke="#84b9fb" d="M2 29h1M38 33h1" />
<path stroke="#60a9f8" d="M4 29h1" />
<path stroke="#5ba8fa" d="M5 29h1" />
<path stroke="#5cabfd" d="M6 29h1" />
<path stroke="#60aeff" d="M7 29h1" />
<path stroke="#67b1ff" d="M8 29h1" />
<path stroke="#74b7ff" d="M9 29h1" />
<path stroke="#8bc0ff" d="M10 29h1M30 31h1" />
<path stroke="#bad8ff" d="M12 29h1M1 38h1" />
<path stroke="#b6d5ff" d="M14 29h1M35 38h1" />
<path stroke="#9bc8ff" d="M15 29h1" />
<path stroke="#77b7ff" d="M16 29h1" />
<path stroke="#a9cfff" d="M29 29h1" />
<path stroke="#accffe" d="M33 29h1" />
<path stroke="#92c0fb" d="M35 29h1" />
<path stroke="#83b7f8" d="M36 29h1" />
<path stroke="#71acf5" d="M37 29h1" />
<path stroke="#62a4f2" d="M38 29h1" />
<path stroke="#5ca0ef" d="M39 29h1" />
<path stroke="#5faafc" d="M0 30h1" />
<path stroke="#5ba7f9" d="M1 30h1" />
<path stroke="#51a1f6" d="M2 30h1" />
<path stroke="#449bf2" d="M3 30h1" />
<path stroke="#3a98f3" d="M4 30h1" />
<path stroke="#3a9cf7" d="M5 30h1" />
<path stroke="#40a1fc" d="M6 30h1" />
<path stroke="#4aa7ff" d="M7 30h1" />
<path stroke="#5eaeff" d="M8 30h1" />
<path stroke="#7ebbff" d="M9 30h1" />
<path stroke="#a3ccff" d="M10 30h1" />
<path stroke="#bdd9ff" d="M11 30h1M7 38h1M3 39h1" />
<path stroke="#c0dbff" d="M12 30h1" />
<path stroke="#f10000" d="M19 30h1M22 30h1M20 31h3M21 32h1M21 33h2M21 34h2M21 35h2M21 36h2M21 37h3M20 38h2M23 38h1M20 39h1" />
<path stroke="#a3cbff" d="M28 30h1" />
<path stroke="#99c6ff" d="M29 30h1" />
<path stroke="#96c5ff" d="M30 30h1M2 36h1" />
<path stroke="#9fc9ff" d="M31 30h1" />
<path stroke="#b2d2fe" d="M35 30h1" />
<path stroke="#9fc6fb" d="M37 30h1" />
<path stroke="#97c0f9" d="M38 30h1" />
<path stroke="#95bef7" d="M39 30h1" />
<path stroke="#3698f4" d="M0 31h1" />
<path stroke="#3496f3" d="M1 31h1" />
<path stroke="#3094f1" d="M2 31h1" />
<path stroke="#2d93f0" d="M3 31h1" />
<path stroke="#2f96f2" d="M4 31h1" />
<path stroke="#399df8" d="M5 31h1" />
<path stroke="#4aa5fd" d="M6 31h1" />
<path stroke="#61afff" d="M7 31h1" />
<path stroke="#80bcff" d="M8 31h1" />
<path stroke="#c3ddff" d="M10 31h1" />
<path stroke="#cde2ff" d="M11 31h1M11 32h1M6 34h1" />
<path stroke="#bad7ff" d="M12 31h1M32 35h1" />
<path stroke="#93c2fe" d="M13 31h1" />
<path stroke="#a0caff" d="M28 31h1" />
<path stroke="#9ac7ff" d="M29 31h1" />
<path stroke="#84bcff" d="M31 31h1" />
<path stroke="#89beff" d="M32 31h1" />
<path stroke="#93c2ff" d="M33 31h1" />
<path stroke="#9ec8ff" d="M34 31h1" />
<path stroke="#abcefe" d="M35 31h1" />
<path stroke="#b1d2fe" d="M36 31h1" />
<path stroke="#b2d3fe" d="M37 31h1" />
<path stroke="#b7d5fe" d="M38 31h1" />
<path stroke="#bdd7fe" d="M39 31h1" />
<path stroke="#248eec" d="M0 32h1" />
<path stroke="#2690ee" d="M1 32h1" />
<path stroke="#2993f1" d="M2 32h1" />
<path stroke="#3197f4" d="M3 32h1" />
<path stroke="#3d9ef8" d="M4 32h1" />
<path stroke="#53a7fc" d="M5 32h1" />
<path stroke="#71b4fe" d="M6 32h1" />
<path stroke="#91c3ff" d="M7 32h1" />
<path stroke="#afd2ff" d="M8 32h1M5 34h1" />
<path stroke="#d8e8ff" d="M10 32h1M8 36h1" />
<path stroke="#a8cdfe" d="M12 32h1" />
<path stroke="#76b3fb" d="M13 32h1" />
<path stroke="#81bcff" d="M27 32h1" />
<path stroke="#a7ceff" d="M29 32h1" />
<path stroke="#99c7ff" d="M30 32h1" />
<path stroke="#81bbff" d="M31 32h1" />
<path stroke="#6eb2ff" d="M32 32h1" />
<path stroke="#69affe" d="M33 32h1" />
<path stroke="#73b2fb" d="M34 32h1" />
<path stroke="#83b8fa" d="M35 32h1" />
<path stroke="#91bffb" d="M36 32h1" />
<path stroke="#9fc7fd" d="M37 32h1" />
<path stroke="#afd1fe" d="M38 32h1" />
<path stroke="#228cea" d="M0 33h1" />
<path stroke="#2991ef" d="M1 33h1" />
<path stroke="#3699f5" d="M2 33h1" />
<path stroke="#48a2fa" d="M3 33h1" />
<path stroke="#60adfd" d="M4 33h1" />
<path stroke="#7fbaff" d="M5 33h1" />
<path stroke="#a2cbff" d="M6 33h1" />
<path stroke="#c2dbff" d="M7 33h1" />
<path stroke="#d7e8ff" d="M8 33h1" />
<path stroke="#e1eeff" d="M9 33h1M9 34h1" />
<path stroke="#daeaff" d="M10 33h1M7 37h1" />
<path stroke="#bdd9fe" d="M11 33h1" />
<path stroke="#8ebefb" d="M12 33h1" />
<path stroke="#5ba5f6" d="M13 33h1" />
<path stroke="#3898f3" d="M14 33h1" />
<path stroke="#2d97f5" d="M15 33h1" />
<path stroke="#6ab3ff" d="M27 33h1" />
<path stroke="#90c2ff" d="M28 33h1" />
<path stroke="#a8cfff" d="M29 33h1" />
<path stroke="#abd0ff" d="M30 33h1M2 37h1" />
<path stroke="#98c6ff" d="M31 33h1" />
<path stroke="#7ab7ff" d="M32 33h1" />
<path stroke="#5daafc" d="M33 33h1" />
<path stroke="#50a2f8" d="M34 33h1" />
<path stroke="#54a1f5" d="M35 33h1" />
<path stroke="#5fa5f5" d="M36 33h1" />
<path stroke="#71aef8" d="M37 33h1" />
<path stroke="#90c0fd" d="M39 33h1" />
<path stroke="#2e94f1" d="M0 34h1" />
<path stroke="#3b9bf5" d="M1 34h1" />
<path stroke="#51a5fa" d="M2 34h1" />
<path stroke="#6eb2fe" d="M3 34h1" />
<path stroke="#8fc2ff" d="M4 34h1" />
<path stroke="#e3efff" d="M7 34h1" />
<path stroke="#eaf3ff" d="M8 34h1" />
<path stroke="#6eaef7" d="M12 34h1" />
<path stroke="#449bf1" d="M13 34h1" />
<path stroke="#2d94f0" d="M14 34h1" />
<path stroke="#0c38ce" d="M16 34h2M26 34h1M16 35h3M25 35h4M14 36h5M24 36h5M30 36h1M15 37h4M24 37h8M15 38h1M17 38h3M24 38h4M29 38h2M17 39h3M22 39h6" />
<path stroke="#78b5fd" d="M33 34h1" />
<path stroke="#55a4f8" d="M34 34h1" />
<path stroke="#3f99f3" d="M35 34h1" />
<path stroke="#3a96f0" d="M36 34h1" />
<path stroke="#4399f1" d="M37 34h1" />
<path stroke="#51a0f5" d="M38 34h1" />
<path stroke="#5aa6f9" d="M39 34h1" />
<path stroke="#4ca2f9" d="M0 35h1" />
<path stroke="#5ba9fb" d="M1 35h1" />
<path stroke="#74b5fe" d="M2 35h1" />
<path stroke="#95c5ff" d="M3 35h1" />
<path stroke="#d4e6ff" d="M5 35h1" />
<path stroke="#e8f2ff" d="M6 35h1M8 35h1" />
<path stroke="#f0f7ff" d="M7 35h1" />
<path stroke="#cee2ff" d="M9 35h1" />
<path stroke="#a5ccfe" d="M10 35h1" />
<path stroke="#77b4fb" d="M11 35h1M35 36h1" />
<path stroke="#4ea0f5" d="M12 35h1" />
<path stroke="#3295f0" d="M13 35h1" />
<path stroke="#0c3bce" d="M29 35h1M19 36h1M29 36h1M13 37h2M19 37h2M13 38h2" />
<path stroke="#9fc9fe" d="M33 35h1" />
<path stroke="#78b4fb" d="M34 35h1" />
<path stroke="#52a2f6" d="M35 35h1" />
<path stroke="#3795f0" d="M36 35h1" />
<path stroke="#2c90ed" d="M37 35h1" />
<path stroke="#2f92ef" d="M38 35h1" />
<path stroke="#3395f2" d="M39 35h1" />
<path stroke="#78b6fe" d="M0 36h1" />
<path stroke="#85bcff" d="M1 36h1" />
<path stroke="#cbe1ff" d="M4 36h1M33 37h1" />
<path stroke="#e2efff" d="M5 36h1" />
<path stroke="#eff6ff" d="M6 36h1" />
<path stroke="#edf5ff" d="M7 36h1" />
<path stroke="#7fb9fd" d="M10 36h1" />
<path stroke="#54a5f8" d="M11 36h1" />
<path stroke="#3798f3" d="M12 36h1" />
<path stroke="#a0c9fe" d="M34 36h1" />
<path stroke="#4fa0f6" d="M36 36h1" />
<path stroke="#3395f1" d="M37 36h1" />
<path stroke="#2890ee" d="M38 36h1" />
<path stroke="#b6d6ff" d="M3 37h1" />
<path stroke="#cbe2ff" d="M4 37h1" />
<path stroke="#ddecff" d="M5 37h1" />
<path stroke="#e4f0ff" d="M6 37h1" />
<path stroke="#90c2fe" d="M9 37h1" />
<path stroke="#60abfb" d="M10 37h1" />
<path stroke="#3c9bf5" d="M11 37h1" />
<path stroke="#9cc6fe" d="M35 37h1" />
<path stroke="#6eb0fc" d="M36 37h1" />
<path stroke="#459ff8" d="M37 37h1" />
<path stroke="#2f96f4" d="M38 37h1" />
<path stroke="#2892f2" d="M39 37h1" />
<path stroke="#c7deff" d="M0 38h1" />
<path stroke="#b9d7ff" d="M3 38h1" />
<path stroke="#d1e5ff" d="M5 38h1" />
<path stroke="#cee3ff" d="M6 38h1" />
<path stroke="#70b4fe" d="M9 38h1" />
<path stroke="#48a1f8" d="M10 38h1" />
<path stroke="#2f95f1" d="M11 38h1" />
<path stroke="#cce1ff" d="M34 38h1M34 39h1" />
<path stroke="#55a8fd" d="M37 38h1" />
<path stroke="#379efb" d="M38 38h1" />
<path stroke="#d3e5ff" d="M0 39h1" />
<path stroke="#cae1ff" d="M4 39h1" />
<path stroke="#bcd9ff" d="M6 39h1" />
<path stroke="#a2ccff" d="M7 39h1" />
<path stroke="#7dbaff" d="M8 39h1" />
<path stroke="#56a9fd" d="M9 39h1" />
<path stroke="#399cf7" d="M10 39h1" />
<path stroke="#2892ef" d="M11 39h1" />
<path stroke="#93c3ff" d="M36 39h1" />
<path stroke="#5eacff" d="M37 39h1" />
<path stroke="#3ca2ff" d="M38 39h1" />
<path stroke="#339ffe" d="M39 39h1" />
</svg>