<svg xmlns="http://www.w3.org/2000/svg" viewBox="0 -0.5 40 40" shape-rendering="crispEdges">
<metadata>Made with Pixels to Svg https://codepen.io/shshaw/pen/XbxvNj</metadata>
<path stroke="#79fa26" d="M0 0h11M15 0h25M0 1h10M19 1h2M24 1h16M0 2h9M25 2h15M0 3h8M30 3h10M0 4h7M32 4h8M0 5h7M33 5h7M0 6h7M34 6h6M0 7h8M35 7h5M0 8h9M35 8h5M0 9h11M35 9h5M0 10h10M35 10h5M0 11h10M34 11h6M0 12h10M28 12h1M34 12h6M0 13h11M28 13h4M34 13h6M0 14h11M29 14h3M35 14h5M0 15h10M29 15h4M36 15h4M0 16h9M29 16h5M35 16h5M0 17h9M29 17h11M0 18h8M29 18h11M0 19h7M30 19h10M0 20h6M30 20h10M0 21h6M30 21h10M0 22h7M29 22h11M0 23h8M10 23h2M27 23h13M0 24h14M26 24h14M0 25h15M25 25h15M0 26h15M24 26h16M0 27h16M23 27h17M0 28h17M23 28h17M0 29h19M23 29h17M0 30h18M24 30h16M0 31h17M25 31h15M0 32h16M26 32h14M0 33h16M27 33h13M0 34h15M30 34h10M0 35h14M32 35h8M0 36h13M33 36h7M0 37h12M33 37h7M0 38h12M34 38h6M0 39h12M34 39h6" />
<path stroke="#000000" d="M11 0h4M10 1h1M15 1h4M9 2h1M19 2h6M8 3h1M25 3h5M7 4h1M30 4h2M7 5h1M15 5h8M32 5h1M7 6h1M13 6h11M33 6h1M8 7h2M12 7h13M34 7h1M9 8h4M23 8h3M34 8h1M11 9h1M24 9h3M34 9h1M10 10h1M15 10h4M25 10h2M34 10h1M10 11h1M14 11h1M19 11h1M26 11h3M33 11h1M10 12h1M14 12h1M19 12h1M26 12h2M29 12h4M11 13h1M14 13h1M16 13h1M19 13h1M27 13h1M11 14h1M14 14h1M16 14h2M19 14h1M28 14h1M10 15h2M14 15h1M19 15h1M28 15h1M9 16h1M11 16h1M13 16h2M19 16h2M23 16h4M28 16h1M9 17h1M12 17h1M15 17h4M21 17h2M27 17h2M8 18h8M17 18h1M20 18h2M24 18h2M28 18h1M7 19h1M16 19h5M26 19h1M29 19h1M6 20h1M9 20h4M25 20h1M27 20h1M29 20h1M6 21h1M8 21h1M13 21h4M24 21h1M29 21h1M7 22h1M10 22h3M14 22h1M17 22h8M27 22h2M8 23h2M12 23h2M15 23h1M23 23h1M26 23h1M14 24h1M16 24h1M23 24h1M25 24h1M15 25h1M17 25h1M22 25h1M24 25h1M15 26h1M17 26h1M21 26h1M23 26h1M16 27h1M18 27h3M22 27h1M17 28h1M21 28h2M19 29h1M22 29h1M18 30h1M22 30h2M17 31h2M23 31h2M16 32h1M19 32h1M22 32h1M25 32h1M16 33h1M20 33h1M22 33h1M26 33h1M15 34h1M19 34h1M23 34h1M27 34h3M14 35h2M20 35h1M22 35h1M26 35h1M30 35h2M13 36h1M16 36h1M19 36h1M23 36h1M25 36h2M31 36h2M12 37h1M17 37h2M24 37h1M32 37h1M12 38h1M16 38h1M28 38h1M33 38h1M12 39h1M15 39h2M28 39h2M33 39h1" />
<path stroke="#3383fd" d="M11 1h4M10 2h2M15 2h4M9 3h1M19 3h3M8 4h1M29 4h1M30 5h2M31 6h2M32 7h2M32 8h2M32 9h2M30 10h4M29 11h4" />
<path stroke="#ff0101" d="M21 1h3M33 12h1M32 13h2M32 14h3M33 15h3M34 16h1" />
<path stroke="#0667f9" d="M12 2h3M10 3h9M22 3h3M9 4h20M8 5h7M23 5h7M8 6h5M24 6h7M10 7h2M25 7h7M26 8h6M27 9h5M27 10h3" />
<path stroke="#ffffff" d="M13 8h2M20 8h3M12 9h2M15 9h5M21 9h3M11 10h4M20 10h5M11 11h3M15 11h4M20 11h6M11 12h3M20 12h6M12 13h2M17 13h1M20 13h7M12 14h2M20 14h8M12 15h2M20 15h8M12 16h1M15 16h4M21 16h2M27 16h1M18 18h2M20 29h2M19 30h3M19 31h4M20 32h2M27 35h3M14 36h2M20 36h3M27 36h4M13 37h4M19 37h5M25 37h7M13 38h3M17 38h11M29 38h4M13 39h2M17 39h11M30 39h3" />
<path stroke="#cdd0d4" d="M15 8h5M14 9h1M20 9h1M19 10h1M13 17h2M19 17h2" />
<path stroke="#67a0f6" d="M15 12h3M15 13h1M18 13h1M15 14h1M18 14h1M16 15h3" />
<path stroke="#5495f6" d="M18 12h1" />
<path stroke="#84b0f2" d="M15 15h1" />
<path stroke="#ff8a00" d="M10 16h1M10 17h2M23 17h4M16 18h1M22 18h2M26 18h2M8 19h8M21 19h5M27 19h2M7 20h2M13 20h12M26 20h1M28 20h1M7 21h1M9 21h4M17 21h7M25 21h4M8 22h2M13 22h1M25 22h2M14 23h1M24 23h2M15 24h1M24 24h1M16 25h1M23 25h1M16 26h1M22 26h1M17 27h1M21 27h1M18 28h3" />
<path stroke="#ff0000" d="M15 22h2M16 23h3M22 23h1M17 24h1M21 24h2M20 25h2M18 26h3M17 32h2M23 32h2M17 33h3M21 33h1M23 33h3M16 34h3M20 34h3M24 34h3M16 35h4M21 35h1M23 35h3M17 36h2M24 36h1" />
<path stroke="#fc809a" d="M19 23h3M18 24h3M18 25h2" />
</svg>