<svg xmlns="http://www.w3.org/2000/svg" viewBox="0 -0.5 40 40" shape-rendering="crispEdges">
<metadata>Made with Pixels to Svg https://codepen.io/shshaw/pen/XbxvNj</metadata>
<path stroke="#1e45a7" d="M0 0h40M0 1h11M13 1h5M23 1h17M0 2h10M14 2h3M30 2h9M1 3h7M15 3h2M31 3h6M1 4h6M15 4h1M28 4h1M31 4h5M2 5h1M5 5h1M29 5h1M32 5h4M2 6h1M5 6h1M32 6h1M2 7h1M3 8h1M3 9h1M3 10h1M2 36h1M2 37h1M2 38h1M2 39h1" />
<path stroke="#0938a5" d="M11 1h2M11 2h3M27 2h3M0 3h1M12 3h3M28 3h3M0 4h1M13 4h2M29 4h2M0 5h2M13 5h2M30 5h2M0 6h2M14 6h1M30 6h2M0 7h2M31 7h2M0 8h3M31 8h2M0 9h3M31 9h2M0 10h3M31 10h2M0 11h2M32 11h1M0 12h1M0 13h2M0 14h3M0 15h2M0 16h1M2 16h1M0 17h2M31 17h2M0 18h3M31 18h2M0 19h3M31 19h2M0 20h3M31 20h2M0 21h3M31 21h2M0 22h2M31 22h2M0 23h1M31 23h2M0 24h1M31 24h2M31 25h2M31 26h2M31 27h2M31 28h3M0 29h1M33 29h1M0 30h2M0 31h3M33 31h1M0 32h3M31 32h3M0 33h3M31 33h3M0 34h3M31 34h3M0 35h3M32 35h2M0 36h2M33 36h1M0 37h2M0 38h2M0 39h2" />
<path stroke="#5c5656" d="M18 1h4M17 2h4M23 2h3M17 3h4M22 3h4M16 4h10M21 5h5M11 8h12M8 9h19M4 10h25M2 11h29M1 12h3M25 12h8M2 13h1M4 13h7M27 13h8M33 14h4M28 15h1M37 15h1M28 16h10M13 28h4M23 28h5M11 29h6M23 29h8M10 30h8M23 30h10M10 31h9M21 31h2M25 31h6M10 32h7M20 32h5M27 32h3M4 33h5M17 33h10M4 34h5M15 34h1M18 34h11M4 35h5M14 35h3M19 35h11M5 36h5M13 36h6M20 36h11M5 37h5M12 37h8M21 37h7M29 37h3M5 38h6M12 38h9M22 38h6M29 38h4M6 39h5M12 39h9M22 39h6M29 39h4" />
<path stroke="#817979" d="M22 1h1M21 2h1M26 2h1M26 3h1M26 4h1M26 5h1M27 9h1M29 10h1M31 11h1M33 12h1M35 13h1M37 14h1M38 15h1M29 34h1M30 35h1M31 36h1M32 37h1" />
<path stroke="#516cb1" d="M10 2h1M39 2h1M8 3h4M27 3h1M37 3h3M7 4h6M27 4h1M36 4h4M6 5h7M27 5h2M36 5h4M6 6h8M27 6h3M35 6h5M5 7h8M27 7h4M35 7h5M5 8h6M27 8h4M35 8h5M5 9h3M28 9h3M35 9h5M30 10h1M35 10h5M35 11h5M35 12h5M36 13h4M5 14h2M8 14h3M38 14h2M7 15h3M39 15h1M6 16h3M38 16h2M5 17h1M7 17h2M29 17h2M35 17h5M6 18h2M29 18h2M35 18h5M6 19h1M30 19h1M35 19h5M30 20h1M35 20h5M30 21h1M35 21h5M29 22h2M35 22h5M10 23h2M27 23h4M35 23h5M11 24h1M26 24h5M35 24h5M11 25h1M25 25h6M35 25h5M11 26h1M24 26h7M35 26h5M28 27h3M35 27h5M35 28h5M35 29h5M35 30h5M35 31h5M35 32h5M30 33h1M35 33h5M10 34h2M35 34h5M11 35h1M35 35h5M11 36h1M35 36h5M35 37h5M35 38h5M35 39h5" />
<path stroke="#000000" d="M22 2h1M21 3h1M15 5h6M15 6h11M13 7h13M23 8h3M4 12h7M12 12h1M15 12h1M17 12h1M21 12h1M11 13h1M15 13h1M17 13h1M21 13h1M11 14h1M15 14h1M17 14h1M20 14h2M28 14h5M10 15h2M14 15h2M17 15h1M19 15h3M29 15h8M9 16h1M11 16h1M14 16h2M17 16h1M19 16h3M23 16h4M9 17h1M12 17h1M14 17h4M19 17h4M27 17h2M8 18h8M17 18h1M20 18h2M24 18h2M28 18h1M7 19h1M16 19h5M26 19h1M29 19h1M4 20h4M9 20h4M25 20h1M27 20h1M29 20h1M3 21h1M6 21h3M13 21h4M24 21h1M29 21h1M2 22h3M7 22h6M14 22h1M17 22h8M27 22h2M1 23h7M9 23h1M12 23h2M15 23h1M23 23h1M26 23h1M1 24h10M14 24h1M16 24h1M23 24h1M25 24h1M0 25h1M3 25h8M15 25h1M17 25h1M22 25h1M24 25h1M1 26h1M4 26h7M15 26h1M17 26h1M21 26h1M23 26h1M2 27h1M5 27h4M11 27h1M13 27h4M18 27h3M22 27h6M0 28h1M3 28h1M6 28h3M11 28h2M17 28h1M21 28h2M28 28h3M1 29h1M7 29h1M10 29h1M18 29h3M31 29h2M2 30h1M9 30h1M33 30h1M3 31h1M9 31h1M31 31h2M3 32h7M30 32h1M3 33h1M9 33h5M29 33h1M3 34h1M9 34h1M14 34h1M30 34h1M3 35h1M9 35h2M13 35h1M31 35h1M4 36h1M10 36h1M12 36h1M32 36h1M4 37h1M10 37h2M28 37h1M33 37h1M4 38h1M11 38h1M28 38h1M33 38h1M5 39h1M11 39h1M28 39h1M33 39h1" />
<path stroke="#1e48a7" d="M3 5h2M3 6h2M3 7h2M4 8h1M4 9h1M33 10h2M33 11h2M34 12h1M3 14h1M4 15h1M3 17h1M33 17h2M33 18h2M3 19h2M33 19h2M3 20h1M33 20h2M33 21h2M33 22h2M33 23h2M12 24h2M33 24h2M12 25h3M33 25h2M12 26h3M33 26h2M12 27h1M33 27h2M34 28h1M34 29h1M34 30h1M34 31h1M34 32h1M34 33h1M12 34h2M34 34h1M12 35h1M34 35h1M3 36h1M34 36h1M3 37h1M34 37h1M3 38h1M34 38h1M3 39h2M34 39h1" />
<path stroke="#3d3838" d="M26 6h1M26 7h1M26 8h1" />
<path stroke="#1e46a7" d="M33 6h2M33 7h2M33 8h2M33 9h2" />
<path stroke="#dad6d6" d="M11 12h1M16 12h1M22 12h3M25 13h2M27 14h1M21 29h1M19 30h2M5 31h1" />
<path stroke="#c3d9f9" d="M13 12h2M18 12h3M12 13h3M18 13h3M12 14h2M18 14h1M12 15h2M18 15h1M12 16h2M18 16h1M13 17h1M18 17h1M18 18h2" />
<path stroke="#ffef50" d="M3 13h1" />
<path stroke="#ffffff" d="M16 13h1M22 13h3M14 14h1M16 14h1M19 14h1M22 14h5M5 15h1M16 15h1M22 15h6M16 16h1M22 16h1M27 16h1M4 21h2M5 22h2M8 23h1M1 25h2M0 26h1M2 26h2M0 27h2M3 27h2M9 27h2M1 28h2M4 28h2M9 28h2M2 29h5M8 29h2M4 30h5M6 31h3" />
<path stroke="#fff050" d="M4 14h1M2 15h1M1 16h1M3 16h1M5 16h1M6 17h1M3 18h1" />
<path stroke="#ffc200" d="M7 14h1M3 15h1" />
<path stroke="#faf19b" d="M6 15h1M4 16h1M2 17h1" />
<path stroke="#ff8a00" d="M10 16h1M10 17h2M23 17h4M16 18h1M22 18h2M26 18h2M8 19h8M21 19h5M27 19h2M8 20h1M13 20h12M26 20h1M28 20h1M9 21h4M17 21h7M25 21h4M13 22h1M25 22h2M14 23h1M24 23h2M15 24h1M24 24h1M16 25h1M23 25h1M16 26h1M22 26h1M17 27h1M21 27h1M18 28h3" />
<path stroke="#7c4506" d="M4 17h1M4 18h1M5 19h1" />
<path stroke="#7c4606" d="M5 18h1" />
<path stroke="#ff0000" d="M15 22h2M16 23h3M22 23h1M17 24h1M21 24h2M20 25h2M18 26h3" />
<path stroke="#fc809a" d="M19 23h3M18 24h3M18 25h2" />
<path stroke="#3e3939" d="M17 29h1M22 29h1M18 30h1M21 30h2M19 31h2M23 31h2M17 32h3M25 32h2M14 33h3M27 33h2M16 34h2M17 35h2M19 36h1M20 37h1M21 38h1M21 39h1" />
<path stroke="#c8bfbf" d="M3 30h1M4 31h1" />
</svg>