<svg xmlns="http://www.w3.org/2000/svg" viewBox="0 -0.5 40 40" shape-rendering="crispEdges">
<metadata>Made with Pixels to Svg https://codepen.io/shshaw/pen/XbxvNj</metadata>
<path stroke="#6c0475" d="M0 0h12M27 0h13M0 1h11M28 1h12M0 2h10M28 2h12M0 3h9M29 3h11M0 4h8M30 4h10M0 5h7M31 5h9M0 6h5M32 6h8M0 7h4M33 7h7M0 8h2M35 8h5M0 9h2M36 9h4M0 10h1M37 10h3M0 11h1M38 11h2M0 13h1M38 13h1M0 15h1M38 15h1M0 16h2M38 16h2M0 17h3M38 17h2M0 18h3M37 18h3M0 19h3M33 19h7M0 20h3M33 20h7M0 21h3M33 21h7M0 22h3M33 22h7M0 23h1M33 23h7M0 24h1M33 24h7M32 25h8M30 26h10M0 27h3M6 27h6M29 27h11M3 28h1M6 28h6M27 28h13M9 29h4M29 29h11M10 30h3M31 30h9M4 31h1M10 31h2M33 31h7M5 32h2M10 32h1M34 32h6M35 33h5M36 34h4M37 35h3M37 36h3M37 37h3M37 38h3M0 39h1M37 39h3" />
<path stroke="#6f0479" d="M12 0h1M26 0h1M27 2h1M3 8h1M33 8h1M2 9h1M37 16h1M32 23h1M27 29h1M29 30h1M31 31h1M11 33h1M36 36h1" />
<path stroke="#7c0487" d="M13 0h1M3 9h1" />
<path stroke="#9504a3" d="M14 0h1M24 0h1M26 3h1M5 16h1" />
<path stroke="#b404c6" d="M15 0h1" />
<path stroke="#d304e8" d="M16 0h1M30 17h1M29 18h1M27 23h1M23 27h1" />
<path stroke="#e104f8" d="M17 0h1" />
<path stroke="#e404fb" d="M18 0h1" />
<path stroke="#e304fa" d="M19 0h2" />
<path stroke="#e004f7" d="M21 0h1" />
<path stroke="#d104e6" d="M22 0h1" />
<path stroke="#b304c4" d="M23 0h1" />
<path stroke="#7c0488" d="M25 0h1" />
<path stroke="#6c0476" d="M11 1h1M10 2h1M9 3h1M8 4h1M5 6h1M4 7h1M32 7h1M2 8h1M1 10h1M37 11h1M2 16h1M37 17h1M36 18h1M32 24h1M31 25h1M29 26h1M28 27h1M12 28h1M12 31h1M11 32h1M33 32h1M36 35h1M0 38h1M1 39h1" />
<path stroke="#750480" d="M12 1h1M2 10h1M33 18h1M29 25h1" />
<path stroke="#92049f" d="M13 1h1M10 25h1M35 37h1" />
<path stroke="#b604c7" d="M14 1h1" />
<path stroke="#cc04e0" d="M15 1h1M25 4h1M8 8h1M4 11h1M34 39h1" />
<path stroke="#8b5808" d="M16 1h4M15 2h5M15 3h3M14 4h4M7 9h4M24 9h1M6 10h4M26 10h2M5 11h4M7 12h1" />
<path stroke="#805007" d="M20 1h2M20 2h3M18 3h4M18 4h5" />
<path stroke="#a46709" d="M22 1h1M23 2h1M22 3h3M23 4h2M23 5h2M11 6h12M10 7h17M9 8h20M26 9h4M28 10h3M29 11h3M31 12h1M31 13h3M32 14h1M33 15h1" />
<path stroke="#c804dc" d="M23 1h1M7 17h1M16 29h1" />
<path stroke="#b604c8" d="M24 1h1M31 17h1" />
<path stroke="#9304a1" d="M25 1h1M4 9h1" />
<path stroke="#760480" d="M26 1h1M27 3h1M7 6h1M4 8h1M32 8h1M32 21h1M12 26h1M28 30h1M30 31h1M36 38h1" />
<path stroke="#6d0476" d="M27 1h1M28 3h1M29 4h1M7 5h1M30 5h1M31 6h1M34 8h1M35 9h1M36 10h1M3 17h1M28 29h1M13 30h1M30 30h1M32 31h1M10 33h1M34 33h1M35 34h1" />
<path stroke="#71047b" d="M11 2h1M5 7h1M3 16h1M12 32h1M0 37h1M1 38h1M2 39h1" />
<path stroke="#850492" d="M12 2h1M28 25h1" />
<path stroke="#a904b9" d="M13 2h1M3 11h1" />
<path stroke="#c604da" d="M14 2h1" />
<path stroke="#ca04de" d="M24 2h1" />
<path stroke="#a904ba" d="M25 2h1M5 21h1M14 27h1" />
<path stroke="#82048e" d="M26 2h1M2 11h1M29 31h1" />
<path stroke="#72047c" d="M10 3h1M9 4h1M28 4h1M8 5h1M29 5h1M30 6h1M31 7h1M34 9h1M35 10h1M36 11h1M3 19h1M3 20h1M33 33h1M10 34h1M34 34h1M35 35h1" />
<path stroke="#830490" d="M11 3h1M10 4h1M9 5h1" />
<path stroke="#a404b3" d="M12 3h1M29 7h1" />
<path stroke="#c104d4" d="M13 3h1M24 29h1" />
<path stroke="#c704db" d="M14 3h1M35 14h1M33 16h1M10 37h1" />
<path stroke="#bf04d1" d="M25 3h1" />
<path stroke="#a304b3" d="M11 4h1M10 5h1M15 29h1M3 38h1" />
<path stroke="#c204d6" d="M12 4h1M27 6h1M29 8h1" />
<path stroke="#cd04e2" d="M13 4h1M26 24h1M14 34h1" />
<path stroke="#ab04bc" d="M26 4h1M6 16h1M28 24h1" />
<path stroke="#860492" d="M27 4h1M8 6h1M5 8h1M3 39h1" />
<path stroke="#c204d5" d="M11 5h1M33 11h1M30 21h1M15 32h1M14 33h1" />
<path stroke="#cf04e3" d="M12 5h1M26 6h1M27 7h1M15 27h1M15 33h1" />
<path stroke="#583705" d="M13 5h1M22 5h1M23 6h3M10 10h1M25 10h1M9 11h1M26 11h1M8 12h1M27 12h1M32 15h1" />
<path stroke="#583805" d="M14 5h8" />
<path stroke="#d004e4" d="M25 5h1M31 16h1" />
<path stroke="#c404d7" d="M26 5h1M10 6h1M6 18h1" />
<path stroke="#a404b4" d="M27 5h1M9 6h1M30 8h1M34 11h1M32 34h1M33 35h1" />
<path stroke="#840490" d="M28 5h1M29 6h1M30 7h1M34 10h1M35 11h1M14 31h1M32 33h1M33 34h1M34 35h1" />
<path stroke="#6f0478" d="M6 6h1M1 11h1M3 18h1M35 18h1M3 21h1M30 25h1M12 27h1M27 27h1M13 29h1" />
<path stroke="#a304b4" d="M28 6h1" />
<path stroke="#80048b" d="M6 7h1M4 16h1M36 16h1M35 17h1M4 18h1M31 23h1M30 24h1M27 26h1M12 33h1" />
<path stroke="#9404a2" d="M7 7h1M5 22h1M29 24h1M13 26h1M26 26h1M15 30h1M12 34h1" />
<path stroke="#ab04bb" d="M8 7h1M5 9h1M13 25h1" />
<path stroke="#c504d8" d="M9 7h1M7 16h1" />
<path stroke="#c304d6" d="M28 7h1M6 9h1M27 24h1M24 26h1M13 35h1" />
<path stroke="#a204b2" d="M6 8h1M33 10h1M35 12h1M31 33h1M34 36h1" />
<path stroke="#bd04cf" d="M7 8h1M35 15h1M8 24h1M12 36h1" />
<path stroke="#860493" d="M31 8h1" />
<path stroke="#000000" d="M11 9h3M18 9h4M22 10h1M26 12h1M27 13h1M28 14h1M24 16h3M28 16h1M9 17h1M15 17h3M27 17h2M8 18h8M17 18h1M20 18h2M24 18h2M28 18h1M7 19h1M16 19h5M26 19h1M29 19h1M6 20h1M9 20h4M25 20h1M27 20h1M29 20h1M6 21h1M8 21h1M13 21h4M24 21h1M29 21h1M7 22h1M10 22h3M14 22h1M17 22h8M27 22h2M8 23h2M12 23h2M15 23h1M23 23h1M26 23h1M14 24h1M16 24h1M23 24h1M25 24h1M15 25h1M17 25h1M22 25h1M24 25h1M15 26h1M17 26h1M21 26h1M23 26h1M16 27h1M18 27h3M22 27h1M0 28h3M17 28h1M21 28h2M1 29h1M3 29h1M7 29h2M19 29h1M22 29h1M1 30h1M3 30h1M7 30h1M9 30h1M18 30h1M22 30h2M1 31h1M3 31h1M7 31h1M9 31h1M17 31h2M23 31h2M1 32h1M4 32h1M7 32h1M9 32h1M16 32h1M25 32h1M0 33h1M2 33h1M4 33h4M9 33h1M16 33h1M0 34h1M9 34h1M15 34h1M27 34h3M1 35h2M7 35h2M14 35h2M30 35h2M3 36h2M8 36h1M13 36h1M31 36h2M5 37h1M9 37h1M12 37h1M32 37h1M6 38h1M10 38h1M12 38h1M28 38h1M33 38h1M7 39h1M11 39h2M15 39h1M28 39h2M33 39h1" />
<path stroke="#ede8e8" d="M14 9h4M22 9h2M11 10h2M24 10h1M25 11h1M24 14h4M16 15h1M18 18h2M20 29h2M1 34h1M3 35h1" />
<path stroke="#8b5708" d="M25 9h1M27 11h2" />
<path stroke="#c204d4" d="M30 9h1" />
<path stroke="#aa04ba" d="M31 9h1M6 17h1M25 26h1" />
<path stroke="#9404a3" d="M32 9h1" />
<path stroke="#80048c" d="M33 9h1M36 12h1M14 29h1M31 32h1M35 36h1" />
<path stroke="#9204a0" d="M3 10h1" />
<path stroke="#b704c9" d="M4 10h1" />
<path stroke="#cc04e1" d="M5 10h1" />
<path stroke="#ffffff" d="M13 10h9M23 10h1M15 11h3M23 11h2M16 12h1M16 13h1M25 15h2M16 16h1M27 16h1M0 29h1M2 29h1M0 30h1M2 30h1M8 30h1M19 30h3M0 31h1M2 31h1M8 31h1M19 31h4M0 32h1M2 32h2M8 32h1M19 32h3M1 33h1M3 33h1M8 33h1M2 34h7M4 35h3" />
<path stroke="#c504d9" d="M31 10h1M30 18h1M25 25h1M31 34h1M33 36h1" />
<path stroke="#bb04ce" d="M32 10h1M30 22h1" />
<path stroke="#12a243" d="M10 11h4M18 11h2M17 12h1M15 13h1M17 13h1M17 15h1M17 16h1M10 17h3M18 17h4" />
<path stroke="#12a242" d="M14 11h1M20 11h3M15 15h1M9 16h2M14 16h2M18 16h1M22 16h2M13 17h2M22 17h1" />
<path stroke="#ce04e2" d="M32 11h1M14 25h1" />
<path stroke="#6b0374" d="M0 12h1M38 12h2M0 14h1M38 14h2" />
<path stroke="#71037b" d="M1 12h1" />
<path stroke="#8f049c" d="M2 12h1M4 19h1M4 20h1" />
<path stroke="#ba04cc" d="M3 12h1M5 19h1" />
<path stroke="#8a5707" d="M4 12h3M29 12h1M5 13h1M31 14h1" />
<path stroke="#11a141" d="M9 12h2M14 12h1M23 12h1M15 14h1M17 14h1M23 14h1" />
<path stroke="#0042ff" d="M11 12h3M10 13h3M14 13h1M10 14h5M10 15h5M11 16h3" />
<path stroke="#11a142" d="M15 12h1M9 14h1" />
<path stroke="#11a13f" d="M18 12h1" />
<path stroke="#ff0000" d="M19 12h3M18 13h3M22 13h1M18 14h5M18 15h5M19 16h3M3 22h1M15 22h2M4 23h1M16 23h3M22 23h1M3 24h2M6 24h1M17 24h1M21 24h2M4 25h1M6 25h1M20 25h2M5 26h3M18 26h3" />
<path stroke="#12a240" d="M22 12h1" />
<path stroke="#fefefe" d="M24 12h2M24 15h1M27 15h1" />
<path stroke="#8a5607" d="M28 12h1" />
<path stroke="#a36608" d="M30 12h1M32 12h1M33 14h2" />
<path stroke="#d003e5" d="M33 12h1" />
<path stroke="#c303d6" d="M34 12h1" />
<path stroke="#6e0378" d="M37 12h1" />
<path stroke="#72057c" d="M1 13h1" />
<path stroke="#8f059c" d="M2 13h1" />
<path stroke="#b703c8" d="M3 13h1" />
<path stroke="#8c5909" d="M4 13h1" />
<path stroke="#8b5809" d="M6 13h1M30 13h1" />
<path stroke="#583706" d="M7 13h1M8 14h1M30 15h2" />
<path stroke="#573604" d="M8 13h1M29 13h1M5 14h3M29 14h2M29 15h1" />
<path stroke="#13a344" d="M9 13h1M9 15h1" />
<path stroke="#80a0f7" d="M13 13h1" />
<path stroke="#fc809d" d="M21 13h1" />
<path stroke="#13a341" d="M23 13h1" />
<path stroke="#12943a" d="M24 13h3M16 14h1" />
<path stroke="#593806" d="M28 13h1" />
<path stroke="#d805ed" d="M34 13h1" />
<path stroke="#be04d1" d="M35 13h1M6 22h1M29 23h1M10 24h1" />
<path stroke="#92059f" d="M36 13h1" />
<path stroke="#73047d" d="M37 13h1M37 15h1M34 18h1M32 22h1M10 26h1M36 37h1" />
<path stroke="#6c0575" d="M39 13h1M39 15h1" />
<path stroke="#6e0377" d="M1 14h1" />
<path stroke="#7e038a" d="M2 14h1" />
<path stroke="#9f05ae" d="M3 14h1" />
<path stroke="#bb03cd" d="M4 14h1" />
<path stroke="#9703a6" d="M36 14h1" />
<path stroke="#75047f" d="M37 14h1M9 26h1M13 28h1" />
<path stroke="#6c0576" d="M1 15h1" />
<path stroke="#71057b" d="M2 15h1" />
<path stroke="#81038d" d="M3 15h1" />
<path stroke="#a005af" d="M4 15h1" />
<path stroke="#b803c9" d="M5 15h1" />
<path stroke="#c705da" d="M6 15h1" />
<path stroke="#d105e6" d="M7 15h1" />
<path stroke="#da03f0" d="M8 15h1" />
<path stroke="#13a343" d="M23 15h1" />
<path stroke="#020202" d="M28 15h1" />
<path stroke="#a46609" d="M34 15h1M17 32h1M17 33h1M25 33h2M16 34h2M25 34h2M16 35h2M25 35h2M16 36h2M25 36h2M16 37h2M25 37h2M16 38h2M25 38h2M16 39h2M25 39h2" />
<path stroke="#91059f" d="M36 15h1" />
<path stroke="#da04f0" d="M8 16h1M10 23h1M23 29h1" />
<path stroke="#dd04f3" d="M29 16h1" />
<path stroke="#db04f1" d="M30 16h1M5 38h1" />
<path stroke="#c904dd" d="M32 16h1" />
<path stroke="#bc04cf" d="M34 16h1" />
<path stroke="#a004af" d="M35 16h1M30 23h1" />
<path stroke="#74047f" d="M4 17h1" />
<path stroke="#890496" d="M5 17h1" />
<path stroke="#d504eb" d="M8 17h1M17 30h1" />
<path stroke="#ff8a00" d="M23 17h4M16 18h1M22 18h2M26 18h2M8 19h8M21 19h5M27 19h2M7 20h2M13 20h12M26 20h1M28 20h1M7 21h1M9 21h4M17 21h7M25 21h4M8 22h2M13 22h1M25 22h2M14 23h1M24 23h2M15 24h1M24 24h1M16 25h1M23 25h1M16 26h1M22 26h1M17 27h1M21 27h1M18 28h3" />
<path stroke="#de04f4" d="M29 17h1" />
<path stroke="#a104b0" d="M32 17h1" />
<path stroke="#9a04a8" d="M33 17h1" />
<path stroke="#91049f" d="M34 17h1M31 22h1" />
<path stroke="#72047b" d="M36 17h1M31 24h1M28 26h1M13 31h1M32 32h1" />
<path stroke="#a204b1" d="M5 18h1M27 25h1" />
<path stroke="#d304e7" d="M7 18h1M5 39h1" />
<path stroke="#9f04ae" d="M31 18h1" />
<path stroke="#7f048a" d="M32 18h1" />
<path stroke="#d704ec" d="M6 19h1M29 22h1M4 37h1" />
<path stroke="#ba04cd" d="M30 19h1M30 20h1" />
<path stroke="#9704a6" d="M31 19h1M31 20h1M25 29h1M26 30h1" />
<path stroke="#760481" d="M32 19h1M32 20h1M26 27h1M11 34h1M36 39h1" />
<path stroke="#bc04ce" d="M5 20h1M16 30h1" />
<path stroke="#82048d" d="M4 21h1M13 27h1" />
<path stroke="#9804a7" d="M31 21h1" />
<path stroke="#fc4b4b" d="M4 22h1M5 23h1M8 26h1" />
<path stroke="#d10d0d" d="M1 23h2M1 24h1M1 25h3M5 25h1M0 26h3M4 26h1" />
<path stroke="#feffc5" d="M3 23h1M2 24h1M5 24h1M0 25h1M7 25h1M3 26h1" />
<path stroke="#a104b1" d="M6 23h1M13 33h1" />
<path stroke="#c404d8" d="M7 23h1" />
<path stroke="#d204e7" d="M11 23h1" />
<path stroke="#fc809a" d="M19 23h3M18 24h3M18 25h2" />
<path stroke="#cf04e4" d="M28 23h1M24 30h1M27 32h1" />
<path stroke="#a204b0" d="M7 24h1" />
<path stroke="#c704da" d="M9 24h1" />
<path stroke="#ae04bf" d="M11 24h1M24 28h1M11 36h1" />
<path stroke="#b004c0" d="M12 24h1" />
<path stroke="#c604d9" d="M13 24h1M16 31h1M32 35h1M4 38h1" />
<path stroke="#91049e" d="M8 25h1" />
<path stroke="#9804a6" d="M9 25h1" />
<path stroke="#850491" d="M11 25h1M25 28h1" />
<path stroke="#8a0496" d="M12 25h1" />
<path stroke="#bb04cd" d="M26 25h1M13 34h1" />
<path stroke="#700479" d="M11 26h1" />
<path stroke="#bf04d2" d="M14 26h1M30 33h1" />
<path stroke="#d3ad89" d="M3 27h3" />
<path stroke="#b004c1" d="M24 27h1" />
<path stroke="#8a0497" d="M25 27h1M11 35h1" />
<path stroke="#e8b98d" d="M4 28h1M4 29h1M4 30h2M5 31h2" />
<path stroke="#ffd8b2" d="M5 28h1M5 29h2M6 30h1" />
<path stroke="#9404a1" d="M14 28h1" />
<path stroke="#bd04d0" d="M15 28h1" />
<path stroke="#d704ed" d="M16 28h1" />
<path stroke="#d404e9" d="M23 28h1" />
<path stroke="#70047a" d="M26 28h1" />
<path stroke="#dc04f2" d="M17 29h1" />
<path stroke="#d904ef" d="M18 29h1" />
<path stroke="#7a0485" d="M26 29h1" />
<path stroke="#770481" d="M14 30h1" />
<path stroke="#b304c6" d="M25 30h1" />
<path stroke="#82048f" d="M27 30h1" />
<path stroke="#a504b5" d="M15 31h1" />
<path stroke="#d004e5" d="M25 31h1" />
<path stroke="#c004d5" d="M26 31h1" />
<path stroke="#aa04bb" d="M27 31h1M29 32h1" />
<path stroke="#9504a4" d="M28 31h1" />
<path stroke="#83048f" d="M13 32h1M0 35h1M1 37h1M2 38h1" />
<path stroke="#a304b2" d="M14 32h1M2 37h1" />
<path stroke="#ffd400" d="M18 32h1M22 32h3M19 33h5M18 34h1M24 34h1M18 35h7M27 35h2M5 36h3M15 36h1M29 36h2M13 37h2M18 37h7M27 37h3M31 37h1M7 38h3M14 38h2M30 38h2M10 39h1M13 39h1M18 39h7M27 39h1M30 39h1M32 39h1" />
<path stroke="#d804ee" d="M26 32h1M30 34h1" />
<path stroke="#c004d3" d="M28 32h1" />
<path stroke="#9504a2" d="M30 32h1" />
<path stroke="#2bc20b" d="M18 33h1M24 33h1M19 34h5" />
<path stroke="#d804ed" d="M27 33h2" />
<path stroke="#cf04e5" d="M29 33h1" />
<path stroke="#9b04aa" d="M9 35h1" />
<path stroke="#880495" d="M10 35h1" />
<path stroke="#a804b9" d="M12 35h1" />
<path stroke="#2dc20b" d="M29 35h1M6 37h3M30 37h1M27 38h1M29 38h1M32 38h1M8 39h2M31 39h1" />
<path stroke="#7d0488" d="M0 36h1" />
<path stroke="#9d04ab" d="M1 36h1" />
<path stroke="#be04d0" d="M2 36h1M34 37h1" />
<path stroke="#b704c8" d="M9 36h1" />
<path stroke="#ad04bd" d="M10 36h1M4 39h1" />
<path stroke="#2cc20b" d="M14 36h1M18 36h7M15 37h1M13 38h1M18 38h7M14 39h1" />
<path stroke="#2ec20b" d="M27 36h2" />
<path stroke="#c304d7" d="M3 37h1" />
<path stroke="#ce04e3" d="M11 37h1" />
<path stroke="#da04ef" d="M33 37h1" />
<path stroke="#d604eb" d="M11 38h1" />
<path stroke="#ca04dd" d="M34 38h1" />
<path stroke="#9a04a9" d="M35 38h1" />
<path stroke="#e204f9" d="M6 39h1" />
<path stroke="#9c04ab" d="M35 39h1" />
</svg>