<svg xmlns="http://www.w3.org/2000/svg" viewBox="0 -0.5 40 40" shape-rendering="crispEdges">
<metadata>Made with Pixels to Svg https://codepen.io/shshaw/pen/XbxvNj</metadata>
<path stroke="#09ebe6" d="M0 0h40M0 1h24M28 1h12M0 2h21M31 2h9M0 3h18M32 3h8M0 4h15M33 4h7M0 5h13M34 5h6M0 6h11M31 6h1M34 6h6M0 7h10M30 7h3M34 7h6M0 8h9M30 8h10M0 9h8M31 9h9M0 10h8M32 10h8M0 11h7M28 11h2M32 11h8M0 12h7M29 12h2M32 12h8M0 13h7M29 13h11M0 14h7M29 14h11M0 15h7M29 15h11M0 16h6M30 16h10M0 17h5M30 17h10M0 18h4M30 18h10M0 19h4M30 19h10M0 20h3M31 20h9M0 21h3M31 21h9M0 22h3M31 22h9M0 23h3M31 23h9M0 24h4M31 24h9M0 25h5M31 25h9M0 26h6M31 26h9M0 27h7M31 27h9M0 28h9M31 28h9M0 29h9M32 29h8M0 30h10M33 30h7M0 31h10M35 31h5M0 32h10M36 32h4M0 33h10M36 33h4M0 34h10M37 34h3M0 35h10M38 35h2M0 36h9M39 36h1M0 37h9M0 38h8M0 39h7" />
<path stroke="#eb0992" d="M24 1h2M21 2h2M18 3h3M17 4h1M15 5h1M14 6h1M12 7h1M11 8h1M22 8h2M10 9h1M24 9h1M10 10h1M25 10h1M9 11h1M26 11h2M9 12h1M9 13h1M8 14h1M8 15h1M8 16h1M8 17h1M29 37h1M28 38h1M27 39h1" />
<path stroke="#ff51b3" d="M26 1h1M23 2h7M21 3h10M18 4h2M21 4h11M16 5h2M23 5h7M32 5h1M15 6h1M23 6h6M14 7h1M23 7h3M27 7h2M13 8h1M24 8h2M27 8h1M12 9h3M26 9h1M11 10h1M13 10h3M18 10h3M26 10h1M11 11h10M11 12h2M26 12h1M11 13h1M26 13h2M10 14h1M24 14h1M27 14h1M27 15h1M28 16h1M28 17h1M28 18h1M29 20h1M29 21h1M29 22h1M27 23h1M29 23h1M26 24h2M29 24h1M25 25h2M24 26h4M14 27h1M24 27h5M15 28h1M23 28h2M26 28h3M23 29h2M26 29h2M22 30h2M26 30h2M18 31h1M22 31h1M17 32h3M22 32h1M17 33h3M27 33h1M17 34h2M28 34h1M29 35h1M30 36h2M14 37h1M31 37h1M13 38h1M31 38h2M33 39h1" />
<path stroke="#fd6dc0" d="M27 1h1M30 2h1M31 3h1M32 4h1M33 5h1M33 6h1M13 12h8M28 12h1M12 13h1M21 13h1M11 14h1M22 14h1M24 15h1M25 16h1M29 16h1M10 17h1M26 17h1M26 18h1M26 19h1M26 20h1M30 20h1M26 21h1M30 21h1M25 22h1M30 22h1M30 23h1M24 24h1M30 24h1M29 25h2M29 26h1M23 27h1M29 27h1M29 28h1M22 29h1M28 29h1M21 30h1M21 31h1M21 32h1M28 33h2M21 34h1M29 34h2M30 35h2M21 36h1M32 36h1M32 37h2M21 38h1M33 38h2M34 39h1" />
<path stroke="#05d5d0" d="M15 4h2M13 5h2M11 6h3M10 7h2M9 8h2M29 8h1M8 9h2M29 9h2M8 10h2M28 10h4M7 11h2M30 11h2M7 12h2M31 12h1M7 13h2M7 14h1M7 15h1M6 16h2M5 17h3M4 18h4M4 19h3M3 20h3M3 21h3M3 22h4M3 23h5M4 24h5M5 25h5M6 26h5M7 27h5M9 28h4M9 29h5M10 30h5M10 31h5M10 32h5M29 32h1M10 33h5M30 33h2M10 34h5M31 34h2M10 35h4M32 35h2M9 36h4M33 36h2M9 37h3M34 37h2M8 38h3M35 38h2M7 39h4M35 39h2" />
<path stroke="#ff51af" d="M20 4h1M18 5h1M16 6h2M15 7h3M22 7h1M26 7h1M14 8h5M26 8h1M15 9h5M25 9h1M12 10h1M21 10h3M21 11h4M22 12h4M24 13h2M10 15h1M10 16h1M26 16h2M27 17h1M27 18h1M27 19h2M27 20h2M27 21h2M26 22h3M25 23h2M28 23h1M25 24h1M28 24h1M12 25h1M24 25h1M27 25h2M13 26h1M28 26h1M25 28h1M16 29h1M25 29h1M17 30h1M24 30h2M17 31h1M23 31h4M23 32h3M22 33h4M19 34h1M22 34h6M16 35h4M22 35h7M15 36h5M22 36h8M15 37h5M22 37h7M30 37h1M14 38h6M22 38h6M29 38h2M13 39h7M22 39h5M28 39h5" />
<path stroke="#ff51b6" d="M19 5h4M18 6h5M18 7h4M19 8h3M20 9h3M16 10h2M21 12h1M22 13h2M23 14h1M25 14h2M25 15h2M28 31h1M28 32h1" />
<path stroke="#f34ead" d="M30 5h2M29 6h2M32 6h1M13 7h1M29 7h1M33 7h1M12 8h1M28 8h1M11 9h1M27 9h2M27 10h1M10 11h1M10 12h1M10 13h1M9 14h1M9 15h1M9 16h1M9 17h1M11 25h1M12 26h1M13 27h1M14 28h1M15 29h1M16 30h1M16 31h1M27 31h1M16 32h1M26 32h2M16 33h1M26 33h1M16 34h1M15 35h1M14 36h1M13 37h1M12 38h1M12 39h1" />
<path stroke="#fd6dc3" d="M23 9h1M24 10h1M25 11h1M27 12h1M28 13h1M28 14h1M28 15h1M29 17h1M29 18h1M29 19h1M28 30h1" />
<path stroke="#000000" d="M13 13h8M12 14h1M15 14h4M21 14h1M11 15h1M16 15h2M22 15h2M11 16h1M16 16h2M22 16h3M12 17h1M15 17h4M21 17h2M8 18h8M17 18h5M24 18h2M7 19h1M16 19h5M6 20h1M9 20h4M25 20h1M6 21h1M8 21h1M13 21h4M24 21h1M7 22h1M10 22h3M14 22h1M17 22h8M8 23h2M12 23h2M15 23h1M23 23h1M14 24h1M16 24h1M23 24h1M15 25h1M17 25h1M22 25h1M15 26h1M17 26h1M21 26h1M23 26h1M16 27h1M18 27h3M22 27h1M17 28h1M21 28h2M18 29h4M19 30h2M20 31h1" />
<path stroke="#eeff6f" d="M13 14h1M12 15h1M15 16h1M14 17h1" />
<path stroke="#f2fab5" d="M14 14h1M20 14h1M15 15h1M21 15h1M12 16h1M18 16h1M13 17h1M19 17h1" />
<path stroke="#efff6f" d="M19 14h1M18 15h1M21 16h1M20 17h1" />
<path stroke="#ffffff" d="M13 15h2M19 15h2M13 16h2M19 16h2" />
<path stroke="#ff8a00" d="M11 17h1M23 17h3M16 18h1M22 18h2M8 19h8M21 19h5M7 20h2M13 20h12M7 21h1M9 21h4M17 21h7M25 21h1M8 22h2M13 22h1M14 23h1M24 23h1M15 24h1M16 25h1M23 25h1M16 26h1M22 26h1M17 27h1M21 27h1M18 28h3" />
<path stroke="#ff0000" d="M15 22h2M16 23h3M22 23h1M17 24h1M21 24h2M20 25h2M18 26h3" />
<path stroke="#eb098c" d="M10 23h2M9 24h5M10 25h1M13 25h2M11 26h1M14 26h1M12 27h1M15 27h1M13 28h1M16 28h1M14 29h1M17 29h1M15 30h1M18 30h1M15 31h1M19 31h1M15 32h1M15 33h1M20 33h1M15 34h1M14 35h1M20 35h1M13 36h1M12 37h1M20 37h1M11 38h1M11 39h1M20 39h1" />
<path stroke="#fc809a" d="M19 23h3M18 24h3M18 25h2" />
<path stroke="#09ebe4" d="M30 26h1M30 27h1M30 28h1M29 29h3M29 30h4M29 31h6M30 32h6M32 33h4M33 34h4M34 35h4M35 36h4M36 37h4M37 38h3M37 39h3" />
<path stroke="#c0b6b6" d="M20 32h1M21 33h1M20 34h1M21 35h1M20 36h1M21 37h1M20 38h1M21 39h1" />
</svg>