<svg xmlns="http://www.w3.org/2000/svg" viewBox="0 -0.5 40 40" shape-rendering="crispEdges">
<metadata>Made with Pixels to Svg https://codepen.io/shshaw/pen/XbxvNj</metadata>
<path stroke="#14ff00" d="M0 0h14M27 0h13M0 1h11M30 1h10M0 2h9M32 2h8M0 3h8M33 3h7M0 4h6M34 4h6M0 5h6M35 5h5M0 6h4M36 6h4M0 7h4M37 7h3M0 8h3M38 8h2M0 9h3M38 9h2M0 10h2M39 10h1M0 11h2M39 11h1M0 12h1M0 13h1M0 14h1M0 15h1M0 16h1M0 17h1M0 18h1M0 19h1M0 20h1M0 21h1M0 22h1M0 23h1M0 24h1M0 25h1M0 26h1M0 27h1M39 27h1M0 28h1M39 28h1M0 29h1M38 29h2M0 30h2M38 30h2M0 31h1M37 31h3M37 32h3M3 33h1M36 33h4M2 34h2M35 34h5M0 35h5M34 35h6M0 36h6M35 36h5M0 37h6M36 37h4M0 38h7M35 38h5M0 39h7M34 39h6" />
<path stroke="#17ff00" d="M14 0h1M26 0h1M11 1h1M29 1h1M31 2h1M8 3h1M32 3h1M6 4h1M33 4h1M34 5h1M4 6h1M35 6h1M36 7h1M3 8h1M37 8h1M2 10h1M38 10h1M39 12h1M38 28h1M37 30h1M36 32h1M35 33h1" />
<path stroke="#23ff00" d="M15 0h1M25 0h1M12 1h1M28 1h1M30 2h1M7 4h1M5 6h1M37 9h1M38 11h1M39 13h1M38 27h1" />
<path stroke="#31ff00" d="M16 0h1M24 0h1M13 1h1M27 1h1M1 14h1M39 14h1M39 24h1" />
<path stroke="#38ff00" d="M17 0h1M23 0h1M29 2h1M8 4h1M37 10h1M38 12h1M39 15h1M1 16h1M1 17h1M1 18h1M1 19h1M1 20h1M1 21h1M1 22h1M1 23h1M39 23h1M37 28h1M36 30h1" />
<path stroke="#39ff00" d="M18 0h5M39 16h1M39 17h1M39 18h1M39 19h1M39 20h1M39 21h1M39 22h1" />
<path stroke="#3eff00" d="M14 1h1M26 1h1" />
<path stroke="#58fe00" d="M15 1h1M25 1h1M37 11h1M38 13h1" />
<path stroke="#78fc00" d="M16 1h1M13 2h1M27 2h1M38 14h1M38 24h1" />
<path stroke="#87fb00" d="M17 1h1M38 15h1M38 23h1" />
<path stroke="#8afa00" d="M18 1h5M38 16h1M38 17h1M38 18h1M38 19h1M38 20h1M38 21h1M38 22h1" />
<path stroke="#88fb00" d="M23 1h1" />
<path stroke="#79fc00" d="M24 1h1M5 8h1" />
<path stroke="#16ff00" d="M9 2h1M1 12h1M39 26h1M1 27h1M34 34h1" />
<path stroke="#22ff00" d="M10 2h1M6 5h1M4 7h1M3 9h1M2 11h1M1 13h1M39 25h1M1 26h1M37 29h1M36 31h1" />
<path stroke="#37ff00" d="M11 2h1M4 8h1M3 10h1M2 12h1M1 15h1M1 24h1M38 26h1" />
<path stroke="#57fe00" d="M12 2h1M28 2h1M4 9h1M3 11h1M2 13h1M38 25h1M37 27h1M36 29h1" />
<path stroke="#8bfa00" d="M14 2h1M26 2h1" />
<path stroke="#a4f900" d="M15 2h1M25 2h1M28 3h1M9 5h1" />
<path stroke="#c5f600" d="M16 2h1M24 2h1M13 3h1M27 3h1M11 4h1M34 30h1" />
<path stroke="#d5f400" d="M17 2h1M3 15h1" />
<path stroke="#d8f300" d="M18 2h5M3 16h1M37 16h1M3 17h1M37 17h1M3 18h1M37 18h1M3 19h1M37 19h1M3 20h1M37 20h1M3 21h1M37 21h1M3 22h1M37 22h1" />
<path stroke="#d6f400" d="M23 2h1M12 35h1" />
<path stroke="#2bff00" d="M9 3h1M35 32h1M34 33h1M33 34h1" />
<path stroke="#53fe00" d="M10 3h1M35 31h1" />
<path stroke="#7dfc00" d="M11 3h1M29 3h1M4 10h1M37 12h1M37 26h1M36 28h1M35 30h1" />
<path stroke="#a2f900" d="M12 3h1M37 13h1M37 25h1" />
<path stroke="#d7f400" d="M14 3h1M3 23h1" />
<path stroke="#e3f200" d="M15 3h1" />
<path stroke="#f1f000" d="M16 3h1M13 4h1M30 6h1M31 7h1M32 8h1M6 10h1M5 12h1M36 24h1M35 26h1M34 28h1" />
<path stroke="#f9ef00" d="M17 3h1M23 3h1M14 4h1M26 4h1M4 23h1M12 34h1" />
<path stroke="#faee00" d="M18 3h5M6 11h1M5 13h1M35 13h1M4 16h1M36 16h1M4 17h1M36 17h1M4 18h1M36 18h1M4 19h1M36 19h1M4 20h1M36 20h1M4 21h1M36 21h1M4 22h1M36 22h1M35 25h1M34 27h1M33 29h1" />
<path stroke="#f2f000" d="M24 3h1M27 4h1M36 14h1" />
<path stroke="#e4f200" d="M25 3h1" />
<path stroke="#d8f400" d="M26 3h1" />
<path stroke="#54fe00" d="M30 3h1" />
<path stroke="#2cff00" d="M31 3h1M32 4h1M33 5h1M34 6h1M35 7h1M36 8h1" />
<path stroke="#5efe00" d="M9 4h1" />
<path stroke="#95fa00" d="M10 4h1M34 31h1" />
<path stroke="#e1f200" d="M12 4h1M28 4h1M7 8h1M36 13h1M35 27h1" />
<path stroke="#fcee00" d="M15 4h1M25 4h1M10 32h1M11 33h1M13 34h1" />
<path stroke="#feee00" d="M16 4h1M24 4h1M13 5h1M27 5h1M10 7h1M9 8h1M8 9h1M7 10h1M6 12h1M5 14h1M35 14h1M35 24h1M5 25h1M34 26h1M33 28h1M14 34h1" />
<path stroke="#ffed00" d="M17 4h7M14 5h13M12 6h17M11 7h2M23 7h7M10 8h2M24 8h7M9 9h2M28 9h4M8 10h2M7 11h3M7 12h3M6 13h3M6 14h3M33 14h2M5 15h4M35 15h1M5 16h4M5 17h4M5 18h3M29 18h4M35 18h1M5 19h2M30 19h6M5 20h1M30 20h6M5 21h1M30 21h6M5 22h2M29 22h7M5 23h3M10 23h2M27 23h9M6 24h3M10 24h3M26 24h9M6 25h2M25 25h10M12 26h1M25 26h9M10 27h3M23 27h2M27 27h7M11 28h4M23 28h2M27 28h6M12 29h3M23 29h1M28 29h1M31 29h2M12 30h6M24 30h1M11 31h6M12 32h4M13 33h3" />
<path stroke="#c6f600" d="M29 4h1" />
<path stroke="#97fa00" d="M30 4h1" />
<path stroke="#5bfe00" d="M31 4h1M32 5h1M33 6h1" />
<path stroke="#4bfe00" d="M7 5h1M5 7h1" />
<path stroke="#7afc00" d="M8 5h1" />
<path stroke="#d0f400" d="M10 5h1M30 5h1M31 6h1M33 8h1" />
<path stroke="#eff000" d="M11 5h1M33 30h1M10 33h1" />
<path stroke="#fbee00" d="M12 5h1M28 5h1" />
<path stroke="#f0f000" d="M29 5h1M4 14h1M4 25h1" />
<path stroke="#98fa00" d="M31 5h1M32 6h1M33 7h1" />
<path stroke="#42ff00" d="M6 6h1" />
<path stroke="#7cfc00" d="M7 6h1M3 12h1" />
<path stroke="#baf700" d="M8 6h1M6 8h1" />
<path stroke="#def300" d="M9 6h1" />
<path stroke="#f3f000" d="M10 6h1M25 31h1" />
<path stroke="#fdee00" d="M11 6h1M29 6h1M30 7h1M31 8h1M32 9h1M32 30h1" />
<path stroke="#7cfb00" d="M6 7h1" />
<path stroke="#aef700" d="M7 7h1" />
<path stroke="#e0f200" d="M8 7h1M36 25h1M34 29h1" />
<path stroke="#f8ef00" d="M9 7h1M7 9h1M4 15h1M4 24h1" />
<path stroke="#000000" d="M13 7h10M12 8h1M23 8h1M34 8h2M11 9h1M24 9h1M33 9h1M36 9h1M10 10h1M25 10h1M29 10h4M36 10h1M10 11h5M17 11h7M26 11h1M28 11h1M35 11h1M10 12h1M15 12h2M24 12h4M35 12h1M9 13h1M27 13h1M30 13h5M9 14h1M28 14h1M32 14h1M9 15h1M15 15h1M21 15h1M28 15h2M33 15h2M9 16h1M14 16h2M20 16h2M28 16h1M30 16h1M35 16h1M9 17h1M27 17h2M31 17h2M35 17h1M8 18h3M15 18h1M24 18h2M28 18h1M33 18h2M7 19h1M16 19h3M26 19h1M29 19h1M6 20h1M9 20h4M25 20h1M27 20h1M29 20h1M6 21h1M8 21h1M13 21h4M24 21h1M29 21h1M7 22h1M10 22h3M14 22h11M27 22h2M8 23h2M12 23h2M15 23h4M22 23h2M26 23h1M14 24h1M16 24h2M21 24h3M25 24h1M15 25h1M17 25h1M20 25h3M24 25h1M4 26h3M15 26h1M17 26h5M23 26h1M2 27h2M7 27h1M16 27h1M18 27h3M22 27h1M1 28h1M4 28h1M8 28h3M17 28h1M21 28h2M1 29h1M5 29h1M8 29h1M11 29h1M18 29h3M22 29h1M29 29h2M2 30h1M5 30h3M11 30h1M18 30h1M22 30h2M28 30h1M31 30h1M3 31h2M10 31h1M17 31h2M23 31h2M26 31h2M31 31h2M3 32h1M8 32h2M16 32h1M25 32h2M30 32h1M33 32h1M4 33h1M7 33h1M9 33h1M16 33h1M24 33h1M26 33h1M29 33h1M33 33h1M4 34h1M6 34h1M9 34h1M15 34h1M24 34h1M27 34h2M32 34h1M5 35h1M10 35h1M14 35h2M25 35h1M28 35h1M31 35h2M6 36h1M11 36h1M13 36h1M25 36h1M29 36h3M6 37h1M12 37h1M26 37h3M7 38h1M12 38h1M28 38h1M7 39h1M12 39h1M15 39h1M28 39h2" />
<path stroke="#cff400" d="M32 7h1" />
<path stroke="#5afe00" d="M34 7h1M34 32h1" />
<path stroke="#f5ef00" d="M8 8h1" />
<path stroke="#53b300" d="M13 8h10M12 9h3M23 9h1M11 10h4M23 10h2M24 11h2" />
<path stroke="#a1f900" d="M5 9h1M4 11h1M3 13h1M3 26h1" />
<path stroke="#def200" d="M6 9h1" />
<path stroke="#54b300" d="M15 9h8M15 10h8M15 11h2M4 27h3M2 28h2M5 28h3M3 29h2M6 29h2M9 29h2M21 29h1M4 30h1M8 30h3M19 30h3M29 30h2M6 31h4M19 31h4M28 31h3M5 32h3M17 32h8M27 32h3M31 32h2M5 33h2M17 33h7M25 33h1M27 33h2M30 33h3M5 34h1M16 34h1M19 34h5M25 34h1M29 34h3M21 35h2M26 35h1M29 35h2M9 36h2M14 36h2M26 36h3M8 37h4M13 37h2M29 37h3M8 38h4M13 38h2M29 38h4M8 39h4M13 39h2M30 39h3" />
<path stroke="#ffee00" d="M25 9h3M26 10h3M27 11h1M29 16h1M29 17h2M5 24h1M13 24h1M13 26h2M13 27h3M15 28h2M15 29h3M11 32h1M12 33h1" />
<path stroke="#f3a107" d="M34 9h2M33 10h3M29 11h6M11 12h4M17 12h7M28 12h7M10 13h2M15 13h3M21 13h6M28 13h2M10 14h2M16 14h2M22 14h6M29 14h3M10 15h2M16 15h2M22 15h6M30 15h3M10 16h2M16 16h2M22 16h6M31 16h4M10 17h2M16 17h2M22 17h2M33 17h2M11 18h4M18 18h5" />
<path stroke="#c6f500" d="M5 10h1M4 12h1" />
<path stroke="#dff200" d="M5 11h1M4 13h1" />
<path stroke="#a3f800" d="M36 11h1" />
<path stroke="#c7f500" d="M36 12h1M36 26h1M35 28h1" />
<path stroke="#ffffff" d="M12 13h3M18 13h3M12 14h4M18 14h4M12 15h3M18 15h3M12 16h2M18 16h2M12 17h4M18 17h4" />
<path stroke="#77fc00" d="M2 14h1M2 25h1" />
<path stroke="#c4f500" d="M3 14h1" />
<path stroke="#c5f500" d="M37 14h1M37 24h1" />
<path stroke="#86fb00" d="M2 15h1M2 24h1" />
<path stroke="#f9ee00" d="M36 15h1M36 23h1" />
<path stroke="#d6f300" d="M37 15h1M37 23h1" />
<path stroke="#89fa00" d="M2 16h1M2 17h1M2 18h1M2 19h1M2 20h1M2 21h1M2 22h1" />
<path stroke="#ff8900" d="M24 17h3M16 18h2M23 18h1M26 18h2M8 19h8M19 19h7M27 19h2M7 20h2M13 20h12M26 20h1M28 20h1M7 21h1M9 21h4M17 21h7M25 21h4M8 22h2M13 22h1M25 22h2M14 23h1M24 23h2M15 24h1M24 24h1M16 25h1M23 25h1M16 26h1M22 26h1M17 27h1M21 27h1M18 28h3" />
<path stroke="#89fb00" d="M2 23h1" />
<path stroke="#f30000" d="M19 23h3M18 24h3M18 25h2" />
<path stroke="#d4f400" d="M3 24h1" />
<path stroke="#f6cc10" d="M9 24h1M10 25h1M11 26h1M0 33h1M0 34h2" />
<path stroke="#30ff00" d="M1 25h1" />
<path stroke="#c3f500" d="M3 25h1" />
<path stroke="#a36c08" d="M8 25h1M7 26h1M1 31h1M0 32h1" />
<path stroke="#7e5407" d="M9 25h1M8 26h2M8 27h1M1 32h1M1 33h1" />
<path stroke="#a8a6a1" d="M11 25h4M24 26h1M25 27h1" />
<path stroke="#56fe00" d="M2 26h1" />
<path stroke="#674506" d="M10 26h1M9 27h1M2 31h1M2 32h1M2 33h1" />
<path stroke="#f6ca10" d="M26 27h1M25 28h1M24 29h1M35 37h1M34 38h1M33 39h1" />
<path stroke="#a2f800" d="M36 27h1M35 29h1" />
<path stroke="#a36a08" d="M26 28h1" />
<path stroke="#4fa006" d="M2 29h1M3 30h1M5 31h1M4 32h1M26 34h1M27 35h1" />
<path stroke="#7e5107" d="M25 29h1M33 36h1M34 37h1" />
<path stroke="#7e5207" d="M26 29h1M33 37h1M33 38h1" />
<path stroke="#a36b08" d="M27 29h1" />
<path stroke="#674306" d="M25 30h1" />
<path stroke="#674206" d="M26 30h1" />
<path stroke="#7e5307" d="M27 30h1" />
<path stroke="#cef400" d="M33 31h1" />
<path stroke="#f3a007" d="M8 33h1M7 34h1M6 35h1M9 35h1M8 36h1M7 37h1" />
<path stroke="#f39f07" d="M8 34h1M7 35h1" />
<path stroke="#cdf500" d="M10 34h1" />
<path stroke="#eef100" d="M11 34h1" />
<path stroke="#c48a02" d="M17 34h2M16 35h1M19 35h2M23 35h1M16 36h1M20 36h3M21 37h1M21 38h1M27 38h1M20 39h3M27 39h1" />
<path stroke="#d58900" d="M8 35h1M7 36h1" />
<path stroke="#c2f600" d="M11 35h1" />
<path stroke="#e2f200" d="M13 35h1" />
<path stroke="#ffb400" d="M17 35h2M24 35h1M17 36h3M23 36h2M16 37h5M22 37h4M16 38h5M22 38h5M17 39h3M23 39h4" />
<path stroke="#a36908" d="M33 35h1M34 36h1" />
<path stroke="#8afb00" d="M12 36h1" />
<path stroke="#674406" d="M32 36h1M32 37h1" />
<path stroke="#c48902" d="M15 37h1M15 38h1M16 39h1" />
</svg>