<svg xmlns="http://www.w3.org/2000/svg" viewBox="0 -0.5 40 40" shape-rendering="crispEdges">
<metadata>Made with Pixels to Svg https://codepen.io/shshaw/pen/XbxvNj</metadata>
<path stroke="#00fc94" d="M0 0h1M4 0h1M8 0h1M0 1h1M4 1h1M0 2h1M0 3h1M0 4h1M0 5h1" />
<path stroke="#00fc95" d="M1 0h3M5 0h3M9 0h1M18 0h13M1 1h3M5 1h3M23 1h2M1 2h2" />
<path stroke="#20fc94" d="M10 0h1M17 0h1M1 3h1" />
<path stroke="#53f98c" d="M11 0h1M4 2h1" />
<path stroke="#5af88b" d="M12 0h4M5 2h1M1 5h1" />
<path stroke="#54f98c" d="M16 0h1M6 2h1M2 3h1M1 4h1" />
<path stroke="#1cfb98" d="M31 0h1M25 1h1" />
<path stroke="#6ae1b4" d="M32 0h1" />
<path stroke="#d46ef3" d="M33 0h1" />
<path stroke="#e964e0" d="M34 0h1" />
<path stroke="#fc9e55" d="M35 0h1M33 8h1" />
<path stroke="#ffa605" d="M36 0h4M36 1h4M35 2h5M35 3h5M34 4h6M34 5h6M34 6h6M34 7h6M34 8h6M34 9h6M31 10h9M31 11h9M31 12h9M31 13h9M31 14h9M30 15h10M30 16h4M30 17h3M30 18h2M31 19h1M31 20h1" />
<path stroke="#20fc93" d="M8 1h1" />
<path stroke="#53f98b" d="M9 1h1" />
<path stroke="#77f582" d="M10 1h1" />
<path stroke="#dde346" d="M11 1h1M9 2h1M4 3h1" />
<path stroke="#ecdd35" d="M12 1h1M15 1h1" />
<path stroke="#ecd239" d="M13 1h2" />
<path stroke="#dfe346" d="M16 1h1" />
<path stroke="#73f684" d="M17 1h1" />
<path stroke="#000000" d="M18 1h5M16 2h9M13 3h14M12 4h16M11 5h18M11 6h18M10 7h20M10 8h20M9 9h21M9 10h21M9 11h21M9 12h21M9 13h2M26 13h4M9 14h2M12 14h5M18 14h5M26 14h1M28 14h2M9 15h2M13 15h2M16 15h1M18 15h2M21 15h1M25 15h2M28 15h2M9 16h1M11 16h1M13 16h4M18 16h4M23 16h4M28 16h2M9 17h1M12 17h1M15 17h3M21 17h2M27 17h3M8 18h8M17 18h1M20 18h2M24 18h2M28 18h1M7 19h1M15 19h5M26 19h1M29 19h1M6 20h1M9 20h4M14 20h8M25 20h1M27 20h1M29 20h1M6 21h1M8 21h1M13 21h10M24 21h1M29 21h1M7 22h1M10 22h14M27 22h2M8 23h2M12 23h2M15 23h1M23 23h1M26 23h1M12 24h3M16 24h1M23 24h3M12 25h1M15 25h1M17 25h1M22 25h1M24 25h1M15 26h1M17 26h1M21 26h1M23 26h2M16 27h1M18 27h3M22 27h1M15 28h1M18 28h7M14 29h1M17 29h4M25 29h1M13 30h1M16 30h1M19 30h1M26 30h2M13 31h1M15 31h1M20 31h1M25 31h1M28 31h1M12 32h1M15 32h1M20 32h1M25 32h1M28 32h1M12 33h1M15 33h1M20 33h1M24 33h1M28 33h2M13 34h2M16 34h1M19 34h1M21 34h3M30 34h2M13 35h1M16 35h1M19 35h1M31 35h2M12 36h1M15 36h1M20 36h1M33 36h1M11 37h1M15 37h1M21 37h1M34 37h1M10 38h1M14 38h1M21 38h1M10 39h1M14 39h1M21 39h1M35 39h1" />
<path stroke="#4aefa5" d="M26 1h1" />
<path stroke="#50eda7" d="M27 1h1M31 1h1" />
<path stroke="#50eda8" d="M28 1h2" />
<path stroke="#4befa6" d="M30 1h1" />
<path stroke="#c687ed" d="M32 1h1" />
<path stroke="#e25cef" d="M33 1h1" />
<path stroke="#f99679" d="M34 1h1M33 3h1" />
<path stroke="#ffa521" d="M35 1h1M34 3h1" />
<path stroke="#1efc94" d="M3 2h1" />
<path stroke="#2dfb92" d="M7 2h1" />
<path stroke="#71f684" d="M8 2h1" />
<path stroke="#eedd32" d="M10 2h1" />
<path stroke="#fbcf1c" d="M11 2h1" />
<path stroke="#fec120" d="M12 2h1" />
<path stroke="#ff673c" d="M13 2h1" />
<path stroke="#fd6c3e" d="M14 2h1" />
<path stroke="#efd136" d="M15 2h1" />
<path stroke="#45f2a2" d="M25 2h1" />
<path stroke="#b79fdf" d="M26 2h1" />
<path stroke="#d47fe4" d="M27 2h1" />
<path stroke="#d67be6" d="M28 2h1" />
<path stroke="#d372f2" d="M29 2h1" />
<path stroke="#c48aeb" d="M30 2h1" />
<path stroke="#6edeb5" d="M31 2h1" />
<path stroke="#d271f2" d="M32 2h1" />
<path stroke="#e864e2" d="M33 2h1" />
<path stroke="#fc9e56" d="M34 2h1" />
<path stroke="#77f583" d="M3 3h1" />
<path stroke="#ecdf35" d="M5 3h1M0 7h1" />
<path stroke="#e0e346" d="M6 3h1" />
<path stroke="#8ef27b" d="M7 3h1" />
<path stroke="#dfe243" d="M8 3h1" />
<path stroke="#fad914" d="M9 3h1" />
<path stroke="#fec21d" d="M10 3h1M9 4h1M3 5h1" />
<path stroke="#ff6739" d="M11 3h1" />
<path stroke="#ff4840" d="M12 3h1" />
<path stroke="#edaa67" d="M27 3h1" />
<path stroke="#fa9677" d="M28 3h1M30 5h1" />
<path stroke="#ea63e0" d="M29 3h1" />
<path stroke="#d56df3" d="M30 3h1" />
<path stroke="#86cdc4" d="M31 3h1" />
<path stroke="#d876e7" d="M32 3h1" />
<path stroke="#dde348" d="M2 4h1" />
<path stroke="#efdd32" d="M3 4h1" />
<path stroke="#fbce1c" d="M4 4h1M6 4h1" />
<path stroke="#fdcb17" d="M5 4h1" />
<path stroke="#f2dc2e" d="M7 4h1" />
<path stroke="#fbd914" d="M8 4h1" />
<path stroke="#ff6339" d="M10 4h1" />
<path stroke="#ff1c40" d="M11 4h1M10 5h1M4 6h1M6 7h1M3 10h1" />
<path stroke="#ffa520" d="M28 4h1M33 9h1" />
<path stroke="#fa9871" d="M29 4h1" />
<path stroke="#e868de" d="M30 4h1" />
<path stroke="#d768f5" d="M31 4h1" />
<path stroke="#e35eed" d="M32 4h1" />
<path stroke="#fc9d5b" d="M33 4h1" />
<path stroke="#ecdd36" d="M2 5h1" />
<path stroke="#ff6738" d="M4 5h1M9 5h1M3 6h1" />
<path stroke="#ff4e3c" d="M5 5h1M3 7h1M3 8h1M6 23h1" />
<path stroke="#ff6a38" d="M6 5h1" />
<path stroke="#fdce15" d="M7 5h2" />
<path stroke="#ffa51f" d="M29 5h1" />
<path stroke="#e557ef" d="M31 5h1" />
<path stroke="#e559ee" d="M32 5h1M32 6h1" />
<path stroke="#fc9d5c" d="M33 5h1M33 6h1M33 7h1" />
<path stroke="#5af88a" d="M0 6h1" />
<path stroke="#7cf581" d="M1 6h1" />
<path stroke="#eed236" d="M2 6h1" />
<path stroke="#ff0541" d="M5 6h1M4 7h2M4 8h5M4 9h5M4 10h5M0 11h9M0 12h9M0 13h9M0 14h8M0 15h8M0 16h8M0 17h8M0 18h6M2 19h3M3 20h2M4 21h1M5 22h1" />
<path stroke="#ff473d" d="M6 6h1" />
<path stroke="#febd1f" d="M7 6h2M2 9h1" />
<path stroke="#fd4f3f" d="M9 6h1" />
<path stroke="#f24e4d" d="M10 6h1" />
<path stroke="#fda813" d="M29 6h1M30 14h1" />
<path stroke="#fc9d5a" d="M30 6h1M30 7h1" />
<path stroke="#e659ec" d="M31 6h1M31 7h1" />
<path stroke="#efdf31" d="M1 7h1" />
<path stroke="#fbcd1e" d="M2 7h1" />
<path stroke="#ff493c" d="M7 7h2" />
<path stroke="#f2584e" d="M9 7h1" />
<path stroke="#e659ee" d="M32 7h1" />
<path stroke="#fdcd15" d="M0 8h1" />
<path stroke="#fdd808" d="M1 8h1" />
<path stroke="#fdcc17" d="M2 8h1" />
<path stroke="#f2524e" d="M9 8h1" />
<path stroke="#fc9f54" d="M30 8h1" />
<path stroke="#eb67da" d="M31 8h1" />
<path stroke="#e966dd" d="M32 8h1" />
<path stroke="#ff6638" d="M0 9h1" />
<path stroke="#febd1e" d="M1 9h1" />
<path stroke="#ff493d" d="M3 9h1" />
<path stroke="#fca725" d="M30 9h1" />
<path stroke="#fd9e52" d="M31 9h1" />
<path stroke="#fd9e54" d="M32 9h1" />
<path stroke="#ff1b40" d="M0 10h1" />
<path stroke="#ff463c" d="M1 10h1" />
<path stroke="#ff483c" d="M2 10h1" />
<path stroke="#efb232" d="M30 10h1" />
<path stroke="#ecb435" d="M30 11h1M30 12h1" />
<path stroke="#ffffff" d="M11 13h15M11 14h1M17 14h1M23 14h3M27 14h1M11 15h2M15 15h1M17 15h1M20 15h1M22 15h3M27 15h1M12 16h1M17 16h1M22 16h1M27 16h1M13 17h2M18 17h3M18 18h2" />
<path stroke="#f0b231" d="M30 13h1" />
<path stroke="#fd2043" d="M8 14h1M6 18h1M5 19h1" />
<path stroke="#f2544f" d="M8 15h1" />
<path stroke="#ee5a51" d="M8 16h1M8 17h1" />
<path stroke="#ff8a00" d="M10 16h1M10 17h2M23 17h4M16 18h1M22 18h2M26 18h2M8 19h7M21 19h1M23 19h3M27 19h2M7 20h2M13 20h1M24 20h1M26 20h1M28 20h1M7 21h1M9 21h4M25 21h4M8 22h2M26 22h1M14 23h1M25 23h1M15 24h1M16 25h1M23 25h1M16 26h1M22 26h1M17 27h1M21 27h1" />
<path stroke="#fda620" d="M34 16h1M32 18h1" />
<path stroke="#f1a754" d="M35 16h1M32 19h1" />
<path stroke="#efa75b" d="M36 16h2" />
<path stroke="#f1a755" d="M38 16h1" />
<path stroke="#fda621" d="M39 16h1M31 21h1" />
<path stroke="#fea620" d="M33 17h1" />
<path stroke="#e6a772" d="M34 17h1" />
<path stroke="#82aade" d="M35 17h1" />
<path stroke="#69aaed" d="M36 17h2" />
<path stroke="#82aae0" d="M38 17h1" />
<path stroke="#e2a878" d="M39 17h1" />
<path stroke="#ef544f" d="M7 18h1" />
<path stroke="#ecb635" d="M29 18h1" />
<path stroke="#e5a872" d="M33 18h1" />
<path stroke="#82a9e0" d="M34 18h1" />
<path stroke="#62a3fc" d="M35 18h1M30 23h1" />
<path stroke="#61a1fe" d="M36 18h2" />
<path stroke="#62a2fc" d="M38 18h1" />
<path stroke="#67a9f1" d="M39 18h1" />
<path stroke="#f1396a" d="M0 19h1" />
<path stroke="#fd1648" d="M1 19h1M2 20h1M4 22h1M5 23h1" />
<path stroke="#e27259" d="M6 19h1" />
<path stroke="#ff8900" d="M20 19h1M22 19h1M22 20h2M23 21h1M24 22h2M24 23h1" />
<path stroke="#fda814" d="M30 19h1" />
<path stroke="#82abde" d="M33 19h1" />
<path stroke="#62a3fb" d="M34 19h1" />
<path stroke="#c968ff" d="M35 19h1M27 23h1M29 23h1" />
<path stroke="#d65aff" d="M36 19h2M34 22h1M28 23h1M34 23h1M34 24h1M34 25h1M26 26h1M26 27h1M26 28h1M26 29h1" />
<path stroke="#cb65ff" d="M38 19h1" />
<path stroke="#7899ff" d="M39 19h1M30 24h1" />
<path stroke="#8197e3" d="M0 20h1" />
<path stroke="#e24e83" d="M1 20h1" />
<path stroke="#f44c4c" d="M5 20h1" />
<path stroke="#efb139" d="M30 20h1" />
<path stroke="#efa75a" d="M32 20h1M32 21h1" />
<path stroke="#6da9eb" d="M33 20h1" />
<path stroke="#769bfe" d="M34 20h1" />
<path stroke="#d858ff" d="M35 20h1M39 20h1M27 24h1M34 26h1M32 27h2" />
<path stroke="#e447ff" d="M36 20h2M36 21h4M35 22h5M35 23h5M28 24h1M35 24h5M28 25h1M35 25h5M27 26h3M35 26h5M27 27h4M35 27h5M27 28h13M27 29h13M28 30h12M29 31h11M29 32h11M30 33h10M32 34h8M33 35h7M34 36h6M36 37h4M36 38h4M36 39h4" />
<path stroke="#e349ff" d="M38 20h1M29 25h1M30 26h1M31 27h1" />
<path stroke="#3faafc" d="M0 21h1M1 22h1M2 23h1" />
<path stroke="#7c99e5" d="M1 21h1" />
<path stroke="#e44e82" d="M2 21h1M3 22h1" />
<path stroke="#fd1649" d="M3 21h1" />
<path stroke="#fe1f43" d="M5 21h1" />
<path stroke="#e0a977" d="M30 21h1" />
<path stroke="#81a2eb" d="M33 21h1" />
<path stroke="#cb66ff" d="M34 21h1M26 25h1" />
<path stroke="#e34aff" d="M35 21h1M27 25h1M34 27h1" />
<path stroke="#37abfd" d="M0 22h1M0 23h2M0 24h1M24 27h1M0 31h1M0 32h1M0 33h2M0 34h2M0 35h4M0 36h5M0 37h6M0 38h7M0 39h8" />
<path stroke="#7d99e4" d="M2 22h1" />
<path stroke="#ff4d3c" d="M6 22h1" />
<path stroke="#61a3fc" d="M29 22h1" />
<path stroke="#81a9e3" d="M30 22h1" />
<path stroke="#e4a774" d="M31 22h1" />
<path stroke="#eda760" d="M32 22h1" />
<path stroke="#84a1eb" d="M33 22h1" />
<path stroke="#7d99e5" d="M3 23h1" />
<path stroke="#e34e83" d="M4 23h1" />
<path stroke="#fdcd17" d="M7 23h1M7 24h1" />
<path stroke="#fcdb00" d="M10 23h2M8 24h4M8 25h4M13 25h2M3 26h2M8 26h7M3 27h13M3 28h12M3 29h11M3 30h10M4 31h9M5 32h7M6 33h6M7 34h6M8 35h5M9 36h3M10 37h1" />
<path stroke="#ff0000" d="M16 23h3M22 23h1M17 24h1M21 24h2M20 25h2M18 26h3M16 28h2M15 29h2M21 29h4M14 30h2M20 30h6M14 31h1M21 31h4M27 31h1M13 32h2M21 32h4M27 32h1M13 33h2M21 33h3M27 33h1M20 34h1M24 34h1M27 34h1M20 35h2M24 35h1M27 35h1M30 35h1M13 36h1M21 36h1M24 36h1M27 36h1M30 36h1M13 37h1M17 37h2M24 37h1M27 37h1M30 37h1M33 37h1M13 38h1M15 38h2M18 38h1M20 38h1M24 38h1M27 38h1M30 38h1M33 38h1M13 39h1M16 39h5M24 39h1M27 39h1M30 39h1M33 39h1" />
<path stroke="#fc809a" d="M19 23h3M18 24h3M18 25h2" />
<path stroke="#7dabe3" d="M31 23h1" />
<path stroke="#d2a893" d="M32 23h1" />
<path stroke="#80a1ee" d="M33 23h1" />
<path stroke="#3facfb" d="M1 24h1M0 25h1" />
<path stroke="#63b1ed" d="M2 24h1" />
<path stroke="#6db1e9" d="M3 24h1" />
<path stroke="#9aa0cf" d="M4 24h1" />
<path stroke="#f35c61" d="M5 24h1" />
<path stroke="#ff533c" d="M6 24h1" />
<path stroke="#769bff" d="M26 24h1" />
<path stroke="#d857ff" d="M29 24h1" />
<path stroke="#46aafc" d="M31 24h1" />
<path stroke="#5eabf3" d="M32 24h1" />
<path stroke="#65a2fc" d="M33 24h1" />
<path stroke="#7db6e0" d="M1 25h1" />
<path stroke="#e2d277" d="M2 25h1" />
<path stroke="#edd65a" d="M3 25h1" />
<path stroke="#f1d554" d="M4 25h1" />
<path stroke="#fcc32b" d="M5 25h1" />
<path stroke="#ff8133" d="M6 25h1" />
<path stroke="#fdcf15" d="M7 25h1" />
<path stroke="#5ca3fe" d="M25 25h1" />
<path stroke="#cd63ff" d="M30 25h1" />
<path stroke="#759aff" d="M31 25h1" />
<path stroke="#3eaafe" d="M32 25h1" />
<path stroke="#60a2fe" d="M33 25h1M25 26h1M25 27h1M25 28h1" />
<path stroke="#63b1ef" d="M0 26h1" />
<path stroke="#dfd277" d="M1 26h1" />
<path stroke="#fadb20" d="M2 26h1M5 33h1M9 37h1" />
<path stroke="#fdda07" d="M5 26h1M7 26h1" />
<path stroke="#fdd111" d="M6 26h1" />
<path stroke="#cd64ff" d="M31 26h1" />
<path stroke="#779aff" d="M32 26h1" />
<path stroke="#7a98ff" d="M33 26h1" />
<path stroke="#68b2ed" d="M0 27h1M0 28h1" />
<path stroke="#ecd65b" d="M1 27h1" />
<path stroke="#fcdb01" d="M2 27h1M2 28h1M4 32h1" />
<path stroke="#36adfc" d="M23 27h1" />
<path stroke="#ecd65c" d="M1 28h1" />
<path stroke="#62b1ef" d="M0 29h1M2 33h1" />
<path stroke="#dcd17a" d="M1 29h1" />
<path stroke="#fadb21" d="M2 29h1M3 31h1M6 34h1M7 35h1M8 36h1" />
<path stroke="#3facfc" d="M0 30h1M1 32h1M2 34h1M4 35h1M5 36h1M6 37h1M7 38h1M8 39h1" />
<path stroke="#80b7e1" d="M1 30h1M4 34h1M9 39h1" />
<path stroke="#efd755" d="M2 30h1" />
<path stroke="#e900ff" d="M17 30h1M17 32h1M17 35h1M16 36h1M18 36h2" />
<path stroke="#e400ff" d="M18 30h1M16 31h4M16 32h1M18 32h2M16 33h1M18 33h2M17 36h1M16 37h1M19 37h2M17 38h1M19 38h1" />
<path stroke="#62b1f0" d="M1 31h1" />
<path stroke="#dfd278" d="M2 31h1" />
<path stroke="#820b9d" d="M26 31h1M26 32h1M25 33h2M25 34h2M28 34h2M14 35h1M22 35h2M25 35h2M28 35h2M14 36h1M22 36h2M25 36h2M28 36h2M31 36h2M12 37h1M14 37h1M22 37h2M25 37h2M28 37h2M31 37h2M11 38h2M22 38h2M25 38h2M28 38h2M31 38h2M11 39h2M22 39h2M25 39h2M28 39h2M31 39h2" />
<path stroke="#81b7e0" d="M2 32h1" />
<path stroke="#eed655" d="M3 32h1" />
<path stroke="#dad07e" d="M3 33h1" />
<path stroke="#eed756" d="M4 33h1" />
<path stroke="#df00ff" d="M17 33h1M17 34h2M18 35h1M15 39h1" />
<path stroke="#62b1f1" d="M3 34h1" />
<path stroke="#e0d275" d="M5 34h1M6 35h1M9 38h1" />
<path stroke="#800b9d" d="M15 34h1M15 35h1M34 38h1M34 39h1" />
<path stroke="#7ab6e3" d="M5 35h1M8 38h1" />
<path stroke="#7bb6e3" d="M6 36h1" />
<path stroke="#e2d374" d="M7 36h1M8 37h1" />
<path stroke="#7db6e2" d="M7 37h1" />
<path stroke="#e34dfe" d="M35 37h1" />
<path stroke="#d967f7" d="M35 38h1" />
</svg>