<svg xmlns="http://www.w3.org/2000/svg" viewBox="0 -0.5 40 40" shape-rendering="crispEdges">
<metadata>Made with Pixels to Svg https://codepen.io/shshaw/pen/XbxvNj</metadata>
<path stroke="#ff4eb5" d="M0 0h2M18 0h2M0 1h2M18 1h2M0 2h2M31 2h1M0 3h1M30 3h2M0 4h1M29 4h4M0 5h1M28 5h2M0 6h1M0 7h1M0 8h1M0 9h1M0 10h1M0 11h2M0 12h2M6 23h1M6 24h1M0 28h1M16 31h1M28 33h4M30 34h4M32 35h3M0 36h3M33 36h3M0 37h3M33 37h4M0 38h3M34 38h4M0 39h3M34 39h6" />
<path stroke="#ff4fb5" d="M2 0h1M17 0h1M31 1h1M18 2h1M20 2h1M30 2h1M1 3h1M32 3h1M27 5h1M30 5h1M1 10h1M1 13h1M6 22h1M5 25h1M2 27h1M30 32h1M32 33h1M3 35h1M3 36h1M38 38h1" />
<path stroke="#f65bb4" d="M3 0h1M2 3h1M4 17h1M34 33h1" />
<path stroke="#ca82b1" d="M4 0h1M3 3h1M34 5h1" />
<path stroke="#6facac" d="M5 0h1M4 3h1M35 3h1M4 10h1M35 24h1" />
<path stroke="#1fbaa9" d="M6 0h1M5 3h1M36 3h1M36 5h1M5 10h1M33 16h1" />
<path stroke="#04bba9" d="M7 0h6M25 0h1M36 0h4M7 1h6M37 1h3M7 2h6M37 2h3M6 3h5M37 3h3M6 4h5M37 4h3M6 5h5M37 5h3M5 6h5M37 6h3M5 7h3M37 7h3M6 8h1M36 8h4M34 9h6M34 10h3M34 11h2M34 12h1M0 19h1M0 20h2M0 21h2M0 22h2M35 28h1M35 29h2M37 30h3M38 31h2M39 32h1M12 35h1M10 36h3M9 37h2M9 38h2M9 39h2" />
<path stroke="#1dbaa9" d="M13 0h1M11 5h1M39 29h1M7 37h1M11 39h1" />
<path stroke="#6cacab" d="M14 0h1" />
<path stroke="#c982b1" d="M15 0h1M33 6h1M1 30h1" />
<path stroke="#f55bb4" d="M16 0h1M17 2h1M28 3h1M2 15h1M5 17h1M5 35h1" />
<path stroke="#fd51b5" d="M20 0h1M30 0h1M17 1h1M30 1h1M32 2h1M1 5h1M1 6h1M1 7h1M1 8h1M2 12h1M3 15h1M5 23h1M5 24h1M3 26h1M5 26h1M3 27h1M31 32h1M33 33h1M0 35h1M3 38h1M3 39h1" />
<path stroke="#df72b2" d="M21 0h1M2 5h1M28 7h1M2 8h1M3 12h1" />
<path stroke="#81a7ac" d="M22 0h1" />
<path stroke="#27b9a9" d="M23 0h1M27 0h1M5 2h1M4 5h1M4 8h1M32 13h1M33 17h1" />
<path stroke="#06bba9" d="M24 0h1M26 0h1M36 1h1M6 2h1M13 2h1M11 3h1M5 5h1M8 7h1M36 7h1M5 8h1M7 8h1M35 8h1M6 9h1M33 9h1M37 10h1M36 11h1M35 12h1M33 13h2M33 14h1M0 18h1M1 19h1M0 23h1M35 27h1M36 28h1M37 29h1M36 30h1M37 31h1M38 32h1M39 33h1M11 35h1M9 36h1M11 37h1" />
<path stroke="#80a7ac" d="M28 0h1M3 19h1" />
<path stroke="#de72b2" d="M29 0h1M2 6h1M2 7h1M4 19h1M4 23h1M0 34h1" />
<path stroke="#fe50b5" d="M31 0h1M2 1h1M20 1h1M1 4h1M31 5h1M1 9h1M0 13h1M2 13h1M2 14h1M1 27h1M29 32h1M2 35h1M3 37h1M39 38h1" />
<path stroke="#e66bb3" d="M32 0h1M3 1h1M2 4h1M2 9h1M4 24h1M5 33h1M39 37h1" />
<path stroke="#9c9bae" d="M33 0h1M31 7h1M3 9h1M33 31h1" />
<path stroke="#46b5aa" d="M34 0h1M4 9h1M32 15h1M36 26h1" />
<path stroke="#12bba9" d="M35 0h1M25 1h1M36 2h1M5 9h1M33 15h1M12 34h1" />
<path stroke="#9b9cae" d="M4 1h1M28 1h1M23 2h1M34 2h1M3 4h1M3 18h1M1 25h1M9 30h1M5 32h1M2 33h1" />
<path stroke="#45b5aa" d="M5 1h1M35 2h1M4 4h1M34 17h1M9 26h1" />
<path stroke="#11bba9" d="M6 1h1M12 3h1M5 4h1M11 4h1M36 6h1M34 8h1M6 10h1M33 10h1M38 10h1M33 12h1M34 14h1M1 23h1M34 29h1M35 30h1M10 35h1M13 35h1M8 38h1M11 38h1" />
<path stroke="#10bba9" d="M13 1h1M38 29h1" />
<path stroke="#43b5aa" d="M14 1h1" />
<path stroke="#989dae" d="M15 1h1" />
<path stroke="#e36db3" d="M16 1h1" />
<path stroke="#e76bb3" d="M21 1h1M3 13h1M1 26h1M2 34h1M4 37h1" />
<path stroke="#9c9cae" d="M22 1h1" />
<path stroke="#4cb4aa" d="M23 1h1M5 13h1" />
<path stroke="#23baa9" d="M24 1h1M35 1h1M36 4h1M4 6h1M4 7h1M32 9h1M5 11h1M2 20h1M2 21h1M2 22h1M10 26h1M6 29h1M8 29h1M4 30h1M6 30h1M34 30h1" />
<path stroke="#18bba9" d="M26 1h1M14 3h1M35 7h1M37 11h1M36 12h1M35 13h1M0 17h1M9 27h1M36 27h1M8 28h2M37 28h1M7 29h1M5 30h1M36 31h1M38 33h1M8 36h1" />
<path stroke="#49b5aa" d="M27 1h1M2 18h1M9 29h1M3 30h1M14 34h1M8 35h1" />
<path stroke="#e56bb3" d="M29 1h1" />
<path stroke="#f65ab4" d="M32 1h1M29 2h1M2 10h1M6 19h1M32 32h1M4 36h1" />
<path stroke="#cd80b1" d="M33 1h1M30 7h1M5 15h1" />
<path stroke="#73abac" d="M34 1h1M2 24h1M34 31h1" />
<path stroke="#fd52b5" d="M2 2h1M32 5h1M29 6h1M2 11h1M7 23h1M7 24h1M0 29h1M28 32h1M4 34h2" />
<path stroke="#de73b2" d="M3 2h1" />
<path stroke="#80a6ac" d="M4 2h1" />
<path stroke="#22baa9" d="M14 2h1M34 24h1M11 34h1M9 35h1" />
<path stroke="#883d04" d="M15 2h1M19 3h1M22 3h1M16 4h1M18 4h1M20 4h1M25 4h1M19 5h1M26 5h1M13 6h2M16 6h1M18 6h1M21 6h1M23 6h1M28 6h1M20 7h1M24 7h1M14 8h1M21 8h1M23 8h1M29 8h1M7 9h1M25 9h1M27 9h1M7 10h1M26 10h1M29 10h2M8 11h1M7 12h1M26 12h1M6 13h1M28 13h1M7 14h1M26 14h1M29 14h2M8 15h1M27 15h1M29 15h1M31 15h1M7 16h1M29 17h1M31 22h2M10 24h1M30 24h1M33 24h1M11 25h1M28 25h1M31 25h1M12 26h1M10 27h1M28 27h1M33 27h1M11 28h1M13 28h1M29 28h2M12 29h1M32 29h1M30 30h1M12 31h1M13 32h1" />
<path stroke="#432107" d="M16 2h1M19 2h1M21 2h1M15 3h4M20 3h2M23 3h1M12 4h4M17 4h1M19 4h1M21 4h4M12 5h1M14 5h1M16 5h3M20 5h4M25 5h1M11 6h1M15 6h1M17 6h1M19 6h2M22 6h1M24 6h4M10 7h1M12 7h4M17 7h1M19 7h1M21 7h3M25 7h2M29 7h1M10 8h2M15 8h2M18 8h1M20 8h1M22 8h1M24 8h5M9 9h2M12 9h1M14 9h2M20 9h1M22 9h3M26 9h1M29 9h1M8 10h6M21 10h5M27 10h2M7 11h1M9 11h1M25 11h4M30 11h1M6 12h1M8 12h1M12 12h3M17 12h4M27 12h2M30 12h1M7 13h1M26 13h2M29 13h1M31 13h1M6 14h1M8 14h1M27 14h2M6 15h2M9 15h1M26 15h1M28 15h1M30 15h1M8 16h1M27 16h6M7 17h1M30 17h2M29 18h3M30 19h3M30 20h2M30 21h1M32 21h1M29 22h2M10 23h1M29 23h2M32 23h1M9 24h1M11 24h2M27 24h1M29 24h1M31 24h2M10 25h1M13 25h1M26 25h2M29 25h2M32 25h1M34 25h1M11 26h1M14 26h1M24 26h1M27 26h2M30 26h4M11 27h2M14 27h1M24 27h1M30 27h1M32 27h1M34 27h1M10 28h1M12 28h1M14 28h1M16 28h1M23 28h1M25 28h2M28 28h1M31 28h3M13 29h1M24 29h2M28 29h4M11 30h3M15 30h1M17 30h1M26 30h4M31 30h2M10 31h1M14 31h2M28 31h1M30 31h2M12 32h1" />
<path stroke="#d47ab1" d="M22 2h1" />
<path stroke="#72abac" d="M24 2h1" />
<path stroke="#47b5aa" d="M25 2h1M1 17h1M8 27h1M37 27h1M2 32h1M12 33h1M7 36h1" />
<path stroke="#4bb4aa" d="M26 2h1" />
<path stroke="#90a1ad" d="M27 2h1" />
<path stroke="#d37bb1" d="M28 2h1M3 17h1M11 29h1M37 35h1M5 36h1" />
<path stroke="#e66cb3" d="M33 2h1M5 16h1M6 18h1" />
<path stroke="#19bba9" d="M13 3h1M13 34h1" />
<path stroke="#ac4d05" d="M24 3h1M26 4h1M13 5h1M24 5h1M10 6h1M9 7h1M11 7h1M27 7h1M8 8h1M8 9h1M28 9h1M30 9h1M29 11h1M31 11h1M29 12h1M31 12h1M30 13h1M31 14h2M32 18h1M31 21h1M31 23h1M33 23h1M33 25h1M34 26h1M31 27h1" />
<path stroke="#9f9aae" d="M25 3h1M7 18h1" />
<path stroke="#9e9aae" d="M26 3h1M39 36h1" />
<path stroke="#d47bb2" d="M27 3h1" />
<path stroke="#fe4fb5" d="M29 3h1M28 4h1M6 25h1M4 26h1M1 28h1M34 34h1M4 35h1M35 35h1M36 36h1M37 37h1" />
<path stroke="#f75ab4" d="M33 3h1M3 14h1" />
<path stroke="#cc81b1" d="M34 3h1M3 10h1M11 32h1" />
<path stroke="#f859b5" d="M27 4h1" />
<path stroke="#fc53b5" d="M33 4h1M4 16h1" />
<path stroke="#db75b2" d="M34 4h1" />
<path stroke="#7ca8ac" d="M35 4h1M0 31h1" />
<path stroke="#81a6ac" d="M3 5h1M4 12h1M3 23h1M0 25h1M1 33h1" />
<path stroke="#301603" d="M15 5h1M12 6h1M16 7h1M18 7h1M9 8h1M12 8h2M17 8h1M11 9h1M13 9h1M16 9h1M18 9h2M21 9h1M14 10h1M16 10h1M20 10h1M23 11h2M9 12h1M25 12h1M8 13h3M9 14h1M8 17h1M11 23h3M27 23h2M13 24h1M26 24h1M28 24h1M12 25h1M14 25h1M25 25h1M13 26h1M25 26h2M29 26h1M13 27h1M15 27h1M23 27h1M25 27h3M29 27h1M15 28h1M24 28h1M27 28h1M14 29h5M23 29h1M26 29h2M14 30h1M16 30h1M25 30h1M13 31h1M27 31h1M29 31h1" />
<path stroke="#f45db4" d="M33 5h1M27 32h1M7 33h1" />
<path stroke="#6eacac" d="M35 5h1M39 11h1M35 15h1M34 18h1M34 22h1" />
<path stroke="#7ea7ac" d="M3 6h1M3 7h1M32 20h1M0 33h1" />
<path stroke="#f65ab5" d="M30 6h1M1 14h1M4 27h1M2 28h1M3 34h1" />
<path stroke="#e56cb3" d="M31 6h1M0 14h1M4 18h1M3 25h1M5 27h1M24 30h1M33 32h1" />
<path stroke="#dc74b2" d="M32 6h1M0 30h1" />
<path stroke="#8da1ad" d="M34 6h1" />
<path stroke="#43b6aa" d="M35 6h1M34 7h1M32 10h1M32 12h1M35 14h1M7 28h1M35 31h1" />
<path stroke="#7fa7ac" d="M32 7h1M4 32h1" />
<path stroke="#6eacab" d="M33 7h1M1 31h1M3 32h1" />
<path stroke="#82a6ac" d="M3 8h1" />
<path stroke="#ffffff" d="M19 8h1M17 10h3M12 11h10M11 12h1M15 12h2M21 12h3M16 13h1M22 13h3M23 15h2M11 16h2M14 16h2M17 16h2M20 16h2M11 17h4M18 17h3M21 30h2M20 31h4M19 32h4M19 33h3M19 34h3M19 35h2M20 36h1" />
<path stroke="#90a0ad" d="M30 8h1M37 34h1" />
<path stroke="#5cb1ab" d="M31 8h1" />
<path stroke="#2ab9a9" d="M32 8h1" />
<path stroke="#1ebaa9" d="M33 8h1M6 11h1M34 15h1M8 39h1" />
<path stroke="#eeeded" d="M17 9h1M15 10h1M11 11h1M22 11h1M24 12h1M25 13h1M25 15h1M20 29h2M19 30h2M19 31h1M18 32h1" />
<path stroke="#6fabac" d="M31 9h1" />
<path stroke="#979dae" d="M31 10h1" />
<path stroke="#1ebaaa" d="M39 10h1" />
<path stroke="#dd73b2" d="M3 11h1M4 33h1" />
<path stroke="#7da7ac" d="M4 11h1M3 20h1M3 21h1M3 22h1M9 25h1" />
<path stroke="#000000" d="M10 11h1M10 12h1M13 15h1M19 15h1M9 16h1M13 16h1M19 16h1M23 16h4M9 17h1M15 17h2M22 17h1M27 17h2M8 18h3M15 18h1M17 18h1M21 18h1M24 18h2M28 18h1M7 19h1M16 19h5M26 19h1M29 19h1M6 20h1M9 20h4M25 20h1M27 20h1M29 20h1M6 21h1M8 21h1M13 21h4M24 21h1M29 21h1M7 22h1M10 22h3M14 22h1M17 22h8M27 22h2M8 23h2M15 23h1M23 23h1M26 23h1M14 24h1M16 24h1M23 24h1M25 24h1M15 25h1M17 25h1M22 25h1M24 25h1M15 26h1M17 26h1M21 26h1M23 26h1M16 27h1M18 27h3M22 27h1M17 28h1M21 28h2M19 29h1M22 29h1M18 30h1M23 30h1M17 31h2M24 31h1M16 32h1M25 32h1M15 33h1M26 33h2M15 34h1M28 34h2M14 35h1M30 35h2M13 36h1M32 36h1M12 37h1M32 37h1M12 38h1M33 38h1M12 39h1M33 39h1" />
<path stroke="#5db0ab" d="M32 11h1" />
<path stroke="#19baa9" d="M33 11h1M34 28h1" />
<path stroke="#43b6ab" d="M38 11h1" />
<path stroke="#28b9a9" d="M5 12h1" />
<path stroke="#47b5ab" d="M37 12h1" />
<path stroke="#8ea1ae" d="M38 12h1M36 14h1M37 26h1" />
<path stroke="#c982b3" d="M39 12h1M36 15h1M35 18h1M35 22h1M36 24h1M39 27h1" />
<path stroke="#9d9bae" d="M4 13h1M5 37h1" />
<path stroke="#626060" d="M11 13h4M17 13h4M10 14h1M16 14h1M22 14h1M24 14h2M10 15h1M16 15h1M22 15h1M10 16h1M22 16h1M10 17h1M17 17h1M12 18h2M18 18h2" />
<path stroke="#7b7777" d="M15 13h1M21 13h1M23 14h1M16 16h1M21 17h1M14 18h1M20 18h1" />
<path stroke="#48b5ab" d="M36 13h1" />
<path stroke="#90a1af" d="M37 13h1" />
<path stroke="#d27cb4" d="M38 13h1M37 25h1" />
<path stroke="#f55cb8" d="M39 13h1M37 15h1" />
<path stroke="#d57ab1" d="M4 14h1" />
<path stroke="#939fad" d="M5 14h1" />
<path stroke="#e1f4ff" d="M11 14h5M17 14h5M11 15h2M14 15h2M17 15h2M20 15h2" />
<path stroke="#d37bb4" d="M37 14h1" />
<path stroke="#f55bb8" d="M38 14h1M36 18h1M36 22h1" />
<path stroke="#fe4fb9" d="M39 14h1M38 15h1M38 24h1" />
<path stroke="#9a9cae" d="M0 15h1M5 28h1M3 29h1M7 31h1M10 33h1M8 34h1" />
<path stroke="#d27bb2" d="M1 15h1" />
<path stroke="#f65cb4" d="M4 15h1" />
<path stroke="#ff4eb9" d="M39 15h1M38 16h2M38 17h2M38 18h2M37 19h3M37 20h3M37 21h3M38 22h2M38 23h2M39 24h1" />
<path stroke="#48b5aa" d="M0 16h1M33 30h1M36 32h1M37 33h1M38 34h1" />
<path stroke="#8ea1ad" d="M1 16h1M8 26h1M2 30h1M14 33h1M5 38h1" />
<path stroke="#d27cb1" d="M2 16h1M7 26h1M6 35h1" />
<path stroke="#f45cb4" d="M3 16h1M7 25h1" />
<path stroke="#a09aae" d="M6 16h1" />
<path stroke="#26baaa" d="M34 16h1" />
<path stroke="#7ea7ae" d="M35 16h1" />
<path stroke="#dc74b6" d="M36 16h1" />
<path stroke="#fc52b9" d="M37 16h1M36 19h1M36 21h1" />
<path stroke="#8fa1ad" d="M2 17h1M7 27h1M10 29h1M35 32h1M7 35h1M6 36h1" />
<path stroke="#cc80b1" d="M6 17h1M2 25h1M32 31h1" />
<path stroke="#ff8a00" d="M23 17h4M16 18h1M22 18h2M26 18h2M8 19h8M21 19h5M27 19h2M7 20h2M13 20h12M26 20h1M28 20h1M7 21h1M9 21h4M17 21h7M25 21h4M8 22h2M13 22h1M25 22h2M14 23h1M24 23h2M15 24h1M24 24h1M16 25h1M23 25h1M16 26h1M22 26h1M17 27h1M21 27h1M18 28h3" />
<path stroke="#7da8ac" d="M32 17h1" />
<path stroke="#9a9caf" d="M35 17h1" />
<path stroke="#e56cb6" d="M36 17h1" />
<path stroke="#fd51b9" d="M37 17h1M37 23h1" />
<path stroke="#17bba9" d="M1 18h1M35 26h1" />
<path stroke="#fb54b5" d="M5 18h1" />
<path stroke="#625f5f" d="M11 18h1" />
<path stroke="#2fb9aa" d="M33 18h1M33 22h1" />
<path stroke="#ff4fb9" d="M37 18h1M37 22h1" />
<path stroke="#27baa9" d="M2 19h1M0 24h1M3 31h2" />
<path stroke="#fc52b5" d="M5 19h1" />
<path stroke="#31b8aa" d="M33 19h1M33 21h1M0 32h2" />
<path stroke="#7ca8ad" d="M34 19h1M34 21h1" />
<path stroke="#db74b5" d="M35 19h1M35 21h1" />
<path stroke="#dc73b2" d="M4 20h1M4 21h1M4 22h1" />
<path stroke="#fc51b5" d="M5 20h1M5 21h1M5 22h1" />
<path stroke="#32b8aa" d="M33 20h1" />
<path stroke="#7da7ad" d="M34 20h1" />
<path stroke="#dc73b5" d="M35 20h1" />
<path stroke="#fc51b9" d="M36 20h1" />
<path stroke="#ff0000" d="M15 22h2M16 23h3M22 23h1M17 24h1M21 24h2M20 25h2M18 26h3" />
<path stroke="#2eb9a9" d="M2 23h1" />
<path stroke="#fc809a" d="M19 23h3M18 24h3M18 25h2" />
<path stroke="#44b5aa" d="M34 23h1" />
<path stroke="#999daf" d="M35 23h1" />
<path stroke="#e36db6" d="M36 23h1" />
<path stroke="#45b6aa" d="M1 24h1M7 30h1M2 31h1M5 31h1" />
<path stroke="#a697ae" d="M3 24h1" />
<path stroke="#df72b3" d="M8 24h1" />
<path stroke="#f45cb8" d="M37 24h1M38 25h1" />
<path stroke="#f858b5" d="M4 25h1" />
<path stroke="#ca81b1" d="M8 25h1M26 32h1M3 33h1" />
<path stroke="#41b6aa" d="M35 25h1M38 28h1" />
<path stroke="#8ca1ae" d="M36 25h1" />
<path stroke="#fe50b9" d="M39 25h1" />
<path stroke="#df71b2" d="M0 26h1M1 34h1M4 38h1" />
<path stroke="#f75ab5" d="M2 26h1" />
<path stroke="#f55cb4" d="M6 26h1M1 29h1M11 31h1M15 32h1M6 33h1M6 34h1" />
<path stroke="#d17cb4" d="M38 26h1" />
<path stroke="#f35cb8" d="M39 26h1" />
<path stroke="#fe51b5" d="M0 27h1M1 35h1" />
<path stroke="#cb81b1" d="M6 27h1M4 28h1M8 31h1M6 32h1M34 32h1M9 33h1" />
<path stroke="#8da1ae" d="M38 27h1" />
<path stroke="#e46db3" d="M3 28h1M9 31h1M7 32h1M10 32h1" />
<path stroke="#71abac" d="M6 28h1M4 29h1M8 30h1M6 31h1M11 33h1M9 34h1" />
<path stroke="#6cacac" d="M39 28h1" />
<path stroke="#d37bb2" d="M2 29h1M10 30h1M14 32h1M7 34h1" />
<path stroke="#44b6aa" d="M5 29h1M10 34h1" />
<path stroke="#3eb6aa" d="M33 29h1" />
<path stroke="#85a4ac" d="M25 31h1" />
<path stroke="#949ead" d="M26 31h1" />
<path stroke="#f35db4" d="M8 32h2" />
<path stroke="#ffe300" d="M17 32h1M23 32h2M16 33h1M18 33h1M22 33h3M17 34h2M22 34h1M25 34h1M27 34h1M16 35h2M23 35h2M26 35h4M14 36h1M16 36h1M27 36h3M31 36h1M13 37h2M19 37h1M21 37h1M26 37h1M19 38h1M21 38h2M26 38h1M30 38h3M19 39h1M21 39h3M25 39h2M29 39h1M31 39h2" />
<path stroke="#18baa9" d="M37 32h1M39 34h1" />
<path stroke="#e36eb3" d="M8 33h1" />
<path stroke="#4bb5aa" d="M13 33h1" />
<path stroke="#e01400" d="M17 33h1M25 33h1M16 34h1M23 34h2M22 35h1M27 37h2M30 37h2M14 38h2M27 38h1M29 38h1M13 39h2M16 39h1M30 39h1" />
<path stroke="#d47bb1" d="M35 33h1M36 34h1" />
<path stroke="#91a0ad" d="M36 33h1" />
<path stroke="#ff9b00" d="M26 34h1M15 35h1M18 35h1M21 35h1M15 36h1M17 36h1M19 36h1M21 36h2M30 36h1M15 37h2M20 37h1M23 37h1M25 37h1M29 37h1M13 38h1M20 38h1M24 38h2M28 38h1M15 39h1M17 39h2M27 39h2" />
<path stroke="#f75bb4" d="M35 34h1M36 35h1M37 36h1" />
<path stroke="#5b8dfe" d="M25 35h1M26 36h1" />
<path stroke="#92a0ad" d="M38 35h1" />
<path stroke="#4ab4aa" d="M39 35h1" />
<path stroke="#0750ff" d="M18 36h1M23 36h1M17 37h1M24 37h1M18 38h1" />
<path stroke="#5b8bfe" d="M24 36h1M18 37h1M17 38h1" />
<path stroke="#0753ff" d="M25 36h1" />
<path stroke="#d57ab2" d="M38 36h1" />
<path stroke="#4eb4ab" d="M6 37h1" />
<path stroke="#08bba9" d="M8 37h1" />
<path stroke="#9c5e00" d="M22 37h1M16 38h1M23 38h1M24 39h1" />
<path stroke="#f759b5" d="M38 37h1" />
<path stroke="#61afab" d="M6 38h1" />
<path stroke="#3bb7aa" d="M7 38h1" />
<path stroke="#e171b3" d="M4 39h1" />
<path stroke="#a498ae" d="M5 39h1" />
<path stroke="#a199ae" d="M6 39h1" />
<path stroke="#68aeab" d="M7 39h1" />
<path stroke="#9c5d00" d="M20 39h1" />
</svg>