<svg xmlns="http://www.w3.org/2000/svg" viewBox="0 -0.5 40 40" shape-rendering="crispEdges">
<metadata>Made with Pixels to Svg https://codepen.io/shshaw/pen/XbxvNj</metadata>
<path stroke="#ff5f00" d="M0 0h12M37 0h3M0 1h5M27 1h13M28 2h12M32 3h8M36 4h4M1 5h9M11 5h2M0 6h4M7 6h1M24 6h1M28 6h2M8 7h4M30 7h2M28 8h1M31 8h5M28 9h3M6 11h3M2 12h2M5 12h3M3 13h5M6 14h2M39 14h1M38 15h2M32 18h2M33 19h1M0 20h2M0 21h3M1 22h2M1 23h2M1 24h2" />
<path stroke="#ff0000" d="M12 0h25M5 1h4M13 1h6M20 1h7M0 2h8M9 2h4M15 2h3M19 2h2M24 2h4M0 3h12M13 3h2M16 3h2M19 3h1M21 3h3M25 3h7M0 4h11M12 4h4M18 4h1M20 4h5M26 4h10M0 5h1M13 5h2M22 5h2M25 5h15M4 6h3M30 6h5M38 6h2M0 7h7M25 7h2M32 7h4M4 8h2M7 8h4M26 8h2M4 9h2M7 9h3M27 9h1M32 9h2M2 10h3M6 10h3M28 10h3M32 10h4M39 10h1M2 11h2M29 11h7M38 11h2M29 12h3M34 12h2M38 12h2M1 13h2M32 13h2M35 13h1M38 13h2M1 14h2M5 14h1M31 14h1M33 14h2M38 14h1M1 15h2M5 15h2M31 15h2M34 15h2M1 16h2M32 16h1M34 16h1M1 17h3M6 17h1M32 17h2M2 18h1M0 19h1M15 22h2M31 22h1M16 23h3M22 23h1M17 24h1M21 24h2M20 25h2M18 26h3" />
<path stroke="#000000" d="M9 1h4M13 2h1M18 2h1M21 2h3M12 3h1M15 3h1M18 3h1M20 3h1M11 4h1M16 4h2M19 4h1M15 5h5M24 5h1M8 6h1M10 6h11M23 6h1M25 6h3M7 7h1M12 7h1M14 7h8M24 7h1M27 7h3M6 8h1M11 8h1M13 8h10M25 8h1M29 8h1M10 9h3M15 9h2M22 9h1M24 9h3M31 9h1M5 10h1M9 10h2M21 10h1M23 10h4M4 11h2M9 11h1M22 11h2M25 11h3M8 12h1M22 12h3M26 12h3M32 12h2M8 13h1M23 13h2M26 13h2M29 13h3M24 14h5M32 14h1M10 15h1M24 15h1M27 15h4M6 16h2M9 16h1M23 16h4M28 16h2M33 16h1M5 17h1M7 17h1M9 17h1M16 17h1M22 17h1M27 17h1M29 17h1M4 18h1M8 18h8M20 18h2M24 18h2M28 18h4M34 18h1M4 19h1M7 19h1M16 19h5M26 19h1M29 19h3M35 19h1M3 20h1M6 20h1M9 20h4M25 20h1M27 20h1M29 20h4M35 20h1M6 21h1M8 21h1M13 21h4M24 21h1M29 21h1M32 21h1M35 21h1M7 22h1M10 22h3M14 22h1M17 22h8M27 22h2M30 22h1M32 22h2M8 23h2M12 23h2M15 23h1M23 23h1M26 23h1M30 23h1M32 23h2M6 24h2M9 24h1M12 24h1M14 24h1M16 24h1M23 24h1M25 24h1M28 24h1M30 24h1M32 24h2M6 25h2M9 25h1M11 25h5M17 25h1M22 25h1M24 25h1M27 25h2M34 25h1M5 26h1M7 26h1M11 26h5M17 26h1M21 26h1M23 26h1M25 26h2M35 26h1M4 27h1M7 27h1M12 27h5M18 27h3M22 27h2M25 27h2M31 27h1M7 28h1M13 28h5M21 28h3M25 28h1M29 28h1M31 28h2M36 28h1M7 29h1M14 29h3M23 29h1M25 29h2M32 29h1M6 30h1M14 30h6M22 30h2M25 30h2M33 30h1M6 31h2M12 31h2M15 31h12M5 32h2M12 32h2M15 32h11M30 32h1M34 32h1M5 33h2M12 33h2M15 33h4M20 33h5M26 33h1M30 33h1M34 33h1M5 34h1M12 34h2M15 34h4M21 34h4M26 34h1M30 34h1M34 34h1M5 35h1M12 35h2M15 35h4M22 35h4M34 35h1M2 36h1M12 36h6M22 36h4M39 36h1M12 37h1M14 37h1M16 37h2M22 37h2M25 37h1M11 38h2M16 38h2M20 38h2M23 38h1M25 38h2M32 38h2M0 39h1M11 39h2M17 39h1M22 39h5M32 39h2" />
<path stroke="#33008b" d="M19 1h1M14 2h1M24 3h1M25 4h1M21 6h1M13 7h1M22 7h1M12 8h1M30 8h1M31 10h1M25 12h1M25 13h1M28 13h1M34 13h1M29 14h1M35 14h1M33 15h1M30 16h1M30 17h1M34 17h1M29 24h1M36 27h1M33 29h1M25 33h1M21 35h1M26 35h1M35 35h1M38 35h1M5 36h1M21 36h1M26 36h1M13 37h1M21 37h1M27 37h1M13 38h1M22 38h1M27 38h1M13 39h1" />
<path stroke="#42002c" d="M8 2h1M10 5h1M9 6h1M23 7h1M23 8h1M6 9h1M23 9h1M24 11h1M4 12h1M3 21h1M30 21h1M30 25h1M9 26h1M4 28h1M3 29h1M13 29h1M31 29h1M7 30h1M13 30h1M8 31h1M14 31h1M14 32h1M14 33h1M19 33h1M6 34h1M14 34h1M19 34h1M14 35h1M19 35h1M18 36h2M2 37h1M15 37h1M19 37h1M1 38h1M14 38h1M19 38h1M6 39h1M14 39h1M16 39h1M19 39h1M30 39h1M34 39h1" />
<path stroke="#000c18" d="M20 5h2M22 6h1M24 8h1M11 10h1M13 10h2M17 10h4M27 10h1M10 11h3M15 11h3M21 11h1M28 11h1M9 12h3M16 12h1M9 13h2M16 13h1M22 13h1M8 14h3M16 14h1M22 14h2M30 14h1M8 15h2M16 15h1M22 15h2M25 15h2M8 16h1M16 16h1M22 16h1M27 16h1M31 16h1M8 17h1M28 17h1M31 17h1M7 18h1M31 21h1M29 22h1M7 23h1M10 23h2M27 23h3M8 24h1M10 24h2M13 24h1M26 24h2M8 25h1M10 25h1M25 25h2M29 25h1M32 25h2M8 26h1M10 26h1M24 26h1M27 26h5M33 26h1M9 27h3M24 27h1M27 27h4M33 27h1M9 28h4M24 28h1M26 28h3M30 28h1M33 28h1M9 29h4M17 29h6M24 29h1M27 29h4M34 29h1M8 30h5M20 30h2M24 30h1M27 30h6M34 30h1M9 31h3M27 31h6M34 31h2M8 32h4M26 32h4M31 32h3M35 32h1M8 33h4M27 33h3M31 33h3M35 33h2M4 34h1M7 34h5M20 34h1M25 34h1M27 34h3M31 34h3M35 34h2M4 35h1M6 35h6M20 35h1M27 35h7M36 35h2M3 36h2M6 36h6M20 36h1M27 36h11M3 37h9M20 37h1M24 37h1M26 37h1M28 37h10M3 38h8M24 38h1M28 38h4M34 38h4M3 39h3M7 39h4M20 39h2M27 39h3M31 39h1M35 39h4" />
<path stroke="#9b00a6" d="M35 6h3M36 7h4M0 8h4M36 8h4M0 9h4M34 9h6M0 10h2M36 10h3M0 11h2M36 11h2M0 12h2M36 12h2M0 13h1M36 13h2M0 14h1M3 14h2M36 14h2M0 15h1M3 15h2M7 15h1M36 15h2M0 16h1M3 16h3M35 16h5M0 17h1M4 17h1M35 17h5M0 18h2M3 18h1M5 18h2M35 18h5M1 19h3M5 19h2M32 19h1M34 19h1M36 19h4M2 20h1M4 20h2M33 20h2M36 20h4M4 21h2M33 21h2M36 21h4M0 22h1M3 22h4M34 22h6M0 23h1M3 23h4M31 23h1M34 23h6M0 24h1M3 24h3M31 24h1M34 24h6M0 25h6M31 25h1M35 25h5M0 26h5M6 26h1M32 26h1M34 26h1M36 26h3M3 27h1M5 27h2M8 27h1M5 28h2M8 28h1M6 29h1M8 29h1" />
<path stroke="#2b0055" d="M13 9h2M17 9h5M12 10h1M15 10h2M22 10h1" />
<path stroke="#ffea54" d="M13 11h1M18 11h2M12 12h1M17 12h1M11 13h1M15 13h1M17 13h1M21 13h1M11 14h1M15 14h1M17 14h1M21 14h1M11 15h1M15 15h1M17 15h1M21 15h1M11 16h1M15 16h1M17 16h1M21 16h1M12 17h1M15 17h1M17 17h1M21 17h1M17 18h1" />
<path stroke="#feef82" d="M14 11h1M20 11h1M15 12h1M21 12h1M13 13h1M19 13h1M13 16h1M19 16h1" />
<path stroke="#fdc525" d="M13 12h1M18 12h2M12 13h1M14 13h1M18 13h1M20 13h1M12 14h1M14 14h1M18 14h1M20 14h1M12 15h1M14 15h1M18 15h1M20 15h1M12 16h1M14 16h1M18 16h1M20 16h1M14 17h1M18 17h3M19 18h1" />
<path stroke="#fbcb41" d="M14 12h1M20 12h1M13 17h1M18 18h1" />
<path stroke="#fed45f" d="M13 14h1M19 14h1M13 15h1M19 15h1" />
<path stroke="#ff8a00" d="M10 16h1M10 17h2M23 17h4M16 18h1M22 18h2M26 18h2M8 19h8M21 19h5M27 19h2M7 20h2M13 20h12M26 20h1M28 20h1M7 21h1M9 21h4M17 21h7M25 21h4M8 22h2M13 22h1M25 22h2M14 23h1M24 23h2M15 24h1M24 24h1M16 25h1M23 25h1M16 26h1M22 26h1M17 27h1M21 27h1M18 28h3" />
<path stroke="#52ff92" d="M19 23h3M18 24h3M18 25h2" />
<path stroke="#4f0393" d="M39 26h1M0 27h3M32 27h1M34 27h2M37 27h3M0 28h4M34 28h2M37 28h1M0 29h3M4 29h2M35 29h1M0 30h6M5 31h1M2 39h1" />
<path stroke="#44057d" d="M38 28h2M36 29h4M35 30h5M0 31h5M33 31h1M36 31h4M0 32h5M7 32h1M36 32h4M0 33h5M7 33h1M37 33h3M0 34h4M37 34h3M0 35h4M39 35h1M0 36h2M38 36h1M0 37h2M38 37h2M0 38h1M2 38h1M38 38h2M1 39h1M39 39h1" />
<path stroke="#741a00" d="M18 37h1M15 38h1M18 38h1M15 39h1M18 39h1" />
</svg>