<svg xmlns="http://www.w3.org/2000/svg" viewBox="0 -0.5 40 40" shape-rendering="crispEdges">
<metadata>Made with Pixels to Svg https://codepen.io/shshaw/pen/XbxvNj</metadata>
<path stroke="#33a613" d="M0 0h5M34 0h6M0 1h4M35 1h5M0 2h3M36 2h4M0 3h3M37 3h3M0 4h2M38 4h2M0 5h1M38 5h2M0 6h1M39 6h1M39 7h1M0 30h1M0 31h1M0 32h2M39 32h1M0 33h3M39 33h1M0 34h3M39 34h1M0 35h4M39 35h1M0 36h5M36 36h1M0 37h6M35 37h2M0 38h6M33 38h4M0 39h7M33 39h4" />
<path stroke="#32a612" d="M5 0h1" />
<path stroke="#32a712" d="M6 0h1M33 0h1M4 1h1M34 1h1M3 2h1M35 2h1M36 3h1M2 4h1M37 4h1M1 5h1M38 6h1M0 7h1M39 8h1M39 31h1M35 36h1" />
<path stroke="#31ac11" d="M7 0h1M32 0h1M5 1h1M33 1h1M4 2h1M34 2h1M35 3h1M36 4h1M2 31h1M4 34h1M5 35h1M35 35h1M34 36h1M10 39h1" />
<path stroke="#2eba10" d="M8 0h1M38 8h1" />
<path stroke="#28cd0e" d="M9 0h1M0 10h1M39 12h1" />
<path stroke="#16f307" d="M10 0h1M0 24h1M1 25h1M2 28h1M37 30h1M7 35h1" />
<path stroke="#0bff01" d="M11 0h1M28 0h1M9 2h1M30 2h1M7 3h1M5 5h1M35 7h1M3 8h1M36 9h1M2 10h1M37 11h1M37 12h1M2 25h1M3 28h1M36 30h1M5 31h1M32 34h1M8 35h1M30 35h1M9 36h1" />
<path stroke="#0bff00" d="M12 0h2M16 0h8M26 0h2M11 1h2M17 1h6M27 1h2M10 2h3M17 2h5M27 2h3M8 3h4M18 3h4M28 3h4M6 4h6M18 4h3M28 4h5M6 5h6M28 5h6M5 6h6M29 6h6M4 7h7M29 7h6M4 8h7M29 8h7M3 9h8M30 9h6M3 10h7M31 10h6M2 11h8M31 11h6M0 12h10M31 12h6M0 13h11M32 13h6M0 14h11M32 14h8M0 15h10M32 15h8M0 16h9M32 16h8M0 17h9M32 17h8M0 18h8M32 18h8M0 19h7M32 19h8M0 20h6M31 20h9M0 21h6M30 21h5M38 21h2M0 22h7M29 22h5M38 22h2M0 23h8M10 23h2M27 23h6M38 23h2M2 24h12M26 24h7M38 24h2M3 25h10M25 25h8M37 25h3M3 26h9M24 26h9M36 26h4M3 27h8M23 27h10M36 27h4M4 28h6M23 28h10M36 28h2M4 29h6M17 29h2M23 29h10M36 29h1M5 30h4M17 30h1M24 30h9M6 31h3M25 31h8M6 32h3M26 32h8M7 33h2M27 33h7M8 34h1M29 34h3M9 35h1M10 36h3" />
<path stroke="#000000" d="M14 0h2M24 0h2M13 1h4M23 1h4M13 2h1M15 2h2M22 2h2M25 2h2M12 3h2M16 3h2M22 3h1M26 3h2M12 4h1M15 4h3M21 4h3M26 4h2M12 5h13M27 5h1M11 6h18M11 7h18M11 8h2M15 8h4M23 8h6M11 9h1M16 9h2M24 9h6M10 10h1M25 10h6M10 11h1M13 11h2M18 11h3M26 11h5M10 12h1M12 12h1M15 12h1M17 12h1M21 12h1M26 12h5M11 13h1M15 13h1M17 13h1M21 13h1M27 13h5M11 14h1M13 14h1M15 14h1M17 14h1M19 14h1M21 14h1M27 14h5M10 15h2M13 15h1M15 15h1M17 15h1M19 15h1M21 15h1M27 15h5M9 16h1M11 16h1M13 16h1M15 16h1M17 16h1M19 16h1M21 16h1M23 16h9M9 17h1M11 17h1M13 17h1M15 17h3M19 17h1M21 17h2M27 17h5M8 18h8M17 18h1M19 18h1M21 18h1M24 18h2M28 18h4M7 19h1M16 19h5M26 19h1M29 19h3M6 20h1M9 20h4M25 20h1M27 20h1M29 20h2M6 21h1M8 21h1M13 21h4M24 21h1M29 21h1M35 21h3M7 22h1M10 22h3M14 22h11M27 22h2M34 22h4M8 23h2M12 23h2M15 23h2M23 23h1M26 23h1M33 23h5M22 24h2M25 24h1M33 24h5M20 25h3M24 25h1M33 25h4M19 26h3M23 26h1M33 26h3M18 27h3M22 27h1M33 27h3M21 28h2M33 28h3M19 29h4M33 29h3M18 30h6M33 30h3M17 31h8M33 31h4M17 32h9M34 32h3M16 33h11M34 33h4M16 34h13M35 34h4M15 35h15M36 35h3M13 36h7M23 36h8M37 36h3M12 37h7M24 37h8M37 37h3M12 38h6M25 38h7M37 38h3M12 39h5M26 39h7M37 39h3" />
<path stroke="#16f406" d="M29 0h1" />
<path stroke="#27ce0d" d="M30 0h1" />
<path stroke="#2dba10" d="M31 0h1" />
<path stroke="#2eb910" d="M6 1h1M3 4h1M37 6h1M1 7h1M0 9h1M38 31h1M33 36h1" />
<path stroke="#29c90e" d="M7 1h1M3 5h1M39 29h1M38 30h1" />
<path stroke="#1ee70a" d="M8 1h1M2 7h1M37 8h1" />
<path stroke="#17f307" d="M9 1h1M7 2h1M4 5h1M1 10h1M4 31h1" />
<path stroke="#0ffc03" d="M10 1h1M8 2h1M31 2h1M6 3h1M32 3h1M33 4h1M34 5h1M4 6h1M35 6h1M36 8h1M2 9h1M37 10h1M1 11h1M38 13h1M1 24h1M2 27h1M38 28h1M37 29h1M4 30h1M6 33h1M7 34h1M33 34h1M31 35h1M11 37h1" />
<path stroke="#0efc03" d="M29 1h1" />
<path stroke="#15f407" d="M30 1h1" />
<path stroke="#1ee80a" d="M31 1h1M38 10h1" />
<path stroke="#2ac50f" d="M32 1h1M33 2h1M34 35h1" />
<path stroke="#2ac40f" d="M5 2h1" />
<path stroke="#1ee60a" d="M6 2h1M4 4h1M1 9h1M1 27h1M2 29h1M37 31h1M4 32h1M33 35h1M7 36h1M31 36h1M8 37h1" />
<path stroke="#ffc2c2" d="M14 2h1M24 2h1M14 3h2M23 3h3M13 4h2M24 4h2M25 5h2" />
<path stroke="#1cea09" d="M32 2h1M5 3h1M3 6h1M38 29h1M34 34h1" />
<path stroke="#31ac12" d="M3 3h1M37 5h1M1 6h1M38 7h1M0 8h1M39 9h1M0 28h1M38 32h1" />
<path stroke="#2bc50f" d="M4 3h1M2 6h1" />
<path stroke="#1beb09" d="M33 3h1M34 4h1M35 5h1" />
<path stroke="#2ac60f" d="M34 3h1M35 4h1M36 5h1" />
<path stroke="#0ffc04" d="M5 4h1M3 7h1M3 29h1M5 32h1M8 36h1" />
<path stroke="#31ad11" d="M2 5h1M39 30h1" />
<path stroke="#1de80a" d="M36 6h1" />
<path stroke="#16f407" d="M36 7h1M2 8h1M37 9h1M38 12h1M39 28h1M10 37h1" />
<path stroke="#29c80f" d="M37 7h1M1 28h1" />
<path stroke="#29c90f" d="M1 8h1" />
<path stroke="#ffffff" d="M13 8h2M19 8h4M12 9h4M18 9h6M11 10h14M11 11h2M15 11h3M21 11h5M11 12h1M14 12h1M16 12h1M20 12h1M22 12h4M16 13h1M22 13h5M16 14h1M22 14h5M16 15h1M22 15h5M16 16h1M22 16h1M20 36h3M19 37h5M18 38h7M17 39h9" />
<path stroke="#29ca0f" d="M38 9h1" />
<path stroke="#2eb911" d="M39 10h1" />
<path stroke="#16f507" d="M0 11h1M39 13h1" />
<path stroke="#18f108" d="M38 11h1" />
<path stroke="#2cbe10" d="M39 11h1" />
<path stroke="#fff000" d="M13 12h1M18 12h2M12 13h3M18 13h3M12 14h1M14 14h1M18 14h1M20 14h1M12 15h1M14 15h1M18 15h1M20 15h1M12 16h1M14 16h1M18 16h1M20 16h1M12 17h1M14 17h1M18 17h1M20 17h1M18 18h1M20 18h1" />
<path stroke="#ff8a00" d="M10 16h1M10 17h1M23 17h4M16 18h1M22 18h2M26 18h2M8 19h5M21 19h5M27 19h2M7 20h2M18 20h7M26 20h1M28 20h1M7 21h1M9 21h4M17 21h7M25 21h4M8 22h2M13 22h1M25 22h2M14 23h1M24 23h2M24 24h1M23 25h1M22 26h1M21 27h1M18 28h3" />
<path stroke="#f85858" d="M13 19h3M13 20h5M17 24h1M16 25h1M15 26h1M14 27h1M13 28h1M12 30h1M15 34h1M14 35h1" />
<path stroke="#e80505" d="M17 23h2M20 23h3M21 24h1M19 25h1M18 26h1M17 28h1M16 29h1M16 30h1M16 31h1M16 32h1M15 33h1M14 34h1M10 35h4" />
<path stroke="#c50000" d="M19 23h1M18 24h1M17 25h1M16 26h1M15 27h1M14 28h1M13 29h1M13 30h1M12 31h1M12 32h1" />
<path stroke="#ff0000" d="M14 24h3M19 24h2M13 25h3M18 25h1M12 26h3M17 26h1M11 27h3M16 27h2M10 28h3M15 28h2M10 29h3M14 29h2M9 30h3M14 30h2M9 31h3M13 31h3M9 32h3M13 32h3M9 33h6M9 34h5" />
<path stroke="#28cc0e" d="M0 25h1" />
<path stroke="#2dbd10" d="M0 26h1" />
<path stroke="#19ef08" d="M1 26h1" />
<path stroke="#0cff01" d="M2 26h1" />
<path stroke="#2eb811" d="M0 27h1" />
<path stroke="#33a712" d="M0 29h1M1 31h1M2 32h1M38 33h1M3 34h1M4 35h1M5 36h1M33 37h1M6 38h1M8 39h2" />
<path stroke="#2eb810" d="M1 29h1M3 32h1M6 36h1M8 38h1" />
<path stroke="#31ab12" d="M1 30h1M3 33h1M6 37h1" />
<path stroke="#2bc40f" d="M2 30h1M37 32h1M4 33h1M5 34h1M7 37h1" />
<path stroke="#1ce909" d="M3 30h1M5 33h1M6 34h1M11 38h1" />
<path stroke="#2ac80e" d="M3 31h1" />
<path stroke="#29c80e" d="M6 35h1M32 36h1M10 38h1M11 39h1" />
<path stroke="#17f207" d="M32 35h1" />
<path stroke="#19f008" d="M9 37h1" />
<path stroke="#32ac11" d="M32 37h1M7 38h1" />
<path stroke="#33a612" d="M34 37h1M32 38h1M7 39h1" />
<path stroke="#2dbc10" d="M9 38h1" />
</svg>