<svg xmlns="http://www.w3.org/2000/svg" viewBox="0 -0.5 40 40" shape-rendering="crispEdges">
<metadata>Made with Pixels to Svg https://codepen.io/shshaw/pen/XbxvNj</metadata>
<path stroke="#380fcf" d="M0 0h1" />
<path stroke="#5036e7" d="M1 0h1" />
<path stroke="#6d64f9" d="M2 0h1" />
<path stroke="#7a78ff" d="M3 0h1M4 2h1" />
<path stroke="#7d7cff" d="M4 0h5M5 1h3M5 2h1" />
<path stroke="#7c7bff" d="M9 0h1M4 1h1" />
<path stroke="#746dfc" d="M10 0h1" />
<path stroke="#553ee5" d="M11 0h1" />
<path stroke="#3212a5" d="M12 0h1" />
<path stroke="#240385" d="M13 0h1" />
<path stroke="#220183" d="M14 0h2" />
<path stroke="#b50a0a" d="M16 0h7M8 1h8M23 1h2M6 2h2M25 2h1M5 3h1M26 3h3M5 4h1M29 4h2M4 5h1M31 5h1M3 6h1M28 6h1M39 6h1M3 7h1M16 7h7M25 7h3M33 7h1M38 7h1M4 8h1M23 8h2M26 8h1M37 8h1M4 9h1M25 9h1M5 10h1M25 10h1M5 11h1M25 11h1M6 12h1M25 12h1M28 12h1M7 13h2M25 13h1M29 13h1M9 14h2M26 14h1M30 14h1M27 15h1M28 16h1M31 16h1M29 17h1M32 17h1M29 18h1M33 18h1M30 19h1M34 19h1M31 20h1M34 20h1M32 21h1M35 21h1M32 22h1M35 22h1M39 22h1M7 23h1M33 23h1M39 23h1M7 24h1M33 24h1M38 24h1M6 25h1M33 25h1M38 25h1M5 26h1M32 26h1M38 26h1M5 27h1M7 27h1M10 27h1M31 27h1M38 27h1M5 28h1M7 28h2M11 28h2M38 28h1M5 29h1M7 29h1M10 29h1M12 29h1M37 29h1M6 30h1M9 30h1M11 30h1M37 30h1M5 31h1M11 31h1M31 31h2M37 31h1M12 32h1M30 32h1M36 32h1M13 33h1M29 33h1M35 33h1M14 34h1M34 34h1M32 35h2" />
<path stroke="#6d6ae7" d="M23 0h1" />
<path stroke="#746ffc" d="M24 0h1" />
<path stroke="#614cf9" d="M25 0h1" />
<path stroke="#5125f6" d="M26 0h1" />
<path stroke="#4d16f4" d="M27 0h1M9 15h1" />
<path stroke="#4712eb" d="M28 0h1" />
<path stroke="#390ad2" d="M29 0h1" />
<path stroke="#3202c7" d="M30 0h1M31 2h1M31 3h1M2 7h1M2 9h1M2 10h2M3 11h1M4 14h1M5 15h1M5 16h1M5 17h2M0 19h1M1 21h1M1 22h1" />
<path stroke="#3200c6" d="M31 0h2M32 1h1M32 2h1M1 7h1M0 21h1M0 22h1M0 23h1" />
<path stroke="#2f00b9" d="M33 0h1" />
<path stroke="#270096" d="M34 0h1" />
<path stroke="#220084" d="M35 0h1M36 3h1" />
<path stroke="#20017e" d="M36 0h1M37 4h1M37 6h1M10 37h1" />
<path stroke="#1d0171" d="M37 0h1M38 4h1M36 6h1M36 7h1M7 33h1M38 35h1M9 37h1" />
<path stroke="#1b0167" d="M38 0h1M39 4h1M38 31h1M0 32h1M1 33h1M39 34h1M2 35h1M4 36h1M7 36h1M8 37h1M9 39h1" />
<path stroke="#1b0165" d="M39 0h1M39 1h1M39 2h1M38 29h1M38 30h2M39 31h1M39 32h1M0 33h1M0 34h2M1 35h1M1 36h3M3 37h5M7 38h2M8 39h1" />
<path stroke="#3408ca" d="M0 1h1M3 8h1" />
<path stroke="#411fd9" d="M1 1h1" />
<path stroke="#5d4af1" d="M2 1h1" />
<path stroke="#7570fd" d="M3 1h1" />
<path stroke="#ff0000" d="M16 1h7M8 2h17M6 3h20M6 4h1M12 4h17M5 5h2M13 5h18M4 6h2M15 6h13M29 6h2M4 7h2M23 7h2M28 7h2M39 7h1M5 8h1M27 8h3M32 8h1M38 8h2M5 9h2M26 9h3M36 9h4M6 10h2M26 10h3M35 10h5M6 11h2M26 11h3M34 11h6M7 12h3M26 12h2M32 12h8M9 13h2M26 13h3M32 13h8M27 14h3M33 14h7M28 15h3M33 15h7M29 16h2M34 16h6M30 17h2M34 17h6M30 18h3M34 18h6M31 19h3M35 19h5M30 20h1M32 20h2M35 20h5M30 21h2M33 21h2M36 21h4M15 22h2M29 22h3M33 22h2M36 22h3M10 23h3M16 23h3M22 23h1M27 23h6M34 23h5M8 24h6M17 24h1M21 24h2M26 24h7M34 24h4M7 25h8M20 25h2M25 25h8M34 25h4M6 26h9M18 26h3M24 26h8M33 26h5M6 27h1M8 27h2M11 27h5M23 27h8M32 27h6M6 28h1M9 28h2M13 28h4M23 28h15M6 29h1M9 29h1M13 29h6M23 29h14M5 30h1M12 30h6M24 30h13M12 31h5M25 31h6M33 31h4M13 32h3M26 32h4M31 32h5M14 33h2M27 33h2M30 33h5M29 34h5" />
<path stroke="#6e64fc" d="M25 1h1" />
<path stroke="#5839f7" d="M26 1h1" />
<path stroke="#4d19f4" d="M27 1h1" />
<path stroke="#4913ed" d="M28 1h1M0 11h1" />
<path stroke="#3d0cd9" d="M29 1h1M1 11h1M3 15h1M4 18h1" />
<path stroke="#3405ca" d="M30 1h1M31 4h1M3 12h1M4 15h1M6 16h1M0 18h1M6 19h1M1 20h1" />
<path stroke="#3201c7" d="M31 1h1M2 8h1M6 18h1" />
<path stroke="#2f00bc" d="M33 1h1" />
<path stroke="#28009f" d="M34 1h1" />
<path stroke="#230089" d="M35 1h1" />
<path stroke="#210182" d="M36 1h1" />
<path stroke="#1f0179" d="M37 1h1M38 5h1M9 36h1M39 37h1" />
<path stroke="#1c016b" d="M38 1h1M39 5h1M0 31h1M38 32h1M2 34h1M3 35h1M5 36h1M8 36h1M9 38h1" />
<path stroke="#3203c7" d="M0 2h1M3 9h1" />
<path stroke="#3a11d2" d="M1 2h1" />
<path stroke="#5337ed" d="M2 2h1" />
<path stroke="#6e64fb" d="M3 2h1" />
<path stroke="#604bf9" d="M26 2h1" />
<path stroke="#5125f5" d="M27 2h1" />
<path stroke="#4b15f2" d="M28 2h1" />
<path stroke="#4410e6" d="M29 2h1M2 13h1M7 15h1M3 16h1M1 17h1M8 17h1M2 19h1M5 20h1M6 22h1" />
<path stroke="#3708d0" d="M30 2h1M0 8h1M1 9h1M3 13h1M5 13h1M6 15h1M4 16h1M0 17h1M7 17h1M1 19h1" />
<path stroke="#3100c3" d="M33 2h1M12 34h2" />
<path stroke="#2d00b2" d="M34 2h1M12 36h1" />
<path stroke="#250092" d="M35 2h1M9 32h1M11 36h1" />
<path stroke="#220184" d="M36 2h1" />
<path stroke="#20017d" d="M37 2h1M37 3h1M9 35h1" />
<path stroke="#1c016d" d="M38 2h1M38 3h1M34 7h1M8 35h1M39 36h1" />
<path stroke="#3102c6" d="M0 3h1" />
<path stroke="#370acf" d="M1 3h1" />
<path stroke="#4822e6" d="M2 3h1" />
<path stroke="#5f4bf6" d="M3 3h1" />
<path stroke="#7570fe" d="M4 3h1" />
<path stroke="#4711eb" d="M29 3h1M0 10h1M2 14h1M3 17h1M3 21h1" />
<path stroke="#3909d3" d="M30 3h1" />
<path stroke="#3100c6" d="M32 3h1" />
<path stroke="#3100c4" d="M33 3h1" />
<path stroke="#ff06cd" d="M34 3h1M37 7h1M32 16h2M33 17h1" />
<path stroke="#260095" d="M35 3h1" />
<path stroke="#1b0166" d="M39 3h1M39 33h1" />
<path stroke="#2f01bd" d="M0 4h1" />
<path stroke="#3305c7" d="M1 4h1" />
<path stroke="#3d12d8" d="M2 4h1" />
<path stroke="#5337ef" d="M3 4h1" />
<path stroke="#6e63fb" d="M4 4h1" />
<path stroke="#9a0000" d="M7 4h5M7 5h6M6 6h9M6 7h7M6 8h6M7 9h4M8 10h2M8 11h2" />
<path stroke="#3101c2" d="M32 4h1" />
<path stroke="#ff06c7" d="M33 4h1M32 5h2M31 6h3M30 7h3M30 8h2M33 8h4M29 9h7M29 10h6M29 11h1M31 11h3M29 12h1M31 12h1M30 13h2M31 14h2M31 15h2" />
<path stroke="#2a00a9" d="M34 4h1" />
<path stroke="#23008d" d="M35 4h1" />
<path stroke="#210082" d="M36 4h1M10 36h1" />
<path stroke="#2c00ad" d="M0 5h1" />
<path stroke="#3002c0" d="M1 5h1" />
<path stroke="#380acf" d="M2 5h1" />
<path stroke="#4821e6" d="M3 5h1" />
<path stroke="#20007f" d="M34 5h1" />
<path stroke="#1e0176" d="M35 5h1" />
<path stroke="#1f017b" d="M36 5h1" />
<path stroke="#210180" d="M37 5h1" />
<path stroke="#2f00bd" d="M0 6h1M1 24h1" />
<path stroke="#3101c4" d="M1 6h1M1 23h1" />
<path stroke="#3405c9" d="M2 6h1M7 18h1" />
<path stroke="#1b0069" d="M34 6h1" />
<path stroke="#1b0169" d="M35 6h1M7 34h1M39 35h1" />
<path stroke="#20017c" d="M38 6h1" />
<path stroke="#3201c6" d="M0 7h1M0 20h1" />
<path stroke="#000000" d="M13 7h3M12 8h1M11 9h3M18 9h4M10 10h1M22 10h1M10 11h1M13 11h2M18 11h3M10 12h1M12 12h1M15 12h1M17 12h1M21 12h1M11 13h1M15 13h1M17 13h1M21 13h1M11 14h1M15 14h1M17 14h1M20 14h2M10 15h2M14 15h2M17 15h1M19 15h3M9 16h1M11 16h1M14 16h2M17 16h1M19 16h3M23 16h4M9 17h1M12 17h1M14 17h4M19 17h4M27 17h2M8 18h8M17 18h1M20 18h2M24 18h2M28 18h1M7 19h1M16 19h5M26 19h1M29 19h1M6 20h1M9 20h4M25 20h1M27 20h1M29 20h1M6 21h1M8 21h1M13 21h4M24 21h1M29 21h1M7 22h1M10 22h3M14 22h1M17 22h8M27 22h2M8 23h2M13 23h1M15 23h1M23 23h1M26 23h1M14 24h1M16 24h1M23 24h1M25 24h1M15 25h1M17 25h1M22 25h1M24 25h1M15 26h1M17 26h1M21 26h1M23 26h1M16 27h1M18 27h3M22 27h1M17 28h1M21 28h2M19 29h1M22 29h1M18 30h1M22 30h2M17 31h2M23 31h2M16 32h1M25 32h1M16 33h1M26 33h1M15 34h1M27 34h2M14 35h2M30 35h2M13 36h1M31 36h2M12 37h1M32 37h1M12 38h1M33 38h1M12 39h1M29 39h1M33 39h1" />
<path stroke="#1e0175" d="M35 7h1" />
<path stroke="#3304c9" d="M1 8h1" />
<path stroke="#ffffff" d="M13 8h10M25 8h1M14 9h4M22 9h3M11 10h11M23 10h2M11 11h2M15 11h3M21 11h4M11 12h1M13 12h2M16 12h1M18 12h3M22 12h3M12 13h1M16 13h1M22 13h3M12 14h1M14 14h1M16 14h1M19 14h1M22 14h4M12 15h1M16 15h1M22 15h5M12 16h1M16 16h1M22 16h1M27 16h1M20 29h2M19 30h3M19 31h4M17 32h8M17 33h9M16 34h11M16 35h14M14 36h17M13 37h3M18 37h7M27 37h5M13 38h2M19 38h5M29 38h4M13 39h2M20 39h3M30 39h3" />
<path stroke="#430fe3" d="M0 9h1M4 25h1" />
<path stroke="#3909d2" d="M1 10h1M4 10h1M3 14h1M4 17h1M2 21h1" />
<path stroke="#3405cb" d="M2 11h1M5 18h1" />
<path stroke="#3708cf" d="M4 11h1M2 22h1" />
<path stroke="#ffda00" d="M30 11h1M30 12h1" />
<path stroke="#4b14f2" d="M0 12h1M1 15h1M8 15h1M4 22h2" />
<path stroke="#4511e8" d="M1 12h1" />
<path stroke="#3b0bd6" d="M2 12h1" />
<path stroke="#3404ca" d="M4 12h1M5 14h1" />
<path stroke="#3c0bd8" d="M5 12h1M6 14h1" />
<path stroke="#4c14f4" d="M0 13h1M0 14h2M8 14h1" />
<path stroke="#4b13f2" d="M1 13h1M2 16h1" />
<path stroke="#3203c8" d="M4 13h1" />
<path stroke="#4410e5" d="M6 13h1M3 22h1" />
<path stroke="#00cfca" d="M13 13h2M18 13h3M13 14h1M18 14h1M13 15h1M18 15h1M13 16h1M18 16h1M13 17h1M18 17h1M18 18h2" />
<path stroke="#4812ed" d="M7 14h1M0 15h1M1 16h1M8 16h1M3 18h1M3 20h1M5 21h1" />
<path stroke="#4813ed" d="M2 15h1" />
<path stroke="#3e0ddb" d="M0 16h1" />
<path stroke="#3c0cd8" d="M7 16h1M1 18h1M2 20h1" />
<path stroke="#ff8a00" d="M10 16h1M10 17h2M23 17h4M16 18h1M22 18h2M26 18h2M8 19h8M21 19h5M27 19h2M7 20h2M13 20h12M26 20h1M28 20h1M7 21h1M9 21h4M17 21h7M25 21h4M8 22h2M13 22h1M25 22h2M14 23h1M24 23h2M15 24h1M24 24h1M16 25h1M23 25h1M16 26h1M22 26h1M17 27h1M21 27h1M18 28h3" />
<path stroke="#4b13f1" d="M2 17h1" />
<path stroke="#4812ec" d="M2 18h1M4 23h1" />
<path stroke="#4a13f0" d="M3 19h1" />
<path stroke="#4511e9" d="M4 19h1" />
<path stroke="#3b0bd7" d="M5 19h1" />
<path stroke="#4a13f2" d="M4 20h1" />
<path stroke="#4c14f3" d="M4 21h1M5 23h1" />
<path stroke="#3205c3" d="M2 23h1" />
<path stroke="#3c0cd5" d="M3 23h1" />
<path stroke="#4711ea" d="M6 23h1M4 24h1" />
<path stroke="#fc809a" d="M19 23h3M18 24h3M18 25h2" />
<path stroke="#3100c5" d="M0 24h1M12 33h1M13 35h1" />
<path stroke="#2d02af" d="M2 24h1" />
<path stroke="#3709c9" d="M3 24h1" />
<path stroke="#4a13ef" d="M5 24h1" />
<path stroke="#4310e0" d="M6 24h1" />
<path stroke="#1b0265" d="M39 24h1M39 25h1M39 26h1M39 27h1M39 28h1M39 29h1M0 35h1M0 36h1M0 37h3M0 38h7M0 39h8" />
<path stroke="#2e00bc" d="M0 25h1" />
<path stroke="#2f00ba" d="M1 25h1" />
<path stroke="#2d02ae" d="M2 25h1" />
<path stroke="#3508c6" d="M3 25h1" />
<path stroke="#4712e7" d="M5 25h1" />
<path stroke="#2900a1" d="M0 26h1" />
<path stroke="#2e00b9" d="M1 26h1M10 30h1" />
<path stroke="#2f01bc" d="M2 26h1" />
<path stroke="#3104bd" d="M3 26h1" />
<path stroke="#3a0bce" d="M4 26h1" />
<path stroke="#260096" d="M0 27h1" />
<path stroke="#2d00b8" d="M1 27h1" />
<path stroke="#2e00ba" d="M2 27h1" />
<path stroke="#2a02a3" d="M3 27h1" />
<path stroke="#3008ab" d="M4 27h1" />
<path stroke="#250091" d="M0 28h1" />
<path stroke="#2b00ad" d="M1 28h1" />
<path stroke="#2c00ae" d="M2 28h1" />
<path stroke="#270193" d="M3 28h1" />
<path stroke="#27058e" d="M4 28h1" />
<path stroke="#210083" d="M0 29h1" />
<path stroke="#250090" d="M1 29h1" />
<path stroke="#260091" d="M2 29h1" />
<path stroke="#240087" d="M3 29h1" />
<path stroke="#250285" d="M4 29h1" />
<path stroke="#270297" d="M8 29h1" />
<path stroke="#2c00ab" d="M11 29h1" />
<path stroke="#1d0073" d="M0 30h1" />
<path stroke="#21007f" d="M1 30h1M9 34h1" />
<path stroke="#230083" d="M2 30h1M11 38h1" />
<path stroke="#240083" d="M3 30h1" />
<path stroke="#240184" d="M4 30h1M6 31h1" />
<path stroke="#26048c" d="M7 30h1" />
<path stroke="#250192" d="M8 30h1" />
<path stroke="#200179" d="M1 31h1M10 38h1" />
<path stroke="#230181" d="M2 31h1M3 32h1" />
<path stroke="#240183" d="M3 31h2M4 32h1" />
<path stroke="#230184" d="M7 31h1" />
<path stroke="#230088" d="M8 31h1M10 35h1M11 37h1" />
<path stroke="#28009d" d="M9 31h1" />
<path stroke="#2e00b8" d="M10 31h1" />
<path stroke="#1d016f" d="M1 32h1" />
<path stroke="#21017b" d="M2 32h1" />
<path stroke="#230182" d="M5 32h1M4 33h1" />
<path stroke="#22017e" d="M6 32h1M3 33h1M5 33h1M4 34h1" />
<path stroke="#22007f" d="M7 32h1" />
<path stroke="#220083" d="M8 32h1" />
<path stroke="#2d00b1" d="M10 32h1M11 34h1" />
<path stroke="#3100c2" d="M11 32h1" />
<path stroke="#1e0174" d="M37 32h1" />
<path stroke="#1e0171" d="M2 33h1M6 34h1M4 35h1M10 39h1" />
<path stroke="#1e0173" d="M6 33h1" />
<path stroke="#20007b" d="M8 33h1" />
<path stroke="#230087" d="M9 33h1" />
<path stroke="#28009e" d="M10 33h1" />
<path stroke="#2f00bb" d="M11 33h1M12 35h1" />
<path stroke="#21057a" d="M36 33h1" />
<path stroke="#1e0177" d="M37 33h1" />
<path stroke="#1c016c" d="M38 33h1" />
<path stroke="#200178" d="M3 34h1M5 35h1" />
<path stroke="#21017d" d="M5 34h1" />
<path stroke="#1d0071" d="M8 34h1" />
<path stroke="#260092" d="M10 34h1" />
<path stroke="#370db7" d="M35 34h1" />
<path stroke="#29088f" d="M36 34h1" />
<path stroke="#1f0277" d="M37 34h1" />
<path stroke="#1c016e" d="M38 34h1" />
<path stroke="#1f0174" d="M6 35h1" />
<path stroke="#1c016a" d="M7 35h1M6 36h1" />
<path stroke="#29009e" d="M11 35h1" />
<path stroke="#2b0992" d="M34 35h1" />
<path stroke="#3c0fc5" d="M35 35h1M36 38h1" />
<path stroke="#310ba6" d="M36 35h1" />
<path stroke="#21057b" d="M37 35h1" />
<path stroke="#1e0273" d="M33 36h1" />
<path stroke="#28088b" d="M34 36h1" />
<path stroke="#3c0fc4" d="M35 36h1" />
<path stroke="#3c0fc6" d="M36 36h1" />
<path stroke="#29088d" d="M37 36h1" />
<path stroke="#1d026e" d="M38 36h1" />
<path stroke="#c0049a" d="M16 37h2M25 37h2M18 38h1M24 38h1M15 39h3M19 39h1M23 39h1M25 39h3" />
<path stroke="#1f017a" d="M33 37h1M34 39h1" />
<path stroke="#210479" d="M34 37h1" />
<path stroke="#310ba4" d="M35 37h1M37 37h1M36 39h1" />
<path stroke="#3e0fca" d="M36 37h1" />
<path stroke="#210579" d="M38 37h1M35 39h1" />
<path stroke="#a30786" d="M15 38h3M25 38h3M18 39h1M24 39h1" />
<path stroke="#c0049b" d="M28 38h1M28 39h1" />
<path stroke="#1e0274" d="M34 38h1" />
<path stroke="#28088c" d="M35 38h1" />
<path stroke="#3d0fc6" d="M37 38h1M37 39h1" />
<path stroke="#2a0890" d="M38 38h1" />
<path stroke="#21027f" d="M39 38h1M39 39h1" />
<path stroke="#22017f" d="M11 39h1" />
<path stroke="#2c0996" d="M38 39h1" />
</svg>