<svg xmlns="http://www.w3.org/2000/svg" viewBox="0 -0.5 40 40" shape-rendering="crispEdges">
<metadata>Made with Pixels to Svg https://codepen.io/shshaw/pen/XbxvNj</metadata>
<path stroke="#c20303" d="M0 0h2M4 0h1M9 0h2M16 0h1M22 0h1M29 0h2M34 0h1M38 0h1M0 1h2M4 1h2M9 1h2M30 1h1M34 1h1M38 1h1M0 2h2M4 2h2M34 2h1M38 2h1M0 3h2M4 3h2M9 3h2M34 3h1M38 3h1M0 4h2M4 4h1M10 4h1M34 4h1M38 4h1M0 5h2M10 5h1M34 5h1M38 5h1M0 6h2M10 6h1M34 6h1M38 6h1M0 7h2M34 7h1M38 7h1M0 8h2M34 8h1M38 8h1M1 9h1M5 9h1M9 9h1M34 9h1M38 9h1M1 10h1M5 10h1M9 10h1M34 10h1M38 10h1M1 11h1M5 11h1M9 11h1M34 11h1M38 11h1M1 12h1M5 12h1M9 12h1M34 12h1M38 12h1M1 13h1M5 13h1M10 13h1M34 13h1M38 13h1M1 14h1M5 14h1M10 14h1M30 14h1M34 14h1M38 14h1M1 15h1M5 15h1M30 15h1M34 15h1M38 15h1M1 16h1M5 16h1M30 16h1M34 16h1M38 16h2M1 17h2M5 17h1M30 17h1M34 17h1M38 17h2M1 18h2M5 18h1M30 18h1M34 18h1M38 18h2M1 19h1M5 19h1M30 19h1M34 19h1M38 19h2M1 20h1M5 20h1M30 20h1M34 20h1M38 20h2M1 21h2M5 21h1M30 21h1M38 21h2M1 22h1M5 22h1M30 22h1M34 22h1M39 22h1M1 23h1M5 23h1M10 23h1M30 23h1M39 23h1M2 24h1M10 24h1M26 24h1M30 24h1M34 24h1M39 24h1M2 25h1M5 25h1M10 25h1M26 25h1M34 25h1M39 25h1M2 26h1M5 26h1M10 26h1M24 26h1M26 26h1M30 26h1M34 26h1M39 26h1M10 27h1M23 27h2M26 27h1M30 27h1M39 27h1M10 28h1M23 28h2M26 28h1M30 28h2M34 28h2M39 28h1M10 29h1M17 29h1M24 29h1M26 29h1M30 29h2M34 29h2M39 29h1M11 30h1M30 30h2M34 30h2M11 31h1M30 31h2M35 31h1M10 32h2M35 32h1M10 33h1M35 33h1M3 34h1M35 34h1M3 35h1M5 35h1M35 35h1M3 36h1M5 36h1M35 36h1M3 37h2M35 37h2M3 38h2M36 38h1M3 39h2M36 39h1" />
<path stroke="#dd0202" d="M2 0h2M5 0h4M11 0h5M17 0h5M23 0h6M31 0h3M35 0h3M39 0h1M2 1h2M6 1h3M11 1h5M26 1h4M31 1h3M35 1h3M39 1h1M2 2h2M6 2h3M11 2h3M28 2h6M35 2h3M39 2h1M2 3h2M6 3h3M11 3h2M29 3h5M35 3h3M39 3h1M2 4h2M6 4h3M11 4h1M30 4h4M35 4h3M39 4h1M2 5h3M6 5h3M30 5h4M35 5h3M39 5h1M2 6h3M6 6h3M31 6h3M35 6h3M39 6h1M2 7h3M6 7h3M31 7h3M35 7h3M39 7h1M2 8h3M6 8h3M31 8h3M35 8h3M39 8h1M0 9h1M2 9h3M6 9h3M31 9h3M35 9h3M39 9h1M0 10h1M2 10h3M6 10h3M31 10h3M35 10h3M39 10h1M0 11h1M2 11h3M6 11h3M31 11h3M35 11h3M39 11h1M0 12h1M2 12h3M6 12h3M31 12h3M35 12h3M39 12h1M0 13h1M2 13h3M6 13h4M31 13h3M35 13h3M39 13h1M0 14h1M3 14h2M6 14h4M31 14h3M35 14h3M39 14h1M0 15h1M4 15h1M6 15h4M31 15h3M35 15h3M39 15h1M0 16h1M2 16h1M6 16h3M29 16h1M31 16h3M35 16h3M0 17h1M6 17h3M29 17h1M31 17h3M35 17h3M0 18h1M4 18h1M6 18h2M29 18h1M31 18h3M35 18h3M0 19h1M3 19h2M6 19h1M31 19h3M35 19h3M0 20h1M4 20h1M31 20h3M35 20h3M0 21h1M4 21h1M31 21h2M0 22h1M4 22h1M6 22h1M29 22h1M31 22h2M35 22h4M0 23h1M4 23h1M6 23h2M11 23h1M27 23h3M36 23h3M0 24h2M6 24h4M11 24h3M27 24h3M32 24h2M36 24h3M0 25h2M6 25h4M11 25h4M25 25h1M27 25h2M32 25h2M36 25h3M0 26h2M4 26h1M6 26h4M11 26h4M25 26h1M27 26h2M32 26h2M36 26h3M0 27h1M6 27h4M11 27h5M25 27h1M27 27h2M36 27h3M0 28h1M9 28h1M11 28h6M25 28h1M27 28h2M32 28h2M36 28h3M0 29h1M11 29h6M18 29h1M25 29h1M27 29h2M32 29h2M36 29h3M0 30h1M12 30h4M28 30h2M32 30h2M36 30h4M0 31h1M12 31h3M29 31h1M32 31h3M36 31h4M0 32h1M12 32h2M33 32h2M36 32h4M0 33h1M34 33h1M36 33h4M0 34h3M34 34h1M36 34h4M0 35h3M4 35h1M36 35h4M0 36h3M4 36h1M36 36h4M0 37h3M37 37h3M0 38h3M37 38h3M0 39h3M5 39h1M37 39h3" />
<path stroke="#4d3304" d="M16 1h5M22 1h4M14 2h2M18 2h3M24 2h4M13 3h2M17 3h3M23 3h6M12 4h2M16 4h3M22 4h5M11 5h3M15 5h4M21 5h6M11 6h1M13 6h1M15 6h4M20 6h1M23 6h4M10 7h2M13 7h1M15 7h6M23 7h2M10 8h1M16 8h2M23 8h2M10 9h1M26 9h1M27 11h1" />
<path stroke="#4d3204" d="M21 1h1M21 2h1M12 6h1M14 6h1M21 6h2M12 7h1M14 7h1M21 7h2" />
<path stroke="#c20000" d="M9 2h2M5 4h1M9 4h1M5 5h1M9 5h1M5 6h1M9 6h1M5 7h1M9 7h1M5 8h1M9 8h1" />
<path stroke="#6e4805" d="M16 2h2M22 2h2M15 3h2M20 3h3M14 4h2M19 4h3M14 5h1M19 5h2M19 6h1M27 9h1" />
<path stroke="#462d03" d="M27 4h2M27 5h3M27 6h3M25 7h5M25 8h5M28 9h2M27 10h3M28 11h2M28 12h2M28 13h1" />
<path stroke="#342201" d="M29 4h1M30 10h1" />
<path stroke="#342101" d="M30 6h1M30 7h1M30 8h1M30 9h1M30 11h1M30 12h1M29 13h2M29 14h1M29 15h1" />
<path stroke="#000000" d="M11 8h2M11 9h3M18 9h4M24 9h2M10 10h1M22 10h1M25 10h2M10 11h1M13 11h2M18 11h3M26 11h1M10 12h1M12 12h1M15 12h1M17 12h1M21 12h1M26 12h2M11 13h1M15 13h1M17 13h1M21 13h1M27 13h1M11 14h1M15 14h1M17 14h1M20 14h2M28 14h1M10 15h2M14 15h2M17 15h1M19 15h3M28 15h1M9 16h1M11 16h1M14 16h2M17 16h1M19 16h3M23 16h4M28 16h1M9 17h1M12 17h1M14 17h4M19 17h4M27 17h2M8 18h8M17 18h1M20 18h2M24 18h2M28 18h1M7 19h1M16 19h5M26 19h1M29 19h1M6 20h1M9 20h4M25 20h1M27 20h1M29 20h1M6 21h1M8 21h1M13 21h4M24 21h1M29 21h1M7 22h1M10 22h3M14 22h1M17 22h8M27 22h2M8 23h2M12 23h2M15 23h1M23 23h1M26 23h1M14 24h1M16 24h1M23 24h1M25 24h1M15 25h1M17 25h1M22 25h1M24 25h1M15 26h1M17 26h1M21 26h1M23 26h1M1 27h5M16 27h1M18 27h3M22 27h1M17 28h1M21 28h2M5 29h2M8 29h2M19 29h1M22 29h1M4 30h1M7 30h1M10 30h1M18 30h1M22 30h1M4 31h1M6 31h1M10 31h1M4 32h1M7 32h3M4 33h1M7 33h1M9 33h1M4 34h3M9 34h1M6 35h1" />
<path stroke="#ffffff" d="M13 8h3M18 8h5M14 9h4M22 9h2M11 10h11M23 10h2M11 11h2M15 11h3M21 11h5M11 12h1M16 12h1M22 12h4M16 13h1M22 13h5M14 14h1M16 14h1M19 14h1M22 14h6M16 15h1M22 15h6M16 16h1M22 16h1M27 16h1M2 28h1M6 28h3M2 29h1M20 29h2M2 30h1M5 30h2M8 30h2M19 30h3M23 30h1M2 31h1M5 31h1M7 31h3M17 31h1M23 31h3M2 32h1M5 32h2M17 32h2M22 32h4M2 33h1M5 33h2M8 33h1M16 33h4M21 33h5M7 34h2M17 34h3M22 34h4M7 35h1M17 35h2M22 35h3M18 36h1M23 36h2M18 37h1M23 37h1M18 38h1M23 38h1M18 39h1M23 39h1" />
<path stroke="#a6dcee" d="M13 12h2M18 12h3M12 13h3M18 13h3M12 14h2M18 14h1M12 15h2M18 15h1M12 16h2M18 16h1M13 17h1M18 17h1M18 18h2" />
<path stroke="#fbfbff" d="M2 14h1M3 15h1M4 16h1M4 17h1M3 18h1M2 19h1M2 20h2M3 21h1M2 22h1M2 23h2M3 24h1M5 24h1M4 25h1M3 26h1" />
<path stroke="#dbd9d9" d="M2 15h1M3 16h1M3 17h1M3 22h1M4 24h1M3 25h1" />
<path stroke="#ff8a00" d="M10 16h1M10 17h2M23 17h4M16 18h1M22 18h2M26 18h2M8 19h8M21 19h5M27 19h2M7 20h2M13 20h12M26 20h1M28 20h1M7 21h1M9 21h4M17 21h7M25 21h4M8 22h2M13 22h1M25 22h2M14 23h1M24 23h2M15 24h1M24 24h1M16 25h1M23 25h1M16 26h1M22 26h1M17 27h1M21 27h1M18 28h3" />
<path stroke="#d20000" d="M33 21h1M35 21h3M33 22h1M31 23h3M35 23h1M31 24h1M35 24h1M29 25h1M35 25h1M29 26h1M35 26h1M29 27h1M32 27h2M29 28h1M29 29h1" />
<path stroke="#b60000" d="M34 21h1M34 23h1M30 25h2M31 26h1M31 27h1M34 27h2" />
<path stroke="#ff0000" d="M15 22h2M16 23h3M22 23h1M17 24h1M21 24h2M20 25h2M18 26h3" />
<path stroke="#fc809a" d="M19 23h3M18 24h3M18 25h2" />
<path stroke="#e4e9ef" d="M1 28h1M1 29h1M1 30h1M1 31h1M1 32h1M1 33h1" />
<path stroke="#edf3fa" d="M3 28h3M3 29h2M7 29h1M3 30h1M3 31h1M3 32h1M3 33h1" />
<path stroke="#799a0a" d="M23 29h1M16 30h1M26 30h2M15 31h1M28 31h1M14 32h1M32 32h1M33 33h1M10 34h1M33 34h1M8 35h2M34 35h1M6 36h2M9 36h1M34 36h1M5 37h1M10 37h1M34 37h1M5 38h2M11 38h1M35 38h1M6 39h1M12 39h1M35 39h1" />
<path stroke="#addc0c" d="M17 30h1M24 30h2M16 31h1M26 31h2M15 32h2M26 32h3M31 32h1M14 33h2M26 33h3M30 33h3M11 34h2M14 34h3M26 34h3M30 34h3M10 35h3M15 35h2M25 35h3M29 35h5M8 36h1M10 36h4M15 36h3M25 36h2M28 36h6M6 37h4M11 37h3M15 37h3M24 37h3M28 37h6M7 38h4M12 38h3M16 38h2M24 38h2M27 38h8M7 39h5M13 39h2M16 39h2M24 39h2M27 39h8" />
<path stroke="#c5b4a3" d="M18 31h1M20 31h3M19 32h1M21 32h1M20 33h1M20 34h2M19 35h2M19 36h1M21 36h2M20 37h2M19 38h2M22 38h1M19 39h1M21 39h2" />
<path stroke="#688507" d="M19 31h1M20 32h1M21 35h1M20 36h1M19 37h1M22 37h1M21 38h1M20 39h1" />
<path stroke="#729205" d="M29 32h2M11 33h3M29 33h1M13 34h1M29 34h1M13 35h2M28 35h1M14 36h1M27 36h1M14 37h1M27 37h1M15 38h1M26 38h1M15 39h1M26 39h1" />
</svg>