<svg xmlns="http://www.w3.org/2000/svg" viewBox="0 -0.5 40 40" shape-rendering="crispEdges">
<metadata>Made with Pixels to Svg https://codepen.io/shshaw/pen/XbxvNj</metadata>
<path stroke="#000000" d="M0 0h40M0 1h40M0 2h2M38 2h2M0 3h2M38 3h2M0 4h2M16 4h9M38 4h2M0 5h2M13 5h14M38 5h2M0 6h2M12 6h16M38 6h2M0 7h2M12 7h17M38 7h2M0 8h2M11 8h2M23 8h6M38 8h2M0 9h2M11 9h5M18 9h4M24 9h6M38 9h2M0 10h2M10 10h1M22 10h1M25 10h5M38 10h2M0 11h2M10 11h1M13 11h2M18 11h3M25 11h6M38 11h2M0 12h2M10 12h1M12 12h1M15 12h1M17 12h1M21 12h1M25 12h6M38 12h2M0 13h2M11 13h1M15 13h1M17 13h1M21 13h1M26 13h5M38 13h2M0 14h2M11 14h1M15 14h1M17 14h1M20 14h2M27 14h4M38 14h2M0 15h2M10 15h2M14 15h2M17 15h1M19 15h3M28 15h3M38 15h2M0 16h2M9 16h1M11 16h1M14 16h2M17 16h1M19 16h3M23 16h4M28 16h2M38 16h2M0 17h2M9 17h1M12 17h1M14 17h4M19 17h4M27 17h2M38 17h2M0 18h2M8 18h8M17 18h1M20 18h2M24 18h2M28 18h1M38 18h2M0 19h2M7 19h1M16 19h5M26 19h1M29 19h1M38 19h2M0 20h2M6 20h1M9 20h4M25 20h1M27 20h1M29 20h1M38 20h2M0 21h2M6 21h1M8 21h1M13 21h4M24 21h1M29 21h1M38 21h2M0 22h2M7 22h1M10 22h3M14 22h1M17 22h8M27 22h2M38 22h2M0 23h2M8 23h2M12 23h2M15 23h1M23 23h1M26 23h1M38 23h2M0 24h2M14 24h1M16 24h1M23 24h1M25 24h1M38 24h2M0 25h2M15 25h1M17 25h1M22 25h1M24 25h1M38 25h2M0 26h2M15 26h1M17 26h1M21 26h1M23 26h1M38 26h2M0 27h2M16 27h1M18 27h3M22 27h1M38 27h2M0 28h2M17 28h1M21 28h2M38 28h2M0 29h2M19 29h1M22 29h1M38 29h2M0 30h2M18 30h2M22 30h2M38 30h2M0 31h2M17 31h1M19 31h3M24 31h1M38 31h2M0 32h17M19 32h3M25 32h15M0 33h2M16 33h1M18 33h1M20 33h1M22 33h1M24 33h1M26 33h1M38 33h2M0 34h2M3 34h13M17 34h1M20 34h2M23 34h1M27 34h10M38 34h2M0 35h2M3 35h12M19 35h3M30 35h7M38 35h2M0 36h2M3 36h11M19 36h3M31 36h6M38 36h2M0 37h2M3 37h10M19 37h3M32 37h5M38 37h2M0 38h2M12 38h1M16 38h1M19 38h3M28 38h1M33 38h1M38 38h2M0 39h13M15 39h2M19 39h3M28 39h2M33 39h7" />
<path stroke="#ff0000" d="M2 2h36M2 3h36M2 4h14M25 4h13M2 5h11M27 5h11M2 6h10M28 6h10M2 7h10M29 7h9M2 8h9M29 8h9M2 9h9M30 9h8M2 10h8M30 10h8M2 11h8M31 11h7M2 12h8M31 12h7M2 13h9M31 13h7M2 14h9M31 14h7M2 15h8M31 15h7M2 16h7M30 16h8M2 17h7M29 17h9M2 18h6M29 18h9M2 19h5M30 19h8M2 20h4M30 20h8M2 21h4M30 21h8M2 22h5M15 22h2M29 22h9M2 23h6M10 23h2M16 23h3M22 23h1M27 23h11M2 24h12M17 24h1M21 24h2M26 24h12M2 25h13M20 25h2M25 25h13M2 26h13M18 26h3M24 26h14M2 27h14M23 27h15M2 28h15M23 28h15M2 29h17M23 29h15M2 30h16M24 30h14M2 31h15M18 31h1M22 31h2M25 31h13M17 32h2M22 32h3M17 33h1M23 33h1M25 33h1M25 34h2M17 35h2M22 35h8M15 36h4M22 36h9M14 37h5M22 37h10M14 38h2M17 38h2M22 38h5M29 38h4M14 39h1M17 39h2M22 39h5M30 39h3" />
<path stroke="#ffffff" d="M13 8h10M16 9h2M22 9h2M11 10h11M23 10h2M11 11h2M15 11h3M21 11h4M11 12h1M16 12h1M22 12h3M16 13h1M22 13h4M14 14h1M16 14h1M19 14h1M22 14h5M16 15h1M22 15h6M16 16h1M22 16h1M27 16h1M20 29h2M20 30h2" />
<path stroke="#c3d9f9" d="M13 12h2M18 12h3M12 13h3M18 13h3M12 14h2M18 14h1M12 15h2M18 15h1M12 16h2M18 16h1M13 17h1M18 17h1M18 18h2" />
<path stroke="#ff8a00" d="M10 16h1M10 17h2M23 17h4M16 18h1M22 18h2M26 18h2M8 19h8M21 19h5M27 19h2M7 20h2M13 20h12M26 20h1M28 20h1M7 21h1M9 21h4M17 21h7M25 21h4M8 22h2M13 22h1M25 22h2M14 23h1M24 23h2M15 24h1M24 24h1M16 25h1M23 25h1M16 26h1M22 26h1M17 27h1M21 27h1M18 28h3" />
<path stroke="#fc809a" d="M19 23h3M18 24h3M18 25h2" />
<path stroke="#44fff6" d="M2 33h14M27 33h11M2 34h1M37 34h1M2 35h1M37 35h1M2 36h1M37 36h1M2 37h1M37 37h1M2 38h10M34 38h4" />
<path stroke="#d30707" d="M19 33h1M21 33h1M16 34h1M18 34h2M22 34h1M24 34h1M15 35h2M14 36h1M13 37h1M13 38h1M27 38h1M13 39h1M27 39h1" />
</svg>