<svg xmlns="http://www.w3.org/2000/svg" viewBox="0 -0.5 40 40" shape-rendering="crispEdges">
<metadata>Made with Pixels to Svg https://codepen.io/shshaw/pen/XbxvNj</metadata>
<path stroke="#ffc446" d="M0 0h16M25 0h15M0 1h15M28 1h12M0 2h13M30 2h10M0 3h11M31 3h9M0 4h11M32 4h8M0 5h10M33 5h7M0 6h10M33 6h7M0 7h9M33 7h7M0 8h9M34 8h6M0 9h9M34 9h6M0 10h9M35 10h5M0 11h9M35 11h5M0 12h9M35 12h5M0 13h9M35 13h5M0 14h10M34 14h6M0 15h10M34 15h6M0 16h9M34 16h6M0 17h9M33 17h7M0 18h8M33 18h7M0 19h7M33 19h7M0 20h6M32 20h8M0 21h6M30 21h10M0 22h7M29 22h11M0 23h8M10 23h2M27 23h13M0 24h14M26 24h14M0 25h15M25 25h15M0 26h15M24 26h16M0 27h16M23 27h17M0 28h17M23 28h17M0 29h18M23 29h17M0 30h17M24 30h16M0 31h16M25 31h15M0 32h15M26 32h14M0 33h14M27 33h13M0 34h13M28 34h12M0 35h12M30 35h10M0 36h12M31 36h9M0 37h12M31 37h9M0 38h11M32 38h8M0 39h11M32 39h8" />
<path stroke="#000000" d="M16 0h9M15 1h13M16 2h4M23 2h7M11 3h2M17 3h2M23 3h8M11 4h3M16 4h1M19 4h1M22 4h10M10 5h4M16 5h1M19 5h1M22 5h11M10 6h3M17 6h2M23 6h10M9 7h4M16 7h4M23 7h10M9 8h25M9 9h25M9 10h3M13 10h1M15 10h1M17 10h1M19 10h1M21 10h1M23 10h1M25 10h10M9 11h2M26 11h9M9 12h2M12 12h4M18 12h4M25 12h10M9 13h2M12 13h1M15 13h1M18 13h1M21 13h1M25 13h10M10 14h1M25 14h9M10 15h1M13 15h2M19 15h2M26 15h8M9 16h1M11 16h1M13 16h2M19 16h2M23 16h11M9 17h1M12 17h1M15 17h3M22 17h1M27 17h6M8 18h8M17 18h1M21 18h1M24 18h2M28 18h5M7 19h1M16 19h5M26 19h1M29 19h4M6 20h1M9 20h4M25 20h1M27 20h1M29 20h3M6 21h1M8 21h1M13 21h4M24 21h1M29 21h1M7 22h1M10 22h3M14 22h11M27 22h2M8 23h2M12 23h2M15 23h9M26 23h1M14 24h1M16 24h8M25 24h1M15 25h1M17 25h2M22 25h1M24 25h1M15 26h1M17 26h2M21 26h1M23 26h1M16 27h1M18 27h3M22 27h1M17 28h1M21 28h2M18 29h1M22 29h1M17 30h1M20 30h1M23 30h1M16 31h1M20 31h1M24 31h1M15 32h1M18 32h5M25 32h1M14 33h13M13 34h15M12 35h18M12 36h1M14 36h13M30 36h1M12 37h1M14 37h13M30 37h1M11 38h1M14 38h13M31 38h1M11 39h1M14 39h14M31 39h1" />
<path stroke="#ff0000" d="M13 2h3M20 2h3M13 3h4M19 3h4M14 4h2M17 4h2M20 4h2M14 5h2M17 5h2M20 5h2M13 6h4M19 6h4M13 7h3M20 7h3M19 25h3M19 26h2" />
<path stroke="#ffffff" d="M12 10h1M14 10h1M16 10h1M18 10h1M20 10h1M22 10h1M24 10h1M11 11h15M11 12h1M16 12h2M22 12h3M11 13h1M13 13h2M16 13h2M19 13h2M22 13h3M11 14h14M11 15h2M15 15h4M21 15h5M12 16h1M15 16h4M21 16h2M13 17h2M18 17h4M18 18h3M19 29h3M18 30h2M21 30h2M17 31h3M21 31h3M16 32h2M23 32h2M13 36h1M27 36h3M13 37h1M27 37h3M12 38h2M27 38h4M12 39h2M28 39h3" />
<path stroke="#ff8a00" d="M10 16h1M10 17h2M23 17h4M16 18h1M22 18h2M26 18h2M8 19h8M21 19h5M27 19h2M7 20h2M13 20h12M26 20h1M28 20h1M7 21h1M9 21h4M17 21h7M25 21h4M8 22h2M13 22h1M25 22h2M14 23h1M24 23h2M15 24h1M24 24h1M16 25h1M23 25h1M16 26h1M22 26h1M17 27h1M21 27h1M18 28h3" />
</svg>