<svg xmlns="http://www.w3.org/2000/svg" viewBox="0 -0.5 40 40" shape-rendering="crispEdges">
<metadata>Made with Pixels to Svg https://codepen.io/shshaw/pen/XbxvNj</metadata>
<path stroke="#cac186" d="M0 0h12M16 0h24M0 1h11M15 1h1M20 1h2M25 1h15M0 2h10M19 2h1M26 2h14M0 3h9M25 3h1M31 3h9M0 4h8M30 4h1M33 4h7M0 5h8M15 5h1M32 5h1M34 5h6M0 6h8M13 6h1M33 6h1M35 6h5M0 7h9M12 7h1M34 7h1M36 7h4M0 8h10M23 8h1M34 8h1M36 8h4M0 9h12M18 9h1M24 9h1M34 9h1M36 9h4M0 10h11M22 10h1M25 10h1M34 10h1M36 10h4M0 11h11M13 11h1M18 11h1M26 11h1M33 11h1M35 11h5M0 12h11M12 12h1M15 12h1M17 12h1M21 12h1M26 12h1M29 12h1M35 12h5M0 13h12M15 13h1M17 13h1M21 13h1M27 13h1M29 13h4M35 13h5M0 14h12M15 14h1M17 14h1M20 14h1M28 14h1M30 14h3M36 14h4M0 15h11M14 15h1M17 15h1M19 15h1M28 15h1M30 15h4M37 15h3M0 16h10M11 16h1M14 16h1M17 16h1M19 16h1M23 16h1M28 16h1M30 16h5M36 16h4M0 17h10M12 17h1M14 17h1M19 17h1M27 17h1M30 17h10M0 18h9M17 18h1M20 18h1M24 18h1M28 18h1M30 18h10M0 19h8M16 19h1M26 19h1M29 19h1M31 19h9M0 20h7M9 20h1M25 20h1M27 20h1M29 20h1M31 20h9M0 21h7M8 21h1M13 21h1M24 21h1M29 21h1M31 21h9M0 22h8M10 22h1M14 22h1M17 22h1M27 22h1M30 22h10M0 23h9M11 23h2M15 23h1M23 23h1M26 23h1M28 23h12M0 24h15M16 24h1M23 24h1M25 24h1M27 24h13M0 25h16M17 25h1M22 25h1M24 25h1M26 25h14M0 26h16M17 26h1M21 26h1M23 26h1M25 26h15M0 27h17M18 27h1M22 27h1M24 27h16M0 28h18M21 28h1M24 28h16M0 29h20M22 29h1M24 29h16M0 30h19M22 30h1M25 30h15M0 31h18M23 31h1M26 31h14M0 32h17M19 32h1M22 32h1M25 32h1M27 32h13M0 33h17M20 33h1M22 33h1M26 33h1M28 33h12M0 34h16M19 34h1M23 34h1M27 34h1M31 34h9M0 35h15M20 35h1M22 35h1M26 35h1M30 35h1M33 35h7M0 36h14M16 36h1M19 36h1M23 36h1M25 36h1M31 36h1M34 36h6M0 37h13M17 37h1M24 37h1M32 37h1M34 37h6M0 38h13M16 38h1M28 38h1M33 38h1M35 38h5M0 39h13M15 39h1M28 39h1M33 39h1M35 39h5" />
<path stroke="#000000" d="M12 0h4M11 1h1M16 1h4M22 1h3M10 2h1M20 2h6M9 3h1M26 3h5M8 4h1M31 4h2M8 5h1M16 5h8M33 5h1M8 6h1M14 6h11M34 6h1M9 7h2M13 7h13M35 7h1M10 8h4M24 8h3M35 8h1M12 9h3M19 9h4M25 9h3M35 9h1M11 10h1M23 10h1M26 10h2M35 10h1M11 11h1M14 11h2M19 11h3M27 11h3M34 11h1M11 12h1M13 12h1M16 12h1M18 12h1M22 12h1M27 12h2M30 12h5M12 13h1M16 13h1M18 13h1M22 13h1M28 13h1M33 13h2M12 14h1M16 14h1M18 14h1M21 14h2M29 14h1M33 14h3M11 15h2M15 15h2M18 15h1M20 15h3M29 15h1M34 15h3M10 16h1M12 16h1M15 16h2M18 16h1M20 16h3M24 16h4M29 16h1M35 16h1M10 17h1M13 17h1M15 17h4M20 17h4M28 17h2M9 18h8M18 18h1M21 18h2M25 18h2M29 18h1M8 19h1M17 19h5M27 19h1M30 19h1M7 20h1M10 20h4M26 20h1M28 20h1M30 20h1M7 21h1M9 21h1M14 21h4M25 21h1M30 21h1M8 22h1M11 22h3M15 22h1M18 22h8M28 22h2M9 23h2M13 23h2M16 23h1M24 23h1M27 23h1M15 24h1M17 24h1M24 24h1M26 24h1M16 25h1M18 25h1M23 25h1M25 25h1M16 26h1M18 26h1M22 26h1M24 26h1M17 27h1M19 27h3M23 27h1M18 28h1M22 28h2M20 29h1M23 29h1M19 30h1M23 30h2M18 31h2M24 31h2M17 32h1M20 32h1M23 32h1M26 32h1M17 33h1M21 33h1M23 33h1M27 33h1M16 34h1M20 34h1M24 34h1M28 34h3M15 35h2M21 35h1M23 35h1M27 35h1M31 35h2M14 36h1M17 36h1M20 36h1M24 36h1M26 36h2M32 36h2M13 37h1M18 37h2M25 37h1M33 37h1M13 38h1M17 38h1M29 38h1M34 38h1M13 39h1M16 39h2M29 39h2M34 39h1" />
<path stroke="#0667f9" d="M12 1h3M11 2h8M10 3h15M9 4h21M9 5h6M24 5h8M9 6h4M25 6h8M11 7h1M26 7h8M27 8h7M28 9h6M28 10h6M30 11h3" />
<path stroke="#ffffff" d="M14 8h9M15 9h3M23 9h1M12 10h10M24 10h1M12 11h1M16 11h2M22 11h4M23 12h3M23 13h4M14 14h1M19 14h1M23 14h5M23 15h5M21 29h1M20 30h2M20 31h3M21 32h1M28 35h2M15 36h1M21 36h2M28 36h3M14 37h3M20 37h4M26 37h6M14 38h2M18 38h10M30 38h3M14 39h1M18 39h10M31 39h2" />
<path stroke="#c3d9f9" d="M14 12h1M19 12h2M13 13h2M19 13h2M13 14h1M13 15h1M13 16h1M19 18h1" />
<path stroke="#ff8a00" d="M11 17h1M24 17h3M23 18h1M27 18h1M9 19h7M22 19h4M28 19h1M8 20h1M14 20h11M10 21h3M18 21h6M26 21h3M9 22h1M26 22h1M25 23h1M19 28h2" />
<path stroke="#ff0000" d="M16 22h1M17 23h2M22 23h1M21 24h2M20 25h2M19 26h2M18 32h1M24 32h1M18 33h2M24 33h2M17 34h2M21 34h2M25 34h2M17 35h3M24 35h2M18 36h1" />
<path stroke="#fc809a" d="M19 23h3M18 24h3M19 25h1" />
</svg>