<svg xmlns="http://www.w3.org/2000/svg" viewBox="0 -0.5 40 40" shape-rendering="crispEdges">
<metadata>Made with Pixels to Svg https://codepen.io/shshaw/pen/XbxvNj</metadata>
<path stroke="#00ec08" d="M0 0h2M4 0h2M11 0h5M18 0h4M27 0h4M32 0h3M39 0h1M0 1h2M4 1h2M11 1h5M18 1h4M27 1h4M32 1h3M39 1h1M0 2h2M4 2h2M11 2h5M18 2h4M27 2h4M32 2h3M39 2h1M0 3h2M4 3h2M11 3h4M27 3h4M32 3h3M39 3h1M0 4h2M4 4h2M11 4h2M27 4h4M32 4h3M39 4h1M0 5h2M4 5h2M11 5h1M27 5h4M32 5h3M39 5h1M0 6h2M4 6h2M30 6h1M32 6h3M39 6h1M0 7h2M4 7h2M32 7h3M39 7h1M0 8h2M4 8h2M32 8h3M39 8h1M0 9h2M4 9h2M33 9h2M39 9h1M0 10h2M4 10h2M34 10h1M39 10h1M0 11h2M4 11h1M34 11h1M39 11h1M0 12h2M39 12h1M0 13h2M39 13h1M0 14h2M39 14h1M0 15h3M39 15h1M0 16h2M39 16h1M0 17h2M38 17h2M0 18h2M38 18h2M0 19h1M39 19h1M0 20h1M39 20h1M0 21h1M39 21h1M0 22h1M29 22h1M39 22h1M0 23h1M11 23h1M27 23h3M39 23h1M0 24h1M11 24h3M26 24h4M39 24h1M0 25h1M11 25h4M26 25h4M39 25h1M0 26h1M11 26h4M26 26h3M38 26h2M0 27h2M11 27h4M26 27h3M38 27h2M0 28h2M11 28h4M26 28h4M38 28h2M0 29h2M11 29h4M17 29h2M26 29h4M38 29h2M0 30h2M11 30h4M17 30h1M26 30h4M31 30h1M38 30h2M0 31h2M4 31h2M11 31h4M26 31h4M31 31h2M38 31h2M0 32h2M4 32h2M11 32h4M26 32h4M31 32h4M38 32h2M0 33h2M4 33h2M11 33h4M27 33h3M31 33h4M38 33h2M0 34h2M4 34h2M11 34h4M31 34h4M38 34h2M0 35h2M4 35h2M11 35h3M32 35h3M38 35h2M0 36h2M4 36h2M11 36h2M33 36h2M38 36h2M0 37h2M4 37h2M11 37h1M33 37h2M38 37h2M0 38h2M4 38h2M11 38h1M34 38h1M38 38h2M0 39h2M4 39h2M11 39h1M34 39h1M38 39h2" />
<path stroke="#f9b800" d="M2 0h2M6 0h5M16 0h2M22 0h5M31 0h1M35 0h4M2 1h2M6 1h5M16 1h2M22 1h5M31 1h1M35 1h4M2 2h2M6 2h5M16 2h2M22 2h5M31 2h1M35 2h4M2 3h2M6 3h5M22 3h5M31 3h1M35 3h4M2 4h2M6 4h5M24 4h3M31 4h1M35 4h4M2 5h2M6 5h5M31 5h1M35 5h4M2 6h2M6 6h5M31 6h1M35 6h4M2 7h2M6 7h4M31 7h1M35 7h4M2 8h2M6 8h2M35 8h4M2 9h2M6 9h1M35 9h4M2 10h2M35 10h4M2 11h2M35 11h4M2 12h2M35 12h4M2 13h2M35 13h4M2 14h1M36 14h3M37 15h2M37 16h2M10 23h1M9 24h2M10 25h1M25 25h1M10 26h1M24 26h2M10 27h1M15 27h1M23 27h3M9 28h2M15 28h2M23 28h3M2 29h1M9 29h2M15 29h2M23 29h3M30 29h1M2 30h2M8 30h3M15 30h2M24 30h2M30 30h1M37 30h1M2 31h2M6 31h5M15 31h2M25 31h1M30 31h1M36 31h2M2 32h2M6 32h5M15 32h1M30 32h1M35 32h3M2 33h2M6 33h5M15 33h1M30 33h1M35 33h3M2 34h2M6 34h5M30 34h1M35 34h3M2 35h2M6 35h5M35 35h3M2 36h2M6 36h5M35 36h3M2 37h2M6 37h5M35 37h3M2 38h2M6 38h5M35 38h3M2 39h2M6 39h5M35 39h3" />
<path stroke="#000000" d="M15 3h7M13 4h2M22 4h2M12 5h1M17 5h2M24 5h3M11 6h1M16 6h1M19 6h1M27 6h3M10 7h1M15 7h1M20 7h1M30 7h1M8 8h2M12 8h1M31 8h1M7 9h1M11 9h1M17 9h1M24 9h1M32 9h1M6 10h1M10 10h1M13 10h2M16 10h1M18 10h1M20 10h2M25 10h1M33 10h1M5 11h1M10 11h1M12 11h1M15 11h1M19 11h1M22 11h1M26 11h1M33 11h1M4 12h1M10 12h2M15 12h1M19 12h1M23 12h1M26 12h1M34 12h1M4 13h1M11 13h1M13 13h1M15 13h1M17 13h1M19 13h1M21 13h1M23 13h1M27 13h1M34 13h1M3 14h1M11 14h1M13 14h1M15 14h1M17 14h1M19 14h1M21 14h1M23 14h1M28 14h1M35 14h1M3 15h1M10 15h2M13 15h1M15 15h1M17 15h1M19 15h1M21 15h1M23 15h1M28 15h1M36 15h1M2 16h1M9 16h1M11 16h1M15 16h1M19 16h1M23 16h4M28 16h1M36 16h1M2 17h1M9 17h1M12 17h1M15 17h2M18 17h2M22 17h1M27 17h2M37 17h1M2 18h1M8 18h8M17 18h1M20 18h2M24 18h2M28 18h1M37 18h1M1 19h1M7 19h1M16 19h5M26 19h1M29 19h1M38 19h1M1 20h1M6 20h1M9 20h4M25 20h1M27 20h1M29 20h1M38 20h1M1 21h1M6 21h1M8 21h1M13 21h4M24 21h1M29 21h2M38 21h1M1 22h1M7 22h1M10 22h3M14 22h1M17 22h8M27 22h2M30 22h1M38 22h1M1 23h1M8 23h2M12 23h2M15 23h1M23 23h1M26 23h1M30 23h1M38 23h1M1 24h1M8 24h1M14 24h1M16 24h1M23 24h1M25 24h1M30 24h1M38 24h1M1 25h1M9 25h1M15 25h1M17 25h1M22 25h1M24 25h1M30 25h1M38 25h1M1 26h1M9 26h1M15 26h1M17 26h1M21 26h1M23 26h1M29 26h1M37 26h1M2 27h1M9 27h1M16 27h1M18 27h3M22 27h1M29 27h1M37 27h1M2 28h1M8 28h1M17 28h1M21 28h2M30 28h1M37 28h1M3 29h1M8 29h1M19 29h1M22 29h1M31 29h1M37 29h1M4 30h4M18 30h1M22 30h2M32 30h1M36 30h1M17 31h2M23 31h2M33 31h3M16 32h1M19 32h1M22 32h1M25 32h1M16 33h1M20 33h1M22 33h1M26 33h1M15 34h1M19 34h1M23 34h1M27 34h3M14 35h2M20 35h1M22 35h1M26 35h1M30 35h2M13 36h1M16 36h1M19 36h1M23 36h1M25 36h2M31 36h2M12 37h1M17 37h2M24 37h1M32 37h1M12 38h1M16 38h1M28 38h1M33 38h1M12 39h1M15 39h2M28 39h2M33 39h1" />
<path stroke="#03c8fe" d="M15 4h7M13 5h3M20 5h4M12 6h3M17 6h2M21 6h4M11 7h4M16 7h4M21 7h5M10 8h2M13 8h4M18 8h9M8 9h3M12 9h1M15 9h1M19 9h1M22 9h2M25 9h4M7 10h3M11 10h1M23 10h1M26 10h4M6 11h4M24 11h1M27 11h4M5 12h5M25 12h1M27 12h5M5 13h5M25 13h1M28 13h4M4 14h5M25 14h2M29 14h3M4 15h4M25 15h2M29 15h4M3 16h5M29 16h5M3 17h4M29 17h5M3 18h4M29 18h6M2 19h5M30 19h5M2 20h4M31 20h5M2 21h4M31 21h5M2 22h4M31 22h5M2 23h5M31 23h5M2 24h5M31 24h4M2 25h5M31 25h4M2 26h5M31 26h4M3 27h4M31 27h4M3 28h2M32 28h3M4 29h1M19 30h3M19 31h4M20 32h2M27 35h1M14 36h2M20 36h3M27 36h3M13 37h4M19 37h5M25 37h6M13 38h2M17 38h10M29 38h3M13 39h1M17 39h10M30 39h2" />
<path stroke="#04a8d5" d="M16 5h1M15 6h1M24 10h1M25 11h1M10 13h1M26 13h1M9 14h2M27 14h1M8 15h2M27 15h1M8 16h1M27 16h1M7 17h2M7 18h1M18 18h2M30 20h1M6 22h1M7 23h1M7 24h1M8 25h1M30 26h1M30 27h1M31 28h1M20 29h2M32 29h1M15 38h1M27 38h1M14 39h1M27 39h1" />
<path stroke="#5bd8fa" d="M19 5h1M20 6h1M25 6h2M26 7h4M27 8h4M29 9h3M30 10h3M31 11h2M32 12h2M32 13h2M32 14h3M33 15h3M10 16h1M34 16h2M10 17h2M23 17h4M34 17h3M16 18h1M22 18h2M26 18h2M35 18h2M8 19h8M21 19h5M27 19h2M35 19h3M7 20h2M13 20h12M26 20h1M28 20h1M36 20h2M7 21h1M9 21h4M17 21h7M25 21h4M36 21h2M8 22h2M13 22h1M25 22h2M36 22h2M14 23h1M24 23h2M36 23h2M15 24h1M24 24h1M35 24h3M7 25h1M16 25h1M23 25h1M35 25h3M7 26h2M16 26h1M22 26h1M35 26h2M7 27h2M17 27h1M21 27h1M35 27h2M5 28h3M18 28h2M35 28h2M5 29h3M33 29h4M33 30h3M28 35h2M30 36h1M31 37h1M32 38h1M32 39h1" />
<path stroke="#3ed3fc" d="M17 8h1M13 9h2M16 9h1M18 9h1M20 9h2M12 10h1M15 10h1M19 10h1M22 10h1M11 11h1M23 11h1M24 12h1M24 13h1M24 14h1M24 15h1" />
<path stroke="#ffffff" d="M17 10h1M13 11h2M16 11h3M20 11h2M12 12h3M16 12h3M20 12h3M12 13h1M14 13h1M16 13h1M18 13h1M20 13h1M22 13h1M12 14h1M14 14h1M16 14h1M18 14h1M20 14h1M22 14h1M12 15h1M14 15h1M16 15h1M18 15h1M20 15h1M22 15h1M12 16h3M16 16h3M20 16h3M13 17h2M17 17h1M20 17h2" />
<path stroke="#ff0000" d="M15 22h2M16 23h3M22 23h1M17 24h1M21 24h2M20 25h2M18 26h3" />
<path stroke="#fc809a" d="M19 23h3M18 24h3M18 25h2" />
<path stroke="#5ad8fa" d="M20 28h1" />
<path stroke="#ad0feb" d="M17 32h2M23 32h2M17 33h3M21 33h1M23 33h3M16 34h3M20 34h3M24 34h3M16 35h4M21 35h1M23 35h3M17 36h2M24 36h1" />
</svg>