<svg xmlns="http://www.w3.org/2000/svg" viewBox="0 -0.5 40 40" shape-rendering="crispEdges">
<metadata>Made with Pixels to Svg https://codepen.io/shshaw/pen/XbxvNj</metadata>
<path stroke="#7554a5" d="M0 0h8M0 1h8M0 2h7M0 3h6M0 4h5M0 5h3M0 6h2" />
<path stroke="#7354a5" d="M8 0h1M8 1h1M7 2h1M6 3h1M5 4h1M3 5h3M2 6h3M0 7h3M0 8h1M14 26h1M14 27h2M14 28h3M14 29h4M14 30h4M15 31h2M11 35h1" />
<path stroke="#7254a5" d="M9 0h1M8 2h1M7 3h1M6 4h1M5 6h1M3 7h1M1 8h1M14 25h1" />
<path stroke="#6e51a0" d="M10 0h1" />
<path stroke="#5f4993" d="M11 0h1M9 37h1" />
<path stroke="#473e7e" d="M12 0h1" />
<path stroke="#3a3874" d="M13 0h1" />
<path stroke="#383872" d="M14 0h1M14 1h2M13 2h2M13 3h1M12 4h2M7 10h1M5 11h1M7 11h1M4 12h2M2 13h1" />
<path stroke="#373772" d="M15 0h1" />
<path stroke="#35346d" d="M16 0h1" />
<path stroke="#2e2d62" d="M17 0h1" />
<path stroke="#2a2959" d="M18 0h1" />
<path stroke="#252551" d="M19 0h1M0 26h1M0 27h1M1 29h1M2 32h1" />
<path stroke="#23234e" d="M20 0h1M26 1h1M30 6h1M31 8h1M32 10h1M33 13h1M32 30h1M31 31h1M2 33h1M5 38h1" />
<path stroke="#23234f" d="M21 0h1M32 11h1" />
<path stroke="#242450" d="M22 0h2M23 1h1M25 1h1M25 2h1M26 3h1M27 4h1M31 10h1M31 11h1" />
<path stroke="#252550" d="M24 0h1M24 1h1M24 2h1M25 3h1M26 4h1M25 25h2M24 26h3M23 27h4M0 28h1M23 28h4M0 29h1M23 29h3M24 30h2" />
<path stroke="#24244f" d="M25 0h1M26 2h1M27 3h1M28 4h1M29 5h1M30 7h1M31 9h1M32 12h1M32 29h1M0 30h1M1 31h1" />
<path stroke="#22224c" d="M26 0h1M30 5h1M31 7h1M32 9h1M33 12h1M34 15h1M35 21h1M35 22h1M35 23h1M0 31h1M1 32h1M30 33h1M4 37h1" />
<path stroke="#202045" d="M27 0h1M31 5h1M32 7h1M33 9h1M34 12h1M35 15h1M36 21h1M31 33h1" />
<path stroke="#1d1d40" d="M28 0h1M35 12h1M36 15h1M37 21h1M32 33h1M0 36h1M4 39h1" />
<path stroke="#1d1d3e" d="M29 0h11M30 1h10M31 2h9M32 3h8M32 4h8M33 5h7M33 6h7M34 7h6M34 8h6M35 9h5M35 10h5M35 11h5M36 12h4M36 13h4M36 14h4M37 15h3M37 16h3M37 17h3M37 18h3M37 19h3M37 20h3M38 21h2M38 22h2M38 23h2M38 24h2M38 25h2M38 26h2M35 27h5M35 28h5M35 29h5M35 30h5M35 31h5M35 32h3M33 33h5M32 34h6M32 35h6M33 36h5M0 37h1M33 37h5M0 38h1M34 38h4M0 39h1M34 39h4" />
<path stroke="#7153a4" d="M9 1h1M6 5h1M4 7h1M2 8h1M10 35h1" />
<path stroke="#684f9c" d="M10 1h1" />
<path stroke="#544489" d="M11 1h1M8 5h1M8 33h1" />
<path stroke="#403b78" d="M12 1h1" />
<path stroke="#393873" d="M13 1h1M12 3h1M11 4h1M9 10h1M4 11h1M8 11h2M6 12h1M8 12h2M6 13h1M8 13h1M3 14h1M6 14h1M3 15h1M6 15h1M3 16h1M6 16h1M3 17h1M6 17h1M3 18h1M3 19h1M3 20h1M3 21h1M6 33h1" />
<path stroke="#373670" d="M16 1h1" />
<path stroke="#34336b" d="M17 1h1M5 34h1M6 36h1" />
<path stroke="#302f65" d="M18 1h1" />
<path stroke="#ff8e8e" d="M19 1h4M17 2h2M23 2h1M15 3h2M24 3h1M14 4h1M25 4h1M10 5h4M17 5h6M24 5h5M9 6h1M14 6h1M16 6h1M23 6h1M29 6h1M9 7h1M29 7h1M9 8h1M30 8h1M30 9h1M12 10h4M17 10h5M30 10h1M16 11h1M22 11h1M29 11h2M10 12h1M16 12h1M22 12h1M29 12h1M31 12h1M9 13h1M16 13h1M22 13h1M29 13h1M32 13h1M8 14h1M16 14h1M22 14h1M28 14h1M30 14h1M33 14h1M8 15h1M16 15h1M22 15h1M28 15h1M30 15h1M33 15h1M7 16h1M16 16h1M22 16h1M28 16h1M30 16h1M34 16h1M7 17h1M30 17h1M34 17h1M6 18h1M30 18h1M34 18h1M6 19h1M30 19h1M34 19h1M30 20h1M34 20h1M30 21h1M34 21h1M30 22h1M34 22h1M6 23h1M29 23h1M34 23h1M6 24h1M29 24h1M34 24h1M6 25h1M28 25h1M34 25h1M6 26h1M27 26h2M33 26h1M6 27h1M13 27h1M27 27h1M33 27h1M7 28h1M13 28h1M27 28h1M32 28h1M7 29h1M13 29h1M26 29h1M31 29h1M7 30h1M13 30h1M26 30h1M31 30h1M8 31h1M14 31h1M25 31h1M30 31h1M8 32h1M15 32h1M26 32h1M30 32h1M9 33h1M16 33h1M27 33h1M29 33h1M10 34h2M17 34h1M30 34h1M12 35h2M18 35h3M29 35h1M31 35h1M11 36h1M14 36h1M20 36h4M28 36h1M32 36h1M10 37h1M13 37h1M15 37h2M24 37h4M31 37h2M9 38h1M12 38h1M17 38h3M30 38h1M8 39h1M11 39h1M20 39h10" />
<path stroke="#21214a" d="M27 1h1M35 17h1M36 23h1M35 24h1M33 30h1M31 32h1M2 34h1" />
<path stroke="#1f1f44" d="M28 1h1M29 2h1M34 26h1M32 32h1M1 34h1M3 37h1" />
<path stroke="#1d1d3f" d="M29 1h1M30 2h1M31 3h1M32 5h1M33 7h1M34 9h1M37 26h1M34 32h1M38 32h1M38 35h1M1 36h1M38 36h1M1 37h1M1 38h1M1 39h3" />
<path stroke="#6d51a1" d="M9 2h1M3 8h1" />
<path stroke="#604a94" d="M10 2h1" />
<path stroke="#493f80" d="M11 2h1M8 6h1M5 9h1M3 10h1" />
<path stroke="#3b3975" d="M12 2h1M5 10h1M3 11h1M7 35h1" />
<path stroke="#383873" d="M15 2h2M14 3h1M8 9h1M6 10h1M8 10h1M6 11h1M2 12h2M3 13h1" />
<path stroke="#fab0b0" d="M19 2h3M17 3h3M21 3h2M22 4h2M12 6h2M18 6h4M25 6h3M14 7h1M19 7h4M25 7h4M14 8h1M21 8h2M25 8h4M15 9h1M21 9h1M25 9h5M26 10h4M26 11h3M25 12h4M10 13h1M27 13h2M9 14h1M8 16h1M31 16h2M31 17h3M31 18h3M31 19h3M31 20h3M32 21h2M32 22h2M32 23h2M31 24h3M7 25h1M30 25h3M7 26h4M29 26h1M31 26h1M7 27h5M30 27h2M8 28h1M10 28h2M29 28h2M8 29h2M11 29h1M28 29h2M8 30h3M28 30h3M9 31h5M28 31h2M9 32h3M13 32h1M29 32h1M10 33h3M14 33h1M13 34h3M15 35h2M16 36h3M30 36h2M11 37h1M17 37h7M28 37h3M10 38h2M20 38h10M9 39h2" />
<path stroke="#fec7c7" d="M22 2h1M23 3h1M24 4h1M11 6h1M17 6h1M22 6h1M28 6h1M16 7h1M23 7h1M16 8h1M29 8h1M17 9h1M23 9h1M31 13h1M32 14h1M33 16h1M33 25h1M32 26h1M32 27h1M12 28h1M31 28h1M12 29h1M30 29h1M14 32h1M15 33h1M12 34h1M16 34h1M14 35h1M17 35h1M30 35h1M15 36h1M19 36h1M29 36h1" />
<path stroke="#22224d" d="M27 2h1M28 3h1M29 4h1" />
<path stroke="#212149" d="M28 2h1M29 3h1M31 6h1M32 8h1M33 10h1M34 13h1M35 16h1M36 24h1M3 36h1M39 38h1" />
<path stroke="#6e51a1" d="M8 3h1" />
<path stroke="#624b96" d="M9 3h1M6 7h1" />
<path stroke="#504285" d="M10 3h1" />
<path stroke="#3f3a78" d="M11 3h1M8 7h1M6 9h1" />
<path stroke="#fdabab" d="M20 3h1M20 4h2M11 7h3M17 7h2M11 8h3M18 8h3M13 9h2M19 9h2M24 10h2M23 11h3M24 12h1M24 13h3M25 14h3M31 14h1M32 15h1" />
<path stroke="#1f1f43" d="M30 3h1M34 11h1M35 14h1M36 18h1M36 19h1M36 20h1M34 27h1M34 28h1M34 29h1" />
<path stroke="#6f52a2" d="M7 4h1" />
<path stroke="#634b96" d="M8 4h1" />
<path stroke="#514286" d="M9 4h1" />
<path stroke="#413b79" d="M10 4h1M7 8h1M6 30h1" />
<path stroke="#fa9e9e" d="M15 4h5M15 5h1M10 6h1M10 7h1M10 8h1M17 8h1M23 8h1M10 9h3M18 9h1M22 9h1M11 10h1M22 10h1M23 12h1M23 13h1M10 14h1M23 14h2M9 15h1M23 15h5M31 15h1M27 16h1M8 17h1M7 18h1M31 21h1M31 22h1M30 23h2M7 24h1M30 24h1M8 25h4M29 25h1M11 26h2M30 26h1M12 27h1M28 27h2M9 28h1M28 28h1M10 29h1M27 29h1M11 30h2M27 30h1M26 31h2M12 32h1M27 32h2M13 33h1M28 33h1M12 37h1" />
<path stroke="#202048" d="M30 4h1M36 22h1" />
<path stroke="#1e1e42" d="M31 4h1M32 6h1M33 8h1M34 10h1M35 13h1M36 16h1M0 34h1M31 34h1M1 35h1M2 36h1M3 38h1" />
<path stroke="#694f9c" d="M7 5h1" />
<path stroke="#423c7a" d="M9 5h1" />
<path stroke="#dc5656" d="M14 5h1M16 5h1M23 5h1M15 6h1M24 6h1M15 7h1M24 7h1M15 8h1M24 8h1M9 9h1M16 9h1M24 9h1M10 10h1M16 10h1M23 10h1M10 11h3M15 11h1M17 11h1M21 11h1M11 12h1M30 12h1M30 13h1M29 14h1M29 15h1M29 16h1M29 17h1M29 18h1M6 22h1M29 22h1M7 23h1M10 23h2M27 23h2M8 24h6M26 24h3M12 25h2M27 25h1M13 26h1M12 36h2" />
<path stroke="#6d51a0" d="M6 6h1M5 7h1M1 9h1" />
<path stroke="#5f4a93" d="M7 6h1M5 8h1M1 10h1" />
<path stroke="#504185" d="M7 7h1" />
<path stroke="#684e9b" d="M4 8h1M2 9h1" />
<path stroke="#504286" d="M6 8h1" />
<path stroke="#393874" d="M8 8h1M7 9h1M1 12h1" />
<path stroke="#7053a3" d="M0 9h1" />
<path stroke="#604a93" d="M3 9h1" />
<path stroke="#544388" d="M4 9h1M2 10h1" />
<path stroke="#654c97" d="M0 10h1" />
<path stroke="#413a79" d="M4 10h1" />
<path stroke="#4c4081" d="M0 11h1M8 36h1" />
<path stroke="#483e7e" d="M1 11h1" />
<path stroke="#403a79" d="M2 11h1" />
<path stroke="#000000" d="M13 11h2M18 11h3M12 12h1M15 12h1M17 12h1M21 12h1M11 13h1M15 13h1M17 13h1M21 13h1M11 14h1M15 14h1M17 14h1M21 14h1M10 15h2M15 15h1M17 15h1M21 15h1M9 16h1M11 16h1M15 16h1M17 16h1M21 16h1M23 16h4M9 17h1M12 17h1M15 17h3M21 17h2M27 17h2M8 18h8M17 18h1M20 18h2M24 18h2M28 18h1M7 19h1M16 19h5M26 19h1M29 19h1M6 20h1M9 20h4M25 20h1M27 20h1M29 20h1M6 21h1M8 21h1M13 21h4M24 21h1M29 21h1M7 22h1M10 22h3M14 22h1M17 22h8M27 22h2M8 23h2M12 23h2M15 23h1M23 23h1M26 23h1M14 24h1M16 24h1M23 24h1M25 24h1M15 25h1M17 25h1M22 25h1M24 25h1M15 26h1M17 26h1M21 26h1M23 26h1M16 27h1M18 27h3M22 27h1M17 28h1M21 28h2M19 29h1M22 29h1M18 30h1M22 30h2M17 31h1M23 31h2M16 32h2M23 32h3M17 33h1M23 33h2M23 34h2M27 34h1M29 34h1M23 35h2M27 35h1M24 36h1M26 36h2M14 37h1M15 38h1M33 38h1M12 39h1M15 39h2M18 39h2M33 39h1" />
<path stroke="#21214b" d="M33 11h1M34 14h1M32 31h1" />
<path stroke="#3a3873" d="M0 12h1M5 23h1" />
<path stroke="#393872" d="M7 12h1M4 13h2M7 13h1M4 14h2M7 14h1M4 15h2M7 15h1M4 16h2M4 17h2M4 18h2M4 19h2M4 20h2M4 21h2M4 22h2M4 23h1M4 24h1M4 25h1M4 26h1M4 27h1M5 30h1" />
<path stroke="#ffffff" d="M13 12h2M18 12h3M12 13h3M18 13h3M13 17h2M18 17h3M18 18h2" />
<path stroke="#34346c" d="M0 13h1" />
<path stroke="#363670" d="M1 13h1" />
<path stroke="#2f2e62" d="M0 14h1" />
<path stroke="#35346c" d="M1 14h1" />
<path stroke="#383771" d="M2 14h1M2 15h1M2 16h1M2 17h1M2 18h1M2 19h1M2 20h1M3 23h1M3 24h1M3 25h1M3 26h1M4 28h1M5 31h1" />
<path stroke="#ff7d9e" d="M12 14h3M19 14h1M12 15h1M14 15h1M18 15h1M20 15h1M12 16h3M19 16h1" />
<path stroke="#ff7da0" d="M18 14h1M20 14h1M18 16h1M20 16h1" />
<path stroke="#2c2b5d" d="M0 15h1" />
<path stroke="#34336a" d="M1 15h1M1 16h1M1 17h1M1 18h1M1 19h1M2 24h1M2 25h1" />
<path stroke="#b20000" d="M13 15h1M19 15h1" />
<path stroke="#2c2b5c" d="M0 16h1M0 18h1M0 19h1" />
<path stroke="#ff8a00" d="M10 16h1M10 17h2M23 17h4M16 18h1M22 18h2M26 18h2M8 19h8M21 19h5M27 19h2M7 20h2M13 20h12M26 20h1M28 20h1M7 21h1M9 21h4M17 21h7M25 21h4M8 22h2M13 22h1M25 22h2M14 23h1M24 23h2M15 24h1M24 24h1M16 25h1M23 25h1M16 26h1M22 26h1M17 27h1M21 27h1M18 28h3" />
<path stroke="#2c2b5b" d="M0 17h1" />
<path stroke="#1e1e43" d="M36 17h1M37 23h1M37 24h1M34 30h1M0 33h1M38 38h1M38 39h1" />
<path stroke="#22224b" d="M35 18h1M35 19h1M35 20h1M33 28h1M33 29h1" />
<path stroke="#2b2b5c" d="M0 20h1" />
<path stroke="#33336a" d="M1 20h1" />
<path stroke="#2b2a5c" d="M0 21h1" />
<path stroke="#333269" d="M1 21h1M2 26h1M3 29h1M4 32h1" />
<path stroke="#373671" d="M2 21h1M4 29h1M5 32h1" />
<path stroke="#292859" d="M0 22h1" />
<path stroke="#313066" d="M1 22h1M2 27h1M3 30h1M6 37h1" />
<path stroke="#36356f" d="M2 22h1M4 30h1M5 33h1M6 35h1" />
<path stroke="#383772" d="M3 22h1" />
<path stroke="#fffaea" d="M15 22h1M17 23h1M19 23h1M21 23h1M21 25h1M18 26h1M20 26h1" />
<path stroke="#ff0000" d="M16 22h1M16 23h1M18 23h1M22 23h1M17 24h1M21 24h2M20 25h1M19 26h1" />
<path stroke="#1d1d42" d="M37 22h1M35 26h1M33 32h1M2 38h1" />
<path stroke="#272754" d="M0 23h1M1 28h1" />
<path stroke="#2d2c5e" d="M1 23h1M3 31h1" />
<path stroke="#35346b" d="M2 23h1M3 28h1M4 31h1" />
<path stroke="#fc809a" d="M20 23h1M18 24h3M18 25h2" />
<path stroke="#262551" d="M0 24h1M0 25h1M6 39h1" />
<path stroke="#2b2a5a" d="M1 24h1M1 25h1" />
<path stroke="#3b3874" d="M5 24h1M5 29h1M6 32h1M7 36h1" />
<path stroke="#3c3975" d="M5 25h1M5 26h1M5 27h1M5 28h1M6 31h1" />
<path stroke="#1f1f47" d="M35 25h2M0 32h1M39 33h1M39 34h1M39 37h1" />
<path stroke="#1d1d41" d="M37 25h1M36 26h1M39 32h1M38 33h1M38 34h1M39 35h1M39 36h1M2 37h1M38 37h1" />
<path stroke="#2a295a" d="M1 26h1" />
<path stroke="#292858" d="M1 27h1M2 30h1" />
<path stroke="#37366f" d="M3 27h1" />
<path stroke="#2d2c5f" d="M2 28h1" />
<path stroke="#4c4082" d="M6 28h1" />
<path stroke="#2a2a5b" d="M2 29h1" />
<path stroke="#483e7f" d="M6 29h1M7 32h1" />
<path stroke="#7454a6" d="M18 29h1" />
<path stroke="#033b7c" d="M20 29h2M19 31h2M22 31h1M19 33h2M22 33h1" />
<path stroke="#242451" d="M1 30h1" />
<path stroke="#052a55" d="M19 30h3M19 32h2M22 32h1M19 34h2M22 34h1" />
<path stroke="#262653" d="M2 31h1" />
<path stroke="#4d4083" d="M7 31h1" />
<path stroke="#b1abab" d="M18 31h1M21 31h1M18 33h1M21 33h1" />
<path stroke="#202047" d="M33 31h1" />
<path stroke="#1e1e41" d="M34 31h1" />
<path stroke="#2a2a5a" d="M3 32h1" />
<path stroke="#76797d" d="M18 32h1M21 32h1M18 34h1M21 34h1" />
<path stroke="#202049" d="M1 33h1" />
<path stroke="#292857" d="M3 33h1M5 37h1" />
<path stroke="#313065" d="M4 33h1M5 35h1" />
<path stroke="#413b78" d="M7 33h1" />
<path stroke="#342c2c" d="M25 33h2M25 34h2M28 34h1M21 35h2M25 35h2M28 35h1M25 36h1M13 38h2M16 38h1M31 38h2M13 39h2M17 39h1M30 39h3" />
<path stroke="#252552" d="M3 34h1M4 36h1" />
<path stroke="#2c2b5e" d="M4 34h1M5 36h1" />
<path stroke="#383671" d="M6 34h1" />
<path stroke="#3d3975" d="M7 34h1" />
<path stroke="#4e4184" d="M8 34h1" />
<path stroke="#664d99" d="M9 34h1M9 35h1" />
<path stroke="#1e1e44" d="M0 35h1" />
<path stroke="#1f1f45" d="M2 35h1M4 38h1" />
<path stroke="#23234d" d="M3 35h1" />
<path stroke="#292957" d="M4 35h1" />
<path stroke="#4d4182" d="M8 35h1" />
<path stroke="#644c98" d="M9 36h1" />
<path stroke="#7052a3" d="M10 36h1" />
<path stroke="#383670" d="M7 37h1" />
<path stroke="#483d7e" d="M8 37h1" />
<path stroke="#2b2a5b" d="M6 38h1" />
<path stroke="#333169" d="M7 38h1" />
<path stroke="#3f3976" d="M8 38h1" />
<path stroke="#201f46" d="M5 39h1" />
<path stroke="#2e2c60" d="M7 39h1" />
<path stroke="#22224a" d="M39 39h1" />
</svg>