<svg xmlns="http://www.w3.org/2000/svg" viewBox="0 -0.5 40 40" shape-rendering="crispEdges">
<metadata>Made with Pixels to Svg https://codepen.io/shshaw/pen/XbxvNj</metadata>
<path stroke="#fffef4" d="M0 0h13M16 0h3M26 0h14M0 1h10M29 1h11M0 2h9M31 2h9M0 3h8M35 3h5M0 4h8M36 4h4M0 5h7M37 5h3M0 6h4M37 6h3M0 7h3M37 7h3M0 8h2M36 8h4M0 9h3M35 9h5M0 10h4M35 10h5M0 11h4M34 11h6M0 12h4M34 12h6M0 13h5M35 13h5M0 14h6M36 14h4M0 15h6M36 15h4M0 16h6M36 16h4M0 17h5M35 17h5M0 18h4M5 18h1M36 18h4M0 19h3M4 19h3M35 19h1M37 19h3M0 20h6M34 20h2M37 20h3M0 21h6M35 21h5M0 22h7M36 22h4M0 23h8M10 23h3M37 23h3M0 24h12M38 24h2M0 25h10M39 25h1M0 26h9M0 27h4M0 28h3M0 29h3M0 30h3M36 30h1M0 31h1M36 31h2M36 32h3M37 33h3M0 34h1M37 34h3M0 35h4M37 35h3M0 36h5M37 36h3M0 37h6M38 37h2M0 38h7M38 38h2M0 39h7M38 39h2" />
<path stroke="#000000" d="M13 0h3M19 0h7M10 1h3M16 1h3M26 1h3M9 2h1M17 2h1M29 2h2M8 3h1M16 3h1M31 3h4M8 4h1M31 4h1M35 4h1M7 5h1M30 5h1M34 5h1M36 5h1M4 6h1M6 6h2M30 6h1M33 6h2M36 6h1M3 7h1M7 7h1M30 7h1M36 7h1M2 8h1M7 8h1M31 8h1M35 8h1M3 9h5M28 9h1M32 9h1M34 9h1M4 10h1M6 10h2M34 10h1M4 11h1M6 11h2M12 11h3M18 11h3M28 11h1M32 11h2M4 12h1M8 12h1M11 12h1M15 12h1M17 12h1M21 12h1M29 12h5M5 13h4M11 13h1M15 13h1M17 13h1M21 13h1M30 13h1M34 13h1M6 14h1M8 14h1M11 14h1M15 14h1M17 14h1M21 14h1M29 14h1M35 14h1M6 15h1M8 15h1M11 15h1M15 15h1M17 15h1M21 15h1M29 15h1M35 15h1M6 16h1M9 16h1M11 16h1M13 16h3M17 16h3M21 16h1M23 16h4M29 16h1M32 16h2M35 16h1M5 17h2M9 17h1M12 17h8M21 17h1M27 17h1M29 17h1M34 17h1M4 18h1M6 18h1M8 18h8M17 18h4M24 18h2M28 18h2M35 18h1M3 19h1M7 19h1M16 19h5M26 19h1M29 19h2M34 19h1M36 19h1M6 20h1M9 20h4M25 20h1M27 20h1M29 20h1M31 20h3M36 20h1M6 21h1M8 21h1M13 21h4M24 21h1M29 21h1M34 21h1M7 22h1M10 22h3M14 22h11M27 22h4M35 22h1M8 23h2M13 23h1M15 23h9M26 23h1M36 23h1M12 24h3M16 24h8M25 24h1M37 24h1M10 25h2M15 25h1M17 25h6M24 25h1M38 25h1M9 26h1M15 26h1M17 26h5M23 26h1M39 26h1M4 27h8M16 27h1M18 27h3M22 27h1M3 28h1M6 28h1M9 28h1M12 28h1M17 28h1M21 28h2M35 28h1M3 29h1M6 29h1M9 29h1M12 29h1M19 29h2M35 29h2M3 30h1M6 30h1M9 30h1M12 30h1M35 30h1M37 30h1M1 31h3M6 31h1M9 31h1M12 31h5M22 31h1M35 31h1M38 31h1M0 32h1M3 32h1M6 32h1M9 32h1M12 32h1M17 32h1M23 32h1M35 32h1M39 32h1M0 33h1M3 33h1M6 33h1M9 33h1M12 33h1M23 33h1M36 33h1M1 34h3M6 34h1M9 34h1M12 34h4M22 34h1M36 34h1M4 35h6M11 35h1M13 35h1M16 35h1M21 35h1M36 35h1M5 36h1M13 36h1M16 36h5M36 36h1M6 37h1M11 37h2M16 37h1M37 37h1M7 38h1M15 38h1M37 38h1M7 39h1M13 39h2M37 39h1" />
<path stroke="#fd7fb7" d="M13 1h2M19 1h7M10 2h5M18 2h11M9 3h7M17 3h14M9 4h22M8 5h17M27 5h3M8 6h2M11 6h1M15 6h3M21 6h1M23 6h2M27 6h3M8 7h2M15 7h3M23 7h7M8 8h2M12 8h4M25 8h6M8 9h8M25 9h3M31 9h1M8 10h3M15 10h2M24 10h4M8 11h2M23 11h5M31 11h1M9 12h1M23 12h6M9 13h1M23 13h7M9 14h1M23 14h6M9 15h1M23 15h6M27 16h2M28 17h1" />
<path stroke="#fd7fb9" d="M15 1h1M15 2h2M25 5h2M10 6h1M22 6h1M25 6h2M10 7h1M14 7h1M18 7h1M22 7h1M16 8h5M23 8h1M16 9h8M22 10h2M4 28h2M8 28h1M10 28h2M4 29h2M8 29h1M10 29h2M4 30h2M8 30h1M10 30h2M4 31h2M7 31h2M10 31h1M19 31h1M21 31h1M18 32h1M20 32h1" />
<path stroke="#f60a1f" d="M32 4h3M31 5h1M35 5h1M31 6h1M35 6h1M31 7h1M35 7h1M32 8h3M29 9h2M33 9h1M30 10h4M29 11h2M7 14h1M32 17h2M20 31h1M4 32h2M7 32h2M10 32h1M21 32h1M4 33h2M7 33h2" />
<path stroke="#f60a75" d="M32 5h2M32 6h1M32 7h3M12 10h1M14 10h1M18 10h1M20 10h1M15 11h1M17 11h1M21 11h1M10 12h1M12 12h1M16 12h1M19 12h2M22 12h1M12 13h1M19 13h1M10 14h1M16 14h1M22 14h1M16 16h1M22 16h1M21 18h1M30 20h1M30 21h4M31 22h4M33 23h2M12 25h1M11 26h3M35 26h2M12 27h1M35 27h3M14 28h2M36 28h3M14 29h2M37 29h3M14 30h2M21 30h1M38 30h2M17 31h1M23 31h1M30 31h3M39 31h1M31 32h2M30 33h1" />
<path stroke="#f60a32" d="M5 6h1M5 12h1" />
<path stroke="#f60a7a" d="M12 6h3M18 6h3M11 7h3M19 7h3M10 8h2M21 8h2M11 11h1M13 12h2M18 12h1M13 13h1M20 13h1M12 14h1M20 14h1M10 16h1M11 17h1M24 28h2M23 29h3M27 29h1M19 30h1M23 30h3M27 30h2M24 31h2M27 31h2M24 32h2M30 32h1M24 33h3M29 33h1M23 34h3M22 35h4M27 35h2M21 36h5M27 36h1M18 37h6M25 37h1" />
<path stroke="#f60a29" d="M4 7h2M18 31h1M19 32h1" />
<path stroke="#f60a2d" d="M6 7h1M3 8h1M5 8h2M5 10h1M5 11h1" />
<path stroke="#f60a25" d="M4 8h1M11 10h1M13 10h1M17 10h1M19 10h1M21 10h1M28 10h2M10 11h1M16 11h1M22 11h1M6 12h2M10 13h1M16 13h1M22 13h1M10 15h1M16 15h1M22 15h1M10 17h1M22 17h1M30 18h2M33 18h2M31 19h3M11 32h1M11 33h1" />
<path stroke="#fd7fb8" d="M24 8h1M24 9h1" />
<path stroke="#ffffff" d="M14 13h1M18 13h1M13 14h2M18 14h2M12 15h3M18 15h3M12 16h1M20 16h1M20 17h1" />
<path stroke="#f60a1b" d="M31 13h3M30 14h5M7 15h1M30 15h5M7 16h2M30 16h2M34 16h1M7 17h2M30 17h2M7 18h1M32 18h1" />
<path stroke="#ff8a00" d="M23 17h4M16 18h1M22 18h2M26 18h2M8 19h8M21 19h5M27 19h2M7 20h2M13 20h12M26 20h1M28 20h1M7 21h1M9 21h4M17 21h7M25 21h4M8 22h2M13 22h1M25 22h2M14 23h1M24 23h2M15 24h1M24 24h1M16 25h1M23 25h1M16 26h1M22 26h1M17 27h1M21 27h1M18 28h3" />
<path stroke="#f60a72" d="M27 23h2M30 23h3M35 23h1M27 24h2M30 24h7M14 25h1M25 25h1M27 25h2M30 25h8M10 26h1M24 26h2M30 26h5M37 26h2M23 27h4M29 27h6M38 27h2M23 28h1M30 28h5M39 28h1M17 29h1M21 29h1M28 29h1M30 29h5M30 30h5M33 31h2M33 32h2M31 33h5M30 34h6M30 35h6M28 36h1M30 36h6M17 37h1M24 37h1M27 37h2M30 37h7M16 38h10M30 38h7M16 39h11M29 39h8" />
<path stroke="#d9d2d5" d="M29 23h1M29 24h1M29 25h1M27 26h3M16 28h1M26 28h4M16 29h1M29 29h1M16 30h1M29 30h1M29 31h1M1 32h2M13 32h4M22 32h1M27 32h3M16 33h5M22 33h1M21 34h1M26 34h4M17 35h4M29 35h1M29 36h1M29 37h1M27 38h3" />
<path stroke="#c6c2c4" d="M26 24h1M13 25h1M26 25h1M14 26h1M26 26h1M13 27h3M27 27h2M13 28h1M13 29h1M26 29h1M13 30h1M26 30h1M26 31h1M26 32h1M1 33h2M13 33h3M21 33h1M27 33h2M16 34h5M26 35h1M26 36h1M26 37h1M26 38h1M27 39h2" />
<path stroke="#fd7fbc" d="M7 28h1M7 29h1M7 30h1M11 31h1M4 34h2M7 34h2M11 34h1M12 35h1M14 35h2M6 36h7M14 36h2M7 37h4M13 37h1M15 37h1M8 38h6M8 39h5" />
<path stroke="#050002" d="M18 29h1" />
<path stroke="#f60a79" d="M22 29h1M22 30h1" />
<path stroke="#f60a73" d="M17 30h1" />
<path stroke="#f60a74" d="M18 30h1" />
<path stroke="#f60a7f" d="M20 30h1M15 39h1" />
<path stroke="#f3172a" d="M10 33h1" />
<path stroke="#fd72b4" d="M10 34h1" />
<path stroke="#030001" d="M10 35h1" />
<path stroke="#fd7fbe" d="M14 37h1M14 38h1" />
</svg>