<svg xmlns="http://www.w3.org/2000/svg" viewBox="0 -0.5 40 40" shape-rendering="crispEdges">
<metadata>Made with Pixels to Svg https://codepen.io/shshaw/pen/XbxvNj</metadata>
<path stroke="#75d7df" d="M0 0h2M3 0h24M28 0h12M0 1h2M3 1h1M6 1h5M19 1h7M27 1h13M0 2h1M22 2h4M27 2h1M29 2h11M0 3h1M3 3h1M9 3h2M23 3h1M26 3h1M28 3h12M0 4h1M3 4h1M6 4h1M8 4h1M27 4h13M0 5h4M30 5h10M0 6h4M8 6h2M31 6h5M38 6h2M0 7h1M5 7h4M32 7h4M5 8h1M7 8h1M11 8h1M32 8h4M1 9h2M32 9h4M1 10h1M3 10h1M31 10h5M1 11h1M3 11h1M6 11h1M28 11h1M30 11h6M3 12h1M6 12h2M28 12h8M0 13h4M6 13h1M28 13h8M0 14h3M5 14h6M29 14h7M0 15h3M5 15h5M31 15h4M0 16h3M5 16h4M32 16h3M0 17h3M5 17h4M32 17h1M0 18h3M5 18h3M32 18h1M0 19h3M5 19h2M0 20h3M5 20h1M0 21h2M5 21h1M0 22h2M5 22h2M1 23h1M5 23h3M10 23h2M1 24h1M5 24h9" />
<path stroke="#75d8df" d="M2 0h1M2 2h1M5 2h4M2 3h1M7 3h1M1 4h1M5 4h1M5 5h1M7 5h1M5 6h3M6 8h1M6 9h1M2 10h1M0 23h1M0 24h1" />
<path stroke="#000000" d="M27 0h1M11 1h8M26 1h1M9 2h13M26 2h1M28 2h1M8 3h1M11 3h12M24 3h2M27 3h1M9 4h18M8 5h22M10 6h21M9 7h4M23 7h9M8 8h2M12 8h1M14 8h1M18 8h2M24 8h8M7 9h1M11 9h3M20 9h1M24 9h8M10 10h1M21 10h1M25 10h1M27 10h4M10 11h1M13 11h2M18 11h3M27 11h1M29 11h1M10 12h1M12 12h1M15 12h1M17 12h1M21 12h1M27 12h1M11 13h1M15 13h1M17 13h1M21 13h1M27 13h1M11 14h1M15 14h1M17 14h1M21 14h1M28 14h1M10 15h2M14 15h2M17 15h1M20 15h2M28 15h1M9 16h1M11 16h1M14 16h2M17 16h1M20 16h2M23 16h4M28 16h1M9 17h1M12 17h1M14 17h4M20 17h3M27 17h2M8 18h8M17 18h1M20 18h2M24 18h2M28 18h1M7 19h1M16 19h5M26 19h1M29 19h1M6 20h1M9 20h4M25 20h1M27 20h1M29 20h1M6 21h1M8 21h1M13 21h4M24 21h1M29 21h1M7 22h1M10 22h3M14 22h1M17 22h8M27 22h2M8 23h2M12 23h2M15 23h1M23 23h1M26 23h1M29 23h1M14 24h1M16 24h1M23 24h1M25 24h1M30 24h1M15 25h1M17 25h1M22 25h1M24 25h1M29 25h2M15 26h1M17 26h1M21 26h1M23 26h2M28 26h1M30 26h1M14 27h3M18 27h3M22 27h1M28 27h1M30 27h1M14 28h1M17 28h1M21 28h2M28 28h1M30 28h1M15 29h1M18 29h3M27 29h1M31 29h1M15 30h1M17 30h1M20 30h1M24 30h3M32 30h1M15 31h2M21 31h3M32 31h1M14 32h1M16 32h1M21 32h1M33 32h1M14 33h1M16 33h2M20 33h2M25 33h1M30 33h2M34 33h1M14 34h1M18 34h3M24 34h2M29 34h1M32 34h1M34 34h1M14 35h1M17 35h1M20 35h1M23 35h3M28 35h1M32 35h1M35 35h1M13 36h1M17 36h1M20 36h1M23 36h3M27 36h1M32 36h1M35 36h1M12 37h2M16 37h2M21 37h1M26 37h1M32 37h1M36 37h1M12 38h3M16 38h1M22 38h1M25 38h1M32 38h1M35 38h2M12 39h5M22 39h1M25 39h1M32 39h1M34 39h3" />
<path stroke="#5444bd" d="M2 1h1M1 2h1M3 2h1M1 3h1M2 4h1M7 4h1M6 5h1M7 11h1M3 19h1M3 20h1M3 21h1M3 22h1" />
<path stroke="#5044bd" d="M4 1h1M4 2h1M4 3h3" />
<path stroke="#5244bd" d="M5 1h1" />
<path stroke="#8d44bd" d="M4 4h1M4 5h1M4 6h1M4 7h1M4 8h1M5 9h1M5 10h2M5 11h1M5 12h1M5 13h1M4 14h1M4 15h1M4 16h1M4 17h1M4 18h1M4 19h1M4 20h1M4 21h1M4 22h1M4 23h1M4 24h1" />
<path stroke="#d98af8" d="M36 6h2M36 7h2M39 7h1M36 8h2M39 8h1M36 9h2M39 9h1M36 10h2M39 10h1M36 11h1M39 11h1M36 12h1M38 12h2M37 13h1M39 13h1M38 14h1M30 15h1M35 15h2M38 15h2M29 16h1M35 16h2M38 16h2M29 17h1M33 17h2M37 17h3M29 18h2M33 18h2M36 18h4M30 19h1M32 19h2M35 19h3M30 20h4M35 20h3M39 20h1M30 21h4M35 21h1M38 21h2M29 22h2M33 22h1M36 22h4M30 23h1M34 23h6" />
<path stroke="#5644bd" d="M1 7h3M0 8h1M3 8h1M0 9h1M4 9h1M0 10h1M4 10h1M0 11h1M2 11h1M4 11h1M0 12h3M4 12h1M8 12h1M4 13h1M7 13h2M3 14h1M3 15h1M3 16h1M3 17h1M3 18h1M2 21h1M2 22h1M2 23h2M2 24h2" />
<path stroke="#fed2bc" d="M13 7h10M13 8h1M15 8h3M20 8h4M14 9h6M21 9h3M11 10h10M22 10h3M26 10h1M11 11h2M15 11h3M21 11h6M11 12h1M16 12h1M22 12h5M16 13h1M22 13h5M16 14h1M22 14h6M16 15h1M22 15h6M16 16h1M22 16h1M27 16h1M30 34h2M29 35h3M28 36h4M27 37h5M26 38h6M26 39h6" />
<path stroke="#c04aee" d="M38 7h1M38 8h1M38 9h1M38 10h1M37 11h2M37 12h1M36 13h1M38 13h1M36 14h2M39 14h1M29 15h1M37 15h1M30 16h2M37 16h1M30 17h2M35 17h2M31 18h1M35 18h1M31 19h1M34 19h1M38 19h2M34 20h1M38 20h1M34 21h1M36 21h2M34 22h2" />
<path stroke="#8a44bd" d="M1 8h2M3 9h1" />
<path stroke="#75d9df" d="M10 8h1M8 9h3M7 10h3M8 11h2M9 12h1M9 13h2" />
<path stroke="#ffffff" d="M13 12h2M18 12h3M12 13h3M18 13h3M12 14h3M18 14h3M12 15h2M18 15h2M12 16h2M18 16h2M13 17h1M18 17h2M18 18h2" />
<path stroke="#ff8a00" d="M10 16h1M10 17h2M23 17h4M16 18h1M22 18h2M26 18h2M8 19h8M21 19h5M27 19h2M7 20h2M13 20h12M26 20h1M28 20h1M7 21h1M9 21h4M17 21h7M25 21h4M8 22h2M13 22h1M25 22h2M14 23h1M24 23h2M15 24h1M24 24h1M16 25h1M23 25h1M16 26h1M22 26h1M17 27h1M21 27h1M18 28h3" />
<path stroke="#ff0000" d="M15 22h2M16 23h3M22 23h1M17 24h1M21 24h2M20 25h2M18 26h3" />
<path stroke="#d78af8" d="M31 22h2M31 23h3" />
<path stroke="#fc809a" d="M19 23h3M18 24h3M18 25h2" />
<path stroke="#009fc2" d="M27 23h2M26 24h3M25 25h2M25 26h1M23 27h2M23 28h1M21 29h2M19 30h1M21 30h2M20 31h1M18 32h3M18 33h1M18 35h2M18 36h2M18 37h1M17 38h2M17 39h1" />
<path stroke="#009ec2" d="M29 24h1M27 25h2M26 26h2M25 27h3M15 28h2M24 28h4M16 29h2M23 29h4M16 30h1M18 30h1M23 30h1M17 31h3M17 32h1M19 33h1M19 37h2M19 38h3M18 39h4" />
<path stroke="#acacb1" d="M31 24h9M0 25h15M36 25h1M38 25h1M36 26h1M38 26h1M0 27h6M10 27h4M36 27h1M38 27h1M6 28h1M9 28h1M35 28h1M38 28h1M7 29h1M9 29h1M32 29h4M38 29h1M7 30h1M9 30h1M36 30h1M38 30h1M7 31h1M9 31h1M36 31h1M38 31h2M7 32h1M10 32h4M36 32h1M39 32h1M7 33h1M37 33h2M6 34h2M9 34h5M38 34h2M6 35h1M8 35h2M13 35h1M0 36h6M8 36h1M7 37h2" />
<path stroke="#d5d5e0" d="M31 25h3M39 25h1M0 26h1M2 26h2M6 26h1M10 26h1M13 26h2M34 26h1M37 26h1M6 27h1M9 27h1M34 27h1M37 27h1M0 28h4M7 28h2M10 28h1M12 28h1M34 28h1M36 28h2M0 29h5M8 29h1M10 29h1M13 29h2M36 29h2M0 30h3M5 30h2M8 30h1M14 30h1M34 30h1M37 30h1M1 31h5M8 31h1M10 31h1M13 31h2M33 31h2M37 31h1M5 32h2M8 32h2M34 32h1M37 32h2M0 33h1M3 33h4M8 33h6M36 33h1M39 33h1M5 34h1M8 34h1M36 34h2M2 35h1M5 35h1M7 35h1M6 36h2M12 36h1M4 37h1M10 37h2" />
<path stroke="#e6e5e8" d="M34 25h2M37 25h1M1 26h1M4 26h2M7 26h3M11 26h2M33 26h1M35 26h1M39 26h1M7 27h2M35 27h1M39 27h1M4 28h2M13 28h1M5 29h2M3 30h2M33 30h1M35 30h1M6 31h1M35 31h1M35 32h1M12 35h1M0 37h4M5 37h2" />
<path stroke="#ff6a0c" d="M29 26h1M29 27h1M28 29h2M27 30h1M24 31h4M15 32h1M22 32h4M15 33h1M22 33h2M15 34h3M21 34h1M21 35h1M14 36h1M21 36h1M14 37h1" />
<path stroke="#c5c5cd" d="M31 26h2M31 27h3M11 28h1M31 28h3M39 28h1M11 29h2M39 29h1M10 30h4M39 30h1M0 31h1M11 31h2M0 32h5M1 33h2M35 33h1M0 34h5M35 34h1M0 35h2M3 35h2M10 35h2M36 35h4M9 36h3M36 36h4M9 37h1" />
<path stroke="#ff6b0c" d="M29 28h1M30 29h1M28 30h4M28 31h4M26 32h7M24 33h1M26 33h4M32 33h2M22 34h2M26 34h3M33 34h1M15 35h2M22 35h1M26 35h2M33 35h2M15 36h2M22 36h1M26 36h1M33 36h2M15 37h1M22 37h4M33 37h3M15 38h1M23 38h2M33 38h2M23 39h2M33 39h1" />
<path stroke="#649331" d="M37 37h2M2 38h3M10 38h2M37 38h1M3 39h1M6 39h2M10 39h2M37 39h1" />
<path stroke="#559013" d="M39 37h1M0 38h2M5 38h5M38 38h2M0 39h3M4 39h2M8 39h2M38 39h2" />
</svg>