<svg xmlns="http://www.w3.org/2000/svg" viewBox="0 -0.5 40 40" shape-rendering="crispEdges">
<metadata>Made with Pixels to Svg https://codepen.io/shshaw/pen/XbxvNj</metadata>
<path stroke="#000000" d="M0 0h1M22 0h1M35 3h1M35 4h2M6 5h1M35 5h1M11 9h3M18 9h4M10 10h1M22 10h1M10 11h1M13 11h2M18 11h3M10 12h1M12 12h1M15 12h1M17 12h1M21 12h1M11 13h1M15 13h1M17 13h1M21 13h1M37 13h1M11 14h1M15 14h1M17 14h1M20 14h2M2 15h2M10 15h2M14 15h2M17 15h1M19 15h3M2 16h2M9 16h1M11 16h1M14 16h2M17 16h1M19 16h3M23 16h4M9 17h1M12 17h1M14 17h4M19 17h4M27 17h2M8 18h8M17 18h1M20 18h2M24 18h2M28 18h1M7 19h1M16 19h5M26 19h1M29 19h1M6 20h1M9 20h4M25 20h1M27 20h1M29 20h1M6 21h1M8 21h1M13 21h4M24 21h1M29 21h1M7 22h1M10 22h3M14 22h1M17 22h8M27 22h2M8 23h2M13 23h1M15 23h1M23 23h1M26 23h1M14 24h1M16 24h1M23 24h1M25 24h1M15 25h1M17 25h1M22 25h1M24 25h1M15 26h1M17 26h1M21 26h1M23 26h1M16 27h1M18 27h3M22 27h1M17 28h1M21 28h2M19 29h1M23 29h1M18 30h1M24 30h1M33 30h1M17 31h1M25 31h1M16 32h1M26 32h2M16 33h1M28 33h1M3 34h2M15 34h1M29 34h1M39 34h1M3 35h2M14 35h1M30 35h2M38 35h2M13 36h1M32 36h1M38 36h2M12 37h1M32 37h1M38 37h2M12 38h1M33 38h1M39 38h1M12 39h1M33 39h1M39 39h1" />
<path stroke="#665600" d="M1 0h1M23 0h1M11 1h1M29 1h1M12 2h1M30 2h1M35 2h1M37 4h1M7 5h1M4 25h1M39 25h1M5 26h1M33 29h1M11 30h1M34 30h1M12 31h1M39 33h1" />
<path stroke="#eac500" d="M2 0h1M19 0h1M0 2h1M27 2h1M32 4h1M3 5h1M35 7h1M2 26h1M37 26h1M31 30h1M9 31h1M33 32h1M39 32h1M35 36h1" />
<path stroke="#ffd700" d="M3 0h16M25 0h2M32 0h8M3 1h8M13 1h2M25 1h2M32 1h1M38 1h2M3 2h1M8 2h3M13 2h1M39 2h1M0 3h3M9 3h4M39 3h1M0 4h3M9 4h3M39 4h1M0 5h3M9 5h2M29 5h3M39 5h1M0 6h3M9 6h1M30 6h2M39 6h1M0 7h3M9 7h1M31 7h2M38 7h2M0 8h4M8 8h1M31 8h9M0 9h9M32 9h8M0 10h8M32 10h4M39 10h1M0 11h8M33 11h2M0 12h1M5 12h3M33 12h1M6 13h2M33 13h1M7 14h1M33 14h1M7 15h1M33 15h2M7 16h1M33 16h3M39 16h1M7 17h1M33 17h7M6 18h2M33 18h7M0 19h1M5 19h2M36 19h4M0 20h6M37 20h3M0 21h6M37 21h3M0 22h7M37 22h3M0 23h8M37 23h3M0 24h2M7 24h1M36 24h1M0 25h2M7 25h1M14 25h1M25 25h1M33 25h4M0 26h2M7 26h1M14 26h1M24 26h2M32 26h5M0 27h2M7 27h2M14 27h2M23 27h3M31 27h6M0 28h2M7 28h3M14 28h3M23 28h3M30 28h1M36 28h1M0 29h9M14 29h5M24 29h2M29 29h2M36 29h4M0 30h9M14 30h4M25 30h1M28 30h3M36 30h4M0 31h2M6 31h3M14 31h3M26 31h5M36 31h4M0 32h1M7 32h2M14 32h2M28 32h3M36 32h1M8 33h1M14 33h2M29 33h7M8 34h7M30 34h5M8 35h6M32 35h3M8 36h5M33 36h2M0 37h1M11 37h1M33 37h2M0 38h2M34 38h1M0 39h6M34 39h2" />
<path stroke="#685700" d="M20 0h1M33 4h1M4 5h1M35 6h1M3 26h1M38 26h1M10 31h1M36 36h1" />
<path stroke="#010000" d="M21 0h1M11 2h1M29 2h1M34 4h1M5 5h1M4 26h1M39 26h1M11 31h1M37 36h1" />
<path stroke="#e8c400" d="M24 0h1M29 0h1M35 1h1M31 2h1M38 4h1M8 5h1M4 24h1M39 24h1M6 26h1M33 28h1M35 30h1M13 31h1" />
<path stroke="#fcd400" d="M27 0h1M31 0h1M33 1h1M37 1h1M32 2h1M38 2h1M3 3h1M8 3h1M31 4h1M38 6h1M8 7h1M36 10h1M38 10h1M35 11h1M4 12h1M0 13h1M6 14h1M39 15h1M6 17h1M5 18h1M4 19h1M35 19h1M36 20h1M36 23h1M2 24h1M6 24h1M35 24h1M37 24h1M6 28h1M31 28h1M35 28h1M9 29h1M2 31h1M5 31h1M6 32h1M35 32h1M0 33h1M7 33h1M13 33h1M36 33h1M35 34h1M7 36h1M6 37h1M10 37h1M5 38h2M11 38h1" />
<path stroke="#ecc700" d="M28 0h1M30 0h1M34 1h1M36 1h1M33 19h2M3 24h1M5 24h1M38 24h1M32 28h1M34 28h1M10 29h1M3 31h2" />
<path stroke="#675700" d="M0 1h1M28 2h1M33 21h1M33 22h1M4 27h1M39 27h1M32 30h1M11 32h1" />
<path stroke="#8c7600" d="M1 1h1M3 27h1M38 27h1M32 31h1M10 32h1" />
<path stroke="#edc800" d="M2 1h1M27 1h1M32 3h1M3 4h1M32 5h1M2 25h1M37 25h1M2 27h1M37 27h1M31 29h1M9 30h1M9 32h1M0 34h1M7 34h1M0 35h1M7 35h1M35 35h1M35 37h1M6 39h1" />
<path stroke="#8a7500" d="M12 1h1M30 1h1M5 25h1M34 29h1" />
<path stroke="#e70303" d="M15 1h8M14 2h10M13 3h1M16 3h7M12 4h2M17 4h4M11 5h3M10 6h5M10 7h6M9 8h10M9 9h2M8 10h2M8 11h2M8 12h2M8 13h3M8 14h3M8 15h2M8 16h1M8 17h1M8 24h2M8 25h3M8 26h4M9 27h3M10 28h3M11 29h2M27 29h1M12 30h1M27 30h1" />
<path stroke="#ff0101" d="M23 1h2M25 2h2M26 3h2M15 4h1M26 4h2M16 5h1M24 5h5M23 6h3M27 6h2M18 7h3M23 7h2M27 7h3M27 8h3M28 9h3M28 10h3M28 11h4M28 12h4M28 13h5M28 14h5M28 15h5M28 16h5M29 17h4M29 18h4M30 19h3M30 20h3M30 21h3M30 22h3M30 23h3M30 24h3M30 25h2M30 26h2M30 27h1" />
<path stroke="#8b7500" d="M28 1h1M33 20h1M3 25h1M38 25h1M32 29h1M10 30h1" />
<path stroke="#ecc800" d="M31 1h1M31 3h1M38 3h1M8 4h1M38 5h1M8 6h1M6 15h1M6 16h1M36 21h1M36 22h1M6 25h1M6 27h1M35 29h1M35 31h1M13 32h1M11 39h1" />
<path stroke="#eec800" d="M1 2h1M5 2h2M30 4h1M3 6h1M34 7h1M36 7h1M6 8h1M2 12h2M2 19h2M34 24h1M5 28h1M31 31h1M32 32h1M34 32h1M38 32h1M12 33h1M8 37h2M4 38h1" />
<path stroke="#fcd500" d="M2 2h1M4 2h1M7 2h1M32 6h1M3 7h1M33 7h1M37 7h1M4 8h1M7 8h1M1 12h1M34 12h1M34 14h1M35 15h1M36 16h1M38 16h1M0 18h1M1 19h1M2 28h1M37 28h1M1 32h1M31 32h1M37 32h1M9 33h1M0 36h1M1 37h1M7 37h1M2 38h1M35 38h1M36 39h1" />
<path stroke="#f70404" d="M24 2h1M14 3h2M23 3h3M16 4h1M21 4h3M25 4h1M28 4h1M14 5h1M17 5h6M15 6h1M26 6h1M29 6h1M16 7h2M21 7h2M25 7h2M30 7h1M19 8h8M30 8h1M24 9h4M31 9h1M25 10h3M31 10h1M26 11h2M32 11h1M26 12h2M32 12h1M27 13h1M27 14h1M27 15h1M27 16h1M29 22h1M28 23h2M28 24h2M28 25h2M32 25h1M28 26h2M28 27h2M28 28h2M28 29h1" />
<path stroke="#debb00" d="M33 2h1M37 2h1M37 6h1M4 7h1M7 7h1M35 12h1M2 32h1M2 37h1" />
<path stroke="#857000" d="M34 2h1M36 2h1M33 3h1M4 4h1M37 5h1M7 6h1M6 7h1M3 18h1M34 23h1M3 32h1M1 34h1M6 35h1M36 35h1M4 37h1M7 39h1" />
<path stroke="#dcba00" d="M4 3h1M7 3h1M36 11h1M1 13h1M5 17h1M5 32h1M1 33h1M37 33h1M36 34h1M6 36h1M5 37h1M7 38h1" />
<path stroke="#846f00" d="M5 3h2M37 3h1M7 4h1M2 13h1M39 13h1M35 22h1M4 32h1M38 33h1M6 34h1M8 38h1" />
<path stroke="#8d7700" d="M28 3h1M33 23h1" />
<path stroke="#695700" d="M29 3h1M33 31h1" />
<path stroke="#8b7600" d="M30 3h1M5 27h1M34 31h1M12 32h1" />
<path stroke="#292200" d="M34 3h1M5 4h1M1 15h1M4 16h1M3 17h1M34 22h1M3 33h1M38 34h1M5 35h1M4 36h1" />
<path stroke="#282100" d="M36 3h1" />
<path stroke="#282200" d="M6 4h1M2 14h1M34 21h1M4 33h1M37 35h1M9 39h1" />
<path stroke="#fc6060" d="M14 4h1M15 5h1M16 6h3" />
<path stroke="#fcd7d7" d="M24 4h1M23 5h1M22 6h1" />
<path stroke="#ebc500" d="M29 4h1M4 28h1M39 28h1M11 33h1" />
<path stroke="#877200" d="M33 5h1M4 6h1M34 6h1M1 35h1" />
<path stroke="#2a2300" d="M34 5h1M5 6h1M2 35h1M3 36h1M38 38h1" />
<path stroke="#292300" d="M36 5h1M6 6h1M1 16h1M2 17h1M2 34h1M37 37h1M8 39h1" />
<path stroke="#fdc4c4" d="M19 6h3" />
<path stroke="#dfbb00" d="M33 6h1M35 14h1M36 15h1M1 18h1M1 36h1M36 38h1" />
<path stroke="#867100" d="M36 6h1M5 7h1M2 18h1M3 37h1M36 37h1" />
<path stroke="#efc800" d="M5 8h1M33 24h1M3 28h1M38 28h1M10 33h1M3 38h1" />
<path stroke="#ffffff" d="M14 9h4M22 9h2M11 10h11M23 10h2M11 11h2M15 11h3M21 11h5M11 12h1M16 12h1M22 12h4M16 13h1M22 13h5M14 14h1M16 14h1M19 14h1M22 14h5M16 15h1M22 15h5M16 16h1M22 16h1M20 30h2M20 31h2M24 31h1M17 33h2M21 33h3M27 33h1M17 34h2M20 34h5M27 34h2M20 35h5M14 36h3M20 36h5M14 37h4M21 37h3M26 37h2M30 37h2M13 38h5M26 38h2M29 38h4M13 39h5M20 39h4M29 39h4" />
<path stroke="#f0ca00" d="M37 10h1" />
<path stroke="#9c8400" d="M37 11h1" />
<path stroke="#dbb900" d="M38 11h1M4 13h1M5 14h1M35 20h1M6 33h1M10 38h1" />
<path stroke="#fbd400" d="M39 11h1M5 13h1" />
<path stroke="#c3d9f9" d="M13 12h2M18 12h3M12 13h3M18 13h3M12 14h2M18 14h1M12 15h2M18 15h1M12 16h2M18 16h1M13 17h1M18 17h1M18 18h2" />
<path stroke="#7f6b00" d="M36 12h1M1 17h1M2 36h1M37 38h1" />
<path stroke="#3a3100" d="M37 12h1M38 13h1" />
<path stroke="#7d6a00" d="M38 12h1M4 17h1M2 33h1M37 34h1" />
<path stroke="#d8b700" d="M39 12h1M0 14h1M39 14h1" />
<path stroke="#836f00" d="M3 13h1M5 15h1M34 20h1M35 21h1M9 38h1M10 39h1" />
<path stroke="#f2cb00" d="M34 13h1" />
<path stroke="#9f8500" d="M35 13h1" />
<path stroke="#3b3100" d="M36 13h1M37 14h1" />
<path stroke="#7e6a00" d="M1 14h1M38 14h1M5 36h1" />
<path stroke="#272200" d="M3 14h1M4 15h1M5 34h1" />
<path stroke="#7b6800" d="M4 14h1" />
<path stroke="#806c00" d="M36 14h1" />
<path stroke="#5d4e00" d="M0 15h1" />
<path stroke="#9e8500" d="M37 15h1" />
<path stroke="#ddba00" d="M38 15h1M4 18h1M35 23h1" />
<path stroke="#5f5000" d="M0 16h1" />
<path stroke="#847000" d="M5 16h1" />
<path stroke="#ff8a00" d="M10 16h1M10 17h2M23 17h4M16 18h1M22 18h2M26 18h2M8 19h8M21 19h5M27 19h2M7 20h2M13 20h12M26 20h1M28 20h1M7 21h1M9 21h4M17 21h7M25 21h4M8 22h2M13 22h1M25 22h2M14 23h1M24 23h2M15 24h1M24 24h1M16 25h1M23 25h1M16 26h1M22 26h1M17 27h1M21 27h1M18 28h3" />
<path stroke="#f3cb00" d="M37 16h1" />
<path stroke="#dab800" d="M0 17h1M37 39h1" />
<path stroke="#ff0000" d="M15 22h2M16 23h3M22 23h1M17 24h1M21 24h2M20 25h2M18 26h3" />
<path stroke="#be0505" d="M10 23h3M27 23h1M10 24h4M26 24h2M11 25h3M26 25h2M12 26h2M26 26h2M12 27h2M26 27h2M13 28h1M26 28h2M13 29h1M26 29h1M13 30h1M26 30h1" />
<path stroke="#fc809a" d="M19 23h3M18 24h3M18 25h2" />
<path stroke="#da0000" d="M20 29h3M19 30h1M22 30h2M18 31h2M22 31h2M17 32h9M19 33h2M24 33h3M16 34h1M19 34h1M25 34h2M15 35h5M25 35h5M17 36h3M25 36h7M13 37h1M18 37h3M24 37h2M28 37h2M18 38h8M28 38h1M18 39h2M24 39h5" />
<path stroke="#7c6800" d="M5 33h1" />
<path stroke="#5e4f00" d="M38 39h1" />
</svg>