<svg xmlns="http://www.w3.org/2000/svg" viewBox="0 -0.5 40 40" shape-rendering="crispEdges">
<metadata>Made with Pixels to Svg https://codepen.io/shshaw/pen/XbxvNj</metadata>
<path stroke="#2466f9" d="M0 0h15M22 0h18M0 1h15M22 1h18M0 2h13M24 2h16M0 3h13M24 3h16M0 4h10M27 4h13M0 5h10M27 5h13M0 6h10M27 6h13M0 7h7M31 7h9M0 8h7M33 8h7M0 9h4M35 9h5M0 10h3M37 10h3M0 11h1M38 11h2M39 12h1M39 13h1M39 14h1M39 29h1M0 30h1M38 30h2M0 31h2M37 31h3M0 32h3M36 32h4M0 33h4M35 33h5M0 34h6M33 34h7M0 35h8M32 35h8M0 36h10M33 36h7M0 37h12M33 37h7M0 38h12M34 38h6M0 39h12M34 39h6" />
<path stroke="#ff0000" d="M15 0h7M13 2h11M10 4h17M10 5h17M7 7h24M7 8h24M7 9h24M7 10h24M15 22h2M16 23h3M22 23h1M17 24h1M21 24h2M20 25h2M18 26h3" />
<path stroke="#d40404" d="M15 1h7M13 3h11M10 6h17" />
<path stroke="#4981fd" d="M31 8h2M4 9h3M31 9h4M3 10h4M31 10h6M1 11h9M28 11h10M0 12h10M28 12h11M0 13h11M28 13h11M0 14h11M29 14h10M0 15h10M29 15h11M0 16h9M29 16h11M0 17h9M29 17h11M0 18h8M29 18h11M0 19h7M30 19h10M0 20h6M30 20h10M0 21h6M30 21h10M0 22h7M29 22h11M0 23h8M10 23h2M27 23h13M0 24h14M26 24h14M0 25h15M25 25h15M0 26h15M24 26h16M0 27h16M23 27h17M0 28h17M23 28h17M0 29h19M23 29h16M1 30h17M24 30h14M2 31h15M25 31h12M3 32h13M26 32h10M4 33h12M27 33h8M6 34h9M30 34h3M8 35h6M10 36h3" />
<path stroke="#000000" d="M10 11h1M26 11h2M10 12h1M26 12h2M27 13h1M14 14h1M20 14h1M27 14h2M10 15h1M13 15h2M19 15h2M28 15h1M9 16h1M13 16h2M19 16h2M23 16h4M28 16h1M9 17h1M16 17h1M22 17h1M27 17h2M8 18h8M21 18h1M24 18h2M28 18h1M7 19h1M16 19h5M26 19h1M29 19h1M6 20h1M9 20h4M25 20h1M27 20h1M29 20h1M6 21h1M8 21h1M13 21h4M24 21h1M29 21h1M7 22h1M10 22h3M14 22h1M17 22h8M27 22h2M8 23h2M12 23h2M15 23h1M23 23h1M26 23h1M14 24h1M16 24h1M23 24h1M25 24h1M15 25h1M17 25h1M22 25h1M24 25h1M15 26h1M17 26h1M21 26h1M23 26h1M16 27h1M18 27h3M22 27h1M17 28h1M21 28h2M19 29h4M18 30h6M17 31h2M23 31h2M16 32h1M22 32h1M25 32h1M16 33h1M21 33h1M26 33h1M15 34h1M20 34h1M27 34h3M14 35h2M19 35h1M30 35h2M13 36h1M19 36h1M31 36h2M12 37h1M19 37h1M32 37h1M12 38h1M16 38h1M19 38h1M28 38h1M33 38h1M12 39h1M15 39h2M19 39h1M28 39h2M33 39h1" />
<path stroke="#ffffff" d="M11 11h15M16 12h1M22 12h4M16 13h1M22 13h5M13 14h1M19 14h1M16 15h1M22 15h6M16 16h1M22 16h1M27 16h1" />
<path stroke="#68686a" d="M11 12h4M17 12h4M11 13h1M15 13h1M17 13h1M21 13h1M11 14h1M15 14h1M17 14h1M21 14h1M23 14h4M11 15h1M15 15h1M17 15h1M21 15h1M11 16h1M15 16h1M17 16h1M21 16h1M11 17h1M15 17h1M17 17h1M21 17h1M17 18h4" />
<path stroke="#8e8e91" d="M15 12h1M21 12h1M16 14h1M22 14h1" />
<path stroke="#dbc606" d="M12 13h3M18 13h3M12 14h1M18 14h1" />
<path stroke="#fde501" d="M12 15h1M18 15h1M12 16h1M18 16h1M12 17h3M18 17h3M19 31h4M17 32h5M23 32h2M17 33h4M22 33h4M16 34h4M21 34h6M16 35h3M20 35h10M14 36h5M20 36h11M13 37h6M20 37h12M13 38h3M17 38h2M20 38h8M29 38h4M13 39h2M17 39h2M20 39h8M30 39h3" />
<path stroke="#ff8a00" d="M10 16h1M10 17h1M23 17h4M16 18h1M22 18h2M26 18h2M8 19h8M21 19h5M27 19h2M7 20h2M13 20h12M26 20h1M28 20h1M7 21h1M9 21h4M17 21h7M25 21h4M8 22h2M13 22h1M25 22h2M14 23h1M24 23h2M15 24h1M24 24h1M16 25h1M23 25h1M16 26h1M22 26h1M17 27h1M21 27h1M18 28h3" />
<path stroke="#fc809a" d="M19 23h3M18 24h3M18 25h2" />
</svg>