<svg xmlns="http://www.w3.org/2000/svg" viewBox="0 -0.5 40 40" shape-rendering="crispEdges">
<metadata>Made with Pixels to Svg https://codepen.io/shshaw/pen/XbxvNj</metadata>
<path stroke="#fede08" d="M0 0h9M25 0h15M0 1h8M26 1h14M0 2h8M27 2h13M0 3h8M28 3h12M0 4h9M29 4h11M0 5h10M29 5h11M0 6h12M30 6h10M0 7h11M31 7h9M0 8h10M31 8h9M0 9h9M32 9h8M0 10h9M32 10h8M0 11h10M32 11h8M0 12h10M33 12h7M0 13h11M33 13h7M0 14h11M33 14h7M0 15h10M33 15h7M0 16h9M33 16h7M0 17h9M32 17h8M0 18h8M31 18h9M0 19h7M30 19h10M0 20h6M30 20h10M0 21h6M30 21h10M0 22h7M29 22h11M0 23h8M10 23h2M27 23h13M0 24h14M26 24h14M0 25h15M25 25h15M0 26h15M24 26h16M0 27h16M23 27h17M0 28h17M23 28h17M0 29h19M23 29h17M0 30h18M24 30h16M0 31h17M25 31h15M0 32h16M26 32h14M0 33h16M27 33h13M0 34h15M28 34h12M0 35h14M29 35h11M0 36h13M30 36h10M0 37h12M31 37h9M0 38h12M31 38h9M0 39h12M31 39h9" />
<path stroke="#000000" d="M9 0h1M24 0h1M8 1h1M25 1h1M8 2h1M26 2h1M8 3h1M27 3h1M9 4h1M14 4h1M28 4h1M10 5h2M13 5h1M15 5h6M28 5h1M12 6h1M29 6h1M11 7h1M13 7h10M30 7h1M10 8h1M23 8h1M30 8h1M9 9h1M12 9h3M18 9h4M31 9h1M9 10h3M24 10h1M31 10h1M10 11h1M13 11h2M18 11h3M25 11h1M31 11h1M10 12h1M12 12h1M15 12h1M17 12h1M21 12h1M26 12h1M32 12h1M11 13h1M15 13h1M17 13h1M21 13h1M27 13h1M32 13h1M11 14h1M13 14h2M16 14h1M18 14h2M21 14h1M28 14h1M32 14h1M10 15h2M13 15h2M18 15h2M21 15h1M28 15h1M32 15h1M9 16h1M11 16h1M16 16h1M21 16h1M23 16h4M28 16h1M32 16h1M9 17h1M12 17h1M15 17h3M21 17h2M27 17h1M31 17h1M8 18h8M17 18h1M20 18h2M24 18h2M28 18h1M30 18h1M7 19h1M16 19h5M26 19h1M29 19h1M6 20h1M9 20h4M25 20h1M27 20h1M29 20h1M6 21h1M8 21h1M13 21h4M24 21h1M29 21h1M7 22h1M10 22h3M14 22h1M17 22h8M27 22h2M8 23h2M12 23h2M15 23h1M23 23h1M26 23h1M14 24h1M16 24h1M23 24h1M25 24h1M15 25h1M17 25h1M22 25h1M24 25h1M15 26h1M17 26h1M21 26h1M23 26h1M16 27h1M18 27h3M22 27h1M17 28h1M21 28h2M19 29h1M22 29h1M18 30h1M22 30h2M17 31h1M23 31h2M16 32h1M25 32h1M16 33h1M26 33h1M15 34h1M27 34h1M14 35h1M28 35h1M13 36h1M29 36h1M12 37h1M15 37h1M26 37h1M30 37h1M12 38h1M15 38h1M26 38h1M30 38h1M12 39h1M15 39h1M26 39h1M30 39h1" />
<path stroke="#ffffff" d="M10 0h14M9 1h16M9 2h17M9 3h18M10 4h4M15 4h13M12 5h1M14 5h1M21 5h7M13 6h16M12 7h1M23 7h7M11 8h12M24 8h6M10 9h2M15 9h3M22 9h9M25 10h6M26 11h5M13 12h2M18 12h3M27 12h5M12 13h3M18 13h3M28 13h4M12 14h1M15 14h1M17 14h1M20 14h1M29 14h3M12 15h1M15 15h3M20 15h1M29 15h3M12 16h4M17 16h4M29 16h3M13 17h2M18 17h3M28 17h3M18 18h2M29 18h1" />
<path stroke="#1087ec" d="M12 10h1M17 10h1M22 10h2M22 11h2M20 29h2M19 30h3M20 31h3M17 32h1M20 32h5M17 33h9M16 34h11M17 35h11M14 36h1M18 36h8M28 36h1M13 37h2M18 37h6M29 37h1M13 38h2M18 38h6M13 39h2M18 39h6" />
<path stroke="#1085ec" d="M13 10h4M18 10h4M11 11h2M15 11h3M21 11h1M24 11h1M11 12h1M16 12h1M22 12h4M16 13h1M22 13h5M22 14h6M22 15h6M22 16h1M27 16h1" />
<path stroke="#ff8a00" d="M10 16h1M10 17h2M23 17h4M16 18h1M22 18h2M26 18h2M8 19h8M21 19h5M27 19h2M7 20h2M13 20h12M26 20h1M28 20h1M7 21h1M9 21h4M17 21h7M25 21h4M8 22h2M13 22h1M25 22h2M14 23h1M24 23h2M15 24h1M24 24h1M16 25h1M23 25h1M16 26h1M22 26h1M17 27h1M21 27h1M18 28h3" />
<path stroke="#ff0000" d="M15 22h2M16 23h3M22 23h1M17 24h1M21 24h2M20 25h2M18 26h3" />
<path stroke="#fc809a" d="M19 23h3M18 24h3M18 25h2" />
<path stroke="#108aec" d="M18 31h2M18 32h2M15 35h2M15 36h3M26 36h2M16 37h2M24 37h2M27 37h2M16 38h2M24 38h2M27 38h3M16 39h2M24 39h2M27 39h3" />
</svg>