<svg xmlns="http://www.w3.org/2000/svg" viewBox="0 -0.5 40 40" shape-rendering="crispEdges">
<metadata>Made with Pixels to Svg https://codepen.io/shshaw/pen/XbxvNj</metadata>
<path stroke="#7dc9f6" d="M0 0h14M24 0h16M0 1h1M10 1h3M25 1h15M10 2h3M25 2h15M0 3h13M25 3h5M33 3h7M0 4h13M34 4h6M0 5h13M35 5h3M0 6h5M0 7h2M35 7h5M0 8h1M35 8h5M0 9h1M35 9h5M0 10h1M34 10h6" />
<path stroke="#4e2705" d="M14 0h4M20 0h4M13 1h1M24 1h1M13 2h1M24 2h1M13 3h1M24 3h1M30 3h3M13 4h1M24 4h6M33 4h1M13 5h1M24 5h1M34 5h1M5 6h9M24 6h1M34 6h1M2 7h3M25 7h8M34 7h1M1 8h1M13 8h11M33 8h2M1 9h1M11 9h3M24 9h1M34 9h1M1 10h1M10 10h1M25 10h2M33 10h1M1 11h1M9 11h1M27 11h1M33 11h1M2 12h7M28 12h5" />
<path stroke="#7c3c04" d="M18 0h2" />
<path stroke="#dcf1fe" d="M1 1h9M0 2h10M38 5h2M35 6h5M8 14h3M0 15h10M29 15h6M4 16h5M29 16h5M37 16h3M4 17h5M29 17h11M29 18h6M8 24h2M12 24h2M11 25h3" />
<path stroke="#cd963e" d="M14 1h3M19 1h4M14 2h1M18 2h5M14 3h1M17 3h6M14 4h9M30 4h3M26 5h8M5 7h20M2 9h9M8 10h2M25 33h1M24 34h3M16 35h1M24 35h6M15 36h3M26 36h5M13 37h2M16 37h1M18 37h1M24 37h2M27 37h3M13 38h3M17 38h3M23 38h4M30 38h3M13 39h2M17 39h4M22 39h6M30 39h3" />
<path stroke="#bc8632" d="M17 1h2M23 1h1M15 2h3M23 2h1M15 3h2M23 3h1M23 4h1M25 5h1M25 6h9M33 7h1M24 8h9M2 10h6" />
<path stroke="#954f00" d="M14 5h10M14 6h10" />
<path stroke="#aa782a" d="M2 8h11M25 9h9M27 10h6M2 11h7M28 11h5M24 32h1M24 33h1M14 36h1M15 37h1M30 37h2M29 38h1" />
<path stroke="#000000" d="M14 9h1M18 9h4M22 10h1M10 11h1M13 11h2M18 11h3M25 11h1M10 12h1M12 12h1M15 12h1M17 12h1M21 12h1M25 12h3M11 13h1M15 13h1M17 13h1M21 13h1M26 13h2M11 14h1M15 14h1M17 14h1M20 14h2M25 14h1M28 14h1M10 15h2M14 15h2M17 15h1M19 15h3M24 15h1M26 15h1M28 15h1M9 16h1M11 16h1M14 16h2M17 16h1M19 16h3M23 16h4M28 16h1M9 17h1M12 17h1M14 17h4M19 17h4M27 17h2M8 18h8M17 18h1M20 18h2M24 18h2M28 18h1M7 19h1M15 19h6M26 19h1M29 19h1M6 20h1M9 20h11M25 20h1M27 20h1M29 20h1M6 21h1M8 21h1M13 21h4M19 21h3M24 21h1M29 21h1M7 22h1M10 22h4M17 22h6M24 22h1M27 22h2M8 23h6M15 23h1M21 23h4M26 23h1M10 24h1M14 24h1M16 24h1M23 24h2M9 25h2M15 25h1M17 25h1M22 25h1M24 25h3M8 26h2M15 26h1M17 26h1M21 26h1M23 26h1M25 26h2M8 27h1M16 27h1M18 27h3M22 27h1M26 27h1M8 28h1M17 28h1M21 28h2M26 28h1M19 29h1M22 29h1M18 30h1M22 30h1M17 31h2M22 31h1M16 32h1M19 32h3M25 32h1M16 33h1M26 33h1M15 34h1M27 34h3M14 35h2M30 35h2M13 36h1M31 36h2M12 37h1M32 37h1M12 38h1M16 38h1M28 38h1M33 38h1M12 39h1M15 39h2M28 39h2M33 39h1" />
<path stroke="#e0dbdb" d="M15 9h3M22 9h2M11 10h5M23 10h2M24 11h1M27 14h1M20 29h2M19 30h2" />
<path stroke="#ffffff" d="M16 10h6M11 11h2M15 11h3M21 11h3M11 12h1M16 12h1M22 12h3M16 13h1M22 13h3M14 14h1M16 14h1M19 14h1M22 14h3M16 15h1M22 15h2M27 15h1M16 16h1M22 16h1M27 16h1M17 23h2M21 30h1M19 31h3" />
<path stroke="#9cd8fd" d="M0 11h1M34 11h6M0 12h2M9 12h1M33 12h7M0 13h11M28 13h12M0 14h8M29 14h11M35 15h5M0 16h4M34 16h3M0 17h4M0 18h8M35 18h4M0 19h7M30 19h8M0 20h6M30 20h6M37 20h1M0 21h4M5 21h1M30 21h4M37 21h1M1 22h2M6 22h1M29 22h5M37 22h1M2 23h1M6 23h2M27 23h6M6 24h2M26 24h7M5 25h4M14 25h1M30 25h2M4 26h4M11 26h4M24 26h1M5 27h1M12 27h3M23 27h1" />
<path stroke="#3b3937" d="M26 11h1M25 13h1M26 14h1M25 15h1M22 21h1M14 22h1M23 22h1M11 24h1M25 24h1M10 26h1" />
<path stroke="#c3d9f9" d="M13 12h2M18 12h3M12 13h3M18 13h3M12 14h2M18 14h1M12 15h2M18 15h1M12 16h2M18 16h1M13 17h1M18 17h1M18 18h2" />
<path stroke="#ff8a00" d="M10 16h1M10 17h2M23 17h4M16 18h1M22 18h2M26 18h2M8 19h7M21 19h5M27 19h2M7 20h2M20 20h5M26 20h1M28 20h1M7 21h1M9 21h4M17 21h2M23 21h1M25 21h4M8 22h2M25 22h2M14 23h1M25 23h1M15 24h1M16 25h1M23 25h1M16 26h1M22 26h1M17 27h1M21 27h1M18 28h3" />
<path stroke="#e25307" d="M39 18h1M38 19h2M38 20h2M38 21h2M38 22h2M37 23h3M37 24h3M27 25h3M38 25h2M27 26h4M39 26h1M6 27h2M9 27h3M15 27h1M24 27h2M27 27h4M5 28h3M9 28h8M23 28h3M27 28h4M7 29h12M25 29h1M7 30h7M17 30h1M8 31h1" />
<path stroke="#f8b57a" d="M36 20h1M4 21h1M34 21h1M36 21h1M0 22h1M5 22h1M36 22h1M1 23h1M5 23h1M5 24h1M4 25h1M37 25h1M31 26h1M38 26h1M31 27h2M39 27h1M32 28h2M5 29h1M30 29h4M5 30h1M16 30h1M31 30h3M7 31h1" />
<path stroke="#fc983e" d="M35 21h1M3 22h2M34 22h2M0 23h1M3 23h2M33 23h4M0 24h5M33 24h3M0 25h4M32 25h4M0 26h4M32 26h2M35 26h1M37 26h1M0 27h4M33 27h1M35 27h1M37 27h2M0 28h4M31 28h1M35 28h1M37 28h3M0 29h4M35 29h1M37 29h1M39 29h1M0 30h4M14 30h2M0 31h2M3 31h1M9 31h8M37 31h1M39 31h1M0 32h2M3 32h1M5 32h11M29 32h7M39 32h1M0 33h2M5 33h11M30 33h6M37 33h3M0 34h4M5 34h10M30 34h6M37 34h2M0 35h4M5 35h3M10 35h4M32 35h1M35 35h1M37 35h3M3 36h4M33 36h7M8 37h2M33 37h3M6 38h1" />
<path stroke="#ff0000" d="M15 22h2M16 23h1M17 24h1M21 24h2M20 25h2M18 26h3" />
<path stroke="#fc809a" d="M19 23h1M18 24h3M18 25h2" />
<path stroke="#ffc301" d="M20 23h1" />
<path stroke="#14b106" d="M36 24h1M36 25h1M34 26h1M36 26h1M34 27h1M36 27h1M34 28h1M36 28h1M34 29h1M36 29h1M38 29h1M36 31h1M38 31h1M36 32h3M36 33h1M36 34h1M36 35h1" />
<path stroke="#16b106" d="M4 27h1M4 28h1M6 29h1M6 30h1M4 31h3M4 34h1M4 35h1" />
<path stroke="#15b106" d="M4 29h1M4 30h1M34 30h3M38 30h1M2 31h1M2 32h1M4 32h1M2 33h3" />
<path stroke="#7bb3fe" d="M23 29h2M28 29h2M24 30h1M30 30h1M22 32h1M28 32h1M29 33h1M23 34h1M23 35h1M23 36h1M22 37h1M22 38h1" />
<path stroke="#559af8" d="M26 29h1M23 30h1M26 30h1M27 31h1M27 32h1M18 33h4M23 33h1M28 33h1M19 34h1M21 34h2M20 35h3M20 36h2M21 37h1" />
<path stroke="#dbd572" d="M27 29h1M24 31h1M26 31h1M18 32h1M22 33h1M20 34h1M19 36h1M22 36h1" />
<path stroke="#568bd1" d="M25 30h1M27 30h3M23 31h1M25 31h1M17 32h1M23 32h1M26 32h1M17 33h1M27 33h1M18 34h1M19 35h1M20 37h1M21 38h1" />
<path stroke="#e56309" d="M37 30h1M39 30h1M28 31h8M39 34h1M8 35h2M33 35h2M0 36h3M7 36h6M0 37h8M10 37h2M36 37h4M0 38h6M7 38h5M34 38h6M0 39h12M34 39h6" />
<path stroke="#93641d" d="M16 34h2M17 35h2" />
<path stroke="#954e00" d="M18 36h1M24 36h2M17 37h1M19 37h1M23 37h1M26 37h1M27 38h1M21 39h1" />
<path stroke="#954d00" d="M20 38h1" />
</svg>