<svg xmlns="http://www.w3.org/2000/svg" viewBox="0 -0.5 40 40" shape-rendering="crispEdges">
<metadata>Made with Pixels to Svg https://codepen.io/shshaw/pen/XbxvNj</metadata>
<path stroke="#23113b" d="M0 0h3M33 0h7M36 1h4M37 2h3M38 3h2M39 4h1" />
<path stroke="#22103a" d="M3 0h8M15 0h1M29 0h4M0 1h5M13 1h1M27 1h2M31 1h4M0 2h4M5 2h2M29 2h1M33 2h3M2 3h1M33 3h1M35 3h2M36 4h2M36 5h4M38 6h2" />
<path stroke="#211039" d="M11 0h1M27 0h2M5 1h1M30 1h1" />
<path stroke="#21103a" d="M12 0h2M4 2h1M34 3h1M35 4h1" />
<path stroke="#22113a" d="M14 0h1M16 0h1M31 2h1M37 6h1" />
<path stroke="#221139" d="M17 0h1M24 0h1" />
<path stroke="#23123a" d="M18 0h2M4 3h2M1 5h1" />
<path stroke="#23123b" d="M20 0h3M15 1h1M6 3h1M31 3h1M33 4h1M34 5h1M37 7h1M38 8h1" />
<path stroke="#23113a" d="M23 0h1M25 1h2M28 2h1M32 3h1M2 4h1M0 5h1M36 6h1" />
<path stroke="#221039" d="M25 0h2M1 4h1" />
<path stroke="#210f39" d="M6 1h1M0 3h2" />
<path stroke="#210f3a" d="M7 1h1M29 1h1M0 4h1" />
<path stroke="#220f3a" d="M8 1h1" />
<path stroke="#ffe7e7" d="M9 1h2M8 2h1M8 3h1M13 3h1M7 4h2M13 4h1M22 4h2M28 4h1M8 5h1M23 5h1M28 5h1M9 6h3M23 6h1M24 7h4M9 8h2M23 8h1M24 9h2M10 10h1M11 12h1M23 12h1M12 13h1M22 13h1M14 14h1M21 14h2M13 15h1M22 15h2M13 16h1M23 16h1M22 34h1M21 35h1M17 36h4M23 36h1" />
<path stroke="#ffffff" d="M11 1h2M13 2h1M24 2h4M14 3h1M23 3h1M28 3h1M14 4h1M29 4h1M13 5h1M12 6h1M28 6h1M11 8h1M10 9h2M23 9h1M11 10h2M22 10h3M11 11h3M22 11h3M12 12h3M22 12h1M24 12h1M13 13h2M21 13h1M23 13h2M13 14h1M15 14h1M23 14h1M14 15h1M18 25h2M15 27h1M18 27h1M21 27h1M24 27h1M10 28h1M21 28h1M10 29h2M21 29h1M11 30h1M15 30h1M21 30h1M12 31h1M14 31h2M21 31h1M26 31h1M12 32h5M20 32h3M25 32h2M13 33h2M16 33h11M14 34h2M20 34h2M23 34h1M15 35h6M22 35h3M21 36h2" />
<path stroke="#22113b" d="M14 1h1M35 5h1" />
<path stroke="#24123c" d="M16 1h1M32 4h1" />
<path stroke="#23133b" d="M17 1h1M30 3h1" />
<path stroke="#24143b" d="M18 1h1M4 4h1M2 5h1M37 8h1" />
<path stroke="#25143b" d="M19 1h1M34 6h1" />
<path stroke="#25153b" d="M20 1h1M39 9h1" />
<path stroke="#25143c" d="M21 1h1M33 5h1M1 6h1" />
<path stroke="#25133d" d="M22 1h1" />
<path stroke="#24133c" d="M23 1h1M7 3h1M29 3h1" />
<path stroke="#24123b" d="M24 1h1" />
<path stroke="#22103b" d="M35 1h1M7 2h1M30 2h1M32 2h1M36 2h1M37 3h1M38 4h1M39 7h1" />
<path stroke="#f1afaf" d="M9 2h1M12 2h1M24 3h1M27 3h1M9 5h1M12 5h1M22 5h1M24 6h1M27 6h1M9 7h3M23 7h1M24 8h3M12 14h1M20 14h1M15 15h1M21 15h1M14 16h1M22 16h1M13 17h1M15 28h1M15 29h1M12 30h1M14 30h1M13 31h1" />
<path stroke="#0360a6" d="M10 2h2M9 3h1M9 4h1M12 4h1M24 4h1M10 5h2M24 5h1M27 5h1M25 6h1" />
<path stroke="#24113e" d="M14 2h1" />
<path stroke="#26123e" d="M15 2h1" />
<path stroke="#27143f" d="M16 2h1" />
<path stroke="#27153e" d="M17 2h1" />
<path stroke="#28173d" d="M18 2h1" />
<path stroke="#28183d" d="M19 2h1M1 7h1M34 7h1" />
<path stroke="#29183f" d="M20 2h1" />
<path stroke="#291741" d="M21 2h1" />
<path stroke="#291641" d="M22 2h1" />
<path stroke="#281541" d="M23 2h1" />
<path stroke="#23103a" d="M3 3h1M34 4h1M38 7h1" />
<path stroke="#000000" d="M10 3h1M10 4h2M25 4h1M25 5h2M17 14h3M16 15h1M20 15h1M15 16h1M17 16h3M21 16h1M14 17h1M16 17h1M20 17h1M22 17h1M13 18h1M15 18h1M20 18h1M22 18h1M12 19h1M14 19h1M21 19h1M23 19h1M11 20h1M14 20h1M22 20h1M24 20h2M28 20h1M9 21h2M13 21h8M23 21h1M25 21h3M30 21h1M13 22h1M21 22h4M29 22h1M31 22h1M10 23h1M12 23h1M25 23h1M31 23h1M11 24h1M17 24h5M30 24h1M12 25h2M16 25h2M20 25h1M22 25h2M27 25h3M15 26h2M20 26h3M28 26h1M9 27h1M13 27h2M16 27h2M20 27h1M22 27h2M26 27h1M28 27h1M9 28h1M16 28h3M20 28h1M22 28h3M26 28h2M9 29h1M16 29h3M20 29h1M22 29h3M26 29h1M10 30h1M16 30h3M20 30h1M22 30h3M26 30h1M11 31h1M16 31h1M20 31h1M22 31h1M25 31h1M27 31h1M11 32h1M17 32h3M23 32h2M27 32h1M12 33h1M15 33h1M27 33h1M13 34h1M16 34h4M24 34h3M14 35h1M15 36h1" />
<path stroke="#c2e2fa" d="M11 3h1M26 4h1" />
<path stroke="#0362a6" d="M12 3h1M17 26h3M19 27h1M19 28h1M25 28h1M19 29h1M25 29h1M19 30h1M25 30h1M17 31h3M23 31h2" />
<path stroke="#2a1345" d="M15 3h1" />
<path stroke="#2b1646" d="M16 3h1" />
<path stroke="#2c1845" d="M17 3h1" />
<path stroke="#2d1b44" d="M18 3h1" />
<path stroke="#2e1b44" d="M19 3h1" />
<path stroke="#2e1b46" d="M20 3h1" />
<path stroke="#2e1949" d="M21 3h1" />
<path stroke="#2e1749" d="M22 3h1" />
<path stroke="#035fa6" d="M25 3h2M27 4h1M26 6h1" />
<path stroke="#24123a" d="M3 4h1M35 6h1" />
<path stroke="#26153c" d="M5 4h1" />
<path stroke="#27173d" d="M6 4h1M0 7h1" />
<path stroke="#2f1551" d="M15 4h1" />
<path stroke="#311750" d="M16 4h1" />
<path stroke="#321a4e" d="M17 4h1" />
<path stroke="#331d4e" d="M18 4h1" />
<path stroke="#341e4f" d="M19 4h1" />
<path stroke="#351d53" d="M20 4h1" />
<path stroke="#351a56" d="M21 4h1" />
<path stroke="#26143e" d="M30 4h1" />
<path stroke="#24143c" d="M31 4h1" />
<path stroke="#26163b" d="M3 5h1" />
<path stroke="#28183b" d="M4 5h1" />
<path stroke="#291a3d" d="M5 5h1M3 6h1" />
<path stroke="#2b1c3f" d="M6 5h1" />
<path stroke="#2d1d42" d="M7 5h1" />
<path stroke="#331559" d="M14 5h1" />
<path stroke="#36165b" d="M15 5h1" />
<path stroke="#37185b" d="M16 5h1" />
<path stroke="#381b5b" d="M17 5h1" />
<path stroke="#3a1d5b" d="M18 5h1" />
<path stroke="#3b1e5c" d="M19 5h1" />
<path stroke="#3b1e5e" d="M20 5h1" />
<path stroke="#3c1c60" d="M21 5h1" />
<path stroke="#2b1747" d="M29 5h1" />
<path stroke="#291743" d="M30 5h1" />
<path stroke="#28173f" d="M31 5h1" />
<path stroke="#26153d" d="M32 5h1" />
<path stroke="#25133b" d="M0 6h1" />
<path stroke="#27173c" d="M2 6h1" />
<path stroke="#2c1d3e" d="M4 6h1" />
<path stroke="#2f2040" d="M5 6h1" />
<path stroke="#322445" d="M6 6h1" />
<path stroke="#35284d" d="M7 6h1" />
<path stroke="#372652" d="M8 6h1" />
<path stroke="#391761" d="M13 6h1" />
<path stroke="#3a1764" d="M14 6h1" />
<path stroke="#3b1965" d="M15 6h1" />
<path stroke="#3d1b65" d="M16 6h1" />
<path stroke="#3e1c63" d="M17 6h1" />
<path stroke="#3f1f63" d="M18 6h1" />
<path stroke="#3f2063" d="M19 6h1" />
<path stroke="#412164" d="M20 6h1" />
<path stroke="#412163" d="M21 6h1" />
<path stroke="#3f2260" d="M22 6h1" />
<path stroke="#311b4e" d="M29 6h1" />
<path stroke="#2f1b49" d="M30 6h1" />
<path stroke="#2d1a44" d="M31 6h1" />
<path stroke="#2b1940" d="M32 6h1" />
<path stroke="#27163e" d="M33 6h1" />
<path stroke="#2b1c3e" d="M2 7h1" />
<path stroke="#2d2040" d="M3 7h1M1 8h1" />
<path stroke="#302441" d="M4 7h1" />
<path stroke="#342946" d="M5 7h1" />
<path stroke="#3c3250" d="M6 7h1" />
<path stroke="#463d61" d="M7 7h1" />
<path stroke="#4a416d" d="M8 7h1" />
<path stroke="#3e216b" d="M12 7h1" />
<path stroke="#3d196b" d="M13 7h1" />
<path stroke="#40196b" d="M14 7h1" />
<path stroke="#401c69" d="M15 7h1" />
<path stroke="#411e66" d="M16 7h1" />
<path stroke="#412264" d="M17 7h1" />
<path stroke="#422462" d="M18 7h1" />
<path stroke="#422661" d="M19 7h1" />
<path stroke="#42275f" d="M20 7h1" />
<path stroke="#422a5d" d="M21 7h1" />
<path stroke="#412c5a" d="M22 7h1" />
<path stroke="#392755" d="M28 7h1" />
<path stroke="#382653" d="M29 7h1" />
<path stroke="#35244d" d="M30 7h1" />
<path stroke="#322147" d="M31 7h1" />
<path stroke="#2e1f42" d="M32 7h1" />
<path stroke="#2b1b3f" d="M33 7h1" />
<path stroke="#26153b" d="M35 7h1" />
<path stroke="#25133a" d="M36 7h1" />
<path stroke="#2d1e40" d="M0 8h1" />
<path stroke="#302340" d="M2 8h1" />
<path stroke="#332741" d="M3 8h1" />
<path stroke="#362c43" d="M4 8h1" />
<path stroke="#3b314b" d="M5 8h1" />
<path stroke="#3f1201" d="M6 8h1M9 12h1M0 19h1M0 21h1" />
<path stroke="#2e1001" d="M7 8h1M5 9h2M28 9h2M5 10h2M28 10h3M31 11h1M33 13h3M34 14h2M4 15h3M10 15h1M33 15h3M4 16h1M10 16h2M35 16h1M3 17h1M8 17h1M12 17h1M32 17h1M4 18h1M9 18h1M31 18h2M35 18h1M4 19h3M10 19h1M31 19h1M35 19h1M4 20h1M30 20h1M36 20h1M36 21h1M36 22h1M34 23h1M37 23h1M2 24h1M37 24h1M33 25h1M37 25h1M37 26h1" />
<path stroke="#6c6f99" d="M8 8h1" />
<path stroke="#453076" d="M12 8h1" />
<path stroke="#432070" d="M13 8h1" />
<path stroke="#421d6d" d="M14 8h1" />
<path stroke="#432068" d="M15 8h1" />
<path stroke="#422562" d="M16 8h1" />
<path stroke="#432a5e" d="M17 8h1" />
<path stroke="#432d5c" d="M18 8h1" />
<path stroke="#432f5b" d="M19 8h1" />
<path stroke="#433058" d="M20 8h1" />
<path stroke="#433255" d="M21 8h1" />
<path stroke="#423453" d="M22 8h1" />
<path stroke="#3f344f" d="M27 8h1" />
<path stroke="#413553" d="M28 8h1" />
<path stroke="#423454" d="M29 8h1" />
<path stroke="#3d2f4f" d="M30 8h1" />
<path stroke="#372a49" d="M31 8h1" />
<path stroke="#332544" d="M32 8h1" />
<path stroke="#2f2241" d="M33 8h1" />
<path stroke="#2c1e3d" d="M34 8h1" />
<path stroke="#291a3c" d="M35 8h1" />
<path stroke="#27173b" d="M36 8h1" />
<path stroke="#22123b" d="M39 8h1" />
<path stroke="#312640" d="M0 9h1" />
<path stroke="#332740" d="M1 9h1" />
<path stroke="#342b41" d="M2 9h1" />
<path stroke="#372f43" d="M3 9h1" />
<path stroke="#3a3145" d="M4 9h1" />
<path stroke="#3f1301" d="M7 9h1M8 10h1M5 11h1M3 12h1M1 14h1M4 14h2M9 14h1M1 15h1M9 15h1M0 17h1M0 18h1M3 19h1M2 20h1M1 21h1M0 22h1M2 26h1M10 26h1M2 27h1M11 27h1M3 28h1M11 28h2M3 29h1M13 29h1M4 31h1M5 32h1" />
<path stroke="#b7440a" d="M8 9h1M31 10h1M27 11h1M29 11h1M32 11h1M34 12h1M10 14h1M26 14h1M0 15h1M7 15h1M11 15h1M25 15h1M7 16h1M9 16h1M12 16h1M25 16h1M5 17h1M9 17h2M24 17h1M11 18h1M3 20h1M7 20h1M29 20h1M3 21h1M8 21h1M37 21h1M2 22h1M9 22h1M1 23h1M24 24h1M25 25h1M38 25h1M24 26h1M4 29h1M34 32h1" />
<path stroke="#ea560d" d="M9 9h1M30 9h1M4 10h1M33 11h1M26 13h1M36 13h1M11 14h1M8 16h1M24 16h1M4 17h1M11 17h1M23 17h1M3 18h1M12 18h1M7 21h1M14 28h1M5 31h1" />
<path stroke="#4c3e7c" d="M12 9h1" />
<path stroke="#442871" d="M13 9h1" />
<path stroke="#43226a" d="M14 9h1" />
<path stroke="#442764" d="M15 9h1" />
<path stroke="#442c5e" d="M16 9h1" />
<path stroke="#442f5b" d="M17 9h1" />
<path stroke="#44315a" d="M18 9h1" />
<path stroke="#443159" d="M19 9h1" />
<path stroke="#443357" d="M20 9h1" />
<path stroke="#443654" d="M21 9h1" />
<path stroke="#433752" d="M22 9h1" />
<path stroke="#42394a" d="M26 9h1" />
<path stroke="#413a4b" d="M27 9h1" />
<path stroke="#3c304c" d="M31 9h1" />
<path stroke="#372a48" d="M32 9h1" />
<path stroke="#342644" d="M33 9h1" />
<path stroke="#312241" d="M34 9h1" />
<path stroke="#2d1f3f" d="M35 9h1" />
<path stroke="#2a1c3c" d="M36 9h1" />
<path stroke="#27183b" d="M37 9h1" />
<path stroke="#25163b" d="M38 9h1" />
<path stroke="#372f40" d="M0 10h1" />
<path stroke="#383140" d="M1 10h1" />
<path stroke="#3a3342" d="M2 10h1" />
<path stroke="#3b3643" d="M3 10h1" />
<path stroke="#2b0d00" d="M7 10h1M4 11h1M7 11h2M4 12h1M8 12h1M28 12h1M32 12h1M2 13h2M9 13h1M27 13h2M2 14h1M2 15h1M27 15h1M0 16h2M5 16h1M26 16h1M6 17h2M25 17h1M24 18h1M6 21h1M35 21h1M7 22h1M34 22h1M8 23h1M28 23h1M8 24h1M27 24h1M2 25h2M9 25h1M3 26h1M9 26h1M26 26h1M3 27h1M10 27h1M12 29h1M4 30h1M13 30h1" />
<path stroke="#7c2803" d="M9 10h1M3 11h1M9 11h2M2 12h1M10 13h1" />
<path stroke="#452c6b" d="M13 10h1" />
<path stroke="#442864" d="M14 10h1" />
<path stroke="#442c5f" d="M15 10h1" />
<path stroke="#452f5e" d="M16 10h1" />
<path stroke="#442e5d" d="M17 10h1" />
<path stroke="#452e5e" d="M18 10h1" />
<path stroke="#452f5d" d="M19 10h1" />
<path stroke="#45315b" d="M20 10h1" />
<path stroke="#443456" d="M21 10h1" />
<path stroke="#443750" d="M25 10h1" />
<path stroke="#433a4c" d="M26 10h1" />
<path stroke="#423c4c" d="M27 10h1" />
<path stroke="#3c2b4f" d="M32 10h1" />
<path stroke="#39294a" d="M33 10h1" />
<path stroke="#352747" d="M34 10h1" />
<path stroke="#322443" d="M35 10h1" />
<path stroke="#2e213f" d="M36 10h1" />
<path stroke="#2b1e3d" d="M37 10h1" />
<path stroke="#2a1b3c" d="M38 10h1" />
<path stroke="#281a3b" d="M39 10h1" />
<path stroke="#3b3741" d="M0 11h1" />
<path stroke="#3c3841" d="M1 11h1" />
<path stroke="#3d3943" d="M2 11h1" />
<path stroke="#453b5a" d="M6 11h1" />
<path stroke="#452e60" d="M14 11h1" />
<path stroke="#452f5f" d="M15 11h1" />
<path stroke="#463060" d="M16 11h1" />
<path stroke="#463062" d="M17 11h1" />
<path stroke="#463063" d="M18 11h1" />
<path stroke="#463161" d="M19 11h1" />
<path stroke="#46345d" d="M20 11h1" />
<path stroke="#453758" d="M21 11h1" />
<path stroke="#443854" d="M25 11h1M30 11h1" />
<path stroke="#443952" d="M26 11h1" />
<path stroke="#3f1501" d="M28 11h1M33 16h1M35 17h1M36 18h1M24 19h1M36 19h1M26 25h1M25 26h1M36 28h1" />
<path stroke="#3a2c4c" d="M34 11h1" />
<path stroke="#362949" d="M35 11h1" />
<path stroke="#332644" d="M36 11h1" />
<path stroke="#302540" d="M37 11h1" />
<path stroke="#2d223d" d="M38 11h1" />
<path stroke="#2d203d" d="M39 11h1" />
<path stroke="#3f3d41" d="M0 12h1" />
<path stroke="#3f3d42" d="M1 12h1" />
<path stroke="#443754" d="M5 12h1" />
<path stroke="#443659" d="M6 12h1" />
<path stroke="#473762" d="M7 12h1" />
<path stroke="#7c2a03" d="M10 12h1M2 21h1M1 22h1M38 22h1M0 23h1M38 23h1M0 24h1M11 26h1M12 27h1M13 28h1M14 29h1M12 35h1M11 36h2M16 36h1M24 36h1M11 37h1M14 37h1M18 37h2M33 37h1M11 38h1M13 38h6M21 38h2M33 38h1M11 39h2M14 39h6M22 39h1M24 39h2M27 39h3" />
<path stroke="#493761" d="M15 12h1" />
<path stroke="#4d3a66" d="M16 12h1" />
<path stroke="#503c69" d="M17 12h1" />
<path stroke="#503d69" d="M18 12h1" />
<path stroke="#4f3e66" d="M19 12h1" />
<path stroke="#4d3f5f" d="M20 12h1" />
<path stroke="#4a3f59" d="M21 12h1" />
<path stroke="#4d3f60" d="M25 12h1" />
<path stroke="#4d3e62" d="M26 12h1" />
<path stroke="#824e1b" d="M27 12h1M26 15h1M23 18h1M28 21h1M27 22h1M37 22h1M26 23h1M25 24h1M24 25h1M23 26h1" />
<path stroke="#4d3e61" d="M29 12h1M6 13h1" />
<path stroke="#4a3d5c" d="M30 12h1" />
<path stroke="#483c5a" d="M31 12h1" />
<path stroke="#5f2304" d="M33 12h1M36 14h1M36 17h1M35 20h1M37 20h1M29 21h1M34 21h1M28 22h1M27 23h1M26 24h1M33 24h1M32 26h1M25 27h1M11 34h2M11 35h1M13 35h1M12 37h1M20 37h1M10 38h1M12 38h1M19 38h2M23 38h8M13 39h1M20 39h2M23 39h1M26 39h1" />
<path stroke="#3f334f" d="M35 12h1" />
<path stroke="#3b304b" d="M36 12h1" />
<path stroke="#372d44" d="M37 12h1" />
<path stroke="#332a40" d="M38 12h1" />
<path stroke="#32293e" d="M39 12h1" />
<path stroke="#414142" d="M0 13h1" />
<path stroke="#414143" d="M1 13h1" />
<path stroke="#493f56" d="M4 13h1" />
<path stroke="#4c3e5d" d="M5 13h1" />
<path stroke="#513f68" d="M7 13h1" />
<path stroke="#5d467c" d="M8 13h1" />
<path stroke="#614686" d="M11 13h1" />
<path stroke="#55446a" d="M15 13h1" />
<path stroke="#5a496e" d="M16 13h1" />
<path stroke="#5e4d72" d="M17 13h1" />
<path stroke="#5e4d73" d="M18 13h1" />
<path stroke="#5b4c6e" d="M19 13h1" />
<path stroke="#564a65" d="M20 13h1" />
<path stroke="#6a5188" d="M25 13h1" />
<path stroke="#6a5287" d="M29 13h1" />
<path stroke="#614e78" d="M30 13h1" />
<path stroke="#5a4b6c" d="M31 13h1" />
<path stroke="#544864" d="M32 13h1" />
<path stroke="#3f3749" d="M37 13h1" />
<path stroke="#393343" d="M38 13h1" />
<path stroke="#373241" d="M39 13h1" />
<path stroke="#444245" d="M0 14h1" />
<path stroke="#4c4553" d="M3 14h1" />
<path stroke="#604d76" d="M6 14h1" />
<path stroke="#624f7a" d="M7 14h1" />
<path stroke="#71578e" d="M8 14h1" />
<path stroke="#615272" d="M16 14h1" />
<path stroke="#8866ad" d="M24 14h1" />
<path stroke="#9970c6" d="M25 14h1" />
<path stroke="#3f1401" d="M27 14h1M36 15h1M6 16h1M36 16h1M5 18h1M10 18h1M11 19h1M5 20h2M4 21h1M3 22h1M2 23h1M1 24h1M0 25h1" />
<path stroke="#a174d3" d="M28 14h1" />
<path stroke="#936dbe" d="M29 14h1" />
<path stroke="#8063a1" d="M30 14h1" />
<path stroke="#715b8a" d="M31 14h1" />
<path stroke="#66557a" d="M32 14h1" />
<path stroke="#7c2c03" d="M33 14h1M32 16h1M30 19h1" />
<path stroke="#433f49" d="M37 14h1" />
<path stroke="#403d47" d="M38 14h1" />
<path stroke="#413d49" d="M39 14h1" />
<path stroke="#514a59" d="M3 15h1" />
<path stroke="#775f93" d="M8 15h1" />
<path stroke="#8f6bb8" d="M12 15h1" />
<path stroke="#ff8a00" d="M17 15h3M16 16h1M20 16h1M15 17h1M21 17h1M14 18h1M21 18h1M13 19h1M22 19h1M12 20h2M23 20h1M11 21h2M24 21h1M10 22h3M14 22h7M25 22h2M30 22h1M11 23h1M13 23h12M29 23h2M12 24h5M22 24h2M28 24h2M14 25h2M21 25h1M13 26h2M27 26h1M27 27h1" />
<path stroke="#a87ccd" d="M24 15h1" />
<path stroke="#c089ee" d="M28 15h1" />
<path stroke="#b080d8" d="M29 15h1" />
<path stroke="#9a75ba" d="M30 15h1" />
<path stroke="#876a9f" d="M31 15h1" />
<path stroke="#f3b21f" d="M32 15h1" />
<path stroke="#46434b" d="M37 15h1" />
<path stroke="#48474f" d="M38 15h1" />
<path stroke="#4e4d58" d="M39 15h1" />
<path stroke="#4e4952" d="M2 16h1" />
<path stroke="#554d5c" d="M3 16h1" />
<path stroke="#d192fc" d="M27 16h1" />
<path stroke="#cc90f6" d="M28 16h1" />
<path stroke="#be88e3" d="M29 16h1" />
<path stroke="#a880c7" d="M30 16h1" />
<path stroke="#9077aa" d="M31 16h1" />
<path stroke="#5f5768" d="M34 16h1" />
<path stroke="#4b4950" d="M37 16h1" />
<path stroke="#515058" d="M38 16h1" />
<path stroke="#5b5c66" d="M39 16h1" />
<path stroke="#58505f" d="M1 17h1" />
<path stroke="#544d5a" d="M2 17h1" />
<path stroke="#fffedf" d="M17 17h1M19 17h1M16 18h1M15 20h1M17 20h1M19 20h1M21 21h1" />
<path stroke="#ff0000" d="M18 17h1M17 18h1M15 19h2M20 19h1M20 20h2M22 21h1" />
<path stroke="#d293fe" d="M26 17h2" />
<path stroke="#ce91f8" d="M28 17h1" />
<path stroke="#c28ce8" d="M29 17h1" />
<path stroke="#aa85cb" d="M30 17h1" />
<path stroke="#ea570d" d="M31 17h1M30 18h1M29 19h1M36 30h1" />
<path stroke="#706881" d="M33 17h1" />
<path stroke="#625c6d" d="M34 17h1" />
<path stroke="#535159" d="M37 17h1" />
<path stroke="#5b5965" d="M38 17h1" />
<path stroke="#636471" d="M39 17h1" />
<path stroke="#64586f" d="M1 18h1" />
<path stroke="#65566f" d="M2 18h1" />
<path stroke="#8f3106" d="M6 18h1M7 19h1M8 20h1M10 24h1M11 25h1M12 26h1" />
<path stroke="#685874" d="M7 18h1" />
<path stroke="#665671" d="M8 18h1" />
<path stroke="#fc809a" d="M18 18h2M17 19h3M16 20h1M18 20h1" />
<path stroke="#cb8dfc" d="M25 18h1" />
<path stroke="#cd8fff" d="M26 18h1M33 36h1" />
<path stroke="#cd8efe" d="M27 18h1" />
<path stroke="#cb8ef9" d="M28 18h1" />
<path stroke="#c08ae8" d="M29 18h1" />
<path stroke="#726482" d="M33 18h1" />
<path stroke="#675d73" d="M34 18h1" />
<path stroke="#62606e" d="M37 18h1" />
<path stroke="#686677" d="M38 18h1" />
<path stroke="#6d6c7d" d="M39 18h1" />
<path stroke="#7a658b" d="M1 19h1" />
<path stroke="#816694" d="M2 19h1" />
<path stroke="#6d5a7a" d="M8 19h1" />
<path stroke="#6e5b7b" d="M9 19h1M33 21h1" />
<path stroke="#b47ef1" d="M25 19h1" />
<path stroke="#b67ff2" d="M26 19h1" />
<path stroke="#b77ff4" d="M27 19h1M31 25h1" />
<path stroke="#bc84f8" d="M28 19h1" />
<path stroke="#786389" d="M32 19h1" />
<path stroke="#715d7f" d="M33 19h1" />
<path stroke="#6a5b76" d="M34 19h1" />
<path stroke="#706e82" d="M37 19h1" />
<path stroke="#76758b" d="M38 19h1" />
<path stroke="#757389" d="M39 19h1" />
<path stroke="#3f1101" d="M0 20h1" />
<path stroke="#7c2903" d="M1 20h1M8 22h1M9 23h1M9 24h1M10 25h1M37 27h1" />
<path stroke="#7b628c" d="M9 20h1" />
<path stroke="#7a628b" d="M10 20h1" />
<path stroke="#875dbc" d="M26 20h1" />
<path stroke="#8e62c4" d="M27 20h1" />
<path stroke="#896a9f" d="M31 20h1" />
<path stroke="#745f83" d="M32 20h1" />
<path stroke="#6b5a78" d="M33 20h1" />
<path stroke="#685873" d="M34 20h1" />
<path stroke="#79758e" d="M38 20h1" />
<path stroke="#737387" d="M39 20h1" />
<path stroke="#b986e4" d="M5 21h1" />
<path stroke="#926faa" d="M31 21h1" />
<path stroke="#79618a" d="M32 21h1" />
<path stroke="#746d87" d="M38 21h1" />
<path stroke="#6f7082" d="M39 21h1" />
<path stroke="#b27fee" d="M4 22h1" />
<path stroke="#b27eed" d="M5 22h1" />
<path stroke="#b07bea" d="M6 22h1" />
<path stroke="#8f6da6" d="M32 22h1" />
<path stroke="#806593" d="M33 22h1" />
<path stroke="#6f5c7d" d="M35 22h1" />
<path stroke="#7b7c92" d="M39 22h1" />
<path stroke="#8f67c6" d="M3 23h1" />
<path stroke="#8f64c6" d="M4 23h1" />
<path stroke="#8c61c2" d="M5 23h1" />
<path stroke="#895fbe" d="M6 23h1M35 37h1" />
<path stroke="#855db9" d="M7 23h1" />
<path stroke="#ad7ecd" d="M32 23h1" />
<path stroke="#a077bd" d="M33 23h1" />
<path stroke="#8b6ca1" d="M35 23h1" />
<path stroke="#886d9e" d="M36 23h1" />
<path stroke="#939ab9" d="M39 23h1" />
<path stroke="#8e73c6" d="M3 24h1" />
<path stroke="#8d66c4" d="M4 24h1" />
<path stroke="#855dbb" d="M5 24h1" />
<path stroke="#7651aa" d="M6 24h1" />
<path stroke="#664599" d="M7 24h1" />
<path stroke="#c58af3" d="M31 24h1" />
<path stroke="#c089eb" d="M32 24h1" />
<path stroke="#b483d7" d="M34 24h1" />
<path stroke="#ad80cd" d="M35 24h1" />
<path stroke="#a885c9" d="M36 24h1" />
<path stroke="#7c2b03" d="M38 24h1M27 29h2M36 29h1M27 30h3M8 31h2M30 31h1M35 31h1M9 32h2M28 32h1M9 33h1M28 33h2M10 34h1M27 34h1M30 34h2M8 35h3M26 35h3M9 36h1M13 36h1M25 36h1M27 36h3M31 36h2M8 37h1M15 37h1M22 37h1M26 37h1M28 37h1M31 37h2" />
<path stroke="#a0acd9" d="M39 24h1" />
<path stroke="#acafef" d="M1 25h1" />
<path stroke="#b383f0" d="M4 25h1" />
<path stroke="#a978e4" d="M5 25h1" />
<path stroke="#9668cd" d="M6 25h1M29 26h1" />
<path stroke="#8058b4" d="M7 25h1M31 27h1M31 33h1" />
<path stroke="#674499" d="M8 25h1M6 39h1" />
<path stroke="#b980f6" d="M30 25h1" />
<path stroke="#bd84fa" d="M32 25h1" />
<path stroke="#c68df1" d="M34 25h1" />
<path stroke="#c491ec" d="M35 25h1" />
<path stroke="#bf9eea" d="M36 25h1" />
<path stroke="#939dce" d="M39 25h1" />
<path stroke="#9a92d5" d="M0 26h1" />
<path stroke="#afb6f3" d="M1 26h1" />
<path stroke="#cb94ff" d="M4 26h1" />
<path stroke="#c68cff" d="M5 26h1M30 35h1" />
<path stroke="#ba82f8" d="M6 26h1" />
<path stroke="#a875e2" d="M7 26h1" />
<path stroke="#8a60bf" d="M8 26h1" />
<path stroke="#9467cb" d="M30 26h1" />
<path stroke="#9366ca" d="M31 26h1" />
<path stroke="#c086fd" d="M33 26h1" />
<path stroke="#cd92fc" d="M34 26h1" />
<path stroke="#cd9dfb" d="M35 26h1" />
<path stroke="#c6adfa" d="M36 26h1" />
<path stroke="#9da6dd" d="M38 26h1" />
<path stroke="#7a7db1" d="M39 26h1" />
<path stroke="#8384bc" d="M0 27h1" />
<path stroke="#a7b0e9" d="M1 27h1" />
<path stroke="#cc95ff" d="M4 27h1" />
<path stroke="#cb8fff" d="M5 27h1M7 35h1" />
<path stroke="#c78cff" d="M6 27h1" />
<path stroke="#bc84fa" d="M7 27h1M34 36h1" />
<path stroke="#a170da" d="M8 27h1" />
<path stroke="#7852ac" d="M29 27h1" />
<path stroke="#7751aa" d="M30 27h1M8 29h1" />
<path stroke="#9f6fd8" d="M32 27h1" />
<path stroke="#bf87fe" d="M33 27h1" />
<path stroke="#ce96ff" d="M34 27h1" />
<path stroke="#cca5ff" d="M35 27h1" />
<path stroke="#beafff" d="M36 27h1" />
<path stroke="#8589bf" d="M38 27h1" />
<path stroke="#635e98" d="M39 27h1" />
<path stroke="#7272a8" d="M0 28h1" />
<path stroke="#939bd1" d="M1 28h1" />
<path stroke="#a8a5e8" d="M2 28h1" />
<path stroke="#b584f2" d="M4 28h1" />
<path stroke="#b57ff2" d="M5 28h1M30 29h1" />
<path stroke="#b47ff1" d="M6 28h1" />
<path stroke="#ae79ea" d="M7 28h1" />
<path stroke="#9a6bd2" d="M8 28h1M4 35h1" />
<path stroke="#8058b5" d="M28 28h1" />
<path stroke="#885ebe" d="M29 28h1" />
<path stroke="#8d62c3" d="M30 28h1" />
<path stroke="#9b6cd3" d="M31 28h1" />
<path stroke="#b37ef0" d="M32 28h1" />
<path stroke="#c78eff" d="M33 28h1" />
<path stroke="#cc99ff" d="M34 28h1" />
<path stroke="#c1a1ff" d="M35 28h1" />
<path stroke="#8888c1" d="M37 28h1" />
<path stroke="#67639b" d="M38 28h1" />
<path stroke="#4f4084" d="M39 28h1" />
<path stroke="#5c5490" d="M0 29h1" />
<path stroke="#7170a7" d="M1 29h1" />
<path stroke="#7d76b5" d="M2 29h1" />
<path stroke="#865dbb" d="M5 29h1" />
<path stroke="#855cbb" d="M6 29h1M30 33h1" />
<path stroke="#835ab7" d="M7 29h1" />
<path stroke="#ad7ae8" d="M29 29h1" />
<path stroke="#bb84f9" d="M31 29h1" />
<path stroke="#c489ff" d="M32 29h1M7 37h1" />
<path stroke="#c88eff" d="M33 29h1" />
<path stroke="#c193ff" d="M34 29h1" />
<path stroke="#ab91e9" d="M35 29h1" />
<path stroke="#68609c" d="M37 29h1" />
<path stroke="#504084" d="M38 29h1" />
<path stroke="#472a7c" d="M39 29h1M38 30h1" />
<path stroke="#4a357f" d="M0 30h1" />
<path stroke="#504085" d="M1 30h1" />
<path stroke="#554489" d="M2 30h1" />
<path stroke="#583f8a" d="M3 30h1" />
<path stroke="#58398b" d="M5 30h1" />
<path stroke="#58388b" d="M6 30h1M7 32h1" />
<path stroke="#56378a" d="M7 30h1" />
<path stroke="#523386" d="M8 30h1" />
<path stroke="#4a2b80" d="M9 30h1" />
<path stroke="#c388ff" d="M30 30h1M6 36h1" />
<path stroke="#c288ff" d="M31 30h1" />
<path stroke="#bb83f9" d="M32 30h1" />
<path stroke="#b47ff0" d="M33 30h1" />
<path stroke="#a67de0" d="M34 30h1" />
<path stroke="#8a71c0" d="M35 30h1" />
<path stroke="#503e84" d="M37 30h1" />
<path stroke="#451f7a" d="M39 30h1M38 31h1M37 32h1M1 33h1M38 35h1M1 36h1M38 37h1" />
<path stroke="#45227a" d="M0 31h1" />
<path stroke="#45257b" d="M1 31h1" />
<path stroke="#45277b" d="M2 31h1" />
<path stroke="#45267c" d="M3 31h1" />
<path stroke="#46267d" d="M6 31h2" />
<path stroke="#a53e09" d="M10 31h1M28 31h2M29 32h2M10 33h2M9 34h1M28 34h2M25 35h1M29 35h1M14 36h1M26 36h1M30 36h1M9 37h2M13 37h1M16 37h2M21 37h1M23 37h3M27 37h1" />
<path stroke="#a875e3" d="M31 31h1" />
<path stroke="#9769ce" d="M32 31h1" />
<path stroke="#885fbd" d="M33 31h1" />
<path stroke="#7b57ae" d="M34 31h1" />
<path stroke="#513884" d="M36 31h1" />
<path stroke="#47287c" d="M37 31h1" />
<path stroke="#451c7a" d="M39 31h1M0 32h1M38 32h2M0 33h1M38 33h2M0 34h1M39 34h1M0 35h1M39 35h1M0 36h1M39 36h1M0 37h1M39 37h1M0 38h2M39 38h1M0 39h3M38 39h2" />
<path stroke="#441d7a" d="M1 32h1" />
<path stroke="#45217b" d="M2 32h1" />
<path stroke="#49297e" d="M3 32h1" />
<path stroke="#4e2f82" d="M4 32h1" />
<path stroke="#543588" d="M6 32h1" />
<path stroke="#58398c" d="M8 32h1" />
<path stroke="#8259b6" d="M31 32h1M32 33h1M7 39h1" />
<path stroke="#744fa7" d="M32 32h1M5 33h1" />
<path stroke="#6a469c" d="M33 32h1" />
<path stroke="#533486" d="M35 32h1" />
<path stroke="#48277d" d="M36 32h1" />
<path stroke="#4b2a7f" d="M2 33h1" />
<path stroke="#5c3b8e" d="M3 33h1" />
<path stroke="#6c499e" d="M4 33h1" />
<path stroke="#7e56b1" d="M6 33h1" />
<path stroke="#855cba" d="M7 33h1" />
<path stroke="#875ebc" d="M8 33h1" />
<path stroke="#835ab8" d="M33 33h1" />
<path stroke="#7952ac" d="M34 33h1" />
<path stroke="#624094" d="M35 33h1" />
<path stroke="#4c2c80" d="M36 33h1M2 36h1" />
<path stroke="#45207b" d="M37 33h1" />
<path stroke="#46217b" d="M1 34h1M1 35h1" />
<path stroke="#523285" d="M2 34h1M2 35h1" />
<path stroke="#704ca2" d="M3 34h1M34 39h1" />
<path stroke="#8e62c3" d="M4 34h1" />
<path stroke="#9e6ed6" d="M5 34h1" />
<path stroke="#ab77e6" d="M6 34h1" />
<path stroke="#b47df0" d="M7 34h1M5 35h1" />
<path stroke="#b67ff3" d="M8 34h1" />
<path stroke="#ac78e7" d="M32 34h1" />
<path stroke="#af7aeb" d="M33 34h1M6 37h1" />
<path stroke="#a06fd9" d="M34 34h1" />
<path stroke="#7c55b0" d="M35 34h1" />
<path stroke="#58388a" d="M36 34h1" />
<path stroke="#48257c" d="M37 34h1" />
<path stroke="#451d7a" d="M38 34h1M1 37h1M2 38h1M38 38h1M3 39h1M37 39h1" />
<path stroke="#744fa6" d="M3 35h1" />
<path stroke="#c389ff" d="M6 35h1" />
<path stroke="#c58aff" d="M31 35h1" />
<path stroke="#c88cff" d="M32 35h1M9 38h1M32 38h1M10 39h1" />
<path stroke="#c78dff" d="M33 35h1" />
<path stroke="#b780f4" d="M34 35h1" />
<path stroke="#9265c7" d="M35 35h1" />
<path stroke="#674498" d="M36 35h1" />
<path stroke="#4c2b80" d="M37 35h1" />
<path stroke="#654396" d="M3 36h1" />
<path stroke="#8a5fbe" d="M4 36h1" />
<path stroke="#ac77e6" d="M5 36h1" />
<path stroke="#ce90ff" d="M7 36h1" />
<path stroke="#d293ff" d="M8 36h1M10 36h1" />
<path stroke="#996bd0" d="M35 36h1" />
<path stroke="#6e4a9f" d="M36 36h1" />
<path stroke="#4f2e82" d="M37 36h1" />
<path stroke="#46207b" d="M38 36h1" />
<path stroke="#47237c" d="M2 37h1" />
<path stroke="#513184" d="M3 37h1M36 38h1M5 39h1" />
<path stroke="#6b489d" d="M4 37h1M35 38h1" />
<path stroke="#8f62c4" d="M5 37h1" />
<path stroke="#d394ff" d="M29 37h2M30 39h1" />
<path stroke="#ae7be9" d="M34 37h1" />
<path stroke="#634295" d="M36 37h1" />
<path stroke="#4b2b7f" d="M37 37h1" />
<path stroke="#47247c" d="M3 38h1M4 39h1M36 39h1" />
<path stroke="#523185" d="M4 38h1" />
<path stroke="#6c489d" d="M5 38h1" />
<path stroke="#8d61c2" d="M6 38h1" />
<path stroke="#a976e3" d="M7 38h1" />
<path stroke="#bd85fa" d="M8 38h1" />
<path stroke="#d193ff" d="M31 38h1" />
<path stroke="#8f63c5" d="M34 38h1" />
<path stroke="#47237b" d="M37 38h1" />
<path stroke="#a170d9" d="M8 39h1" />
<path stroke="#be84fc" d="M9 39h1" />
<path stroke="#cf91ff" d="M31 39h1" />
<path stroke="#be85fc" d="M32 39h1" />
<path stroke="#9a6cd1" d="M33 39h1" />
<path stroke="#533386" d="M35 39h1" />
</svg>