<svg xmlns="http://www.w3.org/2000/svg" viewBox="0 -0.5 40 40" shape-rendering="crispEdges">
<metadata>Made with Pixels to Svg https://codepen.io/shshaw/pen/XbxvNj</metadata>
<path stroke="#b90861" d="M0 0h26M0 1h26M0 2h14M24 2h2M0 3h12M0 4h11M0 5h10M0 6h10M0 7h10M0 8h10M0 9h9M0 10h9M0 11h9M0 12h9M0 13h10M0 14h10M0 15h10M0 16h9M0 17h9M0 18h8M0 19h7M0 20h6M0 21h6M0 22h7M0 23h8M10 23h2M27 23h1M0 24h14M26 24h2" />
<path stroke="#b90862" d="M26 0h2M26 1h2M26 2h2M26 3h2M27 4h1" />
<path stroke="#74073f" d="M28 0h1M28 1h1M28 2h1M28 3h1M28 4h1M28 5h1" />
<path stroke="#debd77" d="M29 0h1M32 0h2M29 1h1M32 1h2M29 2h1M29 3h1M32 3h2M29 4h1M32 4h2M29 5h1M32 5h2M29 6h1M32 7h2M32 8h2M32 9h2M32 10h2M32 12h2M32 13h2M32 14h2M32 15h2M32 17h2M32 18h2M32 19h2M32 20h2M32 21h2M29 22h1M29 23h1M32 23h2M29 24h1M32 24h2M29 25h1M32 25h2M29 26h1M32 26h2M29 27h1M29 28h1M32 28h2M29 29h1M32 29h2M29 30h1M32 30h2M29 31h1M32 31h2M29 32h1M31 33h3M32 34h2M32 35h2" />
<path stroke="#d2a74b" d="M30 0h1M34 0h1M30 1h1M34 1h1M30 2h5M30 3h1M34 3h1M30 4h1M34 4h1M30 5h1M34 5h1M30 6h5M30 7h1M34 7h1M30 8h1M34 8h1M34 9h1M34 10h1M32 11h3M34 12h1M34 13h1M34 14h1M34 15h1M32 16h3M34 17h1M34 18h1M34 19h1M30 20h1M34 20h1M30 21h1M34 21h1M30 22h5M30 23h1M34 23h1M30 24h1M34 24h1M30 25h1M34 25h1M30 26h1M34 26h1M30 27h5M30 28h1M34 28h1M30 29h1M34 29h1M30 30h1M34 30h1M30 31h1M34 31h1M30 32h5M34 33h1M34 34h1M34 35h1M34 36h1M33 37h2M34 38h1M34 39h1" />
<path stroke="#debe77" d="M31 0h1M35 0h1M31 1h1M35 1h1M35 2h1M31 3h1M35 3h1M31 4h1M35 4h1M31 5h1M35 5h1M35 6h1M31 7h1M35 7h1M31 8h1M35 8h1M31 9h1M35 9h1M31 10h1M35 10h1M35 11h1M35 12h1M35 13h1M35 14h1M35 15h1M35 16h1M35 17h1M31 18h1M35 18h1M31 19h1M35 19h1M31 20h1M35 20h1M31 21h1M35 21h1M35 22h1M31 23h1M35 23h1M31 24h1M35 24h1M31 25h1M35 25h1M31 26h1M35 26h1M35 27h1M31 28h1M35 28h1M31 29h1M35 29h1M31 30h1M35 30h1M31 31h1M35 31h1M35 32h1M35 33h1M35 34h1M35 35h1M33 36h1M35 36h1M35 37h1M35 38h1M35 39h1" />
<path stroke="#74073e" d="M36 0h1M36 1h1M36 2h1M36 3h1M36 4h1M36 5h1M36 6h1M36 7h1M36 8h1M36 9h1M36 10h1M36 11h1M36 12h1M36 13h1M36 14h1M36 15h1M36 16h1M36 17h1M36 18h1M36 19h1M36 20h1M36 21h1M36 22h1M28 23h1M36 23h1M28 24h1M36 24h1M0 25h15M28 25h1M36 25h1M28 26h1M36 26h1M28 27h1M36 27h1M28 28h1M36 28h1M28 29h1M36 29h1M28 30h1M36 30h1M28 31h1M36 31h1M36 32h1M36 33h1M36 34h1M36 35h1M36 36h1M36 37h1M36 38h1M36 39h1" />
<path stroke="#91848b" d="M37 0h3M37 1h3M37 2h3M37 3h3M37 4h3M37 5h3M37 6h3M37 7h3M37 8h3M37 9h3M37 10h3M37 11h3M37 12h3M37 13h3M37 14h3M37 15h3M37 16h3M37 17h3M37 18h3M37 19h3M37 20h3M37 21h3M37 22h3M37 23h3M37 24h3M37 25h3M37 26h3M37 27h3M37 28h3M37 29h3M37 30h3M37 31h3M37 32h3M37 33h3M37 34h3M37 35h3M37 36h3M37 37h3M37 38h3M37 39h3" />
<path stroke="#000000" d="M14 2h10M12 3h2M16 3h8M11 4h2M14 4h12M11 5h1M13 5h14M10 6h1M12 6h16M10 7h2M14 7h15M10 8h3M25 8h5M9 9h5M17 9h5M26 9h4M9 10h2M26 10h5M9 11h2M13 11h2M18 11h3M27 11h4M9 12h2M12 12h1M15 12h1M17 12h1M21 12h1M27 12h4M10 13h2M15 13h1M17 13h1M21 13h1M27 13h4M10 14h2M15 14h1M17 14h1M21 14h1M27 14h4M10 15h2M14 15h2M17 15h1M20 15h2M28 15h3M9 16h1M11 16h1M14 16h2M17 16h1M20 16h2M23 16h8M9 17h1M12 17h1M14 17h4M20 17h3M27 17h4M8 18h8M17 18h1M21 18h1M24 18h2M28 18h3M7 19h1M16 19h5M26 19h1M29 19h1M6 20h1M9 20h4M25 20h1M27 20h1M29 20h1M6 21h1M8 21h1M13 21h4M24 21h1M29 21h1M7 22h1M10 22h3M14 22h1M17 22h8M27 22h2M8 23h2M12 23h2M15 23h1M23 23h1M26 23h1M14 24h1M16 24h1M23 24h1M25 24h1M15 25h1M17 25h1M22 25h1M24 25h1M15 26h1M17 26h1M21 26h1M23 26h1M16 27h1M18 27h3M22 27h1M17 28h1M21 28h2M18 29h1M22 29h2M18 30h2M21 30h2M24 30h1M17 31h5M23 31h4M15 32h14M14 33h17M13 34h1M31 34h1M12 35h1M31 35h1M12 36h1M32 36h1M12 37h1M32 37h1M12 38h1M28 38h1M33 38h1M12 39h1M15 39h1M29 39h1M33 39h1" />
<path stroke="#07168e" d="M14 3h1M13 4h1M12 5h1" />
<path stroke="#07158e" d="M15 3h1" />
<path stroke="#040c61" d="M24 3h2M26 4h1M10 5h1M27 5h1M11 6h1M28 6h1M12 7h2M29 7h1M30 9h1M31 11h1M31 12h1M31 13h1M31 14h1M31 15h1M31 16h1M31 17h1M30 19h1" />
<path stroke="#f0ffa8" d="M13 8h12M14 9h3M22 9h4M11 10h15M11 11h2M15 11h3M21 11h6M11 12h1M16 12h1M22 12h5M16 13h1M22 13h5M16 14h1M22 14h5M16 15h1M22 15h6M16 16h1M22 16h1M19 29h3M20 30h1" />
<path stroke="#ffffff" d="M13 12h2M18 12h3M12 13h3M18 13h3M12 14h1M18 14h1M12 15h1M18 15h1M12 16h1M18 16h1M18 17h1M18 18h1" />
<path stroke="#fff12f" d="M13 14h2M19 14h2M13 15h1M19 15h1M13 16h1M19 16h1M13 17h1M19 17h1M19 18h2" />
<path stroke="#ff8a00" d="M10 16h1M10 17h2M23 17h4M16 18h1M22 18h2M26 18h2M8 19h8M21 19h5M27 19h2M7 20h2M13 20h12M26 20h1M28 20h1M7 21h1M9 21h4M17 21h7M25 21h4M8 22h2M13 22h1M25 22h2M14 23h1M24 23h2M15 24h1M24 24h1M16 25h1M23 25h1M16 26h1M22 26h1M17 27h1M21 27h1M18 28h3" />
<path stroke="#ff0000" d="M15 22h2M16 23h3M22 23h1M17 24h1M21 24h2M20 25h2M18 26h3" />
<path stroke="#fc809a" d="M19 23h3M18 24h3M18 25h2" />
<path stroke="#740741" d="M25 25h3" />
<path stroke="#ac46b6" d="M0 26h15M0 27h16M0 28h17M0 29h16M0 30h18M0 31h17M0 32h15M0 33h14M0 34h13M0 35h12M0 36h12M0 37h12M0 38h12M0 39h12" />
<path stroke="#aa46b6" d="M24 26h1M23 27h5M23 28h5M16 29h2M24 29h4M25 30h3M27 31h1" />
<path stroke="#a846b6" d="M25 26h3" />
<path stroke="#f2c100" d="M23 30h1" />
<path stroke="#f2c200" d="M22 31h1" />
<path stroke="#ffcf00" d="M14 34h17M13 35h18M13 36h12M26 36h6M13 37h11M27 37h5M13 38h11M27 38h1M29 38h4M13 39h2M16 39h7M28 39h1M30 39h3" />
<path stroke="#ada9a9" d="M25 36h1M24 37h1M24 38h2M24 39h1" />
<path stroke="#cfcfcf" d="M25 37h2M26 38h1M26 39h1" />
<path stroke="#f2c300" d="M23 39h1M25 39h1M27 39h1" />
</svg>