<svg xmlns="http://www.w3.org/2000/svg" viewBox="0 -0.5 40 40" shape-rendering="crispEdges">
<metadata>Made with Pixels to Svg https://codepen.io/shshaw/pen/XbxvNj</metadata>
<path stroke="#0b4991" d="M0 0h1M0 1h1M9 9h2M39 9h1M8 10h2M39 10h1M8 11h2M39 11h1M8 12h2M28 12h1M38 12h2M8 13h3M28 13h1M39 13h1M8 14h3M9 15h1" />
<path stroke="#0a4e93" d="M1 0h1M39 8h1" />
<path stroke="#077ead" d="M2 0h1M38 8h1M37 13h1" />
<path stroke="#03e5e0" d="M3 0h1M2 2h1M1 4h1" />
<path stroke="#02fdcc" d="M4 0h1" />
<path stroke="#00fa61" d="M5 0h1" />
<path stroke="#2cf824" d="M6 0h1" />
<path stroke="#62f721" d="M7 0h1M17 0h1" />
<path stroke="#6bf621" d="M8 0h2M36 3h1M36 4h1M34 11h1" />
<path stroke="#90f41e" d="M10 0h1" />
<path stroke="#000000" d="M11 0h4M10 1h1M15 1h4M9 2h1M19 2h3M8 3h1M7 4h1M30 4h2M7 5h1M15 5h8M7 6h1M13 6h11M8 7h2M12 7h13M9 8h4M23 8h3M11 9h3M18 9h4M24 9h3M10 10h1M22 10h1M25 10h2M10 11h1M13 11h2M18 11h3M26 11h3M10 12h1M12 12h1M15 12h1M17 12h1M21 12h1M26 12h2M29 12h1M11 13h1M15 13h1M17 13h1M21 13h1M27 13h1M11 14h1M14 14h2M17 14h1M20 14h2M28 14h1M10 15h2M15 15h1M17 15h1M21 15h1M28 15h1M9 16h1M11 16h1M15 16h1M17 16h1M21 16h1M23 16h4M28 16h1M9 17h1M12 17h1M15 17h3M21 17h2M27 17h2M8 18h8M17 18h1M20 18h2M24 18h2M28 18h1M7 19h1M16 19h5M26 19h1M29 19h1M6 20h1M9 20h4M25 20h1M27 20h1M29 20h1M6 21h1M8 21h1M13 21h4M24 21h1M29 21h1M7 22h1M10 22h3M14 22h1M17 22h8M27 22h2M8 23h2M12 23h2M15 23h1M23 23h1M26 23h1M14 24h1M23 24h1M25 24h1M17 25h1M22 25h1M24 25h1M17 26h1M21 26h1M23 26h1M16 27h1M18 27h3M22 27h1M17 28h1M21 28h2M19 29h1M22 29h1M18 30h1M22 30h2M17 31h2M23 31h2M16 32h1M19 32h1M22 32h1M25 32h1M16 33h1M20 33h1M22 33h1M26 33h1M15 34h1M19 34h1M23 34h1M27 34h3M14 35h2M20 35h1M22 35h1M26 35h1M30 35h2M13 36h1M16 36h1M19 36h1M23 36h1M25 36h2M31 36h2M12 37h1M17 37h2M24 37h1M32 37h1M12 38h1M16 38h1M28 38h1M33 38h1M12 39h1M15 39h2M28 39h2M33 39h1" />
<path stroke="#edeb0b" d="M15 0h1" />
<path stroke="#92f41a" d="M16 0h1" />
<path stroke="#2df823" d="M18 0h1M35 0h1" />
<path stroke="#01fa5f" d="M19 0h1" />
<path stroke="#02fdc4" d="M20 0h1" />
<path stroke="#02fdc5" d="M21 0h1" />
<path stroke="#01fa60" d="M22 0h1M36 0h1" />
<path stroke="#00f825" d="M23 0h1" />
<path stroke="#2cf823" d="M24 0h1" />
<path stroke="#88f41e" d="M25 0h1" />
<path stroke="#ebeb0d" d="M26 0h1" />
<path stroke="#ffe700" d="M27 0h1" />
<path stroke="#ffe100" d="M28 0h1" />
<path stroke="#ffdf00" d="M29 0h3M23 3h1" />
<path stroke="#ece30c" d="M32 0h1" />
<path stroke="#92f31a" d="M33 0h1" />
<path stroke="#63f721" d="M34 0h1" />
<path stroke="#02fecc" d="M37 0h1M36 9h1" />
<path stroke="#03e6df" d="M38 0h1M36 13h1" />
<path stroke="#0786b1" d="M39 0h1" />
<path stroke="#09639e" d="M1 1h1" />
<path stroke="#04cbd6" d="M2 1h1M38 7h1" />
<path stroke="#02f9dc" d="M3 1h1M38 1h1M1 5h1M38 5h1" />
<path stroke="#2cfb85" d="M4 1h1" />
<path stroke="#60f735" d="M5 1h1" />
<path stroke="#89f31e" d="M6 1h1M35 7h1M34 10h1" />
<path stroke="#d8e613" d="M7 1h1M35 2h1" />
<path stroke="#e8e20d" d="M8 1h2" />
<path stroke="#0667f9" d="M11 1h4M10 2h9M9 3h14M8 4h16M29 4h1M8 5h7M23 5h2M28 5h4M8 6h5M24 6h8M10 7h2M25 7h7M26 8h5M27 9h4M27 10h3M29 11h1" />
<path stroke="#6cf734" d="M19 1h1" />
<path stroke="#6bf75d" d="M20 1h1" />
<path stroke="#6bf75f" d="M21 1h1M34 13h1" />
<path stroke="#6bf734" d="M22 1h1M37 18h1" />
<path stroke="#6bf620" d="M23 1h1" />
<path stroke="#89f51d" d="M24 1h1" />
<path stroke="#dbeb12" d="M25 1h1" />
<path stroke="#fbe106" d="M26 1h1" />
<path stroke="#ffd900" d="M27 1h1M24 3h1M5 4h1M4 6h1" />
<path stroke="#ffc100" d="M28 1h1M37 20h1" />
<path stroke="#ffb800" d="M29 1h1M8 2h1M34 3h1M4 9h1M4 14h1" />
<path stroke="#ffae00" d="M30 1h2" />
<path stroke="#fcbf05" d="M32 1h1" />
<path stroke="#eedc0b" d="M33 1h1" />
<path stroke="#d9e612" d="M34 1h1" />
<path stroke="#83f31d" d="M35 1h1" />
<path stroke="#2df837" d="M36 1h1" />
<path stroke="#01fb85" d="M37 1h1M37 5h1M36 8h1M2 21h1" />
<path stroke="#03e6e5" d="M39 1h1" />
<path stroke="#0a4e94" d="M0 2h1M38 11h1M38 13h1M39 14h1" />
<path stroke="#077dad" d="M1 2h1M37 11h1" />
<path stroke="#2bfdcd" d="M3 2h1M1 7h1" />
<path stroke="#81f660" d="M4 2h1" />
<path stroke="#d7ec13" d="M5 2h1" />
<path stroke="#ecde0d" d="M6 2h1" />
<path stroke="#fcc206" d="M7 2h1" />
<path stroke="#e8eb0f" d="M22 2h1M2 9h1M2 10h1M2 11h1M2 12h1M2 13h1M2 14h1" />
<path stroke="#e8eb0e" d="M23 2h1" />
<path stroke="#edea0c" d="M24 2h1" />
<path stroke="#fcdc05" d="M25 2h1" />
<path stroke="#ffbf00" d="M26 2h1" />
<path stroke="#ffad00" d="M27 2h1M4 11h1M32 11h1M4 12h1M32 12h1M32 13h1M32 14h1M32 15h1M32 16h1M7 24h1" />
<path stroke="#ffa300" d="M28 2h1" />
<path stroke="#ff9600" d="M29 2h1M6 6h1M5 9h1" />
<path stroke="#ff6600" d="M30 2h2M27 3h1M33 4h1M33 5h1" />
<path stroke="#ff9b00" d="M32 2h1M26 3h1" />
<path stroke="#ffb600" d="M33 2h1M6 4h1M5 6h1" />
<path stroke="#fcc405" d="M34 2h1" />
<path stroke="#61f622" d="M36 2h1" />
<path stroke="#01fa6a" d="M37 2h1M37 3h1M37 4h1M35 11h1M2 20h1" />
<path stroke="#02fedb" d="M38 2h1M38 3h1M38 4h1" />
<path stroke="#03fff1" d="M39 2h1M39 3h1M39 4h1M0 6h1" />
<path stroke="#09639f" d="M0 3h1M38 10h1" />
<path stroke="#04cad6" d="M1 3h1" />
<path stroke="#02f8dc" d="M2 3h1" />
<path stroke="#60f984" d="M3 3h1M2 5h1" />
<path stroke="#d6ee2e" d="M4 3h1M3 5h1" />
<path stroke="#fbe206" d="M5 3h1M4 5h1" />
<path stroke="#ffc200" d="M6 3h1M5 5h1M4 7h1" />
<path stroke="#ffaf00" d="M7 3h1M34 4h1M34 5h1M33 8h1M4 10h1M4 13h1" />
<path stroke="#ffbd00" d="M25 3h1" />
<path stroke="#f85504" d="M28 3h1M31 10h1M31 16h1" />
<path stroke="#dc5115" d="M29 3h1" />
<path stroke="#d33d1a" d="M30 3h1" />
<path stroke="#db3c15" d="M31 3h1" />
<path stroke="#f86104" d="M32 3h1" />
<path stroke="#ff9700" d="M33 3h1M5 14h1M6 19h1" />
<path stroke="#e8e20e" d="M35 3h1M35 4h1M35 5h1M34 8h1M33 11h1M33 12h1M33 13h1M33 14h1" />
<path stroke="#0784b0" d="M0 4h1M39 6h1" />
<path stroke="#2cfdcc" d="M2 4h1" />
<path stroke="#88f65f" d="M3 4h1" />
<path stroke="#ebe90e" d="M4 4h1" />
<path stroke="#ffac00" d="M24 4h1" />
<path stroke="#ff9800" d="M25 4h1M33 6h1M32 9h1" />
<path stroke="#ff6200" d="M26 4h1" />
<path stroke="#f83904" d="M27 4h1M32 19h1" />
<path stroke="#c03725" d="M28 4h1" />
<path stroke="#dc3b15" d="M32 4h1M26 5h1" />
<path stroke="#03e6e4" d="M0 5h1M39 16h1" />
<path stroke="#ffa500" d="M6 5h1" />
<path stroke="#f85004" d="M25 5h1" />
<path stroke="#b7372a" d="M27 5h1M30 10h1" />
<path stroke="#d53c19" d="M32 5h1M7 7h1" />
<path stroke="#6bf635" d="M36 5h1M35 8h1M34 12h1" />
<path stroke="#03e5e3" d="M39 5h1" />
<path stroke="#02fedc" d="M1 6h1M0 9h1M0 10h1M0 11h1M0 12h1M0 13h1M0 14h1M0 15h1M0 16h1M0 17h1M39 17h1" />
<path stroke="#69f769" d="M2 6h1M1 9h1M1 10h1M1 11h1M1 12h1M1 13h1M1 14h1" />
<path stroke="#e6ea0f" d="M3 6h1" />
<path stroke="#d55219" d="M32 6h1" />
<path stroke="#fbc006" d="M34 6h1M33 9h1" />
<path stroke="#d7e613" d="M35 6h1M34 9h1" />
<path stroke="#60f760" d="M36 6h1M35 9h1" />
<path stroke="#02fecd" d="M37 6h1M1 19h1" />
<path stroke="#03e6e0" d="M38 6h1" />
<path stroke="#02ffee" d="M0 7h1M0 19h1" />
<path stroke="#89f660" d="M2 7h1" />
<path stroke="#ebe40e" d="M3 7h1" />
<path stroke="#ffa600" d="M5 7h1M5 18h1" />
<path stroke="#ff6700" d="M6 7h1M5 10h1M5 13h1M6 18h1" />
<path stroke="#dc5715" d="M32 7h1" />
<path stroke="#ffaa00" d="M33 7h1M32 10h1M33 18h1M34 19h1" />
<path stroke="#ecdc0c" d="M34 7h1M33 10h1" />
<path stroke="#2cf96a" d="M36 7h1M35 10h1" />
<path stroke="#02f9d8" d="M37 7h1" />
<path stroke="#09649e" d="M39 7h1" />
<path stroke="#02ffe0" d="M0 8h1M0 18h1" />
<path stroke="#61f984" d="M1 8h1" />
<path stroke="#d8ee2e" d="M2 8h1" />
<path stroke="#fbe006" d="M3 8h1M3 15h1" />
<path stroke="#ffbb00" d="M4 8h1M4 15h1M4 16h1M4 17h1" />
<path stroke="#ffa000" d="M5 8h1M5 15h1M5 16h1M32 17h1" />
<path stroke="#f85604" d="M6 8h1" />
<path stroke="#b8372a" d="M7 8h1" />
<path stroke="#2e457c" d="M8 8h1" />
<path stroke="#ffffff" d="M13 8h10M14 9h4M22 9h2M11 10h11M23 10h2M11 11h2M15 11h3M21 11h5M11 12h1M13 12h2M16 12h1M18 12h3M22 12h4M12 13h1M16 13h1M18 13h1M22 13h5M12 14h1M16 14h1M18 14h1M22 14h6M12 15h1M16 15h1M18 15h1M22 15h6M12 16h3M16 16h1M18 16h3M22 16h1M27 16h1M13 17h2M18 17h3M18 18h2M20 29h2M19 30h3M19 31h4M20 32h2M27 35h3M14 36h2M20 36h3M27 36h4M13 37h4M19 37h5M25 37h7M13 38h3M17 38h11M29 38h4M13 39h2M17 39h11M30 39h3" />
<path stroke="#b73f2a" d="M31 8h1" />
<path stroke="#f96704" d="M32 8h1" />
<path stroke="#03e5d2" d="M37 8h1" />
<path stroke="#ffe000" d="M3 9h1M3 10h1M3 11h1M3 12h1M3 13h1M3 14h1" />
<path stroke="#dd5214" d="M6 9h1" />
<path stroke="#514167" d="M7 9h1" />
<path stroke="#11488d" d="M8 9h1M29 17h1" />
<path stroke="#dc5215" d="M31 9h1" />
<path stroke="#03e0dd" d="M37 9h1" />
<path stroke="#096aa2" d="M38 9h1" />
<path stroke="#d63c18" d="M6 10h1" />
<path stroke="#354478" d="M7 10h1M7 11h1M7 12h1M7 13h1M7 14h1M30 18h1" />
<path stroke="#02f9d9" d="M36 10h1" />
<path stroke="#04cad5" d="M37 10h1" />
<path stroke="#ff5600" d="M5 11h1M5 12h1M6 17h1M8 26h1" />
<path stroke="#d63418" d="M6 11h1M6 12h1" />
<path stroke="#d3351a" d="M30 11h1M30 12h1M30 13h1M30 14h1" />
<path stroke="#ff5500" d="M31 11h1M31 12h1M31 13h1M31 14h1M31 15h1M38 22h2" />
<path stroke="#03e4cd" d="M36 11h1" />
<path stroke="#01fb84" d="M35 12h1" />
<path stroke="#03e0ce" d="M36 12h1" />
<path stroke="#0968a2" d="M37 12h1" />
<path stroke="#d63d18" d="M6 13h1" />
<path stroke="#33f521" d="M13 13h1M19 13h1" />
<path stroke="#11d400" d="M14 13h1M20 13h1M13 15h1M19 15h1" />
<path stroke="#344478" d="M29 13h1M29 14h1M29 15h1" />
<path stroke="#02feca" d="M35 13h1" />
<path stroke="#d65318" d="M6 14h1" />
<path stroke="#10d400" d="M13 14h1M19 14h1M14 15h1M20 15h1" />
<path stroke="#6cf75d" d="M34 14h1" />
<path stroke="#02fec9" d="M35 14h1" />
<path stroke="#02faea" d="M36 14h1M37 15h1M38 16h1" />
<path stroke="#03d2d9" d="M37 14h1" />
<path stroke="#087aab" d="M38 14h1" />
<path stroke="#5ff869" d="M1 15h1" />
<path stroke="#d7ed13" d="M2 15h1" />
<path stroke="#de5714" d="M6 15h1" />
<path stroke="#534166" d="M7 15h1" />
<path stroke="#12478c" d="M8 15h1" />
<path stroke="#d3341a" d="M30 15h1" />
<path stroke="#ede20c" d="M33 15h1" />
<path stroke="#8bf531" d="M34 15h1" />
<path stroke="#2dfa7b" d="M35 15h1" />
<path stroke="#02fecf" d="M36 15h1" />
<path stroke="#03d2da" d="M38 15h1" />
<path stroke="#0780ae" d="M39 15h1" />
<path stroke="#2bf96a" d="M1 16h1" />
<path stroke="#88f41f" d="M2 16h1" />
<path stroke="#ebe20d" d="M3 16h1" />
<path stroke="#f95604" d="M6 16h1" />
<path stroke="#b93729" d="M7 16h1" />
<path stroke="#2f457b" d="M8 16h1" />
<path stroke="#ff8a00" d="M10 16h1M10 17h2M23 17h4M16 18h1M22 18h2M26 18h2M8 19h8M21 19h5M27 19h2M7 20h2M13 20h12M26 20h1M28 20h1M7 21h1M9 21h4M17 21h7M25 21h4M8 22h2M13 22h1M25 22h2M14 23h1M24 23h2M15 24h1M24 24h1M23 25h1M16 26h1M22 26h1M17 27h1M21 27h1M18 28h3" />
<path stroke="#2c457d" d="M29 16h1" />
<path stroke="#b5362b" d="M30 16h1" />
<path stroke="#fce005" d="M33 16h1" />
<path stroke="#d9ed13" d="M34 16h1" />
<path stroke="#62f735" d="M35 16h1" />
<path stroke="#01fb7c" d="M36 16h1" />
<path stroke="#02fed0" d="M37 16h1" />
<path stroke="#01fa6b" d="M1 17h1" />
<path stroke="#69f622" d="M2 17h1" />
<path stroke="#e6e30f" d="M3 17h1M4 20h1" />
<path stroke="#ffa100" d="M5 17h1" />
<path stroke="#d53419" d="M7 17h1" />
<path stroke="#374477" d="M8 17h1" />
<path stroke="#514067" d="M30 17h1" />
<path stroke="#db5315" d="M31 17h1" />
<path stroke="#ffd700" d="M33 17h1" />
<path stroke="#ece90c" d="M34 17h1" />
<path stroke="#89f41e" d="M35 17h1" />
<path stroke="#2df836" d="M36 17h1" />
<path stroke="#01fb7e" d="M37 17h1" />
<path stroke="#01fecb" d="M38 17h1" />
<path stroke="#01fb87" d="M1 18h1" />
<path stroke="#5ff736" d="M2 18h1" />
<path stroke="#d5e813" d="M3 18h1M4 21h1" />
<path stroke="#fbc406" d="M4 18h1M5 21h1" />
<path stroke="#dd3c14" d="M7 18h1" />
<path stroke="#0c4991" d="M29 18h1" />
<path stroke="#d33b1a" d="M31 18h1" />
<path stroke="#ff6500" d="M32 18h1M33 19h1M34 20h1" />
<path stroke="#fcd906" d="M34 18h1" />
<path stroke="#ddeb10" d="M35 18h1" />
<path stroke="#8bf41c" d="M36 18h1" />
<path stroke="#62f85e" d="M38 18h1" />
<path stroke="#2dfa69" d="M39 18h1" />
<path stroke="#2af962" d="M2 19h1M3 22h1" />
<path stroke="#87f31f" d="M3 19h1M4 22h1" />
<path stroke="#ebdd0d" d="M4 19h1" />
<path stroke="#ffb700" d="M5 19h1M36 20h1" />
<path stroke="#33447d" d="M30 19h1" />
<path stroke="#b8352b" d="M31 19h1" />
<path stroke="#fcd705" d="M35 19h1" />
<path stroke="#eee20b" d="M36 19h1" />
<path stroke="#e9e40d" d="M37 19h1" />
<path stroke="#d9ea13" d="M38 19h1" />
<path stroke="#8bed1c" d="M39 19h1" />
<path stroke="#08e3e4" d="M0 20h1" />
<path stroke="#03f8d9" d="M1 20h1" />
<path stroke="#68f621" d="M3 20h1" />
<path stroke="#ffbc00" d="M5 20h1" />
<path stroke="#29438c" d="M30 20h1" />
<path stroke="#593e6c" d="M31 20h1" />
<path stroke="#c53526" d="M32 20h1" />
<path stroke="#f83804" d="M33 20h1" />
<path stroke="#ffa200" d="M35 20h1M37 21h1M39 21h1" />
<path stroke="#fcd405" d="M38 20h1" />
<path stroke="#eec40b" d="M39 20h1" />
<path stroke="#2a75ac" d="M0 21h1" />
<path stroke="#0be0d1" d="M1 21h1" />
<path stroke="#5ef736" d="M3 21h1" />
<path stroke="#373a8d" d="M30 21h1" />
<path stroke="#3c3989" d="M31 21h1" />
<path stroke="#69366a" d="M32 21h1" />
<path stroke="#c3312a" d="M33 21h1" />
<path stroke="#e13915" d="M34 21h1" />
<path stroke="#f96004" d="M35 21h1" />
<path stroke="#ff9400" d="M36 21h1" />
<path stroke="#ffa800" d="M38 21h1" />
<path stroke="#404c9a" d="M0 22h1" />
<path stroke="#10d8db" d="M1 22h1" />
<path stroke="#02fdcd" d="M2 22h1" />
<path stroke="#ebdf0d" d="M5 22h1" />
<path stroke="#ffbe00" d="M6 22h1" />
<path stroke="#ff0000" d="M15 22h2M16 23h3M22 23h1M21 24h2M20 25h2M18 26h3M17 32h2M23 32h2M17 33h3M21 33h1M23 33h3M16 34h3M20 34h3M24 34h3M16 35h4M21 35h1M23 35h3M17 36h2M24 36h1" />
<path stroke="#4a2c89" d="M29 22h3M10 23h2" />
<path stroke="#4f2b85" d="M32 22h1" />
<path stroke="#632b76" d="M33 22h1" />
<path stroke="#7d2c62" d="M34 22h1" />
<path stroke="#ca3728" d="M35 22h1" />
<path stroke="#e64d13" d="M36 22h1" />
<path stroke="#fa5403" d="M37 22h1" />
<path stroke="#4b3895" d="M0 23h1" />
<path stroke="#1eb2ce" d="M1 23h1" />
<path stroke="#0ddbd0" d="M2 23h1" />
<path stroke="#03f381" d="M3 23h1" />
<path stroke="#68f636" d="M4 23h1" />
<path stroke="#e6eb0f" d="M5 23h1" />
<path stroke="#ffda00" d="M6 23h1" />
<path stroke="#ffab00" d="M7 23h1" />
<path stroke="#fc809a" d="M19 23h3M19 24h2M18 25h2" />
<path stroke="#551c87" d="M27 23h1" />
<path stroke="#561c87" d="M28 23h6M11 24h3" />
<path stroke="#5a1c83" d="M34 23h1" />
<path stroke="#6d1e74" d="M35 23h1" />
<path stroke="#852061" d="M36 23h1" />
<path stroke="#ce2a27" d="M37 23h1" />
<path stroke="#e12c18" d="M38 23h1" />
<path stroke="#e12d18" d="M39 23h1" />
<path stroke="#571388" d="M0 24h1" />
<path stroke="#4e2e93" d="M1 24h1" />
<path stroke="#4053a1" d="M2 24h1" />
<path stroke="#19bdb3" d="M3 24h1" />
<path stroke="#5ff078" d="M4 24h1" />
<path stroke="#d4ee2e" d="M5 24h1" />
<path stroke="#fbe107" d="M6 24h1" />
<path stroke="#e85112" d="M8 24h1" />
<path stroke="#89215e" d="M9 24h1" />
<path stroke="#5b1c83" d="M10 24h1" />
<path stroke="#67391a" d="M16 24h1M15 25h1M6 27h1M14 27h1M6 28h1M6 29h1M13 29h1M6 30h1M6 31h2M13 31h1M7 32h4" />
<path stroke="#522d14" d="M17 24h2M16 25h1M15 26h1M5 27h1M15 27h1M5 28h1M14 28h1M5 29h1M14 29h1M5 30h1M13 30h1M5 31h1M12 31h1M6 32h1M11 32h1M7 33h4" />
<path stroke="#591185" d="M26 24h1" />
<path stroke="#5a0f85" d="M27 24h9M11 25h4" />
<path stroke="#5e0f81" d="M36 24h1" />
<path stroke="#711272" d="M37 24h1" />
<path stroke="#75146f" d="M38 24h2" />
<path stroke="#5c0985" d="M0 25h2M0 26h3M24 26h16M0 27h4M11 27h2M23 27h17M0 28h5M11 28h2M15 28h2M23 28h17M0 29h5M10 29h2M15 29h4M23 29h17M0 30h5M14 30h4M24 30h16M0 31h5M14 31h3M25 31h15M0 32h6M13 32h3M26 32h14M0 33h7M12 33h4M27 33h13M0 34h15M30 34h10M0 35h14M32 35h8M0 36h13M33 36h3M0 37h12M33 37h2M0 38h12M34 38h1M0 39h12M34 39h1" />
<path stroke="#591088" d="M2 25h1" />
<path stroke="#44479c" d="M3 25h1" />
<path stroke="#3cbcb3" d="M4 25h1" />
<path stroke="#7fef78" d="M5 25h1" />
<path stroke="#d9e52e" d="M6 25h1" />
<path stroke="#fbae06" d="M7 25h1" />
<path stroke="#fb5403" d="M8 25h1" />
<path stroke="#d12625" d="M9 25h1" />
<path stroke="#731371" d="M10 25h1" />
<path stroke="#5b0c85" d="M25 25h1" />
<path stroke="#5c0a85" d="M26 25h14M11 26h3M36 36h1M35 37h1" />
<path stroke="#590f88" d="M3 26h1M4 27h1" />
<path stroke="#45469c" d="M4 26h1" />
<path stroke="#3dbaae" d="M5 26h1" />
<path stroke="#87e558" d="M6 26h1" />
<path stroke="#ecb00e" d="M7 26h1" />
<path stroke="#e32917" d="M9 26h1" />
<path stroke="#79106d" d="M10 26h1" />
<path stroke="#7c4621" d="M14 26h1M7 27h2M13 27h1M7 28h2M13 28h1M7 29h2M12 29h1M7 30h3M12 30h1M8 31h4M12 32h1M11 33h1" />
<path stroke="#ab7d46" d="M9 27h1M9 28h1M9 29h1M10 30h2" />
<path stroke="#740e71" d="M10 27h1" />
<path stroke="#600981" d="M10 28h1" />
<path stroke="#5b0b85" d="M37 36h1M35 38h1" />
<path stroke="#5b0d85" d="M38 36h1M36 37h1M35 39h1" />
<path stroke="#5a0e85" d="M39 36h1" />
<path stroke="#591286" d="M37 37h1" />
<path stroke="#571786" d="M38 37h1" />
<path stroke="#561a87" d="M39 37h1" />
<path stroke="#5a1286" d="M36 38h1" />
<path stroke="#561b86" d="M37 38h1" />
<path stroke="#512388" d="M38 38h1M37 39h1" />
<path stroke="#4c2989" d="M39 38h1" />
<path stroke="#581686" d="M36 39h1" />
<path stroke="#462f8a" d="M38 39h1" />
<path stroke="#3d368c" d="M39 39h1" />
</svg>