<svg xmlns="http://www.w3.org/2000/svg" viewBox="0 -0.5 40 40" shape-rendering="crispEdges">
<metadata>Made with Pixels to Svg https://codepen.io/shshaw/pen/XbxvNj</metadata>
<path stroke="#20c74f" d="M0 0h1M18 0h1M0 1h1" />
<path stroke="#52f368" d="M1 0h1" />
<path stroke="#6df47d" d="M2 0h1" />
<path stroke="#39c559" d="M3 0h1" />
<path stroke="#00ab3e" d="M4 0h2M28 0h1M37 0h1M0 13h1M39 14h1M39 15h1" />
<path stroke="#00be41" d="M6 0h1" />
<path stroke="#63e26c" d="M7 0h1" />
<path stroke="#d4fad6" d="M8 0h1" />
<path stroke="#e1f5e3" d="M9 0h1" />
<path stroke="#6fcf7f" d="M10 0h1" />
<path stroke="#01ba49" d="M11 0h1" />
<path stroke="#00b74a" d="M12 0h2M16 0h2M23 0h2M12 1h1M0 4h1M6 4h1M28 4h1M0 5h1M6 5h1M28 5h1M0 6h1M7 6h1M28 6h1M0 7h1M0 8h2M2 9h1M37 15h1M37 16h1M37 17h1M38 18h2M38 19h2M39 20h1" />
<path stroke="#000000" d="M14 0h2M20 0h2M13 1h1M16 1h1M19 1h1M23 1h2M15 2h1M17 2h1M19 2h1M22 2h1M25 2h1M14 3h1M18 3h1M21 3h1M23 3h1M13 4h1M24 4h1M11 5h3M22 5h3M10 6h1M14 6h1M18 6h4M25 6h1M9 7h1M16 7h2M26 7h1M9 8h1M16 8h1M27 8h1M8 9h1M15 9h1M27 9h1M8 10h1M15 10h1M27 10h1M8 11h1M15 11h1M27 11h1M8 12h1M15 12h1M26 12h2M9 13h1M15 13h1M25 13h1M27 13h1M9 14h1M15 14h1M25 14h1M28 14h1M10 15h1M15 15h1M24 15h1M28 15h1M9 16h1M11 16h1M15 16h1M23 16h4M28 16h1M9 17h1M12 17h1M14 17h3M21 17h2M27 17h2M8 18h8M17 18h1M21 18h1M24 18h2M28 18h1M7 19h1M16 19h5M26 19h1M29 19h1M6 20h1M9 20h4M25 20h1M27 20h1M29 20h1M6 21h1M8 21h1M13 21h4M24 21h1M29 21h1M7 22h1M10 22h3M14 22h1M17 22h8M27 22h2M8 23h2M12 23h2M15 23h1M23 23h1M26 23h1M14 24h1M16 24h1M23 24h1M25 24h1M15 25h1M22 25h1M24 25h1M21 26h1M23 26h1M18 27h3M22 27h1M17 28h1M21 28h2M19 29h1M22 29h1M26 29h1M18 30h1M22 30h2M25 30h1M27 30h1M17 31h2M23 31h2M16 32h1M25 32h1M29 32h1M16 33h1M18 33h1M26 33h1M28 33h1M33 33h1M11 34h1M15 34h1M19 34h1M27 34h3M32 34h1M10 35h1M12 35h1M14 35h2M30 35h2M13 36h1M25 36h1M31 36h2M12 37h1M23 37h2M32 37h1M11 38h2M16 38h1M28 38h1M33 38h1M12 39h1M15 39h2M28 39h2M33 39h1" />
<path stroke="#43f35e" d="M19 0h1" />
<path stroke="#00c144" d="M22 0h1M13 2h1M7 4h1M29 4h1M27 6h1M35 6h1M28 8h1M34 8h1M37 19h1" />
<path stroke="#00b548" d="M25 0h1M6 2h1M29 2h1M2 11h1M38 16h1" />
<path stroke="#00ad40" d="M26 0h1M4 1h1M1 11h1" />
<path stroke="#00a93b" d="M27 0h1M0 11h1" />
<path stroke="#00b447" d="M29 0h1M29 1h1M1 14h1M38 15h1" />
<path stroke="#00c342" d="M30 0h1M30 1h1M30 2h1M29 5h1M29 6h1M27 7h1M7 8h1M28 9h1M33 10h1M32 11h1M2 17h1" />
<path stroke="#0ee525" d="M31 0h1" />
<path stroke="#3ef346" d="M32 0h1" />
<path stroke="#68fa72" d="M33 0h1M9 3h1M31 17h1" />
<path stroke="#39e845" d="M34 0h1" />
<path stroke="#00c240" d="M35 0h1" />
<path stroke="#00b345" d="M36 0h1M2 12h1" />
<path stroke="#00ad3f" d="M38 0h1M27 1h1M0 10h1" />
<path stroke="#00b547" d="M39 0h1M0 9h1M39 12h1M0 14h1M2 14h1M38 14h1" />
<path stroke="#75f384" d="M1 1h1" />
<path stroke="#bbf4c1" d="M2 1h1" />
<path stroke="#65c778" d="M3 1h1" />
<path stroke="#00ac3e" d="M5 1h1M28 1h1M1 13h1" />
<path stroke="#00b746" d="M6 1h1M38 13h1" />
<path stroke="#37ce56" d="M7 1h1" />
<path stroke="#96f59f" d="M8 1h1" />
<path stroke="#d1fbd3" d="M9 1h1M32 6h1" />
<path stroke="#6fe376" d="M10 1h1" />
<path stroke="#01c143" d="M11 1h1" />
<path stroke="#00c142" d="M14 1h1M39 1h1M0 15h1M36 18h1" />
<path stroke="#00c341" d="M15 1h1M11 2h1M35 3h1M26 4h1M33 9h1M35 17h1" />
<path stroke="#00bc46" d="M17 1h1M24 2h1M35 5h1M3 18h1" />
<path stroke="#20ce4a" d="M18 1h1" />
<path stroke="#45f55d" d="M20 1h1M20 2h1" />
<path stroke="#21cf4a" d="M21 1h1" />
<path stroke="#00ba48" d="M22 1h1M12 3h1M36 3h1M7 5h1M27 5h1M1 7h1M7 7h1M28 7h1M39 11h1M37 14h1M2 15h1M36 16h1M37 18h1M39 21h1" />
<path stroke="#00b749" d="M25 1h1M12 2h1M6 3h1M27 3h1M27 4h1M1 9h1M2 10h1M36 17h1M38 17h1" />
<path stroke="#00b446" d="M26 1h1" />
<path stroke="#37e743" d="M31 1h1" />
<path stroke="#8efa94" d="M32 1h1" />
<path stroke="#bffcc2" d="M33 1h1" />
<path stroke="#65e86a" d="M34 1h1M31 2h1" />
<path stroke="#00c13f" d="M35 1h1" />
<path stroke="#00af42" d="M36 1h1M5 2h1M28 2h1M2 13h1" />
<path stroke="#00ae40" d="M37 1h1M39 13h1M39 16h1" />
<path stroke="#00b644" d="M38 1h1" />
<path stroke="#1dc44e" d="M0 2h1" />
<path stroke="#7bec89" d="M1 2h1" />
<path stroke="#ccf4d1" d="M2 2h1" />
<path stroke="#72d183" d="M3 2h1" />
<path stroke="#0fb747" d="M4 2h1" />
<path stroke="#1dc64d" d="M7 2h1" />
<path stroke="#72f17f" d="M8 2h1" />
<path stroke="#b9fcbc" d="M9 2h1" />
<path stroke="#64e96a" d="M10 2h1" />
<path stroke="#00dc2a" d="M14 2h1" />
<path stroke="#696565" d="M16 2h1M15 3h1M17 3h1M19 3h1M15 4h2M18 4h1M20 4h1M22 4h1M16 5h1M18 5h1M21 5h1M17 6h1M26 14h1M25 15h1M27 15h1M10 24h1M12 24h1M7 25h1M11 25h1M8 26h1M32 26h1M31 27h1M36 27h1M31 28h1M35 28h1M6 29h1M20 29h1M31 29h4M7 30h1M19 30h1M21 30h1M30 30h2M8 31h1M19 31h1M21 31h1M29 31h2M9 32h1M14 32h1M17 32h3M21 32h3M28 32h1M36 32h2M10 33h1M15 33h1M17 33h1M19 33h2M22 33h2M25 33h1M27 33h1M34 33h2M9 34h1M14 34h1M16 34h1M18 34h1M20 34h2M23 34h2M31 34h1M33 34h2M13 35h1M17 35h4M22 35h5M28 35h1M14 36h3M18 36h1M20 36h5M26 36h2M29 36h1M13 37h1M15 37h5M21 37h2M25 37h4M30 37h1M13 38h3M17 38h1M19 38h2M22 38h4M27 38h1M29 38h1M13 39h2M17 39h11M31 39h1" />
<path stroke="#20e439" d="M18 2h1" />
<path stroke="#21d14a" d="M21 2h1" />
<path stroke="#00c143" d="M23 2h1M26 3h1M35 4h2M34 6h1M4 14h1M36 15h1M2 16h1M39 22h1" />
<path stroke="#00b948" d="M26 2h1M29 3h1M3 14h1" />
<path stroke="#00b346" d="M27 2h1M1 10h1" />
<path stroke="#d7fcd8" d="M32 2h1" />
<path stroke="#e1fce2" d="M33 2h1" />
<path stroke="#6fe873" d="M34 2h1" />
<path stroke="#01c240" d="M35 2h1" />
<path stroke="#00b647" d="M36 2h1M39 17h1" />
<path stroke="#00b846" d="M37 2h1" />
<path stroke="#00c73e" d="M38 2h1" />
<path stroke="#00de28" d="M39 2h1M1 17h1" />
<path stroke="#0cba4b" d="M0 3h1" />
<path stroke="#71d083" d="M1 3h1" />
<path stroke="#d1f4d5" d="M2 3h1" />
<path stroke="#97eda1" d="M3 3h1" />
<path stroke="#37c65a" d="M4 3h1M5 5h1" />
<path stroke="#00b648" d="M5 3h1M28 3h1" />
<path stroke="#0cc345" d="M7 3h1" />
<path stroke="#3cea4c" d="M8 3h1" />
<path stroke="#3eec4c" d="M10 3h1" />
<path stroke="#0ec544" d="M11 3h1" />
<path stroke="#00ca3c" d="M13 3h1M30 3h1M12 4h1M26 5h1M34 5h1M36 5h1M39 10h1M38 11h1M35 16h1M2 18h1M3 19h1M37 20h1" />
<path stroke="#494646" d="M16 3h1M20 3h1M14 4h1M17 4h1M21 4h1M14 5h2M19 5h1M15 6h2M27 14h1M26 15h1M27 16h1M32 22h6M6 23h2M30 23h2M38 23h2M5 24h1M29 24h1M5 25h1M28 25h1M4 26h1M27 26h1M4 27h1M26 27h1M4 28h1M25 28h1M4 29h1M24 29h1M4 30h1M20 30h1M4 31h1M4 32h2M20 32h1M5 33h1M24 33h1M5 34h1M17 34h1M22 34h1M6 35h1M16 35h1M21 35h1M6 36h1M19 36h1M28 36h1M38 36h1M7 37h1M14 37h1M20 37h1M37 37h1M8 38h1M18 38h1M21 38h1M26 38h1M31 38h1M36 38h1M9 39h1M30 39h1M34 39h2" />
<path stroke="#6d8176" d="M22 3h1M19 4h1M23 4h1M17 5h1M20 5h1M26 13h1M21 29h1M20 31h1M22 31h1M24 32h1M21 33h1M25 34h2M27 35h1M29 35h1M17 36h1M30 36h1M29 37h1M31 37h1M30 38h1M32 38h1M32 39h1" />
<path stroke="#00d136" d="M24 3h1" />
<path stroke="#00d731" d="M25 3h1" />
<path stroke="#6dea72" d="M31 3h1" />
<path stroke="#e1fce1" d="M32 3h1M6 12h1" />
<path stroke="#d4fad4" d="M33 3h1M38 8h1M36 11h1" />
<path stroke="#63e768" d="M34 3h1M4 12h1" />
<path stroke="#00c83e" d="M37 3h1M37 13h1M1 16h1M4 18h1M38 21h1" />
<path stroke="#0ee12a" d="M38 3h1" />
<path stroke="#1eef28" d="M39 3h1" />
<path stroke="#6dc781" d="M1 4h1" />
<path stroke="#e2f3e4" d="M2 4h1" />
<path stroke="#d7f6da" d="M3 4h1" />
<path stroke="#6ad27c" d="M4 4h1" />
<path stroke="#0fbb4b" d="M5 4h1" />
<path stroke="#20e23a" d="M8 4h1" />
<path stroke="#42fa56" d="M9 4h1" />
<path stroke="#3ff456" d="M10 4h1" />
<path stroke="#1ed146" d="M11 4h1" />
<path stroke="#00e322" d="M25 4h1" />
<path stroke="#0edf2c" d="M30 4h1" />
<path stroke="#68f26b" d="M31 4h1" />
<path stroke="#befac0" d="M32 4h1" />
<path stroke="#85f286" d="M33 4h1M2 20h1" />
<path stroke="#30df3e" d="M34 4h1" />
<path stroke="#2fdf3e" d="M37 4h1M35 15h1" />
<path stroke="#67f16a" d="M38 4h1" />
<path stroke="#7bfa83" d="M39 4h1M31 5h1" />
<path stroke="#62c677" d="M1 5h1" />
<path stroke="#d4f2d6" d="M2 5h1" />
<path stroke="#e7fde9" d="M3 5h1" />
<path stroke="#97eea1" d="M4 5h1" />
<path stroke="#1ccd48" d="M8 5h1" />
<path stroke="#3ff355" d="M9 5h1" />
<path stroke="#43fa57" d="M10 5h1" />
<path stroke="#00e61b" d="M25 5h1M31 14h1M36 20h1" />
<path stroke="#36e743" d="M30 5h1" />
<path stroke="#90fc96" d="M32 5h1" />
<path stroke="#49ea51" d="M33 5h1" />
<path stroke="#63e967" d="M37 5h1M37 11h1" />
<path stroke="#ceface" d="M38 5h1" />
<path stroke="#e8ffe9" d="M39 5h1M0 20h1" />
<path stroke="#2ec153" d="M1 6h1" />
<path stroke="#8ce592" d="M2 6h1" />
<path stroke="#e5fbe6" d="M3 6h1" />
<path stroke="#d7f5d9" d="M4 6h1" />
<path stroke="#65cf77" d="M5 6h1" />
<path stroke="#00ba49" d="M6 6h1" />
<path stroke="#0cc445" d="M8 6h1" />
<path stroke="#28ea3e" d="M9 6h1" />
<path stroke="#fbb5b5" d="M11 6h1M13 7h1M15 7h1M18 7h1M22 7h1M11 8h1M14 8h1M20 8h1M24 8h1M12 9h1M16 9h1M19 9h1M24 9h2M11 10h1M13 10h1M22 10h1M18 11h1M21 11h1M26 11h1M10 12h1M17 12h1M24 12h1M13 13h1M20 13h1M23 13h1M19 14h1M17 15h1M18 16h1M21 16h1M19 17h1" />
<path stroke="#df0101" d="M12 6h1M22 6h1M24 6h1M11 7h1M14 7h1M21 7h1M23 7h1M25 7h1M10 8h1M12 8h1M17 8h1M19 8h1M22 8h1M9 9h1M11 9h1M13 9h1M18 9h1M20 9h1M23 9h1M10 10h1M16 10h1M19 10h1M21 10h1M24 10h1M26 10h1M9 11h1M12 11h1M14 11h1M17 11h1M20 11h1M22 11h1M25 11h1M11 12h1M13 12h1M16 12h1M18 12h1M21 12h1M23 12h1M10 13h1M12 13h1M14 13h1M17 13h1M19 13h1M22 13h1M24 13h1M11 14h1M13 14h1M16 14h1M18 14h1M20 14h1M23 14h1M12 15h1M14 15h1M19 15h1M21 15h2M13 16h1M17 16h1M20 16h1M22 16h1M21 23h1M20 24h1M18 25h2M17 26h1M16 27h1" />
<path stroke="#f98383" d="M13 6h1M23 6h1M10 7h1M19 7h2M24 7h1M13 8h1M15 8h1M18 8h1M21 8h1M23 8h1M10 9h1M17 9h1M22 9h1M26 9h1M9 10h1M12 10h1M14 10h1M17 10h2M20 10h1M23 10h1M25 10h1M10 11h1M13 11h1M16 11h1M19 11h1M24 11h1M12 12h1M14 12h1M20 12h1M22 12h1M25 12h1M11 13h1M16 13h1M18 13h1M21 13h1M12 14h1M14 14h1M17 14h1M21 14h2M24 14h1M13 15h1M18 15h1M20 15h1M23 15h1M19 16h1M18 17h1M20 17h1" />
<path stroke="#00df28" d="M26 6h1M38 22h1" />
<path stroke="#64e869" d="M30 6h1" />
<path stroke="#d0fcd1" d="M31 6h1" />
<path stroke="#65e26e" d="M33 6h1" />
<path stroke="#30df3f" d="M36 6h1M37 12h1" />
<path stroke="#8df38e" d="M37 6h1" />
<path stroke="#e5fce5" d="M38 6h1M31 7h1M31 8h1M36 10h1M5 11h1M35 11h1" />
<path stroke="#eafdea" d="M39 6h1" />
<path stroke="#63cb75" d="M2 7h1" />
<path stroke="#d3edd7" d="M3 7h1" />
<path stroke="#e1f9e2" d="M4 7h1" />
<path stroke="#72e57b" d="M5 7h1" />
<path stroke="#0fc246" d="M6 7h1" />
<path stroke="#00ca3d" d="M8 7h1" />
<path stroke="#99ff7c" d="M12 7h1M25 8h1M14 9h1M21 9h1M11 11h1M23 11h1M19 12h1" />
<path stroke="#2ecb4d" d="M29 7h1" />
<path stroke="#8cec8f" d="M30 7h1M34 11h1" />
<path stroke="#d5f3d7" d="M32 7h1" />
<path stroke="#64cd76" d="M33 7h1" />
<path stroke="#00bc47" d="M34 7h1" />
<path stroke="#0dcb40" d="M35 7h1" />
<path stroke="#67ec6d" d="M36 7h1M35 14h1" />
<path stroke="#d5fbd6" d="M37 7h1" />
<path stroke="#e6fce6" d="M38 7h1" />
<path stroke="#95f595" d="M39 7h1" />
<path stroke="#2eba57" d="M2 8h1" />
<path stroke="#8bd09a" d="M3 8h1" />
<path stroke="#d5f5d9" d="M4 8h1" />
<path stroke="#96f49e" d="M5 8h1" />
<path stroke="#37ce55" d="M6 8h1" />
<path stroke="#00de29" d="M8 8h1" />
<path stroke="#de0101" d="M26 8h1" />
<path stroke="#63e16b" d="M29 8h1M32 9h1M34 10h1" />
<path stroke="#d3f9d4" d="M30 8h1M31 9h1M35 10h1" />
<path stroke="#8ceb90" d="M32 8h1" />
<path stroke="#30c451" d="M33 8h1" />
<path stroke="#36e147" d="M35 8h1" />
<path stroke="#95f99a" d="M36 8h1" />
<path stroke="#e7fee8" d="M37 8h1M1 21h1" />
<path stroke="#63f063" d="M39 8h1" />
<path stroke="#6cc781" d="M3 9h1" />
<path stroke="#dff3e3" d="M4 9h1" />
<path stroke="#d6fbd8" d="M5 9h1" />
<path stroke="#66e66d" d="M6 9h1" />
<path stroke="#01d335" d="M7 9h1" />
<path stroke="#6ce872" d="M29 9h1" />
<path stroke="#dffcdf" d="M30 9h1" />
<path stroke="#2fcb4d" d="M34 9h1M33 11h1" />
<path stroke="#85ec88" d="M35 9h1" />
<path stroke="#d5fcd6" d="M36 9h1" />
<path stroke="#d4fbd5" d="M37 9h1M1 22h1M2 23h1" />
<path stroke="#84f185" d="M38 9h1" />
<path stroke="#2fe737" d="M39 9h1" />
<path stroke="#61c677" d="M3 10h1" />
<path stroke="#d2f1d5" d="M4 10h1" />
<path stroke="#e5fce6" d="M5 10h1" />
<path stroke="#8ff48f" d="M6 10h1" />
<path stroke="#30e936" d="M7 10h1" />
<path stroke="#0ec445" d="M28 10h1M32 12h1" />
<path stroke="#66ea6e" d="M29 10h1" />
<path stroke="#bcfabe" d="M30 10h1" />
<path stroke="#84ec88" d="M31 10h1" />
<path stroke="#30cb4d" d="M32 10h1" />
<path stroke="#8cf28d" d="M37 10h1" />
<path stroke="#30e13d" d="M38 10h1M2 19h1" />
<path stroke="#2ec352" d="M3 11h1" />
<path stroke="#8aea90" d="M4 11h1" />
<path stroke="#d5fad5" d="M6 11h1M3 22h1" />
<path stroke="#64f064" d="M7 11h1" />
<path stroke="#1ccf46" d="M28 11h1" />
<path stroke="#5af36a" d="M29 11h1" />
<path stroke="#87fa8f" d="M30 11h1" />
<path stroke="#48e256" d="M31 11h1" />
<path stroke="#00a83b" d="M0 12h1M0 33h1M0 34h2M0 35h2M0 36h2M39 36h1M0 37h2M38 37h2M0 38h3M38 38h2M0 39h3M37 39h3" />
<path stroke="#00aa3d" d="M1 12h1" />
<path stroke="#00c242" d="M3 12h1" />
<path stroke="#d3fad3" d="M5 12h1" />
<path stroke="#72f374" d="M7 12h1" />
<path stroke="#b00808" d="M9 12h1M11 15h1M16 15h1M13 17h1M17 17h1M19 18h2" />
<path stroke="#20ea32" d="M28 12h1" />
<path stroke="#6afa77" d="M29 12h1" />
<path stroke="#a4f3aa" d="M30 12h1" />
<path stroke="#58ce6d" d="M31 12h1" />
<path stroke="#66e470" d="M33 12h1" />
<path stroke="#cff9d0" d="M34 12h1" />
<path stroke="#d6fcd7" d="M35 12h1" />
<path stroke="#85f387" d="M36 12h1" />
<path stroke="#00c042" d="M38 12h1" />
<path stroke="#00bf42" d="M3 13h1" />
<path stroke="#2edd40" d="M4 13h1" />
<path stroke="#8aec8f" d="M5 13h1" />
<path stroke="#d0fbd2" d="M6 13h1" />
<path stroke="#7bfa82" d="M7 13h1" />
<path stroke="#1ef126" d="M8 13h1" />
<path stroke="#2af336" d="M28 13h1M29 16h1M28 23h1M26 24h1M25 27h1" />
<path stroke="#4efa5c" d="M29 13h1" />
<path stroke="#5ced64" d="M30 13h1" />
<path stroke="#2fcf4b" d="M31 13h1" />
<path stroke="#36d052" d="M32 13h1" />
<path stroke="#94f39b" d="M33 13h1" />
<path stroke="#d7fed9" d="M34 13h1" />
<path stroke="#94f99a" d="M35 13h1" />
<path stroke="#37e346" d="M36 13h1" />
<path stroke="#62d075" d="M5 14h1" />
<path stroke="#b8f5be" d="M6 14h1" />
<path stroke="#74fc7f" d="M7 14h1" />
<path stroke="#21f32a" d="M8 14h1" />
<path stroke="#cd6767" d="M10 14h1M12 16h1M14 16h1M16 16h1M18 18h1" />
<path stroke="#43fc56" d="M29 14h1M25 25h1M24 28h1" />
<path stroke="#21ef2c" d="M30 14h1" />
<path stroke="#58ea5e" d="M32 14h1" />
<path stroke="#bdfac0" d="M33 14h1" />
<path stroke="#cafbcb" d="M34 14h1" />
<path stroke="#0ecb3f" d="M36 14h1" />
<path stroke="#00ba47" d="M1 15h1M4 15h1M38 20h1" />
<path stroke="#00bf44" d="M3 15h1" />
<path stroke="#35c658" d="M5 15h1" />
<path stroke="#66f176" d="M6 15h1" />
<path stroke="#52fc62" d="M7 15h1" />
<path stroke="#2af536" d="M8 15h1" />
<path stroke="#0eee12" d="M9 15h1M31 15h1M33 19h1M5 23h1" />
<path stroke="#3efa51" d="M29 15h1M25 26h1" />
<path stroke="#1df126" d="M30 15h1" />
<path stroke="#3df446" d="M32 15h1" />
<path stroke="#71fa7a" d="M33 15h1" />
<path stroke="#67f26b" d="M34 15h1" />
<path stroke="#00df27" d="M0 16h1" />
<path stroke="#00d037" d="M3 16h1M5 17h1" />
<path stroke="#00c63f" d="M4 16h1" />
<path stroke="#0cc642" d="M5 16h1" />
<path stroke="#29ea3e" d="M6 16h1" />
<path stroke="#45fc58" d="M7 16h1M7 17h2" />
<path stroke="#40fa51" d="M8 16h1" />
<path stroke="#ff8a00" d="M10 16h1M10 17h2M23 17h4M16 18h1M22 18h2M26 18h2M8 19h8M21 19h5M27 19h2M7 20h2M13 20h12M26 20h1M28 20h1M7 21h1M9 21h4M17 21h7M25 21h4M8 22h2M13 22h1M25 22h2M14 23h1M24 23h2M15 24h1M24 24h1M23 25h1M22 26h1M17 27h1M21 27h1M18 28h3" />
<path stroke="#14ef19" d="M30 16h1" />
<path stroke="#3cf343" d="M31 16h1" />
<path stroke="#6afb75" d="M32 16h1" />
<path stroke="#52fc61" d="M33 16h1" />
<path stroke="#21ea33" d="M34 16h1M6 17h1" />
<path stroke="#00ec0d" d="M0 17h1M5 20h1" />
<path stroke="#00c640" d="M3 17h1" />
<path stroke="#00d335" d="M4 17h1" />
<path stroke="#21f22a" d="M29 17h1M26 25h1" />
<path stroke="#1df026" d="M30 17h1M32 21h1" />
<path stroke="#a9feaf" d="M32 17h1" />
<path stroke="#69fa73" d="M33 17h1" />
<path stroke="#1ee732" d="M34 17h1" />
<path stroke="#64f264" d="M0 18h1M4 22h1" />
<path stroke="#30e938" d="M1 18h1M3 20h1" />
<path stroke="#00e025" d="M5 18h1M37 21h1" />
<path stroke="#1cef28" d="M6 18h1" />
<path stroke="#3ffa51" d="M7 18h1M31 21h1M29 22h1M28 24h1M24 27h1M23 28h1" />
<path stroke="#1df125" d="M29 18h1" />
<path stroke="#38f13d" d="M30 18h1M32 20h1" />
<path stroke="#74fc7d" d="M31 18h1" />
<path stroke="#73fb7c" d="M32 18h1" />
<path stroke="#3cf443" d="M33 18h1" />
<path stroke="#0ee721" d="M34 18h1" />
<path stroke="#00cd39" d="M35 18h1" />
<path stroke="#d5fbd5" d="M0 19h1" />
<path stroke="#86f387" d="M1 19h1" />
<path stroke="#00cc3a" d="M4 19h1" />
<path stroke="#00e61c" d="M5 19h1M4 20h1" />
<path stroke="#0dee12" d="M6 19h1" />
<path stroke="#5bf360" d="M30 19h1" />
<path stroke="#a2faa6" d="M31 19h1" />
<path stroke="#5cf360" d="M32 19h1" />
<path stroke="#00ec0c" d="M34 19h1M36 21h1" />
<path stroke="#00e61a" d="M35 19h1" />
<path stroke="#00dd2a" d="M36 19h1" />
<path stroke="#d6fbd6" d="M1 20h1" />
<path stroke="#4dfa5c" d="M30 20h1" />
<path stroke="#6afc75" d="M31 20h1" />
<path stroke="#00ed00" d="M33 20h3M5 21h1M33 21h3M6 22h1M0 24h1M0 25h2M0 26h2M0 27h3M0 28h4M3 29h1M3 30h1M3 31h1M4 33h1M4 34h1M4 35h2M5 36h1M5 37h2M6 38h2M6 39h3" />
<path stroke="#9efda4" d="M0 21h1" />
<path stroke="#dafbda" d="M2 21h1" />
<path stroke="#86f486" d="M3 21h1" />
<path stroke="#30ee30" d="M4 21h1" />
<path stroke="#44fc58" d="M30 21h1M30 22h1M29 23h1" />
<path stroke="#67f46a" d="M0 22h1" />
<path stroke="#f6fef6" d="M2 22h1" />
<path stroke="#00ee00" d="M5 22h1" />
<path stroke="#155104" d="M15 22h2M16 23h2M22 23h1M21 24h2M20 25h2M18 26h3" />
<path stroke="#2af436" d="M31 22h1" />
<path stroke="#2eee2e" d="M0 23h1M1 24h1" />
<path stroke="#82f382" d="M1 23h1" />
<path stroke="#d1fdd2" d="M3 23h1" />
<path stroke="#68f56b" d="M4 23h1" />
<path stroke="#ffffff" d="M10 23h2M6 24h4M11 24h1M34 24h3M6 25h1M8 25h2M33 25h5M5 26h3M31 26h1M33 26h6M5 27h3M32 27h4M37 27h2M5 28h3M30 28h1M32 28h3M36 28h4M5 29h1M7 29h2M30 29h1M37 29h3M5 30h2M8 30h1M37 30h3M5 31h3M14 31h1M34 31h6M6 32h3M33 32h3M38 32h2M6 33h4M31 33h2M36 33h4M6 34h3M35 34h5M9 35h1M38 35h1M7 36h1M36 36h2M8 37h1M11 37h1M36 37h1M34 38h2" />
<path stroke="#fe6b90" d="M18 23h1M17 24h1M16 25h1" />
<path stroke="#fc809d" d="M19 23h2M10 26h3M9 30h1M14 30h1M10 31h1M11 32h2" />
<path stroke="#20f12a" d="M27 23h1M27 24h1M27 25h1" />
<path stroke="#fff9c6" d="M32 23h6M13 24h1M30 24h4M37 24h3M10 25h1M12 25h3M29 25h4M38 25h2M9 26h1M28 26h3M39 26h1M8 27h1M27 27h4M39 27h1M8 28h1M16 28h1M26 28h4M16 29h3M25 29h1M27 29h3M35 29h2M15 30h3M24 30h1M26 30h1M28 30h2M32 30h5M9 31h1M15 31h2M25 31h4M31 31h3M10 32h1M15 32h1M26 32h2M30 32h3M11 33h4M29 33h2M10 34h1M12 34h2M30 34h1M7 35h2M11 35h1M32 35h6M8 36h5M33 36h3M9 37h2M33 37h3M9 38h2M10 39h2" />
<path stroke="#67f36a" d="M2 24h1" />
<path stroke="#75fc7f" d="M3 24h1" />
<path stroke="#4efa5d" d="M4 24h1" />
<path stroke="#fc80a0" d="M18 24h2M17 25h1M9 28h1M9 29h1M15 29h1" />
<path stroke="#1df025" d="M2 25h1" />
<path stroke="#3dfa50" d="M3 25h1" />
<path stroke="#44fd58" d="M4 25h1" />
<path stroke="#0cee11" d="M2 26h1M3 27h1" />
<path stroke="#25f330" d="M3 26h1" />
<path stroke="#fbc9d6" d="M13 26h1" />
<path stroke="#fe6b95" d="M14 26h1" />
<path stroke="#fc80a5" d="M15 26h1" />
<path stroke="#fc80a2" d="M16 26h1" />
<path stroke="#42fc56" d="M24 26h1M23 29h1" />
<path stroke="#20f22a" d="M26 26h1" />
<path stroke="#fc809f" d="M9 27h1M13 27h1M14 28h1M14 29h1M13 31h1M13 32h1" />
<path stroke="#ff0000" d="M10 27h1M10 30h1M11 31h2" />
<path stroke="#880505" d="M11 27h1M10 28h2M10 29h2M11 30h3" />
<path stroke="#380303" d="M12 27h1M12 28h2M12 29h2" />
<path stroke="#fbc9d5" d="M14 27h1" />
<path stroke="#fe6b98" d="M15 27h1M15 28h1" />
<path stroke="#2af335" d="M23 27h1" />
<path stroke="#00eb0a" d="M0 29h1M2 29h1M3 32h1" />
<path stroke="#00e713" d="M1 29h1" />
<path stroke="#00e416" d="M0 30h1M2 30h1" />
<path stroke="#00cd29" d="M1 30h1" />
<path stroke="#00d921" d="M0 31h1" />
<path stroke="#00c32f" d="M1 31h1" />
<path stroke="#00e219" d="M2 31h1M3 34h1M3 35h1" />
<path stroke="#00b436" d="M0 32h1" />
<path stroke="#00b734" d="M1 32h1" />
<path stroke="#00db20" d="M2 32h1M3 36h1M4 38h1" />
<path stroke="#00ab3a" d="M1 33h1M2 37h1M3 39h1" />
<path stroke="#00c031" d="M2 33h1M3 37h1M4 39h1" />
<path stroke="#00e417" d="M3 33h1M4 37h1M5 39h1" />
<path stroke="#00b735" d="M2 34h1M2 35h1" />
<path stroke="#00a83a" d="M39 35h1M37 38h1" />
<path stroke="#00b536" d="M2 36h1M3 38h1" />
<path stroke="#00eb0b" d="M4 36h1M5 38h1" />
<path stroke="#00ab39" d="M36 39h1" />
</svg>