<svg xmlns="http://www.w3.org/2000/svg" viewBox="0 -0.5 40 40" shape-rendering="crispEdges">
<metadata>Made with Pixels to Svg https://codepen.io/shshaw/pen/XbxvNj</metadata>
<path stroke="#736f5b" d="M0 0h7M28 0h4M39 0h1M0 1h6M28 1h3M0 2h5M27 2h2M0 3h3M0 4h2M0 5h1M7 13h3M6 14h4M5 15h4M3 16h4M2 17h4M0 18h5M0 19h3M0 20h2" />
<path stroke="#716d5a" d="M7 0h1M32 0h1M2 4h1M1 5h1M6 13h1M5 14h1M9 15h1M7 16h1M5 18h1M2 20h1M0 21h1M4 23h2M0 26h1" />
<path stroke="#6c6855" d="M8 0h1M33 0h1M39 1h1M36 2h1M4 3h1M28 3h1M36 3h1M33 5h1M8 16h1M4 19h1M1 21h1M4 24h1M1 26h1" />
<path stroke="#64604e" d="M9 0h1M34 0h1" />
<path stroke="#4b4737" d="M10 0h1M9 1h1M5 4h1M6 11h1M2 14h1" />
<path stroke="#444030" d="M11 0h1M8 2h1M6 10h2M5 11h1M3 12h2M0 14h2" />
<path stroke="#484434" d="M12 0h1" />
<path stroke="#524e3c" d="M13 0h1M12 1h1M8 4h1M5 6h1M3 7h1M0 9h1" />
<path stroke="#92ff07" d="M14 0h3M15 1h1M21 1h1M16 2h1M18 2h1M21 2h1M23 2h3M11 3h1M17 3h1M25 3h2M9 4h1M15 4h1M18 4h1M20 4h2M23 4h2M26 4h2M9 5h1M11 5h2M17 5h1M19 5h1M22 5h3M28 5h2M10 6h1M26 6h1M31 6h2M31 7h1M29 8h2M28 9h2M28 10h2M27 11h2M31 11h1M29 12h3M28 13h1M27 14h2" />
<path stroke="#83e800" d="M17 0h2M16 1h3M20 1h1M22 1h1M20 2h1M22 2h1M12 4h1M16 5h1M20 5h1M13 6h1M15 6h1M17 6h1M21 6h1M16 7h1M23 7h1M9 9h2M10 10h1" />
<path stroke="#444031" d="M19 0h1" />
<path stroke="#433f30" d="M20 0h1M36 0h1M3 13h1M0 15h1" />
<path stroke="#82e800" d="M21 0h3M13 1h1M19 1h1M23 1h3M14 2h1M26 2h1M18 3h2M27 3h1M14 4h1M16 4h1M22 4h1M28 4h1M7 5h1M18 5h1M25 5h1M30 5h1M7 6h2M11 6h2M18 6h2M22 6h1M25 6h1M28 6h2M7 7h2M26 7h1M28 7h1M30 7h1M32 7h1M8 8h2M27 8h1M31 8h2M30 9h1M8 10h1M26 10h1M30 10h1M32 10h1M8 11h1M32 11h1M27 12h1M32 12h1M29 13h1M31 13h1M10 14h1M26 14h1M31 14h1M26 15h2M30 15h2M27 16h1M29 16h2M28 17h3M29 18h1" />
<path stroke="#6a6652" d="M24 0h1" />
<path stroke="#575341" d="M25 0h1" />
<path stroke="#5d5947" d="M26 0h1" />
<path stroke="#6f6b57" d="M27 0h1" />
<path stroke="#4a4637" d="M35 0h1" />
<path stroke="#534f3f" d="M37 0h1M8 1h1M33 1h1M36 1h1M39 2h1M30 3h1M33 3h1M4 4h1M31 4h1M36 4h1M33 6h1M7 11h1M3 14h1M0 16h1M8 17h1M7 18h1M6 19h1M4 20h1M3 21h1M5 21h1M1 22h1M1 24h1M1 27h1" />
<path stroke="#6d6956" d="M38 0h1" />
<path stroke="#726d5a" d="M6 1h1M31 1h1M3 3h1M2 16h1M3 19h1" />
<path stroke="#686451" d="M7 1h1M32 1h1M37 1h1M6 2h1M38 2h1M34 3h1M3 4h1M35 4h1M2 5h1M5 13h1M4 14h1M1 16h1M7 17h1M3 20h1M3 23h1M6 23h1M2 24h1M3 25h1" />
<path stroke="#484534" d="M10 1h1" />
<path stroke="#4f4b3a" d="M11 1h1M10 2h1M9 3h1M6 5h1M4 6h1M1 8h1M7 8h1M6 9h1M4 10h1M3 11h1M0 13h1" />
<path stroke="#64af03" d="M14 1h1M13 2h1M15 2h1M19 2h1M13 3h1M15 3h2M20 3h5M10 4h2M13 4h1M17 4h1M19 4h1M25 4h1M8 5h1M10 5h1M14 5h1M26 5h2M9 6h1M27 6h1M30 6h1M9 7h1M15 7h1M29 7h1M10 8h1M26 8h1M28 8h1M8 9h1M27 9h1M31 9h2M9 10h1M27 10h1M31 10h1M9 11h1M29 11h2M9 12h1M28 12h1M10 13h1M27 13h1M30 13h1M29 14h2M28 15h2M28 16h1" />
<path stroke="#6e6a56" d="M26 1h1" />
<path stroke="#726e5a" d="M27 1h1M5 2h1M29 2h1M8 12h1M4 15h1M1 17h1M6 17h1" />
<path stroke="#4c4939" d="M34 1h1M31 3h1M29 4h1M5 20h1M2 22h1" />
<path stroke="#4d4939" d="M35 1h1M32 3h1M30 4h1M0 7h1M4 21h1M0 24h1" />
<path stroke="#706c58" d="M38 1h1M37 2h1M35 3h1M34 4h1M32 5h1M6 22h1M3 24h1M2 25h1" />
<path stroke="#514e3d" d="M7 2h1M32 2h1M1 15h1" />
<path stroke="#464232" d="M9 2h1M7 3h1M39 3h1M4 5h1M7 9h1M4 11h1M1 13h1" />
<path stroke="#54503e" d="M11 2h1M10 3h1M12 3h1M6 6h1M4 7h1M2 8h1M6 8h1M1 9h1M4 9h1M3 10h1M1 11h1M0 12h1" />
<path stroke="#55513f" d="M12 2h1M5 7h2M3 8h3M2 9h2M0 10h3M0 11h1" />
<path stroke="#84e800" d="M17 2h1M21 5h1" />
<path stroke="#6d6955" d="M30 2h1M33 4h1M31 5h1M7 12h1M3 15h1M0 17h1M5 22h1M1 25h1" />
<path stroke="#676350" d="M31 2h1M32 4h1M2 15h1" />
<path stroke="#454132" d="M33 2h1M1 23h1" />
<path stroke="#514d3d" d="M34 2h1M35 5h1M5 12h1M4 13h1M2 23h1" />
<path stroke="#66624f" d="M35 2h1M5 3h1M29 3h1M37 3h1M34 5h1M6 12h1M5 19h1M2 21h1M4 22h1M5 24h1M2 26h1" />
<path stroke="#524e3d" d="M6 3h1M38 3h1M3 5h1" />
<path stroke="#474333" d="M8 3h1M5 5h1M0 8h1M5 10h1M2 12h1" />
<path stroke="#9cfd1d" d="M14 3h1M15 5h1M16 6h1" />
<path stroke="#494534" d="M6 4h1" />
<path stroke="#504c3a" d="M7 4h1M1 12h1" />
<path stroke="#4e4b37" d="M37 4h1M34 6h1" />
<path stroke="#555433" d="M38 4h1" />
<path stroke="#5d5c38" d="M39 4h1" />
<path stroke="#9dfd1d" d="M13 5h1M14 6h1" />
<path stroke="#4a4732" d="M36 5h1" />
<path stroke="#656736" d="M37 5h1" />
<path stroke="#848a3b" d="M38 5h1" />
<path stroke="#8c933e" d="M39 5h1" />
<path stroke="#6b6754" d="M0 6h1" />
<path stroke="#666250" d="M1 6h1" />
<path stroke="#54503f" d="M2 6h1" />
<path stroke="#494535" d="M3 6h1" />
<path stroke="#93ff07" d="M20 6h1M23 6h2M24 7h2M27 7h1M24 8h2M26 9h1M26 11h1M26 12h1M26 13h1" />
<path stroke="#535231" d="M35 6h1" />
<path stroke="#676936" d="M36 6h1" />
<path stroke="#9aa04b" d="M37 6h1" />
<path stroke="#aab251" d="M38 6h1" />
<path stroke="#acb451" d="M39 6h1M39 8h1M39 13h1M33 18h1" />
<path stroke="#4f4c3b" d="M1 7h1" />
<path stroke="#514d3c" d="M2 7h1" />
<path stroke="#000000" d="M10 7h3M20 7h3M11 8h3M19 8h4M11 9h1M14 9h1M18 9h1M22 9h1M11 10h1M15 10h1M17 10h1M23 10h1M10 11h1M13 11h2M18 11h3M10 12h1M12 12h1M15 12h1M17 12h1M21 12h1M11 13h1M15 13h1M17 13h1M21 13h1M11 14h1M15 14h1M17 14h1M21 14h1M10 15h2M13 15h1M15 15h1M17 15h1M19 15h1M21 15h1M9 16h1M11 16h1M13 16h1M15 16h1M17 16h1M19 16h1M21 16h1M23 16h4M9 17h1M11 17h1M13 17h1M15 17h3M19 17h1M21 17h2M27 17h1M8 18h8M17 18h1M19 18h1M21 18h1M24 18h2M28 18h1M7 19h1M16 19h5M26 19h1M29 19h1M6 20h1M9 20h4M25 20h1M27 20h1M29 20h1M6 21h1M8 21h1M13 21h4M24 21h1M29 21h1M7 22h1M10 22h3M14 22h1M17 22h8M27 22h2M8 23h2M12 23h2M15 23h1M23 23h1M26 23h1M14 24h1M16 24h1M23 24h1M25 24h1M15 25h1M17 25h1M22 25h1M24 25h1M15 26h1M17 26h1M21 26h1M23 26h1M16 27h1M18 27h3M22 27h1M17 28h1M21 28h2M19 29h1M22 29h1M18 30h1M22 30h2M17 31h1M24 31h2M16 32h1M26 32h2M16 33h1M20 33h1M28 33h2M15 34h1M19 34h3M30 34h1M14 35h1M19 35h3M31 35h1M13 36h1M20 36h1M32 36h1M12 37h1M19 37h3M33 37h1M12 38h1M19 38h3M34 38h1M12 39h1M19 39h3M34 39h1" />
<path stroke="#ffffff" d="M13 7h2M17 7h3M14 8h5M23 8h1M12 9h2M15 9h3M19 9h3M23 9h3M12 10h3M16 10h1M18 10h5M24 10h2M11 11h2M15 11h3M21 11h5M11 12h1M13 12h2M16 12h1M18 12h3M22 12h4M12 13h3M16 13h1M18 13h3M22 13h4M12 14h3M16 14h1M18 14h3M22 14h4M12 15h1M14 15h1M16 15h1M18 15h1M20 15h1M22 15h4M12 16h1M14 16h1M16 16h1M18 16h1M20 16h1M22 16h1M12 17h1M14 17h1M18 17h1M20 17h1M18 18h1M20 18h1M20 30h2M20 31h2" />
<path stroke="#525231" d="M33 7h1" />
<path stroke="#5e6030" d="M34 7h1" />
<path stroke="#7c8235" d="M35 7h1M33 8h1" />
<path stroke="#919840" d="M36 7h1" />
<path stroke="#acb352" d="M37 7h1M8 25h1M5 27h1" />
<path stroke="#b2ba56" d="M38 7h2M39 12h1M32 17h1M30 18h3M30 19h3M30 20h3M30 21h4M31 22h4M31 23h4M32 24h4M32 25h5M33 26h5M34 27h4M35 28h5M35 29h5M36 30h4M0 31h2M37 31h3M0 32h2M37 32h3M0 33h2M38 33h2M0 34h3M39 34h1M0 35h4M39 35h1M0 36h4M0 37h5M0 38h6M0 39h6" />
<path stroke="#8a923b" d="M34 8h1" />
<path stroke="#979f41" d="M35 8h1M37 15h1M11 25h1M4 30h1" />
<path stroke="#a9b14f" d="M36 8h1M37 9h1M33 10h1M38 11h1M37 12h1M34 14h1M37 14h1M36 15h1M31 16h1M10 25h1M9 26h1M32 27h1M33 28h1M4 29h1M3 30h1M35 31h1M3 33h1M37 34h1M5 36h1" />
<path stroke="#b0b854" d="M37 8h1M36 9h1M34 10h1M37 13h1M10 24h1M9 25h1M6 27h1" />
<path stroke="#adb552" d="M38 8h1M35 9h1M35 10h1M36 13h1M38 13h1M33 15h1M34 16h1M33 17h1M34 20h1M31 25h1M7 27h1M5 28h1M34 29h1M2 31h1M2 32h1M36 32h1M4 35h1M38 35h1M6 38h1" />
<path stroke="#524d3c" d="M5 9h1M2 11h1" />
<path stroke="#969d40" d="M33 9h1" />
<path stroke="#a8b04e" d="M34 9h1M36 10h1M39 10h1M35 13h1M32 15h1M35 16h1M11 24h1M30 24h1M31 26h1M8 27h1M6 28h1M34 30h1M36 33h1M4 34h1M38 36h1M6 37h1M39 37h1M7 39h1" />
<path stroke="#9aa243" d="M38 9h2M34 17h1" />
<path stroke="#99a142" d="M37 10h2M35 11h1M37 11h1M36 12h1M33 14h1M38 14h1M30 25h1M7 28h1M5 29h1M33 29h1M3 31h1M3 32h1M35 32h1M5 35h1M37 35h1M7 38h1" />
<path stroke="#adb652" d="M33 11h1" />
<path stroke="#a8b14e" d="M34 11h1" />
<path stroke="#949c3e" d="M36 11h1M35 12h1M39 14h1M12 24h1" />
<path stroke="#b1b955" d="M39 11h1M38 12h1M35 14h2M34 15h2M32 16h2M31 17h1M31 24h1M8 26h1M32 26h1M33 27h1M34 28h1M2 30h1M35 30h1M36 31h1M2 33h1M37 33h1M3 34h1M38 34h1M4 36h1M39 36h1M5 37h1M6 39h1" />
<path stroke="#9fa847" d="M33 12h1M29 23h1" />
<path stroke="#969e40" d="M34 12h1" />
<path stroke="#423e2e" d="M2 13h1" />
<path stroke="#959d3f" d="M32 13h1M13 24h1" />
<path stroke="#919a3b" d="M33 13h1M27 24h1M28 25h1M6 30h1M31 30h1M5 31h1M33 33h1M35 36h1" />
<path stroke="#98a041" d="M34 13h1M10 26h1M9 27h1M4 33h1M6 36h1" />
<path stroke="#939b3d" d="M32 14h1M8 28h1M6 29h1M5 34h1M7 37h1M8 39h1" />
<path stroke="#92933e" d="M38 15h1" />
<path stroke="#a0884d" d="M39 15h1" />
<path stroke="#ff8a00" d="M10 16h1M10 17h1M23 17h2M16 18h1M22 18h2M10 19h6M21 19h2M28 19h1M7 20h1M28 20h1M7 21h1M26 21h3M8 22h2M26 22h1M25 23h1" />
<path stroke="#9c9d45" d="M36 16h1" />
<path stroke="#a2894e" d="M37 16h1" />
<path stroke="#b17b5e" d="M38 16h1" />
<path stroke="#d85080" d="M39 16h1" />
<path stroke="#ff8900" d="M25 17h1M9 19h1" />
<path stroke="#e90303" d="M26 17h1M26 18h2M8 19h1M23 19h3M27 19h1M8 20h1M13 20h12M26 20h1M9 21h4M17 21h7M25 21h1M13 22h1M25 22h1M14 23h1M24 23h1M15 24h1M24 24h1M16 25h1M23 25h1M16 26h1M22 26h1M17 27h1M21 27h1M18 28h3" />
<path stroke="#979842" d="M35 17h1" />
<path stroke="#ae815b" d="M36 17h1" />
<path stroke="#d85181" d="M37 17h1" />
<path stroke="#e5398b" d="M38 17h1" />
<path stroke="#ef1c93" d="M39 17h1M37 18h1" />
<path stroke="#676451" d="M6 18h1" />
<path stroke="#969f40" d="M34 18h1M5 32h1" />
<path stroke="#a28c4e" d="M35 18h1" />
<path stroke="#d85280" d="M36 18h1" />
<path stroke="#f10895" d="M38 18h2M37 19h3M38 20h2M38 21h2M39 22h1" />
<path stroke="#afb753" d="M33 19h1M30 23h1" />
<path stroke="#a1aa49" d="M34 19h1" />
<path stroke="#ae9458" d="M35 19h1" />
<path stroke="#e44689" d="M36 19h1" />
<path stroke="#b2ba55" d="M33 20h1M34 21h1M35 23h1M36 24h1M37 25h1M38 27h1" />
<path stroke="#b2a05a" d="M35 20h1" />
<path stroke="#dc5d82" d="M36 20h1M39 24h1" />
<path stroke="#ef2093" d="M37 20h1M39 23h1" />
<path stroke="#b0b255" d="M35 21h1M38 25h1" />
<path stroke="#be8f66" d="M36 21h1" />
<path stroke="#e7418c" d="M37 21h1" />
<path stroke="#666350" d="M0 22h1M0 27h1" />
<path stroke="#524f3f" d="M3 22h1" />
<path stroke="#ff0000" d="M15 22h2M16 23h3M22 23h1M17 24h1M21 24h2M20 25h2M18 26h3" />
<path stroke="#abb451" d="M29 22h1" />
<path stroke="#b1ba55" d="M30 22h1" />
<path stroke="#afb754" d="M35 22h1M38 26h1" />
<path stroke="#b2a05b" d="M36 22h1" />
<path stroke="#dc5c83" d="M37 22h1" />
<path stroke="#ef1f93" d="M38 22h1" />
<path stroke="#4a4737" d="M0 23h1" />
<path stroke="#56533f" d="M7 23h1M4 25h1" />
<path stroke="#a1a84d" d="M10 23h1" />
<path stroke="#a5ad4d" d="M11 23h1" />
<path stroke="#fc809a" d="M19 23h3M18 24h3M18 25h2" />
<path stroke="#8d9638" d="M27 23h1M28 24h1" />
<path stroke="#919a3c" d="M28 23h1M13 25h1M12 26h1M29 27h1M8 29h1M30 29h1M32 32h1M6 34h1M34 35h1M8 37h1M36 38h1M9 39h1" />
<path stroke="#b0b355" d="M36 23h1M37 24h1" />
<path stroke="#bc9564" d="M37 23h1M38 24h1" />
<path stroke="#de5884" d="M38 23h1" />
<path stroke="#57543e" d="M6 24h1M3 26h1" />
<path stroke="#666838" d="M7 24h1M4 26h1" />
<path stroke="#8a913f" d="M8 24h1" />
<path stroke="#a7af4e" d="M9 24h1" />
<path stroke="#99a242" d="M26 24h1M27 25h1M13 26h1M10 28h1M9 29h1M30 30h1M6 31h1M6 33h1M32 33h1M8 36h1M34 36h1" />
<path stroke="#949d3e" d="M29 24h1" />
<path stroke="#6c6854" d="M0 25h1" />
<path stroke="#5b5a39" d="M5 25h1" />
<path stroke="#6f713d" d="M6 25h1" />
<path stroke="#9ba14c" d="M7 25h1M4 27h1" />
<path stroke="#8e9639" d="M12 25h1M29 25h1M30 27h1M5 30h1M4 31h1" />
<path stroke="#909842" d="M14 25h1M15 33h1" />
<path stroke="#9da646" d="M25 25h1M24 26h3M23 27h5M12 28h5M25 28h3M11 29h8M25 29h4M10 30h8M25 30h4M8 31h7M27 31h3M7 32h8M28 32h3M8 33h7M30 33h1M8 34h7M31 34h1M9 35h5M32 35h1M10 36h3M10 37h1" />
<path stroke="#9da645" d="M26 25h1M27 26h1M13 27h1M11 28h1M28 28h1M10 29h1M9 30h1M29 30h1M7 31h1M30 31h1M7 33h1M31 33h1M32 34h1M8 35h1M9 36h1M34 37h1M10 38h1M35 39h1" />
<path stroke="#b09d58" d="M39 25h1" />
<path stroke="#888f3f" d="M5 26h1" />
<path stroke="#a2a94e" d="M6 26h1" />
<path stroke="#b0b755" d="M7 26h1M1 30h1" />
<path stroke="#90993b" d="M11 26h1M7 29h1" />
<path stroke="#939a44" d="M14 26h1" />
<path stroke="#98a141" d="M28 26h1M11 27h1M29 28h1M7 30h1M31 31h1M33 34h1M7 35h1M35 37h1M9 38h1M36 39h1" />
<path stroke="#8f9739" d="M29 26h1M30 28h1M32 31h1M34 34h1M36 37h1M37 39h1" />
<path stroke="#929a3c" d="M30 26h1M33 30h1M35 33h1M37 36h1" />
<path stroke="#a5ad4b" d="M39 26h1" />
<path stroke="#504e38" d="M2 27h1" />
<path stroke="#6c6e3c" d="M3 27h1" />
<path stroke="#929b3c" d="M10 27h1M9 28h1M5 33h1M7 36h1" />
<path stroke="#9ba443" d="M12 27h1M8 30h1" />
<path stroke="#9ba445" d="M14 27h1M11 37h1M11 39h1" />
<path stroke="#969d45" d="M15 27h1" />
<path stroke="#9ba444" d="M28 27h1M29 29h1M31 32h1M7 34h1M33 35h1M9 37h1M35 38h1M10 39h1" />
<path stroke="#979f40" d="M31 27h1M32 28h1M34 31h1M36 34h1M38 37h1" />
<path stroke="#b0b853" d="M39 27h1" />
<path stroke="#514e38" d="M0 28h1" />
<path stroke="#5d5d37" d="M1 28h1" />
<path stroke="#6f723c" d="M2 28h1M0 29h1" />
<path stroke="#9ca24d" d="M3 28h1" />
<path stroke="#aeb654" d="M4 28h1M3 29h1" />
<path stroke="#949d43" d="M23 28h1M16 31h1" />
<path stroke="#9ba345" d="M24 28h1M15 31h1" />
<path stroke="#8e9638" d="M31 28h1M32 29h1M33 31h1M34 32h1M35 34h1M36 35h1M37 37h1M38 38h1" />
<path stroke="#999f4c" d="M1 29h1" />
<path stroke="#a6ad51" d="M2 29h1M0 30h1" />
<path stroke="#f5eeee" d="M20 29h2M19 30h1M19 31h1" />
<path stroke="#717636" d="M23 29h1" />
<path stroke="#919a42" d="M24 29h1" />
<path stroke="#8d9537" d="M31 29h1M32 30h1M33 32h1M34 33h1M35 35h1M36 36h1M37 38h1" />
<path stroke="#919844" d="M24 30h1" />
<path stroke="#33ca00" d="M18 31h1M22 31h1M17 32h3M21 32h3M17 33h3M21 33h3M18 36h1M18 37h1M22 37h1M22 38h1M22 39h1" />
<path stroke="#dc00b0" d="M23 31h1M25 32h1M25 33h1M29 34h1M28 35h3M28 36h4M13 37h2M27 37h2M31 37h2M13 38h2M27 38h2M32 38h2M13 39h1M26 39h2M32 39h2" />
<path stroke="#9da548" d="M26 31h1" />
<path stroke="#90983a" d="M4 32h1" />
<path stroke="#9ca545" d="M6 32h1" />
<path stroke="#929a42" d="M15 32h1" />
<path stroke="#2d9e05" d="M20 32h1" />
<path stroke="#dc00ab" d="M24 32h1M24 33h1M16 34h1M24 34h2M15 35h2M24 35h3M15 36h3M23 36h4M16 37h2M23 37h3M29 37h2M16 38h2M23 38h3M29 38h3M17 39h2M23 39h2M28 39h4" />
<path stroke="#dc00b4" d="M26 33h2M26 34h2M14 39h2" />
<path stroke="#34ca00" d="M17 34h1M23 34h1M18 35h1M22 35h1M19 36h1M21 36h2M18 38h1" />
<path stroke="#258503" d="M18 34h1M22 34h1M17 35h1M23 35h1" />
<path stroke="#97027a" d="M28 34h1M16 39h1" />
<path stroke="#90993a" d="M6 35h1M8 38h1" />
<path stroke="#970279" d="M27 35h1M14 36h1M27 36h1M15 37h1M26 37h1M15 38h1M26 38h1M25 39h1" />
<path stroke="#9ca448" d="M33 36h1" />
<path stroke="#959e45" d="M11 38h1" />
<path stroke="#939b3c" d="M39 38h1" />
<path stroke="#8c9437" d="M38 39h2" />
</svg>