<svg xmlns="http://www.w3.org/2000/svg" viewBox="0 -0.5 40 40" shape-rendering="crispEdges">
<metadata>Made with Pixels to Svg https://codepen.io/shshaw/pen/XbxvNj</metadata>
<path stroke="#17181b" d="M0 0h1M7 0h1M0 1h1M0 2h1M0 3h1M0 4h1M0 5h1M0 6h1M0 7h1M0 8h1M1 11h1M1 12h1M1 13h1M3 17h1M6 22h1" />
<path stroke="#282a2e" d="M1 0h1M1 2h1M1 3h1M2 13h1M8 13h1M10 23h1M8 24h1M11 25h1M1 37h1" />
<path stroke="#36373b" d="M2 0h1M21 2h1M2 9h1M4 10h1M3 13h1M1 35h1M4 39h1" />
<path stroke="#5c5c5e" d="M3 0h1M5 0h1M18 0h7M4 1h1M23 2h1M23 3h1M3 4h2M2 5h1M3 6h1M4 8h1M3 9h2M5 12h1M4 13h1M8 16h1M0 32h2M1 33h1M2 34h1M2 35h1M4 37h1M5 39h1" />
<path stroke="#606062" d="M4 0h1M3 5h1M0 31h1" />
<path stroke="#303134" d="M6 0h1M17 1h1" />
<path stroke="#151618" d="M8 0h7M8 1h7M7 2h9M26 2h1M7 3h9M26 3h1M7 4h8M26 4h1M8 5h6M8 6h5M8 7h3M8 8h3M9 9h1M0 10h1M0 11h1M0 12h1M0 13h1M24 26h1M23 27h2M23 28h2M23 29h2M24 30h2M0 39h1" />
<path stroke="#222324" d="M15 0h1" />
<path stroke="#545456" d="M16 0h1M35 1h1" />
<path stroke="#5b5b5d" d="M17 0h1M22 3h1M39 6h1M3 8h1M5 8h1M4 12h1M7 16h1" />
<path stroke="#575759" d="M25 0h1M35 0h1M17 3h1M24 3h1M36 3h1M37 4h1M38 5h1M33 9h1M7 11h1M37 27h1M37 28h1M37 29h1M37 30h1M37 31h1M37 32h1M37 33h1M37 34h1M37 35h1M37 36h1M37 37h1M37 38h1M37 39h1" />
<path stroke="#232325" d="M26 0h1M16 3h1M25 3h1M13 31h1" />
<path stroke="#141517" d="M27 0h1M27 1h1M27 2h1M27 3h1M27 4h1M27 5h1M0 14h1M0 15h1M0 16h1M27 23h1M33 23h1M26 24h1M25 25h1M25 26h1M25 27h1M15 28h1M25 28h1M14 29h1M25 29h1" />
<path stroke="#0b0c0d" d="M28 0h1M28 1h1M28 2h1M28 3h1M28 4h1M28 5h1M38 10h1M37 11h1M39 11h1M39 15h1M1 16h1M1 17h1M3 19h1M1 21h1M1 22h1M5 22h1M28 23h1M6 24h1M28 24h1M26 26h1M26 27h1M18 29h1M27 29h1M10 39h1" />
<path stroke="#0f1112" d="M29 0h1M29 1h1M29 2h1M29 3h1M29 4h1M29 5h1M6 23h1M34 27h1M34 28h1M34 29h1M34 30h1M34 39h1" />
<path stroke="#27292c" d="M30 0h1M30 1h1M30 2h1M30 3h1M30 4h1M30 5h1M35 5h1M0 27h1M35 27h1M35 28h1M35 29h1M35 30h1M35 38h1M35 39h1" />
<path stroke="#303235" d="M31 0h1M31 2h1M31 3h1M0 34h1" />
<path stroke="#535355" d="M32 0h1M36 2h1M32 3h1M33 7h1M6 8h1M37 26h1" />
<path stroke="#202122" d="M33 0h1M33 2h1M33 3h1" />
<path stroke="#2f3134" d="M34 0h1M1 5h1M31 5h1M9 24h1M36 35h1M36 36h1" />
<path stroke="#1f1f20" d="M36 0h1M34 8h1M34 9h1M38 27h1M38 28h1M38 29h1M38 30h1M38 31h1M38 32h1M38 33h1M38 34h1M38 35h1M38 36h1M38 37h1M38 38h1M38 39h1" />
<path stroke="#0a0b0c" d="M37 0h3M38 1h2M38 2h2M39 3h1M35 8h1M35 9h3M36 10h2M36 11h1M37 12h3M38 13h2M39 14h1M39 16h1M0 18h3M0 19h3M0 20h4M39 20h1M2 21h3M30 21h2M38 21h2M2 22h3M29 22h3M37 22h3M0 23h6M29 23h4M37 23h3M0 24h6M13 24h1M29 24h4M38 24h2M1 25h4M27 25h6M39 25h1M2 26h2M27 26h7M39 26h1M2 27h2M27 27h4M33 27h1M39 27h1M2 28h2M27 28h2M39 28h1M3 29h1M5 29h1M17 29h1M39 29h1M3 30h3M16 30h2M33 30h1M39 30h1M5 31h1M15 31h2M32 31h2M39 31h1M14 32h2M31 32h2M39 32h1M14 33h2M29 33h3M39 33h1M11 34h4M30 34h1M39 34h1M6 35h2M9 35h1M39 35h1M7 36h1M9 36h2M39 36h1M7 37h1M9 37h1M39 37h1M8 38h4M39 38h1M9 39h1M39 39h1" />
<path stroke="#2e2f33" d="M1 1h1M1 8h1M2 12h1M4 17h1M35 24h1" />
<path stroke="#555557" d="M2 1h1M3 2h1M2 8h1M32 8h1M3 12h1M5 17h1" />
<path stroke="#5f5f61" d="M3 1h1M4 5h1M6 12h1M5 13h1M3 36h1" />
<path stroke="#58585a" d="M5 1h1M24 2h1M18 3h4M2 4h1M5 4h1M17 4h1M36 4h1M37 5h1M2 6h1M38 6h1M6 11h1M4 14h1M8 15h1M5 16h2M0 29h1M1 34h1M4 38h1M6 39h1" />
<path stroke="#2d2f32" d="M6 1h1M6 5h1M1 29h1M3 33h1M5 36h1" />
<path stroke="#17181a" d="M7 1h1M33 1h1M7 5h1M7 6h1M7 7h1M0 9h1M8 9h1M8 10h1M0 38h1" />
<path stroke="#161719" d="M15 1h1M14 5h1M4 19h1" />
<path stroke="#232426" d="M16 1h1" />
<path stroke="#313236" d="M18 1h4M18 2h3M2 3h1M35 3h1M19 4h1M22 4h2M5 10h1M7 14h1M4 15h1M7 17h1M6 18h1M36 27h1M36 28h1M36 29h1M36 30h1M36 31h1M36 32h1M36 38h1M36 39h1" />
<path stroke="#37383b" d="M22 1h1M24 1h1M3 3h1M20 4h2M4 7h1M5 15h2M0 33h1" />
<path stroke="#38393c" d="M23 1h1M3 7h1" />
<path stroke="#2e3032" d="M25 1h1" />
<path stroke="#181a1c" d="M26 1h1" />
<path stroke="#2a2c30" d="M31 1h1M31 4h1" />
<path stroke="#343538" d="M32 1h1M32 4h1" />
<path stroke="#2e3033" d="M34 1h1" />
<path stroke="#282829" d="M36 1h1M38 4h1" />
<path stroke="#0d0e0f" d="M37 1h1M38 3h1M39 4h1M35 10h1M37 24h1M38 25h1M11 33h1M13 33h1M11 35h1M11 37h1" />
<path stroke="#36373a" d="M2 2h1M5 6h1M37 6h1M3 11h1M7 13h1M2 37h1M3 38h1" />
<path stroke="#37373b" d="M4 2h1M5 11h1M6 14h1M6 17h1M7 18h1" />
<path stroke="#2f3034" d="M5 2h1M17 2h1M5 3h1M24 4h1M2 10h1M8 14h1M35 25h1" />
<path stroke="#1a1b1e" d="M6 2h1" />
<path stroke="#191a1c" d="M16 2h1M6 3h1M26 5h1M9 14h1" />
<path stroke="#59595b" d="M22 2h1M7 12h1M6 13h1M7 15h1M1 31h1M3 35h1M4 36h1M3 37h1" />
<path stroke="#242527" d="M25 2h1M6 4h1" />
<path stroke="#535456" d="M32 2h1" />
<path stroke="#27292d" d="M34 2h1M3 15h1M11 24h1M35 31h1M0 36h1M2 39h1" />
<path stroke="#36363a" d="M35 2h1M36 5h1M32 7h1M38 7h1M6 9h1M36 26h1" />
<path stroke="#1d1e1f" d="M37 2h1" />
<path stroke="#323336" d="M4 3h1M4 11h1" />
<path stroke="#26282c" d="M34 3h1M6 6h1M1 9h1" />
<path stroke="#29292a" d="M37 3h1M39 5h1" />
<path stroke="#2f3033" d="M1 4h1M1 6h1M32 6h1M0 28h1" />
<path stroke="#171719" d="M15 4h1M33 4h1" />
<path stroke="#2c2c2e" d="M16 4h1M9 15h1" />
<path stroke="#37383c" d="M18 4h1" />
<path stroke="#1a1c1e" d="M25 4h1" />
<path stroke="#242629" d="M34 4h1M35 6h1M39 9h1M3 16h1" />
<path stroke="#303135" d="M35 4h1M5 7h1M39 8h1M6 10h1M3 14h1M4 16h1M5 18h1M1 36h1" />
<path stroke="#58585b" d="M5 5h1M39 7h1M5 9h1M5 14h1" />
<path stroke="#000000" d="M15 5h11M13 6h2M26 6h3M12 7h1M29 7h2M11 8h1M31 8h1M10 9h1M12 9h3M18 9h4M32 9h1M10 10h2M22 10h1M33 10h2M10 11h1M13 11h2M18 11h3M10 12h1M12 12h1M15 12h1M17 12h1M21 12h1M36 12h1M11 13h1M15 13h1M17 13h1M21 13h1M37 13h1M11 14h1M15 14h1M17 14h1M20 14h2M38 14h1M10 15h2M14 15h2M17 15h1M19 15h3M38 15h1M9 16h1M11 16h1M14 16h2M17 16h1M19 16h3M23 16h5M38 16h1M9 17h1M12 17h1M14 17h4M19 17h4M28 17h1M39 17h1M8 18h8M17 18h1M20 18h2M24 18h2M29 18h1M39 18h1M7 19h1M16 19h5M26 19h1M29 19h1M39 19h1M6 20h1M9 20h4M25 20h1M27 20h1M29 20h3M38 20h1M6 21h1M8 21h1M13 21h4M24 21h1M29 21h1M32 21h2M37 21h1M7 22h1M10 22h3M14 22h1M17 22h8M27 22h2M34 22h3M8 23h2M12 23h2M15 23h2M20 23h1M23 23h1M26 23h1M14 24h1M18 24h2M23 24h1M25 24h1M5 25h6M13 25h1M17 25h1M22 25h1M24 25h1M4 26h1M11 26h2M16 26h2M21 26h1M23 26h1M15 27h2M18 27h3M22 27h1M31 27h2M14 28h1M17 28h1M21 28h2M29 28h2M33 28h1M13 29h1M19 29h1M22 29h1M28 29h1M33 29h1M12 30h1M18 30h1M22 30h2M26 30h2M32 30h1M12 31h1M17 31h2M23 31h3M31 31h1M11 32h1M16 32h1M19 32h1M22 32h1M25 32h1M29 32h2M33 32h3M4 33h1M10 33h1M16 33h1M20 33h1M22 33h1M26 33h1M28 33h1M32 33h1M36 33h1M5 34h3M9 34h1M15 34h1M19 34h1M23 34h1M27 34h3M31 34h1M36 34h1M14 35h2M20 35h1M22 35h1M26 35h1M30 35h2M35 35h1M13 36h1M16 36h1M19 36h1M23 36h1M25 36h2M31 36h2M34 36h1M12 37h1M17 37h2M24 37h1M32 37h2M12 38h1M16 38h1M28 38h1M33 38h1M12 39h1M15 39h2M28 39h2M33 39h1" />
<path stroke="#505052" d="M32 5h1" />
<path stroke="#1d1d1e" d="M33 5h1" />
<path stroke="#121315" d="M34 5h1M35 7h1M38 9h1M11 39h1" />
<path stroke="#58595b" d="M4 6h1M2 33h1M2 36h1M5 38h1" />
<path stroke="#686b6f" d="M15 6h11M13 7h16M12 8h19M11 9h1M15 9h3M23 9h5M29 9h3M12 10h10M27 10h2M30 10h3M11 11h2M15 11h3M21 11h1M28 11h3M32 11h4M11 12h1M16 12h1M22 12h1M30 12h2M33 12h3M16 13h1M22 13h1M32 13h2M35 13h2M16 14h1M22 14h1M33 14h5M16 15h1M22 15h1M33 15h5M16 16h1M36 16h2M37 17h2M38 18h1" />
<path stroke="#0f1012" d="M29 6h1M2 16h1M3 18h1M5 21h1M33 24h1M2 29h1M6 36h1" />
<path stroke="#26282b" d="M30 6h1" />
<path stroke="#292b2f" d="M31 6h1M36 6h1M31 7h1M0 35h1M2 38h1M3 39h1" />
<path stroke="#202021" d="M33 6h1M36 24h1" />
<path stroke="#111213" d="M34 6h1" />
<path stroke="#292b2e" d="M1 7h1M2 11h1" />
<path stroke="#36383b" d="M2 7h1" />
<path stroke="#252628" d="M6 7h1M7 10h1" />
<path stroke="#151617" d="M11 7h1M1 28h1M2 30h1M3 32h1M4 34h1M5 35h1M6 37h1" />
<path stroke="#1e1e1f" d="M34 7h1M38 26h1M13 32h1" />
<path stroke="#25272a" d="M36 7h1M38 8h1M4 18h1M11 23h1M12 25h1M0 26h1M35 37h1" />
<path stroke="#282a2d" d="M37 7h1" />
<path stroke="#222325" d="M7 8h1" />
<path stroke="#5a5a5c" d="M33 8h1" />
<path stroke="#0e0f11" d="M36 8h1M39 10h1" />
<path stroke="#121415" d="M37 8h1" />
<path stroke="#26272a" d="M7 9h1" />
<path stroke="#3e3f41" d="M22 9h1M23 10h4M22 11h6M23 12h7M23 13h9M23 14h1M28 14h1M30 14h3M24 15h4M30 15h3M22 16h1M28 16h2M31 16h5M29 17h2M32 17h5M30 18h1M32 18h6M33 19h4M32 20h1M7 28h1M9 28h1M32 28h1M8 29h2M20 29h1M31 29h2M8 30h3M29 30h2M8 31h2M20 31h1M27 31h2M30 31h1M7 32h1M26 32h3M27 33h1M34 33h2M33 34h1M35 34h1M27 35h1M32 35h2M14 36h2M20 36h1M22 36h1M29 36h1M33 36h1M14 37h3M19 37h1M23 37h1M25 37h4M13 38h1M20 38h4M30 38h1M13 39h2M17 39h3M21 39h1M24 39h4" />
<path stroke="#aeb2b9" d="M28 9h1M29 10h1M31 11h1M32 12h1M34 13h1M18 23h1M15 24h1M5 26h1M7 26h2M10 26h1M13 26h2M4 27h1M6 27h2M9 27h2M5 33h2M8 33h1" />
<path stroke="#191a1d" d="M1 10h1M0 37h1M1 39h1" />
<path stroke="#545557" d="M3 10h1M6 19h1" />
<path stroke="rgba(20,21,23,0.9921568627450981)" d="M9 10h1" />
<path stroke="#242526" d="M8 11h1" />
<path stroke="rgba(21,22,24,0.9137254901960784)" d="M9 11h1" />
<path stroke="#101113" d="M38 11h1M34 38h1" />
<path stroke="#2e2f32" d="M8 12h1" />
<path stroke="rgba(23,24,26,0.9137254901960784)" d="M9 12h1" />
<path stroke="#c3d9f9" d="M13 12h2M18 12h3M12 13h3M18 13h3M12 14h2M18 14h1M12 15h2M18 15h1M12 16h2M18 16h1M13 17h1M18 17h1M18 18h2" />
<path stroke="rgba(23,24,26,0.9921568627450981)" d="M9 13h1" />
<path stroke="rgba(20,20,23,0.8352941176470589)" d="M10 13h1" />
<path stroke="#16171a" d="M1 14h1" />
<path stroke="#25272b" d="M2 14h1M7 23h1M1 38h1" />
<path stroke="rgba(21,21,23,0.9098039215686274)" d="M10 14h1" />
<path stroke="#ffffff" d="M14 14h1M19 14h1" />
<path stroke="#303133" d="M24 14h1M26 14h1M23 15h1M28 15h2M30 16h1M31 17h1M30 19h2M38 19h1M33 20h1M37 20h1M34 21h3" />
<path stroke="#818387" d="M25 14h1M27 14h1M29 14h1M17 23h1M15 25h1M6 26h1M9 26h1M5 27h1M8 27h1M12 27h2M12 28h1M31 28h1M12 29h1M29 29h1M19 30h3M26 31h1M20 32h2M32 34h1M28 35h2M27 36h2M21 37h1M30 37h2M17 38h1M19 38h1M24 38h1M26 38h1M31 38h1M32 39h1" />
<path stroke="#0d0e10" d="M1 15h1" />
<path stroke="#18191b" d="M2 15h1M5 20h1M7 24h1" />
<path stroke="#ff8a00" d="M10 16h1M10 17h2M23 17h3M16 18h1M22 18h2M26 18h1M8 19h8M21 19h5M27 19h2M7 20h2M13 20h12M26 20h1M28 20h1M7 21h1M9 21h4M17 21h7M25 21h4M8 22h2M13 22h1M25 22h2M14 23h1M24 23h2M24 24h1M23 25h1M22 26h1M17 27h1M21 27h1M18 28h3" />
<path stroke="#131416" d="M0 17h1M0 21h1M0 22h1M12 24h1M27 24h1M16 28h1M15 29h1M26 29h1M14 30h1" />
<path stroke="#0b0c0e" d="M2 17h1" />
<path stroke="#3c3d40" d="M8 17h1" />
<path stroke="#ff8900" d="M26 17h2M27 18h2" />
<path stroke="#c5c9cf" d="M31 18h1M32 19h1M37 19h1M34 20h3M21 29h1M30 29h1M28 30h1M31 30h1M19 31h1M21 31h2M29 31h1M33 33h1M34 34h1M34 35h1M21 36h1M30 36h1M13 37h1M20 37h1M22 37h1M29 37h1M14 38h2M18 38h1M25 38h1M27 38h1M29 38h1M32 38h1M20 39h1M22 39h2M30 39h2" />
<path stroke="#2d2e31" d="M5 19h1M33 22h1M2 31h1" />
<path stroke="#0c0d0e" d="M4 20h1M26 25h1M26 28h1M16 29h1M15 30h1M14 31h1" />
<path stroke="#ff0000" d="M15 22h2M22 23h1M21 24h2M20 25h2M18 26h3M17 32h2M23 32h2M17 33h3M21 33h1M23 33h3M16 34h3M20 34h3M24 34h3M16 35h4M21 35h1M23 35h3M17 36h2M24 36h1" />
<path stroke="#0f1011" d="M32 22h1M0 25h1M33 25h1M1 26h1M3 31h1M34 37h1" />
<path stroke="#616366" d="M19 23h1M17 24h1M16 25h1M15 26h1M11 27h1M14 27h1M5 28h1M11 28h1M13 28h1M6 29h2M11 29h1M6 30h2M11 30h1M6 31h2M11 31h1M5 32h1" />
<path stroke="#fc809a" d="M21 23h1M20 24h1M19 25h1" />
<path stroke="#333438" d="M34 23h1" />
<path stroke="#4f4f51" d="M35 23h1M36 25h1" />
<path stroke="#1c1d1e" d="M36 23h1" />
<path stroke="#2a2b2f" d="M10 24h1" />
<path stroke="#9da0a7" d="M16 24h1M14 25h1" />
<path stroke="#27282c" d="M34 24h1" />
<path stroke="#fc809d" d="M18 25h1" />
<path stroke="#242628" d="M34 25h1" />
<path stroke="#272728" d="M37 25h1" />
<path stroke="#121316" d="M34 26h1" />
<path stroke="#28292d" d="M35 26h1" />
<path stroke="#101112" d="M1 27h1" />
<path stroke="#e0e4ea" d="M4 28h1M6 28h1M8 28h1M10 28h1M4 29h1M10 29h1M4 31h1M10 31h1M4 32h1M6 32h1M8 32h1M10 32h1" />
<path stroke="#5c5c5f" d="M0 30h1" />
<path stroke="#35373a" d="M1 30h1M3 34h1" />
<path stroke="#222224" d="M13 30h1M7 39h1" />
<path stroke="#121416" d="M34 31h1M35 36h1" />
<path stroke="#353639" d="M2 32h1M5 37h1" />
<path stroke="#a7ff16" d="M9 32h1M8 34h1M10 34h1" />
<path stroke="#525253" d="M12 32h1" />
<path stroke="#7dff12" d="M7 33h1M9 33h1M8 35h1M10 35h1M8 36h1M10 37h1M8 39h1" />
<path stroke="#1c1c1d" d="M12 33h1M12 35h1" />
<path stroke="#333537" d="M4 35h1M6 38h1" />
<path stroke="#0f0f11" d="M13 35h1" />
<path stroke="#1b1b1c" d="M11 36h1" />
<path stroke="#4d4d4f" d="M12 36h1" />
<path stroke="#c3ff11" d="M8 37h1" />
<path stroke="#313235" d="M36 37h1" />
<path stroke="#121314" d="M7 38h1" />
</svg>