<svg xmlns="http://www.w3.org/2000/svg" viewBox="0 -0.5 40 40" shape-rendering="crispEdges">
<metadata>Made with Pixels to Svg https://codepen.io/shshaw/pen/XbxvNj</metadata>
<path stroke="#ffcc00" d="M0 0h18M24 0h16M0 1h17M26 1h14M0 2h16M27 2h13M0 3h14M27 3h13M0 4h11M27 4h13M0 5h10M28 5h12M0 6h9M28 6h12M0 7h9M29 7h11M0 8h10M29 8h11M0 9h9M29 9h11M0 10h9M30 10h10M0 11h9M31 11h9M0 12h10M32 12h8M0 13h10M32 13h8M0 14h11M32 14h8M0 15h10M31 15h9" />
<path stroke="#047308" d="M18 0h2M17 1h2M16 2h2M18 4h2M21 4h2M21 5h2" />
<path stroke="#07850d" d="M20 0h4M19 1h1M21 1h2M24 1h1M21 2h1M26 2h1M19 3h2M26 3h1M23 4h1M11 5h1M14 5h1M24 5h2M10 6h2M26 6h1M27 7h2M28 8h1M29 12h1" />
<path stroke="#07850e" d="M20 1h1M23 1h1M25 1h1M18 2h3M22 2h4M21 3h5M24 4h3M12 5h2M15 5h3M26 5h2M12 6h9M27 6h1M20 7h4M23 8h2M24 9h3M25 10h3M26 11h3M28 12h1M29 13h1" />
<path stroke="#047309" d="M14 3h5M20 4h1M23 5h1M24 6h2M26 7h1M27 8h1" />
<path stroke="#054f08" d="M11 4h3M10 5h1M9 6h1M10 7h3M31 12h1M26 35h2M16 36h1M26 36h1M16 37h2M25 37h1M17 38h1M24 38h1M17 39h2M24 39h1" />
<path stroke="#054f09" d="M14 4h4M18 5h3M21 6h3M24 7h2M25 8h2M27 9h2M28 10h2M29 11h2" />
<path stroke="#054f07" d="M9 7h1M30 12h1M31 13h1M31 14h1" />
<path stroke="#000000" d="M13 7h2M17 7h3M10 8h3M14 8h2M19 8h1M21 8h2M9 9h3M22 9h2M9 10h6M17 10h5M23 10h2M9 11h2M17 11h1M23 11h3M10 12h1M12 12h3M18 12h3M23 12h5M10 13h2M13 13h3M17 13h1M19 13h3M24 13h1M26 13h3M11 14h1M13 14h3M17 14h1M19 14h3M26 14h4M10 15h2M15 15h1M17 15h1M21 15h1M28 15h3M9 16h1M11 16h1M15 16h1M17 16h1M21 16h1M23 16h4M28 16h3M9 17h1M12 17h1M15 17h3M21 17h2M27 17h3M8 18h8M17 18h1M20 18h2M24 18h2M28 18h1M7 19h1M16 19h5M26 19h1M29 19h1M6 20h1M9 20h4M25 20h1M27 20h1M29 20h1M6 21h1M8 21h1M13 21h4M24 21h1M29 21h1M7 22h1M10 22h3M14 22h1M17 22h8M27 22h2M8 23h2M12 23h2M15 23h1M23 23h1M26 23h1M14 24h1M16 24h1M23 24h1M25 24h1M15 25h1M17 25h1M22 25h1M24 25h1M15 26h1M17 26h1M21 26h1M23 26h1M16 27h1M18 27h3M22 27h1M17 28h1M21 28h2M19 29h1M22 29h1M18 30h1M22 30h2M17 31h2M23 31h2M16 32h1M25 32h1M16 33h1M26 33h1M15 34h1M27 34h3M14 35h2M30 35h2M13 36h1M31 36h2M12 37h1M32 37h1M12 38h1M28 38h1M33 38h1M12 39h1M15 39h1M28 39h2M33 39h1" />
<path stroke="#ffffff" d="M15 7h2M13 8h1M16 8h3M20 8h1M12 9h10M15 10h2M22 10h1M11 11h6M18 11h5M11 12h1M15 12h3M21 12h2M12 13h1M16 13h1M18 13h1M22 13h2M25 13h1M12 14h1M16 14h1M18 14h1M22 14h4M12 15h3M16 15h1M18 15h3M22 15h6M12 16h3M16 16h1M18 16h3M22 16h1M27 16h1M13 17h2M18 17h3M18 18h2M20 29h2M19 30h3M20 31h1" />
<path stroke="#07850c" d="M30 13h1M30 14h1" />
<path stroke="#ffcb00" d="M0 16h9M31 16h9" />
<path stroke="#ff8a00" d="M10 16h1M10 17h2M23 17h4M16 18h1M22 18h2M26 18h2M8 19h8M21 19h5M27 19h2M7 20h2M13 20h12M26 20h1M28 20h1M7 21h1M9 21h4M17 21h7M25 21h4M8 22h2M13 22h1M25 22h2M14 23h1M24 23h2M15 24h1M24 24h1M16 25h1M23 25h1M16 26h1M22 26h1M17 27h1M21 27h1M18 28h3" />
<path stroke="#fec600" d="M0 17h9M30 17h10" />
<path stroke="#fbbc00" d="M0 18h8M29 18h11" />
<path stroke="#f5a900" d="M0 19h7M30 19h10" />
<path stroke="#ec8c00" d="M0 20h6M30 20h10" />
<path stroke="#e36d00" d="M0 21h6M30 21h10" />
<path stroke="#da4c00" d="M0 22h7M29 22h11" />
<path stroke="#ff0000" d="M15 22h2M16 23h3M22 23h1M17 24h1M21 24h2M20 25h2M18 26h3" />
<path stroke="#d43000" d="M0 23h8M10 23h2M27 23h13" />
<path stroke="#fc809a" d="M19 23h3M18 24h3M18 25h2" />
<path stroke="#d01b00" d="M0 24h14M26 24h14" />
<path stroke="#ce0e00" d="M0 25h15M25 25h15" />
<path stroke="#ce0800" d="M0 26h15M24 26h16" />
<path stroke="#cd0600" d="M0 27h16M23 27h17M0 28h17M23 28h17" />
<path stroke="#cd0601" d="M0 29h19M23 29h17M0 30h18M24 30h16M0 31h17M25 31h15M0 32h16M26 32h14M0 33h16M27 33h13M0 34h15M30 34h10M0 35h14M32 35h8M0 36h13M33 36h7M0 37h12M33 37h7M0 38h12M34 38h6M0 39h12M34 39h6" />
<path stroke="#af0d0d" d="M19 31h1M21 31h1M20 32h1M19 33h1M21 33h1M22 34h1" />
<path stroke="#f7bdbd" d="M22 31h1M19 32h1M21 32h2M22 33h1M19 34h1M21 34h1M19 35h1M21 35h1" />
<path stroke="#047307" d="M17 32h2M23 32h2M17 33h2M23 33h3M16 34h3M23 34h4M16 35h3M22 35h4M28 35h2M14 36h2M17 36h2M22 36h4M29 36h2M13 37h3M18 37h1M22 37h3M29 37h3M13 38h3M18 38h1M22 38h2M29 38h4M13 39h2M16 39h1M19 39h1M21 39h3M27 39h1M30 39h3" />
<path stroke="#fb4949" d="M20 33h1M20 34h1M20 35h1M19 36h3M19 37h3M19 38h3M20 39h1" />
<path stroke="#047306" d="M27 36h2M26 37h3M16 38h1M25 38h3M25 39h2" />
</svg>