<svg xmlns="http://www.w3.org/2000/svg" viewBox="0 -0.5 40 40" shape-rendering="crispEdges">
<metadata>Made with Pixels to Svg https://codepen.io/shshaw/pen/XbxvNj</metadata>
<path stroke="#068cd1" d="M0 0h40M0 1h40M0 2h40M0 3h40M0 4h36M37 4h3M0 5h18M20 5h17M38 5h2M0 6h17M20 6h17M38 6h2M0 7h13M23 7h14M38 7h2M0 8h12M24 8h13M38 8h2M0 9h11M27 9h3M33 9h4M38 9h1M0 10h10M27 10h2M36 10h1M3 11h7M6 12h4M8 13h3" />
<path stroke="#4d3f03" d="M36 4h1M37 6h1M37 7h1M37 8h1M37 9h1M37 10h1M37 11h1M37 12h1M33 13h1M37 13h1M34 14h1M37 14h1M34 15h1M37 15h1M34 16h1M36 16h1M34 17h1M36 17h1M34 18h1M36 18h1M34 19h2M34 20h2M39 20h1M35 21h1M37 21h3M35 22h3M34 23h2M34 24h1M6 25h2M34 25h1M6 26h1M34 26h1M5 27h1M33 27h1M33 28h1M32 29h2M32 30h2M5 31h1M32 31h2M5 32h1M33 32h1M2 34h1M34 34h1M37 35h2" />
<path stroke="#017f11" d="M18 5h1M17 6h2M16 7h1M13 8h3M18 8h4M12 9h3M17 9h6M25 9h1M12 10h3M17 10h3M23 10h1M26 10h1M11 11h1M14 11h5M23 11h2M11 12h2M15 12h3M22 12h4M16 13h1M23 13h3M15 14h3M23 14h4M16 15h2M23 15h4M16 16h2M22 16h1M17 17h1M4 29h2M4 30h3M4 31h1M2 32h3M7 32h1M4 33h1M8 33h1M5 34h1" />
<path stroke="#029515" d="M19 5h1M19 6h1M17 7h1M16 8h2M22 8h1M15 9h2M23 9h1M26 9h1M15 10h2M22 10h1M24 10h1M13 11h1M21 11h2M25 11h1M14 12h1M20 12h2M15 13h1M18 13h2M26 13h1M18 14h1M27 14h1M27 15h1M10 16h1M27 16h1M10 17h2M23 17h4M16 18h1M22 18h2M26 18h2M8 19h8M21 19h5M27 19h2M7 20h2M14 20h11M26 20h1M28 20h1M7 21h1M10 21h1M12 21h1M17 21h1M19 21h5M25 21h4M8 22h2M25 22h2M14 23h1M24 23h2M15 24h1M24 24h1M16 25h1M23 25h1M16 26h1M22 26h1M17 27h1M21 27h1M18 28h3M7 29h2M20 29h2M3 30h1M8 30h2M3 31h1M7 31h3M8 32h2M17 32h1M23 32h2M17 33h2M23 33h3M16 34h2M24 34h3M16 35h2M24 35h6M14 36h4M25 36h6M13 37h4M25 37h7M11 38h1M13 38h3M26 38h2M29 38h4M10 39h2M13 39h2M30 39h3" />
<path stroke="#947908" d="M37 5h1M38 15h1M39 19h1M5 25h1M4 26h2M4 27h1M2 35h1M1 36h1M1 37h1" />
<path stroke="#000000" d="M13 7h3M18 7h5M12 8h1M23 8h1M11 9h1M24 9h1M10 10h2M20 10h2M25 10h1M10 11h1M12 11h1M19 11h2M26 11h1M10 12h1M13 12h1M18 12h2M26 12h2M11 13h1M14 13h1M17 13h1M27 13h1M11 14h1M28 14h1M10 15h2M28 15h1M9 16h1M11 16h1M23 16h4M28 16h1M9 17h1M12 17h1M15 17h2M22 17h1M27 17h2M8 18h8M17 18h1M21 18h1M24 18h2M28 18h1M7 19h1M16 19h5M26 19h1M29 19h1M6 20h1M9 20h4M25 20h1M27 20h1M29 20h1M6 21h1M8 21h1M13 21h4M24 21h1M29 21h1M7 22h1M10 22h3M14 22h1M17 22h8M27 22h2M8 23h2M12 23h2M15 23h1M23 23h1M26 23h1M14 24h1M16 24h1M23 24h1M25 24h1M15 25h1M17 25h1M22 25h1M24 25h1M15 26h1M17 26h1M21 26h1M23 26h1M16 27h1M18 27h3M22 27h1M4 28h2M17 28h1M21 28h2M3 29h1M9 29h1M19 29h1M22 29h1M2 30h1M10 30h1M2 31h1M10 31h1M17 31h1M23 31h2M1 32h1M10 32h1M16 32h1M25 32h1M2 33h2M9 33h1M16 33h1M26 33h1M3 34h1M9 34h1M15 34h1M27 34h3M5 35h1M10 35h1M14 35h2M30 35h2M5 36h1M10 36h1M13 36h1M31 36h2M6 37h1M11 37h2M32 37h1M7 38h1M12 38h1M16 38h1M28 38h1M33 38h1M7 39h1M12 39h1M15 39h2M28 39h2M33 39h1" />
<path stroke="#ad8d2d" d="M30 9h3M33 10h3M2 11h1M35 11h2M5 12h1M30 12h1M35 12h2M39 12h1M7 13h1M6 14h4M0 15h1M0 16h1M32 16h2M0 17h3M6 17h1M29 17h3M0 18h4M7 18h1M29 18h2M38 18h2M0 19h5M30 19h4M38 19h1M0 20h6M32 20h2M36 20h2M0 21h6M33 21h2M36 21h1M3 22h4M30 22h1M33 22h2M38 22h1M0 23h1M6 23h2M30 23h1M33 23h1M36 23h4M0 24h3M4 24h6M11 24h1M33 24h1M36 24h4M0 25h5M9 25h4M25 25h6M33 25h1M36 25h4M0 26h4M11 26h4M24 26h3M30 26h4M36 26h4M0 27h1M3 27h1M11 27h5M23 27h6M30 27h3M36 27h4M2 28h2M10 28h7M23 28h10M35 28h2M38 28h1M1 29h2M10 29h9M23 29h9M35 29h1M37 29h1M39 29h1M0 30h2M11 30h5M24 30h8M35 30h2M38 30h2M0 31h2M11 31h4M25 31h6M0 32h1M12 32h1" />
<path stroke="#a37e12" d="M39 9h1M29 10h4M38 10h2M0 11h2M27 11h8M38 11h2M0 12h5M29 12h1M31 12h4M38 12h1M0 13h7M29 13h4M34 13h3M38 13h2M0 14h6M10 14h1M30 14h4M35 14h2M3 15h7M32 15h2M6 16h3" />
<path stroke="#a27e12" d="M28 12h1" />
<path stroke="#f0f9f1" d="M12 13h1M21 13h1M13 14h1M20 14h1M22 14h1M12 15h1M14 15h1M19 15h1M21 15h1M13 16h1M15 16h1M18 16h1M20 16h1M14 17h1M19 17h1M21 17h1M18 18h1M20 18h1" />
<path stroke="#90908d" d="M13 13h1M20 13h1M22 13h1M12 14h1M19 14h1M18 15h1M12 16h1M19 16h1M21 16h1M13 17h1M18 17h1M20 17h1M19 18h1" />
<path stroke="#c9ae5d" d="M28 13h1M29 14h1M38 14h2M1 15h2M29 15h3M35 15h2M39 15h1M1 16h5M29 16h3M35 16h1M38 16h2M3 17h3M7 17h2M32 17h2M35 17h1M37 17h3M4 18h3M31 18h3M35 18h1M37 18h1M5 19h2M36 19h2M30 20h2M38 20h1M30 21h3M0 22h3M29 22h1M31 22h2M39 22h1M1 23h5M10 23h2M27 23h3M31 23h2M3 24h1M10 24h1M12 24h2M26 24h7M13 25h2M31 25h2M27 26h3M1 27h2M29 27h1M0 28h2M0 29h1M15 32h1M31 32h2M35 32h5M1 33h1M10 33h1M13 33h3M27 33h11M0 34h2M10 34h5M30 34h4M37 34h3M0 35h2M11 35h3M32 35h5M39 35h1M0 36h1M4 36h1M11 36h2M33 36h7M0 37h1M3 37h3M33 37h7M0 38h1M2 38h5M34 38h6M0 39h5M6 39h1M34 39h6" />
<path stroke="#aeaea2" d="M14 14h1M21 14h1M13 15h1M15 15h1M20 15h1M22 15h1M14 16h1" />
<path stroke="#846c06" d="M37 16h1M35 24h1M35 25h1M35 26h1M34 27h2M34 28h1M34 29h1M34 30h1M34 31h1M34 32h1" />
<path stroke="#046010" d="M13 20h1M18 21h1" />
<path stroke="#fcfbc9" d="M9 21h1M11 21h1M13 22h1M15 22h1M17 23h1M19 23h1M21 23h1M22 24h1M21 25h1M18 26h1M20 26h1" />
<path stroke="#ff0000" d="M16 22h1M16 23h1M18 23h1M22 23h1M17 24h1M21 24h1M20 25h1M19 26h1" />
<path stroke="#fc809a" d="M20 23h1M18 24h3M18 25h2" />
<path stroke="#3f3405" d="M8 25h1M8 26h1M8 27h2M7 28h1M6 29h1M6 32h1" />
<path stroke="#52440b" d="M7 26h1M7 27h1M6 28h1" />
<path stroke="#302703" d="M9 26h2M10 27h1M8 28h2M4 34h1M3 35h2M2 36h2M2 37h1M1 38h1" />
<path stroke="#ba9c1f" d="M6 27h1" />
<path stroke="#057410" d="M37 28h1M39 28h1M36 29h1M38 29h1M37 30h1M36 31h3" />
<path stroke="#ede00b" d="M7 30h1M18 30h1M21 30h1M6 31h1M19 31h2M22 31h1M5 33h1M20 33h1M18 34h3M22 34h1M20 35h2M21 36h1M24 36h1M17 37h1M19 37h4M24 37h1M17 38h1M20 38h1M24 38h1M17 39h1M20 39h2M24 39h1M27 39h1" />
<path stroke="#997b1e" d="M16 30h1M15 31h2M31 31h1M35 31h1M39 31h1M11 32h1M13 32h2M26 32h5M0 33h1M11 33h2M5 39h1" />
<path stroke="#d61d07" d="M17 30h1M19 30h1M23 30h1M18 32h1M21 32h1M19 33h1M22 33h1M18 35h1M23 35h1M19 36h1M22 36h1M18 38h1M23 38h1M19 39h1M22 39h1M25 39h1" />
<path stroke="#f88d04" d="M20 30h1M19 32h1M22 32h1M21 33h1M19 35h1M22 35h1M18 36h1M23 36h1M19 38h1M22 38h1M25 38h1M18 39h1M23 39h1M26 39h1" />
<path stroke="#fff67b" d="M22 30h1M18 31h1M21 31h1M20 32h1M21 34h1M23 34h1M20 36h1M18 37h1M23 37h1M21 38h1" />
<path stroke="#66061c" d="M6 33h1M6 34h1M6 35h2M6 36h2M7 37h2M8 38h1M8 39h2" />
<path stroke="#b1072e" d="M7 33h1M7 34h2M8 35h1M9 36h1M10 38h1" />
<path stroke="#836b04" d="M38 33h2M35 34h2" />
<path stroke="#c20934" d="M9 35h1M8 36h1M9 37h2M9 38h1" />
</svg>