<svg xmlns="http://www.w3.org/2000/svg" viewBox="0 -0.5 40 40" shape-rendering="crispEdges">
<metadata>Made with Pixels to Svg https://codepen.io/shshaw/pen/XbxvNj</metadata>
<path stroke="#dd04a7" d="M0 0h12M31 0h9M0 1h11M32 1h8M0 2h10M33 2h7M2 3h7M34 3h6M4 4h4M34 4h6M6 5h2M35 5h5M35 6h5M35 7h5M35 8h5M35 9h5" />
<path stroke="#000000" d="M12 0h2M30 0h1M11 1h1M31 1h1M10 2h1M17 2h1M32 2h1M9 3h1M16 3h1M33 3h1M8 4h1M15 4h1M33 4h1M8 5h1M15 5h1M34 5h1M7 6h1M15 6h1M34 6h1M7 7h1M15 7h1M34 7h1M7 8h1M16 8h1M34 8h1M8 9h1M34 9h1M8 10h1M34 10h1M8 11h1M13 11h2M18 11h3M34 11h1M9 12h1M12 12h1M15 12h1M17 12h1M21 12h1M34 12h1M9 13h1M11 13h1M15 13h1M17 13h1M21 13h1M34 13h1M9 14h1M11 14h1M15 14h1M17 14h1M21 14h1M33 14h1M10 15h2M14 15h2M17 15h1M20 15h2M32 15h1M9 16h1M11 16h1M14 16h2M17 16h1M20 16h2M23 16h4M31 16h1M9 17h1M12 17h1M15 17h3M21 17h2M27 17h2M30 17h1M8 18h8M17 18h1M21 18h1M24 18h2M28 18h1M30 18h1M7 19h1M16 19h5M26 19h1M29 19h1M6 20h1M9 20h4M25 20h1M27 20h1M29 20h1M6 21h1M8 21h1M13 21h4M24 21h1M29 21h1M7 22h1M10 22h3M14 22h1M17 22h8M27 22h2M8 23h2M12 23h2M15 23h1M23 23h1M26 23h1M14 24h1M16 24h1M23 24h1M25 24h1M15 25h1M17 25h1M22 25h1M24 25h1M15 26h1M17 26h1M21 26h1M23 26h1M10 27h7M18 27h3M22 27h11M11 28h1M17 28h1M21 28h2M31 28h1M12 29h1M19 29h1M22 29h1M30 29h1M13 30h2M19 30h1M22 30h1M29 30h1M15 31h1M19 31h1M22 31h1M27 31h2M16 32h1M20 32h2M26 32h1M17 33h1M25 33h1M15 34h2M18 34h1M24 34h1M26 34h3M14 35h1M19 35h1M23 35h1M29 35h1M13 36h2M20 36h1M22 36h1M28 36h1M30 36h1M12 37h1M14 37h1M21 37h1M27 37h1M31 37h1M11 38h1M14 38h1M27 38h1M32 38h1M10 39h1M14 39h1M27 39h1M33 39h1" />
<path stroke="#87b6f5" d="M14 0h2M25 0h4M12 1h4M23 1h7M11 2h4M25 2h6M11 3h2M14 3h1M24 3h6M9 4h1M14 4h1M19 4h3M24 4h3M19 5h3M24 5h4M31 5h2M12 6h1M18 6h4M23 6h4M30 6h3M19 7h2M23 7h3M30 7h3M30 8h3M30 9h2M25 10h1M30 10h2M29 11h2M28 12h3M27 13h2M10 14h1M27 14h2M27 15h4M27 16h2M20 31h2" />
<path stroke="#87b7f5" d="M16 0h3M20 0h1M22 0h3M16 1h2M19 1h2M15 2h2M19 2h1M23 2h2M13 3h1M15 3h1M12 4h2M17 4h1M27 4h2M12 5h3M17 5h2M13 6h2M17 6h1M27 6h1M14 7h1M17 7h2M21 7h2M26 7h2M14 8h2M18 8h2M21 8h3M14 9h3M10 10h1M15 10h2M26 10h1M25 11h2M31 11h1M18 12h1M25 12h1M12 13h1M18 13h1M29 13h1M12 14h2M18 14h2" />
<path stroke="#90c1fe" d="M19 0h1M29 0h1M18 1h1M30 1h1M18 2h1M31 2h1M17 3h1M16 4h1M16 5h1M33 5h1M16 6h1M33 6h1M16 7h1M33 7h1M17 8h1M17 9h1M33 9h1M33 10h1M33 11h1M33 12h1M33 13h1M32 14h1M31 15h1M29 16h2M29 17h1M29 18h1" />
<path stroke="#ae2eee" d="M21 0h1M21 1h2M20 2h1M22 2h1M19 3h2M22 3h1M30 3h1M32 3h1M10 4h2M29 4h1M11 5h1M29 5h1M11 6h1M28 6h1M12 7h1M28 7h1M33 8h1M32 9h1M9 10h1M32 10h1M32 11h1M31 12h2M31 13h1" />
<path stroke="#70a3e6" d="M21 2h1M18 3h1M21 3h1M22 4h1M31 4h2M10 5h1M22 5h1M30 5h1M10 6h1M29 6h1M10 7h1M29 7h1M10 8h1M12 8h1M29 8h1M29 10h1M28 11h1M27 12h1M26 13h1M32 13h1M31 14h1" />
<path stroke="#dd04a8" d="M0 3h2M2 4h2M4 5h2M6 6h1" />
<path stroke="#d12eee" d="M10 3h1M23 3h1M31 3h1M23 4h1M30 4h1M23 5h1M28 5h1M11 7h1M11 8h1M24 8h5M28 9h2M27 10h2M27 11h1M26 12h1M25 13h1M30 13h1M29 14h2" />
<path stroke="#dd04a9" d="M0 4h2M2 5h2M4 6h2M6 7h1" />
<path stroke="#cc2eee" d="M18 4h1M22 6h1M13 8h1M23 9h1" />
<path stroke="#dd04aa" d="M0 5h2M0 6h4M0 7h6M0 8h7" />
<path stroke="#87baf5" d="M9 5h1M8 6h2M8 7h2M8 8h2M9 9h1M9 11h2" />
<path stroke="#87b8f5" d="M13 7h1M11 9h3M18 9h5M11 10h1M21 10h4M10 12h1M13 12h2M19 12h2M10 13h1M13 13h2M19 13h2M14 14h1M20 14h1" />
<path stroke="#87b4f5" d="M20 8h1M12 10h3M17 10h4M11 11h2M15 11h3M21 11h4M11 12h1M16 12h1M22 12h3M16 13h1M22 13h3M16 14h1M22 14h5M16 15h1M22 15h5M16 16h1M22 16h1M20 30h2" />
<path stroke="#dc03ab" d="M0 9h8" />
<path stroke="#a92eee" d="M10 9h1" />
<path stroke="#70a4e6" d="M24 9h4" />
<path stroke="#d503ae" d="M0 10h8" />
<path stroke="#dc03a8" d="M35 10h5" />
<path stroke="#b803b9" d="M0 11h8" />
<path stroke="#d503ab" d="M35 11h1" />
<path stroke="#d503ac" d="M36 11h4" />
<path stroke="#7e02c8" d="M0 12h9M36 13h4" />
<path stroke="#b803b7" d="M35 12h1" />
<path stroke="#b803b8" d="M36 12h4" />
<path stroke="#4301d2" d="M0 13h9M36 14h4" />
<path stroke="#7e02c7" d="M35 13h1" />
<path stroke="#2400d4" d="M0 14h9M33 15h7" />
<path stroke="#4301d1" d="M34 14h2" />
<path stroke="#1f00d4" d="M0 15h10M0 16h9M32 16h8M0 17h9M31 17h9M0 18h8M31 18h9M1 19h6M30 19h10M4 20h2M30 20h10M5 21h1M30 21h10M6 22h1M29 22h11M7 23h1M10 23h2M7 24h7M11 25h4M13 26h2" />
<path stroke="#ffffff" d="M12 15h2M18 15h2M12 16h2M18 16h2M13 17h2M18 17h3M18 18h3M12 28h5M23 28h8M13 29h6M23 29h7M15 30h4M23 30h6M16 31h3M23 31h4M17 32h3M22 32h4M18 33h7M17 34h1M19 34h5M25 34h1M15 35h4M20 35h3M24 35h5M15 36h5M21 36h1M23 36h5M29 36h1M13 37h1M15 37h6M22 37h5M28 37h3M12 38h2M15 38h5M23 38h4M28 38h4M11 39h3M15 39h5M23 39h4M28 39h5" />
<path stroke="#ff8a00" d="M10 16h1M10 17h2M23 17h4M16 18h1M22 18h2M26 18h2M8 19h8M21 19h5M27 19h2M7 20h2M13 20h12M26 20h1M28 20h1M7 21h1M9 21h4M17 21h7M25 21h4M8 22h2M13 22h1M25 22h2M14 23h1M24 23h2M15 24h1M24 24h1M16 25h1M23 25h1M16 26h1M22 26h1M17 27h1M21 27h1M18 28h3" />
<path stroke="#2000d4" d="M0 19h1M0 20h4M3 21h2M4 22h2M6 23h1M27 23h13M6 24h1M7 25h4M11 26h2" />
<path stroke="#2100d4" d="M0 21h3M0 22h4M4 23h2M4 24h2M26 24h14M5 25h2M25 25h15M6 26h5M6 27h4" />
<path stroke="#ff0000" d="M15 22h2M16 23h3M22 23h1M17 24h1M21 24h2M20 25h2M18 26h3" />
<path stroke="#2200d4" d="M0 23h4M0 24h4M0 25h5M0 26h6M24 26h16M0 27h6M33 27h7M0 28h11M32 28h8M0 29h12M31 29h9M0 30h13M30 30h10M0 31h15M29 31h11M0 32h16M27 32h13M0 33h17M26 33h14M0 34h15M29 34h11M0 35h14M30 35h10M0 36h13M31 36h9M0 37h12M32 37h8M0 38h11M33 38h7M0 39h10M34 39h6" />
<path stroke="#fc809a" d="M19 23h3M18 24h3M18 25h2" />
<path stroke="#70a5e6" d="M20 29h2" />
<path stroke="#df9a1c" d="M20 38h3M20 39h3" />
</svg>