<svg xmlns="http://www.w3.org/2000/svg" viewBox="0 -0.5 40 40" shape-rendering="crispEdges">
<metadata>Made with Pixels to Svg https://codepen.io/shshaw/pen/XbxvNj</metadata>
<path stroke="#000000" d="M0 0h6M11 0h4M33 0h7M0 1h5M10 1h1M15 1h4M34 1h6M0 2h4M9 2h1M19 2h6M35 2h5M0 3h3M8 3h1M25 3h5M36 3h4M0 4h2M7 4h1M30 4h2M37 4h3M0 5h2M7 5h1M15 5h8M32 5h1M38 5h2M0 6h2M7 6h1M13 6h11M33 6h1M39 6h1M0 7h3M8 7h2M12 7h13M34 7h1M0 8h4M9 8h4M23 8h3M34 8h1M0 9h5M11 9h3M18 9h4M24 9h3M34 9h1M0 10h5M10 10h1M22 10h1M25 10h2M34 10h1M0 11h5M10 11h1M13 11h2M18 11h3M26 11h3M33 11h1M39 11h1M0 12h5M10 12h1M12 12h1M15 12h1M17 12h1M21 12h1M26 12h2M29 12h5M39 12h1M0 13h6M11 13h1M15 13h1M17 13h1M21 13h1M27 13h1M38 13h2M0 14h6M11 14h1M15 14h1M17 14h1M20 14h2M28 14h1M39 14h1M0 15h5M10 15h2M14 15h2M17 15h1M19 15h3M28 15h1M0 16h4M9 16h1M11 16h1M14 16h2M17 16h1M19 16h3M23 16h4M28 16h1M39 16h1M0 17h4M9 17h1M12 17h1M14 17h4M19 17h4M27 17h2M38 17h2M0 18h3M8 18h8M17 18h1M20 18h2M24 18h2M28 18h1M37 18h3M0 19h2M7 19h1M16 19h5M26 19h1M29 19h1M36 19h4M0 20h1M6 20h1M9 20h4M25 20h1M27 20h1M29 20h1M35 20h5M0 21h1M6 21h1M8 21h1M13 21h4M24 21h1M29 21h1M35 21h5M0 22h2M7 22h1M10 22h3M14 22h1M17 22h8M27 22h2M34 22h6M0 23h3M8 23h2M12 23h2M15 23h1M23 23h1M26 23h1M33 23h7M0 24h4M14 24h1M16 24h1M23 24h1M25 24h1M32 24h8M0 25h5M15 25h1M17 25h1M22 25h1M24 25h1M31 25h9M0 26h6M15 26h1M17 26h1M21 26h1M23 26h1M30 26h10M0 27h7M16 27h1M18 27h3M22 27h1M29 27h11M0 28h8M10 28h2M17 28h1M21 28h2M28 28h12M0 29h13M19 29h1M22 29h1M30 29h10M0 30h13M18 30h1M22 30h2M32 30h8M0 31h12M17 31h2M23 31h2M33 31h7M0 32h11M16 32h1M19 32h1M22 32h1M25 32h1M34 32h6M0 33h11M16 33h1M20 33h1M22 33h1M26 33h1M35 33h5M0 34h10M15 34h1M19 34h1M23 34h1M27 34h3M36 34h4M0 35h9M14 35h2M20 35h1M22 35h1M26 35h1M30 35h2M37 35h3M0 36h8M13 36h1M16 36h1M19 36h1M23 36h1M25 36h2M31 36h2M38 36h2M0 37h7M12 37h1M17 37h2M24 37h1M32 37h1M39 37h1M0 38h7M12 38h1M16 38h1M28 38h1M33 38h1M39 38h1M0 39h7M12 39h1M15 39h2M28 39h2M33 39h1M39 39h1" />
<path stroke="#ffcb0f" d="M6 0h1M31 0h2M5 1h1M33 1h1M4 2h1M34 2h1M3 3h1M35 3h1M2 4h1M36 4h1M2 5h1M37 5h1M2 6h1M38 6h1M3 7h1M39 7h1M4 8h1M39 8h1M5 9h1M39 9h1M5 10h1M39 10h1M5 11h1M38 11h1M5 12h1M38 12h1M6 13h1M37 13h1M6 14h1M38 14h1M5 15h1M39 15h1M4 16h1M38 16h1M4 17h1M37 17h1M3 18h1M36 18h1M2 19h1M35 19h1M1 20h1M34 20h1M1 21h1M34 21h1M2 22h1M33 22h1M3 23h1M32 23h1M4 24h1M31 24h1M5 25h1M30 25h1M6 26h1M29 26h1M7 27h1M10 27h2M27 27h2M8 28h2M12 28h1M27 28h1M13 29h1M27 29h3M13 30h1M30 30h2M12 31h1M32 31h1M11 32h1M33 32h1M11 33h1M34 33h1M10 34h1M35 34h1M9 35h1M36 35h1M8 36h1M37 36h1M7 37h1M38 37h1M7 38h1M38 38h1M7 39h1M38 39h1" />
<path stroke="#ff00b2" d="M7 0h1M30 0h1M6 1h1M31 1h2M5 2h1M33 2h1M4 3h1M34 3h1M35 4h1M36 5h1M37 6h1M38 7h1M38 8h1M38 9h1M38 10h1M37 11h1M37 12h1M36 13h1M37 14h1M38 15h1M37 16h1M32 17h1M36 17h1M32 18h2M35 18h1M33 19h2M33 20h1M33 21h1M32 22h1M31 23h1M30 24h1M29 25h1M27 26h2M26 27h1M26 28h1M26 29h1M27 30h3M30 31h2M32 32h1M33 33h1M34 34h1M35 35h1M36 36h1M37 37h1M37 38h1M37 39h1" />
<path stroke="#fffb00" d="M8 0h1M25 0h5M7 1h1M30 1h1M6 2h1M32 2h1M5 3h1M33 3h1M4 4h1M34 4h1M4 5h1M35 5h1M4 6h1M36 6h1M5 7h1M37 7h1M6 8h1M37 8h1M7 9h1M37 9h1M7 10h1M37 10h1M7 11h1M36 11h1M7 12h1M13 12h2M18 12h3M36 12h1M8 13h1M12 13h3M18 13h3M35 13h1M8 14h1M12 14h2M18 14h1M36 14h1M7 15h1M12 15h2M18 15h1M31 15h1M37 15h1M6 16h1M10 16h1M12 16h2M18 16h1M31 16h2M36 16h1M6 17h1M10 17h2M13 17h1M18 17h1M23 17h4M31 17h1M33 17h1M35 17h1M5 18h1M16 18h1M18 18h2M22 18h2M26 18h2M31 18h1M34 18h1M4 19h1M8 19h8M21 19h5M27 19h2M32 19h1M3 20h1M7 20h2M13 20h12M26 20h1M28 20h1M32 20h1M3 21h1M7 21h1M9 21h4M17 21h7M25 21h4M32 21h1M4 22h1M8 22h2M13 22h1M25 22h2M31 22h1M5 23h1M14 23h1M24 23h2M30 23h1M6 24h1M15 24h1M24 24h1M29 24h1M7 25h1M10 25h2M16 25h1M23 25h1M27 25h2M8 26h2M12 26h1M16 26h1M22 26h1M26 26h1M13 27h1M17 27h1M21 27h1M25 27h1M14 28h1M18 28h3M25 28h1M15 29h1M25 29h1M15 30h1M26 30h1M14 31h1M27 31h3M13 32h1M30 32h2M13 33h1M32 33h1M12 34h1M33 34h1M11 35h1M34 35h1M10 36h1M35 36h1M9 37h1M36 37h1M9 38h1M36 38h1M9 39h1M36 39h1" />
<path stroke="#3bff00" d="M9 0h1M19 0h6M8 1h1M25 1h5M7 2h1M30 2h2M6 3h1M32 3h1M5 4h1M33 4h1M5 5h1M34 5h1M5 6h1M35 6h1M6 7h1M36 7h1M7 8h1M36 8h1M8 9h1M36 9h1M8 10h1M36 10h1M8 11h1M35 11h1M8 12h1M35 12h1M9 13h1M34 13h1M9 14h1M30 14h2M35 14h1M8 15h1M30 15h1M32 15h1M36 15h1M7 16h1M30 16h1M33 16h1M35 16h1M7 17h1M30 17h1M34 17h1M6 18h1M30 18h1M5 19h1M31 19h1M4 20h1M31 20h1M4 21h1M31 21h1M5 22h1M30 22h1M6 23h1M29 23h1M7 24h1M10 24h2M27 24h2M8 25h2M12 25h2M26 25h1M13 26h1M25 26h1M14 27h1M24 27h1M15 28h1M24 28h1M16 29h1M24 29h1M16 30h1M25 30h1M15 31h1M26 31h1M14 32h1M27 32h3M14 33h1M30 33h2M13 34h1M32 34h1M12 35h1M33 35h1M11 36h1M34 36h1M10 37h1M35 37h1M10 38h1M35 38h1M10 39h1M35 39h1" />
<path stroke="#ef19ff" d="M10 0h1M15 0h4M9 1h1M19 1h2M24 1h1M8 2h1M25 2h5M7 3h1M30 3h2M6 4h1M32 4h1M6 5h1M33 5h1M6 6h1M34 6h1M7 7h1M35 7h1M8 8h1M35 8h1M9 9h2M35 9h1M9 10h1M9 11h1M34 11h1M9 12h1M28 12h1M34 12h1M10 13h1M28 13h4M10 14h1M29 14h1M9 15h1M29 15h1M8 16h1M29 16h1M8 17h1M29 17h1M7 18h1M29 18h1M6 19h1M30 19h1M5 20h1M30 20h1M5 21h1M6 22h1M29 22h1M7 23h1M10 23h2M27 23h1M8 24h2M12 24h2M26 24h1M14 25h1M25 25h1M14 26h1M24 26h1M15 27h1M23 27h1M16 28h1M23 28h1M17 29h1M23 29h1M17 30h1M24 30h1M16 31h1M25 31h1M15 32h1M26 32h1M15 33h1M27 33h2M14 34h1M30 34h2M13 35h1M32 35h1M12 36h1M33 36h1M33 37h2M11 38h1M34 38h1M11 39h1M34 39h1" />
<path stroke="#00e5ff" d="M11 1h4M10 2h9M9 3h16M8 4h22M8 5h7M23 5h9M8 6h5M24 6h9M10 7h2M25 7h9M26 8h8M27 9h7M27 10h7M29 11h4" />
<path stroke="#f000ff" d="M21 1h3M32 13h2M32 14h3M33 15h3M34 16h1M26 34h1" />
<path stroke="#ff00b7" d="M3 4h1M3 5h1M3 6h1M4 7h1M5 8h1M6 9h1M6 10h1M6 11h1M6 12h1M7 13h1M7 14h1M6 15h1M5 16h1M5 17h1M4 18h1M3 19h1M2 20h1M2 21h1M3 22h1M4 23h1M5 24h1M6 25h1M7 26h1M10 26h2M8 27h2M12 27h1M13 28h1M14 29h1M14 30h1M13 31h1M12 32h1M12 33h1M11 34h1M10 35h1M9 36h1M8 37h1M8 38h1M8 39h1" />
<path stroke="#84ff00" d="M13 8h10M14 9h4M22 9h2M11 10h11M23 10h2M11 11h2M15 11h3M21 11h5M11 12h1M16 12h1M22 12h4M16 13h1M22 13h5M16 14h1M22 14h6M16 15h1M22 15h6M16 16h1M22 16h1M27 16h1" />
<path stroke="#eb19ff" d="M35 10h1M30 21h1M28 23h1M29 33h1M11 37h1" />
<path stroke="#f500ff" d="M14 14h1M19 14h1M19 23h3M18 24h3M18 25h2M17 32h2M23 32h2M17 33h3M21 33h1M23 33h3M16 34h3M20 34h3M24 34h2M16 35h4M21 35h1M23 35h3M17 36h2M24 36h1" />
<path stroke="#ff0000" d="M15 22h2M16 23h3M22 23h1M17 24h1M21 24h2M20 25h2M18 26h3" />
<path stroke="#f6ff00" d="M18 29h1" />
<path stroke="#85ff00" d="M20 29h2M19 30h3M19 31h4M20 32h2M27 35h3M14 36h2M20 36h3M27 36h4M13 37h4M19 37h5M25 37h7M13 38h3M17 38h11M29 38h4M13 39h2M17 39h11M30 39h3" />
</svg>