<svg xmlns="http://www.w3.org/2000/svg" viewBox="0 -0.5 40 40" shape-rendering="crispEdges">
<metadata>Made with Pixels to Svg https://codepen.io/shshaw/pen/XbxvNj</metadata>
<path stroke="#ff0000" d="M0 0h40M0 1h17M23 1h17M0 2h15M25 2h15M0 3h13M27 3h13M0 4h12M28 4h12M0 5h11M28 5h12M0 6h11M29 6h11M0 7h10M30 7h10M0 8h10M31 8h9M0 9h10M31 9h9M0 10h10M31 10h9M0 11h10M38 11h2M0 12h1M15 22h2M16 23h3M22 23h1M17 24h1M21 24h2M20 25h2M18 26h3" />
<path stroke="#000000" d="M17 1h6M15 2h10M13 3h14M12 4h3M16 4h7M24 4h4M11 5h5M17 5h4M23 5h5M11 6h8M21 6h8M10 7h20M10 8h3M20 8h1M23 8h6M30 8h1M10 9h2M13 9h1M19 9h1M24 9h4M30 9h1M10 10h1M14 10h1M18 10h1M25 10h2M28 10h1M30 10h1M10 11h1M13 11h3M17 11h4M25 11h2M28 11h1M30 11h1M10 12h1M12 12h1M15 12h1M17 12h1M21 12h1M24 12h2M27 12h1M29 12h1M11 13h1M15 13h1M17 13h1M21 13h1M24 13h1M29 13h1M11 14h1M15 14h1M17 14h1M20 14h2M28 14h1M10 15h2M14 15h2M17 15h1M19 15h3M28 15h1M9 16h1M11 16h1M14 16h2M17 16h1M19 16h3M23 16h4M28 16h1M9 17h1M12 17h1M14 17h4M19 17h4M27 17h2M8 18h8M17 18h1M20 18h2M24 18h2M28 18h1M7 19h1M16 19h5M26 19h1M29 19h1M6 20h1M9 20h4M25 20h1M27 20h1M29 20h1M6 21h1M8 21h1M13 21h4M24 21h1M29 21h1M7 22h1M10 22h3M14 22h1M17 22h8M27 22h2M8 23h2M12 23h2M15 23h1M23 23h1M26 23h1M14 24h1M16 24h1M23 24h1M25 24h1M8 25h2M15 25h1M17 25h1M22 25h1M24 25h1M1 26h2M7 26h1M9 26h1M15 26h1M17 26h1M21 26h1M23 26h1M1 27h1M3 27h1M7 27h1M9 27h1M16 27h1M18 27h3M22 27h1M0 28h1M2 28h1M4 28h1M6 28h1M9 28h1M17 28h1M21 28h2M0 29h1M3 29h1M5 29h2M9 29h3M19 29h1M22 29h1M1 30h1M4 30h1M8 30h2M11 30h1M18 30h1M22 30h2M2 31h1M8 31h1M11 31h1M17 31h3M22 31h3M3 32h1M7 32h1M10 32h1M16 32h1M18 32h5M25 32h1M3 33h1M10 33h1M16 33h1M19 33h3M26 33h1M3 34h1M9 34h1M15 34h1M27 34h3M4 35h5M14 35h2M30 35h2M4 36h1M8 36h1M13 36h1M31 36h2M4 37h1M8 37h1M12 37h1M32 37h1M4 38h1M8 38h1M12 38h1M16 38h1M28 38h1M33 38h1M4 39h1M8 39h1M12 39h1M15 39h2M24 39h1M28 39h2M33 39h1" />
<path stroke="#ffffff" d="M15 4h1M23 4h1M16 5h1M21 5h2M19 6h2M14 14h1M19 14h1" />
<path stroke="#efffe6" d="M13 8h7M21 8h2M29 8h1M12 9h1M14 9h5M20 9h4M28 9h2M11 10h3M15 10h3M19 10h6M27 10h1M29 10h1M11 11h2M16 11h1M21 11h4M27 11h1M29 11h1M11 12h1M16 12h1M22 12h2M26 12h1M28 12h1M16 13h1M22 13h2M25 13h4M16 14h1M22 14h6M16 15h1M22 15h6M16 16h1M22 16h1M27 16h1M8 26h1M2 27h1M8 27h1M1 28h1M3 28h1M7 28h2M1 29h2M4 29h1M7 29h2M20 29h2M2 30h2M5 30h3M10 30h1M19 30h3M3 31h5M9 31h2M20 31h2M4 32h3M8 32h2M4 33h6M4 34h5" />
<path stroke="#ec0101" d="M31 11h7M1 12h9M30 12h10M0 13h11M30 13h7M0 14h1M5 14h6M29 14h6M6 15h4M29 15h4M6 16h3M29 16h4M6 17h3M29 17h4M5 18h3M29 18h1M4 19h3M4 20h2M4 21h2" />
<path stroke="#c3d9f9" d="M13 12h2M18 12h3M12 13h3M18 13h3M12 14h2M18 14h1M12 15h2M18 15h1M12 16h2M18 16h1M13 17h1M18 17h1M18 18h2" />
<path stroke="#853e08" d="M37 13h3M1 14h4M35 14h5M0 15h6M34 15h6M1 16h5M34 16h6M2 17h4M35 17h5M2 18h3M37 18h3M2 19h2M2 20h2M37 20h1M1 21h3M1 22h2M1 23h2M39 23h1M1 24h3M38 24h2M1 25h4M38 25h2M3 26h2M38 26h2M4 27h1M36 27h1M39 27h1M36 28h1M39 28h1M16 29h2M35 29h1M38 29h2M14 30h4M38 30h2M14 31h2M34 31h1M38 31h2M1 32h2M38 32h2M1 33h2M11 33h4M38 33h2M1 34h2M10 34h5M37 34h3M9 35h5M35 35h1M37 35h3M9 36h4M38 36h2M9 37h3M38 37h2M39 38h1M39 39h1" />
<path stroke="#65330e" d="M33 15h1M0 16h1M33 16h1M0 17h2M33 17h2M0 18h2M33 18h4M0 19h2M34 19h6M0 20h2M38 20h2M0 21h1M38 21h2M0 22h1M37 22h3M0 23h1M37 23h2M0 24h1M36 24h2M0 25h1M36 25h2M0 26h1M36 26h2M0 27h1M37 27h2M37 28h2M36 29h2M0 30h1M35 30h3M0 31h2M16 31h1M35 31h3M0 32h1M15 32h1M33 32h5M0 33h1M15 33h1M32 33h6M0 34h1M31 34h6M0 35h4M32 35h3M36 35h1M0 36h4M33 36h5M0 37h4M33 37h5M0 38h4M9 38h3M34 38h5M0 39h4M9 39h3M34 39h5" />
<path stroke="#ff8a00" d="M10 16h1M10 17h2M23 17h4M16 18h1M22 18h2M26 18h2M8 19h8M21 19h5M27 19h2M7 20h2M13 20h12M26 20h1M28 20h1M7 21h1M9 21h4M17 21h7M25 21h4M8 22h2M13 22h1M25 22h2M14 23h1M24 23h2M15 24h1M24 24h1M16 25h1M23 25h1M16 26h1M22 26h1M17 27h1M21 27h1M18 28h3" />
<path stroke="#c40505" d="M30 18h3M30 19h4M30 20h7M30 21h8M3 22h4M29 22h8M3 23h5M10 23h2M27 23h10M4 24h10M26 24h10M5 25h3M10 25h5M25 25h11M5 26h2M10 26h5M24 26h12M5 27h2M10 27h6M23 27h13M5 28h1M10 28h7M23 28h13M12 29h4M18 29h1M23 29h12M13 30h1M24 30h11M25 31h6M28 32h2" />
<path stroke="#fc809a" d="M19 23h3M18 24h3M18 25h2" />
<path stroke="#462207" d="M12 30h1M12 31h2M31 31h3M11 32h4M26 32h2M30 32h3M27 33h5M30 34h1" />
<path stroke="#007fff" d="M17 32h1M23 32h2M17 33h2M22 33h4M16 34h11M16 35h8M25 35h5M14 36h9M25 36h6M13 37h10M28 37h4M13 38h3M17 38h6M27 38h1M29 38h4M13 39h2M17 39h6M27 39h1M30 39h3" />
<path stroke="#0081ff" d="M24 35h1M5 36h3M23 36h2M23 37h1M25 37h3M5 38h3M26 38h1M26 39h1" />
<path stroke="#fee989" d="M5 37h3M24 37h1M23 38h3M5 39h3M23 39h1M25 39h1" />
</svg>