<svg xmlns="http://www.w3.org/2000/svg" viewBox="0 -0.5 40 40" shape-rendering="crispEdges">
<metadata>Made with Pixels to Svg https://codepen.io/shshaw/pen/XbxvNj</metadata>
<path stroke="#40ffe5" d="M0 0h10M0 1h10M0 2h11M0 3h10M0 4h9M0 5h8M0 6h7M0 7h6M0 8h5M0 9h4M0 10h3M0 11h2M0 12h1M6 15h1M5 16h1M4 17h1M3 18h2M2 19h2M0 20h4M34 20h1M0 21h3M34 21h2M0 22h2M34 22h3M39 22h1M0 23h2M35 23h3M0 24h1M7 24h3M7 25h2M8 26h1" />
<path stroke="#3cf8e1" d="M10 0h1M11 1h1" />
<path stroke="#2eddd5" d="M11 0h1" />
<path stroke="#28d3d0" d="M12 0h1" />
<path stroke="#27d0ce" d="M13 0h1" />
<path stroke="#26c7cb" d="M14 0h1" />
<path stroke="#25c4ca" d="M15 0h1" />
<path stroke="#21c4ca" d="M16 0h1M19 1h1M20 2h1" />
<path stroke="#20c4ca" d="M17 0h1M21 2h1" />
<path stroke="#20c3c9" d="M18 0h7M20 1h5M22 2h1M30 4h2M31 5h2M32 6h2M32 7h1M32 8h1M39 12h1" />
<path stroke="#1ebec8" d="M25 0h1" />
<path stroke="#18acc3" d="M26 0h1" />
<path stroke="#15a5c1" d="M27 0h1M35 4h1" />
<path stroke="#13a0bf" d="M28 0h1" />
<path stroke="#1199ba" d="M29 0h1M35 3h1" />
<path stroke="#0d8aa8" d="M30 0h1" />
<path stroke="#0a83a0" d="M31 0h1M36 2h1M38 3h1" />
<path stroke="#097e9a" d="M32 0h1M35 1h1M37 2h1M39 3h1" />
<path stroke="#097d98" d="M33 0h7M36 1h4M38 2h2" />
<path stroke="#3ffee4" d="M10 1h1" />
<path stroke="#3cf6e0" d="M12 1h1" />
<path stroke="#4cefdf" d="M13 1h1" />
<path stroke="#6cdbd8" d="M14 1h1" />
<path stroke="#6ad3d5" d="M15 1h1" />
<path stroke="#3fd0d0" d="M16 1h1" />
<path stroke="#24c7cb" d="M17 1h1" />
<path stroke="#24c4ca" d="M18 1h1" />
<path stroke="#1fc2c9" d="M25 1h1M29 3h1M32 4h1M33 5h1" />
<path stroke="#1dbec8" d="M26 1h1M28 2h1M30 3h1M34 5h1" />
<path stroke="#1bb8c6" d="M27 1h1M29 2h1M32 3h1" />
<path stroke="#17abc2" d="M28 1h1M30 2h1" />
<path stroke="#15a4c0" d="M29 1h1" />
<path stroke="#129bba" d="M30 1h1" />
<path stroke="#1095b4" d="M31 1h1" />
<path stroke="#0c89a6" d="M32 1h1" />
<path stroke="#0b84a1" d="M33 1h1" />
<path stroke="#0a839f" d="M34 1h1" />
<path stroke="#41ffe6" d="M11 2h1M10 3h1M9 4h1M8 5h1M7 6h1M6 7h1M5 8h1M4 9h1M3 10h1M2 11h1M1 12h1M0 13h1M4 16h1M3 17h1M5 17h1M2 18h1M0 19h1M2 22h1M9 25h1M8 27h1" />
<path stroke="#54ffe7" d="M12 2h1M7 7h1M2 12h1M6 17h1M3 22h1M10 25h1" />
<path stroke="#91feec" d="M13 2h1" />
<path stroke="#cdf8f2" d="M14 2h1" />
<path stroke="#bbf5ee" d="M15 2h1" />
<path stroke="#68efe0" d="M16 2h1" />
<path stroke="#45d9d4" d="M17 2h1" />
<path stroke="#5ecfd2" d="M18 2h1" />
<path stroke="#3cc7cd" d="M19 2h1" />
<path stroke="#000000" d="M23 2h5M22 3h1M28 3h1M21 4h2M29 4h1M36 4h4M15 5h6M23 5h2M30 5h1M35 5h1M13 6h3M25 6h2M31 6h1M34 6h1M38 6h1M13 7h1M27 7h1M31 7h1M33 7h1M37 7h1M12 8h1M28 8h1M31 8h1M33 8h1M36 8h1M11 9h4M18 9h4M29 9h2M32 9h1M35 9h1M38 9h1M10 10h1M22 10h1M37 10h1M39 10h1M10 11h1M13 11h2M18 11h3M36 11h1M39 11h1M10 12h1M12 12h1M15 12h1M17 12h1M21 12h1M35 12h1M38 12h1M11 13h1M15 13h1M17 13h1M21 13h1M38 13h1M11 14h1M15 14h1M17 14h1M20 14h2M38 14h2M10 15h2M14 15h2M17 15h1M19 15h3M35 15h1M39 15h1M9 16h1M11 16h1M14 16h2M17 16h1M19 16h3M23 16h4M36 16h1M9 17h1M12 17h1M14 17h4M19 17h4M27 17h2M37 17h2M8 18h8M17 18h1M20 18h2M24 18h2M28 18h1M33 18h1M35 18h1M7 19h1M16 19h5M26 19h1M29 19h1M33 19h2M36 19h2M6 20h1M9 20h4M25 20h1M27 20h1M29 20h1M33 20h1M35 20h1M38 20h1M6 21h1M8 21h1M13 21h4M24 21h1M29 21h1M33 21h1M36 21h1M39 21h1M7 22h1M10 22h3M14 22h1M17 22h8M27 22h2M33 22h1M37 22h2M8 23h2M12 23h2M15 23h1M23 23h1M26 23h1M31 23h4M13 24h2M16 24h1M23 24h1M25 24h1M35 24h1M11 25h2M15 25h1M17 25h1M22 25h1M24 25h1M29 25h1M32 25h1M35 25h1M10 26h1M13 26h1M15 26h1M17 26h1M21 26h1M23 26h1M28 26h1M33 26h1M35 26h1M10 27h1M12 27h1M15 27h2M18 27h3M22 27h1M25 27h3M30 27h1M34 27h2M10 28h2M14 28h1M17 28h1M21 28h4M28 28h1M31 28h1M33 28h2M11 29h1M14 29h1M18 29h3M29 29h1M32 29h2M12 30h2M30 30h3" />
<path stroke="#15a5c0" d="M31 2h1" />
<path stroke="#14a0bb" d="M32 2h1" />
<path stroke="#119ab9" d="M33 2h1" />
<path stroke="#1094b4" d="M34 2h1M36 3h1" />
<path stroke="#0c88a6" d="M35 2h1M37 3h1" />
<path stroke="#54ffe8" d="M11 3h1M10 4h1M9 5h1M8 6h1M6 8h1M5 9h1M4 10h1M3 11h1M1 13h1" />
<path stroke="#92ffee" d="M12 3h1M11 4h1M10 5h1M9 6h1M8 7h1M7 8h1M6 9h1M5 10h1M4 11h1M3 12h1M2 13h1M3 15h1M6 18h1" />
<path stroke="#d4fff8" d="M13 3h1M12 4h1M11 5h1M10 6h1M8 8h1M7 9h1M5 11h1M3 13h1M12 24h1" />
<path stroke="#d4fff7" d="M14 3h1M13 4h1M12 5h1M11 6h1M9 7h2M9 8h1M8 9h1M6 10h2M6 11h1M4 12h2M4 13h1M2 14h2" />
<path stroke="#91ffed" d="M15 3h1M3 23h1" />
<path stroke="#5dfee6" d="M16 3h1" />
<path stroke="#86f8e8" d="M17 3h1" />
<path stroke="#baf0eb" d="M18 3h1" />
<path stroke="#76dad9" d="M19 3h1" />
<path stroke="#33d1cf" d="M20 3h1" />
<path stroke="#22c7cb" d="M21 3h1" />
<path stroke="#ffffff" d="M23 3h5M23 4h1M28 4h1M29 5h1M36 5h2M30 6h1M37 6h1M14 7h8M30 7h1M38 7h1M22 8h2M30 8h1M39 8h1M23 9h2M24 10h2M30 10h2M38 10h1M25 11h2M31 11h1M38 11h1M13 12h2M18 12h3M25 12h2M32 12h1M12 13h1M26 13h1M32 13h1M12 14h1M14 14h1M19 14h1M26 14h2M33 14h1M12 15h1M26 15h2M32 15h2M12 16h1M27 16h1M32 16h2M39 16h1M31 17h2M39 17h1M31 18h2M38 18h1M31 19h2M38 19h1M32 20h1M37 20h1M32 21h1M16 22h1M32 22h1M17 23h5M27 23h1M27 24h1M26 25h1M25 26h2M24 27h1" />
<path stroke="#1dbcc7" d="M31 3h1" />
<path stroke="#17a9c2" d="M33 3h1" />
<path stroke="#139fbe" d="M34 3h1" />
<path stroke="#92ffed" d="M14 4h1M13 5h1M11 7h1M10 8h1M9 9h1M1 14h1" />
<path stroke="#5affe6" d="M15 4h1" />
<path stroke="#74ffe9" d="M16 4h1" />
<path stroke="#bbfff4" d="M17 4h1" />
<path stroke="#d7fdf8" d="M18 4h1" />
<path stroke="#94f6e9" d="M19 4h1" />
<path stroke="#4deede" d="M20 4h1" />
<path stroke="#ff6200" d="M24 4h4M21 5h2M25 5h4M38 5h2M16 6h9M27 6h3M35 6h2M39 6h1M22 7h5M28 7h2M34 7h3M39 7h1M13 8h9M24 8h4M29 8h1M34 8h2M37 8h2M15 9h3M22 9h1M25 9h4M31 9h1M33 9h2M36 9h2M39 9h1M11 10h11M23 10h1M26 10h4M32 10h5M11 11h2M15 11h3M21 11h4M27 11h4M32 11h4M37 11h1M11 12h1M16 12h1M22 12h3M27 12h5M33 12h2M36 12h2M16 13h1M22 13h4M27 13h5M33 13h5M16 14h1M22 14h4M28 14h5M34 14h4M16 15h1M22 15h4M28 15h4M34 15h1M36 15h3M16 16h1M22 16h1M28 16h4M34 16h2M37 16h2M29 17h2M33 17h4M29 18h2M34 18h1M36 18h2M39 18h1M30 19h1M35 19h1M39 19h1M30 20h2M36 20h1M39 20h1M30 21h2M37 21h2M29 22h3M28 23h3M26 24h1M28 24h7M13 25h2M25 25h1M27 25h2M30 25h2M33 25h2M11 26h2M14 26h1M24 26h1M27 26h1M29 26h4M34 26h1M11 27h1M13 27h2M28 27h2M31 27h3M12 28h2M29 28h2M32 28h1M12 29h2M30 29h2" />
<path stroke="#1cbac7" d="M33 4h1" />
<path stroke="#17abc3" d="M34 4h1" />
<path stroke="#59ffe6" d="M14 5h1" />
<path stroke="#92ffec" d="M12 6h1M8 10h1" />
<path stroke="#54ffe6" d="M12 7h1M11 8h1M10 9h1M9 10h1" />
<path stroke="#92ffeb" d="M7 11h1M6 12h1M5 13h1M4 14h1" />
<path stroke="#54ffe4" d="M8 11h1M7 12h1M6 13h1M5 14h1" />
<path stroke="#41ffe5" d="M9 11h1M7 14h1" />
<path stroke="#41ffe3" d="M8 12h1" />
<path stroke="#47ffe5" d="M9 12h1" />
<path stroke="#41ffe4" d="M7 13h1M6 14h1M5 15h1" />
<path stroke="#42ffe5" d="M8 13h1M7 23h1" />
<path stroke="#61ffe8" d="M9 13h1M7 16h1" />
<path stroke="#abfef0" d="M10 13h1" />
<path stroke="#c75407" d="M13 13h2M18 13h3M13 14h1M18 14h1M13 15h1M18 15h1" />
<path stroke="#20c4c9" d="M39 13h1" />
<path stroke="#52ffe7" d="M0 14h1M5 18h1M2 23h1M5 25h1" />
<path stroke="#53ffe7" d="M8 14h1M3 16h1" />
<path stroke="#95ffee" d="M9 14h1M7 17h1" />
<path stroke="#dffff9" d="M10 14h1" />
<path stroke="#73ffea" d="M0 15h1" />
<path stroke="#c7fff6" d="M1 15h1M3 24h1" />
<path stroke="#d2fff7" d="M2 15h1" />
<path stroke="#54ffe5" d="M4 15h1M6 23h1" />
<path stroke="#48ffe6" d="M7 15h1" />
<path stroke="#81ffeb" d="M8 15h1" />
<path stroke="#d7fff8" d="M9 15h1" />
<path stroke="#83ffec" d="M0 16h1" />
<path stroke="#aafff2" d="M1 16h1M3 25h1" />
<path stroke="#87ffed" d="M2 16h1M4 25h1" />
<path stroke="#42ffe6" d="M6 16h1M1 24h1" />
<path stroke="#affef0" d="M8 16h1" />
<path stroke="#ff8a00" d="M10 16h1M10 17h2M23 17h4M16 18h1M22 18h2M26 18h2M8 19h8M21 19h5M27 19h2M7 20h2M13 20h12M26 20h1M28 20h1M7 21h1M9 21h4M17 21h7M25 21h4M8 22h2M13 22h1M25 22h2M14 23h1M24 23h2M15 24h1M24 24h1M16 25h1M23 25h1M16 26h1M22 26h1M17 27h1M21 27h1M18 28h3" />
<path stroke="#ee5f00" d="M13 16h1M18 16h1M13 17h1M18 17h1M18 18h1M23 27h1" />
<path stroke="#9dfff1" d="M0 17h1" />
<path stroke="#75ffeb" d="M1 17h1" />
<path stroke="#4effe7" d="M2 17h1" />
<path stroke="#defff9" d="M8 17h1" />
<path stroke="#66ffe9" d="M0 18h1" />
<path stroke="#4cffe7" d="M1 18h1M1 25h1" />
<path stroke="#dbfff9" d="M7 18h1" />
<path stroke="#ee5e00" d="M19 18h1" />
<path stroke="#40ffe6" d="M1 19h1M38 23h2M36 24h2M0 25h1M6 25h1M6 26h2M15 28h2M25 28h3M17 29h1M21 29h2M19 30h2" />
<path stroke="#43ffe6" d="M4 19h1M6 24h1M10 24h1" />
<path stroke="#77ffea" d="M5 19h1M5 24h1M11 24h1" />
<path stroke="#d5fff8" d="M6 19h1" />
<path stroke="#53ffe6" d="M4 20h1" />
<path stroke="#99ffed" d="M5 20h1" />
<path stroke="#43ffe5" d="M3 21h1" />
<path stroke="#76ffe8" d="M4 21h1" />
<path stroke="#cffff6" d="M5 21h1" />
<path stroke="#91ffec" d="M4 22h1M5 23h1" />
<path stroke="#c2fff3" d="M5 22h1M4 23h1" />
<path stroke="#94ffec" d="M6 22h1" />
<path stroke="#ff0000" d="M15 22h1M16 23h1M22 23h1M17 24h1M21 24h2M20 25h2M18 26h3" />
<path stroke="#46ffe6" d="M10 23h1" />
<path stroke="#60ffe8" d="M11 23h1" />
<path stroke="#72ffea" d="M2 24h1" />
<path stroke="#ccfff6" d="M4 24h1" />
<path stroke="#fc809a" d="M18 24h3M18 25h2" />
<path stroke="#40fee8" d="M38 24h1M16 29h1M23 29h1" />
<path stroke="#40fbeb" d="M39 24h1M37 25h1M6 27h1M24 29h1M22 30h1" />
<path stroke="#7dffeb" d="M2 25h1" />
<path stroke="#40fee7" d="M36 25h1M7 27h1M18 30h1M21 30h1" />
<path stroke="#40f5f1" d="M38 25h1M23 30h1" />
<path stroke="#40e8f9" d="M39 25h1M37 26h1M24 30h1" />
<path stroke="#41fbeb" d="M0 26h1" />
<path stroke="#5ffeea" d="M1 26h1" />
<path stroke="#8efef0" d="M2 26h1" />
<path stroke="#75fbf1" d="M3 26h1" />
<path stroke="#4efbec" d="M4 26h1" />
<path stroke="#41fee8" d="M5 26h1" />
<path stroke="#4dffe7" d="M9 26h1" />
<path stroke="#40f6ee" d="M36 26h1M7 28h1" />
<path stroke="#40e2fc" d="M38 26h1M5 28h1M23 31h1" />
<path stroke="#40deff" d="M39 26h1" />
<path stroke="#4cf0f4" d="M0 27h1" />
<path stroke="#6cfbee" d="M1 27h1" />
<path stroke="#7afaf0" d="M2 27h1" />
<path stroke="#55eaf9" d="M3 27h1" />
<path stroke="#41e8f8" d="M4 27h1" />
<path stroke="#40f5ef" d="M5 27h1M35 28h1M34 29h1M16 30h1" />
<path stroke="#67ffe9" d="M9 27h1" />
<path stroke="#40e8f8" d="M36 27h1M6 28h1M22 31h1" />
<path stroke="#3fddfe" d="M37 27h1" />
<path stroke="#40dbff" d="M38 27h2M25 32h1" />
<path stroke="#7bf9f2" d="M0 28h1" />
<path stroke="#9cf9f6" d="M1 28h1" />
<path stroke="#98f4f9" d="M2 28h1" />
<path stroke="#5fe3fe" d="M3 28h1" />
<path stroke="#41deff" d="M4 28h1M6 29h1" />
<path stroke="#43fee8" d="M8 28h1" />
<path stroke="#6dffea" d="M9 28h1" />
<path stroke="#3ee2f7" d="M36 28h1" />
<path stroke="#3ad9eb" d="M37 28h1" />
<path stroke="#39d7ea" d="M38 28h1" />
<path stroke="#39d6f6" d="M39 28h1" />
<path stroke="#9df4f9" d="M0 29h1" />
<path stroke="#7ae8fd" d="M1 29h1" />
<path stroke="#66e1ff" d="M2 29h1M6 31h1" />
<path stroke="#4dddff" d="M3 29h1" />
<path stroke="#42dcff" d="M4 29h1" />
<path stroke="#40dcff" d="M5 29h1M25 31h1" />
<path stroke="#4ce8f9" d="M7 29h1" />
<path stroke="#5efaee" d="M8 29h1" />
<path stroke="#6cfdeb" d="M9 29h1" />
<path stroke="#98faf4" d="M10 29h1" />
<path stroke="#40fcea" d="M15 29h1" />
<path stroke="#40f9ec" d="M25 29h4" />
<path stroke="#40e6f8" d="M35 29h1" />
<path stroke="#3adaeb" d="M36 29h1" />
<path stroke="#26cfa6" d="M37 29h1M27 32h1M21 34h1" />
<path stroke="#1cc9a0" d="M38 29h1" />
<path stroke="#1cc3da" d="M39 29h1" />
<path stroke="#66e2ff" d="M0 30h1" />
<path stroke="#52daff" d="M1 30h1" />
<path stroke="#5dcfff" d="M2 30h1" />
<path stroke="#6bd2ff" d="M3 30h1" />
<path stroke="#68d6ff" d="M4 30h1M5 31h1" />
<path stroke="#4cdaff" d="M5 30h1" />
<path stroke="#4cddff" d="M6 30h1" />
<path stroke="#74e6fd" d="M7 30h1" />
<path stroke="#8df0f6" d="M8 30h1" />
<path stroke="#6fe6ee" d="M9 30h1" />
<path stroke="#7ddef9" d="M10 30h1" />
<path stroke="#6fdefc" d="M11 30h1" />
<path stroke="#40f0f2" d="M14 30h1" />
<path stroke="#40ecf5" d="M15 30h1" />
<path stroke="#40faeb" d="M17 30h1" />
<path stroke="#40e4fb" d="M25 30h1" />
<path stroke="#40e3fb" d="M26 30h1" />
<path stroke="#3ee3f6" d="M27 30h1" />
<path stroke="#3be1eb" d="M28 30h1" />
<path stroke="#3ee7f2" d="M29 30h1" />
<path stroke="#40e8f7" d="M33 30h1" />
<path stroke="#3ee1f6" d="M34 30h1" />
<path stroke="#3adaea" d="M35 30h1" />
<path stroke="#34d4d6" d="M36 30h1" />
<path stroke="#1bc899" d="M37 30h1" />
<path stroke="#07c299" d="M38 30h1" />
<path stroke="#05bcd4" d="M39 30h1" />
<path stroke="#42dbff" d="M0 31h1M13 32h1" />
<path stroke="#58ccff" d="M1 31h1" />
<path stroke="#8da1fd" d="M2 31h1" />
<path stroke="#aba9fc" d="M3 31h1M4 32h1" />
<path stroke="#aac1ff" d="M4 31h1" />
<path stroke="#9deafc" d="M7 31h1" />
<path stroke="#80c8f5" d="M8 31h1" />
<path stroke="#7495eb" d="M9 31h1" />
<path stroke="#a3a7f6" d="M10 31h1" />
<path stroke="#aac2fe" d="M11 31h1" />
<path stroke="#67d7ff" d="M12 31h1" />
<path stroke="#42deff" d="M13 31h1" />
<path stroke="#3ee0f8" d="M14 31h1" />
<path stroke="#3cddef" d="M15 31h1" />
<path stroke="#3ee1f7" d="M16 31h1" />
<path stroke="#40e9f6" d="M17 31h1" />
<path stroke="#3ef8e6" d="M18 31h1" />
<path stroke="#3af7d5" d="M19 31h1" />
<path stroke="#3af6d6" d="M20 31h1" />
<path stroke="#3ef4ea" d="M21 31h1" />
<path stroke="#40defe" d="M24 31h1" />
<path stroke="#3edbfa" d="M26 31h1" />
<path stroke="#36d7dd" d="M27 31h1" />
<path stroke="#2bd1b4" d="M28 31h1" />
<path stroke="#44d6db" d="M29 31h1" />
<path stroke="#5ddcf1" d="M30 31h1" />
<path stroke="#49dbeb" d="M31 31h1" />
<path stroke="#42d2ee" d="M32 31h1" />
<path stroke="#3cd5e8" d="M33 31h1" />
<path stroke="#35d5d7" d="M34 31h1" />
<path stroke="#37cca6" d="M35 31h1" />
<path stroke="#4fc2ae" d="M36 31h1" />
<path stroke="#36b3c8" d="M37 31h1" />
<path stroke="#14b8d4" d="M38 31h1" />
<path stroke="#03bae1" d="M39 31h1" />
<path stroke="#42d6fe" d="M0 32h1" />
<path stroke="#5cb9fa" d="M1 32h1" />
<path stroke="#8978f6" d="M2 32h1" />
<path stroke="#9b72f3" d="M3 32h1" />
<path stroke="#6cd2ff" d="M5 32h1" />
<path stroke="#68dcfd" d="M6 32h1" />
<path stroke="#9fd0f5" d="M7 32h1" />
<path stroke="#8186ed" d="M8 32h1" />
<path stroke="#734ae8" d="M9 32h1" />
<path stroke="#906bec" d="M10 32h1" />
<path stroke="#afb1fb" d="M11 32h1" />
<path stroke="#6dd4ff" d="M12 32h1" />
<path stroke="#3ad9ed" d="M14 32h1" />
<path stroke="#2ed2c0" d="M15 32h1" />
<path stroke="#39d9e7" d="M16 32h1" />
<path stroke="#3adfe7" d="M17 32h1" />
<path stroke="#36eace" d="M18 32h1" />
<path stroke="#2cdeaf" d="M19 32h1" />
<path stroke="#2ddab9" d="M20 32h1" />
<path stroke="#3bdfec" d="M21 32h1" />
<path stroke="#3ddcf9" d="M22 32h1" />
<path stroke="#3bdaf2" d="M23 32h1" />
<path stroke="#3edbfb" d="M24 32h1" />
<path stroke="#3ad8ec" d="M26 32h1" />
<path stroke="#33ca90" d="M28 32h1" />
<path stroke="#6bc3b7" d="M29 32h1" />
<path stroke="#90b5dd" d="M30 32h1" />
<path stroke="#69acc9" d="M31 32h1" />
<path stroke="#4f91cc" d="M32 32h1" />
<path stroke="#2fba9d" d="M33 32h1" />
<path stroke="#23c584" d="M34 32h1" />
<path stroke="#53b596" d="M35 32h1" />
<path stroke="#8a9ed0" d="M36 32h1" />
<path stroke="#6381e1" d="M37 32h1" />
<path stroke="#29aae5" d="M38 32h1" />
<path stroke="#10b9e6" d="M39 32h1" />
<path stroke="#46c8fb" d="M0 33h1" />
<path stroke="#5b7dec" d="M1 33h1" />
<path stroke="#7343e9" d="M2 33h1" />
<path stroke="#8b51f1" d="M3 33h1" />
<path stroke="#9086f8" d="M4 33h1" />
<path stroke="#5ec8fe" d="M5 33h1" />
<path stroke="#52c9fb" d="M6 33h1" />
<path stroke="#7888ed" d="M7 33h1" />
<path stroke="#8b58f0" d="M8 33h1" />
<path stroke="#8f50f3" d="M9 33h1" />
<path stroke="#8b64ef" d="M10 33h1" />
<path stroke="#9eb1f6" d="M11 33h1" />
<path stroke="#63d2ec" d="M12 33h1" />
<path stroke="#3cd8eb" d="M13 33h1" />
<path stroke="#38d6e3" d="M14 33h1" />
<path stroke="#2acfad" d="M15 33h1" />
<path stroke="#34d4d2" d="M16 33h1" />
<path stroke="#26d0a2" d="M17 33h1" />
<path stroke="#24d39a" d="M18 33h1" />
<path stroke="#34d7d6" d="M19 33h1" />
<path stroke="#39d8e7" d="M20 33h1" />
<path stroke="#38d8e6" d="M21 33h1" />
<path stroke="#36d6dc" d="M22 33h1" />
<path stroke="#30d3cb" d="M23 33h1" />
<path stroke="#39d8eb" d="M24 33h1" />
<path stroke="#3ad8ea" d="M25 33h1" />
<path stroke="#33d4d6" d="M26 33h1" />
<path stroke="#24cbae" d="M27 33h1" />
<path stroke="#54c7d2" d="M28 33h1" />
<path stroke="#90a5e2" d="M29 33h1" />
<path stroke="#8b72e5" d="M30 33h1" />
<path stroke="#876ae5" d="M31 33h1" />
<path stroke="#6d67d5" d="M32 33h1" />
<path stroke="#3da394" d="M33 33h1" />
<path stroke="#2db07c" d="M34 33h1" />
<path stroke="#5b78bf" d="M35 33h1" />
<path stroke="#7c57e3" d="M36 33h1" />
<path stroke="#6a62e6" d="M37 33h1" />
<path stroke="#41a6e7" d="M38 33h1" />
<path stroke="#54b7ea" d="M39 33h1" />
<path stroke="#4dadf5" d="M0 34h1" />
<path stroke="#5c58e6" d="M1 34h1" />
<path stroke="#641ae2" d="M2 34h1" />
<path stroke="#6e28e5" d="M3 34h1" />
<path stroke="#6d60eb" d="M4 34h1" />
<path stroke="#5eb1f9" d="M5 34h1" />
<path stroke="#52aef6" d="M6 34h1" />
<path stroke="#615be7" d="M7 34h1" />
<path stroke="#7a39e9" d="M8 34h1" />
<path stroke="#9555f6" d="M9 34h1" />
<path stroke="#8b77f6" d="M10 34h1" />
<path stroke="#6cbfee" d="M11 34h1" />
<path stroke="#3ccfba" d="M12 34h1" />
<path stroke="#2ccaab" d="M13 34h1" />
<path stroke="#47c5d3" d="M14 34h1" />
<path stroke="#55c8bd" d="M15 34h1" />
<path stroke="#42d2d2" d="M16 34h1" />
<path stroke="#1fcb86" d="M17 34h1" />
<path stroke="#1dcb86" d="M18 34h1" />
<path stroke="#38d7e5" d="M19 34h1M19 35h1" />
<path stroke="#3ad8eb" d="M20 34h1" />
<path stroke="#21cd96" d="M22 34h1" />
<path stroke="#2ed2c3" d="M23 34h1" />
<path stroke="#32d4d0" d="M24 34h1" />
<path stroke="#23ce9e" d="M25 34h1" />
<path stroke="#19c899" d="M26 34h1" />
<path stroke="#14c0c9" d="M27 34h1" />
<path stroke="#39b3e4" d="M28 34h1" />
<path stroke="#667ee7" d="M29 34h1" />
<path stroke="#7145e6" d="M30 34h1" />
<path stroke="#8d4ff2" d="M31 34h1" />
<path stroke="#8e5af0" d="M32 34h1" />
<path stroke="#6979ce" d="M33 34h1" />
<path stroke="#3ea1a4" d="M34 34h1" />
<path stroke="#5b73c6" d="M35 34h1" />
<path stroke="#8351e9" d="M36 34h1" />
<path stroke="#7f64ef" d="M37 34h1" />
<path stroke="#6797ea" d="M38 34h1" />
<path stroke="#97a4f1" d="M39 34h1" />
<path stroke="#5a56e5" d="M0 35h1" />
<path stroke="#5f2be1" d="M1 35h1" />
<path stroke="#6009e0" d="M2 35h1" />
<path stroke="#610ce0" d="M3 35h1" />
<path stroke="#6a35e5" d="M4 35h1" />
<path stroke="#7966f0" d="M5 35h1" />
<path stroke="#665ce8" d="M6 35h1" />
<path stroke="#612de1" d="M7 35h1" />
<path stroke="#712ce6" d="M8 35h1" />
<path stroke="#8e50f3" d="M9 35h1" />
<path stroke="#7670f0" d="M10 35h1" />
<path stroke="#4ec3f5" d="M11 35h1" />
<path stroke="#3acfdc" d="M12 35h1" />
<path stroke="#41aeb2" d="M13 35h1" />
<path stroke="#758ada" d="M14 35h1" />
<path stroke="#9babeb" d="M15 35h1" />
<path stroke="#76cae1" d="M16 35h1" />
<path stroke="#34c986" d="M17 35h1" />
<path stroke="#1dcb85" d="M18 35h1" />
<path stroke="#38d7e6" d="M20 35h1" />
<path stroke="#1dcb87" d="M21 35h1" />
<path stroke="#0dc85e" d="M22 35h1" />
<path stroke="#17ca7a" d="M23 35h1" />
<path stroke="#18ca7c" d="M24 35h1" />
<path stroke="#0fc767" d="M25 35h1" />
<path stroke="#0fc292" d="M26 35h1" />
<path stroke="#15b8d4" d="M27 35h1" />
<path stroke="#27a9e4" d="M28 35h1" />
<path stroke="#389be5" d="M29 35h1" />
<path stroke="#586ce6" d="M30 35h1" />
<path stroke="#7644ea" d="M31 35h1" />
<path stroke="#9051f4" d="M32 35h1" />
<path stroke="#8c6ef1" d="M33 35h1" />
<path stroke="#5e9bd5" d="M34 35h1" />
<path stroke="#5793bc" d="M35 35h1" />
<path stroke="#7b65dd" d="M36 35h1" />
<path stroke="#704ae6" d="M37 35h1" />
<path stroke="#5c69e4" d="M38 35h1" />
<path stroke="#6e73e6" d="M39 35h1" />
<path stroke="#5e11e0" d="M0 36h1" />
<path stroke="#5e0ae0" d="M1 36h1" />
<path stroke="#5e07e0" d="M2 36h1" />
<path stroke="#5f06e0" d="M3 36h1" />
<path stroke="#6413e1" d="M4 36h1" />
<path stroke="#6b23e3" d="M5 36h1" />
<path stroke="#6418e1" d="M6 36h1" />
<path stroke="#620fe0" d="M7 36h1" />
<path stroke="#7436e6" d="M8 36h1" />
<path stroke="#9864f4" d="M9 36h1" />
<path stroke="#887cf1" d="M10 36h1" />
<path stroke="#6ebbf9" d="M11 36h1" />
<path stroke="#54b5f2" d="M12 36h1" />
<path stroke="#6174dd" d="M13 36h1" />
<path stroke="#8859ec" d="M14 36h1" />
<path stroke="#a47ff7" d="M15 36h1" />
<path stroke="#a5b4e5" d="M16 36h1" />
<path stroke="#56c586" d="M17 36h1" />
<path stroke="#1dca7c" d="M18 36h1" />
<path stroke="#31d4ce" d="M19 36h1" />
<path stroke="#32d4cf" d="M20 36h1" />
<path stroke="#19c982" d="M21 36h1" />
<path stroke="#05c56b" d="M22 36h1" />
<path stroke="#04c661" d="M23 36h1" />
<path stroke="#08c56c" d="M24 36h1" />
<path stroke="#29c47d" d="M25 36h1" />
<path stroke="#4bb9c5" d="M26 36h1" />
<path stroke="#409ee0" d="M27 36h1" />
<path stroke="#4482e4" d="M28 36h1" />
<path stroke="#36afec" d="M29 36h1" />
<path stroke="#47aef1" d="M30 36h1" />
<path stroke="#605be7" d="M31 36h1" />
<path stroke="#7a3aea" d="M32 36h1" />
<path stroke="#965ef7" d="M33 36h1" />
<path stroke="#9173f2" d="M34 36h1" />
<path stroke="#8d7ce4" d="M35 36h1" />
<path stroke="#9f7eee" d="M36 36h1" />
<path stroke="#725be6" d="M37 36h1" />
<path stroke="#467fe3" d="M38 36h1" />
<path stroke="#3d8ee3" d="M39 36h1" />
<path stroke="#6c27e5" d="M0 37h1" />
<path stroke="#661ce3" d="M1 37h1" />
<path stroke="#6921e3" d="M2 37h1M3 38h1" />
<path stroke="#6213e1" d="M3 37h1" />
<path stroke="#6006e0" d="M4 37h1" />
<path stroke="#6106e0" d="M5 37h1" />
<path stroke="#6008e0" d="M6 37h1" />
<path stroke="#6725e1" d="M7 37h1" />
<path stroke="#875ae9" d="M8 37h1" />
<path stroke="#ad88f5" d="M9 37h1" />
<path stroke="#b599f7" d="M10 37h1" />
<path stroke="#aea6f8" d="M11 37h1" />
<path stroke="#7772ea" d="M12 37h1" />
<path stroke="#6435e2" d="M13 37h1" />
<path stroke="#7230e6" d="M14 37h1" />
<path stroke="#8b62e9" d="M15 37h1" />
<path stroke="#9eacd3" d="M16 37h1" />
<path stroke="#54c47c" d="M17 37h1" />
<path stroke="#14c75b" d="M18 37h1" />
<path stroke="#19ca7b" d="M19 37h1" />
<path stroke="#19ca7c" d="M20 37h1" />
<path stroke="#0dc675" d="M21 37h1" />
<path stroke="#02c297" d="M22 37h1" />
<path stroke="#00c481" d="M23 37h1" />
<path stroke="#0cc297" d="M24 37h1" />
<path stroke="#4abf93" d="M25 37h1" />
<path stroke="#88a0d8" d="M26 37h1" />
<path stroke="#6b64e4" d="M27 37h1" />
<path stroke="#5666e0" d="M28 37h1" />
<path stroke="#3ebae2" d="M29 37h1" />
<path stroke="#42bde5" d="M30 37h1" />
<path stroke="#5b60e1" d="M31 37h1" />
<path stroke="#712fe6" d="M32 37h1" />
<path stroke="#9656f6" d="M33 37h1" />
<path stroke="#9f67f8" d="M34 37h1" />
<path stroke="#a97ff5" d="M35 37h1" />
<path stroke="#9b6bf2" d="M36 37h1" />
<path stroke="#6e3ee5" d="M37 37h1" />
<path stroke="#5848e1" d="M38 37h1" />
<path stroke="#5650e1" d="M39 37h1" />
<path stroke="#9150f4" d="M0 38h1" />
<path stroke="#7f3ded" d="M1 38h1" />
<path stroke="#7f3dec" d="M2 38h1" />
<path stroke="#6107e0" d="M4 38h1" />
<path stroke="#6004df" d="M5 38h1M5 39h1M38 39h1" />
<path stroke="#5f0ce0" d="M6 38h1" />
<path stroke="#723ee3" d="M7 38h1" />
<path stroke="#9871ed" d="M8 38h1" />
<path stroke="#8b60e9" d="M9 38h1" />
<path stroke="#946dec" d="M10 38h1" />
<path stroke="#b393f5" d="M11 38h1" />
<path stroke="#845ae8" d="M12 38h1" />
<path stroke="#7c4be6" d="M13 38h1" />
<path stroke="#8452e8" d="M14 38h1" />
<path stroke="#896ee3" d="M15 38h1" />
<path stroke="#7ab0af" d="M16 38h1" />
<path stroke="#3cc467" d="M17 38h1" />
<path stroke="#0bc64d" d="M18 38h1" />
<path stroke="#0dc75a" d="M19 38h1" />
<path stroke="#16c973" d="M20 38h1" />
<path stroke="#0cc763" d="M21 38h1" />
<path stroke="#02c569" d="M22 38h1" />
<path stroke="#00c65f" d="M23 38h1" />
<path stroke="#08c56a" d="M24 38h1" />
<path stroke="#33b97a" d="M25 38h1" />
<path stroke="#6783c2" d="M26 38h1" />
<path stroke="#6d44e0" d="M27 38h1" />
<path stroke="#5a5dd2" d="M28 38h1" />
<path stroke="#36afa1" d="M29 38h1" />
<path stroke="#3da6ac" d="M30 38h1" />
<path stroke="#5a52d5" d="M31 38h1" />
<path stroke="#712ee5" d="M32 38h1" />
<path stroke="#8f4ef2" d="M33 38h1" />
<path stroke="#7f41eb" d="M34 38h1" />
<path stroke="#7b45e7" d="M35 38h1" />
<path stroke="#7132e5" d="M36 38h1" />
<path stroke="#6216e1" d="M37 38h1" />
<path stroke="#5f0ddf" d="M38 38h1" />
<path stroke="#600ddf" d="M39 38h1" />
<path stroke="#a160fb" d="M0 39h1" />
<path stroke="#9352f5" d="M1 39h1" />
<path stroke="#7733e8" d="M2 39h1" />
<path stroke="#6314e1" d="M3 39h1" />
<path stroke="#6005df" d="M4 39h1" />
<path stroke="#5f07df" d="M6 39h1" />
<path stroke="#6523e1" d="M7 39h1" />
<path stroke="#733ee4" d="M8 39h1" />
<path stroke="#6928e2" d="M9 39h1" />
<path stroke="#8152e7" d="M10 39h1" />
<path stroke="#b08ff3" d="M11 39h1" />
<path stroke="#946deb" d="M12 39h1" />
<path stroke="#b493f4" d="M13 39h1" />
<path stroke="#b695f5" d="M14 39h1" />
<path stroke="#9674ea" d="M15 39h1" />
<path stroke="#9daad2" d="M16 39h1" />
<path stroke="#54c37c" d="M17 39h1" />
<path stroke="#10c64f" d="M18 39h1" />
<path stroke="#19ca7a" d="M19 39h1M21 39h1" />
<path stroke="#2cd0b8" d="M20 39h1" />
<path stroke="#04c64e" d="M22 39h1" />
<path stroke="#00c64c" d="M23 39h1" />
<path stroke="#03c64c" d="M24 39h1" />
<path stroke="#17c258" d="M25 39h1" />
<path stroke="#4ba894" d="M26 39h1" />
<path stroke="#7f6ade" d="M27 39h1" />
<path stroke="#6561d0" d="M28 39h1" />
<path stroke="#3b9e95" d="M29 39h1" />
<path stroke="#4f6fbe" d="M30 39h1" />
<path stroke="#5f2bdb" d="M31 39h1" />
<path stroke="#712ce5" d="M32 39h1" />
<path stroke="#8c4bf1" d="M33 39h1" />
<path stroke="#722ce6" d="M34 39h1" />
<path stroke="#620fe1" d="M35 39h1" />
<path stroke="#6109e0" d="M36 39h1" />
<path stroke="#6005e0" d="M37 39h1" />
<path stroke="#6104df" d="M39 39h1" />
</svg>