<svg xmlns="http://www.w3.org/2000/svg" viewBox="0 -0.5 40 40" shape-rendering="crispEdges">
<metadata>Made with Pixels to Svg https://codepen.io/shshaw/pen/XbxvNj</metadata>
<path stroke="#690000" d="M0 0h5M35 0h5M0 1h4M36 1h4M0 2h4M37 2h3M0 3h3M38 3h2M0 4h2M39 4h1M0 5h1M39 5h1M0 6h1M0 38h1M0 39h2M39 39h1" />
<path stroke="#6a0000" d="M5 0h1M4 1h1M38 4h1M1 5h1M39 38h1" />
<path stroke="#6f0000" d="M6 0h1M37 4h1M39 35h1M38 38h1" />
<path stroke="#7c0101" d="M7 0h1" />
<path stroke="#920303" d="M8 0h1" />
<path stroke="#aa0404" d="M9 0h1M35 39h1" />
<path stroke="#ba0404" d="M10 0h1M2 12h1M37 12h1M37 30h1M2 32h1M34 39h1" />
<path stroke="#bf0404" d="M11 0h1M11 1h1M29 2h1M30 3h1M31 4h1M8 5h1M32 5h1M7 6h1M33 6h1M6 7h1M34 8h1M5 9h1M4 10h1M35 10h1M3 12h1M36 12h1M36 30h1M3 32h1M35 33h1M4 34h1M8 37h1" />
<path stroke="#c00505" d="M12 0h16M12 1h16M12 2h3M23 2h5M12 3h1M25 3h3M27 4h2M10 5h1M28 5h2M29 6h2M30 7h2M8 8h1M31 8h2M7 9h1M32 9h1M7 10h1M32 10h2M6 11h2M33 11h2M5 12h2M33 12h2M5 13h2M33 13h2M4 14h3M34 14h2M4 15h3M34 15h2M0 16h6M34 16h6M0 17h6M34 17h6M0 18h6M34 18h6M0 19h7M34 19h6M0 20h6M34 20h6M0 21h6M34 21h6M0 22h6M34 22h6M0 23h6M34 23h6M0 24h6M35 24h5M0 25h5M35 25h5M0 26h5M35 26h1M0 27h5M0 28h6M32 28h1M4 29h2M4 30h2M33 31h1M7 33h1M15 33h1M30 33h1M30 34h1M32 35h1M11 37h1M11 38h1M10 39h2" />
<path stroke="#c00404" d="M28 0h1M28 1h1M11 2h1M28 2h1M10 3h2M28 3h2M9 4h2M29 4h2M9 5h1M30 5h2M8 6h2M31 6h2M7 7h2M32 7h2M6 8h2M33 8h1M6 9h1M33 9h2M5 10h2M34 10h1M4 11h2M35 11h1M4 12h1M35 12h1M3 13h2M35 13h2M2 14h2M36 14h2M0 15h4M36 15h4M36 26h4M36 27h2M36 28h1M0 29h4M36 29h1M2 30h2M3 31h2M35 31h1M4 32h1M35 32h1M4 33h1M6 35h1M33 36h1M33 37h1" />
<path stroke="#bb0404" d="M29 0h1M10 1h1M31 3h1M32 4h1M33 5h1M6 6h1M35 8h1M36 10h1M4 35h1M34 38h1M8 39h1" />
<path stroke="#af0404" d="M30 0h1M7 39h1" />
<path stroke="#990303" d="M31 0h1M6 39h1" />
<path stroke="#820101" d="M32 0h1" />
<path stroke="#720101" d="M33 0h1M39 8h1" />
<path stroke="#6b0000" d="M34 0h1M35 1h1M36 2h1M3 3h1M37 3h1M2 4h1M39 6h1M0 7h1M0 37h1M39 37h1M1 38h1M2 39h1" />
<path stroke="#6e0000" d="M5 1h1M2 5h1M39 7h1M0 8h1M0 36h1M3 39h1" />
<path stroke="#780101" d="M6 1h1M37 39h1" />
<path stroke="#890202" d="M7 1h1M38 34h1" />
<path stroke="#9d0303" d="M8 1h1" />
<path stroke="#b00404" d="M9 1h1M0 13h1M0 31h1" />
<path stroke="#bd0404" d="M29 1h1M9 3h1M8 4h1M34 7h1M5 8h1M3 11h1M36 11h1M36 32h1M3 33h1M34 37h1M8 38h1" />
<path stroke="#b60404" d="M30 1h1" />
<path stroke="#a70303" d="M31 1h1M37 9h1" />
<path stroke="#920202" d="M32 1h1M5 4h1" />
<path stroke="#7f0101" d="M33 1h1M34 2h1M39 10h1" />
<path stroke="#720000" d="M34 1h1M35 2h1M4 3h1" />
<path stroke="#6c0000" d="M4 2h1M38 5h1M1 6h1M39 36h1M38 39h1" />
<path stroke="#750101" d="M5 2h1M37 5h1M2 6h1M0 9h1M39 34h1" />
<path stroke="#860202" d="M6 2h1M37 37h1" />
<path stroke="#9b0303" d="M7 2h1" />
<path stroke="#ac0404" d="M8 2h1" />
<path stroke="#b80404" d="M9 2h1M36 9h1M1 13h1M38 13h1M38 28h1M1 31h1" />
<path stroke="#be0404" d="M10 2h1M35 9h1M2 13h1M37 13h1M1 14h1M38 14h1M38 27h1M37 28h1M1 30h1M2 31h1M36 31h1" />
<path stroke="#44382b" d="M15 2h1M17 2h3M13 3h1M11 4h1M26 4h1M24 5h1M27 5h1M9 7h1M15 7h2M19 7h1M22 7h1M29 7h1M13 8h1M24 8h1M25 9h1M30 9h1M30 10h1M8 11h1M26 11h1M30 11h1M7 12h1M7 13h1M31 13h1M31 14h1M31 15h1M6 16h1M33 17h1M6 18h1M29 18h1M33 18h1M33 19h1M33 20h1M32 21h2M32 22h2M33 23h1M34 24h1M34 25h1M32 26h1M34 26h1M32 27h1M35 27h1M35 28h1M6 29h1M32 29h1M35 29h1M6 30h1M30 30h1M32 30h2M35 30h1M5 31h1M12 31h1M30 31h3M5 32h1M8 32h1M12 32h1M31 32h2M34 32h1M5 33h2M8 33h1M12 33h1M16 33h1M28 33h1M32 33h1M34 33h1M7 34h1M12 34h2M16 34h1M28 34h1M32 34h1M34 34h2M7 35h1M13 35h1M16 35h1M28 35h1M7 36h2M10 36h1M13 36h1M16 36h1M28 36h1M36 36h1M7 37h1M10 37h1M12 37h2M7 38h1" />
<path stroke="#2d2319" d="M16 2h1M20 2h3M14 3h2M18 3h1M21 3h4M12 4h1M16 4h2M19 4h2M22 4h4M11 5h1M15 5h2M18 5h4M23 5h1M25 5h2M10 6h2M13 6h4M18 6h10M10 7h1M12 7h3M20 7h2M23 7h2M26 7h2M9 8h1M11 8h2M22 8h2M25 8h1M28 8h1M30 8h1M8 9h2M11 9h1M26 9h1M28 9h1M31 9h1M8 10h1M10 10h1M26 10h1M29 10h1M31 10h1M31 11h2M31 12h2M32 13h1M7 14h1M32 14h2M7 15h1M29 15h1M32 15h2M7 16h1M9 16h1M29 16h1M32 16h2M6 17h2M29 17h1M32 17h1M32 18h1M32 19h1M32 20h1M29 22h2M28 23h3M32 23h1M9 24h1M29 24h2M32 24h2M5 25h1M9 25h1M14 25h1M29 25h1M31 25h3M5 26h1M9 26h1M24 26h1M29 26h1M31 26h1M33 26h1M5 27h1M9 27h1M24 27h1M29 27h1M31 27h1M33 27h2M7 28h1M17 28h1M29 28h1M31 28h1M33 28h2M7 29h1M17 29h1M25 29h1M27 29h1M29 29h3M33 29h2M7 30h1M16 30h2M29 30h1M31 30h1M34 30h1M6 31h2M23 31h1M26 31h1M29 31h1M34 31h1M6 32h2M23 32h1M26 32h1M29 32h2M33 32h1M13 33h1M23 33h2M26 33h2M29 33h1M31 33h1M33 33h1M5 34h2M8 34h2M11 34h1M14 34h2M23 34h2M27 34h1M29 34h1M31 34h1M33 34h1M5 35h1M8 35h2M11 35h2M14 35h2M24 35h1M27 35h1M29 35h1M33 35h3M5 36h2M9 36h1M11 36h2M14 36h1M24 36h1M29 36h1M34 36h2M5 37h2M9 37h1M24 37h1M29 37h1M36 37h1M5 38h1M9 38h1M36 38h1M5 39h1M9 39h1" />
<path stroke="#bc0404" d="M30 2h1M7 5h1M4 9h1M0 14h1M39 14h1M39 27h1M37 29h1M0 30h1" />
<path stroke="#b30404" d="M31 2h1M6 5h1M37 32h1" />
<path stroke="#a50303" d="M32 2h1M33 3h1M36 7h1M3 8h1" />
<path stroke="#910202" d="M33 2h1M34 3h1" />
<path stroke="#810101" d="M5 3h1" />
<path stroke="#960202" d="M6 3h1M3 7h1" />
<path stroke="#aa0303" d="M7 3h1M38 30h1" />
<path stroke="#b70404" d="M8 3h1M37 31h1" />
<path stroke="#615a53" d="M16 3h2M15 4h1M13 5h2M22 5h1M17 6h1M28 6h1M28 7h1M29 8h1M29 9h1M30 14h1M30 15h1M31 16h1M31 17h1M31 18h1M31 19h1M31 20h1M31 21h1M31 22h1M31 23h1M8 24h1M31 24h1M8 25h1M30 25h1M30 26h1M8 27h1M30 27h1M8 28h1M30 28h1M8 29h1M9 31h1M10 34h1" />
<path stroke="#79716a" d="M19 3h2M18 4h1M21 4h1M17 5h1M12 6h1M11 7h1M10 9h1M9 10h1M9 29h1M10 31h1M10 32h1M10 33h1M10 35h1" />
<path stroke="#b30303" d="M32 3h1M33 4h1" />
<path stroke="#7e0101" d="M35 3h1M4 4h1M0 10h1M0 34h1M38 35h1M2 37h1M37 38h1" />
<path stroke="#710000" d="M36 3h1M3 4h1M38 6h1M1 7h1M1 37h1M2 38h1" />
<path stroke="#a60303" d="M6 4h1M38 31h1" />
<path stroke="#b50303" d="M7 4h1" />
<path stroke="#4e4841" d="M13 4h2M12 5h1M10 8h1M8 26h1M9 30h1M9 32h1M9 33h1" />
<path stroke="#a40303" d="M34 4h1M5 5h1" />
<path stroke="#8f0202" d="M35 4h1M4 5h1M2 36h1M3 37h1" />
<path stroke="#7b0101" d="M36 4h1M3 5h1M38 7h1M1 8h1M1 36h1M3 38h1" />
<path stroke="#b20303" d="M34 5h1" />
<path stroke="#a00303" d="M35 5h1M39 29h1" />
<path stroke="#880202" d="M36 5h1M3 6h1M1 9h1M1 35h1M4 38h1" />
<path stroke="#9f0303" d="M4 6h1M2 9h1M38 32h1M2 35h1M4 37h1" />
<path stroke="#b10303" d="M5 6h1M3 35h1M4 36h1" />
<path stroke="#b90404" d="M34 6h1M5 7h1M3 10h1M36 33h1M3 34h1" />
<path stroke="#ac0303" d="M35 6h1M4 7h1" />
<path stroke="#970202" d="M36 6h1M38 10h1M37 35h1" />
<path stroke="#800101" d="M37 6h1M2 7h1" />
<path stroke="#e7e6e6" d="M17 7h2M19 8h3M12 9h1M24 9h1M11 10h1M11 13h5M19 13h5M26 13h1M11 14h2M15 14h1M19 14h2M23 14h1M27 14h1M27 15h1M27 16h1" />
<path stroke="#1d1610" d="M25 7h1M26 8h2M27 9h1M27 10h2M9 11h1M11 11h5M18 11h6M27 11h3M8 12h1M28 12h3M8 13h1M29 13h2M8 14h2M28 14h2M8 15h2M8 16h1M30 16h1M8 17h1M30 17h1M7 18h1M30 18h1M30 19h1M30 20h1M30 21h1M6 22h2M6 23h2M10 23h1M27 23h1M6 24h2M10 24h1M12 24h2M28 24h1M6 25h2M10 25h1M12 25h1M28 25h1M6 26h2M10 26h1M12 26h1M14 26h1M25 26h1M28 26h1M6 27h2M10 27h1M25 27h1M28 27h1M6 28h1M10 28h1M16 28h1M23 28h3M27 28h2M10 29h3M16 29h1M18 29h1M23 29h1M28 29h1M8 30h1M10 30h3M23 30h1M25 30h1M27 30h2M8 31h1M11 31h1M13 31h2M25 31h1M27 31h2M11 32h1M13 32h2M25 32h1M27 32h2M11 33h1M14 33h1M25 33h1M25 34h1" />
<path stroke="#b50404" d="M35 7h1M4 8h1" />
<path stroke="#900202" d="M37 7h1M2 8h1M36 39h1" />
<path stroke="#ffffff" d="M14 8h5M13 9h11M12 10h14M16 11h2M24 11h2M17 12h1M17 14h1M25 14h2M17 15h1M25 15h2M17 16h1M18 17h1M18 18h2M21 30h1M19 31h4M19 32h3" />
<path stroke="#b10404" d="M36 8h1M39 13h1M39 28h1M38 29h1" />
<path stroke="#9e0303" d="M37 8h1M0 12h1M39 12h1M0 32h1" />
<path stroke="#850202" d="M38 8h1M39 32h1" />
<path stroke="#b20404" d="M3 9h1" />
<path stroke="#8e0202" d="M38 9h1M37 36h1" />
<path stroke="#770101" d="M39 9h1M38 36h1" />
<path stroke="#950202" d="M1 10h1M38 33h1M1 34h1" />
<path stroke="#ab0303" d="M2 10h1M37 33h1M2 34h1" />
<path stroke="#ae0303" d="M37 10h1M1 12h1M38 12h1M1 32h1M36 35h1" />
<path stroke="#8c0202" d="M0 11h1M39 31h1" />
<path stroke="#a20303" d="M1 11h1M38 11h1" />
<path stroke="#b40404" d="M2 11h1M37 11h1M2 33h1M36 34h1M35 37h1" />
<path stroke="#000000" d="M10 11h1M27 13h1M13 14h2M21 14h2M13 15h2M21 15h2M28 15h1M24 16h3M28 16h1M9 17h1M15 17h3M27 17h2M8 18h8M17 18h1M20 18h2M24 18h2M28 18h1M7 19h1M16 19h5M26 19h1M29 19h1M6 20h1M9 20h4M25 20h1M27 20h1M29 20h1M6 21h1M8 21h1M13 21h4M24 21h1M29 21h1M10 22h3M14 22h1M17 22h8M27 22h2M8 23h2M12 23h2M15 23h1M23 23h1M26 23h1M14 24h1M16 24h1M23 24h1M15 25h1M17 25h1M22 25h1M24 25h1M15 26h1M17 26h1M21 26h1M23 26h1M16 27h1M18 27h3M22 27h1M21 28h2M19 29h2M22 29h1M18 30h1M22 30h1M17 31h2M17 32h1M30 35h2M31 36h2M32 37h1M12 38h1M28 38h1M33 38h1M12 39h1M28 39h2M33 39h1" />
<path stroke="#8d0202" d="M39 11h1" />
<path stroke="#8c8686" d="M9 12h1M16 12h1M26 12h2M10 13h1M17 13h1M25 13h1M28 13h1M10 14h1M10 15h1M11 16h1M18 16h2M11 17h4M19 17h4" />
<path stroke="#6b6969" d="M10 12h6M18 12h8M9 13h1M16 13h1M18 13h1M24 13h1M16 14h1M18 14h1M24 14h1M16 15h1M18 15h1M24 15h1M15 16h2M23 16h1" />
<path stroke="#f5f2f2" d="M11 15h2M15 15h1M19 15h2M23 15h1M12 16h3M20 16h3" />
<path stroke="#ff8a00" d="M10 16h1M10 17h1M23 17h4M16 18h1M22 18h2M26 18h2M8 19h8M21 19h5M27 19h2M7 20h2M13 20h12M26 20h1M28 20h1M7 21h1M9 21h4M17 21h7M25 21h4M8 22h2M13 22h1M25 22h2M14 23h1M24 23h2M15 24h1M24 24h1M16 25h1M23 25h1M16 26h1M22 26h1M17 27h1M21 27h1M18 28h3" />
<path stroke="#ff0000" d="M15 22h2M16 23h3M22 23h1M17 24h1M21 24h2M20 25h2M18 26h3" />
<path stroke="#19120c" d="M11 23h1M11 24h1M25 24h3M11 25h1M13 25h1M25 25h3M11 26h1M13 26h1M26 26h2M11 27h5M23 27h1M26 27h2M9 28h1M11 28h5M26 28h1M13 29h3M24 29h1M26 29h1M13 30h3M24 30h1M26 30h1M15 31h2M24 31h1M15 32h2M24 32h1M26 34h1M26 35h1M26 36h1M26 37h1M10 38h1M26 38h1" />
<path stroke="#fc809a" d="M19 23h3M18 24h3M18 25h2" />
<path stroke="#d5d5d5" d="M21 29h1M19 30h2" />
<path stroke="#930202" d="M39 30h1" />
<path stroke="#a7a109" d="M18 32h1M22 32h1M19 33h3" />
<path stroke="#8b0202" d="M0 33h1" />
<path stroke="#a10303" d="M1 33h1M37 34h1" />
<path stroke="#f3e906" d="M17 33h2M22 33h1M19 34h4M19 35h5M19 36h5M25 36h1M16 37h1M19 37h5M25 37h1M27 37h2M30 37h2M14 38h3M19 38h7M27 38h1M29 38h4M14 39h14M30 39h3" />
<path stroke="#7d0101" d="M39 33h1" />
<path stroke="#f3e806" d="M17 34h2M17 35h2M17 36h2M17 37h2M17 38h2" />
<path stroke="#740101" d="M0 35h1" />
<path stroke="#e2d707" d="M25 35h1M15 36h1M27 36h1M30 36h1M14 37h2M13 38h1M13 39h1" />
<path stroke="#a30303" d="M3 36h1" />
<path stroke="#730101" d="M38 37h1" />
<path stroke="#a80303" d="M6 38h1" />
<path stroke="#ae0404" d="M35 38h1" />
<path stroke="#760101" d="M4 39h1" />
</svg>