<svg xmlns="http://www.w3.org/2000/svg" viewBox="0 -0.5 40 40" shape-rendering="crispEdges">
<metadata>Made with Pixels to Svg https://codepen.io/shshaw/pen/XbxvNj</metadata>
<path stroke="#60d858" d="M0 0h9M0 1h5M6 1h2M0 2h6M0 3h3M4 3h2M1 4h3M5 4h2M2 5h2M3 6h1" />
<path stroke="#099900" d="M9 0h1M5 1h1M8 1h1M6 2h2M3 3h1M6 3h1M0 4h1M4 4h1M7 4h1M1 5h1M4 5h4M2 6h1M4 6h1M3 7h1M33 16h3M4 17h3M32 17h2M36 17h1M3 18h1M6 18h2M31 18h2M37 18h1M2 19h1M7 19h2M31 19h2M37 19h1M2 20h1M7 20h2M31 20h3M36 20h2M2 21h2M6 21h3M32 21h5M3 22h5M33 22h3M4 23h3M12 36h1M2 37h1M12 37h1M24 37h1M0 38h1M2 38h1M12 38h2M19 38h1M24 38h1M0 39h1M2 39h1M13 39h1M19 39h1M24 39h1M26 39h1" />
<path stroke="#5fa6f6" d="M10 0h30M9 1h31M8 2h32M7 3h33M8 4h32M0 5h1M8 5h32M0 6h2M5 6h35M0 7h3M4 7h19M29 7h11M0 8h7M10 8h3M16 8h2M21 8h1M30 8h4M36 8h4M2 9h4M36 9h4M3 10h3M24 10h2M36 10h4M8 11h2M25 11h2M36 11h4M8 12h3M26 12h2M35 12h5M0 13h1M7 13h4M27 13h3M34 13h6M0 14h2M6 14h5M27 14h13M0 15h10M28 15h12M0 16h9M29 16h4M36 16h3M1 17h3M7 17h2M29 17h3M37 17h1M2 18h1M29 18h2M30 19h1M39 19h1M0 20h1M30 20h1M30 21h2M37 21h2M1 22h2M29 22h4M36 22h4M0 23h4M7 23h1M10 23h2M27 23h5M37 23h3M0 24h3M8 24h6M26 24h5M37 24h3M0 25h3M9 25h6M25 25h5M37 25h3M0 26h3M9 26h6M24 26h5M36 26h4M0 27h4M10 27h6M25 27h3M36 27h4M0 28h4M11 28h5M36 28h4M0 29h4M13 29h2M31 29h1M37 29h3M0 30h3M37 30h3M0 31h3M30 31h1M37 31h1M39 31h1M0 32h1M2 32h1M9 32h1M37 32h1M2 33h1M10 33h1M29 33h1M37 33h1M2 34h1M10 34h2M11 35h1M36 35h2M2 36h2M11 36h1M13 36h1M30 36h2M36 36h2M39 36h1M3 37h1M8 37h2M13 37h1M29 37h2M34 37h1M37 37h3M3 38h1M5 38h1M9 38h2M14 38h1M30 38h1M32 38h1M34 38h2M37 38h3M4 39h2M7 39h1M9 39h2M14 39h1M30 39h6M37 39h3" />
<path stroke="#000000" d="M23 7h6M7 8h3M22 8h8M34 8h2M0 9h2M6 9h7M21 9h15M0 10h3M6 10h7M21 10h3M26 10h10M0 11h8M10 11h2M13 11h3M17 11h3M22 11h2M27 11h9M0 12h8M12 12h1M20 12h1M28 12h7M1 13h6M12 13h1M21 13h1M30 13h4M2 14h4M12 14h1M15 14h1M17 14h1M21 14h1M10 15h1M12 15h1M15 15h1M17 15h1M21 15h1M9 16h1M11 16h2M21 16h1M23 16h4M9 17h1M12 17h1M15 17h3M20 17h3M27 17h1M34 17h2M4 18h2M8 18h11M21 18h1M24 18h2M28 18h1M33 18h4M3 19h4M14 19h1M17 19h4M26 19h1M29 19h1M34 19h1M5 20h1M9 20h4M25 20h1M27 20h1M29 20h1M13 21h4M24 21h1M29 21h1M10 22h3M14 22h11M27 22h2M8 23h2M12 23h2M15 23h9M26 23h1M14 24h1M16 24h3M22 24h2M25 24h1M35 24h1M4 25h1M15 25h1M17 25h1M24 25h1M34 25h1M5 26h1M15 26h1M19 26h2M23 26h1M35 26h1M4 27h1M16 27h1M22 27h1M32 27h1M7 28h1M17 28h1M21 28h1M32 28h4M4 29h4M18 29h3M32 29h3M36 29h1M3 30h1M5 30h3M31 30h4M36 30h1M3 31h1M5 31h4M31 31h3M6 32h3M30 32h4M6 33h4M30 33h3M7 34h3M29 34h2M32 34h1M36 34h1M3 35h1M7 35h1M9 35h2M29 35h1M32 35h1M7 36h1M10 36h1M29 36h1M32 36h2M6 37h2M10 37h1M28 37h1M31 37h3M6 38h3M11 38h1M31 38h1M33 38h1M6 39h1M8 39h1" />
<path stroke="#9f4e0a" d="M13 8h3M18 8h3M13 9h8M13 10h8M12 11h1M16 11h1M20 11h2M24 11h1M11 12h1M16 12h1M21 12h5M11 13h1M16 13h1M22 13h5M11 14h1M16 14h1M22 14h5M11 15h1M16 15h1M22 15h6M16 16h1M22 16h1M27 16h2M28 17h1M19 18h2M32 23h3M36 23h1M3 24h1M5 24h3M31 24h1M33 24h2M36 24h1M3 25h1M5 25h2M8 25h1M30 25h3M35 25h2M3 26h2M7 26h2M29 26h4M34 26h1M5 27h1M7 27h3M23 27h2M28 27h4M33 27h3M4 28h3M8 28h3M16 28h1M22 28h9M8 29h5M15 29h3M21 29h9M9 30h20M10 31h18M11 32h16M12 33h15M14 34h14M15 35h9M25 35h3M16 36h8M25 36h3M17 37h3M21 37h3M25 37h3M16 38h3M21 38h2M25 38h1M27 38h1M16 39h3M21 39h2M27 39h1" />
<path stroke="#ffffff" d="M13 12h3M17 12h3M13 13h3M17 13h4M13 14h2M18 14h3M13 15h2M18 15h3M13 16h3M17 16h4M13 17h2M18 17h2M15 19h2M33 19h1M35 19h2M3 20h2M6 20h1M34 20h2M4 21h2M35 29h1M4 30h1M35 30h1M4 31h1M34 31h3M3 32h3M34 32h3M3 33h3M33 33h2M36 33h1M3 34h1M5 34h2M31 34h1M33 34h1M0 35h1M6 35h1M8 35h1M12 35h1M24 35h1M30 35h2M33 35h1M0 36h1M6 36h1M8 36h2M24 36h1M34 36h1M5 37h1M20 37h1M20 38h1M26 38h1" />
<path stroke="#ff8a00" d="M10 16h1M10 17h2M23 17h4M22 18h2M26 18h2M9 19h5M21 19h5M27 19h2M13 20h12M26 20h1M28 20h1M9 21h4M17 21h7M25 21h4M8 22h2M13 22h1M25 22h2M14 23h1M24 23h2M15 24h1M24 24h1M16 25h1M23 25h1M16 26h1M22 26h1M17 27h1M21 27h1M18 28h3" />
<path stroke="#fc809d" d="M39 16h1M0 17h1M38 17h2M0 18h2M38 18h2M0 19h2M38 19h1M1 20h1M38 20h2M0 21h2M39 21h1M0 22h1" />
<path stroke="#743704" d="M35 23h1M4 24h1M32 24h1M7 25h1M33 25h1M6 26h1M33 26h1M6 27h1" />
<path stroke="#af0303" d="M19 24h3M18 25h5M17 26h2M21 26h1M18 27h3" />
<path stroke="#7a2500" d="M31 28h1M30 29h1M29 30h2M9 31h1M28 31h2M10 32h1M27 32h3M11 33h1M27 33h2M12 34h2M28 34h1M13 35h2M28 35h1M14 36h2M28 36h1M14 37h2M15 38h1M28 38h1M15 39h1M28 39h1" />
<path stroke="#7a2400" d="M8 30h1M16 37h1" />
<path stroke="#fc80a0" d="M38 31h1M1 32h1M38 32h2M0 33h2M38 33h2M0 34h2M37 34h3M1 35h2M38 35h2M1 36h1M38 36h1M1 37h1" />
<path stroke="#fc809f" d="M35 33h1M4 34h1M34 34h2M4 35h2M34 35h2M4 36h2M35 36h1M4 37h1M35 37h1M4 38h1" />
<path stroke="#62d858" d="M0 37h1M11 37h1M1 38h1M1 39h1M3 39h1M11 39h2" />
<path stroke="#61d858" d="M36 37h1M23 38h1M29 38h1M36 38h1M20 39h1M23 39h1M25 39h1M29 39h1M36 39h1" />
</svg>