<svg xmlns="http://www.w3.org/2000/svg" viewBox="0 -0.5 40 40" shape-rendering="crispEdges">
<metadata>Made with Pixels to Svg https://codepen.io/shshaw/pen/XbxvNj</metadata>
<path stroke="#ff7900" d="M0 0h13M20 0h5M29 0h11M0 1h8M21 1h3M31 1h9M0 2h7M22 2h1M32 2h8M0 3h6M33 3h7M0 4h5M34 4h6M0 5h4M35 5h5M0 6h4M35 6h5M0 7h4M36 7h4M0 8h4M36 8h4M0 9h4M36 9h4M0 10h4M36 10h4M0 11h4M36 11h4M0 12h5M36 12h4M0 13h5M36 13h4M0 14h5M36 14h4M0 15h5M37 15h3M0 16h6M37 16h3M0 17h6M37 17h3M0 18h7M37 18h3M0 19h7M37 19h3M0 20h6M37 20h3M0 21h6M37 21h3M0 22h7M37 22h3M0 23h8M37 23h3M0 24h8M37 24h3M0 25h8M37 25h3M0 26h8M37 26h3M0 27h8M37 27h3M0 28h8M37 28h3M0 29h8M37 29h3M0 30h8M37 30h3M0 31h8M37 31h3M0 32h8M37 32h3M0 33h8M37 33h3M0 34h8M37 34h3M0 35h8M37 35h3M0 36h7M36 36h4M0 37h7M36 37h4M0 38h7M36 38h4M0 39h7M36 39h4" />
<path stroke="#000000" d="M13 0h2M19 0h1M25 0h4M8 1h5M20 1h1M24 1h1M29 1h2M7 2h1M11 2h1M21 2h1M23 2h1M31 2h1M6 3h1M10 3h1M22 3h1M32 3h1M5 4h1M9 4h1M22 4h1M33 4h1M4 5h1M9 5h1M22 5h1M34 5h1M4 6h1M9 6h1M22 6h1M34 6h1M4 7h1M9 7h1M12 7h2M18 7h3M22 7h1M35 7h1M4 8h1M10 8h2M14 8h1M17 8h1M21 8h2M35 8h1M4 9h1M10 9h1M23 9h1M35 9h1M4 10h1M10 10h1M23 10h1M35 10h1M4 11h1M10 11h1M13 11h2M18 11h3M23 11h1M35 11h1M5 12h1M10 12h1M12 12h1M15 12h1M17 12h1M21 12h1M23 12h1M35 12h1M5 13h1M11 13h1M15 13h1M17 13h1M21 13h1M24 13h1M35 13h1M5 14h1M11 14h1M15 14h1M17 14h1M20 14h2M24 14h1M35 14h1M5 15h1M10 15h2M14 15h2M17 15h1M19 15h3M24 15h1M36 15h1M6 16h1M9 16h1M11 16h1M14 16h2M17 16h1M19 16h3M23 16h4M36 16h1M6 17h1M9 17h1M12 17h1M14 17h4M19 17h4M27 17h2M36 17h1M7 18h9M17 18h1M20 18h2M24 18h2M28 18h1M36 18h1M7 19h1M16 19h5M26 19h1M29 19h1M36 19h1M6 20h1M9 20h4M25 20h1M27 20h1M29 20h1M36 20h1M6 21h1M8 21h1M13 21h4M24 21h1M29 21h1M36 21h1M7 22h1M10 22h3M14 22h1M17 22h8M27 22h2M36 22h1M8 23h2M12 23h2M15 23h1M23 23h1M26 23h1M36 23h1M8 24h1M13 24h2M16 24h1M23 24h1M25 24h1M36 24h1M8 25h1M13 25h1M15 25h1M17 25h1M22 25h1M24 25h1M36 25h1M8 26h1M13 26h1M15 26h1M17 26h1M21 26h1M23 26h2M36 26h1M8 27h1M13 27h1M16 27h1M18 27h3M24 27h1M36 27h1M8 28h1M13 28h1M17 28h1M21 28h1M24 28h1M36 28h1M8 29h1M13 29h1M24 29h1M36 29h1M8 30h1M13 30h1M24 30h1M36 30h1M8 31h1M13 31h1M24 31h1M36 31h1M8 32h1M13 32h1M24 32h1M36 32h1M8 33h1M13 33h1M24 33h1M36 33h1M8 34h1M13 34h1M24 34h1M36 34h1M8 35h1M13 35h1M24 35h1M36 35h1M7 36h1M12 36h1M24 36h1M35 36h1M7 37h1M12 37h1M24 37h1M35 37h1M7 38h1M12 38h1M24 38h1M35 38h1M7 39h1M12 39h1M24 39h1M35 39h1" />
<path stroke="#f61f00" d="M15 0h4M13 1h5M12 2h7M11 3h8M21 3h1M10 4h10M10 5h11M10 6h12M10 7h2M14 7h4M21 7h1M12 8h2M15 8h2M18 8h3M11 9h12M11 10h12M11 11h2M15 11h3M21 11h2M11 12h1M16 12h1M22 12h1M16 13h1M22 13h2M16 14h1M22 14h2M16 15h1M22 15h2M16 16h1M22 16h1M14 25h1M14 26h1M14 27h2M22 27h2M14 28h3M22 28h2M14 29h10M14 30h2M19 30h3M23 30h1M14 31h1M20 31h2M23 31h1M14 32h5M21 32h1M23 32h1M14 33h6M21 33h1M23 33h1M14 34h5M21 34h1M23 34h1M14 35h2M21 35h1M23 35h1M13 36h2M18 36h4M23 36h1M13 37h2M17 37h7M13 38h2M17 38h1M20 38h4M13 39h3M22 39h2" />
<path stroke="#f4715e" d="M18 1h2M19 2h2M19 3h2M20 4h2M21 5h1M22 30h1M22 31h1M22 32h1M22 33h1M22 34h1M22 35h1M22 36h1" />
<path stroke="#e89841" d="M25 1h4M25 2h1M26 3h1" />
<path stroke="#e89941" d="M8 2h2M24 2h1M29 2h2M7 3h2M23 3h3M31 3h1M6 4h3M23 4h5M32 4h1M5 5h4M25 5h4M33 5h1M5 6h3M25 6h5M5 7h3M25 7h6M34 7h1M5 8h3M23 8h1M25 8h6M34 8h1M5 9h3M25 9h7M34 9h1M5 10h3M26 10h6M34 10h1M5 11h3M26 11h6M34 11h1M6 12h2M24 12h1M26 12h6M34 12h1M6 13h3M26 13h6M34 13h1M6 14h3M26 14h6M34 14h1M6 15h4M25 15h8M34 15h2M7 16h2M27 16h6M35 16h1M7 17h2M29 17h4M35 17h1M29 18h4M35 18h1M30 19h3M35 19h1M30 20h3M35 20h1M30 21h3M35 21h1M29 22h4M35 22h1M10 23h1M27 23h6M35 23h1M9 24h2M26 24h7M35 24h1M9 25h2M25 25h1M27 25h6M35 25h1M9 26h2M25 26h1M27 26h6M35 26h1M9 27h3M25 27h8M35 27h1M9 28h2M25 28h1M27 28h6M35 28h1M9 29h2M25 29h1M27 29h6M35 29h1M9 30h2M25 30h1M27 30h6M35 30h1M9 31h2M25 31h1M27 31h6M35 31h1M9 32h2M25 32h1M27 32h6M35 32h1M9 33h2M25 33h1M27 33h6M35 33h1M9 34h2M25 34h1M27 34h5M34 34h2M9 35h2M25 35h1M27 35h5M34 35h2M8 36h3M25 36h1M27 36h4M34 36h1M8 37h3M25 37h1M27 37h4M34 37h1M8 38h3M25 38h6M34 38h1M8 39h3M25 39h6M33 39h2" />
<path stroke="#db8423" d="M10 2h1M26 2h3M9 3h1M27 3h4M28 4h4M23 5h2M29 5h4M8 6h1M23 6h2M30 6h4M8 7h1M23 7h2M31 7h3M8 8h2M24 8h1M31 8h3M8 9h2M24 9h1M32 9h2M8 10h2M24 10h2M32 10h2M8 11h2M24 11h2M32 11h2M8 12h2M25 12h1M32 12h2M9 13h2M25 13h1M32 13h2M9 14h2M25 14h1M32 14h2M33 15h1M33 16h2M33 17h2M33 18h2M33 19h2M33 20h2M33 21h2M33 22h2M11 23h1M33 23h2M11 24h2M33 24h2M11 25h2M26 25h1M33 25h2M11 26h2M26 26h1M33 26h2M12 27h1M33 27h2M11 28h2M26 28h1M33 28h2M11 29h2M26 29h1M33 29h2M11 30h2M26 30h1M33 30h2M11 31h2M26 31h1M33 31h2M11 32h2M26 32h1M33 32h2M11 33h2M26 33h1M33 33h2M11 34h2M26 34h1M32 34h2M11 35h2M26 35h1M32 35h2M11 36h1M26 36h1M31 36h3M11 37h1M26 37h1M31 37h3M11 38h1M31 38h3M11 39h1M31 39h2" />
<path stroke="#c3d9f9" d="M13 12h2M18 12h3M12 13h3M18 13h3M12 14h2M18 14h1M12 15h2M18 15h1M12 16h2M18 16h1M13 17h1M18 17h1M18 18h2" />
<path stroke="#ffffff" d="M14 14h1M19 14h1" />
<path stroke="#ff8a00" d="M10 16h1M10 17h2M23 17h4M16 18h1M22 18h2M26 18h2M8 19h8M21 19h5M27 19h2M7 20h2M13 20h12M26 20h1M28 20h1M7 21h1M9 21h4M17 21h7M25 21h4M8 22h2M13 22h1M25 22h2M14 23h1M24 23h2M15 24h1M24 24h1M16 25h1M23 25h1M16 26h1M22 26h1M17 27h1M21 27h1M18 28h3" />
<path stroke="#ff0000" d="M15 22h2M16 23h3M22 23h1M17 24h1M21 24h2M20 25h2M18 26h3" />
<path stroke="#fc809a" d="M19 23h3M18 24h3M18 25h2" />
<path stroke="#fac805" d="M16 30h3M15 31h5M19 32h2M20 33h1M19 34h2M16 35h5M15 36h3M15 37h2M15 38h2M18 38h2M16 39h6" />
</svg>