<svg xmlns="http://www.w3.org/2000/svg" viewBox="0 -0.5 40 40" shape-rendering="crispEdges">
<metadata>Made with Pixels to Svg https://codepen.io/shshaw/pen/XbxvNj</metadata>
<path stroke="#aa1fe2" d="M0 0h1M9 0h2M15 0h25M0 1h1M7 1h1M19 1h2M24 1h16M0 2h1M25 2h15M0 3h1M30 3h10M0 4h2M6 4h1M32 4h8M0 5h1M4 5h3M33 5h7M0 6h1M4 6h3M34 6h6M0 7h1M5 7h3M35 7h5M0 8h1M8 8h1M35 8h5M0 9h2M8 9h3M35 9h5M0 10h2M9 10h1M35 10h5M0 11h2M5 11h1M9 11h1M34 11h6M0 12h2M8 12h2M28 12h1M34 12h6M0 13h3M8 13h3M28 13h4M34 13h6M0 14h3M7 14h4M29 14h3M35 14h5M0 15h3M6 15h4M29 15h4M36 15h4M0 16h4M6 16h3M29 16h5M35 16h5M0 17h3M6 17h3M29 17h11M0 18h3M6 18h2M29 18h11M0 19h2M5 19h2M30 19h10M0 20h2M4 20h2M30 20h10M0 21h1M4 21h2M30 21h10M0 22h1M4 22h3M29 22h11M0 23h1M4 23h4M10 23h2M27 23h13M0 24h2M5 24h9M26 24h14M0 25h3M10 25h5M25 25h15M0 26h4M11 26h2M24 26h16M0 27h6M11 27h1M23 27h17M0 28h8M16 28h1M23 28h17M0 29h11M14 29h5M23 29h17M0 30h18M24 30h16M0 31h17M25 31h15M0 32h16M26 32h14M0 33h16M27 33h13M0 34h15M30 34h10M0 35h14M32 35h8M0 36h13M33 36h7M0 37h12M33 37h7M0 38h12M34 38h6M0 39h12M34 39h6" />
<path stroke="#bab4ae" d="M1 0h5M7 0h1M1 1h3M5 1h1M10 1h1M2 2h7M2 3h4M2 4h3M2 5h2M2 6h2M2 7h2M3 8h5M3 9h5M4 10h4M4 11h1M6 11h1M4 12h3M4 13h3M5 14h1M4 16h1M4 19h1M3 20h1M2 22h1M2 23h1M2 24h1M6 25h4M5 26h2M9 26h2M10 27h1M10 28h1" />
<path stroke="#dfd9d3" d="M6 0h1M11 0h1M4 1h1M8 1h2M9 2h1M4 7h1M8 10h1M7 11h2M7 13h1M6 14h1M5 16h1M5 17h1M5 18h1M3 21h1M3 22h1M3 23h1M7 26h2" />
<path stroke="#a39c96" d="M8 0h1M12 0h3M6 1h1M11 1h3M1 2h1M10 2h2M1 3h1M6 3h6M5 4h1M1 5h1M1 6h1M1 7h1M1 8h2M2 9h1M2 10h2M2 11h2M2 12h2M7 12h1M3 13h1M3 14h2M3 15h3M3 17h2M3 18h2M2 19h2M2 20h1M1 21h2M1 22h1M1 23h1M3 24h2M3 25h3M4 26h1M6 27h4M8 28h2" />
<path stroke="#0667f9" d="M14 1h1M12 2h7M12 3h13M8 4h22M8 5h7M23 5h9M8 6h5M24 6h9M10 7h2M25 7h9M26 8h8M27 9h7M27 10h7M29 11h4" />
<path stroke="#000000" d="M15 1h4M21 1h3M19 2h6M25 3h5M7 4h1M30 4h2M7 5h1M15 5h8M32 5h1M7 6h1M13 6h11M33 6h1M8 7h2M12 7h13M34 7h1M9 8h4M23 8h3M34 8h1M11 9h3M18 9h4M24 9h3M34 9h1M10 10h1M22 10h1M25 10h2M34 10h1M10 11h1M13 11h2M18 11h3M26 11h3M33 11h1M10 12h1M12 12h1M15 12h1M17 12h1M21 12h1M26 12h2M29 12h5M11 13h1M15 13h1M17 13h1M21 13h1M27 13h1M32 13h2M11 14h5M17 14h5M28 14h1M32 14h3M10 15h2M14 15h2M17 15h1M19 15h3M28 15h1M33 15h3M9 16h1M11 16h1M14 16h2M17 16h1M19 16h3M23 16h4M28 16h1M34 16h1M9 17h1M12 17h1M14 17h4M19 17h4M27 17h2M8 18h8M17 18h1M20 18h2M24 18h2M28 18h1M7 19h1M16 19h5M26 19h1M29 19h1M6 20h1M9 20h4M25 20h1M27 20h1M29 20h1M6 21h1M8 21h1M13 21h4M24 21h1M29 21h1M7 22h1M10 22h3M14 22h1M17 22h8M27 22h2M8 23h2M12 23h2M15 23h1M23 23h1M26 23h1M14 24h1M16 24h1M23 24h1M25 24h1M22 25h1M24 25h1M21 26h1M23 26h1M18 27h3M22 27h1M17 28h1M21 28h2M19 29h1M22 29h1M18 30h1M22 30h2M17 31h2M23 31h2M16 32h1M19 32h1M22 32h1M25 32h1M16 33h1M20 33h1M22 33h1M26 33h1M15 34h1M19 34h1M23 34h1M27 34h3M14 35h2M20 35h1M22 35h1M26 35h1M30 35h2M13 36h1M16 36h1M19 36h1M23 36h1M25 36h2M31 36h2M12 37h1M17 37h2M24 37h1M32 37h1M12 38h1M16 38h1M28 38h1M33 38h1M12 39h1M15 39h2M28 39h2M33 39h1" />
<path stroke="#ffffff" d="M13 8h10M14 9h4M22 9h2M11 10h11M23 10h2M11 11h2M15 11h3M21 11h5M11 12h1M16 12h1M22 12h4M16 13h1M22 13h5M16 14h1M22 14h6M16 15h1M22 15h6M16 16h1M22 16h1M27 16h1M18 24h1M16 25h1M15 26h1M13 27h2M13 28h1M20 29h2M19 30h3M19 31h4M20 32h2M27 35h3M14 36h2M20 36h3M27 36h4M13 37h4M19 37h5M25 37h7M13 38h3M17 38h11M29 38h4M13 39h2M17 39h11M30 39h3" />
<path stroke="#c8dfd5" d="M13 12h2M18 12h3" />
<path stroke="#80e2b9" d="M12 13h3M18 13h3" />
<path stroke="#c3d9f9" d="M12 15h2M18 15h1M13 16h1M18 16h1" />
<path stroke="#ff8a00" d="M10 16h1M10 17h2M23 17h4M16 18h1M22 18h2M26 18h2M8 19h8M21 19h5M27 19h2M7 20h2M13 20h12M26 20h1M28 20h1M7 21h1M9 21h4M17 21h7M25 21h4M8 22h2M13 22h1M25 22h2M14 23h1M24 23h2M15 24h1M24 24h1M23 25h1M22 26h1M17 27h1M21 27h1M18 28h3" />
<path stroke="#f79690" d="M12 16h1M13 17h1M18 17h1M18 18h2" />
<path stroke="#ff0000" d="M15 22h2M16 23h3M22 23h1M21 24h2M20 25h2M18 26h3M17 32h2M23 32h2M17 33h3M21 33h1M23 33h3M16 34h3M20 34h3M24 34h3M16 35h4M21 35h1M23 35h3M17 36h2M24 36h1" />
<path stroke="#fc809a" d="M19 23h3M19 24h2M19 25h1" />
<path stroke="#aa6232" d="M17 24h1M15 25h1M18 25h1M13 26h2M17 26h1M12 27h1M16 27h1M14 28h2M13 29h1" />
<path stroke="#e6e0e0" d="M17 25h1M16 26h1M15 27h1" />
<path stroke="#ff8900" d="M11 28h1" />
<path stroke="#ffd100" d="M12 28h1M11 29h2" />
</svg>