<svg xmlns="http://www.w3.org/2000/svg" viewBox="0 -0.5 40 40" shape-rendering="crispEdges">
<metadata>Made with Pixels to Svg https://codepen.io/shshaw/pen/XbxvNj</metadata>
<path stroke="#14a1e3" d="M0 0h1M0 1h1" />
<path stroke="#65b5e9" d="M1 0h1M1 1h1" />
<path stroke="#b0dffb" d="M2 0h1M9 0h1M2 1h1M2 2h1" />
<path stroke="#88dbff" d="M3 0h1M3 1h1M3 2h1" />
<path stroke="#5bc9ff" d="M4 0h1M4 1h1M4 2h1M4 3h1" />
<path stroke="#2daceb" d="M5 0h1M5 1h1M5 2h1M5 3h1" />
<path stroke="#0aa0e4" d="M6 0h1" />
<path stroke="#15a1e3" d="M7 0h1M0 2h1" />
<path stroke="#65b6ea" d="M8 0h1M1 2h1" />
<path stroke="#86d9ff" d="M10 0h1" />
<path stroke="#53c3fb" d="M11 0h1M4 5h1" />
<path stroke="#2eadec" d="M12 0h1" />
<path stroke="#39b4f1" d="M13 0h1M33 2h1" />
<path stroke="#5bcbff" d="M14 0h1M32 6h1" />
<path stroke="#000000" d="M15 0h1M19 0h3M24 0h5M14 1h1M18 1h3M23 1h7M13 2h2M16 2h4M22 2h6M30 2h1M12 3h1M14 3h13M29 3h2M11 4h1M13 4h11M28 4h1M11 5h2M16 5h3M21 5h2M27 5h2M30 5h1M12 6h2M24 6h4M29 6h1M13 7h14M14 8h8M23 8h1M12 13h3M18 13h4M11 14h1M15 14h1M17 14h1M22 14h1M10 15h1M16 15h1M23 15h1M9 16h1M13 16h1M19 16h1M24 16h3M9 17h1M15 17h2M27 17h1M8 18h8M17 18h1M24 18h2M28 18h1M7 19h1M16 19h5M26 19h1M29 19h1M6 20h1M9 20h4M25 20h1M27 20h1M29 20h1M6 21h1M8 21h1M13 21h4M24 21h1M29 21h1M7 22h1M10 22h3M14 22h11M27 22h2M8 23h2M12 23h2M15 23h9M26 23h1M14 24h1M16 24h8M25 24h1M15 25h1M17 25h2M22 25h1M24 25h1M15 26h1M17 26h1M21 26h1M23 26h1M16 27h1M18 27h3M22 27h1M17 28h1M21 28h2M18 29h3M13 37h6M20 37h2M19 38h5M15 39h5M23 39h2" />
<path stroke="#ffffff" d="M16 0h1M18 0h1M23 0h1M17 1h1M22 1h1M21 2h1M28 2h1M13 3h1M27 3h1M25 4h1M29 4h1M14 5h1M20 5h1M16 6h1M12 14h3M18 14h4M11 15h1M15 15h1M17 15h1M21 15h2M11 16h1M15 16h1M17 16h1M21 16h2M11 17h1M21 17h1M18 18h3M25 33h1M25 34h1M27 34h1M27 35h1M12 36h6M20 36h2M28 36h1M30 36h1M9 37h1M12 37h1M22 37h2M29 37h3M8 38h1M13 38h6M24 38h1M30 38h3M7 39h1M14 39h1M20 39h3M25 39h1M31 39h3" />
<path stroke="#6e6c6c" d="M17 0h1M22 0h1M16 1h1M21 1h1M15 2h1M20 2h1M29 2h1M28 3h1M12 4h1M26 4h1M30 4h1M13 5h1M23 5h3M29 5h1M14 6h2M18 6h3M22 6h2M12 7h1M13 8h1" />
<path stroke="#cef1ff" d="M29 0h1M36 2h1M2 8h1M9 8h1M1 9h2M1 10h2M1 11h2M1 12h2M1 13h2M33 35h1" />
<path stroke="#89daff" d="M30 0h1M35 2h1M3 8h1" />
<path stroke="#54c3fc" d="M31 0h1M4 8h1" />
<path stroke="#28aaea" d="M32 0h1M5 5h1" />
<path stroke="#0ea1e4" d="M33 0h1M6 2h1" />
<path stroke="#31acec" d="M34 0h1" />
<path stroke="#80d2fd" d="M35 0h1" />
<path stroke="#bbeaff" d="M36 0h1M37 4h1" />
<path stroke="#93d8fd" d="M37 0h1" />
<path stroke="#45b2ee" d="M38 0h1" />
<path stroke="#29abea" d="M39 0h1" />
<path stroke="#0ba0e4" d="M6 1h1" />
<path stroke="#1ca3e5" d="M7 1h1M0 3h1" />
<path stroke="#6bbcee" d="M8 1h1M1 3h1" />
<path stroke="#b1e1fd" d="M9 1h1" />
<path stroke="#82d4ff" d="M10 1h1M8 3h1M1 5h1" />
<path stroke="#42b6f2" d="M11 1h1" />
<path stroke="#3ab3f1" d="M12 1h1M32 2h1" />
<path stroke="#53c6fd" d="M13 1h1" />
<path stroke="#d0cccc" d="M15 1h1M24 4h1M15 5h1M19 5h1M21 6h1" />
<path stroke="#86d7ff" d="M30 1h1" />
<path stroke="#47baf5" d="M31 1h1" />
<path stroke="#1fa6e8" d="M32 1h1" />
<path stroke="#17a4e6" d="M33 1h1" />
<path stroke="#3cb4ef" d="M34 1h1" />
<path stroke="#83d4ff" d="M35 1h1" />
<path stroke="#c9eeff" d="M36 1h1" />
<path stroke="#bce5fd" d="M37 1h1" />
<path stroke="#6fc5f7" d="M38 1h1" />
<path stroke="#53c4fc" d="M39 1h1" />
<path stroke="#2cabea" d="M7 2h1" />
<path stroke="#7accf9" d="M8 2h1M1 4h1" />
<path stroke="#b5e6ff" d="M9 2h1M2 4h1" />
<path stroke="#84d5ff" d="M10 2h1M3 6h1M3 7h1" />
<path stroke="#4bbdf6" d="M11 2h1" />
<path stroke="#54c5fd" d="M12 2h1" />
<path stroke="#57c6fe" d="M31 2h1M6 9h1" />
<path stroke="#56c7fd" d="M34 2h1" />
<path stroke="#ccefff" d="M37 2h1" />
<path stroke="#86d8ff" d="M38 2h1" />
<path stroke="#64d2ff" d="M39 2h1M34 3h1M5 11h1" />
<path stroke="#b2e1fd" d="M2 3h1" />
<path stroke="#89dbff" d="M3 3h1M3 4h1M0 16h1" />
<path stroke="#18a3e5" d="M6 3h1" />
<path stroke="#3eb4ef" d="M7 3h1" />
<path stroke="#b7e8ff" d="M9 3h1M2 5h1" />
<path stroke="#88daff" d="M10 3h1" />
<path stroke="#60ceff" d="M11 3h1" />
<path stroke="#63d1ff" d="M31 3h1" />
<path stroke="#5bccff" d="M32 3h2" />
<path stroke="#8addff" d="M35 3h1" />
<path stroke="#cdf1ff" d="M36 3h2M1 8h1" />
<path stroke="#8bddff" d="M38 3h1M3 11h1M3 12h1M3 13h1M39 24h1" />
<path stroke="#68d4ff" d="M39 3h1" />
<path stroke="#2dabea" d="M0 4h1" />
<path stroke="#5ac9ff" d="M4 4h1" />
<path stroke="#2dadec" d="M5 4h1" />
<path stroke="#29aaea" d="M6 4h1" />
<path stroke="#5ec5fa" d="M7 4h1" />
<path stroke="#99ddff" d="M8 4h1" />
<path stroke="#bceaff" d="M9 4h1M2 6h1M1 15h1" />
<path stroke="#8adcff" d="M10 4h1M0 15h1M32 36h1" />
<path stroke="#ffb32c" d="M27 4h1M6 8h1M12 10h1M23 10h1M24 28h1M11 29h1M24 29h1M24 30h1M24 31h1M24 32h1M24 33h1" />
<path stroke="#65d3ff" d="M31 4h1M31 5h1" />
<path stroke="#64d3ff" d="M32 4h2M32 5h3" />
<path stroke="#66d4ff" d="M34 4h1M39 4h1" />
<path stroke="#83dbff" d="M35 4h1" />
<path stroke="#baeaff" d="M36 4h1" />
<path stroke="#84dbff" d="M38 4h1M3 14h1" />
<path stroke="#42b5f1" d="M0 5h1" />
<path stroke="#87d9ff" d="M3 5h1M2 16h1" />
<path stroke="#30adec" d="M6 5h1" />
<path stroke="#7ad0fd" d="M7 5h1" />
<path stroke="#ffb42c" d="M8 5h1M26 5h1M11 6h1M25 8h1M29 8h1M11 9h1M27 9h1M10 10h1M22 10h1M27 11h1M31 11h1M32 12h1M27 13h1M33 13h1M28 14h1M26 15h1M27 16h1M6 17h1M28 17h1M5 18h1M29 18h1M31 20h1M31 21h1M5 22h1M4 23h1M6 23h1M10 23h1M3 24h1M26 26h1M27 28h1M31 28h1M12 29h1M21 29h1M27 29h1M31 29h1M11 30h1M14 30h1M16 30h1M18 30h1M26 30h1M29 30h1M31 30h1M11 31h1M14 31h1M16 31h1M18 31h1M22 31h1M26 31h1M29 31h1M31 31h1M16 32h1M18 32h1M29 32h1M10 33h1M16 33h1M18 33h1M22 33h1M29 33h1M10 34h1M17 34h1M19 34h1M22 34h1M29 34h1M10 35h1M13 35h1M16 35h1M19 35h1M22 35h1M29 35h1M10 36h1M19 36h1M29 36h1M19 37h1" />
<path stroke="#caefff" d="M9 5h1" />
<path stroke="#8bdcff" d="M10 5h1M0 8h1M0 9h1M3 9h1M0 10h1M3 10h1M0 11h1M0 12h1M0 13h1M0 14h1M33 36h2" />
<path stroke="#6bd3ff" d="M35 5h1" />
<path stroke="#7bd3ff" d="M36 5h1" />
<path stroke="#79d1fe" d="M37 5h1" />
<path stroke="#63cbfe" d="M38 5h1" />
<path stroke="#58caff" d="M39 5h1M33 6h1" />
<path stroke="#68cdff" d="M0 6h1" />
<path stroke="#99dfff" d="M1 6h1" />
<path stroke="#3eb4f0" d="M4 6h1M36 6h1M4 7h1" />
<path stroke="#18a4e6" d="M5 6h1M5 7h1" />
<path stroke="#31aceb" d="M6 6h1" />
<path stroke="#81d2fd" d="M7 6h1" />
<path stroke="#cdf0ff" d="M8 6h1" />
<path stroke="#ffb52c" d="M9 6h1M28 6h1M30 6h2M27 7h1M10 8h1M9 9h1M24 9h1M30 9h1M29 10h1M28 11h1M33 11h1M7 12h1M30 12h1M34 12h1M6 13h1M5 14h1M7 14h2M29 14h3M35 14h1M5 15h2M32 15h1M35 15h1M4 16h2M33 16h1M36 16h1M4 17h1M8 17h1M31 17h1M34 17h1M6 18h1M32 18h1M4 19h2M33 19h1M3 20h2M34 20h1M3 21h1M32 21h1M35 21h1M35 22h1M30 23h1M6 24h1M13 24h1M5 25h1M8 25h1M10 25h1M28 25h1M35 25h1M8 26h1M10 26h1M14 26h1M33 26h1M35 26h1M4 27h1M7 27h1M10 27h1M24 27h1M26 27h1M33 27h1M35 27h1M7 28h1M10 28h1M12 28h1M14 28h1M26 28h1M33 28h1M35 28h1M4 29h1M7 29h1M14 29h1M16 29h1M33 29h1M4 30h1M8 30h1M33 30h1M8 31h1M10 32h1M12 32h1M6 33h1M13 33h1M34 34h1M6 35h1M34 35h1" />
<path stroke="#ff4a00" d="M10 6h1M11 8h1M24 8h1M8 9h1M6 10h2M16 10h1M26 10h1M8 11h1M9 12h1M9 13h1" />
<path stroke="#5b5858" d="M17 6h1M22 8h1" />
<path stroke="#57caff" d="M34 6h1" />
<path stroke="#51c4fb" d="M35 6h1" />
<path stroke="#37adeb" d="M37 6h1" />
<path stroke="#35adea" d="M38 6h1" />
<path stroke="#33adea" d="M39 6h1M34 7h1" />
<path stroke="#83daff" d="M0 7h1" />
<path stroke="#c0ecff" d="M1 7h1M2 14h1" />
<path stroke="#c9efff" d="M2 7h1M1 14h1M36 28h1" />
<path stroke="#32adec" d="M6 7h1" />
<path stroke="#82d2fd" d="M7 7h1" />
<path stroke="#cef0ff" d="M8 7h1M8 8h1" />
<path stroke="#ff1f00" d="M9 7h2M29 7h2M27 8h2M7 9h1M20 9h1M23 9h1M26 9h1M8 10h2M27 10h1M10 11h1M12 11h1M30 11h1M6 12h1M25 12h1M27 12h1M7 13h1M28 13h2M26 14h1M8 15h1M27 15h2M7 16h1M28 16h1M30 16h1M29 17h1M30 18h1" />
<path stroke="#fa9400" d="M11 7h1M28 7h1M26 8h1M10 9h1M22 9h1M25 9h1M24 10h1M7 11h1M23 11h1M8 12h1M5 13h1M6 14h1M27 14h1M7 15h1M6 16h1M8 16h1M5 17h1M7 17h1M5 20h1M4 21h1M6 22h1M5 23h1M11 23h1M4 24h2M7 24h1M9 24h1M12 24h1M27 24h1M3 25h1M6 25h1M11 25h1M13 25h2M27 25h1M5 26h1M11 26h1M13 26h1M25 26h1M28 26h1M5 27h1M8 27h1M11 27h1M13 27h1M15 27h1M28 27h1M4 28h1M8 28h1M11 28h1M15 28h1M23 28h1M28 28h1M8 29h1M10 29h1M17 29h1M22 29h1M28 29h1M7 30h1M10 30h1M12 30h1M19 30h2M22 30h1M28 30h1M7 31h1M10 31h1M12 31h1M19 31h2M25 31h1M7 32h1M9 32h1M11 32h1M14 32h1M17 32h1M19 32h1M21 32h1M25 32h1M7 33h1M11 33h1M14 33h1M17 33h1M19 33h1M21 33h1M23 33h1M26 33h1M6 34h1M11 34h1M14 34h1M16 34h1M18 34h1M21 34h1M23 34h1M26 34h1M14 35h1M18 35h1M23 35h1M26 35h1M18 36h1M26 36h1M26 37h1" />
<path stroke="#ffd43d" d="M31 7h1M30 8h1M29 9h1M30 10h1M32 10h1M29 11h1M31 12h1M32 13h1M35 13h1M33 14h1M31 16h1M30 17h1M32 17h1M33 18h1M30 19h1M34 19h1M35 20h1M32 22h1M36 22h1M7 23h1M27 23h2M33 23h1M36 23h1M8 24h1M10 24h2M26 24h1M33 24h1M36 24h1M25 25h1M31 25h1M33 25h1M36 25h2M12 26h1M31 26h1M37 26h1M12 27h1M14 27h1M23 27h1M31 27h1M37 27h1M9 28h1M16 28h1M25 28h1M29 28h1M37 28h1M9 29h1M23 29h1M25 29h2M29 29h1M37 29h1M9 30h1M15 30h1M23 30h1M25 30h1M27 30h1M37 30h1M9 31h1M13 31h1M15 31h1M23 31h1M27 31h1M37 31h1M13 32h1M23 32h1M26 32h1M13 34h1" />
<path stroke="#ffe690" d="M32 7h1M33 8h1M31 9h2M33 10h1M34 11h1M31 19h1M32 20h1M33 21h1M36 21h1M30 22h1M33 22h1M31 23h1M28 24h1M31 24h1M37 24h1M9 25h1M12 25h1M26 25h1M29 25h1M9 26h1M24 26h1M27 26h1M29 26h1M9 27h1M25 27h1M27 27h1M29 27h1M13 28h1M13 29h1M15 29h1M13 30h1M17 30h1M21 30h1M17 31h1M21 31h1M22 32h1" />
<path stroke="#32adeb" d="M33 7h1" />
<path stroke="#35aceb" d="M35 7h1" />
<path stroke="#46a8e5" d="M36 7h1" />
<path stroke="#6a9ad2" d="M37 7h1" />
<path stroke="#7593cc" d="M38 7h1" />
<path stroke="#7793ca" d="M39 7h1" />
<path stroke="#2eaeee" d="M5 8h1" />
<path stroke="#85d4ff" d="M7 8h1" />
<path stroke="#881505" d="M12 8h1M13 9h2M16 9h2M19 9h1M14 10h1M18 10h1M21 10h1M9 11h1M11 11h1M13 11h1M15 11h4M20 11h1M22 11h1M24 11h1M10 12h1M12 12h3M16 12h1M18 12h2M21 12h1M23 12h1M26 12h1M8 13h1M10 13h2M15 13h1M17 13h1M22 13h2M25 13h1M9 14h2M16 14h1M23 14h2M24 15h2M10 16h1M16 16h1M23 16h1M10 17h1M17 17h1M22 17h1M21 18h1" />
<path stroke="#fa9000" d="M31 8h2M28 9h1M28 10h1M31 10h1M26 11h1M32 11h1M28 12h2M33 12h1M30 13h2M34 13h1M32 14h1M34 14h1M29 15h3M33 15h2M29 16h1M32 16h1M35 16h1M33 17h1M35 17h1M34 18h1M34 22h1" />
<path stroke="#7894cc" d="M34 8h1" />
<path stroke="#7ca2d5" d="M35 8h1" />
<path stroke="#9ab9e1" d="M36 8h1" />
<path stroke="#cfa3be" d="M37 8h1" />
<path stroke="#df95aa" d="M38 8h1" />
<path stroke="#e093a9" d="M39 8h1" />
<path stroke="#5fcbff" d="M4 9h1" />
<path stroke="#47bbf7" d="M5 9h1" />
<path stroke="#c63200" d="M12 9h1M20 10h1M15 12h1M16 13h1" />
<path stroke="#f11f02" d="M15 9h1M18 9h1M21 9h1M11 10h1M14 11h1M19 11h1M21 11h1M25 11h1M11 12h1M20 12h1M22 12h1M24 12h1M24 13h1M26 13h1M25 14h1M9 15h1" />
<path stroke="#fa8f00" d="M33 9h1" />
<path stroke="#df96ab" d="M34 9h1" />
<path stroke="#ddacbf" d="M35 9h1" />
<path stroke="#dadbea" d="M36 9h1" />
<path stroke="#e7e2eb" d="M37 9h1" />
<path stroke="#eadce5" d="M38 9h1" />
<path stroke="#e4d7e0" d="M39 9h1" />
<path stroke="#66d1ff" d="M4 10h1" />
<path stroke="#5ecdff" d="M5 10h1" />
<path stroke="#c63300" d="M13 10h1M15 10h1M17 10h1M19 10h1" />
<path stroke="#ffb22c" d="M25 10h1" />
<path stroke="#e4d6e0" d="M34 10h1" />
<path stroke="#e8e2eb" d="M35 10h1" />
<path stroke="#e7f2fb" d="M36 10h1" />
<path stroke="#e6f7ff" d="M37 10h1M0 27h2" />
<path stroke="#def0fb" d="M38 10h1" />
<path stroke="#c9e1ed" d="M39 10h1" />
<path stroke="#68d3ff" d="M4 11h1M6 11h1M4 12h1M4 13h1" />
<path stroke="#d5eaf6" d="M35 11h1" />
<path stroke="#ddf1fc" d="M36 11h1M37 12h1M38 17h1M4 25h1M3 26h1" />
<path stroke="#e3f7ff" d="M37 11h1M1 29h1M1 39h1M3 39h1" />
<path stroke="#dbf0fb" d="M38 11h1M37 20h1M7 25h1M3 27h1M3 28h1M1 32h1M1 33h1M1 34h1M7 34h1M1 35h1M7 35h1M1 36h1M7 36h1M7 37h1M5 38h1M7 38h1M5 39h1" />
<path stroke="#bedce9" d="M39 11h1M39 16h1" />
<path stroke="#65d2ff" d="M5 12h1" />
<path stroke="#c63100" d="M17 12h1" />
<path stroke="#bbdae7" d="M35 12h1" />
<path stroke="#c6e2ee" d="M36 12h1" />
<path stroke="#daf0fa" d="M38 12h1M37 13h2M37 14h2M37 15h2M37 16h2M37 17h1M7 26h1M8 34h1M8 35h1M8 36h1M8 37h1" />
<path stroke="#bddbe8" d="M39 12h1M39 13h1M36 14h1M39 14h1M36 15h1M39 15h1M36 17h1M36 18h1M36 19h1M35 23h1M6 27h1M6 28h1" />
<path stroke="#bedbe9" d="M36 13h1M36 20h1M9 35h1M9 36h1" />
<path stroke="#66d3ff" d="M4 14h1M27 32h1" />
<path stroke="#9be0ff" d="M2 15h1" />
<path stroke="#70d5ff" d="M3 15h1M30 34h1" />
<path stroke="#62d0ff" d="M4 15h1" />
<path stroke="#ff6000" d="M12 15h3M18 15h3M12 16h1M14 16h1M18 16h1M20 16h1M12 17h3M18 17h3" />
<path stroke="#b6e8ff" d="M1 16h1" />
<path stroke="#5dcbff" d="M3 16h1" />
<path stroke="#b1d2e1" d="M34 16h1M35 18h1M35 19h1" />
<path stroke="#82d9ff" d="M0 17h1" />
<path stroke="#a6e1ff" d="M1 17h1" />
<path stroke="#75cdfc" d="M2 17h1" />
<path stroke="#3bb5ef" d="M3 17h1" />
<path stroke="#ff8a00" d="M23 17h4M16 18h1M22 18h2M26 18h2M8 19h8M21 19h5M27 19h2M7 20h2M13 20h12M28 20h1M7 21h1M17 21h7M26 21h3M8 22h2M26 22h1M25 23h1" />
<path stroke="#c7e2ee" d="M39 17h1M4 26h1M9 33h1" />
<path stroke="#62cafe" d="M0 18h1" />
<path stroke="#6ac9fa" d="M1 18h1" />
<path stroke="#43b4ee" d="M2 18h1" />
<path stroke="#18a5e5" d="M3 18h1" />
<path stroke="#0ba2e4" d="M4 18h1" />
<path stroke="#43a4e1" d="M7 18h1" />
<path stroke="#fa9100" d="M31 18h1M32 19h1M33 20h1M34 21h1M34 23h1M34 24h1M34 25h1M34 26h1M34 27h1M34 28h1M34 29h1M34 30h1M34 31h1M34 32h1M34 33h1" />
<path stroke="#dbf0fa" d="M37 18h1M37 19h1M8 32h1M8 33h1" />
<path stroke="#e3f5ff" d="M38 18h1" />
<path stroke="#def1fd" d="M39 18h1" />
<path stroke="#2caeeb" d="M0 19h1" />
<path stroke="#2aabea" d="M1 19h1" />
<path stroke="#19a4e5" d="M2 19h1" />
<path stroke="#16a1e2" d="M3 19h1" />
<path stroke="#739dd5" d="M6 19h1" />
<path stroke="#e5f7ff" d="M38 19h2M2 26h1M2 27h1M0 28h3M0 29h1M0 30h1M0 31h1M0 32h1M0 33h1M0 34h1M0 35h1M0 36h1M0 37h1M0 38h1M0 39h1M4 39h1" />
<path stroke="#0aa2e4" d="M0 20h1" />
<path stroke="#11a1e3" d="M1 20h1" />
<path stroke="#389ddc" d="M2 20h1" />
<path stroke="#e66000" d="M26 20h1M9 21h4M25 21h1M13 22h1M25 22h1M14 23h1M24 23h1M15 24h1M24 24h1M16 25h1M23 25h1M16 26h1M22 26h1M17 27h1M21 27h1M18 28h3" />
<path stroke="#fa9200" d="M30 20h1M30 21h1M29 22h1M31 22h1M32 23h1M29 24h1M32 24h1M32 25h1M32 26h1M32 27h1M32 28h1M32 29h1M32 30h1M32 31h1M32 32h1M32 33h1M32 34h1" />
<path stroke="#e5f8ff" d="M38 20h2M38 21h2M38 29h2M39 30h1M39 31h1M39 32h1M38 33h2" />
<path stroke="#0fa1e2" d="M0 21h1" />
<path stroke="#3b9cdb" d="M1 21h1" />
<path stroke="#8c8abf" d="M2 21h1" />
<path stroke="#ed90a1" d="M5 21h1" />
<path stroke="#ddf3fc" d="M37 21h1" />
<path stroke="#3c9cdb" d="M0 22h1" />
<path stroke="#8b8bc0" d="M1 22h1" />
<path stroke="#da7794" d="M2 22h1" />
<path stroke="#fb8088" d="M3 22h1" />
<path stroke="#fc9ca2" d="M4 22h1" />
<path stroke="#e2f7ff" d="M37 22h1" />
<path stroke="#e4f9ff" d="M38 22h2M35 30h1M33 31h1M35 31h1M37 33h1M37 34h3" />
<path stroke="#9988ba" d="M0 23h1" />
<path stroke="#da7995" d="M1 23h1" />
<path stroke="#f698a1" d="M2 23h1" />
<path stroke="#f3cdd4" d="M3 23h1" />
<path stroke="#fa9300" d="M29 23h1M30 24h1M30 25h1M30 26h1M30 27h1M30 28h1M30 29h1M30 30h1M28 31h1M30 31h1M28 32h1M28 33h1M28 34h1M28 35h1" />
<path stroke="#d3f3ff" d="M37 23h1M38 27h1M36 38h1" />
<path stroke="#cff2ff" d="M38 23h1" />
<path stroke="#cff1ff" d="M39 23h1M33 34h1M35 35h1" />
<path stroke="#ef6e81" d="M0 24h1" />
<path stroke="#f797a0" d="M1 24h1" />
<path stroke="#f0d3da" d="M2 24h1" />
<path stroke="#b7d9ea" d="M35 24h1" />
<path stroke="#8fddff" d="M38 24h1" />
<path stroke="#fd9da3" d="M0 25h1" />
<path stroke="#f1d3db" d="M1 25h1" />
<path stroke="#e9f0f9" d="M2 25h1" />
<path stroke="#ff6d8a" d="M19 25h2" />
<path stroke="#ff6d88" d="M21 25h1M18 26h3" />
<path stroke="#86dbff" d="M38 25h1" />
<path stroke="#71d6ff" d="M39 25h1M30 33h1" />
<path stroke="#ece3ec" d="M0 26h1" />
<path stroke="#e8f1fa" d="M1 26h1" />
<path stroke="#c0ddea" d="M6 26h1M6 29h1M9 34h1" />
<path stroke="#b3e6ff" d="M36 26h1" />
<path stroke="#beebff" d="M38 26h1M36 37h1" />
<path stroke="#86dcff" d="M39 26h1" />
<path stroke="#ace5ff" d="M36 27h1" />
<path stroke="#a4e3ff" d="M39 27h1M36 36h1M35 38h1" />
<path stroke="#b2d3e3" d="M5 28h1" />
<path stroke="#e1f7ff" d="M38 28h1M36 30h1M38 30h1M36 39h2" />
<path stroke="#d5f3ff" d="M39 28h1M35 29h1M35 39h1" />
<path stroke="#dff4fd" d="M2 29h1M4 37h1" />
<path stroke="#d9eff9" d="M3 29h1" />
<path stroke="#b9d8e7" d="M5 29h1" />
<path stroke="#e0f8ff" d="M36 29h1M36 34h1" />
<path stroke="#def3fc" d="M1 30h1M1 38h1M3 38h1" />
<path stroke="#d0e8f4" d="M2 30h1" />
<path stroke="#d3ebf6" d="M3 30h1" />
<path stroke="#cbe3f0" d="M5 30h1" />
<path stroke="#c6e1ee" d="M6 30h1" />
<path stroke="#dcf0fb" d="M1 31h1M1 37h1" />
<path stroke="#c9e3f0" d="M2 31h1M2 37h1M6 37h1M6 38h1M6 39h1" />
<path stroke="#d1e9f4" d="M3 31h1M5 31h1M3 32h1M5 32h1M3 33h1M5 33h1M3 34h1M5 34h1M3 35h1M5 35h1" />
<path stroke="#c8e3ef" d="M4 31h1M4 32h1M4 33h1M4 34h1" />
<path stroke="#c9e3ef" d="M6 31h1M2 32h1M6 32h1M2 33h1M2 34h1M2 35h1M2 36h1M6 36h1" />
<path stroke="#daf5ff" d="M36 31h1M38 31h1" />
<path stroke="#ff4c00" d="M15 32h1M20 32h1M12 33h1M15 33h1M20 33h1M27 33h1M12 34h1M15 34h1M20 34h1M24 34h1M11 35h2M15 35h1M17 35h1M20 35h2M24 35h2M30 35h1M11 36h1M22 36h4M27 36h1M31 36h1M10 37h2M24 37h2M27 37h2M32 37h1M10 38h3M25 38h5M33 38h1M8 39h6M26 39h5M34 39h1" />
<path stroke="#9ce0ff" d="M30 32h1" />
<path stroke="#c2edff" d="M31 32h1" />
<path stroke="#d1f2ff" d="M33 32h1" />
<path stroke="#d6f4ff" d="M35 32h1M38 39h1" />
<path stroke="#ddf6ff" d="M36 32h1" />
<path stroke="#daf6ff" d="M37 32h1" />
<path stroke="#e2f8ff" d="M38 32h1" />
<path stroke="#8cddff" d="M31 33h1" />
<path stroke="#aae5ff" d="M33 33h1M39 38h1" />
<path stroke="#b9eaff" d="M35 33h1" />
<path stroke="#d9f5ff" d="M36 33h1" />
<path stroke="#96dfff" d="M31 34h1" />
<path stroke="#d4f3ff" d="M35 34h1" />
<path stroke="#c8e3f0" d="M4 35h1" />
<path stroke="#ade5ff" d="M31 35h1" />
<path stroke="#c8efff" d="M32 35h1" />
<path stroke="#d0f2ff" d="M36 35h4" />
<path stroke="#d4ebf6" d="M3 36h1M5 36h1" />
<path stroke="#d0e8f5" d="M4 36h1" />
<path stroke="#93deff" d="M35 36h1" />
<path stroke="#a9e5ff" d="M37 36h2" />
<path stroke="#a8e4ff" d="M39 36h1" />
<path stroke="#d9effa" d="M3 37h1M5 37h1" />
<path stroke="#6ad4ff" d="M33 37h1" />
<path stroke="#6cd5ff" d="M34 37h1" />
<path stroke="#87dbff" d="M35 37h1" />
<path stroke="#cbf0ff" d="M37 37h1" />
<path stroke="#bfecff" d="M38 37h1" />
<path stroke="#bbebff" d="M39 37h1" />
<path stroke="#d1e9f5" d="M2 38h1" />
<path stroke="#e4f7ff" d="M4 38h1" />
<path stroke="#ff4b00" d="M9 38h1" />
<path stroke="#8edeff" d="M34 38h1" />
<path stroke="#d7f5ff" d="M37 38h1" />
<path stroke="#b8eaff" d="M38 38h1" />
<path stroke="#e0f4fe" d="M2 39h1" />
<path stroke="#d2f3ff" d="M39 39h1" />
</svg>