<svg xmlns="http://www.w3.org/2000/svg" viewBox="0 -0.5 40 40" shape-rendering="crispEdges">
<metadata>Made with Pixels to Svg https://codepen.io/shshaw/pen/XbxvNj</metadata>
<path stroke="#f2f400" d="M0 0h1M7 0h2M15 0h4M21 0h11M38 0h2M7 1h1M15 1h3M20 1h4M28 1h3M38 1h2M14 2h1M22 2h1M28 2h2M37 2h3M28 3h2M36 3h4M11 4h2M28 4h2M35 4h3M0 5h1M10 5h2M27 5h3M34 5h3M0 6h1M9 6h3M28 6h9M8 7h2M31 7h5M8 8h1M30 8h5M6 9h2M32 9h2M5 10h1M33 10h1M5 11h2M32 11h1M4 12h4M31 12h1M3 13h7M30 13h1M2 14h9M29 14h2M36 14h1M2 15h8M29 15h1M0 16h9M35 16h1M0 17h1M5 17h4M34 17h1M5 18h3M5 19h2M5 20h1M4 21h2M33 21h1M3 22h2M32 22h2M0 23h4M11 23h1M31 23h2M39 23h1M0 24h2M10 24h1M31 24h1M39 24h1M0 25h1M9 25h1M30 25h1M38 25h2M0 26h1M9 26h1M29 26h2M37 26h3M7 27h2M25 27h5M36 27h2M6 28h3M23 28h6M35 28h3M5 29h3M16 29h2M25 29h3M34 29h3M4 30h3M14 30h3M26 30h1M34 30h2M3 31h2M14 31h2M26 31h1M34 31h2M2 32h2M13 32h2M33 32h2M0 33h3M12 33h3M31 33h3M0 34h2M12 34h2M31 34h3M0 35h1M11 35h3M32 35h1M39 35h1M10 36h3M39 36h1M10 37h2M38 37h2M9 38h3M38 38h2M9 39h3M37 39h3" />
<path stroke="#f1f020" d="M1 0h1M27 1h1M31 1h1M6 2h1M1 5h1M36 7h1M31 13h1M36 15h1M1 17h1M4 17h1M11 24h1M1 25h1M31 25h1M36 30h1M1 35h1" />
<path stroke="#e5cb5e" d="M2 0h1M5 4h1M3 5h1M4 9h1M1 13h1M35 13h1M37 15h1M33 16h1M0 19h1M4 24h1M8 24h1M0 28h1M33 28h1M7 31h1M38 34h1M9 35h1M36 38h1" />
<path stroke="#ca5f9c" d="M3 0h1M11 0h1M5 5h1M1 9h1M3 9h1M0 13h1M38 15h1M35 23h1M7 24h1M4 25h1M10 29h1M12 29h1M7 32h1M29 32h1M38 32h1M37 34h1M8 35h1M35 35h1M36 36h1M35 38h1" />
<path stroke="#c42ea7" d="M4 0h1M12 0h1M39 6h1M36 23h1M6 24h1M30 30h1M39 30h1" />
<path stroke="#d2878d" d="M5 0h1M13 0h1M33 1h1M35 1h1M1 2h1M3 2h1M9 2h1M11 2h1M25 2h1M9 3h1M26 3h1M4 5h1M1 8h1M38 9h1M3 10h1M34 12h2M38 13h1M34 14h1M3 19h1M32 19h1M29 23h1M37 23h1M3 25h1M11 26h1M10 28h1M12 30h1M32 30h1M28 31h1M6 32h1M10 33h1M38 33h1M35 34h1M37 35h1M8 36h1M7 38h1" />
<path stroke="#ece142" d="M6 0h1M14 0h1M33 0h1M37 0h1M25 1h2M7 2h1M27 2h1M27 3h1M30 3h1M4 4h1M39 4h1M1 6h1M37 6h1M0 8h1M39 9h1M4 10h1M34 10h1M39 11h1M37 13h1M1 14h1M31 14h1M35 14h1M36 16h1M2 17h2M4 18h1M4 19h1M33 19h2M34 22h1M30 23h1M38 23h1M3 24h1M8 25h1M1 26h1M10 26h1M31 26h1M9 28h1M38 28h1M13 30h1M33 30h1M6 31h1M27 31h1M36 31h1M0 32h1M31 32h1M11 33h1M30 33h1M39 33h1M34 34h1M38 35h1M9 36h1M37 37h1M8 38h1" />
<path stroke="#f1f01f" d="M9 0h1M32 0h1M0 1h1M6 1h1M8 1h1M14 1h1M24 1h1M5 2h1M13 2h1M36 2h1M4 3h2M35 3h1M2 4h2M10 4h1M34 4h1M38 4h1M9 5h1M33 5h1M37 5h1M8 6h1M0 7h1M7 7h1M6 8h1M35 8h1M5 9h1M34 9h1M39 10h1M4 11h1M33 11h1M3 12h1M32 12h1M36 13h1M1 15h1M30 15h1M35 15h1M29 16h1M34 16h1M0 18h1M34 18h1M4 20h1M33 20h1M3 21h1M2 22h1M31 22h1M39 22h1M4 23h1M10 23h1M33 23h1M2 24h1M9 24h1M30 24h1M32 24h1M38 24h1M10 25h1M29 25h1M8 26h1M28 26h1M36 26h1M0 27h1M6 27h1M24 27h1M35 27h1M5 28h1M16 28h1M29 28h1M34 28h1M4 29h1M8 29h1M15 29h1M28 29h1M37 29h1M3 30h1M7 30h1M27 30h1M5 31h1M13 31h1M33 31h1M1 32h1M12 32h1M32 32h1M3 33h1M34 33h1M2 34h1M11 34h1M30 34h1M39 34h1M10 35h1M33 35h1M0 36h1M38 36h1M9 37h1M8 39h1" />
<path stroke="#e5cb5d" d="M10 0h1M34 11h1M31 15h1M34 23h1M9 29h1M38 29h1M34 35h1" />
<path stroke="#ff0000" d="M19 0h2M18 1h2M15 2h2M18 2h4M13 3h3M17 3h7M13 4h13M12 5h1M15 5h5M24 5h1M26 5h1M12 6h1M16 6h2M25 6h3M10 7h3M26 7h5M7 8h1M9 8h3M25 8h5M8 9h3M26 9h6M7 10h3M27 10h6M8 11h2M28 11h3M27 12h3M27 13h2M27 14h2M15 22h2M16 23h3M22 23h1M17 24h1M21 24h2M20 25h2M18 26h3" />
<path stroke="#e3c663" d="M34 0h1M0 9h1" />
<path stroke="#cc6a97" d="M35 0h1M38 14h1" />
<path stroke="#d2878c" d="M36 0h1M31 3h1M32 4h1M39 5h1M38 6h1M35 10h1M39 12h1M35 19h1M1 21h1M35 22h1M27 25h1M14 28h1M0 31h1M31 31h1" />
<path stroke="#e6d158" d="M1 1h1M4 2h1M12 2h1M35 2h1M6 3h1M6 7h1M36 8h1M2 12h1M36 12h1M1 18h1M11 25h1M5 27h1M34 27h1M1 36h1" />
<path stroke="#d07f91" d="M2 1h1M32 2h1M34 2h1M5 7h1M37 8h1M1 12h1M12 25h1M4 27h1M33 27h1M2 36h1" />
<path stroke="#c541a4" d="M3 1h1M33 2h1M6 5h1M33 14h1M1 20h1M5 25h1M33 26h1M1 29h1M38 31h1M28 33h1" />
<path stroke="#d07f90" d="M4 1h1M10 1h1M12 1h1M24 3h1M33 3h1M6 4h1M8 4h1M7 5h1M6 6h1M4 8h1M36 9h1M37 10h1M2 11h1M36 11h1M33 13h1M33 15h1M31 16h1M30 17h1M29 18h1M36 18h1M1 19h1M2 20h1M31 20h1M30 21h1M38 21h1M6 23h1M5 24h1M13 24h1M28 24h1M34 24h1M36 24h1M33 25h1M35 25h1M5 26h1M34 26h1M1 28h1M3 28h1M31 28h1M2 29h1M30 29h1M1 30h1M9 30h1M29 30h1M38 30h1M8 31h1M11 31h1M5 33h1M36 33h1M4 34h1M9 34h1M3 35h1M34 36h1M1 37h1M33 37h1" />
<path stroke="#e7d157" d="M5 1h1M9 1h1M13 1h1M36 1h1M24 2h1M34 3h1M9 4h1M26 4h1M33 4h1M8 5h1M38 5h1M7 6h1M5 8h1M35 9h1M38 10h1M3 11h1M37 11h1M33 12h1M38 12h1M34 15h1M30 16h1M29 17h1M35 18h1M3 20h1M32 20h1M2 21h1M31 21h1M5 23h1M29 24h1M33 24h1M37 24h1M28 25h1M36 25h1M35 26h1M4 28h1M15 28h1M30 28h1M3 29h1M29 29h1M2 30h1M8 30h1M28 30h1M1 31h1M12 31h1M32 31h1M5 32h1M4 33h1M35 33h1M3 34h1M10 34h1M33 36h1" />
<path stroke="#c641a3" d="M11 1h1M25 3h1M32 3h1M7 4h1M37 9h1M36 10h1M2 19h1M7 23h1M35 24h1M34 25h1M2 28h1M29 31h1M37 33h1" />
<path stroke="#e7d158" d="M32 1h1M31 2h1M32 13h1M6 22h1M12 24h1M2 25h1M32 25h1M37 30h1M2 35h1" />
<path stroke="#cc6a99" d="M34 1h1M2 2h1M10 2h1M8 3h1M32 15h1M32 27h1M32 29h1" />
<path stroke="#f1f01e" d="M37 1h1M23 2h1M30 2h1M12 3h1M27 4h1M30 5h1M2 13h1M35 17h1M32 21h1M5 22h1M37 25h1M9 27h1M30 27h1M38 27h1M2 31h1M4 32h1M35 32h1M37 38h1" />
<path stroke="#e5cc5d" d="M0 2h1M2 3h1M10 3h1M1 7h1M36 17h1M39 21h1M6 26h1M24 26h1M1 27h1M10 27h1M31 27h1M36 32h1M37 36h1" />
<path stroke="#e5cc5e" d="M8 2h1M37 7h1M27 32h1M0 37h1M7 39h1" />
<path stroke="#950000" d="M17 2h1M16 3h1M13 5h2M20 5h4M25 5h1M15 6h1M18 6h2M24 6h1M16 7h2M25 7h1M24 8h1M24 9h2M6 10h1M26 10h1M7 11h1M27 11h1M31 11h1M8 12h2M26 12h1M30 12h1M10 13h1M26 13h1M29 13h1M26 14h1M27 15h2" />
<path stroke="#d38f8a" d="M26 2h1M3 18h1" />
<path stroke="#d48f89" d="M0 3h2M0 14h1M7 25h1M39 28h1" />
<path stroke="#ece141" d="M3 3h1M11 3h1M1 4h1M32 5h1M0 15h1M1 22h1M7 26h1M27 26h1M23 27h1M39 27h1M14 29h1" />
<path stroke="#d1878e" d="M7 3h1M32 14h1M37 16h1M2 18h1M2 26h1M32 26h1M15 27h1M37 31h1M36 37h1" />
<path stroke="#eadc47" d="M0 4h1M26 26h1" />
<path stroke="#ece240" d="M30 4h1M31 5h1" />
<path stroke="#d59088" d="M31 4h1" />
<path stroke="#ece143" d="M2 5h1" />
<path stroke="#d38e8a" d="M2 6h1" />
<path stroke="#c95f9c" d="M3 6h1M39 7h1M0 20h1M0 29h1" />
<path stroke="#c32ea7" d="M4 6h2M3 8h1M1 10h2M1 11h1M0 12h1M39 13h1M38 16h1M31 17h1M30 18h1M31 19h1M36 19h1M30 20h1M36 20h1M38 20h1M37 21h1M36 22h1M28 23h1M27 24h1M13 25h1M3 26h2M3 27h1M11 28h2M31 29h1M0 30h1M10 30h2M31 30h1M9 31h2M8 32h1M6 33h1M9 33h1M5 34h1M8 34h1M36 34h1M4 35h1M36 35h1M3 36h1M7 36h1M35 36h1M2 37h1M34 37h2M1 38h1M6 38h1" />
<path stroke="#ffffff" d="M13 6h2M20 6h4M13 7h3M18 7h7M13 8h1M15 8h1M17 8h1M19 8h1M21 8h3M15 9h3M22 9h2M11 10h6M18 10h8M11 11h2M15 11h3M21 11h6M11 12h1M13 12h2M16 12h1M18 12h3M22 12h4M12 13h1M16 13h1M22 13h4M12 14h1M14 14h1M16 14h1M19 14h1M22 14h4M12 15h1M16 15h1M22 15h5M12 16h1M16 16h1M22 16h1M27 16h1M20 29h2M19 30h3M19 31h4M21 32h1M24 32h1M19 33h1M22 33h1M21 34h1M20 35h2" />
<path stroke="#ca609c" d="M2 7h1M37 17h1M2 27h1M11 27h1M28 32h1M37 32h1" />
<path stroke="#c105aa" d="M3 7h1M2 9h1M0 11h1M39 14h1M39 15h1M39 16h1M38 17h2M31 18h1M38 18h2M30 19h1M37 19h3M37 20h1M27 23h1M26 24h1M14 25h1M13 26h2M12 27h2M11 29h1M9 32h1M7 33h2M6 34h2M5 35h3M4 36h3M3 37h4M2 38h4M34 38h1M0 39h6M34 39h1" />
<path stroke="#c32da7" d="M4 7h1M2 8h1M37 18h1M12 26h1M14 27h1" />
<path stroke="#cc6a98" d="M38 7h1M35 11h1M0 21h1M25 25h2" />
<path stroke="#000000" d="M12 8h1M11 9h4M18 9h4M10 10h1M17 10h1M10 11h1M13 11h2M18 11h3M10 12h1M12 12h1M15 12h1M17 12h1M21 12h1M11 13h1M15 13h1M17 13h1M21 13h1M11 14h1M15 14h1M17 14h1M20 14h2M10 15h2M14 15h2M17 15h1M19 15h3M9 16h1M11 16h1M14 16h2M17 16h1M19 16h3M23 16h4M28 16h1M9 17h1M12 17h1M14 17h4M19 17h4M27 17h2M8 18h8M17 18h1M20 18h2M24 18h2M28 18h1M7 19h1M16 19h5M26 19h1M29 19h1M6 20h1M9 20h4M25 20h1M27 20h1M29 20h1M6 21h1M8 21h1M13 21h4M24 21h1M29 21h1M7 22h1M10 22h3M14 22h1M17 22h8M27 22h2M8 23h2M12 23h2M15 23h1M23 23h1M26 23h1M14 24h1M16 24h1M23 24h1M25 24h1M15 25h1M17 25h1M22 25h1M24 25h1M15 26h1M17 26h1M21 26h1M23 26h1M16 27h1M18 27h3M22 27h1M17 28h1M21 28h2M19 29h1M22 29h1M18 30h1M22 30h1M23 31h1M31 35h1M13 36h1M31 36h2M12 37h1M32 37h1M12 38h1M33 38h1M12 39h1M33 39h1" />
<path stroke="#ffe500" d="M14 8h1M16 8h1M18 8h1M20 8h1" />
<path stroke="#cc6999" d="M38 8h1M34 13h1M32 16h1M32 28h1" />
<path stroke="#e3c563" d="M39 8h1M13 29h1M30 32h1M39 32h1" />
<path stroke="#c95e9d" d="M0 10h1M0 38h1" />
<path stroke="#efeb2d" d="M38 11h1" />
<path stroke="#efec2d" d="M37 12h1" />
<path stroke="#c3d9f9" d="M13 13h2M18 13h3M13 14h1M18 14h1M13 15h1M18 15h1M13 16h1M18 16h1M13 17h1M18 17h1M18 18h2" />
<path stroke="#eadc48" d="M37 14h1" />
<path stroke="#ff8a00" d="M10 16h1M10 17h2M23 17h4M16 18h1M22 18h2M26 18h2M8 19h8M21 19h5M27 19h2M7 20h2M13 20h12M26 20h1M28 20h1M7 21h1M9 21h4M17 21h7M25 21h4M8 22h2M13 22h1M25 22h2M14 23h1M24 23h2M15 24h1M24 24h1M16 25h1M23 25h1M16 26h1M22 26h1M17 27h1M21 27h1M18 28h3" />
<path stroke="#cb6a99" d="M32 17h1M32 18h1M35 39h1" />
<path stroke="#eadc4a" d="M33 17h1M33 18h1M33 29h1M36 39h1" />
<path stroke="#ece241" d="M34 20h1" />
<path stroke="#d3898c" d="M35 20h1" />
<path stroke="#ca5f9b" d="M39 20h1M13 28h1M39 29h1M30 31h1M39 31h1" />
<path stroke="#efec2c" d="M34 21h1" />
<path stroke="#dfb96d" d="M35 21h1" />
<path stroke="#c8539f" d="M36 21h1" />
<path stroke="#eadc49" d="M0 22h1M25 26h1" />
<path stroke="#ca5e9d" d="M29 22h1M10 32h1M6 39h1" />
<path stroke="#e5ca5e" d="M30 22h1M38 22h1M11 32h1M8 37h1" />
<path stroke="#ca5f9d" d="M37 22h1M7 37h1" />
<path stroke="#fc809a" d="M19 23h3M18 24h3M18 25h2" />
<path stroke="#ca609b" d="M6 25h1" />
<path stroke="#6f93cc" d="M18 29h1M17 30h1M18 31h1M25 38h3M25 39h3" />
<path stroke="#4a76c2" d="M23 29h2M24 30h2M16 31h2M25 31h1M15 32h1M17 32h1M25 32h1M17 33h1M25 33h1M24 34h2M23 35h2M23 36h1" />
<path stroke="#6f92cc" d="M23 30h1M24 31h1M18 32h1M18 33h1M24 33h1M18 34h1M23 34h1M18 35h1" />
<path stroke="#4a77c2" d="M16 32h1M16 33h1M17 34h1M25 37h1M27 37h1" />
<path stroke="#abaeb9" d="M19 32h2M22 32h2M23 33h1M19 34h2M22 34h1" />
<path stroke="#d1d5da" d="M26 32h1M15 33h1M20 33h2M29 33h1" />
<path stroke="#3a61a1" d="M26 33h1M15 34h1M26 34h4M14 35h3M26 35h4M14 36h4M25 36h4M17 37h1M24 37h1M28 37h1M17 38h1M24 38h1M28 38h1M15 39h3M24 39h1M28 39h1" />
<path stroke="#8d92a6" d="M27 33h1" />
<path stroke="#b1b5bb" d="M14 34h1" />
<path stroke="#21395f" d="M16 34h1M17 35h1M25 35h1M18 36h1M24 36h1" />
<path stroke="#191919" d="M19 35h1M22 35h1M30 35h1M29 36h2M13 37h1M31 37h1M31 38h2M32 39h1" />
<path stroke="#070606" d="M19 36h4M14 37h1M18 37h6M29 37h2M13 38h2M18 38h6M29 38h2M13 39h2M18 39h6M29 39h3" />
<path stroke="#a808d8" d="M15 37h2" />
<path stroke="#b10b0b" d="M26 37h1" />
<path stroke="#0bb1a2" d="M15 38h2" />
</svg>