<svg xmlns="http://www.w3.org/2000/svg" viewBox="0 -0.5 40 40" shape-rendering="crispEdges">
<metadata>Made with Pixels to Svg https://codepen.io/shshaw/pen/XbxvNj</metadata>
<path stroke="#10ff00" d="M0 0h6M37 0h3M0 1h1M39 1h1M0 2h1M39 2h1M0 3h1M39 3h1M0 4h1M0 5h1M0 6h1M0 7h1M0 8h1M0 9h1M0 10h1M39 10h1M0 11h1M39 11h1M0 12h1M39 12h1M0 13h1M39 13h1M0 14h1M39 14h1M0 15h1M39 15h1M0 16h1M39 16h1M0 17h1M39 17h1M0 18h1M39 18h1M0 19h1M39 19h1M0 20h1M39 20h1M0 21h1M39 21h1M0 22h1M39 22h1M0 23h1M39 23h1M0 24h1M39 24h1M0 25h1M39 25h1M0 26h2M39 26h1M0 27h1M2 27h1M39 27h1M0 28h2M39 28h1M0 29h1M2 29h1M39 29h1M39 30h1M0 31h1M39 31h1M0 32h1M39 32h1M39 33h1M1 34h1M39 34h1M39 35h1M2 36h1M39 36h1M39 37h1M39 38h1M36 39h4" />
<path stroke="#593005" d="M6 0h7M14 0h5M21 0h1M24 0h4M29 0h1M31 0h2M34 0h3M5 1h1M7 1h2M10 1h3M14 1h2M17 1h2M20 1h2M25 1h2M28 1h1M30 1h2M33 1h2M36 1h1M4 2h9M14 2h1M19 2h1M23 2h4M30 2h2M33 2h1M35 2h3M4 3h2M8 3h4M13 3h2M19 3h1M21 3h2M25 3h2M29 3h1M32 3h1M35 3h1M38 3h1M3 4h3M8 4h1M12 4h1M20 4h1M25 4h2M32 4h2M35 4h1M37 4h3M3 5h3M7 5h1M9 5h2M12 5h1M14 5h1M22 5h1M25 5h1M27 5h2M30 5h1M34 5h5M3 6h5M12 6h2M16 6h1M19 6h1M21 6h1M25 6h1M27 6h2M30 6h2M35 6h5M3 7h3M7 7h1M11 7h6M19 7h2M24 7h3M28 7h1M30 7h3M34 7h1M36 7h1M39 7h1M3 8h1M5 8h1M7 8h1M10 8h1M12 8h1M23 8h1M26 8h1M33 8h1M35 8h1M38 8h1M3 9h1M6 9h2M10 9h2M25 9h1M27 9h2M31 9h3M36 9h3M3 10h4M10 10h1M24 10h2M31 10h1M35 10h1M37 10h2M3 11h1M5 11h1M27 11h1M29 11h1M34 11h3M5 12h2M9 12h1M29 12h1M32 12h1M34 12h1M4 13h3M28 13h1M32 13h1M34 13h1M7 14h1M9 14h1M27 14h1M32 14h1M34 14h2M5 15h1M9 15h1M24 15h2M30 15h1M33 15h2M36 15h1M8 16h1M27 16h1M29 16h1M32 16h4M8 17h1M33 17h2M33 18h1M13 20h1M23 21h1M27 23h2M13 24h1M26 24h1M14 25h1M24 26h1" />
<path stroke="#3c2004" d="M13 0h1M19 0h2M22 0h2M28 0h1M13 1h1M16 1h1M19 1h1M22 1h2M29 1h1M13 2h1M15 2h4M20 2h2M27 2h1M29 2h1M32 2h1M34 2h1M6 3h2M12 3h1M15 3h4M20 3h1M23 3h2M27 3h2M30 3h1M33 3h2M6 4h2M10 4h2M13 4h7M21 4h3M27 4h5M34 4h1M8 5h1M11 5h1M13 5h1M15 5h7M23 5h2M26 5h1M31 5h3M8 6h4M14 6h2M17 6h2M20 6h1M22 6h3M26 6h1M33 6h1M6 7h1M9 7h2M17 7h2M21 7h3M27 7h1M33 7h1M37 7h2M4 8h1M6 8h1M8 8h2M11 8h1M21 8h2M24 8h2M27 8h1M34 8h1M36 8h1M4 9h1M8 9h2M23 9h2M26 9h1M34 9h2M7 10h3M26 10h2M4 11h1M6 11h4M25 11h2M37 11h1M4 12h1M7 12h2M26 12h1M35 12h1M37 12h1M7 13h3M26 13h1M35 13h3M5 14h2M8 14h1M26 14h1M36 14h2M6 15h3M26 15h1M35 15h1M6 16h2M34 18h1M30 19h4M30 20h3" />
<path stroke="#8e5112" d="M30 0h1M33 0h1M6 1h1M9 1h1M24 1h1M35 1h1M22 2h1M31 3h1M37 3h1M9 4h1M24 4h1M6 5h1M29 5h1M39 5h1M32 6h1M34 6h1M8 7h1M30 8h1M37 8h1M5 9h1" />
<path stroke="#59a7ff" d="M1 1h4M37 1h2M1 2h3M38 2h1M1 3h3M1 4h2M1 6h2M1 7h1M1 9h2M1 10h2M1 11h2M1 12h3M38 12h1M1 13h3M1 14h1M1 15h2M1 16h4M36 16h1M2 17h5M3 18h4M3 19h3M4 20h2M31 21h1M36 21h2M29 22h4M36 22h1M29 23h3M30 24h1M30 25h1M23 28h1M26 29h1M27 32h1" />
<path stroke="#8e5012" d="M27 1h1M32 1h1M28 2h1M36 4h1M32 8h1M39 8h1M39 9h1M34 10h1M36 10h1M38 11h1M36 12h1M35 17h1M17 29h1M18 30h1M18 31h1M20 31h1" />
<path stroke="#3c1f04" d="M36 3h1M29 6h1M29 7h1M35 7h1M28 8h2M31 8h1M12 9h3M18 9h3M29 9h2M11 10h1M15 10h1M17 10h1M21 10h1M28 10h3M32 10h2M28 11h1M30 11h4M27 12h2M30 12h2M33 12h1M27 13h1M29 13h3M33 13h1M28 14h4M33 14h1M27 15h3M31 15h2M28 16h1M30 16h2M29 17h4M29 18h4" />
<path stroke="#86bbf5" d="M1 5h2M2 7h1M1 8h2M2 14h3M3 15h2M5 16h1M37 16h2M34 19h3M38 19h1" />
<path stroke="#ffffff" d="M13 8h8M15 9h3M21 9h2M12 10h3M16 10h1M18 10h3M22 10h2M10 11h3M15 11h3M21 11h4M10 12h2M16 12h1M22 12h3M10 13h1M16 13h1M22 13h3M10 14h1M14 14h1M16 14h1M19 14h1M22 14h3M16 15h1M22 15h2M16 16h1M22 16h1M7 27h1M9 27h2M10 28h2M11 29h1M8 30h4M22 30h1M21 31h2M9 32h2M20 32h2M9 33h1" />
<path stroke="#000000" d="M13 11h2M18 11h3M12 12h1M15 12h1M17 12h1M21 12h1M11 13h1M15 13h1M17 13h1M21 13h1M11 14h1M15 14h1M17 14h1M20 14h2M10 15h2M14 15h2M17 15h1M19 15h3M9 16h1M11 16h1M14 16h2M17 16h1M19 16h3M23 16h3M9 17h1M12 17h1M14 17h4M19 17h4M8 18h8M17 18h1M20 18h2M24 18h2M7 19h1M16 19h5M26 19h1M29 19h1M6 20h1M9 20h4M25 20h1M27 20h1M29 20h1M6 21h1M8 21h1M13 21h4M24 21h1M29 21h1M7 22h1M10 22h3M14 22h1M17 22h8M27 22h2M8 23h2M12 23h2M15 23h1M23 23h1M26 23h1M14 24h1M16 24h1M25 24h1M15 25h1M17 25h1M22 25h1M24 25h1M7 26h4M15 26h1M17 26h1M21 26h1M23 26h1M6 27h1M8 27h1M11 27h1M16 27h1M18 27h3M22 27h1M8 28h1M17 28h1M21 28h1M9 29h1M7 30h1M12 30h1M8 31h1M11 31h1M8 32h1M8 33h1M8 34h1" />
<path stroke="#c3d9f9" d="M13 12h2M18 12h3M12 13h3M18 13h3M12 14h2M18 14h1M12 15h2M18 15h1M12 16h2M18 16h1M13 17h1M18 17h1M18 18h2" />
<path stroke="#7e4509" d="M25 12h1M25 13h1M25 14h1M25 25h1M14 26h1M15 27h1M19 29h1M21 29h2M17 30h1M19 30h1" />
<path stroke="#59a9ff" d="M38 13h1M38 14h1M37 15h2M36 17h3M35 18h2M33 20h6M32 21h4M34 22h2M10 23h2M35 23h1M9 24h4M12 25h1M31 32h2M36 36h3" />
<path stroke="#ff8a00" d="M10 16h1M10 17h2M23 17h4M16 18h1M22 18h2M26 18h1M8 19h8M21 19h5M27 19h1M7 20h2M18 20h3M26 20h1M28 20h1M7 21h1M9 21h4M25 21h4M8 22h2M13 22h1M25 22h2M14 23h1M24 23h2M15 24h1M16 25h1M23 25h1M16 26h1M22 26h1M17 27h1M21 27h1M18 28h3" />
<path stroke="#170d02" d="M26 16h1" />
<path stroke="#6b716d" d="M1 17h1M7 17h1M1 18h1M7 18h1M2 19h1M6 19h1M2 20h1M3 21h1M37 22h1M3 23h1M36 23h1M4 24h1M7 24h2M35 24h2M7 25h1M11 25h1M29 25h1M36 25h2M13 26h1M28 26h1M36 27h1M14 29h1M35 32h2M37 33h1" />
<path stroke="#170c02" d="M27 17h2M28 18h1" />
<path stroke="#b4bab6" d="M2 18h1M27 24h1" />
<path stroke="#ff8900" d="M27 18h1M28 19h1M17 20h1M21 20h1M24 24h1" />
<path stroke="#86bcf5" d="M37 18h2M37 19h1" />
<path stroke="#565d59" d="M1 19h1M1 20h1M1 21h2M38 21h1M2 22h1M38 22h1M1 23h2M5 23h1M37 23h2M3 24h1M37 24h2M2 25h1M8 25h3M38 25h1M11 26h2M25 26h2M37 26h2M12 27h2M24 27h4M37 27h2M26 28h4M32 28h1M34 28h5M38 29h1M37 32h2M38 33h1M38 34h1" />
<path stroke="#8d908e" d="M3 20h1M4 21h2M3 22h4M4 23h1M6 23h2M5 24h2M28 24h2M6 25h1M26 25h3M27 26h1M29 26h1M28 27h1M30 28h2" />
<path stroke="#b2440b" d="M14 20h2M24 20h1M17 21h1M19 21h2M22 21h1M13 25h1M23 27h1M21 30h1" />
<path stroke="#be5017" d="M16 20h1M22 20h2M18 21h1M21 21h1M16 28h1M22 28h1M18 29h1M20 29h1M20 30h1M19 31h1" />
<path stroke="#593105" d="M30 21h1" />
<path stroke="#434c47" d="M1 22h1M1 24h2M3 25h3M5 26h2M14 27h1M13 28h3M24 28h2M13 29h1M27 29h3M0 30h1M6 30h1M13 30h1M1 31h1M5 31h3M12 31h2M1 32h5" />
<path stroke="#ff0000" d="M15 22h2M16 23h3M22 23h1M17 24h1M21 24h2M20 25h2M18 26h3" />
<path stroke="#04471a" d="M33 22h1M33 23h1M33 24h1M33 25h1M33 26h1M33 27h1M33 28h1" />
<path stroke="#fc809a" d="M19 23h3M18 24h3M18 25h2" />
<path stroke="#036123" d="M32 23h1" />
<path stroke="#00832e" d="M34 23h1M0 34h1M4 34h1M12 34h2M0 35h8M12 35h1M1 36h1M3 36h4M7 39h2" />
<path stroke="#0e0e0d" d="M23 24h1M1 25h1M2 26h2M1 27h1M3 27h1M2 28h2M1 29h1M3 29h1M1 30h3M2 31h2" />
<path stroke="#00832c" d="M31 24h2M34 26h3" />
<path stroke="#036122" d="M34 24h1M31 25h2M34 25h2" />
<path stroke="#e1c274" d="M4 26h1M4 27h2M4 28h2M4 29h2M4 30h1" />
<path stroke="#036121" d="M30 26h3M34 27h2" />
<path stroke="#00832a" d="M29 27h4" />
<path stroke="#c4a65e" d="M6 28h2M12 28h1M6 29h3M12 29h1M5 30h1M4 31h1" />
<path stroke="#efefef" d="M9 28h1M10 29h1M9 31h2M19 32h1M20 33h1M20 34h1M20 35h1" />
<path stroke="#71aaef" d="M15 29h2M25 29h1M14 31h1M18 32h1M26 32h1M19 33h1M25 33h1M25 34h1M24 35h1M23 36h1" />
<path stroke="#71abef" d="M23 29h2M26 30h1M26 31h1M26 33h3M19 34h1M21 34h1M29 34h1M21 35h1M30 35h1M14 36h1M21 36h1M31 36h2M33 37h1M34 38h1M35 39h1" />
<path stroke="#917d49" d="M30 29h7M27 30h2M31 30h4M6 32h2M12 32h2M29 32h2M31 33h1M2 34h2M6 34h2M32 34h1M35 36h1M36 37h3" />
<path stroke="#b69546" d="M37 29h1M29 30h2M35 30h4M27 31h12M28 32h1M0 33h8M12 33h2M29 33h2M5 34h1M30 34h2M31 35h2M33 36h2M35 37h1M36 38h3" />
<path stroke="#71adef" d="M14 30h1M11 32h1M10 33h1M9 34h1M8 35h1M14 35h1M7 36h1M9 38h1M9 39h2" />
<path stroke="#b1d6fe" d="M15 30h1" />
<path stroke="#b1d4fe" d="M16 30h1M25 31h1M24 32h2M11 33h1M23 33h2M22 34h3M26 34h3M22 35h2M27 35h3M38 35h1M11 36h1M13 36h1M22 36h1M29 36h2M10 37h2M14 37h1M19 37h1M31 37h2M10 38h3M19 38h2M28 38h2M31 38h3M11 39h2M31 39h4" />
<path stroke="#71acef" d="M23 30h1M23 31h1M14 32h1M22 32h1M14 33h1M21 33h1M14 34h1M13 35h1M15 36h1M21 37h1M14 38h1M21 38h1" />
<path stroke="#bfdaf9" d="M24 30h2M15 31h2M15 32h2M23 32h1M22 33h1" />
<path stroke="#a2c5ee" d="M17 31h1M16 33h1M15 34h1M15 35h1" />
<path stroke="#b1d3fe" d="M24 31h1M18 34h1M17 35h2M26 35h1M17 36h2M25 36h4M15 37h4M24 37h6M15 38h4M23 38h5M15 39h14" />
<path stroke="#5996de" d="M17 32h1M19 35h1M19 36h2M20 37h1" />
<path stroke="#045e1d" d="M33 32h1" />
<path stroke="#59abff" d="M34 32h1M36 33h1M37 34h1M36 35h2" />
<path stroke="#b1d5fe" d="M15 33h1M10 34h2M9 35h2M8 36h2" />
<path stroke="#215590" d="M17 33h2M16 34h2M16 35h1M25 35h1M12 36h1M16 36h1M24 36h1M12 37h1M23 37h1M30 37h1M13 38h1M30 38h1M13 39h1M29 39h2" />
<path stroke="#03aa32" d="M32 33h1" />
<path stroke="#045e1e" d="M33 33h1M33 34h1M33 35h1" />
<path stroke="#047424" d="M34 33h2" />
<path stroke="#049931" d="M34 34h3" />
<path stroke="#5997de" d="M11 35h1M10 36h1M8 37h2M8 38h1" />
<path stroke="#047422" d="M34 35h2" />
<path stroke="#008330" d="M0 36h1M0 37h8M34 37h1M0 38h8M35 38h1M0 39h7" />
<path stroke="#5998de" d="M13 37h1M22 37h1M22 38h1M14 39h1" />
</svg>