<svg xmlns="http://www.w3.org/2000/svg" viewBox="0 -0.5 40 40" shape-rendering="crispEdges">
<metadata>Made with Pixels to Svg https://codepen.io/shshaw/pen/XbxvNj</metadata>
<path stroke="#6b00d2" d="M0 0h3M5 0h1M0 1h3M4 1h2M0 2h2M3 2h3M0 3h1M2 3h4M0 4h1M3 4h3M0 5h2M3 5h3M1 6h1M3 6h3M1 7h1M4 7h2M1 8h2M5 8h1M1 9h3M5 9h1M1 10h4M1 11h4M1 12h3M1 13h3M5 13h1M1 14h2M4 14h2M1 15h1M3 15h2M2 16h3M2 17h3M2 18h3M2 19h2M0 20h1M3 20h1M0 21h2M3 21h1M0 22h2M0 23h3M4 23h2M0 24h3M4 24h2M0 25h3M4 25h2M1 26h1M3 26h2M0 27h1M3 27h2M0 28h1M1 29h1M9 31h1M26 31h1M13 32h1M26 32h2M13 33h2M0 34h1M12 34h2M3 36h2M4 37h1M4 38h2M5 39h1" />
<path stroke="#ffffff" d="M3 0h2M3 1h1M2 2h1M1 3h1M2 5h1M2 6h1M2 7h1M3 8h2M14 8h8M4 9h1M15 9h3M22 9h1M5 10h1M12 10h5M18 10h6M5 11h1M11 11h2M15 11h3M21 11h4M11 12h1M16 12h1M22 12h3M16 13h1M22 13h4M3 14h1M16 14h1M22 14h4M2 15h1M12 15h1M14 15h1M16 15h1M19 15h1M22 15h4M1 16h1M12 16h1M16 16h1M22 16h1M0 17h1M1 19h1M2 20h1M2 21h1M2 22h2M2 26h1M1 27h2M20 29h2M19 30h3M4 31h1M0 32h1M3 32h1M17 32h8M2 33h1M17 33h9M16 34h11M16 35h14M14 36h17M15 37h3M20 37h3M25 37h5M16 38h4M21 38h1M23 38h6M17 39h4M22 39h6" />
<path stroke="#7000d2" d="M6 0h34M6 1h34M6 2h9M24 2h16M6 3h7M26 3h14M6 4h5M28 4h12M6 5h4M29 5h11M0 6h1M6 6h4M30 6h10M0 7h1M6 7h3M31 7h9M0 8h1M6 8h3M31 8h9M0 9h1M6 9h2M32 9h8M0 10h1M6 10h2M33 10h7M0 11h1M6 11h2M33 11h7M0 12h1M6 12h2M33 12h7M0 13h1M33 13h7M0 14h1M34 14h6M0 15h1M5 15h1M34 15h6M0 16h1M5 16h1M34 16h6M5 17h2M34 17h6M5 18h3M34 18h6M4 19h3M34 19h6M4 20h2M34 20h6M4 21h2M34 21h6M4 22h3M34 22h6M6 23h2M34 23h6M6 24h2M34 24h6M6 25h2M34 25h6M0 26h1M5 26h3M34 26h6M5 27h3M34 27h6M2 28h2M6 28h1M8 28h1M23 28h1M34 28h6M2 29h1M8 29h1M16 29h3M23 29h2M34 29h6M1 30h1M8 30h1M16 30h2M24 30h2M34 30h6M8 31h1M14 31h1M16 31h1M25 31h1M33 31h7M8 32h3M14 32h2M28 32h1M32 32h8M8 33h5M15 33h1M28 33h12M2 34h2M9 34h3M14 34h1M30 34h10M0 35h4M10 35h4M32 35h8M0 36h3M10 36h3M33 36h7M0 37h4M11 37h1M33 37h7M0 38h4M34 38h6M0 39h5M34 39h6" />
<path stroke="#000000" d="M15 2h9M13 3h13M11 4h3M16 4h12M10 5h2M15 5h14M10 6h1M13 6h11M25 6h5M9 7h2M12 7h13M27 7h4M9 8h5M22 8h3M28 8h3M8 9h7M18 9h4M23 9h4M29 9h3M8 10h4M17 10h1M24 10h3M30 10h3M8 11h3M13 11h2M18 11h3M25 11h3M30 11h3M8 12h3M12 12h1M15 12h1M17 12h1M21 12h1M25 12h4M31 12h2M7 13h5M15 13h1M17 13h1M21 13h1M26 13h3M31 13h2M7 14h9M17 14h5M26 14h3M31 14h3M7 15h5M15 15h1M17 15h1M20 15h2M26 15h4M31 15h3M7 16h3M11 16h1M14 16h2M17 16h1M19 16h3M23 16h7M31 16h3M7 17h3M12 17h1M14 17h4M19 17h4M27 17h7M8 18h8M17 18h1M20 18h2M24 18h2M28 18h6M7 19h1M16 19h5M26 19h1M29 19h5M6 20h1M9 20h4M25 20h1M27 20h1M29 20h5M6 21h1M8 21h1M13 21h4M24 21h1M29 21h5M7 22h1M10 22h3M14 22h1M17 22h8M27 22h7M8 23h6M15 23h1M23 23h1M26 23h8M8 24h3M12 24h3M16 24h1M23 24h1M25 24h9M8 25h2M11 25h5M17 25h1M22 25h1M24 25h10M8 26h1M10 26h6M17 26h1M21 26h1M23 26h11M9 27h8M18 27h3M22 27h12M4 28h2M9 28h9M21 28h2M24 28h10M3 29h1M5 29h1M7 29h1M9 29h7M19 29h1M22 29h1M25 29h9M2 30h1M7 30h1M9 30h7M18 30h1M22 30h2M26 30h8M1 31h2M5 31h1M7 31h1M10 31h4M15 31h1M17 31h3M21 31h4M27 31h6M7 32h1M11 32h2M16 32h1M25 32h1M29 32h3M1 33h1M3 33h2M7 33h1M16 33h1M26 33h1M4 34h1M8 34h1M15 34h1M27 34h3M4 35h1M9 35h1M14 35h2M30 35h2M5 36h1M9 36h1M13 36h1M31 36h2M5 37h1M10 37h1M12 37h1M14 37h1M18 37h2M23 37h2M30 37h1M32 37h1M6 38h1M11 38h2M15 38h1M20 38h1M22 38h1M29 38h1M33 38h1M6 39h1M12 39h1M16 39h1M21 39h1M28 39h1M33 39h1" />
<path stroke="#eee9e9" d="M1 4h2M3 7h1M4 12h2M4 13h1M1 17h1M0 18h2M0 19h1M1 20h1M3 23h1M3 24h1M3 25h1M1 28h1M0 29h1M0 30h1M0 31h1M0 33h1" />
<path stroke="#0901c2" d="M14 4h2M12 5h3M11 6h2M11 7h1" />
<path stroke="#1201c2" d="M24 6h1M29 14h1M30 15h1M30 16h1" />
<path stroke="#0c01c2" d="M25 7h2M25 8h3M27 9h2M27 10h3M28 11h2M29 12h2M29 13h2M30 14h1" />
<path stroke="#f45bd2" d="M13 12h1M19 12h1M13 13h1M19 13h1" />
<path stroke="#cd009f" d="M14 12h1M18 12h1M20 12h1M12 13h1M14 13h1M18 13h1M20 13h1" />
<path stroke="#7000d1" d="M6 13h1M6 14h1M6 15h1M6 16h1M27 33h1" />
<path stroke="#02e02d" d="M13 15h1M18 15h1M13 16h1M18 16h1M18 17h1M19 18h1" />
<path stroke="#ff8a00" d="M10 16h1M10 17h2M23 17h4M16 18h1M22 18h2M26 18h2M8 19h4M23 19h3M27 19h2M7 20h2M24 20h1M26 20h1M28 20h1M7 21h1M9 21h4M25 21h4M8 22h2M13 22h1M25 22h2M14 23h1M24 23h2M15 24h1M24 24h1" />
<path stroke="#54fa73" d="M13 17h1M18 18h1" />
<path stroke="#ff8900" d="M12 19h4M21 19h2M13 20h11M17 21h7M16 25h1M23 25h1M16 26h1M22 26h1M17 27h1M21 27h1M18 28h3" />
<path stroke="#ff0000" d="M15 22h2M16 23h3M22 23h1M17 24h1M21 24h2M20 25h2M18 26h3M4 29h1M3 30h2M6 30h1M3 31h1M6 31h1M20 31h1M1 32h2M5 32h2M5 33h2M5 34h3M6 35h3M7 36h2M7 37h3M13 37h1M31 37h1M8 38h3M13 38h2M30 38h3M9 39h3M13 39h3M29 39h4" />
<path stroke="#fc809a" d="M19 23h3M18 24h3M18 25h2" />
<path stroke="#9d0377" d="M11 24h1M10 25h1M9 26h1M8 27h1M7 28h1M6 29h1M5 30h1" />
<path stroke="#dc0e0e" d="M4 32h1M5 35h1M6 36h1M6 37h1M7 38h1M7 39h2" />
<path stroke="#ffaf00" d="M1 34h1" />
</svg>