<svg xmlns="http://www.w3.org/2000/svg" viewBox="0 -0.5 40 40" shape-rendering="crispEdges">
<metadata>Made with Pixels to Svg https://codepen.io/shshaw/pen/XbxvNj</metadata>
<path stroke="#3d9efe" d="M0 0h15M18 0h2M23 0h10M0 1h13M25 1h6M39 1h1M0 2h12M27 2h6M38 2h2M0 3h12M28 3h2M31 3h1M39 3h1M2 4h3M8 4h3M29 4h3M39 4h1M9 5h2M29 5h3M39 5h1M30 6h2M39 6h1M30 7h1M38 7h2M8 8h2M37 8h3M0 9h3M6 9h4M34 9h6M0 10h10M33 10h7M0 11h9M30 11h10M0 12h6M30 12h10M0 13h5M30 13h10M0 14h4M9 14h2M29 14h11M0 15h3M7 15h3M29 15h11M0 16h3M6 16h3M29 16h11M0 17h2M6 17h3M29 17h11M0 18h2M5 18h3M29 18h11M0 19h3M4 19h3M30 19h10M0 20h3M4 20h2M30 20h10M0 21h1M2 21h4M30 21h10M0 22h7M29 22h11M0 23h3M4 23h4M10 23h2M27 23h13M1 24h2M4 24h10M26 24h8M38 24h2M0 25h3M4 25h11M25 25h7M0 26h8M12 26h3M24 26h6M0 27h5M13 27h3M23 27h6M0 28h3M4 28h1M15 28h2M23 28h10M0 29h7M13 29h6M23 29h17M0 30h16M28 30h12M0 31h14M30 31h10M0 32h3M4 32h9M31 32h9M0 33h3M4 33h8M27 33h1M32 33h8M0 34h11M14 34h1M30 34h1M32 34h8M0 35h11M12 35h2M32 35h8M0 36h13M33 36h7M0 37h12M33 37h7M0 38h12M34 38h6M0 39h12M34 39h6" />
<path stroke="#0cdc3f" d="M15 0h3M13 1h3M33 2h1M32 3h1M32 4h1M32 5h1M32 6h1M31 7h1M29 8h2M26 9h2M9 11h1M6 12h2M4 14h1M23 30h5M18 31h2M28 31h2M17 32h2M22 32h1M30 32h1M17 33h1M22 33h1M31 33h1M23 35h1M24 36h1" />
<path stroke="#b75e08" d="M20 0h2M19 1h1" />
<path stroke="#a05105" d="M22 0h1M20 1h2M19 2h1" />
<path stroke="#ab0ac4" d="M33 0h4" />
<path stroke="#6bb5ff" d="M37 0h3" />
<path stroke="#00cf33" d="M16 1h1M18 1h1M13 2h2M17 2h1M12 3h2M15 3h1M12 4h1M14 4h1M13 5h1M16 30h2M14 31h2M23 31h1M26 31h2M13 32h2M16 32h1M19 32h1M21 32h1M24 32h2M28 32h2M12 33h4M19 33h1M21 33h1M24 33h2M28 33h3M11 34h3M18 34h1M22 34h1M31 34h1M11 35h1M20 35h1M22 35h1M19 36h2M23 36h1M18 37h2M23 37h2M18 38h1M24 38h1" />
<path stroke="#07a52e" d="M17 1h1M15 2h2M18 2h1M14 3h1M18 3h1M13 4h1M18 30h1M16 31h2M22 31h1M24 31h2M15 32h1M20 32h1M23 32h1M26 32h2M18 33h1M20 33h1M17 34h1M19 34h2M23 34h1M19 35h1" />
<path stroke="#f60909" d="M22 1h3M12 2h1M20 2h4M25 2h2M16 3h2M19 3h5M26 3h2M11 4h1M15 4h10M27 4h2M11 5h2M14 5h12M27 5h2M10 6h20M10 7h20M10 8h16M27 8h2M10 9h1M14 9h4M22 9h2M11 10h11M23 10h1M11 11h2M15 11h3M21 11h3M29 11h1M11 12h1M16 12h1M22 12h2M28 12h2M16 13h1M22 13h2M27 13h3M16 14h1M22 14h7M16 15h1M22 15h6M16 16h1M22 16h1M27 16h1M20 29h2M19 30h4M20 31h2M23 33h1M16 34h1M21 34h1M24 34h1M16 35h3M21 35h1M24 35h1M26 35h4M14 36h5M21 36h2M25 36h6M13 37h5M20 37h3M25 37h3M29 37h3M13 38h2M16 38h2M19 38h5M25 38h3M30 38h3M13 39h2M16 39h12M30 39h3" />
<path stroke="#c605e2" d="M31 1h4M36 1h3" />
<path stroke="#c505e2" d="M35 1h1" />
<path stroke="#ffffff" d="M24 2h1M24 3h2M34 3h2M37 3h2M0 4h2M5 4h3M25 4h2M35 4h1M38 4h1M0 5h9M26 5h1M0 6h10M0 7h8M9 7h1M5 8h3M14 14h1M19 14h1M34 24h4M32 25h8M8 26h4M30 26h10M5 27h8M35 27h5M5 28h2M8 28h7M35 28h1M9 29h1M12 29h1" />
<path stroke="#04ac2d" d="M34 2h4M33 3h1M36 3h1M33 4h1M36 4h1M33 5h6M33 6h1M35 6h2M38 6h1M32 7h3M37 7h1M32 8h5M29 9h3M33 9h1M26 10h3M30 10h3M25 11h1M27 11h1M9 12h2M6 13h3M10 13h1M5 14h1M7 14h2M4 15h3M3 16h1M5 16h1M3 17h2M2 18h1M4 18h1" />
<path stroke="#3d9dfe" d="M30 3h1" />
<path stroke="#000000" d="M34 4h1M37 4h1M34 6h1M37 6h1M35 7h2M11 9h3M18 9h4M10 10h1M22 10h1M10 11h1M13 11h2M18 11h3M12 12h1M15 12h1M17 12h1M21 12h1M11 13h1M15 13h1M17 13h1M21 13h1M11 14h1M15 14h1M17 14h1M20 14h2M10 15h2M14 15h2M17 15h1M19 15h3M28 15h1M9 16h1M11 16h1M14 16h2M17 16h1M19 16h3M23 16h4M28 16h1M9 17h1M12 17h1M14 17h4M19 17h4M27 17h2M8 18h8M17 18h1M20 18h2M24 18h2M28 18h1M7 19h1M16 19h5M26 19h1M29 19h1M6 20h1M9 20h4M25 20h1M27 20h1M29 20h1M6 21h1M8 21h1M13 21h4M24 21h1M29 21h1M7 22h1M10 22h3M14 22h1M17 22h8M27 22h2M8 23h2M12 23h2M15 23h1M23 23h1M26 23h1M14 24h1M16 24h1M23 24h1M25 24h1M15 25h1M17 25h1M22 25h1M24 25h1M15 26h1M17 26h1M21 26h1M23 26h1M16 27h1M18 27h3M22 27h1M17 28h1M21 28h2M19 29h1M22 29h1M16 33h1M26 33h1M15 34h1M27 34h3M14 35h2M30 35h2M13 36h1M31 36h2M12 37h1M28 37h1M32 37h1M12 38h1M15 38h1M28 38h2M33 38h1M12 39h1M15 39h1M28 39h2M33 39h1" />
<path stroke="#dedddd" d="M8 7h1M0 8h5M3 9h3M29 27h6M7 28h1M33 28h2M36 28h4M7 29h2M10 29h2" />
<path stroke="#ff5f5f" d="M26 8h1M25 9h1M24 10h1M24 11h1M25 12h2" />
<path stroke="#068a27" d="M31 8h1M28 9h1M32 9h1M25 10h1M29 10h1M26 11h1M8 12h1M5 13h1M9 13h1M6 14h1M3 15h1M4 16h1M2 17h1M5 17h1M3 18h1" />
<path stroke="#da0a0a" d="M24 9h1M28 11h1M24 12h1M27 12h1M24 13h3" />
<path stroke="#c3d9f9" d="M13 12h2M18 12h3M12 13h3M18 13h3M12 14h2M18 14h1M12 15h2M18 15h1M12 16h2M18 16h1M13 17h1M18 17h1M18 18h2" />
<path stroke="#ff8a00" d="M10 16h1M10 17h2M23 17h4M16 18h1M22 18h2M26 18h2M8 19h8M21 19h5M27 19h2M7 20h2M13 20h12M26 20h1M28 20h1M7 21h1M9 21h4M17 21h7M25 21h4M8 22h2M13 22h1M25 22h2M14 23h1M24 23h2M15 24h1M24 24h1M16 25h1M23 25h1M16 26h1M22 26h1M17 27h1M21 27h1M18 28h3" />
<path stroke="#783c03" d="M3 19h1M3 24h1M3 25h1M3 28h1M3 32h1M3 33h1" />
<path stroke="#994d04" d="M3 20h1M1 21h1M3 23h1M0 24h1" />
<path stroke="#ff0000" d="M15 22h2M16 23h3M22 23h1M17 24h1M21 24h2M20 25h2M18 26h3M25 34h2M25 35h1" />
<path stroke="#fc809a" d="M19 23h3M18 24h3M18 25h2" />
</svg>