<svg xmlns="http://www.w3.org/2000/svg" viewBox="0 -0.5 40 40" shape-rendering="crispEdges">
<metadata>Made with Pixels to Svg https://codepen.io/shshaw/pen/XbxvNj</metadata>
<path stroke="#e70707" d="M0 0h9M32 0h8M0 1h9M32 1h8M0 2h10M32 2h8M0 3h10M31 3h9M0 4h10M30 4h10M0 5h6M9 5h2M30 5h10M0 6h5M10 6h1M29 6h11M0 7h4M29 7h3M35 7h5M0 8h4M29 8h2M36 8h4M0 9h3M29 9h1M37 9h3M0 10h2M29 10h1M37 10h3M0 11h2M37 11h3M37 12h3M37 13h3M37 14h3M6 15h2M36 15h4M6 16h3M35 16h5M6 17h3M33 17h7M5 18h3M34 18h6M5 19h2M34 19h6M5 20h1M34 20h6M5 21h1M33 21h7M5 22h2M34 22h6M5 23h3M10 23h1M34 23h6M5 24h6M34 24h6M5 25h6M34 25h6M5 26h6M33 26h7M6 27h6M33 27h7M6 28h6M33 28h7M7 29h6M32 29h8M7 30h6M32 30h8M0 31h1M8 31h4M34 31h6M0 32h1M9 32h2M35 32h5M0 33h2M36 33h4M0 34h2M36 34h4M0 35h3M36 35h4M0 36h4M34 36h1M37 36h3M0 37h5M33 37h7M0 38h6M34 38h6M0 39h8M34 39h6" />
<path stroke="#000000" d="M9 0h1M31 0h1M9 1h1M31 1h1M10 2h1M31 2h1M10 3h1M30 3h1M10 4h1M29 4h1M6 5h3M11 5h1M29 5h1M5 6h1M9 6h1M11 6h1M28 6h1M4 7h1M6 7h6M28 7h1M32 7h3M4 8h2M8 8h1M11 8h1M28 8h1M31 8h1M35 8h1M3 9h1M7 9h1M10 9h2M28 9h1M30 9h1M36 9h1M2 10h1M6 10h4M11 10h1M28 10h1M30 10h1M36 10h1M2 11h1M6 11h1M9 11h2M13 11h2M18 11h3M29 11h1M36 11h1M0 12h2M3 12h3M7 12h1M9 12h1M12 12h1M15 12h1M17 12h1M21 12h4M36 12h1M4 13h1M8 13h4M15 13h1M17 13h1M21 13h1M25 13h1M36 13h1M5 14h4M11 14h1M15 14h1M17 14h1M20 14h2M26 14h4M36 14h1M5 15h1M8 15h1M10 15h2M14 15h2M17 15h1M19 15h3M28 15h1M30 15h2M35 15h1M5 16h1M9 16h1M11 16h1M14 16h2M17 16h1M19 16h3M23 16h4M28 16h1M31 16h4M5 17h1M9 17h1M12 17h1M14 17h4M19 17h4M27 17h2M31 17h2M4 18h1M8 18h8M17 18h1M20 18h2M24 18h2M28 18h1M31 18h1M33 18h1M4 19h1M7 19h1M16 19h5M26 19h1M29 19h1M33 19h1M4 20h1M6 20h1M9 20h4M25 20h1M27 20h1M29 20h1M33 20h1M4 21h1M6 21h1M8 21h1M13 21h4M24 21h1M29 21h4M4 22h1M7 22h1M10 22h3M14 22h1M17 22h8M27 22h2M33 22h1M4 23h1M8 23h2M11 23h3M15 23h1M23 23h1M26 23h1M33 23h1M4 24h1M11 24h1M14 24h1M16 24h1M23 24h1M25 24h1M33 24h1M4 25h1M11 25h1M15 25h1M17 25h1M22 25h1M24 25h1M33 25h1M4 26h1M11 26h1M15 26h1M17 26h1M21 26h1M23 26h1M32 26h1M5 27h1M12 27h1M16 27h1M18 27h3M22 27h1M32 27h1M5 28h1M12 28h1M17 28h1M21 28h1M32 28h1M0 29h1M6 29h1M13 29h1M18 29h3M31 29h1M0 30h1M6 30h1M13 30h1M18 30h1M22 30h1M29 30h3M1 31h1M7 31h1M12 31h1M17 31h1M23 31h2M26 31h3M32 31h2M1 32h1M8 32h1M11 32h2M16 32h1M25 32h1M34 32h1M2 33h1M9 33h2M13 33h1M16 33h1M25 33h1M35 33h1M2 34h1M10 34h1M14 34h2M24 34h1M35 34h1M3 35h1M11 35h1M13 35h2M23 35h1M28 35h1M30 35h2M33 35h2M4 36h1M12 36h2M24 36h2M27 36h1M31 36h2M35 36h1M5 37h1M12 37h1M28 37h1M32 37h1M6 38h2M12 38h1M28 38h1M33 38h1M8 39h1M12 39h1M28 39h2M33 39h1" />
<path stroke="#0d45b0" d="M10 0h2M29 0h1M10 1h2M29 1h1M11 2h1M28 2h2M11 3h2M28 3h2M11 4h2M28 4h1M12 5h1M27 5h1M12 6h1M27 6h1M12 7h1M27 7h1M27 10h1M27 11h1M32 23h1M31 24h2M29 25h4M28 26h4M28 27h4M27 28h5M27 29h4M25 30h1M27 30h2M25 31h1" />
<path stroke="#0850e5" d="M12 0h3M23 0h6M12 1h3M25 1h3M12 2h3M24 2h3M13 3h1M26 3h1M13 4h2M26 4h1M13 5h2M24 5h2M6 6h1M13 6h4M23 6h3M5 7h1M13 7h1M16 7h2M22 7h4M12 8h1M16 8h2M22 8h4M16 9h3M22 9h4M31 9h3M12 10h9M22 10h4M31 10h3M11 11h2M15 11h3M21 11h6M32 11h2M25 12h1M29 12h1M32 12h2M28 13h2M32 13h1" />
<path stroke="#fde903" d="M15 0h2M15 1h2M15 2h2M16 3h1M1 13h1M0 15h1M3 15h1M4 16h1M2 17h1M3 18h1" />
<path stroke="#0855e5" d="M17 0h2M20 1h1M23 1h2M17 2h2M20 2h1M23 2h1M14 3h1M18 3h1M23 3h3M18 4h1M24 4h2M15 5h1M19 5h2M17 6h1M12 24h1M14 26h1M15 28h1M23 28h1M16 29h1M23 29h1M16 30h1M23 30h1M13 31h4M13 32h3M19 32h5M20 33h3M19 34h4M19 35h4M19 36h1M21 36h3M15 37h1M21 37h2M19 38h3M29 38h2M19 39h3M30 39h3" />
<path stroke="#fde803" d="M19 0h1M19 1h1M19 2h1M19 3h1M26 33h4M33 33h2M25 34h2" />
<path stroke="#0858e5" d="M20 0h2M17 1h2M17 3h1M17 4h1M2 12h1M1 14h1M1 15h2M0 16h1M2 16h1M0 17h2M0 18h2M0 19h2M0 20h2M0 21h2M0 22h2M0 23h2M1 24h1M1 25h1M12 25h1M1 26h1M12 26h1M1 27h2M13 27h1M2 28h1M13 28h1M14 29h1M3 30h1M14 30h1M3 31h2M21 31h1M3 32h2M18 33h2M23 33h2M17 34h2M23 34h1M16 35h3M16 36h3M20 36h1M16 37h5M23 37h1M18 38h1M18 39h1" />
<path stroke="#0853e5" d="M22 0h1M21 1h2M21 2h2M20 3h3M20 4h4M21 5h3M18 6h5M20 7h2M21 8h1M32 8h2M14 9h2M30 11h2M26 12h3M30 12h2M26 13h2M30 13h2M30 14h3M30 22h3M27 23h1M29 23h3M26 24h1M28 24h3M25 25h1M27 25h2M26 26h2M23 27h1M26 27h2M22 28h1M25 28h1M22 29h1M25 29h1" />
<path stroke="#0d44b0" d="M30 0h1M30 1h1M30 2h1M28 5h1M7 6h2M14 8h2M18 8h1M26 8h2M34 8h1M13 9h1M19 9h2M26 9h2M34 9h2M21 10h1M26 10h1M35 10h1M28 11h1M35 11h1M10 12h2M35 12h1M34 13h2M33 14h3M32 15h3" />
<path stroke="#9dbdf6" d="M28 1h1M27 2h1M27 3h1M27 4h1M26 5h1M26 6h1M26 7h1M34 10h1M34 11h1M34 12h1M33 13h1M29 22h1M28 23h1M27 24h1M26 25h1M25 26h1M24 27h1M24 28h1M24 29h1" />
<path stroke="#fdea03" d="M15 3h1M15 4h2M19 4h1M16 5h3" />
<path stroke="#ffffff" d="M14 7h2M18 7h2M6 8h2M9 8h2M13 8h1M19 8h2M4 9h3M12 9h1M21 9h1M3 10h3M3 11h3M7 11h2M6 12h1M8 12h1M13 12h2M18 12h3M5 13h3M12 13h1M16 13h1M12 14h1M14 14h1M16 14h1M19 14h1M22 14h3M9 15h1M12 15h1M16 15h1M22 15h4M12 16h1M16 16h1M22 16h1M27 16h1M29 16h1M13 17h1M29 17h1M18 18h2M29 18h2M30 19h3M30 20h3" />
<path stroke="#eae4e4" d="M8 9h2M10 10h1M16 12h1M22 13h3M9 14h2M25 14h1M26 15h2M29 15h1M30 16h1M30 17h1M32 18h1" />
<path stroke="#085ce5" d="M0 13h1M2 26h2M4 33h3M5 34h3M7 35h1" />
<path stroke="#085ae5" d="M2 13h2M0 14h1M3 14h1M2 18h1M2 19h1M2 20h1M2 21h1M2 22h1M2 23h1M0 24h1M2 24h1M0 25h1M2 25h1M0 26h1M3 27h2M1 28h1M3 28h2M2 29h4M2 30h1M4 30h2M5 31h2M5 32h3M7 33h2M8 34h1M15 38h1M15 39h1" />
<path stroke="#599bfd" d="M13 13h2M18 13h3M13 14h1M18 14h1M13 15h1M18 15h1M13 16h1M18 16h1M18 17h1" />
<path stroke="#fdee5d" d="M2 14h1M1 16h1M30 33h3" />
<path stroke="#0d50b0" d="M4 14h1" />
<path stroke="#0d4db0" d="M4 15h1M3 16h1M3 17h2M3 19h1M3 20h1M0 27h1M0 28h1M24 37h1M24 38h1M24 39h2" />
<path stroke="#ff8a00" d="M10 16h1M10 17h2M23 17h4M16 18h1M22 18h2M26 18h2M8 19h8M21 19h5M27 19h2M7 20h2M13 20h12M26 20h1M28 20h1M7 21h1M9 21h4M17 21h7M25 21h4M8 22h2M13 22h1M25 22h2M14 23h1M24 23h2M15 24h1M24 24h1M16 25h1M23 25h1M16 26h1M22 26h1M17 27h1M21 27h1M18 28h3" />
<path stroke="#0d4fb0" d="M3 21h1M3 22h1M3 23h1M3 24h1M3 25h1" />
<path stroke="#ff0000" d="M15 22h2M16 23h3M22 23h1M17 24h1M21 24h2M20 25h2M18 26h3" />
<path stroke="#fc809a" d="M19 23h3M18 24h3M18 25h2" />
<path stroke="#0d48b0" d="M13 24h1M14 25h1M15 27h1M16 28h1M17 29h1M17 30h1M20 30h2" />
<path stroke="#9cbef6" d="M13 25h1M13 26h1M14 27h1M14 28h1M15 29h1M15 30h1M24 30h1" />
<path stroke="#fde703" d="M24 26h1M25 27h1M26 28h1M26 29h1M26 30h1M29 31h3M12 33h1M11 34h1M27 34h1M12 35h1M29 35h1M32 35h1M35 35h1M26 36h1M30 36h1M33 36h1M36 36h1M27 37h1" />
<path stroke="#0d4bb0" d="M1 29h1M1 30h1M2 31h1M2 32h1M3 33h1M3 34h2M9 34h1M4 35h3M8 35h3M5 36h7M29 36h1M6 37h6M29 37h1M8 38h4M25 38h2M31 38h2M9 39h3M26 39h1" />
<path stroke="#0d46b0" d="M21 29h1" />
<path stroke="#0d4ab0" d="M19 30h1M18 31h3M22 31h1M17 32h2M24 32h1M14 33h2M17 33h1M16 34h1M15 35h1M14 36h2M28 36h1M13 37h2M25 37h2M30 37h2M13 38h2M27 38h1M13 39h2M27 39h1" />
<path stroke="#fdc303" d="M26 32h1M17 38h1M23 38h1" />
<path stroke="#fdc403" d="M27 32h7M11 33h1M12 34h2M28 34h7M24 35h4" />
<path stroke="#fdc203" d="M16 38h1M22 38h1M16 39h1M22 39h1" />
<path stroke="#fde603" d="M17 39h1M23 39h1" />
</svg>