<svg xmlns="http://www.w3.org/2000/svg" viewBox="0 -0.5 40 40" shape-rendering="crispEdges">
<metadata>Made with Pixels to Svg https://codepen.io/shshaw/pen/XbxvNj</metadata>
<path stroke="#75e5ff" d="M0 0h40M0 1h17M26 1h14M0 2h11M27 2h13M0 3h10M29 3h11M0 4h9M30 4h10M0 5h8M31 5h9M0 6h7M32 6h8M0 7h6M33 7h7M0 8h5M33 8h7M0 9h5M34 9h6M0 10h5M34 10h6M0 11h5M35 11h5M0 12h5M35 12h5M0 13h5M6 13h1M36 13h4M0 14h5M36 14h4M0 15h6M37 15h3M0 16h6M37 16h3M0 17h6M37 17h3M0 18h7M37 18h3M0 19h7M37 19h3M0 20h6M0 21h6" />
<path stroke="#ffdf02" d="M17 1h4M22 1h1M24 1h2M16 2h1M29 4h1M29 5h2M29 6h1M32 7h1M34 11h1M34 12h1M10 13h1M34 13h2M10 14h1M26 14h1M9 15h1M27 15h1M36 15h1M31 18h1M29 22h1M31 23h1M36 23h1M8 24h1M36 24h1M25 25h1M34 25h2M6 26h1M13 26h1M24 26h1M34 26h2M38 26h1M8 27h1M13 27h1M30 27h1M34 27h1M39 27h1M12 28h1M33 28h2M6 29h2M14 29h1M26 29h1M28 29h1M35 29h1M38 29h1M6 30h2M11 30h1M15 30h1M28 30h1M36 30h2M6 31h1M14 31h3M28 31h1M33 31h1M5 32h1M11 32h1M14 32h2M25 32h1M36 32h3M5 33h1M11 33h1M22 33h1M25 33h1M28 33h2M4 34h2M7 34h1M13 34h1M4 35h1M7 35h1M9 35h1M4 36h1M6 36h2M32 36h1M37 36h2M4 37h1M6 37h2M26 37h1M33 37h2M4 38h1M7 38h2M26 38h2M3 39h2M7 39h2M11 39h1M27 39h2" />
<path stroke="#fff6bb" d="M21 1h1M23 2h2M26 4h1M27 5h2M16 6h2M15 7h1M18 7h2M23 7h2M14 8h1M20 8h1M25 8h1M11 9h2M21 9h2M26 9h1M11 10h1M22 10h1M10 11h1M25 11h2M5 12h1M9 12h1M26 12h3M32 12h1M5 13h1M8 13h1M29 13h1M33 13h1M7 14h1M9 14h1M33 14h1M6 15h1M6 16h1M7 17h1M7 18h1M31 19h1M32 20h1M30 21h1M32 21h1M30 22h2M29 23h2M28 24h1M31 24h1M7 25h3M12 25h1M31 25h1M7 26h2M11 26h2M27 26h1M6 27h2M11 27h2M27 27h1M5 28h2M10 28h2M27 28h1M39 28h1M10 29h2M27 29h1M39 29h1M9 30h2M27 30h1M35 30h1M38 30h2M7 31h4M27 31h1M35 31h5M6 32h2M9 32h2M26 32h3M6 33h2M9 33h2M26 33h1M6 34h1M9 34h3M26 34h1M5 35h2M10 35h2M13 35h1M26 35h1M34 35h1M5 36h1M26 36h1M5 37h1M27 37h1M5 38h2M5 39h2" />
<path stroke="#ffde02" d="M23 1h1M17 2h1M25 2h2M16 3h1M25 3h4M27 4h2M15 5h1M25 5h1M26 6h1M14 7h1M17 7h1M27 7h1M12 8h2M18 8h2M28 8h1M30 8h1M9 9h1M20 9h1M29 9h1M7 10h1M25 10h1M30 10h1M30 11h1M30 12h2M33 12h1M30 13h2M27 16h2M34 16h1M36 16h1M28 17h1M31 17h1M34 17h1M29 18h1M34 18h1M30 20h2M31 21h1M32 22h1M32 23h1M35 24h1M24 27h2M28 27h1M23 28h3M28 28h1M23 29h2M30 29h1M22 30h2M30 30h1M22 31h2M30 31h1M22 32h2M23 33h1M27 33h1M32 33h1M23 34h2M34 34h1M23 35h3M35 35h3M24 36h2M25 37h1M37 37h1M35 38h3" />
<path stroke="#d204dd" d="M11 2h1M14 2h1M10 3h1M9 4h1M9 5h1M10 6h4M18 6h2" />
<path stroke="#ce04dd" d="M12 2h2M19 2h3M15 3h1M17 3h1M23 3h1M15 4h1M17 4h1M23 4h1M14 5h1M20 6h2" />
<path stroke="#ffdd02" d="M15 2h1M24 4h1M7 6h1M9 6h1M6 7h1M9 7h1M13 7h1M20 7h1M22 7h1M5 8h1M21 8h1M23 8h2M23 9h1M25 9h1M31 9h1M5 10h1M26 10h1M28 10h2M5 11h1M24 11h1M27 11h3M33 11h1M6 12h1M25 12h1M29 12h1M26 13h1M27 14h1M7 16h2M8 17h1M30 19h1M32 27h1M29 28h1M31 28h2M29 29h1" />
<path stroke="#ca04dd" d="M18 2h1M22 2h1M14 3h1M18 3h1M22 3h1M10 5h1M18 5h1M22 5h2M22 6h1" />
<path stroke="#1a04b3" d="M11 3h2M19 3h2M14 4h1M22 4h1" />
<path stroke="#facaff" d="M13 3h1M21 3h1M12 4h1M20 4h1" />
<path stroke="#dd1af1" d="M24 3h1M25 4h1M26 5h1M27 6h1" />
<path stroke="#1008c6" d="M10 4h2M13 4h1M18 4h2M21 4h1M11 5h3M19 5h3" />
<path stroke="#d704dd" d="M16 4h1M17 5h1" />
<path stroke="#ffdc02" d="M8 5h1M9 13h1M8 14h1M7 15h2" />
<path stroke="#f5bc0f" d="M16 5h1M14 6h2M23 6h2M10 7h3M25 7h1M9 8h1M26 8h1M27 9h1M8 10h2M27 10h1M7 11h2M8 12h1M26 15h1M28 25h1M28 26h2M30 28h1M17 29h1M31 29h1M31 30h1M31 31h2M31 32h2M27 34h1M27 35h1M27 36h1M28 38h1M29 39h1" />
<path stroke="#f5bb0f" d="M24 5h1M8 6h1M25 6h1M7 7h1M21 7h1M26 7h1M6 8h1M22 8h1M27 8h1M5 9h2M24 9h1M28 9h1" />
<path stroke="#fff9cf" d="M28 6h1M28 7h2M7 8h1M10 8h1M29 8h1M30 9h1M6 10h1M24 10h1M31 10h1M6 11h1M31 11h2M32 13h1M30 14h1M30 15h1M33 15h1M30 16h1M33 16h1M30 17h1M33 17h1M30 18h1M31 26h1M31 27h1M25 29h1M32 29h1M24 30h1M32 30h1M24 31h1M24 32h1M33 32h1M24 33h1M33 33h1M25 34h1M33 34h1M38 35h2M34 36h3M39 36h1M38 37h2" />
<path stroke="#ffe434" d="M30 6h2M8 7h1M30 7h2M8 8h1M31 8h2M7 9h2M32 9h2M32 10h2M9 11h1M10 12h1M31 14h2M34 14h2M31 15h2M34 15h2M31 16h2M35 16h1M32 17h1M35 17h2M32 18h2M35 18h2M32 19h5M33 20h4M33 21h4M33 22h4M33 23h3M29 24h2M32 24h3M29 25h2M32 25h2M30 26h1M32 26h2M33 27h1M33 29h2M33 30h2M34 31h1M34 32h2M39 32h1M34 33h6M35 34h5M35 37h2" />
<path stroke="#ffffff" d="M16 7h1M15 8h3M13 9h7M15 10h3M16 11h1M23 11h1M13 12h2M16 12h1M18 12h3M22 12h3M12 13h1M16 13h1M22 13h4M12 14h1M14 14h1M16 14h1M19 14h1M22 14h4M12 15h1M16 15h1M22 15h4M12 16h1M16 16h1M22 16h1M20 29h2M19 30h3M19 31h3M17 32h5M17 33h5M17 34h6M17 35h6M29 35h1M14 36h2M18 36h6M29 36h2M13 37h3M19 37h5M29 37h3M13 38h3M21 38h2M29 38h4M13 39h2M30 39h3" />
<path stroke="#f5bd0f" d="M11 8h1M10 9h1M10 10h1M27 13h2M28 14h2M28 15h2M29 16h1M29 17h1M10 23h1M27 23h2M9 24h1M11 24h1M26 24h2M10 25h2M26 25h2M9 26h2M14 26h1M25 26h2M9 27h2M14 27h1M23 27h1M26 27h1M29 27h1M8 28h2M13 28h1M15 28h1M26 28h1M8 29h2M12 29h2M16 29h1M8 30h1M12 30h2M16 30h2M25 30h1M29 30h1M11 31h2M25 31h1M29 31h1M8 32h1M13 32h1M29 32h2M8 33h1M13 33h1M30 33h2M8 34h1M31 34h2M8 35h1M32 35h2M8 36h4M33 36h1M8 37h4M9 38h3M9 39h2" />
<path stroke="#eabcee" d="M12 10h3M18 10h3M12 11h1M15 11h1M17 11h1M21 11h1M11 12h1" />
<path stroke="#000000" d="M21 10h1M23 10h1M11 11h1M13 11h2M18 11h3M22 11h1M12 12h1M15 12h1M17 12h1M21 12h1M11 13h1M15 13h1M17 13h1M21 13h1M11 14h1M15 14h1M17 14h1M20 14h2M10 15h2M14 15h2M17 15h1M19 15h3M9 16h1M11 16h1M14 16h2M17 16h1M19 16h3M23 16h4M9 17h1M12 17h1M14 17h4M19 17h4M27 17h1M8 18h8M17 18h1M20 18h2M24 18h2M28 18h1M7 19h1M16 19h5M26 19h1M29 19h1M6 20h1M9 20h4M25 20h1M27 20h1M29 20h1M6 21h1M8 21h1M13 21h4M24 21h1M29 21h1M7 22h1M10 22h3M14 22h1M17 22h8M27 22h2M8 23h2M13 23h1M15 23h1M23 23h1M26 23h1M14 24h1M16 24h1M23 24h1M25 24h1M15 25h1M17 25h1M22 25h1M24 25h1M15 26h1M17 26h1M21 26h1M23 26h1M16 27h1M18 27h3M22 27h1M17 28h1M21 28h2M18 29h2M22 29h1M18 30h1M17 31h2M16 32h1M16 33h1M15 34h1M28 34h2M14 35h2M30 35h2M13 36h1M31 36h1M32 37h1M12 38h1M16 38h1M33 38h1M12 39h1M15 39h2M33 39h1" />
<path stroke="#ffdb02" d="M7 12h1M7 13h1M5 14h2M6 17h1" />
<path stroke="#0192ff" d="M13 13h2M18 13h3M13 14h1M18 14h1M13 15h1M18 15h1M13 16h1M18 16h1M13 17h1M18 17h1M18 18h2" />
<path stroke="#ff8a00" d="M10 16h1M10 17h2M23 17h4M16 18h1M22 18h2M26 18h2M8 19h8M21 19h5M27 19h2M7 20h2M13 20h12M26 20h1M28 20h1M7 21h1M9 21h4M17 21h7M25 21h4M8 22h2M13 22h1M25 22h2M14 23h1M24 23h2M15 24h1M24 24h1M16 25h1M23 25h1M16 26h1M22 26h1M17 27h1M21 27h1M18 28h3" />
<path stroke="#75e6ff" d="M37 20h3M37 21h3M0 22h7M0 23h7" />
<path stroke="#ff0000" d="M15 22h2M16 23h3M22 23h1M17 24h1M21 24h2M20 25h2M18 26h3" />
<path stroke="#75e7ff" d="M37 22h3M7 23h1M37 23h3M0 24h8M37 24h3M0 25h7M36 25h4M0 26h6M0 27h6M0 28h5M7 28h1" />
<path stroke="#e3ad08" d="M11 23h2M10 24h1M12 24h2M13 25h2M15 27h1M14 28h1M16 28h1M15 29h1M14 30h1M26 30h1M13 31h1M26 31h1M12 32h1M12 33h1M12 34h1M12 35h1M12 36h1M12 37h1" />
<path stroke="#fc809a" d="M19 23h3M18 24h3M18 25h2" />
<path stroke="#74e7ff" d="M36 26h2M39 26h1M0 29h6" />
<path stroke="#6fe4fb" d="M35 27h4M0 30h6" />
<path stroke="#62def2" d="M35 28h4M0 31h6" />
<path stroke="#4dd5e5" d="M36 29h2M0 32h5" />
<path stroke="#39cfdb" d="M0 33h5" />
<path stroke="#2fccd6" d="M14 33h2M0 34h4" />
<path stroke="#2ccbd5" d="M14 34h1M30 34h1M0 35h4M0 36h4M0 37h4M0 38h4M34 38h1M38 38h2M0 39h3M34 39h6" />
<path stroke="#c504dd" d="M16 34h1M16 35h1M28 35h1M28 36h1M17 38h1M19 38h1M24 38h2M17 39h3M21 39h2M24 39h3" />
<path stroke="#c104dd" d="M16 36h2M16 37h3M24 37h1M28 37h1M18 38h1M20 38h1M23 38h1M20 39h1M23 39h1" />
</svg>