<svg xmlns="http://www.w3.org/2000/svg" viewBox="0 -0.5 40 40" shape-rendering="crispEdges">
<metadata>Made with Pixels to Svg https://codepen.io/shshaw/pen/XbxvNj</metadata>
<path stroke="#ffffff" d="M0 0h13M25 0h7M2 1h10M19 1h2M24 1h6M3 2h8M23 2h5M34 3h6M29 4h11M28 5h12M33 6h7M37 7h3M14 14h1M19 14h1M2 19h4M0 20h6M0 21h6M1 22h6M2 23h6M30 23h3M5 24h2M29 24h7M28 25h11M26 26h12M34 34h1M36 34h1M5 36h1M7 36h1M34 36h1M36 36h1M38 36h1M5 38h1M7 38h1M36 38h1M38 38h1" />
<path stroke="#1a58ff" d="M13 0h1M32 0h8M0 1h2M12 1h3M18 1h1M30 1h3M34 1h6M0 2h3M11 2h5M19 2h1M28 2h3M34 2h6M0 3h14M25 3h7M0 4h13M26 4h3M0 5h5M27 5h1M0 6h5M28 6h5M0 7h10M28 7h3M34 7h3M0 8h4M7 8h2M29 8h1M35 8h5M0 9h3M36 9h4M0 10h3M36 10h4M0 11h3M36 11h4M36 12h4M36 13h2M34 17h4M36 18h3" />
<path stroke="#000000" d="M14 0h1M24 0h1M15 1h1M23 1h1M16 2h1M22 2h1M14 3h4M21 3h4M13 4h1M18 4h1M20 4h1M24 4h2M12 5h1M26 5h1M11 6h1M27 6h1M10 7h1M13 7h10M27 7h1M31 7h3M4 8h3M9 8h1M12 8h1M23 8h1M28 8h1M30 8h1M34 8h1M3 9h1M7 9h2M11 9h1M24 9h1M29 9h1M35 9h1M3 10h1M8 10h1M10 10h1M25 10h1M28 10h1M35 10h1M3 11h1M8 11h1M10 11h1M13 11h2M18 11h3M26 11h1M35 11h1M3 12h1M8 12h1M10 12h1M12 12h1M15 12h1M17 12h1M21 12h1M26 12h1M35 12h1M4 13h1M8 13h1M11 13h1M15 13h1M17 13h1M21 13h1M26 13h1M35 13h1M4 14h1M8 14h1M11 14h1M15 14h1M17 14h1M20 14h2M26 14h1M35 14h1M4 15h1M10 15h2M14 15h2M17 15h1M19 15h3M26 15h1M34 15h1M5 16h1M9 16h1M11 16h1M14 16h2M17 16h1M19 16h3M23 16h4M34 16h1M5 17h1M9 17h1M12 17h1M14 17h4M19 17h4M27 17h2M33 17h1M6 18h1M8 18h8M17 18h1M20 18h2M24 18h2M28 18h1M32 18h1M6 19h2M16 19h5M26 19h1M29 19h1M32 19h1M6 20h1M9 20h4M25 20h1M27 20h1M29 20h1M31 20h1M6 21h1M8 21h1M13 21h4M24 21h1M29 21h1M31 21h1M7 22h1M10 22h3M14 22h1M17 22h8M27 22h2M30 22h1M8 23h3M12 23h2M15 23h1M23 23h1M26 23h1M29 23h1M11 24h1M14 24h1M16 24h1M23 24h1M25 24h1M28 24h1M12 25h1M15 25h1M17 25h1M22 25h1M24 25h1M26 25h2M13 26h1M15 26h1M17 26h1M21 26h1M23 26h1M25 26h1M14 27h1M16 27h1M18 27h3M24 27h1M15 28h1M17 28h1M21 28h1M23 28h1M16 29h1M19 29h2M22 29h1M17 30h1M23 30h1M17 31h1M24 31h1M16 32h1M25 32h1M15 33h1M26 33h1M14 34h1M27 34h3M14 35h1M30 35h2M13 36h1M32 36h1M12 37h1M28 37h1M32 37h1M12 38h1M15 38h1M28 38h1M33 38h1M11 39h1M15 39h1M28 39h1M33 39h1" />
<path stroke="#7015aa" d="M15 0h2M19 0h1M22 0h2M16 1h2M21 1h2M17 2h2M20 2h2M18 3h1M16 4h2M19 4h1M19 5h1M24 8h1M4 9h3M4 10h1M7 10h1M4 11h1M7 11h1M4 12h1M5 13h1M5 14h1M8 15h1M8 16h1M6 17h3M7 18h1M11 23h1M27 23h2M12 24h2M13 25h2M14 26h1M15 27h1M16 28h1M17 29h2M18 30h1M29 35h1M27 36h2M30 36h2M13 37h2M27 37h1M30 37h2M13 38h2M31 38h2M13 39h2" />
<path stroke="#6d15aa" d="M17 0h2M20 0h2M19 3h2M31 8h3M30 9h1M34 9h1M29 10h1M34 10h1M29 11h1M34 11h1M34 12h1M28 13h1M34 13h1M28 14h1M33 14h2M5 15h2M6 16h1M29 16h1M33 16h1M32 17h1M30 18h2M30 19h2M30 20h1M29 36h1M29 37h1M29 38h1M29 39h1" />
<path stroke="#1a5aff" d="M33 1h1M31 2h3M32 3h2M5 5h7M5 6h6" />
<path stroke="#7115aa" d="M14 4h2M21 4h3M13 5h6M20 5h6M12 6h15M11 7h2M23 7h4M10 8h2M25 8h3M9 9h2M25 9h4M9 10h1M26 10h2M9 11h1M27 11h2M9 12h1M27 12h2M9 13h2M27 13h1M9 14h2M27 14h1M9 15h1M27 15h2M27 16h2M29 17h1M29 18h1M30 21h1M29 22h1M26 24h2M25 25h1M24 26h1M22 27h2M22 28h1M21 29h1M19 30h4M18 31h6M17 32h8M16 33h10M15 34h12M15 35h14M14 36h13M15 37h3M25 37h2M16 38h1M26 38h2M30 38h1M12 39h1M16 39h1M26 39h2M30 39h3" />
<path stroke="#fb9d6f" d="M13 8h10M23 9h1M5 10h2M24 10h1M30 10h3M6 11h1M25 11h1M30 11h1M7 12h1M29 12h2M29 13h1M29 14h1" />
<path stroke="#fdd4c0" d="M12 9h11M31 9h3M11 10h13M33 10h1M5 11h1M11 11h2M15 11h3M21 11h4M31 11h3M5 12h2M11 12h1M16 12h1M22 12h4M31 12h3M6 13h2M16 13h1M22 13h4M30 13h4M6 14h2M16 14h1M22 14h4M30 14h3M7 15h1M16 15h1M22 15h4M29 15h3M7 16h1M16 16h1M22 16h1M30 16h1" />
<path stroke="#2862fe" d="M0 12h3M0 13h4M38 13h2M0 14h4M36 14h4M0 15h4M35 15h5M0 16h5M35 16h5M0 17h5M38 17h2M0 18h6M33 18h3M39 18h1M0 19h2M31 22h9M33 23h7M36 24h4M39 25h1M10 27h4M25 27h11M8 28h7M24 28h11M5 29h4M13 29h3M23 29h5" />
<path stroke="#c3d9f9" d="M13 12h2M18 12h3M12 13h3M18 13h3M12 14h2M18 14h1M12 15h2M18 15h1M12 16h2M18 16h1M13 17h1M18 17h1M18 18h2" />
<path stroke="#6915aa" d="M32 15h2M31 16h2M30 17h2" />
<path stroke="#ff8a00" d="M10 16h1M10 17h2M23 17h4M16 18h1M22 18h2M26 18h2M8 19h8M21 19h5M27 19h2M7 20h2M13 20h12M26 20h1M28 20h1M7 21h1M9 21h4M17 21h7M25 21h4M8 22h2M13 22h1M25 22h2M14 23h1M24 23h2M15 24h1M24 24h1M16 25h1M23 25h1M16 26h1M22 26h1M17 27h1M21 27h1M18 28h3" />
<path stroke="#2864fe" d="M33 19h7M32 20h8M32 21h8" />
<path stroke="#2866fe" d="M0 22h1M0 23h1M0 24h1M2 24h3M9 24h2M0 25h12M0 26h13M0 27h10M3 28h5" />
<path stroke="#ff0000" d="M15 22h2M16 23h3M22 23h1M17 24h1M21 24h2M20 25h2M18 26h3" />
<path stroke="#2869fe" d="M1 23h1M1 24h1M7 24h2" />
<path stroke="#fc809a" d="M19 23h3M18 24h3M18 25h2" />
<path stroke="#089d23" d="M38 26h2M36 27h4M0 28h3M35 28h5M0 29h5M33 29h7M0 30h7M32 30h6M0 31h7" />
<path stroke="#089d24" d="M9 29h4M29 29h4M7 30h10M24 30h8M10 31h7M25 31h10M5 32h1" />
<path stroke="#089c24" d="M28 29h1" />
<path stroke="#067519" d="M38 30h2M35 31h3M0 32h5M6 32h3M30 32h5M4 33h2M9 33h2M13 33h2M11 34h3" />
<path stroke="#089d21" d="M7 31h3M9 32h7M11 33h2" />
<path stroke="#07db2d" d="M38 31h2M35 32h5M0 33h4M6 33h3M35 33h5M2 34h7" />
<path stroke="#07db2f" d="M26 32h4M27 33h8M0 34h2M9 34h2M30 34h4M35 34h1M37 34h3M1 35h13M38 35h2M4 36h1" />
<path stroke="#0ff339" d="M0 35h1M32 35h3M36 35h2M0 36h4M6 36h1M8 36h2M33 36h1M35 36h1M37 36h1M39 36h1M0 37h6M7 37h5M33 37h4M39 37h1M0 38h5M6 38h1M8 38h4M34 38h2M37 38h1M39 38h1M0 39h11M34 39h6" />
<path stroke="#d2ff00" d="M35 35h1M6 37h1M37 37h1" />
<path stroke="#0ff337" d="M10 36h3M38 37h1" />
<path stroke="#b4b0b7" d="M18 37h1M20 37h1M22 37h1M24 37h1M17 38h1M19 38h3M23 38h1M25 38h1M18 39h2M21 39h2M24 39h1" />
<path stroke="#c7c5c8" d="M19 37h1M21 37h1M23 37h1M18 38h1M22 38h1M24 38h1M17 39h1M20 39h1M23 39h1M25 39h1" />
</svg>