<svg xmlns="http://www.w3.org/2000/svg" viewBox="0 -0.5 40 40" shape-rendering="crispEdges">
<metadata>Made with Pixels to Svg https://codepen.io/shshaw/pen/XbxvNj</metadata>
<path stroke="#d4d2cc" d="M0 0h3M5 0h1M7 0h1M0 1h3M5 1h1M1 2h2M5 2h2M4 3h1M0 4h1M3 4h1M5 4h1M0 5h2M4 5h1M1 6h1M4 6h1M2 7h1M4 7h1M2 8h1M3 9h1M2 10h2M2 11h1M3 12h1M3 13h1M2 14h2M1 16h2M1 17h2M2 18h1M4 19h1M2 20h3M2 21h2M2 22h1M2 23h1M2 24h4M5 25h1M5 26h3M7 27h1" />
<path stroke="#b8b7b7" d="M3 0h1M6 0h1M3 1h1M6 1h1M0 2h1M0 3h2M1 4h1M4 4h1M3 5h1M0 6h1M3 6h1M1 7h1M3 7h1M1 8h1M3 8h2M4 9h1M1 10h1M4 10h1M1 11h1M1 13h1M1 14h1M4 15h1M2 19h1M1 21h1M1 22h1M4 23h2M4 25h1M6 27h1" />
<path stroke="#e8e6e1" d="M4 0h1M4 1h1M3 2h2M2 3h2M5 3h1M2 4h1M21 4h1M2 5h1M21 5h1M2 6h1M2 9h1M3 11h1M1 12h2M2 13h1M2 15h2M3 16h2M3 17h2M3 18h2M3 19h1M3 22h1M3 23h1M6 25h1" />
<path stroke="#7a7df3" d="M8 0h6M22 0h12M35 0h5M7 1h4M25 1h6M32 1h1M34 1h6M7 2h2M26 2h6M36 2h4M6 3h2M27 3h4M37 3h3M6 4h2M27 4h3M38 4h2M5 5h2M38 5h2M5 6h1M10 6h2M0 7h1M9 7h2M29 7h1M0 8h1M8 8h2M30 8h6M38 8h2M0 9h2M5 9h1M8 9h1M30 9h6M39 9h1M0 10h1M5 10h1M8 10h1M31 10h6M39 10h1M0 11h1M4 11h3M32 11h5M39 11h1M0 12h1M4 12h3M32 12h8M0 13h1M4 13h2M32 13h6M39 13h1M4 14h3M9 14h1M30 14h1M32 14h8M0 15h2M5 15h2M8 15h2M31 15h9M5 16h2M8 16h1M29 16h1M31 16h7M39 16h1M5 17h2M8 17h1M29 17h6M37 17h3M6 18h1M29 18h6M37 18h3M0 19h2M5 19h2M30 19h10M30 20h8M39 20h1M0 21h1M4 21h2M30 21h10M0 22h1M4 22h3M29 22h11M0 23h2M6 23h2M29 23h11M0 24h2M6 24h4M28 24h12M0 25h4M7 25h5M28 25h12M0 26h5M8 26h5M27 26h13M0 27h6M10 27h4M27 27h13M0 28h7M11 28h2M26 28h14M0 29h6M14 29h2M25 29h15M0 30h7M13 30h3M24 30h16M12 31h5M25 31h15M11 32h5M26 32h14M0 33h15M28 33h12M0 34h15M30 34h10M0 35h14M32 35h8M12 36h1M33 36h7M0 37h12M33 37h7M0 38h12M34 38h6M0 39h12M34 39h6" />
<path stroke="#77451a" d="M14 0h8M11 1h14M9 2h12M24 2h2M8 3h5M16 3h4M24 3h3M8 4h4M14 4h6M26 4h1M7 5h4M13 5h7M6 6h4M12 6h9M5 7h4M11 7h14M5 8h2M10 8h1M24 8h6M9 9h1M26 9h4M9 10h1M27 10h4M8 11h1M28 11h4M7 12h1M29 12h3M6 13h1M18 25h1M16 26h1M15 27h1M13 28h2M12 29h2" />
<path stroke="#ffffff" d="M34 0h1M31 1h1M33 1h1M32 2h4M31 3h6M22 4h4M30 4h4M35 4h1M37 4h1M22 5h9M33 5h1M35 5h1M37 5h1M25 6h6M30 7h2M13 8h10M14 9h4M22 9h2M12 10h10M23 10h1M11 11h2M15 11h3M21 11h3M11 12h1M16 12h1M22 12h2M16 13h1M22 13h3M14 14h1M16 14h1M19 14h1M22 14h3M26 14h1M16 15h1M22 15h5M16 16h1M22 16h1M27 16h1M23 32h2M17 33h1M22 33h4M18 34h1M22 34h4M18 35h2M21 35h5M28 35h2M14 36h2M18 36h7M28 36h3M13 37h3M18 37h7M28 37h4M13 38h3M19 38h5M29 38h4M13 39h2M30 39h3" />
<path stroke="#98571f" d="M21 2h1M20 3h1M20 4h1M20 5h1" />
<path stroke="#000000" d="M22 2h2M21 3h3M34 4h1M36 4h1M34 5h1M36 5h1M12 9h2M18 9h4M22 10h1M13 11h2M18 11h3M12 12h1M15 12h1M17 12h1M21 12h1M11 13h1M15 13h1M17 13h1M21 13h1M11 14h1M15 14h1M17 14h1M20 14h2M10 15h2M14 15h2M17 15h1M19 15h3M28 15h1M9 16h1M11 16h1M14 16h2M17 16h1M19 16h3M23 16h4M28 16h1M9 17h1M12 17h1M14 17h4M19 17h4M27 17h2M8 18h8M17 18h1M20 18h2M24 18h2M28 18h1M7 19h1M16 19h5M26 19h1M29 19h1M6 20h1M9 20h4M25 20h1M27 20h1M29 20h1M6 21h1M8 21h1M13 21h4M24 21h1M29 21h1M7 22h1M10 22h3M14 22h1M17 22h8M8 23h2M13 23h1M15 23h1M23 23h1M14 24h1M16 24h1M23 24h1M15 25h1M17 25h1M22 25h1M21 26h1M18 27h3M17 28h1M21 28h1M24 31h1M16 32h1M25 32h1M28 34h2M14 35h2M30 35h2M13 36h1M31 36h2M12 37h1M32 37h1M12 38h1M16 38h1M28 38h1M33 38h1M12 39h1M15 39h2M28 39h2M33 39h1" />
<path stroke="#3a220d" d="M13 3h3M12 4h2M11 5h2M12 8h1M23 8h1M24 10h1M24 11h1M26 11h1M24 12h1M26 12h1M28 12h1M7 13h1M9 13h2M26 13h1M30 13h2M10 14h1M25 14h1M31 14h1M7 15h1M27 15h1M29 15h2M30 16h1M28 22h1M28 23h1M27 24h1M24 25h2M27 25h1M26 26h1M22 27h1M25 27h2M22 28h1M24 28h2M20 29h1M22 29h1M24 29h1M18 30h1M20 30h1M22 30h1M20 31h1M18 32h1M20 32h1M18 33h1M20 34h2" />
<path stroke="#ff8900" d="M31 5h2M31 6h9M32 7h8M17 27h1" />
<path stroke="#653a16" d="M21 6h4M25 7h4" />
<path stroke="#7a7df2" d="M7 8h1M6 9h2M6 10h2M7 11h1M0 14h1M7 14h1M0 16h1M7 16h1M0 17h1M7 17h1M0 18h2M5 18h1M7 18h1M0 20h2M5 20h1M0 31h8M0 32h9M0 36h12" />
<path stroke="#2a1808" d="M11 8h1M10 9h2M24 9h2M10 10h2M25 10h2M9 11h2M25 11h1M27 11h1M8 12h3M25 12h1M27 12h1M8 13h1M25 13h1M27 13h3M8 14h1M27 14h3M27 22h1M10 23h3M26 23h2M10 24h4M25 24h2M12 25h3M26 25h1M13 26h3M23 26h3M14 27h1M23 27h2M16 28h1M23 28h1M16 29h4M21 29h1M23 29h1M16 30h2M19 30h1M21 30h1M23 30h1M17 31h3M21 31h3M17 32h1M19 32h1M21 32h2M19 33h3M19 34h1M20 35h1" />
<path stroke="#ff0000" d="M36 8h2M36 9h3M37 10h2M37 11h2M15 22h2M16 23h3M22 23h1M17 24h1M21 24h2M20 25h2M19 26h2" />
<path stroke="#c3d9f9" d="M13 12h2M18 12h3M12 13h3M18 13h3M38 13h1M12 14h2M18 14h1M12 15h2M18 15h1M12 16h2M18 16h1M38 16h1M13 17h1M18 17h1M35 17h2M18 18h2M35 18h2M38 20h1" />
<path stroke="#ff8a00" d="M10 16h1M10 17h2M23 17h4M16 18h1M22 18h2M26 18h2M8 19h8M21 19h5M27 19h2M7 20h2M13 20h12M26 20h1M28 20h1M7 21h1M9 21h4M17 21h7M25 21h4M8 22h2M13 22h1M25 22h2M14 23h1M24 23h2M15 24h1M24 24h1M16 25h1M23 25h1M22 26h1M21 27h1M18 28h3" />
<path stroke="#fc809a" d="M19 23h3M18 24h3M19 25h1" />
<path stroke="#623813" d="M17 26h2M16 27h1M15 28h1M12 30h1" />
<path stroke="#cc9700" d="M8 27h1M11 30h1M10 31h1" />
<path stroke="#987205" d="M9 27h1M8 28h1M10 28h1M7 29h1M9 29h1M11 29h1M8 30h1M10 30h1M9 31h1M11 31h1M10 32h1" />
<path stroke="#cc9900" d="M7 28h1M6 29h1M7 30h1M9 32h1" />
<path stroke="#cc9800" d="M9 28h1M8 29h1M10 29h1M9 30h1M8 31h1" />
<path stroke="#ce0000" d="M15 33h2M26 33h2M15 34h3M26 34h2M16 35h2M26 35h2M16 36h2M25 36h3M16 37h2M25 37h3M17 38h2M24 38h4M17 39h11" />
</svg>