<svg xmlns="http://www.w3.org/2000/svg" viewBox="0 -0.5 40 40" shape-rendering="crispEdges">
<metadata>Made with Pixels to Svg https://codepen.io/shshaw/pen/XbxvNj</metadata>
<path stroke="#002b05" d="M0 0h3M37 0h3M0 1h3M37 1h3M0 2h2M39 2h1M0 3h2M39 3h1M0 4h1M39 4h1M0 33h1M0 34h1M0 35h2M0 36h2M39 36h1M0 37h4M39 37h1M0 38h4M38 38h1M0 39h5M39 39h1" />
<path stroke="#e5e38b" d="M3 0h1M3 1h1M3 2h1M15 3h1M28 3h1M2 4h1M13 4h2M28 4h1M2 5h1M13 5h1M29 5h1M2 6h1M13 6h1M30 6h1M2 7h1M12 7h1M32 7h1M2 8h1M12 8h1M33 8h1M2 9h1M12 9h1M33 9h1M3 10h1M11 10h1M33 10h2M11 11h1M35 11h1M11 12h1M10 14h1M10 23h2M10 24h1M12 24h2M11 25h1M14 25h1M11 26h1M11 27h1M1 28h1M11 28h1M1 29h2M2 30h1M12 30h1M12 31h1M13 32h1M14 33h1M2 34h1M14 34h1M2 35h1M4 35h2M15 35h1M2 36h2M16 36h1M17 37h1M18 38h1" />
<path stroke="#fcf4c9" d="M4 0h3M11 0h1M19 0h1M25 0h1M4 1h3M10 1h1M18 1h1M26 1h1M5 2h3M10 2h2M25 2h1M29 2h3M4 3h4M12 3h1M24 3h1M29 3h1M31 3h2M4 4h4M30 4h5M4 5h4M16 5h2M19 5h2M31 5h4M3 6h5M15 6h7M32 6h4M3 7h1M6 7h1M13 7h2M16 7h5M27 7h1M33 7h1M36 7h1M3 8h1M6 8h1M13 8h8M36 8h1M13 9h9M24 9h2M34 9h3M12 10h14M12 11h1M15 11h3M21 11h5M5 12h1M9 12h1M16 12h1M22 12h4M30 12h1M6 13h1M8 13h1M16 13h1M22 13h5M29 13h1M31 13h1M33 13h1M7 14h1M16 14h1M22 14h5M32 14h1M34 14h1M16 15h1M22 15h5M35 15h1M16 16h1M22 16h1M3 17h2M28 17h1M2 18h1M5 18h1M36 18h2M6 19h1M31 19h1M35 19h1M32 20h1M34 20h1M33 21h1M29 22h1M27 23h3M36 23h1M6 24h1M11 24h1M26 24h4M35 24h1M37 24h1M7 25h2M12 25h2M25 25h5M34 25h1M3 26h1M12 26h3M24 26h2M28 26h2M32 26h2M2 27h3M13 27h3M23 27h3M27 27h3M2 28h3M13 28h4M22 28h4M29 28h2M37 28h1M3 29h3M14 29h4M21 29h6M30 29h2M36 29h1M38 29h1M5 30h1M8 30h1M15 30h13M30 30h3M39 30h1M5 31h1M9 31h1M14 31h3M18 31h10M30 31h3M3 32h3M9 32h1M11 32h1M15 32h7M25 32h3M31 32h2M3 33h2M10 33h1M16 33h6M26 33h3M31 33h2M3 34h2M16 34h2M19 34h3M27 34h3M31 34h2M17 35h5M28 35h5M14 36h1M19 36h4M28 36h4M35 36h1M13 37h1M21 37h3M28 37h3M36 37h1M13 38h1M24 38h6M37 38h1M39 38h1M12 39h1M33 39h1M38 39h1" />
<path stroke="#f5f4a9" d="M7 0h1M29 0h3M8 1h1M28 1h5M8 2h1M28 2h1M32 2h3M2 3h2M8 3h1M16 3h6M35 3h1M3 4h1M8 4h1M15 4h9M29 4h1M35 4h1M3 5h1M8 5h1M12 5h1M14 5h2M21 5h4M30 5h1M35 5h2M8 6h1M12 6h1M14 6h1M24 6h2M31 6h1M36 6h2M7 7h2M11 7h1M24 7h2M37 7h2M7 8h1M11 8h1M25 8h2M37 8h2M3 9h5M11 9h1M26 9h1M37 9h2M4 10h2M10 10h1M26 10h2M35 10h4M10 11h1M26 11h2M36 11h2M10 12h1M26 12h2M10 13h1M27 13h1M27 14h2M27 15h2M27 16h3M29 17h1M29 18h2M30 19h1M30 20h1M30 21h1M30 22h1M30 23h1M1 24h3M30 24h1M1 25h4M30 25h1M1 26h1M4 26h2M30 26h1M1 27h1M5 27h2M12 27h1M30 27h2M5 28h2M12 28h1M31 28h2M6 29h1M12 29h2M32 29h2M6 30h1M13 30h1M33 30h2M2 31h1M6 31h1M13 31h1M33 31h2M6 32h1M14 32h1M33 32h2M6 33h1M15 33h1M33 33h2M5 34h2M15 34h1M33 34h2M3 35h1M16 35h1M33 35h2M17 36h2M32 36h2M18 37h3M31 37h2M19 38h5M30 38h3M21 39h10" />
<path stroke="#003f08" d="M8 0h3M12 0h1M26 0h3M32 0h3M9 1h1M33 1h2M9 2h1M0 8h2M39 8h1M0 9h2M39 9h1M0 10h3M39 10h1M0 11h3M38 11h2M0 12h2M39 12h1M0 13h2M39 13h1M0 14h1M39 14h1M0 15h1M0 16h1M0 17h1M0 18h1M0 19h1M0 24h1M0 25h1M0 26h1M0 27h1M0 28h1M39 28h1M0 29h1M39 29h1M38 31h2M37 32h3M37 33h1M36 34h2M36 35h1M6 36h1M36 36h1M6 37h1M34 37h1M7 38h5M34 38h2M7 39h5M34 39h2" />
<path stroke="#004208" d="M13 0h1M11 1h1M2 12h1M38 12h1M1 14h1M39 15h1M38 30h1M36 33h1M6 35h1M9 37h2M12 38h1" />
<path stroke="#004608" d="M14 0h1M23 0h1M12 1h1M39 17h1M39 23h1M38 28h1M36 32h1M11 37h1M14 39h1" />
<path stroke="#01590d" d="M15 0h1M22 0h1M14 1h1M23 1h2M26 2h2M38 16h1M38 17h1M39 18h1M39 22h1M38 23h1M7 34h1M15 39h1" />
<path stroke="#025c0e" d="M16 0h2M16 1h2M14 2h1M22 2h2M25 3h3M11 4h1M25 4h3M10 5h1M26 5h3M9 6h2M26 6h4M9 7h1M28 7h4M8 8h2M28 8h5M8 9h2M28 9h5M7 10h2M29 10h4M6 11h3M29 11h6M6 12h3M29 12h1M31 12h5M7 13h1M32 13h1M34 13h2M30 14h2M33 14h1M30 15h4M31 16h1M37 16h1M31 17h1M35 17h3M6 18h2M35 18h1M32 19h3M33 20h1M35 20h1M3 21h3M34 21h2M3 22h4M32 22h6M4 23h4M32 23h4M37 23h1M4 24h2M32 24h3M36 24h1M5 25h2M32 25h2M35 25h2M6 26h1M34 26h1M7 27h3M33 27h2M7 28h3M34 28h1M7 29h4M7 30h1M9 30h2M7 31h2M10 31h1M7 32h2M10 32h1M8 33h1M8 34h2M15 37h1M16 38h1M16 39h2" />
<path stroke="#025d0e" d="M18 0h1M36 13h1M6 15h1M5 16h1M32 16h1M36 16h1M5 17h2M8 17h1M32 18h1M34 18h1M36 19h1M5 20h1M36 21h1M39 21h1M7 24h1M7 26h1M9 26h1M35 26h1M35 29h1M13 36h1" />
<path stroke="#02680f" d="M20 0h1M4 13h1M37 19h2M37 26h1M37 27h1M12 33h1" />
<path stroke="#025e0e" d="M21 0h1M5 13h1M8 15h1M39 19h1" />
<path stroke="#004308" d="M24 0h1M27 1h1M1 15h1M1 16h1M39 16h1M1 17h1M1 18h1M1 19h1" />
<path stroke="#003d07" d="M35 0h1M35 1h1M1 6h1M38 6h1M0 7h1M39 7h1M0 30h1M1 31h1M2 33h1M39 33h1M38 34h1M37 36h1M5 37h1M36 38h1M6 39h1M36 39h1" />
<path stroke="#002d05" d="M36 0h1M2 2h1M0 5h1M39 5h1M0 32h1M1 34h1M39 35h1M38 37h1M4 38h1M37 39h1" />
<path stroke="#ccf8eb" d="M7 1h1M4 2h1M30 3h1M33 3h2M3 30h2M3 31h2M17 31h1" />
<path stroke="#00570c" d="M13 1h1M25 1h1M12 37h1" />
<path stroke="#015b0d" d="M15 1h1M13 2h1M11 3h1M10 4h1M9 5h1M6 10h1M5 11h1M4 12h1M36 12h1M38 22h1M3 23h1M36 30h1M7 33h1M9 35h1M15 38h1" />
<path stroke="#049816" d="M19 1h1" />
<path stroke="#049817" d="M20 1h1M37 20h2" />
<path stroke="#02660f" d="M21 1h1M7 15h1M34 15h1M6 16h1M8 16h1M33 16h1M32 17h1M34 17h1M3 20h1M36 20h1M39 20h1M9 25h1M36 26h1M12 36h1" />
<path stroke="#015c0d" d="M22 1h1M38 18h1" />
<path stroke="#003005" d="M36 1h1M39 6h1" />
<path stroke="#02ff99" d="M12 2h1M15 2h7M24 2h1M13 3h2M22 3h2M12 4h1M24 4h1M11 5h1M25 5h1M11 6h1M10 7h1M26 7h1M10 8h1M21 8h1M27 8h1M10 9h1M22 9h2M27 9h1M9 10h1M28 10h1M9 11h1M28 11h1M28 12h1M9 13h1M28 13h1M30 13h1M6 14h1M8 14h2M29 14h1M9 15h1M29 15h1M30 16h1M30 17h1M31 18h1M31 20h1M31 21h2M31 22h1M31 23h1M9 24h1M31 24h1M10 25h1M31 25h1M10 26h1M31 26h1M10 27h1M32 27h1M10 28h1M33 28h1M11 29h1M34 29h1M11 30h1M35 30h1M11 31h1M35 31h1M12 32h1M35 32h1M9 33h1M11 33h1M13 33h1M35 33h1M13 34h1M35 34h1M14 35h1M22 35h1M35 35h1M15 36h1M23 36h1M34 36h1M14 37h1M16 37h1M24 37h2M33 37h1M35 37h1M17 38h1M33 38h1M13 39h1M18 39h3M31 39h2" />
<path stroke="#003e07" d="M35 2h2M37 5h1M1 7h1M1 30h1M38 33h1M37 35h1M5 36h1M6 38h1" />
<path stroke="#014309" d="M37 2h1" />
<path stroke="#002f05" d="M38 2h1M1 4h1M0 6h1M0 31h1M1 33h1M39 34h1M38 36h1M4 37h1M5 39h1" />
<path stroke="#004508" d="M9 3h1M3 11h1M37 31h1" />
<path stroke="#01570c" d="M10 3h1M9 4h1M4 11h1M37 12h1M37 30h1M36 31h1M14 38h1" />
<path stroke="#014f0a" d="M36 3h1M8 37h1" />
<path stroke="#048914" d="M37 3h1" />
<path stroke="#014209" d="M38 3h1" />
<path stroke="#004108" d="M36 4h1M7 37h1" />
<path stroke="#014d0a" d="M37 4h1" />
<path stroke="#003306" d="M38 4h1" />
<path stroke="#003b06" d="M1 5h1M38 5h1M1 32h1M38 35h1M4 36h1M37 37h1M5 38h1" />
<path stroke="#ffd8c0" d="M18 5h1M4 7h2M34 7h2M4 8h2M34 8h2M2 26h1M26 26h1M26 27h1M27 28h1M27 29h2M28 31h1M28 32h2M5 33h1M18 34h1" />
<path stroke="#ccf7eb" d="M22 6h2M21 7h3M22 8h3M22 32h3M22 33h4M22 34h1M24 34h1M26 34h1M24 35h4M24 36h1M26 36h2M26 37h2" />
<path stroke="#bdfaa9" d="M15 7h1" />
<path stroke="#000000" d="M13 11h2M18 11h3M12 12h1M15 12h1M17 12h1M21 12h1M11 13h1M15 13h1M17 13h1M21 13h1M11 14h1M15 14h1M17 14h1M20 14h2M10 15h2M14 15h2M17 15h1M19 15h3M9 16h1M11 16h1M14 16h2M17 16h1M19 16h3M23 16h4M9 17h1M12 17h1M14 17h4M19 17h4M27 17h1M8 18h8M17 18h1M20 18h2M24 18h2M28 18h1M7 19h1M16 19h5M26 19h1M29 19h1M6 20h1M9 20h4M25 20h1M27 20h1M29 20h1M6 21h1M8 21h1M13 21h4M24 21h1M29 21h1M7 22h1M10 22h3M14 22h1M17 22h8M27 22h2M8 23h2M12 23h2M15 23h1M23 23h1M26 23h1M14 24h1M16 24h1M23 24h1M25 24h1M15 25h1M17 25h1M22 25h1M24 25h1M15 26h1M17 26h1M21 26h1M23 26h1M16 27h1M18 27h3M22 27h1M17 28h1M21 28h1M18 29h3" />
<path stroke="#01560c" d="M3 12h1" />
<path stroke="#c3d9f9" d="M13 12h2M18 12h3M12 13h3M18 13h3M12 14h2M18 14h1M12 15h2M18 15h1M12 16h2M18 16h1M13 17h1M18 17h1M18 18h2" />
<path stroke="#004809" d="M2 13h1" />
<path stroke="#01650f" d="M3 13h1M37 15h1" />
<path stroke="#01640f" d="M37 13h1M38 24h1" />
<path stroke="#004509" d="M38 13h1M39 24h1" />
<path stroke="#01620e" d="M2 14h1" />
<path stroke="#049e17" d="M3 14h1M3 15h1M3 18h1M3 19h1M11 34h1" />
<path stroke="#049f18" d="M4 14h1M4 18h1M12 34h1" />
<path stroke="#02670f" d="M5 14h1M36 14h1M5 15h1M36 15h1M3 16h2M4 20h1M2 21h1M37 21h2M2 22h1M37 25h1M35 27h1M35 28h1M10 34h1M10 35h1M13 35h1" />
<path stroke="#ffffff" d="M14 14h1M19 14h1" />
<path stroke="#02660e" d="M35 14h1M8 24h1" />
<path stroke="#049015" d="M37 14h1" />
<path stroke="#01520b" d="M38 14h1M39 25h1M39 26h1" />
<path stroke="#02640e" d="M2 15h1M2 19h1" />
<path stroke="#049f17" d="M4 15h1M4 19h1M12 35h1" />
<path stroke="#01580c" d="M38 15h1M2 23h1M7 35h1M10 36h1" />
<path stroke="#015a0d" d="M2 16h1M2 17h1M37 29h1" />
<path stroke="#049116" d="M7 16h1M33 17h1" />
<path stroke="#ff8a00" d="M10 16h1M10 17h2M23 17h4M16 18h1M22 18h2M26 18h2M8 19h8M21 19h5M27 19h2M7 20h2M13 20h12M26 20h1M28 20h1M7 21h1M9 21h4M17 21h7M25 21h4M8 22h2M13 22h1M25 22h2M14 23h1M24 23h2M15 24h1M24 24h1M16 25h1M23 25h1M16 26h1M22 26h1M17 27h1M21 27h1M18 28h3" />
<path stroke="#025f0e" d="M34 16h1" />
<path stroke="#02650e" d="M35 16h1M8 26h1" />
<path stroke="#02650f" d="M7 17h1M33 18h1" />
<path stroke="#02ff96" d="M5 19h1M19 23h3M18 24h3M18 25h2" />
<path stroke="#02540b" d="M0 20h1" />
<path stroke="#02550b" d="M1 20h1" />
<path stroke="#025c0d" d="M2 20h1" />
<path stroke="#05a419" d="M0 21h1M0 22h1" />
<path stroke="#049e18" d="M1 21h1M1 22h1" />
<path stroke="#b2b067" d="M15 22h2M16 23h3M22 23h1M17 24h1M21 24h2M20 25h2M18 26h3" />
<path stroke="#02530b" d="M0 23h1" />
<path stroke="#01530b" d="M1 23h1" />
<path stroke="#049516" d="M38 25h1" />
<path stroke="#ffc9c4" d="M27 26h1M26 28h1M28 28h1M14 30h1M28 30h1M30 32h1" />
<path stroke="#049515" d="M38 26h1" />
<path stroke="#049716" d="M36 27h1M36 28h1" />
<path stroke="#01610e" d="M38 27h1" />
<path stroke="#004409" d="M39 27h1" />
<path stroke="#ffecd6" d="M29 29h1M29 30h1M29 31h1M29 33h2M30 34h1" />
<path stroke="#003f07" d="M2 32h1" />
<path stroke="#bdfaaa" d="M23 34h1M25 34h1M23 35h1M25 36h1" />
<path stroke="#01650e" d="M8 35h1M11 36h1" />
<path stroke="#049e16" d="M11 35h1" />
<path stroke="#01510a" d="M7 36h1" />
<path stroke="#048b13" d="M8 36h1" />
<path stroke="#01540b" d="M9 36h1" />
</svg>