<svg xmlns="http://www.w3.org/2000/svg" viewBox="0 -0.5 40 40" shape-rendering="crispEdges">
<metadata>Made with Pixels to Svg https://codepen.io/shshaw/pen/XbxvNj</metadata>
<path stroke="#b2ea90" d="M0 0h17M23 0h17M0 1h16M24 1h16M0 2h15M25 2h15M0 3h11M32 3h8M0 4h7M35 4h5M0 5h5M8 5h1M32 5h1M37 5h3M0 6h5M6 6h2M29 6h1M33 6h2M38 6h2M0 7h8M30 7h2M34 7h3M38 7h2M0 8h7M31 8h2M35 8h5M0 9h6M32 9h2M36 9h4M0 10h5M32 10h2M37 10h3M0 11h5M30 11h1M33 11h2M38 11h2M0 12h4M6 12h1M31 12h1M33 12h3M39 12h1M0 13h3M5 13h2M34 13h4M39 13h1M0 14h3M4 14h2M32 14h1M35 14h5M0 15h2M4 15h2M32 15h1M35 15h5M0 16h2M3 16h2M7 16h1M30 16h1M33 16h1M35 16h5M0 17h1M2 17h3M7 17h1M30 17h1M33 17h1M36 17h4M0 18h1M2 18h2M6 18h1M29 18h1M31 18h1M36 18h4M0 19h4M6 19h1M0 20h3M5 20h1" />
<path stroke="#ffffff" d="M17 0h6M16 1h8M15 2h3M21 2h4M16 3h1M18 3h3M22 3h3M14 4h2M17 4h2M20 4h5M13 5h1M15 5h3M19 5h1M21 5h5M12 6h3M16 6h1M18 6h3M22 6h4M12 7h3M16 7h1M18 7h3M22 7h5M12 8h3M16 8h1M18 8h3M22 8h5M12 9h3M16 9h1M18 9h3M22 9h5M11 10h17M11 11h2M15 11h3M21 11h7M11 12h1M13 12h2M16 12h1M18 12h3M22 12h6M12 13h3M16 13h1M18 13h3M22 13h7M12 14h1M14 14h1M16 14h1M18 14h1M20 14h1M22 14h7M16 15h1M22 15h6M12 16h1M14 16h1M16 16h1M18 16h1M20 16h1M22 16h1M27 16h1M13 17h2M18 17h3M18 18h2M20 30h2" />
<path stroke="#efecec" d="M18 2h3M14 3h2M17 3h1M21 3h1M16 4h1M20 29h2" />
<path stroke="#d80000" d="M11 3h3M25 3h7M7 4h4M25 4h3M30 4h5M5 5h2M9 5h1M27 5h3M31 5h1M34 5h3M8 6h1M26 6h1M28 6h1M30 6h1M32 6h1M36 6h2M9 7h1M27 7h1M29 7h1M33 7h1M37 7h1M8 8h2M27 8h2M30 8h1M34 8h1M7 9h2M27 9h3M31 9h1M34 9h2M5 10h3M29 10h2M35 10h2M5 11h1M8 11h1M28 11h1M31 11h2M36 11h2M4 12h1M8 12h1M28 12h3M32 12h1M37 12h2M3 13h1M7 13h2M30 13h2M33 13h1M38 13h1M3 14h1M6 14h2M29 14h1M31 14h1M33 14h2M2 15h1M6 15h1M8 15h1M29 15h2M34 15h1M5 16h2M29 16h1M31 16h2M34 16h1M1 17h1M5 17h1M23 17h3M32 17h1M34 17h2M1 18h1M4 18h2M23 18h1M26 18h1M32 18h2M35 18h1M4 19h1M8 19h6M24 19h2M27 19h1M33 19h1M36 19h1M3 20h1M13 20h5M23 20h2M26 20h1M28 20h1M33 20h2M36 20h1M9 21h4M17 21h7M25 21h1M27 21h2M33 21h2M2 22h1M5 22h1M13 22h1M25 22h1M34 22h1M2 23h1M5 23h1M14 23h1M24 23h1M34 23h2M4 24h2M15 24h1M24 24h1M35 24h1M4 25h2M16 25h1M23 25h1M35 25h1M4 26h1M16 26h1M22 26h1M4 27h1M17 27h1M21 27h1M18 28h3" />
<path stroke="#b10505" d="M11 4h2M28 4h2M7 5h1M10 5h2M26 5h1M30 5h1M33 5h1M5 6h1M9 6h2M27 6h1M31 6h1M35 6h1M8 7h1M10 7h1M28 7h1M32 7h1M7 8h1M10 8h1M29 8h1M33 8h1M6 9h1M9 9h2M30 9h1M8 10h2M28 10h1M31 10h1M34 10h1M6 11h2M9 11h1M29 11h1M35 11h1M5 12h1M7 12h1M9 12h1M36 12h1M4 13h1M9 13h2M29 13h1M32 13h1M8 14h3M30 14h1M3 15h1M7 15h1M9 15h1M31 15h1M33 15h1M2 16h1M8 16h1M6 17h1M8 17h1M29 17h1M31 17h1M7 18h1M30 18h1M34 18h1M5 19h1M32 19h1M35 19h1M4 20h1M3 21h1M6 22h1M33 22h1M6 23h1M34 24h1M5 26h1" />
<path stroke="#000000" d="M13 4h1M19 4h1M12 5h1M14 5h1M18 5h1M20 5h1M11 6h1M15 6h1M17 6h1M21 6h1M11 7h1M15 7h1M17 7h1M21 7h1M11 8h1M15 8h1M17 8h1M21 8h1M11 9h1M15 9h1M17 9h1M21 9h1M10 10h1M10 11h1M13 11h2M18 11h3M10 12h1M12 12h1M15 12h1M17 12h1M21 12h1M11 13h1M15 13h1M17 13h1M21 13h1M11 14h1M15 14h1M17 14h1M21 14h1M10 15h2M13 15h1M15 15h1M17 15h1M19 15h1M21 15h1M28 15h1M9 16h1M11 16h1M15 16h1M17 16h1M21 16h1M23 16h4M28 16h1M9 17h1M12 17h1M15 17h3M21 17h2M27 17h2M8 18h8M17 18h1M20 18h2M24 18h2M28 18h1M7 19h1M16 19h5M26 19h1M29 19h1M6 20h1M9 20h4M25 20h1M27 20h1M29 20h1M6 21h1M8 21h1M13 21h4M24 21h1M29 21h1M7 22h1M10 22h3M14 22h11M27 22h2M8 23h2M12 23h2M15 23h4M22 23h2M26 23h1M14 24h1M16 24h2M21 24h3M25 24h1M15 25h1M17 25h1M20 25h3M24 25h1M15 26h1M17 26h5M23 26h1M16 27h1M18 27h3M22 27h1M17 28h1M21 28h2M19 29h1M22 29h1M32 36h1M32 37h1M12 38h1M16 38h1M33 38h1M12 39h1M15 39h2M28 39h2M33 39h1" />
<path stroke="#fdacac" d="M13 14h1M19 14h1M12 15h1M14 15h1M18 15h1M20 15h1M13 16h1M19 16h1" />
<path stroke="#ff8a00" d="M10 16h1M10 17h2M26 17h1M16 18h1M22 18h1M27 18h1M14 19h2M21 19h3M28 19h1M7 20h2M18 20h5M7 21h1M26 21h1M8 22h2M26 22h1M25 23h1" />
<path stroke="#b2ea91" d="M30 19h2M34 19h1M37 19h3M0 21h3M4 21h2" />
<path stroke="#b2ea92" d="M30 20h3M35 20h1M37 20h3" />
<path stroke="#b3e697" d="M30 21h3M35 21h5" />
<path stroke="#b3e994" d="M0 22h2M3 22h2" />
<path stroke="#b4dfa0" d="M29 22h4M35 22h5" />
<path stroke="#b4e39d" d="M0 23h2M3 23h2M7 23h1M10 23h2" />
<path stroke="#fc809a" d="M19 23h3M18 24h3M18 25h2" />
<path stroke="#b5d1ae" d="M27 23h7M36 23h4" />
<path stroke="#b5d7ad" d="M0 24h4M6 24h8" />
<path stroke="#b8bec2" d="M26 24h8M36 24h4" />
<path stroke="#b8c4c2" d="M0 25h4M6 25h9" />
<path stroke="#baa9d6" d="M25 25h10M36 25h4" />
<path stroke="#bba9db" d="M0 26h4M6 26h8" />
<path stroke="#bba9dc" d="M14 26h1" />
<path stroke="#bc94e9" d="M24 26h16" />
<path stroke="#bd93ed" d="M0 27h4M5 27h9" />
<path stroke="#bd93ee" d="M14 27h2" />
<path stroke="#be85f5" d="M23 27h1" />
<path stroke="#be84f5" d="M24 27h16" />
<path stroke="#be82f8" d="M0 28h14" />
<path stroke="#be82f9" d="M14 28h2" />
<path stroke="#be81f9" d="M16 28h1" />
<path stroke="#bf7bfb" d="M23 28h2" />
<path stroke="#bf7bfc" d="M25 28h15" />
<path stroke="#bf78fe" d="M0 29h14" />
<path stroke="#bf78ff" d="M14 29h4" />
<path stroke="#e3be77" d="M18 29h1M23 29h4M16 30h2M19 30h1M22 30h1M27 30h3M14 31h2M20 31h2M30 31h1M13 32h1M31 32h1M12 33h1M32 33h1M11 34h1M19 34h1M32 34h1M10 35h1M18 35h1M22 35h1M32 35h1M10 36h1M17 36h1M23 36h1M31 36h1M11 37h6M24 37h1M30 37h1M25 38h5" />
<path stroke="#bf75ff" d="M27 29h13M0 30h16" />
<path stroke="#55ad6d" d="M18 30h1M19 38h1" />
<path stroke="#62ce7f" d="M23 30h1M21 32h1M23 32h1M22 33h1M21 35h1M22 36h1M22 37h1M23 38h1M23 39h2" />
<path stroke="#ffe767" d="M24 30h1M17 31h1M28 31h1M25 32h1M15 33h1M18 33h1M29 33h1M12 34h1M22 34h1M26 34h1M14 35h1M31 35h1M11 36h1M16 36h1M24 36h1M28 37h1" />
<path stroke="#fff0a0" d="M25 30h2M16 31h1M24 31h4M29 31h1M14 32h2M17 32h1M24 32h1M27 32h2M30 32h1M13 33h1M16 33h2M23 33h6M30 33h2M13 34h3M17 34h2M23 34h1M25 34h1M27 34h1M29 34h1M31 34h1M11 35h1M13 35h1M15 35h3M23 35h8M12 36h2M15 36h1M25 36h1M27 36h2M30 36h1M25 37h3M29 37h1" />
<path stroke="#bf74ff" d="M30 30h10M0 31h14M31 31h9M0 32h13M32 32h8M0 33h12M33 33h7M0 34h11M33 34h7M0 35h10M33 35h7M0 36h10M33 36h7M0 37h11M33 37h7M0 38h12M34 38h6M0 39h12M34 39h6" />
<path stroke="#439159" d="M18 31h1M23 31h1M18 32h1M19 33h1M20 34h2M20 35h1M19 36h1M19 37h1M18 38h1M18 39h1" />
<path stroke="#55ad6e" d="M19 31h1M22 31h1M20 32h1M21 36h1M20 37h2M20 38h2M20 39h3" />
<path stroke="#f8ecae" d="M16 32h1M26 32h1M29 32h1M14 33h1M16 34h1M24 34h1M28 34h1M30 34h1M12 35h1M14 36h1M26 36h1M29 36h1" />
<path stroke="#7eb0c4" d="M19 32h1M22 32h1M20 33h2M20 36h1M22 38h1M19 39h1" />
<path stroke="#f7c2a4" d="M19 35h1M18 36h1M17 37h2M23 37h1M31 37h1M13 38h3M17 38h1M24 38h1M30 38h3M13 39h2M17 39h1M25 39h3M30 39h3" />
</svg>