<svg xmlns="http://www.w3.org/2000/svg" viewBox="0 -0.5 40 40" shape-rendering="crispEdges">
<metadata>Made with Pixels to Svg https://codepen.io/shshaw/pen/XbxvNj</metadata>
<path stroke="#1833c1" d="M0 0h11M15 0h25M0 1h10M19 1h2M24 1h16M0 2h9M25 2h15M0 3h8M30 3h10M0 4h7M32 4h8M0 5h7M33 5h7M0 6h7M34 6h6M0 7h8M35 7h5M0 8h9M35 8h5M0 9h11M35 9h5M0 10h10M35 10h5M0 11h10M34 11h6M0 12h10M28 12h1M34 12h6M0 13h9M28 13h4M34 13h6M0 14h8M29 14h3M35 14h5M0 15h8M29 15h4M36 15h4M0 16h8M29 16h5M35 16h5M0 17h9M29 17h11M0 18h2M3 18h5M29 18h11M0 19h7M30 19h10M0 20h6M30 20h10M0 21h1M2 21h4M30 21h10M0 22h6M29 22h11M0 23h2M3 23h2M10 23h2M27 23h13M1 24h3M7 24h6M26 24h14M0 25h2M7 25h5M25 25h15M0 26h1M6 26h6M24 26h16M5 27h6M15 27h1M23 27h17M5 28h6M14 28h3M23 28h17M4 29h6M13 29h6M23 29h17M3 30h2M6 30h3M13 30h5M24 30h16M3 31h6M13 31h4M25 31h15M2 32h5M13 32h3M27 32h13M1 33h1M3 33h1M5 33h2M12 33h3M29 33h11M0 34h6M11 34h3M31 34h9M0 35h1M2 35h3M11 35h1M32 35h8M0 36h4M10 36h2M33 36h7M0 37h3M10 37h2M33 37h7M0 38h2M9 38h2M34 38h6M0 39h1M9 39h2M34 39h6" />
<path stroke="#000000" d="M11 0h4M10 1h1M15 1h4M21 1h3M9 2h1M19 2h6M8 3h1M25 3h5M7 4h1M30 4h2M7 5h1M15 5h8M32 5h1M7 6h1M13 6h11M33 6h1M8 7h2M12 7h13M34 7h1M9 8h4M23 8h3M34 8h1M11 9h3M18 9h4M24 9h3M34 9h1M10 10h1M22 10h1M25 10h2M34 10h1M10 11h1M13 11h2M18 11h3M26 11h3M33 11h1M10 12h1M26 12h2M29 12h5M27 13h1M32 13h2M11 14h3M16 14h2M19 14h1M23 14h1M32 14h3M10 15h3M16 15h1M18 15h1M23 15h2M33 15h3M28 16h1M34 16h1M9 17h1M21 17h1M27 17h2M8 18h2M13 18h3M20 18h2M24 18h2M28 18h1M7 19h1M19 19h2M26 19h1M29 19h1M6 20h1M11 20h2M25 20h1M27 20h1M29 20h1M6 21h1M13 21h2M24 21h1M29 21h1M10 22h3M18 22h7M27 22h2M8 23h2M12 23h1M23 23h1M26 23h1M23 24h1M25 24h1M17 25h1M22 25h1M24 25h1M15 26h1M17 26h1M21 26h1M23 26h1M16 27h1M18 27h3M22 27h1M17 28h1M21 28h2M19 29h1M22 29h1M18 30h1M23 30h1M17 31h1M24 31h1M16 32h1M18 32h1M23 32h1M25 32h2M15 33h1M19 33h1M22 33h1M26 33h3M14 34h2M20 34h2M26 34h5M13 35h4M25 35h3M29 35h3M12 36h1M14 36h4M25 36h2M28 36h5M12 37h2M15 37h4M24 37h2M27 37h6M12 38h3M16 38h4M23 38h2M26 38h8M11 39h2M14 39h2M17 39h4M22 39h2M25 39h9" />
<path stroke="#ff0000" d="M11 1h4M10 2h9M9 3h16M8 4h22M8 5h7M23 5h9M8 6h5M24 6h9M10 7h2M25 7h9M26 8h8M27 9h7M27 10h7M29 11h4M13 15h1M15 15h1M14 16h1M19 16h1M11 17h1M13 17h1M18 17h1M12 18h1M17 18h1M19 18h1M9 19h1M11 19h1M16 19h1M18 19h1M8 20h1M10 20h1M7 21h1M15 21h1M8 22h1M15 22h1M5 23h1M7 23h1M14 23h1M17 23h2M22 23h1M4 24h1M6 24h1M13 24h1M15 24h1M17 24h1M21 24h2M2 25h1M6 25h1M12 25h1M20 25h2M1 26h1M5 26h1M12 26h1M14 26h1M18 26h3M0 27h1M4 27h1M11 27h1M14 27h1M3 28h1M13 28h1M2 29h1M10 29h1M12 29h1M2 30h1M10 30h1M1 31h1M9 31h1M12 31h1M0 32h1M8 32h2M12 32h1M7 33h1M10 33h2M6 34h2M10 34h1M6 35h1M10 35h1M5 36h2M9 36h1M4 37h1M9 37h1M3 38h1M8 38h1M2 39h1" />
<path stroke="#ffffff" d="M13 8h10M14 9h4M22 9h2M11 10h11M23 10h2M11 11h2M15 11h3M21 11h5M25 12h1M21 15h1M13 16h1M20 16h1M27 16h1M12 17h1M19 17h1M11 18h1M18 18h1M10 19h1M17 19h1M9 20h1M17 20h1M8 21h1M16 21h1M7 22h1M16 22h1M6 23h1M15 23h1M5 24h1M14 24h1M4 25h1M14 25h1M3 26h1M13 26h1M1 27h2M12 27h1M0 28h2M12 28h1M0 29h2M11 29h1M20 29h2M0 30h1M11 30h1M19 30h4M10 31h2M18 31h6M10 32h1M17 32h1M19 32h4M24 32h1M9 33h1M16 33h3M20 33h2M23 33h3M8 34h1M16 34h4M22 34h4M8 35h1M17 35h3M22 35h3M28 35h1M7 36h2M13 36h1M18 36h7M27 36h1M6 37h2M14 37h1M19 37h5M26 37h1M5 38h3M15 38h1M20 38h3M25 38h1M4 39h3M16 39h1M21 39h1M24 39h1" />
<path stroke="#8a17b8" d="M11 12h13M9 13h1M25 13h1M27 14h1M28 15h1M26 16h1" />
<path stroke="#ae46d8" d="M24 12h1M26 13h1M28 14h1" />
<path stroke="#5f137e" d="M10 13h15M8 14h3M24 14h3M8 15h2M25 15h3M8 16h4M15 16h3M22 16h4M14 17h3M22 17h3" />
<path stroke="#fd0000" d="M14 14h1M22 14h1M20 15h1M21 16h1" />
<path stroke="#e30000" d="M15 14h1M18 20h1M17 21h1M17 22h1M16 23h1M16 24h1M15 25h1" />
<path stroke="#470606" d="M18 14h1M17 15h1" />
<path stroke="#940303" d="M20 14h1M22 15h1" />
<path stroke="#bf0000" d="M21 14h1" />
<path stroke="#faf2f2" d="M14 15h1" />
<path stroke="#da0101" d="M19 15h1" />
<path stroke="#ffd500" d="M12 16h1M20 17h1M2 18h1M10 18h1M16 20h1M1 21h1M9 21h1M6 22h1M14 22h1M2 23h1M13 23h1M0 24h1M3 25h1M5 25h1M13 25h1M2 26h1M4 26h1M3 27h1M13 27h1M2 28h1M4 28h1M11 28h1M3 29h1M1 30h1M5 30h1M9 30h1M12 30h1M0 31h1M2 31h1M1 32h1M7 32h1M11 32h1M0 33h1M2 33h1M4 33h1M8 33h1M9 34h1M1 35h1M5 35h1M7 35h1M9 35h1M12 35h1M4 36h1M3 37h1M5 37h1M8 37h1M2 38h1M4 38h1M11 38h1M1 39h1M3 39h1M7 39h2M13 39h1" />
<path stroke="#60147f" d="M18 16h1" />
<path stroke="#ff8a00" d="M10 17h1M25 17h2M16 18h1M22 18h2M26 18h2M8 19h1M12 19h4M21 19h5M27 19h2M7 20h1M13 20h3M19 20h6M26 20h1M28 20h1M10 21h3M18 21h6M25 21h4M9 22h1M13 22h1M25 22h2M24 23h2M24 24h1M16 25h1M23 25h1M16 26h1M22 26h1M17 27h1M21 27h1M18 28h3" />
<path stroke="#5e127c" d="M17 17h1" />
<path stroke="#fc809a" d="M19 23h3M18 24h3M18 25h2" />
<path stroke="#0fff00" d="M20 35h2" />
</svg>