<svg xmlns="http://www.w3.org/2000/svg" viewBox="0 -0.5 40 40" shape-rendering="crispEdges">
<metadata>Made with Pixels to Svg https://codepen.io/shshaw/pen/XbxvNj</metadata>
<path stroke="#b3aeff" d="M0 0h10M12 0h9M25 0h8M35 0h5M0 1h11M13 1h7M25 1h6M35 1h5M0 2h11M14 2h5M25 2h4M35 2h5M0 3h12M15 3h4M24 3h4M35 3h5M0 4h13M16 4h2M24 4h3M34 4h6M0 5h14M24 5h2M34 5h6M0 6h13M24 6h1M33 6h7M0 7h12M32 7h8M0 8h11M31 8h9M0 9h10M31 9h9M0 10h10M30 10h10M0 11h11M31 11h9M0 12h11M32 12h8M0 13h11M33 13h7M0 14h11M34 14h6M0 15h10M35 15h5M0 16h9M36 16h4M0 17h9M37 17h3M0 18h8M38 18h2M0 19h7M39 19h1M0 20h6M0 21h6M0 22h7M0 23h8M10 23h2M0 24h14M0 25h15M0 26h15M0 27h7M9 27h7M0 28h6M10 28h7M0 29h5M11 29h7M0 30h4M11 30h7M0 31h3M12 31h5M0 32h3M13 32h3M0 33h2M8 33h1M13 33h3M0 34h2M8 34h1M14 34h1M0 35h10M0 36h10M0 37h11M0 38h11M0 39h12" />
<path stroke="#ffdf01" d="M10 0h1M13 2h1M15 4h1M14 5h2" />
<path stroke="#ffe900" d="M11 0h1M11 1h1M12 2h1M13 3h1M14 4h1M16 5h1M18 5h1M21 5h1M15 6h1M17 6h1M19 6h1M22 6h2M17 7h1M20 7h1M24 7h2M21 8h2M26 8h1M22 9h2M23 10h2M24 11h1M29 12h1M30 13h1M31 14h1M32 15h1M33 16h1M34 17h1M35 18h1M31 19h1M36 19h1M31 20h2M37 20h1M32 21h2M38 21h1M29 22h2M33 22h2M39 22h1M30 23h2M35 23h1M26 24h2M31 24h2M35 24h3M27 25h2M32 25h2M37 25h2M24 26h1M28 26h2M33 26h2M38 26h2M24 27h2M29 27h1M34 27h2M39 27h1M25 28h2M30 28h1M35 28h2M39 28h1M26 29h2M30 29h2M36 29h2M27 30h1M31 30h1M37 30h2M28 31h1M32 31h1M38 31h2M29 32h1M33 32h1M39 32h1M30 33h1M34 33h1M30 34h2M35 34h1M31 35h2M36 35h1M32 36h1M37 36h1M33 37h1M38 37h2M33 38h1M39 38h1M34 39h1" />
<path stroke="#c303f1" d="M21 0h1M24 0h1M20 1h1M24 1h1M19 2h1M24 2h1M19 3h1M23 3h1M22 31h1M21 32h1M26 32h1M20 33h1M22 35h1M20 36h2M14 37h1M19 37h2M14 38h1M19 38h1M14 39h1" />
<path stroke="#ffffff" d="M22 0h2M21 1h3M33 1h1M20 2h4M31 2h3M20 3h3M29 3h2M33 3h1M19 4h4M29 4h1M32 4h1M22 5h1M27 5h2M32 5h1M26 6h2M31 6h1M26 7h1M30 7h1M27 8h1M29 8h2M15 9h1M27 9h3M12 10h5M18 10h2M27 10h2M12 11h1M15 11h3M26 11h2M13 12h2M16 12h1M18 12h3M24 12h4M12 13h1M16 13h1M22 13h6M12 14h1M14 14h1M16 14h1M19 14h1M22 14h7M12 15h1M16 15h1M22 15h7M12 16h1M16 16h1M22 16h1M27 16h3M29 17h1M29 18h1M7 28h2M6 29h4M5 30h3M9 30h2M21 30h2M6 31h1M9 31h2M19 31h3M23 31h2M10 32h2M18 32h3M22 32h4M10 33h2M17 33h3M21 33h3M25 33h1M11 34h2M17 34h2M20 34h3M25 34h2M11 35h3M16 35h2M21 35h1M25 35h3M12 36h2M16 36h1M26 36h2M13 37h1M16 37h1M26 37h2M16 38h2M22 38h2M27 38h2M16 39h8M27 39h2" />
<path stroke="#c803f1" d="M33 0h2M31 1h2M34 1h1M29 2h2M34 2h1M28 3h1M34 3h1M27 4h2M33 4h1M26 5h1M33 5h1M25 6h1M32 6h1M30 9h1M30 20h1M7 27h2M5 29h1M4 30h1M18 30h1M17 31h1M8 32h1M16 32h1M9 33h1M16 33h1M9 34h1M15 34h1M19 34h1M14 35h2M15 36h1" />
<path stroke="#fffde4" d="M12 1h1M14 3h1M16 6h1" />
<path stroke="#d2b706" d="M11 2h1M12 3h1M13 4h1M14 6h1M15 7h1" />
<path stroke="#ffb2cb" d="M31 3h2M27 7h2" />
<path stroke="#be03f1" d="M18 4h1M23 30h1M26 33h1M24 36h1M24 37h1M18 38h1M25 38h1M25 39h1" />
<path stroke="#b803f1" d="M23 4h1M23 5h1M24 30h1M25 31h1M27 34h1M28 35h1M28 36h1M28 37h1M29 38h1M29 39h1" />
<path stroke="#ffb2ca" d="M30 4h2M29 5h3M28 6h3M29 7h1M28 8h1" />
<path stroke="#ff76ef" d="M17 5h1M18 6h1M18 7h1M20 9h2M24 9h1M21 10h2M25 10h1M22 11h1M25 11h1M31 17h1M32 18h1M32 19h2M33 20h2M34 21h2M35 22h2M36 23h2M28 24h1M27 28h1M28 29h1M35 32h1M31 33h1M35 33h3M32 34h1M36 34h3M33 35h1M37 35h3M34 36h1M38 36h2M34 37h2M35 38h1M35 39h2" />
<path stroke="#ff76f1" d="M19 5h1M13 6h1M20 6h1M12 7h1M14 7h1M21 7h2M11 8h1M15 8h1M10 9h2M16 9h1M10 10h1M17 10h1M23 11h1M29 11h2M23 12h1M30 12h2M31 13h2M32 14h2M33 15h2M34 16h2M35 17h2M36 18h2M37 19h1M38 24h1M39 25h1M23 28h1M24 29h1M37 39h1" />
<path stroke="#04e9fc" d="M20 5h1M18 8h1M19 9h1M26 9h1M20 10h1M26 10h1M21 11h1M22 12h1M36 20h1M36 21h1M28 23h2M25 25h1M36 25h1M36 26h2M37 27h2M24 28h1M37 28h2M25 29h1M35 29h1M29 30h1M36 30h1M36 31h2M28 32h1M32 32h1M36 32h3M28 33h1M32 33h1M38 33h2M29 34h1M39 34h1M30 35h1M30 36h2M31 37h2M36 37h2M36 38h3" />
<path stroke="#04e7fc" d="M21 6h1M23 7h1M24 8h2M25 9h1M29 13h1M30 14h1M30 15h2M31 16h2M32 17h2M33 18h2M34 19h2M35 20h1M30 21h2M31 22h2M32 23h3M29 24h2M33 24h2M26 25h1M30 25h2M34 25h2M26 26h2M31 26h2M35 26h1M27 27h2M31 27h3M36 27h1M28 28h2M32 28h3M29 29h1M33 29h2M26 30h1M30 30h1M34 30h2M27 31h1M30 31h2M35 31h1M31 32h1M29 33h1M33 33h1M33 34h2M34 35h2M35 36h2M32 38h1M32 39h2" />
<path stroke="#9d07c8" d="M13 7h1M12 8h1M8 30h1M7 31h1M7 32h1M6 33h2M24 33h1M23 34h1M18 35h2M23 35h1M17 36h2M17 37h1M20 38h1" />
<path stroke="#ffde01" d="M16 7h1M16 8h1" />
<path stroke="#ff76ed" d="M19 7h1M19 8h2M23 8h1M31 18h1M27 23h1M29 25h1M25 26h1M30 26h1M26 27h1M30 27h1M31 28h1M32 29h1M28 30h1M32 30h2M29 31h1M33 31h2M30 32h1M34 32h1M33 36h1M34 38h1" />
<path stroke="#d203f1" d="M31 7h1M29 10h1M28 11h1M28 12h1M5 34h1" />
<path stroke="#ffe0f8" d="M13 8h2M17 9h2M21 29h2M19 30h2M8 31h1M18 31h1M9 32h1M17 32h1M10 34h1M16 34h1M24 34h1M24 35h1M11 36h1M14 36h1M23 36h1M25 36h1M12 37h1M15 37h1M23 37h1M25 37h1M12 38h2M15 38h1M24 38h1M26 38h1M13 39h1M15 39h1M24 39h1M26 39h1" />
<path stroke="#ffdd01" d="M17 8h1" />
<path stroke="#9507c8" d="M12 9h3M11 11h1M11 12h1" />
<path stroke="#9907c8" d="M11 10h1" />
<path stroke="#000000" d="M13 11h2M18 11h3M12 12h1M15 12h1M17 12h1M21 12h1M11 13h1M15 13h1M17 13h1M21 13h1M11 14h1M15 14h1M17 14h1M20 14h2M10 15h2M14 15h2M17 15h1M19 15h3M9 16h1M11 16h1M14 16h2M17 16h1M19 16h3M23 16h4M9 17h1M12 17h1M15 17h3M19 17h4M27 17h2M8 18h8M17 18h1M20 18h2M24 18h2M28 18h1M7 19h1M16 19h5M26 19h1M29 19h1M6 20h1M9 20h4M25 20h1M27 20h1M29 20h1M6 21h1M8 21h1M13 21h4M24 21h1M29 21h1M7 22h1M10 22h3M14 22h1M17 22h8M27 22h2M8 23h2M12 23h2M15 23h1M23 23h1M26 23h1M14 24h1M16 24h1M23 24h1M25 24h1M15 25h1M17 25h1M22 25h1M24 25h1M15 26h1M17 26h1M21 26h1M23 26h1M16 27h1M18 27h3M22 27h1M17 28h1M21 28h2M18 29h3" />
<path stroke="#fba0d6" d="M13 13h2M18 13h3M13 14h1M18 14h1M13 15h1M18 15h1M13 16h1M18 16h1M14 17h1M19 18h1" />
<path stroke="#ce03f1" d="M28 13h1M29 14h1M29 15h1M30 16h1M30 17h1M30 18h1M30 19h1M6 28h1M9 28h1M10 29h1M23 29h1M11 31h1M6 32h1M12 32h1M5 33h1M12 33h1M4 34h1M13 34h1M10 35h1M10 36h1M11 37h1M11 38h1M12 39h1" />
<path stroke="#ff8a00" d="M10 16h1M10 17h2M23 17h4M16 18h1M22 18h2M26 18h2M8 19h8M21 19h5M27 19h2M7 20h2M13 20h12M26 20h1M28 20h1M7 21h1M9 21h4M17 21h7M25 21h4M8 22h2M13 22h1M25 22h2M14 23h1M24 23h2M15 24h1M24 24h1M16 25h1M23 25h1M16 26h1M22 26h1M17 27h1M21 27h1M18 28h3" />
<path stroke="#fac9e6" d="M13 17h1M18 18h1" />
<path stroke="#fba0d8" d="M18 17h1" />
<path stroke="#ff76f5" d="M38 19h1M38 20h2M39 21h1M25 30h1M26 31h1" />
<path stroke="#04ebfc" d="M37 21h1M37 22h2M38 23h2M39 24h1M23 27h1M38 29h2M39 30h1M31 38h1M38 39h2" />
<path stroke="#ff0000" d="M15 22h2M16 23h3M22 23h1M17 24h1M21 24h2M20 25h2M18 26h3" />
<path stroke="#fc809a" d="M19 23h3M18 24h3M18 25h2" />
<path stroke="#a207c8" d="M3 31h3M3 32h2M2 33h2M2 34h1M6 34h2M22 36h1M21 37h2M21 38h1" />
<path stroke="#df7cf7" d="M5 32h1M4 33h1M3 34h1" />
<path stroke="#ff76f6" d="M27 32h1M27 33h1M28 34h1M29 35h1M29 36h1M29 37h2M30 38h1M30 39h2" />
<path stroke="#dc7cf7" d="M20 35h1M19 36h1M18 37h1" />
</svg>