<svg xmlns="http://www.w3.org/2000/svg" viewBox="0 -0.5 40 40" shape-rendering="crispEdges">
<metadata>Made with Pixels to Svg https://codepen.io/shshaw/pen/XbxvNj</metadata>
<path stroke="#000000" d="M0 0h3M12 0h3M20 0h5M28 0h1M38 0h2M0 1h2M12 1h4M20 1h5M27 1h2M39 1h1M0 2h1M13 2h3M20 2h5M27 2h1M39 2h1M0 3h1M13 3h3M20 3h4M26 3h1M39 3h1M0 4h1M6 4h1M13 4h3M20 4h4M26 4h1M39 4h1M0 5h1M6 5h4M13 5h6M20 5h7M32 5h2M39 5h1M0 6h1M7 6h5M19 6h5M29 6h3M39 6h1M0 7h2M24 7h6M38 7h2M0 8h2M23 8h1M36 8h4M0 9h2M24 9h1M36 9h4M0 10h3M24 10h1M38 10h2M0 11h3M10 11h1M39 11h1M0 12h3M11 12h4M17 12h5M0 13h3M10 13h1M15 13h1M17 13h1M22 13h1M24 13h4M0 14h3M10 14h1M15 14h1M17 14h1M22 14h1M28 14h1M0 15h2M10 15h1M15 15h1M17 15h1M22 15h1M28 15h1M0 16h2M9 16h1M11 16h1M15 16h1M17 16h1M21 16h1M23 16h4M28 16h1M0 17h2M9 17h1M12 17h3M16 17h7M27 17h2M0 18h2M8 18h8M17 18h1M20 18h2M24 18h2M28 18h1M0 19h1M7 19h1M16 19h5M26 19h1M29 19h1M0 20h1M6 20h1M9 20h4M25 20h1M27 20h1M29 20h1M0 21h1M6 21h1M8 21h1M13 21h4M24 21h1M29 21h1M7 22h1M10 22h3M14 22h1M17 22h8M27 22h2M8 23h2M12 23h2M15 23h1M23 23h1M26 23h1M14 24h1M16 24h1M23 24h1M25 24h1M15 25h1M17 25h1M22 25h1M24 25h1M15 26h1M17 26h1M21 26h1M23 26h1M39 26h1M0 27h1M16 27h1M18 27h3M22 27h1M39 27h1M0 28h1M17 28h1M21 28h2M39 28h1M0 29h1M19 29h1M22 29h1M38 29h2M0 30h2M18 30h1M22 30h2M38 30h2M0 31h2M17 31h2M23 31h2M37 31h3M0 32h3M16 32h1M25 32h1M36 32h4M0 33h3M16 33h1M26 33h1M38 33h2M0 34h4M15 34h1M27 34h3M39 34h1M0 35h5M14 35h1M30 35h2M39 35h1M0 36h8M13 36h1M31 36h2M0 37h8M12 37h1M32 37h1M0 38h8M12 38h1M33 38h1M0 39h8M12 39h1M33 39h1" />
<path stroke="#090000" d="M3 0h1M37 0h1M2 1h1M38 1h1M38 6h1M37 7h1M37 10h1M38 11h1M39 12h1M2 15h1M1 19h1M0 22h1M39 25h1M38 28h1M36 31h1M37 33h1M38 34h1M39 36h1" />
<path stroke="#190000" d="M4 0h1M36 0h1M38 2h1M38 5h1M36 7h1M2 8h1M36 10h1M39 13h1M2 16h1M1 20h1M39 24h1M38 27h1M37 29h1M2 30h1M36 33h1M38 35h1M8 36h1" />
<path stroke="#290000" d="M5 0h1M35 0h1M2 7h1M39 14h1M2 17h1M1 21h1M39 23h1M38 26h1" />
<path stroke="#2f0000" d="M6 0h1M33 0h2M2 18h1M39 22h1M37 28h1M2 29h1M35 33h1M8 35h1" />
<path stroke="#300000" d="M7 0h1M35 8h1M35 9h1M3 10h1M3 11h1M3 12h1M3 13h1M3 14h1M39 15h1M39 16h1M39 17h1M39 18h1M39 19h1M39 20h1M39 21h1M38 36h1M8 39h1" />
<path stroke="#440000" d="M8 0h1" />
<path stroke="#8b0000" d="M9 0h1M9 34h1" />
<path stroke="#da0000" d="M10 0h1M5 9h1M5 15h1M4 19h1M9 33h1" />
<path stroke="#fb0000" d="M11 0h1M7 3h1M32 7h1M32 8h1M6 9h1M32 9h1M32 10h1M34 13h1M36 16h1M36 17h1M36 18h1M5 19h1M36 19h1M36 20h1M36 21h1M9 32h1M31 32h1M12 35h1M34 36h1M35 37h1" />
<path stroke="#3c3c3e" d="M15 0h1M19 0h1M25 0h3M16 1h1M19 1h1M25 1h2M16 2h1M19 2h1M25 2h2M16 3h1M19 3h1M24 3h2M7 4h2M16 4h1M19 4h1M24 4h2M32 4h3M10 5h3M19 5h1M30 5h2M12 6h7M24 6h5M17 7h7" />
<path stroke="#77777b" d="M16 0h1" />
<path stroke="#96969a" d="M17 0h1M17 1h1M17 2h1M17 3h1M17 4h1" />
<path stroke="#e4dada" d="M18 0h1M18 1h1M18 2h1M18 3h1M18 4h1M23 34h1M22 37h1M21 38h1" />
<path stroke="#fa0000" d="M29 0h1M6 3h1M33 3h2M6 10h1M6 12h1M6 13h1M6 14h1M36 15h1M36 22h1M35 25h1M5 28h1M11 39h1" />
<path stroke="#d70000" d="M30 0h1M6 2h1M33 2h2M4 6h1M37 15h1M3 22h1M37 22h1M3 26h1" />
<path stroke="#860000" d="M31 0h1M7 1h1M34 8h1M34 9h1M38 16h1M38 17h1M38 18h1M38 19h1M38 20h1M38 21h1" />
<path stroke="#3f0000" d="M32 0h1M35 7h1M35 10h1" />
<path stroke="#220000" d="M3 1h1M2 2h1M37 6h1M36 30h1M35 31h1" />
<path stroke="#4d0000" d="M4 1h1M2 5h1M37 5h1M36 6h1M1 23h1M36 29h1" />
<path stroke="#740000" d="M5 1h1M3 7h1M3 17h1M2 21h1M38 23h1M37 26h1M2 27h1M9 37h1" />
<path stroke="#840000" d="M6 1h1M33 1h2M38 15h1M38 22h1" />
<path stroke="#8d0000" d="M8 1h1" />
<path stroke="#b00000" d="M9 1h1M34 11h1" />
<path stroke="#e40000" d="M10 1h1M9 2h1M33 6h1M10 33h1M11 34h1" />
<path stroke="#fc0000" d="M11 1h1M8 3h1M5 4h1M5 5h1M32 6h1M6 8h1M32 11h1M6 16h1M5 20h1M4 23h1M35 24h1M4 25h1M31 31h1M10 32h1M31 33h1M12 34h1M12 36h1" />
<path stroke="#f40000" d="M29 1h1M32 3h1M32 34h1M36 38h1" />
<path stroke="#cb0000" d="M30 1h1" />
<path stroke="#8e0000" d="M31 1h1M3 3h1M33 32h1" />
<path stroke="#7c0000" d="M32 1h1M35 11h1" />
<path stroke="#750000" d="M35 1h1M38 14h1M39 39h1" />
<path stroke="#4e0000" d="M36 1h1M37 2h1M36 11h1M38 13h1M36 34h1M37 35h1M39 38h1" />
<path stroke="#230000" d="M37 1h1M37 11h1M38 12h1M37 34h1M39 37h1" />
<path stroke="#080000" d="M1 2h1M1 6h1M2 9h1M0 26h1M1 29h1M37 30h1M2 31h1M3 33h1M4 34h1M5 35h1" />
<path stroke="#530000" d="M3 2h1M35 30h1" />
<path stroke="#920000" d="M4 2h1M35 29h1M5 32h1M6 33h1" />
<path stroke="#c40000" d="M5 2h1M35 2h1M5 31h1" />
<path stroke="#d90000" d="M7 2h1M33 8h1M33 9h1M37 16h1M37 17h1M37 18h1M37 19h1M37 20h1M37 21h1" />
<path stroke="#db0000" d="M8 2h1M33 7h1M11 35h1" />
<path stroke="#f60000" d="M10 2h1" />
<path stroke="#fe0000" d="M11 2h1M10 3h1M28 3h1M29 4h1M6 7h1M6 17h1M5 21h1M35 23h1M34 26h1M6 29h1M31 30h1M11 32h1M12 33h1M31 34h1M33 36h1M35 38h1" />
<path stroke="#ff0000" d="M12 2h1M11 3h2M27 3h1M9 4h4M27 4h2M27 5h3M6 6h1M7 7h3M30 7h2M7 8h2M30 8h2M7 9h2M31 9h1M7 11h1M7 12h1M7 13h1M8 14h1M7 15h1M34 15h1M7 16h1M33 16h3M7 17h1M34 17h2M6 18h1M35 18h1M6 19h1M34 19h1M35 20h1M33 21h1M5 22h1M15 22h2M34 22h1M5 23h1M7 23h1M16 23h3M22 23h1M32 23h1M34 23h1M6 24h1M17 24h1M21 24h2M33 24h1M5 25h2M8 25h1M20 25h2M34 25h1M5 26h1M7 26h1M18 26h3M6 27h2M10 27h1M32 27h2M6 28h1M23 28h1M31 28h2M8 29h1M12 29h1M18 29h1M23 29h1M25 29h1M29 29h2M7 30h2M10 30h2M17 30h1M24 30h1M30 30h1M9 31h2M12 31h2M15 31h1M25 31h1M28 31h2M12 32h3M26 32h2M29 32h2M13 33h3M27 33h4M13 34h1M30 34h1M13 35h1M33 37h2M34 38h1M34 39h2" />
<path stroke="#fd0000" d="M28 2h1M9 3h1M30 4h2M35 14h1M4 24h1M33 28h1M32 29h1M7 31h1M32 35h1M36 39h1" />
<path stroke="#ee0000" d="M29 2h1M35 3h1" />
<path stroke="#c80000" d="M30 2h1M32 2h1" />
<path stroke="#b30000" d="M31 2h1" />
<path stroke="#910000" d="M36 2h1M36 35h1" />
<path stroke="#170000" d="M1 3h1M0 23h1M0 25h1" />
<path stroke="#490000" d="M2 3h1" />
<path stroke="#cd0000" d="M4 3h1" />
<path stroke="#ef0000" d="M5 3h1M6 31h1M7 32h1" />
<path stroke="#f70000" d="M29 3h1M33 12h1" />
<path stroke="#e90000" d="M30 3h1" />
<path stroke="#e60000" d="M31 3h1M4 4h1M33 11h1" />
<path stroke="#c20000" d="M36 3h1" />
<path stroke="#720000" d="M37 3h1M37 4h1" />
<path stroke="#280000" d="M38 3h1M38 4h1M1 27h1M8 37h1" />
<path stroke="#1f0000" d="M1 4h1" />
<path stroke="#5f0000" d="M2 4h1" />
<path stroke="#ad0000" d="M3 4h1" />
<path stroke="#ed0000" d="M35 4h1" />
<path stroke="#c10000" d="M36 4h1" />
<path stroke="#160000" d="M1 5h1" />
<path stroke="#9c0000" d="M3 5h1" />
<path stroke="#e10000" d="M4 5h1M34 5h1M3 23h1M3 25h1M35 27h1" />
<path stroke="#c50000" d="M35 5h1M4 7h1M37 14h1M4 17h1M3 21h1M37 23h1M36 26h1M3 27h1M35 28h1M10 37h1M38 39h1" />
<path stroke="#900000" d="M36 5h1" />
<path stroke="#350000" d="M2 6h1M3 9h1M1 22h1M38 25h1" />
<path stroke="#870000" d="M3 6h1M2 22h1M2 26h1" />
<path stroke="#f90000" d="M5 6h1M5 18h1M4 22h1M4 26h1M8 32h1M11 38h1" />
<path stroke="#ae0000" d="M34 6h1" />
<path stroke="#7b0000" d="M35 6h1" />
<path stroke="#f20000" d="M5 7h1M35 13h1M5 17h1M4 21h1M36 23h1M35 26h1M4 27h1M11 37h1" />
<path stroke="#130030" d="M10 7h2M9 8h2M15 8h1M18 8h1M24 8h3M12 9h1M21 9h1M25 9h1M28 9h2M25 10h1M30 10h2M8 11h1M20 11h1M26 11h1M30 11h2M8 12h2M31 12h2M28 13h1M32 13h2M7 14h1M9 14h1M25 14h1M27 14h1M33 14h2M6 15h1M8 15h2M32 15h2M8 16h1M31 16h2M32 17h2M7 18h1M29 18h1M34 18h1M31 19h3M35 19h1M32 20h2M32 21h1M34 21h2M6 22h1M29 22h1M31 22h3M6 23h1M10 23h2M27 23h1M31 23h1M33 23h1M5 24h1M7 24h3M31 24h2M34 24h1M7 25h1M14 25h1M31 25h3M8 26h1M30 26h1M32 26h2M5 27h1M8 27h2M15 27h1M23 27h1M30 27h2M34 27h1M8 28h1M15 28h1M24 28h1M29 28h2M15 29h2M24 29h1M26 29h3M31 29h1M6 30h1M9 30h1M14 30h3M25 30h5M14 31h1M16 31h1M26 31h1M30 31h1M15 32h1M28 32h1M14 34h1" />
<path stroke="#0e0026" d="M12 7h1M14 7h3M11 8h2M14 8h1M27 8h3M9 9h3M7 10h3M26 10h1M9 11h1M28 11h1M28 12h2M9 13h1M29 13h1M29 14h1M29 15h1M29 16h1M29 17h3M30 18h1M28 23h3M10 24h4M26 24h5M9 25h5M25 25h5M9 26h6M24 26h6M11 27h4M24 27h3M28 27h2M9 28h6M26 28h2M7 29h1M9 29h2M13 29h2M12 30h2M11 31h1" />
<path stroke="#0d0026" d="M13 7h1M13 8h1M20 8h2M14 9h1M10 10h2M13 10h1M15 10h1M16 11h1M25 11h1M25 12h1M30 13h1M30 14h3M26 15h1M30 15h1M31 18h2M30 19h1M30 20h2M30 21h1M30 22h1M25 28h1M8 31h1" />
<path stroke="#8c0000" d="M34 7h1M34 10h1" />
<path stroke="#500000" d="M3 8h1M2 28h1M3 30h1" />
<path stroke="#a00000" d="M4 8h1M4 16h1M3 20h1M10 36h1" />
<path stroke="#e20000" d="M5 8h1M34 12h1M5 16h1M4 20h1M34 35h1M11 36h1M36 37h1" />
<path stroke="#140030" d="M16 8h2M19 8h1M22 8h1M17 9h1M20 9h1M23 9h1M18 10h1M21 10h1" />
<path stroke="#890000" d="M4 9h1M4 15h1M3 19h1" />
<path stroke="#eee9e9" d="M13 9h1M16 9h1M19 9h1M22 9h1M23 14h2M26 14h1M16 15h1M18 18h2M20 29h1M19 30h1M19 31h1M19 32h1" />
<path stroke="#ffffff" d="M15 9h1M18 9h1M12 10h1M14 10h1M16 10h2M19 10h2M22 10h2M11 11h5M17 11h3M21 11h4M23 12h2M16 13h1M23 15h3M27 15h1M16 16h1M27 16h1M20 30h2M20 31h3M20 32h3M30 38h2M29 39h2M32 39h1" />
<path stroke="#400076" d="M26 9h1M27 11h1M29 11h1M30 12h1M31 13h1M30 16h1M33 18h1M31 21h1" />
<path stroke="#110030" d="M27 9h1M27 10h3M26 12h2M16 28h1M17 29h1" />
<path stroke="#3f0076" d="M30 9h1M6 11h1M8 13h1M31 15h1M35 15h1M8 17h1M34 20h1M35 22h1M30 25h1M6 26h1M31 26h1M27 27h1M7 28h1M28 28h1M11 29h1M27 31h1" />
<path stroke="#850000" d="M4 10h1M4 11h1M4 12h1M4 13h1M4 14h1M9 39h1" />
<path stroke="#d80000" d="M5 10h1M5 11h1M5 12h1M5 13h1M5 14h1M36 25h1M10 39h1" />
<path stroke="#dc0000" d="M33 10h1M32 32h1" />
<path stroke="#2f2d2d" d="M10 12h1M15 12h2M22 12h1M23 13h1M16 14h1M22 16h1M15 17h1" />
<path stroke="#c60000" d="M35 12h1M4 29h1" />
<path stroke="#930000" d="M36 12h1M37 13h1" />
<path stroke="#540000" d="M37 12h1" />
<path stroke="#370230" d="M11 13h1M13 13h2M18 13h1M20 13h2M12 14h3M19 14h3M11 15h3M18 15h3M12 16h1M14 16h1M18 16h2" />
<path stroke="#eb00d3" d="M12 13h1M11 14h1" />
<path stroke="#eb00d0" d="M19 13h1M18 14h1" />
<path stroke="#d00000" d="M36 13h1M33 30h1" />
<path stroke="#f10000" d="M36 14h1M5 29h1M33 29h1" />
<path stroke="#360000" d="M3 15h1M2 19h1" />
<path stroke="#58014d" d="M14 15h1M21 15h1M13 16h1M20 16h1" />
<path stroke="#510000" d="M3 16h1M2 20h1M38 24h1M37 27h1M9 36h1" />
<path stroke="#ff8a00" d="M10 16h1M10 17h2M23 17h4M16 18h1M22 18h2M26 18h2M8 19h8M21 19h5M27 19h2M7 20h2M13 20h12M26 20h1M28 20h1M7 21h1M9 21h4M17 21h7M25 21h4M8 22h2M13 22h1M25 22h2M14 23h1M24 23h2M15 24h1M24 24h1M16 25h1M23 25h1M16 26h1M22 26h1M17 27h1M21 27h1M18 28h3" />
<path stroke="#830000" d="M3 18h1M8 34h1M9 38h1" />
<path stroke="#d60000" d="M4 18h1M10 38h1" />
<path stroke="#9d0000" d="M2 23h1M2 25h1" />
<path stroke="#fc809a" d="M19 23h3M18 24h3M18 25h2" />
<path stroke="#200000" d="M0 24h1" />
<path stroke="#600000" d="M1 24h1" />
<path stroke="#af0000" d="M2 24h1M10 34h1" />
<path stroke="#e80000" d="M3 24h1" />
<path stroke="#e30000" d="M36 24h1M32 31h1M32 33h1" />
<path stroke="#a10000" d="M37 24h1" />
<path stroke="#4c0000" d="M1 25h1M4 32h1" />
<path stroke="#880000" d="M37 25h1" />
<path stroke="#340000" d="M1 26h1" />
<path stroke="#9f0000" d="M36 27h1" />
<path stroke="#180000" d="M1 28h1M3 32h1M6 35h1" />
<path stroke="#9e0000" d="M3 28h1M4 30h1" />
<path stroke="#df0000" d="M4 28h1M5 30h1" />
<path stroke="#f00000" d="M34 28h1M35 36h1M37 39h1" />
<path stroke="#780000" d="M36 28h1M3 29h1" />
<path stroke="#f5f5f5" d="M21 29h1" />
<path stroke="#ce0000" d="M34 29h1M6 32h1" />
<path stroke="#f30000" d="M32 30h1" />
<path stroke="#940000" d="M34 30h1" />
<path stroke="#2e0000" d="M3 31h1M8 38h1" />
<path stroke="#760000" d="M4 31h1" />
<path stroke="#a30000" d="M33 31h1M34 34h1" />
<path stroke="#570000" d="M34 31h1M38 37h1" />
<path stroke="#848080" d="M17 32h1M20 35h1M21 36h1M20 37h1M20 39h1" />
<path stroke="#1b1a1a" d="M18 32h1M23 32h2M17 33h1M19 33h5M25 33h1M16 34h3M20 34h3M24 34h3M15 35h5M21 35h1M23 35h7M14 36h7M22 36h9M13 37h7M23 37h9M13 38h5M25 38h5M13 39h4M18 39h2M24 39h1M26 39h3" />
<path stroke="#3b0000" d="M34 32h1" />
<path stroke="#0d0000" d="M35 32h1" />
<path stroke="#210000" d="M4 33h1M5 34h1" />
<path stroke="#520000" d="M5 33h1" />
<path stroke="#c30000" d="M7 33h1" />
<path stroke="#d50000" d="M8 33h1" />
<path stroke="#f50000" d="M11 33h1M33 35h1" />
<path stroke="#b0a9a9" d="M18 33h1M24 33h1M19 34h1M22 35h1M21 37h1M21 39h2" />
<path stroke="#a50000" d="M33 33h1" />
<path stroke="#5b0000" d="M34 33h1" />
<path stroke="#4b0000" d="M6 34h1" />
<path stroke="#730000" d="M7 34h1" />
<path stroke="#d30000" d="M33 34h1" />
<path stroke="#790000" d="M35 34h1M37 36h1" />
<path stroke="#270000" d="M7 35h1" />
<path stroke="#470000" d="M9 35h1" />
<path stroke="#8f0000" d="M10 35h1" />
<path stroke="#c70000" d="M35 35h1M36 36h1" />
<path stroke="#a20000" d="M37 37h1" />
<path stroke="#b20404" d="M18 38h2M23 38h2M17 39h1M23 39h1M25 39h1" />
<path stroke="#6c6767" d="M20 38h1M22 38h1" />
<path stroke="#006174" d="M32 38h1" />
<path stroke="#d10000" d="M37 38h1" />
<path stroke="#950000" d="M38 38h1" />
<path stroke="#006074" d="M31 39h1" />
</svg>