<svg xmlns="http://www.w3.org/2000/svg" viewBox="0 -0.5 40 40" shape-rendering="crispEdges">
<metadata>Made with Pixels to Svg https://codepen.io/shshaw/pen/XbxvNj</metadata>
<path stroke="#ffa200" d="M0 0h3M36 0h4M0 1h2M37 1h3M0 2h1M38 2h2M39 3h1M39 4h1M39 35h1M0 36h1M38 36h2M0 37h2M37 37h3M0 38h3M37 38h3M0 39h4M36 39h4" />
<path stroke="#ffa300" d="M3 0h2M35 0h1M2 1h1M36 1h1M1 2h1M37 2h1M0 3h1M38 3h1M38 4h1M39 5h1M39 34h1M0 35h1M38 35h1M1 36h1M37 36h1M2 37h1M36 37h1M3 38h1M36 38h1M4 39h1M35 39h1" />
<path stroke="#ffa400" d="M5 0h1M34 0h1M3 1h1M37 3h1M39 6h1M39 33h1M35 38h1" />
<path stroke="#ffa600" d="M6 0h1M33 0h1M4 1h1M39 31h1M2 36h1M36 36h1M3 37h1M4 38h1M5 39h1" />
<path stroke="#ffa900" d="M7 0h1M32 0h1M5 1h1M36 3h1M39 30h1M34 38h1" />
<path stroke="#ffae00" d="M8 0h1M31 0h1M6 1h1M33 1h1M39 10h1M39 29h1M0 31h1M34 37h1" />
<path stroke="#ffb400" d="M9 0h1M30 0h1M5 2h1M2 4h1M0 7h1M39 11h1M39 28h1" />
<path stroke="#ffbb00" d="M10 0h1M0 28h1" />
<path stroke="#000000" d="M11 0h4M10 1h1M15 1h4M21 1h3M9 2h1M19 2h6M8 3h1M25 3h5M7 4h1M30 4h2M7 5h1M14 5h9M32 5h1M7 6h1M13 6h12M33 6h1M8 7h2M12 7h14M34 7h1M9 8h4M23 8h4M34 8h1M11 9h3M18 9h4M24 9h4M34 9h1M10 10h1M22 10h1M25 10h3M34 10h1M10 11h1M13 11h2M18 11h3M26 11h3M33 11h1M10 12h1M12 12h1M15 12h1M17 12h1M21 12h1M27 12h7M11 13h1M15 13h1M17 13h1M21 13h1M28 13h1M32 13h2M11 14h1M15 14h1M17 14h1M20 14h2M28 14h1M32 14h3M10 15h2M14 15h2M17 15h1M19 15h3M28 15h1M33 15h3M9 16h1M11 16h1M14 16h2M17 16h1M19 16h3M23 16h4M28 16h1M34 16h1M9 17h1M12 17h1M14 17h4M19 17h4M27 17h2M8 18h8M17 18h1M20 18h2M24 18h2M28 18h1M7 19h1M16 19h5M26 19h1M29 19h1M6 20h1M9 20h4M25 20h1M27 20h1M29 20h1M6 21h1M8 21h1M13 21h4M24 21h1M29 21h1M7 22h1M11 22h1M14 22h1M17 22h8M27 22h2M8 23h1M23 23h1M26 23h1M14 24h1M23 24h1M25 24h1M6 25h2M15 25h1M17 25h1M22 25h1M24 25h1M5 26h1M8 26h1M15 26h1M17 26h1M21 26h1M23 26h1M5 27h1M8 27h1M16 27h1M18 27h3M22 27h1M5 28h1M8 28h1M17 28h1M21 28h2M3 29h4M9 29h1M15 29h6M22 29h4M2 30h1M7 30h1M9 30h1M14 30h1M18 30h1M22 30h1M26 30h1M2 31h6M9 31h1M13 31h1M19 31h3M27 31h1M2 32h1M7 32h1M9 32h1M13 32h1M16 32h1M18 32h1M22 32h1M24 32h1M27 32h1M2 33h6M9 33h1M13 33h1M17 33h2M22 33h2M27 33h1M2 34h1M7 34h2M14 34h1M16 34h1M18 34h1M22 34h1M24 34h1M26 34h3M3 35h5M9 35h1M13 35h1M19 35h3M27 35h1M29 35h1M6 36h1M8 36h1M10 36h1M13 36h1M18 36h1M22 36h1M27 36h1M30 36h1M7 37h1M11 37h2M14 37h1M18 37h1M22 37h1M26 37h1M31 37h1M8 38h1M12 38h1M15 38h3M23 38h3M28 38h1M31 38h1M9 39h1M13 39h1M28 39h2M32 39h1" />
<path stroke="#ffea00" d="M15 0h1M24 0h1M25 2h1M6 6h1M4 8h1M3 12h1M35 12h1M2 14h1M0 15h1M36 15h1M36 16h1M37 18h1M39 19h1M39 21h1M37 22h1M0 23h1M2 24h1M36 24h1M3 26h1M35 27h1M4 28h1M34 29h1M34 30h1M31 34h1M30 35h1" />
<path stroke="#ffeb00" d="M16 0h8M19 1h2M24 1h1M5 7h3M5 8h4M4 9h7M4 10h6M4 11h6M34 11h1M4 12h6M34 12h1M3 13h8M29 13h3M34 13h2M3 14h8M29 14h3M35 14h1M1 15h9M29 15h4M0 16h9M29 16h5M35 16h1M0 17h9M29 17h8M0 18h8M29 18h8M0 19h7M30 19h9M0 20h6M30 20h10M0 21h6M30 21h9M0 22h7M29 22h8M1 23h7M11 23h1M27 23h10M3 24h11M26 24h10M3 25h3M8 25h7M25 25h11M4 26h1M9 26h6M24 26h12M4 27h1M9 27h7M23 27h12M9 28h8M23 28h12M10 29h5M26 29h8M10 30h4M27 30h7M10 31h3M28 31h6M10 32h3M28 32h5M10 33h3M28 33h4M9 34h5M29 34h2M10 35h3M11 36h2" />
<path stroke="#ffe600" d="M25 0h1M27 2h1M3 8h1M2 12h1M36 12h1M0 14h1M37 16h1M39 18h1M39 22h1M0 24h1M37 24h1M36 27h1M32 34h1" />
<path stroke="#ffdd00" d="M26 0h1M2 8h1M1 12h1M37 12h1M0 13h1M38 16h1M39 17h1M39 23h1M38 24h1M0 25h1M37 27h1M34 33h1" />
<path stroke="#ffd000" d="M27 0h1M3 5h1M0 26h1" />
<path stroke="#ffc500" d="M28 0h1M1 7h1M38 11h1M38 28h1" />
<path stroke="#ffbc00" d="M29 0h1M33 2h1M4 3h1M1 6h1M33 37h1" />
<path stroke="#ffb500" d="M7 1h1M32 1h1M0 29h1M38 30h1M36 34h1M4 36h1M5 37h1" />
<path stroke="#ffbd00" d="M8 1h1M31 1h1M6 2h1M35 4h1M38 10h1M38 29h1" />
<path stroke="#ffc600" d="M9 1h1M30 1h1M7 2h1M32 2h1M5 3h1M0 11h1M39 25h1" />
<path stroke="#0667f9" d="M11 1h4M10 2h9M10 3h11M24 3h1M10 4h11M26 4h3M11 5h3M28 5h3M29 6h3M29 7h4M30 8h3M28 9h1M31 9h2M28 10h1M31 10h2M29 11h3" />
<path stroke="#ffe800" d="M25 1h1M3 9h1M2 13h1M36 13h1M37 17h1M37 23h1M1 24h1M2 25h1M36 26h1M34 31h1" />
<path stroke="#ffe300" d="M26 1h1M30 3h1M5 5h1M33 5h1M3 7h1M36 11h1M1 13h1M37 14h1M38 17h1M38 23h1M1 25h1M37 25h1M36 28h1M31 36h1" />
<path stroke="#ffdc00" d="M27 1h1M4 5h1M1 26h1" />
<path stroke="#ffd500" d="M28 1h1M38 14h1M1 27h1" />
<path stroke="#ffce00" d="M29 1h1M1 28h1M32 37h1" />
<path stroke="#ffa800" d="M34 1h1M3 2h1M0 5h1M38 6h1M0 33h1M38 33h1" />
<path stroke="#ffa500" d="M35 1h1M2 2h1M36 2h1M1 3h1M0 4h1M38 5h1M39 7h1M39 32h1M0 34h1M38 34h1M1 35h1M37 35h1M34 39h1" />
<path stroke="#ffad00" d="M4 2h1M0 6h1" />
<path stroke="#ffcf00" d="M8 2h1M31 2h1M6 3h1M37 10h1M37 29h1" />
<path stroke="#ffe900" d="M26 2h1M5 6h1M4 7h1M3 10h1M3 11h1M35 11h1M1 14h1M36 14h1M38 18h1M38 22h1M36 25h1M3 27h1M35 28h1M33 32h1M32 33h1" />
<path stroke="#ffe200" d="M28 2h1M32 4h1M2 10h1M2 27h1" />
<path stroke="#ffde00" d="M29 2h1M31 3h1M6 4h1M2 28h1M36 29h1M33 34h1" />
<path stroke="#ffd700" d="M30 2h1M7 3h1M32 3h1M5 4h1M34 5h1M2 7h1M1 11h1M37 11h1M38 25h1M37 28h1M32 36h1" />
<path stroke="#ffb200" d="M34 2h1M3 3h1M35 3h1M1 5h1M37 6h1M37 33h1" />
<path stroke="#ffaa00" d="M35 2h1M2 3h1M1 4h1M39 9h1M1 34h1M37 34h1" />
<path stroke="#0658d1" d="M9 3h1M8 4h2M8 5h3M8 6h5M10 7h2" />
<path stroke="#0669f9" d="M21 3h3M21 4h5M23 5h5M25 6h4M26 7h3M27 8h3M29 9h2M29 10h2M28 35h1M9 36h1M19 36h3M28 36h2M8 37h3M13 37h1M19 37h3M27 37h4M9 38h3M13 38h2M18 38h5M26 38h2M29 38h2M10 39h3M14 39h14M30 39h2" />
<path stroke="#ffcc00" d="M33 3h1M36 7h1" />
<path stroke="#ffbf00" d="M34 3h1" />
<path stroke="#ffc100" d="M3 4h1M2 5h1M37 8h1M0 10h1M37 31h1M36 33h1" />
<path stroke="#ffcd00" d="M4 4h1M34 4h1M2 6h1M1 8h1M38 12h1M38 27h1" />
<path stroke="#2079fc" d="M29 4h1M31 5h1M32 6h1M33 7h1M33 8h1M33 9h1M33 10h1M32 11h1" />
<path stroke="#ffda00" d="M33 4h1M2 29h1" />
<path stroke="#ffaf00" d="M36 4h1" />
<path stroke="#ffa700" d="M37 4h1M39 8h1M35 37h1" />
<path stroke="#ffe700" d="M6 5h1M35 10h1M3 28h1M35 29h1M31 35h1" />
<path stroke="#ffc800" d="M35 5h1M37 9h1M1 29h1" />
<path stroke="#ffb700" d="M36 5h1M34 36h1" />
<path stroke="#ffab00" d="M37 5h1M0 32h1M2 35h1M36 35h1M3 36h1M4 37h1M5 38h1" />
<path stroke="#ffdb00" d="M3 6h1M35 7h1M35 32h1" />
<path stroke="#ffe400" d="M4 6h1M2 11h1M37 15h1" />
<path stroke="#ffdf00" d="M34 6h1M36 10h1" />
<path stroke="#ffd200" d="M35 6h1M38 13h1M34 34h1" />
<path stroke="#ffc200" d="M36 6h1M39 14h1M1 30h1M32 38h1" />
<path stroke="#ffb900" d="M37 7h1M0 8h1M1 32h1M37 32h1M7 39h1" />
<path stroke="#ffac00" d="M38 7h1M38 32h1M35 36h1M6 39h1M33 39h1" />
<path stroke="#ffffff" d="M13 8h10M14 9h4M22 9h2M11 10h11M23 10h2M11 11h2M15 11h3M21 11h5M11 12h1M16 12h1M22 12h5M16 13h1M22 13h6M14 14h1M16 14h1M19 14h1M22 14h6M16 15h1M22 15h6M16 16h1M22 16h1M27 16h1M9 22h2M12 22h2M9 23h2M12 23h2M15 23h2M18 23h2M21 23h2M15 24h2M18 24h2M21 24h2M6 26h2M18 26h1M20 26h1M6 27h2M6 28h2M8 29h1M21 29h1M3 30h4M8 30h1M20 30h2M8 31h1M3 32h4M8 32h1M3 34h4M8 35h1M7 36h1" />
<path stroke="#ffe100" d="M35 8h1M2 9h1M37 13h1M37 26h1M35 31h1" />
<path stroke="#ffd300" d="M36 8h1M38 26h1M36 31h1M33 35h1" />
<path stroke="#ffb000" d="M38 8h1M38 31h1" />
<path stroke="#ffbe00" d="M0 9h1M39 13h1M1 31h1" />
<path stroke="#ffd100" d="M1 9h1M0 12h1M39 16h1M39 24h1M35 33h1" />
<path stroke="#ffe500" d="M35 9h1M2 26h1M35 30h1M34 32h1M33 33h1" />
<path stroke="#ffd900" d="M36 9h1M36 30h1" />
<path stroke="#ffb600" d="M38 9h1M35 35h1M6 38h1" />
<path stroke="#ffd400" d="M1 10h1" />
<path stroke="#c3d9f9" d="M13 12h2M18 12h3M12 13h3M18 13h3M12 14h2M18 14h1M12 15h2M18 15h1M12 16h2M18 16h1M13 17h1M18 17h1M18 18h2" />
<path stroke="#ffba00" d="M39 12h1M39 27h1" />
<path stroke="#ffd800" d="M38 15h1" />
<path stroke="#ffc700" d="M39 15h1M37 30h1M33 36h1" />
<path stroke="#ff8a00" d="M10 16h1M10 17h2M23 17h4M16 18h1M22 18h2M26 18h2M8 19h8M21 19h5M27 19h2M7 20h2M13 20h12M26 20h1M28 20h1M7 21h1M11 21h1M17 21h7M25 21h4M8 22h1M25 22h2M14 23h1M24 23h2M24 24h1M16 25h1M23 25h1M16 26h1M22 26h1M17 27h1M21 27h1M18 28h3" />
<path stroke="#ffcccc" d="M9 21h2M12 21h1M15 22h2" />
<path stroke="#ff0000" d="M17 23h1M17 24h1M20 25h2M19 26h1M15 30h3M23 30h3M14 31h4M23 31h4M14 32h2M17 32h1M20 32h2M23 32h1M25 32h2M14 33h3M20 33h2M24 33h3M15 34h1M25 34h1M15 35h3M23 35h4M15 36h3M24 36h3" />
<path stroke="#fc809a" d="M20 23h1M20 24h1M18 25h2" />
<path stroke="#ffc000" d="M39 26h1" />
<path stroke="#ffc400" d="M0 27h1M34 35h1M7 38h1" />
<path stroke="#f0eded" d="M7 29h1M19 30h1M8 33h1" />
<path stroke="#ffb100" d="M0 30h1M1 33h1" />
<path stroke="#d80707" d="M18 31h1M22 31h1M19 32h1M19 33h1M17 34h1M19 34h3M23 34h1M14 35h1M18 35h1M22 35h1M14 36h1M23 36h1M15 37h3M23 37h3" />
<path stroke="#ffcb00" d="M36 32h1" />
<path stroke="#ffc300" d="M35 34h1M5 36h1M6 37h1" />
<path stroke="#ffe000" d="M32 35h1" />
<path stroke="#ffb300" d="M33 38h1" />
<path stroke="#ffca00" d="M8 39h1" />
</svg>