<svg xmlns="http://www.w3.org/2000/svg" viewBox="0 -0.5 40 40" shape-rendering="crispEdges">
<metadata>Made with Pixels to Svg https://codepen.io/shshaw/pen/XbxvNj</metadata>
<path stroke="#9e0000" d="M0 0h1M39 0h1M4 27h1M6 30h1M7 31h1M8 32h1M39 34h1M38 35h2M37 36h2M36 37h1M35 38h1M34 39h1" />
<path stroke="#9f0000" d="M1 0h1M38 0h1M0 1h1M39 1h1M0 2h1M3 25h1M8 31h1M39 33h1M12 34h1M38 34h1M37 35h1M36 36h1M35 37h1M34 38h1" />
<path stroke="#a30000" d="M2 0h1M37 0h1M38 1h1M39 2h1M0 3h1M1 22h1M4 26h1M39 32h1M12 33h1M38 33h1M37 34h1M36 35h1M35 36h1M34 37h1" />
<path stroke="#ab0000" d="M3 0h1M1 3h1M9 30h1M12 32h1" />
<path stroke="#ba0000" d="M4 0h1M2 3h1" />
<path stroke="#ca0000" d="M5 0h1M34 0h1" />
<path stroke="#d20000" d="M6 0h1M33 0h1M37 27h1" />
<path stroke="#d60000" d="M7 0h4M27 0h6M7 1h4M28 1h5M6 2h6M29 2h5M5 3h6M30 3h5M5 4h6M30 4h6M4 5h6M31 5h5M4 6h5M31 6h6M3 7h6M31 7h6M3 8h6M31 8h7M3 9h6M31 9h9M3 10h6M31 10h9M3 11h7M32 11h8M3 12h7M32 12h8M3 13h7M33 13h7M3 14h6M33 14h7M3 15h7M33 15h7M3 16h6M33 16h7M4 17h5M33 17h7M4 18h4M33 18h7M4 19h3M32 19h8M5 20h1M31 20h9M5 21h1M30 21h10M6 22h1M29 22h11M7 23h1M10 23h2M27 23h13M8 24h6M26 24h14M8 25h7M25 25h13M9 26h6M24 26h13M11 27h5M23 27h14M12 28h5M23 28h14M14 29h4M23 29h13M15 30h2M25 30h11M26 31h9M27 32h7M29 33h4M31 34h1" />
<path stroke="#d50000" d="M11 0h1M6 1h1M11 1h2M33 1h1M4 4h1M36 5h1M3 6h1M37 7h1M38 8h1M3 17h1M4 20h1M7 24h1M38 25h1M37 26h1M10 27h1M13 29h1M36 29h1" />
<path stroke="#d40000" d="M12 0h1M14 0h1M5 2h1M34 2h1M35 3h1M36 4h1M3 5h1M37 6h1M39 8h1M3 18h1M5 22h1M6 23h1M39 25h1M8 26h1M11 28h1M14 30h1M36 30h1M35 31h1M34 32h1M33 33h1M32 34h1" />
<path stroke="#d30500" d="M13 0h1" />
<path stroke="#c7c124" d="M15 0h1M14 1h1M16 1h1M13 2h1M15 2h1M17 2h1M12 3h1M14 3h1M18 3h1M12 4h1M14 4h1M11 5h1M15 5h1M12 6h1M16 6h1" />
<path stroke="#faf556" d="M16 0h2M20 0h5M26 0h1M13 1h1M18 1h1M20 1h2M23 1h1M26 1h2M12 2h1M18 2h1M21 2h2M24 2h4M11 3h1M21 3h2M24 3h2M28 3h1M18 4h1M20 4h2M26 4h2M29 4h1M19 5h1M21 5h2M27 5h2M19 6h1M22 6h3M28 6h1M30 6h1M23 7h2M30 7h1M30 10h1M29 11h2M29 12h2M29 13h2M29 14h4M29 15h2M29 16h2" />
<path stroke="#c7c024" d="M18 0h1M19 1h1M20 2h1" />
<path stroke="#f2ed65" d="M19 0h1M16 4h1M12 5h1M14 5h1M17 5h1M11 6h1M13 6h1M15 6h1M26 6h1M26 7h2M27 8h1M28 9h1M28 10h1M28 11h1M28 12h1M27 15h1M27 16h1" />
<path stroke="#fffecb" d="M25 0h1M22 1h1M24 1h2M19 2h1M23 2h1M28 2h1M17 3h1M20 3h1M26 3h2M29 3h1M19 4h1M22 4h2M25 4h1M28 4h1M20 5h1M23 5h1M26 5h1M29 5h2M20 6h2M25 6h1M27 6h1M29 6h1M25 7h1M28 7h2M9 8h1M11 8h1M28 8h1M30 8h1M29 9h1M29 10h1M11 11h4M19 11h5M31 13h2M31 15h1M31 16h1M30 17h3M30 18h1M30 19h2" />
<path stroke="#bb0000" d="M35 0h1" />
<path stroke="#ad0000" d="M36 0h1" />
<path stroke="#a20000" d="M1 1h1M0 21h1M7 30h1" />
<path stroke="#a80000" d="M2 1h1M39 3h1M0 4h1M3 24h1M7 29h1M10 31h1" />
<path stroke="#b40000" d="M3 1h1M38 3h1M1 4h1M6 27h1M7 28h1M10 30h1M38 31h1M14 33h1M33 36h1" />
<path stroke="#c40000" d="M4 1h1M35 1h1M2 4h1M1 6h1M1 17h1M5 24h1M38 29h1M13 31h1" />
<path stroke="#cf0000" d="M5 1h1M34 1h1M3 4h1M6 24h1M10 28h1M13 30h1" />
<path stroke="#e9e338" d="M15 1h1M17 1h1M14 2h1M16 2h1M13 3h1M15 3h2M13 4h1M15 4h1M17 4h1M13 5h1M16 5h1M18 5h1M10 6h1M14 6h1M17 6h1M10 7h1M18 7h1" />
<path stroke="#b70000" d="M36 1h1M39 28h1" />
<path stroke="#aa0000" d="M37 1h1M4 25h1M37 33h1M36 34h1M35 35h1" />
<path stroke="#a50000" d="M1 2h1M0 20h1M8 30h1M11 32h1" />
<path stroke="#b00000" d="M2 2h1M1 20h1M5 26h1M8 29h1M11 31h1" />
<path stroke="#c00000" d="M3 2h1M39 6h1M3 22h1M6 26h1M39 27h1M8 28h1M11 30h1" />
<path stroke="#cc0000" d="M4 2h1M37 4h1M2 5h1M38 6h1M4 22h1M7 26h1M8 27h1M38 27h1M11 29h1M37 30h1M32 35h1" />
<path stroke="#cd0000" d="M35 2h1M36 3h1M2 18h1M5 23h1M14 31h1M36 31h1M35 32h1M34 33h1M33 34h1" />
<path stroke="#c30000" d="M36 2h1M37 3h1M10 29h1M14 32h1M36 32h1M35 33h1M34 34h1" />
<path stroke="#b50000" d="M37 2h1M39 5h1M4 24h1M13 32h1M37 32h1M36 33h1M35 34h1M34 35h1" />
<path stroke="#a90000" d="M38 2h1M0 19h1M1 21h1M6 28h1M38 32h1M34 36h1" />
<path stroke="#c80000" d="M3 3h1M6 25h1M9 28h1M12 30h1" />
<path stroke="#d10000" d="M4 3h1M2 7h1M2 8h1M2 9h1M2 10h1M2 11h1M2 12h1M2 13h1M2 14h1M2 15h1M2 16h1M3 19h1M4 21h1M7 25h1M9 27h1M37 28h1M12 29h1" />
<path stroke="#fbf888" d="M19 3h1M23 3h1M11 4h1M24 4h1M10 5h1M25 5h1M9 6h1M18 6h1M9 7h1M11 7h1M17 7h1M19 7h4M10 8h1M29 8h1M9 9h2M30 9h1M9 10h1M31 11h1M31 12h1M10 13h1M27 13h2M9 14h2M28 14h1M28 15h1M32 15h1M32 16h1M29 17h1M29 18h1M31 18h2M30 20h1" />
<path stroke="#bf0000" d="M38 4h1M1 5h1M1 18h1M38 30h1" />
<path stroke="#af0000" d="M39 4h1M2 22h1" />
<path stroke="#ae0000" d="M0 5h1M0 18h1M39 30h1" />
<path stroke="#fffeca" d="M24 5h1" />
<path stroke="#d00000" d="M37 5h1M2 6h1M38 7h1M2 17h1M38 26h1M37 29h1" />
<path stroke="#c50000" d="M38 5h1M1 7h1M1 8h1M1 9h1M1 10h1M1 11h1M1 12h1M1 13h1M1 14h1M1 15h1M1 16h1" />
<path stroke="#b10000" d="M0 6h1M0 17h1" />
<path stroke="#b20000" d="M0 7h1M0 8h1M0 9h1M0 10h1M0 11h1M0 12h1M0 13h1M0 14h1M0 15h1M0 16h1M39 29h1" />
<path stroke="#f6f5f5" d="M12 7h5M17 8h10M11 9h1M26 9h2M17 15h1M24 15h3M18 18h2" />
<path stroke="#cb0000" d="M39 7h1M39 26h1" />
<path stroke="#ffffff" d="M12 8h5M12 9h14M11 10h17M15 11h4M24 11h4M17 12h1M24 12h4M24 13h3M17 16h1" />
<path stroke="#000000" d="M10 10h1M10 11h1M10 12h7M18 12h6M11 13h1M16 13h3M23 13h1M11 14h1M13 14h1M16 14h3M21 14h1M23 14h5M10 15h2M16 15h1M18 15h1M23 15h1M9 16h1M11 16h1M16 16h1M18 16h1M23 16h4M28 16h1M9 17h1M12 17h11M27 17h2M8 18h8M17 18h1M20 18h2M24 18h2M28 18h1M7 19h1M16 19h5M26 19h1M29 19h1M6 20h1M9 20h4M25 20h1M27 20h1M29 20h1M6 21h1M8 21h1M13 21h4M24 21h1M29 21h1M7 22h1M10 22h3M14 22h1M17 22h8M27 22h2M8 23h2M12 23h2M15 23h1M23 23h1M26 23h1M14 24h1M16 24h1M23 24h1M25 24h1M15 25h1M17 25h1M22 25h1M24 25h1M15 26h1M17 26h1M21 26h1M23 26h1M16 27h1M18 27h3M22 27h1M17 28h1M21 28h1M18 29h3M17 30h1M24 30h1M16 31h1M25 31h1M17 32h1M24 32h3M16 33h1M18 33h1M23 33h6M15 34h1M18 34h2M25 34h4M30 34h1M16 35h1M25 35h3M29 35h3M14 36h1M16 36h1M25 36h1M27 36h1M29 36h4M26 37h1M28 37h6M13 38h1M18 38h1M27 38h7M12 39h1M25 39h1M27 39h7" />
<path stroke="#f89e42" d="M12 13h4M19 13h4" />
<path stroke="#ffad59" d="M12 14h1M14 14h2M19 14h2M22 14h1M12 15h4M19 15h4M12 16h4M19 16h4" />
<path stroke="#ff8a00" d="M10 16h1M10 17h2M23 17h4M16 18h1M22 18h2M26 18h2M8 19h8M21 19h5M27 19h2M7 20h2M13 20h12M26 20h1M28 20h1M7 21h1M9 21h4M17 21h7M25 21h4M8 22h2M13 22h1M25 22h2M14 23h1M24 23h2M15 24h1M24 24h1M16 25h1M23 25h1M16 26h1M22 26h1M17 27h1M21 27h1M18 28h3" />
<path stroke="#b80000" d="M1 19h1M2 21h1" />
<path stroke="#c70000" d="M2 19h1M3 21h1M38 28h1" />
<path stroke="#c10000" d="M2 20h1" />
<path stroke="#ce0000" d="M3 20h1" />
<path stroke="#9d0000" d="M0 22h1M5 29h1M7 32h1M8 33h1M39 36h1M35 39h1" />
<path stroke="#ff0000" d="M15 22h2M16 23h3M22 23h1M17 24h1M21 24h2M20 25h2M18 26h3" />
<path stroke="#970000" d="M0 23h1" />
<path stroke="#9c0000" d="M1 23h1M2 24h1M6 31h1M37 37h1M36 38h1" />
<path stroke="#a60000" d="M2 23h1" />
<path stroke="#b30000" d="M3 23h1" />
<path stroke="#c20000" d="M4 23h1M7 27h1M37 31h1M33 35h1" />
<path stroke="#fc809a" d="M19 23h3M18 24h3M18 25h2" />
<path stroke="#900000" d="M0 24h1M3 29h1M4 31h1" />
<path stroke="#940000" d="M1 24h1M4 30h1M38 38h1" />
<path stroke="#890000" d="M0 25h1M1 26h1M2 29h1M3 31h1M4 33h1M6 36h1M8 38h1M39 39h1" />
<path stroke="#8e0000" d="M1 25h1M2 27h1M38 39h1" />
<path stroke="#950000" d="M2 25h1" />
<path stroke="#b90000" d="M5 25h1M9 29h1M12 31h1" />
<path stroke="#860000" d="M0 26h1M0 27h1M1 29h1M2 31h1M3 33h1M6 37h1" />
<path stroke="#910000" d="M2 26h1M39 38h1" />
<path stroke="#9a0000" d="M3 26h1" />
<path stroke="#880000" d="M1 27h1" />
<path stroke="#960000" d="M3 27h1" />
<path stroke="#a70000" d="M5 27h1M39 31h1" />
<path stroke="#850000" d="M0 28h1M0 29h1M0 30h2M0 31h2M0 32h3M0 33h3M0 34h4M0 35h5M0 36h5M0 37h3M5 37h1M0 38h3M5 38h1M0 39h3" />
<path stroke="#870000" d="M1 28h1M2 30h1M3 32h1M4 34h1" />
<path stroke="#8b0000" d="M2 28h1" />
<path stroke="#930000" d="M3 28h1M5 32h1M37 39h1" />
<path stroke="#9b0000" d="M4 28h1M5 30h1M38 37h1" />
<path stroke="#a10000" d="M5 28h1M6 29h1" />
<path stroke="#1e1d1d" d="M22 28h1M21 29h1M18 30h3M17 31h2" />
<path stroke="#980000" d="M4 29h1M5 31h1" />
<path stroke="#272626" d="M22 29h1M21 30h3M19 31h6M18 32h2M21 32h3M19 33h1M22 33h1M29 34h1M28 35h1M15 36h1M28 36h1M27 37h1M26 38h1M17 39h1M26 39h1" />
<path stroke="#8c0000" d="M3 30h1M4 32h1" />
<path stroke="#ff3420" d="M9 31h1M6 32h1M20 32h1M7 33h1M13 33h1M21 33h1M17 35h1M12 36h1M18 36h1M23 36h1M14 37h1M24 37h1" />
<path stroke="#d30000" d="M15 31h1M9 32h1M15 32h2M6 33h1M9 33h2M20 33h1M6 34h3M13 34h1M20 34h2M13 35h2M7 36h1M11 36h1M17 36h1M7 37h2M11 37h2M17 37h2M23 37h1M3 38h1M9 38h1M14 38h1M23 38h2M3 39h2M9 39h2M14 39h2M20 39h1" />
<path stroke="#e61602" d="M10 32h1M11 33h1M14 34h1M22 34h1M7 35h1M11 35h1M15 35h1M8 36h1M3 37h1M9 37h1M13 37h1M19 37h1M4 38h1M10 38h1M15 38h1M20 38h1M25 38h1M5 39h1M11 39h1M16 39h1M21 39h1" />
<path stroke="#8f0000" d="M5 33h1" />
<path stroke="#06852d" d="M15 33h1M11 34h1M16 34h2M10 35h1M10 36h1M25 37h1M16 38h1M23 39h2" />
<path stroke="#0aad3d" d="M17 33h1M10 34h1M5 35h1M19 35h1M26 36h1M16 37h1" />
<path stroke="#8a0000" d="M5 34h1" />
<path stroke="#06852f" d="M9 34h1M6 35h1M9 35h1M12 35h1M20 36h1M4 37h1M10 37h1M15 37h1M6 38h1M12 38h1M17 38h1M6 39h3M13 39h1" />
<path stroke="#3f3e3d" d="M23 34h2M18 35h1M20 35h1M22 35h1M24 35h1M21 36h1M22 37h1M21 38h2M19 39h1" />
<path stroke="#065b20" d="M8 35h1M21 35h1M5 36h1M9 36h1M13 36h1M19 36h1M20 37h1M7 38h1M11 38h1M19 38h1M18 39h1M22 39h1" />
<path stroke="#bbbbbb" d="M23 35h1M22 36h1M24 36h1M21 37h1" />
<path stroke="#990000" d="M39 37h1M37 38h1M36 39h1" />
</svg>