<svg xmlns="http://www.w3.org/2000/svg" viewBox="0 -0.5 40 40" shape-rendering="crispEdges">
<metadata>Made with Pixels to Svg https://codepen.io/shshaw/pen/XbxvNj</metadata>
<path stroke="#650798" d="M0 0h40M0 1h9M29 1h11M0 2h9M29 2h11M1 3h8M29 3h11M0 4h9M29 4h11M0 5h10M28 5h12M0 6h10M28 6h12M5 7h5M28 7h2M36 7h4M5 8h3M31 8h9M0 9h11M28 9h12M0 10h10M28 10h12M0 11h2M5 11h5M28 11h3M0 12h1M9 12h1M4 13h7M28 13h7M37 13h1M0 15h1M29 15h4M0 16h9M29 16h11M6 17h3M30 17h4M0 19h6M30 19h10M0 20h6M30 20h4M1 21h5M30 21h10M1 22h6M29 22h11M6 23h2M10 23h2M6 24h8M8 25h1M13 25h2M9 26h6M24 26h12M2 27h14M23 27h2M26 27h14M0 28h16M26 28h14M0 29h4M6 29h10M37 29h3M6 30h5M13 30h3M17 30h1M24 30h1M26 30h1M0 31h17M25 31h15M0 32h5M7 32h9M26 32h14M0 33h16M27 33h13M0 34h15M30 34h10M2 35h12M32 35h8M0 36h13M33 36h5M3 37h9M33 37h7M0 38h12M34 38h6M1 39h11M34 39h6" />
<path stroke="#000000" d="M9 1h20M9 2h3M13 2h6M20 2h5M26 2h3M9 3h3M13 3h1M15 3h1M18 3h1M20 3h1M22 3h3M26 3h3M9 4h2M13 4h1M16 4h1M23 4h1M27 4h2M10 5h1M27 5h1M10 6h1M27 6h1M10 7h1M27 7h1M10 8h1M27 8h1M11 9h3M18 9h4M27 9h1M10 10h1M22 10h1M27 10h1M10 11h1M13 11h2M18 11h3M27 11h1M10 12h1M12 12h1M15 12h1M17 12h1M21 12h1M27 12h1M11 13h1M15 13h1M17 13h1M21 13h1M27 13h1M11 14h1M15 14h1M17 14h1M21 14h1M28 14h1M10 15h2M13 15h3M17 15h1M19 15h3M28 15h1M9 16h1M11 16h1M14 16h2M17 16h1M20 16h2M23 16h4M28 16h1M9 17h1M12 17h1M15 17h3M21 17h2M27 17h2M8 18h8M17 18h1M20 18h2M24 18h2M28 18h1M7 19h1M16 19h5M26 19h1M29 19h1M6 20h1M9 20h4M25 20h1M27 20h1M29 20h1M6 21h1M8 21h1M13 21h4M24 21h1M29 21h1M7 22h1M10 22h3M14 22h1M17 22h8M27 22h2M8 23h2M12 23h2M15 23h1M23 23h1M26 23h1M14 24h1M16 24h1M23 24h1M25 24h1M15 25h1M17 25h1M22 25h1M24 25h1M15 26h1M17 26h1M21 26h1M23 26h1M16 27h1M18 27h3M22 27h1M17 28h1M21 28h2M19 29h1M22 29h1M18 30h1M22 30h2M17 31h2M23 31h2M16 32h1M25 32h1M16 33h1M26 33h1M15 34h1M27 34h3M14 35h2M30 35h2M13 36h1M31 36h2M12 37h1M32 37h1M12 38h1M16 38h1M28 38h1M33 38h1M12 39h1M15 39h2M28 39h2M33 39h1" />
<path stroke="#35da66" d="M12 2h1M19 2h1M25 2h1M12 3h1M14 3h1M11 4h1M22 4h1M26 4h1M11 6h1M11 7h1M11 8h1M14 9h1M11 10h5M17 10h5M11 11h2M15 11h3M21 11h2M11 12h1M16 12h1M22 12h1M16 13h1M22 13h1M16 14h1M22 14h1M16 15h1M22 15h6M16 16h1M22 16h1M27 16h1M20 29h2M19 30h1" />
<path stroke="#750bae" d="M0 3h1M0 7h5M30 7h6M0 8h5M8 8h2M28 8h3M2 11h3M31 11h9M1 12h8M28 12h12M0 13h4M35 13h2M38 13h2M0 14h11M29 14h11M1 15h9M33 15h7M0 17h6M29 17h1M34 17h6M0 18h8M29 18h11M6 19h1M34 20h6M0 21h1M0 22h1M0 23h6M27 23h13M0 24h6M26 24h14M0 25h8M9 25h4M25 25h15M0 26h9M36 26h4M0 27h2M4 29h2M26 29h11M0 30h6M11 30h2M27 30h13M5 32h2M0 35h2M38 36h2M0 37h3M0 39h1" />
<path stroke="#3dee71" d="M16 3h2M19 3h1M21 3h1M25 3h1M12 4h1M14 4h2M17 4h5M24 4h2M12 5h1M14 5h1M16 5h1M18 5h1M20 5h1M22 5h1M24 5h1M26 5h1M13 6h1M15 6h1M17 6h1M19 6h1M21 6h1M23 6h1M25 6h1M12 7h15M12 8h15M15 9h3M22 9h5M16 10h1M23 10h4M23 11h1M25 11h2M23 12h4M23 13h4M23 14h5M20 30h2M19 31h1M21 31h1M18 32h1M20 32h1M22 32h3M19 33h4M20 34h2" />
<path stroke="#0f9587" d="M11 5h1M13 5h1M15 5h1M17 5h1M19 5h1M21 5h1M23 5h1M25 5h1M12 6h1M14 6h1M16 6h1M18 6h1M20 6h1M22 6h1M24 6h1M26 6h1M20 31h1M22 31h1M19 32h1M21 32h1" />
<path stroke="#3ded71" d="M24 11h1" />
<path stroke="#0f8795" d="M13 12h2M18 12h3M12 13h3M18 13h3M12 14h3M18 14h3" />
<path stroke="#c3d9f9" d="M12 15h1M18 15h1M12 16h1M18 16h1M13 17h2M18 17h3M18 18h2" />
<path stroke="#ff8a00" d="M10 16h1M10 17h2M23 17h4M16 18h1M22 18h2M26 18h2M8 19h8M21 19h5M27 19h2M7 20h2M13 20h12M26 20h1M28 20h1M7 21h1M9 21h4M17 21h7M25 21h4M8 22h2M13 22h1M25 22h2M14 23h1M24 23h2M15 24h1M24 24h1M16 25h1M23 25h1M16 26h1M22 26h1M17 27h1M21 27h1M18 28h3" />
<path stroke="#ffffff" d="M13 16h1M19 16h1" />
<path stroke="#ff0000" d="M15 22h2M16 23h3M22 23h1M17 24h1M21 24h2M20 25h2M18 26h3" />
<path stroke="#fc809a" d="M19 23h3M18 24h3M18 25h2" />
<path stroke="#90aeb1" d="M25 27h1M16 29h1M25 29h1" />
<path stroke="#56787c" d="M16 28h1M25 28h1M17 29h2M23 29h2M16 30h1M25 30h1" />
<path stroke="#6d999e" d="M23 28h2" />
<path stroke="#694322" d="M17 32h1M23 33h1M16 34h2M24 34h1M19 35h1M22 35h1M24 35h1M14 36h1M16 36h1M18 36h1M20 36h2M23 36h1M26 36h1M13 37h3M18 37h1M20 37h2M23 37h3M27 37h1M30 37h1M13 38h2M17 38h1M19 38h4M24 38h3M30 38h3M14 39h1M20 39h1M22 39h2M25 39h2M30 39h3" />
<path stroke="#8c6442" d="M17 33h2M24 33h2M18 34h2M22 34h2M25 34h2M16 35h3M20 35h2M23 35h1M25 35h5M15 36h1M17 36h1M19 36h1M22 36h1M24 36h2M27 36h4M16 37h2M19 37h1M22 37h1M26 37h1M28 37h2M31 37h1M15 38h1M18 38h1M23 38h1M27 38h1M29 38h1M13 39h1M17 39h3M21 39h1M24 39h1M27 39h1" />
</svg>