<svg xmlns="http://www.w3.org/2000/svg" viewBox="0 -0.5 40 40" shape-rendering="crispEdges">
<metadata>Made with Pixels to Svg https://codepen.io/shshaw/pen/XbxvNj</metadata>
<path stroke="#fffd00" d="M0 0h11M15 0h25M0 1h10M19 1h2M24 1h16M0 2h9M25 2h15M0 3h8M30 3h10M0 4h7M32 4h8M0 5h7M33 5h7M0 6h7M34 6h6M0 7h8M35 7h5M0 8h9M35 8h5M0 9h11M35 9h5M0 10h10M35 10h5M0 11h10M34 11h6M0 12h9M28 12h1M34 12h6M0 13h10M28 13h4M34 13h6M0 14h10M29 14h3M35 14h5M0 15h10M29 15h4M36 15h4M0 16h9M29 16h5M35 16h5M0 17h9M29 17h11M0 18h8M29 18h11M0 19h7M30 19h10M0 20h6M30 20h10M0 21h6M30 21h10M0 22h7M29 22h11M0 23h8M10 23h2M27 23h13M0 24h14M26 24h14M0 25h15M25 25h15M0 26h15M24 26h16M0 27h16M23 27h17M0 28h17M26 28h14M0 29h15M27 29h13M0 30h14M27 30h13M0 31h14M27 31h13M0 32h15M27 32h13M0 33h16M28 33h12M0 34h14M31 34h9M0 35h12M32 35h8M0 36h12M33 36h7M0 37h11M34 37h6M0 38h11M34 38h6M0 39h11M34 39h6" />
<path stroke="#000000" d="M11 0h4M10 1h1M15 1h4M21 1h3M9 2h1M19 2h6M8 3h1M25 3h5M7 4h1M30 4h2M7 5h1M15 5h8M32 5h1M7 6h1M13 6h11M33 6h1M8 7h2M12 7h13M34 7h1M9 8h4M23 8h3M34 8h1M11 9h3M18 9h4M24 9h3M34 9h1M10 10h1M22 10h1M25 10h2M34 10h1M10 11h1M13 11h2M18 11h3M26 11h3M33 11h1M9 12h19M29 12h5M10 13h2M13 13h8M22 13h3M26 13h2M32 13h2M10 14h1M12 14h4M17 14h3M21 14h4M27 14h2M32 14h3M10 15h6M17 15h2M20 15h4M28 15h1M33 15h3M9 16h1M11 16h5M17 16h10M28 16h1M34 16h1M9 17h1M12 17h1M14 17h4M19 17h4M27 17h2M8 18h8M17 18h1M20 18h2M24 18h2M28 18h1M7 19h1M16 19h5M26 19h1M29 19h1M6 20h1M9 20h4M25 20h1M27 20h1M29 20h1M6 21h1M8 21h1M13 21h4M24 21h1M29 21h1M7 22h1M10 22h3M14 22h1M17 22h8M27 22h2M8 23h2M12 23h2M15 23h1M23 23h1M26 23h1M14 24h1M16 24h1M23 24h1M25 24h1M15 25h1M17 25h1M22 25h1M24 25h1M15 26h1M17 26h1M21 26h1M23 26h1M16 27h1M18 27h3M22 27h1M17 28h1M21 28h5M15 29h9M26 29h1M14 30h1M26 30h1M14 31h1M26 31h1M15 32h1M26 32h1M16 33h2M22 33h6M14 34h2M18 34h5M27 34h4M12 35h2M31 35h1M12 36h1M32 36h1M11 37h2M28 37h1M33 37h1M11 38h1M15 38h1M28 38h1M33 38h1M11 39h1M15 39h1M28 39h2M33 39h1" />
<path stroke="#0667f9" d="M11 1h4M10 2h9M9 3h16M8 4h22M8 5h7M23 5h9M8 6h5M24 6h9M10 7h2M25 7h9M26 8h8M27 9h7M27 10h7M29 11h4" />
<path stroke="#ffffff" d="M13 8h10M14 9h4M22 9h2M11 10h11M23 10h2M11 11h2M15 11h3M21 11h5M12 13h1M21 13h1M25 13h1M11 14h1M16 14h1M20 14h1M25 14h2M16 15h1M19 15h1M24 15h4M16 16h1M27 16h1" />
<path stroke="#ff8a00" d="M10 16h1M10 17h2M23 17h4M16 18h1M22 18h2M26 18h2M8 19h8M21 19h5M27 19h2M7 20h2M13 20h12M26 20h1M28 20h1M7 21h1M9 21h4M17 21h7M25 21h4M8 22h2M13 22h1M25 22h2M14 23h1M24 23h2M15 24h1M24 24h1M16 25h1M23 25h1M16 26h1M22 26h1M17 27h1M21 27h1M18 28h3" />
<path stroke="#a6dcee" d="M13 17h1M18 17h1M18 18h2" />
<path stroke="#ff0000" d="M15 22h2M16 23h3M22 23h1M17 24h1M21 24h2M20 25h2M18 26h3" />
<path stroke="#fc809a" d="M19 23h3M18 24h3M18 25h2" />
<path stroke="#e71391" d="M24 29h2M15 30h11M15 31h11M16 32h10M18 33h4M16 34h2M23 34h4M14 35h17M13 36h19M13 37h15M29 37h4M12 38h3M16 38h12M29 38h4M12 39h3M16 39h12M30 39h3" />
</svg>