<svg xmlns="http://www.w3.org/2000/svg" viewBox="0 -0.5 40 40" shape-rendering="crispEdges">
<metadata>Made with Pixels to Svg https://codepen.io/shshaw/pen/XbxvNj</metadata>
<path stroke="#a8e2f3" d="M0 0h40M0 1h40M0 2h40M0 3h15M23 3h17M0 4h14M25 4h15M0 5h12M26 5h14M0 6h11M27 6h13M0 7h11M28 7h12M0 8h11M28 8h12M0 9h11M29 9h11M0 10h10M30 10h10M0 11h10M30 11h10M0 12h10M30 12h10M0 13h11M30 13h10M0 14h11M30 14h10M0 15h10M30 15h10M0 16h9M29 16h11M0 17h9M29 17h11M0 18h8M29 18h11M0 19h7M30 19h10M0 20h6M30 20h10M0 21h6M30 21h10M0 22h7M29 22h4M39 22h1M0 23h8M10 23h2M27 23h4M39 23h1M0 24h14M26 24h3M0 25h15M25 25h13M0 26h1M3 26h1M6 26h1M9 26h1M11 26h2M31 26h1M35 26h1M38 26h1M0 27h1M2 27h2M5 27h2M8 27h2M11 27h2M14 27h2M23 27h1M27 27h1M29 27h1M31 27h1M33 27h1M35 27h1M37 27h1M0 28h1M3 28h1M6 28h1M9 28h1M11 28h3M15 28h2M23 28h1M26 28h2M29 28h1M31 28h1M33 28h1M35 28h1M37 28h1M0 29h1M2 29h2M5 29h2M8 29h2M11 29h4M16 29h3M23 29h1M29 29h1M31 29h1M33 29h1M35 29h1M37 29h1M0 30h1M2 30h2M6 30h1M9 30h1M12 30h1M16 30h2M31 30h1M35 30h1M38 30h1M0 31h17M25 31h4M0 32h16M26 32h3M0 33h14M27 33h4M0 34h13M14 34h1M30 34h3M0 35h13M32 35h3M38 35h2M0 36h13M33 36h7M0 37h12M33 37h7M0 38h12M34 38h6M0 39h12M34 39h6" />
<path stroke="#000000" d="M15 3h8M14 4h1M23 4h2M12 5h2M18 5h5M25 5h1M11 6h1M13 6h2M16 6h2M23 6h1M26 6h1M11 7h2M15 7h1M27 7h1M11 8h1M27 8h1M11 9h4M18 9h4M27 9h2M10 10h1M15 10h1M17 10h1M22 10h1M29 10h1M10 11h1M13 11h2M18 11h3M29 11h1M10 12h1M12 12h1M15 12h1M17 12h1M21 12h1M29 12h1M11 13h1M15 13h1M17 13h1M21 13h1M29 13h1M11 14h3M15 14h1M17 14h3M21 14h2M29 14h1M10 15h2M13 15h1M15 15h1M17 15h1M19 15h1M21 15h1M29 15h1M9 16h1M11 16h3M15 16h1M17 16h3M21 16h1M23 16h4M28 16h1M9 17h1M12 17h1M15 17h3M21 17h2M27 17h2M8 18h8M17 18h1M20 18h2M24 18h2M28 18h1M7 19h1M16 19h5M26 19h1M29 19h1M6 20h1M9 20h4M25 20h1M27 20h1M29 20h1M6 21h1M8 21h1M13 21h4M24 21h1M29 21h1M7 22h1M10 22h3M14 22h1M17 22h8M27 22h2M8 23h2M12 23h2M15 23h1M23 23h1M26 23h1M14 24h1M16 24h1M23 24h1M25 24h1M15 25h1M17 25h1M22 25h1M24 25h1M1 26h2M4 26h2M7 26h2M10 26h1M13 26h3M17 26h1M21 26h1M23 26h4M28 26h3M32 26h3M36 26h2M1 27h1M4 27h1M7 27h1M10 27h1M13 27h1M16 27h1M18 27h3M22 27h1M24 27h1M28 27h1M30 27h1M32 27h1M34 27h1M36 27h1M38 27h1M1 28h2M4 28h2M7 28h2M10 28h1M14 28h1M17 28h1M21 28h2M24 28h1M28 28h1M30 28h1M32 28h1M34 28h1M36 28h1M38 28h1M1 29h1M4 29h1M7 29h1M10 29h1M15 29h1M19 29h1M22 29h1M24 29h1M26 29h1M28 29h1M30 29h1M32 29h1M34 29h1M36 29h1M38 29h1M1 30h1M4 30h2M7 30h2M10 30h2M13 30h3M18 30h1M22 30h5M28 30h3M32 30h3M36 30h2M17 31h2M23 31h2M16 32h1M25 32h1M27 34h3M14 35h1M30 35h2M31 36h2M12 37h1M32 37h1M12 38h1M16 38h1M29 38h1M33 38h1M12 39h1M15 39h2M29 39h1M33 39h1" />
<path stroke="#00951e" d="M15 4h8M14 5h4M23 5h2M12 6h1M15 6h1M18 6h5M24 6h2M13 7h2M16 7h11M12 8h15M15 9h3M22 9h5M11 10h4M16 10h1M18 10h4M23 10h6M11 11h2M15 11h3M21 11h8M11 12h1M13 12h2M16 12h1M18 12h3M22 12h7M12 13h3M16 13h1M18 13h3M22 13h7M16 14h1M23 14h6M16 15h1M22 15h7M16 16h1M22 16h1M27 16h1M13 17h2M18 17h3M18 18h2M20 29h2M19 30h3M14 37h1M30 37h2M13 38h3M30 38h3M13 39h2M30 39h3" />
<path stroke="#ffffff" d="M14 14h1M20 14h1M12 15h1M14 15h1M18 15h1M20 15h1M14 16h1M20 16h1M14 33h3M20 33h1M23 33h1M26 33h1M13 34h1M15 34h1M17 34h1M19 34h1M21 34h1M23 34h2M26 34h1M13 35h1M15 35h1M17 35h1M19 35h3M23 35h1M25 35h2M13 36h1M17 36h1M19 36h1M21 36h1M23 36h1M26 36h1M13 37h1M17 37h1M19 37h1M21 37h1M23 37h1M26 37h1" />
<path stroke="#d31d00" d="M10 16h1M10 17h2M23 17h4M16 18h1M22 18h2M26 18h2M8 19h8M21 19h5M27 19h2M7 20h2M13 20h12M26 20h1M28 20h1M7 21h1M9 21h4M17 21h7M25 21h4M8 22h2M13 22h1M25 22h2M14 23h1M24 23h2M15 24h1M24 24h1M16 25h1M23 25h1M16 26h1M22 26h1M17 27h1M21 27h1M18 28h3" />
<path stroke="#fb668f" d="M15 22h2M16 23h3M22 23h1M17 24h1M21 24h2M20 25h2M18 26h3" />
<path stroke="#a8e3f3" d="M33 22h6M31 23h8M31 24h9M38 25h2M27 26h1M39 26h1M25 27h2M39 27h1M25 28h1M39 28h1M25 29h1M27 29h1M39 29h1M27 30h1M39 30h1M29 31h11M29 32h11M31 33h9M33 34h7M35 35h3" />
<path stroke="#ff0003" d="M19 23h3M18 24h3M18 25h2" />
<path stroke="rgba(167,225,243,0.9137254901960784)" d="M29 24h1" />
<path stroke="rgba(168,227,244,0.8823529411764706)" d="M30 24h1" />
<path stroke="#0667f9" d="M19 31h4M17 32h8M17 33h3M22 33h1M24 33h2M16 34h1M18 34h1M25 34h1M16 35h1M24 35h1M27 35h1M14 36h1M30 36h1M27 38h1M18 39h1M27 39h1" />
<path stroke="#0669f9" d="M21 33h1M20 34h1M22 34h1M18 35h1M22 35h1M28 35h2M15 36h2M18 36h1M20 36h1M22 36h1M24 36h2M27 36h3M15 37h2M18 37h1M20 37h1M22 37h1M24 37h2M27 37h3M17 38h10M17 39h1M19 39h8" />
<path stroke="#066af9" d="M28 38h1M28 39h1" />
</svg>