<svg xmlns="http://www.w3.org/2000/svg" viewBox="0 -0.5 40 40" shape-rendering="crispEdges">
<metadata>Made with Pixels to Svg https://codepen.io/shshaw/pen/XbxvNj</metadata>
<path stroke="#000000" d="M0 0h9M18 0h9M36 0h4M0 1h9M18 1h9M36 1h4M0 2h9M18 2h9M36 2h4M0 3h9M22 3h5M36 3h4M0 4h9M14 4h7M26 4h1M36 4h4M0 5h9M13 5h2M16 5h4M22 5h3M36 5h4M0 6h9M12 6h1M15 6h4M21 6h6M36 6h4M0 7h9M11 7h1M14 7h5M20 7h4M25 7h3M36 7h4M0 8h9M10 8h2M13 8h5M20 8h3M24 8h5M36 8h4M10 9h1M12 9h5M19 9h4M24 9h1M26 9h3M30 9h6M9 10h2M12 10h3M19 10h7M27 10h3M31 10h5M9 11h2M13 11h1M19 11h3M23 11h1M25 11h1M27 11h3M31 11h5M9 12h2M27 12h3M31 12h5M9 13h1M29 13h1M31 13h5M9 14h1M12 14h2M15 14h7M29 14h1M31 14h5M9 15h2M12 15h1M14 15h2M18 15h3M22 15h1M28 15h3M32 15h4M9 16h1M13 16h2M19 16h1M21 16h2M24 16h3M28 16h3M32 16h4M9 17h1M16 17h2M27 17h4M32 17h4M0 18h16M17 18h1M20 18h2M24 18h2M28 18h3M36 18h4M0 19h8M16 19h5M26 19h1M29 19h2M36 19h4M0 20h7M9 20h4M25 20h1M27 20h1M29 20h2M36 20h4M0 21h7M8 21h1M13 21h4M24 21h1M29 21h2M36 21h4M0 22h8M10 22h1M12 22h1M14 22h1M17 22h8M27 22h1M29 22h2M36 22h4M0 23h8M9 23h2M12 23h1M15 23h1M23 23h1M26 23h2M29 23h2M36 23h4M0 24h8M9 24h2M12 24h1M14 24h1M16 24h1M23 24h1M26 24h2M29 24h2M36 24h4M0 25h8M9 25h2M12 25h4M17 25h1M22 25h1M24 25h1M26 25h2M29 25h2M36 25h4M0 26h8M9 26h2M12 26h4M17 26h1M21 26h1M23 26h5M29 26h1M36 26h4M9 27h8M18 27h3M22 27h8M31 27h5M10 28h6M17 28h1M21 28h1M26 28h3M30 28h6M9 29h1M14 29h1M17 29h1M19 29h1M22 29h1M26 29h2M30 29h6M9 30h5M16 30h3M22 30h2M28 30h8M9 31h10M23 31h2M27 31h9M9 32h8M25 32h1M27 32h9M9 33h8M26 33h10M9 34h7M27 34h9M9 35h7M30 35h6M0 36h9M13 36h1M31 36h2M36 36h4M0 37h9M12 37h1M32 37h1M36 37h4M0 38h9M12 38h1M16 38h1M28 38h1M33 38h1M36 38h4M0 39h9M12 39h1M15 39h2M28 39h2M33 39h1M36 39h4" />
<path stroke="#ffffff" d="M9 0h9M27 0h9M9 1h9M27 1h9M9 2h9M27 2h9M9 3h7M27 3h9M9 4h4M27 4h9M9 5h3M27 5h9M9 6h2M28 6h8M9 7h1M29 7h7M9 8h1M30 8h6M0 9h9M36 9h4M0 10h8M36 10h4M0 11h8M36 11h4M0 12h8M36 12h4M0 13h8M36 13h4M0 14h8M14 14h1M22 14h1M36 14h4M0 15h8M13 15h1M21 15h1M36 15h4M0 16h8M12 16h1M20 16h1M36 16h4M0 17h8M36 17h4M32 18h4M32 19h4M32 20h4M32 21h4M32 22h4M32 23h4M32 24h4M32 25h4M31 26h5M0 27h8M36 27h4M0 28h8M36 28h4M0 29h8M18 29h1M23 29h3M36 29h4M0 30h9M24 30h2M36 30h4M0 31h9M25 31h2M36 31h4M0 32h9M26 32h1M36 32h4M0 33h9M36 33h4M0 34h9M36 34h4M0 35h9M36 35h4M9 36h4M33 36h3M9 37h3M33 37h3M9 38h3M34 38h2M9 39h3M34 39h2" />
<path stroke="#35089e" d="M16 3h6M13 4h1M21 4h5M12 5h1M15 5h1M20 5h2M25 5h2M11 6h1M13 6h2M19 6h2M27 6h1M10 7h1M12 7h2M19 7h1M24 7h1M28 7h1M12 8h1M18 8h2M23 8h1M29 8h1M9 9h1M11 9h1M18 9h1M23 9h1M25 9h1M29 9h1M8 10h1M11 10h1M26 10h1M30 10h1M8 11h1M11 11h1M26 11h1M30 11h1M8 12h1M26 12h1M30 12h1M8 13h1M30 13h1M8 14h1M30 14h1M8 15h1M31 15h1M8 16h1M31 16h1M8 17h1M31 17h1M31 18h1M31 19h1M31 20h1M31 21h1M11 22h1M28 22h1M31 22h1M8 23h1M11 23h1M13 23h1M28 23h1M31 23h1M8 24h1M11 24h1M13 24h1M25 24h1M28 24h1M31 24h1M8 25h1M11 25h1M25 25h1M28 25h1M31 25h1M8 26h1M11 26h1M28 26h1M30 26h1M8 27h1M30 27h1M8 28h2M16 28h1M22 28h4M29 28h1M8 29h1M10 29h4M15 29h2M28 29h2M14 30h2M26 30h2" />
<path stroke="#ffee00" d="M17 9h1M15 10h4M12 11h1M14 11h5M22 11h1M24 11h1M11 12h15M24 15h4M27 16h1M18 18h2M20 29h2M19 30h3M19 31h4M13 38h1M13 39h2" />
<path stroke="#b800af" d="M10 13h1M24 13h5M10 14h1M24 14h5" />
<path stroke="#7e00b8" d="M11 13h13M11 14h1M23 14h1M11 15h1M16 15h2M23 15h1M11 16h1M15 16h4M23 16h1M11 17h5M18 17h6M17 32h2M18 33h2M21 33h1M19 34h1M21 34h3M26 34h1M17 35h2M22 35h2M26 35h2M14 36h3M18 36h2M23 36h1M27 36h2M15 37h2M19 37h2M23 37h2M28 37h2M31 37h1M20 38h2M24 38h2M29 38h1M32 38h1M17 39h1M20 39h3M24 39h2M30 39h1" />
<path stroke="#f300a8" d="M10 16h1M10 17h1M24 17h3M16 18h1M22 18h2M26 18h2M8 19h8M21 19h5M27 19h2M7 20h2M13 20h12M26 20h1M28 20h1M7 21h1M9 21h4M17 21h7M25 21h4M8 22h2M13 22h1M25 22h2M14 23h1M24 23h2M15 24h1M24 24h1M16 25h1M23 25h1M16 26h1M22 26h1M17 27h1M21 27h1M18 28h3" />
<path stroke="#ff0000" d="M15 22h2M16 23h3M22 23h1M17 24h1M21 24h2M20 25h2M18 26h3" />
<path stroke="#fc809a" d="M19 23h3M18 24h3M18 25h2" />
<path stroke="#05dc2b" d="M19 32h4M24 32h1M17 33h1M20 33h1M22 33h2M25 33h1M16 34h3M20 34h1M24 34h2M16 35h1M19 35h3M24 35h2M28 35h2M17 36h1M20 36h3M24 36h3M29 36h2M13 37h2M17 37h2M21 37h2M25 37h3M30 37h1M14 38h2M17 38h3M22 38h2M26 38h2M30 38h2M18 39h2M23 39h1M26 39h2M31 39h2" />
<path stroke="#7e00b7" d="M23 32h1M24 33h1" />
</svg>