<svg xmlns="http://www.w3.org/2000/svg" viewBox="0 -0.5 40 40" shape-rendering="crispEdges">
<metadata>Made with Pixels to Svg https://codepen.io/shshaw/pen/XbxvNj</metadata>
<path stroke="#6a1296" d="M0 0h40M0 1h40M0 2h40M0 3h40M0 4h40M0 5h40M0 6h28M30 6h10M0 7h8M11 7h16M31 7h9M0 8h7M12 8h2M16 8h2M20 8h7M32 8h8M0 9h6M12 9h1M15 9h4M21 9h6M33 9h7M0 10h6M14 10h6M22 10h5M33 10h7M0 11h6M33 11h7M0 12h7M31 12h9M0 13h8M32 13h8M0 14h10M32 14h8M0 15h9M33 15h7M0 16h6M7 16h2M33 16h7M0 17h7M8 17h1M33 17h7M0 18h4M5 18h3M32 18h8M0 19h5M6 19h1M32 19h8M0 20h6M31 20h9M0 21h6M31 21h9M0 22h7M30 22h10M0 23h8M10 23h2M27 23h13M0 24h14M26 24h14M0 25h15M25 25h15M0 26h15M24 26h16M0 27h16M23 27h17M0 28h17M23 28h17M0 29h19M23 29h17M0 30h18M24 30h16M0 31h17M25 31h15M0 32h16M26 32h2M30 32h10M0 33h16M27 33h1M31 33h9M0 34h15M32 34h8M0 35h14M33 35h7M0 36h13M33 36h7M0 37h12M34 37h6M0 38h12M35 38h5M0 39h12M35 39h5" />
<path stroke="#e61064" d="M28 6h2M8 7h3M27 7h1M30 7h1M7 8h1M11 8h1M27 8h1M31 8h1M6 9h1M11 9h1M32 9h1M11 10h1M32 10h1M21 11h6M31 11h2M30 12h1M31 13h1M31 14h1M32 15h1M32 16h1M32 17h1M31 18h1M31 19h1M30 21h1" />
<path stroke="#ff73ab" d="M28 7h2M28 8h1M30 8h1M31 10h1M28 11h3M28 12h1" />
<path stroke="#ff73a9" d="M8 8h3M7 9h2M10 9h1M7 10h1M10 10h1M7 11h1M10 11h2M15 11h3M8 12h4M29 12h1M31 16h1M29 17h3M29 18h2M30 19h1M30 38h2" />
<path stroke="#000000" d="M14 8h2M18 8h2M13 9h2M19 9h2M12 10h2M20 10h2M13 11h2M18 11h3M12 12h1M15 12h1M17 12h1M21 12h1M11 13h1M15 13h1M17 13h1M21 13h1M11 14h1M13 14h3M17 14h1M19 14h3M28 14h1M10 15h2M13 15h3M17 15h1M19 15h3M27 15h1M30 15h1M6 16h1M9 16h1M11 16h1M13 16h3M17 16h1M19 16h3M23 16h4M29 16h1M7 17h1M9 17h1M11 17h1M15 17h3M21 17h2M27 17h2M4 18h1M8 18h8M17 18h1M21 18h1M24 18h2M28 18h1M5 19h1M7 19h1M16 19h5M26 19h1M29 19h1M6 20h1M9 20h4M25 20h1M27 20h1M29 20h1M6 21h1M8 21h1M13 21h4M24 21h1M29 21h1M7 22h1M10 22h3M14 22h1M17 22h8M27 22h2M8 23h2M12 23h2M15 23h1M23 23h1M26 23h1M14 24h1M16 24h1M23 24h1M25 24h1M15 25h1M17 25h1M22 25h1M24 25h1M15 26h1M17 26h1M21 26h1M23 26h1M16 27h1M18 27h3M22 27h1M17 28h1M21 28h1" />
<path stroke="#ffb0d0" d="M29 8h1M9 9h1M29 9h2M8 10h2M29 10h2M8 11h2M23 17h4M16 18h1M22 18h2M26 18h2M8 19h5M21 19h5M27 19h2M7 20h2M19 20h6M26 20h1M28 20h1M7 21h1M9 21h4M17 21h7M25 21h4M8 22h2M13 22h1M25 22h2M14 23h1M24 23h2M15 24h1M24 24h1M16 25h1M23 25h1M16 26h1M22 26h1M17 27h1M21 27h1M18 28h3M20 34h2M20 35h4M19 36h5M19 37h6M19 38h6M19 39h6" />
<path stroke="#e6106a" d="M27 9h1M27 10h1M8 13h2M10 14h1M9 15h1M29 35h1M30 36h1M31 37h1M32 38h1M32 39h1" />
<path stroke="#ff73ae" d="M28 9h1M31 9h1M28 10h1" />
<path stroke="#e61065" d="M6 10h1M6 11h1M7 12h1M27 12h1M30 20h1M29 22h1M22 28h1M19 29h1M22 29h1M18 30h1M22 30h2M17 31h2M23 31h2M16 32h1M25 32h1M16 33h1M20 33h2M26 33h1M15 34h1M19 34h1M22 34h2M27 34h2M14 35h1M19 35h1M24 35h1M13 36h1M18 36h1M24 36h1M12 37h1M18 37h1M25 37h1M27 37h1M12 38h1M16 38h1M18 38h1M25 38h1M28 38h1M12 39h1M15 39h2M18 39h1M25 39h1M28 39h2" />
<path stroke="#ff73a7" d="M12 11h1M27 11h1M13 12h2M18 12h3M26 12h1M10 13h1M12 13h3M18 13h3M29 13h2M30 14h1M29 15h1M31 15h1M30 16h1M22 31h1M17 32h8M17 33h3M22 33h4M17 34h2M24 34h3M15 35h4M25 35h4M14 36h4M25 36h5M13 37h5M26 37h1M28 37h3M13 38h3M17 38h1M26 38h2M29 38h1M13 39h2M17 39h1M26 39h2M30 39h2" />
<path stroke="#ff73a3" d="M16 12h1M22 12h4M16 13h1M22 13h7M16 14h1M22 14h6M29 14h1M16 15h1M22 15h5M28 15h1M16 16h1M22 16h1M27 16h2M20 29h2M19 30h3M19 31h3" />
<path stroke="#ffe901" d="M12 14h1M18 14h1M12 15h1M18 15h1M18 16h1M13 17h2M18 17h2M18 18h2" />
<path stroke="#ffc5dc" d="M10 16h1M10 17h1" />
<path stroke="#ffe801" d="M12 16h1M12 17h1M20 17h1M20 18h1" />
<path stroke="#e61061" d="M13 19h2M13 20h2M17 20h2" />
<path stroke="#e6105e" d="M15 19h1M15 20h2" />
<path stroke="#cf0958" d="M15 22h2M16 23h7M17 24h3M18 25h1M18 26h1" />
<path stroke="#e70035" d="M20 24h3M19 25h3M19 26h2" />
<path stroke="#671296" d="M28 32h2M28 33h3M29 34h3M30 35h3M31 36h2M32 37h2M33 38h2M33 39h2" />
<path stroke="#ff73a6" d="M16 34h1" />
</svg>