<svg xmlns="http://www.w3.org/2000/svg" viewBox="0 -0.5 40 40" shape-rendering="crispEdges">
<metadata>Made with Pixels to Svg https://codepen.io/shshaw/pen/XbxvNj</metadata>
<path stroke="#47035f" d="M0 0h19M0 1h20M0 2h17M0 3h14M0 4h13M0 5h12M0 6h11M0 7h11M0 8h11M0 9h10M0 10h10M0 11h10M28 11h1M0 12h10M28 12h2M0 13h11M28 13h3M0 14h11M29 14h3M0 15h10M29 15h3M0 16h9M29 16h4M1 17h8M29 17h5M2 18h6M29 18h6M3 19h4M30 19h6M4 20h2M30 20h7M4 21h2M30 21h8M5 22h2M29 22h10M6 23h2M10 23h2M27 23h13M7 24h7M26 24h14M8 25h7M25 25h15M9 26h6M24 26h16M10 27h6M23 27h2M27 27h1M30 27h1M33 27h1M36 27h1M39 27h1M11 28h6M23 28h1M25 28h2M28 28h2M31 28h2M34 28h2M37 28h2M12 29h4M24 29h1M27 29h1M30 29h1M33 29h1M36 29h1M39 29h1M12 30h5M24 30h16M13 31h4M25 31h15M14 32h2M26 32h14M15 33h1M27 33h13M30 34h10M32 35h8M33 36h7M33 37h7M34 38h6M34 39h6" />
<path stroke="#a506df" d="M19 0h21M20 1h20M22 2h18M24 3h16M25 4h15M26 5h14M27 6h13M27 7h13M28 8h12M28 9h12M28 10h12M29 11h11M30 12h10M31 13h9M32 14h8M32 15h8M33 16h7M0 17h1M34 17h6M0 18h2M35 18h5M0 19h3M36 19h4M0 20h4M37 20h3M0 21h4M38 21h2M0 22h5M39 22h1M0 23h6M0 24h7M0 25h8M0 26h9M0 27h10M0 28h11M0 29h12M0 30h12M0 31h13M0 32h14M0 33h15M0 34h15M0 35h14M0 36h13M0 37h12M0 38h12M0 39h12" />
<path stroke="#000000" d="M17 2h5M14 3h3M22 3h2M13 4h1M24 4h1M12 5h1M25 5h1M11 6h1M26 6h1M11 7h1M26 7h1M11 8h1M27 8h1M10 9h1M27 9h1M10 10h1M27 10h1M10 11h1M13 11h2M19 11h2M27 11h1M10 12h1M12 12h1M15 12h1M18 12h1M21 12h1M27 12h1M11 13h1M15 13h1M17 13h1M22 13h1M27 13h1M11 14h5M17 14h6M28 14h1M10 15h2M15 15h1M17 15h1M22 15h1M28 15h1M9 16h1M11 16h2M14 16h1M17 16h2M21 16h1M23 16h4M28 16h1M9 17h1M12 17h2M16 17h1M18 17h3M22 17h1M27 17h2M8 18h8M17 18h1M21 18h1M24 18h2M28 18h1M7 19h1M16 19h5M26 19h1M29 19h1M6 20h1M9 20h4M25 20h1M27 20h1M29 20h1M6 21h1M8 21h1M13 21h8M24 21h1M29 21h1M7 22h1M10 22h3M14 22h1M21 22h4M27 22h2M8 23h2M12 23h2M15 23h1M23 23h1M26 23h1M14 24h3M22 24h4M15 25h1M22 25h1M24 25h1M15 26h1M17 26h1M21 26h1M23 26h1M16 27h1M18 27h3M22 27h1M17 28h1M21 28h1M17 31h1M24 31h1M16 32h1M25 32h1M26 33h1M15 34h1M27 34h3M14 35h1M30 35h2M13 36h1M32 36h1M12 37h1M28 37h1M32 37h1M12 38h1M15 38h1M28 38h1M33 38h1M12 39h1M15 39h1M27 39h2" />
<path stroke="#fd9090" d="M17 3h4M14 4h8M13 5h9M12 6h12M12 7h13M12 8h14M11 9h16M11 10h16M11 11h2M15 11h4M21 11h6M11 12h1M13 12h2M16 12h2M19 12h2M22 12h5M12 13h3M16 13h1M18 13h4M23 13h3M16 14h1M23 14h4M12 15h3M16 15h1M18 15h4M23 15h4M13 16h1M15 16h2M19 16h2M22 16h1M14 17h2M17 17h1M21 17h1M18 18h3M22 28h1M19 29h1M21 29h2M23 31h1M17 32h8M16 33h4M21 33h5M16 34h11M15 35h5M21 35h8M14 36h16M13 37h3M17 37h3M21 37h7M29 37h2M13 38h2M17 38h11M29 38h3M13 39h2M17 39h3M21 39h6M29 39h4" />
<path stroke="#fbacac" d="M21 3h1M22 4h2M24 5h1M25 6h1M26 8h1M26 13h1M27 14h1M27 15h1M27 16h1M20 29h1M20 33h1M20 35h1M31 36h1M16 37h1M20 37h1M20 39h1M33 39h1" />
<path stroke="#ffffff" d="M22 5h2M24 6h1M25 7h1M20 22h1M35 27h1M38 27h1M27 28h1M30 28h1M16 29h1M18 30h1M22 30h1M20 31h1M29 35h1M30 36h1M31 37h1M16 38h1M32 38h1M16 39h1" />
<path stroke="#ff8a00" d="M10 16h1M10 17h2M23 17h4M16 18h1M22 18h2M26 18h2M8 19h8M21 19h5M27 19h2M7 20h2M13 20h12M26 20h1M28 20h1M7 21h1M9 21h4M21 21h3M25 21h4M8 22h2M13 22h1M25 22h2M14 23h1M24 23h2M16 25h1M23 25h1M16 26h1M22 26h1M17 27h1M21 27h1M18 28h3" />
<path stroke="#b10606" d="M15 22h3M16 23h1M22 23h1" />
<path stroke="#fd0606" d="M18 22h1M17 23h3M18 24h3M18 25h4M20 26h1M17 29h2M23 29h1M17 30h1M19 30h3M23 30h1M18 31h2M21 31h2" />
<path stroke="#ff5151" d="M19 22h1M20 23h2M21 24h1" />
<path stroke="#cf0606" d="M17 24h1M17 25h1M18 26h2" />
<path stroke="#b5afaf" d="M25 27h1M28 27h1M31 27h1M34 27h1M37 27h1" />
<path stroke="#e8e0e0" d="M26 27h1M29 27h1M32 27h1" />
<path stroke="#9f9999" d="M24 28h1M33 28h1M36 28h1M39 28h1M25 29h1M28 29h1M31 29h1M34 29h1M37 29h1" />
<path stroke="#b2abab" d="M26 29h1M29 29h1M32 29h1M35 29h1M38 29h1" />
</svg>