<svg xmlns="http://www.w3.org/2000/svg" viewBox="0 -0.5 40 40" shape-rendering="crispEdges">
<metadata>Made with Pixels to Svg https://codepen.io/shshaw/pen/XbxvNj</metadata>
<path stroke="#6abeff" d="M0 0h40M0 1h4M7 1h21M31 1h9M0 2h3M5 2h1M8 2h6M15 2h12M29 2h1M32 2h8M0 3h2M4 3h3M9 3h4M14 3h1M16 3h3M21 3h5M28 3h3M33 3h7M0 4h1M4 4h4M10 4h6M17 4h1M19 4h2M22 4h3M27 4h4M34 4h6M0 5h1M3 5h6M11 5h5M17 5h1M19 5h5M26 5h6M34 5h6M0 6h10M12 6h2M21 6h2M25 6h15M0 7h10M25 7h15M0 8h11M25 8h15M0 9h6M7 9h3M26 9h14M0 10h5M9 10h1M27 10h13M0 11h4M9 11h1M28 11h12M0 12h3M8 12h1M28 12h12M1 13h3M8 13h1M29 13h9M2 14h2M8 14h1M29 14h3M35 14h2M8 15h2M30 15h1M36 15h1M7 16h2M30 16h1M6 17h3M30 17h2M6 18h2M30 18h3M30 19h4M3 20h1M30 20h2M3 21h2M30 21h1M5 22h2M6 23h2M10 23h2M35 23h1M6 24h1M10 24h4M35 24h1M39 24h1M6 25h1M11 25h4M25 25h1M35 25h1M39 25h1M11 26h4M24 26h2M35 26h1M11 27h5M23 27h3M35 27h1M8 28h9M23 28h5M29 28h1M33 28h1M35 28h1M39 28h1M10 29h8M29 29h3M33 29h3M39 29h1M10 30h4M33 30h3M39 30h1M3 31h2M10 31h2M35 31h1M39 31h1M3 32h2M9 32h1M39 32h1M3 33h2M8 33h1M39 33h1M3 34h2M39 34h1M3 35h2M3 36h2M3 37h1M0 38h1M3 38h1M0 39h1M3 39h1" />
<path stroke="#000000" d="M4 1h3M28 1h3M3 2h2M6 2h2M14 2h1M27 2h2M30 2h2M2 3h2M7 3h2M13 3h1M15 3h1M19 3h2M26 3h2M31 3h2M1 4h3M8 4h2M16 4h1M18 4h1M21 4h1M25 4h2M31 4h3M1 5h2M9 5h2M16 5h1M18 5h1M24 5h2M32 5h2M10 6h2M14 6h7M23 6h2M10 7h4M16 7h1M18 7h1M21 7h4M11 8h1M24 8h1M10 9h1M12 9h4M18 9h4M25 9h1M10 10h1M26 10h1M10 11h1M12 11h11M27 11h1M9 12h1M11 12h2M16 12h2M22 12h2M27 12h1M9 13h3M16 13h2M22 13h3M28 13h1M9 14h3M14 14h1M16 14h2M20 14h1M22 14h7M10 15h2M13 15h2M16 15h2M19 15h2M22 15h8M9 16h1M11 16h1M13 16h2M16 16h2M19 16h2M22 16h5M29 16h1M9 17h1M12 17h1M16 17h2M22 17h1M27 17h1M29 17h1M8 18h8M17 18h1M21 18h1M24 18h2M28 18h2M7 19h1M16 19h5M26 19h1M29 19h1M6 20h1M9 20h4M25 20h1M27 20h1M29 20h1M6 21h1M8 21h1M13 21h4M24 21h1M29 21h1M7 22h1M10 22h3M14 22h1M17 22h8M27 22h2M8 23h2M12 23h2M15 23h1M23 23h1M26 23h1M14 24h1M16 24h1M23 24h1M25 24h1M15 25h1M17 25h1M22 25h1M24 25h1M15 26h1M17 26h1M21 26h1M23 26h1M16 27h1M18 27h3M22 27h1M17 28h1M21 28h2M18 29h3M22 29h6M14 30h4M23 30h1M28 30h4M12 31h2M17 31h8M32 31h3M10 32h2M16 32h10M35 32h2M9 33h1M16 33h1M26 33h1M37 33h2M7 34h1M15 34h1M27 34h1M38 34h1M6 35h1M14 35h16M39 35h1M5 36h1M13 36h18M39 36h1M4 37h1M12 37h1M31 37h1M4 38h1M12 38h1M16 38h1M27 38h1M32 38h1M4 39h1M12 39h21" />
<path stroke="#ffee00" d="M14 7h2M17 7h1M19 7h2M12 8h12M11 9h1M16 9h2M22 9h3M11 10h15M11 11h1M23 11h4M10 12h1M24 12h3M25 13h3M27 16h2M28 17h1M21 29h1M18 30h5M17 33h9M16 34h11M13 37h18M13 38h3M17 38h10M28 38h4" />
<path stroke="#6abfff" d="M6 9h1M5 10h4M4 11h5M3 12h2M7 12h1M0 17h1M1 21h1M0 22h2M37 22h1M0 23h2M37 23h2M0 24h2M26 24h1M37 24h2M0 25h2M37 25h2M0 26h2M37 26h1M0 27h1M0 28h1M30 28h2M34 28h1M0 29h1M38 29h1M0 30h2M37 30h2M0 31h2M37 31h2M1 32h1M6 32h1M37 32h2M6 33h2M6 34h1M0 35h1M0 36h2M0 37h2M1 38h1M1 39h1" />
<path stroke="#f52701" d="M5 12h2M0 13h1M4 13h1M7 13h1M1 14h1M4 14h1M7 14h1M4 15h1M7 15h1M0 16h1M2 16h1M6 16h1M1 17h1M3 17h1M5 17h1M0 18h1M2 18h1M5 18h1M3 19h1M6 19h1M1 20h1M4 20h2M0 21h1M5 21h1" />
<path stroke="#ffffff" d="M13 12h3M18 12h4M12 13h4M18 13h4M12 14h2M15 14h1M18 14h2M21 14h1M12 15h1M15 15h1M18 15h1M21 15h1M12 16h1M15 16h1M18 16h1M21 16h1M13 17h3M18 17h4M18 18h3M24 30h4M14 31h3M27 31h5M12 32h3M26 32h1M29 32h4M34 32h1M10 33h4M15 33h1M27 33h2M31 33h1M33 33h4M8 34h2M11 34h1M14 34h1M28 34h3M32 34h6M7 35h4M12 35h2M30 35h2M35 35h1M37 35h2M6 36h2M11 36h2M31 36h3M36 36h1M5 37h2M8 37h1M10 37h2M32 37h1M34 37h1M36 37h4M5 38h2M8 38h1M10 38h2M33 38h2M37 38h3M5 39h1M7 39h3M11 39h1M33 39h2M36 39h1M38 39h2" />
<path stroke="#fd5d02" d="M5 13h2M0 14h1M5 14h2M0 15h4M5 15h2M1 16h1M4 16h2M4 17h1M1 18h1M3 18h2M0 19h2M4 19h2M0 20h1" />
<path stroke="#b163f5" d="M38 13h2M32 14h3M37 14h1M31 15h1M35 15h1M37 15h1M31 16h1M32 17h2M35 17h3M33 18h1M35 18h1M37 18h1M39 18h1M35 19h3M32 20h2M31 21h1M37 21h1M31 22h1M35 22h1M38 22h1M31 23h1M34 23h1M39 23h1M32 24h2" />
<path stroke="#ca92fa" d="M38 14h2M32 15h3M38 15h2M32 16h8M34 17h1M38 17h2M34 18h1M38 18h1M34 19h1M38 19h2M34 20h6M32 21h4M38 21h2M32 22h3M39 22h1M32 23h2" />
<path stroke="#fd5c02" d="M3 16h1" />
<path stroke="#ff8a00" d="M10 16h1M10 17h2M23 17h4M16 18h1M22 18h2M26 18h2M8 19h8M21 19h5M27 19h2M7 20h2M13 20h12M26 20h1M28 20h1M7 21h1M9 21h4M17 21h7M25 21h4M8 22h2M13 22h1M25 22h2M14 23h1M24 23h2M15 24h1M24 24h1M16 25h1M23 25h1M16 26h1M22 26h1M17 27h1M21 27h1M18 28h3" />
<path stroke="#fde702" d="M2 17h1" />
<path stroke="#fdeb02" d="M36 18h1" />
<path stroke="#02ce1a" d="M2 19h1M2 20h1M2 21h1M36 21h1M36 22h1M36 23h1M36 24h1M36 25h1M2 26h1M36 26h1M32 27h1M36 27h1M32 28h1M32 29h1M5 30h1M32 30h1M36 30h1M2 31h1M5 31h1M36 31h1M2 32h1M5 32h1M2 33h1M5 33h1M5 34h1M5 35h1M2 36h1M2 37h1M2 38h1M2 39h1" />
<path stroke="#b400dd" d="M2 22h3M2 23h1M2 24h1M10 25h1M5 26h1M10 26h1M1 27h1M4 27h1M6 27h1M8 27h3M1 28h1M5 28h1M1 29h1M2 30h2M6 30h1M6 31h1M7 32h2" />
<path stroke="#ff0000" d="M15 22h2M16 23h3M22 23h1M17 24h1M21 24h2M20 25h2M18 26h3" />
<path stroke="#fffffd" d="M29 22h2M27 23h3M27 24h1M29 24h1M26 25h4M26 26h2" />
<path stroke="#dd0081" d="M3 23h3M3 24h3M3 25h3M7 25h3M4 26h1M6 26h4M2 27h2M7 27h1M2 28h3M6 28h2M2 29h2M5 29h4M7 30h2M7 31h2" />
<path stroke="#fc809a" d="M19 23h3M18 24h3M18 25h2" />
<path stroke="#ffbd29" d="M30 23h1M30 26h1M34 26h1M30 27h2M33 27h2" />
<path stroke="#b100dd" d="M7 24h3M2 25h1M3 26h1M4 29h1M9 29h1M4 30h1M9 30h1M9 31h1" />
<path stroke="#fde902" d="M28 24h1" />
<path stroke="#ffbe29" d="M30 24h1" />
<path stroke="#f5650b" d="M31 24h1M31 25h1M33 25h1M31 26h3" />
<path stroke="#ffbc29" d="M34 24h1M30 25h1M34 25h1" />
<path stroke="#fdea02" d="M32 25h1" />
<path stroke="#02ce18" d="M28 26h1M28 27h1M28 28h1M36 28h1M28 29h1M36 29h1M2 34h1M2 35h1" />
<path stroke="#6ac1ff" d="M29 26h1M26 27h2M29 27h1" />
<path stroke="#03b415" d="M38 26h2M37 27h3M37 28h2M37 29h1M0 32h1M0 33h2M0 34h2M1 35h1" />
<path stroke="#fde802" d="M5 27h1" />
<path stroke="#aaa8a8" d="M25 31h2M15 32h1M27 32h2M33 32h1M14 33h1M29 33h2M32 33h1M10 34h1M12 34h2M31 34h1M11 35h1M32 35h3M36 35h1M8 36h3M34 36h2M37 36h2M7 37h1M9 37h1M33 37h1M35 37h1M7 38h1M9 38h1M35 38h2M6 39h1M10 39h1M35 39h1M37 39h1" />
</svg>