<svg xmlns="http://www.w3.org/2000/svg" viewBox="0 -0.5 40 40" shape-rendering="crispEdges">
<metadata>Made with Pixels to Svg https://codepen.io/shshaw/pen/XbxvNj</metadata>
<path stroke="#b117bb" d="M0 0h10M17 0h10M0 1h10M16 1h12M0 2h11M16 2h12M0 3h12M15 3h13M34 3h3M0 4h12M15 4h13M33 4h6M0 5h13M15 5h12M31 5h9M0 6h26M30 6h10M0 7h11M16 7h9M29 7h11M1 8h10M16 8h2M21 8h4M28 8h12M2 9h9M15 9h2M22 9h4M27 9h13M3 10h8M12 10h28M4 11h9M15 11h3M21 11h19M5 12h7M16 12h1M22 12h17M6 13h1M9 13h2M16 13h1M22 13h16M9 14h2M16 14h1M22 14h13M9 15h1M16 15h1M22 15h9M16 16h1M22 16h1M27 16h3M8 17h1M28 17h1M5 18h3M29 18h1M2 19h1M5 19h2M30 19h1M0 20h6M30 20h3M0 21h6M30 21h6M0 22h7M29 22h8M0 23h8M27 23h11M0 24h7M12 24h2M26 24h13M0 25h6M13 25h2M25 25h2M28 25h11M0 26h4M13 26h2M24 26h4M29 26h10M2 27h1M12 27h4M23 27h4M30 27h8M12 28h5M23 28h5M31 28h7M12 29h6M21 29h7M32 29h5M11 30h5M18 30h11M11 31h3M19 31h10M11 32h3M20 32h9M9 33h5M20 33h9M8 34h6M20 34h9M8 35h4M20 35h9M9 36h3M20 36h8M21 37h7M23 38h4" />
<path stroke="#000000" d="M10 0h1M16 0h1M27 0h1M10 1h1M15 1h1M28 1h1M11 2h1M15 2h1M28 2h1M34 2h3M12 3h1M14 3h1M28 3h1M33 3h1M37 3h2M12 4h1M14 4h1M28 4h1M31 4h2M39 4h1M13 5h2M27 5h1M30 5h1M26 6h1M29 6h1M25 7h1M28 7h1M0 8h1M18 8h3M25 8h1M27 8h1M1 9h1M12 9h3M21 9h1M26 9h1M2 10h1M11 10h1M3 11h1M13 11h2M18 11h3M4 12h1M12 12h1M15 12h1M17 12h1M21 12h1M39 12h1M5 13h1M11 13h1M15 13h1M17 13h1M21 13h1M38 13h1M6 14h1M11 14h1M13 14h1M15 14h1M17 14h1M19 14h1M21 14h1M35 14h3M7 15h1M10 15h2M13 15h1M15 15h1M17 15h1M19 15h1M21 15h1M31 15h4M2 16h5M9 16h1M11 16h1M13 16h1M15 16h1M17 16h1M19 16h1M21 16h1M23 16h4M30 16h1M0 17h2M9 17h1M11 17h1M15 17h3M21 17h2M27 17h1M29 17h1M8 18h8M17 18h1M20 18h2M24 18h2M27 18h2M30 18h1M7 19h1M16 19h5M26 19h1M29 19h1M31 19h2M6 20h1M9 20h4M25 20h1M27 20h1M29 20h1M33 20h3M6 21h1M8 21h1M13 21h4M24 21h1M29 21h1M36 21h1M7 22h1M10 22h3M14 22h1M17 22h8M27 22h2M37 22h1M8 23h2M12 23h2M15 23h1M23 23h1M26 23h1M38 23h1M14 24h1M16 24h1M23 24h1M25 24h1M39 24h1M7 25h2M15 25h1M17 25h1M22 25h1M24 25h1M27 25h1M39 25h1M6 26h1M9 26h1M15 26h1M17 26h1M21 26h1M23 26h1M28 26h1M39 26h1M5 27h1M9 27h1M16 27h1M18 27h3M22 27h1M27 27h1M29 27h1M38 27h1M4 28h1M8 28h1M17 28h1M21 28h2M28 28h1M30 28h1M38 28h1M3 29h1M8 29h1M18 29h3M28 29h1M31 29h1M37 29h1M2 30h1M7 30h1M29 30h1M32 30h5M0 31h2M6 31h1M18 31h1M29 31h1M31 31h1M39 31h1M6 32h1M17 32h1M19 32h1M29 32h1M32 32h1M37 32h2M6 33h1M16 33h1M19 33h1M29 33h1M33 33h1M36 33h1M5 34h1M15 34h1M19 34h1M29 34h2M34 34h2M5 35h1M15 35h1M19 35h1M29 35h1M31 35h1M5 36h1M15 36h1M19 36h1M28 36h1M31 36h1M5 37h1M15 37h1M20 37h1M28 37h1M30 37h1M32 37h1M6 38h1M15 38h1M21 38h2M27 38h1M29 38h1M7 39h1M14 39h1M23 39h4M28 39h1" />
<path stroke="#f6b33e" d="M11 0h5M28 0h12M11 1h4M29 1h11M12 2h3M29 2h5M37 2h3M13 3h1M29 3h4M39 3h1M13 4h1M29 4h2M28 5h2M27 6h2M26 7h2M26 8h1M0 9h1M0 10h2M0 11h3M0 12h4M0 13h5M39 13h1M0 14h6M38 14h2M0 15h7M35 15h5M0 16h2M31 16h9M30 17h10M31 18h9M33 19h7M36 20h4M37 21h3M38 22h2M39 23h1M7 26h2M6 27h3M39 27h1M5 28h3M39 28h1M4 29h4M38 29h2M3 30h4M37 30h3M2 31h4M32 31h7M0 32h6M18 32h1M33 32h4M0 33h6M17 33h2M34 33h2M0 34h5M16 34h3M0 35h5M16 35h3M30 35h1M0 36h5M16 36h3M29 36h2M0 37h5M16 37h4M29 37h1M0 38h6M16 38h5M28 38h1M0 39h7M15 39h8M27 39h1" />
<path stroke="#ae17bb" d="M11 7h5M11 8h5M11 9h1M17 9h4M7 13h2M7 14h2M8 15h1M7 16h2M2 17h6M0 18h5M0 19h2M3 19h2M10 23h2M7 24h5M9 25h4M4 26h2M10 26h3M0 27h2M3 27h2M10 27h2M0 28h4M9 28h3M0 29h3M9 29h3M0 30h2M8 30h3M16 30h2M7 31h4M14 31h4M7 32h4M14 32h3M7 33h2M14 33h2M6 34h2M14 34h1M6 35h2M12 35h3M6 36h3M12 36h3M6 37h9M7 38h8M8 39h6" />
<path stroke="#ffffff" d="M13 12h2M18 12h3M12 13h3M18 13h3M12 14h1M14 14h1M18 14h1M20 14h1M12 15h1M14 15h1M18 15h1M20 15h1M12 16h1M14 16h1M18 16h1M20 16h1M12 17h3M18 17h3M18 18h2" />
<path stroke="#ff8a00" d="M10 16h1M10 17h1M23 17h4M16 18h1M22 18h2M26 18h1M8 19h8M21 19h5M27 19h2M7 20h2M13 20h12M26 20h1M28 20h1M7 21h1M9 21h4M17 21h7M25 21h4M8 22h2M13 22h1M25 22h2M14 23h1M24 23h2M15 24h1M24 24h1M16 25h1M23 25h1M16 26h1M22 26h1M17 27h1M21 27h1M18 28h3" />
<path stroke="#ff0000" d="M15 22h2M16 23h3M22 23h1M17 24h1M21 24h2M20 25h2M18 26h3M38 36h2M38 37h2M31 39h3" />
<path stroke="#fc809a" d="M19 23h3M18 24h3M18 25h2" />
<path stroke="#aa17bb" d="M6 25h1" />
<path stroke="#068683" d="M28 27h1M29 28h1M29 29h2M30 30h2M30 31h1M30 32h2M39 32h1M30 33h3M37 33h3M31 34h2M36 34h4M32 35h3M32 36h3M33 37h2M34 38h1M35 39h2M38 39h2" />
<path stroke="#087f86" d="M33 34h1" />
<path stroke="#068682" d="M35 35h3M35 36h2M31 37h1M35 37h2M30 38h1M35 38h3M29 39h1M37 39h1" />
<path stroke="#0ac814" d="M38 35h2M37 36h1M37 37h1M31 38h3M38 38h2M30 39h1M34 39h1" />
</svg>