<svg xmlns="http://www.w3.org/2000/svg" viewBox="0 -0.5 40 40" shape-rendering="crispEdges">
<metadata>Made with Pixels to Svg https://codepen.io/shshaw/pen/XbxvNj</metadata>
<path stroke="#000000" d="M0 0h13M23 0h17M0 1h12M25 1h14M0 2h12M27 2h11M0 3h12M28 3h9M0 4h12M28 4h8M0 5h12M28 5h7M0 6h12M29 6h5M0 7h11M29 7h4M0 8h11M19 8h3M29 8h3M0 9h14M18 9h1M29 9h2M0 10h11M17 10h1M29 10h1M0 11h10M13 11h2M18 11h3M28 11h1M0 12h10M12 12h1M15 12h1M17 12h1M21 12h1M28 12h1M0 13h10M11 13h1M15 13h1M17 13h1M21 13h1M28 13h1M0 14h10M11 14h1M15 14h1M17 14h1M20 14h2M28 14h1M0 15h12M14 15h2M17 15h1M19 15h3M28 15h1M0 16h10M11 16h1M14 16h2M17 16h1M19 16h3M23 16h4M28 16h1M0 17h10M12 17h1M14 17h4M19 17h4M27 17h2M0 18h16M17 18h1M20 18h2M24 18h2M28 18h1M0 19h8M16 19h5M26 19h1M29 19h1M0 20h7M9 20h4M25 20h1M27 20h1M29 20h1M0 21h7M8 21h1M13 21h4M24 21h1M29 21h1M0 22h8M10 22h3M14 22h1M17 22h8M27 22h2M0 23h14M15 23h1M23 23h1M26 23h1M0 24h15M16 24h1M23 24h1M25 24h1M0 25h16M17 25h1M22 25h1M24 25h1M0 26h14M15 26h1M17 26h1M21 26h1M23 26h1M0 27h13M16 27h1M18 27h3M22 27h1M0 28h12M17 28h1M21 28h2M0 29h11M19 29h1M22 29h1M0 30h10M18 30h1M22 30h2M0 31h9M15 31h4M23 31h4M0 32h8M14 32h1M16 32h1M25 32h2M28 32h1M0 33h7M13 33h1M15 33h1M17 33h1M24 33h1M26 33h2M29 33h1M0 34h6M12 34h1M14 34h1M16 34h3M23 34h3M27 34h2M30 34h1M0 35h5M12 35h2M15 35h4M23 35h4M28 35h4M0 36h4M11 36h2M15 36h5M22 36h5M29 36h4M0 37h3M11 37h3M15 37h6M22 37h4M28 37h2M31 37h3M0 38h2M11 38h4M16 38h4M21 38h4M26 38h3M30 38h4M0 39h1M11 39h5M17 39h4M22 39h2M25 39h3M29 39h5" />
<path stroke="#c7008c" d="M13 0h1M15 0h1M17 0h1M19 0h1M21 0h1M13 1h1M15 1h1M17 1h1M19 1h1M21 1h1M23 1h1M13 2h1M15 2h1M17 2h1M19 2h1M21 2h1M23 2h1M25 2h1M13 3h1M15 3h1M17 3h1M25 3h1M27 3h1M13 4h1M15 4h1M17 4h1M22 4h1M24 4h1M27 4h1M13 5h1M15 5h1M24 6h1M27 6h2M28 7h1" />
<path stroke="#ff00b4" d="M14 0h1M16 0h1M18 0h1M20 0h1M22 0h1M12 1h1M14 1h1M16 1h1M18 1h1M20 1h1M22 1h1M24 1h1M12 2h1M14 2h1M16 2h1M18 2h1M24 2h1M26 2h1M12 3h1M14 3h1M16 3h1M18 3h1M26 3h1M12 4h1M14 4h1M16 4h1M26 4h1M14 5h1M27 5h1M14 6h1" />
<path stroke="#da0000" d="M39 1h1M38 2h2M37 3h3M36 4h4M35 5h5M34 6h6M33 7h7M32 8h8M31 9h9M30 10h10M29 11h11M29 12h11M29 13h11M29 14h11M29 15h11M29 16h11M29 17h11M29 18h11M30 19h10M30 20h10M30 21h10M29 22h11M27 23h13M26 24h14M25 25h15M14 26h1M24 26h16M13 27h3M23 27h17M12 28h5M23 28h17M11 29h8M23 29h17M10 30h8M24 30h16M9 31h6M27 31h13M8 32h6M29 32h11M7 33h6M30 33h10M6 34h6M31 34h9M5 35h7M32 35h8M4 36h7M33 36h7M3 37h8M34 37h6M2 38h9M34 38h6M1 39h10M34 39h6" />
<path stroke="#ffffff" d="M20 2h1M22 2h1M19 3h6M18 4h4M23 4h1M25 4h1M12 5h1M16 5h11M12 6h2M15 6h9M25 6h2M11 7h17M11 8h8M22 8h7M14 9h4M19 9h10M11 10h6M18 10h11M10 11h3M15 11h3M21 11h7M10 12h2M16 12h1M22 12h6M10 13h1M16 13h1M22 13h6M10 14h1M14 14h1M16 14h1M19 14h1M22 14h6M16 15h1M22 15h6M16 16h1M22 16h1M27 16h1M20 29h2M19 30h3M19 31h3M15 32h1M18 32h1M20 32h1M22 32h2M27 32h1M14 33h1M18 33h2M21 33h3M28 33h1M13 34h1M19 34h4M29 34h1M19 35h4M14 36h1M20 36h2M27 36h1" />
<path stroke="#c3d9f9" d="M13 12h2M18 12h3M12 13h3M18 13h3M12 14h2M18 14h1M12 15h2M18 15h1M12 16h2M18 16h1M13 17h1M18 17h1M18 18h2" />
<path stroke="#ff8a00" d="M10 16h1M10 17h2M23 17h4M16 18h1M22 18h2M26 18h2M8 19h8M21 19h5M27 19h2M7 20h2M13 20h12M26 20h1M28 20h1M7 21h1M9 21h4M17 21h7M25 21h4M8 22h2M13 22h1M25 22h2M14 23h1M24 23h2M15 24h1M24 24h1M16 25h1M23 25h1M16 26h1M22 26h1M17 27h1M21 27h1M18 28h3" />
<path stroke="#ff0000" d="M15 22h2M16 23h3M22 23h1M17 24h1M21 24h2M20 25h2M18 26h3" />
<path stroke="#fc809a" d="M19 23h3M18 24h3M18 25h2" />
<path stroke="#aaa9a9" d="M22 31h1M19 32h1M21 32h1M20 33h1M21 37h1M20 38h1M21 39h1" />
<path stroke="#5b5656" d="M17 32h1M24 32h1M16 33h1M25 33h1M15 34h1M26 34h1M14 35h1M27 35h1M13 36h1M28 36h1M14 37h1M26 37h2M30 37h1M15 38h1M25 38h1M29 38h1M16 39h1M24 39h1M28 39h1" />
</svg>