<svg xmlns="http://www.w3.org/2000/svg" viewBox="0 -0.5 40 40" shape-rendering="crispEdges">
<metadata>Made with Pixels to Svg https://codepen.io/shshaw/pen/XbxvNj</metadata>
<path stroke="#cd1616" d="M0 0h1M7 0h1M15 0h2M32 0h1M38 0h2M0 1h1M7 1h1M38 1h2M0 2h2M8 2h1M31 2h1M37 2h3M0 3h3M36 3h4M3 4h1M36 4h2M3 5h2M35 5h2M34 6h2M0 15h1M0 16h2M0 21h1M0 22h2M0 27h2M0 28h1M0 29h1M0 37h2M0 38h1M0 39h1" />
<path stroke="#d45414" d="M1 0h1M8 0h1" />
<path stroke="#f4cc0a" d="M2 0h1M27 0h1M30 0h1M36 0h1M29 1h1M4 2h1M28 2h1M33 2h1M34 3h1M2 9h1M39 12h1M1 19h1M2 20h1" />
<path stroke="#f9da07" d="M3 0h1M10 0h1" />
<path stroke="#de7911" d="M4 0h1" />
<path stroke="#d02914" d="M5 0h1" />
<path stroke="#cd1615" d="M6 0h1M2 4h1M2 17h1" />
<path stroke="#f3ca0a" d="M9 0h1" />
<path stroke="#000000" d="M11 0h4M21 0h3M10 1h1M15 1h4M20 1h1M24 1h1M9 2h1M19 2h7M8 3h1M25 3h5M7 4h1M30 4h2M7 5h1M15 5h8M32 5h1M7 6h1M13 6h1M23 6h1M33 6h1M8 7h2M12 7h13M34 7h1M9 8h4M25 8h1M34 8h1M11 9h3M18 9h4M26 9h1M34 9h1M10 10h1M22 10h1M26 10h1M34 10h1M10 11h1M13 11h2M18 11h3M27 11h2M33 11h1M10 12h1M12 12h1M15 12h1M17 12h1M21 12h1M27 12h1M29 12h5M11 13h1M15 13h1M17 13h1M21 13h1M27 13h1M11 14h1M15 14h1M17 14h1M20 14h2M28 14h1M10 15h2M14 15h2M17 15h1M19 15h3M28 15h1M9 16h1M11 16h1M14 16h2M17 16h1M19 16h3M23 16h4M28 16h1M9 17h1M12 17h1M14 17h4M19 17h4M27 17h2M8 18h8M17 18h1M20 18h2M24 18h2M28 18h1M7 19h1M16 19h5M26 19h1M29 19h1M31 19h4M6 20h1M9 20h4M25 20h1M27 20h1M29 20h2M35 20h2M6 21h1M8 21h1M13 21h4M24 21h1M29 21h1M37 21h1M5 22h3M10 22h3M14 22h1M17 22h8M27 22h2M38 22h1M4 23h1M8 23h2M12 23h2M15 23h1M23 23h1M26 23h1M39 23h1M3 24h1M14 24h1M16 24h1M23 24h1M25 24h1M39 24h1M2 25h1M15 25h1M17 25h1M22 25h1M25 25h1M2 26h1M15 26h1M17 26h1M21 26h1M23 26h1M25 26h1M2 27h1M14 27h1M16 27h1M18 27h3M22 27h1M25 27h1M1 28h1M14 28h1M17 28h1M21 28h1M25 28h1M1 29h1M13 29h1M18 29h3M26 29h1M1 30h1M13 30h1M1 31h1M29 31h1M1 32h1M10 32h1M30 32h1M2 33h1M9 33h1M11 33h1M15 33h1M22 33h2M30 33h1M3 34h1M8 34h1M16 34h2M20 34h2M31 34h2M3 35h1M8 35h1M18 35h2M30 35h1M33 35h1M2 36h1M8 36h1M18 36h1M30 36h1M34 36h1M2 37h1M8 37h1M18 37h1M29 37h1M1 38h1M8 38h1M18 38h1M29 38h1M1 39h1M8 39h1M18 39h1M29 39h1" />
<path stroke="#d55c14" d="M17 0h1M0 20h1M0 32h1M0 36h1" />
<path stroke="#f9da08" d="M18 0h1M35 0h1M34 2h1M0 6h1M38 13h2M39 22h1M2 34h1" />
<path stroke="#ffec00" d="M19 0h1" />
<path stroke="#f9db08" d="M20 0h1M0 12h2M33 17h1" />
<path stroke="#fbdf11" d="M24 0h1" />
<path stroke="#feea23" d="M25 0h1" />
<path stroke="#feea10" d="M26 0h1M5 10h1M33 16h1" />
<path stroke="#dc7c12" d="M28 0h1M27 1h1M27 2h1M0 7h1" />
<path stroke="#f8d708" d="M29 0h1M0 19h1M2 19h1M0 24h1" />
<path stroke="#d45614" d="M31 0h1M37 0h1M32 2h1M35 3h1M0 17h1" />
<path stroke="#cf2915" d="M33 0h1M6 1h1M31 1h1M7 2h1M36 2h1M1 4h1M35 4h1M38 4h1M2 5h1M34 5h1M37 5h1M4 6h1M36 6h1M5 7h1M6 14h1M39 15h1M1 17h1M4 18h1M38 20h1M0 33h1" />
<path stroke="#dc7712" d="M34 0h1M30 1h1M39 14h1M36 16h1M39 18h1M2 23h1M1 25h1M0 34h1" />
<path stroke="#ce2815" d="M1 1h1M8 1h1M2 2h1M3 3h1M4 4h1M35 7h1M0 14h1M1 15h1M2 16h1M3 17h1M1 21h1M2 22h1" />
<path stroke="#da7113" d="M2 1h1M6 6h1M1 9h1M1 14h1M2 15h1" />
<path stroke="#f4cb0a" d="M3 1h1" />
<path stroke="#f5cd0a" d="M4 1h1M5 2h1M0 5h1M1 6h1M0 11h1M0 18h1" />
<path stroke="#dc7412" d="M5 1h1M1 5h1" />
<path stroke="#db7712" d="M9 1h1M37 17h1M1 20h1M2 35h1" />
<path stroke="#0667f9" d="M11 1h4M10 2h9M9 3h16M9 4h21M11 5h4M23 5h9M24 6h8M25 7h7M26 8h6M29 9h2" />
<path stroke="#fbdf06" d="M19 1h1" />
<path stroke="#c20808" d="M21 1h1M23 1h1M14 6h2M22 6h1M32 13h1M32 14h1M33 15h1M34 16h1" />
<path stroke="#e40707" d="M22 1h1M16 6h6M33 13h1M33 14h2M34 15h2" />
<path stroke="#f6dd4c" d="M25 1h1" />
<path stroke="#f9dd24" d="M26 1h1" />
<path stroke="#dd7c12" d="M28 1h1" />
<path stroke="#cf2815" d="M32 1h1M37 1h1M5 6h1M6 7h1M0 9h1M8 15h1M39 19h1M1 26h1" />
<path stroke="#db7213" d="M33 1h1M36 1h1M34 4h1M38 15h1M1 33h1" />
<path stroke="#f5cc0a" d="M34 1h2M37 15h1M35 16h1M39 21h1M3 23h1M0 25h1M1 34h1" />
<path stroke="#da7213" d="M3 2h1M7 7h1" />
<path stroke="#db7313" d="M6 2h1M7 9h1M3 12h1" />
<path stroke="#f9da12" d="M26 2h1M33 3h1M10 14h1M35 14h1" />
<path stroke="#f8d808" d="M29 2h1" />
<path stroke="#d65d14" d="M30 2h1M0 23h1" />
<path stroke="#dc7812" d="M35 2h1M2 6h1M29 14h1M38 21h1" />
<path stroke="#da7013" d="M4 3h1M4 11h1M9 15h1" />
<path stroke="#f3cb13" d="M5 3h1" />
<path stroke="#f4cd28" d="M6 3h1" />
<path stroke="#d9732b" d="M7 3h1M28 13h1" />
<path stroke="#d65d1a" d="M30 3h1" />
<path stroke="#d3562c" d="M31 3h1" />
<path stroke="#db7d2b" d="M32 3h1M30 19h1" />
<path stroke="#d55714" d="M0 4h1M3 6h1M6 8h1M0 10h1M2 11h1M3 18h1" />
<path stroke="#da7727" d="M5 4h1" />
<path stroke="#f4da54" d="M6 4h1" />
<path stroke="#0762e4" d="M8 4h1M8 5h3M8 6h5M10 7h2" />
<path stroke="#f5db56" d="M32 4h1" />
<path stroke="#f4cd25" d="M33 4h1" />
<path stroke="#d55514" d="M39 4h1M39 20h1" />
<path stroke="#d4541a" d="M5 5h1" />
<path stroke="#f3ca28" d="M6 5h1" />
<path stroke="#dc7718" d="M33 5h1" />
<path stroke="#da7219" d="M38 5h1M36 7h1M35 8h1M5 12h1" />
<path stroke="#f4cc28" d="M39 5h1" />
<path stroke="#0761e4" d="M32 6h1M32 7h2M32 8h2M27 9h2M31 9h3M27 10h7M29 11h4" />
<path stroke="#db7319" d="M37 6h1" />
<path stroke="#f4d036" d="M38 6h1M36 8h1M35 9h1" />
<path stroke="#faeb60" d="M39 6h1M38 7h1M31 14h1" />
<path stroke="#f9d908" d="M1 7h1" />
<path stroke="#fade07" d="M2 7h1M5 9h1" />
<path stroke="#f5ce0a" d="M3 7h1M4 10h1M2 12h1M1 13h1" />
<path stroke="#db7312" d="M4 7h1" />
<path stroke="#f4d136" d="M37 7h1" />
<path stroke="#faed67" d="M39 7h1M31 15h1" />
<path stroke="#d45514" d="M0 8h1M2 10h1M38 19h1M2 21h1M0 26h1M1 36h1" />
<path stroke="#f3c90a" d="M1 8h1M1 24h2M0 35h1" />
<path stroke="#fee903" d="M2 8h1" />
<path stroke="#ffea03" d="M3 8h1" />
<path stroke="#f7d209" d="M4 8h1" />
<path stroke="#dd7a10" d="M5 8h1" />
<path stroke="#d03515" d="M7 8h1M3 11h1" />
<path stroke="#db7718" d="M8 8h1M30 13h1" />
<path stroke="#ffffff" d="M13 8h12M14 9h4M22 9h4M11 10h11M23 10h3M11 11h2M15 11h3M21 11h6M11 12h1M16 12h1M22 12h5M16 13h1M22 13h5M14 14h1M16 14h1M19 14h1M22 14h6M16 15h1M22 15h6M16 16h1M22 16h1M27 16h1M31 20h4M30 21h7M29 22h9M7 23h1M29 23h10M6 24h6M28 24h11M5 25h8M28 25h11M5 26h8M28 26h11M5 27h9M24 27h1M28 27h11M4 28h10M23 28h2M29 28h9M39 28h1M4 29h9M24 29h2M30 29h10M4 30h9M18 30h2M22 30h2M25 30h3M30 30h5M36 30h4M4 31h9M14 31h1M18 31h3M22 31h1M24 31h1M26 31h3M35 31h5M4 32h5M11 32h5M18 32h8M27 32h2M32 32h2M35 32h5M5 33h3M12 33h3M16 33h6M24 33h6M32 33h3M36 33h4M4 34h4M10 34h6M18 34h2M23 34h7M33 34h2M36 34h2M39 34h1M4 35h3M10 35h8M22 35h7M34 35h2M38 35h2M4 36h1M6 36h1M10 36h8M20 36h9M32 36h2M35 36h2M38 36h2M4 37h2M10 37h8M21 37h8M32 37h4M37 37h3M4 38h1M10 38h1M13 38h5M21 38h3M26 38h3M32 38h3M36 38h4M3 39h2M6 39h1M14 39h4M20 39h3M27 39h2M33 39h2M36 39h4" />
<path stroke="#faeb62" d="M37 8h1M36 9h1M35 10h1M34 11h1" />
<path stroke="#f9eb67" d="M38 8h1M30 17h1" />
<path stroke="#f8dd3a" d="M39 8h1" />
<path stroke="#fadd07" d="M3 9h1M36 15h1" />
<path stroke="#fee704" d="M4 9h1M2 13h1M37 14h1" />
<path stroke="#f6ce0a" d="M6 9h1M37 13h1" />
<path stroke="#d55c28" d="M8 9h1" />
<path stroke="#efcb56" d="M9 9h1" />
<path stroke="#f5db57" d="M10 9h1" />
<path stroke="#f8eb6d" d="M37 9h1M35 11h1" />
<path stroke="#f0d061" d="M38 9h1" />
<path stroke="#db772b" d="M39 9h1" />
<path stroke="#d13514" d="M1 10h1" />
<path stroke="#db7612" d="M3 10h1M0 13h1" />
<path stroke="#feeb27" d="M6 10h1" />
<path stroke="#f5d12b" d="M7 10h1" />
<path stroke="#dc7a2e" d="M8 10h1" />
<path stroke="#da772e" d="M9 10h1" />
<path stroke="#f9ed6d" d="M36 10h1M34 12h1" />
<path stroke="#f5de62" d="M37 10h1M36 11h1M35 12h1" />
<path stroke="#d97838" d="M38 10h1M5 17h1" />
<path stroke="#ce291b" d="M39 10h1M8 16h1M37 20h1" />
<path stroke="#dd7911" d="M1 11h1M1 18h1" />
<path stroke="#f4ce24" d="M5 11h1" />
<path stroke="#fbea56" d="M6 11h1" />
<path stroke="#faeb65" d="M7 11h1M29 18h1" />
<path stroke="#f1d262" d="M8 11h1" />
<path stroke="#da7a39" d="M9 11h1" />
<path stroke="#f2ca36" d="M37 11h1" />
<path stroke="#d65c1a" d="M38 11h1" />
<path stroke="#d55614" d="M39 11h1" />
<path stroke="#d13515" d="M4 12h1" />
<path stroke="#f3cc36" d="M6 12h1" />
<path stroke="#f5de63" d="M7 12h1" />
<path stroke="#f7e86e" d="M8 12h1" />
<path stroke="#f0d162" d="M9 12h1" />
<path stroke="#c3d9f9" d="M13 12h2M18 12h3M12 13h3M18 13h3M12 14h2M18 14h1M12 15h2M18 15h1M12 16h2M18 16h1M13 17h1M18 17h1M18 18h2" />
<path stroke="#f2d15f" d="M28 12h1" />
<path stroke="#dc8238" d="M36 12h1" />
<path stroke="#db7818" d="M37 12h1" />
<path stroke="#dc7d12" d="M38 12h1M33 18h1" />
<path stroke="#f6d113" d="M3 13h1" />
<path stroke="#db7528" d="M4 13h1" />
<path stroke="#d0351b" d="M5 13h1M29 13h1" />
<path stroke="#d4551a" d="M6 13h1M4 17h1" />
<path stroke="#d97738" d="M7 13h1" />
<path stroke="#efce60" d="M8 13h1M6 16h1M5 20h1" />
<path stroke="#f8e85f" d="M9 13h1" />
<path stroke="#f5d128" d="M10 13h1" />
<path stroke="#f8dd35" d="M31 13h1" />
<path stroke="#f6e062" d="M34 13h1" />
<path stroke="#f7db35" d="M35 13h1" />
<path stroke="#e39316" d="M36 13h1" />
<path stroke="#f5cf0a" d="M2 14h1M38 14h1" />
<path stroke="#fde727" d="M3 14h1" />
<path stroke="#f2d156" d="M4 14h1" />
<path stroke="#db752b" d="M5 14h1" />
<path stroke="#cf281b" d="M7 14h1M5 18h1" />
<path stroke="#d9702b" d="M8 14h1" />
<path stroke="#f4ce28" d="M9 14h1M3 15h1" />
<path stroke="#f5d028" d="M30 14h1M35 18h1" />
<path stroke="#fbe006" d="M36 14h1" />
<path stroke="#f9e857" d="M4 15h1" />
<path stroke="#f4d138" d="M5 15h1" />
<path stroke="#db752c" d="M6 15h1" />
<path stroke="#cf291b" d="M7 15h1" />
<path stroke="#fade11" d="M29 15h1" />
<path stroke="#fdea37" d="M30 15h1" />
<path stroke="#fbed62" d="M32 15h1M29 17h1" />
<path stroke="#d97019" d="M3 16h1" />
<path stroke="#f2ca32" d="M4 16h1" />
<path stroke="#f5db59" d="M5 16h1" />
<path stroke="#d87339" d="M7 16h1M8 17h1" />
<path stroke="#ff8a00" d="M10 16h1M10 17h2M23 17h4M16 18h1M22 18h2M26 18h2M8 19h8M21 19h5M27 19h2M7 20h2M13 20h12M26 20h1M28 20h1M7 21h1M9 21h4M17 21h7M25 21h4M8 22h2M13 22h1M25 22h2M14 23h1M24 23h2M15 24h1M24 24h1M16 25h1M23 25h1M16 26h1M22 26h1M17 27h1M21 27h1M18 28h3" />
<path stroke="#feed35" d="M29 16h1" />
<path stroke="#fbed60" d="M30 16h2" />
<path stroke="#feed34" d="M32 16h1" />
<path stroke="#d65c14" d="M37 16h3M1 23h1M0 30h1" />
<path stroke="#efcd61" d="M6 17h1" />
<path stroke="#efce61" d="M7 17h1" />
<path stroke="#f9de38" d="M31 17h1" />
<path stroke="#f9db12" d="M32 17h1" />
<path stroke="#f6d10a" d="M34 17h1" />
<path stroke="#e18e11" d="M35 17h1" />
<path stroke="#d76313" d="M36 17h1" />
<path stroke="#f3c90b" d="M38 17h1M1 35h1" />
<path stroke="#f4ca0a" d="M39 17h1" />
<path stroke="#d75d13" d="M2 18h1" />
<path stroke="#d87137" d="M6 18h1" />
<path stroke="#efcd60" d="M7 18h1" />
<path stroke="#f0d05f" d="M30 18h1" />
<path stroke="#db782b" d="M31 18h1" />
<path stroke="#d76213" d="M32 18h1" />
<path stroke="#e29217" d="M34 18h1" />
<path stroke="#f8d828" d="M36 18h1" />
<path stroke="#f4cc13" d="M37 18h1" />
<path stroke="#f4c90b" d="M38 18h1" />
<path stroke="#f5cd13" d="M3 19h1" />
<path stroke="#dc792b" d="M4 19h1" />
<path stroke="#d4572c" d="M5 19h1" />
<path stroke="#d1401f" d="M6 19h1" />
<path stroke="#f9e85d" d="M35 19h1" />
<path stroke="#f1d058" d="M36 19h1" />
<path stroke="#da7728" d="M37 19h1" />
<path stroke="#f9da28" d="M3 20h1" />
<path stroke="#f4db5f" d="M4 20h1M5 21h1" />
<path stroke="#da772b" d="M3 21h1" />
<path stroke="#eecb5d" d="M4 21h1" />
<path stroke="#d55c19" d="M3 22h1" />
<path stroke="#db7c2b" d="M4 22h1" />
<path stroke="#ff0000" d="M15 22h2M16 23h3M22 23h1M17 24h1M21 24h2M20 25h2M18 26h3" />
<path stroke="#eaedf7" d="M5 23h1M4 24h1M12 24h2M3 25h1M14 25h1M2 28h1M16 28h1M2 29h1M2 30h1M2 31h1M2 32h1M3 33h1M7 35h1M3 36h1M7 36h1M3 37h1M7 37h1M2 38h2M7 38h1M2 39h1M7 39h1" />
<path stroke="#f0f3ff" d="M6 23h1M10 23h2M27 23h2M5 24h1M26 24h2M4 25h1M13 25h1M24 25h1M26 25h2M39 25h1M3 26h2M13 26h2M24 26h1M26 26h2M39 26h1M3 27h2M15 27h1M23 27h1M26 27h2M39 27h1M3 28h1M15 28h1M26 28h3M38 28h1M3 29h1M14 29h3M21 29h2M27 29h3M3 30h1M14 30h2M17 30h1M20 30h2M28 30h2M35 30h1M3 31h1M13 31h1M17 31h1M21 31h1M30 31h5M3 32h1M9 32h1M16 32h1M29 32h1M31 32h1M4 33h1M8 33h1M10 33h1M31 33h1M9 34h1M22 34h1M30 34h1M9 35h1M20 35h2M29 35h1M31 35h2M9 36h1M19 36h1M29 36h1M31 36h1M9 37h1M19 37h2M30 37h2M9 38h1M19 38h2M30 38h2M9 39h1M19 39h1M30 39h3" />
<path stroke="#fc809a" d="M19 23h3M18 24h3M18 25h2" />
<path stroke="#fcc3d3" d="M22 28h1M17 29h1M23 29h1M16 30h1M24 30h1M15 31h2M23 31h1M25 31h1M17 32h1M26 32h1M5 36h1M6 37h1M5 38h2M5 39h1" />
<path stroke="#f2c60b" d="M0 31h1" />
<path stroke="#fcc3d5" d="M34 32h1M35 33h1M35 34h1M35 38h1M35 39h1" />
<path stroke="#fcc3d4" d="M38 34h1M36 35h2M37 36h1M36 37h1" />
<path stroke="#f8b3c5" d="M11 38h2M24 38h2M10 39h1M13 39h1M23 39h1M26 39h1" />
<path stroke="#fc80a0" d="M11 39h2" />
<path stroke="#fc809f" d="M24 39h2" />
</svg>