<svg xmlns="http://www.w3.org/2000/svg" viewBox="0 -0.5 40 40" shape-rendering="crispEdges">
<metadata>Made with Pixels to Svg https://codepen.io/shshaw/pen/XbxvNj</metadata>
<path stroke="#521201" d="M0 0h22M23 0h2M26 0h9M36 0h4M1 1h14M23 1h2M26 1h9M36 1h4M1 2h7M10 2h3M24 2h1M28 2h12M1 3h4M6 3h2M11 3h1M28 3h4M34 3h6M2 4h3M6 4h2M27 4h4M35 4h5M2 5h2M9 5h1M27 5h4M35 5h5M2 6h2M6 6h1M10 6h1M28 6h3M35 6h5M2 7h2M6 7h3M10 7h1M29 7h2M35 7h5M7 8h2M10 8h1M29 8h2M35 8h1M37 8h3M8 9h3M30 9h1M37 9h1M39 9h1M8 10h2M37 10h1M39 10h1M9 11h1M29 11h2M37 11h1M39 11h1M9 12h1M29 12h2M37 12h1M39 12h1M9 13h2M29 13h2M39 13h1M10 14h1M29 14h2M39 14h1M27 23h1M27 24h1M27 25h1M27 26h1" />
<path stroke="#8e2407" d="M22 0h1M35 0h1M0 1h1M21 1h1M35 1h1M5 3h1M32 3h2M1 4h1M5 4h1M8 4h1M31 4h4M1 5h1M4 5h5M31 5h4M1 6h1M4 6h1M7 6h3M31 6h1M33 6h2M4 7h1M9 7h1M31 7h1M33 7h2M2 8h3M9 8h1M33 8h2M2 9h3M33 9h3M38 9h1M2 10h3M34 10h2M38 10h1M2 11h3M31 11h1M38 11h1M3 12h2M31 12h1M38 12h1M3 13h1M31 13h1M38 13h1M38 14h1M29 15h1M38 15h1M29 16h1M38 16h1M29 17h1M29 18h1M13 24h1M13 25h2M14 26h1M14 27h1" />
<path stroke="#641e0b" d="M25 0h1M22 1h1M25 1h1M0 2h1M25 2h1M0 3h1M0 4h1M0 5h1M0 6h1M5 6h1M0 7h2M5 7h1M1 8h1M5 8h1M1 9h1M1 10h1M1 11h1M2 12h1M2 13h1M4 13h1M2 14h3M2 15h3M3 16h2M4 17h1M13 26h1M13 27h1" />
<path stroke="#000000" d="M15 1h6M13 2h2M21 2h3M12 3h2M24 3h1M26 5h1M27 6h1M11 7h1M28 7h1M11 8h3M19 8h2M28 8h1M11 9h1M14 9h1M18 9h1M21 9h1M28 9h1M10 10h1M15 10h1M17 10h1M28 10h1M10 11h1M13 11h2M18 11h3M28 11h1M10 12h1M12 12h1M15 12h1M17 12h1M21 12h1M28 12h1M11 13h1M15 13h1M17 13h1M21 13h1M28 13h1M11 14h1M15 14h1M17 14h1M20 14h2M28 14h1M10 15h2M14 15h2M17 15h1M19 15h3M28 15h1M9 16h1M11 16h1M14 16h2M17 16h1M19 16h3M23 16h4M28 16h1M9 17h1M12 17h1M14 17h4M19 17h4M27 17h2M8 18h8M17 18h1M20 18h2M24 18h2M28 18h1M7 19h1M16 19h5M26 19h1M29 19h1M6 20h1M9 20h4M25 20h1M27 20h1M29 20h1M6 21h1M8 21h1M13 21h4M24 21h1M29 21h1M7 22h1M10 22h3M14 22h1M17 22h8M27 22h2M8 23h2M12 23h2M15 23h1M23 23h1M26 23h1M5 24h1M14 24h1M16 24h1M23 24h1M25 24h1M1 25h1M5 25h1M9 25h1M15 25h1M17 25h1M22 25h1M24 25h1M1 26h1M5 26h1M9 26h1M15 26h1M17 26h1M21 26h1M23 26h1M1 27h1M5 27h1M9 27h1M16 27h1M18 27h3M22 27h1M1 28h1M5 28h1M9 28h1M17 28h1M21 28h2M1 29h1M5 29h1M9 29h1M19 29h1M22 29h1M1 30h2M5 30h1M8 30h2M18 30h1M22 30h2M2 31h2M5 31h1M7 31h2M17 31h2M23 31h2M3 32h5M16 32h1M25 32h1M5 33h2M16 33h1M26 33h1M5 34h2M15 34h1M27 34h3M5 35h2M14 35h2M30 35h2M5 36h2M13 36h1M31 36h2M5 37h2M12 37h1M32 37h1M4 38h1M12 38h1M16 38h1M28 38h1M33 38h1M4 39h3M12 39h1M15 39h2M28 39h2M33 39h1" />
<path stroke="#f18989" d="M8 2h1M26 2h2M8 3h2M25 3h2M9 4h2M23 4h3M10 5h2M22 5h3M23 6h1" />
<path stroke="#f7adad" d="M9 2h1M10 3h1M27 3h1M11 4h2M26 4h1M25 5h1M24 6h1" />
<path stroke="#dc0000" d="M15 2h6M14 3h10M13 4h10M13 5h9M12 6h10M26 6h1M12 7h11M25 7h3M14 8h5M21 8h7M12 9h2M15 9h3M19 9h2M22 9h6M11 10h2M16 10h1M21 10h7M11 11h1M16 11h1M22 11h6M22 12h6M22 13h6M22 14h6M22 15h6M22 16h1M27 16h1M20 29h2M19 30h3M19 31h4M17 32h8M17 33h9M16 34h11M16 35h14M14 36h17M13 37h19M5 38h3M13 38h3M17 38h11M29 38h4M3 39h1M7 39h2M13 39h2M17 39h11M30 39h3" />
<path stroke="#f04242" d="M12 5h1M11 6h1M22 6h1M23 7h1" />
<path stroke="#bc0505" d="M25 6h1M24 7h1M13 10h2M18 10h3M12 11h1M15 11h1M17 11h1M21 11h1M11 12h1M16 12h1M16 13h1M16 14h1M16 15h1M16 16h1" />
<path stroke="#620471" d="M32 6h1M32 7h1M0 8h1M6 8h1M32 8h1M0 9h1M5 9h3M0 10h1M5 10h3M33 10h1M0 11h1M5 11h4M32 11h2M0 12h2M5 12h2M8 12h1M33 12h1M0 13h2M5 13h2M0 14h2M5 14h1M8 14h2M0 15h2M5 15h1M8 15h2M0 16h3M5 16h1M0 17h3M5 17h1M37 17h1M0 18h2M4 18h1M36 18h2M0 19h2M36 19h1M0 20h2M36 20h1M0 21h1M36 21h1M0 22h1M0 23h1M5 23h1M10 23h2M0 24h2M4 24h1M8 24h5M0 25h1M3 25h2M8 25h1M10 25h3M35 25h1M10 26h3M35 26h1M11 27h2M35 27h1M11 28h3M35 28h1M11 29h3M35 29h1M11 30h3M35 30h1M11 31h2M12 32h1" />
<path stroke="#ff9600" d="M31 8h1M36 8h1M31 9h2M36 9h1M31 10h2M36 10h1M35 11h2M7 12h1M36 12h1M7 13h2M33 13h2M36 13h2M6 14h2M32 14h3M36 14h2M6 15h2M31 15h1M36 15h2M6 16h3M31 16h1M36 16h2M3 17h1M6 17h1M8 17h1M36 17h1M39 17h1M2 18h2M5 18h2M35 18h1M39 18h1M2 19h1M5 19h1M35 19h1M38 19h2M2 20h1M5 20h1M35 20h1M38 20h2M1 21h2M5 21h1M35 21h1M37 21h2M1 22h3M5 22h1M29 22h1M36 22h3M2 23h2M29 23h1M34 23h4M2 24h1M26 24h1M29 24h1M34 24h4M26 25h1M29 25h1M36 25h2M2 26h1M26 26h1M29 26h1M33 26h1M36 26h2M3 27h1M10 27h1M26 27h2M29 27h1M33 27h1M36 27h1M3 28h2M10 28h1M14 28h1M27 28h1M33 28h1M36 28h1M0 29h1M4 29h1M10 29h1M27 29h1M33 29h1M36 29h1M0 30h1M4 30h1M33 30h1M36 30h1M0 31h1M9 31h1M13 31h1M34 31h3M0 32h1M8 32h2M11 32h1M34 32h2M0 33h1M9 33h3M0 34h2M10 34h2M0 35h1M0 36h1M0 37h1" />
<path stroke="#5d1b00" d="M29 9h1M29 10h2M28 23h1M28 24h1M28 25h1" />
<path stroke="#ff0000" d="M34 11h1M32 12h1M34 12h2M32 13h1M35 13h1M31 14h1M30 15h1M39 15h1M30 16h1M39 16h1M30 17h1M35 17h1M38 17h1M38 18h1M4 19h1M34 19h1M37 19h1M4 20h1M34 20h1M37 20h1M4 21h1M34 21h1M4 22h1M15 22h2M35 22h1M1 23h1M4 23h1M16 23h3M22 23h1M3 24h1M17 24h1M21 24h2M2 25h1M18 25h1M20 25h2M34 25h1M0 26h1M3 26h2M18 26h3M28 26h1M34 26h1M0 27h1M4 27h1M28 27h1M34 27h1M34 28h1M28 29h1M34 29h1M10 30h1M34 30h1M10 31h1M1 32h1M1 33h1" />
<path stroke="#a6dcee" d="M13 12h2M18 12h3M12 13h3M18 13h3M12 14h2M18 14h1M12 15h2M18 15h1M12 16h2M18 16h1M13 17h1M18 17h1M18 18h2" />
<path stroke="#ffffff" d="M14 14h1M19 14h1" />
<path stroke="#fff000" d="M35 14h1M32 15h4M32 16h4M7 17h1M31 17h1M34 17h1M7 18h1M30 18h2M34 18h1M3 19h1M6 19h1M30 19h1M33 19h1M3 20h1M30 20h1M33 20h1M3 21h1M30 21h1M39 21h1M6 22h1M30 22h1M34 22h1M39 22h1M6 23h1M30 23h1M33 23h1M38 23h1M6 24h1M30 24h1M33 24h1M6 25h2M25 25h1M30 25h1M33 25h1M6 26h3M24 26h2M30 26h1M2 27h1M7 27h2M15 27h1M23 27h1M25 27h1M30 27h1M32 27h1M37 27h1M0 28h1M2 28h1M7 28h2M15 28h1M25 28h2M28 28h1M32 28h1M37 28h1M2 29h2M7 29h2M14 29h2M18 29h1M25 29h2M29 29h1M32 29h1M37 29h1M3 30h1M14 30h2M26 30h3M32 30h1M37 30h1M1 31h1M4 31h1M14 31h2M27 31h1M32 31h2M37 31h1M2 32h1M10 32h1M13 32h2M32 32h2M36 32h2M2 33h3M7 33h2M12 33h3M33 33h5M3 34h2M8 34h2M12 34h2M31 34h6M1 35h1M4 35h1M8 35h6M32 35h1M35 35h2M1 36h1M9 36h4M1 37h1M39 37h1M0 38h2M39 38h1M0 39h1M39 39h1" />
<path stroke="#ff8a00" d="M10 16h1M10 17h2M23 17h4M16 18h1M22 18h2M26 18h2M8 19h8M21 19h5M27 19h2M7 20h2M13 20h12M26 20h1M28 20h1M7 21h1M9 21h4M17 21h7M25 21h4M8 22h2M13 22h1M25 22h2M14 23h1M24 23h2M15 24h1M24 24h1M16 25h1M23 25h1M16 26h1M22 26h1M17 27h1M21 27h1M18 28h3" />
<path stroke="#fffbb6" d="M32 17h2M32 18h2M31 19h2M31 20h2M31 21h3M31 22h3M7 23h1M31 23h2M39 23h1M7 24h1M31 24h2M38 24h2M31 25h2M38 25h2M31 26h2M38 26h2M6 27h1M24 27h1M31 27h1M38 27h2M6 28h1M16 28h1M23 28h2M30 28h2M38 28h2M6 29h1M16 29h2M23 29h2M30 29h2M38 29h2M6 30h2M16 30h2M24 30h2M29 30h3M38 30h2M6 31h1M16 31h1M25 31h2M28 31h4M38 31h2M15 32h1M26 32h6M38 32h2M15 33h1M27 33h6M38 33h2M2 34h1M7 34h1M14 34h1M30 34h1M37 34h3M2 35h2M7 35h1M33 35h2M37 35h3M2 36h3M7 36h2M33 36h7M2 37h3M7 37h5M33 37h6M2 38h2M8 38h4M34 38h5M1 39h2M9 39h3M34 39h5" />
<path stroke="#fc809a" d="M19 23h3M18 24h3M19 25h1" />
<path stroke="#ffe500" d="M29 28h1" />
</svg>