<svg xmlns="http://www.w3.org/2000/svg" viewBox="0 -0.5 40 40" shape-rendering="crispEdges">
<metadata>Made with Pixels to Svg https://codepen.io/shshaw/pen/XbxvNj</metadata>
<path stroke="#ff82b6" d="M0 0h4M6 0h25M33 0h7M0 1h4M11 1h4M21 1h5M33 1h7M0 2h5M33 2h7M0 3h6M32 3h8M0 4h6M32 4h8M0 5h8M31 5h9M0 6h9M30 6h10M0 7h9M29 7h11M0 8h9M29 8h11M0 9h9M29 9h11M0 10h9M29 10h11M0 11h9M29 11h11M0 12h9M29 12h11M0 13h10M29 13h11M0 14h11M29 14h11M0 15h7M9 15h1M29 15h11M0 16h6M28 16h12M0 17h5M29 17h11M0 18h5M29 18h11M0 19h6M30 19h10M0 20h6M30 20h10M0 21h6M30 21h10M0 22h7M29 22h11M0 23h8M10 23h2M27 23h13M0 24h14M26 24h14M0 25h15M25 25h15M0 26h15M24 26h16M0 27h16M23 27h17M0 28h17M23 28h17M0 29h19M23 29h17M0 30h18M24 30h16M0 31h17M25 31h15M0 32h16M26 32h14M0 33h16M27 33h13M0 34h15M30 34h10M0 35h14M32 35h8M0 36h13M33 36h7M0 37h12M33 37h7M0 38h12M34 38h6M0 39h12M34 39h6" />
<path stroke="#ff0000" d="M4 0h2M31 0h1M5 1h1M7 1h4M26 1h1M28 1h3M32 1h1M6 2h1M8 2h6M22 2h4M27 2h3M31 2h2M6 3h2M10 3h1M22 3h3M26 3h3M30 3h2M7 4h3M11 4h1M23 4h1M25 4h2M29 4h2M9 5h2M24 5h2M28 5h2M25 6h4M26 7h2M7 15h2M6 16h3M6 17h5M7 18h4M8 19h2M15 22h2M16 23h3M22 23h1M17 24h1M21 24h2M20 25h2M18 26h3M27 36h1M14 37h1M31 37h1M17 38h1M20 38h1M23 38h1M27 38h1" />
<path stroke="#d20404" d="M32 0h1M4 1h1M6 1h1M27 1h1M31 1h1M5 2h1M7 2h1M26 2h1M30 2h1M8 3h2M11 3h2M25 3h1M29 3h1M6 4h1M10 4h1M24 4h1M27 4h2M31 4h1M8 5h1M26 5h2M30 5h1M9 6h1M29 6h1M28 7h1M27 8h2M5 17h1M5 18h2M6 19h2" />
<path stroke="#ffffff" d="M15 1h6M14 2h8M13 3h9M12 4h11M11 5h13M10 6h3M14 6h5M20 6h5M10 7h2M13 7h1M15 7h3M19 7h1M21 7h5M10 8h1M12 8h3M16 8h1M18 8h3M22 8h5M10 9h1M12 9h3M16 9h1M18 9h3M22 9h6M10 10h1M12 10h3M16 10h1M18 10h3M22 10h6M10 11h18M11 12h2M14 12h5M20 12h8M11 13h1M15 13h3M21 13h7M12 14h1M14 14h5M20 14h8M12 15h16M9 16h1M12 16h11M13 17h2M18 17h3M18 18h2M20 29h2M19 30h3M19 31h4M20 32h2M27 35h1M14 36h1M20 36h1M26 36h1M30 36h1M13 37h1M15 37h2M20 37h1M23 37h1M25 37h1M27 37h4M15 38h1M18 38h2M21 38h2M24 38h3M29 38h1M31 38h2M17 39h1M20 39h1M23 39h2M27 39h1M30 39h2" />
<path stroke="#000000" d="M13 6h1M19 6h1M9 7h1M12 7h1M14 7h1M18 7h1M20 7h1M9 8h1M11 8h1M15 8h1M17 8h1M21 8h1M9 9h1M11 9h1M15 9h1M17 9h1M21 9h1M28 9h1M9 10h1M11 10h1M15 10h1M17 10h1M21 10h1M28 10h1M9 11h1M28 11h1M9 12h2M13 12h1M19 12h1M28 12h1M10 13h1M12 13h3M18 13h3M28 13h1M11 14h1M13 14h1M19 14h1M28 14h1M10 15h2M28 15h1M11 16h1M23 16h5M12 17h1M15 17h3M21 17h2M27 17h2M11 18h5M17 18h1M20 18h2M24 18h2M28 18h1M16 19h5M26 19h1M29 19h1M6 20h1M9 20h4M25 20h1M27 20h1M29 20h1M6 21h1M8 21h1M13 21h4M24 21h1M29 21h1M7 22h1M10 22h3M14 22h1M17 22h8M27 22h2M8 23h2M12 23h2M15 23h1M23 23h1M26 23h1M14 24h1M16 24h1M23 24h1M25 24h1M15 25h1M17 25h1M22 25h1M24 25h1M15 26h1M17 26h1M21 26h1M23 26h1M16 27h1M18 27h3M22 27h1M17 28h1M21 28h2M19 29h1M22 29h1M18 30h1M22 30h2M17 31h2M23 31h2M16 32h1M19 32h1M22 32h1M25 32h1M16 33h1M20 33h1M22 33h1M26 33h1M15 34h1M19 34h1M23 34h1M27 34h3M14 35h2M20 35h1M22 35h1M26 35h1M30 35h2M13 36h1M16 36h1M19 36h1M23 36h1M25 36h1M31 36h2M12 37h1M17 37h2M24 37h1M32 37h1M12 38h1M16 38h1M28 38h1M33 38h1M12 39h1M15 39h2M28 39h2M33 39h1" />
<path stroke="#ff8a00" d="M10 16h1M11 17h1M23 17h4M16 18h1M22 18h2M26 18h2M10 19h6M21 19h5M27 19h2M7 20h2M13 20h12M26 20h1M28 20h1M7 21h1M9 21h4M17 21h7M25 21h4M8 22h2M13 22h1M25 22h2M14 23h1M24 23h2M15 24h1M24 24h1M16 25h1M23 25h1M16 26h1M22 26h1M17 27h1M21 27h1M18 28h3" />
<path stroke="#fc809a" d="M19 23h3M18 24h3M18 25h2" />
<path stroke="#ffe300" d="M17 32h1M24 32h1M18 33h1M23 33h1M25 33h1M17 34h1M21 34h1M24 34h1M26 34h1M16 35h1M18 35h1M23 35h1M25 35h1M15 36h1M17 36h1M24 36h1M19 37h1M26 37h1M30 38h1M21 39h2" />
<path stroke="#015afe" d="M18 32h1M23 32h1M17 33h1M19 33h1M21 33h1M24 33h1M16 34h1M18 34h1M20 34h1M22 34h1M25 34h1M17 35h1M19 35h1M21 35h1M24 35h1M18 36h1" />
<path stroke="#00ff01" d="M28 35h2M21 36h2M28 36h2M21 37h2M13 38h2M13 39h2M18 39h2M25 39h2M32 39h1" />
</svg>