<svg xmlns="http://www.w3.org/2000/svg" viewBox="0 -0.5 40 40" shape-rendering="crispEdges">
<metadata>Made with Pixels to Svg https://codepen.io/shshaw/pen/XbxvNj</metadata>
<path stroke="#000000" d="M0 0h40M0 1h16M22 1h18M0 2h15M24 2h16M0 3h13M25 3h15M0 4h12M26 4h14M0 5h12M27 5h13M0 6h11M28 6h12M0 7h11M28 7h12M0 8h3M28 8h12M11 9h3M18 9h4M29 9h11M10 10h1M22 10h1M34 10h6M0 11h8M13 11h2M18 11h3M39 11h1M0 12h9M12 12h4M17 12h5M29 12h11M0 13h6M11 13h5M17 13h5M29 13h11M0 14h4M11 14h2M14 14h2M17 14h2M20 14h2M29 14h9M0 15h2M11 15h1M15 15h1M17 15h1M21 15h1M30 15h4M9 16h1M11 16h2M14 16h2M17 16h2M20 16h2M23 16h4M9 17h1M12 17h4M17 17h6M27 17h2M8 18h8M17 18h5M24 18h2M28 18h1M39 18h1M7 19h1M16 19h5M26 19h1M29 19h1M38 19h2M0 20h2M6 20h1M9 20h4M25 20h1M27 20h1M29 20h1M39 20h1M0 21h5M6 21h1M8 21h1M13 21h4M24 21h1M29 21h1M37 21h3M0 22h5M7 22h1M10 22h3M14 22h1M17 22h8M27 22h2M36 22h4M8 23h2M12 23h2M15 23h1M23 23h1M26 23h1M32 23h8M14 24h1M16 24h1M23 24h1M25 24h1M31 24h1M33 24h1M36 24h1M39 24h1M0 25h2M15 25h1M17 25h1M22 25h1M24 25h1M26 25h4M32 25h8M0 26h5M6 26h9M17 26h1M21 26h1M23 26h2M26 26h4M34 26h1M1 27h3M5 27h10M16 27h1M18 27h3M22 27h3M26 27h3M0 28h1M2 28h3M6 28h3M10 28h5M16 28h2M21 28h4M26 28h3M2 29h1M7 29h2M10 29h3M14 29h1M16 29h5M22 29h1M9 30h1M18 30h1M22 30h2M17 31h1M23 31h2M26 31h1M14 32h1M16 32h1M25 32h1M27 32h1M18 33h2M22 33h3M12 34h4M28 34h5M14 35h4M25 35h3M30 35h2M9 36h1M13 36h1M17 36h1M25 36h1M31 36h2M35 36h1M9 37h1M12 37h1M17 37h1M26 37h1M32 37h1M35 37h1M9 38h1M12 38h1M16 38h1M26 38h1M31 38h1M35 38h1M9 39h1M12 39h2M16 39h1M26 39h1M30 39h1M33 39h1M35 39h1" />
<path stroke="#aebdd8" d="M16 1h1M15 2h1M23 2h1M14 3h1M21 3h1M24 3h1M13 4h1M20 4h1M25 4h1M12 5h2M19 5h1M26 5h1M12 6h1M19 6h1M27 6h1M15 7h3M27 7h1M27 8h1M16 9h1M28 9h1M11 10h3M15 10h6M28 10h1M17 11h1M21 11h1M28 11h1M22 12h1M28 12h1M22 13h1M28 13h1M22 14h1M28 14h1M22 15h1M28 15h1M22 16h1M28 16h1M23 17h2M22 18h1M26 18h1M12 19h4M22 19h1M27 19h1M17 20h1M28 20h1M28 21h1M11 32h1M30 32h1M12 33h1M28 33h4M11 34h1M16 34h1M21 34h1M26 34h2M34 34h1M10 35h1M20 35h1M22 35h1M18 36h1M20 36h1M22 36h1M24 36h1M13 37h1M18 37h1M20 37h1M22 37h1M24 37h2M30 37h1M14 38h1M17 38h4M22 38h4M29 38h1M15 39h1M17 39h4M22 39h4M28 39h1" />
<path stroke="#96a3b9" d="M17 1h5M17 2h6M13 3h1M16 3h5M12 4h1M15 4h5M23 4h2M14 5h5M22 5h4M11 6h1M14 6h5M21 6h6M11 7h1M13 7h2M18 7h1M20 7h7M10 8h2M13 8h2M18 8h1M20 8h7M10 9h1M14 9h1M23 9h4M23 10h4M10 11h3M16 11h1M23 11h3M10 12h2M23 12h3M10 13h1M23 13h2M10 14h1M16 14h1M23 14h1M10 15h1M16 15h1M23 15h1M10 16h1M16 16h1M10 17h2M23 18h1M23 19h3M8 20h1M13 20h4M22 20h3M26 20h1M7 21h1M9 21h4M17 21h7M25 21h2M8 22h2M13 22h1M25 22h1M14 23h1M24 23h1M15 24h1M16 25h1M16 26h1M17 27h1M18 28h1M15 29h1M25 29h1M18 31h1M22 31h1M17 32h2M22 32h3M11 33h1M9 34h2M33 34h1M9 35h1M21 35h1M34 35h1M8 36h1M21 36h1M8 37h1M10 37h1M14 37h2M21 37h1M28 37h2M34 37h1M36 37h1M10 38h1M15 38h1M28 38h1M32 38h1M34 38h1M36 38h1M21 39h1M31 39h2" />
<path stroke="#ffffff" d="M16 2h1M15 3h1M23 3h1M14 4h1M22 4h1M21 5h1M27 11h1M26 12h1M25 13h1M24 14h1M13 15h1M19 15h1M26 17h1M8 19h1M31 32h1M32 33h1M18 35h1M24 35h1M35 35h1M21 38h1" />
<path stroke="#c5d4ee" d="M22 3h1M21 4h1M13 6h1M20 6h1M12 7h1M19 7h1M12 8h1M19 8h1M27 9h1M14 10h1M21 10h1M27 10h1M15 11h1M22 11h1M26 11h1M27 12h1M26 13h2M25 14h3M24 15h4M27 16h1M25 17h1M9 19h3M21 19h1M28 19h1M7 20h1M18 20h4M27 21h1M26 22h1M25 23h1M24 24h1M23 25h1M22 26h1M21 27h1M19 28h2M25 28h1M19 31h2M12 32h1M32 32h1M13 33h2M27 33h1M18 34h3M22 34h3M19 35h1M23 35h1M19 36h1M23 36h1M19 37h1M23 37h1" />
<path stroke="#d9e4f7" d="M20 5h1M22 9h1M27 18h1M21 31h1M15 33h3M25 33h2M17 34h1M25 34h1" />
<path stroke="#210268" d="M3 8h7M0 9h6M33 11h4M0 19h4M5 19h2M3 20h3M36 20h3M33 21h4M31 22h5M28 23h3M27 24h3" />
<path stroke="#818c9f" d="M15 8h3" />
<path stroke="#1b0749" d="M6 9h4M0 10h10M29 10h5M8 11h2M29 11h4M37 11h2M9 12h1M6 13h4M4 14h6M38 14h2M2 15h8M29 15h1M34 15h6M0 16h9M29 16h11M0 17h9M29 17h11M0 18h8M29 18h10M4 19h1M30 19h8M2 20h1M30 20h6M5 21h1M30 21h3M5 22h2M29 22h1M1 23h1M4 23h1M6 23h2M10 23h2M27 23h1M0 24h14M26 24h1M2 25h13" />
<path stroke="#636d7f" d="M15 9h1M17 9h1M21 29h1M19 30h3M19 32h3M8 35h1M28 35h2M14 36h3M26 36h5M36 36h1M11 37h1M16 37h1M27 37h1M31 37h1M33 37h1M8 38h1M11 38h1M13 38h1M27 38h1M30 38h1M33 38h1M8 39h1M14 39h1M27 39h1M29 39h1M36 39h1" />
<path stroke="#464d59" d="M16 12h1M16 13h1M16 17h1M16 18h1M15 22h2M16 23h3M22 23h1M17 24h1M21 24h2M20 25h1" />
<path stroke="#ff0000" d="M13 14h1M19 14h1M12 15h1M14 15h1M18 15h1M20 15h1M13 16h1M19 16h1" />
<path stroke="#ffaa00" d="M30 22h1M30 26h1M32 26h1M29 27h1M1 29h1M6 29h1M9 29h1M2 30h1" />
<path stroke="#fe00f2" d="M0 23h1M2 23h2M5 23h1M32 24h1M34 24h2M37 24h2" />
<path stroke="#fc809a" d="M19 23h3M18 24h3M18 25h2" />
<path stroke="#fffd75" d="M31 23h1M30 24h1M30 25h1M5 26h1M33 26h1M0 27h1M4 27h1M30 27h1M1 28h1M5 28h1M9 28h1M0 29h1M4 29h2M1 30h1M3 30h1M8 30h1" />
<path stroke="#545d6d" d="M21 25h1M18 26h3" />
<path stroke="#8793a7" d="M25 25h1M15 26h1M25 26h1M15 27h1M15 30h3M24 30h3M14 31h2M25 31h1M27 31h1M13 32h1M15 32h1M28 32h1" />
<path stroke="#ff7700" d="M31 25h1M3 29h1" />
<path stroke="#f6f5de" d="M31 26h1M31 27h1" />
<path stroke="#2a00cc" d="M35 26h5M32 27h6M29 28h6M28 29h3M0 30h1M4 30h4M0 31h8M0 32h3" />
<path stroke="#b2c1d9" d="M25 27h1M15 28h1" />
<path stroke="#043284" d="M38 27h2M35 28h4M13 29h1M23 29h2M26 29h2M31 29h4M36 29h4M10 30h5M27 30h5M34 30h2M38 30h2M8 31h6M16 31h1M28 31h12M3 32h1M6 32h1M9 32h2M26 32h1M29 32h1M33 32h7M0 33h2M4 33h7M33 33h7M0 34h9M35 34h5M1 35h7M11 35h3M32 35h2M36 35h4M0 36h8M10 36h3M33 36h2M37 36h3M0 37h8M37 37h3M0 38h8M37 38h3M0 39h8M10 39h2M34 39h1M37 39h3" />
<path stroke="#2b58aa" d="M39 28h1M35 29h1M32 30h2M36 30h2M4 32h2M7 32h2M2 33h2M0 35h1" />
<path stroke="#717d92" d="M20 33h2" />
</svg>