<svg xmlns="http://www.w3.org/2000/svg" viewBox="0 -0.5 40 40" shape-rendering="crispEdges">
<metadata>Made with Pixels to Svg https://codepen.io/shshaw/pen/XbxvNj</metadata>
<path stroke="#ff9f00" d="M0 0h40M0 1h40M0 2h40M0 3h7M8 3h24M33 3h2M36 3h4M0 4h2M4 4h3M8 4h24M33 4h2M36 4h2M39 4h1M0 5h3M4 5h3M8 5h24M37 5h1M39 5h1M0 6h3M5 6h2M8 6h1M12 6h3M22 6h7M30 6h1M39 6h1M6 7h1M12 7h2M24 7h2" />
<path stroke="#1abe06" d="M7 3h1M32 3h1M35 3h1M3 4h1M7 4h1M32 4h1M35 4h1M38 4h1M7 5h1M32 5h1M35 5h1M38 5h1M4 6h1M7 6h1M29 6h1M32 6h2M35 6h1M37 6h2M2 7h1M7 7h1M9 7h2M30 7h1M34 7h4M3 8h1M6 8h1M8 8h2M32 8h2M35 8h2M4 9h5M33 9h4M5 10h4M34 10h2M6 11h2M34 11h2M6 12h2M16 12h3M34 12h2M7 13h1M16 13h2M34 13h2M7 14h1M16 14h2M34 14h1M7 15h1M16 15h2M34 15h1M7 16h1M15 16h4M34 16h1M7 17h1M13 17h2M19 17h2M34 17h1M7 18h1M34 18h1M34 19h1M34 20h1M33 21h2M33 22h2M33 23h1M9 24h1M33 24h1M9 25h2M33 25h1M9 26h2M33 26h1M9 27h2M32 27h2M10 28h1M32 28h2M10 29h2M32 29h1M10 30h2M20 30h1M31 30h2M10 31h2M20 31h1M31 31h2M10 32h3M31 32h2M11 33h2M31 33h2M11 34h2M17 34h1M23 34h1M30 34h2M11 35h3M20 35h1M23 35h2M29 35h3M12 36h3M19 36h2M24 36h2M29 36h1M31 36h1M12 37h1M14 37h3M24 37h2M28 37h2M14 38h4M28 38h2M14 39h4M28 39h2" />
<path stroke="#169406" d="M2 4h1M3 5h1M3 6h1M1 7h1M4 7h1M29 7h1M33 7h1M2 8h1M5 8h1M7 8h1M30 8h2M34 8h1M3 9h1M32 9h1M4 10h1M33 10h1M5 11h1M33 11h1M5 12h1M33 12h1M6 13h1M33 13h1M6 14h1M33 14h1M6 15h1M33 15h1M6 16h1M33 16h1M6 17h1M33 17h1M6 18h1M33 18h1M6 19h1M33 19h1M33 20h1M32 21h1M32 22h1M7 23h1M32 23h1M8 24h1M32 24h1M8 25h1M32 25h1M8 26h1M32 26h1M8 27h1M31 27h1M9 28h1M31 28h1M9 29h1M31 29h1M9 30h1M30 30h1M9 31h1M30 31h1M9 32h1M30 32h1M10 33h1M30 33h1M10 34h1M29 34h1M10 35h1M28 35h1M11 36h1M15 36h1M26 36h1M11 37h1M12 38h1M12 39h1" />
<path stroke="#ffa000" d="M33 5h2M36 5h1M9 6h3M31 6h1M0 7h1M3 7h1M27 7h2M39 7h1" />
<path stroke="#106a05" d="M15 6h7M14 7h1M22 7h2M13 8h1M24 8h1M12 9h1M25 9h1M11 10h1M26 10h1M11 11h1M27 11h1M10 12h1M28 12h1M10 13h1M28 13h1M10 14h1M29 14h1M10 15h1M30 15h1M9 16h1M11 16h1M23 16h4M30 16h1M9 17h1M12 17h1M15 17h3M21 17h2M27 17h2M30 17h1M8 18h8M17 18h1M20 18h2M24 18h2M28 18h1M30 18h1M7 19h1M16 19h5M26 19h1M29 19h1M6 20h1M9 20h4M25 20h1M27 20h1M29 20h1M6 21h1M8 21h1M13 21h4M24 21h1M29 21h1M7 22h1M10 22h3M14 22h1M17 22h8M27 22h2M8 23h2M12 23h2M15 23h1M23 23h1M26 23h1M14 24h1M16 24h1M23 24h1M25 24h1M15 25h1M17 25h1M22 25h1M24 25h1M15 26h1M17 26h1M21 26h1M23 26h1M16 27h1M18 27h3M22 27h1M17 28h1M21 28h1M18 29h3M17 33h1M23 33h1M16 34h1M20 34h1M24 34h1M15 35h1M19 35h1M25 35h1M18 36h1M21 36h1M17 37h1M22 37h1" />
<path stroke="#ffa500" d="M34 6h1M32 7h1" />
<path stroke="#ffa300" d="M36 6h1" />
<path stroke="#18a508" d="M5 7h1M15 7h1M14 8h1M13 9h1M12 10h1M12 11h1M11 12h1" />
<path stroke="#ffa200" d="M8 7h1M31 7h1M38 7h1" />
<path stroke="#ffa600" d="M11 7h1M0 8h2M4 8h1M27 8h3" />
<path stroke="#18be06" d="M16 7h6M15 8h9M14 9h11M15 10h2M21 10h5M15 11h2M21 11h6M22 12h6M23 13h5M23 14h6M23 15h7M22 16h1M27 16h3M29 17h1M29 18h1" />
<path stroke="#ffa100" d="M26 7h1" />
<path stroke="#ffb400" d="M10 8h1" />
<path stroke="#ffb500" d="M11 8h2M0 9h3M28 9h2" />
<path stroke="#ffab00" d="M25 8h1" />
<path stroke="#ffa800" d="M26 8h1M38 8h1" />
<path stroke="#ffad00" d="M37 8h1" />
<path stroke="#ffa700" d="M39 8h1" />
<path stroke="#ffc200" d="M9 9h1" />
<path stroke="#ffc600" d="M10 9h1" />
<path stroke="#ffc800" d="M11 9h1M0 10h4M28 10h3M39 10h1" />
<path stroke="#ffb700" d="M26 9h1M31 9h1M38 9h1" />
<path stroke="#ffb600" d="M27 9h1M30 9h1M39 9h1" />
<path stroke="#ffba00" d="M37 9h1" />
<path stroke="#ffd000" d="M9 10h1" />
<path stroke="#ffd300" d="M10 10h1" />
<path stroke="#19be06" d="M13 10h2M17 10h4M13 11h2M17 11h4M15 12h1M18 17h1M18 18h2M21 29h1M21 30h1M16 35h1M27 35h1M16 36h1M27 36h2M30 36h1M13 37h1M18 37h4M23 37h1M26 37h2M30 37h1M13 38h1M18 38h10M30 38h1M13 39h1M18 39h10" />
<path stroke="#ffc900" d="M27 10h1M31 10h1M38 10h1" />
<path stroke="#ffca00" d="M32 10h1M37 10h1" />
<path stroke="#ffcb00" d="M36 10h1" />
<path stroke="#ffd400" d="M0 11h5M28 11h4M38 11h2" />
<path stroke="#ffd600" d="M8 11h1" />
<path stroke="#ffd800" d="M9 11h1" />
<path stroke="#ffd900" d="M10 11h1M0 12h5M8 12h2M29 12h4M36 12h4M0 13h6M8 13h2M29 13h4M36 13h4M0 14h6M8 14h2M30 14h3M35 14h5M0 15h6M8 15h2M31 15h2M35 15h5M0 16h6M8 16h1M31 16h2M35 16h5M0 17h6M8 17h1M31 17h2M35 17h5M0 18h6M0 19h1" />
<path stroke="#ffd500" d="M32 11h1M36 11h2" />
<path stroke="#f4efef" d="M12 12h1M19 12h1M11 13h1M18 13h1M11 14h1M18 14h1M11 15h1M18 15h1M12 16h1M19 16h1" />
<path stroke="#ffffff" d="M13 12h2M20 12h2M12 13h1M14 13h2M19 13h1M21 13h2M15 14h1M22 14h1M12 15h4M19 15h4M13 16h2M20 16h2" />
<path stroke="#000000" d="M13 13h1M20 13h1M12 14h3M19 14h3" />
<path stroke="#86dd06" d="M10 16h1M10 17h2M23 17h4M16 18h1M22 18h2M26 18h2M8 19h8M21 19h5M27 19h2M7 20h2M13 20h12M26 20h1M28 20h1M7 21h1M9 21h4M17 21h7M25 21h4M8 22h2M13 22h1M25 22h2M14 23h1M24 23h2M15 24h1M24 24h1M16 25h1M23 25h1M16 26h1M22 26h1M17 27h1M21 27h1M18 28h3M26 34h1M26 35h1" />
<path stroke="#ffda00" d="M31 18h2M35 18h5M1 19h4" />
<path stroke="#ffdb00" d="M5 19h1M0 20h2" />
<path stroke="#ffdc00" d="M30 19h3M35 19h5M2 20h3" />
<path stroke="#ffdd00" d="M5 20h1M0 21h1" />
<path stroke="#ffe100" d="M30 20h3M35 20h5M3 21h2" />
<path stroke="#ffde00" d="M1 21h1" />
<path stroke="#ffe000" d="M2 21h1" />
<path stroke="#ffe200" d="M5 21h1M0 22h1" />
<path stroke="#ffe800" d="M30 21h2M35 21h5M3 22h2" />
<path stroke="#ffe400" d="M1 22h1" />
<path stroke="#ffe600" d="M2 22h1" />
<path stroke="#ffe900" d="M5 22h1M0 23h1" />
<path stroke="#ffea00" d="M6 22h1M1 23h1" />
<path stroke="#ff0000" d="M15 22h2M16 23h1M22 23h1M17 24h1M21 24h2M18 25h1M20 25h2M18 26h3" />
<path stroke="#ffed00" d="M29 22h3M35 22h5M3 23h2" />
<path stroke="#ffec00" d="M2 23h1" />
<path stroke="#ffee00" d="M5 23h2M0 24h2" />
<path stroke="#ffef00" d="M10 23h2M27 23h5M34 23h6M2 24h6M10 24h4M26 24h6M34 24h6M0 25h8M11 25h4M25 25h7M34 25h6M0 26h8M11 26h4M24 26h8M34 26h6M0 27h8M11 27h5M23 27h8M34 27h6M0 28h9M11 28h6M22 28h9M34 28h6M0 29h9M12 29h6M22 29h9M33 29h7M0 30h9M12 30h3M27 30h3M33 30h7M0 31h9M12 31h2M28 31h2M33 31h7M0 32h9M13 32h1M15 32h2M25 32h3M29 32h1M33 32h7M0 33h10M13 33h4M26 33h4M33 33h7M0 34h10M13 34h3M27 34h2M32 34h8M0 35h10M14 35h1M32 35h8M0 36h11M32 36h8M0 37h11M31 37h9M0 38h12M31 38h9M0 39h12M30 39h10" />
<path stroke="#fc809d" d="M17 23h2" />
<path stroke="#fc809a" d="M19 23h3M18 24h3M19 25h1" />
<path stroke="#85dd06" d="M15 30h3M22 30h5M14 31h1M17 31h2M22 31h2M25 31h3M18 32h2M21 32h4M28 32h1M19 33h4M25 33h1M18 34h2M22 34h1M18 35h1M22 35h1M23 36h1" />
<path stroke="#79c706" d="M18 30h1M15 31h2M19 31h1M21 31h1M24 31h1M14 32h1M17 32h1M20 32h1M18 33h1M24 33h1M21 34h1M25 34h1M17 35h1M21 35h1M17 36h1M22 36h1" />
<path stroke="#159406" d="M19 30h1" />
</svg>