<svg xmlns="http://www.w3.org/2000/svg" viewBox="0 -0.5 40 40" shape-rendering="crispEdges">
<metadata>Made with Pixels to Svg https://codepen.io/shshaw/pen/XbxvNj</metadata>
<path stroke="#9f9c9c" d="M0 0h4M36 0h4M0 1h3M37 1h3M0 2h1M39 2h1M0 37h1M0 38h2M0 39h3" />
<path stroke="#aba7a7" d="M4 0h2M3 1h1M1 2h2M0 3h1M0 4h1" />
<path stroke="#acabab" d="M6 0h7M15 0h4M29 0h7M4 1h6M32 1h5M3 2h5M34 2h5M1 3h5M36 3h4M1 4h4M37 4h3M0 5h4M38 5h2M0 6h3M39 6h1M0 7h2M0 8h1M0 33h1M0 34h2M0 35h3M0 36h5M1 37h4M2 38h5M3 39h6" />
<path stroke="#bbb9b9" d="M13 0h2M19 0h10M10 1h4M28 1h4M8 2h5M28 2h6M6 3h6M28 3h8M5 4h7M33 4h4M4 5h7M34 5h4M3 6h3M34 6h5M2 7h3M34 7h6M1 8h4M32 8h8M0 9h4M34 9h6M0 10h4M36 10h4M0 11h3M37 11h3M0 12h2M38 12h2M0 13h2M39 13h1M0 14h1M39 14h1M0 15h1M39 15h1M0 16h1M0 23h1M0 24h1M0 25h1M0 26h1M0 27h2M0 28h2M0 29h2M0 30h3M39 30h1M0 31h4M38 31h2M0 32h5M37 32h3M1 33h5M37 33h3M2 34h5M38 34h2M3 35h5M39 35h1M5 36h4M5 37h6M7 38h3" />
<path stroke="#000000" d="M14 1h14M13 2h1M27 2h1M12 3h1M27 3h1M12 4h21M11 5h17M33 5h1M6 6h6M28 6h1M33 6h1M5 7h1M29 7h1M32 7h2M6 8h26M11 9h3M18 9h4M24 9h3M10 10h1M22 10h1M25 10h2M10 11h1M13 11h2M18 11h3M26 11h2M10 12h1M12 12h1M15 12h1M17 12h1M21 12h1M26 12h2M11 13h1M15 13h1M17 13h1M21 13h1M27 13h1M11 14h1M15 14h1M17 14h1M20 14h2M28 14h1M10 15h2M14 15h2M17 15h1M19 15h3M28 15h1M9 16h1M11 16h1M14 16h2M17 16h1M19 16h3M23 16h4M28 16h1M9 17h1M12 17h1M14 17h4M19 17h4M27 17h2M8 18h8M17 18h1M20 18h2M24 18h2M28 18h1M7 19h1M16 19h5M26 19h1M29 19h1M6 20h1M9 20h4M25 20h1M27 20h1M29 20h1M6 21h1M8 21h1M13 21h4M24 21h1M29 21h1M7 22h1M10 22h3M14 22h1M17 22h8M27 22h2M8 23h2M12 23h2M15 23h1M23 23h1M26 23h1M14 24h1M16 24h1M23 24h1M25 24h1M15 25h1M17 25h1M22 25h1M24 25h1M15 26h1M17 26h1M21 26h1M23 26h1M16 27h1M18 27h3M22 27h1M17 28h1M21 28h2M17 29h4M22 29h2M16 30h2M19 30h1M21 30h1M24 30h1M16 31h1M18 31h6M25 31h1M15 32h1M19 32h4M26 32h1M14 33h2M18 33h1M20 33h2M23 33h1M26 33h3M13 34h4M20 34h2M25 34h5M12 35h6M20 35h2M24 35h8M11 36h7M20 36h2M24 36h9M11 37h7M20 37h2M24 37h5M30 37h3M10 38h3M14 38h4M20 38h2M24 38h5M30 38h4M9 39h4M14 39h4M20 39h2M24 39h4M29 39h5" />
<path stroke="#9d9d9d" d="M14 2h13M13 3h14M28 5h5M12 6h16M29 6h4M6 7h23M30 7h2M10 16h1M10 17h2M23 17h4M16 18h1M22 18h2M26 18h2M8 19h8M21 19h5M27 19h2M7 20h2M13 20h12M26 20h1M28 20h1M7 21h1M9 21h4M17 21h7M25 21h4M8 22h2M13 22h1M25 22h2M14 23h1M24 23h2M35 23h1M15 24h1M24 24h1M16 25h1M23 25h1M32 25h1M34 25h1M38 25h1M16 26h1M22 26h1M17 27h1M21 27h1M18 28h3M33 32h3M19 33h1M22 33h1M18 34h1M23 34h1M32 34h6M33 36h7M29 37h1M34 37h1M36 37h1M38 37h1M13 38h1M29 38h1M34 38h1M36 38h1M38 38h1M13 39h1M28 39h1M34 39h1M36 39h1M38 39h1" />
<path stroke="#cecece" d="M5 8h1M4 9h7M27 9h7M4 10h6M27 10h9M3 11h7M28 11h9M2 12h8M13 12h2M18 12h3M28 12h10M2 13h9M12 13h3M18 13h3M28 13h11M1 14h10M12 14h2M18 14h1M29 14h10M1 15h9M12 15h2M18 15h1M29 15h10M1 16h8M12 16h2M18 16h1M29 16h11M0 17h9M13 17h1M18 17h1M29 17h11M0 18h8M18 18h2M29 18h11M0 19h7M30 19h10M0 20h6M30 20h10M0 21h6M30 21h10M0 22h7M29 22h11M1 23h7M10 23h2M27 23h8M36 23h4M1 24h13M26 24h8M37 24h3M1 25h14M25 25h7M39 25h1M1 26h14M24 26h10M37 26h3M2 27h14M23 27h12M37 27h3M2 28h15M23 28h12M36 28h4M2 29h15M24 29h10M35 29h5M3 30h13M25 30h8M34 30h5M4 31h12M26 31h6M35 31h3M5 32h10M27 32h4M36 32h1M6 33h8M29 33h1M7 34h6M8 35h4M9 36h2" />
<path stroke="#ffffff" d="M14 9h4M22 9h2M11 10h11M23 10h2M11 11h2M15 11h3M21 11h5M11 12h1M16 12h1M22 12h4M16 13h1M22 13h5M14 14h1M16 14h1M19 14h1M22 14h6M16 15h1M22 15h6M16 16h1M22 16h1M27 16h1M35 26h1M36 27h1M35 28h1M21 29h1M34 29h1M18 30h1M20 30h1M22 30h2M17 31h1M24 31h1M16 32h3M23 32h3M16 33h2M24 33h2M17 34h1M19 34h1M22 34h1M24 34h1M18 35h2M22 35h2M18 36h2M22 36h2M18 37h2M22 37h2M18 38h2M22 38h2M18 39h2M22 39h2" />
<path stroke="#4c4c4c" d="M15 22h2M16 23h3M22 23h1M17 24h1M21 24h2M20 25h2M18 26h3M32 35h7M33 37h1M35 37h1M37 37h1M39 37h1M35 38h1M37 38h1M39 38h1M35 39h1M37 39h1M39 39h1" />
<path stroke="#a8a8a8" d="M19 23h3M18 24h3M18 25h2" />
<path stroke="#989494" d="M34 24h3M33 25h1M35 25h1M37 25h1M34 26h1M36 26h1" />
<path stroke="#a4a399" d="M36 25h1" />
<path stroke="#cfcfcb" d="M35 27h1" />
<path stroke="#706d6d" d="M33 30h1M32 31h3M31 32h2M30 33h7M30 34h2" />
</svg>