<svg xmlns="http://www.w3.org/2000/svg" viewBox="0 -0.5 40 40" shape-rendering="crispEdges">
<metadata>Made with Pixels to Svg https://codepen.io/shshaw/pen/XbxvNj</metadata>
<path stroke="#cc00d5" d="M0 0h15M23 0h17M0 1h13M24 1h10M36 1h4M0 2h12M26 2h7M37 2h3M0 3h11M27 3h6M34 3h2M37 3h3M0 4h10M27 4h6M36 4h4M0 5h8M29 5h5M37 5h3M0 6h7M30 6h3M34 6h2M37 6h3M0 7h8M29 7h4M37 7h3M0 8h7M30 8h4M37 8h3M0 9h8M29 9h11M0 10h8M29 10h4M36 10h4M0 11h8M29 11h4M37 11h3M0 12h2M3 12h4M30 12h3M34 12h2M37 12h3M0 13h2M4 13h3M30 13h3M37 13h3M0 14h1M5 14h2M30 14h3M36 14h4M0 15h1M5 15h2M30 15h3M34 15h6M0 16h1M5 16h3M30 16h3M34 16h6M0 17h1M5 17h4M29 17h5M36 17h4M0 18h1M5 18h3M29 18h4M37 18h3M0 19h1M5 19h2M30 19h3M34 19h2M37 19h3M0 20h1M5 20h1M30 20h3M34 20h2M37 20h3M0 21h1M5 21h1M30 21h3M34 21h1M37 21h3M0 22h1M5 22h2M29 22h4M38 22h2M0 23h1M5 23h3M10 23h2M27 23h7M35 23h1M38 23h2M0 24h1M5 24h9M26 24h14M0 25h1M5 25h10M25 25h8M36 25h4M0 26h1M5 26h10M24 26h9M37 26h3M0 27h1M5 27h11M23 27h10M34 27h2M37 27h3M0 28h1M5 28h12M23 28h10M37 28h3M0 29h1M5 29h11M29 29h4M36 29h4M0 30h1M5 30h5M14 30h1M31 30h2M34 30h1M37 30h3M0 31h1M5 31h4M34 31h2M37 31h3M0 32h1M5 32h3M32 32h8M0 33h1M5 33h2M33 33h7M6 34h3M34 34h6M0 35h1M5 35h3M35 35h5M0 36h2M4 36h3M34 36h6M0 37h2M4 37h4M35 37h5M0 38h1M4 38h4M35 38h5M6 39h1M36 39h4" />
<path stroke="#000000" d="M15 0h8M13 1h2M23 1h1M12 2h1M25 2h1M11 3h1M26 3h1M10 4h1M8 5h2M27 5h2M7 6h1M29 6h1M8 7h1M28 7h1M7 8h1M29 8h1M8 9h1M11 9h3M18 9h4M23 9h1M28 9h1M8 10h1M10 10h1M23 10h1M28 10h1M8 11h1M10 11h1M13 11h2M18 11h3M24 11h1M28 11h1M7 12h1M10 12h1M12 12h1M15 12h1M17 12h1M21 12h1M24 12h1M29 12h1M7 13h1M11 13h1M15 13h1M17 13h1M21 13h1M23 13h1M29 13h1M7 14h1M11 14h1M15 14h1M17 14h1M20 14h2M23 14h1M29 14h1M7 15h1M10 15h2M14 15h2M17 15h1M19 15h3M23 15h1M29 15h1M8 16h2M11 16h1M14 16h2M17 16h1M19 16h3M23 16h4M29 16h1M9 17h1M12 17h1M14 17h4M19 17h4M27 17h2M8 18h8M17 18h1M20 18h2M24 18h2M28 18h1M7 19h1M16 19h5M26 19h1M29 19h1M6 20h1M9 20h4M25 20h1M27 20h1M29 20h1M6 21h1M8 21h1M13 21h4M24 21h1M29 21h1M7 22h1M10 22h3M14 22h1M17 22h8M27 22h2M8 23h2M12 23h2M15 23h1M23 23h1M26 23h1M14 24h1M16 24h1M23 24h1M25 24h1M15 25h1M17 25h1M22 25h1M24 25h1M15 26h1M17 26h1M21 26h1M23 26h1M16 27h1M18 27h3M22 27h1M17 28h1M21 28h2M16 29h1M18 29h3M23 29h2M26 29h1M15 30h1M25 30h1M15 31h1M25 31h1M16 32h1M25 32h1M31 32h1M17 33h1M24 33h1M30 33h1M9 34h3M18 34h2M23 34h1M29 34h1M12 35h2M20 35h2M28 35h1M14 36h2M20 36h1M27 36h1M32 36h1M8 37h1M16 37h1M26 37h1M30 37h1M1 38h3M10 38h1M17 38h1M25 38h1M29 38h1M0 39h1M2 39h1M5 39h1M13 39h1M18 39h1M21 39h1M25 39h1M27 39h1" />
<path stroke="#aeaaaa" d="M15 1h1M18 1h1M20 1h3M13 2h2M17 2h1M20 2h1M14 3h1M16 3h1M19 3h1M13 4h1M16 4h1M18 4h1M26 4h1M17 5h1M8 6h4M13 6h1M22 6h1M25 6h3M9 9h1M24 10h1M27 10h1M25 11h1M27 11h1M25 12h1M27 12h2M10 13h1M24 13h1M28 13h1M10 14h1M24 14h1M28 14h1M24 15h1M26 15h1M28 15h1M27 16h2" />
<path stroke="#9b9a9a" d="M16 1h2M15 2h2M21 2h2M12 3h1M15 3h1M20 3h4M11 4h1M14 4h2M19 4h6M10 5h1M15 7h1M24 7h1M27 7h1M24 9h1M26 9h2M26 10h1M9 12h1M9 13h1M27 13h1M1 14h1M9 14h1M26 14h2M1 15h2M9 15h1M27 15h1M1 16h2M1 17h2M1 18h2M1 19h2M1 20h2M1 21h2M1 22h2M1 23h2M1 24h2M1 25h2M1 26h2M1 27h2M1 28h2M1 29h2M25 29h1M27 29h1M1 30h2M10 30h2M1 31h2M9 31h2M14 31h1M1 32h1M3 32h1M8 32h1M3 33h2M7 33h4M31 33h2M28 34h1M30 34h1M11 35h1M14 35h1M18 35h2M26 35h2M29 35h1M12 36h2M16 36h4M24 36h3M28 36h1M33 36h1M14 37h2M17 37h3M23 37h3M27 37h1M31 37h2M8 38h2M16 38h1M18 38h1M22 38h3M26 38h1M30 38h1M11 39h2M17 39h1M22 39h3M28 39h2" />
<path stroke="#e8e8e8" d="M19 1h1M18 2h1M24 2h1M17 3h1M25 3h1M16 5h1M15 6h6M24 6h1M28 6h1M28 29h1M30 30h1M12 31h1M29 31h1M32 31h1M26 32h1M28 32h1M11 33h3M15 33h1M25 33h1M16 34h1M24 34h1M17 35h1M34 35h1" />
<path stroke="#f8ce40" d="M34 1h2M33 2h1M36 2h1M33 3h1M34 4h2M36 5h1M33 6h1M36 6h1M34 7h3M9 8h2M17 8h2M20 8h1M33 10h3M33 11h1M36 11h1M33 12h1M36 12h1M33 13h3M33 14h1M33 15h1M34 17h2M33 18h1M36 18h1M33 19h1M36 19h1M33 20h1M36 20h1M33 21h1M35 21h1M34 22h1M36 22h2M33 25h3M33 26h1M36 26h1M33 27h1M36 27h1M33 28h3M33 29h1M35 29h1M13 30h1M29 30h1M33 30h1M36 30h1M14 33h1M27 33h1" />
<path stroke="#c6c2c2" d="M19 2h1M13 3h1M18 3h1M12 4h1M16 7h1M23 7h1M26 30h2M11 31h1M26 31h2M30 31h2M9 32h5M15 32h1M29 32h1M8 35h1M30 35h3M7 36h5M29 36h3M9 37h5M28 37h2M11 38h5M27 38h2M34 38h1M7 39h4M14 39h3M26 39h1M30 39h6" />
<path stroke="#d2cfcf" d="M23 2h1M24 3h1M17 4h1M25 4h1M26 5h1M12 6h1M14 6h1M21 6h1M23 6h1M17 7h1M2 12h1M2 13h2M2 14h3M3 15h2M3 16h2M3 17h2M3 18h2M3 19h2M3 20h2M3 21h2M3 22h2M3 23h2M3 24h2M3 25h2M3 26h2M3 27h2M3 28h2M3 29h2M3 30h2M3 31h2M2 32h1M4 32h1M1 33h2M31 34h3M9 35h2M33 35h1M33 37h2M31 38h3" />
<path stroke="#9b06a1" d="M34 2h2M36 3h1M33 4h1M34 5h2M33 7h1M34 8h3M34 11h2M36 13h1M34 14h2M33 16h1M34 18h2M36 21h1M33 22h1M35 22h1M34 23h1M36 23h2M34 26h2M36 28h1M34 29h1M35 30h1M33 31h1M36 31h1" />
<path stroke="#8a8686" d="M11 5h5M18 5h8M9 7h6M18 7h5M25 7h2" />
<path stroke="#d88c03" d="M8 8h1M11 8h1M26 8h3M10 9h1M25 9h1M9 10h1M25 10h1M9 11h1M8 12h1M8 13h1M25 13h1M8 14h1M8 15h1M22 35h2M21 36h2M2 37h2M20 37h2M19 38h2M19 39h1" />
<path stroke="#efa011" d="M12 8h5M19 8h1M21 8h5M26 11h1M26 12h1M25 14h1M25 15h1M12 30h1M28 30h1M13 31h1M28 31h1M14 32h1M27 32h1" />
<path stroke="#ffffff" d="M14 9h4M22 9h1M11 10h12M11 11h2M15 11h3M21 11h3M11 12h1M16 12h1M22 12h2M16 13h1M22 13h1M14 14h1M16 14h1M19 14h1M22 14h1M16 15h1M22 15h1M16 16h1M22 16h1M1 39h1M3 39h2" />
<path stroke="#c3d9f9" d="M13 12h2M18 12h3M12 13h3M18 13h3M12 14h2M18 14h1M12 15h2M18 15h1M12 16h2M18 16h1M13 17h1M18 17h1M18 18h2" />
<path stroke="#9d9a96" d="M26 13h1" />
<path stroke="#ff8a00" d="M10 16h1M10 17h2M23 17h4M16 18h1M22 18h2M26 18h2M8 19h8M21 19h5M27 19h2M7 20h2M13 20h12M26 20h1M28 20h1M7 21h1M9 21h4M17 21h7M25 21h4M8 22h2M13 22h1M25 22h2M14 23h1M24 23h2M15 24h1M24 24h1M16 25h1M23 25h1M16 26h1M22 26h1M17 27h1M21 27h1M18 28h3" />
<path stroke="#ff0000" d="M15 22h2M16 23h3M22 23h1M17 24h1M21 24h2M20 25h2M18 26h3M16 30h4M21 30h3M20 31h1M24 31h1M17 32h3M21 32h4M18 33h3M22 33h2M21 34h2" />
<path stroke="#fc809a" d="M19 23h3M18 24h3M18 25h2" />
<path stroke="#c10505" d="M17 29h1M21 29h2M20 30h1M24 30h1M16 31h4M21 31h3M20 32h1M21 33h1M20 34h1" />
<path stroke="#b4b1b1" d="M30 32h1M16 33h1M26 33h1M28 33h2M12 34h4M17 34h1M25 34h3M15 35h2M24 35h2" />
<path stroke="#914f06" d="M0 34h3M1 35h4" />
<path stroke="#ac5c05" d="M3 34h3" />
<path stroke="#7d4507" d="M2 36h2" />
<path stroke="#c76801" d="M23 36h1M22 37h1M21 38h1M20 39h1" />
</svg>