<svg xmlns="http://www.w3.org/2000/svg" viewBox="0 -0.5 40 40" shape-rendering="crispEdges">
<metadata>Made with Pixels to Svg https://codepen.io/shshaw/pen/XbxvNj</metadata>
<path stroke="#d60095" d="M0 0h24M27 0h13M0 1h20M30 1h3M36 1h4M4 2h13M13 3h2M0 4h3M31 4h1M39 4h1M28 5h4M36 5h1M38 5h2M6 6h7M9 7h4M33 7h1" />
<path stroke="#000000" d="M24 0h3M20 1h4M27 1h3M17 2h3M30 2h1M16 3h1M31 3h1M15 4h1M27 4h4M14 5h1M27 5h1M33 5h1M35 5h1M37 5h1M13 6h1M27 6h3M33 6h5M13 7h1M30 7h1M34 7h3M39 7h1M12 8h1M31 8h1M34 8h6M11 9h3M18 9h4M31 9h1M34 9h6M10 10h1M17 10h1M22 10h1M30 10h1M34 10h6M10 11h1M13 11h2M18 11h3M30 11h1M34 11h4M39 11h1M10 12h1M12 12h1M15 12h1M17 12h1M21 12h1M30 12h1M11 13h1M15 13h1M17 13h1M21 13h1M30 13h1M11 14h1M15 14h1M17 14h1M20 14h2M30 14h1M10 15h2M14 15h2M17 15h1M19 15h3M29 15h1M9 16h1M11 16h1M14 16h2M17 16h1M19 16h3M23 16h4M29 16h1M9 17h1M12 17h1M14 17h4M19 17h4M27 17h2M8 18h8M17 18h1M20 18h2M24 18h2M28 18h1M39 18h1M7 19h1M16 19h5M26 19h1M29 19h1M38 19h1M6 20h1M9 20h4M25 20h1M27 20h1M29 20h1M36 20h2M6 21h1M8 21h1M13 21h4M24 21h1M29 21h1M35 21h1M7 22h1M10 22h3M14 22h1M17 22h8M27 22h2M33 22h1M8 23h2M12 23h2M15 23h1M23 23h1M26 23h1M32 23h1M14 24h1M23 24h1M25 24h1M31 24h1M22 25h1M24 25h1M29 25h2M1 26h1M4 26h3M21 26h1M23 26h1M28 26h1M18 27h3M22 27h1M27 27h1M17 28h1M21 28h2M26 28h1M19 29h1M22 29h1M25 29h1M16 30h1M18 30h1M22 30h2M25 30h1M16 31h3M23 31h2M29 31h5M16 32h1M25 32h1M28 32h1M34 32h4M11 33h1M15 33h2M26 33h2M38 33h1M15 34h1M27 34h3M39 34h1M14 35h2M30 35h2M13 36h1M31 36h2M12 37h1M32 37h1M1 38h1M12 38h1M16 38h1M28 38h1M33 38h1M0 39h1M12 39h1M15 39h2M28 39h2M33 39h1" />
<path stroke="#8e00ff" d="M24 1h2M17 3h3M16 4h3M20 4h2M15 5h2M19 5h5M14 6h3M19 6h7M14 7h2M17 7h9M13 8h2M16 8h10M16 9h2M22 9h5M11 10h1M16 10h1M23 10h2M26 10h2M11 11h1M16 11h1M22 11h3M27 11h1M11 12h1M16 12h1M22 12h3M26 12h2M16 13h1M22 13h6M16 14h1M22 14h7M16 15h1M22 15h6M16 16h1M22 16h1M27 16h1M2 30h1M9 30h1M20 38h1M25 38h1" />
<path stroke="#b96cf5" d="M26 1h1M29 2h1M20 3h1M30 3h1M22 4h1M24 5h1M26 6h1M27 8h1M30 8h1M28 9h1M29 10h1M29 11h1M29 12h1M29 13h1M29 14h1M28 15h1M28 16h1" />
<path stroke="#d60000" d="M33 1h3M0 2h4M34 2h6M0 3h6M12 3h1M15 3h1M3 4h1M32 4h7M0 5h2M32 5h1M34 5h1M0 6h6M30 6h3M38 6h2M0 7h9M31 7h2M37 7h2M0 8h12M32 8h2M5 9h6M8 10h2M9 11h1M38 11h1M0 12h10M0 13h11M5 14h6" />
<path stroke="#480296" d="M20 2h1M23 4h1M28 8h1M36 29h1M37 30h1" />
<path stroke="#8b00ff" d="M21 2h2M24 2h5M24 3h3M28 3h2M25 4h2M26 7h1M28 7h2M26 8h1M29 8h1M14 9h2M27 9h1M12 10h4M18 10h4M28 10h1M12 11h1M15 11h1M17 11h1M21 11h1M28 11h1M28 12h1M28 13h1M39 19h1M38 20h1M36 21h1M34 22h1M33 23h1M39 23h1M35 25h2M29 26h1M35 26h3M28 27h1M36 27h3M27 28h1M31 28h2M37 28h3M26 29h1M30 29h3M38 29h2M28 30h3M32 30h1M38 30h2M28 31h1M39 31h1" />
<path stroke="#8900ff" d="M23 2h1M23 3h1M39 21h1M35 22h1M37 22h3M37 23h2M32 24h1M34 24h2M38 24h2M31 25h1M34 25h1M39 25h1M32 26h1M30 27h3M10 28h2M29 28h2M34 28h1M28 29h2M33 29h1M35 29h1M27 30h1M31 30h1M33 30h2M1 31h1M8 31h1M26 31h2M34 31h2M38 31h1M0 32h1M12 32h1M27 32h1M38 32h2M39 33h1M2 36h1M1 37h1M0 38h1" />
<path stroke="#ff7404" d="M31 2h3M6 3h6M32 3h8M4 4h11M2 5h12M0 9h5M32 9h2M0 10h8M31 10h3M0 11h9M31 11h2M31 12h1M0 14h5M0 15h10M6 16h3M7 17h2" />
<path stroke="#490296" d="M21 3h2M24 4h1M25 5h2M27 7h1M29 9h1M34 27h1M35 28h1M37 31h1" />
<path stroke="#9000ff" d="M27 3h1M21 30h1M20 31h2M18 32h1M22 32h2M17 33h3M21 33h4M17 34h9M16 35h1M20 35h2M25 35h4M15 36h3M19 36h4M24 36h6M15 37h5M23 37h2M29 37h2M14 38h1M17 38h3M22 38h3M27 38h1M30 38h2M20 39h7" />
<path stroke="#410296" d="M19 4h1M17 5h1M17 6h2M16 7h1M15 8h1M4 29h1M8 30h1M22 37h1M25 37h1M21 38h1M19 39h1" />
<path stroke="#b66cf5" d="M18 5h1M25 11h1M36 23h1M37 24h1M33 25h1M38 25h1M34 26h1M39 26h1M35 27h1M36 28h1M37 29h1M22 31h1M20 32h1M24 32h1M25 33h1M26 34h1M18 35h1M23 35h1M29 35h1M30 36h1M21 37h1M26 37h1M31 37h1M32 38h1M18 39h1" />
<path stroke="#9500ff" d="M30 9h1M26 32h1" />
<path stroke="#440296" d="M25 10h1M26 11h1M25 12h1M9 29h1M19 32h1M21 32h1M20 33h1M17 35h1M19 35h1M22 35h1M24 35h1M18 36h1M23 36h1M20 37h1" />
<path stroke="#ff9c04" d="M33 11h1M32 12h1M31 13h2M31 14h3M30 15h3M0 16h1M30 16h2M0 17h2M29 17h3M0 18h8M29 18h1M3 19h4M5 20h1" />
<path stroke="#4dff27" d="M13 12h2M18 12h3M12 13h3M18 13h3M12 14h2M18 14h1M12 15h2M18 15h1M12 16h2M18 16h1M13 17h1M18 17h1M18 18h2" />
<path stroke="#363535" d="M33 12h3M38 12h2M33 13h2M37 13h3M34 14h2M33 15h4M38 15h2M33 16h1M35 16h5M33 17h6M30 18h2M34 18h3M0 19h3M30 19h6M0 20h4M30 20h4M2 21h3M30 21h1M32 21h2M0 22h7M29 22h4M2 23h2M5 23h3M28 23h4M1 24h5M8 24h5M26 24h4M1 25h7M25 25h4M24 26h4M24 27h3M24 28h1M10 35h1M10 36h3M10 37h2" />
<path stroke="#585454" d="M36 12h2M35 13h2M25 28h1M23 29h2M24 30h1M29 32h5M28 33h10M36 34h3M33 35h7M33 36h4M33 37h7M39 38h1M34 39h6" />
<path stroke="#ffffff" d="M14 14h1M19 14h1" />
<path stroke="#434343" d="M36 14h4M37 15h1M32 16h1M34 16h1M32 17h1M39 17h1M32 18h2M37 18h2M36 19h2M4 20h1M34 20h2M0 21h2M5 21h1M31 21h1M34 21h1M0 23h2M4 23h1M10 23h2M27 23h1M0 24h1M6 24h2M13 24h1M30 24h1M0 25h1M13 25h1M0 26h1M23 27h1M23 28h1M17 29h2M17 30h1M30 34h6M32 35h1M5 36h2M37 36h3M4 37h2M2 38h3M10 38h2M34 38h5M1 39h3M9 39h3" />
<path stroke="#ff9b04" d="M1 16h5M2 17h5" />
<path stroke="#bc6cf5" d="M10 16h1M10 17h2M23 17h4M16 18h1M22 18h2M26 18h2M8 19h8M21 19h5M27 19h2M7 20h2M13 20h12M26 20h1M28 20h1M7 21h1M9 21h4M17 21h7M25 21h4M8 22h2M13 22h1M25 22h2M14 23h1M24 23h2M15 24h1M24 24h1M23 25h1M22 26h1M17 27h1M21 27h1M18 28h3" />
<path stroke="#4e0296" d="M39 20h1M37 21h1M36 22h1M35 23h1M36 24h1M37 25h1M30 26h2M38 26h1M39 27h1M28 28h1M27 29h1M26 30h1M25 31h1" />
<path stroke="#4b0296" d="M38 21h1M32 25h1M33 26h1" />
<path stroke="#ff0000" d="M15 22h2M16 23h1M22 23h1M21 24h2M8 25h3M20 25h2M2 26h2M7 26h1M18 26h3M0 27h2M4 27h1M10 27h3M9 28h1M3 29h1M5 29h1M8 29h1M16 29h1M1 30h1M4 30h1M6 30h1M0 31h1M3 31h1M1 32h1M15 32h1M0 33h1M14 33h1M3 34h1M10 34h2M13 34h2M2 35h1M6 35h2M11 35h3M1 36h1M9 36h1M0 37h1M3 37h1M6 37h1M9 37h1M5 38h1M9 38h1M4 39h1M8 39h1" />
<path stroke="#ffc900" d="M17 23h1M20 23h1M14 25h1M19 25h1M3 27h1M5 27h1M0 28h1M16 28h1M14 29h1M7 30h1M14 30h1M12 31h1M11 32h1M3 33h1M10 33h1M2 34h1M6 34h2M1 35h1M5 35h1M9 35h1M0 36h1M4 36h1M2 37h1M8 38h1M7 39h1" />
<path stroke="#ffee06" d="M18 23h2M16 24h1M19 24h1M11 25h2M15 25h1M8 26h8M17 26h1M2 27h1M6 27h2M9 27h1M13 27h1M16 27h1M1 28h6M8 28h1M12 28h2M15 28h1M0 29h3M6 29h2M10 29h2M15 29h1M0 30h1M5 30h1M13 30h1M15 30h1M4 31h4M9 31h1M14 31h2M2 32h4M8 32h1M10 32h1M14 32h1M1 33h2M4 33h1M6 33h4M12 33h1M0 34h2M4 34h2M8 34h2M12 34h1M0 35h1M3 35h2M8 35h1M3 36h1M7 36h2M7 37h2M6 38h2M5 39h2" />
<path stroke="#fc809a" d="M21 23h1M20 24h1" />
<path stroke="#510296" d="M34 23h1M33 24h1M29 27h1" />
<path stroke="#fefdf9" d="M17 24h2M16 25h3M16 26h1M8 27h1M14 27h2M7 28h1M14 28h1M12 29h2M10 30h3M10 31h2M6 32h2M9 32h1M13 32h1M5 33h1M13 33h1" />
<path stroke="#8400ff" d="M33 27h1M33 28h1M34 29h1M35 30h1M13 31h1M36 31h1" />
<path stroke="#3f0296" d="M20 29h2M3 30h1M19 30h1M2 31h1M27 37h1M26 38h1" />
<path stroke="#9a00ff" d="M20 30h1M19 31h1M17 32h1M16 34h1M14 36h1M13 37h2M28 37h1M13 38h1M13 39h1M27 39h1M31 39h2" />
<path stroke="#7f00ff" d="M36 30h1" />
<path stroke="#3b0296" d="M15 38h1M29 38h1M14 39h1M17 39h1M30 39h1" />
</svg>