<svg xmlns="http://www.w3.org/2000/svg" viewBox="0 -0.5 40 40" shape-rendering="crispEdges">
<metadata>Made with Pixels to Svg https://codepen.io/shshaw/pen/XbxvNj</metadata>
<path stroke="#5e00ff" d="M0 0h5M36 0h4M0 1h4M37 1h3M0 2h4M37 2h3M0 3h4M37 3h3M0 4h3M39 4h1M0 5h2M0 6h1M39 36h1M39 37h1M38 38h2M5 39h1M38 39h2" />
<path stroke="#692aff" d="M5 0h1" />
<path stroke="#8fbcff" d="M6 0h1" />
<path stroke="#9ce9ff" d="M7 0h2M14 0h1M20 0h3M31 0h1M22 1h1M24 1h1M22 2h1M30 2h1M32 2h1M6 3h1M30 3h1M30 4h1M32 4h1M32 5h1M32 6h1M3 14h1M3 16h1M3 17h1M0 23h2M0 24h2" />
<path stroke="#a7ecff" d="M9 0h1M8 3h1M33 3h1M33 4h1M37 7h1" />
<path stroke="#cef6ff" d="M10 0h1M9 3h1M34 5h1" />
<path stroke="#c8f2ff" d="M11 0h1M27 1h1" />
<path stroke="#80dffe" d="M12 0h1" />
<path stroke="#93e6ff" d="M13 0h1M30 0h1" />
<path stroke="#1d2122" d="M15 0h1" />
<path stroke="#c6f3ff" d="M16 0h1M11 1h1M26 1h1" />
<path stroke="#d2f6ff" d="M17 0h1" />
<path stroke="#cef4ff" d="M18 0h1M27 0h1M10 2h1M26 2h1M3 9h1" />
<path stroke="#a7ebff" d="M19 0h1M36 6h1M1 15h1M1 16h1" />
<path stroke="#000000" d="M23 0h2M7 1h1M14 1h1M23 1h1M31 1h1M7 2h1M14 2h2M23 2h1M31 2h1M7 3h1M22 3h2M31 3h2M6 4h2M31 4h1M6 5h1M30 5h2M14 6h5M20 6h2M30 6h2M13 7h1M12 8h1M11 9h4M18 9h4M10 10h2M22 10h1M10 11h1M10 12h1M3 13h1M11 13h4M18 13h4M10 14h1M15 14h1M17 14h1M22 14h1M2 15h2M10 15h1M16 15h1M23 15h1M2 16h1M9 16h2M15 16h1M17 16h1M23 16h5M2 17h1M9 17h1M11 17h1M14 17h4M22 17h1M27 17h1M8 18h8M17 18h2M21 18h1M24 18h2M28 18h1M7 19h1M16 19h5M26 19h1M29 19h1M6 20h1M9 20h4M25 20h1M27 20h1M29 20h1M8 21h1M13 21h4M24 21h1M29 21h1M7 22h1M10 22h3M14 22h1M17 22h8M27 22h2M8 23h2M23 23h1M26 23h1M23 24h1M25 24h1M15 25h1M17 25h1M22 25h1M24 25h1M15 26h1M17 26h1M21 26h1M23 26h1M1 27h1M10 27h2M16 27h1M18 27h3M22 27h1M1 28h1M9 28h1M12 28h1M17 28h1M21 28h2M8 29h3M13 29h1M19 29h1M22 29h1M8 30h1M11 30h1M13 30h1M18 30h1M22 30h2M9 31h1M14 31h1M17 31h1M24 31h2M7 32h4M14 32h1M16 32h1M25 32h1M7 33h1M14 33h1M16 33h1M26 33h1M8 34h2M12 34h2M15 34h1M26 34h2M10 35h2M14 35h2M27 35h1M10 36h1M14 36h1M24 36h1M27 36h1M11 37h1M15 37h1M23 37h1M27 37h1M11 38h1M16 38h1M22 38h1M28 38h1M12 39h1M16 39h2M21 39h1M28 39h1" />
<path stroke="#9eeaff" d="M25 0h1M24 2h1M0 22h1M2 23h1" />
<path stroke="#acedff" d="M26 0h1" />
<path stroke="#c2f1ff" d="M28 0h1M3 22h1" />
<path stroke="#84e2ff" d="M29 0h1" />
<path stroke="#a4ebff" d="M32 0h1M16 1h1M1 22h1" />
<path stroke="#c5e7ff" d="M33 0h1" />
<path stroke="#c4ceff" d="M34 0h1" />
<path stroke="#742cff" d="M35 0h1" />
<path stroke="#5f08ff" d="M4 1h1M38 4h1M39 5h1" />
<path stroke="#7046ff" d="M5 1h1" />
<path stroke="#92c5ff" d="M6 1h1" />
<path stroke="#060707" d="M8 1h1M15 1h1M32 1h1M19 6h1M2 14h1M2 24h1" />
<path stroke="#aeeeff" d="M9 1h1" />
<path stroke="#cff6ff" d="M10 1h1M39 9h1" />
<path stroke="#9be9ff" d="M12 1h1" />
<path stroke="#9ae9ff" d="M13 1h1M21 1h1M30 1h1M13 2h1M1 25h1" />
<path stroke="#afedff" d="M17 1h1M36 7h1" />
<path stroke="#c8f3ff" d="M18 1h1M10 3h1M25 3h1M1 21h1" />
<path stroke="#a8ecff" d="M19 1h1" />
<path stroke="#94e7ff" d="M20 1h1M12 2h1" />
<path stroke="#a5ecff" d="M25 1h1M24 3h1" />
<path stroke="#8ae2fe" d="M28 1h1" />
<path stroke="#8de4ff" d="M29 1h1" />
<path stroke="#a6d6ff" d="M33 1h1" />
<path stroke="#bdc5ff" d="M34 1h1" />
<path stroke="#844fff" d="M35 1h1" />
<path stroke="#6208ff" d="M36 1h1" />
<path stroke="#6723ff" d="M4 2h1" />
<path stroke="#89a3ff" d="M5 2h1" />
<path stroke="#99e2ff" d="M6 2h1" />
<path stroke="#a4ecff" d="M8 2h1" />
<path stroke="#c8f4ff" d="M9 2h1" />
<path stroke="#a5eaff" d="M11 2h1" />
<path stroke="#92e6ff" d="M16 2h1M0 25h1M1 26h1" />
<path stroke="#9de5ff" d="M17 2h1" />
<path stroke="#caf0ff" d="M18 2h1" />
<path stroke="#bbeaff" d="M19 2h1" />
<path stroke="#7dd3fe" d="M20 2h1" />
<path stroke="#92e3ff" d="M21 2h1" />
<path stroke="#adeeff" d="M25 2h1" />
<path stroke="#b8e7ff" d="M27 2h1" />
<path stroke="#73c5fe" d="M28 2h1M4 27h1" />
<path stroke="#90dfff" d="M29 2h1M21 3h1" />
<path stroke="#a5e6ff" d="M33 2h1" />
<path stroke="#cae9ff" d="M34 2h1" />
<path stroke="#bcc3ff" d="M35 2h1" />
<path stroke="#712aff" d="M36 2h1" />
<path stroke="#682bff" d="M4 3h1" />
<path stroke="#8fbeff" d="M5 3h1" />
<path stroke="#74d9fd" d="M11 3h1" />
<path stroke="#6ac8fd" d="M12 3h1" />
<path stroke="#86cfff" d="M13 3h1" />
<path stroke="#8ed4ff" d="M14 3h1" />
<path stroke="#86d2fe" d="M15 3h1" />
<path stroke="#6acafc" d="M16 3h1" />
<path stroke="#70c9fd" d="M17 3h1" />
<path stroke="#b6e2ff" d="M18 3h1" />
<path stroke="#c4eaff" d="M19 3h1" />
<path stroke="#84cbfe" d="M20 3h1" />
<path stroke="#cdeeff" d="M26 3h1" />
<path stroke="#859eff" d="M27 3h1" />
<path stroke="#697bfe" d="M28 3h1" />
<path stroke="#8fcdff" d="M29 3h1" />
<path stroke="#cff5ff" d="M34 3h1M24 5h1" />
<path stroke="#cdeaff" d="M35 3h1" />
<path stroke="#7b49ff" d="M36 3h1" />
<path stroke="#5e03ff" d="M3 4h1M2 5h1M1 6h1M39 35h1" />
<path stroke="#6931ff" d="M4 4h1" />
<path stroke="#8fc0ff" d="M5 4h1" />
<path stroke="#a4e8ff" d="M8 4h1" />
<path stroke="#ccf2ff" d="M9 4h1M25 4h1" />
<path stroke="#c5eeff" d="M10 4h1" />
<path stroke="#66c4fd" d="M11 4h1M6 9h1" />
<path stroke="#55a1fe" d="M12 4h1" />
<path stroke="#5ca7fd" d="M13 4h1" />
<path stroke="#5daffe" d="M14 4h1" />
<path stroke="#5bb3fe" d="M15 4h1" />
<path stroke="#52b5fe" d="M16 4h1" />
<path stroke="#50b7fd" d="M17 4h1" />
<path stroke="#71cbfe" d="M18 4h1" />
<path stroke="#b0e9ff" d="M19 4h1" />
<path stroke="#b5ebff" d="M20 4h1" />
<path stroke="#9ce3ff" d="M21 4h1" />
<path stroke="#262c2e" d="M22 4h1" />
<path stroke="#262b2d" d="M23 4h1" />
<path stroke="#adedff" d="M24 4h1" />
<path stroke="#b9e0ff" d="M26 4h1" />
<path stroke="#6a93ff" d="M27 4h1" />
<path stroke="#6486ff" d="M28 4h1" />
<path stroke="#8eceff" d="M29 4h1" />
<path stroke="#cff7ff" d="M34 4h1" />
<path stroke="#cff0ff" d="M35 4h1" />
<path stroke="#856fff" d="M36 4h1" />
<path stroke="#6724ff" d="M37 4h1" />
<path stroke="#5f10ff" d="M3 5h1" />
<path stroke="#7054ff" d="M4 5h1" />
<path stroke="#92cbff" d="M5 5h1" />
<path stroke="#060708" d="M7 5h1" />
<path stroke="#a6e1ff" d="M8 5h1" />
<path stroke="#c6ebff" d="M9 5h1" />
<path stroke="#b4e0ff" d="M10 5h1" />
<path stroke="#61b8fe" d="M11 5h1" />
<path stroke="#4fb3fd" d="M12 5h1" />
<path stroke="#4ebbfd" d="M13 5h1M35 11h1M33 34h1" />
<path stroke="#4dc1fd" d="M14 5h1M35 30h1" />
<path stroke="#4dc4fd" d="M15 5h1M32 9h1M36 13h1" />
<path stroke="#4dc6fd" d="M16 5h1" />
<path stroke="#4cc8fc" d="M17 5h1M36 24h1M34 31h1M29 39h1" />
<path stroke="#4fcdfc" d="M18 5h1" />
<path stroke="#6fd9fd" d="M19 5h1" />
<path stroke="#b1edff" d="M20 5h1M5 23h1M5 24h1" />
<path stroke="#c6f2ff" d="M21 5h1" />
<path stroke="#ccf4ff" d="M22 5h1" />
<path stroke="#cdf5ff" d="M23 5h1M37 9h1" />
<path stroke="#c6f0ff" d="M25 5h1" />
<path stroke="#79c7fe" d="M26 5h1" />
<path stroke="#55aafe" d="M27 5h1" />
<path stroke="#5fa9fe" d="M28 5h1" />
<path stroke="#8dd7ff" d="M29 5h1" />
<path stroke="#a6ecff" d="M33 5h1" />
<path stroke="#cff4ff" d="M35 5h1M35 6h1" />
<path stroke="#9fd1ff" d="M36 5h1" />
<path stroke="#89a5ff" d="M37 5h1" />
<path stroke="#6f41ff" d="M38 5h1" />
<path stroke="#5e09ff" d="M2 6h1" />
<path stroke="#6734ff" d="M3 6h1" />
<path stroke="#8aafff" d="M4 6h1" />
<path stroke="#a0e6ff" d="M5 6h1" />
<path stroke="#9ee6ff" d="M6 6h1" />
<path stroke="#a4e0ff" d="M7 6h1" />
<path stroke="#c1ecff" d="M8 6h1M36 9h1" />
<path stroke="#b5e5ff" d="M9 6h1" />
<path stroke="#72c9fe" d="M10 6h1" />
<path stroke="#50c3fd" d="M11 6h1" />
<path stroke="#4cc7fd" d="M12 6h1M6 10h1M33 10h1M35 12h1" />
<path stroke="#4ccbfd" d="M13 6h1" />
<path stroke="#050708" d="M22 6h1" />
<path stroke="#c4f2ff" d="M23 6h1" />
<path stroke="#c3f1ff" d="M24 6h1M5 7h1" />
<path stroke="#aee9ff" d="M25 6h1" />
<path stroke="#60cffe" d="M26 6h1" />
<path stroke="#4dc2fd" d="M27 6h1" />
<path stroke="#59c1fe" d="M28 6h1" />
<path stroke="#83d7ff" d="M29 6h1" />
<path stroke="#9fe6ff" d="M33 6h1" />
<path stroke="#c9f0ff" d="M34 6h1" />
<path stroke="#9ae3ff" d="M37 6h1" />
<path stroke="#8ba8ff" d="M38 6h1" />
<path stroke="#7743ff" d="M39 6h1" />
<path stroke="#5e02ff" d="M0 7h1M38 37h1M37 39h1" />
<path stroke="#5e08ff" d="M1 7h1M39 34h1M36 39h1" />
<path stroke="#631fff" d="M2 7h1" />
<path stroke="#7c74ff" d="M3 7h1" />
<path stroke="#a5daff" d="M4 7h1" />
<path stroke="#c8efff" d="M6 7h1" />
<path stroke="#c6ecff" d="M7 7h1" />
<path stroke="#b5e7ff" d="M8 7h1" />
<path stroke="#73d1fe" d="M9 7h1" />
<path stroke="#4fcbfd" d="M10 7h1" />
<path stroke="#32a0f9" d="M11 7h1M27 7h1M23 8h1M27 14h1" />
<path stroke="#0059a7" d="M12 7h1M24 9h1M28 25h1" />
<path stroke="#ffffff" d="M14 7h6M13 8h10M15 9h3M22 9h2M12 10h10M23 10h1M11 11h14M11 12h15M15 13h3M22 13h4M16 14h1M23 14h4M24 15h3M16 16h1M10 28h2M11 29h2M9 30h2M12 30h1M20 30h2M10 31h4M19 31h3M11 32h3M8 33h6M10 34h2" />
<path stroke="#feffff" d="M20 7h1" />
<path stroke="#f9ffff" d="M21 7h1" />
<path stroke="#f9feff" d="M22 7h1" />
<path stroke="#252a2c" d="M23 7h1" />
<path stroke="#2574b6" d="M24 7h1" />
<path stroke="#49acfa" d="M25 7h1" />
<path stroke="#1e8be7" d="M26 7h1" />
<path stroke="#4eccfd" d="M28 7h1" />
<path stroke="#61cefe" d="M29 7h1" />
<path stroke="#84dbff" d="M30 7h1" />
<path stroke="#8eddff" d="M31 7h1" />
<path stroke="#8fd8ff" d="M32 7h1" />
<path stroke="#90ccff" d="M33 7h1" />
<path stroke="#bcddff" d="M34 7h1" />
<path stroke="#cdf0ff" d="M35 7h1" />
<path stroke="#a8d6ff" d="M38 7h1" />
<path stroke="#bcc8ff" d="M39 7h1" />
<path stroke="#5e05ff" d="M0 8h1M38 36h1M5 38h1M37 38h1" />
<path stroke="#621dff" d="M1 8h1" />
<path stroke="#8981ff" d="M2 8h1" />
<path stroke="#c3e7ff" d="M3 8h1" />
<path stroke="#cdf2ff" d="M4 8h1" />
<path stroke="#c7efff" d="M5 8h1" />
<path stroke="#c3ebff" d="M6 8h1" />
<path stroke="#b2e7ff" d="M7 8h1" />
<path stroke="#70d3fe" d="M8 8h1" />
<path stroke="#4ecffd" d="M9 8h1" />
<path stroke="#1986e6" d="M10 8h1M26 9h1M29 9h2M9 10h1M25 10h1M8 11h1M32 11h1M28 12h2M7 13h1M29 13h1M33 14h1M7 15h1M28 15h1M31 15h1M33 15h1M6 16h1M31 16h1M29 17h1M30 18h1M31 19h1M30 20h1M30 21h1M32 21h1M6 22h1M31 22h1M28 23h1M32 23h1M6 24h1M28 24h1M32 24h1M7 25h1M29 25h1M33 25h1M6 26h1M13 26h1M29 26h1M6 27h1M30 27h1M29 28h1M30 29h1M30 30h2" />
<path stroke="#0058a7" d="M11 8h1M25 8h1M27 8h2M10 9h1M28 9h1M7 10h1M27 10h1M29 10h4M9 11h1M26 11h1M31 11h1M33 11h1M9 12h1M31 12h2M6 13h1M8 13h1M27 13h1M32 13h1M7 14h1M9 14h1M28 14h1M30 14h1M32 14h1M8 15h2M8 16h1M28 16h2M33 16h1M7 17h1M31 17h1M33 17h1M7 18h1M29 18h1M34 18h1M5 19h2M35 19h1M5 20h1M32 20h1M33 21h1M29 22h2M33 22h1M6 23h1M29 23h1M31 23h1M34 23h1M27 24h1M29 24h1M31 24h1M34 24h1M9 25h1M31 25h2M27 26h1M32 26h2M5 27h1M8 27h1M27 27h1M31 27h1M33 27h1M5 28h1M8 28h1M28 28h1M31 28h1M33 28h2M6 29h1M29 29h1M32 29h1M29 30h1M7 31h1M30 31h1" />
<path stroke="#013491" d="M24 8h1M25 9h1M8 10h1M24 10h1M26 10h1M7 11h1M27 11h1M30 11h1M6 12h1M27 12h1M9 13h2M28 13h1M31 13h1M8 14h1M29 14h1M6 15h1M27 15h1M30 15h1M32 15h1M7 16h1M30 16h1M6 17h1M28 17h1M30 17h1M5 18h1M31 18h1M33 18h1M30 19h1M34 19h1M31 20h1M35 20h1M6 21h1M31 21h1M32 22h1M7 23h1M10 23h1M27 23h1M33 23h1M7 24h1M9 24h1M26 24h1M6 25h1M13 25h1M26 25h2M7 26h1M26 26h1M28 26h1M26 27h1M29 27h1M6 28h1M27 28h1M30 28h1M5 29h1M31 29h1M29 31h1" />
<path stroke="#329ef9" d="M26 8h1M9 9h1M27 9h1M28 10h1M25 11h1M7 12h2M26 12h1M33 12h1M34 13h1M8 17h1M34 17h1M6 18h1M33 24h1M34 27h1M32 28h1" />
<path stroke="#4dcffd" d="M29 8h1" />
<path stroke="#56cdfe" d="M30 8h1" />
<path stroke="#5ac6fe" d="M31 8h1" />
<path stroke="#5cb9fe" d="M32 8h1" />
<path stroke="#60a9fe" d="M33 8h1" />
<path stroke="#7aabff" d="M34 8h1" />
<path stroke="#bae5ff" d="M35 8h1" />
<path stroke="#cff3ff" d="M36 8h1" />
<path stroke="#d0f5ff" d="M37 8h1M0 15h1M0 16h1" />
<path stroke="#d2f4ff" d="M38 8h1" />
<path stroke="#d9f6ff" d="M39 8h1" />
<path stroke="#6110ff" d="M0 9h1" />
<path stroke="#846aff" d="M1 9h1" />
<path stroke="#c3e5ff" d="M2 9h1" />
<path stroke="#baecff" d="M4 9h1" />
<path stroke="#79c6fe" d="M5 9h1" />
<path stroke="#5ecefe" d="M7 9h1" />
<path stroke="#065ca9" d="M8 9h1" />
<path stroke="#4bccfd" d="M31 9h1" />
<path stroke="#4fb7fd" d="M33 9h1M36 12h1M6 31h1" />
<path stroke="#55a6fe" d="M34 9h1" />
<path stroke="#7fb5ff" d="M35 9h1" />
<path stroke="#cef5ff" d="M38 9h1M2 21h1" />
<path stroke="#7031ff" d="M0 10h1" />
<path stroke="#b5c0ff" d="M1 10h1" />
<path stroke="#c5ebff" d="M2 10h1" />
<path stroke="#a5ebff" d="M3 10h1M2 19h1" />
<path stroke="#70d1fd" d="M4 10h1" />
<path stroke="#51bcfd" d="M5 10h1" />
<path stroke="#4fbafd" d="M34 10h1M37 14h1" />
<path stroke="#57adfe" d="M35 10h1" />
<path stroke="#6dc3fd" d="M36 10h1" />
<path stroke="#73c9fd" d="M37 10h1" />
<path stroke="#7ecbfd" d="M38 10h1" />
<path stroke="#96e0ff" d="M39 10h1" />
<path stroke="#855fff" d="M0 11h1" />
<path stroke="#b9c9ff" d="M1 11h1" />
<path stroke="#a5dbff" d="M2 11h1" />
<path stroke="#92e4ff" d="M3 11h1" />
<path stroke="#5fcbfd" d="M4 11h1" />
<path stroke="#4cc5fe" d="M5 11h1" />
<path stroke="#4bcefc" d="M6 11h1M35 13h1M36 15h1M7 30h1M31 35h1" />
<path stroke="#4ad2fc" d="M28 11h2M30 12h1M33 13h1M6 14h1M34 14h1M34 15h2M34 16h2M35 17h1M35 18h1M34 20h1M34 21h2M34 22h1M34 25h1M8 26h1M34 26h1M7 27h1M7 28h1M33 29h1M32 30h1M31 31h2M30 32h2M29 33h3M14 34h1M28 34h3M28 35h2M28 36h1M28 37h1" />
<path stroke="#4cc8fd" d="M34 11h1" />
<path stroke="#4fa8fe" d="M36 11h1" />
<path stroke="#528efd" d="M37 11h1" />
<path stroke="#577efe" d="M38 11h1M38 26h1M37 30h1" />
<path stroke="#5ea4fd" d="M39 11h1" />
<path stroke="#cadbff" d="M0 12h1" />
<path stroke="#c5dcff" d="M1 12h1" />
<path stroke="#9edcff" d="M2 12h1" />
<path stroke="#92e0ff" d="M3 12h1" />
<path stroke="#68ccfe" d="M4 12h1" />
<path stroke="#4ecbfb" d="M5 12h1" />
<path stroke="#4bcffc" d="M34 12h1M36 16h1M36 17h1M36 18h1M36 19h1M36 20h1M36 21h1M35 26h1M32 33h1M30 36h1" />
<path stroke="#539bfe" d="M37 12h1" />
<path stroke="#5777ff" d="M38 12h1" />
<path stroke="#585dff" d="M39 12h1" />
<path stroke="#d8f3ff" d="M0 13h1" />
<path stroke="#c4e8ff" d="M1 13h1" />
<path stroke="#1e2324" d="M2 13h1" />
<path stroke="#83dcff" d="M4 13h1" />
<path stroke="#57d1fd" d="M5 13h1" />
<path stroke="#013691" d="M26 13h1M30 26h1M27 29h1" />
<path stroke="#4ad2fb" d="M30 13h1M31 14h1M29 15h1M32 16h1M32 17h1M32 18h1M32 19h2M33 20h1M30 23h1M8 24h1M30 24h1M8 25h1M14 25h1M25 25h1M30 25h1M14 26h1M24 26h2M31 26h1M13 27h3M23 27h3M28 27h1M32 27h1M13 28h4M23 28h4M14 29h5M23 29h4M28 29h1M14 30h4M24 30h5M15 31h2M26 31h3M15 32h1M26 32h4M15 33h1M27 33h2" />
<path stroke="#51adfd" d="M37 13h1M37 25h1M0 29h1M33 35h1" />
<path stroke="#5689fe" d="M38 13h1" />
<path stroke="#5a5eff" d="M39 13h1" />
<path stroke="#d1f2ff" d="M0 14h1" />
<path stroke="#ace9ff" d="M1 14h1" />
<path stroke="#8de1ff" d="M4 14h1" />
<path stroke="#59d3fd" d="M5 14h1" />
<path stroke="#10df1c" d="M11 14h2M18 14h2M11 15h1M17 15h1" />
<path stroke="#07800d" d="M13 14h1M12 15h1M14 15h2M18 15h2M22 15h1M11 16h1M13 16h2M18 16h1M22 16h1M12 17h2M21 17h1M19 18h2" />
<path stroke="#cdffcf" d="M14 14h1M21 14h1M13 15h1M20 15h1M12 16h1M19 16h1M18 17h1" />
<path stroke="#07800c" d="M20 14h1M21 15h1M20 16h2M19 17h2" />
<path stroke="#4ad1fc" d="M35 14h1M35 22h1M35 23h1M33 30h1M32 32h1M31 34h1M30 35h1M29 36h1" />
<path stroke="#4bcafc" d="M36 14h1" />
<path stroke="#549afe" d="M38 14h1" />
<path stroke="#596eff" d="M39 14h1M39 23h1M38 28h1" />
<path stroke="#8ce2ff" d="M4 15h1" />
<path stroke="#59d4fd" d="M5 15h1" />
<path stroke="#4dc0fd" d="M37 15h1" />
<path stroke="#52a4fd" d="M38 15h1M37 27h1" />
<path stroke="#5878fe" d="M39 15h1M39 22h1M38 27h1" />
<path stroke="#8ce3ff" d="M4 16h1M4 17h1" />
<path stroke="#59d5fd" d="M5 16h1" />
<path stroke="#4dc3fc" d="M37 16h1M37 21h1M36 26h1M6 30h1" />
<path stroke="#51a8fd" d="M38 16h1" />
<path stroke="#577cfe" d="M39 16h1M39 21h1" />
<path stroke="#d1f5ff" d="M0 17h1" />
<path stroke="#272c2e" d="M1 17h1" />
<path stroke="#59d6fd" d="M5 17h1" />
<path stroke="#ff8a00" d="M10 17h1M23 17h4M16 18h1M22 18h2M26 18h2M8 19h8M21 19h5M27 19h2M7 20h2M13 20h12M26 20h1M28 20h1M7 21h1M9 21h4M17 21h7M25 21h4M8 22h2M13 22h1M25 22h2M24 23h2M24 24h1M16 25h1M23 25h1M16 26h1M22 26h1M17 27h1M21 27h1M18 28h3" />
<path stroke="#4dc4fc" d="M37 17h1M37 18h1M37 19h1M37 20h1" />
<path stroke="#51a9fd" d="M38 17h1M38 18h1M38 19h1M38 20h1M37 26h1" />
<path stroke="#577dfe" d="M39 17h1M39 18h1M39 19h1M39 20h1" />
<path stroke="#d0f3ff" d="M0 18h1" />
<path stroke="#424a4d" d="M1 18h1" />
<path stroke="#070808" d="M2 18h1" />
<path stroke="#92e7ff" d="M3 18h1" />
<path stroke="#80e1ff" d="M4 18h1" />
<path stroke="#d8f5ff" d="M0 19h1" />
<path stroke="#c9f1ff" d="M1 19h1" />
<path stroke="#6fdafd" d="M3 19h1" />
<path stroke="#58d4fc" d="M4 19h1" />
<path stroke="#cae8ff" d="M0 20h1" />
<path stroke="#d7f5ff" d="M1 20h1" />
<path stroke="#c7f3ff" d="M2 20h1" />
<path stroke="#7fdcfc" d="M3 20h1" />
<path stroke="#4ed1fc" d="M4 20h1" />
<path stroke="#a6dcff" d="M0 21h1" />
<path stroke="#baeefe" d="M3 21h1" />
<path stroke="#72d9fd" d="M4 21h1" />
<path stroke="#1f8ae7" d="M5 21h1" />
<path stroke="#52a8fd" d="M38 21h1" />
<path stroke="#aceeff" d="M2 22h1" />
<path stroke="#b5edff" d="M4 22h1" />
<path stroke="#3866ae" d="M5 22h1" />
<path stroke="#a00606" d="M15 22h2M17 23h2M22 23h1M21 24h2M20 25h2M18 26h3" />
<path stroke="#4bcdfc" d="M36 22h1M35 27h1M34 30h1" />
<path stroke="#4dc0fc" d="M37 22h1M36 27h1" />
<path stroke="#52a3fd" d="M38 22h1" />
<path stroke="#a2e6ff" d="M3 23h1" />
<path stroke="#b4d5ec" d="M4 23h1" />
<path stroke="#fff2b8" d="M11 23h1M10 24h1M2 32h1M0 34h1M0 35h1M1 36h1M2 37h1M4 38h1M8 39h1" />
<path stroke="#ffe20c" d="M12 23h1M16 23h1M10 25h1M10 26h1M5 30h1M3 31h1M5 31h1M8 31h1M0 32h2M4 32h2M4 33h1M3 34h1M7 34h1M6 38h1" />
<path stroke="#ffe30c" d="M13 23h1M3 36h1M8 36h1M3 37h1M3 38h1M3 39h2" />
<path stroke="#f2b300" d="M14 23h2M11 24h1M2 36h1" />
<path stroke="#f3446e" d="M19 23h3M19 24h2M18 25h2" />
<path stroke="#4bcbfc" d="M36 23h1M35 28h1M33 32h1M32 34h1" />
<path stroke="#4ebafc" d="M37 23h1" />
<path stroke="#539afe" d="M38 23h1M37 28h1M33 36h1" />
<path stroke="#3e4749" d="M3 24h1" />
<path stroke="#b8e5fb" d="M4 24h1" />
<path stroke="#e3a706" d="M12 24h1" />
<path stroke="#ca9305" d="M13 24h1" />
<path stroke="#ca9405" d="M14 24h1M16 24h1M12 25h1M12 26h1M12 27h1M9 37h1M9 38h1M0 39h1M9 39h1" />
<path stroke="#e3a806" d="M15 24h1M17 24h1M4 31h1M3 32h1M0 33h1M0 36h1M0 37h1M0 38h1M1 39h1" />
<path stroke="#f2b400" d="M18 24h1M1 33h1M1 34h1M1 35h1M7 36h1M1 37h1M1 38h1M2 39h1" />
<path stroke="#4ad0fc" d="M35 24h1M7 29h1M34 29h1M29 37h1" />
<path stroke="#50b3fd" d="M37 24h1" />
<path stroke="#558efe" d="M38 24h1M35 33h1" />
<path stroke="#5a61ff" d="M39 24h1M33 38h1" />
<path stroke="#1f2324" d="M2 25h1" />
<path stroke="#c2efff" d="M3 25h1" />
<path stroke="#b6ebff" d="M4 25h1" />
<path stroke="#70d8fd" d="M5 25h1" />
<path stroke="#f2b200" d="M11 25h1M11 26h1M9 35h1M7 37h2M2 38h1M7 38h2M6 39h2" />
<path stroke="#4acffc" d="M35 25h1M33 31h1" />
<path stroke="#4cc5fc" d="M36 25h1M33 33h1" />
<path stroke="#5684fe" d="M38 25h1M10 37h1" />
<path stroke="#5b55ff" d="M39 25h1" />
<path stroke="#6cdbfd" d="M0 26h1" />
<path stroke="#252a2b" d="M2 26h1M2 27h1M2 28h1" />
<path stroke="#c2eeff" d="M3 26h1" />
<path stroke="#80d2fe" d="M4 26h1" />
<path stroke="#36a0f9" d="M5 26h1" />
<path stroke="#f2b100" d="M9 26h1M9 27h1M0 31h3M3 33h1M2 34h1M2 35h2M7 35h1" />
<path stroke="#5b4eff" d="M39 26h1" />
<path stroke="#5ed7fc" d="M0 27h1" />
<path stroke="#bfedff" d="M3 27h1" />
<path stroke="#5c49ff" d="M39 27h1" />
<path stroke="#5ad6fc" d="M0 28h1" />
<path stroke="#bfebff" d="M3 28h1" />
<path stroke="#74befe" d="M4 28h1" />
<path stroke="#4ebafd" d="M36 28h1M31 37h1" />
<path stroke="#5c41ff" d="M39 28h1" />
<path stroke="#69befd" d="M1 29h1" />
<path stroke="#99dfff" d="M2 29h1" />
<path stroke="#b3dfff" d="M3 29h1" />
<path stroke="#6fb1ff" d="M4 29h1" />
<path stroke="#f0efef" d="M20 29h2M19 30h1" />
<path stroke="#4cc7fc" d="M35 29h1M31 36h1" />
<path stroke="#50b2fd" d="M36 29h1" />
<path stroke="#558dfe" d="M37 29h1" />
<path stroke="#5a60ff" d="M38 29h1M35 35h1" />
<path stroke="#5d36ff" d="M39 29h1" />
<path stroke="#755603" d="M0 30h2" />
<path stroke="#785a09" d="M2 30h1" />
<path stroke="#f1b91a" d="M3 30h1" />
<path stroke="#fef3ba" d="M4 30h1" />
<path stroke="#52a7fd" d="M36 30h1" />
<path stroke="#5b51ff" d="M38 30h1" />
<path stroke="#5d2bff" d="M39 30h1M37 34h1" />
<path stroke="#e5c900" d="M18 31h1M18 32h2" />
<path stroke="#df1a94" d="M22 31h2M17 32h1M22 32h3M17 33h2M21 33h3M16 34h2M20 34h4M16 35h1M21 35h2M22 36h1" />
<path stroke="#4fb6fd" d="M35 31h1M32 36h1" />
<path stroke="#5497fe" d="M36 31h1" />
<path stroke="#596dff" d="M37 31h1" />
<path stroke="#5c42ff" d="M38 31h1" />
<path stroke="#5d21ff" d="M39 31h1" />
<path stroke="#52a4fe" d="M6 32h1" />
<path stroke="#e5ca00" d="M20 32h2M19 33h2M19 34h1" />
<path stroke="#4ebefd" d="M34 32h1" />
<path stroke="#52a5fe" d="M35 32h1" />
<path stroke="#5781fe" d="M36 32h1" />
<path stroke="#5a58ff" d="M37 32h1" />
<path stroke="#5d33ff" d="M38 32h1" />
<path stroke="#5e18ff" d="M39 32h1" />
<path stroke="#ffe10c" d="M2 33h1" />
<path stroke="#5965ff" d="M5 33h1" />
<path stroke="#558bfe" d="M6 33h1" />
<path stroke="#830454" d="M24 33h1M18 34h1M17 35h1M23 35h1" />
<path stroke="#9f0765" d="M25 33h1M24 34h2M20 35h1M24 35h3M16 36h1M19 36h2M26 36h1M13 37h1M16 37h1M19 37h2M25 37h1M12 38h2M19 38h2M26 38h2M15 39h1M19 39h2M23 39h1M26 39h2" />
<path stroke="#50affd" d="M34 33h1" />
<path stroke="#5966ff" d="M36 33h1" />
<path stroke="#5c40ff" d="M37 33h1" />
<path stroke="#5d22ff" d="M38 33h1M35 38h1" />
<path stroke="#5e0fff" d="M39 33h1" />
<path stroke="#5d2aff" d="M4 34h1" />
<path stroke="#5b4aff" d="M5 34h1M35 36h1" />
<path stroke="#586fff" d="M6 34h1" />
<path stroke="#539efe" d="M34 34h1" />
<path stroke="#5877ff" d="M35 34h1" />
<path stroke="#5b4dff" d="M36 34h1" />
<path stroke="#5e14ff" d="M38 34h1" />
<path stroke="#5e19ff" d="M4 35h1" />
<path stroke="#5d32ff" d="M5 35h1M6 36h1" />
<path stroke="#5b50ff" d="M6 35h1" />
<path stroke="#c48f04" d="M8 35h1M9 36h1" />
<path stroke="#df1a97" d="M12 35h2M11 36h2" />
<path stroke="#9f0761" d="M18 35h1M17 36h2M21 36h1M25 36h1M17 37h2M21 37h2M24 37h1M18 38h1M18 39h1M22 39h1" />
<path stroke="#9f0767" d="M19 35h1" />
<path stroke="#4dc3fd" d="M32 35h1" />
<path stroke="#568afe" d="M34 35h1" />
<path stroke="#5c39ff" d="M36 35h1" />
<path stroke="#5d1cff" d="M37 35h1M5 36h1" />
<path stroke="#5e0bff" d="M38 35h1" />
<path stroke="#5e0dff" d="M4 36h1" />
<path stroke="#830456" d="M13 36h1M12 37h1" />
<path stroke="#9f075e" d="M15 36h1M23 36h1M14 37h1M26 37h1M14 38h1M17 38h1M21 38h1M23 38h3M24 39h2" />
<path stroke="#5873ff" d="M34 36h1" />
<path stroke="#5d28ff" d="M36 36h1" />
<path stroke="#5e11ff" d="M37 36h1" />
<path stroke="#5e06ff" d="M4 37h1" />
<path stroke="#5e0eff" d="M5 37h1" />
<path stroke="#5d1aff" d="M6 37h1M36 37h1" />
<path stroke="#4cc9fc" d="M30 37h1" />
<path stroke="#52a2fe" d="M32 37h1" />
<path stroke="#5780fe" d="M33 37h1" />
<path stroke="#5a5aff" d="M34 37h1" />
<path stroke="#5d35ff" d="M35 37h1" />
<path stroke="#5e0aff" d="M37 37h1" />
<path stroke="#5962ff" d="M10 38h1" />
<path stroke="#9f075c" d="M15 38h1M13 39h2" />
<path stroke="#4bccfc" d="M29 38h1" />
<path stroke="#4dbffc" d="M30 38h1" />
<path stroke="#51a7fd" d="M31 38h1" />
<path stroke="#5686fe" d="M32 38h1" />
<path stroke="#5c3fff" d="M34 38h1" />
<path stroke="#5e10ff" d="M36 38h1" />
<path stroke="#5c45ff" d="M10 39h1M33 39h1" />
<path stroke="#596bff" d="M11 39h1M32 39h1" />
<path stroke="#4fb5fd" d="M30 39h1" />
<path stroke="#5493fe" d="M31 39h1" />
<path stroke="#5d27ff" d="M34 39h1" />
<path stroke="#5e13ff" d="M35 39h1" />
</svg>