<svg xmlns="http://www.w3.org/2000/svg" viewBox="0 -0.5 40 40" shape-rendering="crispEdges">
<metadata>Made with Pixels to Svg https://codepen.io/shshaw/pen/XbxvNj</metadata>
<path stroke="#7ac9f3" d="M0 0h40M0 1h40M0 2h40M0 3h16M23 3h17M0 4h14M25 4h15M0 5h13M26 5h14M0 6h12M27 6h13M0 7h11M28 7h12M0 8h10M29 8h11M0 9h10M30 9h10M0 10h9M30 10h10M0 11h9M31 11h9M0 12h9M31 12h9M0 13h9M31 13h9M0 14h9M31 14h9M0 15h10M30 15h10M0 16h9M30 16h10M0 17h9M29 17h11M0 18h8M29 18h11M0 19h7M30 19h10M0 20h6M30 20h10M0 21h6M30 21h10M0 22h7M29 22h11M0 23h8M10 23h2M27 23h13M0 24h14M26 24h14M0 25h14M25 25h15M0 26h15M24 26h16M0 27h16M23 27h17M0 28h17M23 28h17M0 29h18M23 29h17M0 30h18M24 30h16M0 31h17M25 31h15M0 32h16M26 32h14M0 33h16M27 33h13M0 34h15M28 34h12M0 35h14M29 35h11M0 36h13M30 36h10M0 37h12M31 37h9M0 38h12M32 38h8M0 39h12M32 39h8" />
<path stroke="#000000" d="M16 3h7M14 4h2M23 4h2M13 5h1M25 5h1M12 6h1M26 6h1M11 7h1M14 7h1M27 7h1M10 8h1M13 8h1M16 8h2M20 8h1M28 8h1M10 9h1M13 9h1M15 9h1M19 9h1M29 9h1M9 10h1M14 10h2M18 10h2M29 10h1M9 11h1M16 11h2M30 11h1M9 12h1M13 12h2M19 12h3M30 12h1M9 13h1M30 13h1M9 14h1M30 14h1M10 15h2M14 15h1M20 15h1M29 15h1M9 16h1M11 16h1M23 16h4M29 16h1M9 17h1M12 17h1M15 17h3M22 17h1M27 17h2M8 18h8M17 18h1M21 18h1M24 18h2M28 18h1M7 19h1M16 19h5M26 19h1M29 19h1M6 20h1M9 20h4M25 20h1M27 20h1M29 20h1M6 21h1M8 21h1M13 21h4M24 21h1M29 21h1M7 22h1M10 22h3M14 22h11M27 22h2M8 23h2M12 23h2M15 23h9M26 23h1M14 24h1M16 24h8M25 24h1M15 25h1M17 25h6M24 25h1M15 26h1M17 26h5M23 26h1M16 27h1M18 27h3M22 27h1M17 28h1M21 28h2M18 29h1M22 29h1M18 30h1M23 30h1M17 31h1M19 31h1M22 31h1M24 31h1M16 32h1M19 32h1M21 32h1M25 32h1M16 33h1M18 33h1M20 33h1M22 33h1M24 33h1M26 33h1M15 34h1M17 34h1M23 34h1M27 34h1M14 35h2M28 35h1M13 36h1M29 36h1M12 37h1M18 37h1M22 37h1M26 37h1M30 37h1M12 38h1M15 38h1M17 38h3M21 38h3M25 38h3M31 38h1M12 39h1M15 39h13M31 39h1" />
<path stroke="#f8ce96" d="M16 4h7M14 5h11M13 6h13M12 7h2M15 7h12M11 8h2M14 8h2M18 8h2M21 8h7M11 9h2M14 9h1M16 9h3M20 9h9M10 10h4M16 10h2M20 10h9M10 11h6M18 11h12M10 12h3M15 12h4M22 12h8M10 13h20M10 14h20M12 15h2M15 15h5M21 15h8M12 16h11M27 16h2M13 17h2M18 17h4M18 18h3M19 29h3M19 30h4M20 31h2M20 32h1M13 39h2M28 39h3" />
<path stroke="#ff8a00" d="M10 16h1M10 17h2M23 17h4M16 18h1M22 18h2M26 18h2M8 19h8M21 19h5M27 19h2M7 20h2M13 20h12M26 20h1M28 20h1M7 21h1M9 21h4M17 21h7M25 21h4M8 22h2M13 22h1M25 22h2M14 23h1M24 23h2M15 24h1M24 24h1M16 25h1M23 25h1M16 26h1M22 26h1M17 27h1M21 27h1M18 28h3" />
<path stroke="#7ac8f3" d="M14 25h1" />
<path stroke="#f7e104" d="M18 31h1M23 31h1M18 32h1M23 32h2M17 33h1M21 33h1M21 34h1M20 36h1M23 36h1M16 37h1M19 37h2M23 37h2M27 37h2M16 38h1M20 38h1M24 38h1M28 38h1" />
<path stroke="#f7e204" d="M17 32h1M22 32h1M19 33h1M25 33h1M16 34h1M18 34h3M22 34h1M24 34h3M16 35h12M14 36h6M21 36h2M24 36h5M13 37h3M17 37h1M21 37h1M25 37h1M29 37h1M13 38h2M29 38h2" />
<path stroke="#f7e004" d="M23 33h1" />
</svg>