<svg xmlns="http://www.w3.org/2000/svg" viewBox="0 -0.5 40 40" shape-rendering="crispEdges">
<metadata>Made with Pixels to Svg https://codepen.io/shshaw/pen/XbxvNj</metadata>
<path stroke="#6cf14f" d="M0 0h9M28 0h8M39 0h1M0 1h8M29 1h3M34 1h1M39 1h1M0 2h8M30 2h1M39 2h1M0 3h8M0 4h9M0 5h10M32 5h2M0 6h12M32 6h3M38 6h2M0 7h8M33 7h2M37 7h3M0 8h6M33 8h3M37 8h3M0 9h5M34 9h6M0 10h4M34 10h6M0 11h4M34 11h6M0 12h3M34 12h6M0 13h3M34 13h6M0 14h4M33 14h7M0 15h5M6 15h1M33 15h7M0 16h8M33 16h7M0 17h9M32 17h8M0 18h8M33 18h7M0 19h7M35 19h5M0 20h6M37 20h3M0 21h6M38 21h2M0 22h7M39 22h1M0 23h8M0 24h10M0 25h10M0 26h9M0 27h9M0 28h9M0 29h10M0 30h11M0 31h12M37 31h1M0 32h13M27 32h1M32 32h1M36 32h1M0 33h16M27 33h2M30 33h8M39 33h1M0 34h15M28 34h12M0 35h14M29 35h11M0 36h13M30 36h10M0 37h12M31 37h9M0 38h12M31 38h9M0 39h12M31 39h9" />
<path stroke="#000000" d="M9 0h1M26 0h2M8 1h1M28 1h1M8 2h1M29 2h1M8 3h1M30 3h1M9 4h1M14 4h1M31 4h1M10 5h2M13 5h1M15 5h6M31 5h1M12 6h1M31 6h1M8 7h4M14 7h9M32 7h1M6 8h2M13 8h1M23 8h2M32 8h1M5 9h1M12 9h1M25 9h1M33 9h1M4 10h1M21 10h1M25 10h2M33 10h1M4 11h1M9 11h1M11 11h1M13 11h2M18 11h3M22 11h1M27 11h1M33 11h1M3 12h1M10 12h1M12 12h1M15 12h1M17 12h1M21 12h1M27 12h1M33 12h1M3 13h1M6 13h1M11 13h1M14 13h2M17 13h1M19 13h3M28 13h1M33 13h1M4 14h1M6 14h1M11 14h1M14 14h3M19 14h3M29 14h1M32 14h1M5 15h1M7 15h1M10 15h2M14 15h2M19 15h3M29 15h1M32 15h1M8 16h2M11 16h1M16 16h1M21 16h1M23 16h4M30 16h1M32 16h1M9 17h1M12 17h1M15 17h3M21 17h2M27 17h1M31 17h1M8 18h8M17 18h1M20 18h2M24 18h2M28 18h1M32 18h1M7 19h1M16 19h5M26 19h1M29 19h1M33 19h2M6 20h1M9 20h4M25 20h1M27 20h1M29 20h1M35 20h2M6 21h1M8 21h1M13 21h4M24 21h1M29 21h1M37 21h1M7 22h1M10 22h3M14 22h1M17 22h8M27 22h2M38 22h1M8 23h3M12 23h2M15 23h1M23 23h1M26 23h1M30 23h1M39 23h1M10 24h1M14 24h1M16 24h1M23 24h1M25 24h1M31 24h1M35 24h1M10 25h1M15 25h1M17 25h1M22 25h1M24 25h1M31 25h1M36 25h1M9 26h1M15 26h1M17 26h1M21 26h1M23 26h1M31 26h1M37 26h1M9 27h1M16 27h1M18 27h3M22 27h1M31 27h1M38 27h1M9 28h1M17 28h1M21 28h2M30 28h1M38 28h1M10 29h1M19 29h1M22 29h1M30 29h1M37 29h1M11 30h1M18 30h1M22 30h2M29 30h1M37 30h1M12 31h1M17 31h1M23 31h2M27 31h2M32 31h1M36 31h1M13 32h4M18 32h1M23 32h1M25 32h2M28 32h1M30 32h2M33 32h3M37 32h1M39 32h1M16 33h1M19 33h1M22 33h1M24 33h1M26 33h1M29 33h1M38 33h1M15 34h1M19 34h1M22 34h1M24 34h1M27 34h1M14 35h1M16 35h1M20 35h2M25 35h1M28 35h1M13 36h1M16 36h1M25 36h1M29 36h1M12 37h1M15 37h1M26 37h1M30 37h1M12 38h1M15 38h1M26 38h1M30 38h1M12 39h1M15 39h1M26 39h1M30 39h1" />
<path stroke="#ffffff" d="M10 0h16M9 1h19M9 2h20M9 3h21M10 4h4M15 4h16M12 5h1M14 5h1M21 5h10M13 6h18M23 7h9M25 8h7M26 9h7M27 10h6M28 11h5M13 12h2M18 12h3M28 12h5M12 13h2M18 13h1M29 13h4M12 14h2M17 14h2M30 14h2M12 15h2M16 15h3M30 15h2M12 16h4M17 16h4M31 16h1M13 17h2M18 17h3M18 18h2M17 32h1M24 32h1M17 33h2M23 33h1M16 34h3M23 34h1M17 35h3M22 35h3M17 36h8M16 37h10M16 38h10M16 39h10" />
<path stroke="#ffa900" d="M36 0h3M32 1h2M36 1h1M38 1h1M31 2h1M33 2h2M37 2h2M31 3h3M35 3h1M38 3h2M32 4h5M38 4h1M34 5h4M39 5h1M35 6h3M35 7h1M36 8h1" />
<path stroke="#0935d9" d="M35 1h1M35 2h2M36 3h2M37 4h1M38 5h1" />
<path stroke="#fff800" d="M37 1h1M32 2h1M34 3h1M39 4h1M12 7h2M36 7h1M8 8h5M14 8h9M6 9h6M13 9h11M5 10h16M24 10h1M5 11h4M10 11h1M24 11h3M4 12h6M23 12h4M4 13h2M7 13h4M23 13h5M5 14h1M7 14h4M24 14h5M8 15h2M25 15h4M27 16h3M28 17h3M29 18h3M30 19h3M30 20h5M30 21h7M29 22h9M11 23h1M27 23h3M31 23h8M11 24h3M26 24h5M32 24h3M36 24h4M11 25h4M25 25h6M32 25h4M37 25h3M10 26h5M24 26h7M32 26h5M38 26h2M10 27h6M23 27h8M32 27h6M39 27h1M10 28h7M23 28h7M31 28h7M39 28h1M11 29h8M23 29h7M31 29h6M38 29h2M12 30h6M24 30h5M30 30h7M38 30h2M13 31h4M25 31h2M29 31h3M33 31h3M38 31h2M29 32h1M38 32h1" />
<path stroke="#108eec" d="M24 9h1" />
<path stroke="#108cec" d="M22 10h2M22 14h2" />
<path stroke="#1085ec" d="M12 11h1M15 11h3M21 11h1M11 12h1M16 12h1M22 12h1M16 13h1M22 13h1M22 15h2M22 16h1" />
<path stroke="#108aec" d="M23 11h1M18 31h2M21 31h2M19 32h1M21 32h2M15 35h1M15 36h1M26 36h2M27 37h2M27 38h3M27 39h3" />
<path stroke="#1087ec" d="M24 15h1M20 29h2M19 30h3M20 31h1M20 32h1M20 33h2M25 33h1M20 34h2M25 34h2M26 35h2M14 36h1M28 36h1M13 37h2M29 37h1M13 38h2M13 39h2" />
<path stroke="#ff8a00" d="M10 16h1M10 17h2M23 17h4M16 18h1M22 18h2M26 18h2M8 19h8M21 19h5M27 19h2M7 20h2M13 20h12M26 20h1M28 20h1M7 21h1M9 21h4M17 21h7M25 21h4M8 22h2M13 22h1M25 22h2M14 23h1M24 23h2M15 24h1M24 24h1M16 25h1M23 25h1M16 26h1M22 26h1M17 27h1M21 27h1M18 28h3" />
<path stroke="#ff0000" d="M15 22h2M16 23h3M22 23h1M17 24h1M21 24h2M20 25h2M18 26h3" />
<path stroke="#fc809a" d="M19 23h3M18 24h3M18 25h2" />
</svg>