<svg xmlns="http://www.w3.org/2000/svg" viewBox="0 -0.5 40 40" shape-rendering="crispEdges">
<metadata>Made with Pixels to Svg https://codepen.io/shshaw/pen/XbxvNj</metadata>
<path stroke="#99005b" d="M0 0h11M27 0h3M31 0h9M1 1h9M29 1h11M2 2h7M30 2h1M30 3h10M0 4h8M31 4h4M38 4h2M0 5h3M31 5h9M0 6h7M31 7h6M34 8h6M0 9h6M32 9h8M0 10h5M32 10h8M2 11h8M32 11h8M34 12h6M5 13h6M28 13h4M0 14h11M29 14h11M0 16h4M34 16h6M34 17h3" />
<path stroke="#17712e" d="M11 0h1M26 0h1M10 1h1M28 1h1M9 2h1M29 2h1M8 3h1M8 4h1M30 4h1M7 5h1M7 6h1M6 7h1M6 8h1M31 8h1M26 11h3M27 12h5M16 34h1M25 34h1M17 35h1M25 35h1M18 36h1M24 36h2M18 37h2M24 37h1M19 38h2M23 38h1M20 39h1M22 39h1" />
<path stroke="#22933f" d="M12 0h14M11 1h2M16 1h12M10 2h2M13 2h1M15 2h1M17 2h12M9 3h2M12 3h2M15 3h2M18 3h12M9 4h1M11 4h3M15 4h3M19 4h11M8 5h2M11 5h2M16 5h2M19 5h12M8 6h2M11 6h1M13 6h1M15 6h1M17 6h1M19 6h12M7 7h4M12 7h2M15 7h2M18 7h13M7 8h5M13 8h1M15 8h1M17 8h14M27 9h5M5 10h19M29 10h3M31 11h1M17 32h2M24 32h1M17 33h2M23 33h3M17 34h2M22 34h3M26 34h1M16 35h1M18 35h2M23 35h2M26 35h4M14 36h4M19 36h1M23 36h1M26 36h5M13 37h5M20 37h1M23 37h1M25 37h7M13 38h3M17 38h2M21 38h2M24 38h4M29 38h4M13 39h2M17 39h3M21 39h1M23 39h5M30 39h3" />
<path stroke="#990004" d="M30 0h1M0 1h1M31 2h9M3 3h5M35 4h3M3 5h4M0 7h6M37 7h3M32 8h2M1 12h9M0 13h1M32 13h8M0 15h10M29 15h11M29 16h3M0 18h8M32 18h4M30 19h10M30 20h10M1 21h3M30 21h3M37 21h3M0 22h4M29 22h2M0 23h2M0 24h1M30 25h5M24 26h1" />
<path stroke="#ffffff" d="M13 1h3M12 2h1M14 2h1M16 2h1M11 3h1M14 3h1M17 3h1M10 4h1M14 4h1M18 4h1M10 5h1M13 5h3M18 5h1M10 6h1M12 6h1M14 6h1M16 6h1M18 6h1M11 7h1M14 7h1M17 7h1M12 8h1M14 8h1M16 8h1M13 9h3M11 11h2M15 11h3M21 11h5M11 12h1M16 12h1M22 12h3M16 13h1M22 13h2M25 13h2M14 14h1M16 14h1M19 14h1M22 14h1M24 14h4M16 15h1M22 15h6M16 16h1M22 16h1M27 16h1M20 29h2M19 30h3M19 31h4M20 32h3M19 33h1M21 33h1M19 34h2M20 35h1M20 36h1" />
<path stroke="#b40d12" d="M0 2h2M0 3h3M31 6h9M0 8h6M0 11h2M0 12h1M32 12h2M1 13h4M4 16h5M32 16h2M0 17h9M29 17h5M37 17h3M29 18h3M36 18h4M0 19h7M0 20h6M0 21h1M4 21h2M33 21h4M4 22h3M31 22h9M2 23h6M10 23h2M27 23h13M1 24h13M26 24h14M9 25h6M25 25h5M35 25h5M14 26h1M33 26h1M13 27h3M23 27h3M13 28h4M26 28h2M29 28h1M15 29h4" />
<path stroke="#1d8036" d="M6 9h7M16 9h11M24 10h5M29 11h2" />
<path stroke="#000000" d="M10 11h1M13 11h2M18 11h3M10 12h1M12 12h1M15 12h1M17 12h1M21 12h1M26 12h1M11 13h1M15 13h1M17 13h1M21 13h1M27 13h1M11 14h1M15 14h1M17 14h1M20 14h2M28 14h1M10 15h2M14 15h2M17 15h1M19 15h3M28 15h1M9 16h1M11 16h1M14 16h2M17 16h1M19 16h3M23 16h4M28 16h1M9 17h1M12 17h1M14 17h4M19 17h4M27 17h2M8 18h8M17 18h1M20 18h2M24 18h2M28 18h1M7 19h1M16 19h5M26 19h1M29 19h1M6 20h1M9 20h4M25 20h1M27 20h1M29 20h1M6 21h1M8 21h1M13 21h4M24 21h1M29 21h1M7 22h1M10 22h3M14 22h1M17 22h8M27 22h2M8 23h2M12 23h2M15 23h1M23 23h1M26 23h1M14 24h1M16 24h1M23 24h1M25 24h1M15 25h1M17 25h1M22 25h1M24 25h1M4 26h1M6 26h1M15 26h1M17 26h1M21 26h1M23 26h1M34 26h1M4 27h1M6 27h2M16 27h1M18 27h3M22 27h1M33 27h3M5 28h1M7 28h1M17 28h1M21 28h2M33 28h2M36 28h1M5 29h2M8 29h1M19 29h1M22 29h1M34 29h3M4 30h1M6 30h3M18 30h1M22 30h2M32 30h2M35 30h3M4 31h5M11 31h2M17 31h2M23 31h2M31 31h1M33 31h2M36 31h2M3 32h1M5 32h1M7 32h2M11 32h2M16 32h1M25 32h1M31 32h8M0 33h2M4 33h1M6 33h3M10 33h3M16 33h1M26 33h1M37 33h2M3 34h7M15 34h1M27 34h3M37 34h2M14 35h2M30 35h2M4 36h1M8 36h1M13 36h1M31 36h2M12 37h1M32 37h1M12 38h1M16 38h1M28 38h1M33 38h1M12 39h1M15 39h2M28 39h2M33 39h1" />
<path stroke="#a6dcee" d="M13 12h2M18 12h3M12 13h3M18 13h3M12 14h2M18 14h1M12 15h2M18 15h1M12 16h2M18 16h1M13 17h1M18 17h1M18 18h2" />
<path stroke="#d40a0a" d="M25 12h1M24 13h1M23 14h1" />
<path stroke="#ff8a00" d="M10 16h1M10 17h2M23 17h4M16 18h1M22 18h2M26 18h2M8 19h8M21 19h5M27 19h2M7 20h2M13 20h12M26 20h1M28 20h1M7 21h1M9 21h4M17 21h7M25 21h4M8 22h2M13 22h1M25 22h2M14 23h1M24 23h2M15 24h1M24 24h1M16 25h1M23 25h1M16 26h1M22 26h1M17 27h1M21 27h1M18 28h3" />
<path stroke="#ff0000" d="M15 22h2M16 23h3M22 23h1M17 24h1M21 24h2M20 25h2M18 26h3" />
<path stroke="#fc809a" d="M19 23h3M18 24h3M18 25h2" />
<path stroke="#f66600" d="M0 25h9M0 26h4M5 26h1M7 26h7M25 26h8M35 26h5M8 27h3M26 27h7M36 27h4M23 28h3M31 28h1M37 28h2" />
<path stroke="#ad8c52" d="M0 27h1M0 28h3M0 29h3M28 29h4M0 30h1M2 30h1M26 30h6M1 31h2M14 31h1M25 31h3M29 31h2M0 32h1M2 32h1M9 32h1M13 32h3M26 32h5M39 32h1M2 33h2M5 33h1M13 33h3M28 33h2M0 34h1M14 34h1M30 34h1M33 34h2M36 34h1M39 34h1M1 35h1M9 35h5M32 35h1M35 35h5M3 36h1M7 36h1M9 36h1M12 36h1M33 36h4M39 36h1M1 37h1M4 37h1M6 37h6M33 37h1M36 37h4M0 38h1M5 38h7M34 38h3M38 38h2M0 39h12M34 39h6" />
<path stroke="#f69a00" d="M1 27h3M5 27h1M11 27h2M3 28h2M6 28h1M8 28h5M28 28h1M30 28h1M32 28h1M39 28h1M3 29h2M7 29h1M9 29h6M23 29h5M32 29h2M37 29h3M1 30h1M3 30h1M10 30h8M24 30h2M38 30h2M3 31h1M10 31h1M13 31h1M15 31h2M28 31h1M38 31h2" />
<path stroke="#fff900" d="M35 28h1M5 30h1M9 30h1M34 30h1M0 31h1M9 31h1M32 31h1M35 31h1M1 32h1M4 32h1M6 32h1M10 32h1M9 33h1" />
<path stroke="#c4c4c4" d="M19 32h1M23 32h1M20 33h1M22 33h1M21 34h1M22 35h1M21 36h2M22 37h1" />
<path stroke="#795d2d" d="M27 33h1M30 33h7M39 33h1M1 34h2M10 34h4M31 34h2M35 34h1M0 35h1M2 35h7M33 35h2M0 36h3M5 36h2M10 36h2M37 36h2M0 37h1M2 37h2M5 37h1M34 37h2M1 38h4M37 38h1" />
<path stroke="#aeaeae" d="M21 35h1M21 37h1" />
</svg>