<svg xmlns="http://www.w3.org/2000/svg" viewBox="0 -0.5 40 40" shape-rendering="crispEdges">
<metadata>Made with Pixels to Svg https://codepen.io/shshaw/pen/XbxvNj</metadata>
<path stroke="#ffba03" d="M0 0h5M37 0h3M0 1h3M38 1h2M0 2h2M39 2h1M0 3h1M39 3h1M0 35h1M0 36h1M0 37h2M39 37h1M0 38h3M38 38h2M0 39h4M38 39h2" />
<path stroke="#ffd603" d="M5 0h8M32 0h5M3 1h6M33 1h5M2 2h5M35 2h4M1 3h5M36 3h3M0 4h5M36 4h4M0 5h3M37 5h3M0 6h3M38 6h2M0 7h2M38 7h2M0 8h1M39 8h1M39 9h1M39 10h1M39 28h1M39 29h1M0 30h1M39 30h1M0 31h1M39 31h1M0 32h1M39 32h1M0 33h2M38 33h2M0 34h2M38 34h2M1 35h2M38 35h2M1 36h3M37 36h3M2 37h3M37 37h2M3 38h2M37 38h1M4 39h2M36 39h2" />
<path stroke="#ffe803" d="M13 0h19M9 1h24M7 2h8M24 2h11M6 3h8M25 3h11M5 4h8M25 4h11M3 5h9M25 5h12M3 6h9M34 6h4M2 7h8M35 7h3M1 8h8M34 8h5M0 9h8M25 9h14M0 10h6M26 10h13M0 11h5M27 11h13M0 12h4M9 12h1M28 12h12M0 13h4M7 13h4M28 13h12M0 14h4M6 14h5M29 14h11M0 15h10M29 15h11M1 16h8M29 16h11M2 17h7M29 17h11M2 18h6M29 18h11M2 19h5M30 19h10M2 20h4M30 20h10M2 21h4M30 21h10M2 22h5M29 22h11M2 23h6M10 23h2M27 23h13M2 24h12M26 24h14M2 25h13M25 25h15M0 26h15M24 26h16M0 27h15M23 27h2M26 27h14M0 28h14M23 28h1M27 28h12M0 29h9M34 29h5M1 30h4M1 31h4M1 32h4M2 33h3M2 34h4M3 35h3M4 36h3M5 37h2M5 38h3M6 39h3" />
<path stroke="#000000" d="M15 2h9M14 3h1M24 3h1M13 4h1M24 4h1M12 5h2M24 5h1M12 6h22M10 7h3M16 7h9M34 7h1M9 8h2M15 8h19M8 9h1M13 9h1M18 9h4M24 9h1M6 10h2M11 10h2M17 10h1M22 10h1M25 10h1M5 11h2M9 11h2M13 11h2M18 11h3M26 11h1M4 12h1M7 12h2M10 12h1M12 12h1M15 12h1M17 12h1M21 12h1M26 12h2M4 13h1M6 13h1M11 13h1M15 13h1M17 13h1M21 13h1M27 13h1M4 14h2M11 14h1M15 14h1M17 14h1M20 14h2M28 14h1M10 15h2M14 15h2M17 15h1M19 15h3M28 15h1M9 16h1M11 16h1M14 16h2M17 16h1M19 16h3M23 16h4M28 16h1M9 17h1M12 17h1M14 17h4M19 17h4M27 17h2M8 18h8M17 18h1M20 18h2M24 18h2M28 18h1M7 19h1M16 19h5M26 19h1M29 19h1M6 20h1M9 20h4M25 20h1M27 20h1M29 20h1M6 21h1M8 21h1M13 21h4M24 21h1M29 21h1M7 22h1M10 22h3M14 22h1M17 22h8M27 22h2M8 23h2M12 23h2M15 23h1M23 23h1M26 23h1M14 24h1M16 24h1M23 24h1M25 24h1M15 25h1M17 25h1M22 25h1M24 25h1M15 26h1M17 26h1M21 26h1M23 26h1M15 27h2M18 27h3M22 27h1M25 27h1M14 28h1M16 28h2M21 28h2M24 28h1M26 28h1M9 29h6M17 29h7M26 29h8M5 30h5M14 30h1M18 30h1M22 30h1M26 30h1M33 30h6M5 31h1M10 31h1M14 31h1M18 31h1M22 31h1M26 31h1M32 31h1M38 31h1M5 32h1M11 32h1M14 32h1M17 32h1M19 32h3M23 32h1M26 32h1M31 32h1M38 32h1M5 33h2M9 33h2M12 33h1M14 33h1M16 33h1M24 33h1M26 33h1M30 33h1M32 33h2M37 33h1M6 34h1M9 34h1M11 34h1M13 34h1M15 34h1M25 34h1M29 34h1M31 34h1M33 34h1M37 34h1M6 35h2M9 35h1M12 35h2M29 35h2M33 35h1M37 35h1M7 36h1M10 36h1M32 36h1M36 36h1M7 37h2M11 37h1M31 37h1M36 37h1M8 38h2M12 38h1M30 38h1M36 38h1M9 39h1M13 39h1M29 39h1M35 39h1" />
<path stroke="#440787" d="M15 3h1M23 3h1M14 4h1M23 4h1M14 8h1M12 9h1M10 10h1M8 11h1M6 12h1M5 13h1M9 31h1M33 31h1M10 32h1M32 32h1M8 33h1M11 33h1M31 33h1M8 34h1M12 34h1M16 34h1M30 34h1M8 35h1M9 36h1M10 37h1M11 38h1M12 39h1" />
<path stroke="#5e03ad" d="M16 3h1M21 3h2M15 4h1M21 4h2M12 8h1M11 9h1M8 10h2M7 11h1" />
<path stroke="#5b03ad" d="M17 3h4M16 4h5M13 7h3M13 8h1M5 12h1M10 30h4M27 30h6M6 31h3M11 31h3M28 31h4M34 31h4M6 32h4M12 32h2M28 32h3M33 32h5M7 33h1M13 33h1M28 33h1M35 33h2M7 34h1M10 34h1M28 34h1M35 34h2M10 35h2M35 35h2M8 36h1M11 36h4M28 36h1M34 36h2M9 37h1M12 37h3M28 37h1M34 37h2M10 38h1M13 38h2M27 38h2M33 38h3M10 39h2M14 39h2M26 39h3M33 39h2" />
<path stroke="#d93aab" d="M14 5h4M21 5h3" />
<path stroke="#ff4cc9" d="M18 5h3M16 29h1M16 30h1M16 31h1" />
<path stroke="#6303ad" d="M25 7h9" />
<path stroke="#6103ad" d="M11 8h1M9 9h2" />
<path stroke="#e3e1e1" d="M14 9h4M22 9h2M11 11h1" />
<path stroke="#ffffff" d="M13 10h4M18 10h4M23 10h2M12 11h1M15 11h3M21 11h5M11 12h1M16 12h1M22 12h4M16 13h1M22 13h5M14 14h1M16 14h1M19 14h1M22 14h6M16 15h1M22 15h6M16 16h1M22 16h1M27 16h1" />
<path stroke="#c3d9f9" d="M13 12h2M18 12h3M12 13h3M18 13h3M12 14h2M18 14h1M12 15h2M18 15h1M12 16h2M18 16h1M13 17h1M18 17h1M18 18h2" />
<path stroke="#ffe703" d="M0 16h1M0 17h2M0 18h2M0 19h2M0 20h2M0 21h2M0 22h2M0 23h2M0 24h2M0 25h2" />
<path stroke="#ff8a00" d="M10 16h1M10 17h2M23 17h4M16 18h1M22 18h2M26 18h2M8 19h8M21 19h5M27 19h2M7 20h2M13 20h12M26 20h1M28 20h1M7 21h1M9 21h4M17 21h7M25 21h4M8 22h2M13 22h1M25 22h2M14 23h1M24 23h2M15 24h1M24 24h1M16 25h1M23 25h1M16 26h1M22 26h1M17 27h1M21 27h1M18 28h3" />
<path stroke="#ff0000" d="M15 22h2M16 23h3M22 23h1M17 24h1M21 24h2M20 25h2M18 26h3" />
<path stroke="#fc809a" d="M19 23h3M18 24h3M18 25h2" />
<path stroke="#ff4ccc" d="M15 28h1M15 29h1M15 30h1M15 31h1M15 32h1" />
<path stroke="#ff4cc5" d="M25 28h1M24 29h2M20 30h2M24 30h2M21 31h1M24 31h2M24 32h2M25 33h1" />
<path stroke="#d93aa8" d="M17 30h1M19 30h1M23 30h1M17 31h1M19 31h2M23 31h1M16 32h1M15 33h1" />
<path stroke="#5703ad" d="M27 31h1M27 32h1M27 33h1M34 33h1M14 34h1M20 34h1M26 34h2M34 34h1M14 35h2M25 35h3M34 35h1M15 36h3M24 36h4M15 37h3M20 37h1M24 37h4M33 37h1M15 38h4M23 38h4M32 38h1M16 39h3M22 39h4M31 39h2" />
<path stroke="#08d418" d="M18 32h1M22 32h1M17 33h1M23 33h1M17 34h1M24 34h1M17 35h1M24 35h1M18 36h1M18 37h1M19 38h1M19 39h1" />
<path stroke="#01fb15" d="M18 33h1M20 33h3M18 34h1M18 35h1" />
<path stroke="#01fb17" d="M19 33h1M19 34h1M21 34h3M19 35h5M19 36h5M19 37h1M21 37h2M20 38h2M20 39h2" />
<path stroke="#5503ad" d="M29 33h1M32 34h1M16 35h1M28 35h1M31 35h2M29 36h3M29 37h2M29 38h1" />
<path stroke="#460787" d="M33 36h1M32 37h1M31 38h1M30 39h1" />
<path stroke="#08d416" d="M23 37h1M22 38h1" />
</svg>