<svg xmlns="http://www.w3.org/2000/svg" viewBox="0 -0.5 40 40" shape-rendering="crispEdges">
<metadata>Made with Pixels to Svg https://codepen.io/shshaw/pen/XbxvNj</metadata>
<path stroke="#ffffe4" d="M0 0h3M36 0h4M0 1h1M37 1h3M37 2h3M38 3h2M38 4h2M39 5h1M39 6h1M39 7h1M0 33h1M0 34h1M39 34h1M0 35h2M39 35h1M0 36h3M38 36h2M0 37h3M38 37h2M0 38h4M38 38h2M0 39h5M39 39h1" />
<path stroke="#ffffe5" d="M3 0h2M35 0h1M1 1h2M36 1h1M0 2h1M36 2h1M37 3h1M37 4h1M38 5h1M38 6h1M39 8h1M0 32h1M39 33h1M1 34h1M38 34h1M38 35h1M37 36h1M3 37h1M37 37h1M4 38h1M5 39h1" />
<path stroke="#ffffe7" d="M5 0h1M0 30h1M38 33h1M4 37h1M5 38h1M6 39h1" />
<path stroke="#ffffea" d="M6 0h1M0 4h1M39 11h1M39 30h1M38 32h1" />
<path stroke="#fffff0" d="M7 0h1M0 6h1M0 23h1M0 24h1" />
<path stroke="#fffff7" d="M8 0h1M1 5h1" />
<path stroke="#ffffff" d="M9 0h5M16 0h2M21 0h2M25 0h7M9 1h4M26 1h6M5 2h1M7 2h6M26 2h7M8 3h5M27 3h6M8 4h4M28 4h6M7 5h4M29 5h5M2 6h1M6 6h5M29 6h6M2 7h10M15 7h9M28 7h7M1 8h10M12 8h1M23 8h4M28 8h8M0 9h11M13 9h1M25 9h3M29 9h7M0 10h2M4 10h6M11 10h1M27 10h2M30 10h7M0 11h1M3 11h1M5 11h5M27 11h2M30 11h7M6 12h4M28 12h1M30 12h8M6 13h4M28 13h2M31 13h7M0 14h1M5 14h5M28 14h2M31 14h8M0 15h2M4 15h6M12 15h1M18 15h1M29 15h1M31 15h9M0 16h9M12 16h1M18 16h1M29 16h2M32 16h8M2 17h7M12 17h3M18 17h3M29 17h2M32 17h4M38 17h2M1 18h1M3 18h5M18 18h3M29 18h2M32 18h1M35 18h1M37 18h1M39 18h1M4 19h3M30 19h1M33 19h2M36 19h2M4 20h2M30 20h1M33 20h2M36 20h2M39 20h1M3 21h3M30 21h1M32 21h1M38 21h2M2 22h5M29 22h1M31 22h2M38 22h1M2 23h6M28 23h1M30 23h3M2 24h3M7 24h4M12 24h1M28 24h1M30 24h3M38 24h2M2 25h2M5 25h2M8 25h4M13 25h1M26 25h2M29 25h4M39 25h1M2 26h2M5 26h2M8 26h5M14 26h1M26 26h2M29 26h3M37 26h1M6 27h2M9 27h5M26 27h1M28 27h4M37 27h2M2 28h2M9 28h5M15 28h1M26 28h1M28 28h4M37 28h1M2 29h2M10 29h4M15 29h1M27 29h1M37 29h1M11 30h3M15 30h1M28 30h3M2 31h2M13 31h1M35 31h1M2 32h2M35 32h1M5 33h2M34 33h1M3 34h3M8 34h1M3 35h2M6 35h4M7 36h5M8 37h6M9 38h6M16 38h1M9 39h7M37 39h1" />
<path stroke="#000000" d="M14 0h2M18 0h3M23 0h2M13 1h1M16 1h2M21 1h2M25 1h1M13 2h1M25 2h1M13 3h1M26 3h1M12 4h16M11 5h1M28 5h1M11 6h1M28 6h1M27 7h1M13 8h3M19 8h3M12 9h1M22 9h1M12 10h3M18 10h3M11 11h1M15 11h1M17 11h1M21 11h1M11 12h1M16 12h1M22 12h1M11 13h1M16 13h1M22 13h1M11 14h1M16 14h1M22 14h1M10 15h2M13 15h3M17 15h1M19 15h3M9 16h1M11 16h1M13 16h3M17 16h1M19 16h3M23 16h4M9 17h1M11 17h1M15 17h3M21 17h2M27 17h2M8 18h8M17 18h1M21 18h1M24 18h2M28 18h1M7 19h1M16 19h5M26 19h1M29 19h1M6 20h1M9 20h4M25 20h1M27 20h1M29 20h1M6 21h1M8 21h1M13 21h4M24 21h1M29 21h1M7 22h1M10 22h3M14 22h1M17 22h8M27 22h2M8 23h2M12 23h2M15 23h1M23 23h1M26 23h1M14 24h1M16 24h1M23 24h1M25 24h1M15 25h1M17 25h1M22 25h1M24 25h1M15 26h1M17 26h1M21 26h1M23 26h1M16 27h1M18 27h3M22 27h1M17 28h1M21 28h1M18 29h3M17 31h2M25 31h2M16 32h1M19 32h1M24 32h1M27 32h1M16 33h1M20 33h4M27 33h1M17 34h1M20 34h1M23 34h1M26 34h1M16 35h1M20 35h1M23 35h1M27 35h1M16 36h1M19 36h1M21 36h2M24 36h1M27 36h1M17 37h2M25 37h2" />
<path stroke="#fffffd" d="M32 0h1M33 3h1M34 5h1M1 7h1M35 7h1M36 9h1M37 11h1M37 30h1" />
<path stroke="#fffff2" d="M33 0h1M6 1h1M39 13h1M39 28h1M37 32h1M6 37h1" />
<path stroke="#ffffe9" d="M34 0h1M0 28h1" />
<path stroke="#0830df" d="M3 1h1M3 2h2M6 2h1M6 3h2M6 4h2M6 5h1M2 10h2M2 11h1M5 12h1M5 13h1M0 17h2M0 18h1M2 18h1M0 19h4M1 20h3M2 21h1" />
<path stroke="#082edf" d="M4 1h2M3 3h3M4 4h2M4 11h1M2 12h2M3 13h1" />
<path stroke="#fffff9" d="M7 1h1M33 2h1M34 4h1M35 6h1M36 8h1M37 10h1M35 34h1" />
<path stroke="#fffffe" d="M8 1h1M32 1h1" />
<path stroke="#fffb00" d="M14 1h2M18 1h3M23 1h2M14 2h11M12 5h16M12 6h3M24 6h4" />
<path stroke="#fffff4" d="M33 1h1M34 3h1M35 5h1M36 7h1M37 9h1M1 27h1M36 33h1M35 35h1" />
<path stroke="#ffffeb" d="M34 1h1M35 3h1M36 5h1M37 7h1M38 9h1M0 27h1M36 35h1M5 37h1M6 38h1" />
<path stroke="#ffffe6" d="M35 1h1M1 2h1M0 3h1M36 3h1M37 5h1M38 7h1M39 9h1M0 31h1M39 32h1M1 33h1M37 35h1" />
<path stroke="#0827a8" d="M2 2h1M1 3h1M1 4h1" />
<path stroke="#ffffef" d="M34 2h1M35 4h1M36 6h1M37 8h1M38 10h1M0 25h1M38 31h1M36 34h1" />
<path stroke="#ffffe8" d="M35 2h1M36 4h1M37 6h1M38 8h1M39 10h1M0 29h1M39 31h1M37 34h1M36 36h1" />
<path stroke="#0826a8" d="M2 3h1M2 4h2M2 5h4M3 6h3M1 11h1M0 12h2M0 13h3M1 14h4M2 15h2M0 20h1M0 21h2M0 22h2" />
<path stroke="#f20000" d="M14 3h12M17 32h2M25 32h2M17 33h3M24 33h3M18 34h2M21 34h2M24 34h2M17 35h3M21 35h2M24 35h3M17 36h2M25 36h2" />
<path stroke="#ffffed" d="M0 5h1M0 26h1" />
<path stroke="#fffffb" d="M1 6h1M1 25h1M8 38h1" />
<path stroke="#2044ff" d="M15 6h1M22 6h2M12 11h3M18 11h3M12 12h4M17 12h5M12 13h4M17 13h5M12 14h4M17 14h5M36 18h1M38 20h1M39 22h1M36 25h3M36 26h1" />
<path stroke="#2042ff" d="M16 6h6M12 7h1M14 7h1M24 7h3M11 8h1M27 8h1M38 18h1M38 19h1M37 21h1M10 23h1M33 23h1M11 24h1M33 24h1M12 25h1M33 25h1M13 26h1M38 26h1M14 27h1M36 27h1M14 28h1M36 28h1M14 29h1M36 29h1M36 30h1M36 31h1M36 32h1M35 33h1M34 34h1M34 35h1M4 36h1M35 36h1M36 37h1M37 38h1M38 39h1" />
<path stroke="#fffff3" d="M0 7h1M38 11h1M38 30h1M7 38h1" />
<path stroke="#203fff" d="M13 7h1M11 9h1M10 10h1M10 11h1M36 17h2M33 18h1M31 19h2M39 19h1M32 20h1M35 20h1M31 21h1M33 21h1M35 21h1M38 23h2M5 24h1M4 25h1M28 26h1M39 26h1M2 27h2M9 29h1M10 30h1M14 30h1M1 31h1M11 31h1M14 31h1M1 32h1M4 32h1M12 32h2M2 33h1M4 33h1M2 34h1M7 34h1M9 34h2M2 35h1M5 35h1M10 35h2M3 36h1M12 36h2M14 37h1M15 38h1M16 39h2" />
<path stroke="#fffff8" d="M0 8h1M38 12h1M39 14h1M1 26h1M39 27h1M38 29h1M37 31h1" />
<path stroke="#f1f3ff" d="M16 8h1M6 28h1M35 29h1M30 31h1M34 31h1M33 33h1" />
<path stroke="#eff2fe" d="M17 8h2M27 14h1M34 23h1M8 29h1M32 34h1M13 35h1" />
<path stroke="#fefeff" d="M22 8h1M14 9h1M24 9h1M26 10h1M27 12h1M28 15h1M34 21h1M27 24h1M37 24h1M4 29h1M16 29h1M32 29h1M31 30h1M35 30h1M4 31h1M12 31h1M15 31h1M29 31h1M5 32h1M14 32h1M34 32h1M33 34h1M14 36h1M15 37h1M17 38h1M18 39h1" />
<path stroke="#e5e9fe" d="M15 9h1M5 29h1M32 30h1M34 30h1" />
<path stroke="#94a7f9" d="M16 9h1M17 30h1M8 31h1M30 32h1M14 34h1M15 35h1" />
<path stroke="#879bf7" d="M17 9h1M26 14h1" />
<path stroke="#869af6" d="M18 9h3" />
<path stroke="#92a4f8" d="M21 9h1M26 13h1" />
<path stroke="#f0f2fe" d="M23 9h1M25 10h1M26 11h1M28 16h1M36 21h1M33 26h1M33 27h1M7 28h1M9 30h1M34 36h1M35 37h1M36 39h1" />
<path stroke="#203dff" d="M28 9h1M29 10h1M29 11h1M10 12h1M29 12h1M10 13h1M30 13h1M10 14h1M30 14h1M30 15h1M31 16h1M31 17h1M31 18h1M34 18h1M35 19h1M31 20h1M30 22h1M33 22h1M29 23h1M6 24h1M29 24h1M7 25h1M28 25h1M4 26h1M7 26h1M32 26h1M4 27h2M8 27h1M27 27h1M32 27h1M1 28h1M4 28h2M8 28h1M27 28h1M32 28h1M1 29h1M28 29h4M1 30h3M3 33h1M7 33h2M6 34h1" />
<path stroke="#92a5f8" d="M15 10h1" />
<path stroke="#7990f6" d="M16 10h1M21 10h1M23 11h1M25 13h1M18 30h1M30 35h1M31 36h1M32 37h1M22 38h1" />
<path stroke="#788ff6" d="M17 10h1M16 11h1M22 11h1M23 12h2M23 13h2M23 14h3M16 15h1M22 15h4M16 16h1M22 16h1M22 28h1M21 29h3M19 30h5M19 31h5M20 32h4M27 34h1M28 35h2M20 36h1M23 36h1M28 36h3M21 37h4M27 37h5M23 38h10M23 39h10" />
<path stroke="#8499f7" d="M22 10h1M28 33h1" />
<path stroke="#92a4f9" d="M23 10h1M32 36h1" />
<path stroke="#e0e6fe" d="M24 10h1M25 29h1M10 31h1M33 36h1M35 38h1" />
<path stroke="#8498f7" d="M24 11h1" />
<path stroke="#95a6f9" d="M25 11h1" />
<path stroke="#0831df" d="M4 12h1M4 13h1" />
<path stroke="#8599f6" d="M25 12h1" />
<path stroke="#e2e6fd" d="M26 12h1" />
<path stroke="#ffffee" d="M39 12h1M39 29h1" />
<path stroke="#f2f3ff" d="M27 13h1" />
<path stroke="#fffffc" d="M38 13h1M1 23h1M1 24h1M38 28h1" />
<path stroke="#8599f7" d="M26 15h1" />
<path stroke="#e3e7fd" d="M27 15h1M16 31h1M31 31h1M14 35h1" />
<path stroke="#ff8a00" d="M10 16h1M10 17h1M23 17h4M16 18h1M22 18h2M26 18h2M8 19h8M21 19h5M27 19h2M7 20h2M13 20h12M26 20h1M28 20h1M7 21h1M9 21h4M17 21h7M25 21h4M8 22h2M13 22h1M25 22h2M14 23h1M24 23h2M15 24h1M24 24h1M16 25h1M23 25h1M16 26h1M22 26h1M17 27h1M21 27h1M18 28h3" />
<path stroke="#93a5f8" d="M27 16h1" />
<path stroke="#ff0000" d="M15 22h2M16 23h3M22 23h1M17 24h1M21 24h2M20 25h2M18 26h3" />
<path stroke="#f2f3fe" d="M34 22h1" />
<path stroke="#96a9f9" d="M35 22h1M6 31h1M10 33h1M32 33h1M19 38h1" />
<path stroke="#95a8f8" d="M36 22h1M9 31h1M33 31h1" />
<path stroke="#f2f4ff" d="M37 22h1M16 30h1" />
<path stroke="#e2e7fd" d="M11 23h1M13 24h1M26 24h1M34 24h1M14 25h1M25 25h1M25 26h1M15 27h1M16 28h1M17 29h1M8 32h1M28 32h1" />
<path stroke="#fc809a" d="M19 23h3M18 24h3M18 25h2" />
<path stroke="#f1f2ff" d="M27 23h1M37 23h1M15 32h1" />
<path stroke="#8aa0f9" d="M35 23h1" />
<path stroke="#94a8f9" d="M36 23h1M35 24h1M34 25h1M35 26h1M6 29h1" />
<path stroke="#e2e7fe" d="M36 24h1M35 27h1M29 32h1" />
<path stroke="#899df7" d="M35 25h1" />
<path stroke="#869bf6" d="M24 26h1M24 27h1M24 28h1" />
<path stroke="#89a0f9" d="M34 26h1" />
<path stroke="#7890f6" d="M23 27h1M23 28h1M24 31h1M28 34h2M20 37h1M33 38h1" />
<path stroke="#eef1fe" d="M25 27h1M35 28h1" />
<path stroke="#97aafa" d="M34 27h1" />
<path stroke="#edf0fd" d="M25 28h1" />
<path stroke="#f0f3ff" d="M33 28h1M7 32h1" />
<path stroke="#98aaf9" d="M34 28h1" />
<path stroke="#95a8f9" d="M7 29h1" />
<path stroke="#859af7" d="M24 29h1M31 32h1M34 38h1M22 39h1" />
<path stroke="#fdfeff" d="M26 29h1M27 30h1M28 31h1M33 35h1M36 38h1" />
<path stroke="#e5e9fd" d="M33 29h1" />
<path stroke="#a3b4f9" d="M34 29h1" />
<path stroke="#f3f5ff" d="M4 30h1" />
<path stroke="#a2b2f9" d="M5 30h1" />
<path stroke="#7b92f6" d="M6 30h1" />
<path stroke="#869bf7" d="M7 30h1" />
<path stroke="#dde4fd" d="M8 30h1" />
<path stroke="#7991f6" d="M24 30h1M16 34h1M19 37h1M34 39h1" />
<path stroke="#90a3f8" d="M25 30h1" />
<path stroke="#e1e6fd" d="M26 30h1M21 39h1" />
<path stroke="#a0b2fa" d="M33 30h1" />
<path stroke="#e6eafe" d="M5 31h1M9 33h1M15 36h1M18 38h1" />
<path stroke="#8a9ff8" d="M7 31h1M13 34h1" />
<path stroke="#e4e8fd" d="M27 31h1M32 35h1" />
<path stroke="#94a6f9" d="M32 31h1" />
<path stroke="#f1f3fe" d="M6 32h1M12 35h1M16 37h1M19 39h1" />
<path stroke="#94a7f8" d="M9 32h1M11 32h1M12 34h1" />
<path stroke="#889cf7" d="M10 32h1M12 33h1M15 34h1" />
<path stroke="#889cf8" d="M32 32h1" />
<path stroke="#e3e7fe" d="M33 32h1" />
<path stroke="#879cf7" d="M11 33h1" />
<path stroke="#93a6f8" d="M13 33h1M35 39h1" />
<path stroke="#e0e6fd" d="M14 33h2" />
<path stroke="#849af7" d="M29 33h1M33 37h1" />
<path stroke="#7c91f7" d="M30 33h1" />
<path stroke="#859bf7" d="M31 33h1" />
<path stroke="#ffffec" d="M37 33h1M7 39h1" />
<path stroke="#e3e8fe" d="M11 34h1" />
<path stroke="#8397f7" d="M30 34h1" />
<path stroke="#d1dafc" d="M31 34h1" />
<path stroke="#90a2f8" d="M31 35h1" />
<path stroke="#fffff1" d="M5 36h1" />
<path stroke="#fffffa" d="M6 36h1M7 37h1" />
<path stroke="#96a8f9" d="M34 37h1" />
<path stroke="#889ef8" d="M20 38h1" />
<path stroke="#869cf8" d="M21 38h1" />
<path stroke="#fffff5" d="M8 39h1" />
<path stroke="#eff2ff" d="M20 39h1" />
<path stroke="#788ff5" d="M33 39h1" />
</svg>