<svg xmlns="http://www.w3.org/2000/svg" viewBox="0 -0.5 40 40" shape-rendering="crispEdges">
<metadata>Made with Pixels to Svg https://codepen.io/shshaw/pen/XbxvNj</metadata>
<path stroke="#ffd545" d="M0 0h14M23 0h17M0 1h13M24 1h16M0 2h13M24 2h16M0 3h13M24 3h16M0 4h13M24 4h16M0 5h12M24 5h16M0 6h12M25 6h15M0 7h12M25 7h15M0 8h12M25 8h15M0 9h12M25 9h15M0 10h11M25 10h15M0 11h10M26 11h14M0 12h9M27 12h13M0 13h7M30 13h10M0 14h6M33 14h7M0 15h3M36 15h4M0 18h6M32 18h8M0 19h5M32 19h8M0 20h5M33 20h7M0 21h5M34 21h6M0 22h5M34 22h6M0 23h5M34 23h6M0 24h4M35 24h5M0 25h4M35 25h5M0 26h4M35 26h5M0 27h4M35 27h5M0 28h4M36 28h4M0 29h4M36 29h4M0 30h4M36 30h4M0 31h3M37 31h3M0 32h3M37 32h3M0 33h3M37 33h3M0 34h4M36 34h4M0 35h3M38 35h2M0 36h1" />
<path stroke="#908a8a" d="M14 0h1M13 1h1M13 2h1M13 3h1M13 4h1M12 5h1M12 6h1M12 7h1M12 8h1M12 9h1M11 10h1M10 11h1M9 12h1M7 13h2M6 14h1M3 15h3M0 16h3M13 34h1M12 35h1M32 35h1M11 36h1M33 36h1M10 37h1M34 37h1M9 38h1M34 38h1M9 39h1M34 39h1" />
<path stroke="#d3cfb4" d="M15 0h1M14 4h1M14 5h1M14 6h1M12 10h1M11 11h2M10 12h1M30 21h3M29 22h2M32 22h1M29 23h2M32 23h1M5 24h5M27 24h4M32 24h1M7 25h4M27 25h1M30 25h1" />
<path stroke="#f5f1dc" d="M16 0h1M15 1h2M15 2h2M15 3h2M15 4h2M15 5h2M15 6h2M14 7h3M14 8h2M14 9h2M13 10h3M13 11h2M11 12h15M11 13h3M10 14h3M7 15h5M3 16h4" />
<path stroke="#fdfae8" d="M17 0h1M17 1h1M17 2h1M17 3h1M17 4h1M17 5h1M17 6h1M17 7h1M16 8h2M16 10h1M16 11h2M14 13h9M13 14h14M12 15h17M7 16h25M0 17h5" />
<path stroke="#ffffff" d="M18 0h4M18 1h5M18 2h5M18 3h5M18 4h5M18 5h5M18 6h6M18 7h6M18 8h6M17 9h7M17 10h7M18 11h7M23 13h4M27 14h3M29 15h4M32 16h4M5 17h35M21 29h1M18 30h4M17 31h2M20 31h3M16 32h8M16 33h8M25 33h1M17 34h2M20 34h3M24 34h1M26 34h2M14 35h2M18 35h5M24 35h1M26 35h4M13 36h3M18 36h5M24 36h2M27 36h6M12 37h3M16 37h2M19 37h3M23 37h4M28 37h6M12 38h3M16 38h3M22 38h6M29 38h5M11 39h3M15 39h3M23 39h5M29 39h5" />
<path stroke="#b7b398" d="M22 0h1M23 1h1M23 2h1M23 3h1M23 4h1M23 5h1M24 6h1M24 7h1M24 8h1M24 9h1M24 10h1M25 11h1M26 12h1M27 13h3M30 14h3M33 15h3M36 16h4M6 18h2M29 18h3M5 19h2M30 19h2M5 20h1M30 20h3M5 21h1M33 21h1M5 22h2M33 22h1M5 23h3M10 23h2M33 23h1M4 24h1M34 24h1M4 25h1M34 25h1M4 26h1M34 26h1M4 27h1M34 27h1M4 28h1M35 28h1M4 29h1M35 29h1M4 30h1M35 30h1M3 31h1M36 31h1M3 32h1M36 32h1M3 33h1M36 33h1" />
<path stroke="#d3cfb3" d="M14 1h1M14 2h1M14 3h1M13 5h1M13 6h1M13 7h1M13 8h1M13 9h1M9 13h2M7 14h3M6 15h1M31 22h1M27 23h2M31 23h1M10 24h2M26 24h1M9 26h2M26 33h2M34 33h2M4 34h3M28 34h2M33 34h1M7 35h3M30 35h2" />
<path stroke="#fdfae4" d="M16 9h1M15 11h1" />
<path stroke="#000000" d="M8 18h8M20 18h2M24 18h2M28 18h1M7 19h1M16 19h5M26 19h1M29 19h1M6 20h1M9 20h13M25 20h1M27 20h1M29 20h1M6 21h1M8 21h1M13 21h11M29 21h1M7 22h1M10 22h15M27 22h2M8 23h2M12 23h3M23 23h2M26 23h1M12 24h2M16 24h1M23 24h3M12 25h2M15 25h1M17 25h1M22 25h1M24 25h2M12 26h2M15 26h1M17 26h1M21 26h1M23 26h1M25 26h1M13 27h1M16 27h1M18 27h3M22 27h1M25 27h1M13 28h1M17 28h1M21 28h1M25 28h1M18 29h3" />
<path stroke="#d3770d" d="M16 18h1M22 18h2M26 18h2M8 19h8M21 19h5M27 19h2" />
<path stroke="#d3760d" d="M17 18h3" />
<path stroke="#de7f0f" d="M7 20h2M23 20h2M26 20h1M28 20h1" />
<path stroke="#363333" d="M22 20h1M24 21h1M15 23h1M25 23h1M14 24h1" />
<path stroke="#ff8a00" d="M7 21h1M9 21h3M25 21h4M8 22h2M25 22h2M15 24h1M16 25h1M23 25h1M16 26h1M22 26h1M17 27h1M21 27h1M18 28h3" />
<path stroke="#ff8900" d="M12 21h1" />
<path stroke="#ff0000" d="M16 23h3M22 23h1M17 24h1M21 24h2M20 25h2M18 26h3" />
<path stroke="#fc809a" d="M19 23h3M18 24h3M18 25h2" />
<path stroke="#faf7e1" d="M31 24h1M33 24h1M5 25h2M26 25h1M28 25h2M31 25h3M5 26h4M26 26h3M32 26h2M6 27h7M24 27h1M30 27h1M8 28h5M15 28h1M23 28h2M10 29h3M15 29h1M23 29h3M7 30h1M12 30h1M15 30h2M23 30h3M4 31h1M7 31h1M14 31h1M25 31h1M33 31h3M4 32h2M31 32h1M33 32h3M4 33h4M14 33h1M28 33h6M7 34h2M11 34h1M14 34h1M30 34h3M13 35h1M12 36h1M11 37h1M10 38h2M10 39h1" />
<path stroke="#f1edd3" d="M11 25h1M14 25h1M11 26h1M14 26h1M24 26h1M5 27h1M14 27h2M23 27h1M5 28h3M14 28h1M16 28h1M22 28h1M34 28h1M5 29h5M14 29h1M16 29h2M22 29h1M32 29h3M6 30h1M8 30h4M14 30h1M17 30h1M22 30h1M27 30h1M31 30h4M8 31h5M15 31h2M23 31h2M27 31h1M29 31h4M8 32h4M14 32h1M25 32h6M10 33h2M13 33h1M12 34h1M25 34h1M25 35h1M16 36h1M26 36h1M15 37h1M27 37h1M15 38h1M28 38h1M14 39h1M28 39h1" />
<path stroke="#fffced" d="M29 26h3M26 27h4M31 27h1M33 27h1M26 28h5M33 28h1M13 29h1M26 29h4M13 30h1M26 30h1M5 31h1M13 31h1M26 31h1M12 32h2M12 33h1" />
<path stroke="#fffef6" d="M32 27h1M31 28h2M30 29h2M5 30h1M28 30h3M6 31h1M28 31h1M6 32h2M8 33h2M9 34h2M10 35h2" />
<path stroke="#e4e2d6" d="M19 31h1M19 34h1" />
<path stroke="#ffac0b" d="M15 32h1M24 33h1M16 35h1" />
<path stroke="#feb931" d="M24 32h1M15 34h1M23 35h1M17 36h1M23 36h1M18 37h1M22 37h1M19 38h2M18 39h4" />
<path stroke="#f9f6e1" d="M32 32h1" />
<path stroke="#fcd726" d="M15 33h1M23 34h1" />
<path stroke="#fcf3ca" d="M16 34h1M17 35h1" />
<path stroke="#fed444" d="M34 34h1M3 35h1M37 35h1M1 36h1M39 36h1" />
<path stroke="#ffd544" d="M35 34h1" />
<path stroke="#fbd243" d="M4 35h1M36 35h1M2 36h1M38 36h1" />
<path stroke="#f5cc41" d="M5 35h1M3 36h1M37 36h1" />
<path stroke="#ecc53e" d="M6 35h1M4 36h1M36 36h1M38 37h1M0 38h1" />
<path stroke="#ecc53d" d="M33 35h1" />
<path stroke="#f2ca40" d="M34 35h1" />
<path stroke="#f6cd41" d="M35 35h1" />
<path stroke="#dfb939" d="M5 36h1M35 36h1M3 37h1M37 37h1M1 38h1" />
<path stroke="#d6b135" d="M6 36h1M4 37h1M36 37h1M2 38h1" />
<path stroke="#ceaa32" d="M7 36h1M5 37h1M35 37h1M3 38h1M37 38h1M1 39h1" />
<path stroke="#caa731" d="M8 36h1M6 37h1M4 38h1M36 38h1M2 39h1M38 39h2" />
<path stroke="#c9a631" d="M9 36h1M7 37h1M5 38h1M35 38h1M3 39h1M37 39h1" />
<path stroke="#c8a531" d="M10 36h1M8 37h2M6 38h3M4 39h5M35 39h2" />
<path stroke="#d9b337" d="M34 36h1" />
<path stroke="#fcd243" d="M0 37h1" />
<path stroke="#f6cc41" d="M1 37h1" />
<path stroke="#edc53e" d="M2 37h1" />
<path stroke="#f3ca40" d="M39 37h1" />
<path stroke="#f8e27a" d="M21 38h1M22 39h1" />
<path stroke="#d5b035" d="M38 38h1M0 39h1" />
<path stroke="#d8b337" d="M39 38h1" />
</svg>