<svg xmlns="http://www.w3.org/2000/svg" viewBox="0 -0.5 40 40" shape-rendering="crispEdges">
<metadata>Made with Pixels to Svg https://codepen.io/shshaw/pen/XbxvNj</metadata>
<path stroke="#0bb83c" d="M0 0h1M3 0h1M5 0h3M9 0h2M12 0h1M30 0h2M37 0h2M0 1h1M2 1h1M6 1h2M10 1h1M29 1h1M31 1h1M35 1h1M38 1h1M0 2h1M2 2h2M5 2h1M7 2h1M9 2h1M29 2h1M31 2h1M33 2h1M35 2h1M37 2h1M3 3h1M5 3h1M7 3h1M30 3h1M32 3h1M36 3h1M0 4h1M6 4h1M8 4h2M29 4h2M33 4h1M35 4h1M37 4h1M0 5h2M5 5h2M8 5h2M33 5h1M35 5h3M39 5h1M1 6h1M28 6h3M32 6h1M36 6h2M39 6h1M0 7h1M2 7h1M4 7h2M28 7h3M32 7h2M35 7h1M37 7h1M0 8h3M33 8h1M35 8h1M37 8h1M1 9h2M36 9h1M39 9h1M0 10h1M2 10h1M4 10h1M6 10h1M35 10h2M38 10h1M0 11h1M2 11h1M7 11h1M39 11h1M1 12h1M4 12h1M6 12h1M8 12h1M36 12h1M39 12h1M0 13h2M4 13h1M6 13h3M10 13h1M34 13h1M38 13h1M3 14h1M7 14h2M10 14h1M29 14h1M32 14h1M34 14h2M38 14h2M0 15h2M3 15h2M6 15h1M8 15h1M29 15h1M31 15h1M35 15h1M39 15h1M0 16h2M4 16h1M6 16h1M8 16h1M29 16h1M32 16h1M34 16h1M36 16h1M38 16h1M0 17h2M3 17h1M7 17h1M29 17h1M32 17h1M34 17h3M0 18h3M6 18h2M29 18h1M31 18h1M35 18h2M0 19h4M31 19h2M34 19h1M36 19h1M39 19h1M0 20h6M32 20h1M34 20h1M36 20h1M38 20h1M5 21h1M31 21h1M35 21h1M39 21h1M0 22h1M29 22h2M34 22h2M39 22h1M0 23h2M10 23h1M28 23h4M36 23h1M38 23h1M1 24h1M8 24h1M11 24h1M13 24h1M26 24h1M28 24h5M38 24h2M0 25h1M2 25h1M7 25h2M11 25h1M13 25h2M28 25h5M35 25h2M39 25h1M0 26h3M8 26h1M10 26h1M14 26h1M25 26h1M28 26h6M35 26h2M38 26h1M1 27h1M10 27h2M13 27h1M15 27h1M23 27h1M25 27h2M28 27h5M36 27h2M0 28h1M11 28h1M13 28h1M15 28h1M26 28h1M29 28h3M33 28h1M35 28h1M37 28h2M0 29h1M10 29h1M14 29h1M16 29h3M23 29h1M25 29h1M29 29h3M33 29h1M35 29h5M13 30h2M16 30h2M25 30h2M29 30h4M36 30h4M0 31h1M9 31h2M15 31h2M26 31h2M29 31h5M35 31h1M37 31h3M10 32h6M27 32h1M29 32h3M33 32h1M35 32h1M37 32h3M0 33h1M11 33h5M27 33h1M29 33h4M36 33h2M0 34h1M12 34h3M30 34h4M35 34h2M13 35h1M32 35h4M38 35h1M33 36h3M37 36h1M33 37h3M38 37h1M34 38h2M38 38h1M34 39h2M37 39h1" />
<path stroke="#0ab83c" d="M1 0h1M8 3h1M31 5h1M2 6h1M38 8h1M3 11h1M8 11h1M37 12h1M31 13h1M35 13h1M36 14h1M36 15h1M30 17h1M38 18h1M37 22h1M2 24h1M9 25h1M26 26h1M16 28h1M28 33h1M37 34h1M36 38h1" />
<path stroke="#057324" d="M2 0h1M4 0h1M11 0h1M39 0h1M3 1h3M9 1h1M11 1h1M30 1h1M37 1h1M39 1h1M4 2h1M6 2h1M10 2h2M30 2h1M34 2h1M38 2h2M2 3h1M4 3h1M6 3h1M11 3h1M29 3h1M33 3h3M39 3h1M3 4h3M28 4h1M32 4h1M34 4h1M36 4h1M4 5h1M32 5h1M34 5h1M0 6h1M33 6h3M1 7h1M34 7h1M36 7h1M32 8h1M34 8h1M36 8h1M0 9h1M33 9h3M1 10h1M5 10h1M34 10h1M39 10h1M1 11h1M4 11h3M38 11h1M0 12h1M3 12h1M5 12h1M7 12h1M38 12h1M3 13h1M5 13h1M39 13h1M4 14h3M33 14h1M5 15h1M7 15h1M32 15h3M38 15h1M3 16h1M5 16h1M7 16h1M31 16h1M33 16h1M35 16h1M39 16h1M4 17h3M31 17h1M33 17h1M5 18h1M32 18h3M33 19h1M35 19h1M31 20h1M33 20h1M35 20h1M39 20h1M32 21h3M38 21h1M33 22h1M38 22h1M11 23h1M39 23h1M0 24h1M10 24h1M12 24h1M1 25h1M10 25h1M12 25h1M38 25h1M11 26h3M34 26h1M39 26h1M0 27h1M12 27h1M14 27h1M24 27h1M33 27h3M1 28h1M10 28h1M12 28h1M14 28h1M23 28h3M32 28h1M34 28h1M36 28h1M1 29h1M11 29h3M24 29h1M26 29h1M32 29h1M34 29h1M0 30h1M12 30h1M24 30h1M33 30h3M25 31h1M34 31h1M36 31h1M26 32h1M32 32h1M34 32h1M36 32h1M33 33h3M34 34h1M39 35h1M38 36h2M37 37h1M39 37h1M37 38h1M39 38h1M38 39h2" />
<path stroke="#09b73b" d="M8 0h1M1 4h1M31 4h1M37 9h1" />
<path stroke="#000000" d="M13 0h17M12 1h17M21 2h8M24 3h5M12 4h7M27 4h1M24 5h1M25 6h2M9 7h16M27 7h1M8 8h5M19 8h1M23 8h4M7 9h9M20 9h3M25 9h6M9 10h2M16 10h1M26 10h6M10 11h1M13 11h2M27 11h6M12 12h1M15 12h1M28 12h3M11 13h1M15 13h1M28 13h1M11 14h1M14 14h2M20 14h2M26 14h1M28 14h1M10 15h2M13 15h3M19 15h3M26 15h1M28 15h1M9 16h1M11 16h1M13 16h3M19 16h3M24 16h3M28 16h1M9 17h1M12 17h1M15 17h2M26 17h3M8 18h8M24 18h3M28 18h1M7 19h1M16 19h3M26 19h2M29 19h1M6 20h1M9 20h4M25 20h1M27 20h1M29 20h1M6 21h1M8 21h1M13 21h4M24 21h1M27 21h1M29 21h1M7 22h1M10 22h3M14 22h1M17 22h8M27 22h2M8 23h2M12 23h2M15 23h1M23 23h1M26 23h2M14 24h1M16 24h1M23 24h1M25 24h1M27 24h1M15 25h1M17 25h1M22 25h1M24 25h1M27 25h1M3 26h2M7 26h1M15 26h1M17 26h1M21 26h1M23 26h1M27 26h1M2 27h1M5 27h2M8 27h1M16 27h1M18 27h3M22 27h1M27 27h1M2 28h1M9 28h1M17 28h1M21 28h2M27 28h1M2 29h5M9 29h1M19 29h1M22 29h1M27 29h1M1 30h1M5 30h1M7 30h3M18 30h2M22 30h2M27 30h1M1 31h5M17 31h2M20 31h2M23 31h2M1 32h1M5 32h1M16 32h1M18 32h2M22 32h1M25 32h1M1 33h4M26 33h1M15 34h1M19 34h1M23 34h1M27 34h3M14 35h2M26 35h3M31 35h1M13 36h4M19 36h1M23 36h1M25 36h4M30 36h3M14 37h5M21 37h1M24 37h4M29 37h4M15 38h4M24 38h4M29 38h5M16 39h4M21 39h1M23 39h4M29 39h5" />
<path stroke="#0ab83b" d="M32 0h5M1 1h1M1 2h1M32 2h1M36 2h1M0 3h1M9 3h2M31 3h1M37 3h2M2 4h1M7 4h1M10 4h2M39 4h1M3 5h1M28 5h2M38 5h1M4 6h2M31 6h1M38 6h1M31 7h1M39 7h1M3 8h2M3 9h1M38 9h1M34 11h2M37 11h1M2 12h1M33 12h3M9 13h1M36 13h2M0 14h1M2 14h1M9 14h1M31 14h1M37 14h1M2 15h1M30 15h1M37 15h1M2 16h1M30 16h1M2 17h1M8 17h1M37 17h2M3 18h2M30 18h1M37 18h1M4 19h3M30 19h1M38 19h1M30 20h1M37 20h1M0 21h2M30 21h1M36 21h2M31 22h2M32 23h3M37 23h1M9 24h1M37 24h1M25 25h2M37 25h1M9 26h1M37 26h1M9 27h1M38 27h2M28 28h1M39 28h1M15 29h1M10 30h2M28 30h1M11 31h3M28 31h1M0 32h1M38 33h2M37 35h1M36 36h1M36 37h1M36 39h1" />
<path stroke="#09b83b" d="M8 1h1M36 1h1M37 19h1" />
<path stroke="#0ab93b" d="M32 1h1M38 7h1M3 10h1M9 15h1M28 32h1" />
<path stroke="#0bb83b" d="M33 1h2M30 5h1M6 6h1M39 8h1M4 9h2M36 11h1M32 13h2M1 14h1M39 18h1M35 23h1M33 24h4M33 25h2M24 26h1M14 31h1M38 34h2" />
<path stroke="#09b83a" d="M8 2h1" />
<path stroke="#1f1e1e" d="M12 2h4M12 3h5M18 3h1M10 5h10M7 6h18M6 7h3M25 7h2M5 8h3M27 8h5M6 9h1M31 9h2M7 10h2M32 10h2M9 11h1M33 11h1M10 12h1M31 12h2M29 13h2" />
<path stroke="#212020" d="M16 2h2M17 3h1" />
<path stroke="#403d3d" d="M18 2h1M19 3h1M23 3h1M19 4h2M23 4h4M20 5h1M25 5h3M27 6h1M17 32h1M23 32h2M16 33h5M22 33h4M16 34h3M24 34h3M16 35h5M22 35h4M29 35h2M17 36h2M24 36h1M29 36h1M28 37h1M14 38h1M28 38h1M14 39h2M27 39h2" />
<path stroke="#6c6565" d="M19 2h2M20 3h2M21 4h1M21 5h2M22 11h1M23 12h1M21 33h1M20 34h3M21 35h1" />
<path stroke="#08b83b" d="M1 3h1" />
<path stroke="#9f9a9a" d="M22 3h1M22 4h1M23 5h1" />
<path stroke="#09b73a" d="M38 4h1" />
<path stroke="#0ab73b" d="M2 5h1M3 7h1M37 10h1M9 12h1M30 14h1M37 16h1M3 25h1M28 29h1M36 35h1" />
<path stroke="#0ab73c" d="M7 5h1M36 22h1M15 30h1" />
<path stroke="#0ab739" d="M3 6h1" />
<path stroke="#ffffff" d="M13 8h6M20 8h3M16 9h4M23 9h2M11 10h5M17 10h9M11 11h2M15 11h3M23 11h4M11 12h1M16 12h1M24 12h4M16 13h1M26 13h2M13 14h1M16 14h1M19 14h1M24 14h2M27 14h1M16 15h1M24 15h2M27 15h1M16 16h1M27 16h1M3 27h2M7 27h1M3 28h6M7 29h2M20 29h2M2 30h3M20 30h2M19 31h1M22 31h1M2 32h3M20 32h2M20 36h3M19 37h2M22 37h2M19 38h5M20 39h1M22 39h1" />
<path stroke="#1e1d1c" d="M18 11h3M17 12h1M17 13h1M17 14h1M17 15h1M23 15h1M17 16h1M23 16h1M22 17h1M21 18h1M19 19h2" />
<path stroke="#2b2a29" d="M21 11h1M24 13h2M23 14h1" />
<path stroke="#c3d9f9" d="M13 12h2M12 13h3M18 13h5M12 14h1M18 14h1M22 14h1M12 15h1M18 15h1M22 15h1M12 16h1M18 16h1M22 16h1M13 17h2M18 17h4M19 18h2" />
<path stroke="#93baf2" d="M18 12h5" />
<path stroke="#09b83c" d="M2 13h1" />
<path stroke="#4c4a4a" d="M23 13h1M17 17h1M17 18h2" />
<path stroke="#ff8a00" d="M10 16h1M10 17h2M23 17h3M16 18h1M22 18h2M8 19h8M21 19h5M7 20h2M13 20h12M26 20h1M7 21h1M9 21h4M17 21h7M25 21h2M28 21h1M8 22h2M13 22h1M25 22h2M14 23h1M24 23h2M15 24h1M24 24h1M16 25h1M23 25h1M16 26h1M22 26h1M17 27h1M21 27h1M18 28h3" />
<path stroke="#09b93a" d="M39 17h1" />
<path stroke="#ff8900" d="M27 18h1M28 19h1M28 20h1" />
<path stroke="#7a4f02" d="M2 21h2M1 22h1M5 22h2M2 23h1M7 23h1M3 24h1M7 24h1M4 25h1M6 25h1M6 26h1M1 34h1M0 35h1" />
<path stroke="#7a4e02" d="M4 21h1M10 33h1M11 34h1M12 35h1M12 36h1" />
<path stroke="#c57f00" d="M2 22h1M3 23h1M4 24h1M5 34h1M4 35h1M10 35h1M3 36h2M10 36h1M2 37h2M2 38h2M11 38h1M3 39h1M11 39h1" />
<path stroke="#c57d00" d="M3 22h2M7 31h1M8 32h1M7 33h1M7 34h2M8 35h1M7 36h1M7 37h1M10 37h2M8 38h1M2 39h1M7 39h2" />
<path stroke="#ff0000" d="M15 22h2M16 23h3M22 23h1M17 24h1M21 24h2M20 25h2M18 26h3" />
<path stroke="#9d6503" d="M4 23h1M5 24h1M5 25h1M5 26h1M6 30h1M5 33h1M2 34h2M1 35h1M0 36h1" />
<path stroke="#c57e00" d="M5 23h1M9 34h1M9 35h1M5 36h1M9 36h1M5 37h1M9 37h1M4 38h1M9 38h2M4 39h2M9 39h2" />
<path stroke="#dc9008" d="M6 23h1M6 24h1M9 33h1M10 34h1M11 35h1M11 36h1M12 37h1M12 38h1M12 39h1" />
<path stroke="#fc809a" d="M19 23h3M18 24h3M18 25h2" />
<path stroke="#ffc40a" d="M6 31h1M6 32h2M6 33h1M8 33h1M4 34h1M6 34h1M5 35h3M6 36h1M8 36h1M4 37h1M6 37h1M8 37h1M5 38h3M6 39h1" />
<path stroke="#7a4c02" d="M8 31h1" />
<path stroke="#7a4d02" d="M9 32h1M13 37h1M13 38h1M13 39h1" />
<path stroke="#9d6403" d="M2 35h1M1 36h1M0 37h1M0 38h1M0 39h1" />
<path stroke="#ae6e02" d="M3 35h1M2 36h1" />
<path stroke="#ae6f02" d="M1 37h1M1 38h1M1 39h1" />
</svg>