<svg xmlns="http://www.w3.org/2000/svg" viewBox="0 -0.5 40 40" shape-rendering="crispEdges">
<metadata>Made with Pixels to Svg https://codepen.io/shshaw/pen/XbxvNj</metadata>
<path stroke="#2f2b80" d="M0 0h1" />
<path stroke="#322f81" d="M1 0h1M1 14h1" />
<path stroke="#201c7b" d="M2 0h1" />
<path stroke="#24207d" d="M3 0h1" />
<path stroke="#161179" d="M4 0h1M2 21h1M1 22h1M29 30h1" />
<path stroke="#28247c" d="M5 0h1" />
<path stroke="#4a4783" d="M6 0h1" />
<path stroke="#444173" d="M7 0h1" />
<path stroke="#7a76a5" d="M8 0h2M2 30h1" />
<path stroke="#383667" d="M10 0h1M3 30h1" />
<path stroke="#09034f" d="M11 0h1M0 6h2M0 7h2M0 8h2M4 13h2M4 14h2M39 28h1M39 29h1M4 30h3M38 30h2M4 31h3M37 31h3M37 32h3M36 33h4M37 34h3M36 35h4M36 36h4M36 37h4M35 38h5M35 39h5" />
<path stroke="#0a035c" d="M12 0h1M1 16h1M0 20h1M14 25h1M10 27h1M8 32h1" />
<path stroke="#100586" d="M13 0h1" />
<path stroke="#11068e" d="M14 0h1" />
<path stroke="#7c4f03" d="M15 0h1M12 1h1M10 2h1M10 3h1M10 4h1M9 5h1M9 6h1M19 6h1M8 7h1M20 7h2M8 8h1M22 8h1M8 9h1M8 10h1M24 10h1M8 11h1M24 11h1M26 11h2M8 12h1M24 12h1M28 12h1M9 13h1M24 13h1M28 13h1M10 14h1M25 14h1M29 14h1M29 15h1M29 16h1M29 17h1M29 18h1M29 22h1M27 23h1M26 24h1M25 25h1M24 26h1" />
<path stroke="#ad6f03" d="M16 0h3M13 1h9M11 2h13M11 3h14M11 4h5M17 4h9M11 5h6M18 5h8M28 5h1M10 6h1M12 6h4M20 6h6M28 6h1M9 7h3M13 7h3M22 7h1M24 7h4M29 7h1M9 8h3M14 8h1M25 8h3M29 8h1M9 9h2M25 9h3M29 9h2M9 10h1M25 10h3M29 10h2M9 11h1M25 11h1M28 11h4M9 12h1M25 12h1M29 12h3M10 13h1M25 13h1M29 13h4M30 14h3M30 15h3M30 16h2M30 17h2M30 18h2M30 19h2M30 20h2M30 21h1M30 22h1M28 23h2M28 24h1" />
<path stroke="#ad6e03" d="M19 0h4M22 1h3M24 2h2M25 3h2M26 4h1M26 5h2M29 5h1M26 6h2M29 6h2M23 7h1M30 7h2M13 8h1M15 8h1M17 8h1M23 8h2M30 8h3M14 9h1M24 9h1M31 9h3M31 10h1M32 12h1M27 24h1M26 25h2M25 26h1M24 27h1" />
<path stroke="#7c4e03" d="M23 0h1M25 1h1M26 2h1M29 2h2M28 3h1M31 3h1M16 4h1M27 4h1M17 5h1M30 5h1M18 6h1M31 6h1M12 7h1M18 7h1M32 7h1M12 8h1M33 8h1M23 9h1M28 9h1M28 10h1M33 17h1M32 19h1M31 21h1M30 23h1M29 24h1M28 25h1M16 26h1M26 26h1M23 27h1M25 27h1M19 28h1M18 29h1M20 29h1" />
<path stroke="#0a034f" d="M24 0h4M26 1h2M27 2h2M27 3h1M29 3h1M28 4h3M31 5h2M32 6h2M33 7h2M34 8h2M34 9h3M34 10h4M35 11h5M36 12h4M37 13h3M38 14h2M39 15h1" />
<path stroke="#09024c" d="M28 0h1" />
<path stroke="#06023d" d="M29 0h1M32 3h1M39 9h1" />
<path stroke="#060236" d="M30 0h1M31 1h1M32 2h1M34 3h1M35 4h1M36 5h1M37 6h1M38 7h1M39 8h1" />
<path stroke="#060235" d="M31 0h9M32 1h8M33 2h7M35 3h5M36 4h4M37 5h3M38 6h2M39 7h1" />
<path stroke="#645f9a" d="M0 1h1" />
<path stroke="#6a669f" d="M1 1h1" />
<path stroke="#3e3b86" d="M2 1h1" />
<path stroke="#433f87" d="M3 1h1" />
<path stroke="#242178" d="M4 1h1" />
<path stroke="#15116f" d="M5 1h1" />
<path stroke="#232062" d="M6 1h1" />
<path stroke="#3b386e" d="M7 1h1" />
<path stroke="#7a76a6" d="M8 1h1M6 34h1" />
<path stroke="#7a76a7" d="M9 1h1" />
<path stroke="#393670" d="M10 1h1" />
<path stroke="#090352" d="M11 1h1M2 9h1M4 15h1M6 15h1M1 18h1M32 20h1M33 21h1M34 22h1M9 26h1M8 27h1M38 29h1M37 30h1M36 32h1M8 34h1M35 35h1M35 37h1" />
<path stroke="#09024e" d="M28 1h1M30 3h1M31 4h1M33 5h1M34 6h1M35 7h1M36 8h1M37 9h1M38 10h1" />
<path stroke="#080249" d="M29 1h1M34 5h1M35 6h1M36 7h1M37 8h1M38 9h1" />
<path stroke="#06023c" d="M30 1h1M31 2h1M34 4h1M35 5h1M36 6h1M37 7h1M38 8h1" />
<path stroke="#66619f" d="M0 2h1" />
<path stroke="#716da4" d="M1 2h1" />
<path stroke="#434087" d="M2 2h1" />
<path stroke="#282475" d="M3 2h1" />
<path stroke="#14105e" d="M4 2h1M2 25h1" />
<path stroke="#19165a" d="M5 2h1" />
<path stroke="#2d2b66" d="M6 2h1" />
<path stroke="#3d3a7e" d="M7 2h1" />
<path stroke="#7a76a9" d="M8 2h1M6 9h1M4 22h1M10 30h1M6 35h1" />
<path stroke="#7b77ad" d="M9 2h1" />
<path stroke="#3d399a" d="M0 3h1" />
<path stroke="#605c9b" d="M1 3h1" />
<path stroke="#514d87" d="M2 3h1" />
<path stroke="#242161" d="M3 3h1" />
<path stroke="#090350" d="M4 3h1M4 4h1M3 15h1M2 16h2M2 17h1M0 19h1M33 22h1M9 27h1M7 28h2M4 29h1M6 29h2" />
<path stroke="#333163" d="M5 3h1M0 9h1M3 12h1M0 25h1M1 26h1M3 29h1M3 31h1M5 32h2M2 33h1M7 33h1" />
<path stroke="#625f92" d="M6 3h1" />
<path stroke="#4b488c" d="M7 3h1" />
<path stroke="#7975a9" d="M8 3h1M1 12h1M4 23h1M10 31h1M12 32h1" />
<path stroke="#807cae" d="M9 3h1" />
<path stroke="#060239" d="M33 3h1" />
<path stroke="#29258e" d="M0 4h1" />
<path stroke="#4c4889" d="M1 4h1" />
<path stroke="#343168" d="M2 4h1M3 27h1" />
<path stroke="#141152" d="M3 4h1M34 34h1" />
<path stroke="#38366b" d="M5 4h1M7 34h1" />
<path stroke="#6c699c" d="M6 4h1" />
<path stroke="#4d4a8e" d="M7 4h1" />
<path stroke="#7471a6" d="M8 4h1" />
<path stroke="#7d79ab" d="M9 4h1" />
<path stroke="#09024b" d="M32 4h1M39 10h1" />
<path stroke="#080248" d="M33 4h1" />
<path stroke="#14105f" d="M0 5h1" />
<path stroke="#221f5d" d="M1 5h1" />
<path stroke="#1a1755" d="M2 5h1" />
<path stroke="#24215c" d="M3 5h1" />
<path stroke="#14115e" d="M4 5h1M1 24h1" />
<path stroke="#38367c" d="M5 5h1" />
<path stroke="#6e6aa0" d="M6 5h1" />
<path stroke="#504c8f" d="M7 5h1" />
<path stroke="#65609a" d="M8 5h1M7 24h1M26 31h1" />
<path stroke="#7c4d03" d="M10 5h1M11 6h1M13 9h1M14 10h1M16 11h1" />
<path stroke="#27255e" d="M2 6h1" />
<path stroke="#4c4883" d="M3 6h1" />
<path stroke="#282579" d="M4 6h1" />
<path stroke="#393683" d="M5 6h1M9 30h1" />
<path stroke="#736fa5" d="M6 6h1M4 24h1" />
<path stroke="#68639c" d="M7 6h1" />
<path stroke="#66619a" d="M8 6h1M32 31h1" />
<path stroke="#ad6c03" d="M16 6h2M16 7h2M15 9h1M15 10h1M17 11h1M17 12h2" />
<path stroke="#272560" d="M2 7h1" />
<path stroke="#4c488a" d="M3 7h1" />
<path stroke="#29257f" d="M4 7h1M14 28h1" />
<path stroke="#393684" d="M5 7h1M3 22h1" />
<path stroke="#7571a6" d="M6 7h1" />
<path stroke="#716da2" d="M7 7h1" />
<path stroke="#ffffff" d="M19 7h1M18 8h4M12 9h1M18 9h5M11 10h1M18 10h1M21 10h3M12 11h4M18 11h3M22 11h2M11 12h6M19 12h3M23 12h1M11 13h1M15 13h3M21 13h3M26 13h1M12 14h3M16 14h1M18 14h3M22 14h3M26 14h2M12 15h2M15 15h5M21 15h7M12 16h2M15 16h5M21 16h2M27 16h1M13 17h2M17 17h5M18 18h3M17 23h5M19 29h1M21 29h1M19 30h3M19 31h4M18 32h7M18 33h6M18 34h5M19 35h3M19 36h3M20 37h1M32 37h1M31 38h2M30 39h4" />
<path stroke="#ad6d03" d="M28 7h1M16 8h1M28 8h1M16 9h2M16 10h2M32 10h2M32 11h2M33 12h1M33 13h1M33 14h1M33 15h1M32 16h2M32 17h1M32 18h1" />
<path stroke="#14115d" d="M2 8h1" />
<path stroke="#282582" d="M3 8h1" />
<path stroke="#2c2882" d="M4 8h1" />
<path stroke="#454189" d="M5 8h1M14 32h1" />
<path stroke="#7a76aa" d="M6 8h1M11 30h1M6 36h1" />
<path stroke="#7c78aa" d="M7 8h1" />
<path stroke="#181654" d="M1 9h1M3 32h1M3 33h1" />
<path stroke="#221f65" d="M3 9h1" />
<path stroke="#4e4986" d="M4 9h1" />
<path stroke="#645f98" d="M5 9h1" />
<path stroke="#726e9d" d="M7 9h1" />
<path stroke="#000000" d="M11 9h1M10 10h1M12 10h2M19 10h2M10 11h2M21 11h1M10 12h1M22 12h1M26 12h2M12 13h3M18 13h3M27 13h1M11 14h1M15 14h1M17 14h1M21 14h1M28 14h1M10 15h2M14 15h1M20 15h1M28 15h1M9 16h1M11 16h1M14 16h1M20 16h1M23 16h4M28 16h1M9 17h1M12 17h1M15 17h2M22 17h1M27 17h2M8 18h8M17 18h1M21 18h1M24 18h2M28 18h1M7 19h1M16 19h5M26 19h1M29 19h1M6 20h1M9 20h4M25 20h1M27 20h1M29 20h1M6 21h1M8 21h1M13 21h4M24 21h1M29 21h1M7 22h1M10 22h3M14 22h11M27 22h2M8 23h2M12 23h2M15 23h2M22 23h2M26 23h1M14 24h1M16 24h8M25 24h1M15 25h1M17 25h6M24 25h1M15 26h1M17 26h3M23 26h1M16 27h1M18 27h1M22 27h1M17 28h1M21 28h1M22 29h1M18 30h1M22 30h1M18 31h1M23 31h1" />
<path stroke="#716e9c" d="M0 10h1M2 29h1" />
<path stroke="#444272" d="M1 10h1" />
<path stroke="#191654" d="M2 10h1M3 11h1" />
<path stroke="#131052" d="M3 10h1M4 12h1M6 14h1" />
<path stroke="#37346a" d="M4 10h1M7 14h1" />
<path stroke="#605c93" d="M5 10h1" />
<path stroke="#656196" d="M6 10h1" />
<path stroke="#403d6f" d="M7 10h1" />
<path stroke="#7a76a8" d="M0 11h1" />
<path stroke="#716e9d" d="M1 11h1" />
<path stroke="#444271" d="M2 11h1M2 28h1" />
<path stroke="#27255d" d="M4 11h1M7 15h1" />
<path stroke="#535087" d="M5 11h1" />
<path stroke="#555188" d="M6 11h1" />
<path stroke="#2b2960" d="M7 11h1" />
<path stroke="#0a0352" d="M34 11h1M35 12h1M36 13h1M37 14h1M38 15h1M39 16h1" />
<path stroke="#4c488d" d="M0 12h1" />
<path stroke="#716d9c" d="M2 12h1M2 31h1M5 33h1" />
<path stroke="#27245d" d="M5 12h1" />
<path stroke="#2b2860" d="M6 12h1" />
<path stroke="#38346a" d="M7 12h1" />
<path stroke="#0c0367" d="M34 12h1M35 13h1M36 14h1M37 15h1M38 16h1M7 17h1M10 24h1M35 32h1" />
<path stroke="#333082" d="M0 13h1" />
<path stroke="#6d69a1" d="M1 13h1" />
<path stroke="#6e6b9d" d="M2 13h1" />
<path stroke="#333165" d="M3 13h1" />
<path stroke="#22205a" d="M6 13h1" />
<path stroke="#504c82" d="M7 13h1" />
<path stroke="#656097" d="M8 13h1" />
<path stroke="#110589" d="M34 13h1M35 14h1M36 15h1M37 16h1M38 17h1" />
<path stroke="#1a167a" d="M0 14h1" />
<path stroke="#333078" d="M2 14h1" />
<path stroke="#191659" d="M3 14h1" />
<path stroke="#5f5b92" d="M8 14h1" />
<path stroke="#66619b" d="M9 14h1M7 23h1M25 28h1M16 31h1M2 38h1M1 39h1" />
<path stroke="#130696" d="M34 14h1M35 15h1M36 16h1M37 17h1M33 18h1M38 18h1M36 21h1" />
<path stroke="#0d0477" d="M0 15h1M1 21h1M2 23h1M12 26h2" />
<path stroke="#0c046f" d="M1 15h1M1 20h1M2 24h1" />
<path stroke="#0a035b" d="M2 15h1M3 17h1M1 19h1M32 22h1M11 25h1M6 28h1M8 29h1M9 34h1" />
<path stroke="#0a035a" d="M5 15h1M38 28h1M34 35h1M35 36h1" />
<path stroke="#565289" d="M8 15h1" />
<path stroke="#5e5a99" d="M9 15h1" />
<path stroke="#140798" d="M34 15h1M34 16h2M34 17h3M35 18h3M36 19h4M37 20h3M37 21h3M38 22h2M39 23h1" />
<path stroke="#0d0473" d="M0 16h1M0 21h1M11 27h1" />
<path stroke="#151161" d="M4 16h1" />
<path stroke="#25217f" d="M5 16h1" />
<path stroke="#151167" d="M6 16h1M9 25h1M8 26h1" />
<path stroke="#131055" d="M7 16h1M8 17h1" />
<path stroke="#333067" d="M8 16h1" />
<path stroke="#ff8a00" d="M10 16h1M23 17h4M16 18h1M22 18h2M26 18h2M8 19h8M21 19h5M27 19h2M7 20h2M13 20h12M26 20h1M28 20h1M7 21h1M9 21h4M17 21h7M25 21h4M8 22h2M13 22h1M25 22h2M14 23h1M24 23h2M15 24h1M24 24h1M16 25h1M23 25h1M22 26h1M17 27h1M21 27h1M18 28h1M20 28h1" />
<path stroke="#0c036d" d="M0 17h1" />
<path stroke="#090356" d="M1 17h1M12 24h2M10 26h1M7 30h1M7 31h1M8 33h1" />
<path stroke="#242175" d="M4 17h1" />
<path stroke="#44408e" d="M5 17h1" />
<path stroke="#262188" d="M6 17h1" />
<path stroke="#ff8900" d="M10 17h2" />
<path stroke="#0d0369" d="M39 17h1" />
<path stroke="#090355" d="M0 18h1M37 26h1M38 27h1" />
<path stroke="#14115c" d="M2 18h1" />
<path stroke="#242174" d="M3 18h1" />
<path stroke="#1c1879" d="M4 18h1" />
<path stroke="#292583" d="M5 18h1" />
<path stroke="#2b2593" d="M6 18h1" />
<path stroke="#181189" d="M7 18h1" />
<path stroke="#130798" d="M34 18h1M35 19h1M36 20h1" />
<path stroke="#120690" d="M39 18h1" />
<path stroke="#282575" d="M2 19h1" />
<path stroke="#4f4b8d" d="M3 19h1" />
<path stroke="#413d87" d="M4 19h1" />
<path stroke="#413e88" d="M5 19h1" />
<path stroke="#514c96" d="M6 19h1" />
<path stroke="#100588" d="M33 19h1M34 20h1M35 21h1" />
<path stroke="#120696" d="M34 19h1M35 20h1" />
<path stroke="#28257c" d="M2 20h1" />
<path stroke="#5a5794" d="M3 20h1" />
<path stroke="#7571a7" d="M4 20h1" />
<path stroke="#7773a8" d="M5 20h1" />
<path stroke="#0b0366" d="M33 20h1M34 21h1" />
<path stroke="#423e88" d="M3 21h1" />
<path stroke="#7b77aa" d="M4 21h1" />
<path stroke="#817dae" d="M5 21h1M5 22h1M5 23h1M12 33h1M4 36h1M4 37h1M4 38h1M4 39h2" />
<path stroke="#090351" d="M32 21h1" />
<path stroke="#29257e" d="M0 22h1M30 24h1M28 30h1M29 31h1" />
<path stroke="#0e0578" d="M2 22h1M29 25h1M28 26h1M12 27h2M13 28h1M29 28h1M13 29h1M28 29h2" />
<path stroke="#6e699f" d="M6 22h1M6 23h1M3 37h1M3 38h1M3 39h1M6 39h1" />
<path stroke="#151170" d="M31 22h1" />
<path stroke="#0c0369" d="M35 22h1" />
<path stroke="#ebecff" d="M36 22h2M34 23h4M32 24h7M31 25h1M33 25h4M39 25h1M29 26h2M32 26h2M35 26h1M28 27h1M31 27h2M34 27h1M27 28h1M30 28h2M33 28h2M26 29h1M30 29h1M33 29h1M26 30h1M30 30h1M33 30h1M30 31h1M33 31h1M34 32h1M31 33h1M35 33h1M36 34h1" />
<path stroke="#4c4887" d="M0 23h1" />
<path stroke="#252178" d="M1 23h1" />
<path stroke="#383584" d="M3 23h1" />
<path stroke="#110587" d="M10 23h1" />
<path stroke="#0b035d" d="M11 23h1M36 31h1" />
<path stroke="#25217c" d="M31 23h1" />
<path stroke="#161172" d="M32 23h1" />
<path stroke="#0b0361" d="M33 23h1" />
<path stroke="#d7d7e0" d="M38 23h1M39 24h1M30 32h1M34 33h1M35 34h1" />
<path stroke="#28255e" d="M0 24h1" />
<path stroke="#363382" d="M3 24h1" />
<path stroke="#7672a7" d="M5 24h1" />
<path stroke="#65619a" d="M6 24h1" />
<path stroke="#585399" d="M8 24h1M35 29h1" />
<path stroke="#2a258a" d="M9 24h1M36 27h1" />
<path stroke="#090353" d="M11 24h1M10 25h1" />
<path stroke="#4c488c" d="M31 24h1" />
<path stroke="#181655" d="M1 25h1M7 32h1" />
<path stroke="#39367f" d="M3 25h1" />
<path stroke="#5d5895" d="M4 25h1M31 30h1" />
<path stroke="#433f88" d="M5 25h1" />
<path stroke="#3a3685" d="M6 25h1" />
<path stroke="#514c94" d="M7 25h1" />
<path stroke="#36328a" d="M8 25h1M17 30h1" />
<path stroke="#0c036e" d="M12 25h2" />
<path stroke="#2d297f" d="M30 25h1M5 26h1M27 26h1M27 27h1M30 27h1M33 27h1M32 28h1M14 29h1" />
<path stroke="#c2c2c7" d="M32 25h1M38 25h1M31 26h1M34 26h1M39 26h1M29 27h1M28 28h1M27 29h1M31 29h1M34 29h1M34 30h1M34 31h1" />
<path stroke="#aaaaaf" d="M37 25h1M36 26h1M38 26h1M35 27h1M39 27h1M35 28h1" />
<path stroke="#6f6b9a" d="M0 26h1M6 33h1" />
<path stroke="#23205c" d="M2 26h1" />
<path stroke="#4e4a85" d="M3 26h1M4 27h1" />
<path stroke="#5b5693" d="M4 26h1" />
<path stroke="#16117c" d="M6 26h1M14 27h1" />
<path stroke="#252183" d="M7 26h1" />
<path stroke="#0c046e" d="M11 26h1M8 30h1M8 31h1" />
<path stroke="#0c0470" d="M14 26h1M6 27h1" />
<path stroke="#f04646" d="M20 26h2M19 27h2" />
<path stroke="#7c78a8" d="M0 27h1M1 32h1" />
<path stroke="#484574" d="M1 27h1M2 32h1" />
<path stroke="#1e1c57" d="M2 27h1M3 28h1M2 34h1M10 36h1" />
<path stroke="#29257c" d="M5 27h1" />
<path stroke="#0b0360" d="M7 27h1M0 36h1" />
<path stroke="#252184" d="M15 27h1" />
<path stroke="#5f5a96" d="M26 27h1M26 28h1" />
<path stroke="#0c0366" d="M37 27h1M37 29h1" />
<path stroke="#8480b0" d="M0 28h1M1 29h1M1 31h1M5 34h1" />
<path stroke="#74709f" d="M1 28h1" />
<path stroke="#232161" d="M4 28h1" />
<path stroke="#15116b" d="M5 28h1" />
<path stroke="#19165e" d="M9 28h1" />
<path stroke="#343179" d="M10 28h1M9 29h1" />
<path stroke="#343181" d="M11 28h1" />
<path stroke="#1b177a" d="M12 28h1" />
<path stroke="#4c4893" d="M15 28h1" />
<path stroke="#2a2588" d="M16 28h1" />
<path stroke="#5d3b03" d="M22 28h1" />
<path stroke="#57529b" d="M23 28h1" />
<path stroke="#605b9b" d="M24 28h1M24 29h1M0 39h1" />
<path stroke="#2e2995" d="M36 28h1" />
<path stroke="#100580" d="M37 28h1" />
<path stroke="#8682b2" d="M0 29h1M0 30h2M0 31h1M0 32h1M5 35h1M5 36h1" />
<path stroke="#090354" d="M5 29h1" />
<path stroke="#6f6ba1" d="M10 29h1" />
<path stroke="#6f6ba2" d="M11 29h1" />
<path stroke="#343182" d="M12 29h1" />
<path stroke="#565195" d="M15 29h1" />
<path stroke="#3a3591" d="M16 29h1" />
<path stroke="#16116a" d="M17 29h1" />
<path stroke="#393499" d="M23 29h1" />
<path stroke="#68639b" d="M25 29h1M25 30h1M32 32h1M2 39h1M7 39h3" />
<path stroke="#393583" d="M32 29h1" />
<path stroke="#2a2589" d="M36 29h1" />
<path stroke="#3c3985" d="M12 30h1" />
<path stroke="#25217d" d="M13 30h1" />
<path stroke="#302c80" d="M14 30h1" />
<path stroke="#5d5896" d="M15 30h1" />
<path stroke="#5a5599" d="M16 30h1" />
<path stroke="#53aa08" d="M23 30h1M24 31h1M25 32h1M16 33h1M25 33h4M15 34h2M24 34h7M15 35h3M23 35h10M14 36h1M16 36h2M23 36h7M31 36h3M13 37h2M16 37h3M22 37h7M30 37h2M33 37h1M13 38h3M17 38h3M21 38h7M29 38h2M33 38h1M12 39h4M17 39h11M29 39h1" />
<path stroke="#5e599b" d="M24 30h1" />
<path stroke="#3b3784" d="M27 30h1M14 31h1M29 32h1" />
<path stroke="#5a5593" d="M32 30h1" />
<path stroke="#363191" d="M35 30h1" />
<path stroke="#15116a" d="M36 30h1" />
<path stroke="#383583" d="M9 31h1" />
<path stroke="#7c78ab" d="M11 31h1M11 33h1" />
<path stroke="#524f90" d="M12 31h1" />
<path stroke="#504c8e" d="M13 31h1" />
<path stroke="#5e5996" d="M15 31h1" />
<path stroke="#377005" d="M17 31h1M25 31h1M16 32h2M26 32h3M15 33h1M17 33h1M24 33h1M29 33h1M14 34h1M17 34h1M23 34h1M31 34h1M13 35h2M18 35h1M22 35h1M33 35h1M13 36h1M15 36h1M18 36h1M22 36h1M30 36h1M34 36h1M12 37h1M15 37h1M19 37h1M21 37h1M29 37h1M34 37h1M11 38h2M16 38h1M20 38h1M28 38h1M34 38h1M11 39h1M16 39h1M28 39h1M34 39h1" />
<path stroke="#605b97" d="M27 31h1M31 32h1" />
<path stroke="#565291" d="M28 31h1" />
<path stroke="#5e5a96" d="M31 31h1" />
<path stroke="#181187" d="M35 31h1" />
<path stroke="#181653" d="M4 32h1" />
<path stroke="#34317d" d="M9 32h1" />
<path stroke="#716da3" d="M10 32h1" />
<path stroke="#827eaf" d="M11 32h1M5 38h1" />
<path stroke="#645f99" d="M13 32h1" />
<path stroke="#575396" d="M15 32h1" />
<path stroke="#5f5a99" d="M33 32h1M10 39h1" />
<path stroke="#807cad" d="M0 33h1M4 35h1" />
<path stroke="#706c9b" d="M1 33h1" />
<path stroke="#444171" d="M4 33h1" />
<path stroke="#191570" d="M9 33h1" />
<path stroke="#48458a" d="M10 33h1" />
<path stroke="#6c689f" d="M13 33h1" />
<path stroke="#5a5598" d="M14 33h1" />
<path stroke="#615c97" d="M30 33h1M8 38h1" />
<path stroke="#666199" d="M32 33h1" />
<path stroke="#57538c" d="M33 33h1M32 34h1" />
<path stroke="#5e5a8e" d="M0 34h1" />
<path stroke="#3e3b6d" d="M1 34h1M3 34h1" />
<path stroke="#736f9e" d="M4 34h1" />
<path stroke="#38357b" d="M10 34h1" />
<path stroke="#7874a8" d="M11 34h1M6 37h1" />
<path stroke="#7e79ac" d="M12 34h1" />
<path stroke="#6b669f" d="M13 34h1" />
<path stroke="#353268" d="M33 34h1M2 35h1M10 37h1" />
<path stroke="#28255d" d="M0 35h1" />
<path stroke="#1a1855" d="M1 35h1" />
<path stroke="#605c90" d="M3 35h1" />
<path stroke="#3b387d" d="M7 35h1" />
<path stroke="#232061" d="M8 35h1" />
<path stroke="#131054" d="M9 35h1" />
<path stroke="#323067" d="M10 35h1" />
<path stroke="#6a6798" d="M11 35h1" />
<path stroke="#6d689f" d="M12 35h1" />
<path stroke="#28256a" d="M1 36h1" />
<path stroke="#58538c" d="M2 36h1" />
<path stroke="#6c679e" d="M3 36h1" />
<path stroke="#423f87" d="M7 36h1" />
<path stroke="#454181" d="M8 36h1" />
<path stroke="#312e67" d="M9 36h1" />
<path stroke="#3a376c" d="M11 36h1" />
<path stroke="#514e8c" d="M12 36h1" />
<path stroke="#19118e" d="M0 37h1" />
<path stroke="#393491" d="M1 37h1" />
<path stroke="#605b99" d="M2 37h1" />
<path stroke="#8581b2" d="M5 37h1" />
<path stroke="#454289" d="M7 37h1" />
<path stroke="#413e86" d="M8 37h1" />
<path stroke="#524e88" d="M9 37h1" />
<path stroke="#1b1855" d="M11 37h1" />
<path stroke="#3a3599" d="M0 38h1" />
<path stroke="#5a559b" d="M1 38h1" />
<path stroke="#706ba1" d="M6 38h1" />
<path stroke="#625d98" d="M7 38h1" />
<path stroke="#656099" d="M9 38h1" />
<path stroke="#58548c" d="M10 38h1" />
</svg>