<svg xmlns="http://www.w3.org/2000/svg" viewBox="0 -0.5 40 40" shape-rendering="crispEdges">
<metadata>Made with Pixels to Svg https://codepen.io/shshaw/pen/XbxvNj</metadata>
<path stroke="#f5cf00" d="M0 0h1M38 22h1M37 23h1M3 27h1M2 28h1M1 29h1M0 30h1M34 38h1" />
<path stroke="#e8af00" d="M1 0h1M36 26h1" />
<path stroke="#cc5200" d="M2 0h1" />
<path stroke="#ce0000" d="M3 0h1M2 20h1M0 33h1M39 37h1" />
<path stroke="#ed0000" d="M4 0h1" />
<path stroke="#f60000" d="M5 0h4M17 0h5M34 0h1M5 1h2M17 1h4M34 1h1M5 2h1M16 2h5M33 2h1M4 3h1M16 3h2M32 3h1M3 4h1M31 4h1M2 5h1M13 5h1M30 5h1M29 6h1M0 7h1M39 7h1M37 9h1M35 10h2M34 11h2M33 12h2M32 13h2M8 14h2M32 14h2M8 15h2M32 15h1M7 16h2M6 17h3M6 18h2M6 19h1M5 20h1M4 21h2M4 22h2M33 22h2M3 23h2M33 23h1M0 25h1M13 27h1M8 28h1M11 28h1M28 28h1M7 29h3M27 29h3M6 30h3M26 30h3M5 31h2M25 31h3M5 32h1M26 32h1M4 33h1M0 35h1M11 39h1M39 39h1" />
<path stroke="#f62800" d="M9 0h1M35 0h1M7 1h1M21 1h1M5 3h1M4 4h1M32 4h1M3 5h1M31 5h1M2 6h1M0 8h1M38 8h1M37 10h1M36 11h1M34 13h1M34 23h1M2 24h1M33 24h1M1 25h1M10 29h1M7 31h1M5 33h1M1 35h1" />
<path stroke="#f77500" d="M10 0h1M9 1h1M35 2h1M9 31h1" />
<path stroke="#f7c200" d="M11 0h1M36 2h1" />
<path stroke="#f9cc00" d="M12 0h1" />
<path stroke="#feae00" d="M13 0h1" />
<path stroke="#fd8b00" d="M14 0h1" />
<path stroke="#f94100" d="M15 0h1M14 2h1" />
<path stroke="#f70000" d="M16 0h1M16 1h1M15 2h1M15 3h1M14 4h1M11 8h1" />
<path stroke="#f62700" d="M22 0h1M6 2h1M34 2h1M30 6h1M1 7h1M35 12h1M33 15h1M32 16h1M6 22h1M5 23h1M14 27h1M32 27h1M13 28h1M30 29h1M9 30h1M29 30h1M28 31h1M6 32h1M27 32h1" />
<path stroke="#f77400" d="M23 0h1" />
<path stroke="#f8bf00" d="M24 0h1" />
<path stroke="#fac600" d="M25 0h1M11 32h1M39 33h1" />
<path stroke="#feb000" d="M26 0h1M36 34h1" />
<path stroke="#fdb600" d="M27 0h1M26 1h1M11 2h1M24 2h1M6 8h1M4 11h1M2 15h1M1 17h1M8 35h1" />
<path stroke="#f7c800" d="M28 0h1" />
<path stroke="#efc100" d="M29 0h1" />
<path stroke="#e6aa00" d="M30 0h1M0 21h1" />
<path stroke="#ce5200" d="M31 0h1M0 3h1M1 21h1M37 26h1" />
<path stroke="#d50000" d="M32 0h1M3 1h1M28 4h1M35 8h1M8 11h1M31 11h1M6 14h1M4 18h1M36 18h1M35 19h1M34 20h1M2 21h1M0 23h1M23 27h1M24 29h1M36 29h1M35 30h1M3 31h1M1 33h1M32 33h1M31 34h1M12 35h1" />
<path stroke="#ef0000" d="M33 0h1M4 1h1M1 5h1M27 5h1M12 6h1M10 9h1M9 11h1M7 14h1M5 18h1M3 21h1M33 21h1M4 31h1M13 35h1" />
<path stroke="#f67500" d="M36 0h1M0 9h1M38 10h1M37 20h1M35 23h1M5 24h1M1 26h1M13 29h1M5 34h1M1 36h1" />
<path stroke="#f6c200" d="M37 0h1M0 10h1M39 10h1M39 18h1M38 20h1M36 23h1M1 27h1M5 35h1M1 37h1" />
<path stroke="#f6d300" d="M38 0h2M2 10h1M0 11h2M0 12h2M0 13h1M0 14h1M39 20h1M39 21h1M0 28h2M0 29h1M4 36h1M3 37h1M0 38h4M0 39h4" />
<path stroke="#efc200" d="M0 1h1M36 25h1M34 39h1" />
<path stroke="#d57500" d="M1 1h1M39 23h1M37 25h1M35 39h1" />
<path stroke="#c82700" d="M2 1h1M28 3h1M31 10h1M35 29h1M2 31h1M31 33h1" />
<path stroke="#f65300" d="M8 1h1M39 8h1M3 24h1M11 29h1M8 31h1" />
<path stroke="#f8b200" d="M10 1h1M23 1h1M36 32h1" />
<path stroke="#f9c900" d="M11 1h1M6 7h1M6 37h1" />
<path stroke="#fbc500" d="M12 1h1" />
<path stroke="#fda200" d="M13 1h1" />
<path stroke="#fa5d00" d="M14 1h1" />
<path stroke="#f82000" d="M15 1h1M14 3h1" />
<path stroke="#f76e00" d="M22 1h1M37 11h1M36 12h1" />
<path stroke="#fac400" d="M24 1h1M37 13h1" />
<path stroke="#feb600" d="M25 1h1M25 2h1M24 3h1M39 30h1M37 33h2M37 34h1" />
<path stroke="#f8c400" d="M27 1h1M26 2h1M25 3h1M37 3h1M38 34h1M37 35h1M36 36h1" />
<path stroke="#ebb100" d="M28 1h1M26 3h1M13 31h1M38 35h1" />
<path stroke="#d57400" d="M29 1h1M31 9h1M39 35h1" />
<path stroke="#ce5100" d="M30 1h1M32 9h1" />
<path stroke="#d52700" d="M31 1h1M33 9h1M37 17h1M35 18h1M7 26h1M5 28h1M17 29h1M16 30h1M15 31h1M33 31h1M37 38h1" />
<path stroke="#ea0000" d="M32 1h1M2 3h1M30 3h1M29 4h1M38 6h1M37 7h1M36 8h1M33 10h1M32 11h1M8 12h1M6 15h1M4 19h1M36 19h1M35 20h1M2 22h1M1 23h1M7 27h1M27 27h1M6 28h1M26 28h1M5 29h1M18 29h1M25 29h1M17 30h1M16 31h1M15 32h1M2 33h1M14 33h1M12 36h1M11 37h1M10 38h1" />
<path stroke="#f50000" d="M33 1h1M4 2h1M32 2h1M3 3h1M31 3h1M2 4h1M30 4h1M29 5h1M1 6h1M39 6h1M38 7h1M37 8h1M36 9h1M34 10h1M33 11h1M32 12h1M8 13h1M7 15h1M6 16h1M5 19h1M4 20h1M3 22h1M2 23h1M1 24h1M28 27h1M7 28h1M27 28h1M6 29h1M26 29h1M5 30h1M25 30h1M4 32h1M3 33h1M15 33h1M14 34h1M11 38h1M10 39h1M38 39h1" />
<path stroke="#f65200" d="M35 1h1M38 9h1M34 14h1M35 22h1M33 25h1M27 33h1M3 34h1" />
<path stroke="#f6af00" d="M36 1h1M8 2h1M38 19h1M36 22h1M3 25h1M34 25h1M3 35h1" />
<path stroke="#f7cf00" d="M37 1h2M8 3h1M7 4h1M6 5h1M5 6h1M6 35h1" />
<path stroke="#f7c100" d="M39 1h1M9 2h1M9 32h1" />
<path stroke="#e7ab00" d="M0 2h1" />
<path stroke="#ce5300" d="M1 2h1M0 22h1" />
<path stroke="#d30000" d="M2 2h1M30 2h1M29 3h1M37 6h1M36 7h1M32 10h1M5 15h1M26 24h1M38 26h1M26 27h1M25 28h1M2 32h1M11 36h1" />
<path stroke="#e90000" d="M3 2h1M31 2h1M7 13h1M3 32h1" />
<path stroke="#f66e00" d="M7 2h1M6 3h1M5 4h1M4 5h1M32 5h1M3 6h1M2 7h1M1 8h1M35 13h1M36 21h1M34 24h1M2 25h1M7 32h1M6 33h1M2 35h1" />
<path stroke="#f9c500" d="M10 2h1" />
<path stroke="#feac00" d="M12 2h1" />
<path stroke="#fd8d00" d="M13 2h1" />
<path stroke="#f75200" d="M21 2h1" />
<path stroke="#f7ad00" d="M22 2h1" />
<path stroke="#f9c400" d="M23 2h1" />
<path stroke="#ebb200" d="M27 2h1" />
<path stroke="#d36d00" d="M28 2h1M27 3h1M34 7h1M35 28h1M34 29h1M2 30h1M31 32h1M38 36h1" />
<path stroke="#c82800" d="M29 2h1M35 7h1M38 25h1M1 32h1" />
<path stroke="#f8d200" d="M37 2h1M8 4h1M7 5h1M6 6h1M4 9h1M6 36h1" />
<path stroke="#f6be00" d="M38 2h1M0 27h1" />
<path stroke="#f07a00" d="M39 2h1" />
<path stroke="#d52800" d="M1 3h1M1 22h1M6 27h1M37 27h1M4 29h1M14 32h1" />
<path stroke="#f6b400" d="M7 3h1M2 8h1M37 21h1M2 26h1" />
<path stroke="#f9cd00" d="M9 3h1M5 8h1M3 11h1M2 13h1M1 15h1M7 35h1" />
<path stroke="#fbb400" d="M10 3h1M3 13h1" />
<path stroke="#f99c00" d="M11 3h1M9 6h1" />
<path stroke="#fc8a00" d="M12 3h1" />
<path stroke="#fa5700" d="M13 3h1" />
<path stroke="#000000" d="M18 3h6M15 4h3M24 4h2M14 5h1M26 5h1M13 6h1M12 7h1M12 8h1M11 9h1M10 10h1M10 11h1M11 13h2M14 13h2M17 13h3M21 13h3M11 14h1M13 14h3M17 14h2M20 14h4M10 15h1M12 15h4M17 15h1M19 15h4M9 16h1M11 16h1M13 16h2M18 16h4M23 16h4M9 17h1M12 17h1M15 17h3M22 17h1M27 17h1M8 18h8M17 18h1M21 18h1M24 18h2M28 18h1M7 19h1M16 19h5M26 19h1M29 19h1M6 20h1M9 20h4M25 20h1M27 20h1M29 20h1M6 21h1M8 21h1M29 21h1M7 22h1M10 22h2M14 22h1M17 22h5M27 22h2M8 23h2M15 23h1M26 23h1M14 24h1M16 24h1M15 25h1M17 25h1M22 25h1M15 26h1M17 26h1M21 26h1M16 27h1M18 27h3M22 27h1M17 28h1M21 28h2M19 29h1M22 29h1M18 30h1M22 30h2M17 31h2M23 31h2M16 32h1M25 32h1M16 33h1M26 33h1M15 34h1M27 34h3M14 35h2M30 35h2M13 36h1M31 36h2M12 37h1M32 37h1M12 38h1M16 38h1M28 38h1M33 38h1M12 39h1M15 39h2M28 39h2M33 39h1" />
<path stroke="#f72700" d="M33 3h1" />
<path stroke="#f76d00" d="M34 3h1M35 32h1" />
<path stroke="#f8b100" d="M35 3h1" />
<path stroke="#f9c800" d="M36 3h1M39 29h1" />
<path stroke="#ee9a00" d="M38 3h1" />
<path stroke="#d74600" d="M39 3h1" />
<path stroke="#cc0000" d="M0 4h1M39 25h1M23 28h1" />
<path stroke="#e80000" d="M1 4h1M39 5h1M34 9h1M9 10h1M5 16h1M3 20h1M39 26h1M4 30h1M34 31h1M33 32h1M38 38h1M9 39h1M37 39h1" />
<path stroke="#f6b300" d="M6 4h1M5 5h1M4 6h1M32 6h1M3 7h1M1 9h1M35 24h1M6 34h1M2 36h1" />
<path stroke="#fac700" d="M9 4h1M5 9h1M2 14h1M1 16h1M7 36h1" />
<path stroke="#f6a200" d="M10 4h1M3 14h1" />
<path stroke="#e36200" d="M11 4h1" />
<path stroke="#f14100" d="M12 4h1" />
<path stroke="#f71f00" d="M13 4h1" />
<path stroke="#ffffff" d="M18 4h6M15 5h11M14 6h13M13 7h14M13 8h13M12 9h13M11 10h14M11 11h13M16 12h1M13 13h1M20 13h1M12 14h1M19 14h1M25 14h1M18 15h1M24 15h2M16 16h1M18 18h3M20 29h2M19 30h3M19 31h4M17 32h8M17 33h8M17 34h8M18 35h6M28 35h2M14 36h2M20 36h3M28 36h3M13 37h3M28 37h4M13 38h3M29 38h4M13 39h2M30 39h3" />
<path stroke="#de6d00" d="M26 4h1" />
<path stroke="#d12700" d="M27 4h1M33 20h1" />
<path stroke="#f76b00" d="M33 4h1" />
<path stroke="#f9ac00" d="M34 4h1M35 33h1" />
<path stroke="#f9bf00" d="M35 4h1" />
<path stroke="#f5a900" d="M36 4h1M12 32h1" />
<path stroke="#ed9300" d="M37 4h1" />
<path stroke="#d85a00" d="M38 4h1" />
<path stroke="#cf2000" d="M39 4h1M8 10h1M39 15h1M8 39h1" />
<path stroke="#d70000" d="M0 5h1" />
<path stroke="#fac900" d="M8 5h1M7 6h1M4 10h1M9 33h1M8 34h1M5 38h1" />
<path stroke="#fcb200" d="M9 5h1M9 34h1M6 38h1" />
<path stroke="#ef8d00" d="M10 5h1" />
<path stroke="#d94100" d="M11 5h1" />
<path stroke="#ee0000" d="M12 5h1M5 17h1M0 34h1M39 38h1" />
<path stroke="#f00000" d="M28 5h1M0 6h1M11 7h1M35 9h1M34 21h1M0 24h1M24 30h1M1 34h1" />
<path stroke="#f8ae00" d="M33 5h1" />
<path stroke="#fab500" d="M34 5h1M38 30h1" />
<path stroke="#ef9900" d="M35 5h1M37 15h1" />
<path stroke="#d86000" d="M36 5h1" />
<path stroke="#d04100" d="M37 5h1M7 11h1" />
<path stroke="#d51f00" d="M38 5h1M3 19h1" />
<path stroke="#feb500" d="M8 6h1M5 10h1M36 35h1" />
<path stroke="#e25d00" d="M10 6h1" />
<path stroke="#d92000" d="M11 6h1" />
<path stroke="#fbd944" d="M27 6h1M29 8h1M27 10h1M27 11h2M31 12h1M29 13h1M31 13h1M27 14h1M29 14h1M27 15h1M29 15h1M27 16h1M29 16h1M29 17h1M30 18h1M31 19h1M31 20h1M31 21h1M29 23h1M31 23h1M29 24h1M31 24h1M10 25h1M29 25h1M8 26h1M10 26h1" />
<path stroke="#ffef4c" d="M28 6h1M28 7h2M26 8h1M27 9h1M30 9h1M25 10h1M28 10h1M30 10h1M26 11h1M30 11h1M28 12h1M30 12h1M27 13h2M30 13h1M28 14h1M31 14h1M28 15h1M31 15h1M28 16h1M31 16h1M28 17h1M31 17h2M31 18h2M30 19h1M32 19h1M15 20h1M18 20h1M30 20h1M32 20h1M13 21h2M16 21h1M19 21h1M21 21h1M30 21h1M32 21h1M13 22h1M22 22h2M25 22h1M30 22h1M32 22h1M13 23h1M23 23h1M25 23h1M32 23h1M8 24h1M13 24h1M23 24h1M25 24h1M32 24h1M8 25h1M14 25h1M23 25h1M25 25h1M31 25h2M13 26h1M23 26h1M31 26h1M10 27h1M24 27h1M29 27h1M31 27h1M10 28h1M29 28h1M31 28h1" />
<path stroke="#f66d00" d="M31 6h1M30 7h1M33 16h1M6 23h1M15 27h1M14 28h1M32 28h1M31 29h1M10 30h1M30 30h1M29 31h1M28 32h1" />
<path stroke="#f5c900" d="M33 6h1" />
<path stroke="#ebac00" d="M34 6h1" />
<path stroke="#d56100" d="M35 6h1" />
<path stroke="#c92000" d="M36 6h1M5 14h1M11 35h1" />
<path stroke="#f6cf00" d="M4 7h1M3 8h1M2 9h1M1 10h1M39 19h1M38 21h1M37 22h1M35 25h1M3 26h1M2 27h1M3 36h1M2 37h1" />
<path stroke="#f7d200" d="M5 7h1M3 10h1M2 12h1M1 14h1M0 16h1M5 37h1M33 37h1M4 38h1" />
<path stroke="#feb400" d="M7 7h1" />
<path stroke="#fda600" d="M8 7h1M7 8h1M5 11h1" />
<path stroke="#f68b00" d="M9 7h1" />
<path stroke="#f04100" d="M10 7h1" />
<path stroke="#e8aa03" d="M27 7h1M25 9h1M25 13h1M26 14h1M28 23h1M32 26h1" />
<path stroke="#f6b200" d="M31 7h1" />
<path stroke="#f5ca00" d="M32 7h1" />
<path stroke="#eab300" d="M33 7h1M38 23h1M37 24h1M5 26h1M4 27h1M35 27h1M3 28h1M2 29h1M1 30h1M35 38h1" />
<path stroke="#f7d300" d="M4 8h1M3 9h1M2 11h1M1 13h1M0 15h1M5 36h1M4 37h1" />
<path stroke="#f18e00" d="M8 8h1M7 9h1" />
<path stroke="#e05700" d="M9 8h1" />
<path stroke="#f02000" d="M10 8h1" />
<path stroke="#f8d77c" d="M27 8h1M26 9h1M29 9h1M24 11h2M26 13h1M30 15h1M27 25h1M27 26h1M29 26h1M8 27h1M11 27h1" />
<path stroke="#ffe190" d="M28 8h1M20 20h1M22 21h1M24 21h1" />
<path stroke="#e8ab03" d="M30 8h1" />
<path stroke="#efbc00" d="M31 8h1" />
<path stroke="#e8ae00" d="M32 8h1M0 31h1" />
<path stroke="#d56d00" d="M33 8h1M33 19h1M6 26h1M5 27h1M36 27h1M4 28h1M16 29h1M15 30h1M33 30h1M14 31h1M32 31h1M30 33h1" />
<path stroke="#ce2700" d="M34 8h1M34 19h1M36 28h1M34 30h1" />
<path stroke="#fcac00" d="M6 9h1M4 12h1M2 16h1M8 36h1" />
<path stroke="#d85700" d="M8 9h1M6 12h1M38 15h1M9 37h1M8 38h1" />
<path stroke="#d72000" d="M9 9h1" />
<path stroke="#fbd844" d="M28 9h1M26 10h1M29 10h1M30 14h1M13 20h1M17 20h1M12 21h1M15 21h1M17 21h2M20 21h1M23 21h1M12 22h1M24 22h1M12 23h1M24 23h1M27 23h1M10 24h1M12 24h1M24 24h1M27 24h1M12 25h2M24 25h1M14 26h1M24 26h1" />
<path stroke="#f6aa00" d="M39 9h1" />
<path stroke="#f79c00" d="M6 10h1M2 17h1M9 35h1M6 39h1" />
<path stroke="#d85d00" d="M7 10h1M7 39h1" />
<path stroke="#ef8b00" d="M6 11h1M3 16h1M9 36h1" />
<path stroke="#e8a803" d="M29 11h1M29 12h1M30 16h1M30 17h1M29 18h1M29 22h1M31 22h1M30 23h1M9 24h1M30 24h1M9 25h1M11 25h1M30 25h1M9 26h1M11 26h2M9 27h1M12 27h1M9 28h1" />
<path stroke="#f7af00" d="M38 11h1M39 28h1M11 30h1M8 32h1" />
<path stroke="#f7bd00" d="M39 11h1M12 30h1" />
<path stroke="#f9c700" d="M3 12h1" />
<path stroke="#f28e00" d="M5 12h1" />
<path stroke="#d52000" d="M7 12h1M10 37h1M9 38h1" />
<path stroke="#ffe900" d="M9 12h7M17 12h11M9 13h2M16 13h1M24 13h1M10 14h1M16 14h1M24 14h1M11 15h1M16 15h1M23 15h1M12 16h1M15 16h1M17 16h1M22 16h1M13 17h2M18 17h4M25 33h1M16 34h1M25 34h2M16 35h2M24 35h4M16 36h4M23 36h5M16 37h12M17 38h3M21 38h2M25 38h3M17 39h2M21 39h1M23 39h1M26 39h2" />
<path stroke="#f7b300" d="M37 12h1M10 31h1" />
<path stroke="#f8bc00" d="M38 12h1" />
<path stroke="#f88a00" d="M39 12h1" />
<path stroke="#f19100" d="M4 13h1M10 34h1" />
<path stroke="#d65700" d="M5 13h1" />
<path stroke="#d02000" d="M6 13h1" />
<path stroke="#f7b200" d="M36 13h1" />
<path stroke="#fbae00" d="M38 13h1" />
<path stroke="#f68d00" d="M39 13h1" />
<path stroke="#d95d00" d="M4 14h1M39 14h1M3 17h1M11 34h1M10 35h1" />
<path stroke="#f6ae00" d="M35 14h1M34 16h1M33 17h1M7 23h1" />
<path stroke="#f8c800" d="M36 14h1" />
<path stroke="#fbb300" d="M37 14h1M10 33h1" />
<path stroke="#f19000" d="M38 14h1M7 38h1" />
<path stroke="#f69800" d="M3 15h1" />
<path stroke="#d34900" d="M4 15h1" />
<path stroke="#e8a903" d="M26 15h1M28 24h1M28 25h1M28 26h1M30 26h1M30 27h1M30 28h1" />
<path stroke="#f67400" d="M34 15h1M33 27h1" />
<path stroke="#f6c100" d="M35 15h1" />
<path stroke="#f6c800" d="M36 15h1" />
<path stroke="#d74100" d="M4 16h1M12 34h1" />
<path stroke="#ff8a00" d="M10 16h1M10 17h2M23 17h4M16 18h1M22 18h2M26 18h2M8 19h8M21 19h5M27 19h2M7 20h2M23 20h2M26 20h1M28 20h1M7 21h1M9 21h3M25 21h4M8 22h2M26 22h1M14 23h1M15 24h1M16 25h1M16 26h1M22 26h1M17 27h1M21 27h1M18 28h3" />
<path stroke="#f5bc00" d="M35 16h1" />
<path stroke="#eaad00" d="M36 16h1" />
<path stroke="#d66400" d="M37 16h1" />
<path stroke="#d53300" d="M38 16h1" />
<path stroke="#e85300" d="M39 16h1" />
<path stroke="#f8cd00" d="M0 17h1M11 31h1M4 39h1" />
<path stroke="#d12000" d="M4 17h1" />
<path stroke="#f5ae00" d="M34 17h1M6 24h1M15 28h1M33 28h1M14 29h1M32 29h1M31 30h1M30 31h1M29 32h1" />
<path stroke="#ea7400" d="M35 17h1" />
<path stroke="#d55200" d="M36 17h1" />
<path stroke="#ea5200" d="M38 17h1" />
<path stroke="#f5aa00" d="M39 17h1" />
<path stroke="#f8c900" d="M0 18h1M10 32h1M33 36h1" />
<path stroke="#fba400" d="M1 18h1" />
<path stroke="#ef8700" d="M2 18h1" />
<path stroke="#d14100" d="M3 18h1M10 36h1" />
<path stroke="#efae00" d="M33 18h1M7 24h1" />
<path stroke="#e86d00" d="M34 18h1" />
<path stroke="#ea2800" d="M37 18h1M38 27h1M36 30h1M32 34h1" />
<path stroke="#f57500" d="M38 18h1" />
<path stroke="#f5c100" d="M0 19h1" />
<path stroke="#eb7100" d="M1 19h1" />
<path stroke="#d64100" d="M2 19h1" />
<path stroke="#f55200" d="M37 19h1M39 27h1" />
<path stroke="#efbe00" d="M0 20h1" />
<path stroke="#d55c00" d="M1 20h1" />
<path stroke="#fbd744" d="M14 20h1M16 20h1M21 20h1" />
<path stroke="#fed569" d="M19 20h1" />
<path stroke="#fed469" d="M22 20h1" />
<path stroke="#f52800" d="M36 20h1M35 21h1" />
<path stroke="#ff0000" d="M15 22h2M16 23h3M22 23h1M17 24h1M21 24h2M20 25h2M18 26h3M20 38h1M23 38h2M19 39h2M22 39h1M24 39h2" />
<path stroke="#f0c200" d="M39 22h1" />
<path stroke="#cd9508" d="M10 23h2M11 24h1" />
<path stroke="#fc809a" d="M19 23h3M18 24h3M18 25h2" />
<path stroke="#f65c00" d="M4 24h1M0 26h1M12 29h1M4 34h1M0 36h1" />
<path stroke="#f5cb00" d="M36 24h1" />
<path stroke="#d36e00" d="M38 24h1M1 31h1" />
<path stroke="#c62800" d="M39 24h1" />
<path stroke="#f6bd00" d="M4 25h1M34 26h1M4 35h1M0 37h1" />
<path stroke="#f5bd00" d="M5 25h1M34 27h1M13 30h1" />
<path stroke="#eaae00" d="M6 25h1M16 28h1M34 28h1M15 29h1M33 29h1M14 30h1M32 30h1M31 31h1M30 32h1" />
<path stroke="#d76d00" d="M7 25h1" />
<path stroke="#c60000" d="M26 25h1M25 26h2M24 28h1" />
<path stroke="#f5ce00" d="M4 26h1M35 26h1" />
<path stroke="#f65b00" d="M33 26h1" />
<path stroke="#c50000" d="M25 27h1" />
<path stroke="#e8a703" d="M12 28h1" />
<path stroke="#e82800" d="M37 28h1" />
<path stroke="#f56e00" d="M38 28h1M36 31h1M32 35h1" />
<path stroke="#d56e00" d="M3 29h1M37 37h1M36 38h1" />
<path stroke="#d10000" d="M23 29h1" />
<path stroke="#f05200" d="M37 29h1" />
<path stroke="#f8ad00" d="M38 29h1" />
<path stroke="#ce2800" d="M3 30h1M32 32h1M38 37h1M36 39h1" />
<path stroke="#f57200" d="M37 30h1" />
<path stroke="#f7ca00" d="M12 31h1M35 37h1" />
<path stroke="#f02800" d="M35 31h1" />
<path stroke="#f9ad00" d="M37 31h1" />
<path stroke="#fdb100" d="M38 31h1M34 35h1" />
<path stroke="#ffa900" d="M39 31h1" />
<path stroke="#cc5300" d="M0 32h1" />
<path stroke="#d96900" d="M13 32h1" />
<path stroke="#f52700" d="M34 32h1M2 34h1" />
<path stroke="#fac300" d="M37 32h1" />
<path stroke="#feb100" d="M38 32h1M35 34h1" />
<path stroke="#ffaf00" d="M39 32h1" />
<path stroke="#f7b400" d="M7 33h1" />
<path stroke="#f8ce00" d="M8 33h1M34 37h1" />
<path stroke="#f6a100" d="M11 33h1" />
<path stroke="#ee8900" d="M12 33h1" />
<path stroke="#dd4100" d="M13 33h1" />
<path stroke="#f6a900" d="M28 33h1" />
<path stroke="#efad00" d="M29 33h1" />
<path stroke="#ef2700" d="M33 33h1" />
<path stroke="#f86a00" d="M34 33h1" />
<path stroke="#fac200" d="M36 33h1" />
<path stroke="#f7ce00" d="M7 34h1" />
<path stroke="#eb1f00" d="M13 34h1" />
<path stroke="#d82700" d="M30 34h1" />
<path stroke="#f66b00" d="M33 34h1" />
<path stroke="#faa600" d="M34 34h1" />
<path stroke="#f1c000" d="M39 34h1" />
<path stroke="#f8ac00" d="M33 35h1" />
<path stroke="#ffab00" d="M35 35h1" />
<path stroke="#fdb800" d="M34 36h1" />
<path stroke="#feb700" d="M35 36h1" />
<path stroke="#eab100" d="M37 36h1" />
<path stroke="#c62700" d="M39 36h1" />
<path stroke="#fcb100" d="M7 37h1" />
<path stroke="#f29100" d="M8 37h1" />
<path stroke="#ebb300" d="M36 37h1" />
<path stroke="#fdb700" d="M5 39h1" />
</svg>