<svg xmlns="http://www.w3.org/2000/svg" viewBox="0 -0.5 40 40" shape-rendering="crispEdges">
<metadata>Made with Pixels to Svg https://codepen.io/shshaw/pen/XbxvNj</metadata>
<path stroke="#77b0c7" d="M0 0h31M0 1h15M27 1h4M0 2h2M10 2h5M28 2h5M11 3h2M28 3h5M11 4h2M29 4h11M11 5h1M30 5h10M0 6h3M10 6h2M31 6h9M0 7h11M36 7h4M0 8h11M39 8h1M0 9h11M39 9h1M4 10h6M39 10h1" />
<path stroke="#8bbace" d="M31 0h1M32 1h1M3 2h1M8 2h1M1 5h1M34 7h1M37 10h1" />
<path stroke="#e8f0f4" d="M32 0h1" />
<path stroke="#f5f8fa" d="M33 0h1M31 8h1M33 8h1" />
<path stroke="#feffff" d="M34 0h1M39 16h1M38 17h1" />
<path stroke="#ffffff" d="M35 0h1M14 9h4M22 9h2M11 10h11M23 10h2M11 11h2M15 11h3M21 11h4M11 12h1M16 12h1M22 12h3M16 13h1M22 13h3M14 14h1M16 14h1M19 14h1M22 14h3M16 15h1M22 15h4M16 16h1M22 16h1M39 17h1M21 30h1M19 31h3M20 32h1M20 33h1" />
<path stroke="#f6f9fb" d="M36 0h1" />
<path stroke="#a0c5d6" d="M37 0h1" />
<path stroke="#8fbed1" d="M38 0h1" />
<path stroke="#8fbcd0" d="M39 0h1M36 8h1" />
<path stroke="#77b1c8" d="M15 1h1M26 1h1M27 2h1M13 3h1M30 6h1M3 10h1M35 11h1" />
<path stroke="#79b3ca" d="M16 1h1M23 1h3M0 10h3M4 11h6M36 11h4M33 12h2" />
<path stroke="#a97104" d="M17 1h3M21 1h1M15 2h3M20 2h5M14 3h3M19 3h8M13 4h4M18 4h10M12 5h4M18 5h11M12 6h4M17 6h13M11 7h19M11 8h1M24 8h6M25 9h6M25 10h6M25 11h3M29 11h2M25 12h2M30 12h1M25 13h2M30 13h1M25 14h2M29 14h2M26 15h2M29 15h2M27 16h3M27 17h2M27 18h2M27 19h2M27 20h2M27 21h2M27 22h2M27 23h2M12 24h2M27 24h2M12 25h2M27 25h2M12 26h2M27 26h2M12 27h2M27 27h2M12 28h2M27 28h2M12 29h2M28 29h1M12 30h2M28 30h2M11 31h2M29 31h1M11 32h1M29 32h3M11 33h1M31 33h2" />
<path stroke="#825808" d="M20 1h1M18 2h2M17 3h2M17 4h1M16 5h2M16 6h1M28 11h1M27 12h3M27 13h3M27 14h2M28 15h1" />
<path stroke="#c78508" d="M22 1h1M25 2h1M27 3h1M28 4h1M29 5h1M30 7h1M30 8h1M29 29h1M30 31h1M12 32h1M32 32h1M12 33h1" />
<path stroke="#7ab2c8" d="M31 1h1M9 2h1M0 3h1M10 3h1M0 5h1M10 5h1M35 7h1M38 8h1M38 10h1" />
<path stroke="#9ec4d4" d="M33 1h1" />
<path stroke="#f3f7f8" d="M34 1h1" />
<path stroke="#fdfdfd" d="M35 1h1M5 4h3M32 9h1M36 18h4M6 28h2" />
<path stroke="#fcfdfd" d="M36 1h1M4 4h1M31 9h1M33 9h1M5 28h1M8 28h1" />
<path stroke="#f4f6f8" d="M37 1h1" />
<path stroke="#f2f5f7" d="M38 1h2" />
<path stroke="#7ab1c8" d="M2 2h1" />
<path stroke="#8dbbcf" d="M4 2h4M31 7h3" />
<path stroke="#7ab5cc" d="M26 2h1M3 11h1M35 12h1" />
<path stroke="#88b7cb" d="M33 2h1M8 6h1M33 11h1" />
<path stroke="#dae1e5" d="M34 2h1" />
<path stroke="#e4e6e8" d="M35 2h5M5 5h3M32 10h1" />
<path stroke="#8bbbcf" d="M1 3h1" />
<path stroke="#9dc4d5" d="M2 3h1" />
<path stroke="#eaf1f6" d="M3 3h1" />
<path stroke="#f4f8fa" d="M4 3h1M4 28h1M9 28h1" />
<path stroke="#f6f8fa" d="M5 3h3M32 8h1" />
<path stroke="#ecf3f6" d="M8 3h1" />
<path stroke="#9dc4d6" d="M9 3h1" />
<path stroke="#79b1c8" d="M33 3h1M3 6h1M9 6h1M34 11h1" />
<path stroke="#87b7cb" d="M34 3h1M4 6h1" />
<path stroke="#8ab8cb" d="M35 3h5M5 6h3M32 11h1" />
<path stroke="#88b9cd" d="M0 4h1" />
<path stroke="#dce9ef" d="M1 4h1" />
<path stroke="#e8f0f5" d="M2 4h1" />
<path stroke="#f3f7f9" d="M3 4h1" />
<path stroke="#fbfcfc" d="M8 4h1" />
<path stroke="#e0ecf1" d="M9 4h1" />
<path stroke="#8abace" d="M10 4h1" />
<path stroke="#8dbbce" d="M2 5h1M35 10h2" />
<path stroke="#99c1d1" d="M3 5h1" />
<path stroke="#dce2e5" d="M4 5h1" />
<path stroke="#dce2e6" d="M8 5h1M33 10h1" />
<path stroke="#98c0d1" d="M9 5h1" />
<path stroke="#f3eded" d="M12 8h12M24 9h1M21 29h1M19 30h2" />
<path stroke="#ecf2f6" d="M34 8h1" />
<path stroke="#9fc5d7" d="M35 8h1" />
<path stroke="#8cbbcf" d="M37 8h1" />
<path stroke="#000000" d="M11 9h3M18 9h4M10 10h1M22 10h1M10 11h1M13 11h2M18 11h3M10 12h1M12 12h1M15 12h1M17 12h1M21 12h1M11 13h1M15 13h1M17 13h1M21 13h1M11 14h1M15 14h1M17 14h1M20 14h2M10 15h2M14 15h2M17 15h1M19 15h3M9 16h1M11 16h1M14 16h2M17 16h1M19 16h3M23 16h4M9 17h1M12 17h1M14 17h4M19 17h4M8 18h8M17 18h1M20 18h2M24 18h2M7 19h1M16 19h5M26 19h1M29 19h1M6 20h1M9 20h4M25 20h1M29 20h1M6 21h1M8 21h1M13 21h4M24 21h1M29 21h1M7 22h1M17 22h8M8 23h1M23 23h1M26 23h1M16 24h1M23 24h1M25 24h1M15 25h1M22 25h1M24 25h1M15 26h1M17 26h1M21 26h1M23 26h1M16 27h1M18 27h3M22 27h1M17 28h1M21 28h2M18 29h3M23 29h1M17 30h1M24 30h1M17 31h1M25 31h1M16 32h1M26 32h1M15 33h2M26 33h1M15 34h1M27 34h3M14 35h1M30 35h2M13 36h1M31 36h2M12 37h1M17 37h1M32 37h1M12 38h1M16 38h1M28 38h1M33 38h1M12 39h1M15 39h2M28 39h2M33 39h1" />
<path stroke="#f3f7fa" d="M34 9h1" />
<path stroke="#e9f1f5" d="M35 9h1" />
<path stroke="#e7eff4" d="M36 9h1" />
<path stroke="#dde9f0" d="M37 9h1" />
<path stroke="#8ab9ce" d="M38 9h1" />
<path stroke="#dce3e8" d="M31 10h1" />
<path stroke="#9ac1d2" d="M34 10h1" />
<path stroke="#83c1db" d="M0 11h2M4 12h6M37 12h3M31 13h4" />
<path stroke="#82c0d9" d="M2 11h1M36 12h1" />
<path stroke="#89b9ce" d="M31 11h1" />
<path stroke="#84c3dd" d="M0 12h3M0 13h11M36 13h4M0 14h11M31 14h7M0 15h10M31 15h6M0 16h9M30 16h4M0 17h9M29 17h4M0 18h8M29 18h3M0 19h7M30 19h2M0 20h6M30 20h2M0 21h6M30 21h3M0 22h7M29 22h11M0 23h8M10 23h1M29 23h11M0 24h12M26 24h1M29 24h11M0 25h12M14 25h1M25 25h2M29 25h11M0 26h4M10 26h2M14 26h1M24 26h3M29 26h11M0 27h2M14 27h2M23 27h4M29 27h11M0 28h1M14 28h3M23 28h4M29 28h11M0 29h1M14 29h4M24 29h4M30 29h10M0 30h1M14 30h3M25 30h3M30 30h10M0 31h5" />
<path stroke="#83c2dc" d="M3 12h1M35 13h1" />
<path stroke="#c3d9f9" d="M13 12h2M18 12h3M12 13h3M18 13h3M12 14h2M18 14h1M12 15h2M18 15h1M12 16h2M18 16h1M13 17h1M18 17h1M18 18h2" />
<path stroke="#79b3cb" d="M31 12h1" />
<path stroke="#79b2ca" d="M32 12h1" />
<path stroke="#87c5de" d="M38 14h1M37 15h1M34 16h1" />
<path stroke="#96cce3" d="M39 14h1" />
<path stroke="#a4d2e5" d="M38 15h1" />
<path stroke="#ecf5fa" d="M39 15h1" />
<path stroke="#ff8a00" d="M10 16h1M10 17h2M23 17h4M16 18h1M22 18h2M26 18h1M8 19h8M21 19h5M7 20h2M13 20h12M26 20h1M7 21h1M17 21h7M25 21h2M8 22h1M25 22h2M24 23h2M24 24h1M16 25h1M23 25h1M16 26h1M22 26h1M17 27h1M21 27h1M18 28h3" />
<path stroke="#96cce2" d="M35 16h1" />
<path stroke="#98cce4" d="M36 16h1M6 26h2" />
<path stroke="#a6d3e6" d="M37 16h1" />
<path stroke="#edf5fa" d="M38 16h1M8 27h1" />
<path stroke="#86c4de" d="M33 17h1M32 18h1M32 20h1M2 27h1M11 27h1M1 28h1M1 30h1M11 30h1" />
<path stroke="#a0cfe3" d="M34 17h1" />
<path stroke="#ebf4f9" d="M35 17h1" />
<path stroke="#f5f9fc" d="M36 17h1M6 27h2" />
<path stroke="#f7fafd" d="M37 17h1" />
<path stroke="#9ecbe0" d="M33 18h1" />
<path stroke="#dfe5ea" d="M34 18h1" />
<path stroke="#fafbfb" d="M35 18h1" />
<path stroke="#90c7df" d="M32 19h1M1 29h1" />
<path stroke="#d1dee6" d="M33 19h1" />
<path stroke="#e1e5e9" d="M34 19h1" />
<path stroke="#e5e8eb" d="M35 19h5M4 29h6" />
<path stroke="#92c9df" d="M33 20h1" />
<path stroke="#94c9df" d="M34 20h6" />
<path stroke="#fc809d" d="M9 21h1M11 21h1M9 22h1M11 22h1M14 22h1M22 23h1" />
<path stroke="#ff678e" d="M10 21h1M10 22h1M13 22h1M16 22h1M13 23h1M16 23h1" />
<path stroke="#fc809f" d="M12 21h1M12 22h1M15 22h1" />
<path stroke="#84c4dd" d="M33 21h7" />
<path stroke="#fff3dc" d="M9 23h1M11 23h1" />
<path stroke="#fff9ed" d="M12 23h1M14 23h2M17 23h2M14 24h2M17 24h2M21 24h2M17 25h2" />
<path stroke="#ff6795" d="M19 23h1" />
<path stroke="#ff6791" d="M20 23h1" />
<path stroke="#fc809a" d="M21 23h1" />
<path stroke="#ff0000" d="M19 24h2M19 25h3M18 26h3" />
<path stroke="#87c4de" d="M4 26h1M9 26h1" />
<path stroke="#96cbe3" d="M5 26h1M8 26h1" />
<path stroke="#95cae2" d="M3 27h1" />
<path stroke="#a4d1e6" d="M4 27h1" />
<path stroke="#ebf4fa" d="M5 27h1" />
<path stroke="#a6d2e6" d="M9 27h1" />
<path stroke="#95cbe2" d="M10 27h1" />
<path stroke="#a0cee2" d="M2 28h1" />
<path stroke="#e9f2f6" d="M3 28h1M10 28h1" />
<path stroke="#96cbe1" d="M11 28h1" />
<path stroke="#d3dfe7" d="M2 29h1" />
<path stroke="#e4e7eb" d="M3 29h1" />
<path stroke="#dce4ea" d="M10 29h1" />
<path stroke="#93c9df" d="M11 29h1" />
<path stroke="#810707" d="M22 29h1M18 30h1M22 30h1M18 31h1M22 31h1M19 32h1M21 32h1M19 33h1M21 33h2M16 34h1M18 34h1M20 34h1M23 34h1M25 34h1M17 35h2M24 35h1M19 36h1M20 37h1M21 38h1M22 39h1" />
<path stroke="#92c8df" d="M2 30h1M10 30h1" />
<path stroke="#94c8df" d="M3 30h7" />
<path stroke="#cf0404" d="M23 30h1M23 31h2M17 32h2M22 32h4M17 33h2M23 33h3M17 34h1M19 34h1M21 34h2M24 34h1M26 34h1M15 35h2M19 35h5M25 35h5M14 36h5M20 36h11M13 37h4M18 37h2M21 37h11M13 38h3M17 38h4M22 38h6M29 38h4M13 39h2M17 39h5M23 39h5M30 39h3" />
<path stroke="#84c4de" d="M5 31h1" />
<path stroke="#87c7e1" d="M6 31h5M13 31h4M26 31h3M31 31h9M0 32h5" />
<path stroke="#89cae4" d="M5 32h1" />
<path stroke="#99d9f3" d="M6 32h1" />
<path stroke="#9bdbf6" d="M7 32h4M13 32h3M27 32h2M33 32h7M0 33h5" />
<path stroke="#9bdcf7" d="M5 33h1" />
<path stroke="#9edef8" d="M6 33h5M13 33h2M27 33h4M33 33h7M0 34h15M30 34h10M0 35h14M32 35h8M0 36h13M33 36h7M0 37h12M33 37h7M0 38h12M34 38h6M0 39h12M34 39h6" />
</svg>