<svg xmlns="http://www.w3.org/2000/svg" viewBox="0 -0.5 40 40" shape-rendering="crispEdges">
<metadata>Made with Pixels to Svg https://codepen.io/shshaw/pen/XbxvNj</metadata>
<path stroke="#d30404" d="M0 0h24M28 0h12M0 1h11M13 1h7M30 1h10M0 2h10M16 2h2M31 2h1M34 2h6M0 3h6M31 3h1M34 3h2M39 3h1M0 4h6M34 4h2M39 4h1M0 5h2M39 5h1M0 6h2M39 6h1M0 7h1M0 8h1M19 23h3M18 24h3M18 25h1" />
<path stroke="#000007" d="M24 0h4M20 1h10M18 2h12M17 3h12M15 4h13M14 5h14M11 6h16M11 7h16M10 8h17M10 9h6M20 9h8M9 10h6M21 10h7M9 11h4M22 11h7M9 12h3M23 12h6M9 13h2M25 13h4M9 14h2M25 14h5M9 15h2M26 15h4M26 16h4M26 17h4M26 18h4M27 19h3M27 20h3M27 21h3M28 22h2M10 23h2M27 23h3M10 24h4M26 24h3M12 25h3M25 25h4M12 26h4M24 26h5M13 27h3M23 27h6M13 28h5M23 28h5M14 29h5M20 29h7M30 29h1M15 30h11M29 30h2M13 31h12M28 31h3M12 32h13M28 32h4M11 33h13M25 33h1M28 33h5M10 34h13M26 34h1M29 34h5M9 35h13M23 35h1M29 35h6M8 36h14M24 36h1M32 36h4M8 37h13M30 37h2M33 37h3M7 38h13M23 38h2M29 38h4M34 38h3M7 39h12M22 39h4M28 39h6M35 39h2" />
<path stroke="#e40000" d="M11 1h2M10 2h6M30 2h1M32 2h2M6 3h6M29 3h2M32 3h2M36 3h3M6 4h4M28 4h6M36 4h3M2 5h6M31 5h8M2 6h4M34 6h3M38 6h1M1 7h4M8 7h3M35 7h2M38 7h2M1 8h3M6 8h4M27 8h2M38 8h2M0 9h2M3 9h7M28 9h3M38 9h2M0 10h2M3 10h6M28 10h1M30 10h3M39 10h1M0 11h2M3 11h6M30 11h4M0 12h2M3 12h6M31 12h3M0 13h2M3 13h6M31 13h3M0 14h2M3 14h2M6 14h3M31 14h3M0 15h2M3 15h2M6 15h3M31 15h3M0 16h2M3 16h2M6 16h1M31 16h3M39 16h1M0 17h2M3 17h2M6 17h1M31 17h3M39 17h1M0 18h2M3 18h2M6 18h1M31 18h3M38 18h2M0 19h2M3 19h2M6 19h1M31 19h3M38 19h2M0 20h2M3 20h2M31 20h3M38 20h2M0 21h1M3 21h3M31 21h2M38 21h2M0 22h1M4 22h3M31 22h2M38 22h2M0 23h1M4 23h3M31 23h1M37 23h3M0 24h1M37 24h3M0 25h1M10 25h2M33 25h1M37 25h3M0 26h1M10 26h2M32 26h2M37 26h3M0 27h2M10 27h2M31 27h2M38 27h2M0 28h2M38 28h2M0 29h2M39 29h1M0 30h1" />
<path stroke="#f5f5f5" d="M12 3h5M10 4h2M8 5h1M28 5h2M6 6h2M30 6h2M5 7h1M32 7h2M34 8h2M35 9h2M15 10h3M36 10h2M37 11h3M38 12h2M23 13h1M23 14h2M25 15h1M25 34h1M22 35h1M26 35h1M25 37h1M26 38h2" />
<path stroke="#bfbbb7" d="M12 4h3M9 5h1M8 6h1M27 6h3M6 7h1M30 7h2M32 8h2M16 9h2M34 9h1M18 10h3M35 10h1M21 11h1M36 11h1M22 12h1M24 13h1M38 13h1M22 36h2M24 37h1M25 38h1" />
<path stroke="#b0aba7" d="M10 5h4M9 6h2M7 7h1M27 7h3M5 8h1M29 8h3M31 9h3M33 10h2M34 11h2M35 12h3M36 13h2M37 14h1" />
<path stroke="#ffffff" d="M30 5h1M32 6h1M34 7h1M36 8h1M37 9h1M38 10h1M15 11h3M16 12h1M16 13h1M22 13h1M14 14h1M16 14h1M19 14h1M22 14h1M16 15h1M22 15h3M16 16h1M22 16h1M25 32h2M24 33h1M26 33h2M23 34h2M27 34h2M24 35h2M27 35h2M25 36h5M26 37h3" />
<path stroke="#ff0000" d="M33 6h1M37 6h1M37 7h1M37 8h1M2 9h1M2 10h1M29 10h1M2 11h1M29 11h1M2 12h1M29 12h2M34 12h1M2 13h1M29 13h2M34 13h2M2 14h1M5 14h1M30 14h1M34 14h3M2 15h1M5 15h1M30 15h1M34 15h3M2 16h1M5 16h1M7 16h2M30 16h1M34 16h3M2 17h1M5 17h1M7 17h2M30 17h1M34 17h2M2 18h1M5 18h1M7 18h1M30 18h1M34 18h1M2 19h1M5 19h1M30 19h1M34 19h1M37 19h1M2 20h1M5 20h1M30 20h1M37 20h1M1 21h2M30 21h1M36 21h2M1 22h3M30 22h1M35 22h3M1 23h3M7 23h1M30 23h1M34 23h3M1 24h9M29 24h2M34 24h3M1 25h9M29 25h1M34 25h3M1 26h9M34 26h3M2 27h8M12 27h1M33 27h5M2 28h11M31 28h7M2 29h12M31 29h8M1 30h14M31 30h9M0 31h13M31 31h9M0 32h12M32 32h8M0 33h11M33 33h7M0 34h10M34 34h6M0 35h9M35 35h5M0 36h8M36 36h4M0 37h8M36 37h4M0 38h7M37 38h3M0 39h7M37 39h3" />
<path stroke="#f8f5f5" d="M4 8h1" />
<path stroke="#000000" d="M18 9h2M13 11h2M18 11h3M12 12h1M15 12h1M17 12h1M21 12h1M11 13h1M15 13h1M17 13h1M21 13h1M11 14h1M15 14h1M17 14h1M20 14h2M11 15h1M14 15h2M17 15h1M19 15h3M9 16h1M11 16h1M14 16h2M17 16h1M19 16h3M23 16h3M9 17h1M12 17h1M14 17h4M19 17h4M8 18h8M17 18h1M20 18h2M24 18h2M7 19h1M16 19h5M26 19h1M6 20h1M9 20h4M25 20h1M6 21h1M8 21h1M13 21h4M24 21h1M7 22h1M10 22h3M14 22h1M17 22h8M27 22h1M8 23h2M12 23h2M15 23h1M23 23h1M26 23h1M14 24h1M16 24h1M23 24h1M25 24h1M15 25h1M17 25h1M22 25h1M24 25h1M17 26h1M21 26h1M23 26h1M16 27h1M18 27h3M22 27h1M21 28h2M19 29h1" />
<path stroke="#c3d9f9" d="M13 12h2M18 12h3M12 13h3M18 13h3M12 14h2M18 14h1M12 15h2M18 15h1M12 16h2M18 16h1M13 17h1M18 17h1M18 18h2" />
<path stroke="#964404" d="M39 13h1M38 14h2M37 15h2M37 16h2M36 17h2M35 18h2M35 19h2M34 20h2M33 21h2M33 22h1M32 23h2M31 24h2M30 25h2M29 26h2M29 27h1M28 28h2M27 29h2M26 30h2M25 31h2M21 37h2M20 38h2M19 39h2" />
<path stroke="#b65001" d="M39 15h1M38 17h1M37 18h1M36 20h1M35 21h1M34 22h1M33 24h1M32 25h1M31 26h1M30 27h1M30 28h1M29 29h1M28 30h1M27 31h1M27 32h1M23 37h1M22 38h1M21 39h1" />
<path stroke="#ff8a00" d="M10 16h1M10 17h2M23 17h3M16 18h1M22 18h2M8 19h8M21 19h5M7 20h2M13 20h12M26 20h1M7 21h1M9 21h4M17 21h7M25 21h2M8 22h2M13 22h1M25 22h2M14 23h1M24 23h2M15 24h1M24 24h1M16 25h1M23 25h1M16 26h1M22 26h1M17 27h1M21 27h1M18 28h3" />
<path stroke="#fc809a" d="M15 22h2M16 23h3M22 23h1M17 24h1M21 24h2M19 25h3M18 26h3" />
<path stroke="#42016c" d="M30 36h2M29 37h1M32 37h1M28 38h1M33 38h1M26 39h2M34 39h1" />
</svg>