<svg xmlns="http://www.w3.org/2000/svg" viewBox="0 -0.5 40 40" shape-rendering="crispEdges">
<metadata>Made with Pixels to Svg https://codepen.io/shshaw/pen/XbxvNj</metadata>
<path stroke="#000000" d="M0 0h13M27 0h13M0 1h11M29 1h11M0 2h9M31 2h9M0 3h7M32 3h8M0 4h6M33 4h7M0 5h5M33 5h7M0 6h5M34 6h6M0 7h4M35 7h5M0 8h4M35 8h5M0 9h3M18 9h4M36 9h4M0 10h3M22 10h1M36 10h4M0 11h3M13 11h2M18 11h3M37 11h3M0 12h2M12 12h4M17 12h5M37 12h3M0 13h2M11 13h1M15 13h1M17 13h5M37 13h3M0 14h2M11 14h1M15 14h1M17 14h1M21 14h1M36 14h4M0 15h1M11 15h1M15 15h1M17 15h1M21 15h1M36 15h4M0 16h1M9 16h1M11 16h5M17 16h1M21 16h1M23 16h3M36 16h4M0 17h1M9 17h1M11 17h10M22 17h1M37 17h3M0 18h1M8 18h8M17 18h4M24 18h2M37 18h3M7 19h1M16 19h5M37 19h3M6 20h1M9 20h4M25 20h1M37 20h3M6 21h1M8 21h1M13 21h4M24 21h1M37 21h3M7 22h1M10 22h3M14 22h1M17 22h8M37 22h3M0 23h1M8 23h2M12 23h2M15 23h1M23 23h1M37 23h3M0 24h1M14 24h1M16 24h1M23 24h1M25 24h1M37 24h3M0 25h1M15 25h1M17 25h1M22 25h1M24 25h1M37 25h3M0 26h1M15 26h1M17 26h1M21 26h1M23 26h1M37 26h3M0 27h1M3 27h1M15 27h2M18 27h3M22 27h1M37 27h3M0 28h1M3 28h1M15 28h3M21 28h2M27 28h1M37 28h3M0 29h2M3 29h1M15 29h5M22 29h1M24 29h2M27 29h1M37 29h3M0 30h2M3 30h1M5 30h1M15 30h4M22 30h4M27 30h1M37 30h3M0 31h2M3 31h1M5 31h1M13 31h1M15 31h4M23 31h3M27 31h1M30 31h1M37 31h3M0 32h2M3 32h1M5 32h1M9 32h1M13 32h4M19 32h1M22 32h1M25 32h1M27 32h1M30 32h1M37 32h3M0 33h2M3 33h1M5 33h1M7 33h1M9 33h1M13 33h4M20 33h1M22 33h1M27 33h1M30 33h2M35 33h1M37 33h3M0 34h2M3 34h1M5 34h1M7 34h1M9 34h1M13 34h3M19 34h1M23 34h1M27 34h1M30 34h3M34 34h2M37 34h3M0 35h2M3 35h1M5 35h1M7 35h1M13 35h3M20 35h1M22 35h1M30 35h3M34 35h6M0 36h4M5 36h1M7 36h1M10 36h1M13 36h1M16 36h1M19 36h1M23 36h1M25 36h1M31 36h9M0 37h6M7 37h1M10 37h2M17 37h2M24 37h1M32 37h8M0 38h6M7 38h5M16 38h1M28 38h1M33 38h7M0 39h13M15 39h2M28 39h2M33 39h7" />
<path stroke="#fb63d9" d="M13 0h5M20 0h7M11 1h1M20 1h2M25 1h4M9 2h1M28 2h3M7 3h2M29 3h3M6 4h2M30 4h3M5 5h1M31 5h2M5 6h1M32 6h2M4 7h1M18 7h1M21 7h1M33 7h2M4 8h1M13 8h1M33 8h2M3 9h2M12 9h1M26 9h1M34 9h2M3 10h2M11 10h1M34 10h2M3 11h1M10 11h1M27 11h1M35 11h2M2 12h2M10 12h1M27 12h1M35 12h2M2 13h2M27 13h1M35 13h2M2 14h1M1 15h2M1 16h2M1 17h2M1 18h1M4 18h1M0 19h2M4 19h1M0 20h2M4 20h1M0 21h1M0 22h1M3 22h1M3 23h1M3 24h1M3 25h1M3 26h1M23 27h1M23 28h1M23 29h1" />
<path stroke="#ffde0a" d="M18 0h1M22 1h1M24 1h1M19 2h2M24 2h4M17 3h5M23 3h2M27 3h2M10 4h1M16 4h3M20 4h2M24 4h2M28 4h2M9 5h1M14 5h3M22 5h1M25 5h2M29 5h2M8 6h1M13 6h2M23 6h2M26 6h2M30 6h2M7 7h1M12 7h2M23 7h2M27 7h2M31 7h2M5 8h2M11 8h2M24 8h2M27 8h2M31 8h2M5 9h2M10 9h2M24 9h2M28 9h2M32 9h2M5 10h1M10 10h1M25 10h2M28 10h2M32 10h2M4 11h2M9 11h1M25 11h2M29 11h1M33 11h1M4 12h1M9 12h1M25 12h2M29 12h2M33 12h2M4 13h1M8 13h2M26 13h1M29 13h2M33 13h2M3 14h2M8 14h2M26 14h2M30 14h1M33 14h2M3 15h1M7 15h2M26 15h2M30 15h1M34 15h1M3 16h1M26 16h2M30 16h2M34 16h1M3 17h1M27 17h1M30 17h2M34 17h1M2 18h2M27 18h1M31 18h1M34 18h2M2 19h2M27 19h1M31 19h1M34 19h2M2 20h1M27 20h1M31 20h1M34 20h2M2 21h1M27 21h2M31 21h1M34 21h2M1 22h2M27 22h2M31 22h1M35 22h1M1 23h2M6 23h1M27 23h2M31 23h1M35 23h1M1 24h2M6 24h1M27 24h2M31 24h2M35 24h1M1 25h1M6 25h1M27 25h2M31 25h2M35 25h1M1 26h1M6 26h1M27 26h2M31 26h2M35 26h1M1 27h1M6 27h1M27 27h2M31 27h2M35 27h1M1 28h1M6 28h1M28 28h1M31 28h2M35 28h1M6 29h1M28 29h1M31 29h2M35 29h1M6 30h1M28 30h1M31 30h2M35 30h1M6 31h1M28 31h1M31 31h2M35 31h1M6 32h1M28 32h1M31 32h2M35 32h1M6 33h1M28 33h1M32 33h1M6 34h1M28 34h1M6 35h1M6 36h1M6 37h1M6 38h1" />
<path stroke="#fb63dd" d="M19 0h1M22 3h1M22 4h2M23 5h2M30 11h1M31 12h1M31 13h1M31 14h1M31 15h1M32 16h1M32 17h1M30 18h1M32 18h1M30 19h1M32 19h1M30 20h1M32 20h1M1 21h1M30 21h1M32 21h1M30 22h1M32 22h1M30 23h1M32 23h1M30 24h1M30 25h1M30 26h1M30 27h1M30 28h1M30 29h1M30 30h1" />
<path stroke="#ffdd0a" d="M12 1h8M10 2h5M22 2h1M9 3h3M8 4h2M6 5h3M6 6h2M20 6h2M5 7h2M19 7h2M7 16h2M7 17h2M7 18h1M6 22h1M14 25h1M14 26h1M14 27h1M14 28h1M14 29h1M14 30h1M14 31h1M17 32h1M23 32h1M18 33h1M24 33h1M17 34h1M25 34h1M16 35h1M18 35h1M24 35h1M17 36h1" />
<path stroke="#fb63d8" d="M23 1h1M21 2h1M10 5h1M13 5h1M19 5h1M12 6h1M15 6h2M18 6h2M22 6h1M8 7h1M11 7h1M14 7h2M22 7h1M7 8h1M10 8h1M14 8h1M23 8h1M9 9h1M6 10h1M9 10h1M24 10h1M6 11h1M8 11h1M34 11h1M5 12h1M8 12h1M5 13h1M10 13h1M25 13h1M5 14h1M7 14h1M10 14h1M25 14h1M35 14h1M4 15h1M10 15h1M35 15h1M4 16h1M35 16h1M4 17h1M26 17h1M35 17h2M26 18h1M36 18h1M26 19h1M36 19h1M3 20h1M26 20h1M29 20h1M36 20h1M3 21h1M26 21h1M29 21h1M36 21h1M26 22h1M29 22h1M36 22h1M11 23h1M26 23h1M29 23h1M36 23h1M9 24h1M11 24h2M26 24h1M29 24h1M36 24h1M2 25h1M9 25h1M11 25h2M26 25h1M29 25h1M36 25h1M2 26h1M9 26h1M12 26h1M26 26h1M29 26h1M36 26h1M2 27h1M9 27h1M12 27h1M26 27h1M29 27h1M36 27h1M2 28h1M9 28h1M12 28h1M26 28h1M29 28h1M36 28h1M2 29h1M9 29h1M12 29h1M26 29h1M29 29h1M36 29h1M2 30h1M9 30h1M12 30h1M26 30h1M29 30h1M36 30h1M2 31h1M9 31h1M12 31h1M26 31h1M29 31h1M36 31h1M2 32h1M12 32h1M26 32h1M29 32h1M36 32h1M2 33h1M12 33h1M26 33h1M29 33h1M33 33h1M36 33h1M2 34h1M12 34h1M26 34h1M29 34h1M33 34h1M36 34h1M2 35h1M12 35h1M26 35h1M29 35h1M33 35h1M12 36h1M26 36h1M29 36h1M12 37h1M26 37h1M26 38h1" />
<path stroke="#0affa6" d="M15 2h4M23 2h1M12 3h5M25 3h2M11 4h5M26 4h2M11 5h2M17 5h1M20 5h2M27 5h2M10 6h2M25 6h1M28 6h2M9 7h2M25 7h2M29 7h2M8 8h2M26 8h1M29 8h2M7 9h2M13 9h1M27 9h1M30 9h2M7 10h2M12 10h1M27 10h1M30 10h2M7 11h1M28 11h1M31 11h2M6 12h2M11 12h1M28 12h1M32 12h1M6 13h2M28 13h1M32 13h1M6 14h1M28 14h2M32 14h1M5 15h2M9 15h1M28 15h2M32 15h2M5 16h2M28 16h2M33 16h1M5 17h2M28 17h2M33 17h1M5 18h1M28 18h2M33 18h1M28 19h2M33 19h1M5 20h1M28 20h1M33 20h1M4 21h2M33 21h1M33 22h2M4 23h1M7 23h1M33 23h2M4 24h1M7 24h2M10 24h1M33 24h2M4 25h1M7 25h2M10 25h1M33 25h2M4 26h1M7 26h2M10 26h2M33 26h2M7 27h2M10 27h2M33 27h2M7 28h2M10 28h2M33 28h2M7 29h2M10 29h2M33 29h2M7 30h2M10 30h2M33 30h2M7 31h2M10 31h2M33 31h2M7 32h2M10 32h2M33 32h2M8 33h1M10 33h2M34 33h1M8 34h1M10 34h2M8 35h4M28 35h1M8 36h2M11 36h1M8 37h2" />
<path stroke="#0affa3" d="M19 4h1M18 5h1M17 6h1M16 7h2M11 11h1M6 18h1M5 19h2M4 22h2M5 23h1M10 23h1M5 24h1M13 24h1M5 25h1M13 25h1M25 25h1M5 26h1M13 26h1M24 26h2M4 27h2M13 27h1M24 27h2M4 28h2M13 28h1M24 28h2M4 29h2M13 29h1M4 30h1M13 30h1M4 31h1M4 32h1M18 32h1M24 32h1M4 33h1M17 33h1M19 33h1M21 33h1M23 33h1M25 33h1M4 34h1M16 34h1M18 34h1M20 34h3M24 34h1M4 35h1M17 35h1M19 35h1M21 35h1M23 35h1M25 35h1M4 36h1M18 36h1M24 36h1" />
<path stroke="#fa62d8" d="M9 6h1M12 38h1" />
<path stroke="#ffffff" d="M15 8h8M14 9h4M22 9h2M13 10h9M23 10h1M12 11h1M15 11h3M21 11h4M16 12h1M22 12h3M16 13h1M22 13h3M13 14h1M16 14h1M22 14h3M16 15h1M19 15h1M22 15h4M16 16h1M22 16h1M20 29h2M19 30h3M19 31h4M20 32h2M27 35h1M14 36h2M20 36h3M27 36h2M30 36h1M13 37h4M19 37h5M25 37h1M27 37h5M13 38h3M17 38h9M27 38h1M29 38h4M13 39h2M17 39h11M30 39h3" />
<path stroke="#fff092" d="M12 13h1M14 13h1M19 14h1M12 15h1M14 15h1M18 15h1M20 15h1M19 16h1" />
<path stroke="#f7e367" d="M13 13h1M12 14h1M14 14h1M18 14h1M20 14h1M13 15h1M18 16h1M20 16h1" />
<path stroke="#ff8a00" d="M10 16h1M10 17h1M23 17h3M16 18h1M23 18h1M8 19h2M12 19h4M21 19h2M24 19h2M7 20h2M13 20h12M7 21h1M9 21h4M17 21h6M25 21h1M8 22h2M13 22h1M25 22h1M14 23h1M24 23h2M15 24h1M24 24h1M16 25h1M23 25h1M16 26h1M22 26h1M17 27h1M21 27h1M18 28h3" />
<path stroke="#ff0000" d="M21 17h1M21 18h2M23 19h1M23 21h1M15 22h2M16 23h3M22 23h1M17 24h1M21 24h2M20 25h2M18 26h3" />
<path stroke="#ff8900" d="M10 19h2" />
<path stroke="#fc809a" d="M19 23h3M18 24h3M18 25h2" />
</svg>