<svg xmlns="http://www.w3.org/2000/svg" viewBox="0 -0.5 40 40" shape-rendering="crispEdges">
<metadata>Made with Pixels to Svg https://codepen.io/shshaw/pen/XbxvNj</metadata>
<path stroke="#5f821b" d="M0 0h11M15 0h25M0 1h10M19 1h2M24 1h16M0 2h9M25 2h15M0 3h8M30 3h10M0 4h7M32 4h8M0 5h7M33 5h7M0 6h7M34 6h6M0 7h8M35 7h5M0 8h9M35 8h5M0 9h11M35 9h5M0 10h10M35 10h5M0 11h10M34 11h6M0 12h10M28 12h1M34 12h6M0 13h8M9 13h2M29 13h3M34 13h6M0 14h5M7 14h4M30 14h2M35 14h5M0 15h4M6 15h4M30 15h3M36 15h4M0 16h4M6 16h3M29 16h2M32 16h2M35 16h5M0 17h9M29 17h11M0 18h3M5 18h3M29 18h2M32 18h8M0 19h3M5 19h2M30 19h1M33 19h7M0 20h6M30 20h2M34 20h6M0 21h6M30 21h2M34 21h6M0 22h7M29 22h11M0 23h8M11 23h1M27 23h8M36 23h4M0 24h9M11 24h3M29 24h11M0 25h8M11 25h4M30 25h10M0 26h7M12 26h3M24 26h1M30 26h10M0 27h6M12 27h4M23 27h2M30 27h10M0 28h6M11 28h6M23 28h3M30 28h10M0 29h6M11 29h8M23 29h17M0 30h7M10 30h8M24 30h16M0 31h17M25 31h15M0 32h16M26 32h14M0 33h16M27 33h13M0 34h15M30 34h10M0 35h14M32 35h8M0 36h13M33 36h7M0 37h12M33 37h7M0 38h12M34 38h6M0 39h12M34 39h6" />
<path stroke="#000000" d="M11 0h4M10 1h1M15 1h4M21 1h3M9 2h1M19 2h6M8 3h1M25 3h5M7 4h1M30 4h2M7 5h1M15 5h8M32 5h1M7 6h1M13 6h11M33 6h1M8 7h2M12 7h13M34 7h1M9 8h4M23 8h3M34 8h1M11 9h3M18 9h4M24 9h3M34 9h1M10 10h1M22 10h1M25 10h2M34 10h1M10 11h1M13 11h2M18 11h3M26 11h3M33 11h1M10 12h1M12 12h3M17 12h4M26 12h2M29 12h5M12 13h2M15 13h1M17 13h1M19 13h1M21 13h1M32 13h2M11 14h1M15 14h1M17 14h2M20 14h2M32 14h3M10 15h3M14 15h2M17 15h5M33 15h3M9 16h1M13 16h3M17 16h2M21 16h1M23 16h4M28 16h1M34 16h1M9 17h1M12 17h5M19 17h1M27 17h2M8 18h8M18 18h1M24 18h2M28 18h1M7 19h1M18 19h3M26 19h1M29 19h1M6 20h1M9 20h4M25 20h1M27 20h1M29 20h1M6 21h1M8 21h1M13 21h4M29 21h1M7 22h1M10 22h3M14 22h1M17 22h7M27 22h2M8 23h2M12 23h2M15 23h1M23 23h1M14 24h1M16 24h1M23 24h1M15 25h1M17 25h1M22 25h1M24 25h1M15 26h1M17 26h1M21 26h1M23 26h1M28 26h1M16 27h1M18 27h3M22 27h1M27 27h2M9 28h1M17 28h1M21 28h2M8 29h2M19 29h1M22 29h1M18 30h1M22 30h2M17 31h2M23 31h2M16 32h1M19 32h1M22 32h1M25 32h1M16 33h1M20 33h1M22 33h1M26 33h1M15 34h1M19 34h1M23 34h1M27 34h3M14 35h2M20 35h1M22 35h1M26 35h1M30 35h2M13 36h1M16 36h1M19 36h1M23 36h1M25 36h2M31 36h2M12 37h1M17 37h2M24 37h1M32 37h1M12 38h1M16 38h1M28 38h1M33 38h1M12 39h1M15 39h2M28 39h2M33 39h1" />
<path stroke="#0667f9" d="M11 1h4M10 2h9M9 3h16M8 4h22M8 5h7M23 5h9M8 6h5M24 6h9M10 7h2M25 7h9M26 8h8M27 9h7M27 10h7M29 11h4" />
<path stroke="#ffffff" d="M13 8h10M14 9h4M22 9h2M11 10h11M23 10h2M11 11h2M15 11h3M21 11h5M11 12h1M16 12h1M22 12h2M16 13h1M22 13h3M16 14h1M22 14h4M29 14h1M4 15h1M16 15h1M22 15h5M16 16h1M22 16h1M27 16h1M22 17h1M3 18h1M33 20h1M27 25h2M9 26h1M26 26h2M29 26h1M7 27h4M26 27h1M29 27h1M7 28h2M10 28h1M27 28h2M7 29h1M10 29h1M20 29h2M9 30h1M19 30h3M19 31h4M20 32h2M27 35h3M14 36h2M20 36h3M27 36h4M13 37h4M19 37h5M25 37h7M13 38h3M17 38h11M29 38h4M13 39h2M17 39h11M30 39h3" />
<path stroke="#a20909" d="M15 12h1M21 12h1M11 13h1M14 13h1M12 14h1M17 18h1M19 18h2M21 19h1M23 20h1M24 22h1M25 23h1" />
<path stroke="#ff0000" d="M24 12h2M8 13h1M18 13h1M20 13h1M25 13h4M5 14h2M14 14h1M19 14h1M26 14h3M5 15h1M13 15h1M27 15h3M4 16h2M12 16h1M31 16h1M10 17h1M17 17h2M21 17h1M4 18h1M22 18h1M31 18h1M3 19h2M23 19h1M31 19h2M32 20h1M24 21h2M32 21h2M15 22h2M25 22h1M16 23h3M22 23h1M26 23h1M35 23h1M17 24h1M21 24h2M26 24h3M20 25h2M25 25h1M29 25h1M7 26h2M11 26h1M18 26h3M6 27h1M11 27h1M29 28h1M17 32h2M23 32h2M17 33h3M21 33h1M23 33h3M16 34h3M20 34h3M24 34h3M16 35h4M21 35h1M23 35h3M17 36h2M24 36h1" />
<path stroke="#fc809a" d="M13 14h1M11 16h1M20 16h1M10 23h1M19 23h3M18 24h3M10 25h1M18 25h2" />
<path stroke="#ff8a00" d="M10 16h1M23 17h4M16 18h1M23 18h1M26 18h2M8 19h10M24 19h2M27 19h2M7 20h2M13 20h9M24 20h1M26 20h1M28 20h1M7 21h1M9 21h4M17 21h6M26 21h3M8 22h2M13 22h1M26 22h1M14 23h1M24 23h1M15 24h1M24 24h1M16 25h1M23 25h1M16 26h1M22 26h1M17 27h1M21 27h1M18 28h3" />
<path stroke="#e10000" d="M19 16h1M11 17h1M20 17h1M21 18h1M9 24h2M8 25h2M10 26h1" />
<path stroke="#e00000" d="M22 19h1M22 20h1M23 21h1M25 24h1" />
<path stroke="#a6dcee" d="M26 25h1M25 26h1M25 27h1M6 28h1M26 28h1M6 29h1M7 30h2" />
</svg>