<svg xmlns="http://www.w3.org/2000/svg" viewBox="0 -0.5 40 40" shape-rendering="crispEdges">
<metadata>Made with Pixels to Svg https://codepen.io/shshaw/pen/XbxvNj</metadata>
<path stroke="#ffcc00" d="M0 0h3M13 0h27M0 1h3M13 1h27M0 2h5M12 2h28M0 3h5M12 3h22M36 3h4M0 4h3M12 4h9M24 4h6M36 4h4M0 5h2M17 5h2M35 5h5M0 6h2M18 6h1M35 6h5M0 7h1M35 7h5M0 8h1M34 8h6" />
<path stroke="#ffd018" d="M3 0h1" />
<path stroke="#f8eab7" d="M4 0h1" />
<path stroke="#f9efd3" d="M5 0h1" />
<path stroke="#f7f0d7" d="M6 0h1M3 7h1" />
<path stroke="#f4f1ec" d="M7 0h1M7 3h1" />
<path stroke="#e5e1dc" d="M8 0h1M8 1h1M8 2h1" />
<path stroke="#dedbd5" d="M9 0h1M9 1h1M9 2h1" />
<path stroke="#c4c2be" d="M10 0h1" />
<path stroke="#cbc094" d="M11 0h1" />
<path stroke="#f8cb14" d="M12 0h1" />
<path stroke="#ffcd03" d="M3 1h1M5 2h1M1 7h1" />
<path stroke="#fed018" d="M4 1h1" />
<path stroke="#fed01b" d="M5 1h1" />
<path stroke="#fdd537" d="M6 1h1" />
<path stroke="#f4edd5" d="M7 1h1M7 2h1" />
<path stroke="#c9c2ac" d="M10 1h1" />
<path stroke="#f0c829" d="M11 1h1" />
<path stroke="#fdcb02" d="M12 1h1" />
<path stroke="#fdd433" d="M6 2h1M2 7h1" />
<path stroke="#cac3aa" d="M10 2h1" />
<path stroke="#f6ca18" d="M11 2h1" />
<path stroke="#fed11a" d="M5 3h1M2 6h1" />
<path stroke="#f9ebbd" d="M6 3h1M3 6h1" />
<path stroke="#e4e1db" d="M8 3h1" />
<path stroke="#dcd8d0" d="M9 3h1" />
<path stroke="#d0c497" d="M10 3h1" />
<path stroke="#f8cb15" d="M11 3h1" />
<path stroke="#000000" d="M34 3h2M21 4h1M23 4h1M30 4h2M33 4h3M4 5h1M6 5h1M10 5h2M13 5h2M16 5h1M19 5h2M22 5h2M25 5h5M32 5h2M4 6h2M7 6h3M11 6h2M14 6h2M17 6h1M19 6h1M21 6h2M24 6h4M30 6h3M34 6h1M5 7h2M8 7h3M12 7h2M15 7h2M18 7h1M20 7h2M23 7h3M28 7h3M33 7h2M6 8h2M9 8h3M23 8h1M26 8h3M32 8h2M7 9h2M10 9h6M18 9h5M24 9h4M30 9h4M8 10h2M11 10h5M18 10h6M25 10h1M28 10h6M8 11h4M23 11h1M27 11h3M7 12h1M10 12h1M13 12h2M20 12h2M26 12h3M31 12h2M9 13h5M15 13h1M19 13h2M22 13h1M27 13h1M30 13h2M11 14h3M16 14h1M18 14h3M23 14h1M27 14h2M10 15h4M16 15h5M23 15h1M28 15h1M9 16h1M11 16h1M16 16h1M18 16h1M23 16h6M9 17h1M12 17h1M15 17h2M18 17h2M22 17h1M27 17h2M8 18h10M19 18h3M24 18h2M28 18h1M7 19h1M11 19h14M26 19h1M29 19h1M6 20h1M9 20h17M27 20h1M29 20h1M6 21h1M8 21h1M10 21h16M29 21h1M7 22h1M10 22h3M14 22h1M17 22h9M27 22h2M8 23h2M12 23h2M23 23h1M26 23h1M23 24h1M25 24h1M17 25h1M22 25h1M24 25h1M15 26h1M17 26h1M21 26h1M23 26h1M16 27h1M18 27h3M22 27h1M17 28h1M21 28h2M19 29h1M22 29h1M18 30h1M22 30h2M17 31h2M22 31h3M16 32h1M19 32h1M21 32h1M25 32h1M16 33h1M19 33h3M24 33h3M15 34h3M19 34h3M23 34h7M14 35h5M20 35h1M22 35h1M24 35h8M13 36h5M20 36h1M23 36h10M12 37h6M20 37h2M23 37h10M12 38h6M20 38h2M23 38h11M12 39h7M20 39h2M23 39h11" />
<path stroke="#fecc03" d="M3 4h1M2 5h1" />
<path stroke="#fed01a" d="M4 4h1" />
<path stroke="#fdd538" d="M5 4h1" />
<path stroke="#f6f0d7" d="M6 4h1" />
<path stroke="#f2efed" d="M7 4h1M4 13h1M6 26h1" />
<path stroke="#e2ded6" d="M8 4h1" />
<path stroke="#d4c89d" d="M9 4h1" />
<path stroke="#f2c926" d="M10 4h1" />
<path stroke="#fecb02" d="M11 4h1" />
<path stroke="#272626" d="M22 4h1M32 4h1M5 5h1M12 5h1M15 5h1M21 5h1M24 5h1M30 5h2M34 5h1M6 6h1M10 6h1M13 6h1M16 6h1M20 6h1M23 6h1M28 6h2M33 6h1M7 7h1M11 7h1M14 7h1M17 7h1M19 7h1M22 7h1M26 7h2M31 7h2M5 8h1M8 8h1M12 8h1M24 8h2M29 8h3M6 9h1M9 9h1M28 9h2M6 10h2M10 10h1M26 10h2M7 11h1M26 11h1M30 11h3M8 12h2M29 12h2M28 13h2" />
<path stroke="#fcd431" d="M3 5h1" />
<path stroke="#e8e3da" d="M7 5h1" />
<path stroke="#e8dbac" d="M8 5h1" />
<path stroke="#f6cc29" d="M9 5h1" />
<path stroke="#f2f0ed" d="M4 7h1" />
<path stroke="#fed019" d="M1 8h1" />
<path stroke="#f7ebbb" d="M2 8h1" />
<path stroke="#f5edd5" d="M3 8h1" />
<path stroke="#e8e4db" d="M4 8h1" />
<path stroke="#ffffff" d="M13 8h10M16 9h2M23 9h1M16 10h2M24 10h1M12 11h11M24 11h2M11 12h2M15 12h5M22 12h4M14 13h1M16 13h3M21 13h1M23 13h4M14 14h2M17 14h1M21 14h2M24 14h3M14 15h2M21 15h2M24 15h4M12 16h4M17 16h1M19 16h4M13 17h2M17 17h1M20 17h2M18 18h1M20 29h2M19 30h3M19 31h3M17 32h2M20 32h1M22 32h3M17 33h2M22 33h2M18 34h1M22 34h1M19 35h1M21 35h1M23 35h1M18 36h2M21 36h2M18 37h2M22 37h1M18 38h2M22 38h1M19 39h1M22 39h1" />
<path stroke="#ffcb00" d="M0 9h1M34 9h6" />
<path stroke="#fecf1c" d="M1 9h1" />
<path stroke="#f7e9bb" d="M2 9h1" />
<path stroke="#f9d64f" d="M3 9h1" />
<path stroke="#e5dcc0" d="M4 9h1" />
<path stroke="#e3d9bc" d="M5 9h1" />
<path stroke="#ffca00" d="M0 10h1M34 10h6" />
<path stroke="#fece1c" d="M1 10h1" />
<path stroke="#f7e9b7" d="M2 10h1" />
<path stroke="#fad239" d="M3 10h1" />
<path stroke="#e5d8ba" d="M4 10h1" />
<path stroke="#cec7b0" d="M5 10h1" />
<path stroke="#fec900" d="M0 11h1M33 11h7" />
<path stroke="#fdce1c" d="M1 11h1" />
<path stroke="#f7eabb" d="M2 11h1M2 12h1" />
<path stroke="#f9d552" d="M3 11h1" />
<path stroke="#e3d9be" d="M4 11h1" />
<path stroke="#c7c6c1" d="M5 11h1" />
<path stroke="#cabe95" d="M6 11h1" />
<path stroke="#fec700" d="M0 12h1M33 12h7" />
<path stroke="#fdcc19" d="M1 12h1" />
<path stroke="#f5edd6" d="M3 12h1" />
<path stroke="#e6e2db" d="M4 12h1" />
<path stroke="#dcd9d3" d="M5 12h1" />
<path stroke="#c9c2a9" d="M6 12h1" />
<path stroke="#fcc300" d="M0 13h1M8 13h1M32 13h8" />
<path stroke="#fcc403" d="M1 13h1" />
<path stroke="#fbcd33" d="M2 13h1" />
<path stroke="#f7efd7" d="M3 13h1" />
<path stroke="#e1ddd8" d="M5 13h1" />
<path stroke="#cac2aa" d="M6 13h1M6 14h1" />
<path stroke="#f5c217" d="M7 13h1" />
<path stroke="#fabf00" d="M0 14h2M8 14h3M29 14h11" />
<path stroke="#fac51d" d="M2 14h1" />
<path stroke="#f8eed4" d="M3 14h1" />
<path stroke="#f3f1ef" d="M4 14h1" />
<path stroke="#e1ddd9" d="M5 14h1" />
<path stroke="#f3bf17" d="M7 14h1" />
<path stroke="#f8ba00" d="M0 15h1M8 15h2M29 15h11" />
<path stroke="#f7ba03" d="M1 15h1" />
<path stroke="#f9c734" d="M2 15h1" />
<path stroke="#f6edd7" d="M3 15h1" />
<path stroke="#f1efed" d="M4 15h1" />
<path stroke="#dddbd6" d="M5 15h1" />
<path stroke="#c9c1a9" d="M6 15h1" />
<path stroke="#f1ba17" d="M7 15h1" />
<path stroke="#f5b300" d="M0 16h1M8 16h1M29 16h11" />
<path stroke="#f5ba19" d="M1 16h1" />
<path stroke="#f5e6bf" d="M2 16h1" />
<path stroke="#f2f0ec" d="M3 16h1" />
<path stroke="#e0ddda" d="M4 16h1" />
<path stroke="#c8c5c1" d="M5 16h1" />
<path stroke="#cbbb94" d="M6 16h1" />
<path stroke="#efb414" d="M7 16h1" />
<path stroke="#ff8a00" d="M10 16h1M10 17h2M23 17h4M22 18h2M26 18h2M8 19h3M25 19h1M27 19h2M7 20h2M26 20h1M28 20h1M7 21h1M9 21h1M26 21h3M8 22h2M13 22h1M26 22h1M14 23h1M24 23h2M24 24h1M16 25h1M23 25h1M16 26h1M22 26h1M17 27h1M21 27h1M18 28h3" />
<path stroke="#f2aa00" d="M0 17h1M8 17h1M29 17h11" />
<path stroke="#f3b21c" d="M1 17h1" />
<path stroke="#f5ead4" d="M2 17h1" />
<path stroke="#ebeae9" d="M3 17h1" />
<path stroke="#c9c7c4" d="M4 17h1" />
<path stroke="#c9ba98" d="M5 17h1" />
<path stroke="#e7ad26" d="M6 17h1" />
<path stroke="#f0a902" d="M7 17h1" />
<path stroke="#efa200" d="M0 18h1M7 18h1M29 18h11" />
<path stroke="#f0ab1c" d="M1 18h1" />
<path stroke="#efe4d0" d="M2 18h1" />
<path stroke="#cdcbc7" d="M3 18h1" />
<path stroke="#c9b897" d="M4 18h1" />
<path stroke="#e5a726" d="M5 18h1" />
<path stroke="#eea202" d="M6 18h1" />
<path stroke="#ea9500" d="M0 19h1" />
<path stroke="#ec9f1c" d="M1 19h1" />
<path stroke="#eee2cf" d="M2 19h1" />
<path stroke="#cbc1b1" d="M3 19h1" />
<path stroke="#e09d29" d="M4 19h1" />
<path stroke="#e99502" d="M5 19h1" />
<path stroke="#ea9600" d="M6 19h1M30 19h10" />
<path stroke="#e68900" d="M0 20h1M5 20h1M30 20h10" />
<path stroke="#e8951c" d="M1 20h1" />
<path stroke="#eee2d0" d="M2 20h1" />
<path stroke="#d1c5b4" d="M3 20h1" />
<path stroke="#e29019" d="M4 20h1" />
<path stroke="#e27c01" d="M0 21h1M5 21h1" />
<path stroke="#e5891c" d="M1 21h1" />
<path stroke="#f3e4d4" d="M2 21h1" />
<path stroke="#f0e1d1" d="M3 21h1" />
<path stroke="#e2891e" d="M4 21h1" />
<path stroke="#e27d01" d="M30 21h10" />
<path stroke="#de6e01" d="M0 22h1" />
<path stroke="#e07d1c" d="M1 22h1" />
<path stroke="#f1e2d2" d="M2 22h1" />
<path stroke="#f3e5d8" d="M3 22h1" />
<path stroke="#e38a35" d="M4 22h1" />
<path stroke="#df7003" d="M5 22h1" />
<path stroke="#de6f01" d="M6 22h1M29 22h11" />
<path stroke="#ff0000" d="M15 22h2M17 23h2M22 23h1M17 24h1M21 24h2M20 25h2M18 26h3" />
<path stroke="#da6101" d="M0 23h1M7 23h1M10 23h2M27 23h13" />
<path stroke="#dc6f19" d="M1 23h1" />
<path stroke="#e6d4c3" d="M2 23h1" />
<path stroke="#f3f0ec" d="M3 23h1" />
<path stroke="#f1d8c4" d="M4 23h1" />
<path stroke="#e08034" d="M5 23h1" />
<path stroke="#db6305" d="M6 23h1" />
<path stroke="#6a4202" d="M15 23h2M14 24h2M13 25h2M12 26h2M11 27h2" />
<path stroke="#fc809a" d="M19 23h3M18 24h3M18 25h2" />
<path stroke="#d75301" d="M0 24h1M9 24h5M26 24h14" />
<path stroke="#d86015" d="M1 24h1" />
<path stroke="#e3c2ab" d="M2 24h1" />
<path stroke="#f2eee9" d="M3 24h1M4 25h1" />
<path stroke="#f5f1ef" d="M4 24h1" />
<path stroke="#f0d5c4" d="M5 24h1" />
<path stroke="#dd7838" d="M6 24h1" />
<path stroke="#db641b" d="M7 24h1" />
<path stroke="#d75403" d="M8 24h1" />
<path stroke="#4c3002" d="M16 24h1M15 25h1M14 26h1M13 27h1M12 28h1" />
<path stroke="#d44701" d="M0 25h1M9 25h4M25 25h15" />
<path stroke="#d54904" d="M1 25h1" />
<path stroke="#d6642a" d="M2 25h1" />
<path stroke="#e3c3af" d="M3 25h1" />
<path stroke="#f3efec" d="M5 25h1" />
<path stroke="#f1e1d9" d="M6 25h1" />
<path stroke="#eeccbc" d="M7 25h1" />
<path stroke="#d85a1b" d="M8 25h1" />
<path stroke="#d23b01" d="M0 26h2M11 26h1M24 26h16" />
<path stroke="#d33d04" d="M2 26h1" />
<path stroke="#d65c2d" d="M3 26h1" />
<path stroke="#e3cec2" d="M4 26h1" />
<path stroke="#e7e3de" d="M5 26h1" />
<path stroke="#efded6" d="M7 26h1" />
<path stroke="#d86538" d="M8 26h1" />
<path stroke="#d34d18" d="M9 26h1" />
<path stroke="#d23d03" d="M10 26h1" />
<path stroke="#d03001" d="M0 27h3M14 27h2M23 27h17" />
<path stroke="#d24217" d="M3 27h1" />
<path stroke="#deb4a5" d="M4 27h1" />
<path stroke="#e0cbc1" d="M5 27h1" />
<path stroke="#e0dbd5" d="M6 27h1" />
<path stroke="#e1dbd5" d="M7 27h1" />
<path stroke="#e1ccc2" d="M8 27h1" />
<path stroke="#dfb6a7" d="M9 27h1" />
<path stroke="#d24218" d="M10 27h1" />
<path stroke="#cf2701" d="M0 28h3M13 28h4M23 28h17" />
<path stroke="#d02904" d="M3 28h1" />
<path stroke="#d03815" d="M4 28h1" />
<path stroke="#cf4a2a" d="M5 28h1" />
<path stroke="#c79e95" d="M6 28h1" />
<path stroke="#c8b4ad" d="M7 28h1" />
<path stroke="#dcd2cd" d="M8 28h1" />
<path stroke="#deb6a9" d="M9 28h1" />
<path stroke="#30302f" d="M10 28h1M11 29h1" />
<path stroke="#868686" d="M11 28h1M10 29h1" />
<path stroke="#ce1e01" d="M0 29h5M12 29h7M23 29h17" />
<path stroke="#ce1f02" d="M5 29h1" />
<path stroke="#cd2d12" d="M6 29h1" />
<path stroke="#cb3f28" d="M7 29h1" />
<path stroke="#c88d83" d="M8 29h1" />
<path stroke="#cf4129" d="M9 29h1" />
<path stroke="#cd1701" d="M0 30h7M10 30h8M24 30h16" />
<path stroke="#cd1802" d="M7 30h1M9 30h1" />
<path stroke="#cc240f" d="M8 30h1" />
<path stroke="#cd1201" d="M0 31h17M25 31h15" />
<path stroke="#cd0c01" d="M0 32h16M26 32h14" />
<path stroke="#cd0901" d="M0 33h16M27 33h13" />
<path stroke="#cd0601" d="M0 34h15M30 34h10" />
<path stroke="#cc0401" d="M0 35h14M32 35h8" />
<path stroke="#cc0301" d="M0 36h13M33 36h7" />
<path stroke="#cc0201" d="M0 37h12M33 37h7" />
<path stroke="#cc0202" d="M0 38h12M34 38h6M0 39h12M34 39h6" />
</svg>