<svg xmlns="http://www.w3.org/2000/svg" viewBox="0 -0.5 40 40" shape-rendering="crispEdges">
<metadata>Made with Pixels to Svg https://codepen.io/shshaw/pen/XbxvNj</metadata>
<path stroke="#ff7fd0" d="M0 0h4M14 0h6M27 0h13M0 1h4M15 1h5M27 1h13M0 2h4M16 2h4M27 2h13M0 3h4M18 3h3M27 3h13M0 4h4M6 4h2M18 4h3M27 4h13M0 5h4M6 5h4M19 5h3M27 5h3M32 5h8M0 6h4M6 6h3M10 6h2M20 6h2M26 6h14M0 7h4M6 7h3M10 7h4M26 7h6M0 8h4M6 8h3M11 8h1M26 8h14M0 9h4M6 9h3M10 9h1M32 9h8M0 10h4M6 10h3M0 11h4M6 11h3M27 11h13M0 12h4M6 12h3M28 12h12M0 13h4M6 13h3M10 13h1M28 13h12M0 14h4M6 14h3M10 14h1M29 14h11M0 15h4M6 15h3M29 15h3M0 16h4M6 16h3M29 16h11M0 17h4M6 17h3M29 17h11M0 18h4M6 18h2M29 18h11M0 19h4M6 19h1M30 19h2M0 20h4M30 20h2M0 21h4M30 21h2M0 22h4M6 22h1M29 22h3M0 23h5M6 23h2M10 23h2M27 23h5M0 24h9M10 24h4M26 24h6M0 25h9M10 25h5M25 25h7M0 26h9M10 26h5M24 26h8M0 27h9M10 27h6M23 27h9M0 28h9M10 28h7M23 28h9M0 29h9M10 29h9M23 29h9M0 30h9M10 30h8M24 30h8M0 31h9M10 31h7M25 31h7M0 32h9M10 32h6M26 32h7M0 33h9M10 33h6M27 33h7M0 34h9M10 34h5M30 34h5M0 35h9M10 35h4M32 35h4M0 36h9M10 36h3M33 36h4M0 37h9M10 37h2M33 37h5M0 38h9M10 38h2M34 38h5M0 39h9M10 39h2M34 39h6" />
<path stroke="#000000" d="M4 0h1M13 0h1M20 0h1M26 0h1M5 1h1M14 1h1M20 1h1M26 1h1M5 2h1M15 2h1M20 2h1M26 2h1M6 3h2M16 3h1M21 3h1M26 3h1M8 4h2M17 4h1M21 4h1M26 4h1M10 5h2M18 5h1M22 5h1M26 5h1M12 6h2M19 6h1M22 6h1M25 6h1M14 7h1M20 7h2M25 7h1M12 8h4M25 8h1M11 9h2M18 9h4M24 9h1M10 10h1M22 10h1M25 10h1M10 11h1M13 11h2M18 11h3M26 11h1M10 12h1M12 12h1M15 12h1M17 12h1M21 12h1M26 12h2M11 13h1M15 13h1M17 13h1M21 13h1M27 13h1M11 14h1M15 14h1M17 14h1M21 14h1M28 14h1M10 15h2M14 15h2M17 15h1M19 15h3M28 15h1M9 16h1M11 16h1M14 16h2M17 16h1M19 16h3M23 16h4M28 16h1M9 17h1M12 17h1M14 17h4M19 17h4M27 17h2M8 18h8M17 18h1M19 18h3M24 18h2M28 18h1M7 19h1M16 19h5M26 19h1M29 19h1M6 20h1M9 20h4M25 20h1M27 20h1M29 20h1M6 21h1M8 21h1M13 21h4M24 21h1M29 21h1M7 22h1M10 22h3M14 22h1M17 22h8M27 22h2M8 23h2M12 23h2M15 23h1M23 23h1M26 23h1M14 24h1M16 24h1M23 24h1M25 24h1M15 25h1M17 25h1M22 25h1M24 25h1M15 26h1M17 26h1M21 26h1M23 26h1M16 27h1M18 27h3M22 27h1M17 28h1M21 28h2M19 29h2M22 29h1M18 30h1M22 30h2M17 31h3M21 31h4M16 32h1M18 32h5M24 32h2M16 33h1M18 33h2M21 33h2M24 33h3M15 34h2M24 34h2M27 34h3M14 35h3M24 35h2M29 35h3M13 36h1M15 36h2M20 36h1M23 36h2M32 36h1M12 37h1M15 37h3M23 37h2M32 37h1M12 38h1M16 38h2M23 38h2M33 38h1M12 39h1M16 39h2M20 39h1M23 39h2M33 39h1" />
<path stroke="#ffffff" d="M5 0h8M21 0h5M6 1h8M21 1h5M6 2h9M21 2h5M8 3h8M22 3h4M10 4h7M22 4h4M12 5h6M23 5h3M14 6h5M23 6h2M15 7h5M22 7h3M16 8h9M13 9h5M22 9h2M11 10h11M23 10h2M11 11h2M15 11h3M21 11h5M11 12h1M13 12h2M16 12h1M18 12h3M22 12h4M12 13h3M16 13h1M18 13h3M22 13h5M12 14h3M16 14h1M18 14h3M22 14h6M12 15h2M16 15h1M18 15h1M22 15h6M12 16h2M16 16h1M18 16h1M22 16h1M27 16h1M13 17h1M18 17h1M18 18h1M21 29h1M19 30h3M20 31h1M17 32h1M23 32h1M17 33h1M20 33h1M23 33h1M17 34h7M26 34h1M17 35h7M26 35h3M14 36h1M17 36h3M21 36h2M25 36h7M13 37h2M18 37h5M25 37h7M13 38h3M18 38h5M25 38h8M13 39h3M18 39h2M21 39h2M25 39h8" />
<path stroke="#ff7ed0" d="M4 1h1M4 2h1M4 3h2M17 3h1M4 4h2M4 5h2M30 5h2M4 6h2M9 6h1M4 7h2M9 7h1M32 7h8M4 8h2M9 8h2M4 9h2M9 9h1M25 9h7M4 10h2M9 10h1M26 10h14M4 11h2M9 11h1M4 12h2M9 12h1M4 13h2M9 13h1M4 14h2M9 14h1M4 15h2M9 15h1M32 15h8M4 16h2M4 17h2M4 18h2M4 19h2M32 19h8M4 20h2M32 20h8M4 21h2M32 21h8M4 22h2M32 22h8M5 23h1M32 23h8M9 24h1M32 24h8M9 25h1M32 25h8M9 26h1M32 26h8M9 27h1M32 27h8M9 28h1M32 28h8M9 29h1M32 29h8M9 30h1M32 30h8M9 31h1M32 31h8M9 32h1M33 32h7M9 33h1M34 33h6M9 34h1M35 34h5M9 35h1M36 35h4M9 36h1M37 36h3M9 37h1M38 37h2M9 38h1M39 38h1M9 39h1" />
<path stroke="#ff8a00" d="M10 16h1M10 17h2M23 17h4M16 18h1M22 18h2M26 18h2M8 19h8M21 19h5M27 19h2M7 20h2M13 20h12M26 20h1M28 20h1M7 21h1M9 21h4M17 21h7M25 21h4M8 22h2M13 22h1M25 22h2M14 23h1M24 23h2M15 24h1M24 24h1M16 25h1M23 25h1M16 26h1M22 26h1M17 27h1M21 27h1M18 28h3" />
<path stroke="#ff0000" d="M15 22h2M16 23h3M22 23h1M17 24h1M21 24h2M20 25h2M18 26h3" />
<path stroke="#fc809a" d="M19 23h3M18 24h3M18 25h2" />
</svg>