<svg xmlns="http://www.w3.org/2000/svg" viewBox="0 -0.5 40 40" shape-rendering="crispEdges">
<metadata>Made with Pixels to Svg https://codepen.io/shshaw/pen/XbxvNj</metadata>
<path stroke="#81b8cb" d="M0 0h1" />
<path stroke="#4e8455" d="M1 0h1" />
<path stroke="#9b7623" d="M2 0h1" />
<path stroke="#a68e6f" d="M3 0h1" />
<path stroke="#9ac2d4" d="M4 0h1" />
<path stroke="#b4dff2" d="M5 0h1" />
<path stroke="#b9e2f5" d="M6 0h1M18 0h9M28 0h3M38 0h2M23 1h3M27 1h4M28 2h3M5 6h5" />
<path stroke="#b8e1f3" d="M7 0h1" />
<path stroke="#b0dae9" d="M8 0h1" />
<path stroke="#b7e1f3" d="M9 0h2" />
<path stroke="#afdae8" d="M11 0h1" />
<path stroke="#b3ddf1" d="M12 0h1M3 6h1M31 6h1" />
<path stroke="#b4def2" d="M13 0h4M5 1h1M19 1h2M38 1h2M24 2h1M26 2h1M31 2h1M29 3h1M6 5h3M3 7h7" />
<path stroke="#b5dff3" d="M17 0h1M22 1h1M27 2h1M4 6h1M10 6h1" />
<path stroke="#000000" d="M27 0h1M26 1h1M15 2h2M18 2h5M25 2h1M14 3h2M17 3h9M12 4h15M11 5h5M17 5h11M11 6h4M18 6h11M10 7h4M19 7h10M10 8h2M23 8h7M10 9h4M18 9h4M24 9h6M10 10h1M22 10h1M27 10h3M10 11h1M13 11h2M18 11h3M28 11h2M10 12h1M12 12h1M15 12h1M17 12h1M21 12h1M28 12h2M11 13h1M15 13h1M17 13h1M21 13h1M28 13h1M11 14h1M14 14h2M17 14h1M20 14h2M28 14h1M10 15h2M13 15h3M17 15h1M19 15h3M28 15h1M9 16h1M11 16h1M13 16h3M17 16h1M19 16h3M23 16h4M28 16h1M9 17h1M12 17h1M15 17h3M21 17h2M27 17h2M8 18h8M17 18h1M20 18h2M24 18h2M28 18h1M7 19h1M16 19h5M26 19h1M29 19h1M6 20h1M9 20h4M25 20h1M27 20h1M29 20h1M6 21h1M8 21h1M13 21h4M24 21h1M29 21h1M7 22h1M10 22h3M14 22h1M17 22h8M27 22h2M8 23h2M12 23h2M15 23h1M23 23h1M26 23h1M14 24h1M16 24h1M23 24h1M25 24h1M15 25h1M17 25h1M22 25h1M24 25h1M15 26h1M17 26h1M21 26h1M23 26h1M16 27h1M18 27h3M22 27h1M17 28h1M21 28h2M18 29h3M22 29h1M18 30h1M22 30h2M24 31h1M16 32h1M25 32h1M16 33h1M24 33h1M26 33h1M15 34h1M28 34h2M14 35h2M20 35h1M30 35h1M13 36h1M31 36h1M12 37h1M20 37h1M32 37h1M12 38h1M28 38h1M33 38h1M12 39h1M15 39h1M20 39h1M28 39h2M33 39h1" />
<path stroke="#b6d8e8" d="M31 0h1" />
<path stroke="#a78f70" d="M32 0h1" />
<path stroke="#9c751f" d="M33 0h1" />
<path stroke="#5f814d" d="M34 0h1" />
<path stroke="#8aa7aa" d="M35 0h1" />
<path stroke="#a69073" d="M36 0h1" />
<path stroke="#b7d7e5" d="M37 0h1" />
<path stroke="#82b9cd" d="M0 1h1" />
<path stroke="#598c6d" d="M1 1h1" />
<path stroke="#9e8658" d="M2 1h1" />
<path stroke="#b5ced6" d="M3 1h1" />
<path stroke="#b5ddf0" d="M4 1h1" />
<path stroke="#b5ddf1" d="M6 1h1" />
<path stroke="#add0d9" d="M7 1h1" />
<path stroke="#7aa28e" d="M8 1h1" />
<path stroke="#abced6" d="M9 1h1" />
<path stroke="#a4d0d9" d="M10 1h1" />
<path stroke="#6da79d" d="M11 1h1" />
<path stroke="#8bbfd3" d="M12 1h1" />
<path stroke="#91c4dd" d="M13 1h4M39 2h1M26 3h1M29 4h1M3 8h7" />
<path stroke="#96c8e0" d="M17 1h1M27 3h1M31 3h1" />
<path stroke="#afdbf0" d="M18 1h1M28 3h1" />
<path stroke="#b3def2" d="M21 1h1M34 6h1" />
<path stroke="#b5def1" d="M31 1h1" />
<path stroke="#9cbbc9" d="M32 1h1" />
<path stroke="#a08a6b" d="M33 1h1" />
<path stroke="#9a8050" d="M34 1h1" />
<path stroke="#a27e49" d="M35 1h1" />
<path stroke="#a8875c" d="M36 1h1M4 3h1" />
<path stroke="#b2d3e2" d="M37 1h1M2 7h1" />
<path stroke="#89bed8" d="M0 2h1M5 22h1" />
<path stroke="#88b2bf" d="M1 2h1" />
<path stroke="#a48e6f" d="M2 2h1" />
<path stroke="#b5cdd4" d="M3 2h1" />
<path stroke="#b3d4e2" d="M4 2h1" />
<path stroke="#9ac0d2" d="M5 2h1" />
<path stroke="#98b6c4" d="M6 2h1" />
<path stroke="#a58c6b" d="M7 2h1" />
<path stroke="#9f782f" d="M8 2h1" />
<path stroke="#9f8657" d="M9 2h1" />
<path stroke="#6a9884" d="M10 2h1" />
<path stroke="#7cb4c3" d="M11 2h1" />
<path stroke="#89bed7" d="M12 2h1M11 3h1" />
<path stroke="#8abfd9" d="M13 2h2M12 3h2M11 4h1M3 9h7M3 10h4M37 10h1M3 11h4M31 11h1M37 11h1M5 12h1M31 12h1M5 13h1M31 13h2M5 14h1M31 14h2M5 15h1M31 15h2M5 16h1M36 17h1M30 18h1M36 18h1M30 19h1M36 19h1M33 20h1M36 20h1M10 23h1" />
<path stroke="#868c8c" d="M17 2h1M16 3h1" />
<path stroke="#b0dbf0" d="M23 2h1M30 3h1M9 5h1M34 5h2" />
<path stroke="#abd7eb" d="M32 2h1" />
<path stroke="#93bcd0" d="M33 2h1" />
<path stroke="#91b1c0" d="M34 2h1" />
<path stroke="#a18664" d="M35 2h1" />
<path stroke="#a48050" d="M36 2h1M2 3h1M1 8h1" />
<path stroke="#97b5c3" d="M37 2h1" />
<path stroke="#92c3db" d="M38 2h1" />
<path stroke="#8bbed7" d="M0 3h1" />
<path stroke="#91b1be" d="M1 3h1M0 4h1" />
<path stroke="#a98452" d="M3 3h1" />
<path stroke="#a08b6d" d="M5 3h1" />
<path stroke="#a08a6c" d="M6 3h1" />
<path stroke="#a38154" d="M7 3h1" />
<path stroke="#a37f4f" d="M8 3h1M39 8h1M39 9h1" />
<path stroke="#9f8868" d="M9 3h1" />
<path stroke="#87b2c0" d="M10 3h1" />
<path stroke="#90c4dd" d="M32 3h1M30 4h1M29 5h1" />
<path stroke="#8bc0da" d="M33 3h1M31 4h1" />
<path stroke="#8bbed8" d="M34 3h1" />
<path stroke="#90b2c2" d="M35 3h1" />
<path stroke="#9f896a" d="M36 3h1" />
<path stroke="#978868" d="M37 3h1" />
<path stroke="#8eb0bb" d="M38 3h1" />
<path stroke="#82b7ca" d="M39 3h1" />
<path stroke="#9f8664" d="M1 4h1" />
<path stroke="#9c762a" d="M2 4h1" />
<path stroke="#a27e4a" d="M3 4h1" />
<path stroke="#a18969" d="M4 4h1" />
<path stroke="#97b5c2" d="M5 4h1" />
<path stroke="#95bccf" d="M6 4h3" />
<path stroke="#94bdd1" d="M9 4h1" />
<path stroke="#8cbfd8" d="M10 4h1" />
<path stroke="rgba(139,192,217,0.8784313725490196)" d="M27 4h1M28 5h1" />
<path stroke="rgba(143,195,220,0.984313725490196)" d="M28 4h1" />
<path stroke="#8ac0d9" d="M32 4h1M33 7h1M30 8h2M33 8h1M30 9h2M33 9h2M33 10h3M8 11h2M33 11h3M7 12h3M34 12h2M7 13h4M29 13h2M34 13h2M10 14h1M33 14h3M33 15h3" />
<path stroke="#8bc1da" d="M33 4h1" />
<path stroke="#90c5dd" d="M34 4h1" />
<path stroke="#91c3db" d="M35 4h1" />
<path stroke="#88b3c4" d="M36 4h1" />
<path stroke="#678b6c" d="M37 4h1" />
<path stroke="#91804f" d="M38 4h1" />
<path stroke="#5e8353" d="M39 4h1" />
<path stroke="#a47d49" d="M0 5h1" />
<path stroke="#9e772d" d="M1 5h1" />
<path stroke="#70906e" d="M2 5h1" />
<path stroke="#8fb6c3" d="M3 5h1" />
<path stroke="#9ac1d4" d="M4 5h1" />
<path stroke="#b0daee" d="M5 5h1" />
<path stroke="#96c8e2" d="M10 5h1" />
<path stroke="#ffffff" d="M16 5h1M15 6h3M14 7h5M12 8h11M14 9h4M22 9h2M11 10h11M23 10h4M11 11h2M15 11h3M21 11h7M11 12h1M13 12h2M16 12h1M18 12h3M22 12h6M12 13h3M16 13h1M18 13h3M22 13h6M12 14h2M16 14h1M18 14h2M22 14h1M24 14h1M26 14h2M12 15h1M16 15h1M18 15h1M22 15h2M25 15h3M12 16h1M16 16h1M18 16h1M22 16h1M27 16h1M13 17h2M18 17h3M18 18h2M15 22h2M18 23h2M21 30h1M19 31h3M20 32h1" />
<path stroke="#91c5dd" d="M30 5h3" />
<path stroke="#96c9e0" d="M33 5h1" />
<path stroke="#94c8df" d="M36 5h1" />
<path stroke="#89b3c0" d="M37 5h1" />
<path stroke="#a07e4a" d="M38 5h1" />
<path stroke="#9d730d" d="M39 5h1" />
<path stroke="#a67207" d="M0 6h1M0 7h1M0 8h1M0 9h1M0 10h1" />
<path stroke="#a78453" d="M1 6h1" />
<path stroke="#adced8" d="M2 6h1" />
<path stroke="rgba(170,214,236,0.9803921568627451)" d="M29 6h1" />
<path stroke="#afdbef" d="M30 6h1M32 6h2" />
<path stroke="rgba(180,221,242,0.984313725490196)" d="M35 6h1" />
<path stroke="rgba(173,218,238,0.9019607843137255)" d="M36 6h1" />
<path stroke="rgba(151,191,210,0.984313725490196)" d="M37 6h1" />
<path stroke="#a18a6b" d="M38 6h1" />
<path stroke="#a6741d" d="M39 6h1" />
<path stroke="#a88558" d="M1 7h1" />
<path stroke="rgba(145,196,221,0.8627450980392157)" d="M29 7h1" />
<path stroke="rgba(150,200,224,0.9058823529411765)" d="M30 7h1" />
<path stroke="rgba(171,215,237,0.984313725490196)" d="M31 7h1" />
<path stroke="rgba(150,200,225,0.984313725490196)" d="M32 7h1" />
<path stroke="rgba(145,196,221,0.984313725490196)" d="M34 7h1" />
<path stroke="rgba(145,195,221,0.8901960784313725)" d="M35 7h1" />
<path stroke="rgba(167,211,233,0.36470588235294116)" d="M36 7h1" />
<path stroke="rgba(170,213,234,0.8862745098039215)" d="M37 7h1" />
<path stroke="#96b5c3" d="M38 7h1" />
<path stroke="#a37e4a" d="M39 7h1" />
<path stroke="#94bcce" d="M2 8h1" />
<path stroke="rgba(139,192,218,0.8862745098039215)" d="M32 8h1" />
<path stroke="rgba(137,191,216,0.7764705882352941)" d="M34 8h1" />
<path stroke="rgba(138,191,217,0.8705882352941177)" d="M35 8h1M32 9h1M32 10h1M33 13h1" />
<path stroke="rgba(138,191,218,0.3764705882352941)" d="M36 8h1" />
<path stroke="rgba(143,193,219,0.8941176470588236)" d="M37 8h1" />
<path stroke="#8fb8cb" d="M38 8h1" />
<path stroke="#a37f4e" d="M1 9h1M1 10h1" />
<path stroke="#8eb7ca" d="M2 9h1M38 9h1M2 10h1" />
<path stroke="rgba(138,191,217,0.8627450980392157)" d="M35 9h1M9 10h1" />
<path stroke="rgba(138,191,217,0.9058823529411765)" d="M36 9h1" />
<path stroke="rgba(138,191,217,0.984313725490196)" d="M37 9h1M6 12h1M32 12h1M5 21h1" />
<path stroke="rgba(137,191,216,0.984313725490196)" d="M7 10h1M31 10h1M36 16h1M5 17h1M30 17h1" />
<path stroke="rgba(137,190,216,0.8823529411764706)" d="M8 10h1M36 11h1M36 15h1M30 16h1M5 18h1M30 21h1" />
<path stroke="rgba(137,191,217,0.7647058823529411)" d="M30 10h1" />
<path stroke="rgba(138,191,217,0.9803921568627451)" d="M36 10h1M30 20h1" />
<path stroke="#8cb7cb" d="M38 10h1" />
<path stroke="#978050" d="M39 10h1" />
<path stroke="#9a730e" d="M0 11h1" />
<path stroke="#98804f" d="M1 11h1" />
<path stroke="#8cb7ca" d="M2 11h1" />
<path stroke="rgba(138,191,217,0.8862745098039215)" d="M7 11h1" />
<path stroke="rgba(137,190,217,0.8627450980392157)" d="M30 11h1M30 12h1M36 12h1M36 13h1M30 14h1M36 14h1M30 15h1" />
<path stroke="rgba(136,190,216,0.8941176470588236)" d="M32 11h1M5 20h1" />
<path stroke="#82b7cb" d="M38 11h1" />
<path stroke="#4a8455" d="M39 11h1" />
<path stroke="#3c7821" d="M0 12h1" />
<path stroke="#8f601f" d="M1 12h1M3 12h2M37 12h3M1 13h1M3 13h2M37 13h3M1 14h1M3 14h2M6 14h1M9 14h1M29 14h1M37 14h2M1 15h1M3 15h2M6 15h1M9 15h1M29 15h1M37 15h2M4 16h1M6 16h1M29 16h1M31 16h2M37 16h2M4 17h1M6 17h1M29 17h1M34 17h2M37 17h1M4 18h1M6 18h1M29 18h1M34 18h2M37 18h1M4 19h1M6 19h1M32 19h1M34 19h2M37 19h1M39 19h1M4 20h1M34 20h2M39 20h1M4 21h1M35 21h1M39 21h1M1 22h1M4 22h1M6 22h1M29 22h1M35 22h1M39 22h1M1 23h1M4 23h1M6 23h1M11 23h1M29 23h1M35 23h1M38 23h1M1 24h1M4 24h1M6 24h1M9 24h1M11 24h1M29 24h1M35 24h1M38 24h1M1 25h1M4 25h1M6 25h1M8 25h2M11 25h1M29 25h1M32 25h1M34 25h1M38 25h1M3 26h2M6 26h1M8 26h2M11 26h1M24 26h1M29 26h1M33 26h2M38 26h1M3 27h2M6 27h1M8 27h2M11 27h1M24 27h1M29 27h1M33 27h1M38 27h1M3 28h2M6 28h1M8 28h2M11 28h1M13 28h1M16 28h1M24 28h2M29 28h1M33 28h1M3 29h2M6 29h1M8 29h2M11 29h1M13 29h1M16 29h1M24 29h2M29 29h1M31 29h1M33 29h1M35 29h1M3 30h2M6 30h1M8 30h2M11 30h1M13 30h1M16 30h1M24 30h2M29 30h1M31 30h1M33 30h1M35 30h1M6 31h1M8 31h2M11 31h1M13 31h2M25 31h1M27 31h1M29 31h1M31 31h1M33 31h1M35 31h1M39 31h1M4 32h1M6 32h1M8 32h2M11 32h1M13 32h1M27 32h1M29 32h1M31 32h1M33 32h1M35 32h1M38 32h2M4 33h1M6 33h1M8 33h2M11 33h1M13 33h1M29 33h1M31 33h1M33 33h1M35 33h1M38 33h2M3 34h2M6 34h1M8 34h2M11 34h1M13 34h1M31 34h1M33 34h1M35 34h1M39 34h1M3 35h2M6 35h1M8 35h2M11 35h1M13 35h1M31 35h5M39 35h1M3 36h2M6 36h1M8 36h2M11 36h1M32 36h2M35 36h1M37 36h1M3 37h2M6 37h1M8 37h2M11 37h1M33 37h1M35 37h1M37 37h1M3 38h2M6 38h1M8 38h2M11 38h1M35 38h1M37 38h1M1 39h4M6 39h1M8 39h2M11 39h1M35 39h1M37 39h3" />
<path stroke="#704710" d="M2 12h1M2 13h1M2 14h1M7 14h2M39 14h1M2 15h1M7 15h2M39 15h1M1 16h3M7 16h2M33 16h3M39 16h1M1 17h3M7 17h2M31 17h3M38 17h2M1 18h3M7 18h1M31 18h2M38 18h2M1 19h3M31 19h1M38 19h1M1 20h3M31 20h1M37 20h2M1 21h3M31 21h1M37 21h2M2 22h2M31 22h1M37 22h2M2 23h2M7 23h1M27 23h2M31 23h1M37 23h1M39 23h1M2 24h2M7 24h2M12 24h2M26 24h3M31 24h1M37 24h1M39 24h1M2 25h2M7 25h1M12 25h3M25 25h4M31 25h1M35 25h1M37 25h1M39 25h1M1 26h2M7 26h1M12 26h3M25 26h4M31 26h2M35 26h1M37 26h1M39 26h1M1 27h2M7 27h1M12 27h3M25 27h4M31 27h2M34 27h2M37 27h1M39 27h1M1 28h2M7 28h1M12 28h1M14 28h1M26 28h3M31 28h2M34 28h2M37 28h3M1 29h2M7 29h1M12 29h1M14 29h1M17 29h1M26 29h3M32 29h1M34 29h1M37 29h3M1 30h2M7 30h1M12 30h1M14 30h1M17 30h1M26 30h3M32 30h1M34 30h1M37 30h3M1 31h4M7 31h1M12 31h1M16 31h1M26 31h1M28 31h1M32 31h1M34 31h1M37 31h2M1 32h3M7 32h1M12 32h1M14 32h1M26 32h1M28 32h1M32 32h1M34 32h1M37 32h1M1 33h3M7 33h1M12 33h1M14 33h1M28 33h1M32 33h1M34 33h1M37 33h1M1 34h2M7 34h1M12 34h1M14 34h1M32 34h1M34 34h1M37 34h2M1 35h2M7 35h1M12 35h1M37 35h2M1 36h2M7 36h1M12 36h1M34 36h1M38 36h2M1 37h2M7 37h1M34 37h1M38 37h2M1 38h2M7 38h1M34 38h1M38 38h2M7 39h1M34 39h1" />
<path stroke="rgba(138,191,216,0.7764705882352941)" d="M33 12h1" />
<path stroke="rgba(2,121,36,0.984313725490196)" d="M0 13h1M30 31h1" />
<path stroke="rgba(137,190,216,0.8901960784313725)" d="M6 13h1" />
<path stroke="rgba(2,121,35,0.8862745098039215)" d="M0 14h1" />
<path stroke="#ab5609" d="M23 14h1M25 14h1M24 15h1" />
<path stroke="rgba(2,121,36,0.8705882352941177)" d="M0 15h1M0 16h1M0 17h1M0 18h1" />
<path stroke="#ff8a00" d="M10 16h1M10 17h2M23 17h4M16 18h1M22 18h2M26 18h2M8 19h8M21 19h5M27 19h2M7 20h2M13 20h12M26 20h1M28 20h1M7 21h1M9 21h4M17 21h7M25 21h4M8 22h2M13 22h1M25 22h2M14 23h1M24 23h2M15 24h1M24 24h1M16 25h1M23 25h1M16 26h1M22 26h1M17 27h1M21 27h1M18 28h3" />
<path stroke="#8f5f1f" d="M33 18h1M33 19h1M32 20h1M32 24h1" />
<path stroke="rgba(34,115,47,0.8941176470588236)" d="M0 19h1" />
<path stroke="rgba(138,191,216,0.8705882352941177)" d="M5 19h1" />
<path stroke="rgba(95,97,80,0.984313725490196)" d="M0 20h1" />
<path stroke="#976c2d" d="M0 21h1M0 23h1M0 25h1" />
<path stroke="#82b4cd" d="M32 21h1" />
<path stroke="#81b2cb" d="M33 21h2" />
<path stroke="#89bdd7" d="M36 21h1" />
<path stroke="#9e6f21" d="M0 22h1M0 26h1" />
<path stroke="rgba(127,176,201,0.8823529411764706)" d="M30 22h1" />
<path stroke="#4c646f" d="M32 22h1M23 27h1" />
<path stroke="#405159" d="M33 22h2" />
<path stroke="#7aa8c0" d="M36 22h1" />
<path stroke="#80aec4" d="M5 23h1" />
<path stroke="#ff0000" d="M16 23h2M22 23h1M17 24h1M21 24h2M20 25h2M18 26h3" />
<path stroke="#fc809a" d="M20 23h2M18 24h3M18 25h2" />
<path stroke="rgba(60,76,84,0.984313725490196)" d="M30 23h1" />
<path stroke="#2e3335" d="M32 23h1M23 28h1M36 31h1M15 32h1" />
<path stroke="#2b2d2d" d="M33 23h2M30 24h1M33 24h2M36 24h1M30 25h1M33 25h1M36 25h1M30 26h1M36 26h1M36 27h1M36 28h1M23 29h1M36 29h1M36 30h1M10 31h1M10 32h1M10 33h1M10 34h1M10 35h1M10 36h1" />
<path stroke="#3d4d54" d="M36 23h1" />
<path stroke="#6f604f" d="M0 24h1" />
<path stroke="#64767f" d="M5 24h1" />
<path stroke="#85b6cf" d="M10 24h1" />
<path stroke="#595c5e" d="M5 25h1" />
<path stroke="#657983" d="M10 25h1" />
<path stroke="#585a5b" d="M5 26h1M5 27h1M5 28h1M5 29h1M5 30h1" />
<path stroke="#5a5f62" d="M10 26h1" />
<path stroke="#9f712a" d="M0 27h1" />
<path stroke="#5d686d" d="M10 27h1" />
<path stroke="rgba(128,177,202,0.8627450980392157)" d="M15 27h1" />
<path stroke="#292f2d" d="M30 27h1" />
<path stroke="#a27d4a" d="M0 28h1" />
<path stroke="#55595b" d="M10 28h1M5 31h1" />
<path stroke="rgba(116,168,182,0.8823529411764706)" d="M15 28h1" />
<path stroke="#24462a" d="M30 28h1M36 34h1" />
<path stroke="#9b7c54" d="M0 29h1" />
<path stroke="#4f5151" d="M10 29h1" />
<path stroke="rgba(45,121,76,0.984313725490196)" d="M15 29h1" />
<path stroke="#d8d9da" d="M21 29h1M19 30h2" />
<path stroke="rgba(12,115,37,0.984313725490196)" d="M30 29h1" />
<path stroke="#6b6f70" d="M0 30h1" />
<path stroke="#323434" d="M10 30h1" />
<path stroke="#1e672f" d="M15 30h1" />
<path stroke="rgba(2,120,35,0.9098039215686274)" d="M30 30h1" />
<path stroke="#5e6b70" d="M0 31h1" />
<path stroke="#39514f" d="M15 31h1" />
<path stroke="#c92e06" d="M17 31h2M22 31h2M17 32h1M19 32h1M21 32h1M23 32h1M18 33h2M21 33h2M17 34h1M19 34h1M21 34h1M23 34h1M17 35h2M22 35h2" />
<path stroke="#54605a" d="M0 32h1" />
<path stroke="#465359" d="M5 32h1" />
<path stroke="#5ca4a9" d="M18 32h1M22 32h1M17 33h1M20 33h1M18 34h1M22 34h1" />
<path stroke="#ffeedf" d="M24 32h1M23 33h1M25 33h1M20 34h1M24 34h2M19 35h1M21 35h1M24 35h2M28 35h2M14 36h2M18 36h8M28 36h3M13 37h3M18 37h2M21 37h5M28 37h4M13 38h3M18 38h8M29 38h4M13 39h2M18 39h2M21 39h5M30 39h3" />
<path stroke="#037924" d="M30 32h1M30 33h1M30 34h1M0 35h1M0 36h1M5 36h1M0 37h1M5 37h1M36 37h1M0 38h1M5 38h1M36 38h1M0 39h1M5 39h1M36 39h1" />
<path stroke="#3b4b50" d="M36 32h1" />
<path stroke="#4c6350" d="M0 33h1" />
<path stroke="#34393b" d="M5 33h1" />
<path stroke="#2a2d2d" d="M15 33h1" />
<path stroke="#383737" d="M27 33h1M16 34h1M26 34h1M27 35h1M16 36h1M26 36h1M17 37h1M27 37h1M16 38h1M26 38h1M17 39h1M27 39h1" />
<path stroke="#2b4034" d="M36 33h1" />
<path stroke="#1c762d" d="M0 34h1" />
<path stroke="#283e2d" d="M5 34h1" />
<path stroke="#3d7c80" d="M27 34h1M16 35h1M26 35h1M17 36h1M27 36h1M16 37h1M26 37h1M17 38h1M27 38h1M16 39h1M26 39h1" />
<path stroke="#0d7225" d="M5 35h1" />
<path stroke="#126d26" d="M36 35h1" />
<path stroke="#067824" d="M36 36h1M10 39h1" />
<path stroke="#283a2c" d="M10 37h1" />
<path stroke="#146c26" d="M10 38h1" />
</svg>