<svg xmlns="http://www.w3.org/2000/svg" viewBox="0 -0.5 40 40" shape-rendering="crispEdges">
<metadata>Made with Pixels to Svg https://codepen.io/shshaw/pen/XbxvNj</metadata>
<path stroke="#ff69ca" d="M0 0h9M30 0h10M0 1h8M33 1h7M0 2h7M34 2h6M0 3h6M35 3h5M0 4h5M35 4h5M0 5h4M36 5h4M0 6h4M37 6h3M0 7h3M37 7h3M0 8h2M38 8h2M0 9h2M38 9h2M0 10h1M39 10h1M0 11h1M39 11h1M0 12h1M0 26h1M0 27h1M0 28h1M0 29h2M0 30h2M0 31h2M39 31h1M0 32h2M39 32h1M0 33h3M39 33h1M0 34h3M39 34h1M0 35h3M39 35h1M0 36h3M32 36h1M38 36h2M0 37h4M38 37h2M0 38h4M9 38h1M38 38h2M0 39h4M9 39h3M38 39h2" />
<path stroke="#c500d9" d="M9 0h8M19 0h11M8 1h8M20 1h13M7 2h8M21 2h13M6 3h6M24 3h11M5 4h6M26 4h9M4 5h6M27 5h9M4 6h6M28 6h9M3 7h6M29 7h8M2 8h7M30 8h8M2 9h6M30 9h8M1 10h7M31 10h8M1 11h6M31 11h1M34 11h5M1 12h4M35 12h5M0 13h4M36 13h4M0 14h4M37 14h3M0 15h4M37 15h3M0 16h5M37 16h3M0 17h6M36 17h4M0 18h8M36 18h4M0 19h7M34 19h6M0 20h6M30 20h10M0 21h6M30 21h10M0 22h7M29 22h11M0 23h8M10 23h2M27 23h13M0 24h14M26 24h8M35 24h1M37 24h3M0 25h5M6 25h1M8 25h7M25 25h8M38 25h2M1 26h3M9 26h6M24 26h9M39 26h1M1 27h2M9 27h7M23 27h7M31 27h2M1 28h1M9 28h2M12 28h5M24 28h5M32 28h1M9 29h1M13 29h3M25 29h4M13 30h3M25 30h5M12 31h4M25 31h6M2 32h1M11 32h5M26 32h5M11 33h5M27 33h5M10 34h5M30 34h2M10 35h4M31 35h1M10 36h3M9 37h3M10 38h2" />
<path stroke="#18ad04" d="M17 0h1M16 1h1M18 1h1M15 2h6M12 3h2M15 3h8M11 4h2M14 4h1M16 4h3M21 4h4M10 5h4M15 5h3M19 5h4M24 5h2M10 6h3M14 6h3M18 6h2M23 6h4M9 7h3M15 7h1M18 7h1M21 7h1M24 7h4M9 8h2M25 8h4M8 9h2M26 9h4M8 10h1M28 10h2M7 11h2M28 11h3M7 12h2M29 12h2M33 12h1M5 13h2M8 13h1M29 13h5M4 14h5M29 14h2M33 14h3M4 15h4M30 15h3M34 15h3M5 16h2M30 16h2M33 16h3M31 17h3" />
<path stroke="#3ccb14" d="M18 0h1M17 1h1M19 1h1M23 3h1M25 4h1M26 5h1M27 6h1M28 7h1M29 8h1M30 10h1M32 11h2M5 12h2M31 12h2M34 12h1M4 13h1M7 13h1M34 13h2M31 14h2M36 14h1M33 15h1M32 16h1M36 16h1M34 17h2M33 18h3M33 19h1" />
<path stroke="#128e01" d="M14 3h1M15 4h1M19 4h2M14 5h1M18 5h1M23 5h1M13 6h1M17 6h1M20 6h3M12 7h3M16 7h2M19 7h2M22 7h2M11 8h1M24 8h1M10 9h1M25 9h1M9 10h1M26 10h2M9 11h1M27 11h1M9 12h1M28 12h1M9 13h2M28 13h1M9 14h2M8 15h2M29 15h1M7 16h2M29 16h1M6 17h3M29 17h2M29 18h4M30 19h3" />
<path stroke="#128d01" d="M13 4h1" />
<path stroke="#000000" d="M12 8h1M23 8h1M11 9h1M24 9h1M10 10h1M25 10h1M10 11h1M13 11h2M18 11h3M26 11h1M10 12h1M12 12h1M15 12h1M17 12h1M21 12h1M27 12h1M11 13h1M15 13h1M17 13h1M21 13h1M27 13h1M11 14h1M15 14h1M17 14h1M20 14h2M28 14h1M10 15h2M14 15h2M17 15h1M19 15h3M28 15h1M9 16h1M11 16h1M14 16h2M17 16h1M19 16h3M23 16h4M28 16h1M9 17h1M12 17h1M14 17h4M19 17h4M27 17h2M8 18h8M17 18h1M20 18h2M24 18h2M28 18h1M7 19h1M16 19h5M26 19h1M29 19h1M6 20h1M9 20h4M25 20h1M27 20h1M29 20h1M6 21h1M8 21h1M13 21h4M24 21h1M29 21h1M7 22h1M10 22h3M14 22h1M17 22h8M27 22h2M8 23h2M12 23h2M15 23h1M23 23h1M26 23h1M14 24h1M16 24h1M23 24h1M25 24h1M34 24h1M36 24h1M5 25h1M7 25h1M15 25h1M17 25h1M22 25h1M24 25h1M33 25h1M35 25h1M37 25h1M4 26h1M6 26h1M8 26h1M15 26h1M17 26h1M21 26h1M23 26h1M33 26h1M35 26h1M37 26h2M3 27h2M6 27h1M8 27h1M16 27h1M18 27h3M22 27h1M30 27h1M33 27h1M35 27h1M37 27h1M39 27h1M2 28h1M4 28h1M6 28h1M8 28h1M11 28h1M17 28h1M21 28h3M29 28h1M31 28h1M33 28h1M35 28h1M37 28h1M39 28h1M2 29h1M4 29h1M6 29h1M8 29h1M10 29h1M12 29h1M16 29h1M24 29h1M29 29h1M32 29h2M39 29h1M2 30h1M8 30h2M12 30h1M16 30h1M24 30h1M30 30h1M33 30h1M39 30h1M2 31h1M8 31h1M11 31h1M16 31h1M24 31h1M31 31h1M38 31h1M3 32h1M10 32h1M16 32h1M25 32h1M31 32h2M37 32h2M3 33h2M9 33h2M16 33h1M26 33h1M32 33h1M38 33h1M3 34h1M9 34h1M15 34h1M27 34h3M32 34h1M38 34h1M3 35h1M9 35h1M14 35h1M30 35h1M32 35h1M38 35h1M3 36h1M9 36h1M13 36h1M31 36h1M33 36h1M37 36h1M4 37h1M8 37h1M12 37h1M32 37h2M37 37h1M4 38h1M8 38h1M12 38h1M16 38h1M28 38h1M33 38h1M37 38h1M4 39h1M8 39h1M12 39h1M15 39h2M28 39h2M33 39h1M37 39h1" />
<path stroke="#ff7900" d="M13 8h10M12 9h1M15 9h3M21 9h3M11 10h1M13 10h2M16 10h1M18 10h3M22 10h3M11 11h2M15 11h3M21 11h5M11 12h1M16 12h1M22 12h5M16 13h1M22 13h5M16 14h1M22 14h6M16 15h1M22 15h6M16 16h1M22 16h1M27 16h1" />
<path stroke="#ffffff" d="M13 9h2M18 9h3M12 10h1M15 10h1M17 10h1M21 10h1M14 14h1M19 14h1M34 25h1M36 25h1M5 26h1M7 26h1M34 26h1M36 26h1M5 27h1M7 27h1M34 27h1M36 27h1M38 27h1M3 28h1M5 28h1M7 28h1M30 28h1M34 28h1M36 28h1M38 28h1M3 29h1M5 29h1M7 29h1M11 29h1M18 29h1M20 29h1M22 29h1M30 29h2M34 29h5M3 30h5M10 30h2M18 30h1M20 30h1M22 30h1M31 30h2M34 30h5M3 31h5M9 31h2M32 31h6M4 32h6M17 32h1M33 32h4M5 33h4M17 33h2M24 33h2M16 34h4M23 34h3M34 34h1M36 34h1M5 35h1M7 35h1M18 35h3M22 35h3M19 36h5M20 37h3M18 38h7M17 39h3M23 39h3" />
<path stroke="#c3d9f9" d="M13 12h2M18 12h3M12 13h3M18 13h3M12 14h2M18 14h1M12 15h2M18 15h1M12 16h2M18 16h1M13 17h1M18 17h1M18 18h2" />
<path stroke="#ff8a00" d="M10 16h1M10 17h2M23 17h4M16 18h1M22 18h2M26 18h2M8 19h8M21 19h5M27 19h2M7 20h2M13 20h12M26 20h1M28 20h1M7 21h1M9 21h4M17 21h7M25 21h4M8 22h2M13 22h1M25 22h2M14 23h1M24 23h2M15 24h1M24 24h1M16 25h1M23 25h1M16 26h1M22 26h1M17 27h1M21 27h1M18 28h3" />
<path stroke="#ff0000" d="M15 22h2M16 23h3M22 23h1M17 24h1M21 24h2M20 25h2M18 26h3" />
<path stroke="#fc809a" d="M19 23h3M18 24h3M18 25h2" />
<path stroke="#9c5011" d="M17 29h1M19 29h1M21 29h1M23 29h1M17 30h1M19 30h1M21 30h1M23 30h1M18 32h7M19 33h5M20 34h3M26 34h1M33 34h1M35 34h1M37 34h1M4 35h1M6 35h1M8 35h1M15 35h3M21 35h1M25 35h5M14 36h5M24 36h7M34 36h3M5 37h3M13 37h7M23 37h9M34 37h3M5 38h3M13 38h3M17 38h1M25 38h3M29 38h4M34 38h3M5 39h3M13 39h2M20 39h3M26 39h2M30 39h3M34 39h3" />
<path stroke="#673206" d="M17 31h7M33 33h5M4 34h5M33 35h5M4 36h5" />
</svg>