<svg xmlns="http://www.w3.org/2000/svg" viewBox="0 -0.5 40 40" shape-rendering="crispEdges">
<metadata>Made with Pixels to Svg https://codepen.io/shshaw/pen/XbxvNj</metadata>
<path stroke="#0b5af4" d="M0 0h8M26 0h14M0 1h7M30 1h10M0 2h6M32 2h8M0 3h6M12 3h2M34 3h6M0 4h5M11 4h2M35 4h5M0 5h5M10 5h1M36 5h4M0 6h5M27 6h3M36 6h4M0 7h6M28 7h3M37 7h3M0 8h6M28 8h4M37 8h3M0 9h7M29 9h3M37 9h3M0 10h8M37 10h3M0 11h8M36 11h4M0 12h8M36 12h4M0 13h9M24 13h1M37 13h3M0 14h8M37 14h3M0 15h8M38 15h2M0 16h7M37 16h3M0 17h6M31 17h1M37 17h3M0 18h5M31 18h3M35 18h5M0 19h5M32 19h8M0 20h4M32 20h8M0 21h4M32 21h8M0 22h5M31 22h9M0 23h5M31 23h9M0 24h6M29 24h11M0 25h8M10 25h2M28 25h12M0 26h13M27 26h13M0 27h14M26 27h14M0 28h14M25 28h15M0 29h15M26 29h14M0 30h15M27 30h13M0 31h15M28 31h12M0 32h14M30 32h10M0 33h13M32 33h8M0 34h12M34 34h6M0 35h11M34 35h6M0 36h11M35 36h5M0 37h10M35 37h5M0 38h10M21 38h1M36 38h4M0 39h10M19 39h5M25 39h1M36 39h4" />
<path stroke="#0c5bf4" d="M8 0h1M25 0h1M7 1h1M6 2h1M11 3h1M14 3h1M33 3h1M10 4h1M34 4h1M11 5h1M35 5h1M26 6h1M27 7h1M31 7h1M6 8h1M7 9h1M36 13h1M8 14h1M31 16h1M6 17h1M32 17h1M36 17h1M5 18h1M34 18h1M5 23h1M30 23h1M6 24h1M27 25h1M26 26h1M25 27h1M14 28h1M15 29h1M25 29h1M15 30h1M26 30h1M27 31h1M13 33h1M12 34h1M33 34h1M11 35h1M20 38h1M22 38h1M24 39h1" />
<path stroke="#1e67f5" d="M9 0h1M19 0h1M10 6h1M16 30h1M25 30h1M14 33h1M29 36h1" />
<path stroke="#548bf8" d="M10 0h1M11 11h1M27 14h1M25 21h1M10 23h1M23 27h1M17 30h1M21 33h1M25 35h1M32 35h1M17 36h2M15 38h1M29 38h1" />
<path stroke="#ffffff" d="M11 0h4M10 1h1M15 1h4M21 1h3M9 2h1M19 2h6M8 3h1M25 3h5M7 4h1M30 4h2M7 5h1M15 5h8M32 5h1M7 6h1M13 6h11M33 6h1M8 7h2M12 7h13M34 7h1M9 8h4M23 8h3M34 8h1M11 9h3M18 9h4M24 9h3M34 9h1M10 10h1M22 10h1M25 10h2M34 10h1M10 11h1M13 11h2M18 11h3M26 11h3M33 11h1M10 12h1M12 12h1M15 12h1M17 12h1M21 12h1M26 12h2M29 12h5M11 13h1M15 13h1M17 13h1M21 13h1M27 13h1M32 13h2M11 14h1M15 14h1M17 14h1M20 14h2M28 14h1M32 14h3M10 15h2M14 15h2M17 15h1M19 15h3M28 15h1M33 15h3M9 16h1M11 16h1M14 16h2M17 16h1M19 16h3M23 16h4M28 16h1M34 16h1M9 17h1M12 17h1M14 17h4M19 17h4M27 17h2M8 18h8M17 18h1M20 18h2M24 18h2M28 18h1M7 19h1M16 19h5M26 19h1M29 19h1M6 20h1M9 20h4M25 20h1M27 20h1M29 20h1M6 21h1M8 21h1M13 21h4M24 21h1M29 21h1M7 22h1M10 22h3M14 22h1M17 22h8M27 22h2M8 23h2M12 23h2M15 23h1M23 23h1M26 23h1M14 24h1M16 24h1M23 24h1M25 24h1M15 25h1M17 25h1M22 25h1M24 25h1M15 26h1M17 26h1M21 26h1M23 26h1M16 27h1M18 27h3M22 27h1M17 28h1M21 28h2M18 29h3M22 29h1M18 30h1M22 30h2M17 31h2M23 31h2M16 32h1M19 32h1M22 32h1M25 32h1M16 33h1M20 33h1M22 33h1M26 33h1M15 34h1M19 34h1M23 34h1M27 34h3M14 35h2M20 35h1M22 35h1M26 35h1M30 35h2M13 36h1M16 36h1M19 36h1M23 36h1M25 36h2M31 36h2M12 37h1M17 37h2M24 37h1M32 37h1M12 38h1M16 38h1M28 38h1M33 38h1M12 39h1M15 39h2M28 39h2M33 39h1" />
<path stroke="#6396f8" d="M15 0h1M14 5h1M11 10h1M26 17h1M16 22h1M23 29h1M23 32h1" />
<path stroke="#4984f7" d="M16 0h1M22 0h1M21 3h2M23 28h1" />
<path stroke="#4581f7" d="M17 0h1M7 3h1M20 3h1M23 3h1M16 4h1M32 4h1M15 8h1M31 11h1M22 14h1M6 19h1M19 20h1M20 21h1M6 22h1M7 23h1M17 23h1M25 25h1M19 26h1M15 27h1M12 36h1M20 36h1M13 39h1" />
<path stroke="#3979f6" d="M18 0h1M19 3h1M15 4h1M29 14h1M31 14h1M18 25h1M24 35h1M27 36h1M26 37h1M30 39h1" />
<path stroke="#2068f5" d="M20 0h1M25 6h1M24 11h1M18 24h1M30 37h1" />
<path stroke="#3d7cf7" d="M21 0h1M23 0h1M28 2h1M28 4h1M30 20h1" />
<path stroke="#1d66f5" d="M24 0h1M9 4h1M24 4h1M32 16h1M7 17h1M30 18h1M11 24h1M20 25h1M24 27h1" />
<path stroke="#1b65f5" d="M8 1h1M7 2h1M10 3h1M12 5h1M31 6h1M15 10h1M35 11h1M36 14h1M6 18h1M23 19h1M26 25h1M25 26h1M16 29h1M32 34h1M12 35h1M20 37h1M22 37h1M34 37h1" />
<path stroke="#4380f7" d="M9 1h1M13 1h1M9 3h1M32 6h1M16 8h1M9 9h1M12 14h1M21 23h1M26 24h1M28 35h1" />
<path stroke="#538bf8" d="M11 1h1M25 2h1M34 11h1M13 12h1M18 14h1M13 19h1M20 26h1M19 30h1M30 34h1M33 37h1" />
<path stroke="#4481f7" d="M12 1h1M10 2h1M33 5h1M29 13h1M22 21h1M26 32h1M25 33h1M22 36h1M13 38h1" />
<path stroke="#528af8" d="M14 1h1M33 10h1M17 20h1M27 33h1M14 36h1M32 38h1" />
<path stroke="#558cf8" d="M19 1h1M24 1h1M22 15h1M21 19h1M27 21h1M24 30h1M19 31h1M18 32h1M16 35h1" />
<path stroke="#6194f8" d="M20 1h1M10 7h1M26 20h1M28 20h1M23 35h1" />
<path stroke="#1f67f5" d="M25 1h1M26 7h1M32 10h1M9 14h1M22 19h1M23 20h1M17 34h1M30 38h2" />
<path stroke="#115ef5" d="M26 1h1M30 10h2M30 15h1M30 17h1M20 24h1" />
<path stroke="#105ef5" d="M27 1h1M12 2h2M25 5h1M28 5h1M32 8h1M36 8h1M32 9h1M36 9h1M16 10h1M24 14h1M30 16h1M19 24h1M28 32h1M31 33h1M35 39h1" />
<path stroke="#0f5df5" d="M28 1h1M31 2h1M13 4h1M5 5h1M26 5h2M8 10h1M8 11h1M23 12h2M23 13h1M7 16h1M31 20h1M13 26h1M14 32h1M34 36h1M10 38h1M10 39h1M26 39h1" />
<path stroke="#0e5cf4" d="M29 1h1M5 4h1M5 6h1M30 6h1M36 7h1M36 10h1M8 12h1M31 19h1M4 20h1M31 21h1M28 24h1M12 25h1M10 37h1M21 37h1M35 38h1" />
<path stroke="#427ff7" d="M8 2h1M30 11h1M29 16h1M24 19h1M21 21h1M21 32h1M23 37h1" />
<path stroke="#1c65f5" d="M11 2h1M14 4h1M33 4h1M34 5h1M32 7h1M7 8h1M27 8h1M29 10h1M9 13h1M10 24h1M27 24h1M13 25h1M26 31h1M27 32h1M30 33h1M13 34h1M33 35h1M29 37h1" />
<path stroke="#1a64f5" d="M14 2h1M30 2h1M32 3h1M35 6h1M8 9h1M25 13h1M36 16h1M30 22h1M6 23h1M15 28h1" />
<path stroke="#3274f6" d="M15 2h1M5 20h1M14 26h1" />
<path stroke="#3c7cf7" d="M16 2h1M27 4h1M27 9h1M19 23h2M11 38h1M11 39h1M14 39h1" />
<path stroke="#407ef7" d="M17 2h1M26 2h1M33 9h1M14 10h1M21 34h1" />
<path stroke="#5189f8" d="M18 2h1M30 3h1M17 8h1M12 11h1M12 13h1M27 15h1M15 20h1M13 37h1M31 37h1" />
<path stroke="#3e7df7" d="M27 2h1M33 8h1M35 8h1M35 9h1M22 13h1M34 39h1" />
<path stroke="#3375f6" d="M29 2h1M6 4h1M9 12h1M11 37h1" />
<path stroke="#1963f5" d="M6 3h1M29 5h1M23 11h1M8 15h1M31 15h1M35 17h1M5 19h1M29 23h1M15 31h1M11 36h1M19 38h1M25 38h1" />
<path stroke="#125ff5" d="M15 3h1M16 9h1M35 12h1M25 14h1M24 28h1" />
<path stroke="#1561f5" d="M16 3h1M19 25h1M31 39h1" />
<path stroke="#1762f5" d="M17 3h1M30 14h1M33 17h1M28 36h1M23 38h1" />
<path stroke="#2169f5" d="M18 3h1M11 6h1M21 20h1M20 30h1" />
<path stroke="#5089f8" d="M24 3h1M8 4h1M15 33h1M14 34h1M29 35h1M25 37h1" />
<path stroke="#3778f6" d="M31 3h1M22 11h1M12 24h1" />
<path stroke="#4682f7" d="M17 4h1M8 5h1M34 6h1M19 12h1M14 13h1M29 17h1M7 18h1M19 21h1M21 25h1M24 26h1M13 35h1M19 37h1M17 39h1" />
<path stroke="#4883f7" d="M18 4h1M7 7h1M12 15h1M18 21h1M29 22h1M16 31h1M25 31h1M20 32h1M21 35h1" />
<path stroke="#4b85f7" d="M19 4h1M21 4h1M34 12h1M24 20h1" />
<path stroke="#4c86f7" d="M20 4h1M8 8h1M14 19h1M25 22h2M17 24h1M14 25h1" />
<path stroke="#3f7ef7" d="M22 4h1M13 15h1M24 15h2M29 15h1M18 23h1M32 39h1" />
<path stroke="#236af5" d="M23 4h1M14 38h1" />
<path stroke="#2f73f6" d="M25 4h1M5 21h1M24 34h1" />
<path stroke="#3a7af6" d="M26 4h1M6 5h1M25 12h1M21 30h1M31 34h1M33 36h1" />
<path stroke="#4e87f7" d="M29 4h1M33 7h1M13 24h1M30 36h1" />
<path stroke="#1662f5" d="M9 5h1" />
<path stroke="#3c7bf7" d="M13 5h1M9 6h1M23 18h1M20 20h1" />
<path stroke="#5c91f8" d="M23 5h1M8 6h1M26 8h1M13 10h1M26 18h1M17 38h1" />
<path stroke="#2269f5" d="M24 5h1M35 13h1M26 14h1M21 24h1M24 29h1M20 31h1M17 35h1M14 37h1" />
<path stroke="#3174f6" d="M30 5h1M9 24h1" />
<path stroke="#4a85f7" d="M31 5h1M15 11h1M17 11h1M9 15h1" />
<path stroke="#3073f6" d="M6 6h1" />
<path stroke="#568df8" d="M12 6h1M24 10h1M25 23h1M22 24h1" />
<path stroke="#5d92f8" d="M24 6h1M20 12h1M15 19h1M11 23h1M21 29h1" />
<path stroke="#1863f5" d="M6 7h1M5 22h1M7 24h1M14 27h1" />
<path stroke="#6698f8" d="M11 7h1M28 21h1" />
<path stroke="#5a90f8" d="M25 7h1" />
<path stroke="#3476f6" d="M35 7h1M14 9h1M35 10h1M30 21h1M28 23h1M29 33h1M27 38h1" />
<path stroke="#8bb1fa" d="M13 8h1M21 27h1" />
<path stroke="#548cf8" d="M14 8h1M12 10h1M29 11h1M10 13h1M32 15h1M29 18h1M24 32h1M23 33h1M16 34h1M15 36h1" />
<path stroke="#6d9df9" d="M18 8h1M27 10h1M11 12h1M9 19h1M7 21h1" />
<path stroke="#7aa5f9" d="M19 8h2M18 16h1M16 25h1M16 26h1" />
<path stroke="#719ff9" d="M21 8h1M24 24h1M22 31h1" />
<path stroke="#73a1f9" d="M22 8h1" />
<path stroke="#7ca6f9" d="M10 9h1M10 16h1M15 22h1" />
<path stroke="#1360f5" d="M15 9h1M28 9h1M26 38h1M18 39h1" />
<path stroke="#2e72f6" d="M17 9h1M8 24h1M25 34h1" />
<path stroke="#598ff8" d="M22 9h1M8 17h1M8 20h1" />
<path stroke="#6597f8" d="M23 9h1M26 34h1M16 37h1" />
<path stroke="#3677f6" d="M9 10h1M22 12h1M8 16h1M18 38h1" />
<path stroke="#266df6" d="M17 10h1" />
<path stroke="#5b90f8" d="M18 10h1M14 12h1M18 12h1M12 16h1M13 20h1M17 32h1M27 35h1" />
<path stroke="#709ff9" d="M19 10h1" />
<path stroke="#6b9bf9" d="M20 10h1M25 19h1" />
<path stroke="#5e92f8" d="M21 10h1M25 11h1M16 12h1M10 14h1M14 14h1M19 14h1M23 21h1M18 26h1M19 33h1M19 35h1" />
<path stroke="#3b7af6" d="M23 10h1M28 10h1M9 11h1M23 15h1M26 15h1M17 29h1" />
<path stroke="#2a6ff6" d="M16 11h1M21 31h1M18 34h1M28 37h1" />
<path stroke="#588ef8" d="M21 11h1M13 16h1M16 23h1" />
<path stroke="#6094f8" d="M32 11h1M23 17h1M8 19h1M28 19h1M9 21h1M19 28h2" />
<path stroke="#81aafa" d="M28 12h1M22 16h1M22 26h1" />
<path stroke="#246bf5" d="M13 13h1M13 14h1M27 37h1M24 38h1" />
<path stroke="#74a1f9" d="M16 13h1" />
<path stroke="#4783f7" d="M18 13h1M18 20h1" />
<path stroke="#2b70f6" d="M19 13h1M36 15h1" />
<path stroke="#6295f8" d="M20 13h1M27 18h1M9 22h1M20 34h1" />
<path stroke="#4f88f8" d="M26 13h1M33 16h1M35 16h1" />
<path stroke="#6496f8" d="M28 13h1M22 34h1M24 36h1" />
<path stroke="#417ff7" d="M30 13h1M16 28h1M28 33h1M27 39h1" />
<path stroke="#6a9af9" d="M31 13h1M34 13h1" />
<path stroke="#77a3f9" d="M16 14h1M18 17h1" />
<path stroke="#1460f5" d="M23 14h1M22 20h1" />
<path stroke="#578ef8" d="M35 14h1M22 18h1M27 19h1M17 21h1" />
<path stroke="#7ea8fa" d="M16 15h1M11 17h1" />
<path stroke="#6f9ef9" d="M18 15h1M24 23h1" />
<path stroke="#0d5cf4" d="M37 15h1M4 21h1M8 25h2M29 32h1" />
<path stroke="#9bbbfb" d="M16 16h1" />
<path stroke="#79a5f9" d="M27 16h1M10 17h1" />
<path stroke="#89b0fa" d="M13 17h1" />
<path stroke="#6798f9" d="M24 17h1" />
<path stroke="#699af9" d="M25 17h1M22 23h1" />
<path stroke="#296ff6" d="M34 17h1M18 35h1" />
<path stroke="#a4c2fb" d="M16 18h1" />
<path stroke="#7da7f9" d="M18 18h1" />
<path stroke="#8fb3fa" d="M19 18h1" />
<path stroke="#75a2f9" d="M10 19h2" />
<path stroke="#6d9cf9" d="M12 19h1" />
<path stroke="#3576f6" d="M30 19h1M15 32h1M34 38h1" />
<path stroke="#5f93f8" d="M7 20h1M16 20h1M18 28h1" />
<path stroke="#4d87f7" d="M14 20h1M27 23h1" />
<path stroke="#6c9bf9" d="M10 21h1" />
<path stroke="#76a3f9" d="M11 21h1" />
<path stroke="#7fa8fa" d="M12 21h1M15 24h1M17 27h1" />
<path stroke="#3878f6" d="M26 21h1M17 33h1" />
<path stroke="#6e9df9" d="M8 22h1" />
<path stroke="#99bafb" d="M13 22h1" />
<path stroke="#85adfa" d="M14 23h1" />
<path stroke="#80a9fa" d="M23 25h1" />
<path stroke="#2c71f6" d="M18 33h1" />
<path stroke="#2d71f6" d="M24 33h1M15 37h1" />
<path stroke="#276df6" d="M21 36h1" />
</svg>