<svg xmlns="http://www.w3.org/2000/svg" viewBox="0 -0.5 40 40" shape-rendering="crispEdges">
<metadata>Made with Pixels to Svg https://codepen.io/shshaw/pen/XbxvNj</metadata>
<path stroke="#1800ff" d="M0 0h2M5 0h1M2 1h1M5 1h1M3 2h3M4 3h2M4 4h3M5 5h2M6 6h1M6 7h2M7 8h1M0 13h1" />
<path stroke="#1900ff" d="M2 0h3M3 1h2" />
<path stroke="#1600fd" d="M6 0h1M6 1h1M7 4h1M8 6h1M8 7h1" />
<path stroke="#1300de" d="M7 0h1" />
<path stroke="#0a007e" d="M8 0h1" />
<path stroke="#030023" d="M9 0h1" />
<path stroke="#000000" d="M10 0h22M11 1h21M11 2h7M23 2h8M12 3h3M26 3h5M12 4h1M28 4h2M29 5h1M10 14h2M13 14h1M16 14h8M25 14h4M10 15h2M13 15h1M16 15h9M26 15h3M8 18h2M7 19h1M16 19h5M26 19h1M6 20h1M9 20h4M25 20h1M6 21h1M8 21h1M13 21h4M24 21h1M7 22h1M10 22h3M14 22h1M17 22h8M8 23h2M12 23h2M15 23h1M23 23h1M26 23h1M0 24h1M14 24h1M16 24h1M23 24h1M25 24h1M0 25h2M15 25h1M17 25h1M22 25h1M24 25h1M0 26h3M15 26h1M17 26h1M21 26h1M23 26h1M39 26h1M0 27h4M16 27h1M18 27h3M37 27h3M0 28h5M36 28h4M0 29h6M37 29h3M0 30h7M17 30h4M22 30h2M38 30h2M0 31h8M17 31h2M39 31h1M0 32h7M17 32h6M0 33h6M16 33h3M0 34h5M11 34h2M18 34h4M0 35h5M10 35h3M19 35h1M30 35h2M0 36h4M9 36h2M30 36h3M0 37h4M8 37h2M32 37h1M0 38h4M8 38h1M32 38h1M0 39h4M8 39h1M32 39h2" />
<path stroke="#040000" d="M32 0h1M31 2h1M30 4h1M29 6h1M39 25h1M38 26h1M36 27h1M35 28h1" />
<path stroke="#170000" d="M33 0h1M39 24h1M38 25h1M35 27h1M34 28h1M29 33h1" />
<path stroke="#490000" d="M34 0h1M39 23h1" />
<path stroke="#9b0000" d="M35 0h1" />
<path stroke="#e50000" d="M36 0h1M32 7h1M39 21h1" />
<path stroke="#fd0000" d="M37 0h1M35 3h1M34 5h1M33 7h1M32 9h1M32 13h1M32 14h1M35 23h1M26 27h1M25 29h1" />
<path stroke="#ff0000" d="M38 0h2M37 1h3M37 2h3M36 3h4M35 4h5M35 5h5M34 6h6M34 7h3M33 8h4M33 9h3M32 10h4M32 11h3M32 12h2M39 17h1M38 18h2M37 19h3M37 20h2M36 21h1M15 22h2M35 22h1M16 23h3M22 23h1M34 23h1M17 24h1M21 24h2M20 25h2M18 26h3M27 26h4M27 27h3M26 28h3M26 29h2" />
<path stroke="#1600ff" d="M0 1h1M7 5h1M8 9h1M0 10h1M0 11h1M1 12h1M2 13h1M0 14h1M0 15h2M0 16h3M0 17h4M6 17h1M2 18h3M6 18h1M3 19h4M4 20h2M5 21h1M6 22h1M7 23h1M8 24h1M9 25h1M15 32h1" />
<path stroke="#1700ff" d="M1 1h1M6 3h1M7 6h1M8 10h1M0 12h1M1 13h1M1 14h2M2 15h2M3 16h2M4 17h2M5 18h1" />
<path stroke="#1300df" d="M7 1h1M9 7h1" />
<path stroke="#0b0081" d="M8 1h1" />
<path stroke="#030027" d="M9 1h1" />
<path stroke="#000004" d="M10 1h1M11 3h1M0 23h1M1 24h1M2 25h1M3 26h1M4 27h1M5 28h1M6 29h1M7 30h1" />
<path stroke="#110000" d="M32 1h1M31 3h1M30 5h1" />
<path stroke="#420000" d="M33 1h1M37 25h1" />
<path stroke="#8e0000" d="M34 1h1M37 24h1" />
<path stroke="#d30000" d="M35 1h1M34 25h1M32 27h1" />
<path stroke="#f60000" d="M36 1h1M33 6h1M32 8h1M38 21h1M37 22h1M34 24h1" />
<path stroke="#251dff" d="M0 2h1M7 16h1" />
<path stroke="#1c10ff" d="M1 2h1" />
<path stroke="#1804ff" d="M2 2h1M3 3h1M4 5h1M5 6h1M6 8h1" />
<path stroke="#1600fe" d="M6 2h1M8 8h1" />
<path stroke="#1300e6" d="M7 2h1M8 4h1M13 31h1" />
<path stroke="#0d009b" d="M8 2h1" />
<path stroke="#050045" d="M9 2h1M10 4h1M3 24h1M4 25h1M5 26h1M8 29h1M9 30h1" />
<path stroke="#010011" d="M10 2h1M11 4h1" />
<path stroke="#89838b" d="M18 2h5M15 3h3M24 3h2M13 4h2M18 4h2M11 5h2M16 5h4M25 5h1M27 5h1M11 6h1M23 6h1M26 6h2M10 7h1M13 7h2M22 7h1M25 7h3M9 8h2M12 8h2M21 8h1M25 8h4M9 9h2M12 9h2M15 9h2M20 9h1M22 9h1M24 9h5M9 10h2M12 10h1M15 10h3M22 10h1M25 10h5M9 11h2M12 11h1M15 11h2M22 11h1M26 11h4M31 12h1M9 13h4M15 13h4M20 13h9M9 16h2M12 16h1M15 16h2M22 16h4M28 16h2M10 17h1M12 17h1M15 17h2M23 17h3M28 17h4M10 18h1M12 18h1M15 18h2M23 18h3M28 18h2M31 31h1M31 32h1M7 33h1M31 33h1M6 34h1M16 34h2M25 34h4M32 34h1M5 35h1M14 35h2M18 35h1M22 35h1M32 35h2M5 36h1M20 36h1M33 36h2M5 37h1M15 37h2M20 37h1M25 37h4M34 37h2M4 38h1M13 38h4M25 38h3M34 38h2M4 39h1M13 39h3M24 39h3M34 39h2" />
<path stroke="#220000" d="M32 2h1M31 4h1M30 6h1" />
<path stroke="#700000" d="M33 2h1M30 8h1M36 25h1" />
<path stroke="#ca0000" d="M34 2h1M33 4h1M31 8h1M36 24h1" />
<path stroke="#f40000" d="M35 2h1" />
<path stroke="#fe0000" d="M36 2h1M39 20h1M37 21h1M36 22h1M33 24h1M31 26h1M30 27h1M29 28h1M28 29h1" />
<path stroke="#6c6aff" d="M0 3h1" />
<path stroke="#4440ff" d="M1 3h1M2 4h1M4 7h1M6 10h1" />
<path stroke="#2017ff" d="M2 3h1M4 6h1M0 8h1M6 9h1M8 12h1" />
<path stroke="#1500f6" d="M7 3h1" />
<path stroke="#1100cd" d="M8 3h1" />
<path stroke="#090073" d="M9 3h1" />
<path stroke="#020023" d="M10 3h1" />
<path stroke="#69626b" d="M18 3h6M15 4h3M20 4h3M25 4h2M13 5h3M20 5h2M12 6h2M18 6h2M28 6h1M11 7h2M16 7h3M23 7h1M28 7h1M11 8h1M14 8h2M22 8h1M29 8h1M11 9h1M14 9h1M21 9h1M29 9h1M11 10h1M13 10h2M30 10h1M11 11h1M13 11h2M30 11h2M9 12h4M15 12h5M21 12h9M13 13h2M30 13h2M29 14h1M29 15h1M11 16h1M13 16h2M30 16h2M9 17h1M11 17h1M13 17h2M11 18h1M13 18h2M32 29h5M31 30h1M37 30h1M8 31h5M30 31h1M38 31h1M7 32h1M13 32h1M30 32h1M39 32h1M6 33h1M13 33h1M30 33h1M5 34h1M13 34h1M30 34h1M39 34h1M13 35h1M24 35h6M39 35h1M4 36h1M11 36h7M21 36h1M39 36h1M4 37h1M10 37h1M21 37h1M39 37h1M9 38h1M33 38h1M39 38h1M9 39h1M39 39h1" />
<path stroke="#440000" d="M32 3h1M30 7h1" />
<path stroke="#990000" d="M33 3h1M31 7h1" />
<path stroke="#e40000" d="M34 3h1M33 5h1M31 9h1M35 24h1M24 29h1" />
<path stroke="#aaa8ff" d="M0 4h1" />
<path stroke="#817fff" d="M1 4h1" />
<path stroke="#1d11ff" d="M3 4h1M5 7h1" />
<path stroke="#0c009c" d="M9 4h1" />
<path stroke="#a8a2ab" d="M23 4h2M27 4h1M22 5h1M26 5h1M28 5h1M15 6h3M20 6h2M24 6h2M19 7h2M24 7h1M29 7h1M18 8h1M23 8h2M17 9h3M23 9h1M30 9h1M18 10h4M23 10h2M17 11h5M23 11h3M29 13h1M31 14h1M30 15h1M17 16h1M21 16h1M26 16h2M17 17h1M21 17h2M26 17h2M17 18h1M21 18h2M26 18h2M32 30h4M32 31h5M8 32h3M16 32h1M24 32h1M34 32h4M8 33h2M24 33h1M26 33h3M35 33h4M7 34h2M29 34h1M33 34h1M36 34h3M6 35h2M34 35h1M36 35h3M6 36h2M23 36h1M29 36h1M37 36h2M6 37h2M11 37h1M17 37h3M22 37h1M29 37h3M33 37h1M38 37h1M5 38h3M10 38h1M17 38h3M22 38h1M28 38h4M38 38h1M5 39h3M10 39h1M16 39h4M22 39h1M27 39h5M36 39h1M38 39h1" />
<path stroke="#710000" d="M32 4h1M31 6h1" />
<path stroke="#f50000" d="M34 4h1M31 10h1M36 23h1M33 25h1M32 26h1M25 28h1M30 28h1M29 29h1M28 30h1" />
<path stroke="#9492ff" d="M0 5h1" />
<path stroke="#a8a7ff" d="M1 5h1M5 12h1" />
<path stroke="#6d6bff" d="M2 5h1M4 8h1M4 12h1" />
<path stroke="#2922ff" d="M3 5h1M5 8h1M7 11h1" />
<path stroke="#1500f7" d="M8 5h1M13 30h1" />
<path stroke="#1100cc" d="M9 5h1" />
<path stroke="#09006f" d="M10 5h1" />
<path stroke="#e9e3ec" d="M23 5h2M14 6h1M22 6h1M15 7h1M21 7h1M16 8h2M19 8h2M20 12h1M19 13h1M18 16h1M18 17h1M18 18h1" />
<path stroke="#450000" d="M31 5h1" />
<path stroke="#9a0000" d="M32 5h1M35 25h1" />
<path stroke="#6e6bff" d="M0 6h1M6 11h1" />
<path stroke="#a7a5ff" d="M1 6h1M3 9h1" />
<path stroke="#8987ff" d="M2 6h1M2 8h1M6 12h1" />
<path stroke="#4845ff" d="M3 6h1M15 29h1" />
<path stroke="#1200dd" d="M9 6h1" />
<path stroke="#0a007d" d="M10 6h1" />
<path stroke="#cc0000" d="M32 6h1" />
<path stroke="#433fff" d="M0 7h1M2 10h1" />
<path stroke="#7f7dff" d="M1 7h1M5 10h1" />
<path stroke="#9d9bff" d="M2 7h1" />
<path stroke="#807eff" d="M3 7h1" />
<path stroke="#ff0404" d="M37 7h1M36 9h1M35 11h1M34 12h1M33 13h1M32 15h1M39 16h1M38 17h1M37 18h1M36 20h1M35 21h1M34 22h1M33 23h1M28 25h1" />
<path stroke="#ff1010" d="M38 7h1M32 24h1M31 25h1M26 30h1" />
<path stroke="#ff1d1d" d="M39 7h1M32 23h1" />
<path stroke="#4743ff" d="M1 8h1" />
<path stroke="#a8a6ff" d="M3 8h1M5 11h1" />
<path stroke="#ff1111" d="M37 8h1M36 10h1M33 14h1M36 19h1" />
<path stroke="#ff3d3d" d="M38 8h1" />
<path stroke="#ff6d6d" d="M39 8h1M34 15h1M32 18h1" />
<path stroke="#1604ff" d="M0 9h1M1 11h1M2 12h1M9 24h1M10 26h1M11 27h1M14 30h1M15 31h1" />
<path stroke="#2820ff" d="M1 9h1M14 29h1" />
<path stroke="#6d6aff" d="M2 9h1" />
<path stroke="#8986ff" d="M4 9h1" />
<path stroke="#4844ff" d="M5 9h1M7 12h1" />
<path stroke="#1704ff" d="M7 9h1M8 11h1M3 14h1M4 15h1M5 16h1" />
<path stroke="#ff2222" d="M37 9h1M36 11h1M36 18h1" />
<path stroke="#ff6f6f" d="M38 9h1M37 11h1" />
<path stroke="#ffc0c0" d="M39 9h1M38 11h1" />
<path stroke="#1b0fff" d="M1 10h1M3 13h1M6 16h1M13 29h1M16 31h1" />
<path stroke="#7e7bff" d="M3 10h1" />
<path stroke="#9b99ff" d="M4 10h1" />
<path stroke="#1c11ff" d="M7 10h1" />
<path stroke="#ff4444" d="M37 10h1M31 19h1M34 20h1" />
<path stroke="#ff9898" d="M38 10h1" />
<path stroke="#ffe1e1" d="M39 10h1" />
<path stroke="#1f16ff" d="M2 11h1" />
<path stroke="#4643ff" d="M3 11h1" />
<path stroke="#8886ff" d="M4 11h1" />
<path stroke="#ffdada" d="M39 11h1" />
<path stroke="#2821ff" d="M3 12h1M7 18h1" />
<path stroke="#534e54" d="M13 12h2M30 12h1" />
<path stroke="#ff1717" d="M35 12h1M34 13h1M39 15h1M32 16h1M38 16h1M37 17h1M35 20h1M34 21h1M33 22h1M30 25h1" />
<path stroke="#ff4949" d="M36 12h1" />
<path stroke="#ff9696" d="M37 12h1" />
<path stroke="#ffc6c6" d="M38 12h1M37 13h1" />
<path stroke="#ffa2a2" d="M39 12h1" />
<path stroke="#423eff" d="M4 13h1M8 13h1" />
<path stroke="#7d7bff" d="M5 13h1" />
<path stroke="#9a98ff" d="M6 13h1" />
<path stroke="#7c7aff" d="M7 13h1" />
<path stroke="#ff4747" d="M35 13h1" />
<path stroke="#ff8d8d" d="M36 13h1M37 15h1M31 21h1" />
<path stroke="#ffbebe" d="M38 13h1" />
<path stroke="#ff7070" d="M39 13h1" />
<path stroke="#1f15ff" d="M4 14h1" />
<path stroke="#4541ff" d="M5 14h1" />
<path stroke="#7c79ff" d="M6 14h1" />
<path stroke="#8f8dff" d="M7 14h1" />
<path stroke="#5a57ff" d="M8 14h1M7 15h1" />
<path stroke="#2218ff" d="M9 14h1" />
<path stroke="#ffffff" d="M12 14h1M14 14h2M24 14h1M12 15h1M14 15h2M25 15h1" />
<path stroke="#3f3b3f" d="M30 14h1M31 15h1M30 19h1M27 20h4M27 21h3M27 22h3M27 23h2M26 24h3M25 25h3M24 26h2M22 27h3M19 28h5M21 38h1M21 39h1" />
<path stroke="#ff4242" d="M34 14h1M39 14h1M32 17h1M35 19h1M33 21h1" />
<path stroke="#ff8c8c" d="M35 14h1M38 14h1" />
<path stroke="#ffc5c5" d="M36 14h2" />
<path stroke="#2015ff" d="M5 15h1M15 30h1" />
<path stroke="#413cff" d="M6 15h1M16 30h1" />
<path stroke="#403bff" d="M8 15h1" />
<path stroke="#271dff" d="M9 15h1" />
<path stroke="#ff2121" d="M33 15h1M31 18h1" />
<path stroke="#ffbcbc" d="M35 15h1M34 18h1" />
<path stroke="#ffc4c4" d="M36 15h1" />
<path stroke="#ff4646" d="M38 15h1M33 16h1M37 16h1M36 17h1" />
<path stroke="#413dff" d="M8 16h1" />
<path stroke="#d9d5dc" d="M19 16h2M19 17h2M19 18h2M36 30h1M37 31h1M25 32h1M32 32h1M38 32h1M25 33h1M32 33h1M39 33h1M24 34h1M31 34h1M23 35h1M18 36h2M22 36h1M25 36h4M13 37h2M24 37h1M12 38h1M20 38h1M23 38h1M11 39h1M20 39h1M23 39h1" />
<path stroke="#ff8a8a" d="M34 16h1M36 16h1M35 17h1" />
<path stroke="#ffb0b0" d="M35 16h1" />
<path stroke="#251eff" d="M7 17h1" />
<path stroke="#6b68ff" d="M8 17h1" />
<path stroke="#ff8989" d="M33 17h1M34 19h1" />
<path stroke="#ffb1b1" d="M34 17h1" />
<path stroke="#1500fe" d="M0 18h1M2 19h1M3 20h1M4 21h1M5 22h1M6 23h1M7 24h1M8 25h1M9 26h1M10 27h1M11 28h1" />
<path stroke="#1500ff" d="M1 18h1" />
<path stroke="#292729" d="M30 18h1M27 19h3" />
<path stroke="#ffbbbb" d="M33 18h1" />
<path stroke="#ff6e6e" d="M35 18h1" />
<path stroke="#1300e5" d="M0 19h1" />
<path stroke="#1400f6" d="M1 19h1" />
<path stroke="#ff8a00" d="M8 19h2M7 20h2M13 20h12M26 20h1M7 21h1M9 21h4M17 21h7M25 21h2M8 22h2M13 22h1M25 22h2M14 23h1M24 23h2M15 24h1M24 24h1M16 25h1M23 25h1M16 26h1M22 26h1M17 27h1M21 27h1" />
<path stroke="#de7b08" d="M10 19h6M21 19h5" />
<path stroke="#ff8888" d="M32 19h1" />
<path stroke="#ffafaf" d="M33 19h1" />
<path stroke="#0c009a" d="M0 20h1" />
<path stroke="#1100d2" d="M1 20h1M2 21h1M3 22h1M7 26h1M8 27h1" />
<path stroke="#1400f5" d="M2 20h1M3 21h1M4 22h1M7 25h1M9 27h1" />
<path stroke="#ff7a7a" d="M31 20h1M32 21h1" />
<path stroke="#ff9999" d="M32 20h1" />
<path stroke="#ff7d7d" d="M33 20h1" />
<path stroke="#060048" d="M0 21h1" />
<path stroke="#0b008d" d="M1 21h1M3 23h1M4 24h1M5 25h1M6 26h1M8 28h1M9 29h1" />
<path stroke="#ff5a5a" d="M30 21h1" />
<path stroke="#010017" d="M0 22h1M2 24h1M5 27h1M7 29h1" />
<path stroke="#050046" d="M1 22h1M2 23h1M6 27h1M7 28h1" />
<path stroke="#0b008f" d="M2 22h1M7 27h1" />
<path stroke="#ff6666" d="M30 22h1" />
<path stroke="#ff6767" d="M31 22h1" />
<path stroke="#ff3f3f" d="M32 22h1" />
<path stroke="#d40000" d="M38 22h1" />
<path stroke="#9c0000" d="M39 22h1" />
<path stroke="#010016" d="M1 23h1M3 25h1M4 26h1M6 28h1M8 30h1" />
<path stroke="#1100d1" d="M4 23h1M5 24h1M6 25h1M9 28h1M10 29h1" />
<path stroke="#1400f4" d="M5 23h1M6 24h1M8 26h1M10 28h1M11 29h1" />
<path stroke="#4b47ff" d="M10 23h1" />
<path stroke="#2b282b" d="M11 23h1M11 24h3M12 25h3M13 26h2M26 26h1M14 27h2M25 27h1M15 28h4M24 28h1M16 29h8M21 30h1" />
<path stroke="#fc809a" d="M19 23h3M18 24h3M18 25h2" />
<path stroke="#ff5454" d="M29 23h1M30 24h1" />
<path stroke="#ff8181" d="M30 23h1" />
<path stroke="#ff5858" d="M31 23h1" />
<path stroke="#d20000" d="M37 23h1M33 26h1M31 28h1M30 29h1M29 30h1M28 31h1" />
<path stroke="#8f0000" d="M38 23h1M34 26h1M32 28h1M31 29h1M30 30h1M29 31h1" />
<path stroke="#2921ff" d="M10 24h1" />
<path stroke="#ff3737" d="M29 24h1" />
<path stroke="#ff3838" d="M31 24h1" />
<path stroke="#470000" d="M38 24h1M34 27h1M33 28h1M29 32h1" />
<path stroke="#1b10ff" d="M10 25h1M12 28h1" />
<path stroke="#4441ff" d="M11 25h1" />
<path stroke="#ff0f0f" d="M29 25h1" />
<path stroke="#fe0404" d="M32 25h1M27 30h1" />
<path stroke="#2016ff" d="M11 26h1" />
<path stroke="#4b48ff" d="M12 26h1" />
<path stroke="#480000" d="M35 26h1" />
<path stroke="#210000" d="M36 26h1" />
<path stroke="#100000" d="M37 26h1" />
<path stroke="#2822ff" d="M12 27h1" />
<path stroke="#716fff" d="M13 27h1" />
<path stroke="#f70000" d="M31 27h1" />
<path stroke="#900000" d="M33 27h1M28 32h1" />
<path stroke="#403cff" d="M13 28h1" />
<path stroke="#6f6dff" d="M14 28h1" />
<path stroke="#1504fd" d="M12 29h1" />
<path stroke="#0b008c" d="M10 30h1" />
<path stroke="#1000c9" d="M11 30h1M14 34h1" />
<path stroke="#1300e4" d="M12 30h1" />
<path stroke="#f61010" d="M24 30h1" />
<path stroke="#ff1818" d="M25 30h1" />
<path stroke="#1500fd" d="M14 31h1" />
<path stroke="#29262a" d="M19 31h5M23 32h1M10 33h3M19 33h5M10 34h1M22 34h2M9 35h1M20 35h2M8 36h1" />
<path stroke="#fe3838" d="M24 31h1M26 31h1" />
<path stroke="#ff5555" d="M25 31h1" />
<path stroke="#f51010" d="M27 31h1" />
<path stroke="#c4bec7" d="M11 32h2M33 32h1M15 33h1M33 33h2M9 34h1M15 34h1M34 34h2M8 35h1M16 35h2M35 35h1M24 36h1M35 36h2M12 37h1M23 37h1M36 37h2M11 38h1M24 38h1M36 38h2M12 39h1M37 39h1" />
<path stroke="#1500fc" d="M14 32h1" />
<path stroke="#f65555" d="M26 32h1" />
<path stroke="#d31818" d="M27 32h1" />
<path stroke="#1400f3" d="M14 33h1" />
</svg>