<svg xmlns="http://www.w3.org/2000/svg" viewBox="0 -0.5 40 40" shape-rendering="crispEdges">
<metadata>Made with Pixels to Svg https://codepen.io/shshaw/pen/XbxvNj</metadata>
<path stroke="#ff8000" d="M0 0h13M25 0h10M39 0h1M0 1h10M28 1h6M38 1h2M0 2h8M30 2h3M37 2h3M0 3h7M36 3h4M0 4h6M35 4h5M0 5h5M34 5h6M0 6h4M35 6h5M0 7h3M35 7h5M0 8h3M36 8h4M0 9h2M37 9h3M0 10h2M37 10h3M0 11h2M38 11h2M0 12h1M38 12h2M0 13h1M39 13h1M0 14h1M39 14h1M0 15h1M39 15h1M0 16h1M39 16h1M0 17h1M39 17h1M0 18h1M39 18h1M0 19h1M39 19h1M0 20h1M39 20h1M0 21h1M39 21h1M0 22h1M39 22h1M0 23h1M39 23h1M0 24h1M39 24h1M0 25h2M39 25h1M0 26h2M39 26h1M0 27h2M39 27h1M0 28h1M38 28h2M0 29h1M38 29h2M38 30h2M37 31h3M36 32h4M35 33h5M34 34h6M33 35h7M2 36h3M33 36h7M1 37h4M33 37h7M0 38h6M34 38h6M0 39h7M34 39h6" />
<path stroke="#ff8100" d="M13 0h1M24 0h1M10 1h1M27 1h1M8 2h1M29 2h1M31 3h1M34 6h1M3 7h1M2 9h1M37 11h1M1 12h1M38 13h1M1 24h1M38 27h1M37 30h1" />
<path stroke="#ff8300" d="M14 0h1M23 0h1M11 1h1M26 1h1M2 10h1M1 13h1M38 14h1M1 23h1M2 26h1M38 26h1M37 29h1" />
<path stroke="#ff8400" d="M15 0h8M9 2h1M28 2h1M30 3h1M34 7h1M3 8h1M37 12h1M1 14h1M1 15h1M38 15h1M1 16h1M38 16h1M1 17h1M38 17h1M1 18h1M38 18h1M1 19h1M38 19h1M1 20h1M38 20h1M1 21h1M38 21h1M1 22h1M38 22h1M38 23h1M38 24h1M38 25h1" />
<path stroke="#000000" d="M35 0h1M38 0h1M34 1h1M37 1h1M33 2h1M36 2h1M32 3h1M35 3h1M31 4h1M34 4h1M30 5h1M33 5h1M29 6h1M32 6h1M13 7h10M28 7h1M31 7h1M12 8h1M23 8h1M27 8h1M30 8h1M34 8h2M11 9h1M24 9h3M29 9h1M33 9h1M36 9h1M10 10h1M25 10h1M28 10h5M36 10h1M10 11h5M17 11h7M26 11h3M35 11h1M10 12h1M15 12h2M24 12h4M35 12h1M9 13h1M27 13h1M30 13h5M9 14h1M28 14h1M32 14h1M9 15h1M28 15h2M33 15h2M9 16h1M15 16h1M21 16h1M28 16h1M30 16h1M35 16h1M9 17h1M14 17h2M20 17h2M27 17h2M31 17h2M35 17h1M8 18h3M15 18h1M24 18h2M28 18h1M33 18h2M7 19h1M16 19h3M26 19h1M29 19h1M6 20h1M9 20h4M25 20h1M27 20h1M29 20h1M6 21h1M8 21h1M13 21h4M24 21h1M29 21h1M7 22h1M10 22h3M14 22h11M27 22h2M8 23h2M11 23h3M15 23h4M22 23h2M26 23h1M10 24h1M13 24h2M16 24h2M21 24h3M25 24h1M9 25h1M12 25h1M14 25h2M17 25h1M20 25h3M24 25h1M4 26h3M8 26h1M11 26h1M15 26h1M17 26h5M23 26h1M2 27h2M7 27h1M10 27h1M16 27h1M18 27h3M22 27h1M1 28h1M4 28h1M8 28h4M17 28h1M21 28h2M1 29h1M5 29h1M8 29h1M11 29h1M18 29h3M22 29h1M0 30h1M2 30h1M6 30h2M11 30h1M18 30h1M22 30h2M0 31h1M2 31h1M5 31h1M10 31h1M17 31h2M23 31h2M0 32h2M3 32h3M9 32h1M16 32h1M25 32h1M0 33h1M4 33h1M16 33h1M26 33h1M3 34h1M9 34h1M15 34h1M27 34h3M2 35h3M10 35h1M14 35h2M30 35h2M1 36h1M5 36h1M11 36h1M13 36h1M31 36h2M0 37h1M5 37h1M12 37h1M32 37h1M6 38h1M12 38h1M28 38h1M33 38h1M7 39h1M12 39h1M15 39h1M28 39h2M33 39h1" />
<path stroke="#92530b" d="M36 0h2M35 1h2M34 2h2M33 3h2M32 4h2M31 5h2M30 6h2M29 7h2M28 8h2M27 9h2M26 10h2M11 24h2M10 25h2M9 26h2M8 27h2M2 32h1M2 33h2M0 34h3M0 35h2M0 36h1" />
<path stroke="#ff8500" d="M12 1h1M25 1h1M2 11h1M2 25h1M37 28h1" />
<path stroke="#ff8c00" d="M13 1h1M10 2h1M27 2h1M33 6h1M3 9h1M2 12h1M2 24h1M37 27h1M12 36h1" />
<path stroke="#ff9a00" d="M14 1h1M23 1h1M11 2h1M26 2h1M3 10h1M2 13h1M37 14h1M2 23h1M3 26h1M37 26h1M36 29h1" />
<path stroke="#ffa100" d="M15 1h8M2 15h1M37 15h1M2 16h1M37 16h1M2 17h1M37 17h1M2 18h1M37 18h1M2 19h1M37 19h1M2 20h1M37 20h1M2 21h1M37 21h1M37 22h1M37 23h1M37 24h1" />
<path stroke="#ff8d00" d="M24 1h1M29 3h1M7 4h1M6 5h1M5 6h1M36 11h1M37 13h1M35 31h1M34 32h1M33 33h1M32 34h1" />
<path stroke="#ffa200" d="M12 2h1M25 2h1M3 11h1M3 25h1M36 28h1" />
<path stroke="#ffaf00" d="M13 2h1M24 2h1M29 4h1M36 13h1M36 27h1" />
<path stroke="#ffc400" d="M14 2h1M11 3h1M9 4h1M32 7h1M5 8h1M4 10h1M3 13h1M3 23h1M36 26h1M35 29h1M11 34h1M30 34h1M13 35h1" />
<path stroke="#ffcf00" d="M15 2h1M22 2h1M12 3h1M4 11h1M3 15h1M3 16h1M3 17h1M3 18h1M3 19h1M3 20h1M3 21h1M4 25h1M35 28h1" />
<path stroke="#ffd000" d="M16 2h6M25 3h1M36 16h1M36 17h1M36 18h1M36 19h1M36 20h1M36 21h1M36 22h1M36 23h1M36 24h1" />
<path stroke="#ffc500" d="M23 2h1M26 3h1M36 14h1" />
<path stroke="#ff8200" d="M7 3h1M6 4h1M5 5h1M4 6h1M36 31h1M35 32h1M34 33h1M33 34h1M32 35h1" />
<path stroke="#ff8b00" d="M8 3h1M4 7h1M36 30h1" />
<path stroke="#ff9c00" d="M9 3h1M28 3h1M30 4h1M33 7h1M36 12h1" />
<path stroke="#ffae00" d="M10 3h1M27 3h1M4 9h1M3 12h1M3 24h1M9 33h1M12 35h1" />
<path stroke="#ffd600" d="M13 3h1M24 3h1" />
<path stroke="#ffdf00" d="M14 3h1M23 3h1M26 4h1M28 5h1M32 9h1M10 32h1" />
<path stroke="#ffe300" d="M15 3h8M12 4h1M25 4h1M10 5h1M27 5h1M31 8h1M6 9h1M5 11h1M4 14h1M4 15h1M35 15h1M4 16h1M4 17h1M4 18h1M35 18h1M4 19h1M35 19h1M4 20h1M35 20h1M4 21h1M35 21h1M4 22h1M35 22h1M35 23h1M35 24h1M5 25h1M35 25h1M34 28h1M12 33h1M29 33h1M14 34h1" />
<path stroke="#ffa800" d="M8 4h1M5 7h1M35 30h1M10 34h1M31 34h1" />
<path stroke="#ffd400" d="M10 4h1M27 4h1M29 5h1M32 8h1M5 9h1M35 13h1" />
<path stroke="#ffde00" d="M11 4h1M8 6h1M7 7h1M5 10h1M4 13h1M35 14h1M4 23h1M35 26h1M33 30h1M32 31h1M31 32h1M13 34h1" />
<path stroke="#ffe400" d="M13 4h1M24 4h1M9 6h1M8 7h1M7 8h1M5 12h1M5 24h1M8 24h1M34 27h1M33 29h1M32 30h1M31 31h1M11 32h1M30 32h1" />
<path stroke="#ffe500" d="M14 4h10M11 5h16M10 6h19M9 7h4M23 7h5M8 8h4M25 8h2M7 9h4M30 9h2M6 10h4M6 11h4M6 12h4M5 13h4M5 14h4M33 14h2M5 15h4M5 16h4M5 17h4M30 17h1M5 18h3M30 18h3M5 19h2M30 19h5M5 20h1M30 20h5M5 21h1M30 21h5M5 22h2M29 22h6M5 23h3M27 23h8M6 24h2M26 24h9M6 25h3M13 25h1M26 25h9M7 26h1M12 26h3M26 26h9M11 27h4M26 27h8M12 28h3M25 28h9M12 29h4M23 29h10M12 30h6M24 30h8M11 31h6M25 31h6M12 32h4M26 32h4M13 33h3M27 33h2" />
<path stroke="#ffc600" d="M28 4h1" />
<path stroke="#ffa900" d="M7 5h1M6 6h1M34 31h1M33 32h1M32 33h1" />
<path stroke="#ffc900" d="M8 5h1M6 7h1M34 30h1M33 31h1M32 32h1M31 33h1" />
<path stroke="#ffdd00" d="M9 5h1M6 8h1M10 23h1M9 24h1M34 29h1M11 33h1M30 33h1" />
<path stroke="#ffca00" d="M7 6h1M10 33h1" />
<path stroke="#ff9b00" d="M4 8h1M11 35h1" />
<path stroke="#53b300" d="M13 8h10M12 9h3M23 9h1M11 10h4M23 10h2M24 11h2" />
<path stroke="rgba(255,229,0,0.996078431372549)" d="M24 8h1M25 25h1M25 27h1M15 28h1M24 28h1M16 29h1" />
<path stroke="#ffb000" d="M33 8h1" />
<path stroke="#54b300" d="M15 9h8M15 10h8M15 11h2M4 27h3M2 28h2M5 28h3M2 29h3M6 29h2M9 29h2M21 29h1M1 30h1M3 30h3M8 30h3M19 30h3M1 31h1M3 31h2M6 31h4M19 31h4M6 32h3M17 32h8M5 33h2M17 33h9M4 34h2M16 34h1M19 34h5M8 35h2M21 35h2M28 35h2M7 36h4M14 36h2M29 36h2M6 37h6M13 37h2M29 37h3M7 38h5M13 38h2M29 38h4M8 39h4M13 39h2M30 39h3" />
<path stroke="#a52fd6" d="M34 9h2M33 10h3M29 11h6M11 12h4M17 12h7M28 12h7M10 13h2M15 13h3M21 13h6M28 13h2M10 14h2M16 14h2M22 14h6M29 14h3M10 15h2M16 15h2M22 15h6M30 15h3M10 16h2M16 16h2M22 16h6M31 16h4M10 17h2M16 17h2M22 17h2M33 17h2M11 18h4M18 18h5" />
<path stroke="#ffd500" d="M4 12h1M4 24h1M35 27h1" />
<path stroke="#ffffff" d="M12 13h3M18 13h3M12 14h4M18 14h4M12 15h4M18 15h4M12 16h3M18 16h3M12 17h2M18 17h2" />
<path stroke="#ffa000" d="M2 14h1M2 22h1M37 25h1" />
<path stroke="#ffce00" d="M3 14h1M36 15h1M3 22h1M36 25h1" />
<path stroke="rgba(255,229,0,0.9725490196078431)" d="M29 16h1M29 18h1" />
<path stroke="#ff8900" d="M24 17h3M16 18h2M23 18h1M26 18h2M8 19h8M19 19h7M27 19h2M7 20h2M13 20h12M26 20h1M28 20h1M7 21h1M9 21h4M17 21h7M25 21h4M8 22h2M13 22h1M25 22h2M14 23h1M24 23h2M15 24h1M24 24h1M16 25h1M23 25h1M16 26h1M22 26h1M17 27h1M21 27h1M18 28h3" />
<path stroke="rgba(255,229,0,0.9686274509803922)" d="M29 17h1" />
<path stroke="#f30000" d="M19 23h3M18 24h3M18 25h2" />
<path stroke="rgba(255,229,0,0.8901960784313725)" d="M24 26h1" />
<path stroke="rgba(255,229,0,0.9882352941176471)" d="M25 26h1" />
<path stroke="rgba(255,230,0,0.9803921568627451)" d="M15 27h1" />
<path stroke="rgba(255,228,0,0.8941176470588236)" d="M23 27h1" />
<path stroke="rgba(255,229,0,0.9490196078431372)" d="M24 27h1" />
<path stroke="rgba(255,227,0,0.9450980392156862)" d="M16 28h1" />
<path stroke="rgba(255,230,0,0.9882352941176471)" d="M23 28h1M17 29h1" />
<path stroke="#92520b" d="M1 33h1" />
<path stroke="#a12fd6" d="M7 33h1M6 34h1M8 34h1M5 35h1M7 35h1M6 36h1" />
<path stroke="#781ba4" d="M8 33h1M7 34h1M6 35h1" />
<path stroke="#ffd300" d="M12 34h1" />
<path stroke="#c48a02" d="M17 34h2M24 34h3M16 35h1M19 35h2M23 35h1M27 35h1M16 36h1M20 36h3M21 37h1M21 38h1M27 38h1M20 39h3M27 39h1" />
<path stroke="#ffb400" d="M17 35h2M24 35h3M17 36h3M23 36h5M16 37h5M22 37h6M16 38h5M22 38h5M17 39h3M23 39h4" />
<path stroke="#c48902" d="M28 36h1M15 37h1M28 37h1M15 38h1M16 39h1" />
</svg>