<svg xmlns="http://www.w3.org/2000/svg" viewBox="0 -0.5 40 40" shape-rendering="crispEdges">
<metadata>Made with Pixels to Svg https://codepen.io/shshaw/pen/XbxvNj</metadata>
<path stroke="#023180" d="M0 0h6M12 0h2M17 0h6M26 0h1M34 0h6M0 1h5M13 1h1M17 1h6M26 1h1M36 1h1M0 2h4M13 2h4M21 2h2M0 3h3M13 3h2M22 3h4M0 4h3M24 4h2M37 4h3M0 5h3M37 5h3M0 6h3M37 6h3M0 7h3M36 7h4M0 8h4M36 8h2M0 9h5M3 10h3M3 18h3" />
<path stroke="#ffffff" d="M6 0h6M28 0h6M5 1h2M10 1h3M28 1h8M4 2h1M11 2h2M17 2h4M27 2h3M34 2h3M4 3h1M12 3h1M16 3h6M27 3h2M35 3h2M4 4h1M12 4h2M15 4h2M20 4h4M27 4h1M35 4h2M4 5h2M12 5h1M14 5h2M17 5h9M27 5h1M35 5h2M4 6h2M12 6h2M16 6h12M34 6h3M5 7h2M9 7h20M32 7h4M5 8h22M28 8h8M6 9h3M10 9h2M16 9h2M22 9h6M29 9h6M9 10h13M23 10h5M30 10h1M9 11h4M15 11h3M21 11h9M9 12h3M14 12h1M16 12h1M20 12h1M22 12h9M8 13h3M16 13h1M22 13h10M8 14h3M16 14h1M22 14h10M7 15h3M16 15h1M22 15h10M7 16h2M12 16h3M16 16h1M18 16h3M22 16h1M27 16h5M7 17h2M13 17h2M18 17h3M29 17h4M7 18h1M18 18h2M29 18h4M30 19h3M30 20h3M30 21h2M29 22h3M38 22h2M27 23h5M10 24h2M26 24h5M2 25h2M11 25h3M25 25h5M3 26h1M12 26h2M24 26h6M0 27h1M12 27h3M23 27h6M13 28h3M22 28h5M14 29h3M21 29h6M15 30h11M27 30h1M15 31h9M26 31h2M15 32h14M15 33h15M15 34h16M15 35h17M14 36h19M14 37h20M13 38h22M13 39h23" />
<path stroke="#4a5990" d="M14 0h1" />
<path stroke="#d4d6e1" d="M15 0h1M39 9h1" />
<path stroke="#4b5991" d="M16 0h1" />
<path stroke="#193782" d="M23 0h1M25 0h1M16 1h1M37 1h1M23 2h1M25 2h1M37 3h1M38 8h1M35 9h1M0 10h1M2 10h1M31 26h1" />
<path stroke="#475690" d="M24 0h1M36 9h1M1 10h1" />
<path stroke="#e5e4e4" d="M27 0h1M27 1h1M26 2h1M3 3h1M15 3h1M26 3h1M3 4h1M14 4h1M17 4h3M26 4h1M3 5h1M13 5h1M16 5h1M26 5h1M3 6h1M14 6h2M3 7h2M4 8h1M27 8h1M5 9h1M9 9h1M6 10h3M28 10h1M30 11h1M8 12h1M7 13h1M7 14h1M6 15h1M6 16h1M10 23h2M12 24h2M10 25h1M14 25h1M11 26h1M14 26h1M11 27h1M15 27h1M12 28h1M16 28h1M27 28h1M13 29h1M17 29h1M27 29h1M14 30h1M26 30h1M24 31h2M14 32h1M13 33h2M13 34h1M12 35h2M12 36h1M12 37h1M11 38h2M11 39h1" />
<path stroke="#f1ecec" d="M7 1h3M5 2h2M9 2h2M33 2h1M11 3h1M11 4h1M28 4h1M11 5h1M28 5h1M11 6h1M28 9h1M29 10h1M6 17h1M6 18h1M6 19h1M9 24h1M14 31h1M14 34h1M14 35h1M13 36h1M13 37h1M12 39h1" />
<path stroke="#183782" d="M14 1h1" />
<path stroke="#45558f" d="M15 1h1" />
<path stroke="#46558e" d="M23 1h1" />
<path stroke="#c7cad9" d="M24 1h1M36 10h1" />
<path stroke="#47568f" d="M25 1h1" />
<path stroke="#485690" d="M38 1h1" />
<path stroke="#193882" d="M39 1h1M39 3h1M37 9h1M38 10h1" />
<path stroke="#ffcece" d="M7 2h2M30 2h3M5 3h6M29 3h6M5 4h6M29 4h6M6 5h5M29 5h6M6 6h5M28 6h6M7 7h2M29 7h3" />
<path stroke="#46568f" d="M24 2h1M38 3h1" />
<path stroke="#48568e" d="M37 2h1" />
<path stroke="#caceda" d="M38 2h1" />
<path stroke="#485790" d="M39 2h1" />
<path stroke="#4b5a92" d="M39 8h1" />
<path stroke="#000000" d="M12 9h4M18 9h4M22 10h1M13 11h2M18 11h3M12 12h2M15 12h1M17 12h1M19 12h1M21 12h1M11 13h1M13 13h3M17 13h1M19 13h3M11 14h1M13 14h3M17 14h1M19 14h3M10 15h2M15 15h1M17 15h1M21 15h1M9 16h1M11 16h1M15 16h1M17 16h1M21 16h1M23 16h4M9 17h1M12 17h1M15 17h3M21 17h2M27 17h2M8 18h8M17 18h1M20 18h2M24 18h2M28 18h1M7 19h1M16 19h5M26 19h1M29 19h1M6 20h1M9 20h4M25 20h1M27 20h1M29 20h1M6 21h1M8 21h1M13 21h4M24 21h1M29 21h1M7 22h1M10 22h3M14 22h1M17 22h8M27 22h2M8 23h2M12 23h2M15 23h1M23 23h1M26 23h1M14 24h1M16 24h1M23 24h1M25 24h1M15 25h1M17 25h1M22 25h1M24 25h1M15 26h1M17 26h1M21 26h1M23 26h1M16 27h1M18 27h3M22 27h1M17 28h1M21 28h1M18 29h3" />
<path stroke="#46568e" d="M38 9h1" />
<path stroke="#0047c1" d="M31 10h1M36 12h1M32 13h1M9 25h1M8 26h1" />
<path stroke="#004ac6" d="M32 10h1M3 12h5M32 15h3M36 15h4M33 17h1M37 17h3M0 20h3M0 22h1M28 28h2" />
<path stroke="#0048c1" d="M33 10h1" />
<path stroke="#003692" d="M34 10h1" />
<path stroke="#465797" d="M35 10h1" />
<path stroke="#47568e" d="M37 10h1" />
<path stroke="#495990" d="M39 10h1" />
<path stroke="#475798" d="M0 11h1M2 11h1" />
<path stroke="#c7cbdf" d="M1 11h1" />
<path stroke="#01348a" d="M3 11h5M34 13h3M34 14h6M3 17h3M0 18h1M0 19h6M32 22h2M32 23h1M7 24h1M7 25h1M31 25h1M9 27h2M29 27h1M10 28h1M13 30h1" />
<path stroke="#003691" d="M8 11h1M33 13h1M8 25h1M30 25h1" />
<path stroke="#004ccc" d="M31 11h2M31 12h2M0 13h2M5 13h2M0 14h2M5 14h2M5 15h1M32 16h2M37 16h3M0 21h3M28 29h1" />
<path stroke="#004bcc" d="M33 11h1" />
<path stroke="#0049c7" d="M34 11h1M3 21h1" />
<path stroke="#174bc2" d="M35 11h1" />
<path stroke="#45589f" d="M36 11h1" />
<path stroke="#233f8d" d="M37 11h1" />
<path stroke="#485792" d="M38 11h1" />
<path stroke="#193a8b" d="M39 11h1" />
<path stroke="#194ec8" d="M0 12h1M2 12h1" />
<path stroke="#4666d0" d="M1 12h1" />
<path stroke="#51caff" d="M18 12h1M12 13h1M18 13h1M12 14h1M18 14h1M12 15h3M18 15h3" />
<path stroke="#004ac7" d="M33 12h1" />
<path stroke="#0049c6" d="M34 12h2M4 16h2M3 20h3M4 21h2M10 26h1" />
<path stroke="#4863c4" d="M37 12h1" />
<path stroke="#cacfe3" d="M38 12h1" />
<path stroke="#4864c5" d="M39 12h1" />
<path stroke="#1950cd" d="M2 13h1M4 13h1M0 15h1M36 16h1" />
<path stroke="#4767d1" d="M3 13h1M1 15h1" />
<path stroke="#18398b" d="M37 13h1M30 27h1" />
<path stroke="#465690" d="M38 13h1" />
<path stroke="#19398b" d="M39 13h1" />
<path stroke="#4766d1" d="M2 14h1M4 14h1M0 16h1" />
<path stroke="#c7ceee" d="M3 14h1M1 16h1" />
<path stroke="#013692" d="M32 14h1" />
<path stroke="#01348b" d="M33 14h1M5 22h1M8 24h1" />
<path stroke="#2355ce" d="M2 15h1" />
<path stroke="#4567d1" d="M3 15h1" />
<path stroke="#1850cd" d="M4 15h1" />
<path stroke="#004bc6" d="M35 15h1M3 16h1" />
<path stroke="#4765cb" d="M2 16h1M34 17h1" />
<path stroke="#ff8a00" d="M10 16h1M10 17h2M23 17h4M16 18h1M22 18h2M26 18h2M8 19h8M21 19h5M27 19h2M7 20h2M13 20h12M26 20h1M28 20h1M7 21h1M9 21h4M17 21h7M25 21h4M8 22h2M13 22h1M25 22h2M14 23h1M24 23h2M15 24h1M24 24h1M16 25h1M23 25h1M16 26h1M22 26h1M17 27h1M21 27h1M18 28h3" />
<path stroke="#1951cd" d="M34 16h1M29 29h1" />
<path stroke="#4868d1" d="M35 16h1" />
<path stroke="#194ec7" d="M0 17h1" />
<path stroke="#4664c6" d="M1 17h1" />
<path stroke="#193c92" d="M2 17h1" />
<path stroke="#cad0e9" d="M35 17h1" />
<path stroke="#4865cb" d="M36 17h1" />
<path stroke="#013489" d="M1 18h1M6 24h1M12 29h1" />
<path stroke="#013181" d="M2 18h1M30 26h1" />
<path stroke="#013793" d="M33 18h1M37 18h3M33 20h3" />
<path stroke="#183c94" d="M34 18h1" />
<path stroke="#465899" d="M35 18h1" />
<path stroke="#193c94" d="M36 18h1M36 20h1" />
<path stroke="#0047bf" d="M33 19h4M32 21h4M7 23h1M31 24h2" />
<path stroke="#194bc0" d="M37 19h1" />
<path stroke="#4865ca" d="M38 19h1" />
<path stroke="#194bc1" d="M39 19h1" />
<path stroke="#6975a7" d="M37 20h1" />
<path stroke="#daddea" d="M38 20h1" />
<path stroke="#6e79aa" d="M39 20h1" />
<path stroke="#4c66c5" d="M36 21h1" />
<path stroke="#e7e9f2" d="M37 21h1" />
<path stroke="#fdfdfe" d="M38 21h1" />
<path stroke="#f5f6f8" d="M39 21h1M0 26h1" />
<path stroke="#184ec8" d="M1 22h1" />
<path stroke="#4d68cc" d="M2 22h1" />
<path stroke="#4d5da0" d="M3 22h1" />
<path stroke="#193a8c" d="M4 22h1M0 23h1" />
<path stroke="#013691" d="M6 22h1M8 27h1" />
<path stroke="#ff0000" d="M15 22h2M16 23h3M22 23h1M17 24h1M21 24h2M20 25h2M18 26h3" />
<path stroke="#01358a" d="M34 22h1M33 23h1" />
<path stroke="#183a8c" d="M35 22h1" />
<path stroke="#6c76a6" d="M36 22h1" />
<path stroke="#f4f4f7" d="M37 22h1" />
<path stroke="#6974a6" d="M1 23h1" />
<path stroke="#e7eaf4" d="M2 23h1" />
<path stroke="#e7e9ef" d="M3 23h1" />
<path stroke="#6b75a0" d="M4 23h1" />
<path stroke="#1a3a8a" d="M5 23h1" />
<path stroke="#0045b9" d="M6 23h1" />
<path stroke="#fc809a" d="M19 23h3M18 24h3M18 25h2" />
<path stroke="#193b8b" d="M34 23h1" />
<path stroke="#67729f" d="M35 23h1" />
<path stroke="#e3e6ee" d="M36 23h1" />
<path stroke="#fdfefe" d="M37 23h1M1 26h1" />
<path stroke="#fcfdff" d="M38 23h1" />
<path stroke="#fbfcff" d="M39 23h1M4 27h1" />
<path stroke="#4c5990" d="M0 24h1" />
<path stroke="#e5e7ed" d="M1 24h1" />
<path stroke="#fefefe" d="M2 24h1" />
<path stroke="#fefeff" d="M3 24h1M4 26h1" />
<path stroke="#e8eaef" d="M4 24h1" />
<path stroke="#4e5c93" d="M5 24h1" />
<path stroke="#194fc0" d="M33 24h1" />
<path stroke="#677ed0" d="M34 24h1" />
<path stroke="#dce2f2" d="M35 24h1" />
<path stroke="#dbe7fc" d="M36 24h1" />
<path stroke="#f4f8ff" d="M37 24h1" />
<path stroke="#dae6fd" d="M38 24h1" />
<path stroke="#d5e3fc" d="M39 24h1M4 28h1" />
<path stroke="#7079a2" d="M0 25h1" />
<path stroke="#f2f4f6" d="M1 25h1" />
<path stroke="#f5f5f8" d="M4 25h1" />
<path stroke="#6e77a2" d="M5 25h1" />
<path stroke="#1a3a8b" d="M6 25h1" />
<path stroke="#02348a" d="M32 25h1" />
<path stroke="#4c5c99" d="M33 25h1" />
<path stroke="#dee3f1" d="M34 25h1" />
<path stroke="#c3d6f8" d="M35 25h1" />
<path stroke="#cedefb" d="M36 25h1" />
<path stroke="#d4e3fc" d="M37 25h1M3 28h1" />
<path stroke="#d0e0fc" d="M38 25h1" />
<path stroke="#cddefb" d="M39 25h1M5 30h1" />
<path stroke="#fafcff" d="M2 26h1" />
<path stroke="#e8ebf4" d="M5 26h1" />
<path stroke="#4e6acc" d="M6 26h1" />
<path stroke="#0149c6" d="M7 26h1" />
<path stroke="#0049c5" d="M9 26h1" />
<path stroke="#4c5b92" d="M32 26h1" />
<path stroke="#6f79a2" d="M33 26h1" />
<path stroke="#ebeff6" d="M34 26h1M7 29h1" />
<path stroke="#bfd2f8" d="M35 26h1" />
<path stroke="#ccddfb" d="M36 26h1M2 28h1M2 29h1M4 30h1" />
<path stroke="#ccdefb" d="M37 26h1" />
<path stroke="#cadcfb" d="M38 26h1M3 30h1M32 32h1" />
<path stroke="#b8cff6" d="M39 26h1M34 30h1" />
<path stroke="#f6f8ff" d="M1 27h1M3 27h1" />
<path stroke="#ccdbf8" d="M2 27h1" />
<path stroke="#f1f3fb" d="M5 27h1" />
<path stroke="#6c81d6" d="M6 27h1" />
<path stroke="#1a4cc2" d="M7 27h1" />
<path stroke="#656f9d" d="M31 27h1" />
<path stroke="#dbddea" d="M32 27h1" />
<path stroke="#edeff6" d="M33 27h1" />
<path stroke="#f7f9fe" d="M34 27h1" />
<path stroke="#c2d5f8" d="M35 27h1" />
<path stroke="#cadcfa" d="M36 27h1M33 30h1" />
<path stroke="#b7cff6" d="M37 27h1M36 29h1M2 30h1M33 32h1" />
<path stroke="#b4cdf5" d="M38 27h1M1 30h1M35 30h1" />
<path stroke="#b2cbf5" d="M39 27h1M37 29h1M0 30h1M36 30h1M2 31h1M34 32h1" />
<path stroke="#f3f8fe" d="M0 28h1" />
<path stroke="#c7d9f9" d="M1 28h1" />
<path stroke="#d8e5fc" d="M5 28h1" />
<path stroke="#e4e7f5" d="M6 28h1" />
<path stroke="#6c77a7" d="M7 28h1" />
<path stroke="#415494" d="M8 28h1" />
<path stroke="#15388b" d="M9 28h1" />
<path stroke="#013389" d="M11 28h1" />
<path stroke="#4c68cc" d="M30 28h1" />
<path stroke="#d8ddef" d="M31 28h1" />
<path stroke="#8396dd" d="M32 28h1" />
<path stroke="#bdd0f4" d="M33 28h1" />
<path stroke="#f1f5fe" d="M34 28h1" />
<path stroke="#d2e1fc" d="M35 28h1" />
<path stroke="#cadbfb" d="M36 28h1M33 31h1" />
<path stroke="#b4ccf5" d="M37 28h1M3 31h5M34 31h1" />
<path stroke="#b1caf4" d="M38 28h2M38 29h2M0 31h2" />
<path stroke="#bdd1f7" d="M0 29h1" />
<path stroke="#c9dafa" d="M1 29h1" />
<path stroke="#cfdffb" d="M3 29h2" />
<path stroke="#d4e2fc" d="M5 29h1" />
<path stroke="#f6f8fe" d="M6 29h1" />
<path stroke="#c2d1ef" d="M8 29h1" />
<path stroke="#5774d1" d="M9 29h1" />
<path stroke="#154dc7" d="M10 29h1" />
<path stroke="#0048c0" d="M11 29h1" />
<path stroke="#6c82d7" d="M30 29h1" />
<path stroke="#eaeffa" d="M31 29h1" />
<path stroke="#b6cbf4" d="M32 29h1" />
<path stroke="#cadbfa" d="M33 29h1" />
<path stroke="#d1e1fb" d="M34 29h1" />
<path stroke="#cbdcfb" d="M35 29h1" />
<path stroke="#d2e1fb" d="M6 30h2" />
<path stroke="#cdddfb" d="M8 30h1" />
<path stroke="#c3d3f6" d="M9 30h1" />
<path stroke="#627bd8" d="M10 30h1" />
<path stroke="#1a4ec7" d="M11 30h1" />
<path stroke="#013792" d="M12 30h1" />
<path stroke="#355fd1" d="M28 30h1" />
<path stroke="#5b78d6" d="M29 30h1" />
<path stroke="#dfe5f7" d="M30 30h1" />
<path stroke="#f3f7fe" d="M31 30h1" />
<path stroke="#c0d4f7" d="M32 30h1" />
<path stroke="#b1caf5" d="M37 30h3M35 31h2M0 32h2" />
<path stroke="#bcd2f6" d="M8 31h1" />
<path stroke="#edf2fd" d="M9 31h1" />
<path stroke="#e1e5f7" d="M10 31h1" />
<path stroke="#627cd8" d="M11 31h1" />
<path stroke="#4063cd" d="M12 31h1" />
<path stroke="#365ecb" d="M13 31h1" />
<path stroke="#9eb9ee" d="M28 31h1" />
<path stroke="#aac3f2" d="M29 31h1" />
<path stroke="#bbd1f7" d="M30 31h1" />
<path stroke="#d1e1fc" d="M31 31h1" />
<path stroke="#cddefc" d="M32 31h1" />
<path stroke="#b1caf6" d="M37 31h1M2 32h1M35 32h1" />
<path stroke="#adc7f7" d="M38 31h1" />
<path stroke="#acc7f8" d="M39 31h1M0 33h2M9 33h2M33 33h2" />
<path stroke="#adc8f6" d="M3 32h1M7 32h1M36 32h1" />
<path stroke="#acc7f6" d="M4 32h3" />
<path stroke="#b2cbf6" d="M8 32h1" />
<path stroke="#b9d0f6" d="M9 32h1" />
<path stroke="#bcd1f7" d="M10 32h1" />
<path stroke="#c1d3f7" d="M11 32h1" />
<path stroke="#c0d2f7" d="M12 32h1" />
<path stroke="#a3bbef" d="M13 32h1" />
<path stroke="#a8c2f2" d="M29 32h1" />
<path stroke="#afc9f7" d="M30 32h1" />
<path stroke="#c6d9fc" d="M31 32h1" />
<path stroke="#a8c4f7" d="M37 32h1" />
<path stroke="#7dadfe" d="M38 32h1M3 33h1M36 33h1" />
<path stroke="#77a9ff" d="M39 32h1M0 34h1M9 34h4" />
<path stroke="#a7c4f8" d="M2 33h1M35 33h1" />
<path stroke="#77a9fe" d="M4 33h3" />
<path stroke="#7dacfe" d="M7 33h1" />
<path stroke="#a6c4f8" d="M8 33h1" />
<path stroke="#afc9f8" d="M11 33h2" />
<path stroke="#72a4fa" d="M30 33h1" />
<path stroke="#81b0ff" d="M31 33h1" />
<path stroke="#aac6f8" d="M32 33h1" />
<path stroke="#76a9ff" d="M37 33h1M8 34h1" />
<path stroke="#70a6ff" d="M38 33h1M0 35h1M33 35h1M10 36h1M0 37h1M10 38h1M36 39h1M39 39h1" />
<path stroke="#6fa5ff" d="M39 33h1M8 35h4M32 35h1M11 36h1M11 37h1M0 38h2M35 38h1M0 39h11" />
<path stroke="#78aaff" d="M1 34h1" />
<path stroke="#82afff" d="M2 34h1" />
<path stroke="#7dadff" d="M3 34h1" />
<path stroke="#7cacff" d="M4 34h2M35 37h1" />
<path stroke="#7bacff" d="M6 34h1M4 38h2M8 38h1" />
<path stroke="#71a6ff" d="M7 34h1" />
<path stroke="#6fa6ff" d="M31 34h1M37 34h3M39 35h1M39 36h1M2 38h1" />
<path stroke="#76aaff" d="M32 34h1M35 34h1" />
<path stroke="#77aaff" d="M33 34h2" />
<path stroke="#70a7ff" d="M36 34h1M38 35h1M39 37h1M3 38h1M6 38h2" />
<path stroke="#85b1ff" d="M1 35h1" />
<path stroke="#c1d6fd" d="M2 35h1" />
<path stroke="#c1d6fc" d="M3 35h1" />
<path stroke="#c0d5fc" d="M4 35h2M35 36h2" />
<path stroke="#bad1fd" d="M6 35h1M37 36h1M5 37h1M9 37h1" />
<path stroke="#7aabff" d="M7 35h1M7 37h1M10 37h1M39 38h1" />
<path stroke="#7badff" d="M34 35h1M37 35h1M8 36h2" />
<path stroke="#7cadff" d="M35 35h2M6 36h1M38 37h1" />
<path stroke="#79abff" d="M0 36h1M33 36h1M36 38h1" />
<path stroke="#b9d1fd" d="M1 36h1M4 37h1M8 37h1M37 38h2" />
<path stroke="#c0d6fd" d="M2 36h1" />
<path stroke="#87b3ff" d="M3 36h3" />
<path stroke="#72a8ff" d="M7 36h1" />
<path stroke="#b8d1fd" d="M34 36h1" />
<path stroke="#7aacff" d="M38 36h1M6 37h1" />
<path stroke="#7babff" d="M1 37h3M34 37h1M9 38h1M37 39h2" />
<path stroke="#7daeff" d="M36 37h1" />
<path stroke="#86b2ff" d="M37 37h1" />
</svg>