<svg xmlns="http://www.w3.org/2000/svg" viewBox="0 -0.5 40 40" shape-rendering="crispEdges">
<metadata>Made with Pixels to Svg https://codepen.io/shshaw/pen/XbxvNj</metadata>
<path stroke="#fc0000" d="M0 0h3M7 0h29M39 0h1M0 1h2M4 1h11M24 1h13M0 2h1M3 2h10M27 2h11M2 3h9M29 3h10M1 4h9M31 4h9M1 5h7M32 5h8M0 6h7M30 6h1M34 6h6M0 7h6M30 7h2M35 7h5M0 8h6M8 8h1M31 8h2M36 8h4M0 9h5M7 9h2M32 9h2M36 9h4M0 10h4M6 10h3M32 10h3M37 10h3M0 11h4M6 11h3M32 11h4M38 11h2M0 12h3M5 12h3M33 12h3M38 12h2M0 13h3M5 13h3M33 13h4M38 13h2M0 14h3M4 14h3M34 14h3M39 14h1M0 15h3M4 15h3M34 15h3M39 15h1M0 16h3M4 16h3M32 16h1M35 16h3M39 16h1M0 17h3M4 17h3M32 17h1M35 17h3M39 17h1M0 18h3M4 18h3M32 18h1M35 18h3M39 18h1M0 19h3M4 19h3M32 19h2M35 19h3M0 20h3M4 20h2M32 20h2M35 20h3M0 21h3M4 21h2M32 21h2M35 21h3M0 22h3M4 22h3M32 22h2M35 22h3M0 23h3M5 23h2M32 23h2M35 23h3M0 24h3M5 24h2M32 24h1M35 24h3M0 25h3M5 25h3M32 25h1M35 25h3M39 25h1M0 26h4M6 26h2M29 26h1M32 26h1M34 26h4M39 26h1M0 27h4M6 27h3M34 27h3M39 27h1M0 28h5M7 28h2M12 28h1M14 28h1M26 28h1M30 28h1M33 28h4M39 28h1M0 29h5M7 29h2M14 29h2M17 29h2M23 29h4M29 29h2M33 29h3M38 29h2M1 30h5M8 30h1M10 30h1M14 30h4M24 30h1M28 30h2M32 30h4M38 30h2M1 31h6M10 31h2M16 31h1M27 31h2M32 31h3M37 31h3M2 32h6M11 32h3M26 32h2M31 32h3M36 32h4M3 33h6M12 33h4M29 33h5M36 33h4M0 34h1M3 34h7M14 34h1M30 34h3M35 34h5M0 35h2M4 35h8M34 35h6M0 36h3M6 36h7M33 36h7M0 37h4M7 37h5M33 37h7M0 38h6M9 38h3M34 38h5M0 39h8M34 39h4" />
<path stroke="#fc00f0" d="M3 0h4M36 0h3M2 1h2M37 1h3M1 2h2M38 2h2M0 3h2M28 3h1M39 3h1M0 4h1M10 4h1M29 4h2M0 5h1M8 5h2M30 5h2M7 6h2M31 6h3M6 7h3M32 7h3M6 8h2M33 8h3M5 9h2M34 9h2M4 10h2M35 10h2M4 11h2M36 11h2M3 12h2M8 12h1M32 12h1M36 12h2M3 13h2M8 13h1M32 13h1M37 13h1M3 14h1M7 14h2M32 14h2M37 14h2M3 15h1M7 15h1M32 15h2M37 15h2M3 16h1M7 16h1M33 16h2M38 16h1M3 17h1M7 17h1M33 17h2M38 17h1M3 18h1M7 18h1M33 18h2M38 18h1M3 19h1M34 19h1M38 19h2M3 20h1M34 20h1M38 20h2M3 21h1M34 21h1M38 21h2M3 22h1M34 22h1M38 22h2M3 23h2M7 23h1M34 23h1M38 23h2M3 24h2M7 24h2M33 24h2M38 24h2M3 25h2M8 25h1M33 25h2M38 25h1M4 26h2M8 26h1M33 26h1M38 26h1M4 27h2M10 27h1M24 27h1M26 27h1M29 27h2M32 27h2M37 27h2M5 28h2M10 28h1M23 28h2M29 28h1M32 28h1M37 28h2M5 29h2M10 29h3M27 29h1M32 29h1M36 29h2M0 30h1M6 30h2M11 30h3M25 30h3M30 30h1M36 30h2M0 31h1M7 31h2M12 31h4M25 31h2M29 31h3M35 31h2M0 32h2M8 32h3M14 32h2M28 32h3M34 32h2M0 33h3M9 33h3M27 33h2M34 33h2M1 34h2M10 34h4M33 34h2M2 35h2M12 35h2M32 35h2M3 36h3M4 37h3M6 38h3M39 38h1M8 39h4M38 39h2" />
<path stroke="#694301" d="M15 1h7M13 2h2M16 2h3M20 2h5M11 3h3M16 3h2M19 3h3M23 3h4M11 4h2M15 4h2M19 4h2M23 4h5M10 5h2M15 5h1M18 5h1M22 5h2M26 5h3M9 6h3M13 6h2M16 6h3M21 6h4M27 6h3M9 7h2M13 7h2M16 7h2M19 7h7M28 7h2M9 8h1M11 8h1M14 8h4M24 8h3M28 8h2M9 9h1M26 9h1M28 9h3M9 10h1M26 10h1M28 10h2M31 10h1M9 11h1M26 11h1M28 11h2M31 11h1M9 12h1M28 12h1M31 12h1M9 13h1M28 13h1M31 13h1M31 14h1M8 15h1M31 15h1M8 16h1M31 16h1M8 17h1M29 17h1M29 18h2M30 19h1M30 20h1M30 21h1M30 22h1M10 23h2M28 23h1M30 23h1M9 24h3M27 24h2M30 24h1M9 25h1M11 25h1M27 25h5M9 26h1M11 26h1M26 26h3M30 26h2M9 27h1M11 27h1M27 27h2M31 27h1M9 28h1M11 28h1M27 28h2M31 28h1M9 29h1M28 29h1M31 29h1M9 30h1M31 30h1M9 31h1" />
<path stroke="#976206" d="M22 1h2M19 2h1M25 2h2M15 3h1M27 3h1M18 4h1M22 4h1M28 4h1M14 5h1M17 5h1M21 5h1M25 5h1M29 5h1M20 6h1M26 6h1M27 7h1M30 8h1M31 9h1M30 10h1M30 11h1M30 12h1M30 13h1M30 14h1M30 15h1M30 16h1M30 17h2M31 18h1M31 19h1M31 20h1M31 21h1M31 22h1M31 23h1M31 24h1" />
<path stroke="#422b02" d="M15 2h1M14 3h1M18 3h1M22 3h1M13 4h2M17 4h1M21 4h1M12 5h2M16 5h1M19 5h2M24 5h1M12 6h1M15 6h1M19 6h1M25 6h1M11 7h2M15 7h1M18 7h1M26 7h1M10 8h1M27 8h1M10 9h1M25 9h1M27 9h1M25 10h1M27 10h1M25 11h1M27 11h1M25 12h1M27 12h1M29 12h1M10 13h1M27 13h1M29 13h1M10 14h1M29 14h1M9 15h1M29 15h1M29 16h1M28 22h2M27 23h1M29 23h1M12 24h2M26 24h1M29 24h1M10 25h1M12 25h3M25 25h2M10 26h1M12 26h3M23 26h3M12 27h4M23 27h1M25 27h1M13 28h1M15 28h2M25 28h1M13 29h1M16 29h1" />
<path stroke="#000000" d="M12 8h1M23 8h1M11 9h3M18 9h4M24 9h1M10 10h1M22 10h1M10 11h1M13 11h2M18 11h3M10 12h1M12 12h1M15 12h1M17 12h1M21 12h1M26 12h1M11 13h1M15 13h1M17 13h1M21 13h1M25 13h1M9 14h1M11 14h5M17 14h6M24 14h1M28 14h1M10 15h2M13 15h2M16 15h2M19 15h2M22 15h2M28 15h1M9 16h1M11 16h5M17 16h10M28 16h1M9 17h1M12 17h1M14 17h4M20 17h3M27 17h2M8 18h8M17 18h1M20 18h2M24 18h2M28 18h1M7 19h1M16 19h5M26 19h1M29 19h1M6 20h1M9 20h4M25 20h1M27 20h1M29 20h1M6 21h1M8 21h1M13 21h4M24 21h1M28 21h2M7 22h1M10 22h3M14 22h1M17 22h8M27 22h1M8 23h2M12 23h2M15 23h1M23 23h1M26 23h1M14 24h1M16 24h1M23 24h1M25 24h1M15 25h1M17 25h1M22 25h1M24 25h1M15 26h1M17 26h1M21 26h1M16 27h1M18 27h3M22 27h1M17 28h1M21 28h2M19 29h1M22 29h1M18 30h1M22 30h2M17 31h2M23 31h2M16 32h1M19 32h3M25 32h1M16 33h1M18 33h1M20 33h1M22 33h1M26 33h1M15 34h1M17 34h1M20 34h1M23 34h1M27 34h3M14 35h3M19 35h3M24 35h1M30 35h2M13 36h1M16 36h1M18 36h1M20 36h1M22 36h1M24 36h1M31 36h2M12 37h1M17 37h1M20 37h1M23 37h1M32 37h1M12 38h1M16 38h1M18 38h1M20 38h1M22 38h1M28 38h1M33 38h1M12 39h1M15 39h2M19 39h3M28 39h2M33 39h1" />
<path stroke="#ffffff" d="M13 8h1M18 8h5M14 9h4M22 9h2M11 10h11M23 10h2M11 11h2M15 11h3M21 11h4M11 12h1M16 12h1M22 12h3M16 13h1M22 13h3M26 13h1M16 14h1M23 14h1M25 14h3M24 15h4M16 16h1M27 16h1M20 29h2M19 30h3M19 31h3" />
<path stroke="#c3d9f9" d="M13 12h2M18 12h3M12 13h3M18 13h3M13 17h1M18 17h2M18 18h2" />
<path stroke="#f101ff" d="M12 15h1M15 15h1M18 15h1M21 15h1" />
<path stroke="#ff8a00" d="M10 16h1M10 17h2M23 17h4M16 18h1M22 18h2M26 18h2M8 19h8M21 19h5M27 19h2M7 20h2M13 20h12M26 20h1M28 20h1M7 21h1M9 21h4M17 21h7M25 21h3M8 22h2M13 22h1M25 22h2M14 23h1M24 23h2M15 24h1M24 24h1M16 25h1M23 25h1M16 26h1M22 26h1M17 27h1M21 27h1M18 28h3" />
<path stroke="#ff0000" d="M15 22h2M16 23h3M22 23h1M17 24h1M21 24h2M20 25h2M18 26h3" />
<path stroke="#fc809a" d="M19 23h3M18 24h1M20 24h1M18 25h2" />
<path stroke="#fff2c5" d="M19 24h1" />
<path stroke="#ff0100" d="M22 31h1M18 32h1M22 32h1M26 34h1M26 35h1M14 36h1M26 36h1M30 36h1M14 37h1M26 37h1M30 37h1M14 38h1M26 38h1M30 38h1M14 39h1M18 39h1M22 39h1M26 39h1M30 39h1" />
<path stroke="#ff8b00" d="M17 32h1M23 32h1M17 33h1M23 33h1M25 33h1M25 34h1M25 35h1M27 35h1M29 35h1M15 36h1M25 36h1M27 36h1M29 36h1M13 37h1M15 37h1M25 37h1M27 37h1M29 37h1M31 37h1M13 38h1M15 38h1M17 38h1M23 38h1M25 38h1M27 38h1M29 38h1M31 38h1M13 39h1M17 39h1M23 39h1M25 39h1M27 39h1M31 39h1" />
<path stroke="#0ca705" d="M24 32h1M24 33h1M16 34h1M24 34h1M28 35h1M28 36h1M16 37h1M24 37h1M28 37h1M24 38h1M32 38h1M24 39h1M32 39h1" />
<path stroke="#ffd300" d="M19 33h1M21 33h1M18 34h2M21 34h2M17 35h2M22 35h2M17 36h1M19 36h1M21 36h1M23 36h1M18 37h2M21 37h2M19 38h1M21 38h1" />
</svg>