<svg xmlns="http://www.w3.org/2000/svg" viewBox="0 -0.5 40 40" shape-rendering="crispEdges">
<metadata>Made with Pixels to Svg https://codepen.io/shshaw/pen/XbxvNj</metadata>
<path stroke="#6e8d6a" d="M0 0h8M17 0h2M35 0h5M0 1h7M36 1h4M0 2h6M37 2h3M0 3h6M37 3h3M0 4h5M38 4h2M0 5h5M38 5h2M0 6h4M38 6h2M0 7h4M39 7h1M0 8h3M39 8h1M0 9h3M39 9h1M0 10h3M39 10h1M0 11h3M39 11h1M0 12h4M39 12h1M0 13h4M39 13h1M0 14h4M39 14h1M0 15h4M39 15h1M0 16h4M39 16h1M0 17h5M38 17h2M0 18h6M38 18h2M0 19h7M38 19h2M0 20h6M38 20h2M0 21h6M37 21h3M0 22h7M37 22h3M0 23h8M37 23h3M0 24h10M37 24h3M0 25h10M38 25h2" />
<path stroke="#000000" d="M8 0h2M16 0h1M19 0h1M34 0h1M7 1h1M17 1h2M35 1h1M6 2h1M17 2h1M35 2h2M6 3h1M16 3h1M36 3h1M5 4h1M37 4h1M5 5h1M37 5h1M4 6h1M21 6h2M37 6h1M4 7h1M10 7h2M20 7h1M23 7h1M38 7h1M3 8h1M9 8h1M12 8h2M19 8h1M38 8h1M3 9h1M14 9h1M18 9h1M38 9h1M3 10h1M15 10h1M17 10h1M38 10h1M3 11h1M12 11h3M18 11h3M38 11h1M4 12h1M11 12h1M15 12h1M17 12h1M21 12h1M38 12h1M4 13h1M11 13h1M15 13h1M17 13h1M21 13h1M38 13h1M4 14h1M11 14h1M15 14h1M17 14h1M21 14h1M38 14h1M4 15h1M10 15h2M15 15h1M17 15h1M21 15h1M38 15h1M4 16h1M9 16h1M11 16h1M13 16h3M17 16h1M21 16h6M38 16h1M5 17h1M9 17h1M11 17h1M13 17h7M21 17h2M27 17h2M37 17h1M6 18h1M8 18h8M17 18h3M21 18h1M24 18h2M28 18h1M37 18h1M7 19h1M16 19h5M26 19h1M29 19h1M37 19h1M6 20h1M9 20h4M25 20h1M27 20h1M29 20h1M37 20h1M6 21h1M8 21h1M13 21h4M24 21h1M29 21h1M36 21h1M7 22h1M10 22h3M14 22h1M17 22h8M27 22h2M36 22h1M8 23h2M13 23h1M15 23h1M23 23h1M26 23h1M36 23h1M10 24h1M14 24h1M16 24h1M23 24h1M25 24h1M32 24h3M36 24h1M10 25h1M15 25h1M17 25h1M22 25h1M24 25h1M31 25h1M37 25h1M7 26h3M11 26h1M17 26h1M21 26h1M23 26h1M31 26h1M37 26h1M6 27h1M9 27h3M18 27h3M22 27h1M26 27h3M30 27h1M38 27h1M5 28h1M11 28h1M21 28h1M25 28h1M29 28h1M38 28h1M2 29h6M11 29h1M24 29h1M29 29h2M38 29h1M1 30h1M4 30h1M9 30h1M11 30h1M21 30h3M30 30h1M38 30h1M1 31h1M3 31h1M6 31h1M12 31h1M18 31h3M30 31h1M39 31h1M1 32h2M5 32h1M8 32h2M13 32h1M17 32h2M21 32h2M30 32h1M39 32h1M0 33h2M4 33h1M8 33h1M10 33h1M13 33h1M16 33h2M20 33h1M24 33h1M27 33h1M31 33h1M39 33h1M0 34h1M3 34h1M7 34h1M10 34h1M13 34h1M16 34h1M19 34h1M23 34h1M27 34h1M31 34h1M39 34h1M0 35h1M3 35h1M7 35h1M10 35h1M13 35h1M16 35h1M19 35h1M22 35h1M27 35h1M32 35h1M0 36h1M3 36h1M6 36h2M9 36h1M13 36h1M16 36h1M19 36h1M22 36h1M25 36h2M33 36h1M1 37h3M6 37h1M9 37h1M13 37h1M17 37h3M22 37h1M24 37h1M26 37h1M33 37h2M1 38h1M4 38h2M10 38h1M12 38h1M17 38h1M20 38h3M24 38h1M27 38h2M34 38h1M4 39h1M11 39h1M20 39h1M23 39h1M28 39h1M35 39h1" />
<path stroke="#ff0000" d="M10 0h6M20 0h14M8 1h9M19 1h16M7 2h10M18 2h17M7 3h9M17 3h19M6 4h31M6 5h31M5 6h16M23 6h14M5 7h5M12 7h8M21 7h2M24 7h14M4 8h5M10 8h2M14 8h5M20 8h18M4 9h10M15 9h3M19 9h19M4 10h11M16 10h1M18 10h20M4 11h8M15 11h3M21 11h17M5 12h6M16 12h1M22 12h16M5 13h6M16 13h1M22 13h16M5 14h6M16 14h1M22 14h16M5 15h5M16 15h1M22 15h16M5 16h4M16 16h1M27 16h11M6 17h3M29 17h8M7 18h1M29 18h8M30 19h7M30 20h7M30 21h6M15 22h2M29 22h7M10 23h3M16 23h3M22 23h1M27 23h9M11 24h3M17 24h1M21 24h2M26 24h6M35 24h1M11 25h4M20 25h2M25 25h6M32 25h5M12 26h4M18 26h3M24 26h7M32 26h5M7 27h2M12 27h4M23 27h3M29 27h1M31 27h7M6 28h5M12 28h5M22 28h3M26 28h3M30 28h8M8 29h3M12 29h12M25 29h4M31 29h7M2 30h2M5 30h4M10 30h1M12 30h9M24 30h6M31 30h7M2 31h1M4 31h2M7 31h5M13 31h5M21 31h9M31 31h8M3 32h2M6 32h2M10 32h3M14 32h3M19 32h2M23 32h7M31 32h8M2 33h2M5 33h3M11 33h2M14 33h2M18 33h2M21 33h3M25 33h2M28 33h3M32 33h7M1 34h2M4 34h3M11 34h2M14 34h2M17 34h2M20 34h3M24 34h3M28 34h3M32 34h7M2 35h1M4 35h3M11 35h2M14 35h2M18 35h1M20 35h2M23 35h4M28 35h4M33 35h7M2 36h1M5 36h1M10 36h3M14 36h2M18 36h1M21 36h1M23 36h2M27 36h6M34 36h6M5 37h1M10 37h1M12 37h1M14 37h3M21 37h1M25 37h1M27 37h6M35 37h5M13 38h4M18 38h2M25 38h2M29 38h5M35 38h5M12 39h8M21 39h2M24 39h4M29 39h6M36 39h4" />
<path stroke="#ffffff" d="M12 12h3M18 12h3M12 13h3M18 13h3M12 14h3M18 14h3M12 15h3M18 15h3M12 16h1M18 16h3M12 17h1M20 17h1M20 18h1" />
<path stroke="#ff8a00" d="M10 16h1M10 17h1M23 17h4M16 18h1M22 18h2M26 18h2M8 19h8M21 19h5M27 19h2M7 20h2M13 20h12M26 20h1M28 20h1M7 21h1M9 21h4M17 21h7M25 21h4M8 22h2M13 22h1M25 22h2M14 23h1M24 23h2M15 24h1M24 24h1M16 25h1M23 25h1M16 26h1M22 26h1M17 27h1M21 27h1M18 28h3" />
<path stroke="#fc809a" d="M19 23h3M18 24h3M18 25h2" />
<path stroke="#6d8d69" d="M0 26h7M10 26h1M38 26h2" />
<path stroke="#66835e" d="M0 27h6M39 27h1" />
<path stroke="#170000" d="M16 27h1" />
<path stroke="#4d6336" d="M0 28h5M39 28h1" />
<path stroke="#080000" d="M17 28h1" />
<path stroke="#42551c" d="M0 29h2M39 29h1" />
<path stroke="#42541a" d="M0 30h1M39 30h1M0 31h1M0 32h1M9 33h1M8 34h2M8 35h2M8 36h1M0 37h1M7 37h2M0 38h1M2 38h2M6 38h4M0 39h4M5 39h6" />
<path stroke="#ffe400" d="M1 35h1M17 35h1M1 36h1M4 36h1M17 36h1M20 36h1M4 37h1M11 37h1M20 37h1M23 37h1M11 38h1M23 38h1" />
</svg>