<svg xmlns="http://www.w3.org/2000/svg" viewBox="0 -0.5 40 40" shape-rendering="crispEdges">
<metadata>Made with Pixels to Svg https://codepen.io/shshaw/pen/XbxvNj</metadata>
<path stroke="#ffec00" d="M0 0h7M0 1h6M0 2h7M0 3h7M0 4h8M0 5h7M0 6h7M0 7h8M1 8h8M1 9h9M3 10h7M5 11h5M5 12h5M6 13h5M9 14h2" />
<path stroke="#ffa200" d="M7 0h6M6 1h8M7 2h7M7 3h8M8 4h7M7 5h9M7 6h9M8 7h5M9 8h3M10 9h1" />
<path stroke="#ff0000" d="M13 0h9M14 1h7M14 2h6M15 3h6M15 4h6M16 5h4M16 6h3M15 22h2M16 23h3M22 23h1M17 24h1M21 24h2M20 25h2M18 26h3M13 30h3M24 30h3M13 31h3M19 31h2M24 31h3M13 32h1M15 32h1M19 32h3M24 32h1M26 32h1M14 33h1M19 33h3M25 33h1M14 34h2M19 34h3M24 34h2M13 35h3M19 35h2M24 35h3M13 36h3M24 36h3M13 37h3M25 37h2" />
<path stroke="#ee00ff" d="M22 0h8M21 1h9M20 2h9M21 3h8M21 4h7M20 5h7M19 6h2M22 6h5M25 7h1" />
<path stroke="#1700ff" d="M30 0h8M30 1h8M29 2h9M30 3h8M28 4h9M27 5h9M27 6h9M26 7h9M25 8h8M25 9h7M27 10h3M28 11h1" />
<path stroke="#1300ff" d="M38 0h2M38 1h2M38 2h1M38 3h1M24 9h1M25 10h2M26 11h2M26 12h2" />
<path stroke="#00e8ff" d="M39 2h1M39 3h1M37 4h3M36 5h4M36 6h4M35 7h5M33 8h6M32 9h6M30 10h8M29 11h7M28 12h7M30 13h4M30 14h3M29 15h1" />
<path stroke="#eb00ff" d="M29 3h1M21 6h1M21 7h4M23 8h2" />
<path stroke="#ffffff" d="M13 7h8M12 8h6M21 8h2M14 9h3M18 9h3M22 9h2M11 10h14M11 11h2M15 11h3M21 11h5M11 12h1M16 12h1M18 12h1M22 12h4M13 13h1M16 13h1M22 13h5M16 14h1M22 14h6M16 15h1M22 15h6M16 16h1M18 16h3M22 16h1M27 16h1M13 17h2M18 17h3M18 18h2M20 29h2M22 30h1M28 35h2M28 36h3M17 37h1M22 37h1M28 37h4M16 38h8M27 38h1M29 38h4M13 39h2M16 39h12M30 39h3" />
<path stroke="#87cca7" d="M0 8h1M39 8h1M0 9h1M38 9h2M0 10h3M38 10h2M0 11h5M36 11h4M0 12h5M35 12h5M0 13h6M34 13h6M0 14h9M33 14h7M0 15h10M30 15h10M0 16h9M29 16h11M0 17h9M29 17h11M0 18h8M29 18h5M37 18h3M0 19h7M30 19h4M37 19h3M0 20h1M5 20h1M32 20h2M0 21h1M5 21h1M32 21h1M0 22h1M0 23h1M27 23h2M2 24h1M12 24h2M26 24h2M2 25h1M25 25h1M32 25h1M2 26h1M2 27h1M15 27h1M15 28h2M23 29h1" />
<path stroke="#000000" d="M18 8h3M11 9h3M17 9h1M21 9h1M10 10h1M10 11h1M13 11h2M18 11h3M10 12h1M12 12h1M15 12h1M17 12h1M19 12h1M21 12h1M11 13h1M14 13h2M17 13h3M21 13h1M11 14h1M13 14h3M17 14h3M21 14h1M10 15h2M13 15h3M17 15h1M21 15h1M9 16h1M11 16h1M15 16h1M17 16h1M21 16h1M23 16h4M28 16h1M9 17h1M12 17h1M15 17h3M21 17h2M27 17h2M8 18h8M17 18h1M20 18h2M24 18h2M28 18h1M7 19h1M16 19h5M26 19h1M29 19h1M6 20h1M9 20h4M25 20h1M27 20h1M29 20h1M6 21h1M8 21h1M13 21h4M24 21h1M29 21h1M7 22h1M10 22h3M14 22h1M17 22h8M27 22h2M8 23h2M12 23h2M15 23h1M23 23h1M26 23h1M14 24h1M16 24h1M23 24h1M25 24h1M15 25h1M17 25h1M22 25h1M24 25h1M15 26h1M17 26h1M21 26h1M23 26h1M16 27h1M18 27h3M22 27h1M17 28h1M21 28h2M13 29h3M19 29h1M22 29h1M24 29h3M12 30h1M16 30h1M18 30h4M23 30h1M27 30h1M12 31h1M17 31h2M21 31h2M27 31h1M12 32h1M17 32h1M22 32h1M27 32h1M13 33h1M17 33h1M22 33h1M26 33h1M12 34h2M17 34h1M22 34h1M26 34h4M12 35h1M17 35h1M22 35h1M27 35h1M30 35h2M12 36h1M17 36h2M21 36h2M27 36h1M31 36h2M12 37h1M16 37h1M18 37h4M23 37h1M27 37h1M32 37h1M12 38h1M24 38h2M28 38h1M33 38h1M12 39h1M15 39h1M28 39h2M33 39h1" />
<path stroke="#23e84d" d="M13 12h2M20 12h1M12 13h1M20 13h1" />
<path stroke="#00eaff" d="M27 13h3M28 14h2M28 15h1" />
<path stroke="#4aff72" d="M12 14h1M20 14h1M12 15h1M18 15h3M12 16h3" />
<path stroke="#ff8a00" d="M10 16h1M10 17h2M23 17h4M16 18h1M22 18h2M26 18h2M8 19h8M21 19h5M27 19h2M7 20h2M13 20h12M26 20h1M28 20h1M7 21h1M9 21h4M17 21h7M25 21h4M8 22h2M13 22h1M25 22h2M14 23h1M24 23h2M15 24h1M24 24h1M16 25h1M23 25h1M16 26h1M22 26h1M17 27h1M21 27h1M18 28h3" />
<path stroke="#86cca6" d="M34 18h1M36 18h1M1 20h1M4 20h1M31 20h1M34 20h1M39 20h1M33 21h1M35 21h1M5 22h1M32 22h1M36 22h1M39 22h1M1 23h1M4 23h1M29 23h1M31 23h1M36 23h2M1 24h1M3 24h1M28 24h1M31 24h2M14 25h1M26 25h1M33 25h1M36 25h2M1 27h1M2 28h1M23 28h1M11 29h1M27 29h1" />
<path stroke="#84caa5" d="M35 18h1M34 19h1M36 19h1M30 20h1M35 20h1M34 21h1M36 21h1M39 21h1M30 23h1M32 23h1M4 24h1M36 24h2M3 25h1M27 25h1M23 27h1M6 31h1" />
<path stroke="#7dc69f" d="M35 19h1M4 25h1" />
<path stroke="#83caa4" d="M2 20h2M37 20h2M1 21h1M4 21h1M31 21h1M1 22h1M4 22h1M6 22h1M29 22h1M31 22h1M35 22h1M37 22h2M2 23h2M5 23h1M11 23h1M38 23h1M0 24h1M8 24h1M29 24h2M33 24h1M1 25h1M5 25h2M11 25h3M28 25h1M31 25h1M34 25h2M38 25h1M1 26h1M6 26h1M14 26h1M24 26h2M35 26h2M0 27h1M3 27h1M1 28h1M3 28h1M11 28h1M14 28h1M24 28h2M12 29h1M16 29h1M5 30h1M11 30h1" />
<path stroke="#85cba6" d="M36 20h1M9 24h1M11 24h1M3 26h1M26 28h1M3 29h1" />
<path stroke="#75c098" d="M2 21h2M2 22h2M6 23h2M34 23h1M6 24h2M0 25h1M0 26h1M8 26h1M12 26h2M4 27h1M6 27h1M12 28h2M1 29h1M7 30h1M9 30h1M11 31h1" />
<path stroke="#79c39c" d="M30 21h1M37 21h2M30 22h1M10 23h1M38 24h1M27 26h1M24 27h2M29 28h1" />
<path stroke="#80c8a1" d="M33 22h1M35 23h1M34 24h1M9 25h1M10 26h1M29 26h1M33 26h1M30 27h1M34 27h1M2 29h1M4 29h1M28 30h1M36 30h1M5 31h1" />
<path stroke="#78c29b" d="M34 22h1M27 27h1" />
<path stroke="#fc809a" d="M19 23h3M18 24h3M18 25h2" />
<path stroke="#78c39b" d="M33 23h1M29 25h1M31 27h1M33 27h1M28 28h1M35 28h1" />
<path stroke="#82c9a3" d="M39 23h1M5 24h1M7 25h2M39 25h1M7 26h1M11 26h1M26 26h1M28 26h1M32 26h1M37 26h3M10 27h2M14 27h1M29 27h1M0 28h1M10 28h1M30 28h1M34 28h1M10 29h1M17 29h2M28 29h1M35 29h1M4 30h1M6 30h1M10 30h1M35 30h1" />
<path stroke="#81c8a2" d="M10 24h1M27 28h1M10 31h1" />
<path stroke="#7cc59e" d="M35 24h1M10 25h1M34 26h1M6 29h1M6 32h1" />
<path stroke="#76c199" d="M39 24h1M30 25h1M32 27h1" />
<path stroke="#80c7a1" d="M4 26h1M26 27h1" />
<path stroke="#81c9a2" d="M5 26h1M36 29h1" />
<path stroke="#74c097" d="M9 26h1M36 27h1M4 28h1M31 29h1M33 29h1M29 30h1M4 31h1M7 32h1M9 32h1" />
<path stroke="#77c29a" d="M30 26h1M5 29h1" />
<path stroke="#7fc7a0" d="M31 26h1M28 27h1M35 27h1M31 28h1M33 28h1M34 29h1M3 30h1M7 31h1M9 31h1" />
<path stroke="#70bd94" d="M5 27h1M8 27h2M12 27h2M37 27h3M9 28h1M9 29h1M32 29h1M1 30h1M8 30h1M17 30h1M8 32h1" />
<path stroke="#7ec69f" d="M7 27h1" />
<path stroke="#6cbb91" d="M5 28h1" />
<path stroke="#73bf96" d="M6 28h1M28 31h1M34 31h1M36 31h1" />
<path stroke="#7bc49d" d="M7 28h1M10 32h1" />
<path stroke="#6fbc93" d="M8 28h1M38 29h1M30 30h1M38 30h1M1 31h1M3 31h1M39 31h1M0 32h1M11 32h1" />
<path stroke="#7dc59e" d="M32 28h1M8 31h1" />
<path stroke="#71be95" d="M36 28h1M35 32h1" />
<path stroke="#6fbd93" d="M37 28h1M39 29h1" />
<path stroke="#6bba90" d="M38 28h1M8 29h1M31 30h1M33 30h1M2 31h1M29 31h1M33 31h1M37 31h2M1 32h1M4 32h1M28 32h1M36 32h1M5 33h1M7 33h1M9 33h1M11 33h1M27 33h2M30 33h1M33 33h1M35 33h1M33 37h1" />
<path stroke="#6ab98f" d="M39 28h1M32 30h1M30 31h3M2 32h2M29 32h4M37 32h3M0 33h5M8 33h1M12 33h1M31 33h2M36 33h4M0 34h12M31 34h9M0 35h12M32 35h8M0 36h12M33 36h7M0 37h12M34 37h6M0 38h12M34 38h6M0 39h12M34 39h6" />
<path stroke="#75c198" d="M0 29h1" />
<path stroke="#72bf96" d="M7 29h1M2 30h1M37 30h1M5 32h1" />
<path stroke="#7fc7a1" d="M29 29h1" />
<path stroke="#7ec6a0" d="M30 29h1M0 30h1M0 31h1" />
<path stroke="#7bc49c" d="M37 29h1" />
<path stroke="#74bf97" d="M34 30h1" />
<path stroke="#7ac39b" d="M39 30h1" />
<path stroke="#c90a0a" d="M16 31h1M23 31h1M14 32h1M16 32h1M18 32h1M23 32h1M25 32h1M15 33h2M18 33h1M23 33h2M16 34h1M18 34h1M23 34h1M16 35h1M18 35h1M21 35h1M23 35h1M16 36h1M19 36h2M23 36h1M24 37h1" />
<path stroke="#7bc59e" d="M35 31h1" />
<path stroke="#6ebc92" d="M33 32h1M6 33h1M10 33h1M29 33h1M34 33h1M30 34h1" />
<path stroke="#77c299" d="M34 32h1" />
<path stroke="#181818" d="M13 38h3" />
<path stroke="#030303" d="M26 38h1" />
</svg>