<svg xmlns="http://www.w3.org/2000/svg" viewBox="0 -0.5 40 40" shape-rendering="crispEdges">
<metadata>Made with Pixels to Svg https://codepen.io/shshaw/pen/XbxvNj</metadata>
<path stroke="#3f3d3d" d="M0 0h1M26 0h1M29 0h1M0 1h1M9 1h7M23 1h1M26 1h1M29 1h1M35 1h1M0 2h1M8 2h1M26 2h1M29 2h1M0 3h1M29 3h1M0 4h1M29 4h1M0 5h1M29 5h1M0 6h1M2 6h1M4 6h1M29 6h1M0 7h1M8 7h1M29 7h1M0 8h1M8 8h1M29 8h1M32 8h8M0 9h1M31 10h9" />
<path stroke="#dad6d6" d="M1 0h1M30 0h1" />
<path stroke="#dbd6d6" d="M2 0h4M7 0h10M18 0h1M21 0h5M31 0h9" />
<path stroke="#4f4d4d" d="M6 0h1M6 1h1M6 2h1M6 3h1M6 4h1M6 5h1M6 6h1M6 7h1M6 8h1M6 9h1" />
<path stroke="#e0dbdb" d="M17 0h1" />
<path stroke="#000000" d="M19 0h2M16 1h3M21 1h2M14 2h2M23 2h2M13 3h1M25 3h1M12 4h1M26 4h1M11 5h1M27 5h1M11 6h1M28 6h1M10 7h1M28 7h1M10 8h1M28 8h1M9 9h1M29 9h1M9 10h1M29 10h1M9 11h1M29 11h1M9 12h1M14 12h1M21 12h1M29 12h1M9 13h1M29 13h1M9 14h1M29 14h1M10 15h2M29 15h1M9 16h1M11 16h1M23 16h4M28 16h1M9 17h1M12 17h1M15 17h3M21 17h2M27 17h2M8 18h8M17 18h1M20 18h2M24 18h2M28 18h1M7 19h1M16 19h5M26 19h1M29 19h1M6 20h1M9 20h4M25 20h1M27 20h1M29 20h1M6 21h1M8 21h1M13 21h4M24 21h1M29 21h1M7 22h1M10 22h3M14 22h1M17 22h8M27 22h2M8 23h2M12 23h2M15 23h1M23 23h1M26 23h1M14 24h1M16 24h1M23 24h1M25 24h1M15 25h1M17 25h1M22 25h1M24 25h1M15 26h1M17 26h1M21 26h1M23 26h1M16 27h1M18 27h3M22 27h2M17 28h1M21 28h2M24 28h1M16 29h2M19 29h1M22 29h1M24 29h2M15 30h1M26 30h1M15 31h1M26 31h1M16 32h1M25 32h1M16 33h1M26 33h1M15 34h1M27 34h3M32 34h2M14 35h1M30 35h2M34 35h2M10 36h2M13 36h1M32 36h1M36 36h1M9 37h1M12 37h1M32 37h1M37 37h1M8 38h1M12 38h1M33 38h1M37 38h1M8 39h1M12 39h1M33 39h1M37 39h1" />
<path stroke="#2a2828" d="M27 0h2M27 1h2M9 2h5M27 2h2M35 2h1M12 3h1M27 3h2M35 3h1M27 4h2M35 4h1M28 5h1M35 5h5M3 6h1M35 6h5M9 7h1M35 7h5M9 8h1" />
<path stroke="#d6d1d1" d="M1 1h1M5 1h1M25 1h1M30 1h1M1 2h1M5 2h1M7 2h1M25 2h1M30 2h1M1 3h1M5 3h1M7 3h1M30 3h1M1 4h1M5 4h1M7 4h1M30 4h1M1 5h1M5 5h1M7 5h1M30 5h1M1 6h1M5 6h1M7 6h1M30 6h1M1 7h1M5 7h1M7 7h1M30 7h1M1 8h1M5 8h1M7 8h1M30 8h1M1 9h1M5 9h1M31 9h9M2 10h4M7 10h2" />
<path stroke="#4e4c4c" d="M2 1h1M4 1h1M8 1h1M24 1h1" />
<path stroke="#3e3f50" d="M3 1h1" />
<path stroke="#d6d2d2" d="M7 1h1M7 9h1" />
<path stroke="#ffd24a" d="M19 1h1M20 2h1M18 3h1M22 3h1M22 4h3M15 5h2M23 5h2M14 6h2M22 6h3M13 7h3M20 7h4M27 7h1M13 8h4M18 8h2M12 9h1M16 9h1M18 9h1M27 9h1M18 10h1M28 10h1M10 11h1M18 11h1M27 11h1M13 12h1M15 12h1M17 12h2M20 12h1M22 12h1M28 12h1M10 13h1M17 13h2M27 13h1M18 14h1M28 14h1M18 15h2M23 15h1M27 15h2M10 16h1M13 16h2M17 16h1M19 16h4M10 17h2M13 17h1M18 17h3M23 17h1M18 18h2M22 18h2M21 19h5M8 20h1M13 20h12M7 21h1M17 21h7M8 22h1M20 29h1M24 33h1M19 34h1M22 34h2M18 35h7M29 35h1M32 35h1M15 36h1M18 36h6M26 36h1M33 36h1M11 37h1M13 37h5M19 37h2M25 37h4M33 37h3M10 38h2M13 38h6M24 38h8M34 38h3M10 39h1M13 39h19M34 39h2" />
<path stroke="#fcf4dc" d="M20 1h1M22 2h1M19 3h3M24 3h1M18 4h2M17 5h2M17 6h2M25 6h1M16 7h2M26 7h1M22 8h1M19 9h1M26 17h1M27 18h1M28 19h1M23 28h1M21 30h1M25 30h1M21 31h1M33 35h1M31 36h1M34 36h1M32 38h1" />
<path stroke="#4f4c4c" d="M31 1h1" />
<path stroke="#533c3c" d="M32 1h1" />
<path stroke="#534141" d="M33 1h1" />
<path stroke="#403d3d" d="M34 1h1M8 3h1M8 6h1M0 36h1" />
<path stroke="#3f3d3e" d="M36 1h1M39 1h1M2 5h1M4 5h1" />
<path stroke="#3d3f52" d="M37 1h1" />
<path stroke="#474851" d="M38 1h1" />
<path stroke="#3e3e50" d="M2 2h1M4 2h1" />
<path stroke="#114be8" d="M3 2h1" />
<path stroke="#f5c436" d="M16 2h1M18 2h2M14 3h1M16 3h2M14 4h3M12 5h3M13 6h1M11 7h2M24 7h2M12 8h1M23 8h4M10 9h1M24 9h3M24 10h2M24 11h2M24 12h1M24 13h1M12 14h1M14 14h1M16 14h1M13 15h4M15 16h1M14 17h1M26 20h1M25 21h3M25 22h2M24 23h2" />
<path stroke="#e08b04" d="M17 2h1M15 3h1M13 4h1M12 6h1M11 8h1M20 34h1M15 35h1M16 36h2M18 37h1M24 37h1M19 38h5" />
<path stroke="#e08c04" d="M21 2h1M23 3h1M25 4h1M25 5h1M26 6h1M27 8h1M10 10h1M27 10h1M10 12h1M27 12h1M10 14h1M27 14h1M17 15h1M16 16h1M18 16h1M27 16h1M18 31h1M23 31h1M18 32h1M23 32h1M18 33h1M23 33h1M25 33h1" />
<path stroke="#523d3d" d="M31 2h1M31 3h1M8 4h1M5 34h1" />
<path stroke="#f22727" d="M32 2h1" />
<path stroke="#f56a6a" d="M33 2h1" />
<path stroke="#442e2e" d="M34 2h1" />
<path stroke="#292a42" d="M36 2h1M36 3h1M37 4h2" />
<path stroke="#2455f5" d="M37 2h1" />
<path stroke="#97b2f2" d="M38 2h1" />
<path stroke="#353842" d="M39 2h1" />
<path stroke="#3f3d3f" d="M2 3h1M4 3h1" />
<path stroke="#282c53" d="M3 3h1" />
<path stroke="#432727" d="M9 3h1" />
<path stroke="#442d2d" d="M10 3h1" />
<path stroke="#2c2828" d="M11 3h1" />
<path stroke="#3e3c3c" d="M26 3h1" />
<path stroke="#f02020" d="M32 3h1" />
<path stroke="#f02626" d="M33 3h1M9 4h1" />
<path stroke="#432828" d="M34 3h1" />
<path stroke="#0e4ef3" d="M37 3h1" />
<path stroke="#2356f3" d="M38 3h1" />
<path stroke="#282b42" d="M39 3h1" />
<path stroke="#3e3e4f" d="M2 4h1" />
<path stroke="#114ce4" d="M3 4h1" />
<path stroke="#3e3f4f" d="M4 4h1" />
<path stroke="#f56767" d="M10 4h1" />
<path stroke="#572c2c" d="M11 4h1" />
<path stroke="#f8e6af" d="M17 4h1M20 4h2M19 5h4M26 5h1M16 6h1M19 6h3M27 6h1M18 7h2M17 8h1M20 8h2M17 9h1M23 9h1M28 9h1M17 10h1M13 11h1M15 11h1M17 11h1M20 11h1M22 11h1M28 11h1M13 13h1M15 13h1M20 13h1M22 13h1M28 13h1M17 14h1M19 14h1M21 14h1M23 14h1M20 15h3M24 17h2M16 18h1M26 18h1M8 19h8M27 19h1M7 20h1M28 20h1M28 21h1" />
<path stroke="#413e3e" d="M31 4h1" />
<path stroke="#553f36" d="M32 4h1" />
<path stroke="#55403c" d="M33 4h1" />
<path stroke="#2d2929" d="M34 4h1" />
<path stroke="#2a2829" d="M36 4h1M39 4h1" />
<path stroke="#292941" d="M3 5h1" />
<path stroke="#513d3d" d="M8 5h1M9 28h1M11 28h1" />
<path stroke="#ed2020" d="M9 5h1" />
<path stroke="#f62626" d="M10 5h1" />
<path stroke="#514d47" d="M31 5h1M31 6h1" />
<path stroke="#eeddaa" d="M32 5h1" />
<path stroke="#f2e8ce" d="M33 5h1" />
<path stroke="#43403c" d="M34 5h1" />
<path stroke="#422727" d="M9 6h1" />
<path stroke="#532626" d="M10 6h1" />
<path stroke="#ecdca7" d="M32 6h1" />
<path stroke="#ecdca9" d="M33 6h1" />
<path stroke="#423e36" d="M34 6h1" />
<path stroke="#403e3d" d="M2 7h1M4 7h1" />
<path stroke="#413c35" d="M3 7h1" />
<path stroke="#403e3e" d="M31 7h1" />
<path stroke="#423e35" d="M32 7h2" />
<path stroke="#2b2928" d="M34 7h1" />
<path stroke="#504c46" d="M2 8h1M4 8h1" />
<path stroke="#dece9c" d="M3 8h1" />
<path stroke="#504e4e" d="M31 8h1M8 9h1" />
<path stroke="#4f4d4c" d="M2 9h1M4 9h1" />
<path stroke="#514d46" d="M3 9h1" />
<path stroke="#e2b129" d="M11 9h1M11 10h1M26 10h1M11 11h1M26 11h1M11 12h1M25 12h2M11 13h1M25 13h2M11 14h1M24 14h3M12 15h1M24 15h3M12 16h1M21 29h1M23 29h1M11 39h1" />
<path stroke="#b37006" d="M13 9h3M20 9h3M12 10h1M16 10h1M19 10h1M23 10h1M18 29h1" />
<path stroke="#d2cdcd" d="M30 9h1M1 10h1" />
<path stroke="#3e3b3b" d="M0 10h1M30 10h1" />
<path stroke="#4e4b4b" d="M6 10h1" />
<path stroke="#ffa000" d="M13 10h1M15 10h1M20 10h1M22 10h1M12 11h1M14 11h1M16 11h1M19 11h1M21 11h1M23 11h1M12 12h1M16 12h1M19 12h1M23 12h1M12 13h1M14 13h1M16 13h1M19 13h1M21 13h1M23 13h1M13 14h1M15 14h1M20 14h1M22 14h1M9 21h4M9 22h1M13 22h1M14 23h1M19 23h3M15 24h1M18 24h3M24 24h1M16 25h1M18 25h2M23 25h1M16 26h1M22 26h1M17 27h1M21 27h1M18 28h3M17 30h4M22 30h2M17 31h1M19 31h2M22 31h1M24 31h2M20 33h1M17 34h1M21 34h1M24 34h1" />
<path stroke="#e08d04" d="M14 10h1M21 10h1" />
<path stroke="#412828" d="M0 11h1" />
<path stroke="#4f3a3a" d="M1 11h1" />
<path stroke="#4f3c3c" d="M2 11h3M8 11h1" />
<path stroke="#4f3b3b" d="M5 11h1M7 11h1" />
<path stroke="#422929" d="M6 11h1" />
<path stroke="#402727" d="M30 11h10" />
<path stroke="#dd0808" d="M0 12h9M30 12h10" />
<path stroke="#e20101" d="M0 13h9M30 13h7M0 14h9M0 15h10M29 17h1M29 18h1M5 19h2M5 20h1M5 21h1M29 22h2M39 22h1M27 23h4M39 23h1M26 24h5M39 24h1" />
<path stroke="#e2030b" d="M37 13h1M39 13h1M39 18h1" />
<path stroke="#dc1034" d="M38 13h1" />
<path stroke="#e5332d" d="M30 14h1M33 17h1" />
<path stroke="#e5342f" d="M31 14h6M0 16h9M38 19h2" />
<path stroke="#e23746" d="M37 14h1" />
<path stroke="#635cea" d="M38 14h1" />
<path stroke="#de3847" d="M39 14h1" />
<path stroke="#f9dfc8" d="M30 15h1M30 20h1" />
<path stroke="#fae8d0" d="M31 15h7M39 15h1M31 20h9M0 23h8M10 23h2" />
<path stroke="#f6e9d6" d="M38 15h1" />
<path stroke="#e30909" d="M29 16h1" />
<path stroke="#e4322c" d="M30 16h1" />
<path stroke="#e5483c" d="M31 16h1M35 16h1" />
<path stroke="#e64941" d="M32 16h1M36 16h1" />
<path stroke="#e53530" d="M33 16h1" />
<path stroke="#e4352f" d="M34 16h1" />
<path stroke="#e43531" d="M37 16h1" />
<path stroke="#de3645" d="M38 16h1" />
<path stroke="#e43430" d="M39 16h1" />
<path stroke="#fae9d2" d="M0 17h9" />
<path stroke="#e33024" d="M30 17h1M34 17h1" />
<path stroke="#f7dba7" d="M31 17h1M35 17h1" />
<path stroke="#fae8ce" d="M32 17h1M36 17h1" />
<path stroke="#df3645" d="M37 17h1" />
<path stroke="#5f4be6" d="M38 17h1" />
<path stroke="#dd1034" d="M39 17h1" />
<path stroke="#e4342e" d="M0 18h1M2 18h1M4 18h1M33 21h2M36 21h1M38 21h1" />
<path stroke="#e4342f" d="M1 18h1M3 18h1M32 21h1M35 21h1M37 21h1M0 22h7M0 24h14" />
<path stroke="#e4342d" d="M5 18h3M39 21h1" />
<path stroke="#e32e24" d="M30 18h1" />
<path stroke="#f6d7a3" d="M31 18h1M35 18h1" />
<path stroke="#f7dba8" d="M32 18h1M36 18h1" />
<path stroke="#e43025" d="M33 18h1" />
<path stroke="#e32f24" d="M34 18h1" />
<path stroke="#e33026" d="M37 18h1" />
<path stroke="#de1033" d="M38 18h1" />
<path stroke="#e30a08" d="M0 19h1" />
<path stroke="#e42f23" d="M1 19h1" />
<path stroke="#e30f0c" d="M2 19h1M2 21h1M36 22h1M36 24h1" />
<path stroke="#e5322c" d="M3 19h1" />
<path stroke="#e30b0a" d="M4 19h1M33 22h1M33 24h1" />
<path stroke="#e5342e" d="M30 19h1" />
<path stroke="#e6473b" d="M31 19h1M35 19h1" />
<path stroke="#e6483c" d="M32 19h1M36 19h1" />
<path stroke="#e63630" d="M33 19h1" />
<path stroke="#e63530" d="M34 19h1M37 19h1" />
<path stroke="#e32e23" d="M0 20h1M37 22h1M38 23h1M37 24h1" />
<path stroke="#f5cd9b" d="M1 20h1" />
<path stroke="#e54338" d="M2 20h1M36 23h1" />
<path stroke="#f8d9c3" d="M3 20h1M35 23h1" />
<path stroke="#e5312c" d="M4 20h1M33 23h1" />
<path stroke="#e20a08" d="M0 21h1M38 22h1M38 24h1" />
<path stroke="#e32d23" d="M1 21h1" />
<path stroke="#e4302b" d="M3 21h1M30 21h1M35 22h1M31 23h1" />
<path stroke="#e30b09" d="M4 21h1" />
<path stroke="#e4332e" d="M31 21h1" />
<path stroke="#6a4100" d="M15 22h2M16 23h3M22 23h1M17 24h1M21 24h2M20 25h2M18 26h3" />
<path stroke="#e30a09" d="M31 22h1M34 22h1M31 24h1M34 24h1" />
<path stroke="#e4312c" d="M32 22h1M34 23h1M32 24h1" />
<path stroke="#f8ddc6" d="M32 23h1" />
<path stroke="#f5d09d" d="M37 23h1" />
<path stroke="#e42f2a" d="M35 24h1" />
<path stroke="#dd0d0d" d="M0 25h15M25 25h15" />
<path stroke="#503d3d" d="M0 26h1M0 28h1M5 28h4M12 28h1M0 29h1M13 29h1M0 30h1M13 30h1M0 31h1M13 31h1M0 32h1M13 32h1M0 33h1M13 33h1M0 34h1" />
<path stroke="#5d3b3b" d="M1 26h14M33 26h3M2 34h1" />
<path stroke="#60504c" d="M24 26h1" />
<path stroke="#60504d" d="M25 26h7M37 26h3" />
<path stroke="#513e3d" d="M32 26h1M36 26h1" />
<path stroke="#4f3d3d" d="M0 27h1M0 35h1" />
<path stroke="#d81212" d="M1 27h1M1 28h1M14 28h1M14 29h1M14 30h1M14 31h1M14 32h1M14 33h1M1 34h1M14 34h1" />
<path stroke="#da1212" d="M2 27h1M13 27h1" />
<path stroke="#d91313" d="M3 27h10" />
<path stroke="#d91212" d="M14 27h1M35 27h1" />
<path stroke="#503c3c" d="M15 27h1M9 34h4" />
<path stroke="#ece4cd" d="M24 27h1" />
<path stroke="#f1ead3" d="M25 27h5M39 27h1M37 29h1M37 30h1M37 31h1M37 32h1M37 33h1M37 34h1M37 35h1M37 36h1" />
<path stroke="#f2ebd4" d="M30 27h1M38 27h1" />
<path stroke="#f2ead4" d="M31 27h1M4 32h1M7 32h1" />
<path stroke="#5e4f4c" d="M32 27h1M32 33h1" />
<path stroke="#d81313" d="M33 27h1M1 29h1M1 30h1M1 31h1M1 32h1M1 33h1" />
<path stroke="#da1112" d="M34 27h1" />
<path stroke="#5f4e4b" d="M36 27h1" />
<path stroke="#f2ead3" d="M37 27h1M37 28h1" />
<path stroke="#5c3b3c" d="M2 28h1" />
<path stroke="#4e3e50" d="M3 28h1" />
<path stroke="#503d3e" d="M4 28h1M2 30h1" />
<path stroke="#5f3c3c" d="M10 28h1" />
<path stroke="#5c3b3b" d="M13 28h1" />
<path stroke="#503b3b" d="M15 28h1M15 29h1M15 32h1M15 33h1" />
<path stroke="#413f3f" d="M16 28h1M5 29h4M12 29h1M26 29h1M39 29h1M5 30h4M12 30h1M39 30h1M12 31h1M39 31h1M12 32h1M26 32h1M39 32h1M9 33h4M27 33h3M39 33h1M39 34h1M39 35h1M39 36h1M39 37h1M39 38h1M39 39h1" />
<path stroke="#53504d" d="M25 28h4M39 28h1M30 33h1M30 34h1" />
<path stroke="#53514d" d="M29 28h1" />
<path stroke="#615e59" d="M30 28h1" />
<path stroke="#f1e9d3" d="M31 28h1" />
<path stroke="#5f4f4c" d="M32 28h1M32 29h1M32 30h1M32 31h1M32 32h1" />
<path stroke="#d81316" d="M33 28h1" />
<path stroke="#663b4d" d="M34 28h1" />
<path stroke="#d81215" d="M35 28h1" />
<path stroke="#604e4a" d="M36 28h1M36 29h1M36 30h1M36 31h1M36 32h1M36 33h1" />
<path stroke="#635f5a" d="M38 28h1" />
<path stroke="#4f3e4f" d="M2 29h1" />
<path stroke="#1b4fe6" d="M3 29h1" />
<path stroke="#3f4051" d="M4 29h1" />
<path stroke="#513e3e" d="M9 29h1M9 31h1M10 32h1" />
<path stroke="#e32626" d="M10 29h1M10 31h1" />
<path stroke="#533e3e" d="M11 29h1M11 31h1" />
<path stroke="#423f3f" d="M27 29h1M9 32h1M11 32h1M27 32h1" />
<path stroke="#543d3d" d="M28 29h1" />
<path stroke="#554242" d="M29 29h1" />
<path stroke="#54514d" d="M30 29h1" />
<path stroke="#f1e9d2" d="M31 29h1M31 30h1M31 31h1M3 32h1M6 32h1M31 32h1M31 33h1M31 34h1" />
<path stroke="#d81635" d="M33 29h1" />
<path stroke="#4750e5" d="M34 29h1" />
<path stroke="#d71635" d="M35 29h1" />
<path stroke="#55514e" d="M38 29h1M38 30h1M38 31h1M38 32h1M38 33h1M38 34h1M38 35h1M38 36h1M38 37h1M38 38h1M38 39h1" />
<path stroke="#3f4050" d="M3 30h1" />
<path stroke="#413f40" d="M4 30h1" />
<path stroke="#433f3f" d="M9 30h1M11 30h1" />
<path stroke="#613c3c" d="M10 30h1" />
<path stroke="#e9950b" d="M16 30h1M16 31h1" />
<path stroke="#f7e792" d="M24 30h1M21 33h1M18 34h1M25 34h2M25 35h1M27 35h2M14 36h1M24 36h1M27 36h4M35 36h1M21 37h3M29 37h3M36 37h1M32 39h1M36 39h1" />
<path stroke="#523e3e" d="M27 30h1M27 31h1M28 32h2" />
<path stroke="#f12929" d="M28 30h1" />
<path stroke="#f56868" d="M29 30h1" />
<path stroke="#635350" d="M30 30h1" />
<path stroke="#d81617" d="M33 30h1" />
<path stroke="#6a4c55" d="M34 30h1" />
<path stroke="#d81517" d="M35 30h1" />
<path stroke="#503e3e" d="M2 31h1" />
<path stroke="#54514e" d="M3 31h2M6 31h2" />
<path stroke="#434140" d="M5 31h1" />
<path stroke="#424040" d="M8 31h1" />
<path stroke="#ee2323" d="M28 31h1" />
<path stroke="#f02929" d="M29 31h1" />
<path stroke="#62504c" d="M30 31h1" />
<path stroke="#de3026" d="M33 31h1" />
<path stroke="#ecce9c" d="M34 31h1" />
<path stroke="#de3025" d="M35 31h1M35 33h1" />
<path stroke="#5e4f4b" d="M2 32h1" />
<path stroke="#625e59" d="M5 32h1M5 33h1" />
<path stroke="#54504d" d="M8 32h1M30 32h1M8 33h1M36 35h1" />
<path stroke="#c87f09" d="M17 32h1M19 32h4M24 32h1" />
<path stroke="#d91715" d="M33 32h1M35 32h1" />
<path stroke="#74564b" d="M34 32h1" />
<path stroke="#5e4e4b" d="M2 33h1" />
<path stroke="#eee6d0" d="M3 33h1M6 33h1" />
<path stroke="#f1ead2" d="M4 33h1M7 33h1" />
<path stroke="#b37106" d="M17 33h1M19 33h1M22 33h1" />
<path stroke="#d53228" d="M33 33h1" />
<path stroke="#ebce9c" d="M34 33h1" />
<path stroke="#5f4c49" d="M3 34h1M6 34h1" />
<path stroke="#604d4a" d="M4 34h1M7 34h1" />
<path stroke="#513d3c" d="M8 34h1" />
<path stroke="#5c3a3a" d="M13 34h1" />
<path stroke="#febb4a" d="M16 34h1M16 35h2M26 35h1M25 36h1" />
<path stroke="#5d4b46" d="M34 34h1" />
<path stroke="#d01818" d="M35 34h1" />
<path stroke="#5f4f4b" d="M36 34h1" />
<path stroke="#d41010" d="M1 35h1" />
<path stroke="#d80f0f" d="M2 35h1M13 35h1" />
<path stroke="#d81010" d="M3 35h10" />
<path stroke="#402a2a" d="M1 36h1" />
<path stroke="#402929" d="M2 36h8M12 36h1" />
<path stroke="#2d2b2b" d="M0 37h1" />
<path stroke="#2c2a2a" d="M1 37h8M0 38h8M0 39h8" />
<path stroke="#e08a04" d="M10 37h1M9 38h1M9 39h1" />
</svg>