<svg xmlns="http://www.w3.org/2000/svg" viewBox="0 -0.5 40 40" shape-rendering="crispEdges">
<metadata>Made with Pixels to Svg https://codepen.io/shshaw/pen/XbxvNj</metadata>
<path stroke="#7b01ec" d="M0 0h11M21 0h19M0 1h10M23 1h17M0 2h9M25 2h15M0 3h8M26 3h14M0 4h8M27 4h6M36 4h4M0 5h8M10 5h2M28 5h5M35 5h5M0 6h7M9 6h3M28 6h5M34 6h6M0 7h11M29 7h11M0 8h9M31 8h9M0 9h8M29 9h11M0 10h9M31 10h9M0 11h8M30 11h1M32 11h8M0 12h7M30 12h2M33 12h7M0 13h6M8 13h1M31 13h9M0 14h8M32 14h8M0 15h7M8 15h1M29 15h1M31 15h9M0 16h6M7 16h2M29 16h2M32 16h3M38 16h2M0 17h9M29 17h2M32 17h4M38 17h2M0 18h8M29 18h8M38 18h2M0 19h7M30 19h10M0 20h6M30 20h10M0 21h5M30 21h10M0 22h3M6 22h1M29 22h8M39 22h1M0 23h3M6 23h2M10 23h2M27 23h10M39 23h1M0 24h3M7 24h7M26 24h10M0 25h3M7 25h8M25 25h3M31 25h5M0 26h3M7 26h2M10 26h5M24 26h3M32 26h3M0 27h2M7 27h1M11 27h5M23 27h4M33 27h2M11 28h6M23 28h4" />
<path stroke="#bf0de9" d="M11 0h9M10 1h12M9 2h15M8 3h8M20 3h5M8 4h5M17 4h9M8 5h2M14 5h13M7 6h2M13 6h14M11 7h17M9 8h20M8 9h2M15 33h1M27 33h2M14 34h3M27 34h2M15 35h3M26 35h3M16 36h2M26 36h2M17 37h1M19 37h6M26 37h2M17 38h1M19 38h6M26 38h2M17 39h1M19 39h6M26 39h2" />
<path stroke="#d84cf9" d="M20 0h1M22 1h1M24 2h1M25 3h1M26 4h1M27 5h1M27 6h1M28 7h1M29 8h2" />
<path stroke="#950eb5" d="M16 3h4M13 4h4M12 5h2M12 6h1M18 37h1M25 37h1M18 38h1M25 38h1M18 39h1M25 39h1" />
<path stroke="#000000" d="M33 4h1M34 5h1M10 11h1M13 11h2M18 11h3M10 12h1M12 12h4M17 12h5M11 13h5M17 13h5M11 14h1M15 14h1M17 14h5M28 14h1M10 15h2M15 15h1M17 15h1M21 15h1M28 15h1M9 16h1M11 16h1M13 16h1M15 16h1M17 16h1M21 16h1M23 16h4M28 16h1M37 16h1M9 17h1M15 17h3M19 17h1M21 17h2M27 17h2M36 17h1M8 18h8M17 18h1M21 18h1M24 18h2M28 18h1M7 19h1M16 19h5M26 19h1M29 19h1M6 20h1M9 20h4M25 20h1M27 20h1M29 20h1M6 21h1M8 21h1M13 21h4M24 21h1M29 21h1M7 22h1M11 22h2M17 22h8M27 22h2M8 23h2M12 23h1M15 23h1M23 23h1M26 23h1M14 24h1M16 24h1M23 24h1M25 24h1M15 25h1M17 25h1M22 25h1M24 25h1M15 26h1M17 26h1M21 26h1M23 26h1M16 27h1M18 27h3M22 27h1M17 28h1M21 28h2M19 29h1M22 29h1M18 30h1M22 30h2M10 31h1M17 31h2M23 31h2M9 32h1M16 32h1M25 32h1M16 33h1M26 33h1M29 34h1M14 35h1M30 35h2M13 36h1M31 36h2M12 37h1M32 37h1M12 38h1M16 38h1M28 38h1M33 38h1M12 39h1M15 39h2M28 39h2M33 39h1" />
<path stroke="#ffffff" d="M34 4h2M33 5h1M33 6h1M12 14h3M12 15h3M18 15h3M12 16h1M14 16h1M18 16h3M35 16h2M12 17h3M18 17h1M20 17h1M37 17h1M18 18h3M37 18h1M9 21h2M9 22h2M17 23h2M21 23h2M17 24h2M21 24h2M8 31h2M10 32h1M10 33h1" />
<path stroke="#563e03" d="M10 9h2M27 9h2M9 10h1M24 10h1M26 10h2M29 10h2M8 11h2M24 11h1M26 11h1M28 11h1M31 11h1M7 12h1M9 12h1M24 12h1M26 12h2M29 12h1M32 12h1M6 13h1M9 13h2M25 13h1M27 13h4M8 14h1M10 14h1M29 14h1M31 14h1M7 15h1M9 15h1M30 15h1M6 16h1M31 16h1M31 17h1" />
<path stroke="#c2fc59" d="M12 9h10M23 9h1M25 9h1M11 10h2M15 10h3M22 10h2M11 11h1M16 11h1M22 11h1M11 12h1M16 12h1M22 12h2M25 12h1M16 13h1M22 13h2M26 13h1M16 14h1M23 14h2M27 14h1M16 15h1M22 15h1M24 15h3M16 16h1M22 16h1M27 16h1M20 29h2M19 30h3M19 31h1M21 31h2M17 32h1M19 32h2M22 32h3M17 33h2M20 33h3M24 33h2M17 34h4M22 34h5M18 35h1M21 35h2M24 35h2M14 36h1M19 36h1M21 36h3M25 36h1M28 36h2M14 37h2M28 37h1M30 37h2M13 38h3M29 38h2M32 38h1M13 39h1M30 39h3" />
<path stroke="#fdee83" d="M22 9h1M25 11h1M25 14h1M13 22h2M13 23h2M19 25h2M19 26h2M18 32h1M21 32h1M20 35h1M29 35h1M15 36h1M18 36h1M20 36h1" />
<path stroke="#8e6708" d="M24 9h1M26 9h1M10 10h1M25 10h1M28 10h1M27 11h1M29 11h1M8 12h1M28 12h1M7 13h1M9 14h1M30 14h1" />
<path stroke="#83c40e" d="M13 10h2M18 10h4M12 11h1M15 11h1M17 11h1M21 11h1M23 11h1M24 13h1M22 14h1M26 14h1M23 15h1M27 15h1M20 31h1M19 33h1M23 33h1M21 34h1M19 35h1M23 35h1M24 36h1M30 36h1M13 37h1M16 37h1M29 37h1M31 38h1M14 39h1" />
<path stroke="#ff8a00" d="M10 16h1M10 17h2M23 17h4M16 18h1M22 18h2M26 18h2M8 19h8M21 19h5M27 19h2M7 20h2M13 20h12M26 20h1M28 20h1M7 21h1M11 21h2M17 21h7M25 21h4M8 22h1M25 22h2M24 23h2M15 24h1M24 24h1M16 25h1M23 25h1M16 26h1M22 26h1M17 27h1M21 27h1M18 28h3" />
<path stroke="#c06f09" d="M5 21h1M5 22h1M38 22h1M5 23h1M38 23h1M5 24h2M38 24h2M5 25h2M29 25h2M37 25h3M5 26h2M9 26h1M29 26h3M37 26h3M4 27h3M10 27h1M29 27h4M37 27h3M4 28h3M10 28h1M29 28h5M37 28h3M4 29h3M10 29h1M28 29h5M36 29h4M4 30h2M9 30h3M28 30h1M31 30h1M35 30h5M2 31h3M11 31h1M16 31h1M25 31h1M27 31h1M39 31h1M1 32h2M11 32h2M15 32h1M0 33h1M11 33h1M14 33h1M10 34h2M33 35h2M3 36h2M6 36h2M11 36h1M4 37h2M10 37h1M35 37h1M39 37h1" />
<path stroke="#8c5108" d="M3 22h2M3 23h2M3 24h2M36 24h1M3 25h2M28 25h1M36 25h1M3 26h2M27 26h2M35 26h2M2 27h2M8 27h1M27 27h1M35 27h2M2 28h2M8 28h1M27 28h1M34 28h2M1 29h3M7 29h2M26 29h2M34 29h2M0 30h3M6 30h2M26 30h2M30 30h1M0 31h2M5 31h3M29 31h3M33 31h3M5 32h1M26 32h12M3 33h5M12 33h2M31 33h6M12 34h2" />
<path stroke="#ff0000" d="M15 22h2M16 23h1M21 25h1M18 26h1" />
<path stroke="#ab6104" d="M37 22h1M37 23h1M37 24h1M9 27h1M28 27h1M9 28h1M28 28h1M36 28h1M9 29h1M33 29h1M3 30h1M8 30h1M29 30h1M32 30h3M26 31h1M28 31h1M32 31h1M36 31h3M0 32h1M6 32h3M38 32h2M8 33h2M37 33h3M9 34h1" />
<path stroke="#fc809a" d="M19 23h2M19 24h2M18 25h1" />
<path stroke="#fdc041" d="M0 28h2M7 28h1M11 29h8M23 29h3M12 30h2" />
<path stroke="#fdf841" d="M0 29h1M14 30h4M24 30h2M12 31h4M13 32h2" />
<path stroke="#f1bc49" d="M3 32h2M1 33h2M29 33h2M0 34h9M30 34h10M0 35h14M32 35h1M35 35h5M0 36h3M5 36h1M8 36h3M12 36h1M33 36h7M0 37h4M6 37h4M11 37h1M33 37h2M36 37h3M0 38h12M34 38h6M0 39h12M34 39h6" />
</svg>