<svg xmlns="http://www.w3.org/2000/svg" viewBox="0 -0.5 40 40" shape-rendering="crispEdges">
<metadata>Made with Pixels to Svg https://codepen.io/shshaw/pen/XbxvNj</metadata>
<path stroke="#ff0000" d="M0 0h8M33 0h7M0 1h6M34 1h6M0 2h4M35 2h5M0 3h3M36 3h4M0 4h1M37 4h3M0 5h1M37 5h3M38 6h2M39 7h1M39 8h1M15 22h2M16 23h3M22 23h1M17 24h1M21 24h2M20 25h2M18 26h3M0 31h1M39 31h1M0 32h2M17 32h2M23 32h2M39 32h1M0 33h3M17 33h3M21 33h1M23 33h3M38 33h2M0 34h3M16 34h3M20 34h3M24 34h3M37 34h3M0 35h4M16 35h4M21 35h1M23 35h3M36 35h4M0 36h3M17 36h2M24 36h1M35 36h5M0 37h4M34 37h6M0 38h5M34 38h6M0 39h6M34 39h6" />
<path stroke="#ff0101" d="M8 0h1M32 0h1M6 1h1M33 1h1M4 2h1M34 2h1M3 3h1M35 3h1M1 4h1M36 4h1M0 6h1M37 6h1M38 7h1M39 9h1M0 30h1M39 30h1M38 32h1M37 33h1M3 34h1M36 34h1M35 35h1M34 36h1M33 37h1" />
<path stroke="#ff0203" d="M9 0h1M31 0h1M7 1h1M5 2h1M2 4h1M0 29h1" />
<path stroke="#000000" d="M10 0h5M9 1h1M15 1h3M8 2h1M18 2h1M20 2h3M7 3h1M19 3h7M6 4h1M26 4h5M6 5h1M12 5h10M31 5h1M6 6h1M11 6h13M32 6h1M7 7h1M10 7h15M33 7h1M8 8h1M10 8h3M23 8h3M34 8h1M9 9h5M18 9h4M24 9h3M35 9h1M10 10h1M22 10h1M25 10h3M35 10h1M10 11h1M13 11h2M18 11h3M26 11h2M35 11h1M10 12h1M12 12h1M15 12h1M17 12h1M21 12h1M26 12h3M34 12h1M11 13h1M15 13h1M17 13h1M21 13h1M27 13h2M34 13h1M11 14h1M15 14h1M17 14h1M20 14h2M28 14h2M32 14h2M37 14h1M10 15h2M14 15h2M17 15h1M19 15h3M28 15h7M36 15h2M9 16h1M11 16h1M14 16h2M17 16h1M19 16h3M23 16h4M28 16h1M32 16h7M9 17h1M12 17h1M14 17h4M19 17h4M27 17h2M34 17h4M8 18h8M17 18h1M20 18h2M24 18h2M28 18h1M7 19h1M16 19h5M26 19h1M29 19h1M6 20h1M9 20h4M25 20h1M27 20h1M29 20h1M6 21h1M8 21h1M13 21h4M24 21h1M29 21h1M7 22h1M10 22h3M14 22h1M17 22h8M27 22h2M4 23h1M8 23h2M12 23h2M15 23h1M23 23h1M26 23h1M3 24h1M5 24h1M14 24h1M16 24h1M23 24h1M25 24h1M3 25h1M5 25h1M15 25h1M17 25h1M22 25h1M24 25h1M3 26h1M5 26h1M15 26h1M17 26h1M21 26h1M23 26h1M2 27h2M5 27h4M16 27h1M18 27h3M22 27h1M1 28h1M3 28h1M5 28h1M9 28h1M17 28h1M21 28h2M1 29h1M3 29h1M5 29h1M7 29h1M9 29h1M19 29h2M22 29h1M1 30h1M7 30h1M9 30h1M18 30h1M22 30h2M1 31h1M8 31h1M17 31h2M23 31h2M2 32h1M8 32h1M16 32h1M19 32h1M22 32h1M25 32h1M3 33h1M8 33h1M16 33h1M20 33h1M22 33h1M26 33h1M4 34h1M7 34h1M9 34h1M15 34h1M19 34h1M23 34h1M27 34h3M4 35h3M9 35h1M14 35h2M20 35h1M22 35h1M26 35h1M30 35h2M3 36h1M8 36h1M10 36h1M13 36h1M16 36h1M19 36h1M23 36h1M25 36h2M32 36h1M4 37h4M10 37h1M12 37h1M17 37h3M23 37h2M32 37h1M5 38h1M11 38h2M16 38h1M20 38h1M22 38h1M28 38h1M33 38h1M6 39h1M12 39h1M15 39h2M21 39h1M28 39h2M33 39h1" />
<path stroke="#ff212a" d="M15 0h1M25 0h1M36 9h1M39 17h1M39 22h1M0 23h1" />
<path stroke="#ff232c" d="M16 0h1M24 0h1M39 21h1" />
<path stroke="#ff242d" d="M17 0h7M31 3h1M33 5h1M39 19h1M39 20h1M1 26h1M35 31h1M32 34h1" />
<path stroke="#ff1d25" d="M26 0h1M0 24h1" />
<path stroke="#ff181e" d="M27 0h1M2 7h1M0 11h1" />
<path stroke="#ff1115" d="M28 0h1M0 10h1M0 26h1" />
<path stroke="#ff0a0d" d="M29 0h1M7 2h1" />
<path stroke="#ff0607" d="M30 0h1M8 1h1M6 2h1M3 4h1M1 6h1M0 8h1M0 28h1" />
<path stroke="#0008f0" d="M10 1h5M9 2h9M8 3h11M8 4h5M14 4h1M16 4h5M25 4h1M8 5h3M26 5h5M9 6h2M27 6h4M29 7h3M30 8h3M31 9h3M31 10h3M31 11h3M31 12h2M31 13h1M20 36h3M20 37h3M21 38h1" />
<path stroke="#ff4554" d="M18 1h4" />
<path stroke="#ff4555" d="M22 1h1" />
<path stroke="#ff4455" d="M23 1h1" />
<path stroke="#ff4354" d="M24 1h1" />
<path stroke="#ff4051" d="M25 1h1M38 17h1M38 22h1" />
<path stroke="#ff3a49" d="M26 1h1" />
<path stroke="#ff303d" d="M27 1h1M29 2h1" />
<path stroke="#ff252e" d="M28 1h1M32 4h1M1 10h1M37 28h1M34 32h1M33 33h1" />
<path stroke="#ff1a20" d="M29 1h1M37 10h1M37 29h1" />
<path stroke="#ff1014" d="M30 1h1M6 3h1M35 6h1M37 9h1M37 30h1" />
<path stroke="#ff080b" d="M31 1h1M5 3h1M35 5h1M37 8h1M37 31h1" />
<path stroke="#ff0405" d="M32 1h1M33 2h1M4 3h1M34 3h1M35 4h1M37 7h1M37 32h1M36 33h1M35 34h1M34 35h1M33 36h1" />
<path stroke="#ff6f7e" d="M19 2h1" />
<path stroke="#ff6c82" d="M23 2h1" />
<path stroke="#ff6a82" d="M24 2h1" />
<path stroke="#ff667f" d="M25 2h1" />
<path stroke="#ff5e75" d="M26 2h1" />
<path stroke="#ff5165" d="M27 2h1" />
<path stroke="#ff4152" d="M28 2h1M36 11h1" />
<path stroke="#ff2029" d="M30 2h1" />
<path stroke="#ff1318" d="M31 2h1M34 5h1M36 31h1M32 35h1" />
<path stroke="#ff0a0c" d="M32 2h1M33 3h1M34 4h1M36 32h1M35 33h1M34 34h1M33 35h1" />
<path stroke="#ff839d" d="M26 3h1" />
<path stroke="#ff758e" d="M27 3h1M35 12h1" />
<path stroke="#ff637a" d="M28 3h1" />
<path stroke="#ff4e61" d="M29 3h1" />
<path stroke="#ff3846" d="M30 3h1M33 6h1" />
<path stroke="#ff141a" d="M32 3h1M33 4h1M35 32h1M33 34h1" />
<path stroke="#ff0b0f" d="M4 4h1" />
<path stroke="#ff1419" d="M5 4h1M34 33h1" />
<path stroke="#0d13c5" d="M7 4h1M7 5h1M7 6h2M8 7h2M9 8h1" />
<path stroke="#000bf0" d="M13 4h1M15 4h1M21 4h4M11 5h1M22 5h4M24 6h3M25 7h4M26 8h4M27 9h4M28 10h3M28 11h3M29 12h2M29 13h2M30 14h1" />
<path stroke="#ff3b49" d="M31 4h1M32 5h1M33 32h1M32 33h1" />
<path stroke="#ff0303" d="M1 5h1M36 5h1M0 7h1M38 8h1M39 10h1M39 29h1M38 31h1" />
<path stroke="#ff0709" d="M2 5h1" />
<path stroke="#ff0e12" d="M3 5h1M2 6h1" />
<path stroke="#ff1a1f" d="M4 5h1" />
<path stroke="#ff2831" d="M5 5h1" />
<path stroke="#ff1c22" d="M3 6h1" />
<path stroke="#ff2e38" d="M4 6h1" />
<path stroke="#ff444f" d="M5 6h1" />
<path stroke="#1520fd" d="M31 6h1M32 7h1M33 8h1M34 9h1M34 10h1M34 11h1M33 12h1M32 13h2M31 14h1" />
<path stroke="#ff2129" d="M34 6h1M36 30h1" />
<path stroke="#ff0608" d="M36 6h1M38 9h1M38 30h1" />
<path stroke="#ff0b0d" d="M1 7h1" />
<path stroke="#ff2d37" d="M3 7h1" />
<path stroke="#ff4854" d="M4 7h1" />
<path stroke="#ff646e" d="M5 7h1" />
<path stroke="#ff8082" d="M6 7h1" />
<path stroke="#ff313e" d="M34 7h1M36 10h1M37 12h1" />
<path stroke="#ff1a21" d="M35 7h1" />
<path stroke="#ff0c0f" d="M36 7h1" />
<path stroke="#ff1216" d="M1 8h1" />
<path stroke="#ff252d" d="M2 8h1" />
<path stroke="#ff414d" d="M3 8h1" />
<path stroke="#ff626e" d="M4 8h1" />
<path stroke="#ff8387" d="M5 8h1" />
<path stroke="#ffa191" d="M6 8h1" />
<path stroke="#ffb98f" d="M7 8h1" />
<path stroke="#ffffff" d="M13 8h10M14 9h4M22 9h2M11 10h11M23 10h2M11 11h2M15 11h3M21 11h5M11 12h1M16 12h1M22 12h4M16 13h1M22 13h5M14 14h1M16 14h1M19 14h1M22 14h6M16 15h1M22 15h6M16 16h1M22 16h1M27 16h1M4 24h1M4 25h1M4 26h1M4 27h1M2 28h1M4 28h1M6 28h3M2 29h1M4 29h1M6 29h1M8 29h1M21 29h1M2 30h5M8 30h1M19 30h3M2 31h6M19 31h4M3 32h5M20 32h2M4 33h4M5 34h2M8 34h1M7 35h2M4 36h4" />
<path stroke="#ff2933" d="M35 8h1" />
<path stroke="#ff151a" d="M36 8h1" />
<path stroke="#ff0b0e" d="M0 9h1M38 10h1M0 27h1M38 29h1" />
<path stroke="#ff1b21" d="M1 9h1" />
<path stroke="#ff343e" d="M2 9h1" />
<path stroke="#ff5561" d="M3 9h1" />
<path stroke="#ff7a81" d="M4 9h1" />
<path stroke="#ff9e93" d="M5 9h1" />
<path stroke="#ffba92" d="M6 9h1" />
<path stroke="#ffcf81" d="M7 9h1" />
<path stroke="#ffdd6a" d="M8 9h1" />
<path stroke="#ff4450" d="M2 10h1" />
<path stroke="#ff6974" d="M3 10h1" />
<path stroke="#ff908e" d="M4 10h1" />
<path stroke="#ffb295" d="M5 10h1" />
<path stroke="#ffcc87" d="M6 10h1" />
<path stroke="#ffde6a" d="M7 10h1" />
<path stroke="#ffe74c" d="M8 10h1" />
<path stroke="#ffeb33" d="M9 10h1" />
<path stroke="#ff313b" d="M1 11h1" />
<path stroke="#ff5460" d="M2 11h1" />
<path stroke="#ff7c81" d="M3 11h1" />
<path stroke="#ffa393" d="M4 11h1" />
<path stroke="#ffc28e" d="M5 11h1" />
<path stroke="#ffd975" d="M6 11h1" />
<path stroke="#ffe553" d="M7 11h1" />
<path stroke="#ffeb34" d="M8 11h1" />
<path stroke="#ffee1d" d="M9 11h1" />
<path stroke="#ff252f" d="M37 11h1" />
<path stroke="#ff1116" d="M38 11h1M38 28h1" />
<path stroke="#ff0507" d="M39 11h1M39 28h1" />
<path stroke="#ff1e24" d="M0 12h1" />
<path stroke="#ff3c45" d="M1 12h1" />
<path stroke="#ff636b" d="M2 12h1" />
<path stroke="#ff8d89" d="M3 12h1" />
<path stroke="#ffb392" d="M4 12h1" />
<path stroke="#ffcf83" d="M5 12h1" />
<path stroke="#ffe063" d="M6 12h1" />
<path stroke="#ffea3f" d="M7 12h1M31 16h1M31 24h1M24 30h1" />
<path stroke="#ffed22" d="M8 12h1M7 14h1" />
<path stroke="#ffee0f" d="M9 12h1M28 26h1M11 28h1" />
<path stroke="#c3d9f9" d="M13 12h2M18 12h3M12 13h3M18 13h3M12 14h2M18 14h1M12 15h2M18 15h1M12 16h2M18 16h1M13 17h1M18 17h1M18 18h2" />
<path stroke="#ff5166" d="M36 12h1" />
<path stroke="#ff181f" d="M38 12h1M39 15h1M39 24h1M38 27h1" />
<path stroke="#ff090b" d="M39 12h1M39 27h1" />
<path stroke="#ff2228" d="M0 13h1" />
<path stroke="#ff444a" d="M1 13h1" />
<path stroke="#ff6f6f" d="M2 13h1" />
<path stroke="#ff9a88" d="M3 13h1" />
<path stroke="#ffbf88" d="M4 13h1" />
<path stroke="#ffd872" d="M5 13h1" />
<path stroke="#ffe650" d="M6 13h1" />
<path stroke="#ffec2f" d="M7 13h1M31 18h1M31 22h1M8 24h1" />
<path stroke="#ffee16" d="M8 13h1M9 24h1M12 29h1" />
<path stroke="#ffee07" d="M9 13h1M29 17h1M29 23h1M10 24h1M13 24h1M27 26h1M11 27h1M23 28h1" />
<path stroke="#ffee01" d="M10 13h1M9 15h1M27 24h2M11 25h1M27 25h1M13 26h1M25 26h1M12 27h1M14 27h1M24 27h1M14 28h1" />
<path stroke="#ff849e" d="M35 13h1" />
<path stroke="#ff6077" d="M36 13h1" />
<path stroke="#ff3c4c" d="M37 13h1" />
<path stroke="#ff2028" d="M38 13h1M38 26h1" />
<path stroke="#ff0d11" d="M39 13h1M39 26h1" />
<path stroke="#ff2529" d="M0 14h1" />
<path stroke="#ff484b" d="M1 14h1" />
<path stroke="#ff756d" d="M2 14h1" />
<path stroke="#ffa380" d="M3 14h1" />
<path stroke="#ffc77b" d="M4 14h1" />
<path stroke="#ffde61" d="M5 14h1" />
<path stroke="#ffe93f" d="M6 14h1" />
<path stroke="#ffee0e" d="M8 14h1" />
<path stroke="#ffee03" d="M9 14h1M8 16h1M29 18h1M29 22h1M10 23h1M27 23h1M26 24h1M13 25h1M11 26h1M26 26h1M15 27h1M13 28h1" />
<path stroke="#ffee00" d="M10 14h1M11 23h1M28 23h1M11 24h2M12 25h1M26 25h1M12 26h1M24 26h1M13 27h1M23 27h1M15 28h2" />
<path stroke="#ffaeb5" d="M34 14h1" />
<path stroke="#ff90a8" d="M35 14h1" />
<path stroke="#ff6d86" d="M36 14h1" />
<path stroke="#ff2833" d="M38 14h1M38 25h1" />
<path stroke="#ff1217" d="M39 14h1M39 25h1" />
<path stroke="#ff2629" d="M0 15h1M0 16h1M0 17h1M0 18h1M0 19h1" />
<path stroke="#ff4a4a" d="M1 15h1" />
<path stroke="#ff7969" d="M2 15h1M2 19h1" />
<path stroke="#ffa879" d="M3 15h1M3 19h1" />
<path stroke="#ffcc6f" d="M4 15h1M4 19h1M12 32h1" />
<path stroke="#ffe153" d="M5 15h1" />
<path stroke="#ffeb32" d="M6 15h1M6 19h1" />
<path stroke="#ffee19" d="M7 15h1" />
<path stroke="#ffee08" d="M8 15h1" />
<path stroke="#ff9baf" d="M35 15h1" />
<path stroke="#ff323f" d="M38 15h1" />
<path stroke="#ff4b49" d="M1 16h1M1 18h1" />
<path stroke="#ff7b67" d="M2 16h1M2 18h1" />
<path stroke="#ffaa74" d="M3 16h1M3 18h1" />
<path stroke="#ffce68" d="M4 16h1M4 18h1" />
<path stroke="#ffe34b" d="M5 16h1M5 18h1" />
<path stroke="#ffeb2b" d="M6 16h1M6 18h1" />
<path stroke="#ffee14" d="M7 16h1M7 18h1M30 18h1M30 22h1M27 27h1" />
<path stroke="#ff8a00" d="M10 16h1M10 17h2M23 17h4M16 18h1M22 18h2M26 18h2M8 19h8M21 19h5M27 19h2M7 20h2M13 20h12M26 20h1M28 20h1M7 21h1M9 21h4M17 21h7M25 21h4M8 22h2M13 22h1M25 22h2M14 23h1M24 23h2M15 24h1M24 24h1M16 25h1M23 25h1M16 26h1M22 26h1M17 27h1M21 27h1M18 28h3" />
<path stroke="#ffee0a" d="M29 16h1M29 24h1M26 27h1" />
<path stroke="#ffed1f" d="M30 16h1M30 24h1" />
<path stroke="#ff1e26" d="M39 16h1M39 23h1" />
<path stroke="#ff4b48" d="M1 17h1" />
<path stroke="#ff7b66" d="M2 17h1" />
<path stroke="#ffaa72" d="M3 17h1" />
<path stroke="#ffce66" d="M4 17h1" />
<path stroke="#ffe349" d="M5 17h1" />
<path stroke="#ffec2a" d="M6 17h1" />
<path stroke="#ffee13" d="M7 17h1M13 29h1" />
<path stroke="#ffee02" d="M8 17h1" />
<path stroke="#ffee18" d="M30 17h1M30 23h1M23 29h1" />
<path stroke="#ffeb35" d="M31 17h1M31 23h1" />
<path stroke="#ffe45e" d="M32 17h1M32 23h1" />
<path stroke="#ffd78b" d="M33 17h1" />
<path stroke="#ffe658" d="M32 18h1M32 22h1" />
<path stroke="#ffd986" d="M33 18h1" />
<path stroke="#ffc5ab" d="M34 18h1" />
<path stroke="#ffadb9" d="M35 18h1" />
<path stroke="#ff8faa" d="M36 18h1" />
<path stroke="#ff6a83" d="M37 18h1M37 21h1" />
<path stroke="#ff4355" d="M38 18h1M38 21h1" />
<path stroke="#ff232d" d="M39 18h1" />
<path stroke="#ff4b4a" d="M1 19h1" />
<path stroke="#ffe152" d="M5 19h1" />
<path stroke="#ffee12" d="M30 19h1M30 20h1M30 21h1M29 25h1M14 29h5" />
<path stroke="#ffec2d" d="M31 19h1M31 20h1M31 21h1M13 30h1M15 30h3" />
<path stroke="#ffe656" d="M32 19h1M32 21h1" />
<path stroke="#ffd985" d="M33 19h1" />
<path stroke="#ffc6ab" d="M34 19h1" />
<path stroke="#ffaeb9" d="M35 19h1M35 20h1" />
<path stroke="#ff90ab" d="M36 19h1M36 20h1" />
<path stroke="#ff6b85" d="M37 19h1M37 20h1" />
<path stroke="#ff4456" d="M38 19h1M38 20h1" />
<path stroke="#ff252a" d="M0 20h1" />
<path stroke="#ff494c" d="M1 20h1" />
<path stroke="#ff776f" d="M2 20h1" />
<path stroke="#ffa482" d="M3 20h1" />
<path stroke="#ffc87b" d="M4 20h1" />
<path stroke="#ffdf60" d="M5 20h1" />
<path stroke="#ffe655" d="M32 20h1M29 28h1" />
<path stroke="#ffd984" d="M33 20h1M33 21h1" />
<path stroke="#ffc6aa" d="M34 20h1M34 21h1" />
<path stroke="#ff242b" d="M0 21h1" />
<path stroke="#ff474f" d="M1 21h1" />
<path stroke="#ff7375" d="M2 21h1" />
<path stroke="#ff9f8d" d="M3 21h1" />
<path stroke="#ffc38b" d="M4 21h1" />
<path stroke="#ffdb70" d="M5 21h1" />
<path stroke="#ffadb8" d="M35 21h1" />
<path stroke="#ff8fa9" d="M36 21h1" />
<path stroke="#ff232b" d="M0 22h1" />
<path stroke="#ff4551" d="M1 22h1" />
<path stroke="#ff6f79" d="M2 22h1" />
<path stroke="#ff9995" d="M3 22h1" />
<path stroke="#ffbd97" d="M4 22h1" />
<path stroke="#ffd67f" d="M5 22h1" />
<path stroke="#ffe559" d="M6 22h1" />
<path stroke="#ffd885" d="M33 22h1M26 31h1" />
<path stroke="#ffc4a9" d="M34 22h1" />
<path stroke="#ffabb5" d="M35 22h1" />
<path stroke="#ff8ca5" d="M36 22h1" />
<path stroke="#ff667e" d="M37 22h1" />
<path stroke="#ff414f" d="M1 23h1" />
<path stroke="#ff6978" d="M2 23h1" />
<path stroke="#ff9298" d="M3 23h1" />
<path stroke="#ffcf8d" d="M5 23h1" />
<path stroke="#ffe069" d="M6 23h1" />
<path stroke="#ffea42" d="M7 23h1" />
<path stroke="#fc809a" d="M19 23h3M18 24h3M18 25h2" />
<path stroke="#ffd689" d="M33 23h1" />
<path stroke="#ffc1a9" d="M34 23h1" />
<path stroke="#ffa6b1" d="M35 23h1" />
<path stroke="#ff859c" d="M36 23h1" />
<path stroke="#ff5f75" d="M37 23h1" />
<path stroke="#ff3a4a" d="M38 23h1" />
<path stroke="#ff3a47" d="M1 24h1" />
<path stroke="#ff5f71" d="M2 24h1" />
<path stroke="#ffda7a" d="M6 24h1" />
<path stroke="#ffe652" d="M7 24h1" />
<path stroke="#ffe168" d="M32 24h1" />
<path stroke="#ffd291" d="M33 24h1" />
<path stroke="#ffbaaa" d="M34 24h1" />
<path stroke="#ff9daa" d="M35 24h1" />
<path stroke="#ff7a90" d="M36 24h1" />
<path stroke="#ff5468" d="M37 24h1" />
<path stroke="#ff313f" d="M38 24h1" />
<path stroke="#ff171e" d="M0 25h1" />
<path stroke="#ff303c" d="M1 25h1" />
<path stroke="#ff5263" d="M2 25h1" />
<path stroke="#ffd188" d="M6 25h1" />
<path stroke="#ffe163" d="M7 25h1" />
<path stroke="#ffea3c" d="M8 25h1" />
<path stroke="#ffed1e" d="M9 25h1M11 29h1" />
<path stroke="#ffee0b" d="M10 25h1M14 25h1M24 28h1" />
<path stroke="#ffed00" d="M25 25h1" />
<path stroke="#ffee05" d="M28 25h1M14 26h1M25 27h1" />
<path stroke="#ffed29" d="M30 25h1M25 29h1" />
<path stroke="#ffe84c" d="M31 25h1M25 30h1" />
<path stroke="#ffdd76" d="M32 25h1" />
<path stroke="#ffcb9b" d="M33 25h1" />
<path stroke="#ffb2ad" d="M34 25h1" />
<path stroke="#ff93a4" d="M35 25h1" />
<path stroke="#ff6e84" d="M36 25h1" />
<path stroke="#ff485a" d="M37 25h1" />
<path stroke="#ff4150" d="M2 26h1" />
<path stroke="#ffc68f" d="M6 26h1" />
<path stroke="#ffdb6f" d="M7 26h1" />
<path stroke="#ffe748" d="M8 26h1" />
<path stroke="#ffec27" d="M9 26h1" />
<path stroke="#ffee10" d="M10 26h1" />
<path stroke="#ffee1e" d="M29 26h1" />
<path stroke="#ffeb38" d="M30 26h1" />
<path stroke="#ffe45c" d="M31 26h1" />
<path stroke="#ffd784" d="M32 26h1" />
<path stroke="#ffc2a3" d="M33 26h1" />
<path stroke="#ffa7ab" d="M34 26h1" />
<path stroke="#ff869a" d="M35 26h1" />
<path stroke="#ff6175" d="M36 26h1" />
<path stroke="#ff3d4c" d="M37 26h1" />
<path stroke="#ff1920" d="M1 27h1" />
<path stroke="#ffeb2f" d="M9 27h1M12 30h1" />
<path stroke="#ffee17" d="M10 27h1" />
<path stroke="#ffed21" d="M28 27h1" />
<path stroke="#ffec34" d="M29 27h1" />
<path stroke="#ffe74f" d="M30 27h1" />
<path stroke="#ffde71" d="M31 27h1" />
<path stroke="#ffce92" d="M32 27h1" />
<path stroke="#ffb7a6" d="M33 27h1" />
<path stroke="#ff9aa4" d="M34 27h1" />
<path stroke="#ff778b" d="M35 27h1" />
<path stroke="#ff5265" d="M36 27h1" />
<path stroke="#ff313d" d="M37 27h1M36 29h1" />
<path stroke="#ffed20" d="M10 28h1" />
<path stroke="#ffee06" d="M12 28h1" />
<path stroke="#ffee11" d="M25 28h1" />
<path stroke="#ffee1b" d="M26 28h1" />
<path stroke="#ffed2a" d="M27 28h1" />
<path stroke="#ffea3e" d="M28 28h1" />
<path stroke="#ffdf6f" d="M30 28h1" />
<path stroke="#ffd28a" d="M31 28h1" />
<path stroke="#ffc09f" d="M32 28h1" />
<path stroke="#ffa6a4" d="M33 28h1" />
<path stroke="#ff8796" d="M34 28h1" />
<path stroke="#ff6477" d="M35 28h1" />
<path stroke="#ff4251" d="M36 28h1" />
<path stroke="#ffe92d" d="M10 29h1" />
<path stroke="#ffee1f" d="M24 29h1" />
<path stroke="#ffeb37" d="M26 29h1" />
<path stroke="#ffe84a" d="M27 29h1" />
<path stroke="#ffe362" d="M28 29h1" />
<path stroke="#ffdc7b" d="M29 29h1" />
<path stroke="#ffd190" d="M30 29h1" />
<path stroke="#ffc19f" d="M31 29h1" />
<path stroke="#ffaba3" d="M32 29h1" />
<path stroke="#ff8f9a" d="M33 29h1" />
<path stroke="#ff7082" d="M34 29h1" />
<path stroke="#ff4f60" d="M35 29h1" />
<path stroke="#ffe03f" d="M10 30h1" />
<path stroke="#ffe734" d="M11 30h1" />
<path stroke="#ffec2c" d="M14 30h1" />
<path stroke="#ffe55c" d="M26 30h1" />
<path stroke="#ffdf71" d="M27 30h1" />
<path stroke="#ffd788" d="M28 30h1" />
<path stroke="#ffcc9c" d="M29 30h1" />
<path stroke="#ffbda7" d="M30 30h1" />
<path stroke="#ffaaa7" d="M31 30h1" />
<path stroke="#ff919b" d="M32 30h1" />
<path stroke="#ff7484" d="M33 30h1" />
<path stroke="#ff5566" d="M34 30h1" />
<path stroke="#ff3845" d="M35 30h1" />
<path stroke="#ffb957" d="M9 31h1" />
<path stroke="#ffcc52" d="M10 31h1" />
<path stroke="#ffd94f" d="M11 31h1" />
<path stroke="#ffe14f" d="M12 31h1" />
<path stroke="#ffe451" d="M13 31h1" />
<path stroke="#ffe653" d="M14 31h1" />
<path stroke="#ffe654" d="M15 31h2" />
<path stroke="#ffdd77" d="M25 31h1" />
<path stroke="#ffd095" d="M27 31h1" />
<path stroke="#ffc5a5" d="M28 31h1" />
<path stroke="#ffb8af" d="M29 31h1" />
<path stroke="#ffa6ad" d="M30 31h1" />
<path stroke="#ff8f9f" d="M31 31h1" />
<path stroke="#ff7486" d="M32 31h1" />
<path stroke="#ff5768" d="M33 31h1" />
<path stroke="#ff3b48" d="M34 31h1" />
<path stroke="#ff9455" d="M9 32h1" />
<path stroke="#ffac5e" d="M10 32h1" />
<path stroke="#ffbf67" d="M11 32h1" />
<path stroke="#ffd376" d="M13 32h1" />
<path stroke="#ffd67b" d="M14 32h1" />
<path stroke="#ffd77d" d="M15 32h1" />
<path stroke="#ffc3a4" d="M26 32h1" />
<path stroke="#ffbaab" d="M27 32h1" />
<path stroke="#ffafb0" d="M28 32h1" />
<path stroke="#ff9fae" d="M29 32h1" />
<path stroke="#ff8ba1" d="M30 32h1" />
<path stroke="#ff7288" d="M31 32h1" />
<path stroke="#ff5669" d="M32 32h1" />
<path stroke="#ff6a4a" d="M9 33h1" />
<path stroke="#ff845c" d="M10 33h1" />
<path stroke="#ff9a6e" d="M11 33h1" />
<path stroke="#ffaa7f" d="M12 33h1" />
<path stroke="#ffb58c" d="M13 33h1" />
<path stroke="#ffba95" d="M14 33h1" />
<path stroke="#ffbc99" d="M15 33h1" />
<path stroke="#ff9da9" d="M27 33h1" />
<path stroke="#ff91a3" d="M28 33h1" />
<path stroke="#ff8198" d="M29 33h1" />
<path stroke="#ff6c84" d="M30 33h1" />
<path stroke="#ff5467" d="M31 33h1" />
<path stroke="#ff594c" d="M10 34h1" />
<path stroke="#ff6f62" d="M11 34h1" />
<path stroke="#ff8077" d="M12 34h1" />
<path stroke="#ff8d88" d="M13 34h1" />
<path stroke="#ff9493" d="M14 34h1" />
<path stroke="#ff4c5e" d="M30 34h1" />
<path stroke="#ff3746" d="M31 34h1" />
<path stroke="#ff3535" d="M10 35h1" />
<path stroke="#ff4648" d="M11 35h1" />
<path stroke="#ff555b" d="M12 35h1" />
<path stroke="#ff626c" d="M13 35h1" />
<path stroke="#0007f0" d="M27 35h1M29 35h1M14 36h2M28 36h4M13 37h4M25 37h1M27 37h5M13 38h3M17 38h1M19 38h1M23 38h2M26 38h2M29 38h4M10 39h2M13 39h2M17 39h2M20 39h1M22 39h2M25 39h3M30 39h3" />
<path stroke="#ffe700" d="M28 35h1M27 36h1M26 37h1M10 38h1M18 38h1M25 38h1M9 39h1M19 39h1M24 39h1" />
<path stroke="#0004f0" d="M9 36h1M8 37h2M6 38h4M7 39h2" />
<path stroke="#ff262b" d="M11 36h1" />
<path stroke="#ff313a" d="M12 36h1" />
<path stroke="#ff1015" d="M11 37h1" />
</svg>