<svg xmlns="http://www.w3.org/2000/svg" viewBox="0 -0.5 40 40" shape-rendering="crispEdges">
<metadata>Made with Pixels to Svg https://codepen.io/shshaw/pen/XbxvNj</metadata>
<path stroke="#ffffff" d="M0 0h1M2 0h2M5 0h2M8 0h3M12 0h1M15 0h4M20 0h1M22 0h1M24 0h1M26 0h1M29 0h1M31 0h3M35 0h1M37 0h1M39 0h1M1 1h1M4 1h1M7 1h2M10 1h1M13 1h1M16 1h2M19 1h3M23 1h4M28 1h1M30 1h1M32 1h1M36 1h1M38 1h1M2 2h1M4 2h2M7 2h1M9 2h1M11 2h2M14 2h1M16 2h1M18 2h3M22 2h1M24 2h1M27 2h1M29 2h1M31 2h1M33 2h1M37 2h1M39 2h1M0 3h1M3 3h2M8 3h1M10 3h1M13 3h1M15 3h3M20 3h2M25 3h2M28 3h1M31 3h1M34 3h2M38 3h1M1 4h2M6 4h1M11 4h1M13 4h2M16 4h2M22 4h1M27 4h1M29 4h2M32 4h1M36 4h1M38 4h2M1 5h2M4 5h1M8 5h1M13 5h1M15 5h1M25 5h1M28 5h1M31 5h1M34 5h1M39 5h1M6 6h1M10 6h1M12 6h1M29 6h1M37 6h2M1 7h1M7 7h1M30 7h1M32 7h1M37 7h2M3 8h1M5 8h1M27 8h1M30 8h1M35 8h1M8 9h1M36 9h1M2 10h1M39 10h1M5 11h1M30 11h1M34 11h1M4 12h1M10 13h1M31 13h2M6 14h1M31 14h2M37 14h1M13 15h3M18 15h3M22 15h1M2 16h1M7 16h1M14 16h3M18 16h4M4 17h1M33 17h1M32 19h1M5 20h1M35 20h1M36 21h1M3 22h1M38 23h1M32 24h1M0 25h1M29 25h1M8 26h1M12 26h1M37 26h1M13 27h1M7 28h1M35 28h1M4 29h1M10 29h1M33 29h1M18 31h1M22 31h1M7 32h1M18 32h2M21 32h2M35 32h1M18 33h5M37 33h1M18 34h2M21 34h2M2 35h1M18 35h1M22 35h1" />
<path stroke="#fac845" d="M1 0h1M7 0h1M14 0h1M19 0h1M21 0h1M23 0h1M27 0h2M30 0h1M34 0h1M36 0h1M0 1h1M3 1h1M5 1h2M18 1h1M27 1h1M37 1h1M39 1h1M0 2h2M6 2h1M8 2h1M13 2h1M17 2h1M21 2h1M26 2h1M38 2h1M1 3h1M5 3h2M11 3h2M18 3h2M22 3h2M27 3h1M36 3h2M39 3h1M0 4h1M3 4h1M8 4h2M20 4h2M23 4h2M33 4h1M37 4h1M0 5h1M3 5h1M5 5h2M12 5h1M14 5h1M22 5h3M27 5h1M29 5h2M33 5h1M35 5h4M0 6h2M3 6h1M5 6h1M9 6h1M11 6h1M13 6h2M24 6h1M27 6h2M31 6h6M39 6h1M0 7h1M5 7h1M9 7h5M25 7h2M29 7h1M31 7h1M33 7h2M36 7h1M39 7h1M0 8h2M8 8h5M29 8h1M31 8h1M33 8h2M36 8h1M38 8h2M0 9h5M6 9h2M11 9h1M27 9h1M29 9h7M39 9h1M0 10h2M3 10h5M9 10h3M27 10h11M0 11h4M6 11h5M27 11h3M31 11h3M35 11h5M0 12h4M6 12h1M8 12h3M28 12h9M0 13h5M6 13h1M8 13h2M28 13h3M33 13h4M0 14h6M8 14h3M29 14h2M33 14h4M0 15h10M29 15h4M34 15h6M0 16h2M3 16h4M29 16h4M34 16h6M0 17h4M6 17h3M29 17h4M34 17h6M0 18h8M29 18h11M0 19h7M30 19h2M33 19h3M38 19h2M0 20h5M30 20h5M38 20h2M0 21h6M30 21h5M37 21h3M0 22h3M4 22h3M29 22h11M0 23h2M4 23h4M11 23h1M27 23h11M0 24h1M4 24h6M11 24h3M26 24h6M34 24h6M2 25h12M25 25h3M30 25h3M34 25h6M3 26h3M9 26h3M24 26h9M34 26h3M38 26h2M2 27h5M9 27h3M14 27h2M23 27h14M38 27h2M0 28h7M8 28h9M26 28h9M36 28h4M0 29h4M6 29h4M11 29h5M27 29h6M34 29h6M0 30h4M6 30h8M30 30h3M34 30h1M37 30h3M0 31h4M5 31h8M31 31h4M37 31h3M0 32h7M8 32h3M33 32h2M36 32h4M0 33h10M35 33h1M38 33h2M0 34h9M38 34h2M0 35h2M3 35h4M37 35h3M0 36h6M38 36h2M0 37h5M39 37h1M0 38h4M0 39h4" />
<path stroke="#fac745" d="M4 0h1M11 0h1M13 0h1M25 0h1M38 0h1M2 1h1M9 1h1M11 1h2M14 1h2M22 1h1M29 1h1M31 1h1M33 1h3M3 2h1M10 2h1M15 2h1M23 2h1M25 2h1M28 2h1M30 2h1M32 2h1M34 2h3M2 3h1M7 3h1M9 3h1M14 3h1M24 3h1M29 3h2M32 3h2M4 4h2M7 4h1M10 4h1M12 4h1M15 4h1M25 4h2M28 4h1M31 4h1M34 4h2M7 5h1M9 5h3M26 5h1M32 5h1M2 6h1M4 6h1M7 6h2M25 6h2M30 6h1M2 7h3M6 7h1M8 7h1M27 7h2M35 7h1M2 8h1M4 8h1M6 8h2M26 8h1M28 8h1M32 8h1M37 8h1M5 9h1M9 9h2M26 9h1M28 9h1M37 9h2M8 10h1M38 10h1M4 11h1M5 12h1M7 12h1M37 12h3M5 13h1M7 13h1M37 13h3M7 14h1M38 14h2M33 15h1M8 16h1M33 16h1M5 17h1M36 19h2M36 20h2M35 21h1M2 23h2M10 23h1M39 23h1M1 24h3M10 24h1M33 24h1M1 25h1M14 25h1M28 25h1M33 25h1M0 26h3M6 26h2M13 26h2M33 26h1M0 27h2M7 27h2M12 27h1M37 27h1M5 29h1M4 30h2M33 30h1M35 30h2M4 31h1M35 31h2M36 33h1M36 34h2" />
<path stroke="#000000" d="M18 4h2M16 5h2M20 5h2M15 6h1M22 6h2M14 7h1M24 7h1M13 8h1M25 8h1M12 9h1M25 9h1M12 10h1M26 10h1M11 11h1M26 11h1M11 12h1M27 12h1M11 13h1M27 13h1M11 14h1M28 14h1M10 15h2M16 15h1M21 15h1M28 15h1M9 16h1M11 16h1M23 16h4M28 16h1M9 17h1M12 17h1M15 17h3M21 17h2M27 17h2M8 18h8M17 18h1M20 18h2M24 18h2M28 18h1M7 19h1M16 19h5M26 19h1M29 19h1M6 20h1M9 20h4M25 20h1M27 20h1M29 20h1M6 21h1M8 21h1M13 21h4M24 21h1M29 21h1M7 22h1M10 22h3M14 22h1M17 22h8M27 22h2M8 23h2M12 23h2M15 23h1M23 23h1M26 23h1M14 24h1M16 24h1M23 24h1M25 24h1M15 25h1M17 25h1M22 25h1M24 25h1M15 26h1M17 26h1M21 26h1M23 26h1M16 27h1M18 27h3M22 27h1M17 28h1M21 28h5M16 29h1M19 29h1M22 29h1M26 29h1M14 30h1M18 30h1M23 30h1M27 30h3M13 31h1M17 31h1M23 31h2M30 31h1M11 32h2M16 32h1M25 32h1M31 32h2M10 33h1M16 33h1M26 33h1M33 33h2M9 34h1M15 34h1M27 34h3M35 34h1M7 35h2M14 35h2M30 35h2M36 35h1M6 36h1M13 36h1M31 36h2M37 36h1M5 37h1M12 37h1M32 37h1M38 37h1M4 38h1M12 38h1M16 38h1M28 38h1M33 38h1M39 38h1M4 39h1M12 39h1M15 39h2M28 39h2M33 39h1" />
<path stroke="#df0000" d="M18 5h2M16 6h6M15 7h9M14 8h11M13 9h12M13 10h13M12 11h14M12 12h15M12 13h15M12 14h16M12 15h1M17 15h1M23 15h5M12 16h2M17 16h1M22 16h1M27 16h1M13 17h2M18 17h3M17 32h1M23 32h2M17 33h1M23 33h3M16 34h2M20 34h1M23 34h4M16 35h2M19 35h3M23 35h7M14 36h17M13 37h19M13 38h3M17 38h11M29 38h4M13 39h2M17 39h11M30 39h3" />
<path stroke="#fbb584" d="M10 16h1M10 17h2M23 17h4M16 18h1M18 18h2M22 18h2M26 18h2M8 19h8M21 19h5M27 19h2M7 20h2M13 20h12M26 20h1M28 20h1M7 21h1M9 21h4M17 21h7M25 21h4M8 22h2M13 22h1M25 22h2M14 23h1M24 23h2M15 24h1M24 24h1M16 25h1M23 25h1M16 26h1M22 26h1M17 27h1M21 27h1M18 28h3" />
<path stroke="#ff0000" d="M15 22h2M16 23h3M22 23h1M17 24h1M21 24h2M20 25h2M18 26h3" />
<path stroke="#fc809a" d="M19 23h3M18 24h3M18 25h2" />
<path stroke="#2e34be" d="M17 29h2M20 29h2M23 29h3M15 30h3M19 30h4M24 30h3M14 31h3M19 31h3M25 31h5M13 32h3M20 32h1M26 32h5M11 33h5M27 33h6M10 34h5M30 34h5M9 35h5M32 35h4M7 36h6M33 36h4M6 37h6M33 37h5M5 38h7M34 38h5M5 39h7M34 39h6" />
</svg>