<svg xmlns="http://www.w3.org/2000/svg" viewBox="0 -0.5 40 40" shape-rendering="crispEdges">
<metadata>Made with Pixels to Svg https://codepen.io/shshaw/pen/XbxvNj</metadata>
<path stroke="#000000" d="M0 0h8M35 0h5M0 1h8M35 1h5M0 2h7M35 2h5M0 3h6M36 3h4M0 4h6M36 4h4M0 5h6M37 5h3M0 6h6M37 6h3M0 7h5M38 7h2M0 8h5M38 8h2M0 9h5M21 9h2M38 9h2M0 10h5M10 10h2M20 10h2M23 10h1M38 10h2M0 11h5M9 11h2M12 11h1M19 11h4M24 11h1M38 11h2M0 12h5M9 12h3M13 12h1M18 12h7M33 12h1M38 12h2M0 13h5M9 13h5M18 13h7M34 13h1M38 13h2M0 14h5M9 14h6M17 14h8M34 14h6M0 15h5M10 15h5M17 15h7M35 15h5M0 16h5M9 16h1M11 16h4M17 16h10M35 16h5M0 17h5M9 17h1M12 17h11M27 17h2M35 17h5M0 18h5M8 18h8M17 18h5M24 18h2M28 18h1M35 18h5M0 19h4M7 19h1M16 19h5M26 19h1M29 19h1M35 19h5M0 20h4M6 20h1M9 20h4M25 20h1M27 20h1M29 20h1M35 20h5M0 21h4M6 21h1M8 21h1M13 21h4M24 21h1M29 21h1M35 21h5M0 22h4M7 22h1M10 22h3M14 22h1M17 22h8M27 22h2M35 22h5M0 23h5M8 23h2M12 23h2M15 23h1M23 23h1M26 23h1M35 23h5M0 24h6M14 24h1M16 24h1M23 24h1M25 24h1M34 24h6M0 25h7M15 25h1M17 25h1M22 25h1M24 25h1M34 25h6M0 26h9M15 26h1M17 26h1M21 26h1M23 26h1M34 26h6M0 27h10M16 27h1M18 27h3M22 27h1M33 27h7M0 28h11M17 28h1M21 28h2M32 28h8M0 29h11M22 29h1M31 29h9M0 30h12M22 30h1M30 30h10M0 31h13M31 31h9M0 32h13M33 32h7M0 33h12M34 33h6M0 34h11M35 34h5M0 35h10M36 35h4M0 36h9M37 36h3M0 37h7M38 37h2M0 38h6M39 38h1M0 39h6M39 39h1" />
<path stroke="#001410" d="M8 0h1M34 0h1M7 2h1M6 3h1M35 3h1M36 5h1M5 7h1M37 7h1M33 13h1M34 15h1M4 19h1M34 23h1M33 26h1M32 27h1M31 28h1M30 29h1M30 31h1M32 32h1M12 33h1M33 33h1M11 34h1M34 34h1M10 35h1M35 35h1M9 36h1M36 36h1M7 37h1M37 37h1M6 38h1M38 38h1" />
<path stroke="#005e4b" d="M9 0h1M8 2h1M6 7h1M32 13h1M5 19h1M11 27h1M29 29h1M33 34h1M34 35h1M35 36h1" />
<path stroke="#00e3b4" d="M10 0h1M36 11h1" />
<path stroke="#ea87b9" d="M11 0h1M10 1h1M9 2h1M9 3h1M9 4h1M8 5h1M8 6h1M8 7h1M8 8h1M7 9h1M7 10h1M7 11h1M7 12h1M7 13h1M7 14h1M7 15h1M7 16h1M7 17h1M7 18h1M10 24h3M11 25h3M12 26h2M13 27h2M13 28h3M14 29h3M27 29h1M14 30h2M15 31h2M15 32h1M17 32h1M14 33h1M14 34h1M13 35h1M12 36h1M11 37h2M10 38h2M9 39h2" />
<path stroke="#fe95c7" d="M12 0h12M27 0h2M11 1h5M18 1h6M28 1h3M10 2h3M19 2h7M31 2h1M20 3h3M31 3h1M10 4h1M21 4h3M9 5h2M23 5h3M9 6h1M24 6h2M9 7h1M25 7h2M25 8h3M8 9h1M26 9h2M32 9h3M8 10h1M27 10h1M32 10h3M8 11h1M28 11h1M33 11h2M8 12h1M28 12h1M8 13h1M29 13h1M8 14h1M29 14h1M8 15h2M29 15h1M8 16h1M29 16h2M8 17h1M29 17h2M29 18h2M30 19h1M30 20h1M30 21h1M29 22h2M27 23h4M26 24h3M25 25h3M24 26h4M23 27h5M23 28h4M23 29h3M16 30h3M23 30h2M17 31h2M22 31h2M18 32h1M21 32h2M18 33h2M21 33h2M18 34h1M20 34h3M25 34h1M18 35h1M21 35h6M20 36h7M22 37h6M15 38h1M18 38h1M20 38h2M24 38h5M13 39h3M17 39h3M21 39h1M24 39h8" />
<path stroke="#fe95ca" d="M24 0h3M24 1h4M26 2h5M10 3h2M23 3h2M27 3h4M24 4h2M28 4h4M26 5h1M29 5h4M26 6h2M30 6h4M27 7h2M31 7h3M28 8h2M32 8h2M28 9h2M28 10h3M29 11h2M29 12h1M30 14h1M30 15h1M31 17h1M31 18h1M31 19h1M31 20h1M31 21h1M31 22h1M29 24h2M28 25h3M28 26h2M28 27h1M27 30h1M26 31h1M16 32h1M23 32h1M25 32h2M15 33h3M23 33h5M15 34h3M23 34h2M26 34h3M14 35h4M19 35h1M27 35h4M13 36h6M27 36h5M13 37h7M21 37h1M28 37h5M12 38h3M16 38h2M22 38h2M29 38h4M11 39h2M16 39h1M22 39h2M32 39h2" />
<path stroke="#f9abd3" d="M29 0h1" />
<path stroke="#f9abd4" d="M30 0h2M31 1h2M13 2h1M32 2h1M12 3h1M25 3h1M32 3h1M11 4h1M26 4h1M32 4h1M27 5h1M33 5h1M10 6h1M28 6h1M34 6h1M10 7h1M29 7h1M34 7h1M9 8h1M34 8h1M9 9h1M30 9h1M35 9h1M9 10h1M35 10h1M35 11h1M35 12h2" />
<path stroke="#00daae" d="M32 0h1M8 3h1M6 22h1M7 23h1M31 26h1M29 28h1" />
<path stroke="#005d4b" d="M33 0h1M31 27h1M32 33h1M36 37h1M37 38h1" />
<path stroke="#004235" d="M8 1h1M34 1h1M6 4h1M5 8h1M37 12h1M4 20h1M33 25h1M13 32h1M31 32h1M13 33h1M8 37h1M6 39h1" />
<path stroke="#00d9ad" d="M9 1h1M6 8h1M5 20h1M32 25h1M12 28h1" />
<path stroke="#737680" d="M16 1h1M14 2h2M13 3h1M12 4h1M11 5h1M11 6h1M11 7h1M10 8h1M10 9h1M19 34h1M19 36h1M19 38h1" />
<path stroke="#8a8d95" d="M17 1h1M18 2h1M19 3h1M20 4h1M22 5h1M23 6h1M24 7h1M25 9h1M26 10h1M27 11h1M27 12h1M28 13h1M28 14h1M28 15h1M28 16h1M18 29h4M20 30h2M21 31h1M20 33h1" />
<path stroke="#00d0a5" d="M33 1h1M9 38h1" />
<path stroke="#9a9dab" d="M16 2h2M14 3h5M13 4h2M17 4h3M12 5h2M16 5h6M12 6h1M15 6h8M12 7h1M15 7h9M11 8h2M15 8h6M23 8h2M14 9h7M24 9h1M14 10h6M25 10h1M14 11h5M26 11h1M15 12h3M26 12h1M15 13h3M26 13h2M15 14h2M26 14h2M15 15h2M24 15h4M15 16h2M27 16h1M19 30h1M19 31h2M19 32h2" />
<path stroke="#00e4b5" d="M33 2h1M9 24h1" />
<path stroke="#004638" d="M34 2h1M6 6h1M37 9h1M37 10h1M32 11h1M37 11h1M32 12h1M34 17h1M34 18h1M34 19h1M34 20h1M34 21h1M33 24h1M29 30h1" />
<path stroke="#005c4a" d="M7 3h1M9 25h1M30 28h1M13 30h1M9 37h1M7 38h1" />
<path stroke="#df5e9e" d="M26 3h1M27 4h1M28 5h1M29 6h1M30 7h1M30 8h2M31 9h1M31 10h1" />
<path stroke="#00e7b7" d="M33 3h1M34 5h1M32 15h1M30 33h1" />
<path stroke="#00604c" d="M34 3h1M35 5h1M33 15h1" />
<path stroke="#00dcaf" d="M7 4h1M33 22h1M29 32h1M7 39h1M37 39h1" />
<path stroke="#00eebd" d="M8 4h1M33 4h1M35 8h1M32 16h1M36 39h1" />
<path stroke="#a7a9af" d="M15 4h2M14 5h2M13 6h2M13 7h2M13 8h2M21 8h2M11 9h3M23 9h1M12 10h2M24 10h1M13 11h1M25 11h1M14 12h1M25 12h1M14 13h1M25 13h1M25 14h1M20 35h1M20 37h1M20 39h1" />
<path stroke="#00ddb0" d="M34 4h1M35 6h1M36 8h1M33 16h1M30 27h1M31 33h1M32 34h1M35 37h1" />
<path stroke="#004436" d="M35 4h1M36 6h1M5 9h1M5 10h1M5 11h1M5 12h1M5 13h1M5 14h1M33 14h1M5 15h1M5 16h1M5 17h1M13 31h1" />
<path stroke="#004537" d="M6 5h1M5 18h1" />
<path stroke="#00e5b5" d="M7 5h1M7 6h1M7 7h1M7 8h1M36 10h1M33 21h1" />
<path stroke="#00e6b6" d="M35 7h1M36 9h1M33 17h1M33 18h1M33 19h1M33 20h1M32 23h1M12 27h1" />
<path stroke="#005f4c" d="M36 7h1M33 23h1M30 32h1" />
<path stroke="#004335" d="M37 8h1M34 16h1M34 22h1M38 39h1" />
<path stroke="#00e2b3" d="M6 9h1M6 10h1M6 11h1M6 12h1M6 13h1M6 14h1M6 15h1M6 16h1M6 17h1M6 18h1" />
<path stroke="#ffffff" d="M22 10h1M11 11h1M23 11h1M12 12h1" />
<path stroke="#f9abd8" d="M31 11h1M31 14h1M31 24h1M31 25h1M27 28h1M26 29h1M25 30h1M24 31h1M27 32h1M28 33h1M29 34h2M31 35h1M32 36h1M33 37h1M33 38h2M34 39h1" />
<path stroke="#f9abd6" d="M30 12h1M30 13h1M31 15h1M31 16h1M32 17h1M32 18h1M32 19h1M32 20h1M32 21h1M32 22h1M31 23h1M30 26h1M29 27h1M28 28h1" />
<path stroke="#00daad" d="M31 12h1" />
<path stroke="#001310" d="M34 12h1M37 13h1M4 22h1M6 24h1M7 25h1M10 27h1M11 29h1M12 30h1" />
<path stroke="#00d8ab" d="M31 13h1M28 29h1M28 31h1" />
<path stroke="#00120f" d="M35 13h1M5 23h1M9 26h1" />
<path stroke="#003c31" d="M36 13h1" />
<path stroke="#00dbae" d="M32 14h1" />
<path stroke="#ff8a00" d="M10 16h1M10 17h2M23 17h4M16 18h1M22 18h2M26 18h2M8 19h8M21 19h5M27 19h2M7 20h2M13 20h12M26 20h1M28 20h1M7 21h1M9 21h4M17 21h7M25 21h4M8 22h2M13 22h1M25 22h2M14 23h1M24 23h2M15 24h1M24 24h1M16 25h1M23 25h1M16 26h1M22 26h1M17 27h1M21 27h1M18 28h3" />
<path stroke="#00e5b6" d="M6 19h1M32 24h1M8 39h1M35 39h1" />
<path stroke="#004033" d="M4 21h1" />
<path stroke="#00d7ab" d="M5 21h1" />
<path stroke="#005b49" d="M5 22h1M7 24h1M32 26h1M12 29h1" />
<path stroke="#c00000" d="M15 22h2M16 23h3M22 23h1M17 24h1M21 24h2M20 25h2M18 26h3" />
<path stroke="#005948" d="M6 23h1M10 26h1M12 34h1" />
<path stroke="#ea87b8" d="M10 23h2M13 24h1M14 25h1M14 26h1M15 27h1M16 28h1M17 29h1" />
<path stroke="#fc809a" d="M19 23h3M18 24h3M18 25h2" />
<path stroke="#00d8ac" d="M8 24h1M10 25h1M11 26h1M13 29h1M8 38h1" />
<path stroke="#004034" d="M8 25h1" />
<path stroke="#004134" d="M11 28h1" />
<path stroke="#df5ea0" d="M26 30h1M25 31h1M24 32h1" />
<path stroke="#00d7aa" d="M28 30h1M14 31h1" />
<path stroke="#f9abda" d="M27 31h1" />
<path stroke="#00604d" d="M29 31h1" />
<path stroke="#00cda3" d="M14 32h1" />
<path stroke="#00e1b3" d="M28 32h1" />
<path stroke="#00edbd" d="M29 33h1M32 35h1M33 36h1M34 37h1M35 38h1" />
<path stroke="#00c199" d="M13 34h1" />
<path stroke="#00f0be" d="M31 34h1" />
<path stroke="#005947" d="M11 35h1M10 36h1" />
<path stroke="#00c69d" d="M12 35h1M10 37h1" />
<path stroke="#00deb0" d="M33 35h1M34 36h1M36 38h1" />
<path stroke="#00c39b" d="M11 36h1" />
</svg>