<svg xmlns="http://www.w3.org/2000/svg" viewBox="0 -0.5 40 40" shape-rendering="crispEdges">
<metadata>Made with Pixels to Svg https://codepen.io/shshaw/pen/XbxvNj</metadata>
<path stroke="#3b82ff" d="M0 0h3M10 0h4M22 0h5M0 1h3M10 1h2M23 1h4M0 2h3M10 2h1M25 2h3M0 3h3M10 3h1M26 3h3M0 4h3M10 4h1M27 4h3M0 5h3M28 5h3M34 5h1M0 6h3M29 6h7M0 7h4M30 7h7M38 7h2M0 8h5M8 8h4M30 8h10M0 9h11M30 9h10M0 10h10M30 10h10M0 11h10M29 11h8M38 11h2M0 12h10M29 12h11M0 13h11M29 13h11M0 14h11M29 14h8M38 14h2M0 15h10M29 15h11M0 16h9M29 16h10M0 17h9M29 17h11M0 18h8M29 18h8M38 18h2M0 19h7M30 19h1M32 19h6M0 20h6M31 20h6M0 21h6M31 21h1M33 21h4M0 22h7M32 22h4M0 23h8M10 23h2M33 23h3M0 24h14M26 24h1M33 24h2M0 25h15M25 25h3M33 25h2M0 26h15M24 26h5M33 26h1M38 26h2M0 27h16M23 27h1M0 28h3M10 28h7M23 28h1M0 29h3M11 29h8M23 29h1M0 30h3M12 30h6M0 31h3M12 31h5M0 32h4M12 32h4M0 33h4M12 33h4M0 34h4M11 34h4M0 35h5M10 35h4M0 36h5M10 36h3M0 37h5M10 37h2M0 38h5M10 38h2M0 39h5M10 39h2" />
<path stroke="#ff9a08" d="M3 0h1M3 1h1M3 2h1M3 3h1M3 4h1M3 5h1M3 6h1" />
<path stroke="#ffdc08" d="M4 0h1M4 1h1M4 2h1M4 3h1M4 4h1M4 5h1M4 6h1M4 7h1" />
<path stroke="#ffffff" d="M5 0h1M28 0h1M30 0h10M5 1h1M29 1h1M31 1h2M35 1h5M5 2h1M30 2h1M34 2h2M37 2h3M5 3h1M30 3h2M33 3h2M36 3h1M38 3h2M5 4h1M31 4h3M37 4h1M5 5h1M38 5h2M5 6h1M13 8h10M14 9h4M22 9h2M11 10h11M23 10h2M11 11h1M15 11h3M21 11h4M12 12h3M16 12h1M18 12h3M22 12h3M12 13h3M16 13h1M18 13h3M22 13h2M12 14h2M16 14h1M19 14h2M22 14h2M27 14h1M12 15h2M16 15h1M19 15h2M22 15h6M12 16h2M16 16h1M19 16h2M22 16h1M27 16h1M13 17h2M18 17h3M18 18h2M37 18h1M31 19h1M38 19h1M30 20h1M37 20h1M32 21h1M31 22h1M36 22h1M32 23h1M4 29h1M6 29h1M8 29h2M20 29h2M4 30h1M6 30h1M8 30h1M19 30h3M4 31h1M6 31h1M9 31h2M19 31h4M10 32h1M5 33h2M8 33h3M5 34h5" />
<path stroke="#ffdd08" d="M6 0h1M9 0h1M6 1h1M9 1h1M6 2h1M6 3h1" />
<path stroke="#ff9b08" d="M7 0h1M7 1h1M7 2h1M7 3h1M7 4h1M6 5h2M6 6h2" />
<path stroke="#c87503" d="M8 0h1M8 1h1M8 2h1M8 3h1M8 4h1M8 5h1M5 7h3" />
<path stroke="#ff0000" d="M14 0h8M12 1h3M17 1h6M11 2h3M16 2h1M18 2h7M11 3h3M16 3h1M18 3h8M11 4h4M17 4h10M22 5h6M24 6h5M26 7h4M26 8h4M27 9h3M28 10h2M15 22h2M16 23h3M22 23h1M17 24h1M21 24h2M20 25h2M18 26h3M18 32h7M18 33h7M18 34h7M18 35h7M28 35h2M14 36h1M18 36h7M28 36h3M13 37h2M18 37h7M28 37h4M13 38h2M18 38h7M28 38h5M13 39h2M28 39h5" />
<path stroke="#000000" d="M27 0h1M27 1h2M28 2h2M29 3h1M35 3h1M30 4h1M34 4h1M36 4h1M10 5h12M31 5h3M37 5h1M8 6h16M38 6h2M8 7h18M12 8h1M23 8h3M11 9h3M18 9h4M24 9h3M10 10h1M22 10h1M25 10h3M10 11h1M12 11h3M18 11h3M26 11h3M10 12h2M15 12h1M17 12h1M21 12h1M27 12h2M11 13h1M15 13h1M17 13h1M21 13h1M28 13h1M11 14h1M14 14h2M17 14h2M21 14h1M28 14h1M10 15h2M14 15h2M17 15h2M21 15h1M28 15h1M9 16h1M11 16h1M14 16h2M17 16h2M21 16h1M23 16h4M28 16h1M9 17h1M12 17h1M15 17h3M21 17h2M27 17h2M8 18h8M17 18h1M20 18h2M25 18h1M28 18h1M7 19h1M16 19h5M26 19h1M29 19h1M6 20h1M9 20h2M25 20h1M27 20h1M29 20h1M6 21h1M8 21h1M24 21h1M29 21h1M7 22h1M10 22h3M14 22h1M17 22h8M27 22h2M8 23h2M12 23h2M15 23h1M23 23h1M26 23h1M14 24h1M16 24h1M23 24h1M25 24h1M15 25h1M17 25h1M22 25h1M24 25h1M15 26h1M17 26h1M21 26h1M23 26h1M16 27h1M18 27h3M22 27h1M24 27h16M3 28h7M17 28h1M21 28h2M24 28h1M3 29h1M5 29h1M7 29h1M10 29h1M19 29h1M22 29h1M24 29h1M3 30h1M5 30h1M7 30h1M9 30h3M18 30h1M22 30h3M3 31h1M5 31h1M7 31h2M11 31h1M17 31h2M23 31h2M4 32h6M11 32h1M4 33h1M7 33h1M11 33h1M4 34h1M10 34h1M28 34h2M5 35h5M14 35h1M30 35h10M5 36h1M9 36h1M13 36h1M31 36h2M5 37h1M9 37h1M12 37h1M32 37h1M5 38h1M9 38h1M12 38h1M33 38h1M5 39h1M9 39h1M12 39h1M33 39h1" />
<path stroke="#62a3ff" d="M29 0h1M33 1h1M32 2h1" />
<path stroke="#ffe008" d="M15 1h2" />
<path stroke="#62a1ff" d="M30 1h1M34 1h1M31 2h1M33 2h1M36 2h1M32 3h1M37 3h1M38 4h2" />
<path stroke="#ffde08" d="M9 2h1M9 3h1M14 3h1M6 4h1M9 4h1M9 5h1M5 8h3M16 39h1M26 39h1" />
<path stroke="#ffdf08" d="M14 2h2M15 3h1" />
<path stroke="#ffe108" d="M17 2h1M17 3h1M15 4h2" />
<path stroke="#3b84ff" d="M35 4h1M35 5h2M36 6h2M37 7h1" />
<path stroke="#3d2503" d="M25 11h1M25 12h2M24 13h4M24 14h3M23 18h1M11 19h3M22 19h2M13 20h5M20 20h3" />
<path stroke="#3a82ff" d="M37 11h1M37 14h1M39 16h1M39 25h1" />
<path stroke="#ff8a00" d="M10 16h1M10 17h2M23 17h4M16 18h1M22 18h1M26 18h2M8 19h2M14 19h2M21 19h1M25 19h1M27 19h2M7 20h2M24 20h1M26 20h1M28 20h1M7 21h1M9 21h3M23 21h1M25 21h4M8 22h2M13 22h1M25 22h2M14 23h1M24 23h2M15 24h1M24 24h1M16 25h1M23 25h1M16 26h1M22 26h1M17 27h1M21 27h1M18 28h3" />
<path stroke="#291902" d="M24 18h1M10 19h1M24 19h1M11 20h1M23 20h1M12 21h1M22 21h1" />
<path stroke="#217c0e" d="M39 19h1M38 20h1M30 21h1M37 21h3M29 22h1M37 22h1M39 22h1M27 23h5M36 23h4M28 24h1M30 24h1M32 24h1M35 24h1M37 24h1M39 24h1M28 25h5M35 25h4M29 26h2M32 26h1M34 26h1M36 26h2M25 29h5M33 29h7M28 30h2M33 30h1M35 30h3M39 30h1M28 31h2M33 31h1M35 31h2M38 31h1M28 32h2M33 32h1M35 32h3M39 32h1M28 33h2M33 33h1M35 33h2M38 33h1M33 34h1M35 34h3M39 34h1M34 36h1M36 36h3M34 37h1M36 37h2M39 37h1M34 38h1M36 38h3M34 39h1M36 39h2M39 39h1" />
<path stroke="#3d2403" d="M12 20h1M18 20h2M13 21h9" />
<path stroke="#ff8900" d="M39 20h1M30 22h1M38 22h1M27 24h1M29 24h1M31 24h1M36 24h1M38 24h1M31 26h1M35 26h1" />
<path stroke="#fc809a" d="M19 23h3M18 24h3M18 25h2" />
<path stroke="#2eff00" d="M25 28h2M33 28h1M32 32h1M32 33h1M32 34h1M35 36h1M35 37h1M35 38h1M35 39h1" />
<path stroke="#2dff00" d="M27 28h6M34 28h6M30 29h3M25 30h3M30 30h3M34 30h1M38 30h1M25 31h3M30 31h3M34 31h1M37 31h1M39 31h1M26 32h2M30 32h2M34 32h1M38 32h1M30 33h2M34 33h1M37 33h1M39 33h1M30 34h2M34 34h1M38 34h1M39 36h1M38 37h1M39 38h1M38 39h1" />
<path stroke="#031bee" d="M16 32h2M25 32h1M16 33h2M25 33h3M15 34h3M25 34h3M15 35h3M25 35h3M15 36h3M25 36h3M15 37h3M25 37h3M15 38h3M25 38h3M15 39h1M17 39h9M27 39h1" />
<path stroke="#0320ee" d="M6 36h1M6 37h1M6 38h1M6 39h1" />
<path stroke="#031dee" d="M7 36h2M7 37h2M7 38h2M7 39h2" />
<path stroke="#2fff00" d="M33 36h1M33 37h1" />
</svg>