<svg xmlns="http://www.w3.org/2000/svg" viewBox="0 -0.5 40 40" shape-rendering="crispEdges">
<metadata>Made with Pixels to Svg https://codepen.io/shshaw/pen/XbxvNj</metadata>
<path stroke="#4ade36" d="M0 0h1" />
<path stroke="#24a21a" d="M1 0h1M0 1h1M38 24h1M38 27h1M37 29h1M31 34h1" />
<path stroke="#29a71d" d="M2 0h1M20 1h1M32 8h1M38 23h1M37 26h1M26 28h1M2 33h1" />
<path stroke="#82ed65" d="M3 0h1" />
<path stroke="#e1ffb5" d="M4 0h1" />
<path stroke="#f8ffd1" d="M5 0h1" />
<path stroke="#e7ffd5" d="M6 0h1" />
<path stroke="#8cff7b" d="M7 0h1" />
<path stroke="#000000" d="M8 0h1M12 0h1M16 0h1M19 0h1M24 0h1M27 0h1M8 1h1M12 1h1M16 1h1M19 1h1M23 1h1M26 1h1M8 2h1M13 2h1M15 2h1M20 2h1M22 2h1M26 2h1M31 2h3M9 3h1M14 3h2M20 3h2M26 3h1M30 3h1M33 3h1M3 4h3M9 4h1M26 4h1M28 4h2M33 4h1M3 5h1M6 5h2M9 5h1M15 5h8M26 5h2M33 5h1M3 6h1M8 6h3M14 6h1M23 6h1M32 6h1M4 7h1M10 7h1M13 7h1M24 7h1M32 7h1M5 8h1M12 8h1M25 8h1M31 8h1M6 9h1M11 9h1M26 9h1M31 9h1M6 10h1M11 10h1M27 10h1M30 10h1M7 11h1M11 11h1M13 11h2M18 11h3M27 11h1M30 11h6M4 12h5M11 12h2M15 12h1M17 12h1M21 12h1M27 12h1M35 12h1M4 13h1M11 13h1M15 13h1M17 13h1M21 13h1M27 13h1M34 13h1M5 14h1M11 14h1M15 14h1M17 14h1M21 14h1M27 14h1M32 14h2M6 15h1M10 15h2M13 15h1M15 15h1M17 15h1M19 15h1M21 15h1M27 15h1M31 15h1M7 16h1M9 16h1M11 16h1M15 16h1M17 16h1M21 16h1M23 16h5M31 16h1M8 17h2M12 17h1M15 17h3M21 17h2M27 17h1M32 17h1M8 18h8M17 18h1M20 18h2M24 18h2M28 18h1M33 18h2M7 19h1M16 19h5M26 19h1M29 19h1M35 19h1M6 20h1M9 20h4M25 20h1M27 20h1M29 20h1M35 20h2M6 21h1M8 21h1M13 21h4M24 21h1M29 21h1M33 21h2M7 22h1M10 22h3M14 22h1M17 22h8M27 22h2M31 22h2M8 23h2M12 23h2M15 23h1M23 23h1M26 23h1M31 23h1M9 24h1M14 24h1M16 24h1M23 24h1M25 24h1M27 24h1M32 24h1M9 25h1M14 25h2M17 25h1M22 25h1M24 25h1M28 25h2M32 25h1M8 26h1M12 26h2M15 26h1M17 26h1M21 26h1M23 26h1M30 26h3M8 27h4M16 27h1M18 27h3M22 27h1M17 28h1M21 28h2M18 29h3M22 29h1M19 30h1M22 30h1M17 31h3M22 31h3M16 32h1M18 32h1M20 32h2M23 32h1M25 32h1M16 33h1M18 33h1M23 33h1M26 33h1M15 34h1M18 34h1M23 34h1M27 34h3M14 35h1M16 35h1M18 35h1M22 35h1M24 35h1M26 35h1M30 35h2M13 36h1M17 36h1M19 36h1M22 36h2M25 36h1M31 36h2M12 37h1M16 37h1M19 37h1M22 37h1M24 37h1M32 37h1M12 38h1M15 38h1M19 38h1M22 38h1M25 38h1M33 38h1M12 39h1M16 39h1M19 39h1M22 39h1M26 39h1M33 39h1" />
<path stroke="#88b0e7" d="M9 0h1M15 4h1M20 4h1M23 5h2M24 6h2M15 8h4M7 9h1M14 9h1M18 9h2M7 10h2M12 10h1M21 10h1M8 11h1M28 11h1M28 12h1M5 13h1M7 13h3M28 13h1M9 14h1M28 14h1M28 15h1M28 16h1M28 17h1M10 23h2M10 24h4M10 25h4M9 26h3" />
<path stroke="#88afe7" d="M10 0h2M17 0h2M25 0h2M9 1h3M17 1h2M24 1h2M9 2h4M16 2h4M23 2h3M10 3h4M16 3h4M22 3h4M31 3h2M10 4h5M16 4h4M21 4h5M30 4h3M4 5h2M10 5h5M25 5h1M28 5h5M4 6h4M11 6h3M26 6h6M5 7h5M11 7h2M25 7h7M6 8h6M26 8h5M8 9h1M27 9h4M28 10h2M29 11h1M29 12h6M6 13h1M10 13h1M29 13h5M6 14h3M10 14h1M29 14h3M7 15h3M29 15h2M8 16h1M29 16h2M29 17h3M29 18h4M30 19h5M30 20h5M30 21h3M29 22h2M27 23h4M28 24h4M30 25h2" />
<path stroke="#5cfc41" d="M13 0h1M22 0h1M35 0h1M7 3h1M38 3h1M1 4h1M6 4h1M39 4h1M33 6h2M3 7h1M34 7h2M36 8h1M31 10h1M4 14h1M37 18h1M39 18h1M5 19h1M6 22h1M2 23h1M7 23h1M8 24h1M3 25h1M27 25h1M26 26h1M1 27h1M24 27h1M30 27h1M12 28h1M23 28h1M29 28h1M14 29h1M17 30h1M23 30h1M31 32h1M37 32h1M0 33h1M5 33h1M13 35h1M34 35h1M33 36h1M5 39h1" />
<path stroke="#55f13d" d="M14 0h1M21 0h1M8 3h1M34 8h1M5 11h1M39 19h1M5 20h1M8 25h1M39 28h1M13 29h1M16 30h1M11 38h1" />
<path stroke="#53ed3c" d="M15 0h1M20 0h1M35 13h1M35 14h1M35 15h1M35 16h1M35 17h1M35 18h1M5 21h1" />
<path stroke="#5eff43" d="M23 0h1M39 0h1M39 1h1M39 2h1M5 3h2M39 3h1M2 4h1M0 5h3M0 6h3M0 7h3M0 8h3M35 8h1M36 9h1M6 11h1M39 12h1M39 13h1M4 15h2M4 16h3M4 17h4M4 18h4M6 19h1M36 19h1M0 21h2M0 22h2M0 23h2M0 24h3M26 24h1M0 25h3M25 25h2M0 26h4M14 26h1M24 26h2M12 27h4M23 27h1M13 28h4M15 29h3M18 30h1M25 31h1M6 33h2M39 33h1M0 34h1M39 34h1M0 35h1M12 35h1M39 35h1M0 36h1M11 36h2M34 36h1M39 36h1M0 37h1M11 37h1M33 37h7M0 38h1M34 38h6M0 39h5M34 39h6" />
<path stroke="#d8ee1d" d="M28 0h1M9 32h1" />
<path stroke="#fbf608" d="M29 0h1M10 32h1" />
<path stroke="#e6ee0f" d="M30 0h1" />
<path stroke="#75b717" d="M31 0h1" />
<path stroke="#13910c" d="M32 0h1M14 33h1" />
<path stroke="#24a219" d="M33 0h1M38 6h1M39 7h1M39 22h1M7 26h1M9 39h1" />
<path stroke="#4ce136" d="M34 0h1" />
<path stroke="#68ff4c" d="M36 0h1M38 0h1M7 2h1M38 2h1M4 3h1M38 12h1M38 13h1M3 15h1M35 26h1M30 28h1M7 32h1" />
<path stroke="#7aff5d" d="M37 0h1M38 1h1M3 3h1" />
<path stroke="#199612" d="M1 1h1M8 5h1M37 28h1M1 30h1M36 30h1M35 31h1M34 32h1M33 33h1M32 34h1" />
<path stroke="#44b733" d="M2 1h1" />
<path stroke="#93f173" d="M3 1h1" />
<path stroke="#d2ffa8" d="M4 1h1" />
<path stroke="#e1ffb7" d="M5 1h1" />
<path stroke="#d0ffae" d="M6 1h1" />
<path stroke="#82ff68" d="M7 1h1M36 14h1" />
<path stroke="#4ce137" d="M13 1h1M31 33h1" />
<path stroke="#33b725" d="M14 1h1M8 4h1M33 8h1M34 16h1M28 27h1M16 31h1" />
<path stroke="#28a71c" d="M15 1h1M2 31h1M15 31h1M30 34h1M10 39h1" />
<path stroke="#37bb27" d="M21 1h1M21 2h1M38 21h1" />
<path stroke="#56f13d" d="M22 1h1M3 8h1M37 19h1M2 21h1M2 22h1M0 27h1M0 32h1" />
<path stroke="#83fa3c" d="M27 1h1M26 31h1" />
<path stroke="#d7ed1d" d="M28 1h1M29 2h1M34 23h1" />
<path stroke="#f7f307" d="M29 1h1M28 31h1" />
<path stroke="#e5f51b" d="M30 1h1" />
<path stroke="#82e530" d="M31 1h1" />
<path stroke="#31b222" d="M32 1h1M37 7h1M36 31h1M33 32h1" />
<path stroke="#199611" d="M33 1h1M38 7h1M5 24h1M3 34h1" />
<path stroke="#30b221" d="M34 1h1M4 34h1" />
<path stroke="#4fe538" d="M35 1h1M37 3h1M38 4h1M6 23h1M7 24h1M1 28h1M11 28h1M4 33h1" />
<path stroke="#78fc5b" d="M36 1h1M38 31h1" />
<path stroke="#a9ff85" d="M37 1h1" />
<path stroke="#12900c" d="M0 2h1M14 2h1M34 2h1M35 3h1M36 4h1M37 5h1M37 6h1M39 8h1M6 25h1M38 25h1M38 26h1M7 27h1M8 28h1M0 29h1M8 39h1" />
<path stroke="#30b222" d="M1 2h1M35 2h1M37 4h1M5 9h1M5 23h1M6 24h1M1 29h1M35 32h1M3 33h1M32 33h1M34 33h1M33 34h1M32 35h1" />
<path stroke="#6fe655" d="M2 2h1" />
<path stroke="#adfc89" d="M3 2h1" />
<path stroke="#98ff76" d="M4 2h1" />
<path stroke="#89ff6a" d="M5 2h1M0 14h1" />
<path stroke="#82ff64" d="M6 2h1M37 10h1M1 14h1M33 26h2" />
<path stroke="#7dfb3d" d="M27 2h1M1 13h1M34 25h2M26 32h1M8 33h1M27 33h1" />
<path stroke="#c3ef27" d="M28 2h1" />
<path stroke="#c7f127" d="M30 2h1M29 32h1" />
<path stroke="#5ae543" d="M36 2h1" />
<path stroke="#79fc5c" d="M37 2h1M38 11h1M7 31h1" />
<path stroke="#34b725" d="M0 3h1M4 8h1M32 9h1M4 11h1M33 17h1M3 21h1M3 22h1M32 23h1M37 25h1M28 26h2M27 27h1M25 28h1M27 28h1M36 28h1M38 28h1M37 30h1M1 32h1M2 34h1" />
<path stroke="#4fe539" d="M1 3h1M7 4h1M33 7h1M27 26h1M29 27h1M24 28h1M36 32h1M34 34h1M33 35h1" />
<path stroke="#66fc4b" d="M2 3h1M2 14h1M1 35h1M4 38h1" />
<path stroke="#66fe41" d="M27 3h1" />
<path stroke="#7bf83c" d="M28 3h1M33 24h1" />
<path stroke="#7dec35" d="M29 3h1" />
<path stroke="#12910d" d="M34 3h1M35 4h1M36 5h1M6 26h1" />
<path stroke="#2fb222" d="M36 3h1" />
<path stroke="#56f33d" d="M0 4h1M39 11h1M25 27h1M24 30h1" />
<path stroke="#5dff43" d="M27 4h1M35 9h1M36 18h1" />
<path stroke="#31b423" d="M34 4h1M35 5h1M36 6h1M38 8h1M6 38h1" />
<path stroke="#50e739" d="M34 5h1M35 6h1M5 38h1" />
<path stroke="#33b723" d="M38 5h1M10 28h1M13 30h1" />
<path stroke="#55f13c" d="M39 5h1" />
<path stroke="#ffffff" d="M15 6h8M14 7h10M13 8h1M19 8h6M12 9h1M15 9h3M21 9h5M13 10h8M22 10h5M12 11h1M15 11h3M21 11h6M13 12h2M16 12h1M18 12h3M22 12h1M24 12h3M12 13h3M16 13h1M18 13h3M22 13h1M24 13h3M12 14h3M16 14h1M18 14h3M22 14h1M24 14h3M12 15h1M14 15h1M16 15h1M18 15h1M20 15h1M22 15h1M24 15h3M12 16h3M16 16h1M18 16h3M22 16h1M13 17h2M18 17h3M18 18h2M21 29h1M20 30h2M20 31h2M17 32h1M24 32h1M17 33h1M24 33h2M16 34h2M24 34h3M15 35h1M17 35h1M23 35h1M25 35h1M27 35h3M14 36h3M18 36h1M24 36h1M26 36h5M13 37h3M17 37h2M23 37h1M25 37h7M13 38h2M16 38h3M23 38h2M26 38h7M13 39h3M17 39h2M23 39h3M27 39h6" />
<path stroke="#4add33" d="M39 6h1" />
<path stroke="#50e639" d="M36 7h1M37 8h1M37 31h1" />
<path stroke="#88b1e7" d="M14 8h1M9 9h2M13 9h1M20 9h1M9 10h2M9 11h2M9 12h2" />
<path stroke="#86fb3c" d="M0 9h1" />
<path stroke="#8bff3c" d="M1 9h1M7 34h1" />
<path stroke="#83fc3c" d="M2 9h1M12 34h1" />
<path stroke="#5ae236" d="M3 9h1" />
<path stroke="#28a71d" d="M4 9h1M4 10h1M34 14h1M4 22h1M2 32h1" />
<path stroke="#2cac1f" d="M33 9h1" />
<path stroke="#53ed3b" d="M34 9h1M15 30h1" />
<path stroke="#5cfc42" d="M37 9h1M39 29h1" />
<path stroke="#4ee437" d="M38 9h1M3 23h1M4 25h1" />
<path stroke="#25a41a" d="M39 9h1" />
<path stroke="#d8ec1d" d="M0 10h1M27 31h1M28 32h1" />
<path stroke="#e5f81d" d="M1 10h1M28 30h1M7 35h1" />
<path stroke="#d3ee1d" d="M2 10h1" />
<path stroke="#6bb61a" d="M3 10h1" />
<path stroke="#4de137" d="M5 10h1M5 22h1M38 29h1M3 32h1" />
<path stroke="#4ee237" d="M32 10h1" />
<path stroke="#34b724" d="M33 10h1" />
<path stroke="#4de136" d="M34 10h1" />
<path stroke="#66fc4a" d="M35 10h1" />
<path stroke="#82ff63" d="M36 10h1M37 12h1M3 27h1M39 30h1M6 32h1M1 36h1M1 37h1M2 38h2" />
<path stroke="#61f247" d="M38 10h1" />
<path stroke="#37bd27" d="M39 10h1" />
<path stroke="#dbec1a" d="M0 11h1" />
<path stroke="#f4f40e" d="M1 11h1" />
<path stroke="#e2e608" d="M2 11h1" />
<path stroke="#70aa0d" d="M3 11h1" />
<path stroke="#b8ff93" d="M36 11h1" />
<path stroke="#baff93" d="M37 11h1" />
<path stroke="#97f837" d="M0 12h1" />
<path stroke="#cbf125" d="M1 12h1" />
<path stroke="#c3de1a" d="M2 12h1" />
<path stroke="#66b71d" d="M3 12h1" />
<path stroke="#e8e5e5" d="M23 12h1M23 13h1M23 14h1M23 15h1" />
<path stroke="#81ff63" d="M36 12h1M1 20h1M31 31h1M5 32h1M39 32h1" />
<path stroke="#66ff42" d="M0 13h1M33 25h1" />
<path stroke="#77ed37" d="M2 13h1M26 30h1" />
<path stroke="#4dce2d" d="M3 13h1" />
<path stroke="#67ff4c" d="M36 13h1M0 20h1M2 27h1M31 27h1M38 32h1M1 38h1" />
<path stroke="#7bff5e" d="M37 13h1" />
<path stroke="#58f63f" d="M3 14h1M23 29h1" />
<path stroke="#c2ffa6" d="M37 14h1" />
<path stroke="#9bff87" d="M38 14h1" />
<path stroke="#69ff52" d="M39 14h1M38 33h1" />
<path stroke="#e2ffb5" d="M0 15h1" />
<path stroke="#d5ffaa" d="M1 15h1" />
<path stroke="#99ff78" d="M2 15h1" />
<path stroke="#56f23d" d="M32 15h1M3 24h1M4 26h1M1 34h1" />
<path stroke="#34b925" d="M33 15h1M4 24h1M5 26h1M14 34h1" />
<path stroke="#2cac20" d="M34 15h1M34 17h1M4 21h1" />
<path stroke="#8bff7b" d="M36 15h1M0 18h1" />
<path stroke="#e4ffdc" d="M37 15h1" />
<path stroke="#daffd5" d="M38 15h1" />
<path stroke="#85ff76" d="M39 15h1M39 16h1M38 34h1M38 35h1" />
<path stroke="#e6ffbb" d="M0 16h1" />
<path stroke="#f1ffcb" d="M1 16h1" />
<path stroke="#d6ffb6" d="M2 16h1" />
<path stroke="#83ff69" d="M3 16h1" />
<path stroke="#ff8a00" d="M10 16h1M10 17h2M23 17h4M16 18h1M22 18h2M26 18h2M8 19h8M21 19h5M27 19h2M7 20h2M13 20h12M26 20h1M28 20h1M7 21h1M9 21h4M17 21h7M25 21h4M8 22h2M13 22h1M25 22h2M14 23h1M24 23h2M15 24h1M24 24h1M16 25h1M23 25h1M16 26h1M22 26h1M17 27h1M21 27h1M18 28h3" />
<path stroke="#5af940" d="M32 16h1" />
<path stroke="#46d532" d="M33 16h1" />
<path stroke="#84ff75" d="M36 16h1M35 35h1M37 36h1" />
<path stroke="#d5ffd2" d="M37 16h2M36 34h1" />
<path stroke="#a6ff8f" d="M0 17h1" />
<path stroke="#ecffe1" d="M1 17h1" />
<path stroke="#e8ffdf" d="M2 17h1" />
<path stroke="#8cff7c" d="M3 17h1M3 18h1" />
<path stroke="#68ff52" d="M36 17h1M39 17h1M38 36h1" />
<path stroke="#84ff76" d="M37 17h2" />
<path stroke="#e7ffde" d="M1 18h1" />
<path stroke="#e8ffde" d="M2 18h1" />
<path stroke="#57f43e" d="M38 18h1" />
<path stroke="#82ff67" d="M0 19h1" />
<path stroke="#cfffb0" d="M1 19h1M5 31h1" />
<path stroke="#d0ffb0" d="M2 19h1" />
<path stroke="#81fc67" d="M3 19h1" />
<path stroke="#57f43f" d="M4 19h1" />
<path stroke="#42ce2f" d="M38 19h1" />
<path stroke="#80fc62" d="M2 20h1M2 28h1" />
<path stroke="#5be543" d="M3 20h1" />
<path stroke="#3fc92d" d="M4 20h1" />
<path stroke="#54ee3c" d="M37 20h1" />
<path stroke="#39c029" d="M38 20h1" />
<path stroke="#52ed3b" d="M39 20h1" />
<path stroke="#bef42b" d="M35 21h1" />
<path stroke="#98fc38" d="M36 21h1" />
<path stroke="#60ed3a" d="M37 21h1" />
<path stroke="#4add34" d="M39 21h1" />
<path stroke="#fffceb" d="M15 22h1M17 23h1M19 23h1M21 23h1M21 25h1M18 26h1M20 26h1" />
<path stroke="#830b0b" d="M16 22h1M16 23h1M18 23h1M20 23h1M22 23h1M17 24h6M20 25h1" />
<path stroke="#71dd30" d="M33 22h1" />
<path stroke="#caed22" d="M34 22h1" />
<path stroke="#f1f513" d="M35 22h1" />
<path stroke="#dafb25" d="M36 22h1" />
<path stroke="#7eed36" d="M37 22h1M37 23h1" />
<path stroke="#2dac1f" d="M38 22h1" />
<path stroke="#29a81d" d="M4 23h1" />
<path stroke="#7dec36" d="M33 23h1" />
<path stroke="#f4f40f" d="M35 23h1" />
<path stroke="#d9fb26" d="M36 23h1" />
<path stroke="#058a02" d="M39 23h1M39 24h1M39 25h1M14 32h1" />
<path stroke="#c2f027" d="M34 24h1" />
<path stroke="#caf225" d="M35 24h1" />
<path stroke="#96f837" d="M36 24h1" />
<path stroke="#59e136" d="M37 24h1" />
<path stroke="#25a31a" d="M5 25h1" />
<path stroke="#33b724" d="M7 25h1M0 28h1" />
<path stroke="#d90606" d="M18 25h2M19 26h1" />
<path stroke="#5ff13c" d="M36 25h1" />
<path stroke="#54ed3c" d="M36 26h1" />
<path stroke="#25a21a" d="M39 26h1M37 27h1M36 29h1M0 30h1M1 31h1M7 39h1" />
<path stroke="#88fc69" d="M4 27h1" />
<path stroke="#77e35c" d="M5 27h1" />
<path stroke="#39a32c" d="M6 27h1" />
<path stroke="#4de237" d="M26 27h1" />
<path stroke="#98ff7a" d="M32 27h1" />
<path stroke="#d5ffb2" d="M33 27h1" />
<path stroke="#d0ffa9" d="M34 27h1" />
<path stroke="#81fc63" d="M35 27h1" />
<path stroke="#4ee337" d="M36 27h1M1 33h1M6 39h1" />
<path stroke="#4ade35" d="M39 27h1" />
<path stroke="#ceffa8" d="M3 28h1" />
<path stroke="#e4ffc1" d="M4 28h1M34 28h1" />
<path stroke="#d4f2b4" d="M5 28h1" />
<path stroke="#85b96e" d="M6 28h1" />
<path stroke="#309126" d="M7 28h1" />
<path stroke="#24a218" d="M9 28h1" />
<path stroke="#50e539" d="M28 28h1M32 32h1" />
<path stroke="#99ff7b" d="M31 28h1" />
<path stroke="#dcffc1" d="M32 28h1" />
<path stroke="#f8ffe4" d="M33 28h1M32 29h1" />
<path stroke="#84f167" d="M35 28h1" />
<path stroke="#77e55c" d="M2 29h1M33 31h1" />
<path stroke="#d3fcb3" d="M3 29h1" />
<path stroke="#f9ffea" d="M4 29h1" />
<path stroke="#f5fce8" d="M5 29h1" />
<path stroke="#c0e7a6" d="M6 29h1" />
<path stroke="#5db349" d="M7 29h1" />
<path stroke="#12900d" d="M8 29h1" />
<path stroke="#2c8e01" d="M9 29h1" />
<path stroke="#5da10b" d="M10 29h1" />
<path stroke="#67c022" d="M11 29h1" />
<path stroke="#58e437" d="M12 29h1" />
<path stroke="#40cc2d" d="M24 29h1" />
<path stroke="#2dae1f" d="M25 29h1" />
<path stroke="#42b622" d="M26 29h1" />
<path stroke="#75e232" d="M27 29h1" />
<path stroke="#8afb3a" d="M28 29h1" />
<path stroke="#85ff3d" d="M29 29h1M10 37h1" />
<path stroke="#8aff62" d="M30 29h1" />
<path stroke="#d4ffb2" d="M31 29h1" />
<path stroke="#f9ffe8" d="M33 29h1" />
<path stroke="#d4fcb5" d="M34 29h1" />
<path stroke="#77e25d" d="M35 29h1" />
<path stroke="#43b733" d="M2 30h1" />
<path stroke="#93f182" d="M3 30h1" />
<path stroke="#ddffd7" d="M4 30h1" />
<path stroke="#ebffe1" d="M5 30h1" />
<path stroke="#b3fc99" d="M6 30h1" />
<path stroke="#65e64d" d="M7 30h1" />
<path stroke="#42b823" d="M8 30h1" />
<path stroke="#7bae0d" d="M9 30h1" />
<path stroke="#c4d003" d="M10 30h1" />
<path stroke="#c0d10c" d="M11 30h1" />
<path stroke="#64b21a" d="M12 30h1" />
<path stroke="#4be136" d="M14 30h1" />
<path stroke="#54ef3c" d="M25 30h1" />
<path stroke="#c6ed25" d="M27 30h1" />
<path stroke="#d6fc27" d="M29 30h1" />
<path stroke="#a0ff5e" d="M30 30h1" />
<path stroke="#ceffa7" d="M31 30h1" />
<path stroke="#e2ffbf" d="M32 30h1" />
<path stroke="#d4fcb4" d="M33 30h1" />
<path stroke="#90e575" d="M34 30h1" />
<path stroke="#42b232" d="M35 30h1" />
<path stroke="#60f147" d="M38 30h1" />
<path stroke="#4bdf36" d="M0 31h1" />
<path stroke="#5eed4b" d="M3 31h1" />
<path stroke="#98ff85" d="M4 31h1" />
<path stroke="#bfff9b" d="M6 31h1" />
<path stroke="#77ee37" d="M8 31h1" />
<path stroke="#c8e21a" d="M9 31h1" />
<path stroke="#f3f007" d="M10 31h1" />
<path stroke="#e8e908" d="M11 31h1" />
<path stroke="#8db405" d="M12 31h1" />
<path stroke="#34960c" d="M13 31h1" />
<path stroke="#23a218" d="M14 31h1" />
<path stroke="#e6f81e" d="M29 31h1" />
<path stroke="#91fe46" d="M30 31h1" />
<path stroke="#87fc69" d="M32 31h1" />
<path stroke="#41b231" d="M34 31h1" />
<path stroke="#b8ff92" d="M39 31h1" />
<path stroke="#65fc4a" d="M4 32h1" />
<path stroke="#83fb3c" d="M8 32h1" />
<path stroke="#fbf70a" d="M11 32h1" />
<path stroke="#d4de09" d="M12 32h1" />
<path stroke="#65a204" d="M13 32h1" />
<path stroke="#12900b" d="M15 32h1" />
<path stroke="#5ce4b8" d="M19 32h1M22 33h1M20 34h1M20 35h1M21 36h1M21 37h1M21 38h1M21 39h1" />
<path stroke="#5ce4b7" d="M22 32h1M19 33h3M19 34h1M21 34h2M19 35h1M21 35h1M20 36h1M20 37h1M20 38h1M20 39h1" />
<path stroke="#c4ee27" d="M27 32h1" />
<path stroke="#7ffc3d" d="M30 32h1" />
<path stroke="#caf125" d="M9 33h1" />
<path stroke="#f0f513" d="M10 33h1" />
<path stroke="#ecfb1c" d="M11 33h1" />
<path stroke="#d2ee1e" d="M12 33h1" />
<path stroke="#6bb81a" d="M13 33h1" />
<path stroke="#1f9c16" d="M15 33h1" />
<path stroke="#82f73a" d="M28 33h1" />
<path stroke="#76ed37" d="M29 33h1" />
<path stroke="#5cec3a" d="M30 33h1" />
<path stroke="#5be54a" d="M35 33h1" />
<path stroke="#83fc75" d="M36 33h1M35 34h1" />
<path stroke="#85ff77" d="M37 33h1" />
<path stroke="#58e436" d="M5 34h1" />
<path stroke="#7df93b" d="M6 34h1" />
<path stroke="#91fe3a" d="M8 34h1" />
<path stroke="#a9f732" d="M9 34h1" />
<path stroke="#c1f329" d="M10 34h1" />
<path stroke="#9dfc37" d="M11 34h1" />
<path stroke="#5ce737" d="M13 34h1" />
<path stroke="#d6ffd2" d="M37 34h1" />
<path stroke="#79e65e" d="M2 35h1" />
<path stroke="#67b452" d="M3 35h1" />
<path stroke="#339628" d="M4 35h1" />
<path stroke="#61b119" d="M5 35h1" />
<path stroke="#c2e11c" d="M6 35h1" />
<path stroke="#e6f91d" d="M8 35h1" />
<path stroke="#cff325" d="M9 35h1" />
<path stroke="#92f939" d="M10 35h1" />
<path stroke="#66ff41" d="M11 35h1" />
<path stroke="#d4ffd1" d="M36 35h1" />
<path stroke="#d5ffd1" d="M37 35h1" />
<path stroke="#cefca5" d="M2 36h1M3 37h1" />
<path stroke="#c9e7a2" d="M3 36h1" />
<path stroke="#66b452" d="M4 36h1" />
<path stroke="#5ba10d" d="M5 36h1" />
<path stroke="#bccc04" d="M6 36h1" />
<path stroke="#e4e808" d="M7 36h1" />
<path stroke="#f6f409" d="M8 36h1" />
<path stroke="#e5f81e" d="M9 36h1" />
<path stroke="#8bfe3c" d="M10 36h1" />
<path stroke="#68ff51" d="M35 36h1" />
<path stroke="#83ff75" d="M36 36h1" />
<path stroke="#cfffa5" d="M2 37h1" />
<path stroke="#79e65d" d="M4 37h1" />
<path stroke="#42b623" d="M5 37h1" />
<path stroke="#5ea20c" d="M6 37h1" />
<path stroke="#87b003" d="M7 37h1" />
<path stroke="#c9d80c" d="M8 37h1" />
<path stroke="#d1f625" d="M9 37h1" />
<path stroke="#2f950c" d="M7 38h1" />
<path stroke="#60ad15" d="M8 38h1" />
<path stroke="#77df2e" d="M9 38h1" />
<path stroke="#5fed3a" d="M10 38h1" />
<path stroke="#36bb27" d="M11 39h1" />
</svg>