<svg xmlns="http://www.w3.org/2000/svg" viewBox="0 -0.5 40 40" shape-rendering="crispEdges">
<metadata>Made with Pixels to Svg https://codepen.io/shshaw/pen/XbxvNj</metadata>
<path stroke="#ffe800" d="M0 0h14M21 0h2M24 0h16M3 1h4M9 1h1M12 1h3M24 1h2M30 1h9M0 2h6M9 2h1M31 2h3M2 3h6M11 3h1M25 3h4M31 3h9M8 4h1M25 4h14M6 5h3M10 5h1M26 5h1M3 6h4M9 6h2M28 6h4M0 7h5M8 7h2M21 7h1M30 7h3M0 8h5M8 8h1M25 8h2M30 8h4M36 8h2M0 9h2M6 9h2M10 9h1M25 9h3M31 9h8M4 10h3M26 10h4M33 10h2M36 10h4M3 11h3M8 11h1M27 11h3M35 11h3M2 12h4M7 12h1M28 12h5M35 12h4M1 13h2M5 13h2M9 13h2M28 13h6M39 13h1M0 14h2M4 14h2M8 14h3M29 14h7M0 15h1M3 15h2M7 15h3M29 15h1M32 15h5M3 16h1M7 16h2M30 16h1M34 16h4M2 17h2M6 17h3M31 17h1M36 17h4M2 18h6M32 18h1M37 18h3M1 19h4M30 19h1M33 19h1M39 19h1M0 20h2M30 20h2M33 20h2M0 21h1M31 21h2M34 21h3M6 22h1M32 22h5M6 23h2M10 23h2M27 23h1M33 23h5M5 24h4M11 24h3M27 24h1M34 24h4M4 25h4M11 25h3M28 25h1M36 25h3M4 26h3M10 26h2M29 26h1M37 26h3M3 27h3M10 27h2M38 27h2M3 28h3M10 28h1M31 28h1M3 29h1M9 29h1M2 30h1M1 31h2M7 31h2M0 32h1M6 33h1" />
<path stroke="#fff7a3" d="M14 0h2M23 0h1M11 1h1M22 1h2M8 2h1M10 2h3M23 2h5M8 3h3M12 3h1M24 3h1M9 4h2M12 4h2M24 4h1M11 5h6M23 5h2M12 6h2M15 6h3M20 6h3M24 6h2M10 7h3M14 7h4M20 7h1M22 7h5M9 8h3M24 8h1M27 8h1M8 9h2M28 9h3M7 10h2M30 10h3M6 11h1M9 11h1M31 11h4M6 12h1M8 12h2M33 12h2M7 13h2M6 14h2M5 15h2M4 16h3M29 16h1M4 17h2M29 17h2M29 18h3M31 19h2M33 21h1" />
<path stroke="#fb5757" d="M16 0h1M15 1h1M17 1h2M20 1h1M13 2h1M19 2h1M15 3h2M18 3h1M21 3h2M14 4h1M17 4h1M19 4h2M17 5h1M20 5h1M22 5h1M18 6h1M18 7h1" />
<path stroke="#fc809a" d="M17 0h1M16 1h1M14 2h2M28 2h1M13 3h2M17 3h1M15 4h2M21 4h3M18 5h1M21 5h1M19 7h1M19 23h3M18 24h3M18 25h2" />
<path stroke="#ff9aaf" d="M18 0h1M19 1h1M16 2h2M20 2h2M19 3h2M23 3h1M18 4h1M19 5h1M19 6h1" />
<path stroke="#faaebe" d="M19 0h2M21 1h1M18 2h1M22 2h1" />
<path stroke="#00ffe0" d="M0 1h3M39 1h1M34 2h6M0 3h2M0 4h8M39 4h1M0 5h6M27 5h13M0 6h3M34 6h6M36 7h4M7 8h1M38 8h2M2 9h4M39 9h1M0 10h4M35 10h1M0 11h3M38 11h2M0 12h2M39 12h1M0 13h1M3 13h2M34 13h5M2 14h2M36 14h4M1 15h2M30 15h2M37 15h3M0 16h3M31 16h3M38 16h2M0 17h2M32 17h4M0 18h2M33 18h4M0 19h1M5 19h2M34 19h5M2 20h4M35 20h5M1 21h5M30 21h1M37 21h3M0 22h6M29 22h3M37 22h3M0 23h6M28 23h5M38 23h2M0 24h5M9 24h2M26 24h1M28 24h6M38 24h2M0 25h4M8 25h3M14 25h1M25 25h3M29 25h7M39 25h1M0 26h4M7 26h3M12 26h3M24 26h5M30 26h7M0 27h3M6 27h4M12 27h4M23 27h15M0 28h3M6 28h4M11 28h6M23 28h8M32 28h8M0 29h2M4 29h5M10 29h9M23 29h17M0 30h2M4 30h14M24 30h16M0 31h1M3 31h4M9 31h8M25 31h15M1 32h15M26 32h14M0 33h6M7 33h9M27 33h13M0 34h15M30 34h10M0 35h14M32 35h8M0 36h13M33 36h7M0 37h12M33 37h7M0 38h12M34 38h6M0 39h12M34 39h6" />
<path stroke="#fe0101" d="M7 1h2M10 1h1M26 1h4M6 2h2M29 2h1M29 3h2M11 4h1M9 5h1M25 5h1M7 6h2M11 6h1M14 6h1M23 6h1M26 6h2M32 6h2M5 7h3M13 7h1M27 7h3M33 7h2M5 8h2M12 8h12M28 8h2M34 8h2M12 9h1M15 9h2M22 9h3M9 10h1M13 10h1M16 10h1M23 10h1M7 11h1M23 11h1M30 11h1M23 13h1" />
<path stroke="#ffffff" d="M30 2h1M35 7h1M14 9h1M17 9h1M11 10h2M14 10h2M17 10h5M24 10h1M11 11h2M15 11h3M21 11h2M24 11h2M11 12h1M16 12h1M22 12h4M14 13h1M16 13h1M22 13h1M24 13h3M16 14h1M19 14h1M22 14h6M16 15h1M22 15h6M16 16h1M22 16h1M27 16h1M20 29h2M19 30h3M19 31h4M20 32h2M27 35h3M14 36h2M20 36h3M27 36h4M13 37h4M19 37h5M25 37h7M13 38h3M17 38h11M29 38h4M13 39h2M17 39h11M30 39h3" />
<path stroke="#000000" d="M11 9h1M13 9h1M18 9h4M10 10h1M22 10h1M25 10h1M10 11h1M13 11h2M18 11h3M26 11h1M10 12h1M12 12h1M15 12h1M17 12h1M21 12h1M26 12h2M11 13h1M13 13h1M15 13h1M17 13h1M21 13h1M27 13h1M11 14h1M13 14h3M17 14h2M21 14h1M28 14h1M10 15h2M15 15h1M17 15h3M21 15h1M28 15h1M9 16h1M11 16h1M15 16h1M17 16h1M21 16h1M23 16h4M28 16h1M9 17h1M12 17h1M15 17h3M21 17h2M27 17h2M8 18h8M17 18h1M20 18h2M24 18h2M28 18h1M7 19h1M16 19h5M26 19h1M29 19h1M6 20h1M9 20h4M25 20h1M27 20h1M29 20h1M6 21h1M8 21h1M13 21h4M24 21h1M29 21h1M7 22h1M10 22h3M14 22h1M17 22h8M27 22h2M8 23h2M12 23h2M15 23h1M23 23h1M26 23h1M14 24h1M16 24h1M23 24h1M25 24h1M15 25h1M17 25h1M22 25h1M24 25h1M15 26h1M17 26h1M21 26h1M23 26h1M16 27h1M18 27h3M22 27h1M17 28h1M21 28h2M19 29h1M22 29h1M18 30h1M22 30h2M17 31h2M23 31h2M16 32h1M19 32h1M22 32h1M25 32h1M16 33h1M20 33h1M22 33h1M26 33h1M15 34h1M19 34h1M23 34h1M27 34h3M14 35h2M20 35h1M22 35h1M26 35h1M30 35h2M13 36h1M16 36h1M19 36h1M23 36h1M25 36h2M31 36h2M12 37h1M17 37h2M24 37h1M32 37h1M12 38h1M16 38h1M28 38h1M33 38h1M12 39h1M15 39h2M28 39h2M33 39h1" />
<path stroke="#c3d9f9" d="M13 12h2M18 12h3M12 13h1M18 13h3M12 14h1M20 14h1M12 15h3M20 15h1M12 16h3M18 16h3M13 17h2M18 17h3M18 18h2" />
<path stroke="#ff8a00" d="M10 16h1M10 17h2M23 17h4M16 18h1M22 18h2M26 18h2M8 19h8M21 19h5M27 19h2M7 20h2M13 20h12M26 20h1M28 20h1M7 21h1M9 21h4M17 21h7M25 21h4M8 22h2M13 22h1M25 22h2M14 23h1M24 23h2M15 24h1M24 24h1M16 25h1M23 25h1M16 26h1M22 26h1M17 27h1M21 27h1M18 28h3" />
<path stroke="#fff7a2" d="M32 20h1" />
<path stroke="#ff0000" d="M15 22h2M16 23h3M22 23h1M17 24h1M21 24h2M20 25h2M18 26h3M17 32h2M23 32h2M17 33h3M21 33h1M23 33h3M16 34h3M20 34h3M24 34h3M16 35h4M21 35h1M23 35h3M17 36h2M24 36h1" />
<path stroke="#ffe700" d="M2 29h1M3 30h1" />
</svg>