<svg xmlns="http://www.w3.org/2000/svg" viewBox="0 -0.5 40 40" shape-rendering="crispEdges">
<metadata>Made with Pixels to Svg https://codepen.io/shshaw/pen/XbxvNj</metadata>
<path stroke="#122300" d="M0 0h2M22 0h9M16 2h1M37 6h1M38 7h2M38 8h2M38 9h2M39 10h1M8 31h1" />
<path stroke="#643108" d="M2 0h1M30 36h1" />
<path stroke="#ea5a15" d="M3 0h1" />
<path stroke="#fd6118" d="M4 0h1M37 0h1M38 1h1" />
<path stroke="#f35d16" d="M5 0h1M36 0h1" />
<path stroke="#e95916" d="M6 0h1" />
<path stroke="#b0460f" d="M7 0h1" />
<path stroke="#ec5917" d="M8 0h1M10 2h1" />
<path stroke="#ff601a" d="M9 0h1" />
<path stroke="#fc601a" d="M10 0h1M12 4h1" />
<path stroke="#f25c18" d="M11 0h1M34 31h1" />
<path stroke="#fc6019" d="M12 0h1" />
<path stroke="#ff611a" d="M13 0h1" />
<path stroke="#fc601b" d="M14 0h1" />
<path stroke="#ee5b19" d="M15 0h1" />
<path stroke="#eb5a19" d="M16 0h2" />
<path stroke="#f05c19" d="M18 0h1" />
<path stroke="#ec5a19" d="M19 0h1" />
<path stroke="#853a0e" d="M20 0h1" />
<path stroke="#2c2504" d="M21 0h1M38 10h1M39 11h1" />
<path stroke="#4d2b07" d="M31 0h1" />
<path stroke="#b54610" d="M32 0h1" />
<path stroke="#c74c12" d="M33 0h1" />
<path stroke="#d95213" d="M34 0h1" />
<path stroke="#f25c17" d="M35 0h1" />
<path stroke="#ff6218" d="M38 0h2" />
<path stroke="#5e3008" d="M0 1h1" />
<path stroke="#2b2503" d="M1 1h1M15 2h1M35 24h1M7 31h1M8 32h1M9 33h1M12 36h1" />
<path stroke="#5c2f08" d="M2 1h1" />
<path stroke="#d85412" d="M3 1h1" />
<path stroke="#ea5a16" d="M4 1h1" />
<path stroke="#b6470f" d="M5 1h1" />
<path stroke="#d35113" d="M6 1h1" />
<path stroke="#d95314" d="M7 1h1" />
<path stroke="#e25515" d="M8 1h1" />
<path stroke="#f75d19" d="M9 1h1" />
<path stroke="#f15c19" d="M10 1h1" />
<path stroke="#b64812" d="M11 1h1" />
<path stroke="#e05616" d="M12 1h1M11 2h1" />
<path stroke="#eb5a17" d="M13 1h1M33 31h1" />
<path stroke="#dc5516" d="M14 1h1M11 37h1" />
<path stroke="#833a0d" d="M15 1h1M33 29h1" />
<path stroke="#653108" d="M16 1h1" />
<path stroke="#693208" d="M17 1h1" />
<path stroke="#953e0e" d="M18 1h1" />
<path stroke="#ed5a19" d="M19 1h1" />
<path stroke="#e15618" d="M20 1h1" />
<path stroke="#bb3af1" d="M21 1h3M26 1h4M18 2h3M22 2h2M26 2h1M29 2h4M17 3h3M22 3h1M26 3h1M29 3h1M32 3h1M14 4h2M24 4h1M26 4h3M32 4h1M34 4h1M14 5h1M20 5h5M26 5h1M28 5h1M30 5h1M12 6h1M16 6h2M19 6h2M22 6h1M29 6h2M33 6h1M15 7h2M21 7h2M25 7h3M29 7h1M31 7h1M15 8h1M17 8h2M21 8h1M24 8h2M29 8h3M34 8h1M14 9h1M17 9h5M24 9h1M32 9h1M15 10h3M21 10h2M24 10h1M28 10h1M31 10h1M33 10h1M3 11h3M16 11h1M22 11h4M2 12h1M6 12h1M16 12h1M25 12h1M28 12h1M2 13h1M16 13h1M23 13h1M1 14h1M7 14h1M16 14h1M23 14h1M26 14h1M31 14h1M1 15h1M7 15h1M16 15h1M23 15h3M0 16h2M16 16h1M0 17h1M37 17h2M0 18h2M36 18h1M38 18h1M1 19h1M34 19h2M39 19h1M1 20h1M33 20h1M2 21h1M32 21h2M38 21h2M2 22h1M2 23h1M31 23h2M3 24h3M28 24h4M4 25h4M26 25h1M28 25h2M34 25h3M24 26h1M26 26h2M34 26h1M36 26h2M23 27h4M28 27h7M37 27h2M8 28h3M22 28h2M27 28h1M29 28h1M31 28h1M33 28h1M39 28h1M7 29h2M22 29h2M6 30h1M15 30h1M20 30h3M24 30h1M5 31h2M15 31h1M18 31h1M21 31h1M26 31h2M4 32h1M19 32h1M21 32h1M27 32h6M4 33h1M13 33h2M18 33h2M27 33h1M31 33h4M12 34h1M22 34h2M34 34h2M3 35h1M11 35h2M23 35h2M35 35h2M3 36h1M10 36h1M24 36h2M36 36h2M2 37h1M17 37h1M26 37h1M37 37h2M1 38h2M8 38h1M16 38h3M27 38h1M38 38h1M0 39h2M16 39h1M39 39h1" />
<path stroke="#b73af1" d="M24 1h2M20 3h2M31 3h1M16 4h1M20 4h2M23 4h1M15 5h1M17 5h1M25 5h1M31 5h2M34 5h2M15 6h1M18 6h1M25 6h1M31 6h2M34 6h1M18 7h1M28 7h1M33 7h1M35 7h1M16 8h1M23 8h1M33 8h1M16 9h1M23 9h1M27 9h1M29 9h3M23 10h1M25 10h1M27 10h1M29 10h2M36 10h1M26 11h4M31 11h1M35 11h1M23 12h2M27 12h1M29 12h1M31 12h1M7 13h1M25 13h1M28 13h1M30 13h1M32 13h3M24 14h1M27 14h2M30 14h1M27 15h3M0 23h1M1 24h1M27 24h1M2 25h1M3 26h1M13 30h1M23 30h1M12 31h1M20 31h1M24 31h2M14 32h2M25 32h2M22 33h1M29 33h2M3 34h1M18 34h1M28 34h1M18 35h1M10 37h1M9 38h1M25 38h1" />
<path stroke="#c467f8" d="M30 1h1M33 2h1M34 3h1M35 4h1M36 5h1M36 6h1M37 7h1" />
<path stroke="#252402" d="M31 1h1M3 3h1" />
<path stroke="#4e2b06" d="M32 1h1" />
<path stroke="#6b3208" d="M33 1h1" />
<path stroke="#b8480d" d="M34 1h1" />
<path stroke="#cf4f12" d="M35 1h1" />
<path stroke="#b74810" d="M36 1h1" />
<path stroke="#f35d17" d="M37 1h1" />
<path stroke="#f05d16" d="M39 1h1" />
<path stroke="#dc5615" d="M0 2h1" />
<path stroke="#7d380b" d="M1 2h1" />
<path stroke="#392804" d="M2 2h1" />
<path stroke="#73340a" d="M3 2h1" />
<path stroke="#bf4a11" d="M4 2h1" />
<path stroke="#c84c12" d="M5 2h1" />
<path stroke="#ba4811" d="M6 2h1" />
<path stroke="#8a3a0d" d="M7 2h1" />
<path stroke="#bf4911" d="M8 2h1" />
<path stroke="#de5315" d="M9 2h1" />
<path stroke="#9b410f" d="M12 2h1" />
<path stroke="#6c330a" d="M13 2h1" />
<path stroke="#5d2f09" d="M14 2h1" />
<path stroke="#162300" d="M17 2h1" />
<path stroke="#a567f8" d="M21 2h1M25 2h1M28 2h1M23 3h1M30 3h1M17 4h1M19 4h1M22 4h1M25 4h1M29 4h1M31 4h1M33 4h1M16 5h1M27 5h1M29 5h1M33 5h1M21 6h1M24 6h1M26 6h1M28 6h1M12 7h1M14 7h1M17 7h1M20 7h1M23 7h1M30 7h1M32 7h1M22 8h1M26 8h1M28 8h1M25 9h1M33 9h1M35 9h1M26 10h1M32 10h1M34 10h1M30 11h1M33 11h1M26 12h1M32 12h1M34 12h1M24 13h1M27 13h1M29 13h1M25 14h1M27 25h1M25 26h1M27 27h1" />
<path stroke="#9154e8" d="M24 2h1M27 2h1M24 3h2M27 3h2M33 3h1M18 4h1M30 4h1M18 5h2M23 6h1M27 6h1M35 6h1M13 7h1M19 7h1M24 7h1M34 7h1M13 8h2M19 8h2M27 8h1M32 8h1M11 9h1M22 9h1M26 9h1M28 9h1M34 9h1M32 11h1M30 12h1M33 12h1M26 13h1M32 14h1" />
<path stroke="#673108" d="M34 2h1M4 3h1" />
<path stroke="#b84710" d="M35 2h1M36 32h1" />
<path stroke="#cd4e12" d="M36 2h1" />
<path stroke="#ec5b16" d="M37 2h1" />
<path stroke="#f15d16" d="M38 2h1" />
<path stroke="#b3480f" d="M39 2h1" />
<path stroke="#fc6018" d="M0 3h1" />
<path stroke="#d85414" d="M1 3h1" />
<path stroke="#5b2f08" d="M2 3h1" />
<path stroke="#a9430d" d="M5 3h1" />
<path stroke="#683108" d="M6 3h1" />
<path stroke="#312603" d="M7 3h1" />
<path stroke="#6d3309" d="M8 3h1" />
<path stroke="#bf4a10" d="M9 3h1" />
<path stroke="#b64710" d="M10 3h1" />
<path stroke="#ef5b18" d="M11 3h1" />
<path stroke="#e15616" d="M12 3h1M36 28h1" />
<path stroke="#853a0d" d="M13 3h1" />
<path stroke="#5f2f09" d="M14 3h1" />
<path stroke="#322403" d="M15 3h1" />
<path stroke="#8819c7" d="M16 3h1M13 4h1M12 5h1M11 6h1M11 7h1M11 8h1M10 9h1M10 10h1M10 11h1M10 12h2M9 13h2M9 14h2M9 15h1M12 24h1M8 26h1M7 27h1" />
<path stroke="#663107" d="M35 3h1" />
<path stroke="#ac450c" d="M36 3h1" />
<path stroke="#b1460e" d="M37 3h1" />
<path stroke="#ef5c15" d="M38 3h1" />
<path stroke="#f25d17" d="M39 3h1" />
<path stroke="#f65d17" d="M0 4h1" />
<path stroke="#d45113" d="M1 4h1" />
<path stroke="#713309" d="M2 4h1" />
<path stroke="#2d2402" d="M3 4h1" />
<path stroke="#2c2302" d="M4 4h1" />
<path stroke="#462905" d="M5 4h1" />
<path stroke="#262402" d="M6 4h1" />
<path stroke="#1c2200" d="M7 4h1M5 5h1" />
<path stroke="#4c2b05" d="M8 4h1" />
<path stroke="#b2460c" d="M9 4h1" />
<path stroke="#d04f12" d="M10 4h1" />
<path stroke="#f45c19" d="M11 4h1M3 30h1M6 33h1" />
<path stroke="#613007" d="M36 4h1" />
<path stroke="#b3470e" d="M37 4h1" />
<path stroke="#e25913" d="M38 4h1" />
<path stroke="#fb6117" d="M39 4h1" />
<path stroke="#dc5314" d="M0 5h1" />
<path stroke="#d35013" d="M1 5h1M32 39h1" />
<path stroke="#ae430f" d="M2 5h1" />
<path stroke="#5c2906" d="M3 5h1" />
<path stroke="#372200" d="M4 5h1" />
<path stroke="#1b2200" d="M6 5h1M7 6h1" />
<path stroke="#322200" d="M7 5h1" />
<path stroke="#292401" d="M8 5h1" />
<path stroke="#643106" d="M9 5h1" />
<path stroke="#ba490d" d="M10 5h1" />
<path stroke="#e45615" d="M11 5h1" />
<path stroke="#a937e2" d="M13 5h1M13 6h2M36 7h1M12 8h1M35 8h2M12 9h2M15 9h1M12 10h3M18 10h3M15 11h1M17 11h1M21 11h1M34 11h1M4 12h1M22 12h1M22 13h1M31 13h1M22 14h1M29 14h1M22 15h1M26 15h1M5 16h1M22 16h1M27 16h2M0 20h1M38 22h1M10 24h1M11 25h2M6 26h2M11 26h2M35 26h1M36 27h1M13 28h1M26 28h1M28 28h1M30 28h1M32 28h1M38 28h1M15 29h2M24 29h1M14 30h1M17 30h3M25 30h1M14 31h1M16 31h2M13 32h1M18 32h1M22 32h1M24 32h1M12 33h1M20 33h1M23 33h1M25 33h1M28 33h1M11 34h1M19 34h1M29 34h1M10 35h1M9 36h1M17 36h1M8 37h1M16 37h1M7 38h1M15 39h1" />
<path stroke="#502c06" d="M37 5h1" />
<path stroke="#7c390a" d="M38 5h1" />
<path stroke="#d55511" d="M39 5h1" />
<path stroke="#d45013" d="M0 6h1" />
<path stroke="#be4811" d="M1 6h1" />
<path stroke="#783009" d="M2 6h1" />
<path stroke="#482302" d="M3 6h1" />
<path stroke="#262200" d="M4 6h1M8 7h1" />
<path stroke="#132200" d="M5 6h2M9 32h1M10 33h1M13 37h1" />
<path stroke="#152200" d="M8 6h1" />
<path stroke="#2a2301" d="M9 6h1" />
<path stroke="#723309" d="M10 6h1M1 31h1" />
<path stroke="#292502" d="M38 6h1" />
<path stroke="#592f06" d="M39 6h1" />
<path stroke="#be4810" d="M0 7h1" />
<path stroke="#7b3209" d="M1 7h1" />
<path stroke="#502502" d="M2 7h1" />
<path stroke="#462400" d="M3 7h1" />
<path stroke="#2e2400" d="M4 7h1" />
<path stroke="#262400" d="M5 7h1" />
<path stroke="#252300" d="M6 7h1" />
<path stroke="#202200" d="M7 7h1" />
<path stroke="#3c2200" d="M9 7h1" />
<path stroke="#4a2403" d="M10 7h1" />
<path stroke="#733306" d="M0 8h1" />
<path stroke="#5e2d02" d="M1 8h1" />
<path stroke="#582b00" d="M2 8h1M0 12h1" />
<path stroke="#542a00" d="M3 8h1" />
<path stroke="#502a00" d="M4 8h2" />
<path stroke="#4d2800" d="M6 8h1" />
<path stroke="#422200" d="M7 8h1" />
<path stroke="#412100" d="M8 8h1" />
<path stroke="#482300" d="M9 8h1" />
<path stroke="#4a2400" d="M10 8h1" />
<path stroke="#a537e2" d="M37 8h1M36 9h2M35 10h1M36 11h1M35 12h1M30 15h1M26 24h1M8 25h2M25 25h1M10 26h1M28 26h1M33 26h1M38 26h1M39 27h1M24 34h1M31 34h1M33 34h1M34 35h1M19 36h1M25 37h1M36 37h1M26 38h1M7 39h1M27 39h1M38 39h1" />
<path stroke="#572b00" d="M0 9h2" />
<path stroke="#542900" d="M2 9h1" />
<path stroke="#442200" d="M3 9h1" />
<path stroke="#402000" d="M4 9h2" />
<path stroke="#3f1f00" d="M6 9h1M2 10h1M1 11h1" />
<path stroke="#3a1c00" d="M7 9h1" />
<path stroke="#3e1e00" d="M8 9h1" />
<path stroke="#502800" d="M9 9h1" />
<path stroke="#452200" d="M0 10h1" />
<path stroke="#412000" d="M1 10h1" />
<path stroke="#3a1d00" d="M3 10h1M3 22h1" />
<path stroke="#371b00" d="M4 10h2M32 17h1M32 18h1M3 21h1" />
<path stroke="#351a00" d="M6 10h1M34 17h1M33 18h1M11 28h1M10 29h1" />
<path stroke="#2d1600" d="M7 10h1" />
<path stroke="#2f1600" d="M8 10h1" />
<path stroke="#3b1c00" d="M9 10h1M3 18h1" />
<path stroke="#9027cf" d="M11 10h1M11 11h1M30 22h1M28 29h1" />
<path stroke="#8c19c7" d="M37 10h1M37 11h1M36 12h2M35 13h2M34 14h2M31 15h4M29 16h3M28 17h2M29 18h1" />
<path stroke="#532900" d="M0 11h1" />
<path stroke="#9727cf" d="M2 11h1M1 12h1M0 13h1M0 14h1M3 15h1M4 16h1M0 21h1M0 22h2M2 24h1M3 25h1M4 26h2M9 26h1M8 27h1M13 27h1M6 28h1M14 28h2M5 29h1M13 29h2M4 30h1M3 31h1M13 31h1M19 31h1M3 32h1M12 32h1M17 32h1M20 32h1M2 33h1M11 33h1M17 33h1M21 33h1M24 33h1M2 34h1M10 34h1M17 34h1M20 34h2M26 34h2M1 35h1M9 35h1M17 35h1M28 35h1M30 35h1M32 35h1M1 36h1M8 36h1M16 36h1M23 36h1M34 36h1M0 37h1M7 37h1M15 37h1M24 37h1M35 37h1M6 38h1M15 38h1M24 38h1M36 38h1M5 39h2M14 39h1M26 39h1M37 39h1" />
<path stroke="#2b1400" d="M6 11h1M9 11h1M4 13h1M5 15h1M37 20h1M32 24h1M30 26h1" />
<path stroke="#291400" d="M7 11h2M7 12h3M8 13h1M5 14h1M8 14h1M8 15h1M35 15h2M30 20h1M36 20h1M30 21h1M33 23h1M30 25h1M11 30h1M28 31h2M39 31h1M16 32h1M15 33h2M3 38h1M39 38h1M2 39h3M35 39h2" />
<path stroke="#9327cf" d="M12 11h1M35 17h2M34 18h2M32 19h2M32 20h1M31 21h1M31 22h1M27 23h4M11 24h1M10 25h1M33 25h1M32 26h1M24 28h1M34 28h1M25 29h2M30 29h1M32 29h1M22 31h1M23 32h1" />
<path stroke="#000000" d="M13 11h2M18 11h3M12 12h1M15 12h1M17 12h1M21 12h1M11 13h1M15 13h1M17 13h1M21 13h1M11 14h2M15 14h1M17 14h2M21 14h1M10 15h6M17 15h5M9 16h1M11 16h1M14 16h2M17 16h1M20 16h2M23 16h4M9 17h1M12 17h1M15 17h3M21 17h2M27 17h1M8 18h8M17 18h1M20 18h2M24 18h2M28 18h1M7 19h1M16 19h5M26 19h1M29 19h1M6 20h1M9 20h4M25 20h1M27 20h1M29 20h1M6 21h1M8 21h1M13 21h4M24 21h1M29 21h1M7 22h1M10 22h3M14 22h1M17 22h8M27 22h2M8 23h2M12 23h2M15 23h1M23 23h1M26 23h1M14 24h1M16 24h1M23 24h1M25 24h1M15 25h1M17 25h1M22 25h1M24 25h1M15 26h1M17 26h1M21 26h1M23 26h1M16 27h1M18 27h3M22 27h1M17 28h1M21 28h1M18 29h3" />
<path stroke="#80380d" d="M38 11h1" />
<path stroke="#f4adf8" d="M3 12h1M5 12h1M1 13h1M6 14h1M0 15h1M4 15h1M6 16h1M1 17h1M37 18h1M39 18h1M0 19h1M36 19h1M34 20h1M39 20h1M1 21h1M37 21h1M32 22h1M39 22h1M1 23h1M3 23h1M35 27h1M37 28h1M9 29h1M39 29h1M7 30h1M5 32h1M4 34h1M3 37h1" />
<path stroke="#ffbc01" d="M13 12h2M18 12h3" />
<path stroke="#df5617" d="M38 12h1" />
<path stroke="#833a0e" d="M39 12h1" />
<path stroke="#331800" d="M3 13h1" />
<path stroke="#8419c7" d="M5 13h2M6 15h1M10 23h2M13 24h1M14 25h1M15 27h1M16 28h1M17 29h1" />
<path stroke="#ffbd01" d="M12 13h3M18 13h3M13 17h2M18 17h3" />
<path stroke="#c44b12" d="M37 13h1" />
<path stroke="#e45816" d="M38 13h1" />
<path stroke="#ea5a18" d="M39 13h1" />
<path stroke="#572a00" d="M2 14h1M5 17h1" />
<path stroke="#512700" d="M3 14h1" />
<path stroke="#321800" d="M4 14h1" />
<path stroke="#fff201" d="M13 14h1M18 18h2" />
<path stroke="#fff001" d="M14 14h1M19 14h2M12 16h2M18 16h2" />
<path stroke="#a367f8" d="M33 14h1M13 26h1M10 27h1M21 29h1M16 30h1M23 31h1" />
<path stroke="#351802" d="M36 14h1" />
<path stroke="#5b2706" d="M37 14h1" />
<path stroke="#80370b" d="M38 14h1" />
<path stroke="#d85413" d="M39 14h1" />
<path stroke="#5b2c00" d="M2 15h1" />
<path stroke="#291700" d="M37 15h1M33 24h1" />
<path stroke="#2e2203" d="M38 15h1" />
<path stroke="#5a2e08" d="M39 15h1" />
<path stroke="#522800" d="M2 16h1" />
<path stroke="#562a00" d="M3 16h1M4 17h1" />
<path stroke="#522005" d="M7 16h1" />
<path stroke="#341702" d="M8 16h1" />
<path stroke="#ff8a00" d="M10 16h1M10 17h2M23 17h4M16 18h1M22 18h2M26 18h2M8 19h8M21 19h5M27 19h2M7 20h2M13 20h12M26 20h1M28 20h1M7 21h1M9 21h4M17 21h7M25 21h4M8 22h2M13 22h1M25 22h2M14 23h1M24 23h2M15 24h1M24 24h1M16 25h1M23 25h1M16 26h1M22 26h1M17 27h1M21 27h1M18 28h3" />
<path stroke="#2c1500" d="M32 16h5M35 21h2M38 23h2M29 26h1M27 30h3" />
<path stroke="#2b1500" d="M37 16h1M2 18h1M31 20h1M35 20h1M29 22h1M33 22h1M31 25h1M30 30h1" />
<path stroke="#271900" d="M38 16h1M34 23h1" />
<path stroke="#172100" d="M39 16h1M2 26h1M14 38h1" />
<path stroke="#341900" d="M2 17h1M3 19h1" />
<path stroke="#3d1d00" d="M3 17h1" />
<path stroke="#6f3007" d="M6 17h1" />
<path stroke="#ab410f" d="M7 17h1" />
<path stroke="#572207" d="M8 17h1" />
<path stroke="#4f2203" d="M30 17h1" />
<path stroke="#3e1d01" d="M31 17h1" />
<path stroke="#361a00" d="M33 17h1" />
<path stroke="#1a2100" d="M39 17h1M4 27h1" />
<path stroke="#572900" d="M4 18h1" />
<path stroke="#612e02" d="M5 18h1" />
<path stroke="#883809" d="M6 18h1" />
<path stroke="#bb4710" d="M7 18h1" />
<path stroke="#873507" d="M30 18h1" />
<path stroke="#502203" d="M31 18h1" />
<path stroke="#2a1400" d="M2 19h1M31 26h1" />
<path stroke="#562802" d="M4 19h1" />
<path stroke="#843709" d="M5 19h1" />
<path stroke="#c24911" d="M6 19h1" />
<path stroke="#481d03" d="M30 19h1" />
<path stroke="#341701" d="M31 19h1" />
<path stroke="#331900" d="M37 19h1M34 22h1M32 25h1" />
<path stroke="#4e2203" d="M38 19h1" />
<path stroke="#2e1600" d="M2 20h1M34 21h1M11 29h1" />
<path stroke="#2d1500" d="M3 20h1" />
<path stroke="#5c2507" d="M4 20h1" />
<path stroke="#bd4710" d="M5 20h1" />
<path stroke="#331701" d="M38 20h1" />
<path stroke="#622807" d="M4 21h1" />
<path stroke="#c84b12" d="M5 21h1M5 22h1M5 23h1" />
<path stroke="#642907" d="M4 22h1M4 23h1" />
<path stroke="#d65013" d="M6 22h1" />
<path stroke="#6e077c" d="M15 22h2M16 23h3M22 23h1M17 24h1M21 24h2M20 25h2M18 26h3" />
<path stroke="#331b00" d="M35 22h2" />
<path stroke="#341a00" d="M37 22h1" />
<path stroke="#cf4e12" d="M6 23h1" />
<path stroke="#953c0c" d="M7 23h1" />
<path stroke="#fc809a" d="M19 23h3M18 24h3M18 25h2" />
<path stroke="#1e2000" d="M35 23h1M5 27h1" />
<path stroke="#1f2000" d="M36 23h1M9 30h1" />
<path stroke="#2a1700" d="M37 23h1" />
<path stroke="#512800" d="M0 24h1" />
<path stroke="#d34f13" d="M6 24h1M35 30h1M35 32h1M32 38h1" />
<path stroke="#b0430f" d="M7 24h1" />
<path stroke="#572406" d="M8 24h1" />
<path stroke="#301700" d="M9 24h1" />
<path stroke="#1a1f00" d="M34 24h1M31 31h1M14 37h1" />
<path stroke="#5e2f09" d="M36 24h1M13 39h1" />
<path stroke="#6a2b0a" d="M37 24h1" />
<path stroke="#6b2a0a" d="M38 24h2" />
<path stroke="#321b00" d="M0 25h1" />
<path stroke="#292200" d="M1 25h1" />
<path stroke="#9a27cf" d="M13 25h1M14 26h1M14 27h1" />
<path stroke="#ec5a18" d="M37 25h1" />
<path stroke="#ec5918" d="M38 25h2" />
<path stroke="#632909" d="M0 26h1" />
<path stroke="#2f2203" d="M1 26h1" />
<path stroke="#eb5a18" d="M39 26h1" />
<path stroke="#de5316" d="M0 27h1" />
<path stroke="#87340d" d="M1 27h1" />
<path stroke="#622909" d="M2 27h1" />
<path stroke="#2f2303" d="M3 27h1" />
<path stroke="#351d01" d="M6 27h1" />
<path stroke="#ac37e2" d="M9 27h1M11 27h2M7 28h1M6 29h1M5 30h1M4 31h1M3 33h1M2 35h1M2 36h1M1 37h1M0 38h1" />
<path stroke="#f75e19" d="M0 28h1" />
<path stroke="#eb5817" d="M1 28h1" />
<path stroke="#dd5316" d="M2 28h1" />
<path stroke="#83340c" d="M3 28h1M4 29h1" />
<path stroke="#302303" d="M4 28h1" />
<path stroke="#142200" d="M5 28h1" />
<path stroke="#471f01" d="M12 28h1" />
<path stroke="#f0adf8" d="M25 28h1M25 39h1" />
<path stroke="#f65d18" d="M35 28h1" />
<path stroke="#d04e13" d="M0 29h1" />
<path stroke="#e05414" d="M1 29h1" />
<path stroke="#f45c18" d="M2 29h1M7 34h1" />
<path stroke="#e15516" d="M3 29h1" />
<path stroke="#311700" d="M12 29h1" />
<path stroke="#f2adf8" d="M27 29h1M19 35h1M22 35h1M9 37h1M23 37h1" />
<path stroke="#f3adf8" d="M29 29h1M31 29h1M26 33h1M13 34h1M30 34h1M32 34h1M29 35h1M31 35h1M33 35h1M11 36h1M35 36h1M18 37h1M37 38h1M8 39h1M17 39h1" />
<path stroke="#e95917" d="M34 29h1" />
<path stroke="#db5314" d="M35 29h1" />
<path stroke="#9a3f0c" d="M36 29h1" />
<path stroke="#3e2804" d="M37 29h1" />
<path stroke="#192000" d="M38 29h1" />
<path stroke="#6d3208" d="M0 30h1" />
<path stroke="#b9480d" d="M1 30h1" />
<path stroke="#df5414" d="M2 30h1" />
<path stroke="#192200" d="M8 30h1M9 31h1" />
<path stroke="#2b1800" d="M10 30h1" />
<path stroke="#271500" d="M12 30h1M4 37h1M28 39h1" />
<path stroke="#381901" d="M26 30h1" />
<path stroke="#241900" d="M31 30h1" />
<path stroke="#5d2e08" d="M32 30h1" />
<path stroke="#db5515" d="M33 30h1" />
<path stroke="#f55d18" d="M34 30h1" />
<path stroke="#ba4710" d="M36 30h1" />
<path stroke="#522a07" d="M37 30h1" />
<path stroke="#241800" d="M38 30h1M14 35h1" />
<path stroke="#281400" d="M39 30h1M14 34h1M39 37h1M4 38h1M24 39h1" />
<path stroke="#4f2b05" d="M0 31h1" />
<path stroke="#cb4d12" d="M2 31h1" />
<path stroke="#2d1c00" d="M10 31h1" />
<path stroke="#2a1500" d="M11 31h1" />
<path stroke="#261600" d="M30 31h1M39 32h1M16 34h1M15 36h1M18 39h5" />
<path stroke="#653109" d="M32 31h1" />
<path stroke="#b24510" d="M35 31h1" />
<path stroke="#bd4811" d="M36 31h1" />
<path stroke="#572b07" d="M37 31h1" />
<path stroke="#261700" d="M38 31h1" />
<path stroke="#983d0b" d="M0 32h1" />
<path stroke="#6e2e08" d="M1 32h1" />
<path stroke="#b94610" d="M2 32h1" />
<path stroke="#df5616" d="M6 32h1M7 33h1M8 34h1" />
<path stroke="#7d370c" d="M7 32h1" />
<path stroke="#1b2000" d="M10 32h1" />
<path stroke="#251800" d="M11 32h1" />
<path stroke="#ed5b18" d="M33 32h1" />
<path stroke="#f55c19" d="M34 32h1" />
<path stroke="#502a07" d="M37 32h1" />
<path stroke="#231800" d="M38 32h1" />
<path stroke="#4a2804" d="M0 33h1" />
<path stroke="#452203" d="M1 33h1" />
<path stroke="#e25415" d="M5 33h1" />
<path stroke="#7e380c" d="M8 33h1M9 34h1" />
<path stroke="#d15012" d="M35 33h1" />
<path stroke="#8a3b0a" d="M36 33h1" />
<path stroke="#352603" d="M37 33h1" />
<path stroke="#142000" d="M38 33h1M39 35h1M20 37h1M27 37h1M29 37h1" />
<path stroke="#152000" d="M39 33h1M0 36h1M13 36h1M21 38h2" />
<path stroke="#112100" d="M0 34h1M28 37h1" />
<path stroke="#3a2503" d="M1 34h1" />
<path stroke="#c94c11" d="M5 34h1" />
<path stroke="#df5314" d="M6 34h1" />
<path stroke="#261500" d="M15 34h1M5 38h1M35 38h1M23 39h1" />
<path stroke="#ca530b" d="M25 34h1" />
<path stroke="#bc4f0a" d="M36 34h1" />
<path stroke="#502d04" d="M37 34h1" />
<path stroke="#102200" d="M38 34h2M0 35h1M21 36h2M26 36h4M21 37h2" />
<path stroke="#512a05" d="M4 35h1" />
<path stroke="#6d3107" d="M5 35h1" />
<path stroke="#b7460c" d="M6 35h1" />
<path stroke="#d14e13" d="M7 35h1" />
<path stroke="#e75717" d="M8 35h1" />
<path stroke="#181f00" d="M13 35h1" />
<path stroke="#1c1c00" d="M15 35h1M5 37h1" />
<path stroke="#1a1e00" d="M16 35h1M6 37h1" />
<path stroke="#5f3105" d="M20 35h2M25 35h3" />
<path stroke="#272401" d="M37 35h1" />
<path stroke="#102100" d="M38 35h1M20 36h1" />
<path stroke="#251600" d="M4 36h1" />
<path stroke="#2f1b01" d="M5 36h1" />
<path stroke="#512404" d="M6 36h1" />
<path stroke="#5c2607" d="M7 36h1" />
<path stroke="#231900" d="M14 36h1" />
<path stroke="#b33af1" d="M18 36h1" />
<path stroke="#e85916" d="M31 36h1" />
<path stroke="#ed5a17" d="M32 36h1" />
<path stroke="#d95214" d="M33 36h1" />
<path stroke="#181e00" d="M38 36h1M23 38h1" />
<path stroke="#241700" d="M39 36h1" />
<path stroke="#5e2e09" d="M12 37h1" />
<path stroke="#211a00" d="M19 37h1" />
<path stroke="#653008" d="M30 37h1" />
<path stroke="#dc5515" d="M31 37h1" />
<path stroke="#b54710" d="M32 37h1" />
<path stroke="#c14911" d="M33 37h1" />
<path stroke="#703109" d="M34 37h1" />
<path stroke="#ee5b18" d="M10 38h1" />
<path stroke="#ef5b19" d="M11 38h1" />
<path stroke="#86360d" d="M12 38h1" />
<path stroke="#2d2403" d="M13 38h1" />
<path stroke="#191e00" d="M19 38h1" />
<path stroke="#151f00" d="M20 38h1" />
<path stroke="#1b1d00" d="M28 38h1" />
<path stroke="#341b03" d="M29 38h1" />
<path stroke="#85350d" d="M30 38h1" />
<path stroke="#e65717" d="M31 38h1" />
<path stroke="#bb4610" d="M33 38h1" />
<path stroke="#562407" d="M34 38h1" />
<path stroke="#6a2a08" d="M9 39h1" />
<path stroke="#eb5917" d="M10 39h1" />
<path stroke="#fd601a" d="M11 39h1" />
<path stroke="#dd5416" d="M12 39h1" />
<path stroke="#632708" d="M29 39h1" />
<path stroke="#dc5315" d="M30 39h1" />
<path stroke="#f75d18" d="M31 39h1" />
<path stroke="#843609" d="M33 39h1" />
<path stroke="#3c1b02" d="M34 39h1" />
</svg>