<svg xmlns="http://www.w3.org/2000/svg" viewBox="0 -0.5 40 40" shape-rendering="crispEdges">
<metadata>Made with Pixels to Svg https://codepen.io/shshaw/pen/XbxvNj</metadata>
<path stroke="#de00ff" d="M0 0h9M0 1h7M34 1h4M0 2h6M33 2h4M0 3h5M35 3h1M0 4h4M34 4h1M0 5h3M0 6h1M32 6h1M0 7h1M29 7h3M30 8h1M10 23h2M9 24h5M8 25h7M7 26h7M6 27h7M9 28h3M10 29h1M0 32h1M0 33h2M0 34h3M0 35h4M0 36h4M0 37h3M0 38h3M0 39h3" />
<path stroke="#e02afa" d="M9 0h1M5 3h1M4 4h1M3 5h1M0 8h1" />
<path stroke="#e97ad3" d="M10 0h1" />
<path stroke="#09980e" d="M11 0h1M17 0h2M25 0h1M11 1h2M18 1h1M24 1h2M6 2h1M11 2h2M17 2h2M21 2h3M6 3h3M17 3h1M21 3h2M24 3h1M31 3h3M7 4h2M15 4h1M17 4h2M21 4h1M24 4h1M30 4h2M11 5h1M15 5h1M18 5h4M23 5h2M28 5h3M3 6h3M10 6h1M12 6h1M19 6h1M23 6h1M27 6h3M1 7h2M4 7h3M11 7h2M26 7h2M6 8h3M11 8h1M25 8h1M8 9h3M32 9h4M3 10h1M5 10h2M8 10h1M28 10h2M31 10h3M2 11h3M27 11h5M1 12h3" />
<path stroke="#ffdc00" d="M12 0h2M15 0h2M20 0h3M13 1h1M15 1h3M16 2h1M10 3h3M11 4h1M13 4h2M7 5h2M14 5h1M8 6h2M8 7h1M4 8h2M39 8h1M3 9h3M38 9h2M2 10h1M37 10h3M0 11h2M6 11h1M36 11h4M0 12h1M6 12h2M34 12h6M0 13h1M5 13h2M37 13h3M0 14h5M32 14h4M38 14h2M0 15h4M33 15h7M0 16h3M34 16h6M0 17h3M29 17h2M35 17h5M0 18h3M29 18h4M35 18h5M0 19h2M30 19h10M0 20h1M30 20h10M30 21h8M29 22h8M27 23h9M26 24h9M25 25h9M24 26h9M23 27h9M23 28h8M16 29h3M23 29h7M14 30h3M26 30h3M13 31h3M27 31h1M12 32h4M11 33h5M10 34h5M10 35h4M11 36h2M11 37h1M38 37h2M37 38h3M36 39h4" />
<path stroke="#06f115" d="M14 0h1M19 0h1M32 0h2M7 1h3M14 1h1M19 1h2M26 1h3M31 1h2M8 2h2M15 2h1M19 2h2M26 2h2M31 2h2M9 3h1M16 3h1M20 3h1M26 3h1M28 3h3M12 4h1M16 4h1M20 4h1M25 4h5M12 5h2M16 5h2M22 5h1M27 5h1M31 5h5M6 6h2M13 6h2M16 6h2M26 6h1M30 6h2M3 7h1M7 7h1M9 7h2M13 7h2M23 7h1M28 7h1M32 7h3M31 8h7M6 9h2M29 9h3M36 9h2M9 10h1M30 10h1M5 11h1M4 12h2M1 13h4" />
<path stroke="#fed830" d="M23 0h1M19 3h1M6 5h1M2 9h1M1 10h1M36 10h1M35 11h1M31 14h1M29 16h1M3 18h1M2 19h1M0 21h1M38 21h1M37 22h1M35 24h1M34 25h1M33 26h1M32 27h1M15 29h1M30 29h1M13 30h1M29 30h1M12 31h1M28 31h1M27 32h1M9 34h1M39 36h1" />
<path stroke="#f5b68d" d="M24 0h1M39 6h1M33 11h1M13 29h1M39 35h1" />
<path stroke="#da00ff" d="M26 0h2M22 4h1M0 24h1" />
<path stroke="#db00ff" d="M28 0h4M39 0h1M29 1h2M39 1h1M25 2h1M28 2h3M39 2h1M25 3h1M27 3h1M38 3h2M37 4h3M36 5h2M35 6h2M35 7h1M6 19h1M5 20h1M4 21h2M3 22h4M2 23h6M1 24h3M5 24h2M39 24h1M0 25h3M38 25h2M0 26h3M37 26h3M0 27h3M36 27h4M0 28h2M35 28h5M0 29h1M34 29h6M33 30h7M32 31h8M31 32h9M30 33h10M30 34h8M32 35h4M33 36h2M33 37h1" />
<path stroke="#dc00ff" d="M34 0h2M38 0h1M38 1h1M38 2h1M37 3h1M36 4h1M34 6h1M7 24h1M6 25h1M0 30h1" />
<path stroke="#dd00ff" d="M36 0h2M33 1h1M37 2h1M36 3h1M35 4h1M33 6h1M8 24h1M7 25h1M6 26h1M14 26h1M13 27h1M0 31h1" />
<path stroke="#f7bb85" d="M10 1h1M5 5h1M38 7h1M1 9h1M35 10h1M31 13h1M37 23h1M36 24h1M35 25h1M34 26h1M15 28h1M32 28h1M31 29h1M30 30h1M11 31h1M29 31h1M10 32h1M9 33h1M27 33h1M36 37h1M35 38h1" />
<path stroke="#fed831" d="M21 1h1M10 2h1M39 7h1M3 8h1M38 8h1M6 16h1M1 20h1M36 23h1M16 28h1M31 28h1M11 32h1M10 33h1M37 37h1M5 38h1M36 38h1M35 39h1" />
<path stroke="#fbca65" d="M22 1h1" />
<path stroke="#f5b68e" d="M23 1h1" />
<path stroke="#e02afb" d="M7 2h1" />
<path stroke="#06f113" d="M13 2h2M24 2h1M13 3h3M18 3h1M23 3h1M34 3h1M9 4h2M23 4h1M32 4h2M9 5h2M25 5h1M1 6h2M11 6h1M15 6h1M22 6h1M24 6h2M15 7h1M20 7h1M24 7h1M9 8h2M14 8h1M26 8h2M29 8h1M24 9h1M26 9h1M28 9h1M4 10h1M7 10h1M27 10h1M26 11h1M28 12h6M26 13h3M32 13h4M6 14h1M5 15h1M4 16h1" />
<path stroke="#e873d9" d="M5 4h1M4 5h1M1 8h1" />
<path stroke="#f6b68d" d="M6 4h1" />
<path stroke="#f6bb85" d="M19 4h1M4 18h1M3 19h1M2 20h1M1 21h1" />
<path stroke="#09980d" d="M26 5h1M16 7h1M19 7h1M21 7h2M25 7h1M13 8h1M23 8h2M28 8h1M27 9h1M25 10h2M25 11h1M26 12h2M5 14h1M28 14h2M4 15h1M6 15h1M30 15h1M3 16h1M5 16h1M30 16h2M3 17h2M31 17h2M34 18h1" />
<path stroke="#dd2afa" d="M38 5h1M37 6h1M29 13h1M39 23h1M36 26h1M35 27h1M34 28h1M31 31h1M30 32h1M29 33h1M38 34h1M36 35h1M35 36h1" />
<path stroke="#e256ea" d="M39 5h1M13 28h1M39 34h1" />
<path stroke="#e673d9" d="M18 6h1M38 6h1M37 7h1M30 13h1M4 19h1M3 20h1M1 22h1M38 23h1M36 25h1M35 26h1M33 28h1M31 30h1M30 31h1M28 33h1M36 36h1M34 38h1" />
<path stroke="#06f111" d="M20 6h2M17 7h2M25 9h1M7 11h3M36 13h1M30 14h1M36 14h2M29 15h1M31 15h2M32 16h2M33 17h2M33 18h1" />
<path stroke="#dd29fb" d="M36 7h1M14 27h1M34 37h1" />
<path stroke="#f7bc85" d="M2 8h1" />
<path stroke="#000000" d="M12 8h1M11 9h3M18 9h4M10 10h1M22 10h1M10 11h5M18 11h3M8 12h3M15 12h3M20 12h2M7 13h1M14 13h2M21 13h1M7 14h1M13 14h1M21 14h1M7 15h1M9 15h1M13 15h1M21 15h1M28 15h1M7 16h1M13 16h1M15 16h1M21 16h1M23 16h4M28 16h1M8 17h1M13 17h1M21 17h2M27 17h2M8 18h6M20 18h2M24 18h2M28 18h1M7 19h1M14 19h7M26 19h1M29 19h1M6 20h1M9 20h4M25 20h1M27 20h1M29 20h1M6 21h1M8 21h1M13 21h4M24 21h1M29 21h1M7 22h1M10 22h3M14 22h1M17 22h8M27 22h2M8 23h2M12 23h2M15 23h1M23 23h1M26 23h1M4 24h1M14 24h1M16 24h1M23 24h1M25 24h1M3 25h1M5 25h1M15 25h1M17 25h1M22 25h1M24 25h1M3 26h1M5 26h1M15 26h1M17 26h1M21 26h1M23 26h1M3 27h1M5 27h1M16 27h1M18 27h3M22 27h1M2 28h2M5 28h4M17 28h1M21 28h2M1 29h1M3 29h1M5 29h1M9 29h1M19 29h1M22 29h1M1 30h1M3 30h1M5 30h1M7 30h1M9 30h1M17 30h2M22 30h1M24 30h2M1 31h1M7 31h1M9 31h1M16 31h1M23 31h2M1 32h1M8 32h1M18 32h1M22 32h4M2 33h1M8 33h1M17 33h3M21 33h2M24 33h1M26 33h1M3 34h1M8 34h1M15 34h1M18 34h6M27 34h3M4 35h1M7 35h1M9 35h1M14 35h2M30 35h2M5 36h3M10 36h1M13 36h1M32 36h1M5 37h1M12 37h1M32 37h1M6 38h1M11 38h2M16 38h1M28 38h1M33 38h1M6 39h1M12 39h1M15 39h2M28 39h2M33 39h1" />
<path stroke="#09980a" d="M15 8h2" />
<path stroke="#ffffff" d="M17 8h6M14 9h4M22 9h2M11 10h6M23 10h2M15 11h2M22 11h3M11 12h3M18 12h2M23 12h3M8 13h5M16 13h2M20 13h1M23 13h1M25 13h1M10 14h2M14 14h3M18 14h1M23 14h1M25 14h3M11 15h2M16 15h3M20 15h1M23 15h1M25 15h3M11 16h2M17 16h1M19 16h2M27 16h1M9 17h3M17 17h3M14 18h5M4 25h1M4 26h1M4 27h1M4 28h1M2 29h1M4 29h1M6 29h3M2 30h1M4 30h1M6 30h1M8 30h1M20 30h2M2 31h5M8 31h1M19 31h3M25 31h1M2 32h6M17 32h1M3 33h4M20 33h1M23 33h1M16 35h13M9 36h1M15 36h1M30 36h1M9 37h1M13 37h1M16 37h14M31 37h1M7 38h3M14 38h1M30 38h2M11 39h1M17 39h11" />
<path stroke="#e97bd3" d="M0 9h1" />
<path stroke="#fbcb63" d="M0 10h1M34 11h1M14 29h1M38 36h1" />
<path stroke="#d8d8d8" d="M17 10h5M17 11h1M21 11h1M22 12h1M22 13h1M24 13h1M22 14h1M24 14h1M22 15h1M24 15h1M22 16h1M12 17h1M20 17h1M19 18h1M20 29h2M7 33h1M4 34h4M5 35h2" />
<path stroke="#e87bd3" d="M34 10h1M39 22h1M14 28h1M38 35h1" />
<path stroke="#e673d8" d="M32 11h1M34 27h1M29 32h1" />
<path stroke="#ff4545" d="M14 12h1M13 13h1M18 13h2M12 14h1M17 14h1M19 14h2M19 15h1M18 16h1" />
<path stroke="#ff9602" d="M8 14h1M8 15h1M15 15h1M16 16h1" />
<path stroke="#ff9702" d="M9 14h1M10 15h1" />
<path stroke="#ff9802" d="M14 15h1M9 16h2M14 16h1M15 17h2" />
<path stroke="#ffd100" d="M8 16h1M14 17h1" />
<path stroke="#fbcb64" d="M5 17h1" />
<path stroke="#f5b78e" d="M6 17h1M0 22h1" />
<path stroke="#e673da" d="M7 17h1" />
<path stroke="#ff8a00" d="M23 17h4M22 18h2M26 18h2M8 19h6M21 19h5M27 19h2M7 20h2M13 20h12M26 20h1M28 20h1M7 21h1M9 21h4M17 21h7M25 21h4M8 22h2M13 22h1M25 22h2M14 23h1M24 23h2M15 24h1M24 24h1M16 25h1M23 25h1M16 26h1M22 26h1M17 27h1M21 27h1M18 28h3" />
<path stroke="#e77ad3" d="M5 18h1" />
<path stroke="#e156ea" d="M6 18h1" />
<path stroke="#dc29fb" d="M7 18h1" />
<path stroke="#dc2afa" d="M5 19h1M4 20h1M2 22h1" />
<path stroke="#e672da" d="M2 21h1M37 24h1M15 27h1M32 29h1M35 37h1" />
<path stroke="#dc2afb" d="M3 21h1M1 23h1" />
<path stroke="#fbca64" d="M39 21h1" />
<path stroke="#ff0000" d="M15 22h2M16 23h3M22 23h1M17 24h1M21 24h2M20 25h2M18 26h3M16 34h1M25 34h2M8 35h1M29 35h1M8 36h1M14 36h1M16 36h14M31 36h1M6 37h3M10 37h1M14 37h2M30 37h1M10 38h1M13 38h1M15 38h1M17 38h11M29 38h1M32 38h1M7 39h4M13 39h2M30 39h3" />
<path stroke="#f7bc84" d="M38 22h1M33 27h1M12 30h1M28 32h1" />
<path stroke="#e156eb" d="M0 23h1" />
<path stroke="#fc809a" d="M19 23h3M18 24h3M18 25h2" />
<path stroke="#dd2afb" d="M38 24h1M33 29h1" />
<path stroke="#dd29fa" d="M37 25h1M32 30h1" />
<path stroke="#de2afa" d="M12 28h1M11 29h1M10 30h1" />
<path stroke="#e773d8" d="M12 29h1" />
<path stroke="#e773d9" d="M11 30h1M10 31h1" />
<path stroke="#242323" d="M19 30h1M23 30h1M17 31h2M22 31h1M26 31h1M16 32h1M19 32h3M26 32h1M16 33h1M25 33h1M17 34h1M24 34h1" />
<path stroke="#e772da" d="M9 32h1M4 37h1" />
<path stroke="#e257ea" d="M37 35h1" />
<path stroke="#df2afa" d="M4 36h1" />
<path stroke="#f6b78d" d="M37 36h1" />
<path stroke="#de29fb" d="M3 37h1" />
<path stroke="#e256eb" d="M3 38h1" />
<path stroke="#f5b58e" d="M4 38h1M34 39h1" />
<path stroke="#e35ee6" d="M3 39h1" />
<path stroke="#f9c470" d="M4 39h1" />
<path stroke="#ffdc01" d="M5 39h1" />
</svg>