<svg xmlns="http://www.w3.org/2000/svg" viewBox="0 -0.5 40 40" shape-rendering="crispEdges">
<metadata>Made with Pixels to Svg https://codepen.io/shshaw/pen/XbxvNj</metadata>
<path stroke="#ffc800" d="M0 0h12M32 0h8M0 1h9M33 1h7M0 2h8M34 2h6M0 3h7M35 3h5M0 4h5M35 4h5M0 5h4M36 5h4M0 6h3M37 6h3M0 7h2M37 7h3M0 8h2M38 8h2M0 9h1M39 9h1M0 10h1M39 10h1M39 11h1M0 26h1M0 27h1M0 28h1M0 29h2M0 30h2M39 30h1M0 31h3M39 31h1M0 32h4M38 32h2M0 33h4M38 33h2M0 34h5M37 34h3M0 35h6M36 35h4M0 36h7M35 36h5M0 37h9M35 37h5M0 38h11M34 38h6M0 39h12M34 39h6" />
<path stroke="#ffde00" d="M12 0h6M9 1h8M8 2h10M7 3h4M12 3h5M5 4h7M13 4h3M4 5h9M14 5h1M35 5h1M3 6h8M13 6h1M35 6h2M2 7h8M11 7h2M26 7h2M34 7h3M2 8h10M24 8h5M33 8h5M1 9h11M25 9h14M1 10h11M26 10h13M0 11h11M27 11h12M0 12h11M28 12h12M0 13h11M29 13h11M0 14h11M30 14h10M0 15h5M8 15h2M31 15h9M0 16h5M8 16h1M29 16h1M32 16h8M0 17h5M29 17h2M33 17h7M0 18h6M29 18h2M33 18h7M0 19h7M30 19h2M34 19h6M0 20h6M30 20h2M35 20h5M0 21h6M30 21h2M35 21h5M0 22h7M29 22h3M35 22h5M0 23h8M10 23h2M27 23h5M36 23h4M0 24h7M9 24h5M26 24h7M36 24h4M0 25h7M9 25h6M25 25h8M36 25h4M1 26h6M8 26h7M24 26h9M36 26h4M1 27h5M8 27h8M23 27h10M37 27h3M1 28h5M8 28h9M23 28h10M37 28h3M2 29h3M8 29h11M23 29h10M37 29h3M2 30h3M8 30h10M24 30h10M36 30h3M3 31h2M8 31h9M25 31h14M4 32h1M8 32h8M26 32h12M4 33h1M7 33h9M27 33h11M5 34h10M30 34h7M6 35h8M32 35h4M7 36h6M33 36h2M9 37h3M33 37h2M11 38h1" />
<path stroke="#000000" d="M18 0h1M27 0h1M29 0h3M17 1h1M19 1h3M28 1h1M32 1h1M18 2h1M22 2h2M33 2h1M11 3h1M17 3h3M23 3h2M34 3h1M12 4h1M16 4h1M20 4h1M24 4h2M34 4h1M13 5h1M15 5h1M25 5h1M34 5h1M11 6h2M14 6h3M18 6h4M26 6h2M34 6h1M10 7h1M13 7h10M24 7h2M28 7h1M33 7h1M12 8h12M29 8h4M12 9h13M12 10h14M11 11h3M16 11h2M20 11h7M11 12h2M16 12h1M21 12h7M11 13h1M16 13h1M22 13h7M11 14h1M16 14h1M22 14h8M5 15h3M10 15h2M14 15h3M19 15h2M22 15h9M5 16h3M9 16h1M11 16h1M14 16h3M19 16h2M22 16h7M30 16h2M5 17h5M12 17h1M14 17h4M19 17h2M22 17h1M27 17h2M31 17h2M6 18h10M17 18h1M19 18h3M24 18h2M28 18h1M31 18h2M7 19h1M17 19h4M26 19h1M29 19h1M32 19h2M6 20h1M9 20h4M25 20h1M27 20h1M29 20h1M32 20h3M6 21h1M8 21h1M13 21h4M24 21h1M29 21h1M32 21h3M7 22h1M11 22h2M17 22h8M27 22h2M32 22h3M8 23h2M12 23h1M15 23h1M23 23h1M26 23h1M32 23h4M7 24h2M14 24h1M16 24h1M23 24h1M25 24h1M33 24h3M7 25h2M15 25h1M17 25h1M22 25h1M24 25h1M33 25h3M7 26h1M15 26h1M17 26h1M21 26h1M23 26h1M33 26h3M6 27h2M16 27h1M18 27h3M22 27h1M33 27h4M6 28h2M17 28h1M21 28h2M33 28h4M5 29h3M19 29h4M33 29h4M5 30h3M18 30h1M20 30h2M23 30h1M34 30h2M5 31h3M17 31h1M24 31h1M5 32h3M16 32h1M18 32h1M23 32h1M25 32h1M5 33h2M16 33h2M19 33h4M26 33h1M15 34h3M26 34h4M14 35h2M17 35h2M26 35h2M30 35h2M13 36h1M17 36h2M26 36h2M31 36h2M12 37h1M17 37h2M26 37h2M32 37h1M12 38h1M16 38h3M26 38h3M33 38h1M12 39h1M15 39h4M26 39h4M33 39h1" />
<path stroke="#00dc15" d="M19 0h3M24 0h3M28 0h1M26 1h2M29 1h3M19 2h2M26 2h7M20 3h3M27 3h7M17 4h3M21 4h3M27 4h7M16 5h9M26 5h8M17 6h1M22 6h3M28 6h6M23 7h1M29 7h4" />
<path stroke="#00dc13" d="M22 0h2M18 1h1M22 1h4M21 2h1M24 2h2M25 3h2M26 4h1M25 6h1" />
<path stroke="#ffffff" d="M14 11h2M18 11h2M13 12h3M17 12h4M12 13h4M17 13h5M12 14h4M17 14h5M12 15h2M17 15h2M21 15h1M12 16h2M17 16h2M21 16h1M13 17h1M18 17h1M21 17h1M18 18h1M9 21h2M9 22h2M13 22h2M13 23h2" />
<path stroke="#ff9300" d="M10 16h1M10 17h2M23 17h4M16 18h1M22 18h2M26 18h2M8 19h8M21 19h5M27 19h2M7 20h2M13 20h12M26 20h1M28 20h1M7 21h1M11 21h2M17 21h7M25 21h4M8 22h1M25 22h2M24 23h2M15 24h1M24 24h1M16 25h1M23 25h1M16 26h1M22 26h1M17 27h1M21 27h1M18 28h3" />
<path stroke="#ff9f00" d="M16 19h1" />
<path stroke="#ff0000" d="M15 22h2M16 23h3M22 23h1M17 24h1M21 24h2M20 25h2M18 26h3" />
<path stroke="#fc809a" d="M19 23h3M18 24h3M18 25h2" />
<path stroke="#8503b6" d="M19 30h1M22 30h1M18 31h6M17 32h1M19 32h4M24 32h1M18 33h1M23 33h3M18 34h8M16 35h1M19 35h7M28 35h2M14 36h3M19 36h7M28 36h3M13 37h4M19 37h7M28 37h4M13 38h3M19 38h7M29 38h4M13 39h2M19 39h7M30 39h3" />
</svg>