<svg xmlns="http://www.w3.org/2000/svg" viewBox="0 -0.5 40 40" shape-rendering="crispEdges">
<metadata>Made with Pixels to Svg https://codepen.io/shshaw/pen/XbxvNj</metadata>
<path stroke="#000000" d="M0 0h17M24 0h16M0 1h14M26 1h14M0 2h12M28 2h12M0 3h10M29 3h11M0 4h9M30 4h10M0 5h9M31 5h9M0 6h8M32 6h8M0 7h7M32 7h8M0 8h7M33 8h7M0 9h7M33 9h7M0 10h6M34 10h6M0 11h6M34 11h6M0 12h6M34 12h6M0 13h6M34 13h6M0 14h5M34 14h6M0 15h5M34 15h6M0 16h4M34 16h6M0 17h4M34 17h6M0 18h3M34 18h6M0 19h3M34 19h6M0 20h2M34 20h6M0 21h2M34 21h6M0 22h2M33 22h7M0 23h1M33 23h7M32 24h8M31 25h9M30 26h10M29 27h11M28 28h12M29 29h11M30 30h10M32 31h8M34 32h6M35 33h5M35 34h5M0 35h1M36 35h4M0 36h1M36 36h4M0 37h2M36 37h4M0 38h2M36 38h4M0 39h2M36 39h4" />
<path stroke="#000100" d="M17 0h3M21 0h3M14 1h1M27 2h1M10 3h1M9 4h1M30 5h1M31 6h1M7 7h1M6 10h1M33 10h1M5 14h1M4 16h1M2 20h1M33 20h1M2 21h1M33 21h1M2 22h1M1 23h1M32 23h1M0 24h1M30 25h1M29 26h1M28 29h1M31 31h1M33 32h1M34 33h1M35 35h1M35 36h1M2 39h1" />
<path stroke="#000200" d="M20 0h1M33 11h1" />
<path stroke="#000301" d="M15 1h1M11 3h1M9 5h1M31 7h1M7 8h1M6 12h1M4 17h1M2 23h1M1 24h1M0 26h1M30 31h1" />
<path stroke="#000502" d="M16 1h1M24 1h1M13 2h1M7 9h1M32 9h1M6 13h1M5 16h1M17 16h2M29 25h1M0 28h1M28 30h1" />
<path stroke="#000804" d="M17 1h1M23 1h1M31 32h1" />
<path stroke="#000a05" d="M18 1h1M22 1h1" />
<path stroke="#000b05" d="M19 1h3" />
<path stroke="#000201" d="M25 1h1M12 2h1M28 3h1M29 4h1M8 6h1M32 8h1M6 11h1M33 12h1M33 13h1M33 14h1M5 15h1M33 15h1M33 16h1M33 17h1M3 18h1M33 18h1M33 19h1M31 24h1M0 25h1M28 27h1M29 30h1M0 34h1M1 36h1M35 37h1M2 38h1M35 38h1M35 39h1" />
<path stroke="#000904" d="M14 2h1M15 16h1" />
<path stroke="#010e07" d="M15 2h1M26 3h1M18 17h1" />
<path stroke="#02160a" d="M16 2h1" />
<path stroke="#041e0e" d="M17 2h1M2 27h1" />
<path stroke="#052411" d="M18 2h1M22 2h1M31 11h1" />
<path stroke="#052713" d="M19 2h1M21 2h1M27 25h1M30 33h1M33 38h1M33 39h1" />
<path stroke="#052813" d="M20 2h1M12 25h1" />
<path stroke="#041c0e" d="M23 2h1M7 14h1" />
<path stroke="#021309" d="M24 2h1M13 3h1M27 4h1M28 5h1M9 7h1M31 9h1M6 16h1M4 22h1M9 26h1M12 33h1" />
<path stroke="#010a04" d="M25 2h1M27 27h1" />
<path stroke="#000402" d="M26 2h1M10 4h1M30 6h1M3 19h1M32 22h1M0 27h1M27 28h1M32 32h1M0 33h1M34 34h1M1 35h1M2 37h1" />
<path stroke="#010904" d="M12 3h1M9 6h1M31 8h1M15 15h1M4 18h1M13 29h1M14 31h1M1 34h1" />
<path stroke="#041f0f" d="M14 3h1M13 16h1M13 33h1M10 34h1" />
<path stroke="#062c15" d="M15 3h1M15 13h1M21 24h1" />
<path stroke="#083b1d" d="M16 3h1M6 27h1M17 30h1M32 35h1" />
<path stroke="#0b4b25" d="M17 3h1M13 12h1M16 19h2M22 23h1M22 24h1" />
<path stroke="#0c562a" d="M18 3h1M11 7h1" />
<path stroke="#0d5c2d" d="M19 3h1M21 3h1M30 12h1M25 36h1" />
<path stroke="#0d5e2e" d="M20 3h1M26 38h1" />
<path stroke="#0c552a" d="M22 3h1M30 11h1M27 37h1M32 37h1M32 38h1" />
<path stroke="#0a4622" d="M23 3h1M30 10h1M13 25h1" />
<path stroke="#073218" d="M24 3h1M14 33h1M10 37h1" />
<path stroke="#041d0e" d="M25 3h1M11 5h1M31 10h1M18 13h2M10 28h1M11 31h1" />
<path stroke="#000603" d="M27 3h1M29 5h1M8 7h1M18 15h1M3 20h1M3 21h1M3 22h1M30 24h1M28 26h1M0 29h1M13 30h2M33 33h1M3 39h1" />
<path stroke="#010c06" d="M11 4h1M30 7h1M8 8h1M32 13h1M32 14h1M19 15h1M32 15h1M32 16h1M32 17h1M32 18h1M14 29h1M27 30h1M12 32h1M34 38h1M34 39h1" />
<path stroke="#031b0d" d="M12 4h1M5 18h1M13 27h1" />
<path stroke="#073118" d="M13 4h1M30 9h1M7 16h1M4 26h1M26 26h1M11 37h1" />
<path stroke="#0a4924" d="M14 4h1M17 12h1M21 17h1M16 23h1M25 31h1" />
<path stroke="#0e5f2f" d="M15 4h1M29 9h1M8 16h1" />
<path stroke="#117539" d="M16 4h1M13 11h1M14 21h1M7 22h1M15 25h1" />
<path stroke="#148843" d="M17 4h1M9 16h1M13 21h1M19 29h1M18 32h1M29 35h1" />
<path stroke="#16974b" d="M18 4h1" />
<path stroke="#179e4e" d="M19 4h1M21 4h1M29 12h1" />
<path stroke="#17a04f" d="M20 4h1" />
<path stroke="#169449" d="M22 4h1M28 9h1M29 11h1M29 17h1M22 28h1M17 38h1" />
<path stroke="#13803f" d="M23 4h1M14 5h1" />
<path stroke="#0e6230" d="M24 4h1M21 18h1M21 26h1M31 35h1" />
<path stroke="#094120" d="M25 4h1M28 23h1M4 28h1M24 30h1" />
<path stroke="#052612" d="M26 4h1M20 25h1M25 30h1M10 35h1M33 37h1" />
<path stroke="#010703" d="M28 4h1M32 21h1M1 25h1M0 30h1M0 32h1M34 35h1" />
<path stroke="#010b05" d="M10 5h1M7 11h1M32 19h1M1 26h1M10 26h2M34 37h1" />
<path stroke="#083a1c" d="M12 5h1M6 18h1M5 20h1M5 21h1M19 26h1M7 28h1" />
<path stroke="#0d5d2e" d="M13 5h1M21 22h1M13 24h1" />
<path stroke="#179c4d" d="M15 5h1" />
<path stroke="#ffffff" d="M16 5h7M14 6h11M13 7h13M12 8h15M11 9h1M14 9h4M22 9h6M11 10h11M23 10h6M11 11h2M15 11h3M21 11h8M11 12h1M16 12h1M22 12h7M10 13h1M16 13h1M22 13h7M10 14h1M16 14h1M22 14h7M10 15h1M16 15h1M22 15h7M10 16h1M16 16h1M22 16h1M27 16h2M10 17h2M16 17h1M23 17h4M28 17h1M11 18h1M16 18h1M22 18h2M26 18h2M8 19h8M21 19h5M27 19h2M7 20h2M13 20h12M26 20h1M28 20h1M7 21h1M9 21h4M17 21h7M25 21h4M8 22h2M13 22h1M25 22h2M14 23h1M24 23h2M15 24h1M24 24h1M5 25h1M7 25h1M16 25h1M23 25h1M3 26h1M16 26h1M22 26h1M5 27h1M7 27h1M17 27h1M21 27h1M3 28h1M18 28h3M5 29h1M7 29h1M10 29h1M20 29h1M3 30h1M10 30h1M19 30h3M3 31h5M9 31h1M20 31h1M4 32h5M19 32h3M7 33h1M17 33h9M5 34h1M17 34h1M20 34h2M24 34h1M26 34h1M5 35h1M7 35h1M16 35h1M18 35h6M27 35h1M5 36h1M7 36h1M13 36h3M20 36h2M28 36h4M6 37h1M13 37h3M17 37h9M29 37h3M6 38h2M14 38h1M20 38h2M30 38h1M7 39h1M14 39h1M16 39h11M30 39h1" />
<path stroke="#1bb85b" d="M23 5h1" />
<path stroke="#16994b" d="M24 5h1" />
<path stroke="#107338" d="M25 5h1" />
<path stroke="#0b4c25" d="M26 5h1M27 6h1M20 12h1M26 25h1M15 33h1M28 33h1" />
<path stroke="#062a15" d="M27 5h1M8 12h1M20 14h1" />
<path stroke="#031a0c" d="M10 6h1" />
<path stroke="#08371b" d="M11 6h1" />
<path stroke="#0e602f" d="M12 6h1M18 11h1M15 23h1M16 27h1" />
<path stroke="#158d45" d="M13 6h1M15 35h1M16 36h1" />
<path stroke="#18a552" d="M25 6h1M26 7h1M24 16h1M25 18h1" />
<path stroke="#127a3c" d="M26 6h1M26 33h1" />
<path stroke="#052613" d="M28 6h1M31 19h1M4 25h1" />
<path stroke="#020f07" d="M29 6h1M7 12h1M31 22h1M10 27h1M12 29h1M32 33h1M33 34h1" />
<path stroke="#062f17" d="M10 7h1" />
<path stroke="#138441" d="M12 7h1M6 34h1" />
<path stroke="#117339" d="M27 7h1M5 30h1M25 32h1" />
<path stroke="#094421" d="M28 7h1M20 18h1M12 24h1" />
<path stroke="#042010" d="M29 7h1M18 24h1M8 26h1" />
<path stroke="#052210" d="M9 8h1M31 20h1M33 36h1" />
<path stroke="#0a4723" d="M10 8h1M16 28h1M17 31h1M9 35h1" />
<path stroke="#117338" d="M11 8h1M25 25h1" />
<path stroke="#179d4e" d="M27 8h1M15 39h1" />
<path stroke="#0f6a34" d="M28 8h1M20 11h1M6 21h1M26 24h1M15 26h1M23 30h1M6 39h1" />
<path stroke="#093c1d" d="M29 8h1M30 21h1M12 35h1" />
<path stroke="#041c0d" d="M30 8h1M8 10h1M3 25h1" />
<path stroke="#031409" d="M8 9h1" />
<path stroke="#073319" d="M9 9h1M7 24h1M10 38h2M11 39h1" />
<path stroke="#0e5f2e" d="M10 9h1M24 27h1" />
<path stroke="#18a350" d="M12 9h1" />
<path stroke="#1bb559" d="M13 9h1" />
<path stroke="#1ab359" d="M18 9h1" />
<path stroke="#18a653" d="M19 9h1" />
<path stroke="#19a954" d="M20 9h1" />
<path stroke="#1bb85c" d="M21 9h1" />
<path stroke="#010804" d="M7 10h1M32 10h1M6 14h1M17 15h1M3 23h1M2 24h1M0 31h1M29 31h1M2 36h1" />
<path stroke="#0a4320" d="M9 10h1" />
<path stroke="#117137" d="M10 10h1" />
<path stroke="#1dc261" d="M22 10h1" />
<path stroke="#137f3f" d="M29 10h1" />
<path stroke="#052311" d="M8 11h1M20 15h1M5 23h1M5 24h1M32 34h1M11 35h1" />
<path stroke="#0b4d26" d="M9 11h1M15 12h1M30 20h1M32 36h1" />
<path stroke="#12783b" d="M10 11h1M24 26h1M27 34h1" />
<path stroke="#117238" d="M14 11h1" />
<path stroke="#0d5a2c" d="M19 11h1M9 13h1M12 17h1M13 18h1M30 18h1M17 26h1" />
<path stroke="#010a05" d="M32 11h1M14 15h1M32 20h1M26 29h1M34 36h1M3 38h1" />
<path stroke="#0c5328" d="M9 12h1M6 22h1" />
<path stroke="#117439" d="M10 12h1" />
<path stroke="#0e6330" d="M12 12h1M11 13h1M13 35h1" />
<path stroke="#0a4522" d="M14 12h1M21 16h1M29 22h1M17 29h1M16 32h1M4 35h1" />
<path stroke="#08391c" d="M18 12h1M6 23h1M4 27h1M25 27h1" />
<path stroke="#07361a" d="M19 12h1M20 13h1M17 23h1M21 23h1M29 33h1" />
<path stroke="#11793c" d="M21 12h1M25 38h1" />
<path stroke="#062713" d="M31 12h1" />
<path stroke="#010c05" d="M32 12h1M19 16h1M11 27h1" />
<path stroke="#03150a" d="M7 13h1M17 14h1M13 15h1M27 26h1" />
<path stroke="#073419" d="M8 13h1M14 27h1M26 31h1M10 39h1" />
<path stroke="#094321" d="M12 13h1M14 18h1M3 29h1" />
<path stroke="#052a14" d="M13 13h1M15 32h1M28 32h1" />
<path stroke="#042411" d="M14 13h1" />
<path stroke="#052914" d="M17 13h1M16 31h1" />
<path stroke="#0f6733" d="M21 13h1M29 21h1M27 36h1M29 39h1" />
<path stroke="#18a04f" d="M29 13h1M18 34h1" />
<path stroke="#0e5e2e" d="M30 13h1M30 14h1M19 27h1" />
<path stroke="#062914" d="M31 13h1M31 14h1M31 15h1M31 16h1" />
<path stroke="#09411f" d="M8 14h1M12 16h1" />
<path stroke="#0f6632" d="M9 14h1M7 18h1M27 23h1M14 25h1M8 33h1" />
<path stroke="#0d582b" d="M11 14h1M6 19h1M17 28h1M9 37h1M12 38h1M9 39h1" />
<path stroke="#073318" d="M12 14h1" />
<path stroke="#03180c" d="M13 14h1M9 25h1M2 26h1M9 27h1M15 29h1" />
<path stroke="#021108" d="M14 14h1M4 19h1M30 23h1M2 25h1M1 33h1M3 37h1" />
<path stroke="#03160a" d="M15 14h1" />
<path stroke="#020e07" d="M18 14h1M13 28h1M15 30h1M2 35h1" />
<path stroke="#021208" d="M19 14h1" />
<path stroke="#0d5a2d" d="M21 14h1" />
<path stroke="#189f4e" d="M29 14h1" />
<path stroke="#010b06" d="M6 15h1M5 17h1" />
<path stroke="#052512" d="M7 15h1M17 18h1M30 22h1M12 34h1" />
<path stroke="#0b4f27" d="M8 15h1M15 27h1" />
<path stroke="#11763a" d="M9 15h1" />
<path stroke="#0e5d2e" d="M11 15h1M30 15h1" />
<path stroke="#073219" d="M12 15h1M15 18h1M8 24h1M10 31h1" />
<path stroke="#0b4e26" d="M21 15h1M16 22h1M12 36h1M27 38h1" />
<path stroke="#179b4d" d="M29 15h1M19 31h1" />
<path stroke="#106f36" d="M11 16h1" />
<path stroke="#010f07" d="M14 16h1M29 24h1" />
<path stroke="#04200e" d="M20 16h1" />
<path stroke="#169349" d="M23 16h1M24 22h1" />
<path stroke="#1aaf57" d="M25 16h1" />
<path stroke="#1cbb5d" d="M26 16h1M19 38h1" />
<path stroke="#17974b" d="M29 16h1" />
<path stroke="#0e5c2d" d="M30 16h1" />
<path stroke="#042110" d="M6 17h1M14 17h1M25 28h1M27 31h1" />
<path stroke="#0a4722" d="M7 17h1M20 26h1" />
<path stroke="#11773a" d="M8 17h1" />
<path stroke="#179e4d" d="M9 17h1" />
<path stroke="#07371b" d="M13 17h1" />
<path stroke="#02150a" d="M15 17h1M19 17h1M15 31h1M11 32h1" />
<path stroke="#010d06" d="M17 17h1M12 28h1M26 28h1M12 31h1M13 32h1" />
<path stroke="#052814" d="M20 17h1M18 18h1M19 23h1M10 32h1" />
<path stroke="#106f37" d="M22 17h1M20 19h1M14 22h1M23 28h1M18 31h1" />
<path stroke="#1cbc5d" d="M27 17h1" />
<path stroke="#0d5b2d" d="M30 17h1M15 22h1M18 27h1M26 32h1" />
<path stroke="#062814" d="M31 17h1" />
<path stroke="#159348" d="M8 18h1" />
<path stroke="#1ab057" d="M9 18h1" />
<path stroke="#1ab358" d="M10 18h1M27 20h1" />
<path stroke="#11783b" d="M12 18h1" />
<path stroke="#063118" d="M19 18h1" />
<path stroke="#18a150" d="M24 18h1M21 28h1" />
<path stroke="#1bb55a" d="M28 18h1M19 34h1" />
<path stroke="#169248" d="M29 18h1" />
<path stroke="#062813" d="M31 18h1" />
<path stroke="#062d16" d="M5 19h1M6 24h1M9 24h1M16 29h1M10 36h1M4 37h1" />
<path stroke="#148742" d="M7 19h1M11 22h1M24 25h1M23 26h1" />
<path stroke="#0b5128" d="M18 19h1" />
<path stroke="#0d5c2e" d="M19 19h1" />
<path stroke="#1ab058" d="M26 19h1" />
<path stroke="#158e46" d="M29 19h1" />
<path stroke="#0d572b" d="M30 19h1M5 37h1" />
<path stroke="#03170b" d="M4 20h1M4 21h1M19 24h1M14 32h1M11 34h1M4 39h1" />
<path stroke="#106b35" d="M6 20h1M23 23h1" />
<path stroke="#1cb95b" d="M9 20h1" />
<path stroke="#1ab157" d="M10 20h1" />
<path stroke="#18a551" d="M11 20h1" />
<path stroke="#16984b" d="M12 20h1M22 30h1" />
<path stroke="#1aae56" d="M25 20h1M21 29h1" />
<path stroke="#13813f" d="M29 20h1M23 27h1M14 35h1" />
<path stroke="#19ab54" d="M8 21h1M22 31h1" />
<path stroke="#0e6331" d="M15 21h1M23 29h1M8 31h1" />
<path stroke="#0e5e2f" d="M16 21h1" />
<path stroke="#18a251" d="M24 21h1" />
<path stroke="#03190c" d="M31 21h1M4 24h1M25 29h1M33 35h1M3 36h1" />
<path stroke="#062e16" d="M5 22h1M13 26h1M8 28h1" />
<path stroke="#148943" d="M10 22h1M26 23h1M25 24h1" />
<path stroke="#138642" d="M12 22h1" />
<path stroke="#0a4b25" d="M17 22h1" />
<path stroke="#0b4e27" d="M18 22h1" />
<path stroke="#0c5229" d="M19 22h1" />
<path stroke="#0c562b" d="M20 22h1" />
<path stroke="#0f6834" d="M22 22h1" />
<path stroke="#127b3d" d="M23 22h1" />
<path stroke="#158a44" d="M27 22h1" />
<path stroke="#0f6933" d="M28 22h1" />
<path stroke="#021209" d="M4 23h1M10 25h1M28 31h1M11 33h1" />
<path stroke="#0b4d25" d="M7 23h1" />
<path stroke="#0c572a" d="M8 23h1M25 26h1" />
<path stroke="#0c592b" d="M9 23h2" />
<path stroke="#0d5d2d" d="M11 23h1" />
<path stroke="#0e6732" d="M12 23h1" />
<path stroke="#107037" d="M13 23h1M14 24h1M23 24h1M15 34h1M8 35h1" />
<path stroke="#062b15" d="M18 23h1M20 23h1M18 25h1M2 29h1M2 33h1" />
<path stroke="#052412" d="M29 23h1M8 27h1M9 28h1M3 35h1" />
<path stroke="#010603" d="M31 23h1" />
<path stroke="#021008" d="M3 24h1M1 28h1" />
<path stroke="#052b15" d="M10 24h1" />
<path stroke="#063218" d="M11 24h1" />
<path stroke="#0c572b" d="M16 24h1M28 38h1" />
<path stroke="#08381b" d="M17 24h1" />
<path stroke="#031a0d" d="M20 24h1M31 33h1M2 34h1" />
<path stroke="#094220" d="M27 24h1M6 28h1M27 32h1" />
<path stroke="#042211" d="M28 24h1" />
<path stroke="#063018" d="M6 25h1" />
<path stroke="#042311" d="M8 25h1" />
<path stroke="#02160b" d="M11 25h1M26 30h1" />
<path stroke="#0a4823" d="M17 25h1" />
<path stroke="#041e0f" d="M19 25h1M11 29h1" />
<path stroke="#093f1f" d="M21 25h1M9 33h1" />
<path stroke="#0e6130" d="M22 25h1M7 30h1M18 30h1" />
<path stroke="#021007" d="M28 25h1M12 30h1" />
<path stroke="#08361b" d="M5 26h1M24 29h1M2 30h1" />
<path stroke="#07361b" d="M6 26h1" />
<path stroke="#062e17" d="M7 26h1M3 27h1" />
<path stroke="#03160b" d="M12 26h1" />
<path stroke="#0b5027" d="M14 26h1" />
<path stroke="#094320" d="M18 26h1" />
<path stroke="#020d07" d="M1 27h1" />
<path stroke="#010e06" d="M12 27h1M30 32h1" />
<path stroke="#107137" d="M20 27h1" />
<path stroke="#159047" d="M22 27h1M16 38h1" />
<path stroke="#041b0d" d="M26 27h1" />
<path stroke="#052211" d="M2 28h1" />
<path stroke="#094522" d="M5 28h1" />
<path stroke="#02140a" d="M11 28h1M1 29h1" />
<path stroke="#041a0d" d="M14 28h1" />
<path stroke="#073017" d="M15 28h1" />
<path stroke="#0a4421" d="M24 28h1" />
<path stroke="#0c5228" d="M4 29h1M6 29h1" />
<path stroke="#093d1e" d="M8 29h1" />
<path stroke="#07351a" d="M9 29h1" />
<path stroke="#0e6431" d="M18 29h1M24 31h1M27 33h1" />
<path stroke="#169348" d="M22 29h1" />
<path stroke="#000401" d="M27 29h1" />
<path stroke="#03180b" d="M1 30h1M29 32h1" />
<path stroke="#106c36" d="M4 30h1" />
<path stroke="#106e36" d="M6 30h1M28 34h1M24 36h1" />
<path stroke="#0c5128" d="M8 30h1M30 34h1M9 36h1" />
<path stroke="#0a4321" d="M9 30h1" />
<path stroke="#052110" d="M11 30h1M4 38h1" />
<path stroke="#04200f" d="M16 30h1M10 33h1" />
<path stroke="#041b0c" d="M1 31h1" />
<path stroke="#093e1f" d="M2 31h1" />
<path stroke="#000703" d="M13 31h1" />
<path stroke="#1dc361" d="M21 31h1" />
<path stroke="#148642" d="M23 31h1M17 36h1M8 37h1M8 38h1M13 38h1" />
<path stroke="#03190b" d="M1 32h1" />
<path stroke="#083a1d" d="M2 32h1M5 39h1" />
<path stroke="#0f6532" d="M3 32h1" />
<path stroke="#0a4623" d="M9 32h1" />
<path stroke="#0f6531" d="M17 32h1" />
<path stroke="#1cbe5e" d="M22 32h1" />
<path stroke="#18a451" d="M23 32h1" />
<path stroke="#148a44" d="M24 32h1M16 37h1" />
<path stroke="#0c5027" d="M3 33h1" />
<path stroke="#117239" d="M4 33h1" />
<path stroke="#148944" d="M5 33h1" />
<path stroke="#158f47" d="M6 33h1" />
<path stroke="#0f6833" d="M16 33h1" />
<path stroke="#08361a" d="M3 34h1" />
<path stroke="#0c582c" d="M4 34h1" />
<path stroke="#138140" d="M7 34h1" />
<path stroke="#0e6632" d="M8 34h1" />
<path stroke="#093e1e" d="M9 34h1" />
<path stroke="#093f1e" d="M13 34h1" />
<path stroke="#0d592c" d="M14 34h1M26 36h1M9 38h1" />
<path stroke="#138240" d="M16 34h1M25 34h1M8 39h1" />
<path stroke="#1bb75b" d="M22 34h1" />
<path stroke="#18a050" d="M23 34h1" />
<path stroke="#0e612f" d="M29 34h1" />
<path stroke="#083c1d" d="M31 34h1" />
<path stroke="#138241" d="M6 35h1M31 38h1" />
<path stroke="#158d46" d="M17 35h1" />
<path stroke="#11773b" d="M24 35h1M29 38h1" />
<path stroke="#0f6b35" d="M25 35h1" />
<path stroke="#0f6c35" d="M26 35h1" />
<path stroke="#138340" d="M28 35h1" />
<path stroke="#127f3e" d="M30 35h1" />
<path stroke="#08381c" d="M4 36h1" />
<path stroke="#138542" d="M6 36h1" />
<path stroke="#137e3e" d="M8 36h1" />
<path stroke="#062c16" d="M11 36h1" />
<path stroke="#169048" d="M18 36h1" />
<path stroke="#19a854" d="M19 36h1" />
<path stroke="#19a653" d="M22 36h1" />
<path stroke="#148844" d="M23 36h1" />
<path stroke="#17994b" d="M7 37h1M15 38h1" />
<path stroke="#0d562a" d="M12 37h1" />
<path stroke="#0c5329" d="M26 37h1M32 39h1" />
<path stroke="#106d35" d="M28 37h1" />
<path stroke="#0b4924" d="M5 38h1" />
<path stroke="#18a452" d="M18 38h1" />
<path stroke="#1cbc5e" d="M22 38h1" />
<path stroke="#19a753" d="M23 38h1" />
<path stroke="#159248" d="M24 38h1" />
<path stroke="#0d572a" d="M12 39h1" />
<path stroke="#148441" d="M13 39h1" />
<path stroke="#0c542a" d="M27 39h1" />
<path stroke="#0b4d27" d="M28 39h1" />
<path stroke="#137d3e" d="M31 39h1" />
</svg>