<svg xmlns="http://www.w3.org/2000/svg" viewBox="0 -0.5 40 40" shape-rendering="crispEdges">
<metadata>Made with Pixels to Svg https://codepen.io/shshaw/pen/XbxvNj</metadata>
<path stroke="#ffffff" d="M0 0h2M38 0h1M1 1h1M37 1h1M2 2h1M26 2h1M36 2h1M2 3h1M28 3h1M36 3h1M3 4h2M35 4h1M37 4h1M5 5h1M28 5h3M34 5h1M38 5h1M5 6h1M28 6h2M38 6h1M4 7h1M6 7h1M29 7h2M37 7h1M3 8h1M36 8h1M38 8h1M2 9h1M35 9h1M39 9h1M3 10h1M3 11h1M20 11h2M24 11h1M34 11h1M2 12h1M4 12h1M20 12h2M24 12h1M1 13h1M20 13h2M24 13h1M36 13h1M0 14h1M20 14h2M24 14h1M32 14h1M35 14h1M37 14h1M20 15h2M24 15h1M35 15h1M20 16h2M24 16h1M27 16h1M20 17h2M24 17h1M34 17h3M20 18h2M35 18h1M33 19h1M37 19h1M34 20h2M34 21h1M37 21h1M0 22h1M1 23h1M2 24h1M33 24h2M3 25h1M33 25h2M3 26h1M32 26h1M2 27h1M4 27h1M33 27h2M2 28h1M5 28h1M1 29h1M1 30h1M21 30h1M20 31h2M20 32h1" />
<path stroke="#1c1d2b" d="M2 0h1M36 0h1" />
<path stroke="#000111" d="M3 0h6M32 0h4M4 1h5M33 1h2M4 2h2M39 2h1M0 3h1M39 3h1M0 4h1M0 5h2M0 6h3M0 7h2M0 8h1M0 9h1M0 10h1M37 10h1M37 11h1M37 12h1M37 13h1M38 14h2M37 15h3M37 16h1" />
<path stroke="#000011" d="M9 0h1" />
<path stroke="#000014" d="M10 0h1" />
<path stroke="#000136" d="M11 0h1" />
<path stroke="#000365" d="M12 0h1M7 4h1" />
<path stroke="#000467" d="M13 0h1M14 1h1" />
<path stroke="#00044a" d="M14 0h1M31 3h1" />
<path stroke="#00043d" d="M15 0h1M26 0h1M18 1h1M26 1h1M27 2h2M3 14h1M2 15h1M0 25h1M0 26h1" />
<path stroke="#01053d" d="M16 0h5M16 1h1" />
<path stroke="#00053d" d="M21 0h5M25 1h1M5 10h1" />
<path stroke="#000438" d="M27 0h1M28 1h1" />
<path stroke="#000227" d="M28 0h1" />
<path stroke="#00021f" d="M29 0h1M0 11h1" />
<path stroke="#00011c" d="M30 0h1M7 2h1" />
<path stroke="#000114" d="M31 0h1M6 2h1M34 2h1M38 11h1M38 13h1" />
<path stroke="#dfdfe1" d="M37 0h1" />
<path stroke="#1a1a29" d="M39 0h1M39 5h1M39 6h1" />
<path stroke="#31313e" d="M0 1h1M2 1h1M36 1h1M38 1h1M37 6h1" />
<path stroke="#030413" d="M3 1h1M35 1h1M39 1h1M0 2h1M38 2h1M38 3h1M1 4h1M39 4h1M2 5h1M3 6h1M2 7h1M1 8h1M36 10h1M38 10h1" />
<path stroke="#000012" d="M9 1h1" />
<path stroke="#000030" d="M10 1h1" />
<path stroke="#000174" d="M11 1h1" />
<path stroke="#0001b4" d="M12 1h1" />
<path stroke="#0002b0" d="M13 1h1" />
<path stroke="#00043f" d="M15 1h1M24 1h1M6 10h1M6 11h1M2 16h1" />
<path stroke="#fefcee" d="M17 1h1M21 1h1M15 2h1M22 2h1M24 2h2M12 3h1M15 3h1M18 3h3M22 3h3M12 4h2M17 4h1M19 4h2M22 4h1M25 4h2M16 5h1M25 5h1M27 5h1M30 6h1M27 7h2M31 7h1M26 8h2M33 10h1M32 12h3M32 13h1M31 15h2M32 16h1M32 18h2M36 18h1M35 19h1M32 21h1M35 21h1M32 22h2M10 23h1M34 23h1M36 23h1M9 25h1M30 26h1M9 27h1M11 27h2M31 27h1M9 28h4M9 29h1M11 29h3M34 29h1M13 30h1M13 31h1M23 32h1M19 35h1M24 36h1M21 37h1M19 39h1M24 39h1" />
<path stroke="#f6f2c6" d="M19 1h2M17 2h3M21 2h1M17 3h1M9 5h3M22 5h1M8 7h1M18 8h1M31 8h1M32 9h1M26 10h1M27 11h1M31 18h1M28 22h2M27 23h1M27 24h1M25 25h1M24 26h1M26 26h1M35 26h1M32 27h1M13 28h2M28 28h1M14 29h2M11 30h1M14 30h2M12 31h1M14 31h1M12 32h1M12 33h1" />
<path stroke="#000441" d="M22 1h1" />
<path stroke="#000444" d="M23 1h1" />
<path stroke="#00043c" d="M27 1h1" />
<path stroke="#000337" d="M29 1h1M8 3h1" />
<path stroke="#000333" d="M30 1h1M7 3h1" />
<path stroke="#000223" d="M31 1h1" />
<path stroke="#000115" d="M32 1h1" />
<path stroke="#2e2e3c" d="M1 2h1" />
<path stroke="#1b1b2a" d="M3 2h1M4 3h1" />
<path stroke="#00011e" d="M8 2h1" />
<path stroke="#000122" d="M9 2h1" />
<path stroke="#00015b" d="M10 2h1" />
<path stroke="#0000b3" d="M11 2h1" />
<path stroke="#0000cf" d="M12 2h1" />
<path stroke="#0002b5" d="M13 2h1M7 5h1" />
<path stroke="#fffdfa" d="M14 2h1M23 2h1M13 3h2M21 3h1M25 3h3M21 4h1M24 4h1M27 4h1M20 5h1M24 5h1M26 5h1M23 6h1M26 6h1M23 7h1M29 8h2M32 8h1M31 9h1M29 10h4M31 11h1M31 12h1M35 12h1M33 13h2M34 14h1M34 15h1M33 16h3M31 17h1M33 17h1M34 18h1M32 19h1M31 20h1M33 20h1M36 20h1M33 21h1M36 21h1M31 22h1M29 23h1M31 23h3M10 24h1M29 24h4M35 24h1M10 25h1M29 25h2M32 25h1M35 25h1M10 26h2M28 26h2M34 26h1M10 27h1M26 27h5M36 27h1M30 28h2M33 28h2M37 28h1M29 29h1M31 29h1M32 30h1" />
<path stroke="#fdf9d7" d="M16 2h1M20 2h1M16 3h1M11 4h1M14 4h2M18 4h1M23 4h1M28 4h1M13 5h1M18 5h1M19 6h2M25 6h1M27 6h1M19 7h1M22 7h1M21 8h2M22 9h1M28 9h2M28 11h3M32 11h2M29 12h1M30 13h2M30 14h2M33 14h1M33 15h1M30 16h2M30 17h1M32 17h1M31 19h1M34 19h1M32 20h1M31 21h1M30 22h1M34 22h2M28 23h1M30 23h1M26 24h1M28 24h1M11 25h1M26 25h3M31 25h1M12 26h1M25 26h1M27 26h1M31 26h1M33 26h1" />
<path stroke="#00043e" d="M29 2h1M3 15h1" />
<path stroke="#00033d" d="M30 2h1" />
<path stroke="#000335" d="M31 2h1" />
<path stroke="#000225" d="M32 2h1" />
<path stroke="#00011d" d="M33 2h1" />
<path stroke="#181927" d="M35 2h1M1 3h1" />
<path stroke="#2f2f3d" d="M37 2h1M37 5h1" />
<path stroke="#363643" d="M3 3h1" />
<path stroke="#030315" d="M5 3h1" />
<path stroke="#000120" d="M6 3h1" />
<path stroke="#000339" d="M9 3h1" />
<path stroke="#00036c" d="M10 3h1" />
<path stroke="#0002be" d="M11 3h1" />
<path stroke="#000468" d="M29 3h2" />
<path stroke="#000439" d="M32 3h1" />
<path stroke="#000332" d="M33 3h1" />
<path stroke="#03041f" d="M34 3h1" />
<path stroke="#30313e" d="M35 3h1M37 3h1M38 4h1" />
<path stroke="#2a2a38" d="M2 4h1M38 9h1" />
<path stroke="#303055" d="M5 4h1" />
<path stroke="#03045d" d="M6 4h1" />
<path stroke="#00034b" d="M8 4h1" />
<path stroke="#010341" d="M9 4h1" />
<path stroke="#08036f" d="M10 4h1" />
<path stroke="#e6d8b7" d="M16 4h1M12 5h1M15 5h1M17 5h1M19 5h1M23 5h1M9 6h2M17 6h2M22 6h1M24 6h1M9 7h1M16 7h3M21 7h1M8 8h1M12 8h1M15 8h2M19 8h2M23 8h1M9 9h1M11 9h1M14 9h1M18 9h1M25 9h1M27 9h1M30 9h1M13 10h1M16 10h1M19 10h1M22 10h1M25 10h1M27 10h2M28 12h1M30 12h1M29 15h2M30 18h1M30 19h1M30 20h1M30 21h1M11 24h1M12 25h1M13 27h2M15 28h2" />
<path stroke="#0002b6" d="M29 4h2" />
<path stroke="#00047f" d="M31 4h1" />
<path stroke="#00044d" d="M32 4h1" />
<path stroke="#03063b" d="M33 4h1" />
<path stroke="#2c2d46" d="M34 4h1" />
<path stroke="#42424e" d="M36 4h1" />
<path stroke="#171726" d="M3 5h1M39 10h1" />
<path stroke="#323244" d="M4 5h1" />
<path stroke="#1b1bb5" d="M6 5h1" />
<path stroke="#010385" d="M8 5h1" />
<path stroke="#c1b496" d="M14 5h1M21 5h1M11 6h1M14 6h1M21 6h1M10 7h1M13 7h1M20 7h1M24 7h3M9 8h1M14 8h1M17 8h1M24 8h2M28 8h1M8 9h1M15 9h3M19 9h3M23 9h2M26 9h1M12 10h1M14 10h2M17 10h2M20 10h2M23 10h2M29 13h1M29 14h1M29 16h1M29 17h1M29 18h1M11 23h1M12 24h2M13 25h2M13 26h2M15 27h1" />
<path stroke="#1207bc" d="M31 5h1" />
<path stroke="#140887" d="M32 5h1" />
<path stroke="#393081" d="M33 5h1" />
<path stroke="#2c2c45" d="M35 5h1" />
<path stroke="#060719" d="M36 5h1" />
<path stroke="#303145" d="M4 6h1" />
<path stroke="#3333c2" d="M6 6h1" />
<path stroke="#0304d0" d="M7 6h1" />
<path stroke="#0802c7" d="M8 6h1M38 22h1" />
<path stroke="#a5997d" d="M12 6h2M15 6h2M11 7h2M14 7h2M10 8h2M13 8h1M10 9h1M12 9h2M9 10h3" />
<path stroke="#6a2bde" d="M31 6h1" />
<path stroke="#8145d9" d="M32 6h1" />
<path stroke="#bfa3e6" d="M33 6h1" />
<path stroke="#513494" d="M34 6h1" />
<path stroke="#0a0641" d="M35 6h1" />
<path stroke="#03041d" d="M36 6h1" />
<path stroke="#2a2a3a" d="M3 7h1" />
<path stroke="#434675" d="M5 7h1" />
<path stroke="#2c2dc3" d="M7 7h1" />
<path stroke="#ebb4fd" d="M32 7h1" />
<path stroke="#c14dee" d="M33 7h1" />
<path stroke="#5c15ae" d="M34 7h1" />
<path stroke="#120654" d="M35 7h1" />
<path stroke="#2a2a3f" d="M36 7h1" />
<path stroke="#43434f" d="M38 7h1" />
<path stroke="#060716" d="M39 7h1M37 9h1" />
<path stroke="#2d2d3b" d="M2 8h1" />
<path stroke="#2d3057" d="M4 8h1" />
<path stroke="#060940" d="M5 8h1" />
<path stroke="#2a2d69" d="M6 8h1" />
<path stroke="#9b9dc7" d="M7 8h1" />
<path stroke="#cc3ee9" d="M33 8h1" />
<path stroke="#68208a" d="M34 8h1" />
<path stroke="#3b3055" d="M35 8h1" />
<path stroke="#41414d" d="M37 8h1" />
<path stroke="#333340" d="M39 8h1" />
<path stroke="#151524" d="M1 9h1" />
<path stroke="#46475c" d="M3 9h1" />
<path stroke="#070a3b" d="M4 9h1" />
<path stroke="#00053c" d="M5 9h1" />
<path stroke="#030741" d="M6 9h1" />
<path stroke="#1c1874" d="M7 9h1" />
<path stroke="#d260e7" d="M33 9h1" />
<path stroke="#83538d" d="M34 9h1" />
<path stroke="#2c2c3a" d="M36 9h1" />
<path stroke="#030416" d="M1 10h1" />
<path stroke="#2f2f46" d="M2 10h1" />
<path stroke="#1b1f4d" d="M4 10h1" />
<path stroke="#0e056f" d="M7 10h1" />
<path stroke="#4e10c9" d="M8 10h1" />
<path stroke="#c3adc7" d="M34 10h1" />
<path stroke="#3b3342" d="M35 10h1" />
<path stroke="#030427" d="M1 11h1" />
<path stroke="#31335a" d="M2 11h1" />
<path stroke="#333663" d="M4 11h1" />
<path stroke="#03063f" d="M5 11h1" />
<path stroke="#080470" d="M7 11h1" />
<path stroke="#2e09c6" d="M8 11h1" />
<path stroke="#7bb9cf" d="M9 11h1" />
<path stroke="#84c4dd" d="M10 11h2M15 11h1M19 11h1M23 11h1M10 12h2M15 12h1M19 12h1M23 12h1M10 13h2M15 13h1M19 13h1M23 13h1M28 13h1M10 14h2M15 14h1M19 14h1M23 14h1M28 14h1M10 15h2M15 15h1M19 15h1M23 15h1M10 16h2M15 16h1M19 16h1M23 16h1M10 17h2M15 17h1M19 17h1M23 17h1M11 18h1M19 18h1" />
<path stroke="#468096" d="M12 11h2M12 12h2M12 13h2M12 14h2M12 15h2M12 16h2M12 17h2M12 18h2" />
<path stroke="#b2e1f4" d="M14 11h1M16 11h2M14 12h1M16 12h2M14 13h1M16 13h2M14 14h1M16 14h2M14 15h1M16 15h2M14 16h1M16 16h2M14 17h1M16 17h2M14 18h1M17 18h1" />
<path stroke="#caebf8" d="M18 11h1M18 12h1M18 13h1M18 14h1M18 15h1M18 16h1M18 17h1M18 18h1" />
<path stroke="#7bb8cf" d="M22 11h1M25 11h1M9 12h1M22 12h1M25 12h1M9 13h1M22 13h1M25 13h1M9 14h1M22 14h1M25 14h1M9 15h1M22 15h1M25 15h1M9 16h1M22 16h1M25 16h1M9 17h1M22 17h1M22 18h1" />
<path stroke="#000000" d="M26 11h1M28 15h1M26 16h1M28 16h1M27 17h2M8 18h3M15 18h1M24 18h2M28 18h1M7 19h1M16 19h5M26 19h1M29 19h1M6 20h1M9 20h4M25 20h1M27 20h1M29 20h1M6 21h1M8 21h1M13 21h4M24 21h1M29 21h1M7 22h1M10 22h3M14 22h1M17 22h8M27 22h1M8 23h2M12 23h2M15 23h1M23 23h1M26 23h1M14 24h1M16 24h1M23 24h1M25 24h1M15 25h1M17 25h1M22 25h1M24 25h1M15 26h1M17 26h1M21 26h1M23 26h1M16 27h1M18 27h3M22 27h1M17 28h1M21 28h1M18 29h3M22 29h1M22 30h1" />
<path stroke="#170c1f" d="M35 11h1" />
<path stroke="#010111" d="M36 11h1" />
<path stroke="#00011b" d="M39 11h1M39 13h1" />
<path stroke="#030639" d="M0 12h1" />
<path stroke="#2a2d59" d="M1 12h1" />
<path stroke="#434670" d="M3 12h1" />
<path stroke="#2e3160" d="M5 12h1" />
<path stroke="#03064d" d="M6 12h1M1 25h1" />
<path stroke="#020385" d="M7 12h1" />
<path stroke="#1504c9" d="M8 12h1" />
<path stroke="#9acee1" d="M26 12h2M26 13h2M26 14h2M26 15h1" />
<path stroke="#080413" d="M36 12h1M36 14h1M36 15h1" />
<path stroke="#00011a" d="M38 12h1" />
<path stroke="#00022b" d="M39 12h1" />
<path stroke="#313462" d="M0 13h1" />
<path stroke="#2a2d5d" d="M2 13h1" />
<path stroke="#060941" d="M3 13h1" />
<path stroke="#2d305f" d="M4 13h1" />
<path stroke="#b1b2c4" d="M5 13h1" />
<path stroke="#1b1d78" d="M6 13h1" />
<path stroke="#0802b7" d="M7 13h1" />
<path stroke="#300ad7" d="M8 13h1" />
<path stroke="#4f265a" d="M35 13h1" />
<path stroke="#2d315f" d="M1 14h1" />
<path stroke="#04073f" d="M2 14h1" />
<path stroke="#181b50" d="M4 14h1" />
<path stroke="#aeafc7" d="M5 14h1" />
<path stroke="#33359e" d="M6 14h1" />
<path stroke="#1406ca" d="M7 14h1" />
<path stroke="#5b13e0" d="M8 14h1M6 17h1" />
<path stroke="#171a4f" d="M0 15h1" />
<path stroke="#04063f" d="M1 15h1" />
<path stroke="#03064e" d="M4 15h1" />
<path stroke="#2a2c94" d="M5 15h1" />
<path stroke="#9c99e4" d="M6 15h1" />
<path stroke="#431edb" d="M7 15h1" />
<path stroke="#7f1ae7" d="M8 15h1M5 20h1M6 26h1M7 28h1" />
<path stroke="#eeeef0" d="M27 15h1M21 29h1M19 30h2M19 31h1" />
<path stroke="#010468" d="M0 16h1" />
<path stroke="#01044b" d="M1 16h1" />
<path stroke="#00044c" d="M3 16h1" />
<path stroke="#00037f" d="M4 16h1" />
<path stroke="#0a04bc" d="M5 16h1" />
<path stroke="#3f1cda" d="M6 16h1" />
<path stroke="#791be6" d="M7 16h1" />
<path stroke="#bf28f6" d="M8 16h1" />
<path stroke="#110819" d="M36 16h1" />
<path stroke="#000112" d="M38 16h1M37 17h1" />
<path stroke="#000117" d="M39 16h1" />
<path stroke="#0202b6" d="M0 17h1" />
<path stroke="#02037f" d="M1 17h1" />
<path stroke="#010457" d="M2 17h1" />
<path stroke="#00037e" d="M3 17h1" />
<path stroke="#0102bb" d="M4 17h1" />
<path stroke="#1203d5" d="M5 17h1" />
<path stroke="#b927f4" d="M7 17h1M6 19h1M37 37h1M37 38h1" />
<path stroke="#dc2efe" d="M8 17h1M6 24h1M5 38h1" />
<path stroke="#ff8a00" d="M25 17h2M16 18h1M23 18h1M26 18h2M8 19h8M21 19h5M27 19h2M7 20h2M13 20h12M26 20h1M28 20h1M7 21h1M9 21h4M17 21h7M25 21h4M8 22h2M13 22h1M25 22h2M14 23h1M24 23h2M15 24h1M24 24h1M16 25h1M23 25h1M16 26h1M22 26h1M17 27h1M21 27h1M18 28h3" />
<path stroke="#00012e" d="M38 17h1" />
<path stroke="#000158" d="M39 17h1M38 18h1" />
<path stroke="#0200d5" d="M0 18h1" />
<path stroke="#0202b7" d="M1 18h1" />
<path stroke="#010386" d="M2 18h1" />
<path stroke="#0002b7" d="M3 18h1" />
<path stroke="#0801d5" d="M4 18h1M3 20h1" />
<path stroke="#300adb" d="M5 18h1M4 20h1" />
<path stroke="#801be7" d="M6 18h1M37 36h1M37 39h1" />
<path stroke="#ce2cfa" d="M7 18h1M35 34h1" />
<path stroke="#000118" d="M37 18h1" />
<path stroke="#0001ad" d="M39 18h1" />
<path stroke="#0300d9" d="M0 19h1M0 20h1" />
<path stroke="#0301c9" d="M1 19h1" />
<path stroke="#0203a3" d="M2 19h1" />
<path stroke="#0101c8" d="M3 19h1" />
<path stroke="#1203d9" d="M4 19h1M3 22h1" />
<path stroke="#5b13e1" d="M5 19h1" />
<path stroke="#0e025b" d="M36 19h1" />
<path stroke="#010163" d="M38 19h1" />
<path stroke="#0001c0" d="M39 19h1" />
<path stroke="#0300d5" d="M1 20h1" />
<path stroke="#0201cd" d="M2 20h1" />
<path stroke="#2b0869" d="M37 20h1" />
<path stroke="#08027d" d="M38 20h1" />
<path stroke="#0001b5" d="M39 20h1" />
<path stroke="#1d1bce" d="M0 21h1" />
<path stroke="#0403d6" d="M1 21h1M2 22h1" />
<path stroke="#0200d9" d="M2 21h1" />
<path stroke="#1003da" d="M3 21h1M39 37h1M39 38h1" />
<path stroke="#5a12e0" d="M4 21h1" />
<path stroke="#b926f4" d="M5 21h1M6 35h1M5 36h1M3 39h1" />
<path stroke="#0e03b7" d="M38 21h1" />
<path stroke="#000491" d="M39 21h1" />
<path stroke="#2e2ec7" d="M1 22h1" />
<path stroke="#6415e2" d="M4 22h1M4 23h1" />
<path stroke="#c82af8" d="M5 22h1" />
<path stroke="#e12fff" d="M6 22h1M6 23h1M6 37h1M5 39h1" />
<path stroke="#ff0000" d="M15 22h2M16 23h3M22 23h1M17 24h1M21 24h2M20 25h2M18 26h3M18 31h1M22 31h1M18 32h2M21 32h2M18 33h1M22 33h3M17 34h1M20 34h1M23 34h1M20 35h2M18 36h5M18 37h3M22 37h3M18 38h7M18 39h1M20 39h4" />
<path stroke="#5a1be0" d="M36 22h1" />
<path stroke="#2d0ada" d="M37 22h1" />
<path stroke="#000484" d="M39 22h1M39 34h1" />
<path stroke="#2d2f6b" d="M0 23h1" />
<path stroke="#2e2dd2" d="M2 23h1" />
<path stroke="#1405da" d="M3 23h1" />
<path stroke="#c72af8" d="M5 23h1" />
<path stroke="#e530ff" d="M7 23h1" />
<path stroke="#fc809a" d="M19 23h3M18 24h3M18 25h2" />
<path stroke="#a74fee" d="M35 23h1" />
<path stroke="#310cdb" d="M37 23h1" />
<path stroke="#0803c7" d="M38 23h1" />
<path stroke="#000583" d="M39 23h1M39 24h1" />
<path stroke="#040641" d="M0 24h1" />
<path stroke="#2a2c81" d="M1 24h1" />
<path stroke="#3d32dd" d="M3 24h1" />
<path stroke="#5a13e1" d="M4 24h1" />
<path stroke="#b726f4" d="M5 24h1" />
<path stroke="#e42fff" d="M7 24h1" />
<path stroke="#e630ff" d="M8 24h1" />
<path stroke="#e742ff" d="M9 24h1" />
<path stroke="#ab39f0" d="M36 24h1" />
<path stroke="#5012de" d="M37 24h1" />
<path stroke="#0e04c7" d="M38 24h1" />
<path stroke="#2f319b" d="M2 25h1" />
<path stroke="#4423df" d="M4 25h1" />
<path stroke="#7517e5" d="M5 25h1" />
<path stroke="#be28f6" d="M6 25h1" />
<path stroke="#dd2efe" d="M7 25h1" />
<path stroke="#e330ff" d="M8 25h1" />
<path stroke="#782fe1" d="M36 25h1" />
<path stroke="#300ccc" d="M37 25h1" />
<path stroke="#0803b7" d="M38 25h1M1 38h1" />
<path stroke="#00057d" d="M39 25h1M39 33h1" />
<path stroke="#030641" d="M1 26h1" />
<path stroke="#313384" d="M2 26h1" />
<path stroke="#3b34dd" d="M4 26h1" />
<path stroke="#320cdd" d="M5 26h1" />
<path stroke="#ce2bfa" d="M7 26h1M7 35h1" />
<path stroke="#e230ff" d="M8 26h1M35 35h1M7 38h1" />
<path stroke="#e743ff" d="M9 26h1" />
<path stroke="#3016cd" d="M36 26h1" />
<path stroke="#0b0698" d="M37 26h1" />
<path stroke="#01057d" d="M38 26h1M38 32h1M1 37h1" />
<path stroke="#000568" d="M39 26h1M39 32h1M0 37h1" />
<path stroke="#000544" d="M0 27h1" />
<path stroke="#181b51" d="M1 27h1" />
<path stroke="#4749a6" d="M3 27h1" />
<path stroke="#3c30e0" d="M5 27h1" />
<path stroke="#5d15e2" d="M6 27h1" />
<path stroke="#ba27f4" d="M7 27h1" />
<path stroke="#dd2ffe" d="M8 27h1M36 37h1M36 38h1" />
<path stroke="#db6206" d="M23 27h3M27 28h1M16 29h1M28 29h1M15 31h1" />
<path stroke="#0e06d5" d="M35 27h1" />
<path stroke="#02047d" d="M37 27h1" />
<path stroke="#000563" d="M38 27h1M1 36h1" />
<path stroke="#000561" d="M39 27h1M38 28h1M37 29h2M37 30h2M39 31h1M3 32h1M3 33h1M1 35h1M0 36h1" />
<path stroke="#030759" d="M0 28h1" />
<path stroke="#31356c" d="M1 28h1" />
<path stroke="#1d1f80" d="M3 28h1" />
<path stroke="#2f2fce" d="M4 28h1" />
<path stroke="#4523df" d="M6 28h1" />
<path stroke="#cd2cfa" d="M8 28h1" />
<path stroke="#823b04" d="M22 28h1M23 29h2M25 30h1M23 31h1M24 32h1M17 33h1M26 33h1M16 34h1M25 34h1M31 34h1M13 35h3M25 35h1M29 35h2M12 36h1M16 36h1M25 36h1M27 36h2M13 37h1M16 37h1M25 37h2M14 38h1M16 38h1M25 38h1M27 38h1M15 39h2M25 39h1M28 39h1" />
<path stroke="#e96904" d="M23 28h4M25 29h3M16 30h1M26 30h3M26 31h4M15 32h1M28 32h3M14 33h1M29 33h1M13 34h1M29 34h1M27 35h1M17 36h1M14 37h1M13 38h1M14 39h1" />
<path stroke="#ea60ff" d="M29 28h1" />
<path stroke="#6715e2" d="M32 28h1" />
<path stroke="#0202bf" d="M35 28h1" />
<path stroke="#01048e" d="M36 28h1" />
<path stroke="#000661" d="M39 28h1M39 29h1M39 30h1M0 32h3M0 33h3M0 34h3M0 35h1" />
<path stroke="#191d6f" d="M0 29h1" />
<path stroke="#2f336c" d="M2 29h1" />
<path stroke="#04066b" d="M3 29h1" />
<path stroke="#1919ba" d="M4 29h1" />
<path stroke="#afaeef" d="M5 29h1" />
<path stroke="#4035de" d="M6 29h1" />
<path stroke="#5c15e1" d="M7 29h1" />
<path stroke="#b827f4" d="M8 29h1" />
<path stroke="#e962ff" d="M10 29h1M9 36h1" />
<path stroke="#e96804" d="M17 29h1M17 30h1M16 31h2M16 32h1M26 32h2M15 33h1M27 33h2M14 34h1M27 34h2M31 35h1M29 36h2M27 37h3M26 38h1M28 38h1M32 38h1M26 39h2M29 39h5" />
<path stroke="#e84cff" d="M30 29h1" />
<path stroke="#6916e2" d="M32 29h1" />
<path stroke="#1904da" d="M33 29h1" />
<path stroke="#020493" d="M35 29h1" />
<path stroke="#00056a" d="M36 29h1M37 31h1" />
<path stroke="#191e70" d="M0 30h1" />
<path stroke="#191d69" d="M2 30h1" />
<path stroke="#000559" d="M3 30h1" />
<path stroke="#03067a" d="M4 30h1" />
<path stroke="#2a2da8" d="M5 30h1" />
<path stroke="#9f9deb" d="M6 30h1" />
<path stroke="#5335e2" d="M7 30h1" />
<path stroke="#801de8" d="M8 30h1" />
<path stroke="#cf31fa" d="M9 30h1M33 32h1" />
<path stroke="#e54bff" d="M10 30h1" />
<path stroke="#ec73ff" d="M12 30h1M13 32h1M13 33h1M12 34h1M11 35h2M10 38h1M10 39h2" />
<path stroke="#fb8023" d="M18 30h1M29 30h1M30 31h1M17 32h1M31 32h1M16 33h1M30 33h2M15 34h1M30 34h1M16 35h1M28 35h1M26 36h1M31 36h2M30 37h2M29 38h2M13 39h1" />
<path stroke="#db6306" d="M23 30h2M24 31h2M25 32h1M26 34h1M26 35h1M13 36h1M12 37h1M12 38h1M15 38h1M12 39h1" />
<path stroke="#ea65ff" d="M30 30h1" />
<path stroke="#d547fa" d="M31 30h1" />
<path stroke="#5c13e1" d="M33 30h1" />
<path stroke="#2d09c9" d="M34 30h1" />
<path stroke="#080484" d="M35 30h1" />
<path stroke="#000564" d="M36 30h1" />
<path stroke="#030863" d="M0 31h1" />
<path stroke="#14196d" d="M1 31h1" />
<path stroke="#030862" d="M2 31h1" />
<path stroke="#00055e" d="M3 31h1" />
<path stroke="#000562" d="M4 31h1M38 31h1M4 32h1" />
<path stroke="#04067e" d="M5 31h1" />
<path stroke="#2f2fc7" d="M6 31h1" />
<path stroke="#b9b4f3" d="M7 31h1" />
<path stroke="#762de5" d="M8 31h1" />
<path stroke="#c92cf8" d="M9 31h1" />
<path stroke="#e343ff" d="M10 31h1" />
<path stroke="#ea69ff" d="M11 31h1M9 38h1M9 39h1M34 39h1" />
<path stroke="#e662fe" d="M31 31h1" />
<path stroke="#d13dfa" d="M32 31h1" />
<path stroke="#b527f3" d="M33 31h1" />
<path stroke="#5b13d4" d="M34 31h1" />
<path stroke="#12059a" d="M35 31h1" />
<path stroke="#01047e" d="M36 31h1" />
<path stroke="#000571" d="M5 32h1" />
<path stroke="#191aaa" d="M6 32h1" />
<path stroke="#b9b4f1" d="M7 32h1" />
<path stroke="#8343e8" d="M8 32h1" />
<path stroke="#cb32f8" d="M9 32h1" />
<path stroke="#e54cff" d="M10 32h1M9 35h1" />
<path stroke="#eb6bff" d="M11 32h1M32 34h1M10 35h1M33 36h1" />
<path stroke="#ec71ff" d="M14 32h1M11 33h1M32 35h1M10 36h2M11 38h1" />
<path stroke="#e64cff" d="M32 32h1M33 34h1" />
<path stroke="#801be4" d="M34 32h1" />
<path stroke="#330ace" d="M35 32h1" />
<path stroke="#1204bc" d="M36 32h1M3 36h1" />
<path stroke="#080492" d="M37 32h1" />
<path stroke="#01056a" d="M4 33h1M3 34h1" />
<path stroke="#08058e" d="M5 33h1M3 35h1" />
<path stroke="#1406c1" d="M6 33h1" />
<path stroke="#5432df" d="M7 33h1" />
<path stroke="#cca4f6" d="M8 33h1" />
<path stroke="#d44dfb" d="M9 33h1" />
<path stroke="#e862ff" d="M10 33h1" />
<path stroke="#be0808" d="M19 33h1M21 33h1M25 33h1M18 34h1M22 34h1M24 34h1M17 35h1M23 35h1" />
<path stroke="#ee0505" d="M20 33h1M19 34h1M21 34h1M18 35h1M22 35h1M24 35h1M23 36h1M17 37h1M17 38h1M17 39h1" />
<path stroke="#ea63ff" d="M32 33h1M33 35h1" />
<path stroke="#df3ffe" d="M33 33h1" />
<path stroke="#c129f7" d="M34 33h1" />
<path stroke="#811be8" d="M35 33h1" />
<path stroke="#5c13dd" d="M36 33h1" />
<path stroke="#2d09cc" d="M37 33h1" />
<path stroke="#0803b8" d="M38 33h1" />
<path stroke="#0b058e" d="M4 34h1" />
<path stroke="#2f0ac1" d="M5 34h1M4 35h1" />
<path stroke="#5c13dc" d="M6 34h1" />
<path stroke="#811ce8" d="M7 34h1" />
<path stroke="#c439f7" d="M8 34h1" />
<path stroke="#df44fe" d="M9 34h1" />
<path stroke="#ea68ff" d="M10 34h1M9 37h1" />
<path stroke="#ec72ff" d="M11 34h1M10 37h1" />
<path stroke="#de34fe" d="M34 34h1" />
<path stroke="#b426f3" d="M36 34h1" />
<path stroke="#5a13df" d="M37 34h1" />
<path stroke="#1004c8" d="M38 34h1" />
<path stroke="#000569" d="M2 35h1" />
<path stroke="#7718e1" d="M5 35h1" />
<path stroke="#dd33fe" d="M8 35h1" />
<path stroke="#e640ff" d="M34 35h1M35 37h1" />
<path stroke="#ca2bf8" d="M36 35h1" />
<path stroke="#6615e2" d="M37 35h1" />
<path stroke="#1404cc" d="M38 35h1" />
<path stroke="#010499" d="M39 35h1" />
<path stroke="#01047d" d="M2 36h1" />
<path stroke="#5b13dc" d="M4 36h1" />
<path stroke="#db2efe" d="M6 36h1M4 39h1" />
<path stroke="#e130ff" d="M7 36h1M7 37h1M6 38h1M6 39h2" />
<path stroke="#e340ff" d="M8 36h1" />
<path stroke="#e96704" d="M14 36h2M15 37h1M31 38h1" />
<path stroke="#e94cff" d="M34 36h1" />
<path stroke="#e535ff" d="M35 36h1" />
<path stroke="#cf2cfa" d="M36 36h1M36 39h1" />
<path stroke="#300ad8" d="M38 36h1" />
<path stroke="#0802cb" d="M39 36h1" />
<path stroke="#0b0498" d="M2 37h1" />
<path stroke="#320acd" d="M3 37h1" />
<path stroke="#7f1ae6" d="M4 37h1" />
<path stroke="#cd2bfa" d="M5 37h1" />
<path stroke="#e442ff" d="M8 37h1" />
<path stroke="#ec6dff" d="M11 37h1" />
<path stroke="#ffc89f" d="M32 37h1M33 38h1" />
<path stroke="#eb70ff" d="M33 37h1" />
<path stroke="#eb62ff" d="M34 37h1" />
<path stroke="#5a13e0" d="M38 37h1M38 38h1" />
<path stroke="#00057c" d="M0 38h1" />
<path stroke="#2f0acd" d="M2 38h1" />
<path stroke="#7719e2" d="M3 38h1" />
<path stroke="#bf28f5" d="M4 38h1" />
<path stroke="#e443ff" d="M8 38h1M8 39h1" />
<path stroke="#eb69ff" d="M34 38h1" />
<path stroke="#e643ff" d="M35 38h1M35 39h1" />
<path stroke="#000582" d="M0 39h1" />
<path stroke="#1004c6" d="M1 39h1" />
<path stroke="#5a12df" d="M2 39h1" />
<path stroke="#300adc" d="M38 39h1" />
<path stroke="#0802d9" d="M39 39h1" />
</svg>