<svg xmlns="http://www.w3.org/2000/svg" viewBox="0 -0.5 40 40" shape-rendering="crispEdges">
<metadata>Made with Pixels to Svg https://codepen.io/shshaw/pen/XbxvNj</metadata>
<path stroke="#fd7091" d="M0 0h4M5 0h1M32 0h8M0 1h5M33 1h7M0 2h5M34 2h6M0 3h4M35 3h5M0 4h4M36 4h4M0 5h4M37 5h3M0 6h4M37 6h3M0 7h4M38 7h2M0 8h4M38 8h2M0 9h5M38 9h2M0 10h5M38 10h2M0 11h6M39 11h1M0 12h6M39 12h1M0 13h6M39 13h1M0 14h6M39 14h1M0 15h5M39 15h1M0 16h5M39 16h1M0 17h4M39 17h1M0 18h4M38 18h2M0 19h4M38 19h2M0 20h3M37 20h3M0 21h3M33 21h1M37 21h3M0 22h3M33 22h7M0 23h3M33 23h7M0 24h4M33 24h7M0 25h5M31 25h9M0 26h6M31 26h9M0 27h9M32 27h8M0 28h10M33 28h7M0 29h11M34 29h6M0 30h11M35 30h5M0 31h9M36 31h4M0 32h8M37 32h3M0 33h7M38 33h2M0 34h6M39 34h1M0 35h5M0 36h4M0 37h3M0 38h2M0 39h1" />
<path stroke="#fd6f91" d="M4 0h1M30 25h1M29 26h2M28 27h4M28 28h5M11 29h1M29 29h5M11 30h2M30 30h5M9 31h3M32 31h4M8 32h3M33 32h4M7 33h4M34 33h4M6 34h4M35 34h4M5 35h4M36 35h4M4 36h5M37 36h3M3 37h6M37 37h3M2 38h6M38 38h2M1 39h7M38 39h2" />
<path stroke="#fb6f90" d="M6 0h1M31 0h1M32 1h1M33 2h1M4 3h1M34 3h1M35 4h1M36 5h1M37 7h1M4 8h1M5 10h1M38 11h1M6 13h1M6 14h1M5 15h1M4 17h1M38 17h1M37 19h1M3 20h1M33 20h1M36 20h1M3 23h1M4 24h1M32 24h1M5 25h1M6 26h1M9 27h1M10 28h1" />
<path stroke="#ed6887" d="M7 0h1M5 3h1M36 7h1M37 11h1M7 14h1M4 20h1" />
<path stroke="#d45c79" d="M8 0h1M6 3h1M35 7h1M7 10h1M6 17h1M36 17h1M5 20h1M14 28h1M26 30h1M29 32h1M12 34h1M10 38h1M35 38h1" />
<path stroke="#ca5874" d="M9 0h1" />
<path stroke="#d35c78" d="M10 0h1M30 17h1M11 39h1" />
<path stroke="#006546" d="M11 0h4M10 1h1M15 1h4M9 2h1M19 2h6M8 3h1M25 3h5M7 4h1M30 4h2M7 5h1M32 5h1M7 6h1M33 6h1M8 7h2M34 7h1M9 8h3M34 8h1M34 9h1M34 10h1M33 11h1M29 12h3M20 29h1" />
<path stroke="#cc5974" d="M15 0h1" />
<path stroke="#ca5873" d="M16 0h5M27 0h1M9 1h1M24 1h1M8 2h1M25 2h1M28 2h2M7 3h1M30 3h1M6 5h1M6 6h1M7 8h1M35 9h1M8 10h1M35 10h1M8 11h1M35 11h1M9 13h1M36 13h1M9 14h1M36 14h1M30 15h3M36 15h1M8 16h1M33 16h1M7 17h1M29 17h1M34 17h2M6 19h1M6 22h1M7 23h1M10 23h2M9 24h2M26 24h1M11 25h1M25 25h1M12 26h2M14 27h2M24 27h1M24 28h1M16 29h1M24 29h1M16 30h1M25 31h2M15 32h1M27 32h1M14 33h1M28 33h2M13 34h1M30 34h1M12 36h1M11 37h1M33 37h1M34 38h1M34 39h1" />
<path stroke="#c95873" d="M21 0h6M25 1h3M26 2h2M7 7h1M8 8h1M8 9h3M9 10h1M9 11h1M34 11h1M9 12h1M28 12h1M34 12h2M10 13h1M28 13h4M34 13h2M10 14h1M29 14h3M35 14h1M9 15h1M29 15h1M29 16h1M35 16h1M8 17h1M7 18h1M11 24h3M12 25h3M14 26h1M24 26h1M23 27h1M16 28h1M23 28h1M17 29h2M23 29h1M17 30h1M24 30h1M16 31h1M26 32h1M15 33h1M27 33h1M14 34h1M13 35h1" />
<path stroke="#d35c79" d="M28 0h1M19 1h1M36 11h1M8 13h1M8 14h1M25 27h1M15 29h1M25 29h1M15 30h1" />
<path stroke="#eb6786" d="M29 0h1" />
<path stroke="#f56c8c" d="M30 0h1M36 6h1M37 8h1M38 12h1M5 16h1M38 16h1M37 18h1" />
<path stroke="#fb6e90" d="M5 1h1M29 25h1M28 26h1M27 27h1M12 29h1M28 29h1M29 30h1M12 31h1M31 31h1M11 32h1M32 32h1M33 33h1M10 34h1M34 34h1M9 35h1M35 35h1M36 36h1M8 38h1M37 38h1" />
<path stroke="#f06989" d="M6 1h1M32 2h1M6 15h1M36 19h1" />
<path stroke="#da607d" d="M7 1h1M7 15h1" />
<path stroke="#cd5975" d="M8 1h1M7 2h1M30 2h1M31 3h1M6 4h1M32 4h1M33 5h1M34 6h1M6 7h1M35 8h1M7 9h1M8 12h1M36 12h1M8 15h1M7 16h1M32 16h1M36 16h1M33 17h1M6 18h1M5 21h1M10 25h1M26 25h1M25 26h1M13 27h1M15 31h1M27 31h1M14 32h1M28 32h1M13 33h1M30 33h1M31 34h1M12 35h1M32 35h1M11 36h1M33 36h1M34 37h1M11 38h1M10 39h1M35 39h1" />
<path stroke="#00b67b" d="M11 1h2M21 1h2M14 2h3M14 3h2M9 4h2M9 5h3M10 6h2M26 8h1M27 9h1M13 10h1M27 10h2M15 11h1M29 11h2M13 15h1M13 16h1M13 17h1M19 23h3M18 24h3M18 25h2" />
<path stroke="#00b57c" d="M13 1h2M10 2h4M9 3h5M16 3h4M23 3h2M11 4h17M12 5h3M23 5h6M24 6h6M25 7h3M15 9h1M11 10h2M14 10h2M17 10h5M21 11h1M22 12h1M12 13h2M18 13h2M22 13h1M12 14h2M18 14h2M22 14h1M12 15h1M18 15h1M22 15h1M12 16h1M18 16h1M22 16h1M18 17h1M23 17h1M18 18h2M22 18h2M26 18h1M27 19h1M15 36h1M14 37h1M14 38h1" />
<path stroke="#cc5975" d="M20 1h1M28 1h1M30 16h1M15 28h1M25 30h1" />
<path stroke="#27c998" d="M23 1h1M17 2h2M20 3h3M28 4h2M22 8h1M23 9h1M13 12h1M18 12h2M14 13h1M20 13h1M14 14h1M27 14h1M16 18h1M25 19h1M24 20h1M23 21h1M27 21h1M24 24h1M23 25h1M22 26h1M20 28h1M21 29h1M21 30h1M22 31h1M15 37h1M15 38h1M27 38h1M14 39h1M27 39h1" />
<path stroke="#d45d79" d="M29 1h1M9 25h1M12 27h1" />
<path stroke="#dd617e" d="M30 1h1M6 2h1M5 4h1M35 6h1M5 7h1M36 8h1M7 12h1M37 12h1M6 16h1M37 16h1M5 18h1M36 18h1M7 25h1M11 27h1" />
<path stroke="#ef6989" d="M31 1h1M33 3h1M34 4h1M35 5h1" />
<path stroke="#f66c8c" d="M5 2h1M4 4h1M4 7h1M5 9h1M6 12h1M4 18h1M3 21h1M3 22h1M31 24h1M7 26h1M11 28h1" />
<path stroke="#db607d" d="M31 2h1M32 3h1M33 4h1M34 5h1M33 18h1M5 23h1M6 24h1M10 26h1" />
<path stroke="#29cc97" d="M8 4h1M8 5h1M29 5h3M8 6h2M12 6h1M10 7h2M32 13h1" />
<path stroke="#f46b8b" d="M4 5h1M4 6h1M6 11h1M4 19h1M30 24h1M8 26h1" />
<path stroke="#d75e7a" d="M5 5h1M5 6h1M5 19h1M8 25h1" />
<path stroke="#00553a" d="M15 5h8M13 6h11M12 7h13M23 8h3M24 9h3M25 10h2M26 11h3M26 12h2M27 13h1" />
<path stroke="#28ca97" d="M30 6h2M28 7h4M27 8h4M28 9h1" />
<path stroke="#90e4c8" d="M32 6h1M33 7h1" />
<path stroke="#59d5ae" d="M32 7h1M31 8h3M29 9h5M30 10h1M8 19h2" />
<path stroke="#ee6888" d="M5 8h1M12 28h1" />
<path stroke="#d55c79" d="M6 8h1" />
<path stroke="#006447" d="M12 8h1M11 9h3M18 9h4M10 10h1M22 10h1M10 11h1M13 11h2M18 11h3M10 12h1M12 12h1M15 12h1M17 12h1M21 12h1M11 13h1M15 13h1M17 13h1M21 13h1M11 14h1M15 14h1M17 14h1M28 14h1M10 15h2M15 15h1M17 15h1M21 15h1M28 15h1M9 16h1M11 16h1M15 16h1M17 16h1M21 16h1M23 16h4M28 16h1M9 17h1M12 17h1M15 17h3M21 17h2M27 17h2M8 18h8M17 18h1M20 18h2M24 18h2M28 18h1M7 19h1M16 19h5M26 19h1M29 19h1M6 20h1M9 20h4M25 20h1M27 20h1M29 20h1M6 21h1M8 21h1M13 21h4M24 21h1M29 21h1M7 22h1M10 22h3M14 22h1M17 22h8M27 22h2M8 23h2M12 23h2M15 23h1M23 23h1M26 23h1M14 24h1M16 24h1M23 24h1M25 24h1M15 25h1M17 25h1M22 25h1M24 25h1M15 26h1M17 26h1M21 26h1M23 26h1M16 27h1M18 27h3M22 27h1M17 28h1M21 28h2M19 29h1M22 29h1M18 30h1M22 30h2M17 31h2M23 31h2M16 32h1M19 32h1M22 32h1M25 32h1M16 33h1M20 33h1M22 33h1M26 33h1M15 34h1M19 34h1M23 34h1M27 34h3M14 35h2M20 35h1M22 35h1M26 35h1M30 35h2M13 36h1M16 36h1M19 36h1M23 36h1M25 36h2M31 36h2M12 37h1M17 37h2M24 37h1M32 37h1M12 38h1M16 38h1M28 38h1M33 38h1M12 39h1M15 39h2M28 39h2M33 39h1" />
<path stroke="#00b47c" d="M13 8h9M14 9h1M16 9h2M22 9h1M16 10h1M23 10h1M11 11h2M16 11h2M22 11h3M11 12h1M16 12h1M23 12h3M16 13h1M23 13h3M16 14h1M23 14h4M16 15h1M23 15h5M10 16h1M16 16h1M27 16h1M10 17h2M22 19h3M13 20h3M21 20h3M26 20h1M7 21h1M9 21h4M17 21h6M25 21h2M8 22h2M13 22h1M25 22h2M14 23h1M24 23h2M15 24h1M16 25h1M16 26h1M17 27h1M21 27h1M18 28h2M19 30h2M19 31h3M20 32h2M27 35h2M14 36h1M20 36h3M27 36h3M13 37h1M16 37h1M19 37h5M25 37h6M13 38h1M17 38h10M29 38h3M13 39h1M17 39h10M30 39h2" />
<path stroke="#df617e" d="M6 9h1" />
<path stroke="#d65e7a" d="M36 9h1M36 10h1M7 11h1M37 13h1M37 14h1M37 15h1" />
<path stroke="#f36b8b" d="M37 9h1M37 10h1M38 13h1M38 14h1M38 15h1M32 22h1" />
<path stroke="#ed6888" d="M6 10h1M7 13h1M5 17h1M37 17h1M32 18h1M29 24h1" />
<path stroke="#58d5af" d="M24 10h1M26 13h1M25 17h1M24 32h1M26 34h1M30 36h1M31 37h1" />
<path stroke="#59d6ae" d="M29 10h1M31 10h2M31 11h1M33 12h1M33 13h1" />
<path stroke="#91e5c8" d="M33 10h1M32 11h1M14 12h1M20 12h1M26 17h1M27 18h1" />
<path stroke="#90e3c9" d="M25 11h1M28 19h1M25 33h1M29 35h1" />
<path stroke="#006646" d="M32 12h1" />
<path stroke="#00543b" d="M20 14h1M14 15h1M19 15h2M14 16h1M19 16h2M14 17h1M19 17h2M15 22h2M16 23h3M22 23h1M17 24h1M21 24h2M20 25h2M18 26h3" />
<path stroke="#006346" d="M21 14h1" />
<path stroke="#00b87a" d="M32 14h2M33 15h2M34 16h1" />
<path stroke="#92e5c8" d="M34 14h1M35 15h1" />
<path stroke="#d15b78" d="M31 16h1" />
<path stroke="#26c799" d="M24 17h1M10 19h6M21 19h1M7 20h2M16 20h5M28 20h1M28 21h1M17 32h2M23 32h1M17 33h3M21 33h1M23 33h2M16 34h3M20 34h3M24 34h2M16 35h4M21 35h1M23 35h3M17 36h2M24 36h1M32 38h1M32 39h1" />
<path stroke="#e46482" d="M31 17h1" />
<path stroke="#da5f7d" d="M32 17h1" />
<path stroke="#ca5875" d="M29 18h1M30 20h1M30 21h1M29 22h1M27 23h1" />
<path stroke="#d35c7a" d="M30 18h1" />
<path stroke="#ea6787" d="M31 18h1" />
<path stroke="#ce5975" d="M34 18h1M5 22h1M6 23h1M7 24h1M11 26h1" />
<path stroke="#ce5a75" d="M35 18h1" />
<path stroke="#cd5977" d="M30 19h1M28 23h1" />
<path stroke="#dd6180" d="M31 19h1" />
<path stroke="#f36b8c" d="M32 19h1M32 20h1M32 21h1" />
<path stroke="#f1698a" d="M33 19h1" />
<path stroke="#df617f" d="M34 19h1" />
<path stroke="#de617f" d="M35 19h1M4 21h1M4 22h1" />
<path stroke="#d65e7c" d="M31 20h1M31 21h1" />
<path stroke="#f66c8d" d="M34 20h2" />
<path stroke="#fd7092" d="M34 21h3" />
<path stroke="#cb5875" d="M30 22h1" />
<path stroke="#d75e7c" d="M31 22h1M30 23h1" />
<path stroke="#f16989" d="M4 23h1M5 24h1M6 25h1M10 27h1" />
<path stroke="#d45d7b" d="M29 23h1" />
<path stroke="#e06281" d="M31 23h1" />
<path stroke="#f56c8d" d="M32 23h1" />
<path stroke="#cb5873" d="M8 24h1" />
<path stroke="#cd5976" d="M27 24h1" />
<path stroke="#db5f7e" d="M28 24h1" />
<path stroke="#db5f7d" d="M27 25h1M26 26h1M14 31h1M13 32h1M31 33h1M32 34h1M11 35h1M33 35h1M34 36h1" />
<path stroke="#f06889" d="M28 25h1M13 31h1M12 32h1M31 32h1M10 35h1" />
<path stroke="#ee6887" d="M9 26h1" />
<path stroke="#f16889" d="M27 26h1" />
<path stroke="#ed6787" d="M26 27h1M29 31h1M11 34h1M9 38h1M36 38h1" />
<path stroke="#de617e" d="M13 28h1" />
<path stroke="#d65d7a" d="M25 28h1" />
<path stroke="#f26a8a" d="M26 28h1" />
<path stroke="#fd6e91" d="M27 28h1" />
<path stroke="#f56b8c" d="M13 29h1M27 29h1M30 31h1M11 33h1M36 37h1M37 39h1" />
<path stroke="#ea6686" d="M14 29h1" />
<path stroke="#eb6686" d="M26 29h1" />
<path stroke="#fa6d8f" d="M13 30h1" />
<path stroke="#ec6787" d="M14 30h1" />
<path stroke="#dd607e" d="M27 30h1M30 32h1M12 33h1M10 36h1M35 37h1M9 39h1M36 39h1" />
<path stroke="#ef6889" d="M28 30h1M32 33h1M33 34h1M34 35h1M35 36h1" />
<path stroke="#da5f7c" d="M28 31h1" />
<path stroke="#f66b8c" d="M9 36h1M8 39h1" />
<path stroke="#f46a8b" d="M9 37h1" />
<path stroke="#d75d7a" d="M10 37h1" />
</svg>