<svg xmlns="http://www.w3.org/2000/svg" viewBox="0 -0.5 40 40" shape-rendering="crispEdges">
<metadata>Made with Pixels to Svg https://codepen.io/shshaw/pen/XbxvNj</metadata>
<path stroke="#ff98e1" d="M0 0h2M0 1h2M0 2h2M0 3h3M2 5h1M3 8h1M0 22h1M0 23h2M0 24h4M0 25h5M0 26h7M0 27h5" />
<path stroke="#fe99e0" d="M2 0h1M5 25h1" />
<path stroke="#e4a9c8" d="M3 0h1M8 25h1" />
<path stroke="#75d167" d="M4 0h1" />
<path stroke="#21dc15" d="M5 0h1M5 1h1" />
<path stroke="#75d201" d="M6 0h1M6 1h1" />
<path stroke="#e3ae00" d="M7 0h1M7 1h1M7 2h1M7 3h1" />
<path stroke="#fea000" d="M8 0h1M35 0h1M8 1h1M8 2h1M8 3h1M8 4h1M9 6h1M37 15h1M35 16h1M33 17h1M36 29h1M6 32h1M38 32h1M4 33h1M0 34h3M39 34h1" />
<path stroke="#ff9f00" d="M9 0h2M36 0h4M9 1h1M35 1h5M9 2h1M34 2h2M9 3h1M9 4h1M9 5h1M0 12h1M1 13h1M39 15h1M36 16h4M34 17h6M32 18h8M38 19h2M6 31h2M38 31h2M0 32h6M39 32h1M0 33h4M39 33h1" />
<path stroke="#ff9f09" d="M11 0h1M37 2h1M34 3h1M32 4h1M0 10h1M2 13h1M36 19h1M38 20h1M37 29h1M4 31h1" />
<path stroke="#ff9f33" d="M12 0h1M11 2h1M37 3h1M34 4h1M7 17h1M38 21h1M33 24h1M36 26h1" />
<path stroke="#ff9c83" d="M13 0h1M12 2h1M37 4h1M34 5h1" />
<path stroke="#ff98d0" d="M14 0h1" />
<path stroke="#ff97e3" d="M15 0h1M14 2h1M39 5h1M36 6h1M34 7h1M31 9h1M39 25h1" />
<path stroke="#d40000" d="M16 0h2M21 0h2M15 1h1M23 1h1M15 2h1M24 2h1M14 3h1M14 4h1M13 5h1M19 5h1M14 6h1M16 6h1M19 6h1M23 6h2M15 7h1M21 7h2M16 8h5" />
<path stroke="#ffd500" d="M18 0h2M18 1h1M17 2h1M17 3h1M17 4h1M14 5h1M17 5h1M23 5h2M15 6h1M17 6h1M21 6h2M16 7h5M25 25h1M23 26h2M23 27h1M14 28h2M22 29h1M21 30h1M21 31h1M21 32h1M20 33h1M20 34h1M19 36h1M19 37h1M18 38h3M19 39h1M21 39h1M30 39h1" />
<path stroke="#bd0303" d="M20 0h1M19 1h1M18 2h1M18 3h1M18 4h1M18 5h1M18 6h1" />
<path stroke="#ff9e5c" d="M23 0h1M38 3h1M6 29h1M3 30h1" />
<path stroke="#ff9f14" d="M24 0h1M39 2h1M2 12h1M37 28h1M8 29h1M0 31h2" />
<path stroke="#ff9f32" d="M25 0h1M32 5h1M0 7h1M4 14h1M5 15h1M6 16h1M7 29h1M4 30h1" />
<path stroke="#ff9d81" d="M26 0h1M25 2h1M1 7h1M3 11h1M36 25h1M7 28h1M4 29h1" />
<path stroke="#ff9acd" d="M27 0h1M7 27h1M4 28h1" />
<path stroke="#f99ddb" d="M28 0h1" />
<path stroke="#e7a7cd" d="M29 0h1" />
<path stroke="#c8b5b2" d="M30 0h1" />
<path stroke="#68d35c" d="M31 0h1" />
<path stroke="#3fda12" d="M32 0h1" />
<path stroke="#93cb00" d="M33 0h1" />
<path stroke="#e8ab00" d="M34 0h1M9 8h1M0 14h1" />
<path stroke="#fe99e1" d="M2 1h1M2 2h1M2 23h1" />
<path stroke="#e4a9c9" d="M3 1h1" />
<path stroke="#75d168" d="M4 1h1M39 11h1" />
<path stroke="#ff9f01" d="M10 1h1M36 2h1M33 3h1M0 11h1M1 12h1M2 14h1M3 15h1M4 16h1M5 17h1M6 18h1M37 19h1M39 20h1M35 27h1M36 28h1M8 30h1M37 30h1M5 31h1" />
<path stroke="#ff9f15" d="M11 1h1M10 4h1M33 4h1M10 6h1M30 6h1M31 19h4M37 20h1" />
<path stroke="#ff9e5e" d="M12 1h1M35 20h1" />
<path stroke="#ff9aba" d="M13 1h1M35 5h1M33 6h1M30 8h1" />
<path stroke="#ff98de" d="M14 1h1M13 3h1M33 7h1M35 22h1M37 23h1M38 24h1" />
<path stroke="#ff0000" d="M16 1h2M20 1h2M16 2h1M19 2h4M15 3h2M19 3h6M15 4h2M19 4h6M15 5h2M20 5h3M25 5h1M20 6h1" />
<path stroke="#ffe1e1" d="M22 1h1M23 2h1" />
<path stroke="#ff9f18" d="M24 1h1" />
<path stroke="#ff9e5d" d="M25 1h1M11 3h1M35 4h1M0 6h1M3 12h1M8 28h1" />
<path stroke="#ff9bb7" d="M26 1h1M4 12h1" />
<path stroke="#f99dd5" d="M27 1h1M26 3h1" />
<path stroke="#d7afbe" d="M28 1h1" />
<path stroke="#92ca82" d="M29 1h1" />
<path stroke="#69d45d" d="M30 1h1" />
<path stroke="#50d82f" d="M31 1h1" />
<path stroke="#8acd09" d="M32 1h1M31 2h1" />
<path stroke="#d7b400" d="M33 1h1M8 32h1" />
<path stroke="#f9a300" d="M34 1h1M1 14h1M39 14h1M36 15h1M34 16h1M5 33h1M3 34h1" />
<path stroke="#e4a8ca" d="M3 2h1" />
<path stroke="#76d06a" d="M4 2h1" />
<path stroke="#23dc17" d="M5 2h1" />
<path stroke="#75d202" d="M6 2h1" />
<path stroke="#ff9f08" d="M10 2h1M34 26h1M7 30h1M38 30h1" />
<path stroke="#ff98cf" d="M13 2h1" />
<path stroke="#fe9acb" d="M26 2h1" />
<path stroke="#e8a6cc" d="M27 2h1" />
<path stroke="#93c982" d="M28 2h1" />
<path stroke="#3fda36" d="M29 2h1" />
<path stroke="#3fda14" d="M30 2h1" />
<path stroke="#d7b401" d="M32 2h1M11 28h1" />
<path stroke="#f8a300" d="M33 2h1M32 3h1M8 5h1M9 7h1M3 16h1M4 17h1M34 27h1M35 28h1M37 31h1M38 33h1M39 35h1" />
<path stroke="#ff9f12" d="M38 2h1M10 3h1M35 3h1M0 9h1M35 19h1" />
<path stroke="#eaa5d0" d="M3 3h1M5 10h1M6 11h1" />
<path stroke="#95c884" d="M4 3h1" />
<path stroke="#3eda33" d="M5 3h1M37 12h1M34 13h1" />
<path stroke="#75d209" d="M6 3h1M8 9h1" />
<path stroke="#ff9abb" d="M12 3h1M35 21h1M37 22h1" />
<path stroke="#ff9bb8" d="M25 3h1M2 9h1M8 27h1M6 28h1M3 29h1" />
<path stroke="#d0b2b8" d="M27 3h1" />
<path stroke="#6bd35e" d="M28 3h1M6 23h1" />
<path stroke="#3fda15" d="M29 3h1" />
<path stroke="#89ce02" d="M30 3h1" />
<path stroke="#d6b400" d="M31 3h1M30 4h1M2 16h1M3 17h1M32 26h1M33 27h1M9 31h1" />
<path stroke="#ff9f17" d="M36 3h1" />
<path stroke="#ff9d68" d="M39 3h1M11 4h1M11 5h1M31 20h1" />
<path stroke="#ff9ace" d="M0 4h1" />
<path stroke="#ff99dc" d="M1 4h1M4 10h1M5 12h1M39 26h1M6 27h1" />
<path stroke="#ff98e2" d="M2 4h1M3 7h1M39 7h1M37 8h3M36 9h1M32 10h2" />
<path stroke="#f99cdd" d="M3 4h1" />
<path stroke="#d2b2b9" d="M4 4h1" />
<path stroke="#6bd35c" d="M5 4h1" />
<path stroke="#76d212" d="M6 4h1" />
<path stroke="#e2af00" d="M7 4h1" />
<path stroke="#ff99ca" d="M12 4h1M39 4h1M33 21h1" />
<path stroke="#ff97e2" d="M13 4h1M36 23h1" />
<path stroke="#fe9ac7" d="M25 4h1" />
<path stroke="#e8a7cb" d="M26 4h1" />
<path stroke="#000000" d="M27 4h1M10 5h1M26 5h1M11 6h3M25 6h5M10 7h5M23 7h6M30 7h1M10 8h3M15 8h1M24 8h6M9 9h3M26 9h5M8 10h4M27 10h3M9 11h3M26 11h3M9 12h2M26 12h3M26 13h3M8 14h1M10 14h6M17 14h7M26 14h4M8 15h2M11 15h5M17 15h6M25 15h4M9 16h1M11 16h4M18 16h5M24 16h6M9 17h1M12 17h2M15 17h2M19 17h3M27 17h2M8 18h4M14 18h4M24 18h2M28 18h2M7 19h1M15 19h6M26 19h1M29 19h1M6 20h1M9 20h4M25 20h1M27 20h1M29 20h1M6 21h1M8 21h1M13 21h4M24 21h1M29 21h1M7 22h1M10 22h3M15 22h1M17 22h8M27 22h2M8 23h2M12 23h1M15 23h1M18 23h1M21 23h1M23 23h1M26 23h1M12 24h1M15 24h1M18 24h1M21 24h1M23 24h1M25 24h1M13 25h8M22 25h1M24 25h1M15 26h1M17 26h1M21 26h1M16 27h1M18 27h3M22 27h1M17 28h1M21 28h1M18 29h3" />
<path stroke="#52d833" d="M28 4h1" />
<path stroke="#89cd09" d="M29 4h1" />
<path stroke="#f8a301" d="M31 4h1M30 5h1M33 26h1" />
<path stroke="#ff9d6a" d="M36 4h1" />
<path stroke="#ff9ab9" d="M38 4h1" />
<path stroke="#ff9d89" d="M0 5h1" />
<path stroke="#ff99cc" d="M1 5h1M36 24h1" />
<path stroke="#fe98e2" d="M3 5h1M4 9h1" />
<path stroke="#e3a9c9" d="M4 5h1" />
<path stroke="#76d067" d="M5 5h1" />
<path stroke="#6ad415" d="M6 5h1M39 12h1" />
<path stroke="#d0b600" d="M7 5h1M39 13h1M36 14h1M7 33h1M37 33h1M5 34h1M3 35h1" />
<path stroke="#ff99cb" d="M12 5h1M36 5h1M34 21h1M39 27h1" />
<path stroke="#78d15d" d="M27 5h1" />
<path stroke="#8bcd14" d="M28 5h1" />
<path stroke="#d6b401" d="M29 5h1" />
<path stroke="#ff9f0d" d="M31 5h1M39 21h1" />
<path stroke="#ff9d5e" d="M33 5h1" />
<path stroke="#ff99d1" d="M37 5h1M39 24h1" />
<path stroke="#ff98df" d="M38 5h1M35 6h1M32 8h1" />
<path stroke="#ff9bb6" d="M1 6h1M35 24h1" />
<path stroke="#ff98dc" d="M2 6h1M6 13h1M35 23h1M37 24h1M38 25h1" />
<path stroke="#fe98e3" d="M3 6h1M38 9h2M6 12h1" />
<path stroke="#e4a8cb" d="M4 6h1" />
<path stroke="#78d06a" d="M5 6h1M6 9h1" />
<path stroke="#3eda17" d="M6 6h1M38 12h1M35 13h1" />
<path stroke="#92cb02" d="M7 6h1" />
<path stroke="#e7ac00" d="M8 6h1M39 36h1" />
<path stroke="#ff9f36" d="M31 6h1M39 22h1" />
<path stroke="#ff9d7b" d="M32 6h1M38 22h1" />
<path stroke="#ff99d0" d="M34 6h1M31 8h1M36 22h1" />
<path stroke="#ff97e4" d="M37 6h3M35 7h3M33 8h3M32 9h1" />
<path stroke="#ff99ce" d="M2 7h1" />
<path stroke="#e9a5d0" d="M4 7h1" />
<path stroke="#93c884" d="M5 7h1" />
<path stroke="#3eda34" d="M6 7h1" />
<path stroke="#69d409" d="M7 7h1" />
<path stroke="#cfb600" d="M8 7h1" />
<path stroke="#fe9f32" d="M29 7h1" />
<path stroke="#ff9c84" d="M31 7h1" />
<path stroke="#ff9ac1" d="M32 7h1" />
<path stroke="#ff98e3" d="M38 7h1M36 8h1M33 9h3" />
<path stroke="#ff9f16" d="M0 8h1M32 24h1M5 30h1" />
<path stroke="#ff9e67" d="M1 8h1M30 20h1M32 23h1M5 29h1M0 30h2" />
<path stroke="#ff9ac8" d="M2 8h1M5 28h1M0 29h2" />
<path stroke="#f99cde" d="M4 8h1M36 10h1M33 11h1" />
<path stroke="#d2b1bb" d="M5 8h1" />
<path stroke="#69d35e" d="M6 8h1M0 19h1" />
<path stroke="#3cda13" d="M7 8h1" />
<path stroke="#92cb01" d="M8 8h1" />
<path stroke="#fb4300" d="M13 8h1M16 9h2M19 9h1M22 9h1M17 10h1M21 10h1M24 10h1M22 11h4M25 12h1M31 26h1M11 27h1M30 29h1M12 30h2M12 31h1M10 32h2M12 33h2M10 34h3M12 35h1" />
<path stroke="#fb4400" d="M14 8h1M14 9h2M18 9h1M25 9h1M18 10h2M26 10h1M30 10h1M17 11h5M29 11h3M7 12h1M17 12h2M20 12h1M29 12h1M7 13h1M32 13h1M7 14h1M32 14h1M31 15h2M8 16h1M8 17h1M27 27h1M29 27h2M12 28h1M11 29h1M10 30h2M28 30h1M11 31h1M28 31h1M30 31h1M9 32h1M29 32h1M9 33h2M30 33h1M32 33h2M9 34h1M30 34h3M34 34h1M9 35h2M31 35h2M9 36h1M34 36h1M8 37h2M35 37h1M8 38h2M35 38h1M7 39h3M32 39h1M35 39h2" />
<path stroke="#fb4500" d="M21 8h1M23 8h1M12 9h2M20 9h1M12 10h5M23 10h1M12 11h5M11 12h6M19 12h1M21 12h1M23 12h1M25 14h1M24 15h1M16 16h1M31 17h1M18 18h1M30 18h2M30 19h1M26 25h2M25 26h1M27 26h2M13 27h1M15 27h1M25 27h2M26 28h1M28 28h1M13 29h1M26 29h2M19 30h1M27 30h1M31 30h1M27 31h1M13 32h1M28 32h1M33 32h1M11 33h1M28 33h2M13 34h1M28 34h2M29 35h2M33 35h1M10 36h3M30 36h2M33 36h1M10 37h2M30 37h4M10 38h1M31 38h2M10 39h1M33 39h2" />
<path stroke="#ff6c02" d="M22 8h1M21 9h1M23 9h2M20 10h1M22 10h1M25 10h1M31 10h1M7 11h2M32 11h1M8 12h1M22 12h1M24 12h1M32 12h1M31 16h1M26 26h1M29 26h1M28 27h1M32 27h1M13 28h1M27 28h1M29 28h3M12 29h1M28 29h2M31 29h1M29 30h2M32 30h1M34 30h1M10 31h1M13 31h1M29 31h1M31 31h3M12 32h1M30 32h3M31 33h1M7 34h1M33 34h1M36 34h1M8 35h1M11 35h1M34 35h2M8 36h1M32 36h1M35 36h1M34 37h1M7 38h1M33 38h2M36 38h1" />
<path stroke="#ff9e5b" d="M1 9h1M35 25h1M38 28h1" />
<path stroke="#ff98db" d="M3 9h1" />
<path stroke="#e4a9ca" d="M5 9h1" />
<path stroke="#28dc1c" d="M7 9h1" />
<path stroke="#ff99e2" d="M37 9h1M34 10h1" />
<path stroke="#ff9f30" d="M1 10h1M3 13h1M34 25h1" />
<path stroke="#ff9d78" d="M2 10h1M7 16h1M37 26h1" />
<path stroke="#ff9bbc" d="M3 10h1M5 13h1M6 14h1M38 26h1" />
<path stroke="#9ec68d" d="M6 10h1" />
<path stroke="#6dd260" d="M7 10h1" />
<path stroke="#fe99e3" d="M35 10h1" />
<path stroke="#e8a6d0" d="M37 10h1M34 11h1" />
<path stroke="#e2a8ca" d="M38 10h2" />
<path stroke="#ff9f0c" d="M1 11h1M3 14h1M4 15h1M5 16h1M6 17h1M7 18h1M33 25h1M36 27h1" />
<path stroke="#ff9f34" d="M2 11h1M36 20h1M37 27h1" />
<path stroke="#ff99cd" d="M4 11h1" />
<path stroke="#fa9bde" d="M5 11h1" />
<path stroke="#e2a9ca" d="M35 11h1" />
<path stroke="#d0b2ba" d="M36 11h1" />
<path stroke="#92c983" d="M37 11h1" />
<path stroke="#76d169" d="M38 11h1" />
<path stroke="#ee7539" d="M30 12h1M29 13h1" />
<path stroke="#ff9e6e" d="M31 12h1M30 13h2M30 14h2M29 15h2M30 16h1M29 17h2" />
<path stroke="#d1b1ba" d="M33 12h1M0 20h1" />
<path stroke="#93c983" d="M34 12h1" />
<path stroke="#75d169" d="M35 12h1" />
<path stroke="#69d35d" d="M36 12h1" />
<path stroke="#ffa000" d="M0 13h1M38 15h1" />
<path stroke="#ff9d76" d="M4 13h1M34 24h1" />
<path stroke="#ffffff" d="M8 13h18M9 14h1M16 14h1M24 14h1M10 15h1M16 15h1M23 15h1M10 16h1M15 16h1M17 16h1M23 16h1M11 17h1M14 17h1M17 17h2M22 17h1M12 18h2M19 18h3M13 22h2M16 22h1M13 23h2M16 23h2M19 23h2M22 23h1M13 24h2M16 24h2M19 24h2M22 24h1" />
<path stroke="#6ad35d" d="M33 13h1" />
<path stroke="#6ad412" d="M36 13h1" />
<path stroke="#76d208" d="M37 13h1" />
<path stroke="#93cb02" d="M38 13h1M35 14h1M33 15h1" />
<path stroke="#ff9d77" d="M5 14h1M6 15h1" />
<path stroke="#3eda14" d="M33 14h1" />
<path stroke="#6ad409" d="M34 14h1" />
<path stroke="#e4ae00" d="M37 14h1" />
<path stroke="#e9ab00" d="M38 14h1" />
<path stroke="#92cb00" d="M0 15h1M36 32h1M6 34h1M4 35h1" />
<path stroke="#d5b400" d="M1 15h1M34 28h1M36 31h1" />
<path stroke="#f8a400" d="M2 15h1M32 17h1M5 18h1M9 30h1M7 32h1" />
<path stroke="#ff9bbd" d="M7 15h1" />
<path stroke="#d1b600" d="M34 15h1" />
<path stroke="#e8ac00" d="M35 15h1M37 32h1M6 33h1M4 34h1" />
<path stroke="#3bdb00" d="M0 16h1" />
<path stroke="#87ce00" d="M1 16h1M3 18h1M33 28h1" />
<path stroke="#d1b602" d="M32 16h1" />
<path stroke="#e9ac00" d="M33 16h1" />
<path stroke="#0edd01" d="M0 17h1M28 25h1" />
<path stroke="#3adb01" d="M1 17h1M31 27h1M32 28h1M33 29h1" />
<path stroke="#89ce00" d="M2 17h1M8 33h1" />
<path stroke="#ff8a00" d="M10 17h1M23 17h4M22 18h2M26 18h2M8 19h7M21 19h5M27 19h2M7 20h2M13 20h12M26 20h1M28 20h1M7 21h1M9 21h4M17 21h7M25 21h4M8 22h2M25 22h2M24 23h2M24 24h1M23 25h1M16 26h1M22 26h1M17 27h1M21 27h1M18 28h3" />
<path stroke="#14dd13" d="M0 18h1" />
<path stroke="#12dd09" d="M1 18h1" />
<path stroke="#3adb02" d="M2 18h1" />
<path stroke="#d5b500" d="M4 18h1M5 19h1M31 25h1" />
<path stroke="#39db33" d="M1 19h1" />
<path stroke="#15dd0d" d="M2 19h1" />
<path stroke="#39db02" d="M3 19h1" />
<path stroke="#86ce01" d="M4 19h1M35 31h1" />
<path stroke="#f7a400" d="M6 19h1M36 30h1" />
<path stroke="#8bcb7b" d="M1 20h1" />
<path stroke="#3cda36" d="M2 20h1" />
<path stroke="#1bdd15" d="M3 20h1" />
<path stroke="#3bdb09" d="M4 20h1" />
<path stroke="#86ce02" d="M5 20h1M29 24h1" />
<path stroke="#ff9d69" d="M32 20h3" />
<path stroke="#f89ddc" d="M0 21h1M3 23h1" />
<path stroke="#d9afc1" d="M1 21h1" />
<path stroke="#94c983" d="M2 21h1" />
<path stroke="#6ad35f" d="M3 21h1" />
<path stroke="#3ada33" d="M4 21h1" />
<path stroke="#39db0d" d="M5 21h1" />
<path stroke="#ff9bb3" d="M30 21h1" />
<path stroke="#ff9ac4" d="M31 21h1" />
<path stroke="#ff99c9" d="M32 21h1" />
<path stroke="#ff9c85" d="M36 21h1" />
<path stroke="#ff9d5f" d="M37 21h1" />
<path stroke="#f99cdc" d="M1 22h1M4 24h1" />
<path stroke="#e9a6ce" d="M2 22h1M7 25h1" />
<path stroke="#d1b2b9" d="M3 22h1" />
<path stroke="#8acc7a" d="M4 22h1" />
<path stroke="#3dda35" d="M5 22h1" />
<path stroke="#20dd15" d="M6 22h1" />
<path stroke="#e6ab66" d="M29 22h1" />
<path stroke="#fe9e81" d="M30 22h1" />
<path stroke="#ff9ab7" d="M31 22h1" />
<path stroke="#ff99c8" d="M32 22h1" />
<path stroke="#ff99cf" d="M33 22h1" />
<path stroke="#ff98dd" d="M34 22h1" />
<path stroke="#d9afbe" d="M4 23h1" />
<path stroke="#95c983" d="M5 23h1" />
<path stroke="#3bda34" d="M7 23h1" />
<path stroke="#68d45a" d="M10 23h1" />
<path stroke="#4ed92e" d="M11 23h1" />
<path stroke="#39db09" d="M27 23h1" />
<path stroke="#69d411" d="M28 23h1" />
<path stroke="#ceb716" d="M29 23h1" />
<path stroke="#f7a431" d="M30 23h1" />
<path stroke="#ff9f5a" d="M31 23h1" />
<path stroke="#ff9c82" d="M33 23h1" />
<path stroke="#ff9abd" d="M34 23h1" />
<path stroke="#ff9ac2" d="M38 23h1" />
<path stroke="#ff9c86" d="M39 23h1" />
<path stroke="#eaa6cd" d="M5 24h1" />
<path stroke="#d3b2b9" d="M6 24h1" />
<path stroke="#94c982" d="M7 24h1" />
<path stroke="#78d169" d="M8 24h1" />
<path stroke="#6bd35d" d="M9 24h1" />
<path stroke="#3dda33" d="M10 24h1" />
<path stroke="#1edd0d" d="M11 24h1" />
<path stroke="#17dd01" d="M26 24h1M7 35h1M5 36h1M0 37h2" />
<path stroke="#0fdd01" d="M27 24h1" />
<path stroke="#36db01" d="M28 24h1M34 31h1" />
<path stroke="#d5b508" d="M30 24h1" />
<path stroke="#f8a410" d="M31 24h1" />
<path stroke="#f99ddc" d="M6 25h1" />
<path stroke="#d2b2b1" d="M9 25h1" />
<path stroke="#95ca5b" d="M10 25h1" />
<path stroke="#77d212" d="M11 25h1" />
<path stroke="#68d501" d="M12 25h1" />
<path stroke="#a10000" d="M21 25h1M18 26h3" />
<path stroke="#39db01" d="M29 25h1M30 26h1M6 35h1M4 36h1" />
<path stroke="#86ce00" d="M30 25h1" />
<path stroke="#f8a401" d="M32 25h1" />
<path stroke="#ff9bbe" d="M37 25h1" />
<path stroke="#ff99e0" d="M7 26h1" />
<path stroke="#fe99da" d="M8 26h1" />
<path stroke="#f99eb7" d="M9 26h1" />
<path stroke="#ebaa5c" d="M10 26h1" />
<path stroke="#e3af12" d="M11 26h1" />
<path stroke="#c9ba00" d="M12 26h1" />
<path stroke="#67d401" d="M13 26h1" />
<path stroke="#ffe14c" d="M14 26h1M14 27h1M24 27h1M23 28h1M25 28h1M16 29h1M23 29h1M17 30h1M22 30h1M26 30h1M18 31h1M22 31h1M27 32h1M21 33h1M21 34h1M17 35h1M20 35h1M16 36h1M20 36h1M16 37h1M20 37h1M14 38h3M21 38h1M13 39h2M22 39h3M31 39h1" />
<path stroke="#ff9f13" d="M35 26h1M2 31h1" />
<path stroke="#ff98e0" d="M5 27h1M0 28h3" />
<path stroke="#ff9e79" d="M9 27h1" />
<path stroke="#fea032" d="M10 27h1" />
<path stroke="#d0b700" d="M12 27h1" />
<path stroke="#ff9d80" d="M38 27h1" />
<path stroke="#ff99db" d="M3 28h1" />
<path stroke="#ff9f31" d="M9 28h1" />
<path stroke="#f9a30d" d="M10 28h1" />
<path stroke="#e5c21d" d="M16 28h1M22 28h1M17 29h1M18 30h1M20 32h1M18 37h1M17 39h1" />
<path stroke="#e88000" d="M24 28h1M14 30h1M16 30h1M23 30h1M15 31h1M17 31h1M24 31h1M14 32h1M18 32h1M23 32h1M25 32h1M15 33h1M24 33h1M26 33h1M15 34h1M22 34h2M13 35h1M16 35h1M21 35h1M25 35h1M14 36h1M21 36h1M24 36h1M26 36h1M28 36h1M14 37h1M21 37h1M23 37h1M27 37h1M13 38h1M22 38h1M25 39h1" />
<path stroke="#ff9bb0" d="M39 28h1" />
<path stroke="#ff9ac7" d="M2 29h1" />
<path stroke="#fea009" d="M9 29h1" />
<path stroke="#e8ac01" d="M10 29h1" />
<path stroke="#ffea7f" d="M14 29h2M24 29h2M15 30h1M24 30h2M14 31h1M16 31h1M23 31h1M25 31h2M15 32h3M22 32h1M24 32h1M26 32h1M14 33h1M16 33h3M22 33h2M25 33h1M27 33h1M14 34h1M16 34h2M24 34h4M14 35h2M22 35h3M26 35h3M13 36h1M15 36h1M22 36h2M25 36h1M27 36h1M29 36h1M12 37h2M15 37h1M22 37h1M24 37h3M28 37h2M11 38h2M23 38h8M11 39h1M26 39h4" />
<path stroke="#e5c31d" d="M21 29h1M20 30h1M19 34h1M19 35h1M18 36h1M15 39h2M20 39h1" />
<path stroke="#0edd02" d="M32 29h1" />
<path stroke="#91cb00" d="M34 29h1" />
<path stroke="#e6ac00" d="M35 29h1M38 34h1" />
<path stroke="#ff9f2d" d="M38 29h1" />
<path stroke="#ff9e59" d="M39 29h1" />
<path stroke="#ff9e66" d="M2 30h1" />
<path stroke="#ff9f11" d="M6 30h1M3 31h1" />
<path stroke="#17dd02" d="M33 30h1M37 37h1" />
<path stroke="#ceb700" d="M35 30h1" />
<path stroke="#ff9f10" d="M39 30h1" />
<path stroke="#fb4200" d="M8 31h1" />
<path stroke="#e5c11d" d="M19 31h1" />
<path stroke="#b69500" d="M20 31h1M19 32h1M18 34h1M17 36h1" />
<path stroke="#0fdd02" d="M34 32h1" />
<path stroke="#3bdb01" d="M35 32h1" />
<path stroke="#b69600" d="M19 33h1M18 35h1M17 37h1M17 38h1M18 39h1" />
<path stroke="#0bdd09" d="M34 33h1" />
<path stroke="#16dd01" d="M35 33h1M36 35h1M2 37h1" />
<path stroke="#68d401" d="M36 33h1M37 35h1M38 37h1" />
<path stroke="#38db01" d="M8 34h1M37 36h1" />
<path stroke="#0add02" d="M35 34h1M36 36h1" />
<path stroke="#91cb01" d="M37 34h1M38 36h1" />
<path stroke="#e2ae00" d="M0 35h2" />
<path stroke="#e1af00" d="M2 35h1" />
<path stroke="#69d400" d="M5 35h1" />
<path stroke="#cfb700" d="M38 35h1" />
<path stroke="#74d201" d="M0 36h2" />
<path stroke="#73d301" d="M2 36h1" />
<path stroke="#67d501" d="M3 36h1" />
<path stroke="#0add01" d="M6 36h1M4 37h1M38 39h1" />
<path stroke="#02dd02" d="M7 36h1M6 37h1" />
<path stroke="#14dd01" d="M3 37h1M39 39h1" />
<path stroke="#02dd01" d="M5 37h1" />
<path stroke="#0add09" d="M7 37h1M36 37h1M6 38h1" />
<path stroke="#c8b900" d="M39 37h1" />
<path stroke="#00dd02" d="M0 38h6M0 39h6" />
<path stroke="#0fdd09" d="M37 38h1" />
<path stroke="#34db01" d="M38 38h1" />
<path stroke="#65d501" d="M39 38h1" />
<path stroke="#14dd12" d="M6 39h1" />
<path stroke="#ffe97f" d="M12 39h1" />
<path stroke="#15dd12" d="M37 39h1" />
</svg>