<svg xmlns="http://www.w3.org/2000/svg" viewBox="0 -0.5 40 40" shape-rendering="crispEdges">
<metadata>Made with Pixels to Svg https://codepen.io/shshaw/pen/XbxvNj</metadata>
<path stroke="#62beff" d="M0 0h40M0 1h31M33 1h7M3 2h12M24 2h6M32 2h8M12 3h2M26 3h4M31 3h9M27 4h9M27 5h4M0 6h2M9 6h2M28 6h2M0 7h11M28 7h1M0 8h10M29 8h4M0 9h10M29 9h11M0 10h10M32 10h8M0 11h10M34 11h6M0 12h10M35 12h5M0 13h11M29 13h1M36 13h4M0 14h11M29 14h3M36 14h4M0 15h10M30 15h3M35 15h5M0 16h9M31 16h5M0 17h9M31 17h3M0 18h8M30 18h2M0 19h7M30 19h3M0 20h3M5 20h1M30 20h10M0 21h2M3 21h2M30 21h10M0 22h2M3 22h2M6 22h1M33 22h7M0 23h2M3 23h5M10 23h2M34 23h6M0 24h2M3 24h11M26 24h14M0 25h2M4 25h11M25 25h15" />
<path stroke="#7a7876" d="M31 1h2M30 2h2M30 3h1" />
<path stroke="#ffffff" d="M0 2h3M0 3h12M0 4h13M36 4h4M2 5h1M5 5h4M31 5h9M30 6h10M34 7h2M37 7h3M13 8h6M20 8h3M14 9h4M19 9h1M22 9h2M11 10h6M18 10h4M23 10h2M11 11h2M15 11h1M17 11h1M21 11h5M16 12h1M22 12h4M16 13h1M22 13h5M16 14h1M19 14h1M22 14h6M16 15h1M22 15h5M16 16h1M22 16h1M36 16h4M34 17h6M33 18h7M29 22h4M20 29h2M19 30h3M5 37h2M31 37h1M5 38h2M13 38h1M30 38h3M5 39h2M13 39h2M30 39h3" />
<path stroke="#b10707" d="M15 2h1M14 3h1M13 4h1M12 5h1M11 6h1M11 7h1M13 7h3M17 7h3M21 7h2M10 8h1M23 8h1M24 9h1M25 10h2M26 11h2M31 12h1M28 13h1M33 13h1M34 14h1" />
<path stroke="#d70707" d="M16 2h1M18 2h3M22 2h2M15 3h1M17 3h3M21 3h3M25 3h1M14 4h1M16 4h3M20 4h3M24 4h3M13 5h1M15 5h3M19 5h3M23 5h3M12 6h1M14 6h3M18 6h3M22 6h3M26 6h2M23 7h1M25 7h3M24 8h3M28 8h1M25 9h1M27 9h2M27 10h2M30 10h1M29 11h1M31 11h3M28 12h1M30 12h1M32 12h1M34 12h1M30 13h2M34 13h2M32 14h2M35 14h1M33 15h2M19 31h4M17 32h1M23 32h2M18 33h5M16 34h1M24 34h2M17 35h8M28 35h1M15 36h1M26 36h2M30 36h1M13 37h2M16 37h11M29 37h2M14 38h2M29 38h1M17 39h11" />
<path stroke="#f8ebd7" d="M17 2h1M21 2h1M16 3h1M20 3h1M24 3h1M15 4h1M19 4h1M23 4h1M14 5h1M18 5h1M22 5h1M26 5h1M13 6h1M17 6h1M21 6h1M25 6h1M12 7h1M16 7h1M20 7h1M24 7h1M11 8h1M27 8h1M10 9h1M26 9h1M31 10h1M30 11h1M29 12h1M33 12h1M32 13h1M18 32h5M17 33h1M23 33h3M17 34h7M26 34h1M16 35h1M25 35h3M29 35h1M14 36h1M16 36h10M28 36h2M15 37h1M27 37h2M17 38h11" />
<path stroke="#eaedf0" d="M0 5h2M3 5h2M9 5h3M2 6h7M29 7h5M36 7h1M33 8h7M32 18h1M33 19h7M27 23h7" />
<path stroke="#000000" d="M12 8h1M19 8h1M11 9h3M18 9h1M20 9h2M10 10h1M17 10h1M22 10h1M29 10h1M10 11h1M13 11h2M16 11h1M18 11h3M28 11h1M10 12h6M17 12h1M21 12h1M26 12h2M11 13h5M17 13h1M21 13h1M27 13h1M11 14h5M17 14h1M20 14h2M10 15h6M17 15h1M19 15h3M9 16h1M11 16h5M17 16h1M19 16h3M23 16h3M27 16h3M9 17h1M12 17h6M19 17h4M29 17h1M8 18h8M17 18h1M20 18h2M24 18h2M7 19h1M16 19h5M26 19h1M29 19h1M6 20h1M9 20h4M25 20h1M27 20h1M29 20h1M6 21h1M8 21h1M13 21h4M24 21h1M29 21h1M7 22h1M10 22h3M14 22h1M17 22h8M27 22h2M8 23h2M12 23h2M15 23h1M23 23h1M26 23h1M14 24h1M16 24h1M23 24h1M25 24h1M15 25h1M17 25h1M22 25h1M24 25h1M15 26h1M17 26h1M21 26h1M23 26h1M16 27h1M18 27h3M22 27h1M17 28h1M21 28h2M19 29h1M22 29h1M18 30h1M22 30h2M17 31h2M23 31h2M16 32h1M25 32h1M16 33h1M26 33h1M15 34h1M27 34h3M14 35h2M30 35h2M3 36h1M7 36h1M13 36h1M31 36h2M4 37h1M7 37h1M12 37h1M32 37h1M4 38h1M7 38h1M12 38h1M16 38h1M28 38h1M33 38h1M4 39h1M7 39h1M12 39h1M15 39h2M28 39h2M33 39h1" />
<path stroke="#c3d9f9" d="M18 12h3M18 13h3M18 14h1M18 15h1M18 16h1M18 17h1M18 18h2" />
<path stroke="#feb623" d="M28 14h1M30 17h1" />
<path stroke="#fed723" d="M27 15h3M26 16h1M30 16h1M26 17h1M28 18h2" />
<path stroke="#ff8a00" d="M10 16h1M10 17h2M23 17h3M27 17h2M16 18h1M22 18h2M26 18h1M8 19h8M21 19h5M27 19h2M7 20h2M13 20h12M26 20h1M28 20h1M7 21h1M9 21h4M17 21h7M25 21h4M8 22h2M13 22h1M25 22h2M14 23h1M24 23h2M15 24h1M24 24h1M16 25h1M23 25h1M16 26h1M22 26h1M17 27h1M21 27h1M18 28h3" />
<path stroke="#fffdf2" d="M27 18h1" />
<path stroke="#d8d4d0" d="M3 20h1M2 22h1M2 23h1M2 24h1M3 25h1M3 26h1M4 27h1M5 28h1" />
<path stroke="#ece9e6" d="M4 20h1M5 21h1M5 22h1" />
<path stroke="#a4a09d" d="M2 21h1M2 25h1M3 27h1M4 28h1M5 29h1" />
<path stroke="#ff0000" d="M15 22h2M16 23h3M22 23h1M17 24h1M21 24h2M20 25h2M18 26h3" />
<path stroke="#fc809a" d="M19 23h3M18 24h3M18 25h2" />
<path stroke="#06a795" d="M0 26h3M4 26h4M12 26h1M14 26h1M24 26h3M28 26h4M33 26h7M2 27h1M5 27h11M23 27h13M39 27h1M0 28h4M6 28h8M16 28h1M23 28h2M28 28h2M31 28h9M0 29h5M7 29h1M14 29h5M23 29h8M37 29h3M0 30h4M7 30h11M24 30h16M0 31h3M8 31h4M15 31h2M25 31h15M0 32h3M9 32h7M26 32h2M32 32h5M38 32h2M0 33h2M9 33h7M27 33h13M0 34h2M9 34h6M30 34h3M35 34h5M0 35h2M9 35h2M12 35h2M32 35h4M37 35h3M0 36h3M8 36h5M33 36h1M35 36h5M2 37h2M8 37h4M33 37h6M0 38h4M11 38h1M34 38h6M0 39h4M8 39h4M34 39h6" />
<path stroke="#c5fef8" d="M8 26h4M13 26h1M27 26h1M32 26h1M0 27h2M36 27h3M14 28h2M25 28h3M30 28h1M8 29h6M31 29h6M12 31h3M28 32h4M37 32h1M33 34h2M11 35h1M36 35h1M34 36h1M0 37h2M39 37h1M8 38h3" />
<path stroke="#d6d2ce" d="M6 29h1" />
<path stroke="#723c08" d="M4 30h1M3 31h1M3 32h1M2 33h1M2 34h1M2 35h1" />
<path stroke="#a25308" d="M5 30h1M4 31h1M4 32h1M3 33h1M3 34h1M3 35h1" />
<path stroke="#d36c0a" d="M6 30h1M7 31h1M8 32h1M8 33h1M8 34h1M8 35h1" />
<path stroke="#ad5807" d="M5 31h2M5 32h3M4 33h4M4 34h4M4 35h4" />
<path stroke="#f3f2f2" d="M4 36h3" />
</svg>