<svg xmlns="http://www.w3.org/2000/svg" viewBox="0 -0.5 40 40" shape-rendering="crispEdges">
<metadata>Made with Pixels to Svg https://codepen.io/shshaw/pen/XbxvNj</metadata>
<path stroke="#ffb1b1" d="M0 0h9M28 0h12M0 1h8M29 1h11M0 2h7M30 2h10M0 3h7M30 3h10M0 4h7M32 4h8M0 5h6M33 5h7M0 6h5M34 6h6M0 7h4M35 7h5M0 8h4M36 8h4M0 9h3M36 9h4M0 10h3M37 10h3M0 11h2M37 11h3M0 12h2M38 12h2M0 13h1M38 13h2M0 14h1M39 14h1M0 15h1M39 15h1M0 20h1M0 21h1M0 22h1M39 22h1M0 23h1M39 23h1M0 24h2M39 24h1M0 25h2M39 25h1M0 26h2M38 26h2M0 27h1M38 27h2M38 28h2M37 29h3M37 30h3M36 31h4M0 32h1M36 32h4M0 33h2M35 33h5M0 34h3M34 34h6M0 35h4M33 35h7M0 36h5M33 36h7M0 37h6M33 37h7M0 38h6M34 38h6M0 39h7M34 39h6" />
<path stroke="#000000" d="M9 0h5M22 0h6M8 1h7M21 1h8M7 2h9M20 2h10M7 3h9M20 3h10M7 4h9M20 4h10M7 5h23M7 6h22M8 7h5M14 7h4M23 7h5M9 8h3M15 8h2M24 8h2M11 9h3M18 9h4M25 9h2M10 10h1M22 10h1M25 10h2M10 11h1M13 11h2M18 11h3M26 11h2M10 12h1M12 12h1M15 12h1M17 12h1M21 12h1M26 12h2M11 13h1M15 13h1M17 13h1M21 13h1M26 13h2M5 14h2M11 14h1M14 14h2M17 14h1M20 14h2M25 14h4M5 15h4M10 15h2M13 15h3M17 15h1M19 15h3M24 15h5M5 16h5M11 16h1M13 16h3M17 16h1M19 16h3M23 16h6M5 17h5M12 17h1M15 17h3M21 17h2M27 17h2M6 18h10M17 18h1M21 18h1M24 18h2M28 18h1M7 19h1M16 19h5M26 19h1M29 19h1M6 20h1M9 20h4M25 20h1M27 20h1M29 20h1M6 21h1M8 21h1M13 21h4M24 21h1M29 21h1M3 22h1M7 22h1M10 22h3M14 22h1M17 22h8M27 22h2M2 23h1M4 23h1M8 23h2M12 23h2M15 23h1M23 23h1M26 23h1M2 24h1M4 24h1M14 24h1M16 24h1M23 24h1M25 24h1M2 25h1M4 25h1M15 25h1M17 25h1M22 25h1M24 25h1M2 26h1M4 26h1M15 26h1M17 26h1M21 26h1M23 26h1M1 27h2M4 27h4M16 27h1M18 27h3M22 27h1M0 28h1M2 28h1M4 28h1M8 28h1M17 28h1M21 28h2M0 29h1M2 29h1M4 29h1M6 29h1M8 29h1M19 29h4M0 30h1M6 30h1M8 30h1M18 30h6M0 31h1M7 31h1M17 31h8M1 32h1M7 32h1M16 32h12M2 33h1M7 33h1M15 33h14M3 34h1M6 34h1M15 34h15M4 35h4M14 35h18M5 36h4M13 36h20M6 37h3M12 37h16M29 37h4M6 38h4M12 38h4M17 38h12M30 38h4M7 39h4M12 39h3M16 39h13M30 39h4" />
<path stroke="#fc0000" d="M14 0h8M15 1h6M16 2h4M16 3h4M16 4h4M30 4h2M6 5h1M30 5h3M5 6h2M29 6h5M4 7h4M28 7h7M4 8h5M26 8h10M3 9h8M27 9h9M3 10h7M27 10h10M2 11h8M28 11h9M2 12h8M28 12h10M1 13h10M28 13h10M1 14h4M9 14h2M29 14h10M1 15h4M9 15h1M29 15h10M0 16h5M29 16h11M0 17h5M29 17h11M0 18h6M29 18h11M0 19h7M30 19h10M1 20h5M30 20h10M1 21h5M30 21h10M1 22h2M4 22h3M29 22h10M1 23h1M5 23h3M10 23h2M27 23h12M5 24h9M26 24h13M5 25h10M25 25h14M5 26h10M24 26h14M8 27h8M23 27h15M9 28h8M23 28h15M9 29h10M23 29h14M9 30h9M24 30h13M8 31h9M25 31h11M8 32h8M28 32h8M8 33h7M29 33h6M7 34h8M30 34h4M8 35h6M32 35h1M9 36h4M9 37h3M10 38h2M11 39h1" />
<path stroke="#ffffff" d="M13 7h1M18 7h5M12 8h3M17 8h7M14 9h4M22 9h3M11 10h11M23 10h2M11 11h2M15 11h3M21 11h5M11 12h1M13 12h2M16 12h1M18 12h3M22 12h4M12 13h3M16 13h1M18 13h3M22 13h4M7 14h2M12 14h2M16 14h1M18 14h2M22 14h3M12 15h1M16 15h1M18 15h1M22 15h2M12 16h1M16 16h1M18 16h1M22 16h1M13 17h2M18 17h3M18 18h3M3 23h1M3 24h1M3 25h1M3 26h1M3 27h1M1 28h1M3 28h1M5 28h3M1 29h1M3 29h1M5 29h1M7 29h1M1 30h5M7 30h1M1 31h6M2 32h5" />
<path stroke="#ff8a00" d="M10 16h1M10 17h2M23 17h4M16 18h1M22 18h2M26 18h2M8 19h8M21 19h5M27 19h2M7 20h2M13 20h12M26 20h1M28 20h1M7 21h1M9 21h4M17 21h7M25 21h4M8 22h2M13 22h1M25 22h2M14 23h1M24 23h2M15 24h1M24 24h1M16 25h1M23 25h1M16 26h1M22 26h1M17 27h1M21 27h1M18 28h3" />
<path stroke="#b40606" d="M15 22h2M16 23h3M22 23h1M17 24h1M21 24h2M20 25h2M18 26h3" />
<path stroke="#fc809a" d="M19 23h3M18 24h3M18 25h2" />
<path stroke="#ede8e8" d="M3 33h2M4 34h2M28 37h1M16 38h1M29 38h1M15 39h1M29 39h1" />
<path stroke="#f1f1f1" d="M5 33h2" />
</svg>