<svg xmlns="http://www.w3.org/2000/svg" viewBox="0 -0.5 40 40" shape-rendering="crispEdges">
<metadata>Made with Pixels to Svg https://codepen.io/shshaw/pen/XbxvNj</metadata>
<path stroke="#0417dc" d="M0 0h3M0 1h1M4 2h2M3 3h3M2 6h2M2 7h2M2 8h2" />
<path stroke="#0414dc" d="M3 0h5M11 0h3M34 0h6M2 1h7M12 1h1M35 1h3M39 1h1M0 2h4M6 2h4M36 2h4M0 3h3M6 3h5M36 3h4M0 4h4M5 4h5M37 4h3M0 5h10M37 5h3M0 6h2M4 6h6M38 6h2M0 7h1M4 7h5M38 7h2M0 8h2M4 8h4M38 8h2M0 9h7M38 9h2M0 10h10M38 10h2M0 11h10M38 11h2M0 12h10M38 12h2M0 13h6M7 13h4M38 13h2M0 14h11M38 14h2M0 15h10M38 15h2M0 16h9M38 16h2M0 17h9M38 17h2M0 18h8M37 18h3M0 19h7M37 19h3M0 20h6M36 20h4M0 21h6M36 21h4M0 22h3M6 22h1M35 22h5M0 23h3M6 23h2M10 23h2M34 23h6M0 24h3M6 24h8M33 24h7M0 25h3M8 25h7M31 25h9M0 26h3M9 26h6M30 26h10M0 27h3M9 27h7M28 27h12M0 28h3M9 28h7M27 28h13M0 29h3M9 29h6M27 29h13M0 30h4M8 30h8M26 30h14M0 31h4M9 31h7M27 31h13M0 32h4M10 32h5M29 32h11M0 33h4M10 33h5M30 33h10M0 34h5M9 34h6M30 34h10M0 35h6M10 35h4M30 35h10M0 36h7M11 36h3M31 36h9M0 37h8M12 37h1M31 37h9M0 38h9M31 38h9M0 39h10M31 39h9" />
<path stroke="#000000" d="M8 0h1M10 0h1M14 0h1M30 0h1M33 0h1M9 1h1M11 1h1M13 1h1M29 1h1M32 1h1M34 1h1M10 2h1M12 2h1M28 2h1M31 2h1M35 2h1M11 3h1M30 3h1M35 3h1M10 4h1M29 4h1M36 4h1M10 5h1M36 5h1M10 6h1M37 6h1M9 7h18M37 7h1M8 8h1M27 8h1M37 8h1M7 9h1M28 9h1M37 9h1M10 10h1M27 10h1M37 10h1M10 11h1M13 11h2M18 11h3M27 11h1M37 11h1M10 12h1M12 12h1M15 12h1M17 12h1M21 12h1M26 12h1M37 12h1M11 13h1M15 13h1M17 13h1M21 13h1M25 13h1M37 13h1M11 14h1M14 14h2M17 14h1M20 14h2M25 14h1M37 14h1M10 15h2M14 15h2M17 15h1M20 15h2M25 15h1M37 15h1M9 16h1M11 16h1M14 16h2M17 16h1M20 16h2M23 16h4M37 16h1M9 17h1M12 17h1M15 17h3M21 17h2M27 17h2M37 17h1M8 18h8M17 18h1M20 18h2M24 18h2M28 18h1M36 18h1M7 19h1M16 19h5M26 19h1M29 19h1M36 19h1M6 20h1M9 20h4M25 20h1M27 20h1M29 20h1M35 20h1M6 21h1M8 21h1M13 21h4M24 21h1M29 21h1M35 21h1M3 22h3M7 22h1M10 22h3M14 22h11M27 22h2M34 22h1M3 23h1M5 23h1M8 23h2M12 23h2M15 23h9M26 23h1M33 23h1M3 24h1M5 24h1M14 24h1M16 24h4M22 24h2M25 24h1M31 24h2M3 25h1M5 25h3M15 25h1M17 25h2M22 25h1M24 25h1M30 25h1M3 26h1M5 26h2M8 26h1M15 26h1M17 26h2M21 26h1M23 26h1M28 26h2M3 27h2M7 27h2M16 27h1M18 27h3M22 27h1M27 27h1M3 28h1M6 28h1M8 28h1M16 28h2M21 28h1M23 28h4M3 29h1M8 29h1M15 29h1M18 29h3M22 29h1M26 29h1M4 30h4M16 30h1M21 30h1M25 30h1M4 31h1M8 31h1M16 31h3M20 31h5M26 31h1M4 32h1M9 32h1M15 32h1M25 32h1M27 32h2M4 33h1M9 33h1M15 33h1M24 33h1M29 33h1M5 34h4M15 34h10M27 34h1M29 34h1M6 35h1M9 35h1M14 35h1M16 35h1M20 35h1M24 35h1M27 35h1M29 35h1M7 36h1M10 36h1M14 36h1M17 36h1M19 36h1M24 36h1M27 36h1M30 36h1M8 37h1M11 37h1M13 37h1M18 37h1M24 37h1M27 37h1M30 37h1M9 38h1M12 38h13M27 38h1M30 38h1M10 39h1M13 39h1M24 39h1M27 39h1M30 39h1" />
<path stroke="#06a289" d="M9 0h1M31 0h2M10 1h1M30 1h2M33 1h1M11 2h1M29 2h2M32 2h2M27 3h3M27 4h2M25 6h1M28 6h2M35 6h2M29 7h2M35 7h2M10 8h2M16 8h2M19 8h6M28 8h4M35 8h2M8 9h2M26 9h2M29 9h4M36 9h1M28 10h2M36 10h1M36 11h1M36 12h1M24 26h3M23 27h4M22 28h1M16 32h9M16 33h8M17 35h2" />
<path stroke="#06a28b" d="M15 0h15M14 1h15M13 2h15M34 2h1M12 3h15M31 3h4M11 4h16M30 4h6M11 5h25M11 6h14M30 6h5M31 7h4M9 8h1M12 8h4M32 8h3M10 9h8M19 9h6M33 9h3M30 10h6M28 11h8M27 12h9M26 13h11M26 14h11M26 15h11M27 16h10M29 17h8M29 18h7M30 19h6M30 20h5M30 21h5M29 22h5M27 23h6M26 24h5M25 25h5M27 26h1" />
<path stroke="#ffffff" d="M1 1h1M38 1h1M4 4h1M1 7h1M13 12h2M18 12h3M6 13h1M12 13h3M18 13h3M12 14h2M18 14h2M12 15h2M18 15h2M12 16h2M18 16h2M13 17h2M18 17h3M18 18h2" />
<path stroke="#06a287" d="M26 6h2M27 7h2M18 8h1M25 8h2M18 9h1M25 9h1M25 33h1M25 34h1M19 35h1M18 36h1M14 39h10" />
<path stroke="#43b435" d="M11 10h16M11 11h2M15 11h3M21 11h6M11 12h1M16 12h1M22 12h4M16 13h1M22 13h3M16 14h1M22 14h3M16 15h1M22 15h3M16 16h1M22 16h1M21 29h1M18 30h3M19 31h1" />
<path stroke="#ff8a00" d="M10 16h1M10 17h2M23 17h4M16 18h1M22 18h2M26 18h2M8 19h8M21 19h5M27 19h2M7 20h2M13 20h12M26 20h1M28 20h1M7 21h1M9 21h4M17 21h7M25 21h4M8 22h2M13 22h1M25 22h2M14 23h1M24 23h2M15 24h1M24 24h1M16 25h1M23 25h1M16 26h1M22 26h1M17 27h1M21 27h1M18 28h3" />
<path stroke="#29941a" d="M4 23h1M4 24h1M4 25h1M4 26h1M7 26h1M5 27h2M4 28h2M7 28h1M4 29h4M5 31h3M5 32h3" />
<path stroke="#ff0000" d="M20 24h2M19 25h3M19 26h2" />
<path stroke="#177339" d="M16 29h1M17 30h1M28 38h1M28 39h1" />
<path stroke="#17733a" d="M17 29h1M25 29h1M25 31h1M26 32h1" />
<path stroke="#17733c" d="M23 29h2M22 30h3" />
<path stroke="#28941a" d="M8 32h1M5 33h4" />
<path stroke="#06a283" d="M26 33h1M11 39h2" />
<path stroke="#177338" d="M27 33h2M28 34h1M28 35h1M28 36h2M28 37h2M29 38h1M29 39h1" />
<path stroke="#06a285" d="M26 34h1M7 35h2M25 35h2M8 36h2M25 36h2M9 37h2M25 37h2M10 38h2M25 38h2M25 39h2" />
<path stroke="#27941a" d="M15 35h1M21 35h3M15 36h2M20 36h1M16 37h2M19 37h1" />
<path stroke="#26941a" d="M21 36h3M14 37h2M20 37h4" />
</svg>