<svg xmlns="http://www.w3.org/2000/svg" viewBox="0 -0.5 40 40" shape-rendering="crispEdges">
<metadata>Made with Pixels to Svg https://codepen.io/shshaw/pen/XbxvNj</metadata>
<path stroke="#ff92c8" d="M0 0h17M24 0h16M0 1h14M25 1h15M0 2h13M27 2h13M0 3h11M28 3h12M0 4h10M28 4h12M0 5h10M29 5h11M0 6h10M29 6h11M0 7h10M30 7h10M0 8h10M30 8h10M0 9h9M30 9h10M0 10h7M30 10h10M0 11h6M31 11h9M0 12h6M35 12h5M0 13h6M35 13h5M0 14h6M35 14h5M0 15h6M35 15h5M0 16h6M35 16h5M0 17h7M34 17h6M0 18h8M34 18h6M0 19h7M33 19h7M0 20h6M31 20h9M0 21h6M31 21h9M0 22h7M32 22h8M0 23h8M10 23h1M27 23h2M32 23h8M0 24h11M26 24h3M32 24h8M0 25h11M14 25h1M25 25h15M0 26h15M24 26h16M0 27h16M23 27h17M0 28h17M23 28h17M0 29h19M23 29h17M0 30h18M24 30h16M0 31h17M25 31h15M0 32h16M26 32h14M0 33h16M27 33h13M0 34h15M30 34h10M0 35h14M32 35h8M0 36h13M33 36h7M0 37h12M33 37h7M0 38h12M34 38h6M0 39h12M34 39h6" />
<path stroke="#eac600" d="M17 0h7M14 1h9M24 1h1M13 2h2M19 2h2M23 2h3M11 3h3M17 3h3M21 3h1M25 3h2M10 4h3M16 4h3M20 4h1M24 4h4M10 5h3M15 5h3M19 5h1M23 5h5M10 6h2M13 6h7M22 6h6M10 7h18M29 7h1M11 8h1M23 8h6M9 9h2M24 9h5M7 10h3M25 10h4M6 11h1M9 11h1M25 11h6M6 12h1M9 12h1M25 12h2M28 12h2M32 12h2M6 13h1M8 13h1M10 13h1M25 13h2M29 13h1M33 13h2M8 14h3M25 14h3M29 14h2M33 14h2M9 15h1M26 15h2M29 15h2M33 15h2M6 16h1M27 16h1M30 16h1M32 16h3M7 17h2M28 17h1M32 17h2M29 18h5M30 19h3M12 24h1" />
<path stroke="#f8e264" d="M23 1h1M15 2h1M17 2h2M22 2h1M26 2h1M14 3h1M16 3h1M22 3h3M27 3h1M13 4h1M21 4h2M13 5h1M20 5h2M28 5h1M12 6h1M20 6h1M28 6h1M28 7h1M10 8h1M29 8h1M29 9h1M29 10h1M7 11h2M7 12h1M27 12h1M30 12h1M34 12h1M7 13h1M9 13h1M27 13h2M30 13h2M6 14h2M28 14h1M31 14h2M6 15h3M28 15h1M32 15h1M7 16h2M28 16h2M31 16h1M29 17h3M30 21h1M20 31h1" />
<path stroke="#fcf5c8" d="M16 2h1M21 2h1M15 3h1M20 3h1M14 4h2M19 4h1M23 4h1M14 5h1M18 5h1M22 5h1M21 6h1M8 12h1M31 12h1M32 13h1M31 15h1" />
<path stroke="#000000" d="M12 8h1M11 9h3M18 9h4M10 10h1M22 10h1M10 11h1M13 11h2M18 11h3M10 12h1M12 12h1M15 12h1M17 12h1M21 12h1M11 13h1M15 13h1M17 13h1M21 13h1M11 14h1M15 14h1M17 14h1M20 14h2M10 15h2M14 15h2M17 15h1M19 15h3M9 16h1M11 16h1M14 16h2M17 16h1M19 16h3M23 16h4M9 17h1M12 17h1M14 17h4M19 17h4M27 17h1M8 18h8M17 18h1M20 18h2M24 18h2M28 18h1M7 19h1M16 19h5M26 19h1M29 19h1M6 20h1M9 20h4M25 20h1M27 20h1M29 20h1M6 21h1M8 21h1M13 21h4M24 21h1M29 21h1M7 22h1M10 22h3M14 22h1M17 22h8M27 22h2M8 23h2M12 23h2M15 23h1M23 23h1M26 23h1M14 24h1M16 24h1M23 24h1M25 24h1M15 25h1M17 25h1M22 25h1M24 25h1M15 26h1M17 26h1M21 26h1M23 26h1M16 27h1M18 27h3M22 27h1M17 28h1M21 28h2M19 29h1M22 29h1M18 30h1M22 30h2M17 31h2M23 31h2M16 32h1M25 32h1M16 33h1M26 33h1M15 34h1M27 34h3M14 35h2M30 35h2M13 36h1M31 36h2M12 37h1M18 37h2M23 37h2M32 37h1M12 38h1M16 38h1M20 38h1M22 38h1M28 38h1M33 38h1M12 39h1M15 39h2M21 39h1M28 39h2M33 39h1" />
<path stroke="#ffffff" d="M13 8h10M14 9h4M22 9h2M11 10h2M15 10h3M21 10h1M23 10h2M11 11h1M16 11h1M22 11h3M16 12h1M22 12h3M16 13h1M22 13h3M14 14h1M16 14h1M19 14h1M22 14h3M16 15h1M22 15h4M16 16h1M22 16h1M20 29h2M19 30h3M17 32h8M17 33h9M16 34h11M16 35h14M14 36h17M13 37h5M20 37h3M25 37h7M17 38h3M21 38h1M23 38h5M17 39h4M22 39h6" />
<path stroke="#d797f7" d="M13 10h2M18 10h3M12 11h1M15 11h1M17 11h1M21 11h1M11 12h1" />
<path stroke="#a6dcee" d="M13 12h2M18 12h3M12 13h3M18 13h3M12 14h2M18 14h1M12 15h2M18 15h1M12 16h2M18 16h1M13 17h1M18 17h1M18 18h2" />
<path stroke="#ff8a00" d="M10 16h1M10 17h2M23 17h4M16 18h1M22 18h2M26 18h2M8 19h8M21 19h5M27 19h2M7 20h2M18 20h1M22 20h2M26 20h1M28 20h1M7 21h1M9 21h4M25 21h4M8 22h2M13 22h1M25 22h2M14 23h1M24 23h2M15 24h1M24 24h1M16 25h1M23 25h1" />
<path stroke="#a90606" d="M13 20h1" />
<path stroke="#d40d0d" d="M14 20h2M20 20h2M24 20h1M17 21h1M19 21h5M16 26h1M22 26h1M17 27h1M18 28h1M20 28h1" />
<path stroke="#ff0000" d="M16 20h2M19 20h1M18 21h1M15 22h2M16 23h3M22 23h1M17 24h1M21 24h2M20 25h2M18 26h3M21 27h1M19 28h1" />
<path stroke="#ffbc00" d="M30 20h1M30 23h1" />
<path stroke="#9a05f6" d="M29 22h3M11 23h1M29 23h1M31 23h1M11 24h1M13 24h1M29 24h3M11 25h3M19 31h1M21 31h2M13 38h3M29 38h4M13 39h2M30 39h3" />
<path stroke="#fc809a" d="M19 23h3M18 24h3M18 25h2" />
</svg>