<svg xmlns="http://www.w3.org/2000/svg" viewBox="0 -0.5 40 40" shape-rendering="crispEdges">
<metadata>Made with Pixels to Svg https://codepen.io/shshaw/pen/XbxvNj</metadata>
<path stroke="#1fff00" d="M0 0h1M9 0h1M16 0h3M20 0h2M0 1h1M0 2h1M0 3h1M0 4h2M0 5h1M8 5h1M0 6h1M7 6h2M0 7h1M7 7h2M8 8h1M8 9h1M8 13h1M7 14h1M6 15h1M39 15h1M38 16h2M37 17h3M2 18h1M36 18h3M0 19h2M35 19h3M0 20h2M34 20h3M0 21h1M33 21h4M32 22h4M31 23h4M29 24h6M28 25h7M27 26h8M38 26h1M26 27h8M25 28h8M37 28h1M24 29h8M37 29h1M24 30h7M34 30h4M25 31h5M33 31h4M26 32h3M33 32h4M27 33h1M30 33h1M32 33h4M32 34h3M32 35h2M36 36h1M34 37h3M34 38h3M34 39h3" />
<path stroke="#bab4ae" d="M1 0h5M7 0h1M1 1h3M5 1h1M10 1h1M2 2h7M2 3h4M2 4h3M2 5h2M2 6h2M2 7h2M3 8h5M3 9h5M4 10h4M4 11h1M6 11h1M4 12h3M4 13h3M5 14h1M4 16h1M4 19h1M3 20h1M2 22h1M2 23h1M2 24h1M6 25h4M5 26h2M9 26h2M10 27h1M10 28h1" />
<path stroke="#dfd9d3" d="M6 0h1M11 0h1M4 1h1M8 1h2M9 2h1M4 7h1M8 10h1M7 11h2M7 13h1M6 14h1M5 16h1M5 17h1M5 18h1M3 21h1M3 22h1M3 23h1M7 26h2" />
<path stroke="#a39c96" d="M8 0h1M12 0h3M6 1h1M11 1h3M1 2h1M10 2h2M1 3h1M6 3h6M5 4h1M1 5h1M1 6h1M1 7h1M1 8h2M2 9h1M2 10h2M2 11h2M2 12h2M7 12h1M3 13h1M3 14h2M3 15h3M3 17h2M3 18h2M2 19h2M2 20h1M1 21h2M1 22h1M1 23h1M3 24h2M3 25h3M4 26h1M6 27h4M8 28h2" />
<path stroke="#000000" d="M10 0h1M15 0h1M19 0h1M22 0h1M26 0h1M14 1h1M16 1h3M20 1h2M23 1h1M25 1h1M27 1h1M13 2h1M24 2h1M27 2h1M27 3h1M9 4h1M27 4h1M9 5h1M27 5h1M9 6h1M27 6h1M9 7h1M27 7h1M9 8h1M27 8h1M9 9h1M11 9h3M18 9h4M27 9h1M10 10h1M22 10h1M27 10h1M10 11h1M13 11h2M18 11h3M27 11h1M10 12h1M12 12h1M15 12h1M17 12h1M21 12h1M27 12h1M11 13h1M15 13h1M17 13h1M21 13h1M27 13h1M11 14h5M17 14h5M28 14h1M10 15h2M13 15h1M15 15h1M17 15h1M19 15h1M21 15h1M28 15h1M9 16h1M11 16h1M15 16h1M17 16h1M21 16h1M23 16h4M28 16h1M9 17h1M12 17h1M14 17h4M21 17h2M27 17h2M8 18h8M17 18h1M20 18h2M24 18h2M28 18h1M7 19h1M16 19h5M26 19h1M29 19h1M6 20h1M9 20h4M25 20h1M27 20h1M29 20h1M6 21h1M8 21h1M13 21h4M24 21h1M29 21h1M7 22h1M10 22h3M14 22h1M17 22h8M27 22h2M8 23h2M12 23h2M15 23h1M23 23h1M26 23h1M14 24h1M16 24h1M23 24h1M25 24h1M22 25h1M24 25h1M21 26h1M23 26h1M18 27h3M22 27h1M17 28h1M21 28h2M19 29h1M22 29h1M18 30h1M22 30h2M17 31h2M23 31h2M16 32h1M25 32h1M16 33h1M26 33h1M15 34h1M27 34h3M14 35h2M30 35h2M13 36h1M31 36h2M12 37h1M32 37h1M12 38h1M16 38h1M28 38h1M33 38h1M12 39h1M15 39h2M28 39h2M33 39h1" />
<path stroke="#c300ff" d="M23 0h3M27 0h13M24 1h1M28 1h12M28 2h12M28 3h12M28 4h12M28 5h12M28 6h12M28 7h12M28 8h12M28 9h12M28 10h12M28 11h12M28 12h12M9 13h1M28 13h12M8 14h2M29 14h11M7 15h3M29 15h10M6 16h3M29 16h9M6 17h3M29 17h8M6 18h2M29 18h7M5 19h2M30 19h5M4 20h2M30 20h4M4 21h2M30 21h3M0 22h1M4 22h3M29 22h3M0 23h1M4 23h4M10 23h2M27 23h4M0 24h2M5 24h9M26 24h3M0 25h3M10 25h5M25 25h3M0 26h4M11 26h2M24 26h3M0 27h4M11 27h1M23 27h3M0 28h4M6 28h2M16 28h1M23 28h2M0 29h5M6 29h5M14 29h5M23 29h1M0 30h18M0 31h17M0 32h16M0 33h16M0 34h15M0 35h14M0 36h13M0 37h12M0 38h12M0 39h12" />
<path stroke="#20ff00" d="M7 1h1M6 4h3M5 5h3M5 6h2M5 7h2M0 8h1M0 9h2M0 10h2M9 10h1M0 11h2M5 11h1M9 11h1M0 12h2M8 12h2M0 13h3M0 14h3M0 15h3M0 16h4M0 17h3M0 18h2M39 18h1M38 19h2M37 20h3M37 21h3M36 22h4M35 23h5M35 24h5M35 25h5M35 26h3M39 26h1M34 27h6M33 28h4M38 28h2M32 29h5M38 29h2M31 30h3M38 30h2M30 31h3M37 31h3M29 32h4M37 32h3M28 33h2M31 33h1M36 33h4M30 34h2M35 34h5M34 35h6M33 36h3M37 36h3M33 37h1M37 37h3M37 38h3M37 39h3" />
<path stroke="#ffd500" d="M15 1h1M19 1h1M22 1h1M26 1h1M12 2h1M14 2h10M25 2h2M12 3h15M10 4h17M10 5h17M10 6h17M10 7h17M10 8h17M10 9h1M14 9h4M22 9h5M11 10h11M23 10h4M11 11h2M15 11h3M21 11h6M11 12h1M16 12h1M22 12h5M10 13h1M16 13h1M22 13h5M10 14h1M16 14h1M22 14h6M16 15h1M22 15h6M16 16h1M22 16h1M27 16h1M20 29h2M19 30h3M19 31h4M20 32h2M30 37h2M13 38h1M29 38h4M13 39h2M30 39h3" />
<path stroke="#21ff00" d="M4 5h1M4 6h1" />
<path stroke="#d2e0d6" d="M13 12h2M18 12h3" />
<path stroke="#9dfbaa" d="M12 13h3M18 13h3" />
<path stroke="#ffffff" d="M12 15h1M14 15h1M18 15h1M20 15h1M13 16h2M18 16h3M18 17h3M18 24h1M16 25h1M15 26h1M13 27h2M13 28h1" />
<path stroke="#ff8a00" d="M10 16h1M10 17h2M23 17h4M16 18h1M22 18h2M26 18h2M8 19h8M21 19h5M27 19h2M7 20h2M13 20h12M26 20h1M28 20h1M7 21h1M9 21h4M17 21h7M25 21h4M8 22h2M13 22h1M25 22h2M14 23h1M24 23h2M15 24h1M24 24h1M23 25h1M22 26h1M17 27h1M21 27h1M18 28h3" />
<path stroke="#fa898f" d="M12 16h1M13 17h1M18 18h2" />
<path stroke="#ff0000" d="M15 22h2M16 23h3M22 23h1M21 24h2M20 25h2M18 26h3M17 32h3M22 32h3M17 33h9M16 34h11M16 35h14M14 36h17M13 37h17M14 38h2M17 38h11M17 39h11" />
<path stroke="#fc809a" d="M19 23h3M19 24h2M19 25h1" />
<path stroke="#aa6232" d="M17 24h1M15 25h1M18 25h1M13 26h2M17 26h1M12 27h1M16 27h1M14 28h2M13 29h1" />
<path stroke="#e6e0e0" d="M17 25h1M16 26h1M15 27h1" />
<path stroke="#bf00ff" d="M4 27h2M4 28h2M5 29h1" />
<path stroke="#ff8900" d="M11 28h1" />
<path stroke="#ffd100" d="M12 28h1M11 29h2" />
</svg>