<svg xmlns="http://www.w3.org/2000/svg" viewBox="0 -0.5 40 40" shape-rendering="crispEdges">
<metadata>Made with Pixels to Svg https://codepen.io/shshaw/pen/XbxvNj</metadata>
<path stroke="#26fe6a" d="M0 0h40M0 1h40M0 2h11M14 2h6M25 2h15M0 3h3M37 3h3M0 4h3M37 4h3M0 5h3M37 5h3M0 6h3M37 6h3M0 7h3M37 7h3M0 8h3M37 8h3M0 9h3M37 9h3M0 10h3M37 10h3M0 11h3M37 11h3M0 12h3M37 12h3M0 13h3M37 13h3M0 14h3M37 14h3M0 15h3M37 15h3M0 16h3M37 16h3M0 17h3M37 17h3M0 18h3M37 18h3M0 19h3M37 19h3M0 20h3M37 20h3M0 21h3M37 21h3M0 22h3M37 22h3M0 23h3M37 23h3M0 24h3M37 24h3M0 25h3M37 25h3M0 26h3M37 26h3M0 27h3M37 27h3M0 28h3M37 28h3M0 29h3M37 29h3M0 30h3M37 30h3M0 31h3M37 31h3M0 32h3M37 32h3M0 33h3M37 33h3M0 34h3M37 34h3M0 35h3M37 35h3M0 36h3M37 36h3M0 37h12M33 37h7M0 38h12M34 38h6M0 39h12M34 39h6" />
<path stroke="#000000" d="M11 2h3M20 2h5M3 3h18M22 3h15M3 4h1M10 4h3M14 4h2M18 4h1M21 4h1M23 4h3M36 4h1M3 5h1M10 5h2M13 5h1M16 5h2M19 5h2M22 5h1M24 5h1M26 5h1M29 5h1M36 5h1M3 6h1M7 6h1M10 6h1M12 6h1M14 6h1M16 6h1M18 6h1M21 6h1M23 6h1M26 6h1M28 6h1M36 6h1M3 7h1M8 7h1M10 7h2M15 7h1M17 7h1M22 7h1M27 7h1M36 7h1M3 8h1M9 8h1M11 8h1M16 8h1M23 8h1M26 8h2M29 8h1M36 8h1M3 9h1M8 9h2M11 9h1M16 9h1M23 9h1M25 9h4M36 9h1M3 10h1M9 10h1M11 10h1M16 10h1M23 10h1M26 10h2M36 10h1M3 11h1M8 11h2M11 11h1M16 11h1M23 11h1M27 11h2M36 11h1M3 12h1M9 12h1M11 12h1M16 12h1M23 12h1M26 12h2M36 12h1M3 13h1M9 13h1M11 13h1M16 13h1M23 13h1M25 13h3M36 13h1M3 14h1M9 14h1M11 14h1M16 14h1M22 14h1M26 14h3M36 14h1M3 15h1M9 15h1M11 15h12M28 15h1M36 15h1M3 16h1M9 16h1M11 16h1M14 16h4M19 16h10M36 16h1M3 17h1M9 17h1M12 17h1M14 17h4M19 17h4M27 17h2M36 17h1M3 18h1M8 18h8M17 18h1M20 18h2M24 18h2M28 18h1M36 18h1M3 19h1M7 19h1M16 19h5M26 19h1M29 19h1M36 19h1M3 20h1M6 20h1M9 20h4M25 20h1M27 20h1M29 20h1M36 20h1M3 21h1M6 21h1M8 21h1M13 21h4M24 21h1M29 21h1M36 21h1M3 22h1M7 22h1M10 22h3M14 22h1M17 22h8M27 22h2M36 22h1M3 23h1M8 23h2M12 23h2M15 23h1M23 23h1M26 23h1M36 23h1M3 24h1M14 24h1M16 24h1M23 24h1M25 24h1M36 24h1M3 25h1M15 25h1M17 25h1M22 25h1M24 25h1M36 25h1M3 26h1M15 26h1M17 26h1M21 26h1M23 26h1M36 26h1M3 27h1M16 27h1M18 27h3M22 27h1M36 27h1M3 28h1M17 28h1M21 28h2M36 28h1M3 29h1M18 29h2M22 29h1M36 29h1M3 30h1M18 30h1M23 30h1M36 30h1M3 31h1M17 31h1M24 31h1M36 31h1M3 32h1M16 32h1M23 32h1M25 32h1M36 32h1M3 33h1M16 33h1M26 33h1M36 33h1M3 34h1M15 34h1M25 34h1M27 34h3M36 34h1M3 35h1M14 35h2M30 35h2M36 35h1M3 36h11M29 36h1M31 36h6M12 37h1M28 37h1M32 37h1M12 38h1M16 38h1M28 38h1M31 38h1M33 38h1M12 39h1M15 39h2M28 39h2M33 39h1" />
<path stroke="#ff8400" d="M21 3h1M13 4h1M19 4h2M22 4h1M12 5h1M14 5h2M18 5h1M21 5h1M23 5h1M25 5h1M11 6h1M13 6h1M15 6h1M17 6h1M19 6h2M22 6h1M24 6h2M12 7h3M16 7h1M18 7h4M23 7h4M10 8h1M12 8h4M17 8h6M24 8h2M10 9h1M12 9h4M17 9h6M24 9h1M10 10h1M12 10h4M17 10h6M24 10h2M10 11h1M12 11h4M17 11h6M24 11h3M10 12h1M12 12h4M17 12h6M24 12h2M10 13h1M12 13h4M17 13h6M24 13h1M10 14h1M12 14h4M17 14h5M23 14h3M10 15h1M23 15h5M14 23h1M16 25h1M20 29h2M19 30h4M18 31h6M17 32h6M24 32h1M17 33h9M16 34h9M26 34h1M16 35h14M14 36h15M30 36h1M13 37h15M29 37h3M13 38h3M17 38h11M29 38h2M32 38h1M13 39h2M17 39h11M30 39h3" />
<path stroke="#f892ff" d="M4 4h6M16 4h2M26 4h10M4 5h6M27 5h2M30 5h6M4 6h3M8 6h2M27 6h1M29 6h7M4 7h4M9 7h1M28 7h8M4 8h5M28 8h1M30 8h6M4 9h4M29 9h7M4 10h5M28 10h8M4 11h4M29 11h7M4 12h5M28 12h8M4 13h5M28 13h8M4 14h5M29 14h7M4 15h5M29 15h7M4 16h5M29 16h7M4 17h5M29 17h7M4 18h4M29 18h7M4 19h3M30 19h6M4 20h2M30 20h6M4 21h2M30 21h6M4 22h3M29 22h7M4 23h4M10 23h2M27 23h9M4 24h10M26 24h10M4 25h11M25 25h11M4 26h11M24 26h12M4 27h11M26 27h10M4 28h11M29 28h7M4 29h11M29 29h7M4 30h11M31 30h5M4 31h11M31 31h5M4 32h12M31 32h5M4 33h12M32 33h4M4 34h11M31 34h5M4 35h10M32 35h4" />
<path stroke="#fff153" d="M10 16h1M10 17h2M23 17h4M22 18h2M26 18h2M8 19h8M21 19h5M27 19h2M7 20h2M13 20h12M26 20h1M28 20h1M7 21h1M9 21h2M17 21h7M25 21h4M26 22h1" />
<path stroke="#ffffff" d="M12 16h2M18 16h1M13 17h1M18 17h1M18 18h2" />
<path stroke="#ff8683" d="M16 18h1" />
<path stroke="#fff053" d="M11 21h2M8 22h2M25 22h1M25 23h1" />
<path stroke="#ff8a00" d="M13 22h1M24 23h1M15 24h1M24 24h1M23 25h1M16 26h1M22 26h1M17 27h1M21 27h1M18 28h3" />
<path stroke="#ff0000" d="M15 22h2M16 23h3M22 23h1M17 24h1M21 24h2M20 25h2M18 26h3" />
<path stroke="#fc809a" d="M19 23h3M18 24h3M18 25h2" />
<path stroke="#f792ff" d="M15 27h1M23 27h3M15 28h2M23 28h6M15 29h3M23 29h6M15 30h3M24 30h7M15 31h2M25 31h6M26 32h5M27 33h5M30 34h1" />
</svg>