<svg xmlns="http://www.w3.org/2000/svg" viewBox="0 -0.5 40 40" shape-rendering="crispEdges">
<metadata>Made with Pixels to Svg https://codepen.io/shshaw/pen/XbxvNj</metadata>
<path stroke="#ffacb2" d="M0 0h2M23 0h17M24 1h9M36 1h4M22 2h8M37 2h3M23 3h5M38 3h2M38 4h2M37 5h3M37 6h3M36 7h4M1 8h1M35 8h5M0 9h1M34 9h6M34 10h6M33 11h7M32 12h6M31 13h4M30 14h3M6 15h1M30 15h1M4 16h3M2 17h4M0 18h6M0 19h5M0 20h5M0 21h4M0 22h3M0 23h2M0 24h2M39 24h1M0 25h1M26 25h2M38 25h1M27 26h1M8 32h6M7 33h6M38 33h2M5 34h7M37 34h3M3 35h9M36 35h4M1 36h11M35 36h5M0 37h11M34 37h6M0 38h11M34 38h6M0 39h11M34 39h6" />
<path stroke="#feadb2" d="M2 0h1M34 1h1M31 2h1M28 3h1M26 4h1M34 8h1M1 9h1M36 13h1M33 14h1M31 15h1M29 16h1M5 20h1M36 26h2" />
<path stroke="#fab2b2" d="M3 0h1M32 2h1M29 3h1M27 4h1M2 6h1M32 10h1M9 13h1M37 13h1M6 14h1M34 14h1M4 15h1M32 15h1M30 16h1M6 18h1M5 21h1M4 22h1M28 23h1M38 23h1M26 24h1M37 24h1M28 26h1M38 26h1M35 27h1M10 30h1M8 31h1M3 34h1M1 35h1M33 36h1" />
<path stroke="#ebbeb1" d="M4 0h1M31 22h1M34 28h1" />
<path stroke="#d3d0b0" d="M5 0h1M0 13h1M39 20h1M0 29h1" />
<path stroke="#8cf4ac" d="M6 0h1" />
<path stroke="#68ffaa" d="M7 0h1M8 3h1M7 6h1M29 6h1M31 7h1M5 9h1M9 10h1M6 11h1M34 17h1M33 18h1M39 18h1M35 20h1M37 20h1M33 23h1M33 24h1M32 25h1M4 26h1M13 26h1M10 27h1M2 29h1M3 31h1M31 34h1" />
<path stroke="#66ffaa" d="M8 0h3M8 1h2M8 2h1M30 6h2M7 7h1M30 7h1M7 8h2M6 9h4M5 10h3M5 11h1M38 16h2M35 17h5M35 18h3M35 19h3M36 20h1M35 21h1M10 23h2M7 24h7M6 25h9M5 26h8M4 27h5M4 28h3M3 29h2M2 30h2M1 31h2M30 31h2M28 32h5M30 33h2" />
<path stroke="#000000" d="M11 0h5M18 0h5M10 1h4M16 1h8M9 2h4M15 2h7M9 3h3M13 3h10M8 4h4M13 4h13M8 5h19M8 6h18M28 6h1M8 7h16M26 7h3M9 8h4M23 8h1M25 8h6M10 9h4M18 9h4M24 9h6M10 10h1M22 10h1M25 10h5M10 11h1M13 11h2M18 11h3M25 11h5M10 12h1M12 12h1M15 12h1M17 12h1M21 12h1M25 12h6M11 13h1M15 13h1M17 13h1M21 13h1M25 13h6M11 14h1M15 14h1M17 14h1M20 14h2M24 14h3M28 14h2M10 15h2M14 15h2M17 15h1M19 15h3M23 15h3M28 15h2M9 16h1M11 16h1M14 16h2M17 16h1M19 16h3M23 16h4M28 16h1M9 17h1M12 17h1M14 17h4M19 17h4M27 17h2M8 18h8M17 18h1M20 18h2M24 18h2M28 18h1M7 19h1M16 19h5M26 19h1M29 19h1M6 20h1M9 20h4M25 20h1M27 20h1M29 20h1M6 21h1M8 21h1M13 21h4M24 21h1M29 21h1M7 22h1M10 22h3M14 22h1M17 22h8M27 22h2M8 23h2M12 23h2M15 23h1M23 23h1M26 23h1M14 24h1M16 24h1M23 24h1M25 24h1M15 25h1M17 25h1M22 25h1M24 25h1M15 26h1M17 26h1M21 26h1M23 26h1M25 26h2M16 27h1M18 27h3M22 27h1M25 27h5M13 28h2M17 28h1M21 28h1M24 28h8M12 29h4M18 29h3M23 29h8M32 29h1M11 30h1M13 30h4M23 30h11M10 31h7M24 31h6M15 32h2M24 32h2M14 33h3M24 33h3M28 33h2M14 34h3M24 34h4M29 34h2M12 35h1M14 35h3M24 35h4M30 35h2M12 36h2M15 36h2M25 36h3M29 36h4M11 37h4M16 37h1M25 37h2M28 37h5M11 38h5M25 38h1M27 38h7M11 39h5M26 39h8" />
<path stroke="#0015dc" d="M16 0h2M15 1h1M12 3h1M12 4h1M29 7h1M30 9h1M30 10h1M30 11h1" />
<path stroke="#ffadb2" d="M0 1h1M33 1h1M35 1h1M30 2h1M37 3h1M37 4h1M36 6h1M2 7h1M35 7h1M0 8h1M2 8h1M33 10h1M32 11h1M31 12h1M38 12h2M35 13h1M7 14h2M5 15h1M7 15h1M3 16h1M0 17h2M6 17h1M5 19h1M4 21h1M3 22h1M2 23h1M39 23h1M27 24h2M38 24h1M1 25h1M28 25h1M37 25h1M39 25h1M0 26h1M9 31h1M7 32h1M39 32h1M6 33h1M37 33h1M4 34h1M36 34h1M2 35h1M35 35h1M0 36h1M34 36h1M33 37h1" />
<path stroke="#fab1b2" d="M1 1h1M36 5h1M1 7h1M3 7h1M33 9h1M7 16h1M39 22h1M2 24h1M29 24h1M0 27h1M38 32h1M5 33h1" />
<path stroke="#ecbeb1" d="M2 1h1M28 4h1M5 5h1M1 10h1M5 14h1M33 15h1M31 16h1M39 21h1M29 22h1M27 23h1M0 28h1M9 30h1M7 31h1M37 32h1M4 33h1M2 34h1" />
<path stroke="#d9ccb0" d="M3 1h1M4 4h1M29 4h1M5 6h1M9 12h1M6 13h1M4 14h1M34 15h1M32 16h1M7 18h1M30 21h1M29 26h1M35 28h1M10 29h1M8 30h1M6 31h1M3 33h1M1 34h1" />
<path stroke="#a9e7ad" d="M4 1h1M2 2h1M28 5h1M8 12h1M33 16h1M29 18h1M34 29h1M4 32h1" />
<path stroke="#8df3ac" d="M5 1h1M3 2h1M29 5h1M6 6h1M4 9h1M34 16h1M32 17h1M30 18h1M3 26h1M30 26h1M35 29h1M39 29h1" />
<path stroke="#73fcab" d="M6 1h1M7 5h1M30 5h1M32 6h1M6 7h1M4 10h1M3 11h1M8 11h1M5 12h1M38 15h1M35 16h1M33 17h1M31 18h1M32 24h1M3 27h1M12 27h1M31 27h1M36 29h1M5 30h1M34 30h1M35 31h1M2 32h1M27 32h1" />
<path stroke="#67ffaa" d="M7 1h1M6 8h1M8 10h1M4 11h1M3 12h1M37 16h1M34 18h1M38 18h1M36 21h1M34 22h2M7 23h1M34 23h1M6 24h1M5 25h1M9 27h1M3 28h1M7 28h1M5 29h1M4 30h1M0 31h1M32 31h3M0 32h1M33 32h1M32 33h1" />
<path stroke="#0016dc" d="M14 1h1M13 2h2M26 6h2M24 7h2M24 8h1" />
<path stroke="#f9b2b2" d="M0 2h1M4 6h1M35 6h1M34 7h1M2 9h1M31 11h1M9 14h1M8 15h1M3 23h1M30 23h1M36 25h1M1 26h1M35 26h1M39 31h1M6 32h1M36 33h1M35 34h1M34 35h1" />
<path stroke="#dfc8b0" d="M1 2h1M4 7h1M32 9h1M5 22h1M1 27h1" />
<path stroke="#75fbab" d="M4 2h1" />
<path stroke="#75fcab" d="M5 2h1M33 5h1M5 8h1M31 8h1M4 25h1M31 25h1M39 28h1M38 29h1M37 30h1" />
<path stroke="#83f7ab" d="M6 2h1M33 19h1" />
<path stroke="#71fdab" d="M7 2h1M34 19h1" />
<path stroke="#edbdb1" d="M33 2h1M35 2h1M36 3h1M36 4h1M0 7h1M0 11h1M8 13h1M6 19h1M36 27h1M0 35h1" />
<path stroke="#e9c1b1" d="M34 2h1M0 16h1" />
<path stroke="#fbb1b2" d="M36 2h1M0 10h1" />
<path stroke="#d8ccb0" d="M0 3h1M32 3h1M27 5h1M33 7h1M3 9h1M2 10h1M37 14h1M31 23h1M2 26h1M39 30h1M36 32h1" />
<path stroke="#a3eaad" d="M1 3h1M1 5h1M34 5h1M5 7h1M31 9h1M6 22h1M5 23h1M36 23h1M4 24h1M31 24h1M35 24h1M34 25h1M33 26h1M34 33h1M33 34h1M32 35h1" />
<path stroke="#77fbab" d="M2 3h1M34 4h1" />
<path stroke="#76fbab" d="M3 3h1M0 5h1" />
<path stroke="#8ef3ac" d="M4 3h1M4 13h1M8 29h1M6 30h1M36 31h1M1 33h1" />
<path stroke="#a8e8ad" d="M5 3h1M32 22h1" />
<path stroke="#c2dbae" d="M6 3h1" />
<path stroke="#8af4ab" d="M7 3h1" />
<path stroke="#ecbdb1" d="M30 3h1M3 8h1M33 8h1M38 13h1M35 14h1M7 17h1M2 25h1M29 25h1M39 26h1" />
<path stroke="#e7c2b1" d="M31 3h1M36 14h1" />
<path stroke="#aae7ad" d="M33 3h1M3 4h1M30 4h1M6 5h1M0 6h1M4 8h1M32 8h1M5 13h1M3 14h1M38 14h1M1 15h1M35 15h1M8 17h1M31 17h1M38 21h1M3 25h1M30 25h1M39 27h1M1 28h1M12 28h1M36 28h1M9 29h1M7 30h1M37 31h1M2 33h1M0 34h1" />
<path stroke="#97f0ac" d="M34 3h1" />
<path stroke="#b1e4ad" d="M35 3h1M1 11h1" />
<path stroke="#8df4ac" d="M0 4h1M32 7h1M9 11h1M1 13h1M39 19h1M30 20h1M38 20h1M10 28h1M1 29h1M3 32h1" />
<path stroke="#7ef9ab" d="M1 4h1M1 14h1" />
<path stroke="#8ff3ac" d="M2 4h1M2 14h1" />
<path stroke="#e6c3b1" d="M5 4h1" />
<path stroke="#d2d1af" d="M6 4h1" />
<path stroke="#8bf5ab" d="M7 4h1" />
<path stroke="#95f0ac" d="M31 4h1M7 12h1M39 14h1M36 15h1M31 20h1" />
<path stroke="#8cf5ac" d="M32 4h1M6 12h1M37 15h1M13 27h1M38 28h1" />
<path stroke="#74fcab" d="M33 4h1M3 13h1M37 21h1M33 22h1M36 22h1M6 23h1M35 23h1M5 24h1M34 24h1M33 25h1M32 26h1M30 27h1M2 28h1M9 28h1M7 29h1M4 31h1M34 32h1M0 33h1M33 33h1M32 34h1" />
<path stroke="#abe7ad" d="M35 4h1" />
<path stroke="#daccb0" d="M2 5h1M2 15h1M30 17h1M38 27h1" />
<path stroke="#edbeb1" d="M3 5h1M3 15h1M29 17h1" />
<path stroke="#f9b3b2" d="M4 5h1M10 13h1M30 22h1" />
<path stroke="#69ffaa" d="M31 5h2M7 11h1M4 12h1M39 15h1M36 16h1M32 18h1M14 26h1M31 26h1M11 27h1M8 28h1M6 29h1M35 30h2M1 32h1" />
<path stroke="#dec8b0" d="M35 5h1M1 6h1M8 16h1M38 22h1M37 23h1M3 24h1M30 24h1M38 31h1M5 32h1" />
<path stroke="#ffaeb2" d="M3 6h1M29 23h1" />
<path stroke="#a3ebad" d="M33 6h1M38 30h1M5 31h1" />
<path stroke="#dec9b0" d="M34 6h1M31 10h1M10 14h1M9 15h1M4 23h1M36 24h1M35 25h1M34 26h1M35 33h1M34 34h1M33 35h1" />
<path stroke="#ffffff" d="M13 8h10M14 9h4M22 9h2M11 10h11M23 10h2M11 11h2M15 11h3M21 11h4M11 12h1M16 12h1M22 12h3M16 13h1M22 13h3M14 14h1M16 14h1M19 14h1M22 14h2M27 14h1M16 15h1M22 15h1M26 15h2M16 16h1M22 16h1M27 16h1M21 30h1M18 31h5M19 32h3" />
<path stroke="#a2ebad" d="M3 10h1M37 22h1M32 27h1M35 32h1" />
<path stroke="#8ef4ac" d="M2 11h1M0 14h1" />
<path stroke="#e7c1b1" d="M0 12h1M39 13h1" />
<path stroke="#96f0ac" d="M1 12h1M11 28h1" />
<path stroke="#6affaa" d="M2 12h1M31 19h1M37 29h1" />
<path stroke="#c3d9f9" d="M13 12h2M18 12h3M12 13h3M18 13h3M12 14h2M18 14h1M12 15h2M18 15h1M12 16h2M18 16h1M13 17h1M18 17h1M18 18h2" />
<path stroke="#6bffaa" d="M2 13h1M30 19h1" />
<path stroke="#e8c2b1" d="M7 13h1M37 27h1M11 29h1" />
<path stroke="#97efac" d="M0 15h1" />
<path stroke="#eebdb1" d="M1 16h1" />
<path stroke="#fbb2b2" d="M2 16h1" />
<path stroke="#ff8a00" d="M10 16h1M10 17h2M23 17h4M16 18h1M22 18h2M26 18h2M8 19h8M21 19h5M27 19h2M7 20h2M13 20h12M26 20h1M28 20h1M7 21h1M9 21h4M17 21h7M25 21h4M8 22h2M13 22h1M25 22h2M14 23h1M24 23h2M15 24h1M24 24h1M16 25h1M23 25h1M16 26h1M22 26h1M17 27h1M21 27h1M18 28h3" />
<path stroke="#73fdab" d="M32 19h1" />
<path stroke="#72fcab" d="M38 19h1M34 21h1" />
<path stroke="#a0ecad" d="M32 20h1" />
<path stroke="#b0e5ad" d="M33 20h1" />
<path stroke="#82f7ab" d="M34 20h1" />
<path stroke="#e2c6b1" d="M31 21h1" />
<path stroke="#c8d7af" d="M32 21h1" />
<path stroke="#9aefac" d="M33 21h1" />
<path stroke="#ff0000" d="M15 22h2M16 23h3M22 23h1M17 24h1M21 24h2M20 25h2M18 26h3" />
<path stroke="#fc809a" d="M19 23h3M18 24h3M18 25h2" />
<path stroke="#8df5ac" d="M32 23h1" />
<path stroke="#ffabaf" d="M25 25h1" />
<path stroke="#4c4c4c" d="M24 26h1M15 27h1M23 27h1M16 28h1M22 28h1M17 29h1M22 29h1M17 30h1M22 30h1M17 31h1M23 31h1M14 32h1M17 32h1M23 32h1M26 32h1M13 33h1M17 33h1M23 33h1M27 33h1M12 34h1M17 34h1M23 34h1M28 34h1M13 35h1M17 35h1M23 35h1M29 35h1M14 36h1M17 36h1M24 36h1M28 36h1M15 37h1M17 37h1M24 37h1M27 37h1M16 38h1M24 38h1M26 38h1M16 39h1M25 39h1" />
<path stroke="#a2eaad" d="M2 27h1" />
<path stroke="#282626" d="M14 27h1M24 27h1M15 28h1M23 28h1M16 29h1" />
<path stroke="#ddc9b0" d="M33 27h1" />
<path stroke="#f8b3b2" d="M34 27h1" />
<path stroke="#d8cdaf" d="M32 28h1" />
<path stroke="#f3b8b2" d="M33 28h1" />
<path stroke="#95f1ac" d="M37 28h1" />
<path stroke="#edeaea" d="M21 29h1M18 30h3" />
<path stroke="#f3eeee" d="M31 29h1M12 30h1M13 34h1M28 35h1" />
<path stroke="#d7cdb0" d="M33 29h1" />
<path stroke="#8bf5ac" d="M0 30h1" />
<path stroke="#71fcab" d="M1 30h1" />
<path stroke="#ea0707" d="M18 32h1M22 32h1M18 33h1M22 33h1M18 34h1M22 34h1M18 35h2M22 35h1M18 36h2M22 36h2M18 37h2M23 37h1M17 38h3M23 38h1M17 39h4M23 39h2" />
<path stroke="#fd0202" d="M19 33h3M19 34h3M20 35h2M20 36h2M20 37h3M20 38h3M21 39h2" />
</svg>