<svg xmlns="http://www.w3.org/2000/svg" viewBox="0 -0.5 40 40" shape-rendering="crispEdges">
<metadata>Made with Pixels to Svg https://codepen.io/shshaw/pen/XbxvNj</metadata>
<path stroke="#1be100" d="M0 0h1M0 1h1M0 26h1M0 27h1M0 28h1M0 29h1" />
<path stroke="#0e7900" d="M1 0h1M1 1h1M1 26h1M1 27h1M1 28h1M36 29h1" />
<path stroke="#031c00" d="M2 0h1M10 0h1M28 0h1M37 0h1M2 1h1M10 1h1M28 1h1M37 1h1M2 2h1M10 2h1M37 2h1M2 3h1M10 3h1M37 3h1M2 4h1M37 4h1M2 5h1M6 5h1M33 5h1M37 5h1M3 6h3M38 6h2M2 11h1M37 11h1M2 12h1M37 12h1M2 13h1M37 13h1M2 14h1M37 14h1M2 15h1M37 15h1M3 16h1M38 16h2M2 21h1M37 21h1M2 22h1M37 22h1M2 23h1M37 23h1M2 24h1M37 24h1M2 25h1M37 25h1M2 26h1M37 26h1M2 27h1M37 27h1M2 28h1M37 28h1M3 29h1M38 29h2M10 32h3M9 33h1M2 34h1M9 34h1M30 34h1M37 34h1M2 35h1M9 35h1M37 35h1M2 36h1M9 36h1M37 36h1M2 37h1M9 37h1M37 37h1M2 38h1M9 38h1M37 38h1M2 39h1M9 39h2M37 39h1" />
<path stroke="#000000" d="M3 0h3M11 0h3M20 0h4M29 0h4M38 0h2M3 1h3M11 1h8M20 1h6M29 1h4M38 1h2M3 2h3M11 2h3M19 2h2M26 2h7M38 2h2M3 3h3M11 3h1M29 3h4M38 3h2M3 4h3M10 4h1M30 4h3M38 4h2M3 5h3M9 5h1M31 5h2M38 5h2M8 6h1M32 6h1M8 7h1M33 7h1M7 8h1M34 8h1M7 9h1M11 9h3M18 9h4M34 9h1M7 10h1M10 10h1M22 10h1M35 10h1M3 11h2M6 11h2M10 11h1M13 11h2M18 11h3M23 11h1M35 11h1M38 11h2M3 12h2M6 12h1M10 12h1M12 12h1M15 12h1M17 12h1M21 12h1M23 12h1M35 12h1M38 12h2M3 13h2M6 13h1M11 13h1M15 13h1M17 13h1M21 13h1M23 13h1M35 13h1M38 13h2M3 14h2M6 14h1M11 14h1M15 14h1M17 14h1M20 14h2M23 14h1M35 14h1M38 14h2M3 15h1M6 15h1M10 15h2M14 15h2M17 15h1M19 15h3M23 15h1M35 15h1M38 15h2M6 16h1M9 16h1M11 16h1M14 16h2M17 16h1M19 16h3M23 16h1M35 16h1M6 17h1M9 17h1M12 17h1M14 17h4M19 17h5M35 17h1M6 18h1M8 18h8M17 18h1M20 18h2M23 18h1M35 18h1M6 19h2M16 19h5M23 19h1M35 19h1M6 20h1M9 20h4M23 20h1M35 20h1M3 21h2M6 21h1M8 21h1M13 21h4M23 21h1M35 21h1M38 21h2M3 22h2M6 22h2M10 22h3M14 22h1M17 22h7M35 22h1M38 22h2M3 23h2M6 23h1M8 23h2M12 23h2M15 23h1M23 23h1M35 23h1M38 23h2M3 24h2M6 24h1M14 24h1M16 24h1M23 24h1M35 24h1M38 24h2M3 25h2M6 25h1M15 25h1M17 25h1M22 25h2M35 25h1M38 25h2M3 26h2M6 26h1M15 26h1M17 26h1M21 26h1M23 26h1M35 26h1M38 26h2M3 27h2M6 27h1M16 27h1M18 27h3M22 27h2M35 27h1M38 27h2M3 28h1M6 28h1M17 28h1M21 28h3M35 28h1M38 28h2M6 29h1M18 29h6M35 29h1M6 30h1M9 30h2M14 30h5M20 30h1M23 30h1M35 30h1M7 31h1M11 31h3M17 31h1M19 31h1M23 31h1M33 31h1M35 31h1M8 32h1M16 32h1M20 32h1M24 32h1M27 32h5M33 32h2M10 33h3M16 33h1M19 33h1M25 33h2M31 33h2M3 34h2M10 34h3M15 34h1M20 34h1M27 34h3M31 34h2M38 34h2M3 35h2M10 35h3M14 35h1M19 35h1M29 35h4M38 35h2M3 36h2M13 36h2M20 36h1M29 36h1M32 36h1M38 36h2M3 37h2M12 37h1M14 37h1M19 37h1M28 37h1M31 37h1M33 37h1M38 37h2M3 38h2M12 38h1M14 38h1M20 38h1M28 38h1M32 38h2M38 38h2M3 39h2M12 39h1M14 39h1M19 39h1M27 39h1M31 39h1M33 39h1M38 39h2" />
<path stroke="#031b00" d="M6 0h1M14 0h1M24 0h1M33 0h1M6 1h1M33 1h1M6 2h1M33 2h1M6 3h1M33 3h1M6 4h1M33 4h1M3 10h1M38 10h1M5 12h1M5 13h1M5 14h1M3 20h1M38 20h1M5 21h1M5 22h1M5 23h1M5 24h1M5 25h1M5 26h1M5 27h1M3 33h1M13 33h1M38 33h1M5 34h1M13 34h1M33 34h1M5 35h1M13 35h1M33 35h1M5 36h1M33 36h1M5 37h1M5 38h1M5 39h1" />
<path stroke="#0e7400" d="M7 0h1M9 0h1M27 0h1M7 1h1M9 1h1M27 1h1M7 2h1M9 2h1M7 3h1M9 3h1M7 4h1M9 4h1M7 5h1" />
<path stroke="#17bb00" d="M8 0h1M26 0h1M8 1h1M26 1h1M8 2h1M8 3h1M8 4h1M8 5h1" />
<path stroke="#0d7500" d="M15 0h1M3 9h3M38 9h2M3 19h2M38 19h2M36 28h1M10 31h1M6 34h1M6 35h1M6 36h1M6 37h1M6 38h1M6 39h1" />
<path stroke="#18c300" d="M16 0h1" />
<path stroke="#129300" d="M17 0h1" />
<path stroke="#073e00" d="M18 0h1" />
<path stroke="#010d00" d="M19 0h1M11 36h1M10 37h1" />
<path stroke="#0d7400" d="M25 0h1M36 0h1M36 1h1M36 2h1M36 3h1M36 4h1M36 5h1M36 11h1M36 12h1M36 13h1M36 14h1M36 15h1M36 21h1M36 22h1M36 23h1M36 24h1M36 25h1M36 26h1M36 27h1M36 34h1M36 35h1M36 36h1M36 37h1M36 38h1M36 39h1" />
<path stroke="#0c7400" d="M34 0h1M34 1h1M34 2h1M34 3h1M34 4h1M34 5h1M34 34h1M34 35h1M34 36h1M34 37h1M34 38h1M34 39h1" />
<path stroke="#15bb00" d="M35 0h1M35 1h1M35 2h1M35 3h1M35 4h1M35 5h1M35 34h1M35 35h1M35 36h1M35 37h1M35 38h1M35 39h1" />
<path stroke="#031900" d="M19 1h1M10 38h1" />
<path stroke="#1ce100" d="M0 2h1M0 3h1M0 4h1M0 5h1M0 6h1M0 10h1M0 11h1M0 12h1M0 13h1M0 14h1M0 15h1M0 16h1M0 20h1M0 21h1M0 22h1M0 23h1M0 24h1M0 25h1M0 33h1M0 34h1M0 35h1M0 36h1M0 37h1M0 38h1M0 39h1" />
<path stroke="#0f7900" d="M1 2h1M1 3h1M1 4h1M1 5h1M1 11h1M1 12h1M1 13h1M1 14h1M1 15h1M1 21h1M1 22h1M1 23h1M1 24h1M1 25h1M1 34h1M1 35h1M1 36h1M1 37h1M1 38h1M1 39h1" />
<path stroke="#d314e6" d="M14 2h1M17 2h2M21 2h2M12 3h1M14 3h1M18 3h1M20 3h1M22 3h1M12 4h1M14 4h1M18 4h1M20 4h1M22 4h1M24 4h1M27 4h2M10 5h1M12 5h1M14 5h1M18 5h1M20 5h1M22 5h1M24 5h1M27 5h1M29 5h2M10 6h1M18 6h1M20 6h1M22 6h1M24 6h1M27 6h1M29 6h1M10 7h1M18 7h3M22 7h1M24 7h1M27 7h1M29 7h1M31 7h1M14 8h2M17 8h4M22 8h1M24 8h1M26 8h1M29 8h1M31 8h1M22 9h3M26 9h1M29 9h1M31 9h1M23 10h2M26 10h1M29 10h1M31 10h1M9 11h1M24 11h1M29 11h1M31 11h1M9 12h1M24 12h1M29 12h1M8 13h1M24 13h1M29 13h1M9 14h1M29 14h1M9 15h1M29 17h1M7 18h1M29 18h1M29 19h1M28 20h1M28 21h1M28 22h1M11 23h1M28 23h1M8 24h1M11 24h2M28 24h1M9 25h1M11 25h2M14 25h1M28 25h1M31 25h1M9 26h1M12 26h1M14 26h1M28 26h1M31 26h1M9 27h1M12 27h1M14 27h1M28 27h2M31 27h1M9 28h1M12 28h1M14 28h1M16 28h1M24 28h1M28 28h2M31 28h1M9 29h2M12 29h1M14 29h1M16 29h1M24 29h1M28 29h2M33 29h1M8 30h1M12 30h1M34 30h1M8 31h1M34 31h1" />
<path stroke="#1900ff" d="M15 2h2M23 2h2M13 3h1M15 3h1M17 3h1M19 3h1M21 3h1M23 3h4M11 4h1M13 4h1M15 4h1M17 4h1M19 4h1M21 4h1M23 4h1M25 4h2M11 5h1M13 5h1M17 5h1M19 5h1M21 5h1M23 5h1M25 5h2M28 5h1M9 6h1M11 6h1M13 6h1M17 6h1M19 6h1M21 6h1M23 6h1M25 6h2M28 6h1M30 6h1M9 7h1M13 7h1M17 7h1M21 7h1M23 7h1M25 7h2M28 7h1M30 7h1M9 8h1M21 8h1M23 8h1M25 8h1M27 8h2M30 8h1M9 9h1M25 9h1M27 9h2M30 9h1M9 10h1M25 10h1M27 10h2M30 10h1M32 10h1M25 11h2M28 11h1M30 11h1M32 11h1M25 12h2M28 12h1M30 12h2M25 13h2M28 13h1M30 13h2M8 14h1M25 14h2M28 14h1M30 14h2M8 15h1M25 15h2M28 15h1M30 15h2M8 16h1M25 16h2M28 16h1M30 16h2M8 17h1M25 17h2M28 17h1M30 17h3M25 18h1M27 18h2M30 18h3M25 19h1M27 19h2M30 19h3M25 20h1M27 20h1M29 20h2M32 20h1M25 21h1M27 21h1M29 21h2M32 21h1M25 22h1M27 22h1M29 22h2M32 22h1M34 22h1M25 23h1M27 23h1M29 23h2M32 23h1M34 23h1M10 24h1M25 24h1M27 24h1M29 24h4M34 24h1M10 25h1M13 25h1M25 25h1M27 25h1M29 25h2M32 25h1M34 25h1M10 26h2M13 26h1M25 26h1M27 26h1M29 26h2M32 26h1M34 26h1M10 27h2M13 27h1M15 27h1M25 27h1M27 27h1M30 27h1M32 27h1M34 27h1M10 28h2M13 28h1M15 28h1M25 28h1M27 28h1M30 28h1M32 28h3M11 29h1M13 29h1M15 29h1M25 29h1M27 29h1M30 29h1M32 29h1M34 29h1M25 30h1M27 30h1M30 30h1M32 30h1M25 31h1M30 31h1M32 31h1" />
<path stroke="#d814e6" d="M25 2h1M27 3h2M29 4h1M31 6h1M9 24h1M31 29h1M31 30h1M33 30h1M31 31h1" />
<path stroke="#cf14e6" d="M16 3h1M16 4h1M15 5h2M12 6h1M14 6h3M11 7h2M14 7h3M8 8h1M10 8h4M16 8h1M8 9h1M10 9h1M8 10h1M8 11h1M27 11h1M27 12h1M32 12h2M7 13h1M9 13h2M27 13h1M32 13h1M7 14h1M24 14h1M27 14h1M32 14h1M7 15h1M24 15h1M27 15h1M29 15h1M32 15h1M7 16h1M24 16h1M27 16h1M29 16h1M32 16h1M7 17h1M24 17h1M27 17h1M24 18h1M26 18h1M24 19h1M26 19h1M33 19h1M24 20h1M26 20h1M31 20h1M33 20h1M24 21h1M26 21h1M31 21h1M33 21h1M24 22h1M26 22h1M31 22h1M33 22h1M24 23h1M26 23h1M31 23h1M33 23h1M24 24h1M26 24h1M33 24h1M8 25h1M24 25h1M26 25h1M33 25h1M8 26h1M24 26h1M26 26h1M33 26h1M8 27h1M24 27h1M26 27h1M33 27h1M8 28h1M26 28h1M8 29h1M26 29h1M24 30h1M26 30h1M28 30h2M24 31h1M27 31h3" />
<path stroke="#0f7c00" d="M1 6h1M1 10h1M1 16h1M1 20h1M1 29h1M1 33h1M29 33h1" />
<path stroke="#042800" d="M2 6h1M6 6h1M33 6h1M37 6h1M2 10h1M2 16h1M37 16h1M2 20h1M2 29h1M37 29h1M9 32h1M2 33h1M30 33h1" />
<path stroke="#0f7800" d="M7 6h1M2 7h1M6 7h1M37 7h1M6 9h1M2 17h1M37 17h1M2 30h1M37 30h1M2 32h1M5 32h1M37 32h1" />
<path stroke="#0c7800" d="M34 6h1" />
<path stroke="#15bd00" d="M35 6h1M35 33h1" />
<path stroke="#0d7800" d="M36 6h1M36 10h1M36 16h1M36 20h1M36 33h1" />
<path stroke="#1de800" d="M0 7h1M0 9h1M0 17h1M0 19h1M0 30h1M0 32h1" />
<path stroke="#149f00" d="M1 7h1M1 9h1M1 17h1M1 19h1M1 32h1" />
<path stroke="#0f7500" d="M3 7h3M38 7h2M3 17h1M38 17h2M3 30h1M38 30h2M3 32h2M38 32h2" />
<path stroke="#139d00" d="M7 7h1M34 7h1M36 7h1M36 9h1M36 17h1M36 19h1M36 32h1" />
<path stroke="#0f00ff" d="M32 7h1M34 10h1M33 14h1M33 15h1M33 16h1M33 17h1M33 18h1M7 23h1M7 24h1M7 25h1M7 26h1M7 27h1M7 28h1M7 29h1M7 30h1" />
<path stroke="#18cc00" d="M35 7h1M35 9h1M35 32h1" />
<path stroke="#1ef200" d="M0 8h1M0 18h1M0 31h1" />
<path stroke="#1acd00" d="M1 8h1M1 18h1M1 31h1M36 31h1" />
<path stroke="#18bd00" d="M2 8h1M6 8h1M37 8h1M2 18h1M37 18h1M2 31h1M37 31h1" />
<path stroke="#18bc00" d="M3 8h3M38 8h2M3 18h2M38 18h2M3 31h2M38 31h2" />
<path stroke="#cb14e6" d="M32 8h2M32 9h2M33 10h1M33 11h1M7 12h2M33 13h2M34 14h1M34 15h1M34 16h1M34 17h1M34 18h1M34 19h1M34 20h1M34 21h1M26 31h1M26 32h1" />
<path stroke="#1ce300" d="M35 8h1" />
<path stroke="#19cc00" d="M36 8h1M36 18h1" />
<path stroke="#0e7700" d="M2 9h1M37 9h1M2 19h1M37 19h1M9 31h1" />
<path stroke="#ffffff" d="M14 9h4M11 10h11M11 11h2M15 11h3M21 11h2M11 12h1M13 12h2M16 12h1M18 12h3M22 12h1M12 13h1M16 13h1M22 13h1M12 14h1M14 14h1M16 14h1M19 14h1M22 14h1M12 15h1M16 15h1M22 15h1M12 16h1M16 16h1M22 16h1" />
<path stroke="#031a00" d="M4 10h1M39 10h1M4 20h1M39 20h1M4 33h1M39 33h1" />
<path stroke="#031f00" d="M5 10h1M5 15h1M4 16h1M5 28h1M4 29h1" />
<path stroke="#084400" d="M6 10h1" />
<path stroke="#042700" d="M37 10h1M5 20h1M37 20h1M13 32h1M5 33h1M33 33h1M37 33h1" />
<path stroke="#031800" d="M5 11h1" />
<path stroke="#1300ff" d="M34 11h1" />
<path stroke="#1600ff" d="M34 12h1M10 23h1M13 24h1M17 29h1M11 30h1M13 30h1M25 32h1M32 32h1" />
<path stroke="#1ddb03" d="M13 13h2M18 13h3M13 14h1M18 14h1M13 15h1M18 15h1M13 16h1M18 16h1M13 17h1M18 17h1M18 18h1" />
<path stroke="#dc14e6" d="M10 14h1" />
<path stroke="#000300" d="M4 15h1M4 28h1M10 36h1" />
<path stroke="#084300" d="M5 16h1M5 29h1" />
<path stroke="#ff8a00" d="M10 16h1M10 17h2M16 18h1M22 18h1M8 19h8M21 19h2M7 20h2M13 20h10M7 21h1M9 21h4M17 21h6M8 22h2M13 22h1M14 23h1M15 24h1M16 25h1M16 26h1M22 26h1M17 27h1M21 27h1M18 28h3" />
<path stroke="#0f7700" d="M4 17h1M4 30h1" />
<path stroke="#129400" d="M5 17h1M5 30h1" />
<path stroke="#19c400" d="M5 18h1M5 31h1" />
<path stroke="#1edb03" d="M19 18h1" />
<path stroke="#0e7800" d="M5 19h1M6 33h1M14 33h1M14 34h1" />
<path stroke="#ff0000" d="M15 22h2M16 23h3M22 23h1M17 24h1M21 24h2M20 25h2M18 26h3" />
<path stroke="#fc809a" d="M19 23h3M18 24h3M18 25h2" />
<path stroke="#14a000" d="M1 30h1M36 30h1" />
<path stroke="#e2d90b" d="M19 30h1M21 30h2M18 31h1M17 32h2M17 33h1M16 34h1M15 35h1M15 36h1M13 37h1M15 37h1M13 38h1M15 38h1M13 39h1M15 39h1" />
<path stroke="#1bdd00" d="M6 31h1M15 33h1" />
<path stroke="#149e00" d="M14 31h1" />
<path stroke="#1ce400" d="M15 31h1" />
<path stroke="#1ce500" d="M16 31h1" />
<path stroke="#fff600" d="M20 31h3M19 32h1M21 32h3M18 33h1M20 33h5M17 34h3M21 34h6M16 35h3M20 35h9M16 36h4M21 36h8M30 36h2M16 37h3M20 37h8M29 37h2M32 37h1M16 38h4M21 38h7M29 38h3M16 39h3M20 39h7M28 39h3M32 39h1" />
<path stroke="#139e00" d="M6 32h1" />
<path stroke="#18c600" d="M7 32h1" />
<path stroke="#0e7b00" d="M14 32h1" />
<path stroke="#1cde00" d="M15 32h1" />
<path stroke="#17be00" d="M7 33h1" />
<path stroke="#0e7500" d="M8 33h1M8 34h1M8 35h1M8 36h1M8 37h1M8 38h1M8 39h1" />
<path stroke="#1bdf00" d="M27 33h2" />
<path stroke="#0c7700" d="M34 33h1" />
<path stroke="#17bd00" d="M7 34h1M7 35h1M7 36h1M7 37h1M7 38h1M7 39h1" />
<path stroke="#021500" d="M12 36h1" />
<path stroke="#063700" d="M11 37h1" />
<path stroke="#0b6700" d="M11 38h1" />
<path stroke="#0c7500" d="M11 39h1" />
</svg>