<svg xmlns="http://www.w3.org/2000/svg" viewBox="0 -0.5 40 40" shape-rendering="crispEdges">
<metadata>Made with Pixels to Svg https://codepen.io/shshaw/pen/XbxvNj</metadata>
<path stroke="#8f00ff" d="M0 0h11M33 0h7M0 1h5M6 1h2M34 1h6M0 2h5M6 2h1M34 2h6M0 3h5M35 3h5M0 4h4M35 4h5M0 5h3M36 5h4M0 6h3M37 6h3M37 7h3M0 8h2M38 8h2M0 9h1M38 9h2M39 10h1M0 11h1M39 11h1M39 12h1M39 13h1M39 14h1M39 15h1M39 16h1M39 17h1M39 18h1M39 19h1M39 20h1M39 21h1M39 22h1M39 23h1M39 24h1M0 25h1M0 26h1M0 27h1M0 31h1M0 32h1M0 33h3M0 34h6M0 35h8M0 36h9M0 37h10M0 38h11M0 39h12" />
<path stroke="#000000" d="M11 0h4M10 1h1M16 1h1M18 1h1M21 1h1M23 1h1M9 2h1M19 2h3M23 2h1M8 3h1M27 3h2M7 4h1M16 5h2M22 5h1M16 6h3M21 6h3M8 7h2M12 7h13M34 7h1M9 8h4M24 8h2M34 8h1M11 9h1M18 9h2M25 9h2M10 10h1M17 10h1M26 10h1M10 11h1M13 11h2M18 11h3M26 11h3M10 12h1M12 12h1M15 12h1M17 12h1M21 12h1M27 12h1M11 13h1M15 13h1M17 13h1M21 13h1M27 13h1M11 14h1M15 14h1M17 14h1M20 14h2M28 14h1M10 15h2M14 15h2M17 15h1M19 15h3M28 15h1M9 16h1M11 16h1M14 16h2M17 16h1M19 16h3M23 16h4M28 16h1M9 17h1M12 17h1M14 17h4M19 17h4M27 17h2M8 18h8M17 18h1M20 18h2M24 18h2M28 18h1M7 19h1M16 19h5M26 19h1M29 19h1M6 20h1M9 20h4M25 20h1M27 20h1M29 20h1M6 21h1M8 21h1M13 21h4M24 21h1M29 21h1M7 22h1M10 22h3M14 22h1M17 22h8M27 22h2M8 23h2M12 23h2M15 23h2M22 23h2M26 23h1M14 24h1M21 24h1M23 24h1M25 24h1M14 25h1M20 25h1M22 25h1M24 25h1M13 26h1M19 26h1M21 26h1M23 26h1M13 27h1M18 27h3M22 27h1M12 28h1M18 28h1M21 28h2M12 29h1M18 29h2M22 29h1M13 30h1M17 30h2M22 30h2M14 31h5M23 31h2M16 32h1M19 32h1M22 32h1M25 32h1M16 33h1M20 33h1M22 33h1M26 33h1M15 34h1M19 34h1M23 34h1M27 34h3M14 35h2M20 35h1M22 35h1M26 35h1M30 35h2M13 36h1M16 36h1M19 36h1M23 36h1M25 36h2M31 36h2M12 37h1M17 37h2M24 37h1M32 37h1M12 38h1M16 38h1M28 38h1M33 38h1M12 39h1M15 39h2M28 39h2M33 39h1" />
<path stroke="#8e00ff" d="M15 0h2M28 0h1M32 0h1M8 1h2M7 2h1M6 3h1M34 3h1M4 4h1M34 4h1M3 5h1M35 5h1M3 6h1M36 6h1M0 7h3M36 7h1M2 8h1M37 8h1M1 9h1M0 10h1M1 11h1M0 12h1M0 13h1M38 13h1M0 14h1M38 14h1M38 15h1M0 16h1M38 16h1M38 17h1M0 18h1M38 18h1M38 20h1M38 21h1M38 22h1M38 23h1M0 24h1M38 24h1M1 25h1M39 25h1M1 26h1M39 26h1M39 27h1M39 28h1M38 29h2M38 30h2M37 31h3M36 32h4M35 33h5M34 34h6M32 35h8M33 36h7M10 37h1M33 37h7M11 38h1M34 38h6M34 39h6" />
<path stroke="#8d00ff" d="M17 0h1M8 2h1M32 2h1M33 5h2M35 6h1M36 8h1M1 10h1M0 15h1M0 17h1M0 19h1M0 23h1M38 26h1M38 27h1M38 28h1M37 30h1M36 31h1M35 32h1M34 33h1M32 34h2" />
<path stroke="#8c00ff" d="M18 0h1M29 0h1M31 0h1M31 2h1M7 3h1M32 3h1M6 4h1M4 5h1M4 6h1M34 6h1M3 7h1M35 7h1M3 8h1M35 8h1M2 9h1M2 10h1M2 11h1M1 12h1M1 13h1M1 14h1M37 14h1M1 15h1M37 15h1M1 16h1M37 16h1M1 17h1M37 17h1M1 18h1M37 18h1M1 19h1M37 19h1M0 20h1M37 20h1M37 21h1M0 22h1M37 22h1M1 23h1M37 23h1M1 24h1M2 25h1M38 25h1M2 26h1M37 27h1M37 28h1M37 29h1M36 30h1M35 31h1M34 32h1M32 33h2M31 34h1M10 36h1M11 37h1" />
<path stroke="#8b00ff" d="M19 0h1M30 0h1M4 7h1M36 15h1M36 16h1M36 17h1M36 19h1M1 20h1M36 20h1M0 21h2M36 21h1M1 22h1M36 22h1M36 28h1M35 29h2M35 30h1M34 31h1M32 32h2M31 33h1M30 34h1" />
<path stroke="#8b02ff" d="M20 0h1M34 30h1" />
<path stroke="#8c09ff" d="M21 0h1" />
<path stroke="#8d11ff" d="M22 0h1M25 0h1" />
<path stroke="#8d14ff" d="M23 0h2M19 1h1" />
<path stroke="#8d09ff" d="M26 0h1" />
<path stroke="#8e02ff" d="M27 0h1" />
<path stroke="#fb000b" d="M5 1h1" />
<path stroke="#ff0000" d="M11 1h5M17 1h1M22 1h1M24 1h4M29 1h5M5 2h1M11 2h1M15 2h1M17 2h1M22 2h1M24 2h2M29 2h2M33 2h1M5 3h1M11 3h1M15 3h1M17 3h2M21 3h2M24 3h3M29 3h2M33 3h1M5 4h1M11 4h1M15 4h1M18 4h1M21 4h1M24 4h2M29 4h5M5 5h5M11 5h5M18 5h4M24 5h2M29 5h2M32 5h1M6 6h2M11 6h5M19 6h2M24 6h4M29 6h2M33 6h1M30 9h3M34 9h4M29 10h7M37 10h2M29 11h8M38 11h1M29 12h10M30 13h8M31 14h6M32 15h4M34 16h2M36 18h1M38 19h1M18 23h1M30 23h3M34 23h3M17 24h1M30 24h5M36 24h2M6 25h3M16 25h1M29 25h7M37 25h1M5 26h2M8 26h2M15 26h2M29 26h9M1 27h3M5 27h3M9 27h1M15 27h1M29 27h8M0 28h8M9 28h1M14 28h1M30 28h6M0 29h10M14 29h1M31 29h4M0 30h9M32 30h2M1 31h8M1 32h7M17 32h2M23 32h2M31 32h1M3 33h5M17 33h3M21 33h1M23 33h3M6 34h2M16 34h3M20 34h3M24 34h3M8 35h1M16 35h4M21 35h1M23 35h3M17 36h2M24 36h1" />
<path stroke="#8d16ff" d="M20 1h1" />
<path stroke="#8e09ff" d="M28 1h1" />
<path stroke="#0667f9" d="M10 2h1M12 2h3M16 2h1M18 2h1M9 3h2M12 3h3M16 3h1M19 3h2M23 3h1M8 4h3M12 4h3M16 4h2M19 4h2M22 4h2M26 4h3M10 5h1M23 5h1M26 5h3M31 5h1M10 6h1M28 6h1M31 6h2M10 7h2M25 7h9M26 8h8M27 9h3M33 9h1M27 10h2" />
<path stroke="#b06aff" d="M26 2h1" />
<path stroke="#a14dff" d="M27 2h1" />
<path stroke="#952bff" d="M28 2h1" />
<path stroke="#8c02ff" d="M31 3h1" />
<path stroke="#fc0007" d="M5 6h1" />
<path stroke="#fb0104" d="M8 6h1" />
<path stroke="#fe0001" d="M9 6h1" />
<path stroke="#8b01ff" d="M5 7h1M4 8h1M3 9h1M2 12h1M2 24h1M33 31h1M30 33h1M11 36h1" />
<path stroke="#8b08ff" d="M6 7h1M5 8h1M4 9h1M30 32h1M29 33h1M12 36h1" />
<path stroke="#901eff" d="M7 7h1M6 8h1M5 9h1M8 32h1M29 32h1M12 35h1" />
<path stroke="#9f42fd" d="M7 8h1" />
<path stroke="#b664fa" d="M8 8h1M7 9h1M6 10h1M29 30h1M28 31h1M10 32h1" />
<path stroke="#ffffff" d="M13 8h11M12 9h6M20 9h5M11 10h6M18 10h8M36 10h1M11 11h2M15 11h3M21 11h5M37 11h1M11 12h1M16 12h1M22 12h5M16 13h1M22 13h5M14 14h1M16 14h1M19 14h1M22 14h6M16 15h1M22 15h6M16 16h1M22 16h1M27 16h1M35 24h1M36 25h1M7 26h1M8 27h1M8 28h1M20 29h2M19 30h3M19 31h4M20 32h2M11 34h1M27 35h3M14 36h2M20 36h3M27 36h4M13 37h4M19 37h5M25 37h7M13 38h3M17 38h11M29 38h4M13 39h2M17 39h11M30 39h3" />
<path stroke="#9f42fe" d="M6 9h1M29 31h1M28 32h1" />
<path stroke="#c275f8" d="M8 9h1M7 10h1M5 14h1M5 22h1" />
<path stroke="#c579f7" d="M9 9h2M8 10h2M7 11h3M7 12h3M7 13h2M29 13h1M6 14h3M29 14h1M6 15h2M29 15h2M6 16h1M30 16h1M6 17h1M30 17h2M31 18h1M6 22h1M7 23h1M11 23h1M7 24h2M11 25h1M11 26h1M10 27h1M23 27h1M28 27h1M10 28h1M23 28h1M27 28h3M10 29h2M23 29h1M26 29h3M10 30h3M26 30h2M12 31h1M25 31h1" />
<path stroke="#8b06ff" d="M3 10h1M2 13h1M2 23h1M3 26h1M32 31h1" />
<path stroke="#8f1cff" d="M4 10h1M3 23h1M4 26h1M28 33h1" />
<path stroke="#9f41fe" d="M5 10h1M9 32h1M13 35h1" />
<path stroke="#8c0aff" d="M3 11h1M3 25h1" />
<path stroke="#9732fe" d="M4 11h1M3 14h1M3 22h1M4 25h1" />
<path stroke="#b360fa" d="M5 11h1M4 14h1M4 22h1M5 25h1" />
<path stroke="#c274f8" d="M6 11h1M9 30h1M28 30h1M10 31h1M27 31h1" />
<path stroke="#8c0dff" d="M3 12h1M2 15h1M2 16h1M2 17h1M2 18h1M35 18h1M2 19h1M35 19h1M2 20h1M35 20h1M2 21h1M35 21h1M35 22h1M3 24h1M31 31h1" />
<path stroke="#9a39fe" d="M4 12h1M34 18h1M4 24h1" />
<path stroke="#b969fa" d="M5 12h1M4 15h1M4 21h1M5 24h1" />
<path stroke="#c478f8" d="M6 12h1M5 15h1M5 21h1M6 24h1" />
<path stroke="#f9a3ba" d="M13 12h1M19 12h1M13 13h1M19 13h1" />
<path stroke="#fc809d" d="M14 12h1M18 12h1M20 12h1M12 13h1M14 13h1M18 13h1M20 13h1M17 23h1M20 23h1M16 24h1M18 24h3M15 25h1M17 25h2M14 26h1M17 26h2M14 27h1M16 27h2M13 28h1M15 28h3M15 29h3M14 30h3" />
<path stroke="#c77df8" d="M28 12h1M10 13h1" />
<path stroke="#8f1dff" d="M3 13h1" />
<path stroke="#a247fd" d="M4 13h1" />
<path stroke="#bc6df9" d="M5 13h1M5 23h1" />
<path stroke="#c578f7" d="M6 13h1M30 14h1M5 16h1M5 17h1M5 18h1M32 18h1M5 19h1M32 19h1M5 20h1M32 20h1M32 21h1M32 22h1M6 23h1" />
<path stroke="#c679f7" d="M9 13h1M7 16h1M11 24h1M12 26h1" />
<path stroke="#c981f8" d="M28 13h1M12 24h1M13 25h1" />
<path stroke="#8c0bff" d="M2 14h1M35 17h1M2 22h1M11 35h1" />
<path stroke="#c77df7" d="M9 14h1M7 17h1" />
<path stroke="#ce8dfa" d="M10 14h1M13 24h1M14 33h1" />
<path stroke="#c3d9f9" d="M12 14h2M18 14h1M12 15h2M18 15h1M12 16h2M18 16h1M13 17h1M18 17h1M18 18h2" />
<path stroke="#9a38fe" d="M3 15h1M3 16h1M3 17h1M3 18h1M3 19h1M3 20h1M3 21h1" />
<path stroke="#c67af7" d="M8 15h1M8 16h1M6 18h1M6 19h1M13 31h1" />
<path stroke="#cb86f8" d="M9 15h1" />
<path stroke="#c67ef8" d="M31 15h1" />
<path stroke="#ba69fa" d="M4 16h1M4 17h1M4 18h1M4 19h1M4 20h1" />
<path stroke="#ff8a00" d="M10 16h1M10 17h2M23 17h4M16 18h1M22 18h2M26 18h2M8 19h8M21 19h5M27 19h2M7 20h2M13 20h12M26 20h1M28 20h1M7 21h1M9 21h4M17 21h7M25 21h4M8 22h2M13 22h1M25 22h2M14 23h1M24 23h2M15 24h1M24 24h1M23 25h1M22 26h1M21 27h1M19 28h2" />
<path stroke="#c579f6" d="M29 16h1M29 17h1M29 18h2M30 19h2M30 20h2M30 21h2M29 22h3M10 23h1M27 23h3M9 24h2M26 24h4M9 25h2M25 25h4M10 26h1M24 26h5M11 27h2M24 27h4M11 28h1M24 28h3M24 29h2M24 30h2" />
<path stroke="#c67bf7" d="M31 16h1" />
<path stroke="#c076fa" d="M32 16h1" />
<path stroke="#a44cfd" d="M33 16h1" />
<path stroke="#ca83f8" d="M8 17h1" />
<path stroke="#c376f8" d="M32 17h1" />
<path stroke="#b461fa" d="M33 17h1" />
<path stroke="#9733fe" d="M34 17h1" />
<path stroke="#ca84f8" d="M7 18h1" />
<path stroke="#ba6af9" d="M33 18h1M33 19h1M33 20h1M33 21h1M33 22h1M33 23h1" />
<path stroke="#9a39fd" d="M34 19h1M34 20h1M34 21h1M34 22h1" />
<path stroke="#b50606" d="M15 22h2M22 24h1M21 25h1M20 26h1" />
<path stroke="#a246fd" d="M4 23h1M30 30h1M12 34h1" />
<path stroke="#fc809f" d="M19 23h1M13 29h1" />
<path stroke="#fc809a" d="M21 23h1M19 25h1" />
<path stroke="#c77cf7" d="M12 25h1" />
<path stroke="#8c0cff" d="M4 27h1" />
<path stroke="#c375f8" d="M29 29h1" />
<path stroke="#bc6cf9" d="M30 29h1M12 33h1" />
<path stroke="#9734ff" d="M31 30h1" />
<path stroke="#b563fa" d="M9 31h1" />
<path stroke="#c579f8" d="M11 31h1" />
<path stroke="#c578f8" d="M26 31h1" />
<path stroke="#901fff" d="M30 31h1" />
<path stroke="#dfedff" d="M11 32h2M10 33h2M10 34h1M13 34h1M9 36h1" />
<path stroke="#c77cf8" d="M13 32h1" />
<path stroke="#cb85f9" d="M14 32h1M15 33h1" />
<path stroke="#cf8ffa" d="M15 32h1" />
<path stroke="#bd6df9" d="M26 32h1" />
<path stroke="#b461fb" d="M27 32h1" />
<path stroke="#8c08ff" d="M8 33h1M9 34h1" />
<path stroke="#901cff" d="M9 33h1" />
<path stroke="#c67df9" d="M13 33h1M14 34h1" />
<path stroke="#9733ff" d="M27 33h1" />
<path stroke="#8c01ff" d="M8 34h1M9 35h1" />
<path stroke="#8c06ff" d="M10 35h1" />
</svg>