<svg xmlns="http://www.w3.org/2000/svg" viewBox="0 -0.5 40 40" shape-rendering="crispEdges">
<metadata>Made with Pixels to Svg https://codepen.io/shshaw/pen/XbxvNj</metadata>
<path stroke="#df0000" d="M0 0h5M10 0h7M22 0h4M31 0h6M0 1h5M10 1h7M22 1h4M31 1h6M0 2h5M10 2h6M23 2h3M31 2h6M0 3h5M10 3h5M24 3h2M31 3h6M0 4h5M10 4h1M12 4h3M24 4h2M34 4h3M0 5h4M10 5h2M13 5h2M24 5h2M36 5h1M0 6h3M11 6h2M0 7h3M12 7h1M0 8h3M0 9h3M0 10h3M0 11h3M0 12h4M0 13h5M0 14h5M36 14h1M0 15h5M35 15h2M0 16h5M35 16h2M0 17h5M35 17h2M0 18h5M36 18h1M0 19h5M36 19h1M0 20h5M36 20h1M0 21h5M36 21h1M0 22h5M36 22h1M0 23h5M35 23h2M0 24h5M35 24h2M0 25h5M10 25h1M25 25h1M33 25h4M0 26h5M10 26h2M14 26h1M24 26h2M31 26h6M0 27h5M10 27h6M23 27h3M31 27h6M0 28h5M10 28h7M24 28h2M31 28h6M0 29h5M10 29h6M25 29h1M31 29h6M0 30h5M10 30h5M31 30h6M0 31h5M10 31h4M31 31h6M0 32h5M10 32h2M31 32h6M0 33h5M10 33h1M32 33h5M0 34h5M33 34h4M0 35h5M32 35h5M0 36h5M10 36h1M33 36h4M0 37h5M10 37h1M33 37h4M0 38h5M10 38h1M34 38h3M0 39h5M34 39h3" />
<path stroke="#ffffff" d="M5 0h5M17 0h5M26 0h5M37 0h3M5 1h5M26 1h5M37 1h3M5 2h5M26 2h5M37 2h3M5 3h5M26 3h5M37 3h3M9 4h1M26 4h1M28 4h3M37 4h3M5 5h4M27 5h2M31 5h4M37 5h3M4 6h5M26 6h2M29 6h7M37 6h3M4 7h6M26 7h1M28 7h8M37 7h3M4 8h1M6 8h6M16 8h9M28 8h4M34 8h3M38 8h2M4 9h1M7 9h4M14 9h4M22 9h4M27 9h4M35 9h2M38 9h2M4 10h1M8 10h2M11 10h11M23 10h3M27 10h3M36 10h1M38 10h2M4 11h2M8 11h2M11 11h2M15 11h3M21 11h8M32 11h5M38 11h2M6 12h1M9 12h1M11 12h1M16 12h1M22 12h7M32 12h4M37 12h3M5 13h1M16 13h1M22 13h6M31 13h5M37 13h3M5 14h2M8 14h1M13 14h1M16 14h1M19 14h1M22 14h6M32 14h3M37 14h3M5 15h2M8 15h1M16 15h1M22 15h7M30 15h2M33 15h1M37 15h3M5 16h3M14 16h1M16 16h1M20 16h1M22 16h1M27 16h5M33 16h1M37 16h3M5 17h4M29 17h3M33 17h1M37 17h3M5 18h3M29 18h1M33 18h2M37 18h3M5 19h2M32 19h3M37 19h3M5 20h1M32 20h3M37 20h3M5 21h1M30 21h2M33 21h2M37 21h3M5 22h2M30 22h5M37 22h3M5 23h3M17 23h2M20 23h2M27 23h1M30 23h4M37 23h3M5 24h5M11 24h1M17 24h2M20 24h2M26 24h3M31 24h2M37 24h3M5 25h5M12 25h2M26 25h5M37 25h3M5 26h5M26 26h5M37 26h3M5 27h5M26 27h5M37 27h3M5 28h5M26 28h5M37 28h3M5 29h5M21 29h1M26 29h5M37 29h3M5 30h5M21 30h1M26 30h5M37 30h3M5 31h5M18 31h1M22 31h2M28 31h3M37 31h3M5 32h5M17 32h2M22 32h3M30 32h1M37 32h3M5 33h5M19 33h1M21 33h1M23 33h1M37 33h3M5 34h5M22 34h1M37 34h3M5 35h4M22 35h1M37 35h3M5 36h5M22 36h1M37 36h3M5 37h5M37 37h3M5 38h5M37 38h3M5 39h5M37 39h3" />
<path stroke="#07b435" d="M17 1h1" />
<path stroke="#07c137" d="M18 1h1M11 4h1M12 5h1" />
<path stroke="#07d63f" d="M19 1h1M18 2h2M17 3h2" />
<path stroke="#07d640" d="M20 1h1M20 2h2M19 3h1" />
<path stroke="#07d641" d="M21 1h1M22 2h1M20 3h4M27 4h1M26 5h1M16 6h10M16 29h2M16 30h1M25 35h1M27 35h1M16 38h1" />
<path stroke="#07b436" d="M16 2h1M15 3h1M23 28h1M17 30h2M23 30h2M17 38h1M16 39h2M23 39h2" />
<path stroke="#07c139" d="M17 2h1M16 3h1M13 6h3" />
<path stroke="#000000" d="M5 4h4M31 4h3M4 5h1M9 5h1M29 5h2M35 5h1M3 6h1M9 6h2M28 6h1M36 6h1M3 7h1M10 7h2M13 7h1M25 7h1M27 7h1M36 7h1M3 8h1M5 8h1M12 8h1M26 8h2M32 8h2M37 8h1M3 9h1M5 9h2M11 9h3M18 9h4M26 9h1M31 9h1M34 9h1M37 9h1M3 10h1M6 10h2M10 10h1M22 10h1M26 10h1M30 10h1M35 10h1M37 10h1M3 11h1M7 11h1M10 11h1M13 11h2M18 11h3M29 11h1M37 11h1M4 12h2M8 12h1M10 12h1M12 12h1M15 12h1M17 12h1M21 12h1M29 12h1M36 12h1M6 13h1M8 13h1M11 13h1M15 13h1M17 13h1M21 13h1M28 13h1M36 13h1M7 14h1M9 14h1M11 14h1M14 14h2M17 14h1M20 14h2M28 14h1M30 14h2M35 14h1M7 15h1M9 15h3M13 15h3M17 15h1M19 15h3M29 15h1M32 15h1M34 15h1M8 16h2M11 16h1M13 16h1M15 16h1M17 16h1M19 16h1M21 16h1M23 16h4M32 16h1M34 16h1M9 17h1M11 17h1M15 17h3M21 17h2M27 17h2M32 17h1M34 17h1M8 18h8M17 18h1M20 18h2M24 18h2M28 18h1M30 18h2M35 18h1M7 19h1M16 19h5M26 19h1M29 19h2M35 19h1M6 20h1M9 20h4M25 20h1M27 20h1M29 20h3M35 20h1M6 21h1M8 21h1M13 21h4M24 21h1M29 21h1M32 21h1M35 21h1M7 22h1M10 22h3M14 22h1M17 22h8M27 22h3M35 22h1M8 23h3M12 23h2M15 23h1M23 23h1M26 23h1M28 23h2M34 23h1M10 24h1M14 24h1M16 24h1M23 24h1M25 24h1M29 24h2M33 24h2M11 25h1M14 25h2M17 25h1M22 25h1M24 25h1M31 25h2M12 26h2M15 26h1M17 26h1M21 26h1M23 26h1M16 27h1M18 27h3M22 27h1M17 28h1M21 28h2M18 29h3M22 29h1M22 30h1M18 33h1M22 33h1M31 35h1M32 36h1M11 37h1M32 37h1M11 38h1M33 38h1M10 39h1M33 39h1" />
<path stroke="#da51c6" d="M15 4h2M15 5h2" />
<path stroke="#fe7cea" d="M17 4h2M17 5h2" />
<path stroke="#f261d9" d="M19 4h5" />
<path stroke="#f261dc" d="M19 5h5" />
<path stroke="#ebe6e6" d="M14 7h11M32 9h1M31 10h1M6 11h1M30 11h1M7 12h1M30 12h1M7 13h1M29 13h2M29 14h1M32 18h1M31 19h1M11 23h1M12 24h2" />
<path stroke="#f6f5f5" d="M13 8h3M25 8h1M33 9h1M5 10h1M32 10h3M31 11h1M31 12h1M9 13h2M10 14h1M19 30h2" />
<path stroke="#acd6ff" d="M13 12h2M18 12h3M12 13h3M18 13h3M12 14h1M18 14h1M12 15h1M18 15h1M12 16h1M18 16h1M12 17h3M18 17h3M18 18h2" />
<path stroke="#ff8a00" d="M10 16h1M10 17h1M23 17h4M16 18h1M22 18h2M26 18h2M8 19h8M21 19h5M27 19h2M7 20h2M13 20h12M26 20h1M28 20h1M7 21h1M9 21h4M17 21h7M25 21h4M8 22h2M13 22h1M25 22h2M14 23h1M24 23h2M15 24h1M24 24h1M16 25h1M23 25h1M16 26h1M22 26h1M17 27h1M21 27h1M18 28h3" />
<path stroke="#ff0000" d="M15 22h2M16 23h1M22 23h1M22 24h1M20 25h2M18 26h3" />
<path stroke="#fc809a" d="M19 23h1M19 24h1M18 25h2" />
<path stroke="#07b437" d="M23 29h1M17 31h1M24 31h1M16 32h1M25 32h1M17 33h1M24 33h1M18 34h1M23 34h1M31 34h2M9 35h2M18 35h1M23 35h1M29 35h2M11 36h3M18 36h1M23 36h1M28 36h1M14 37h1M17 37h1M23 37h1M27 37h1M15 38h1M23 38h1M26 38h1M25 39h1" />
<path stroke="#07d643" d="M24 29h1M15 30h1M25 30h1M14 31h3M25 31h3M12 32h4M26 32h4M11 33h6M25 33h7M10 34h8M24 34h1M26 34h1M28 34h3M11 35h7M24 35h1M28 35h1M14 36h4M24 36h1M26 36h1M15 37h2M24 37h3M24 38h2" />
<path stroke="#98fdf8" d="M19 31h1M21 32h1M19 34h1M20 36h1M22 37h1M18 38h1M20 38h1M22 39h1" />
<path stroke="#ff9b9b" d="M20 31h2M19 32h2M20 33h1M20 34h2M19 35h2M19 36h1M21 36h1M18 37h4M19 38h1M21 38h2M18 39h4" />
<path stroke="#f7b705" d="M25 34h1M27 34h1M25 36h1M27 36h1" />
<path stroke="#98fdf7" d="M21 35h1" />
<path stroke="#fffc00" d="M26 35h1" />
<path stroke="#b3c209" d="M29 36h3M12 37h2M28 37h1M14 38h1M27 38h1M15 39h1M26 39h1" />
<path stroke="#c4d607" d="M29 37h3M12 38h2M28 38h5M13 39h2M27 39h6" />
<path stroke="#c5d607" d="M11 39h2" />
</svg>