<svg xmlns="http://www.w3.org/2000/svg" viewBox="0 -0.5 40 40" shape-rendering="crispEdges">
<metadata>Made with Pixels to Svg https://codepen.io/shshaw/pen/XbxvNj</metadata>
<path stroke="#255582" d="M0 0h1M2 0h1M0 2h1M2 2h1" />
<path stroke="#516e91" d="M1 0h1" />
<path stroke="#074d7f" d="M3 0h1M22 0h1M27 0h1M29 0h1M2 3h1M9 3h2M39 17h1" />
<path stroke="#085184" d="M4 0h1M30 0h1" />
<path stroke="#000000" d="M5 0h3M4 1h1M7 1h1M14 1h7M23 1h4M4 2h1M7 2h1M13 2h1M21 2h2M27 2h2M4 3h1M6 3h1M12 3h1M23 3h2M29 3h1M4 4h1M6 4h1M11 4h1M25 4h1M30 4h1M4 5h1M6 5h1M10 5h1M26 5h1M31 5h1M2 6h3M7 6h1M9 6h1M27 6h1M32 6h1M1 7h1M5 7h1M7 7h1M9 7h1M27 7h1M32 7h1M0 8h3M6 8h2M9 8h1M12 8h7M28 8h1M33 8h1M0 9h1M2 9h3M6 9h2M9 9h1M11 9h12M28 9h1M33 9h1M0 10h1M3 10h1M6 10h1M10 10h15M29 10h1M34 10h1M1 11h1M3 11h1M7 11h1M11 11h1M13 11h7M21 11h5M29 11h1M34 11h1M2 12h1M5 12h2M8 12h1M11 12h1M14 12h5M22 12h5M30 12h1M34 12h1M0 13h1M3 13h2M8 13h1M11 13h1M15 13h3M22 13h5M30 13h1M34 13h1M1 14h3M6 14h2M11 14h1M16 14h1M22 14h6M30 14h1M33 14h1M2 15h1M5 15h1M7 15h1M10 15h2M14 15h1M16 15h1M18 15h1M22 15h6M30 15h1M33 15h1M3 16h2M7 16h1M9 16h1M11 16h1M14 16h1M16 16h1M18 16h1M22 16h6M30 16h1M32 16h1M4 17h1M7 17h1M9 17h1M12 17h1M15 17h3M21 17h2M27 17h2M30 17h2M4 18h1M8 18h8M17 18h1M20 18h2M24 18h2M28 18h1M32 18h1M4 19h1M7 19h1M16 19h5M26 19h1M32 19h1M4 20h1M6 20h1M9 20h4M25 20h1M27 20h1M32 20h1M5 21h2M8 21h1M13 21h4M24 21h1M26 21h1M32 21h1M5 22h1M7 22h1M10 22h3M14 22h1M17 22h9M28 22h1M31 22h1M33 22h1M6 23h1M8 23h3M12 23h2M15 23h1M23 23h1M29 23h2M34 23h1M7 24h1M11 24h1M14 24h1M16 24h1M22 24h1M35 24h1M7 25h1M9 25h2M15 25h1M17 25h1M21 25h1M35 25h1M8 26h2M15 26h1M17 26h1M21 26h1M32 26h3M8 27h1M16 27h1M18 27h3M22 27h1M31 27h1M8 28h1M16 28h2M21 28h2M30 28h1M9 29h1M15 29h1M18 29h3M22 29h2M29 29h1M10 30h1M15 30h1M19 30h1M22 30h1M24 30h1M28 30h1M11 31h1M14 31h1M16 31h2M19 31h1M23 31h1M25 31h1M27 31h1M12 32h1M18 32h1M24 32h1M26 32h1M13 33h1M17 33h1M25 33h1M14 34h1M16 34h1M26 34h1M15 35h1M27 35h1M15 36h1M28 36h1M15 37h1M25 37h1M29 37h1M15 38h1M24 38h1M26 38h1M30 38h1M15 39h1M24 39h1M27 39h1M31 39h1" />
<path stroke="#084f82" d="M8 0h1M24 0h2M8 1h1M29 1h1M3 2h1M0 3h1M3 3h1M8 3h1" />
<path stroke="#58568a" d="M9 0h1" />
<path stroke="#d97abb" d="M10 0h1" />
<path stroke="#fc85cb" d="M11 0h1M12 1h1M39 2h1" />
<path stroke="#ff86cc" d="M12 0h4M13 1h1M39 3h1M38 4h2M38 5h2M38 9h2M38 10h2M37 11h1M36 12h1M35 13h1M3 39h4M11 39h2M25 39h2" />
<path stroke="#f87fc5" d="M16 0h1M39 11h1" />
<path stroke="#cd589c" d="M17 0h1" />
<path stroke="#ba438a" d="M18 0h1M39 13h1" />
<path stroke="#ac4287" d="M19 0h1" />
<path stroke="#5d4a81" d="M20 0h1" />
<path stroke="#1c4c7e" d="M21 0h1" />
<path stroke="#074f81" d="M23 0h1M26 0h1M8 2h1M1 3h1" />
<path stroke="#074d7e" d="M28 0h1M9 2h1" />
<path stroke="#fee15d" d="M31 0h1M36 0h1M35 1h1M37 3h1M36 4h1M37 5h1M36 6h1M37 9h1M36 10h1" />
<path stroke="#fed101" d="M32 0h2M35 0h1M34 1h1M37 1h1M36 2h1M35 3h1M37 4h1M36 5h1M38 6h1M37 7h2M36 8h2M36 9h1" />
<path stroke="#dd9500" d="M34 0h1M36 1h1M35 2h1M36 3h1M35 4h1M37 6h1M36 7h1M37 10h1M36 11h1" />
<path stroke="#fed001" d="M37 0h1" />
<path stroke="#265184" d="M38 0h1" />
<path stroke="#5a568a" d="M39 0h1" />
<path stroke="#516d91" d="M0 1h1M2 1h1M1 2h1" />
<path stroke="#b0bac8" d="M1 1h1" />
<path stroke="#084f81" d="M3 1h1" />
<path stroke="#ffffff" d="M5 1h2M5 2h2M5 3h1M5 4h1M5 5h1M5 6h2M2 7h3M6 7h1M3 8h3M1 9h1M5 9h1M1 10h2M4 10h2M0 11h1M2 11h1M4 11h3M12 11h1M20 11h1M0 12h2M3 12h2M7 12h1M12 12h2M19 12h3M1 13h2M5 13h3M12 13h3M18 13h4M4 14h2M12 14h4M17 14h5M3 15h2M12 15h2M15 15h1M17 15h1M19 15h3M12 16h2M15 16h1M17 16h1M19 16h3M13 17h2M18 17h3M18 18h2" />
<path stroke="#244e80" d="M9 1h1" />
<path stroke="#785c93" d="M10 1h1" />
<path stroke="#de7bbd" d="M11 1h1" />
<path stroke="#594a81" d="M21 1h1" />
<path stroke="#1c5084" d="M22 1h1" />
<path stroke="#085185" d="M27 1h1M2 4h2M9 4h2M39 18h1" />
<path stroke="#074f82" d="M28 1h1" />
<path stroke="#d98100" d="M30 1h4M33 2h2M34 3h1M34 4h1M35 5h1M35 6h1M35 7h1M35 8h1M35 9h1M35 10h1M35 11h1" />
<path stroke="#795f96" d="M38 1h1" />
<path stroke="#db7abc" d="M39 1h1" />
<path stroke="#254e80" d="M10 2h1" />
<path stroke="#795d94" d="M11 2h1" />
<path stroke="rgba(223,124,191,0.9803921568627451)" d="M12 2h1" />
<path stroke="#009615" d="M14 2h3M18 3h1M12 4h1M23 6h1M22 7h1M30 9h1M28 10h1M30 10h1M32 10h2M32 11h2M33 12h1M33 13h1" />
<path stroke="#009616" d="M17 2h3M23 2h1M25 2h1M11 5h2M24 5h2M10 6h6M24 6h3M10 7h2M23 7h1M25 7h2M31 7h1M10 8h1M23 8h2M26 8h2M29 8h2M32 8h1M25 9h2M32 9h1M26 10h2M27 11h1M28 12h2M28 13h2M29 14h1M29 15h1M32 15h1M29 16h1M29 17h1M32 17h1M30 18h2M30 19h2M30 20h2M32 22h1M32 23h2M32 24h3M31 25h4M29 26h3M10 27h1M28 27h3M28 28h2M27 29h2M27 30h1" />
<path stroke="#00bb19" d="M20 2h1M26 2h1M19 3h2M25 3h1M18 4h3M28 4h2M17 5h3M29 5h2M16 6h3" />
<path stroke="#009618" d="M24 2h1M13 3h5M13 4h5M13 5h4M24 7h1M30 7h1M25 8h1M31 8h1M27 9h1M31 9h1M31 10h1M28 11h1M31 11h1M32 12h1M32 13h1M32 14h1M29 19h1M29 20h1M29 21h2M31 23h1M23 24h1M11 25h1M23 25h2M10 26h2M24 26h2M11 27h2M24 27h3M11 28h3M25 28h2M12 29h3M26 29h1M12 30h3" />
<path stroke="#095387" d="M29 2h1M7 3h1" />
<path stroke="#bd5305" d="M30 2h1M30 3h1M33 5h1M33 6h2M33 7h1M34 8h1" />
<path stroke="#bd5405" d="M31 2h2M31 3h3M31 4h3M34 5h1M34 7h1M34 9h1" />
<path stroke="#7a6099" d="M37 2h1" />
<path stroke="#df7bbe" d="M38 2h1" />
<path stroke="#255286" d="M11 3h1" />
<path stroke="#00bb1b" d="M21 3h2M26 3h3M21 4h4M26 4h2M20 5h4M27 5h2M19 6h4M28 6h2M19 7h3M28 7h2" />
<path stroke="#fd85cb" d="M38 3h1" />
<path stroke="#0c5a92" d="M0 4h1" />
<path stroke="#0b5890" d="M1 4h1M8 4h1" />
<path stroke="#0c5a93" d="M7 4h1M2 5h2M9 5h1" />
<path stroke="#0d5c95" d="M0 5h1M7 5h1M0 6h1M8 6h1M8 7h1M8 8h1M8 9h1M7 10h3M8 11h3M9 12h2M9 13h2M0 14h1M8 14h3M0 15h2M8 15h2M0 16h3M8 16h1M0 17h4M8 17h1M0 18h1M0 19h1M35 20h1M39 20h1M34 21h6M36 22h4M5 23h1M11 23h1" />
<path stroke="#0c5c95" d="M1 5h1M8 5h1M1 6h1M0 7h1M34 22h2M36 23h1" />
<path stroke="#a54802" d="M32 5h1" />
<path stroke="#00bb17" d="M30 6h2" />
<path stroke="rgba(255,134,202,0.8745098039215686)" d="M39 6h1" />
<path stroke="#01d821" d="M12 7h7M19 8h3M28 15h1M23 26h1M9 27h1M23 27h1M9 28h2M24 28h1M10 29h2M25 29h1M11 30h1M25 30h2M26 31h1" />
<path stroke="rgba(255,134,201,0.403921568627451)" d="M39 7h1" />
<path stroke="#01d823" d="M11 8h1M28 16h1M29 18h1M22 25h1M22 26h1M23 28h1M24 29h1" />
<path stroke="#01d820" d="M22 8h1M23 9h2M25 10h1M26 11h1M27 12h1M27 13h1M28 14h1M12 31h2" />
<path stroke="rgba(255,134,204,0.9803921568627451)" d="M38 8h1M34 14h1" />
<path stroke="rgba(255,133,203,0.8823529411764706)" d="M39 8h1" />
<path stroke="#01d824" d="M10 9h1M28 19h1M28 20h1M28 21h1M29 22h2" />
<path stroke="#028515" d="M29 9h1M30 11h1M31 12h1M31 13h1M31 14h1M31 15h1M31 16h1M27 21h1M27 22h1M28 23h1" />
<path stroke="#fe85cb" d="M38 11h1M37 12h1M36 13h1M35 14h1" />
<path stroke="#d98000" d="M35 12h1" />
<path stroke="#f27abf" d="M38 12h1M33 17h1" />
<path stroke="#cd579c" d="M39 12h1" />
<path stroke="#f179bf" d="M37 13h1M36 14h1M35 15h1" />
<path stroke="#cb569b" d="M38 13h1M34 17h1" />
<path stroke="#cb569a" d="M37 14h1M35 16h1" />
<path stroke="#b8438a" d="M38 14h1" />
<path stroke="#ac4387" d="M39 14h1" />
<path stroke="#db0000" d="M6 15h1M5 16h2M5 17h2M5 18h3M5 19h2M5 20h1M6 22h1M7 23h1M8 24h3M8 25h1M21 29h1M20 30h2M15 31h1M20 31h3M13 32h5M19 32h5M14 33h3M18 33h7M15 34h1M17 34h9M16 35h11M16 36h12M16 37h9M26 37h3M16 38h8M27 38h3M16 39h8M28 39h3" />
<path stroke="rgba(254,133,202,0.8941176470588236)" d="M34 15h1" />
<path stroke="#c9569a" d="M36 15h1" />
<path stroke="#ae4589" d="M37 15h1M36 16h1" />
<path stroke="#9f4486" d="M38 15h1" />
<path stroke="#5c4a81" d="M39 15h1" />
<path stroke="#ff8a00" d="M10 16h1M10 17h2M23 17h4M16 18h1M22 18h2M26 18h2M8 19h8M21 19h5M27 19h1M7 20h2M13 20h12M26 20h1M7 21h1M9 21h4M17 21h7M25 21h1M8 22h2M13 22h1M14 23h1M15 24h1M16 25h1M16 26h1M17 27h1M21 27h1M18 28h3" />
<path stroke="rgba(254,132,202,0.9019607843137255)" d="M33 16h1" />
<path stroke="rgba(240,120,190,0.9803921568627451)" d="M34 16h1" />
<path stroke="#604c83" d="M37 16h1" />
<path stroke="#404c80" d="M38 16h1" />
<path stroke="#1b4c7e" d="M39 16h1" />
<path stroke="#b8448a" d="M35 17h1" />
<path stroke="#a0488b" d="M36 17h1" />
<path stroke="#42558f" d="M37 17h1" />
<path stroke="#085084" d="M38 17h1" />
<path stroke="#165d97" d="M1 18h1M3 18h1M0 20h1" />
<path stroke="#2a629d" d="M2 18h1" />
<path stroke="#cb589c" d="M33 18h1" />
<path stroke="#ae478c" d="M34 18h1" />
<path stroke="#9f488b" d="M35 18h1" />
<path stroke="#605d95" d="M36 18h1" />
<path stroke="#5778a4" d="M37 18h1" />
<path stroke="#276094" d="M38 18h1" />
<path stroke="#2e629e" d="M1 19h1" />
<path stroke="#6278be" d="M2 19h1" />
<path stroke="#2e629f" d="M3 19h1" />
<path stroke="#af5597" d="M33 19h1" />
<path stroke="#5c5592" d="M34 19h1" />
<path stroke="#415893" d="M35 19h1" />
<path stroke="#5777a3" d="M36 19h1" />
<path stroke="#b4bfd1" d="M37 19h1" />
<path stroke="#5278a4" d="M38 19h1" />
<path stroke="#0c5b93" d="M39 19h1" />
<path stroke="#4069a7" d="M1 20h1" />
<path stroke="#6c7ec5" d="M2 20h1" />
<path stroke="#3264a0" d="M3 20h1" />
<path stroke="#6c609c" d="M33 20h1" />
<path stroke="#1e5b95" d="M34 20h1" />
<path stroke="#266298" d="M36 20h1" />
<path stroke="#5278a3" d="M37 20h1" />
<path stroke="#276398" d="M38 20h1" />
<path stroke="#2e639e" d="M0 21h1" />
<path stroke="#6d7ec6" d="M1 21h1" />
<path stroke="#7481cb" d="M2 21h1" />
<path stroke="#37629f" d="M3 21h1" />
<path stroke="#105c95" d="M4 21h1" />
<path stroke="#00961a" d="M31 21h1M26 22h1M24 23h4M24 24h8M25 25h6M26 26h3M27 27h1M27 28h1" />
<path stroke="#275d97" d="M33 21h1" />
<path stroke="#3265a0" d="M0 22h1M0 23h1" />
<path stroke="#7583cc" d="M1 22h1M0 25h1" />
<path stroke="#7882cb" d="M2 22h1" />
<path stroke="#485c98" d="M3 22h1" />
<path stroke="#1b5a93" d="M4 22h1" />
<path stroke="#ff0000" d="M15 22h2M16 23h3M22 23h1M17 24h1M21 24h1M20 25h1M18 26h3" />
<path stroke="#7482cb" d="M1 23h1" />
<path stroke="#737cc3" d="M2 23h1" />
<path stroke="#495894" d="M3 23h1" />
<path stroke="#1c5a93" d="M4 23h1" />
<path stroke="#fc809a" d="M19 23h3M18 24h3M18 25h2" />
<path stroke="rgba(11,92,149,0.9803921568627451)" d="M35 23h1" />
<path stroke="#276298" d="M37 23h1" />
<path stroke="#5278a5" d="M38 23h1" />
<path stroke="#27659b" d="M39 23h1" />
<path stroke="#436aa9" d="M0 24h1" />
<path stroke="#707dc5" d="M1 24h1" />
<path stroke="#565e9d" d="M2 24h1M3 29h1M4 33h1" />
<path stroke="#41508b" d="M3 24h1" />
<path stroke="#1c5b96" d="M4 24h1" />
<path stroke="#0d5e98" d="M5 24h1" />
<path stroke="#0d5c96" d="M6 24h1" />
<path stroke="#028516" d="M12 24h2M12 25h3M12 26h3M13 27h3M14 28h2" />
<path stroke="#0c5f98" d="M36 24h1" />
<path stroke="#527aa6" d="M37 24h1" />
<path stroke="#b0c0d4" d="M38 24h1" />
<path stroke="#5281b2" d="M39 24h1" />
<path stroke="#717bc2" d="M1 25h1M1 31h1" />
<path stroke="#4e5692" d="M2 25h1M7 32h1" />
<path stroke="#40508b" d="M3 25h1M4 27h1" />
<path stroke="#24629f" d="M4 25h1" />
<path stroke="#1167a4" d="M5 25h1" />
<path stroke="#0d609b" d="M6 25h1" />
<path stroke="#0e69a7" d="M36 25h1M33 27h1" />
<path stroke="#276faa" d="M37 25h1" />
<path stroke="#5182b4" d="M38 25h1" />
<path stroke="#2870ac" d="M39 25h1M36 28h1" />
<path stroke="#7982cc" d="M0 26h1M0 27h1M0 29h1" />
<path stroke="#565f9e" d="M1 26h1M1 32h1" />
<path stroke="#464e88" d="M2 26h1M3 27h1" />
<path stroke="#434d87" d="M3 26h1M4 28h1" />
<path stroke="#3b5490" d="M4 26h1" />
<path stroke="#1b67a6" d="M5 26h1" />
<path stroke="#0e69a8" d="M6 26h1" />
<path stroke="#0d67a5" d="M7 26h1" />
<path stroke="#5381b3" d="M35 26h1" />
<path stroke="#2870ad" d="M36 26h1" />
<path stroke="#0f6baa" d="M37 26h3M37 27h3M33 28h1M37 28h3M31 29h9M29 30h3" />
<path stroke="#58609f" d="M1 27h1" />
<path stroke="#4d5692" d="M2 27h1M0 31h1" />
<path stroke="#2464a2" d="M5 27h1" />
<path stroke="#196baa" d="M6 27h1" />
<path stroke="#2a6cac" d="M7 27h1" />
<path stroke="rgba(13,103,165,0.9803921568627451)" d="M32 27h1" />
<path stroke="#5381b2" d="M34 27h1" />
<path stroke="#b3c3d8" d="M35 27h1" />
<path stroke="#5383b5" d="M36 27h1" />
<path stroke="#7e87d3" d="M0 28h1" />
<path stroke="#7982cd" d="M1 28h1" />
<path stroke="#727bc3" d="M2 28h1" />
<path stroke="#4e5693" d="M3 28h1" />
<path stroke="#3e5591" d="M5 28h1" />
<path stroke="#426fb1" d="M6 28h1" />
<path stroke="#657dc3" d="M7 28h1" />
<path stroke="rgba(13,105,167,0.9803921568627451)" d="M31 28h1" />
<path stroke="#0e6baa" d="M32 28h1M30 29h1" />
<path stroke="#2770ac" d="M34 28h1" />
<path stroke="#5182b5" d="M35 28h1" />
<path stroke="#7d86d2" d="M1 29h1M3 34h1" />
<path stroke="#757fc8" d="M2 29h1" />
<path stroke="#47508b" d="M4 29h1" />
<path stroke="#525d9a" d="M5 29h1" />
<path stroke="#6c7ac0" d="M6 29h1" />
<path stroke="#7580c9" d="M7 29h1" />
<path stroke="#5462a1" d="M8 29h1" />
<path stroke="#de7cc2" d="M16 29h1" />
<path stroke="#ee79c0" d="M17 29h1" />
<path stroke="#57609f" d="M0 30h1" />
<path stroke="#757ec7" d="M1 30h1" />
<path stroke="#6b75bc" d="M2 30h1" />
<path stroke="#6f78bf" d="M3 30h1" />
<path stroke="#555d9c" d="M4 30h1M7 31h1" />
<path stroke="#666fb2" d="M5 30h1" />
<path stroke="#5b64a4" d="M6 30h1" />
<path stroke="#6d76bc" d="M7 30h1" />
<path stroke="#5460a0" d="M8 30h1" />
<path stroke="#385f9c" d="M9 30h1" />
<path stroke="#f57fc7" d="M16 30h1" />
<path stroke="#cc579e" d="M17 30h1" />
<path stroke="#ba438c" d="M18 30h1M18 31h1" />
<path stroke="#0e65a2" d="M23 30h1" />
<path stroke="#286cab" d="M32 30h1" />
<path stroke="#5b6eaf" d="M33 30h1" />
<path stroke="#636fb0" d="M34 30h3" />
<path stroke="#6370b1" d="M37 30h1M31 31h1" />
<path stroke="#6174b2" d="M38 30h1" />
<path stroke="#6175b2" d="M39 30h1" />
<path stroke="#7983cd" d="M2 31h1" />
<path stroke="#727cc3" d="M3 31h1" />
<path stroke="#4f5894" d="M4 31h1" />
<path stroke="#4c5490" d="M5 31h1" />
<path stroke="#474f8a" d="M6 31h1M4 32h1" />
<path stroke="#6d77bd" d="M8 31h1" />
<path stroke="#4f61a0" d="M9 31h1" />
<path stroke="#265a94" d="M10 31h1" />
<path stroke="#636cac" d="M24 31h1" />
<path stroke="#606cac" d="M28 31h1" />
<path stroke="#5169a9" d="M29 31h1" />
<path stroke="#606eaf" d="M30 31h1" />
<path stroke="#7f77b6" d="M32 31h1" />
<path stroke="#db85c8" d="M33 31h1" />
<path stroke="#eb88cc" d="M34 31h3" />
<path stroke="#e98acc" d="M37 31h1" />
<path stroke="#e192c9" d="M38 31h1" />
<path stroke="#e59cd0" d="M39 31h1" />
<path stroke="#48508c" d="M0 32h1" />
<path stroke="#747ec5" d="M2 32h1" />
<path stroke="#5d66a6" d="M3 32h1" />
<path stroke="#444c86" d="M5 32h2" />
<path stroke="#717ac0" d="M8 32h1" />
<path stroke="#6c76bc" d="M9 32h1" />
<path stroke="#495b99" d="M10 32h1" />
<path stroke="#3e619d" d="M11 32h1" />
<path stroke="#ec81c6" d="M25 32h1M27 32h1" />
<path stroke="#e57cc3" d="M28 32h1" />
<path stroke="#c865aa" d="M29 32h1" />
<path stroke="#e481c5" d="M30 32h1" />
<path stroke="#e98acb" d="M31 32h1" />
<path stroke="#e494ca" d="M32 32h1" />
<path stroke="#f69fd4" d="M33 32h1" />
<path stroke="#faa1d6" d="M34 32h3M27 34h2M13 36h1M29 36h6M14 37h1M36 38h1M8 39h2M32 39h3" />
<path stroke="#f49ad0" d="M37 32h1" />
<path stroke="#dc7db5" d="M38 32h1M32 33h1" />
<path stroke="#f49ed0" d="M39 32h1" />
<path stroke="#51599b" d="M0 33h1" />
<path stroke="#515998" d="M1 33h1" />
<path stroke="#7780c9" d="M2 33h1" />
<path stroke="#747dc6" d="M3 33h1M4 34h1" />
<path stroke="#464e89" d="M5 33h1" />
<path stroke="#484c86" d="M6 33h1" />
<path stroke="#5d4c88" d="M7 33h1" />
<path stroke="#665492" d="M8 33h1" />
<path stroke="#6b5897" d="M9 33h1" />
<path stroke="#7e66a9" d="M10 33h1" />
<path stroke="#9f7ec5" d="M11 33h1" />
<path stroke="#e582c8" d="M12 33h1" />
<path stroke="#ff8bce" d="M26 33h1M11 35h1M30 37h5M31 38h4M7 39h1M10 39h1" />
<path stroke="#ff8bcf" d="M27 33h1" />
<path stroke="#fe8ad0" d="M28 33h1" />
<path stroke="#f88acc" d="M29 33h1" />
<path stroke="#fa9dd4" d="M30 33h1" />
<path stroke="#f59ad0" d="M31 33h1" />
<path stroke="#f49ed1" d="M33 33h1M38 33h1M32 34h1" />
<path stroke="#f9a5d7" d="M34 33h3M34 34h4M28 35h7M38 36h2M38 37h2M37 38h3M37 39h3" />
<path stroke="#f8a4d6" d="M37 33h1M31 34h1M33 34h1" />
<path stroke="#f9a0d5" d="M39 33h1" />
<path stroke="#5a62a7" d="M0 34h1" />
<path stroke="#535b9b" d="M1 34h1" />
<path stroke="#737cc4" d="M2 34h1" />
<path stroke="#575f9e" d="M5 34h1" />
<path stroke="#675694" d="M6 34h1" />
<path stroke="#ae5194" d="M7 34h1" />
<path stroke="#b95094" d="M8 34h1" />
<path stroke="#c2599d" d="M9 34h1" />
<path stroke="#e87cc1" d="M10 34h1" />
<path stroke="#f385cc" d="M11 34h1" />
<path stroke="#fd87cd" d="M12 34h1" />
<path stroke="#ff8ad1" d="M13 34h1" />
<path stroke="#faa2d7" d="M29 34h1M36 35h1M39 35h1M35 39h1" />
<path stroke="#faa5d7" d="M30 34h1M35 35h1M37 35h2M37 37h1M36 39h1" />
<path stroke="#faa2d6" d="M38 34h1M37 36h1" />
<path stroke="#fe93d1" d="M39 34h1" />
<path stroke="#767fc9" d="M0 35h1" />
<path stroke="#5f67ac" d="M1 35h1" />
<path stroke="#5a62a3" d="M2 35h1" />
<path stroke="#727cc4" d="M3 35h1" />
<path stroke="#7c81cb" d="M4 35h1" />
<path stroke="#9081ca" d="M5 35h1" />
<path stroke="#a581c9" d="M6 35h1" />
<path stroke="#ea84c7" d="M7 35h1" />
<path stroke="#f683c6" d="M8 35h1" />
<path stroke="#f881c6" d="M9 35h1" />
<path stroke="#fe89cd" d="M10 35h1" />
<path stroke="#ff8fd0" d="M12 35h1M8 37h2M12 37h2M10 38h1M35 38h1" />
<path stroke="#fb9ed5" d="M13 35h1M12 36h1M10 37h2M9 38h1" />
<path stroke="#fb9ed6" d="M14 35h1" />
<path stroke="#7d87d2" d="M0 36h1" />
<path stroke="#727bc4" d="M1 36h1" />
<path stroke="#5960a3" d="M2 36h1" />
<path stroke="#505896" d="M3 36h1" />
<path stroke="#7761a1" d="M4 36h1" />
<path stroke="#de7fc5" d="M5 36h1" />
<path stroke="#ec84c9" d="M6 36h1" />
<path stroke="#f999d2" d="M7 36h1" />
<path stroke="#fc9ad3" d="M8 36h1" />
<path stroke="#fe8ecf" d="M9 36h1" />
<path stroke="#fb9dd5" d="M10 36h1M8 38h1M14 38h1" />
<path stroke="#fba1d6" d="M11 36h1" />
<path stroke="#faa4d7" d="M14 36h1" />
<path stroke="#fb9fd5" d="M35 36h1M36 37h1" />
<path stroke="#fd96d2" d="M36 36h1" />
<path stroke="#7b84d0" d="M0 37h1" />
<path stroke="#6c70b7" d="M1 37h1" />
<path stroke="#7964a8" d="M2 37h1" />
<path stroke="#775b99" d="M3 37h1" />
<path stroke="#9666a9" d="M4 37h1" />
<path stroke="#ea7cc1" d="M5 37h1" />
<path stroke="#df6aae" d="M6 37h1" />
<path stroke="#f986c8" d="M7 37h1" />
<path stroke="#ff8ecf" d="M35 37h1" />
<path stroke="rgba(130,134,210,0.8705882352941177)" d="M0 38h1" />
<path stroke="rgba(163,131,204,0.9803921568627451)" d="M1 38h1" />
<path stroke="#e481c8" d="M2 38h1" />
<path stroke="#ee80c5" d="M3 38h1" />
<path stroke="#f281c8" d="M4 38h1" />
<path stroke="#fc84ca" d="M5 38h1" />
<path stroke="#f980c7" d="M6 38h1" />
<path stroke="#fd89cd" d="M7 38h1" />
<path stroke="#ff8ace" d="M11 38h1M13 38h1M14 39h1" />
<path stroke="#ff87cd" d="M12 38h1M25 38h1M13 39h1" />
<path stroke="rgba(192,133,207,0.27058823529411763)" d="M0 39h1" />
<path stroke="rgba(240,134,204,0.8705882352941177)" d="M1 39h1" />
<path stroke="#fd86cc" d="M2 39h1" />
</svg>