<svg xmlns="http://www.w3.org/2000/svg" viewBox="0 -0.5 40 40" shape-rendering="crispEdges">
<metadata>Made with Pixels to Svg https://codepen.io/shshaw/pen/XbxvNj</metadata>
<path stroke="#7401b0" d="M0 0h40M0 1h40M0 2h14M25 2h15M0 3h13M25 3h15M0 4h13M26 4h14M0 5h12M27 5h13M0 6h9M28 6h12M0 7h6M32 7h8M0 8h5M34 8h6M0 9h4M35 9h5M0 10h3M35 10h5M0 11h4M34 11h6M0 12h6M32 12h8M0 13h11M28 13h12M0 14h11M29 14h11M0 15h10M29 15h11M0 16h9M29 16h11M0 17h9M29 17h11M0 18h8M29 18h11M0 19h7M30 19h10M0 20h6M30 20h10M0 21h6M30 21h10M0 22h7M29 22h11M0 23h8M10 23h2M27 23h13M0 24h14M26 24h14M0 25h15M25 25h15M0 26h15M24 26h16M0 27h16M23 27h17M0 28h17M27 28h13M0 29h15M26 29h14M0 30h16M25 30h15M0 31h17M25 31h15M0 32h16M26 32h14M0 33h16M27 33h13M0 34h15M30 34h10M0 35h14M32 35h8M0 36h13M33 36h7M0 37h12M33 37h7M0 38h12M34 38h6M0 39h11M34 39h6" />
<path stroke="#000000" d="M14 2h11M13 3h12M13 4h1M25 4h1M12 5h1M26 5h1M9 6h17M27 6h1M6 7h26M5 8h8M23 8h11M4 9h8M25 9h10M3 10h8M26 10h9M4 11h7M26 11h8M6 12h5M12 12h4M17 12h5M26 12h6M11 13h12M27 13h1M11 14h1M15 14h3M21 14h8M10 15h2M14 15h4M20 15h3M28 15h1M9 16h1M11 16h1M15 16h3M21 16h6M28 16h1M9 17h1M12 17h11M27 17h2M8 18h8M17 18h5M24 18h2M28 18h1M7 19h1M16 19h5M26 19h1M29 19h1M6 20h1M9 20h4M25 20h1M27 20h1M29 20h1M6 21h1M8 21h1M13 21h4M24 21h1M29 21h1M7 22h1M10 22h3M14 22h1M17 22h8M27 22h2M8 23h2M12 23h2M15 23h1M23 23h1M26 23h1M14 24h1M16 24h1M23 24h1M25 24h1M15 25h1M17 25h1M22 25h1M24 25h1M15 26h1M17 26h1M21 26h1M23 26h1M16 27h1M18 27h3M22 27h1M17 28h1M21 28h6M15 29h5M22 29h4M16 30h2M24 30h1M17 31h2M20 31h2M23 31h2M16 32h4M22 32h4M16 33h1M26 33h1M15 34h1M27 34h3M14 35h5M22 35h10M13 36h5M23 36h10M12 37h1M32 37h1M12 38h1M16 38h1M28 38h1M33 38h1M11 39h6M24 39h10" />
<path stroke="#ffd600" d="M14 4h11M13 5h13M26 6h1" />
<path stroke="#bc0909" d="M13 8h10M24 9h1M25 10h1" />
<path stroke="#ff0000" d="M12 9h1M14 9h10M11 10h1M17 10h6M24 10h1M25 11h1M16 23h3M22 23h1M17 24h1M21 24h2M20 25h2M18 26h3M18 30h1M23 30h1M19 31h1M22 31h1M20 32h2M20 33h2M19 34h3M19 35h3M18 36h5M18 37h1M22 37h1M17 38h2M22 38h2M17 39h2M22 39h2" />
<path stroke="#ffffff" d="M13 9h1M12 10h5M23 10h1M11 11h14M11 12h1M16 12h1M22 12h4M23 13h4M12 14h3M18 14h3M12 15h2M18 15h2M23 15h5M12 16h3M18 16h3M27 16h1M15 22h2M20 29h2M19 30h4M17 33h3M22 33h4M16 34h3M22 34h5M13 37h5M23 37h9M13 38h3M24 38h4M29 38h4" />
<path stroke="#ff8a00" d="M10 16h1M10 17h2M23 17h4M16 18h1M22 18h2M26 18h2M8 19h8M21 19h5M27 19h2M7 20h2M13 20h12M26 20h1M28 20h1M7 21h1M9 21h4M17 21h7M25 21h4M8 22h2M13 22h1M25 22h2M14 23h1M24 23h2M15 24h1M24 24h1M16 25h1M23 25h1M16 26h1M22 26h1M17 27h1M21 27h1M18 28h3" />
<path stroke="#fc809a" d="M19 23h3M18 24h3M18 25h2" />
<path stroke="#efa410" d="M19 37h3M19 39h3" />
<path stroke="#895d07" d="M19 38h3" />
</svg>