<svg xmlns="http://www.w3.org/2000/svg" viewBox="0 -0.5 40 40" shape-rendering="crispEdges">
<metadata>Made with Pixels to Svg https://codepen.io/shshaw/pen/XbxvNj</metadata>
<path stroke="#171d03" d="M0 0h13M31 0h9M0 1h12M34 1h6M0 2h11M34 2h6M0 3h10M35 3h5M0 4h9M35 4h5M0 5h8M36 5h4M0 6h7M36 6h4M0 7h6M36 7h4M0 8h6M36 8h4M0 9h6M36 9h4M0 10h5M36 10h4M0 11h5M37 11h3M0 12h5M37 12h3M0 13h4M37 13h3M0 14h4M37 14h3M0 15h4M37 15h3M0 16h4M37 16h3M0 17h4M37 17h3M0 18h4M38 18h2M0 19h3M30 19h1M38 19h2M0 20h3M38 20h2M0 21h3M38 21h2M0 22h3M38 22h2M0 23h4M29 23h1M38 23h2M0 24h4M29 24h1M38 24h2M0 25h4M38 25h2M0 26h4M38 26h2M0 27h4M38 27h2M0 28h4M37 28h3M0 29h5M36 29h4M0 30h5M30 30h1M35 30h5M0 31h5M30 31h10M0 32h6M30 32h10M0 33h6M30 33h10M0 34h7M31 34h9M0 35h7M32 35h8M0 36h8M33 36h7M0 37h9M33 37h7M0 38h9M34 38h6M1 39h9M34 39h6" />
<path stroke="#022705" d="M13 0h13M12 1h11M11 2h10M10 3h9M9 4h9M8 5h7M7 6h7M6 7h7M6 8h6M30 8h1M6 9h5M5 10h5M5 11h5M5 12h5M4 13h7M4 14h7M4 15h6M4 16h5M4 17h5M4 18h4M29 18h2M3 19h4M3 20h3M3 21h3M3 22h4M4 23h4M10 23h2M27 23h2M4 24h10M26 24h3M4 25h11M25 25h2M4 26h11M24 26h1M4 27h12M4 28h13M5 29h14M5 30h13M5 31h12M6 32h10M6 33h9M7 34h8M7 35h7M8 36h5M9 37h3M9 38h3M0 39h1M10 39h1" />
<path stroke="#f0d34a" d="M26 0h2M23 1h1M32 1h1M21 2h3M26 3h1M31 3h1M27 4h1M34 4h1M28 5h1M35 5h1M29 6h1M35 6h1M30 7h1M31 8h1M31 9h1M34 9h1M31 10h1M31 11h1M36 11h1M31 12h2M36 12h1M31 13h2M36 13h1M31 14h2M36 14h1M31 15h1M36 15h1M31 16h1M35 16h1M31 17h1M34 17h1M31 18h1M34 18h1M37 18h1M31 19h1M33 19h1M37 19h1M31 20h1M33 20h1M31 21h1M33 21h1M31 22h1M33 22h1M30 23h1M33 23h1M30 24h1M33 24h1M35 24h1M30 25h1M33 25h1M35 25h1M33 26h1M33 27h1" />
<path stroke="#f8e795" d="M28 0h2M24 1h2M29 1h2M24 2h1M31 2h1M29 3h1M32 3h1M30 4h1M32 4h2M29 5h3M33 5h1M30 6h2M33 6h1M32 7h1M34 7h1M32 8h1M34 8h1M32 9h1M32 10h1M32 11h1M34 14h1M32 15h1M34 15h1M32 16h2M32 17h2M32 18h2M32 19h1M34 19h1M32 20h1M34 20h1M32 21h1M34 21h1M32 22h1M34 22h1M31 23h2M34 23h1M31 24h2M34 24h1M31 25h2M31 26h2M35 26h1M31 27h2M31 28h1" />
<path stroke="#dcba37" d="M30 0h1M31 1h1M33 1h1M32 2h2M33 3h2M34 5h1M34 6h1M35 7h1M35 8h1M35 9h1M34 10h1M34 11h1M34 12h1M34 13h1M36 21h1M36 22h1M36 23h1M36 24h1M36 25h1" />
<path stroke="#b6a96f" d="M26 1h2M28 2h2M30 3h1M31 4h1M32 5h1M32 6h1M31 7h1" />
<path stroke="#fcf1be" d="M28 1h1M25 2h3M30 2h1M27 3h2M28 4h2M33 7h1M33 8h1M33 9h1M33 10h1M33 11h1M33 12h1M33 13h1M33 14h1M33 15h1M34 16h1M35 17h1M35 18h1M35 19h1M35 20h1M35 21h1M35 22h1M35 23h1" />
<path stroke="#0956bf" d="M19 3h1M24 3h1M18 4h1M25 4h2M15 5h2M26 5h2M14 6h1M17 6h1M24 6h1M28 6h1M17 7h6M29 7h1M23 8h2M29 8h1M24 9h1M27 9h1M29 9h1M25 10h2M28 10h1M26 11h1M30 11h1M26 12h1M27 13h1" />
<path stroke="#9ec3fa" d="M20 3h1M20 4h4M18 5h2M23 5h1M18 6h3M23 7h1M25 7h1M27 7h1M25 8h1M26 9h1" />
<path stroke="#76abf7" d="M21 3h3M25 3h1M19 4h1M24 4h1M17 5h1M20 5h3M24 5h2M21 6h3M25 6h3M24 7h1M28 7h1M26 8h1M28 8h1M25 9h1" />
<path stroke="#76adf7" d="M15 6h2M26 7h1" />
<path stroke="#000000" d="M13 7h1M12 8h1M11 9h3M18 9h4M10 10h1M22 10h1M10 11h1M13 11h2M18 11h3M10 12h1M12 12h1M15 12h1M17 12h1M21 12h1M11 13h1M15 13h1M17 13h1M21 13h1M11 14h1M15 14h1M17 14h1M20 14h2M10 15h2M14 15h2M17 15h1M19 15h3M28 15h1M9 16h1M11 16h1M14 16h2M17 16h1M19 16h3M23 16h4M28 16h1M9 17h1M12 17h1M14 17h4M19 17h4M27 17h2M8 18h8M17 18h1M20 18h2M24 18h2M28 18h1M7 19h1M16 19h5M26 19h1M29 19h1M6 20h1M9 20h4M25 20h1M27 20h1M6 21h1M8 21h1M13 21h4M24 21h1M7 22h1M10 22h3M14 22h1M17 22h8M27 22h1M8 23h2M12 23h2M15 23h1M23 23h1M26 23h1M14 24h1M16 24h1M23 24h1M25 24h1M15 25h1M17 25h1M22 25h1M24 25h1M15 26h1M17 26h1M21 26h1M23 26h1M16 27h1M18 27h3M22 27h1M17 28h1M21 28h1M19 29h1M18 30h1M17 31h2" />
<path stroke="#0958bf" d="M14 7h3" />
<path stroke="#ffffff" d="M13 8h10M14 9h4M22 9h2M11 10h11M23 10h2M11 11h2M15 11h3M21 11h5M11 12h1M16 12h1M22 12h4M16 13h1M22 13h5M14 14h1M16 14h1M19 14h1M22 14h6M16 15h1M22 15h6M16 16h1M22 16h1M27 16h1M28 20h2M29 21h2M20 29h2M19 30h3M19 31h1" />
<path stroke="#064291" d="M27 8h1M28 9h1M30 9h1M27 10h1M30 10h1M28 11h2M28 12h2M28 13h1M30 13h1M30 14h1" />
<path stroke="#094fab" d="M29 10h1M27 11h1M27 12h1M30 12h1M29 13h1M28 14h2" />
<path stroke="#76aef7" d="M35 10h1M35 11h1M35 12h1M35 13h1M35 14h1M35 15h1M36 16h1M36 17h1M36 18h1M36 19h1M36 20h2M37 21h1M37 22h1M37 23h1" />
<path stroke="#c3d9f9" d="M13 12h2M18 12h3M12 13h3M18 13h3M12 14h2M18 14h1M12 15h2M18 15h1M12 16h2M18 16h1M13 17h1M18 17h1M18 18h2" />
<path stroke="#064391" d="M29 15h2" />
<path stroke="#ff8a00" d="M10 16h1M10 17h2M23 17h4M16 18h1M22 18h2M26 18h2M8 19h8M21 19h5M27 19h2M7 20h2M13 20h12M26 20h1M7 21h1M9 21h4M17 21h7M25 21h3M8 22h2M13 22h1M25 22h2M14 23h1M24 23h2M15 24h1M24 24h1M16 25h1M23 25h1M16 26h1M22 26h1M17 27h1M21 27h1M18 28h3" />
<path stroke="#0951ab" d="M29 16h1" />
<path stroke="#064491" d="M30 16h1M29 17h2" />
<path stroke="#9f9898" d="M30 20h1M28 22h2M29 25h1" />
<path stroke="#beb5b5" d="M28 21h1M28 25h1" />
<path stroke="#ff0000" d="M15 22h2M16 23h3M22 23h1M17 24h1M21 24h2M20 25h2M18 26h3" />
<path stroke="#6e6868" d="M30 22h1" />
<path stroke="#fc809a" d="M19 23h3M18 24h3M18 25h2" />
<path stroke="#76aff7" d="M37 24h1M37 25h1M35 27h1M35 28h1M35 29h1" />
<path stroke="#d7cccc" d="M27 25h1M26 26h3M23 27h1M26 27h1M22 28h3M23 29h1" />
<path stroke="#dcb937" d="M34 25h1M34 26h1M34 27h1" />
<path stroke="#efeaea" d="M25 26h1M24 27h2M25 28h1M22 29h1" />
<path stroke="#a16c0d" d="M29 26h1M27 27h2M26 28h2M24 29h3M30 29h1M24 30h2M24 31h1M16 32h2M23 32h2M15 33h1M21 33h1M15 34h1M17 34h3M22 34h5M14 35h2M17 35h1M24 35h2M27 35h1M13 36h2M17 36h1M19 36h1M23 36h1M25 36h1M29 36h3M12 37h2M23 37h1M25 37h1M31 37h2M12 38h2M18 38h1M25 38h2M32 38h1M11 39h2M18 39h1M21 39h1M25 39h2M30 39h1M32 39h2" />
<path stroke="#674305" d="M30 26h1M30 27h1M29 28h2M29 29h1M29 30h1M28 31h2M28 32h1M25 33h2M29 33h1M27 34h1M30 34h1M28 35h1M31 35h1M32 36h1M33 38h1" />
<path stroke="#b3d2fc" d="M36 26h1M36 27h1M36 28h1" />
<path stroke="#9ec4fa" d="M37 26h1M37 27h1M32 28h3M31 29h4M31 30h4" />
<path stroke="#784f07" d="M29 27h1M28 28h1M27 29h1M26 30h1M28 30h1M25 31h3M25 32h2M29 32h1M28 33h1M20 34h2M28 34h2M16 35h1M20 35h3M26 35h1M29 35h2M15 36h2M20 36h3M26 36h2M14 37h2M19 37h4M26 37h2M14 38h1M19 38h3M27 38h2M31 38h1M19 39h2M27 39h3M31 39h1" />
<path stroke="#674205" d="M28 29h1M27 30h1M27 32h1M27 33h1" />
<path stroke="#cc8b17" d="M22 30h2M22 31h2M22 32h1M23 35h1M24 36h1M28 36h1M24 37h1M28 37h3M22 38h3M29 38h2M22 39h3" />
<path stroke="#f0a21a" d="M20 31h2M18 32h4M16 33h5M16 34h1M18 35h2M18 36h1M16 37h3M15 38h3M14 39h4" />
<path stroke="#784e07" d="M22 33h3M13 39h1" />
</svg>