<svg xmlns="http://www.w3.org/2000/svg" viewBox="0 -0.5 40 40" shape-rendering="crispEdges">
<metadata>Made with Pixels to Svg https://codepen.io/shshaw/pen/XbxvNj</metadata>
<path stroke="#5508b7" d="M0 0h40M0 1h15M22 1h18M0 2h13M25 2h9M0 3h12" />
<path stroke="#fdf407" d="M15 1h3M21 1h1M13 2h3M17 2h3M12 3h3M24 3h1M11 4h4M20 4h1M25 4h1M11 5h5M18 5h2M26 5h1M10 6h16M28 6h1M10 7h6M18 7h1M22 7h1M24 7h1M10 8h2M14 8h2M19 8h1M23 8h2M9 9h2M24 9h1M9 10h1M9 11h1M25 11h1M9 12h1M25 12h1M27 12h1M9 13h1M27 13h1M9 14h1M28 14h1M30 14h1M9 15h1M26 15h3M30 15h1M26 16h3M30 16h1M28 17h3M29 18h2M29 19h2M29 20h2M30 21h1M30 22h1M28 23h1M11 24h1M26 24h1M28 24h1M10 25h1M26 25h1M28 25h2M10 26h2M26 26h1M28 26h2M10 27h1M27 27h3M10 28h1M27 28h2M28 29h1" />
<path stroke="#f9f478" d="M18 1h3M16 2h1M24 2h1M16 3h3M21 3h1M17 4h2M22 4h1M22 5h2M28 5h1M26 6h1M20 7h2M26 7h1M21 8h1M26 8h1M26 9h1M29 9h1M26 10h1M27 11h1M28 12h1M28 13h2M29 14h1M29 15h1M29 16h1M30 23h1M30 24h1M30 25h1M30 26h1M30 27h1" />
<path stroke="#fdf9b0" d="M20 2h2M22 3h1M26 3h1M27 4h1" />
<path stroke="#fdf307" d="M22 2h2M23 3h1M23 4h2M24 5h2M27 5h1M27 6h1M27 7h2M27 8h2M27 9h2M27 10h3M28 11h2M29 12h1M27 14h1M11 23h1" />
<path stroke="rgba(85,8,183,0.9921568627450981)" d="M34 2h6M27 3h5M34 3h6M0 4h11M28 4h3M33 4h7M0 5h11M29 5h2M32 5h5M38 5h2M0 6h10M29 6h8M38 6h2M0 7h10M29 7h7M38 7h2M0 8h10M29 8h6M37 8h3M0 9h9M30 9h5M36 9h4M0 10h9M30 10h10M0 11h9M30 11h10M0 12h9M30 12h9M0 13h9M30 13h9M0 14h9M31 14h8M0 15h9M31 15h8M0 16h3M4 16h5M31 16h4M6 17h1M31 17h2M31 18h1" />
<path stroke="#edbe45" d="M15 3h1M19 3h1M15 4h2M19 4h1M16 5h2M20 5h2M25 7h1M25 8h1M25 9h1M25 10h1M26 11h1M26 12h1M26 13h1M26 14h1M29 21h1M28 22h2M10 23h1M27 23h1M29 23h1M9 24h2M27 24h1M29 24h1M9 25h1M11 25h1M27 25h1M9 26h1M27 26h1M9 27h1" />
<path stroke="#faf245" d="M20 3h1M25 3h1M21 4h1M26 4h1" />
<path stroke="#000000" d="M32 3h2M31 4h2M31 5h1M16 7h2M36 7h2M35 8h2M11 9h3M18 9h4M35 9h1M10 10h1M22 10h1M10 11h1M13 11h2M18 11h3M10 12h1M12 12h1M15 12h1M17 12h1M21 12h1M11 13h1M15 13h1M17 13h1M21 13h1M11 14h1M15 14h1M17 14h1M20 14h2M10 15h2M14 15h2M17 15h1M19 15h3M9 16h1M11 16h1M14 16h2M17 16h1M19 16h3M23 16h3M9 17h1M12 17h1M14 17h4M19 17h4M27 17h1M8 18h8M17 18h1M20 18h2M24 18h2M28 18h1M7 19h1M16 19h5M26 19h1M6 20h1M9 20h4M25 20h1M27 20h1M6 21h1M8 21h1M13 21h4M24 21h1M7 22h1M10 22h3M14 22h1M17 22h8M27 22h1M8 23h2M13 23h1M15 23h1M23 23h1M26 23h1M14 24h1M16 24h1M23 24h1M25 24h1M15 25h1M17 25h1M22 25h1M24 25h1M15 26h1M17 26h1M21 26h1M23 26h1M35 26h1M16 27h1M18 27h3M22 27h1M17 28h1M21 28h2M19 29h1M22 29h1M18 30h1M22 30h2M24 31h1M16 32h1M25 32h1M13 33h1M15 33h2M26 33h1M12 34h3M16 34h1M27 34h3M13 35h3M17 35h1M30 35h1M12 36h1M14 36h3M11 37h3M15 37h3M10 38h1M14 38h3M28 38h1M10 39h1M15 39h1M28 39h2" />
<path stroke="#5408b8" d="M37 5h1M37 6h1M4 20h2M37 20h1M3 21h3M33 21h3M3 22h1M5 22h2M33 22h1M39 22h1M5 24h2" />
<path stroke="#edbd45" d="M19 7h1M23 7h1M12 8h1M10 13h1M10 14h1M13 24h1M13 25h2M25 25h1" />
<path stroke="#cc641b" d="M13 8h1M16 8h3M20 8h1M22 8h1M14 9h4M22 9h2M11 10h11M23 10h2M11 11h2M15 11h3M21 11h4M11 12h1M16 12h1M22 12h3M16 13h1M22 13h4M16 14h1M22 14h4M16 15h1M22 15h4M16 16h1M22 16h1M20 29h2M19 30h3M18 31h5M17 32h1M19 32h3M23 32h2M17 33h2M20 33h1M22 33h4M17 34h3M22 34h5M18 35h2M22 35h8M18 36h2M22 36h9M18 37h2M22 37h9M17 38h3M22 38h6M29 38h2M13 39h2M16 39h12M30 39h1" />
<path stroke="#ffffff" d="M13 12h2M18 12h3M12 13h1M12 14h1M14 14h1M19 14h1M12 15h1M12 16h1M34 26h1" />
<path stroke="#5408b7" d="M39 12h1M39 13h1M39 14h1M39 15h1M3 16h1M35 16h5M1 17h2M5 17h1M7 17h2M33 17h7M5 18h3M32 18h8M4 19h3" />
<path stroke="#2aa3ef" d="M13 13h2M13 14h1M13 15h1M13 16h1M13 17h1" />
<path stroke="#a34c0a" d="M18 13h3M18 14h1M18 15h1M18 16h1M18 17h1M18 18h2" />
<path stroke="#ff8a00" d="M10 16h1M10 17h2M23 17h4M16 18h1M22 18h2M26 18h2M8 19h8M21 19h5M27 19h2M7 20h2M13 20h12M26 20h1M28 20h1M7 21h1M9 21h4M17 21h7M25 21h4M8 22h2M13 22h1M25 22h2M14 23h1M24 23h2M15 24h1M24 24h1M16 25h1M23 25h1M16 26h1M22 26h1M17 27h1M21 27h1M18 28h3" />
<path stroke="#4d09c0" d="M0 17h1M3 17h2M0 18h5M2 19h2" />
<path stroke="#560ac3" d="M0 19h1M31 25h2M6 27h1M23 27h1" />
<path stroke="#4c09c1" d="M1 19h1" />
<path stroke="#4a0ac4" d="M31 19h1M35 19h2M31 20h1M0 21h1M0 23h2M0 24h2M33 25h1M39 26h1M25 27h2M37 28h2" />
<path stroke="#5108bc" d="M32 19h3M37 19h3M32 20h4M31 21h1M0 22h1M31 22h1M7 23h1M32 23h1M2 24h1M35 24h1M7 25h2M14 26h1" />
<path stroke="#5508bb" d="M0 20h2M2 23h1M37 23h2M34 24h1M24 26h2" />
<path stroke="#5208bb" d="M2 20h1" />
<path stroke="#5208ba" d="M3 20h1M39 25h1" />
<path stroke="#5308b9" d="M36 20h1M38 20h1M2 21h1M32 21h1M36 21h2M4 22h1M32 22h1M34 22h1M4 23h3M31 23h1M39 23h1M7 24h2M39 24h1M3 25h1M3 26h1M4 27h1" />
<path stroke="#5808b8" d="M39 20h1M38 21h2M6 25h1" />
<path stroke="#5d08bb" d="M1 21h1M1 22h1M33 23h1M31 24h3M13 26h1M8 27h1M13 27h1M24 27h1" />
<path stroke="#5e08ba" d="M2 22h1M3 23h1" />
<path stroke="#ff0000" d="M15 22h2M16 23h3M22 23h1M17 24h1M21 24h2M20 25h2M18 26h3M11 28h2" />
<path stroke="#5508b8" d="M35 22h2" />
<path stroke="#5708b9" d="M37 22h2M34 23h3" />
<path stroke="#c2982e" d="M12 23h1M12 24h1M12 25h1M12 26h1" />
<path stroke="#fc809a" d="M19 23h3M18 24h3M18 25h2" />
<path stroke="#5508b9" d="M3 24h2M4 25h2M4 26h1" />
<path stroke="#3de315" d="M36 24h2M34 25h3M38 25h1M33 26h1M37 26h2M32 27h3M36 27h1M32 28h2M35 28h1M32 29h3M32 30h3M32 31h2M31 32h1M33 32h1M31 33h2M31 34h3M32 35h2M31 36h1M33 36h1M31 37h2M31 38h3M32 39h2" />
<path stroke="#249309" d="M38 24h1M37 25h1M36 26h1M35 27h1M34 28h1M31 31h1M32 32h1M33 33h1M31 35h1M32 36h1M33 37h1M31 39h1" />
<path stroke="#3f1aec" d="M0 25h2M2 28h2M15 28h2" />
<path stroke="#411ff3" d="M2 25h1" />
<path stroke="#310edf" d="M0 26h1M2 29h1" />
<path stroke="#3b0cd4" d="M1 26h1" />
<path stroke="#401aea" d="M2 26h1M2 27h1" />
<path stroke="#5508bc" d="M5 26h1" />
<path stroke="#5608bb" d="M6 26h2M7 27h1" />
<path stroke="#5008bd" d="M8 26h1" />
<path stroke="#340edc" d="M31 26h2M31 27h1M38 27h2M0 28h1M29 28h3M0 29h2M27 29h1M29 29h2M24 30h8M0 31h1M25 31h3M35 31h5M2 32h2M35 32h5M4 33h2M8 33h3M12 33h1M29 33h2M37 33h2M0 34h1M9 34h1M30 34h1M37 34h2M9 35h1M35 35h5M0 36h4M0 38h2" />
<path stroke="#380cd7" d="M0 27h1M1 28h1M39 28h1M36 29h4M35 30h2" />
<path stroke="#3a0cd4" d="M1 27h1" />
<path stroke="#4819e2" d="M3 27h1" />
<path stroke="#490ac4" d="M5 27h1M25 28h2M6 29h1" />
<path stroke="#0667f9" d="M11 27h2M11 29h2" />
<path stroke="#5609c3" d="M14 27h2" />
<path stroke="#e9fc0a" d="M37 27h1M36 28h1M35 29h1M34 31h1M34 32h1M34 33h1M34 34h1M34 35h1M34 36h1M34 37h1M34 38h1M34 39h1" />
<path stroke="#4519e5" d="M4 28h1" />
<path stroke="#4a09c3" d="M5 28h2M7 29h1" />
<path stroke="#5108bb" d="M7 28h2" />
<path stroke="#4d08bb" d="M9 28h1" />
<path stroke="#370dd8" d="M13 28h2" />
<path stroke="#300ee0" d="M23 28h1M23 29h2M26 29h1M0 30h1M1 31h2M4 31h3M9 31h2M28 31h1M4 32h7M26 32h1M5 34h1M4 35h3M35 36h2" />
<path stroke="#480ac5" d="M24 28h1" />
<path stroke="#3d1bee" d="M3 29h2M7 30h2" />
<path stroke="#4419e6" d="M5 29h1" />
<path stroke="#350dda" d="M8 29h1" />
<path stroke="#2f0dda" d="M9 29h2" />
<path stroke="#360dda" d="M13 29h4M13 30h3" />
<path stroke="#401aeb" d="M17 29h1" />
<path stroke="#3a0cd6" d="M18 29h1M16 30h2M13 32h3" />
<path stroke="#2a10e8" d="M25 29h1M1 30h1M4 34h1" />
<path stroke="#3e1bed" d="M31 29h1M0 33h4M6 33h2" />
<path stroke="#2f0ee2" d="M2 30h1M3 31h1" />
<path stroke="#2f0ee1" d="M3 30h3" />
<path stroke="#3c1bef" d="M6 30h1M7 31h2M30 31h1M29 32h2" />
<path stroke="#2d0ee0" d="M9 30h2" />
<path stroke="#fff4de" d="M11 30h1M12 31h1M11 32h1M11 33h1" />
<path stroke="#eac98f" d="M12 30h1M11 31h1M12 32h1" />
<path stroke="#3b0cd3" d="M37 30h2" />
<path stroke="#390cd6" d="M39 30h1" />
<path stroke="#3e0cd0" d="M13 31h4M0 32h2" />
<path stroke="#594705" d="M17 31h1M23 31h1M18 32h1M22 32h1M19 33h1M21 33h1M20 34h2" />
<path stroke="#3a1bf1" d="M29 31h1" />
<path stroke="#3919e6" d="M27 32h2M6 34h2" />
<path stroke="#bbbdc8" d="M14 33h1M12 35h1M17 36h1" />
<path stroke="#2808c5" d="M27 33h2M35 33h2M1 34h1M8 34h1M36 34h1M39 34h1M0 35h4M7 35h2M10 35h1M5 36h2M11 36h1M39 36h1M0 37h3M35 37h1M2 38h2M35 38h5M0 39h10M35 39h5" />
<path stroke="#2406bd" d="M39 33h1M10 34h2M7 36h4M3 37h1M10 37h1" />
<path stroke="#3919e7" d="M2 34h2" />
<path stroke="#dbd5d5" d="M15 34h1M16 35h1M13 36h1M14 37h1" />
<path stroke="#2708c6" d="M35 34h1M4 36h1M37 36h2M4 37h2M36 37h4M4 38h2" />
<path stroke="#2b08c1" d="M11 35h1" />
<path stroke="#33f6e6" d="M20 35h1M21 36h1M21 37h1M21 38h1" />
<path stroke="#bafcf7" d="M21 35h1M20 36h1M20 37h1M20 38h1" />
<path stroke="#2406be" d="M6 37h1" />
<path stroke="#2306bb" d="M7 37h3M9 38h1" />
<path stroke="#2509c9" d="M6 38h1" />
<path stroke="#2307bf" d="M7 38h2" />
<path stroke="#cc631b" d="M11 38h3M11 39h2" />
</svg>