<svg xmlns="http://www.w3.org/2000/svg" viewBox="0 -0.5 40 40" shape-rendering="crispEdges">
<metadata>Made with Pixels to Svg https://codepen.io/shshaw/pen/XbxvNj</metadata>
<path stroke="#54c2ff" d="M0 0h15M35 0h5M0 1h1M8 1h6M35 1h5M11 2h4M36 2h4M10 3h4M36 3h2M0 4h3M6 4h8M0 5h13M0 6h13M38 6h2M0 7h12M38 7h2M0 8h12M39 8h1M0 9h11M0 10h5M7 10h3M0 11h3M8 11h2M36 11h1M0 12h3M9 12h1M37 12h1M0 13h2M9 13h2M0 14h2M8 14h3M35 14h1M39 14h1M0 15h7M8 15h2M35 15h2M39 15h1M0 16h9M38 16h1M0 17h9M39 17h1M0 18h8M0 19h1M0 21h6" />
<path stroke="#623106" d="M15 0h1M28 0h3M34 0h1M31 1h1M34 1h1M35 2h1M30 3h1M35 3h1M30 4h1M35 4h1M30 5h1M32 5h1M36 5h1M30 6h1M32 6h1M37 6h1M31 7h1M33 7h1M31 8h1M35 8h1M38 8h1M31 9h1M34 9h2M39 9h1M34 10h1M39 10h1M30 11h1M34 11h2M39 11h1M30 12h2M34 12h2M39 12h1M30 13h2M35 13h2M39 13h1M31 14h1M36 14h1M31 15h1M37 15h1M32 16h1M34 16h1M37 16h1M39 16h1M33 17h2M32 18h1M35 18h1M35 19h1M37 20h1" />
<path stroke="#884409" d="M16 0h2M24 0h4M32 0h1M30 1h1M32 1h1M30 2h1M32 2h2M14 3h1M33 3h1M14 4h1M16 4h1M33 4h1M13 5h1M15 5h1M31 5h1M34 5h2M13 6h1M31 6h1M35 6h2M30 7h1M35 7h3M34 8h1M37 8h1M38 9h1M31 10h1M35 10h1M38 10h1M31 11h1M33 11h1M33 12h1M36 12h1M38 12h1M29 13h1M33 13h1M37 13h2M29 14h2M33 14h1M37 14h2M29 15h1M33 15h1M38 15h1M29 16h1M30 17h1M38 17h1M27 18h2M25 19h2M24 20h1M32 20h1M23 21h1M33 21h1M37 21h1M23 22h1M34 22h1M22 23h1M34 23h1M7 24h1M21 24h1M35 24h1M7 25h1M21 25h1M35 25h1M6 26h1M20 26h1M35 26h1M6 27h1M20 27h1M35 27h1M6 28h1M20 28h1M35 28h1M6 29h1M20 29h1M35 29h1M20 30h1M35 30h1M21 31h1M35 31h1M21 32h1M34 32h1M33 33h1M9 34h1M8 35h1M8 36h1M8 37h1M7 38h1M7 39h1" />
<path stroke="#ab6223" d="M18 0h2M31 0h1M33 0h1M33 1h1M31 2h1M34 2h1M15 3h1M31 3h2M34 3h1M15 4h1M31 4h2M34 4h1M14 5h1M33 5h1M33 6h2M12 7h1M32 7h1M34 7h1M32 8h2M36 8h1M32 9h2M36 9h2M32 10h2M36 10h2M32 11h1M37 11h2M32 12h1M32 13h1M34 13h1M32 14h1M34 14h1M32 15h1M34 15h1M35 16h1M35 17h1M36 18h1M36 19h1" />
<path stroke="#ebb17e" d="M20 0h4M21 1h1M21 3h1M29 3h1M22 4h1M28 4h2M17 5h2M23 5h4M28 5h2M22 6h5M29 6h1M27 7h3M26 8h4M25 9h5M26 10h4M27 11h2M28 12h1M31 17h1M36 17h1M29 18h3M33 18h1M37 18h1M27 19h2M30 19h4M37 19h2M25 20h4M30 20h2M33 20h2M38 20h1M24 21h4M30 21h1M34 21h2M38 21h1M24 22h4M29 22h3M35 22h4M12 23h1M23 23h4M29 23h4M35 23h4M9 24h2M12 24h2M22 24h5M29 24h4M36 24h3M8 25h2M12 25h3M22 25h5M29 25h5M36 25h3M8 26h2M12 26h3M22 26h4M29 26h5M36 26h3M8 27h1M12 27h4M22 27h4M29 27h6M36 27h3M8 28h1M12 28h5M22 28h4M30 28h5M36 28h3M12 29h1M14 29h5M23 29h2M30 29h5M36 29h3M13 30h1M15 30h3M22 30h1M31 30h4M36 30h3M13 31h4M31 31h4M36 31h3M14 32h2M32 32h2M36 32h3M15 33h1M34 33h1M36 33h3M33 34h2M36 34h3M9 35h1M32 35h3M36 35h3M9 36h1M33 36h2M36 36h3M9 37h2M35 37h4M8 38h9M30 38h3M34 38h4M8 39h29" />
<path stroke="#ffffff" d="M1 1h7M0 2h11M3 3h2M38 3h2M36 4h4M14 7h8M13 8h10M14 9h4M22 9h2M5 10h2M11 10h11M23 10h2M11 11h2M15 11h3M21 11h5M11 12h1M16 12h1M22 12h5M16 13h1M22 13h5M14 14h1M16 14h1M19 14h1M22 14h6M16 15h1M22 15h6M16 16h1M22 16h1M27 16h1M19 30h1M19 31h2M20 32h1M14 36h2M20 36h3M30 36h2M13 37h4M19 37h5M25 37h8M17 38h13" />
<path stroke="#000000" d="M14 1h5M20 1h1M22 1h4M27 1h3M15 2h3M19 2h6M26 2h3M16 3h1M18 3h3M22 3h2M25 3h4M17 4h3M23 4h5M14 6h8M13 7h1M22 7h1M12 8h1M23 8h1M11 9h3M18 9h4M24 9h1M10 10h1M22 10h1M25 10h1M10 11h1M13 11h2M18 11h3M26 11h1M10 12h1M12 12h1M15 12h1M17 12h1M21 12h1M27 12h1M11 13h1M15 13h1M17 13h1M21 13h1M27 13h1M11 14h1M15 14h1M17 14h1M20 14h2M28 14h1M10 15h2M14 15h2M17 15h1M19 15h3M28 15h1M9 16h1M11 16h1M14 16h2M17 16h1M19 16h3M23 16h4M28 16h1M9 17h1M12 17h1M14 17h4M19 17h4M27 17h2M8 18h8M17 18h1M20 18h2M24 18h2M7 19h1M16 19h5M6 20h1M9 20h4M6 21h1M8 21h1M13 21h4M7 22h1M10 22h3M14 22h1M17 22h6M8 23h2M13 23h1M15 23h1M14 24h1M16 24h1M15 25h1M17 25h1M15 26h1M17 26h1M16 27h1M18 27h2M17 28h1M19 29h1M18 30h1M17 31h2M16 32h1M19 32h1M16 33h1M20 33h1M15 34h1M19 34h1M14 35h2M20 35h1M22 35h1M31 35h1M13 36h1M16 36h1M19 36h1M23 36h1M25 36h1M32 36h1M12 37h1M17 37h2M24 37h1M33 37h1" />
<path stroke="#d447f6" d="M19 1h1M26 1h1" />
<path stroke="#d600fb" d="M18 2h1M25 2h1M17 3h1M24 3h1" />
<path stroke="#d6a071" d="M29 2h1M16 5h1M30 8h1M30 9h1M30 10h1M29 11h1M29 12h1M28 13h1M30 15h1M30 16h2M33 16h1M36 16h1M29 17h1M32 17h1M37 17h1M34 18h1M34 19h1M35 20h2M36 21h1M10 23h1M8 24h1M7 26h1M21 26h1M7 27h1M21 27h1M7 28h1M21 28h1M7 29h1M21 29h1M21 30h1M22 31h1M10 35h2M10 36h3M11 37h1" />
<path stroke="#f2eded" d="M0 3h3M5 3h5M3 4h3M37 5h3M3 11h5" />
<path stroke="#c19066" d="M20 4h1M19 5h1M35 32h1M35 33h1M10 34h2M35 34h1M12 35h2M35 35h1M35 36h1M34 37h1M33 38h1" />
<path stroke="#fdd2ad" d="M21 4h1M20 5h3" />
<path stroke="#fac495" d="M27 5h1M28 6h1M33 24h1M34 26h1M13 29h1M14 30h1" />
<path stroke="#d60404" d="M27 6h1M23 7h4" />
<path stroke="#ff0000" d="M24 8h2M15 22h2M16 23h3M17 24h1M20 25h1M18 26h2M17 32h2M17 33h3M21 33h1M16 34h3M20 34h3M16 35h4M21 35h1M23 35h1M17 36h2M24 36h1" />
<path stroke="#54c4ff" d="M3 12h6M2 13h7M2 14h6M7 15h1M1 19h6M0 20h6M5 22h2" />
<path stroke="#c3d9f9" d="M13 12h2M18 12h3M12 13h3M18 13h3M12 14h2M18 14h1M12 15h2M18 15h1M12 16h2M18 16h1M13 17h1M18 17h1M18 18h2" />
<path stroke="#ff8a00" d="M10 16h1M10 17h2M23 17h4M16 18h1M22 18h2M26 18h1M8 19h8M21 19h4M7 20h2M13 20h11M7 21h1M9 21h4M17 21h6M8 22h2M13 22h1M14 23h1M15 24h1M16 25h1M16 26h1M17 27h1M18 28h2" />
<path stroke="#fac494" d="M38 18h2M39 19h1M39 20h1M31 21h2M39 21h1M32 22h2M39 22h1M33 23h1M39 23h1M34 24h1M39 24h1M34 25h1M39 25h1M39 26h1M39 27h1M39 28h1M22 29h1M39 29h1M23 30h1M39 30h1M39 31h1M39 32h1M39 33h1M39 34h1M39 35h1M39 36h1M39 37h1M38 38h2M37 39h3" />
<path stroke="#fe95e6" d="M29 19h1M29 20h1M28 21h2M28 22h1M27 23h2M8 29h2M8 30h3M26 30h2M25 31h4M10 32h1M22 32h1M28 32h2M24 33h1M27 33h3M24 34h1" />
<path stroke="#5ec7fd" d="M0 22h5M0 23h8" />
<path stroke="#fe95e5" d="M11 23h1M11 24h1M27 24h2M10 25h2M27 25h2M10 26h2M26 26h3M9 27h3M26 27h3M9 28h3M26 28h4M10 29h2M25 29h5M11 30h2M24 30h2M28 30h3M11 31h2M23 31h2M29 31h2M11 32h3M23 32h2M30 32h2M12 33h3M23 33h1M25 33h1M30 33h3M25 34h6M26 35h4" />
<path stroke="#fc809a" d="M19 23h3M18 24h3M18 25h2" />
<path stroke="#6ccdfe" d="M0 24h7M0 25h7M0 26h6" />
<path stroke="#47f0e6" d="M0 27h1M4 27h2M1 28h4M1 29h2M4 29h2M1 30h1" />
<path stroke="#47f0e8" d="M1 27h3M0 28h1M5 28h1M0 29h1M3 29h1M0 30h1M2 30h5" />
<path stroke="#d000fb" d="M7 30h1M7 31h1M8 32h1M9 33h3M12 34h3M27 36h3" />
<path stroke="#edca75" d="M0 31h7M0 32h1M2 32h6M0 33h4M6 33h3M0 34h7M8 34h1M0 35h8M0 36h4M5 36h3M0 37h8M0 38h7M0 39h7" />
<path stroke="#e873ce" d="M8 31h1M9 32h1M25 32h1M26 33h1" />
<path stroke="#faabe8" d="M9 31h1M26 32h1" />
<path stroke="#e873d1" d="M10 31h1M27 32h1" />
<path stroke="#f9e2ac" d="M1 32h1M4 33h2M7 34h1M4 36h1" />
<path stroke="#ca00fb" d="M22 33h1M23 34h1M31 34h2M24 35h2M26 36h1" />
<path stroke="#c500fb" d="M30 35h1" />
</svg>