<svg xmlns="http://www.w3.org/2000/svg" viewBox="0 -0.5 40 40" shape-rendering="crispEdges">
<metadata>Made with Pixels to Svg https://codepen.io/shshaw/pen/XbxvNj</metadata>
<path stroke="#4f0052" d="M0 0h40M0 1h40M0 2h15M24 2h16M0 3h13M25 3h15M0 4h12M26 4h14M0 5h11M27 5h13M0 6h10M28 6h12M0 7h10M29 7h11M0 8h10M29 8h11M0 9h11M29 9h11M0 10h10M29 10h11M0 11h10M29 11h11M0 12h10M29 12h11M0 13h11M29 13h11M0 14h11M29 14h11M0 15h10M29 15h11M0 16h9M29 16h11M0 17h9M29 17h11M0 18h8M29 18h11M0 19h7M30 19h10M0 20h6M30 20h10M0 21h6M30 21h10M0 22h7M29 22h11M0 23h8M10 23h1M27 23h13M0 24h11M12 24h2M26 24h14M0 25h10M12 25h3M25 25h15M0 26h10M13 26h2M24 26h16M0 27h11M13 27h3M23 27h17M0 28h17M23 28h17M0 29h4M7 29h12M23 29h17M0 30h2M8 30h10M24 30h16M0 31h2M9 31h8M25 31h15M0 32h1M4 32h1M9 32h7M26 32h14M0 33h4M9 33h7M27 33h13M0 34h3M10 34h5M30 34h10M0 35h3M5 35h2M10 35h4M32 35h8M0 36h7M10 36h3M33 36h7M0 37h7M11 37h1M33 37h7M0 38h7M11 38h1M34 38h6M0 39h8M34 39h6" />
<path stroke="#000000" d="M15 2h5M13 3h2M12 4h1M11 5h1M10 6h1M27 6h1M10 7h1M28 7h1M10 8h1M28 8h1M11 9h3M18 9h4M28 9h1M10 10h1M22 10h1M28 10h1M10 11h1M13 11h2M18 11h3M28 11h1M10 12h1M12 12h2M15 12h1M17 12h1M19 12h3M28 12h1M11 13h3M15 13h1M17 13h1M19 13h3M28 13h1M11 14h3M15 14h1M17 14h1M21 14h1M28 14h1M10 15h2M15 15h1M17 15h1M21 15h1M28 15h1M9 16h1M11 16h1M15 16h1M17 16h1M21 16h1M23 16h4M28 16h1M9 17h1M12 17h1M14 17h4M21 17h2M27 17h2M8 18h8M17 18h1M20 18h2M24 18h2M28 18h1M7 19h1M16 19h5M26 19h1M29 19h1M6 20h1M9 20h4M25 20h1M27 20h1M29 20h1M6 21h1M8 21h1M13 21h4M24 21h1M29 21h1M7 22h1M10 22h1M12 22h1M14 22h1M17 22h8M27 22h2M8 23h2M12 23h2M15 23h1M23 23h1M26 23h1M14 24h1M16 24h1M23 24h1M25 24h1M15 25h1M17 25h1M22 25h1M24 25h1M15 26h1M17 26h1M21 26h1M23 26h1M16 27h1M18 27h3M22 27h1M17 28h1M21 28h2M4 29h3M19 29h1M22 29h1M2 30h1M7 30h1M18 30h1M22 30h2M4 31h2M8 31h1M17 31h2M23 31h2M1 32h1M3 32h1M8 32h1M16 32h1M19 32h1M22 32h1M25 32h1M6 33h1M16 33h1M20 33h1M22 33h1M26 33h1M5 34h2M9 34h1M15 34h1M19 34h1M23 34h1M27 34h3M3 35h2M9 35h1M14 35h2M20 35h1M22 35h1M26 35h1M30 35h2M7 36h1M9 36h1M13 36h1M16 36h1M19 36h1M23 36h1M25 36h2M31 36h2M7 37h1M9 37h2M12 37h1M17 37h2M24 37h1M32 37h1M7 38h1M10 38h1M12 38h1M16 38h1M28 38h1M33 38h1M8 39h1M11 39h2M15 39h2M28 39h2M33 39h1" />
<path stroke="#ed3833" d="M20 2h1M23 2h1M22 3h1M19 4h1M21 4h1M23 4h1M25 4h1M22 6h1M24 6h1M23 7h1M25 7h2M24 8h1M26 8h1M24 9h1M24 10h1M24 11h1M12 16h1M14 16h1M13 17h1M20 17h1M18 18h2" />
<path stroke="#e98583" d="M21 2h2M19 3h3M23 3h2M20 4h1M22 4h1M24 4h1M21 5h6M23 6h1M25 6h1M24 7h1M26 37h1M31 38h1M17 39h1M25 39h1" />
<path stroke="#7ca656" d="M15 3h2M13 4h5M12 5h3M16 5h3M11 6h1M13 6h9M11 7h2M15 7h7M11 8h12M14 9h4M22 9h2M25 9h1M27 9h1M12 10h10M23 10h1M25 10h3M11 11h2M15 11h3M21 11h3M25 11h1M11 12h1M16 12h1M22 12h2M25 12h1M16 13h1M22 13h6M16 14h1M22 14h3M26 14h2M16 15h1M22 15h6M16 16h1M22 16h1M27 16h1M11 21h1M19 23h1M21 23h1M18 24h1M20 24h1M11 25h1M19 25h1M10 26h1M11 27h1M21 29h1M4 30h3M19 30h1M21 30h1M2 31h2M7 31h1M19 31h2M22 31h1M5 32h3M20 32h2M4 33h1M7 33h2M4 34h1M7 34h2M7 35h2M27 35h2M8 36h1M14 36h2M20 36h3M27 36h4M8 37h1M13 37h4M21 37h2M27 37h5M8 38h2M13 38h3M17 38h11M29 38h2M32 38h1M9 39h2M13 39h2M21 39h2M26 39h2M30 39h1M32 39h1" />
<path stroke="#a7d97a" d="M17 3h2M18 4h1M15 5h1M19 5h2M12 6h1M26 6h1M13 7h2M22 7h1M27 7h1M23 8h1M25 8h1M27 8h1M11 10h1M26 11h2M26 12h2M25 14h1M11 22h1M11 23h1M11 24h1M10 25h1M11 26h2M12 27h1M20 29h1M3 30h1M20 30h1M6 31h1M21 31h1M5 33h1M29 35h1" />
<path stroke="#ff0000" d="M26 9h1M24 12h1M15 22h2M16 23h3M22 23h1M17 24h1M21 24h2M20 25h2M18 26h3M17 32h1M23 32h2M17 33h1M19 33h1M21 33h1M23 33h1M25 33h1M16 34h3M20 34h3M25 34h2M16 35h1M19 35h1M21 35h1M24 35h1M17 36h1M24 36h1" />
<path stroke="#c3d9f9" d="M14 12h1M18 12h1M14 13h1M18 13h1M14 14h1M18 14h3M12 15h3M18 15h3M13 16h1M18 16h3M18 17h2" />
<path stroke="#ff8a00" d="M10 16h1M10 17h2M23 17h4M16 18h1M22 18h2M26 18h2M8 19h8M21 19h5M27 19h2M7 20h2M13 20h12M26 20h1M28 20h1M7 21h1M9 21h2M12 21h1M17 21h7M25 21h4M8 22h2M13 22h1M25 22h2M14 23h1M24 23h2M15 24h1M24 24h1M16 25h1M23 25h1M16 26h1M22 26h1M17 27h1M21 27h1M18 28h3" />
<path stroke="#fc809a" d="M20 23h1M19 24h1M18 25h1" />
<path stroke="#f3ed4e" d="M2 32h1M3 34h1" />
<path stroke="#b01515" d="M18 32h1M18 33h1M24 33h1M24 34h1M17 35h2M23 35h1M25 35h1M18 36h1" />
<path stroke="#ffffff" d="M19 37h2M23 37h1M25 37h1M18 39h3M23 39h2M31 39h1" />
</svg>