<svg xmlns="http://www.w3.org/2000/svg" viewBox="0 -0.5 40 40" shape-rendering="crispEdges">
<metadata>Made with Pixels to Svg https://codepen.io/shshaw/pen/XbxvNj</metadata>
<path stroke="#41bddd" d="M0 0h17M21 0h19M0 1h15M23 1h17M0 2h14M25 2h15M0 3h13M26 3h14M0 4h6M7 4h6M27 4h13M0 5h6M9 5h4M27 5h13M0 6h7M11 6h2M28 6h12M0 7h9M29 7h11M0 8h12M29 8h11M0 9h11M29 9h11M0 10h10M29 10h11M0 11h10M29 11h11M0 12h10M29 12h11M0 13h11M28 13h4M33 13h5M39 13h1M0 14h11M29 14h4M34 14h3M38 14h1M0 15h10M29 15h5M35 15h1M37 15h3M0 16h9M33 16h2M37 16h1M39 16h1M0 17h9M38 17h2M0 18h8M39 18h1M0 19h7M0 20h6M0 21h6M39 21h1M0 22h7M39 22h1M0 23h8M10 23h2M39 23h1M0 24h14M39 24h1M0 25h15M0 26h15M0 27h16M23 27h1M0 28h17M23 28h2M37 28h3M0 29h19M23 29h3M38 29h2M0 30h18M24 30h2M38 30h2M0 31h17M37 31h3M0 32h16M34 32h6M0 33h16M34 33h6M0 34h15M30 34h1M33 34h7M0 35h14M31 35h9M0 36h13M32 36h8M0 37h12M33 37h7M0 38h12M34 38h6M0 39h12M34 39h6" />
<path stroke="#000000" d="M17 0h4M15 1h2M21 1h2M14 2h1M22 2h3M13 3h1M23 3h1M25 3h1M13 4h1M23 4h1M26 4h1M6 5h2M13 5h1M23 5h1M26 5h1M7 6h3M13 6h1M23 6h1M27 6h1M9 7h15M28 7h1M12 8h1M23 8h1M28 8h1M11 9h3M18 9h4M24 9h1M28 9h1M10 10h1M22 10h1M25 10h1M28 10h1M10 11h1M13 11h2M18 11h3M26 11h1M28 11h1M10 12h1M12 12h1M15 12h1M17 12h1M21 12h1M27 12h2M11 13h1M15 13h1M17 13h1M21 13h1M27 13h1M32 13h1M38 13h1M11 14h1M15 14h1M17 14h1M20 14h2M28 14h1M33 14h1M37 14h1M39 14h1M10 15h2M14 15h2M17 15h1M19 15h3M28 15h1M34 15h1M36 15h1M9 16h1M11 16h1M14 16h2M17 16h1M19 16h3M23 16h4M28 16h5M35 16h2M38 16h1M9 17h1M12 17h1M14 17h4M19 17h4M27 17h2M33 17h2M37 17h1M8 18h8M17 18h1M20 18h2M24 18h3M30 18h2M38 18h1M7 19h1M16 19h5M25 19h1M29 19h1M32 19h1M35 19h2M39 19h1M6 20h1M9 20h4M25 20h1M28 20h1M32 20h1M34 20h1M37 20h1M39 20h1M6 21h1M8 21h1M13 21h4M24 21h1M28 21h1M30 21h1M32 21h1M34 21h1M38 21h1M7 22h1M10 22h3M14 22h1M17 22h8M27 22h2M32 22h1M34 22h1M38 22h1M8 23h2M12 23h2M15 23h1M23 23h2M26 23h1M29 23h1M32 23h1M34 23h1M36 23h1M38 23h1M14 24h1M16 24h1M23 24h2M26 24h1M30 24h5M38 24h1M15 25h1M17 25h1M22 25h1M24 25h1M26 25h1M35 25h5M15 26h1M17 26h1M21 26h1M23 26h2M26 26h1M16 27h1M18 27h3M22 27h1M24 27h1M27 27h1M38 27h2M17 28h1M21 28h2M25 28h1M36 28h1M19 29h1M22 29h1M26 29h1M28 29h1M31 29h1M37 29h1M18 30h1M22 30h2M26 30h1M29 30h2M33 30h1M37 30h1M17 31h2M23 31h4M30 31h1M33 31h4M16 32h1M19 32h1M22 32h1M25 32h1M29 32h2M33 32h1M16 33h1M20 33h1M22 33h1M26 33h1M29 33h2M33 33h1M15 34h1M19 34h1M23 34h1M29 34h1M31 34h2M14 35h2M20 35h1M22 35h1M26 35h1M30 35h1M13 36h1M16 36h1M19 36h1M23 36h1M25 36h1M31 36h1M12 37h1M17 37h2M24 37h1M32 37h1M12 38h1M16 38h1M28 38h1M33 38h1M12 39h1M15 39h2M28 39h2M33 39h1" />
<path stroke="#fff7cc" d="M17 1h2M16 2h5M15 3h2M19 3h2M15 4h1M15 5h1M15 6h3" />
<path stroke="#fef9e0" d="M19 1h2M21 2h1M21 3h2M20 4h3M20 5h3M18 6h5M29 17h3M35 17h1M27 18h2M33 18h3M27 19h1M33 19h1M26 20h1M25 21h2M25 22h2M25 23h1M25 24h1M25 25h1M25 26h1M25 27h2M27 28h1M27 30h2M28 31h2M26 32h2M27 33h2M27 34h1M28 35h1M26 36h1" />
<path stroke="#e6e0c8" d="M15 2h1M14 3h1M14 4h1M14 5h1M14 6h1" />
<path stroke="#ff0000" d="M17 3h1M18 4h2M18 5h2M15 22h2M16 23h3M22 23h1M17 24h1M21 24h2M20 25h2M18 26h3M17 32h2M23 32h2M17 33h3M21 33h1M23 33h3M16 34h3M20 34h3M24 34h3M16 35h4M21 35h1M23 35h3M17 36h2M24 36h1" />
<path stroke="#ffee00" d="M18 3h1M16 4h2M16 5h2M31 21h1M29 22h3M37 23h1M35 24h3" />
<path stroke="#0a9d2b" d="M24 3h1M24 4h2M24 5h2M25 6h2M25 7h2" />
<path stroke="#087f21" d="M6 4h1M8 5h1M10 6h1" />
<path stroke="#0a9d2d" d="M24 6h1M24 7h1M24 8h2" />
<path stroke="#087f23" d="M27 7h1M26 8h2M25 9h3M26 10h2M27 11h1" />
<path stroke="#eee7e7" d="M13 8h10M14 9h4M22 9h2M24 10h1M29 18h1M32 18h1M26 19h1M28 19h1M34 19h1M37 19h1M27 20h1M33 20h1M38 20h1M27 21h1M33 21h1M33 22h1M33 23h1M26 28h1M20 29h2M27 31h1M28 32h1M29 35h1" />
<path stroke="#ffffff" d="M11 10h11M23 10h1M11 11h2M15 11h3M21 11h5M11 12h1M16 12h1M22 12h5M16 13h1M22 13h5M14 14h1M16 14h1M19 14h1M22 14h6M16 15h1M22 15h6M16 16h1M22 16h1M27 16h1M32 17h1M36 17h1M36 18h2M30 19h2M38 19h1M29 20h1M35 20h2M35 21h3M35 22h1M30 23h2M29 25h1M29 27h1M33 27h1M35 27h1M37 27h1M31 28h1M27 29h1M34 29h1M19 30h3M19 31h4M20 32h2M28 34h1M27 35h1M14 36h2M20 36h3M27 36h4M13 37h4M19 37h5M25 37h7M13 38h3M17 38h11M29 38h4M13 39h2M17 39h11M30 39h3" />
<path stroke="#c3d9f9" d="M13 12h2M18 12h3M12 13h3M18 13h3M12 14h2M18 14h1M12 15h2M18 15h1M12 16h2M18 16h1M13 17h1M18 17h1M18 18h2" />
<path stroke="#ff8a00" d="M10 16h1M10 17h2M23 17h4M16 18h1M22 18h2M8 19h8M21 19h4M7 20h2M13 20h12M7 21h1M9 21h4M17 21h7M8 22h2M13 22h1M14 23h1M15 24h1M16 25h1M23 25h1M16 26h1M22 26h1M17 27h1M21 27h1M18 28h3" />
<path stroke="#ffdb00" d="M30 20h2M29 21h1M36 22h2M35 23h1" />
<path stroke="#fc809a" d="M19 23h3M18 24h3M18 25h2" />
<path stroke="#ff8900" d="M27 23h2M27 24h3M27 25h1M30 25h5M27 26h1M31 26h9M28 27h1M28 28h2M29 29h2M36 29h1M34 30h3" />
<path stroke="#b70909" d="M28 25h1M28 26h3M30 27h3M34 27h1M36 27h1M30 28h1M32 28h4M35 29h1" />
<path stroke="#f6688c" d="M32 29h1M31 30h1M31 31h1M31 32h1M31 33h1" />
<path stroke="#fc809d" d="M33 29h1M32 30h1M32 31h1M32 32h1M32 33h1" />
</svg>