<svg xmlns="http://www.w3.org/2000/svg" viewBox="0 -0.5 40 40" shape-rendering="crispEdges">
<metadata>Made with Pixels to Svg https://codepen.io/shshaw/pen/XbxvNj</metadata>
<path stroke="#700094" d="M0 0h16M23 0h17M0 1h15M24 1h16M0 2h14M25 2h15M0 3h14M25 3h15M0 4h13M25 4h15M0 5h13M25 5h15M0 6h10M25 6h15M0 7h10M25 7h15M0 8h10M26 8h14M0 9h10M26 9h14M0 10h10M26 10h14M0 11h10M26 11h14M0 12h11M27 12h13M0 13h11M27 13h13M0 14h11M27 14h13M0 15h10M27 15h13M0 16h9M27 16h13M0 17h9M28 17h12M0 18h8M29 18h11M0 19h7M30 19h10M0 20h6M30 20h10M0 21h6M30 21h10M0 22h4M35 22h5M0 23h3M10 23h2M38 23h2M0 24h1M11 24h1M39 24h1M1 28h4M0 29h6M32 29h4M0 30h7M31 30h6M0 31h7M30 31h8M0 32h8M30 32h9M0 33h8M29 33h10M0 34h9M29 34h11M0 35h10M29 35h11M0 36h10M29 36h11M0 37h11M29 37h11M0 38h12M29 38h11M0 39h12M29 39h11" />
<path stroke="#f8ed7c" d="M16 0h1M15 1h1M14 2h1M14 3h1M13 4h1M13 5h1M12 6h2M12 7h1M12 24h2M12 25h1M14 25h1M25 25h1M12 26h1M14 26h1M24 26h1M12 27h1M14 27h2M23 27h1M12 28h1M15 28h2M22 28h1M12 29h1M17 29h1M12 30h1M18 30h2M13 31h1M13 32h1M25 32h1M13 33h1M13 34h1M24 34h1M14 35h1M14 36h1M23 36h1M14 37h2M15 38h1M22 38h1M15 39h1" />
<path stroke="#fdf498" d="M17 0h1M22 0h1M23 1h1M16 2h1M24 2h1M24 3h1M15 4h1M24 4h1M24 5h1M24 6h1M14 7h1M24 7h1M25 8h1M14 9h1M25 9h1M14 10h2M25 10h1M15 11h1M25 11h1M16 12h1M26 12h1M16 13h1M26 13h1M16 14h1M26 14h1M16 15h1M26 15h1M16 16h1M26 24h1M26 25h1M26 26h1M26 27h1M26 28h1M26 29h1M26 30h1M18 31h1M26 31h1M17 32h2M17 33h2M17 34h2M17 35h2M17 36h3M18 37h2M22 37h1M18 38h2M21 38h1M18 39h4" />
<path stroke="#fdf9c4" d="M18 0h4M17 1h6M17 2h7M16 3h8M16 4h8M15 5h9M15 6h9M15 7h9M15 8h4M21 8h4M16 9h2M19 9h2M22 9h3M16 10h9M16 11h2M21 11h4M22 12h4M22 13h4M22 14h4M22 15h4M22 16h1" />
<path stroke="#fef280" d="M16 1h1M15 2h1M15 3h1M14 4h1M14 5h1M14 6h1M13 7h1M12 8h1M13 9h1M12 10h2M12 11h1M13 25h1M13 26h1M13 27h1M13 28h2M13 29h4M13 30h5M14 31h4M14 32h3M14 33h3M14 34h3M15 35h2M15 36h2M16 37h2M16 38h2M16 39h2" />
<path stroke="#6e0094" d="M10 6h2M10 7h2M10 8h2M10 9h2M10 10h2M10 11h2M11 12h1M27 23h1" />
<path stroke="#000000" d="M13 8h2M19 8h2M12 9h1M15 9h1M18 9h1M21 9h1M13 11h2M18 11h3M12 12h1M15 12h1M17 12h1M21 12h1M11 13h1M15 13h1M17 13h1M21 13h1M11 14h1M14 14h2M17 14h1M20 14h2M10 15h2M14 15h2M17 15h1M20 15h2M9 16h1M11 16h1M14 16h2M17 16h1M20 16h2M23 16h4M9 17h1M12 17h1M15 17h3M21 17h2M27 17h1M8 18h8M17 18h1M20 18h2M24 18h2M28 18h1M7 19h1M16 19h5M26 19h1M29 19h1M6 20h1M9 20h4M25 20h1M27 20h1M29 20h1M6 21h1M8 21h1M13 21h4M24 21h1M29 21h1M7 22h1M10 22h3M14 22h1M17 22h8M27 22h2M8 23h2M12 23h2M15 23h1M23 23h1M26 23h1M14 24h1M16 24h1M23 24h1M25 24h1M15 25h1M17 25h1M22 25h1M24 25h1M15 26h1M17 26h1M21 26h1M23 26h1M16 27h1M18 27h3M22 27h1M17 28h1M21 28h1M18 29h3" />
<path stroke="#ffffff" d="M13 12h2M18 12h3M12 13h2M18 13h2M12 14h1M18 14h1M12 15h1M18 15h1M12 16h1M18 16h1M18 17h1M18 18h2" />
<path stroke="#5eb0ff" d="M14 13h1M20 13h1M13 14h1M19 14h1M13 15h1M19 15h1M13 16h1M19 16h1M13 17h2M19 17h2" />
<path stroke="#ff8a00" d="M10 16h1M10 17h2M23 17h4M16 18h1M22 18h2M26 18h2M8 19h8M21 19h5M27 19h2M7 20h2M13 20h12M26 20h1M28 20h1M7 21h1M9 21h4M17 21h7M25 21h4M8 22h2M13 22h1M25 22h2M14 23h1M24 23h2M15 24h1M24 24h1M16 25h1M23 25h1M16 26h1M22 26h1M17 27h1M21 27h1M18 28h3" />
<path stroke="#f8e729" d="M4 22h3M3 23h1M7 23h1M1 24h1M9 24h2M0 25h1M11 25h1M2 27h2M0 28h1M5 28h1M9 32h1M26 32h1M9 33h2M25 33h2M10 34h2M25 34h1M24 35h2M11 36h1M24 36h2M23 37h1M14 38h1M23 38h1M14 39h1M23 39h1" />
<path stroke="#ff0000" d="M15 22h2M16 23h3M22 23h1M17 24h1M21 24h2M20 25h2M18 26h3" />
<path stroke="#f8e529" d="M29 22h6M28 23h1M35 23h3M38 24h1M39 25h1M27 31h2M27 32h2M27 33h1" />
<path stroke="#fffde3" d="M4 23h3M29 23h6M2 24h7M28 24h10M1 25h5M7 25h4M27 25h3M34 25h5M0 26h7M9 26h3M27 26h1M30 26h10M0 27h1M5 27h4M10 27h2M28 27h3M36 27h4M7 28h3M27 28h3M39 28h1M8 29h3M27 29h2M8 30h4M27 30h1M9 31h3M10 32h2M11 33h1" />
<path stroke="#fc809a" d="M19 23h3M18 24h3M18 25h2" />
<path stroke="#f8e429" d="M27 24h1" />
<path stroke="#f1efd3" d="M6 25h1M30 25h4M7 26h2M28 26h2M9 27h1M27 27h1M10 28h2M11 29h1" />
<path stroke="#fcf5aa" d="M25 26h1M24 27h2M23 28h3M21 29h5M20 30h6M19 31h7M19 32h6M19 33h6M19 34h5M19 35h5M20 36h3M20 37h2M20 38h1" />
<path stroke="#f1df24" d="M1 27h1M4 27h1M31 27h5M6 28h1M30 28h5M36 28h2M29 29h3M37 29h2M28 30h3M38 30h2M29 31h1M39 31h1M29 32h1M28 33h1M28 34h1M28 35h1M28 36h1M28 37h1M12 38h1M28 38h1M12 39h1M28 39h1" />
<path stroke="#e7d523" d="M35 28h1M6 29h1M36 29h1M7 31h1M8 33h1M9 34h1M10 36h1" />
<path stroke="#f8e829" d="M38 28h1M7 29h1M39 29h1M7 30h1M8 31h1M27 34h1M12 36h1M12 37h2M13 38h1M26 38h1M13 39h1M25 39h3" />
<path stroke="#f1e024" d="M37 30h1M38 31h1M8 32h1M39 32h1M39 33h1M10 35h1M11 37h1" />
<path stroke="#f6f4d9" d="M12 31h1M12 32h1M12 33h1M12 34h1M13 35h1M13 36h1" />
<path stroke="#f8e629" d="M26 34h1M11 35h2M26 35h2M26 36h2M24 37h4M24 38h2M27 38h1M22 39h1M24 39h1" />
</svg>