<svg xmlns="http://www.w3.org/2000/svg" viewBox="0 -0.5 40 40" shape-rendering="crispEdges">
<metadata>Made with Pixels to Svg https://codepen.io/shshaw/pen/XbxvNj</metadata>
<path stroke="#be1506" d="M0 0h10M11 0h11M23 0h11M35 0h1M38 0h2M0 1h10M11 1h2M14 1h2M17 1h5M23 1h2M26 1h8M35 1h5M0 2h2M3 2h2M9 2h1M11 2h4M16 2h6M23 2h2M29 2h1M31 2h3M37 2h3M0 3h5M9 3h1M11 3h2M24 3h2M28 3h6M37 3h3M0 5h4M5 5h6M27 5h2M30 5h10M0 6h4M5 6h5M28 6h1M30 6h1M32 6h8M0 7h1M2 7h2M7 7h2M28 7h1M30 7h10M0 8h1M3 8h1M34 8h1M37 8h3M0 9h1M3 9h1M5 9h2M30 9h1M33 9h7M0 11h7M31 11h3M35 11h5M0 12h1M2 12h5M31 12h3M37 12h3M0 13h1M2 13h3M6 13h1M31 13h3M35 13h1M37 13h3M2 14h3M6 14h1M31 14h3M37 14h3M2 15h1M5 15h2M33 15h1M39 15h1M0 16h3M5 16h2M33 16h1M39 16h1M0 18h4M5 18h2M31 18h9M0 19h4M5 19h2M33 19h7M0 20h4M5 20h1M33 20h2M36 20h4M2 21h1M5 21h1M32 21h1M34 21h6M2 22h1M5 22h2M32 22h8M0 24h7M32 24h2M35 24h5M0 25h7M33 25h1M37 25h1M39 25h1M0 26h6M33 26h1M35 26h1M37 26h3M0 27h5M8 27h1M10 27h1M12 27h1M23 27h1M26 27h1M29 27h1M32 27h1M37 27h3M2 28h1M4 28h1M7 28h2M10 28h1M12 28h1M16 28h1M23 28h1M25 28h2M28 28h3M32 28h2M38 28h2M0 30h9M10 30h4M15 30h3M24 30h2M27 30h2M31 30h9M0 31h1M2 31h2M6 31h3M10 31h5M27 31h1M31 31h9M0 32h4M6 32h3M10 32h4M29 32h2M32 32h1M34 32h6M0 33h1M3 33h1M5 33h4M10 33h1M30 33h1M32 33h1M34 33h6M0 34h1M2 34h2M5 34h4M10 34h2M32 35h3M36 35h3M0 36h5M6 36h5M33 36h2M38 36h1M0 37h3M4 37h1M8 37h1M34 37h1M36 37h1M38 37h2M0 38h3M4 38h1M8 38h1M34 38h1M39 38h1M2 39h1M6 39h1M34 39h1M39 39h1" />
<path stroke="#ffffff" d="M10 0h1M22 0h1M34 0h1M10 1h1M22 1h1M34 1h1M10 2h1M22 2h1M34 2h1M10 3h1M34 3h1M0 4h11M26 4h14M4 5h1M29 5h1M4 6h1M29 6h1M4 7h1M29 7h1M4 8h1M29 8h1M4 9h1M0 10h7M18 10h2M30 10h10M12 11h10M34 11h1M11 12h1M15 12h2M22 12h2M34 12h1M16 13h1M23 13h1M34 13h1M34 14h1M16 15h1M23 15h2M34 15h1M16 16h1M34 16h1M0 17h7M17 17h1M31 17h9M4 18h1M18 18h3M4 19h1M4 20h1M4 21h1M4 22h1M0 23h7M32 23h8M34 24h1M34 25h1M34 26h1M34 27h1M34 28h1M0 29h13M15 29h4M20 29h2M23 29h17M9 30h1M19 30h3M26 30h1M9 31h1M19 31h3M9 32h1M15 32h1M18 32h1M20 32h1M22 32h2M27 32h1M9 33h1M14 33h1M18 33h2M21 33h3M28 33h1M9 34h1M13 34h1M18 34h5M29 34h1M31 34h9M0 35h12M20 35h1M35 35h1M5 36h1M14 36h1M27 36h1M35 36h1M5 37h1M35 37h1M5 38h1M35 38h1M5 39h1M35 39h1" />
<path stroke="#8f1b08" d="M36 0h2M13 1h1M16 1h1M25 1h1M2 2h1M5 2h4M15 2h1M25 2h4M30 2h1M35 2h2M5 3h4M26 3h2M35 3h2M31 6h1M1 7h1M5 7h2M1 8h2M5 8h3M30 8h4M35 8h2M1 9h2M7 9h1M31 9h2M1 12h1M35 12h2M1 13h1M5 13h1M36 13h1M0 14h2M5 14h1M35 14h2M0 15h2M3 15h2M31 15h2M35 15h4M3 16h2M31 16h2M35 16h4M32 19h1M32 20h1M35 20h1M0 21h2M3 21h1M33 21h1M0 22h2M3 22h1M35 25h2M38 25h1M36 26h1M5 27h1M35 27h2M0 28h2M3 28h1M5 28h1M35 28h3M29 30h2M1 31h1M4 31h2M28 31h3M4 32h2M31 32h1M33 32h1M1 33h2M4 33h1M11 33h2M31 33h1M33 33h1M1 34h1M4 34h1M39 35h1M36 36h2M39 36h1M3 37h1M6 37h2M9 37h2M37 37h1M3 38h1M6 38h2M9 38h2M36 38h3M0 39h2M3 39h2M7 39h4M36 39h3" />
<path stroke="#000000" d="M13 3h11M11 4h8M20 4h6M11 5h4M20 5h7M10 6h4M18 6h6M25 6h3M9 7h5M16 7h6M24 7h4M8 8h5M15 8h5M22 8h7M8 9h22M7 10h11M20 10h10M7 11h5M22 11h9M7 12h4M12 12h3M17 12h5M24 12h7M7 13h5M15 13h1M17 13h1M22 13h1M24 13h7M7 14h5M15 14h3M22 14h9M7 15h5M13 15h1M15 15h1M17 15h1M20 15h1M22 15h1M25 15h6M7 16h3M11 16h1M15 16h1M17 16h1M22 16h9M7 17h3M12 17h5M18 17h5M27 17h4M7 18h9M17 18h1M21 18h1M24 18h2M28 18h3M7 19h1M16 19h5M26 19h1M29 19h3M6 20h1M9 20h4M25 20h1M27 20h1M29 20h3M6 21h1M8 21h1M13 21h4M24 21h1M29 21h3M7 22h1M10 22h3M14 22h1M17 22h8M27 22h5M7 23h7M15 23h1M23 23h1M26 23h6M7 24h8M16 24h1M23 24h1M25 24h7M7 25h9M17 25h1M22 25h1M24 25h9M6 26h10M17 26h1M21 26h1M23 26h10M6 27h2M9 27h1M11 27h1M13 27h4M18 27h3M22 27h1M24 27h2M27 27h2M30 27h2M33 27h1M6 28h1M9 28h1M11 28h1M13 28h3M17 28h1M21 28h2M24 28h1M27 28h1M31 28h1M13 29h2M19 29h1M22 29h1M14 30h1M18 30h1M22 30h2M15 31h4M23 31h4M14 32h1M16 32h1M25 32h2M28 32h1M13 33h1M15 33h1M17 33h1M24 33h1M26 33h2M29 33h1M12 34h1M14 34h1M16 34h2M24 34h2M27 34h2M30 34h1M12 35h2M15 35h4M23 35h4M28 35h4M11 36h2M15 36h4M23 36h4M29 36h2M11 37h3M15 37h4M23 37h3M28 37h2M31 37h3M11 38h4M16 38h3M22 38h3M26 38h3M30 38h4M11 39h5M17 39h3M22 39h2M25 39h3M29 39h5" />
<path stroke="#0600b2" d="M19 4h1" />
<path stroke="#0900b2" d="M15 5h5M14 6h4M24 6h1M14 7h2M22 7h2M13 8h2M20 8h2" />
<path stroke="#95088d" d="M12 13h3M18 13h4" />
<path stroke="#b409a9" d="M12 14h3M18 14h4M18 15h1M21 15h1M12 16h3M18 16h4" />
<path stroke="#b409ab" d="M12 15h1M14 15h1M19 15h1" />
<path stroke="#ff8a00" d="M10 16h1M10 17h2M23 17h4M16 18h1M22 18h2M26 18h2M8 19h8M21 19h5M27 19h2M7 20h2M13 20h12M26 20h1M28 20h1M7 21h1M9 21h4M17 21h7M25 21h4M8 22h2M13 22h1M25 22h2M14 23h1M24 23h2M15 24h1M24 24h1M16 25h1M23 25h1M16 26h1M22 26h1M17 27h1M21 27h1M18 28h3" />
<path stroke="#ff0000" d="M15 22h2M16 23h3M22 23h1M17 24h1M21 24h2M20 25h2M18 26h3" />
<path stroke="#fc809a" d="M19 23h3M18 24h3M18 25h2" />
<path stroke="#aaa9a9" d="M22 31h1M19 32h1M21 32h1M20 33h1" />
<path stroke="#5b5656" d="M17 32h1M24 32h1M16 33h1M25 33h1M15 34h1M26 34h1M14 35h1M27 35h1M13 36h1M28 36h1M31 36h2M14 37h1M26 37h2M30 37h1M15 38h1M25 38h1M29 38h1M16 39h1M24 39h1M28 39h1" />
<path stroke="#ffb0d4" d="M23 34h1M19 35h1M21 35h2M19 36h4M19 37h4M19 38h3M20 39h2" />
</svg>