<svg xmlns="http://www.w3.org/2000/svg" viewBox="0 -0.5 40 40" shape-rendering="crispEdges">
<metadata>Made with Pixels to Svg https://codepen.io/shshaw/pen/XbxvNj</metadata>
<path stroke="#9f05c5" d="M0 0h36M37 0h3M0 1h40M0 2h40M0 3h40M0 4h40M0 5h40M0 6h40M0 7h13M23 7h17M0 8h12M24 8h10M36 8h4M0 9h11M25 9h8M37 9h3M0 10h10M26 10h3M37 10h3M0 11h10M27 11h1M36 11h4M0 12h10M36 12h4M0 13h9M35 13h5M0 14h9M33 14h7M0 15h9M35 15h5M0 16h9M29 16h1M36 16h4M0 17h9M29 17h2M36 17h4M0 18h8M29 18h4M35 18h5M0 19h7M30 19h10M0 20h6M30 20h10M0 21h6M30 21h10M0 22h7M29 22h11M0 23h8M10 23h2M27 23h13M0 24h14M26 24h14M0 25h6M8 25h7M25 25h15M0 26h5M9 26h6M24 26h16M0 27h2M4 27h1M9 27h7M23 27h17M0 28h1M9 28h8M23 28h17M0 29h1M9 29h2M13 29h5M23 29h17M0 30h2M9 30h1M14 30h4M24 30h16M0 31h3M14 31h3M25 31h15M0 32h3M13 32h3M26 32h14M0 33h3M12 33h4M27 33h13M0 34h4M10 34h5M30 34h10M0 35h4M10 35h4M32 35h8M0 36h5M11 36h2M33 36h7M0 37h5M12 37h1M33 37h7M0 38h6M34 38h6M0 39h6M34 39h6" />
<path stroke="#9e04c6" d="M36 0h1" />
<path stroke="#000000" d="M13 7h10M12 8h1M23 8h1M34 8h2M11 9h1M24 9h1M33 9h1M36 9h1M10 10h1M25 10h1M29 10h4M36 10h1M10 11h5M17 11h7M26 11h1M28 11h1M35 11h1M10 12h1M15 12h2M24 12h4M35 12h1M9 13h1M27 13h1M30 13h5M9 14h1M28 14h1M32 14h1M9 15h1M28 15h2M33 15h2M9 16h1M14 16h1M20 16h1M28 16h1M30 16h1M35 16h1M9 17h1M13 17h2M19 17h2M27 17h2M31 17h2M35 17h1M8 18h3M15 18h1M24 18h2M28 18h1M33 18h2M7 19h1M16 19h3M26 19h1M29 19h1M6 20h1M9 20h4M25 20h1M27 20h1M29 20h1M6 21h1M8 21h1M13 21h4M24 21h1M29 21h1M7 22h1M10 22h3M14 22h11M27 22h2M8 23h2M12 23h2M15 23h4M22 23h2M26 23h1M14 24h1M16 24h2M21 24h3M25 24h1M6 25h2M15 25h1M17 25h1M20 25h3M24 25h1M5 26h1M8 26h1M15 26h1M17 26h5M23 26h1M2 27h2M5 27h1M8 27h1M16 27h1M18 27h3M22 27h1M1 28h1M4 28h2M8 28h1M17 28h1M21 28h2M1 29h1M5 29h1M8 29h1M11 29h2M18 29h3M22 29h1M2 30h1M5 30h1M8 30h1M10 30h1M13 30h1M18 30h1M22 30h2M3 31h1M7 31h3M13 31h1M17 31h2M23 31h2M3 32h1M12 32h1M16 32h1M25 32h1M3 33h1M10 33h2M16 33h1M26 33h1M4 34h1M9 34h1M15 34h1M27 34h3M4 35h1M9 35h1M14 35h2M30 35h2M5 36h1M10 36h1M13 36h1M31 36h2M5 37h1M11 37h1M32 37h1M6 38h1M12 38h1M28 38h1M33 38h1M6 39h2M12 39h1M15 39h1M28 39h2M33 39h1" />
<path stroke="#53b300" d="M13 8h10M12 9h3M23 9h1M11 10h4M23 10h2M24 11h2" />
<path stroke="#54b300" d="M15 9h8M15 10h8M15 11h2M6 26h2M6 27h2M2 28h2M6 28h2M2 29h3M6 29h2M21 29h1M3 30h2M6 30h2M11 30h2M19 30h3M4 31h3M10 31h3M19 31h4M4 32h8M17 32h8M4 33h6M17 33h9M5 34h4M16 34h1M19 34h5M5 35h4M21 35h2M28 35h2M6 36h1M14 36h2M29 36h2M13 37h2M29 37h3M9 38h3M13 38h2M29 38h4M8 39h4M13 39h2M30 39h3" />
<path stroke="#2675ff" d="M34 9h2M33 10h3M29 11h6M11 12h4M17 12h7M28 12h7M10 13h2M15 13h3M21 13h6M28 13h2M10 14h2M16 14h2M22 14h6M29 14h3M10 15h2M16 15h2M22 15h6M30 15h3M10 16h2M16 16h2M22 16h6M31 16h4M10 17h2M16 17h2M22 17h2M33 17h2M11 18h4M18 18h5" />
<path stroke="#ffffff" d="M12 13h3M18 13h3M12 14h4M18 14h4M12 15h4M18 15h4M12 16h2M15 16h1M18 16h2M21 16h1M12 17h1M15 17h1M18 17h1M21 17h1" />
<path stroke="#ff8900" d="M24 17h3M16 18h2M23 18h1M26 18h2M8 19h8M19 19h7M27 19h2M7 20h2M13 20h12M26 20h1M28 20h1M7 21h1M9 21h4M17 21h7M25 21h4M8 22h2M13 22h1M25 22h2M14 23h1M24 23h2M15 24h1M24 24h1M16 25h1M23 25h1M16 26h1M22 26h1M17 27h1M21 27h1M18 28h3" />
<path stroke="#f30000" d="M19 23h3M18 24h3M18 25h2" />
<path stroke="#c48a02" d="M17 34h2M24 34h3M16 35h1M19 35h2M23 35h1M27 35h1M16 36h1M20 36h3M21 37h1M21 38h1M27 38h1M20 39h3M27 39h1" />
<path stroke="#ffb400" d="M17 35h2M24 35h3M17 36h3M23 36h5M16 37h5M22 37h6M16 38h5M22 38h5M17 39h3M23 39h4" />
<path stroke="#2677ff" d="M7 36h3M6 37h5M7 38h2" />
<path stroke="#c48902" d="M28 36h1M15 37h1M28 37h1M15 38h1M16 39h1" />
</svg>