<svg xmlns="http://www.w3.org/2000/svg" viewBox="0 -0.5 40 40" shape-rendering="crispEdges">
<metadata>Made with Pixels to Svg https://codepen.io/shshaw/pen/XbxvNj</metadata>
<path stroke="#cd0601" d="M0 0h17M28 0h12M0 1h16M30 1h10M0 2h16M31 2h9M0 3h9M11 3h4M32 3h8M0 4h9M32 4h8M0 5h10M31 5h9M0 6h11M30 6h10M0 7h10M29 7h11M0 8h9M30 8h10M0 9h6M7 9h1M32 9h1M35 9h5M0 10h7M35 10h5M0 11h6M33 11h7M0 12h4M33 12h7M0 13h6M33 13h1M35 13h5M0 14h3M35 14h5M0 15h4M34 15h6M0 16h3M35 16h5" />
<path stroke="#000000" d="M17 0h4M23 0h5M16 1h4M22 1h8M16 2h3M21 2h10M9 3h2M21 3h8M31 3h1M9 4h7M22 4h6M30 4h2M10 5h11M24 5h3M29 5h2M11 6h1M13 6h1M18 6h1M20 6h3M28 6h2M22 7h1M27 7h2M24 8h2M29 8h1M12 9h3M18 9h3M30 9h1M33 9h2M11 10h1M15 10h1M17 10h1M21 10h1M32 10h3M10 11h1M10 12h1M12 12h3M18 12h3M10 13h2M15 13h1M17 13h1M21 13h1M11 14h1M14 14h2M17 14h1M20 14h2M10 15h2M13 15h3M17 15h1M19 15h3M9 16h1M11 16h1M13 16h3M17 16h1M19 16h3M23 16h4M9 17h1M12 17h1M15 17h3M21 17h2M27 17h2M8 18h8M17 18h1M20 18h2M24 18h2M28 18h1M7 19h1M16 19h5M26 19h1M29 19h1M6 20h1M9 20h4M25 20h1M27 20h1M29 20h1M6 21h1M8 21h1M13 21h4M24 21h1M29 21h1M7 22h1M10 22h3M14 22h1M17 22h8M27 22h2M8 23h2M12 23h2M15 23h1M23 23h1M26 23h1M14 24h1M16 24h1M23 24h1M25 24h1M15 25h1M17 25h1M22 25h1M24 25h1M15 26h1M17 26h1M21 26h1M23 26h1M16 27h1M18 27h3M22 27h1M17 28h1M21 28h2M19 29h1M22 29h1M18 30h1M22 30h2M17 31h2M23 31h2M16 32h1M25 32h1M16 33h1M26 33h1M15 34h1M27 34h3M14 35h2M30 35h2M13 36h1M31 36h2M12 37h1M32 37h1M12 38h1M28 38h1M33 38h1M12 39h1M15 39h1M28 39h2M33 39h1" />
<path stroke="#5e5b5b" d="M21 0h2M20 1h2M19 2h2M30 3h1M29 4h1M28 5h1M27 6h1M17 32h2M23 32h2M17 33h2M23 33h3M16 34h3M23 34h4M16 35h3M22 35h4M28 35h2M14 36h2M17 36h2M22 36h4M27 36h4M13 37h3M18 37h1M22 37h3M26 37h6M13 38h4M18 38h1M22 38h2M25 38h3M29 38h4M13 39h2M16 39h1M21 39h3M25 39h3M30 39h3" />
<path stroke="#302e2e" d="M15 3h6M29 3h1M16 4h6M28 4h1M21 5h3M27 5h1M23 6h4M25 7h2M27 8h1M26 35h2M16 36h1M26 36h1M16 37h2M25 37h1M17 38h1M24 38h1M17 39h2M24 39h1" />
<path stroke="#ffe375" d="M12 6h1M15 6h3M19 6h1M10 7h1M12 7h10M23 7h1M11 8h1M21 8h3M26 8h1M28 8h1M6 9h1M9 9h1M24 9h4M29 9h1M9 10h2M25 10h6M6 11h1M8 11h2M26 11h2M30 11h1M5 12h1M7 12h3M24 12h1M26 12h1M28 12h1M30 12h1M6 13h1M8 13h1M29 13h1M32 13h1M3 14h3M8 14h2M28 14h1M6 15h1M8 15h2M28 15h1M30 15h1M3 16h2M6 16h1M8 16h1M32 16h1M5 17h3M30 17h1M32 17h1M4 18h1M6 18h2M29 18h1M5 19h2M31 19h3M4 20h1M31 20h2M30 21h1M31 22h1M21 32h1M19 33h1M20 35h1M19 37h1M21 38h1M19 39h1" />
<path stroke="#f9ebb5" d="M14 6h1M11 7h1M31 9h1M28 11h1M32 11h1M4 12h1M31 12h1M31 13h1M34 13h1M6 14h1M33 14h1M33 15h1M5 16h1M34 16h1" />
<path stroke="#f8e498" d="M24 7h1M9 8h2M8 9h1M10 9h1M28 9h1M7 10h2M31 10h1M7 11h1M29 11h1M31 11h1M6 12h1M29 12h1M32 12h1M7 13h1M30 13h1M7 14h1M29 14h4M34 14h1M4 15h2M7 15h1M31 15h2M31 16h1M33 16h1M31 17h1M33 17h2M31 18h2" />
<path stroke="#ffffff" d="M12 8h9M11 9h1M15 9h3M21 9h2M12 10h3M16 10h1M18 10h3M22 10h1M11 11h14M11 12h1M15 12h3M21 12h3M12 13h3M16 13h1M18 13h3M22 13h5M12 14h2M16 14h1M18 14h2M22 14h4M12 15h1M16 15h1M18 15h1M22 15h6M12 16h1M16 16h1M18 16h1M22 16h1M27 16h1M13 17h2M18 17h3M18 18h2M20 29h2M19 30h3M20 31h1" />
<path stroke="#fad64e" d="M23 9h1M23 10h2M25 11h1M25 12h1M27 12h1M9 13h1M27 13h2M10 14h1M26 14h2M29 15h1M7 16h1M28 16h3M8 17h1M29 17h1M30 18h1M30 19h1M30 20h1" />
<path stroke="#ff8a00" d="M10 16h1M10 17h2M23 17h4M16 18h1M22 18h2M26 18h2M8 19h8M21 19h5M27 19h2M7 20h2M13 20h12M26 20h1M28 20h1M7 21h1M9 21h4M17 21h7M25 21h4M8 22h2M13 22h1M25 22h2M14 23h1M24 23h2M15 24h1M24 24h1M16 25h1M23 25h1M16 26h1M22 26h1M17 27h1M21 27h1M18 28h3" />
<path stroke="#cd0600" d="M0 17h5M35 17h5" />
<path stroke="#cd0800" d="M0 18h4M5 18h1M36 18h4" />
<path stroke="#cd0700" d="M33 18h3" />
<path stroke="#ce0d00" d="M0 19h5M36 19h4" />
<path stroke="#ce0c00" d="M34 19h2" />
<path stroke="#cf1600" d="M0 20h4M5 20h1M36 20h4" />
<path stroke="#cf1500" d="M33 20h3" />
<path stroke="#d12500" d="M0 21h6M36 21h4" />
<path stroke="#d12200" d="M31 21h1" />
<path stroke="#d12300" d="M32 21h1" />
<path stroke="#d12400" d="M33 21h3" />
<path stroke="#d53b00" d="M0 22h6M36 22h4" />
<path stroke="#d53a00" d="M6 22h1M34 22h2" />
<path stroke="#ff0000" d="M15 22h2M16 23h3M22 23h1M17 24h1M21 24h2M20 25h2M18 26h3" />
<path stroke="rgba(209,48,0,0.984313725490196)" d="M29 22h1" />
<path stroke="rgba(211,51,0,0.9921568627450981)" d="M30 22h1" />
<path stroke="#d53800" d="M32 22h1" />
<path stroke="#d53900" d="M33 22h1" />
<path stroke="#db5500" d="M0 23h5M37 23h3" />
<path stroke="#db5400" d="M5 23h3M34 23h3" />
<path stroke="rgba(217,80,0,0.9725490196078431)" d="M10 23h1" />
<path stroke="rgba(216,78,0,0.9490196078431372)" d="M11 23h1" />
<path stroke="#fc809a" d="M19 23h3M18 24h3M18 25h2" />
<path stroke="rgba(212,68,0,0.9215686274509803)" d="M27 23h1" />
<path stroke="rgba(213,70,0,0.9490196078431372)" d="M28 23h1" />
<path stroke="rgba(214,73,0,0.9725490196078431)" d="M29 23h1" />
<path stroke="rgba(216,77,0,0.9882352941176471)" d="M30 23h1" />
<path stroke="#d95000" d="M31 23h1" />
<path stroke="#da5200" d="M32 23h1" />
<path stroke="#db5300" d="M33 23h1" />
<path stroke="#e37300" d="M0 24h7M35 24h5" />
<path stroke="#e37200" d="M7 24h1M33 24h2" />
<path stroke="rgba(227,113,0,0.996078431372549)" d="M8 24h1" />
<path stroke="rgba(227,113,0,0.984313725490196)" d="M9 24h1" />
<path stroke="rgba(226,112,0,0.9607843137254902)" d="M10 24h1" />
<path stroke="rgba(224,110,0,0.9333333333333333)" d="M11 24h1" />
<path stroke="rgba(223,108,0,0.8980392156862745)" d="M12 24h1" />
<path stroke="rgba(222,106,0,0.8666666666666667)" d="M13 24h1" />
<path stroke="rgba(219,102,0,0.8666666666666667)" d="M26 24h1" />
<path stroke="rgba(219,101,0,0.8980392156862745)" d="M27 24h1" />
<path stroke="rgba(220,103,0,0.9333333333333333)" d="M28 24h1" />
<path stroke="rgba(222,105,0,0.9607843137254902)" d="M29 24h1" />
<path stroke="rgba(224,108,0,0.984313725490196)" d="M30 24h1" />
<path stroke="rgba(225,110,0,0.996078431372549)" d="M31 24h1" />
<path stroke="#e27000" d="M32 24h1" />
<path stroke="#eb8e00" d="M0 25h8M34 25h6" />
<path stroke="rgba(235,142,0,0.996078431372549)" d="M8 25h1" />
<path stroke="rgba(235,141,0,0.984313725490196)" d="M9 25h1" />
<path stroke="rgba(234,142,0,0.9607843137254902)" d="M10 25h1" />
<path stroke="rgba(233,140,0,0.9333333333333333)" d="M11 25h1" />
<path stroke="rgba(233,140,0,0.8941176470588236)" d="M12 25h1" />
<path stroke="rgba(231,140,0,0.8666666666666667)" d="M13 25h1" />
<path stroke="rgba(230,139,0,0.8431372549019608)" d="M14 25h1" />
<path stroke="rgba(229,138,0,0.8431372549019608)" d="M25 25h1" />
<path stroke="rgba(228,136,0,0.8666666666666667)" d="M26 25h1" />
<path stroke="rgba(229,135,0,0.8941176470588236)" d="M27 25h1" />
<path stroke="rgba(230,134,0,0.9294117647058824)" d="M28 25h1" />
<path stroke="rgba(230,134,0,0.9607843137254902)" d="M29 25h1" />
<path stroke="rgba(232,136,0,0.984313725490196)" d="M30 25h1" />
<path stroke="rgba(233,139,0,0.996078431372549)" d="M31 25h1" />
<path stroke="#ea8c00" d="M32 25h1" />
<path stroke="#eb8d00" d="M33 25h1" />
<path stroke="#f3a700" d="M0 26h7M35 26h5" />
<path stroke="#f3a600" d="M7 26h1M33 26h2" />
<path stroke="#f2a600" d="M8 26h1" />
<path stroke="rgba(243,166,0,0.9882352941176471)" d="M9 26h1" />
<path stroke="rgba(242,166,0,0.9725490196078431)" d="M10 26h1" />
<path stroke="rgba(241,166,0,0.9490196078431372)" d="M11 26h1" />
<path stroke="rgba(241,166,0,0.9215686274509803)" d="M12 26h1" />
<path stroke="rgba(241,167,0,0.8980392156862745)" d="M13 26h1" />
<path stroke="rgba(241,167,0,0.8784313725490196)" d="M14 26h1" />
<path stroke="rgba(240,167,0,0.8705882352941177)" d="M24 26h1" />
<path stroke="rgba(240,166,0,0.8784313725490196)" d="M25 26h1" />
<path stroke="rgba(238,165,0,0.8980392156862745)" d="M26 26h1" />
<path stroke="rgba(240,165,0,0.9176470588235294)" d="M27 26h1" />
<path stroke="rgba(240,163,0,0.9450980392156862)" d="M28 26h1" />
<path stroke="rgba(241,162,0,0.9686274509803922)" d="M29 26h1" />
<path stroke="rgba(240,163,0,0.9882352941176471)" d="M30 26h1" />
<path stroke="#f1a400" d="M31 26h1" />
<path stroke="#f3a500" d="M32 26h1" />
<path stroke="#f9b800" d="M0 27h9M33 27h7" />
<path stroke="rgba(249,184,0,0.9921568627450981)" d="M9 27h1" />
<path stroke="rgba(248,184,0,0.984313725490196)" d="M10 27h1" />
<path stroke="rgba(248,184,0,0.9686274509803922)" d="M11 27h1" />
<path stroke="rgba(249,185,0,0.9450980392156862)" d="M12 27h1" />
<path stroke="rgba(249,186,0,0.9294117647058824)" d="M13 27h1" />
<path stroke="rgba(246,186,0,0.9215686274509803)" d="M14 27h1M25 27h1" />
<path stroke="rgba(246,186,0,0.9137254901960784)" d="M15 27h1M24 27h1" />
<path stroke="rgba(247,186,0,0.9098039215686274)" d="M23 27h1" />
<path stroke="rgba(246,185,0,0.9294117647058824)" d="M26 27h1" />
<path stroke="rgba(247,184,0,0.9450980392156862)" d="M27 27h1" />
<path stroke="rgba(247,182,0,0.9647058823529412)" d="M28 27h1" />
<path stroke="rgba(247,182,0,0.9803921568627451)" d="M29 27h1" />
<path stroke="rgba(247,182,0,0.9921568627450981)" d="M30 27h1" />
<path stroke="#f8b700" d="M31 27h1" />
<path stroke="#f9b700" d="M32 27h1" />
<path stroke="#fdc300" d="M0 28h9M32 28h8" />
<path stroke="#fcc200" d="M9 28h1M31 28h1" />
<path stroke="rgba(252,195,0,0.9921568627450981)" d="M10 28h1" />
<path stroke="rgba(252,195,0,0.984313725490196)" d="M11 28h1" />
<path stroke="rgba(251,195,0,0.9764705882352941)" d="M12 28h1" />
<path stroke="rgba(251,195,0,0.9686274509803922)" d="M13 28h1" />
<path stroke="rgba(252,196,0,0.9607843137254902)" d="M14 28h1" />
<path stroke="rgba(252,195,0,0.9568627450980393)" d="M15 28h1M24 28h1" />
<path stroke="rgba(251,195,0,0.9568627450980393)" d="M16 28h1M23 28h1" />
<path stroke="rgba(251,196,0,0.9607843137254902)" d="M25 28h1" />
<path stroke="rgba(251,194,0,0.9686274509803922)" d="M26 28h1" />
<path stroke="rgba(251,194,0,0.9725490196078431)" d="M27 28h1" />
<path stroke="rgba(251,194,0,0.984313725490196)" d="M28 28h1" />
<path stroke="rgba(251,194,0,0.9921568627450981)" d="M29 28h1" />
<path stroke="#fbc100" d="M30 28h1" />
<path stroke="#ffc900" d="M0 29h9M31 29h9" />
<path stroke="#fec900" d="M9 29h2M30 29h1" />
<path stroke="rgba(254,201,0,0.996078431372549)" d="M11 29h1M28 29h1" />
<path stroke="rgba(254,201,0,0.9921568627450981)" d="M12 29h1M27 29h1" />
<path stroke="rgba(254,201,0,0.9882352941176471)" d="M13 29h1M26 29h1" />
<path stroke="rgba(253,200,0,0.9882352941176471)" d="M14 29h2M24 29h2" />
<path stroke="rgba(254,201,0,0.984313725490196)" d="M16 29h1M23 29h1" />
<path stroke="rgba(253,201,0,0.984313725490196)" d="M17 29h2" />
<path stroke="#fec800" d="M29 29h1" />
<path stroke="#ffcb00" d="M0 30h12M28 30h12" />
<path stroke="#fecb00" d="M12 30h1M27 30h1" />
<path stroke="rgba(255,203,0,0.996078431372549)" d="M13 30h4M24 30h3" />
<path stroke="rgba(254,203,0,0.996078431372549)" d="M17 30h1" />
<path stroke="#ffcc00" d="M0 31h17M25 31h15M0 32h16M26 32h14M0 33h16M27 33h13M0 34h15M30 34h10M0 35h14M32 35h8M0 36h13M33 36h7M0 37h12M33 37h7M0 38h12M34 38h6M0 39h12M34 39h6" />
<path stroke="#fb4949" d="M19 31h1M21 31h1M22 32h1M22 33h1M19 34h1M21 34h2M21 35h1" />
<path stroke="#6790b2" d="M22 31h1M20 32h1M19 35h1M21 36h1M21 37h1" />
<path stroke="#678fb2" d="M19 32h1M20 33h2M20 34h1M19 36h2M20 37h1M19 38h2M20 39h1" />
</svg>