<svg xmlns="http://www.w3.org/2000/svg" viewBox="0 -0.5 40 40" shape-rendering="crispEdges">
<metadata>Made with Pixels to Svg https://codepen.io/shshaw/pen/XbxvNj</metadata>
<path stroke="#d0ac11" d="M0 0h3M15 0h2M2 1h1M28 2h2M30 3h1M29 4h3M33 5h1M9 6h1M34 6h1M9 7h2M34 7h1M34 8h1" />
<path stroke="#d7b841" d="M3 0h1M17 0h1" />
<path stroke="#f4de85" d="M4 0h1M18 0h1M19 1h1M6 3h1" />
<path stroke="#fae692" d="M5 0h4M19 0h6M6 1h3M22 1h3M6 2h2M3 6h1M4 7h1" />
<path stroke="#f6e088" d="M9 0h1M25 0h1M5 6h1" />
<path stroke="#dfc151" d="M10 0h1M26 0h1" />
<path stroke="#000000" d="M11 0h4M9 1h2M15 1h4M31 1h2M8 2h1M19 2h5M30 2h1M8 3h1M24 3h2M29 3h1M9 4h1M26 4h3M9 5h1M29 5h1M10 6h1M25 6h2M29 6h1M11 7h1M13 7h12M26 7h1M30 7h1M12 8h1M26 8h1M30 8h1M11 9h4M19 9h3M25 9h1M30 9h1M10 10h1M22 10h1M25 10h1M30 10h1M10 11h1M13 11h2M18 11h3M25 11h1M30 11h1M10 12h1M12 12h1M15 12h1M17 12h1M21 12h1M25 12h1M31 12h1M11 13h1M15 13h1M17 13h1M21 13h1M25 13h1M31 13h1M11 14h1M14 14h2M17 14h1M20 14h2M26 14h1M31 14h1M10 15h2M14 15h2M17 15h1M20 15h2M26 15h1M31 15h1M9 16h1M11 16h1M14 16h2M17 16h1M20 16h2M23 16h4M31 16h1M9 17h1M12 17h1M15 17h3M21 17h2M27 17h1M31 17h1M8 18h8M17 18h1M20 18h2M24 18h2M28 18h1M31 18h1M7 19h1M16 19h5M26 19h1M29 19h1M31 19h1M6 20h1M9 20h4M25 20h1M27 20h1M29 20h1M31 20h1M6 21h1M8 21h1M13 21h4M24 21h1M29 21h2M7 22h1M10 22h3M14 22h11M27 22h2M8 23h2M12 23h2M15 23h9M26 23h1M14 24h1M16 24h4M23 24h1M25 24h1M15 25h1M17 25h2M22 25h1M24 25h1M15 26h1M17 26h2M21 26h1M23 26h1M16 27h1M18 27h3M22 27h1M17 28h1M21 28h2M13 29h8M22 29h7M14 30h1M17 30h1M21 30h1M27 30h1M15 31h1M18 31h1M20 31h1M26 31h1M16 32h1M19 32h1M25 32h1M17 33h1M24 33h1M17 34h1M25 34h2M16 35h1M27 35h2M15 36h1M18 36h3M26 36h1M29 36h1M15 37h1M25 37h1M29 37h1M14 38h1M18 38h3M24 38h1M30 38h1M14 39h1M24 39h1M30 39h1" />
<path stroke="#d2af22" d="M27 0h1M3 2h1M32 5h1M33 6h1" />
<path stroke="#d1a116" d="M28 0h1" />
<path stroke="#d2601c" d="M29 0h1" />
<path stroke="#d2421e" d="M30 0h1M34 3h1" />
<path stroke="#d01f1e" d="M31 0h1M33 2h1M35 3h1" />
<path stroke="#cf051e" d="M32 0h1M34 2h1M37 5h1" />
<path stroke="#c32355" d="M33 0h1" />
<path stroke="#774bb5" d="M34 0h1" />
<path stroke="#5253ca" d="M35 0h1M39 4h1" />
<path stroke="#2858d5" d="M36 0h1M37 1h1M39 3h1M39 7h1" />
<path stroke="#0c59d8" d="M37 0h3M38 1h2M39 2h1M39 8h1" />
<path stroke="#cfab11" d="M0 1h2M0 2h3M0 3h1M9 8h1" />
<path stroke="#d6b53b" d="M3 1h1" />
<path stroke="#f0d87d" d="M4 1h1M3 8h1" />
<path stroke="#fae590" d="M5 1h1M21 1h1M25 1h1M24 2h2M2 6h1M4 6h1M3 7h1M5 7h1M31 7h1M31 8h1" />
<path stroke="#ff0000" d="M11 1h4M9 2h10M9 3h15M10 4h16M10 5h19M11 6h14M27 6h2M12 7h1M27 7h3M27 8h3M26 9h4M26 10h4M26 11h4M26 12h5M26 13h5M27 14h4M27 15h4M27 16h4M28 17h3M29 18h2M30 19h1M30 20h1" />
<path stroke="#f5e088" d="M20 1h1M1 6h1M2 7h1M6 7h1" />
<path stroke="#f1d97e" d="M26 1h1M26 2h1M2 5h1M4 5h1M31 6h1" />
<path stroke="#d6b53d" d="M27 1h1M27 2h1M31 10h1" />
<path stroke="#d0aa11" d="M28 1h1M31 3h1M32 4h1M34 5h1" />
<path stroke="#d1a216" d="M29 1h1M33 4h1" />
<path stroke="#d19418" d="M30 1h1M34 4h1M35 5h1" />
<path stroke="#ce132f" d="M33 1h1M36 3h1" />
<path stroke="#c32255" d="M34 1h1" />
<path stroke="#b53075" d="M35 1h1" />
<path stroke="#6d4fbd" d="M36 1h1M38 3h1" />
<path stroke="#dcbe50" d="M4 2h1M8 4h1" />
<path stroke="#f5df87" d="M5 2h1" />
<path stroke="#d19718" d="M31 2h1M32 3h1" />
<path stroke="#d2571e" d="M32 2h1" />
<path stroke="#ce122f" d="M35 2h1M37 4h1" />
<path stroke="#b72f70" d="M36 2h1M37 3h1" />
<path stroke="#6b4fbf" d="M37 2h1" />
<path stroke="#2859d6" d="M38 2h1" />
<path stroke="#d0ab11" d="M1 3h3M0 4h1" />
<path stroke="#d7b53c" d="M4 3h1" />
<path stroke="#efd77a" d="M5 3h1" />
<path stroke="#f4de86" d="M7 3h1M3 5h1M0 6h1M30 6h1M0 7h2M4 8h1" />
<path stroke="#ceb578" d="M26 3h1" />
<path stroke="#c3a766" d="M27 3h1" />
<path stroke="#cdac33" d="M28 3h1" />
<path stroke="#d25c1d" d="M33 3h1" />
<path stroke="#d3ae21" d="M1 4h1" />
<path stroke="#d7b53d" d="M2 4h1M8 6h1M8 7h1M33 7h1M33 8h1" />
<path stroke="#d8b742" d="M3 4h2M0 5h1" />
<path stroke="#d8b741" d="M5 4h1" />
<path stroke="#d8b841" d="M6 4h2" />
<path stroke="#d2581c" d="M35 4h1" />
<path stroke="#d0201e" d="M36 4h1" />
<path stroke="#b53076" d="M38 4h1" />
<path stroke="#ddbe51" d="M1 5h1M6 8h1" />
<path stroke="#debf51" d="M5 5h1" />
<path stroke="#d9b842" d="M6 5h1" />
<path stroke="#d7b73d" d="M7 5h1M31 5h1" />
<path stroke="#d4b12a" d="M8 5h1" />
<path stroke="#d8b842" d="M30 5h1" />
<path stroke="#d1431f" d="M36 5h1" />
<path stroke="#c0275e" d="M38 5h1" />
<path stroke="#5951c7" d="M39 5h1" />
<path stroke="#f5de86" d="M6 6h1" />
<path stroke="#efd77c" d="M7 6h1M7 7h1" />
<path stroke="#dcbd4e" d="M32 6h1" />
<path stroke="#d19f17" d="M35 6h1M35 7h1" />
<path stroke="#d1481e" d="M36 6h1M36 7h1" />
<path stroke="#cd132f" d="M37 6h1" />
<path stroke="#b43276" d="M38 6h1" />
<path stroke="#5153ca" d="M39 6h1" />
<path stroke="#ffffff" d="M25 7h1M13 8h13M15 9h4M22 9h3M11 10h11M23 10h2M11 11h2M15 11h3M21 11h4M11 12h1M13 12h2M16 12h1M18 12h3M22 12h3M12 13h3M16 13h1M18 13h3M22 13h3M12 14h2M16 14h1M18 14h2M22 14h4M12 15h2M16 15h1M18 15h2M22 15h4M12 16h2M16 16h1M18 16h2M22 16h1M13 17h2M18 17h3M18 18h2M21 29h1M18 30h3M19 31h1" />
<path stroke="#f0d97e" d="M32 7h1M31 9h1" />
<path stroke="#c32457" d="M37 7h1" />
<path stroke="#714dbb" d="M38 7h1" />
<path stroke="#c7ad79" d="M0 8h1" />
<path stroke="#caaf6d" d="M1 8h1" />
<path stroke="#d9bc59" d="M2 8h1" />
<path stroke="#f0d87e" d="M5 8h1M32 8h1" />
<path stroke="#d6b43c" d="M7 8h1" />
<path stroke="#d1ad21" d="M8 8h1" />
<path stroke="#cdab33" d="M10 8h1" />
<path stroke="#c5a65b" d="M11 8h1" />
<path stroke="#d19e16" d="M35 8h1" />
<path stroke="#d35435" d="M36 8h1" />
<path stroke="#c85e7f" d="M37 8h1" />
<path stroke="#5c5ccc" d="M38 8h1" />
<path stroke="#566ed9" d="M0 9h1" />
<path stroke="#6d76c3" d="M1 9h1" />
<path stroke="#b39c82" d="M2 9h1" />
<path stroke="#c6ab70" d="M3 9h1" />
<path stroke="#c7ad70" d="M4 9h1" />
<path stroke="#c6ab6e" d="M5 9h1" />
<path stroke="#c0a464" d="M6 9h1" />
<path stroke="#bfa262" d="M7 9h2" />
<path stroke="#bfa263" d="M9 9h1" />
<path stroke="#b29b85" d="M10 9h1" />
<path stroke="#dbbd4d" d="M32 9h1" />
<path stroke="#d1ae21" d="M33 9h1" />
<path stroke="#cdaa2e" d="M34 9h1" />
<path stroke="#c2975a" d="M35 9h1" />
<path stroke="#cb7881" d="M36 9h1" />
<path stroke="#dcc6d9" d="M37 9h1" />
<path stroke="#677ee1" d="M38 9h1" />
<path stroke="#0c59d9" d="M39 9h1M34 12h1" />
<path stroke="#0b5adc" d="M0 10h1M36 12h1" />
<path stroke="#255dda" d="M1 10h1" />
<path stroke="#4f6bd9" d="M2 10h1" />
<path stroke="#566bcd" d="M3 10h1" />
<path stroke="#566bc9" d="M4 10h1" />
<path stroke="#566dc9" d="M5 10h1" />
<path stroke="#566dca" d="M6 10h1" />
<path stroke="#566dce" d="M7 10h2" />
<path stroke="#566dd2" d="M9 10h1" />
<path stroke="#cfad35" d="M32 10h1" />
<path stroke="#c2a559" d="M33 10h1" />
<path stroke="#b29b79" d="M34 10h1" />
<path stroke="#6f73bc" d="M35 10h1" />
<path stroke="#7b7dd3" d="M36 10h1" />
<path stroke="#c7cdf5" d="M37 10h1" />
<path stroke="#7f98f2" d="M38 10h1" />
<path stroke="#2d64e3" d="M39 10h1" />
<path stroke="#0b5add" d="M0 11h1M2 14h1M4 14h1" />
<path stroke="#0b59da" d="M1 11h1M33 13h1" />
<path stroke="#105bdc" d="M2 11h1M2 13h1" />
<path stroke="#195fde" d="M3 11h1" />
<path stroke="#135dde" d="M4 11h1" />
<path stroke="#1961de" d="M5 11h1" />
<path stroke="#105fe0" d="M6 11h1" />
<path stroke="#085feb" d="M7 11h1" />
<path stroke="#085fec" d="M8 11h1M7 13h1M33 22h1" />
<path stroke="rgba(8,94,238,0.9764705882352941)" d="M9 11h1" />
<path stroke="#bfa36a" d="M31 11h1" />
<path stroke="#b29b7b" d="M32 11h1" />
<path stroke="#6f78bd" d="M33 11h1" />
<path stroke="#4f6acc" d="M34 11h1" />
<path stroke="#265cd6" d="M35 11h1" />
<path stroke="#2d62dc" d="M36 11h1" />
<path stroke="#7891f0" d="M37 11h1" />
<path stroke="#b4c1fa" d="M38 11h1" />
<path stroke="#8099f5" d="M39 11h1" />
<path stroke="#095ce8" d="M0 12h1" />
<path stroke="#0a5adf" d="M1 12h1" />
<path stroke="#1a5fdd" d="M2 12h1" />
<path stroke="#2f71e9" d="M3 12h1" />
<path stroke="#2267ec" d="M4 12h1" />
<path stroke="#2f72ef" d="M5 12h1" />
<path stroke="#1a64ed" d="M6 12h1" />
<path stroke="#0860ee" d="M7 12h1" />
<path stroke="#0a5ee5" d="M8 12h1" />
<path stroke="rgba(8,92,234,0.8980392156862745)" d="M9 12h1" />
<path stroke="#4f6ad0" d="M32 12h1" />
<path stroke="#265dd7" d="M33 12h1" />
<path stroke="#0b59d9" d="M35 12h1" />
<path stroke="#2c63e1" d="M37 12h1" />
<path stroke="#7f96f5" d="M38 12h1" />
<path stroke="#d9e0fd" d="M39 12h1M0 16h1" />
<path stroke="#0b5be5" d="M0 13h1" />
<path stroke="#0a5ce7" d="M1 13h1" />
<path stroke="#1860e0" d="M3 13h1" />
<path stroke="#125de0" d="M4 13h1" />
<path stroke="#1862ea" d="M5 13h1" />
<path stroke="#105ee7" d="M6 13h1" />
<path stroke="#0b5dde" d="M8 13h1" />
<path stroke="rgba(10,92,222,0.9764705882352941)" d="M9 13h1" />
<path stroke="rgba(7,93,237,0.8745098039215686)" d="M10 13h1" />
<path stroke="#0a5be0" d="M32 13h1" />
<path stroke="#105bdd" d="M34 13h1" />
<path stroke="#1c61e1" d="M35 13h1" />
<path stroke="#1c64ea" d="M36 13h1" />
<path stroke="#105de5" d="M37 13h1" />
<path stroke="#6786f3" d="M38 13h1" />
<path stroke="#e8edfe" d="M39 13h1" />
<path stroke="#6181f0" d="M0 14h1" />
<path stroke="#2d63e1" d="M1 14h1" />
<path stroke="#095ce7" d="M3 14h1" />
<path stroke="#0a5ade" d="M5 14h1M5 15h1" />
<path stroke="#095ee9" d="M6 14h1" />
<path stroke="#095fea" d="M7 14h1" />
<path stroke="#0b5ddd" d="M8 14h1" />
<path stroke="#0b5de0" d="M9 14h1" />
<path stroke="#085fef" d="M10 14h1" />
<path stroke="#095de9" d="M32 14h1" />
<path stroke="#0b5bdf" d="M33 14h1" />
<path stroke="#1b63e9" d="M34 14h1M3 17h1" />
<path stroke="#387cf1" d="M35 14h1" />
<path stroke="#397cf2" d="M36 14h1" />
<path stroke="#1c64ee" d="M37 14h1" />
<path stroke="#5e81f5" d="M38 14h1" />
<path stroke="#d3dafd" d="M39 14h1M2 20h1" />
<path stroke="#d8ddfa" d="M0 15h1" />
<path stroke="#6282e6" d="M1 15h1" />
<path stroke="#1961e1" d="M2 15h1" />
<path stroke="#105fec" d="M3 15h1M6 16h1" />
<path stroke="#0a5be2" d="M4 15h1" />
<path stroke="#0a5be1" d="M6 15h1" />
<path stroke="#0b5cdd" d="M7 15h1" />
<path stroke="#2d64df" d="M8 15h1" />
<path stroke="#577cf0" d="M9 15h1" />
<path stroke="#0a5ce0" d="M32 15h1M33 16h1M34 20h1" />
<path stroke="#0b5cdb" d="M33 15h1" />
<path stroke="#1a63e4" d="M34 15h1" />
<path stroke="#377cf2" d="M35 15h1" />
<path stroke="#387cf2" d="M36 15h1" />
<path stroke="#1b63e3" d="M37 15h1" />
<path stroke="#2c66ec" d="M38 15h1" />
<path stroke="#5e80f2" d="M39 15h1" />
<path stroke="#839df5" d="M1 16h1" />
<path stroke="#3f79f1" d="M2 16h1" />
<path stroke="#1b64ef" d="M3 16h1" />
<path stroke="#1b65ef" d="M4 16h2M35 16h1" />
<path stroke="#0a5de0" d="M7 16h1" />
<path stroke="#6080e5" d="M8 16h1" />
<path stroke="#ff8a00" d="M10 16h1M10 17h2M23 17h4M16 18h1M22 18h2M26 18h2M8 19h8M21 19h5M27 19h2M7 20h2M13 20h12M26 20h1M28 20h1M7 21h1M9 21h4M17 21h7M25 21h4M8 22h2M13 22h1M25 22h2M14 23h1M24 23h2M15 24h1M24 24h1M16 25h1M23 25h1M16 26h1M22 26h1M17 27h1M21 27h1M18 28h3" />
<path stroke="#0a5ce1" d="M32 16h1M33 20h1" />
<path stroke="#105fea" d="M34 16h1" />
<path stroke="#1d66ef" d="M36 16h1" />
<path stroke="#1c63e3" d="M37 16h1" />
<path stroke="#115ee2" d="M38 16h1" />
<path stroke="#0a5de2" d="M39 16h1M33 21h1M35 21h1" />
<path stroke="#869df8" d="M0 17h1" />
<path stroke="#c4cffc" d="M1 17h1M2 21h1" />
<path stroke="#6285f4" d="M2 17h1" />
<path stroke="#3376f2" d="M4 17h1" />
<path stroke="#3478f4" d="M5 17h1" />
<path stroke="#1a64f3" d="M6 17h1" />
<path stroke="#0760ef" d="M7 17h1" />
<path stroke="#6887f3" d="M8 17h1" />
<path stroke="#075eef" d="M32 17h1" />
<path stroke="#0f5fec" d="M33 17h1" />
<path stroke="#1962e5" d="M34 17h1" />
<path stroke="#1460e4" d="M35 17h1" />
<path stroke="#2369f0" d="M36 17h1" />
<path stroke="#3578f0" d="M37 17h1" />
<path stroke="#1c65ef" d="M38 17h1" />
<path stroke="#085eee" d="M39 17h1" />
<path stroke="#5f82f6" d="M0 18h1M2 23h1" />
<path stroke="#c3cdfc" d="M1 18h1M3 23h1M4 25h1" />
<path stroke="#7f98f7" d="M2 18h1M1 19h1M2 22h1M4 26h1" />
<path stroke="#2f68f1" d="M3 18h1" />
<path stroke="#1c65f3" d="M4 18h2M38 18h1" />
<path stroke="#1060f2" d="M6 18h1" />
<path stroke="#065ff2" d="M7 18h1M32 18h1M39 18h1M4 19h3M32 19h1M39 19h1M5 20h1M38 20h2M5 21h1M31 21h1M38 21h2M0 22h1M37 22h3M0 23h1M37 23h3M0 24h1M39 24h1M0 25h1" />
<path stroke="#1964f2" d="M33 18h1" />
<path stroke="#2e73f1" d="M34 18h1" />
<path stroke="#236af0" d="M35 18h1" />
<path stroke="#387cf5" d="M36 18h2" />
<path stroke="#2c69f3" d="M0 19h1M1 22h1M2 24h1" />
<path stroke="#c6cffc" d="M2 19h1" />
<path stroke="#6183f6" d="M3 19h1" />
<path stroke="#0e5fef" d="M33 19h1" />
<path stroke="#1863ef" d="M34 19h1M36 20h1" />
<path stroke="#1d66f3" d="M35 19h1" />
<path stroke="#3278f4" d="M36 19h1" />
<path stroke="#226af3" d="M37 19h1" />
<path stroke="#0f60f2" d="M38 19h1M37 20h1" />
<path stroke="#0661f2" d="M0 20h1M0 21h1M29 22h2M1 23h1M6 23h2M27 23h5M33 23h4M1 24h1M7 24h7M27 24h12M1 25h2M7 25h1M32 25h8M0 26h3M34 26h6M0 27h1M37 27h3M39 28h1" />
<path stroke="#6888f6" d="M1 20h1" />
<path stroke="#6989f6" d="M3 20h1" />
<path stroke="#0760f2" d="M4 20h1" />
<path stroke="#085eef" d="M32 20h1" />
<path stroke="#0f5feb" d="M35 20h1" />
<path stroke="#5e83f6" d="M1 21h1" />
<path stroke="#8099f8" d="M3 21h1M5 25h1" />
<path stroke="#2e68f3" d="M4 21h1" />
<path stroke="#085eec" d="M32 21h1" />
<path stroke="#0a5cde" d="M34 21h1" />
<path stroke="#095de6" d="M36 21h1" />
<path stroke="#075ff0" d="M37 21h1" />
<path stroke="#c4cefc" d="M3 22h1M4 24h1" />
<path stroke="#6084f6" d="M4 22h1M5 24h1" />
<path stroke="#0761f2" d="M5 22h1M6 24h1" />
<path stroke="#0660f2" d="M6 22h1" />
<path stroke="#0760f0" d="M31 22h1M32 23h1" />
<path stroke="#095ee7" d="M32 22h1" />
<path stroke="#085fee" d="M34 22h2" />
<path stroke="#075fef" d="M36 22h1" />
<path stroke="#7f99f8" d="M4 23h1" />
<path stroke="#2e69f3" d="M5 23h1M6 25h1" />
<path stroke="#547df5" d="M10 23h1" />
<path stroke="rgba(44,103,243,0.9764705882352941)" d="M11 23h1" />
<path stroke="#7e98f7" d="M3 24h1" />
<path stroke="#ff5353" d="M20 24h3M19 25h3M19 26h2" />
<path stroke="#2d64f1" d="M26 24h1M31 25h1M33 26h1M38 28h1" />
<path stroke="#5e82f6" d="M3 25h1" />
<path stroke="#2d64f2" d="M8 25h1M36 27h1" />
<path stroke="#5f6feb" d="M9 25h1" />
<path stroke="#6871ea" d="M10 25h5M27 25h3M7 26h1" />
<path stroke="#d99bc3" d="M25 25h1M30 26h1M35 28h1" />
<path stroke="#867be4" d="M26 25h1M31 26h1M36 28h1" />
<path stroke="#606feb" d="M30 25h1M32 26h1M37 28h1" />
<path stroke="#2d69f3" d="M3 26h1" />
<path stroke="#c8d0fb" d="M5 26h1" />
<path stroke="#868eee" d="M6 26h1" />
<path stroke="#847ae4" d="M8 26h1" />
<path stroke="#d69ac3" d="M9 26h1" />
<path stroke="#e6a1b9" d="M10 26h5M28 26h2M7 27h1" />
<path stroke="#fbaaaa" d="M24 26h1M10 27h6M23 27h7M7 28h10M23 28h6M8 29h5M9 30h5M28 30h1M9 31h6M27 31h2M9 32h1M29 32h1M36 32h1" />
<path stroke="#f8a9ad" d="M25 26h1M9 27h1" />
<path stroke="#eba3b6" d="M26 26h1" />
<path stroke="#e7a1b9" d="M27 26h1" />
<path stroke="#2a63f1" d="M1 27h1" />
<path stroke="#5c6bea" d="M2 27h1" />
<path stroke="#6770eb" d="M3 27h1" />
<path stroke="#8b8fed" d="M4 27h1" />
<path stroke="#e9d8eb" d="M5 27h1" />
<path stroke="#ebb2c4" d="M6 27h1" />
<path stroke="#eaa3b7" d="M8 27h1" />
<path stroke="#f7a6aa" d="M30 27h1" />
<path stroke="#eaa2b6" d="M31 27h1" />
<path stroke="#d89bc3" d="M32 27h1" />
<path stroke="#857ae4" d="M33 27h1" />
<path stroke="#6871eb" d="M34 27h1" />
<path stroke="#5f6fec" d="M35 27h1" />
<path stroke="#6870ea" d="M0 28h1" />
<path stroke="#7e71de" d="M1 28h1" />
<path stroke="#cd87b4" d="M2 28h1" />
<path stroke="#e39ab3" d="M3 28h1" />
<path stroke="#e9a4b8" d="M4 28h1" />
<path stroke="#f6b1b5" d="M5 28h1" />
<path stroke="#faaaaa" d="M6 28h1" />
<path stroke="#f9a7a7" d="M29 28h1M31 28h1M34 29h1M8 30h1M29 30h1M35 30h1M4 31h1M29 31h1M35 31h2M8 32h1M30 32h1M35 33h1" />
<path stroke="#f59e9e" d="M30 28h1M36 30h1" />
<path stroke="#f8a8ac" d="M32 28h1M35 29h1" />
<path stroke="#ea9fb4" d="M33 28h1M36 29h1" />
<path stroke="#e6a0b9" d="M34 28h1" />
<path stroke="#e299b2" d="M0 29h1" />
<path stroke="#df8da4" d="M1 29h1" />
<path stroke="#eb8f94" d="M2 29h1" />
<path stroke="#f39a9a" d="M3 29h1M5 29h1M33 29h1M3 31h1M34 31h1M5 32h1M4 33h1" />
<path stroke="#f8a5a5" d="M4 29h1M31 29h1M37 31h1M33 33h1" />
<path stroke="#f19797" d="M6 29h1M7 32h1" />
<path stroke="#f7a4a4" d="M7 29h1M30 29h1M36 33h1" />
<path stroke="#fba9a9" d="M29 29h1M35 32h1" />
<path stroke="#f7a3a3" d="M32 29h1M5 30h1M34 30h1M5 31h1M0 32h1M2 32h3M32 32h1M37 32h1M39 34h1" />
<path stroke="#d799c1" d="M37 29h1" />
<path stroke="#8476e1" d="M38 29h1" />
<path stroke="#6970ea" d="M39 29h1" />
<path stroke="#f09393" d="M0 30h1M6 30h1M31 30h1M33 30h1M7 31h1M38 32h1" />
<path stroke="#f09292" d="M1 30h1M6 31h1M32 31h1M39 33h1" />
<path stroke="#ef9293" d="M2 30h1M32 30h1M39 32h1" />
<path stroke="#f6a0a0" d="M3 30h1M1 31h1M1 33h1" />
<path stroke="#faa8a8" d="M4 30h1" />
<path stroke="#f19696" d="M7 30h1M0 33h1M2 33h1M37 33h1" />
<path stroke="#fff4f4" d="M15 30h2M22 30h5M16 31h2M21 31h5M17 32h2M20 32h5M18 33h6M18 34h7M17 35h10M16 36h2M21 36h5M27 36h2M16 37h9M26 37h3M15 38h3M21 38h3M25 38h5M15 39h9M25 39h5" />
<path stroke="#f29797" d="M30 30h1M2 31h1M30 31h1M38 31h1M1 34h1" />
<path stroke="#f4a2a7" d="M37 30h1" />
<path stroke="#e392a8" d="M38 30h1" />
<path stroke="#e59db6" d="M39 30h1" />
<path stroke="#f29696" d="M0 31h1M38 34h1" />
<path stroke="#f8a6a6" d="M8 31h1M31 32h1M38 35h2" />
<path stroke="#f19393" d="M31 31h1" />
<path stroke="#ef9191" d="M33 31h1" />
<path stroke="#f7a2a2" d="M39 31h1" />
<path stroke="#f9a8a8" d="M1 32h1" />
<path stroke="#f09494" d="M6 32h1M3 33h1" />
<path stroke="#faa9a8" d="M10 32h1M28 32h1" />
<path stroke="#faa4a0" d="M11 32h1M27 32h1M31 33h1" />
<path stroke="#f9a39e" d="M12 32h2M15 32h1M26 32h1M30 33h1" />
<path stroke="#f9a19e" d="M14 32h1" />
<path stroke="#f39999" d="M33 32h1" />
<path stroke="#f6a1a1" d="M34 32h1" />
<path stroke="#f7a3a2" d="M5 33h1" />
<path stroke="#f89f9b" d="M6 33h1M38 36h1" />
<path stroke="#f89e9a" d="M7 33h1" />
<path stroke="#f99f9d" d="M8 33h1" />
<path stroke="#f9a09e" d="M9 33h1" />
<path stroke="#f99d94" d="M10 33h1" />
<path stroke="#f28664" d="M11 33h1M6 34h1" />
<path stroke="#f17d54" d="M12 33h1M7 34h1" />
<path stroke="#f07c54" d="M13 33h1M2 36h1" />
<path stroke="#ef7153" d="M14 33h1" />
<path stroke="#f07954" d="M15 33h2" />
<path stroke="#f08054" d="M25 33h2" />
<path stroke="#f28663" d="M27 33h1M31 34h1" />
<path stroke="#f89e92" d="M28 33h1" />
<path stroke="#f9a39d" d="M29 33h1" />
<path stroke="#faa8a7" d="M32 33h1" />
<path stroke="#f59d9d" d="M34 33h1" />
<path stroke="#ee9090" d="M38 33h1" />
<path stroke="#f19494" d="M0 34h1M2 34h1M37 34h1" />
<path stroke="#f29494" d="M3 34h1" />
<path stroke="#f79b99" d="M4 34h1" />
<path stroke="#f89d93" d="M5 34h1" />
<path stroke="#ee6d52" d="M8 34h1" />
<path stroke="#ea6a51" d="M9 34h1" />
<path stroke="#ef774f" d="M10 34h1" />
<path stroke="#ee7039" d="M11 34h1" />
<path stroke="#ec6431" d="M12 34h1" />
<path stroke="#e8682f" d="M13 34h1" />
<path stroke="#eb5d31" d="M14 34h1M2 37h1" />
<path stroke="#ec5d32" d="M15 34h1" />
<path stroke="#ec5e32" d="M16 34h1" />
<path stroke="#ee7439" d="M27 34h1" />
<path stroke="#f07a4e" d="M28 34h1" />
<path stroke="#f07c53" d="M29 34h1" />
<path stroke="#f07d54" d="M30 34h1M1 36h1" />
<path stroke="#f89e94" d="M32 34h1" />
<path stroke="#f9a29d" d="M33 34h1" />
<path stroke="#f89d9a" d="M34 34h1" />
<path stroke="#f89d9c" d="M35 34h1" />
<path stroke="#f39898" d="M36 34h1" />
<path stroke="#f79e99" d="M0 35h3" />
<path stroke="#f69790" d="M3 35h1" />
<path stroke="#f27862" d="M4 35h1" />
<path stroke="#ef7a4f" d="M5 35h1" />
<path stroke="#e97136" d="M6 35h1" />
<path stroke="#e76a2f" d="M7 35h1" />
<path stroke="#e4582d" d="M8 35h1" />
<path stroke="#d04723" d="M9 35h1" />
<path stroke="#e4572e" d="M10 35h1" />
<path stroke="#e6582e" d="M11 35h1" />
<path stroke="#df512a" d="M12 35h1" />
<path stroke="#ce4a22" d="M13 35h1" />
<path stroke="#e6592e" d="M14 35h1" />
<path stroke="#ec5d31" d="M15 35h1" />
<path stroke="#ec6232" d="M29 35h1M34 36h1" />
<path stroke="#ed6632" d="M30 35h1" />
<path stroke="#ed7338" d="M31 35h1M36 37h1" />
<path stroke="#eb794e" d="M32 35h1" />
<path stroke="#ef7b53" d="M33 35h1" />
<path stroke="#ef6e53" d="M34 35h1" />
<path stroke="#f17462" d="M35 35h1" />
<path stroke="#f69891" d="M36 35h1" />
<path stroke="#f8a5a4" d="M37 35h1" />
<path stroke="#f07f54" d="M0 36h1" />
<path stroke="#ef764f" d="M3 36h1" />
<path stroke="#e96137" d="M4 36h1" />
<path stroke="#e76a30" d="M5 36h1" />
<path stroke="#d15324" d="M6 36h1" />
<path stroke="#cf4f22" d="M7 36h1" />
<path stroke="#d94e27" d="M8 36h1" />
<path stroke="#c8421e" d="M9 36h1M11 36h1" />
<path stroke="#de5329" d="M10 36h1" />
<path stroke="#bf3a18" d="M12 36h1" />
<path stroke="#c04019" d="M13 36h1" />
<path stroke="#e0632b" d="M14 36h1" />
<path stroke="#ec7132" d="M30 36h1M1 39h1" />
<path stroke="#e1692c" d="M31 36h1M35 38h1" />
<path stroke="#ce5423" d="M32 36h1" />
<path stroke="#e76b30" d="M33 36h1" />
<path stroke="#ee6439" d="M35 36h1" />
<path stroke="#f1815e" d="M36 36h1" />
<path stroke="#f89b94" d="M37 36h1" />
<path stroke="#f2928c" d="M39 36h1" />
<path stroke="#e76b2f" d="M0 37h1M34 37h1" />
<path stroke="#eb6131" d="M1 37h1" />
<path stroke="#e2572c" d="M3 37h1" />
<path stroke="#d45325" d="M4 37h1" />
<path stroke="#e0642b" d="M5 37h1" />
<path stroke="#e05a2c" d="M6 37h1" />
<path stroke="#df622b" d="M7 37h1" />
<path stroke="#c5451d" d="M8 37h1" />
<path stroke="#c0411a" d="M9 37h1" />
<path stroke="#d75b27" d="M10 37h1" />
<path stroke="#bf4019" d="M11 37h1" />
<path stroke="#b63412" d="M12 37h1" />
<path stroke="#b83613" d="M13 37h1M8 39h1M37 39h1" />
<path stroke="#c74b1e" d="M14 37h1M11 39h1M13 39h1M33 39h1M35 39h1" />
<path stroke="#e76f30" d="M30 37h1" />
<path stroke="#c74c1e" d="M31 37h1" />
<path stroke="#c0421a" d="M32 37h1M6 39h1" />
<path stroke="#df662b" d="M33 37h1" />
<path stroke="#ec7031" d="M35 37h1" />
<path stroke="#e86c4c" d="M37 37h1" />
<path stroke="#e87450" d="M38 37h1" />
<path stroke="#e7744a" d="M39 37h1" />
<path stroke="#d05223" d="M0 38h1" />
<path stroke="#e75c2f" d="M1 38h1" />
<path stroke="#e6592f" d="M2 38h1" />
<path stroke="#cd4a21" d="M3 38h1" />
<path stroke="#d65b26" d="M4 38h1" />
<path stroke="#cc5021" d="M5 38h1" />
<path stroke="#c8491f" d="M6 38h1" />
<path stroke="#d96028" d="M7 38h1M5 39h1M34 39h1" />
<path stroke="#bf4119" d="M8 38h1M32 38h1M9 39h1M36 39h1M38 39h1" />
<path stroke="#ba3915" d="M9 38h1M13 38h1" />
<path stroke="#c4481c" d="M10 38h1" />
<path stroke="#bb3c16" d="M11 38h1" />
<path stroke="#bd3f17" d="M12 38h1" />
<path stroke="#c2461b" d="M31 38h1" />
<path stroke="#c2451b" d="M33 38h1M3 39h1" />
<path stroke="#cd5322" d="M34 38h1" />
<path stroke="#e0672b" d="M36 38h1" />
<path stroke="#c7471e" d="M37 38h1" />
<path stroke="#c2441b" d="M38 38h1" />
<path stroke="#c94d1f" d="M39 38h1" />
<path stroke="#e76f2f" d="M0 39h1" />
<path stroke="#e56a2e" d="M2 39h1" />
<path stroke="#c54a1d" d="M4 39h1" />
<path stroke="#bd3e17" d="M7 39h1" />
<path stroke="#d75f27" d="M10 39h1M12 39h1M32 39h1" />
<path stroke="#c84d1f" d="M31 39h1" />
<path stroke="#de672b" d="M39 39h1" />
</svg>