<svg xmlns="http://www.w3.org/2000/svg" viewBox="0 -0.5 40 40" shape-rendering="crispEdges">
<metadata>Made with Pixels to Svg https://codepen.io/shshaw/pen/XbxvNj</metadata>
<path stroke="#ff0000" d="M0 0h4M0 1h1M36 19h3M18 22h1M16 23h3M17 24h1M21 24h2M20 25h2M18 26h3M0 28h1M0 29h1" />
<path stroke="#fe100f" d="M4 0h1" />
<path stroke="#fe5a59" d="M5 0h1" />
<path stroke="#fed1cf" d="M6 0h1M29 1h1" />
<path stroke="#fefcfa" d="M7 0h1M13 1h1M6 2h1M33 2h1" />
<path stroke="#fdfffd" d="M8 0h5M7 1h6M7 2h4M7 3h4M32 3h1M8 4h1M39 13h1M39 14h1" />
<path stroke="#fefdfb" d="M13 0h1M30 2h3" />
<path stroke="#fed8d6" d="M14 0h1" />
<path stroke="#ff6e6d" d="M15 0h1" />
<path stroke="#dd422c" d="M16 0h1" />
<path stroke="#000000" d="M17 0h3M22 0h2M25 0h1M14 1h13M11 2h15M27 2h2M11 3h17M29 3h1M11 4h3M23 4h9M9 5h2M14 5h1M22 5h2M27 5h3M31 5h1M8 6h1M15 6h1M21 6h2M27 6h6M27 7h1M31 7h1M28 8h1M32 8h1M9 10h6M18 10h5M25 10h2M8 11h1M10 11h1M15 11h1M17 11h1M22 11h1M25 11h1M27 11h1M9 12h2M25 12h2M28 12h2M8 13h1M10 13h1M24 13h2M27 13h1M29 13h2M8 14h3M27 14h2M30 14h2M7 15h1M10 15h1M14 15h1M20 15h1M25 15h8M9 16h1M23 16h10M9 17h1M16 17h1M22 17h1M27 17h4M32 17h2M8 18h4M24 18h2M28 18h6M7 19h1M16 19h6M26 19h1M29 19h4M6 20h1M9 20h4M25 20h1M27 20h1M29 20h1M31 20h3M6 21h1M8 21h1M13 21h9M23 21h2M29 21h3M7 22h1M10 22h5M16 22h2M19 22h4M24 22h1M27 22h5M8 23h4M13 23h1M15 23h1M22 23h2M26 23h1M28 23h5M11 24h4M16 24h1M23 24h1M25 24h8M11 25h2M14 25h2M17 25h1M22 25h1M24 25h2M27 25h5M11 26h5M17 26h1M21 26h1M23 26h7M31 26h1M10 27h7M18 27h3M22 27h1M24 27h5M31 27h2M12 28h6M21 28h8M11 29h1M13 29h11M25 29h4M13 30h1M15 30h2M18 30h5M24 30h1M26 30h1M29 30h1M15 31h2M18 31h4M23 31h2M15 32h6M22 32h2M18 33h5M18 34h4" />
<path stroke="#09ab09" d="M20 0h2M36 5h1M5 6h1M35 6h2M5 7h2M33 7h3M6 8h2M33 8h3M6 9h2M32 9h4M6 10h3M32 10h3M6 11h2M33 11h2M7 12h2M33 12h2M7 13h1M33 13h1M7 14h1M8 15h1M8 16h1M37 24h3M33 25h7M3 26h3M32 26h6M4 27h5M33 27h4M6 28h4M31 28h5M7 29h4M32 29h2M10 30h3M13 31h1M14 32h1" />
<path stroke="#f9eae6" d="M24 0h1" />
<path stroke="#feedeb" d="M26 0h1" />
<path stroke="#ffa8a7" d="M27 0h1M34 0h1" />
<path stroke="#ff6b6a" d="M28 0h1" />
<path stroke="#ffc5c4" d="M29 0h1" />
<path stroke="#ffcfce" d="M30 0h1" />
<path stroke="#ff6f6e" d="M31 0h1" />
<path stroke="#ff4141" d="M32 0h1" />
<path stroke="#ff6565" d="M33 0h1M1 22h1" />
<path stroke="#ff9392" d="M35 0h1" />
<path stroke="#ffd1d0" d="M36 0h1" />
<path stroke="#f8c2bd" d="M37 0h1" />
<path stroke="#de4933" d="M38 0h1" />
<path stroke="#db1b04" d="M39 0h1" />
<path stroke="#ff0202" d="M1 1h2M35 19h1M39 19h1" />
<path stroke="#ff0404" d="M3 1h1" />
<path stroke="#fe2f2e" d="M4 1h1" />
<path stroke="#ffa5a4" d="M5 1h1" />
<path stroke="#feefed" d="M6 1h1M1 4h1" />
<path stroke="#fe5c5b" d="M27 1h1" />
<path stroke="#ff6969" d="M28 1h1" />
<path stroke="#ffefee" d="M30 1h1" />
<path stroke="#ffd8d7" d="M31 1h1" />
<path stroke="#ffc7c6" d="M32 1h1" />
<path stroke="#ffd2d1" d="M33 1h1" />
<path stroke="#fee6e4" d="M34 1h1" />
<path stroke="#f8e5de" d="M35 1h1" />
<path stroke="#fef0ee" d="M36 1h1" />
<path stroke="#e1c2ad" d="M37 1h1" />
<path stroke="#498d15" d="M38 1h1" />
<path stroke="#299406" d="M39 1h1" />
<path stroke="#ff0f0f" d="M0 2h1" />
<path stroke="#ff2c2c" d="M1 2h1M0 11h1" />
<path stroke="#fb2f2c" d="M2 2h1" />
<path stroke="#e62c1c" d="M3 2h1" />
<path stroke="#fa5b57" d="M4 2h1" />
<path stroke="#fecfcd" d="M5 2h1" />
<path stroke="#412601" d="M26 2h1M28 3h1M30 5h1M9 11h1M26 11h1M27 12h1M9 13h1M26 13h1M28 13h1M29 14h1M31 17h1M30 20h1M22 21h1M15 22h1M23 22h1M12 23h1M14 23h1M24 23h1M27 23h1M24 24h1M13 25h1M26 25h1M23 27h1M24 29h1M17 30h1M23 30h1M17 31h1M22 31h1M21 32h1" />
<path stroke="#feecea" d="M29 2h1" />
<path stroke="#fefcfb" d="M34 2h1M0 5h1" />
<path stroke="#f9fcf7" d="M35 2h1" />
<path stroke="#e1f3de" d="M36 2h1" />
<path stroke="#bcc79b" d="M37 2h1" />
<path stroke="#26a011" d="M38 2h1" />
<path stroke="#08ab08" d="M39 2h1M37 4h1M4 5h1M35 5h1M37 5h1M4 6h1M34 6h1M4 7h1M36 7h1M5 8h1M5 9h1M5 10h1M35 10h1M5 11h1M32 11h1M6 12h1M32 12h1M6 13h1M32 13h1M34 13h1M6 14h1M32 14h2M8 17h1M36 24h1M38 26h2M3 27h1M30 27h1M37 27h1M4 28h2M29 28h2M36 28h1M6 29h1M31 29h1M34 29h2M7 30h3M27 30h1M31 30h3M10 31h3M13 32h1M14 33h1" />
<path stroke="#fe5b5a" d="M0 3h1" />
<path stroke="#ffa3a2" d="M1 3h1" />
<path stroke="#e1a792" d="M2 3h1" />
<path stroke="#609a32" d="M3 3h1" />
<path stroke="#bfb086" d="M4 3h1" />
<path stroke="#dee7d0" d="M5 3h1" />
<path stroke="#f8fdf8" d="M6 3h1M7 4h1" />
<path stroke="#fdf1ef" d="M30 3h1" />
<path stroke="#fcfefc" d="M31 3h1" />
<path stroke="#f8f2ed" d="M33 3h1" />
<path stroke="#ddd6c1" d="M34 3h1" />
<path stroke="#bbdab1" d="M35 3h1" />
<path stroke="#41bd41" d="M36 3h1" />
<path stroke="#21b020" d="M37 3h1" />
<path stroke="#10aa0c" d="M38 3h1" />
<path stroke="#269a0c" d="M39 3h1" />
<path stroke="#fed5d4" d="M0 4h1" />
<path stroke="#d7ebcf" d="M2 4h1" />
<path stroke="#2fb42b" d="M3 4h1" />
<path stroke="#24b223" d="M4 4h1" />
<path stroke="#40bd40" d="M5 4h1" />
<path stroke="#c3eac3" d="M6 4h1" />
<path stroke="#fbfdfb" d="M9 4h1M3 15h1" />
<path stroke="#f6f8f6" d="M10 4h1M2 15h1" />
<path stroke="#ec2d02" d="M14 4h2M20 4h3M11 5h2M15 5h2M18 5h4M24 5h1M9 6h2M12 6h3M23 6h1M25 6h2M9 7h3M24 7h3M28 7h3M9 8h2M25 8h1M27 8h1M29 8h1M31 8h1M27 9h2M30 9h2M28 10h1M31 10h1M31 11h1" />
<path stroke="#d72a03" d="M16 4h3M16 6h5M12 7h1M14 7h5M20 7h4M11 8h1M24 8h1M10 9h1M25 9h2M29 9h1M27 10h1M30 10h1M28 11h3M30 12h1" />
<path stroke="#d8826f" d="M19 4h1M13 5h1M17 5h1M25 5h2M11 6h1M24 6h1M13 7h1M19 7h1M26 8h1M30 8h1M29 10h1" />
<path stroke="#f0f3ee" d="M32 4h1" />
<path stroke="#c0c6a0" d="M33 4h1" />
<path stroke="#41a328" d="M34 4h1" />
<path stroke="#21ac1c" d="M35 4h1" />
<path stroke="#0bac0b" d="M36 4h1M6 6h1M7 7h1M33 15h1" />
<path stroke="#1fab1a" d="M38 4h1" />
<path stroke="#ac6d42" d="M39 4h1" />
<path stroke="#fdfefd" d="M1 5h1" />
<path stroke="#dcf3dc" d="M2 5h1" />
<path stroke="#2cb72c" d="M3 5h1M5 14h1" />
<path stroke="#0cac0c" d="M5 5h1M33 6h1M32 7h1M36 8h1M6 15h1M7 16h1" />
<path stroke="#3bbb3b" d="M6 5h1" />
<path stroke="#bfe6bf" d="M7 5h1" />
<path stroke="#f0f4f0" d="M8 5h1" />
<path stroke="#abd0aa" d="M32 5h1" />
<path stroke="#37ae2f" d="M33 5h1" />
<path stroke="#0cab0a" d="M34 5h1" />
<path stroke="#23af22" d="M38 5h1" />
<path stroke="#b5ac94" d="M39 5h1" />
<path stroke="#f4f6f4" d="M0 6h2M0 16h4" />
<path stroke="#d4ecd4" d="M2 6h1" />
<path stroke="#2bb62b" d="M3 6h1" />
<path stroke="#36b736" d="M7 6h1" />
<path stroke="#0cad0c" d="M37 6h1M34 14h1M9 15h1" />
<path stroke="#3bb73b" d="M38 6h1" />
<path stroke="#c2d6c0" d="M39 6h1" />
<path stroke="#dbdbd9" d="M0 7h1" />
<path stroke="#dbdddb" d="M1 7h1M0 17h5" />
<path stroke="#bed6be" d="M2 7h1" />
<path stroke="#27b227" d="M3 7h1" />
<path stroke="#36b235" d="M8 7h1" />
<path stroke="#23b423" d="M37 7h1M35 12h1" />
<path stroke="#b8e0b7" d="M38 7h1" />
<path stroke="#eff2ed" d="M39 7h1" />
<path stroke="#daacab" d="M0 8h1" />
<path stroke="#d4c5c4" d="M1 8h1" />
<path stroke="#bacbb6" d="M2 8h1" />
<path stroke="#3bb53a" d="M3 8h1" />
<path stroke="#0bab0b" d="M4 8h1" />
<path stroke="#20a919" d="M8 8h1" />
<path stroke="#e8e0e0" d="M12 8h12M11 9h2M24 9h1" />
<path stroke="#40b83c" d="M37 8h1" />
<path stroke="#ddcab4" d="M38 8h1" />
<path stroke="#fdc4c2" d="M39 8h1" />
<path stroke="#ee4949" d="M0 9h1" />
<path stroke="#e08988" d="M1 9h1" />
<path stroke="#d8a39f" d="M2 9h1" />
<path stroke="#aaa47d" d="M3 9h1" />
<path stroke="#22a91a" d="M4 9h1" />
<path stroke="#0ba908" d="M8 9h1" />
<path stroke="#399010" d="M9 9h1" />
<path stroke="#ffffff" d="M13 9h11M15 10h3M23 10h2M11 11h1M16 11h1M21 11h1M23 11h2M16 12h1M22 12h3M16 13h1M22 13h2M16 14h1M22 15h3M16 16h1M22 16h1M21 35h2M20 36h3M20 37h2M20 38h2M21 39h1" />
<path stroke="#21a616" d="M36 9h1" />
<path stroke="#b2966e" d="M37 9h1" />
<path stroke="#f35653" d="M38 9h1" />
<path stroke="#ff3e3e" d="M39 9h1" />
<path stroke="#fc1a19" d="M0 10h1" />
<path stroke="#f75252" d="M1 10h1" />
<path stroke="#f55d5d" d="M2 10h1" />
<path stroke="#d44d37" d="M3 10h1" />
<path stroke="#2b980e" d="M4 10h1" />
<path stroke="#28a013" d="M36 10h1" />
<path stroke="#d25c45" d="M37 10h1" />
<path stroke="#fb2929" d="M38 10h1" />
<path stroke="#ff3333" d="M39 10h1" />
<path stroke="#ff9595" d="M1 11h1" />
<path stroke="#ffa4a4" d="M2 11h1" />
<path stroke="#dc624c" d="M3 11h1" />
<path stroke="#2d940a" d="M4 11h1" />
<path stroke="#9e9898" d="M12 11h2M18 11h2M11 12h1M17 12h1M11 13h1M17 13h1M11 14h1M17 14h1M22 14h5M11 15h1M15 15h1M17 15h1M11 16h1M15 16h1M17 16h1M15 17h1M17 17h1M13 18h3M17 18h4" />
<path stroke="#bcb4b4" d="M14 11h1M20 11h1M15 12h1M21 12h1M15 13h1M21 13h1M15 14h1M21 14h1M16 15h1M21 15h1M21 16h1M11 17h1M21 17h1M12 18h1M21 18h1" />
<path stroke="#0dac0b" d="M35 11h1" />
<path stroke="#42b135" d="M36 11h1" />
<path stroke="#d5a08a" d="M37 11h1" />
<path stroke="#f37775" d="M38 11h1" />
<path stroke="#ffa7a6" d="M39 11h1" />
<path stroke="#ff2f2f" d="M0 12h1" />
<path stroke="#fea3a2" d="M1 12h1" />
<path stroke="#fededd" d="M2 12h1" />
<path stroke="#e2b29d" d="M3 12h1" />
<path stroke="#44981c" d="M4 12h1" />
<path stroke="#0ca908" d="M5 12h1M35 24h1M12 29h1" />
<path stroke="#b0c5e2" d="M12 12h3M18 12h3" />
<path stroke="#229e0c" d="M31 12h1" />
<path stroke="#bfe6bd" d="M36 12h1" />
<path stroke="#f3eae5" d="M37 12h1" />
<path stroke="#fcdddb" d="M38 12h1" />
<path stroke="#fef1ef" d="M39 12h1" />
<path stroke="#fe4848" d="M0 13h1" />
<path stroke="#f98080" d="M1 13h1" />
<path stroke="#f8d7d6" d="M2 13h1" />
<path stroke="#f7ede8" d="M3 13h1" />
<path stroke="#c5cda6" d="M4 13h1" />
<path stroke="#27b021" d="M5 13h1" />
<path stroke="#c3d9f9" d="M12 13h3M18 13h3M12 14h3M18 14h3M12 15h2M18 15h2M12 16h3M18 16h3M12 17h3M18 17h3" />
<path stroke="#0caa0a" d="M31 13h1" />
<path stroke="#29b629" d="M35 13h1" />
<path stroke="#d8f0d8" d="M36 13h1" />
<path stroke="#f8faf8" d="M37 13h1" />
<path stroke="#fcfcfa" d="M38 13h1M3 21h1" />
<path stroke="#fbc3c2" d="M0 14h1" />
<path stroke="#edc3c2" d="M1 14h1" />
<path stroke="#e8e2e0" d="M2 14h1" />
<path stroke="#f9f9f7" d="M3 14h1" />
<path stroke="#dcf2da" d="M4 14h1" />
<path stroke="#43bf43" d="M35 14h1" />
<path stroke="#dcf2dc" d="M36 14h1" />
<path stroke="#f2f3f2" d="M37 14h1" />
<path stroke="#f9fbf9" d="M38 14h1" />
<path stroke="#fcfaf9" d="M0 15h1" />
<path stroke="#f7f6f4" d="M1 15h1" />
<path stroke="#e1f5e1" d="M4 15h1" />
<path stroke="#46c146" d="M5 15h1" />
<path stroke="#23b223" d="M34 15h1" />
<path stroke="#bee5bc" d="M35 15h1" />
<path stroke="#f6f8f3" d="M36 15h1" />
<path stroke="#f9f7f5" d="M37 15h1" />
<path stroke="#faf8f6" d="M38 15h1" />
<path stroke="#f7f5f3" d="M39 15h1" />
<path stroke="#f0f5f0" d="M4 16h1" />
<path stroke="#c2e5c2" d="M5 16h1" />
<path stroke="#3fbc3f" d="M6 16h1" />
<path stroke="#ff8a00" d="M10 16h1M10 17h1M23 17h4M16 18h1M22 18h2M26 18h2M8 19h8M22 19h4M27 19h2M7 20h2M13 20h12M26 20h1M28 20h1M7 21h1M9 21h4M25 21h4M8 22h2M25 22h2M25 23h1M15 24h1M16 25h1M23 25h1M16 26h1M22 26h1M17 27h1M21 27h1M18 28h3" />
<path stroke="#22ae1f" d="M33 16h1" />
<path stroke="#3eae32" d="M34 16h1" />
<path stroke="#dabda7" d="M35 16h1" />
<path stroke="#fdc3c1" d="M36 16h2" />
<path stroke="#f8bebd" d="M38 16h1" />
<path stroke="#ebb2b0" d="M39 16h1" />
<path stroke="#d8ddd8" d="M5 17h1" />
<path stroke="#a9d2a9" d="M6 17h1" />
<path stroke="#20b020" d="M7 17h1" />
<path stroke="#b7633a" d="M34 17h1" />
<path stroke="#f63b37" d="M35 17h1" />
<path stroke="#fe3a39" d="M36 17h2" />
<path stroke="#fc3837" d="M38 17h1" />
<path stroke="#f73232" d="M39 17h1" />
<path stroke="#d1d2d1" d="M0 18h1M4 18h1" />
<path stroke="#d2d3d2" d="M1 18h3M0 19h1" />
<path stroke="#d1d1d0" d="M5 18h1" />
<path stroke="#b9cdb9" d="M6 18h1" />
<path stroke="#39b539" d="M7 18h1" />
<path stroke="#e0200c" d="M34 18h1" />
<path stroke="#ff0303" d="M35 18h2" />
<path stroke="#fe0202" d="M37 18h3M37 20h1" />
<path stroke="#d4d5d4" d="M1 19h1" />
<path stroke="#dadbda" d="M2 19h1" />
<path stroke="#d9dad9" d="M3 19h1" />
<path stroke="#d5cbca" d="M4 19h1" />
<path stroke="#d7bab9" d="M5 19h1" />
<path stroke="#d0c8c4" d="M6 19h1" />
<path stroke="#c62904" d="M33 19h1" />
<path stroke="#f90502" d="M34 19h1" />
<path stroke="#dcdad9" d="M0 20h1" />
<path stroke="#e1e0df" d="M1 20h1" />
<path stroke="#eef0ee" d="M2 20h1" />
<path stroke="#efefed" d="M3 20h1" />
<path stroke="#e7d0cf" d="M4 20h1" />
<path stroke="#eaa5a4" d="M5 20h1" />
<path stroke="#f43030" d="M34 20h1" />
<path stroke="#f72727" d="M35 20h1" />
<path stroke="#fc0d0d" d="M36 20h1" />
<path stroke="#fc0c0c" d="M38 20h1" />
<path stroke="#f72626" d="M39 20h1" />
<path stroke="#f4bbba" d="M0 21h1" />
<path stroke="#f7cac8" d="M1 21h1" />
<path stroke="#fcefee" d="M2 21h1" />
<path stroke="#fbf4f2" d="M4 21h1" />
<path stroke="#fae3e1" d="M5 21h1" />
<path stroke="#e5b2ae" d="M32 21h1" />
<path stroke="#e0a8a7" d="M33 21h1" />
<path stroke="#e4aaa9" d="M34 21h1" />
<path stroke="#e79392" d="M35 21h1" />
<path stroke="#f34a49" d="M36 21h1" />
<path stroke="#fb1d1d" d="M37 21h1" />
<path stroke="#f24040" d="M38 21h1" />
<path stroke="#e18786" d="M39 21h1" />
<path stroke="#fe3b3b" d="M0 22h1" />
<path stroke="#fed0ce" d="M2 22h1" />
<path stroke="#fdf9f7" d="M3 22h1" />
<path stroke="#fdfbf9" d="M4 22h1M6 22h1" />
<path stroke="#fefaf8" d="M5 22h1" />
<path stroke="#f2edeb" d="M32 22h1" />
<path stroke="#e9e3e1" d="M33 22h1" />
<path stroke="#eceae5" d="M34 22h1" />
<path stroke="#dadcc8" d="M35 22h1" />
<path stroke="#d8ab95" d="M36 22h1" />
<path stroke="#d1735b" d="M37 22h1" />
<path stroke="#c2947c" d="M38 22h1" />
<path stroke="#b7bda5" d="M39 22h1" />
<path stroke="#ff0505" d="M0 23h1" />
<path stroke="#fe2a29" d="M1 23h1" />
<path stroke="#fe9896" d="M2 23h1" />
<path stroke="#fbc1bd" d="M3 23h1" />
<path stroke="#fec4c2" d="M4 23h3" />
<path stroke="#fec2c0" d="M7 23h1" />
<path stroke="#fc809a" d="M19 23h3M18 24h3M18 25h2" />
<path stroke="#d5bba3" d="M33 23h1" />
<path stroke="#bebb92" d="M34 23h1" />
<path stroke="#43b034" d="M35 23h1" />
<path stroke="#29ab1f" d="M36 23h1" />
<path stroke="#27a71a" d="M37 23h1" />
<path stroke="#25a81b" d="M38 23h1" />
<path stroke="#25a91c" d="M39 23h1" />
<path stroke="#fa0300" d="M0 24h1" />
<path stroke="#df1c07" d="M1 24h1" />
<path stroke="#db3b24" d="M2 24h1" />
<path stroke="#da442c" d="M3 24h1" />
<path stroke="#da4931" d="M4 24h2" />
<path stroke="#de4732" d="M6 24h1" />
<path stroke="#f93b37" d="M7 24h1" />
<path stroke="#fe2d2c" d="M8 24h1" />
<path stroke="#fb110e" d="M9 24h1" />
<path stroke="#ca2503" d="M10 24h1" />
<path stroke="#2a9b0e" d="M33 24h1" />
<path stroke="#249e0d" d="M34 24h1" />
<path stroke="#e11400" d="M0 25h1" />
<path stroke="#497d05" d="M1 25h1" />
<path stroke="#299306" d="M2 25h1" />
<path stroke="#2a9307" d="M3 25h3" />
<path stroke="#418306" d="M6 25h1" />
<path stroke="#c12a02" d="M7 25h1" />
<path stroke="#da1902" d="M8 25h1" />
<path stroke="#df1500" d="M9 25h1" />
<path stroke="#f50600" d="M10 25h1" />
<path stroke="#0ca808" d="M32 25h1M6 26h1M9 27h1M38 27h1M10 28h1" />
<path stroke="#e21400" d="M0 26h1" />
<path stroke="#477f05" d="M1 26h1" />
<path stroke="#0da708" d="M2 26h1M29 27h1M5 29h1" />
<path stroke="#249707" d="M7 26h1M39 27h1" />
<path stroke="#299307" d="M8 26h1" />
<path stroke="#418206" d="M9 26h1" />
<path stroke="#c42701" d="M10 26h1" />
<path stroke="#0da808" d="M30 26h1M37 28h1" />
<path stroke="#fb0300" d="M0 27h1M1 29h1" />
<path stroke="#c52801" d="M1 27h1" />
<path stroke="#259607" d="M2 27h1" />
<path stroke="#e21300" d="M1 28h1" />
<path stroke="#458106" d="M2 28h1" />
<path stroke="#0ca707" d="M3 28h1M36 29h1" />
<path stroke="#249807" d="M11 28h1" />
<path stroke="#3f8406" d="M38 28h1" />
<path stroke="#c22901" d="M39 28h1" />
<path stroke="#c92501" d="M2 29h1" />
<path stroke="#477f06" d="M3 29h1" />
<path stroke="#279607" d="M4 29h1" />
<path stroke="#219d07" d="M29 29h1" />
<path stroke="#0da908" d="M30 29h1" />
<path stroke="#3f8606" d="M37 29h1" />
<path stroke="#c72a01" d="M38 29h1" />
<path stroke="#fa0500" d="M39 29h1" />
<path stroke="#ff0200" d="M0 30h1" />
<path stroke="#ff0400" d="M1 30h1" />
<path stroke="#fb0900" d="M2 30h1" />
<path stroke="#e21a00" d="M3 30h1" />
<path stroke="#c53201" d="M4 30h1" />
<path stroke="#428706" d="M5 30h1" />
<path stroke="#0ca807" d="M6 30h1M34 30h1" />
<path stroke="#3c9206" d="M14 30h1" />
<path stroke="#424d9a" d="M25 30h1M26 31h1M24 32h1M23 33h1M27 33h3M23 34h1M27 34h1M30 34h1M23 35h1M27 35h1M31 35h1M12 36h1M14 36h1M23 36h1M27 36h1M32 36h1M11 37h1M18 37h1M22 37h2M33 37h2M11 38h1M16 38h1M18 38h1M22 38h1M35 38h1M11 39h1M14 39h2M19 39h1M22 39h1M35 39h1" />
<path stroke="#20a207" d="M28 30h1" />
<path stroke="#21a007" d="M30 30h1" />
<path stroke="#279907" d="M35 30h1" />
<path stroke="#458706" d="M36 30h1" />
<path stroke="#c93401" d="M37 30h1" />
<path stroke="#fa1000" d="M38 30h1" />
<path stroke="#ff0900" d="M39 30h1" />
<path stroke="#ff0700" d="M0 31h1" />
<path stroke="#ff0b00" d="M1 31h1" />
<path stroke="#ff1000" d="M2 31h1M0 32h1" />
<path stroke="#ff1800" d="M3 31h1M1 32h1" />
<path stroke="#fb2200" d="M4 31h1" />
<path stroke="#ca4301" d="M5 31h1" />
<path stroke="#478b06" d="M6 31h1" />
<path stroke="#2d9a07" d="M7 31h1" />
<path stroke="#279d07" d="M8 31h1" />
<path stroke="#0ca907" d="M9 31h1" />
<path stroke="#0caa08" d="M14 31h1M12 32h1" />
<path stroke="#5e6ac3" d="M25 31h1M25 32h1M26 33h1M15 34h2M24 34h3M15 35h2M24 35h3M13 36h1M15 36h2M24 36h3M12 37h1M15 37h2M25 37h1M12 38h2M15 38h1M23 38h1M23 39h1" />
<path stroke="#2ca407" d="M27 31h1" />
<path stroke="#30a206" d="M28 31h1" />
<path stroke="#439b05" d="M29 31h1" />
<path stroke="#309f06" d="M30 31h1" />
<path stroke="#2ba006" d="M31 31h1" />
<path stroke="#2c9f07" d="M32 31h1" />
<path stroke="#2c9e07" d="M33 31h1" />
<path stroke="#459306" d="M34 31h1" />
<path stroke="#c25701" d="M35 31h1" />
<path stroke="#e13f00" d="M36 31h1" />
<path stroke="#fb2a00" d="M37 31h1" />
<path stroke="#ff1e00" d="M38 31h1" />
<path stroke="#ff1600" d="M39 31h1" />
<path stroke="#ff2200" d="M2 32h1" />
<path stroke="#ff2d00" d="M3 32h1M1 33h1" />
<path stroke="#ff3a00" d="M4 32h1M0 34h1" />
<path stroke="#fb4800" d="M5 32h1" />
<path stroke="#e25c00" d="M6 32h1" />
<path stroke="#dd6601" d="M7 32h1" />
<path stroke="#c47501" d="M8 32h1" />
<path stroke="#459d06" d="M9 32h1" />
<path stroke="#2aa407" d="M10 32h1" />
<path stroke="#25a507" d="M11 32h1" />
<path stroke="#424c9a" d="M26 32h1M15 33h2M14 34h1M13 35h2M14 37h1M24 37h1M26 37h1M14 38h1M25 38h2M18 39h1" />
<path stroke="#baa302" d="M27 32h1" />
<path stroke="#baa002" d="M28 32h1" />
<path stroke="#be9901" d="M29 32h1" />
<path stroke="#d79101" d="M30 32h1" />
<path stroke="#dd8b01" d="M31 32h1" />
<path stroke="#dd8501" d="M32 32h1" />
<path stroke="#dd7d01" d="M33 32h1" />
<path stroke="#e17100" d="M34 32h1" />
<path stroke="#fa5f00" d="M35 32h1" />
<path stroke="#ff5100" d="M36 32h1" />
<path stroke="#ff4400" d="M37 32h1" />
<path stroke="#ff3600" d="M38 32h1" />
<path stroke="#ff2a00" d="M39 32h1" />
<path stroke="#ff2100" d="M0 33h1" />
<path stroke="#ff3b00" d="M2 33h1" />
<path stroke="#ff4b00" d="M3 33h1" />
<path stroke="#ff5b00" d="M4 33h1M2 34h1" />
<path stroke="#ff6a00" d="M5 33h1M1 35h1" />
<path stroke="#ff7800" d="M6 33h1" />
<path stroke="#ff8200" d="M7 33h1M35 33h1" />
<path stroke="#fb8c00" d="M8 33h1" />
<path stroke="#e29500" d="M9 33h1" />
<path stroke="#dd9e01" d="M10 33h1" />
<path stroke="#c4a601" d="M11 33h1" />
<path stroke="#3faa06" d="M12 33h1" />
<path stroke="#0cab07" d="M13 33h1M10 37h1" />
<path stroke="#5e69c3" d="M17 33h1M24 33h2M17 34h1M29 34h1M18 35h1M29 35h2M18 36h1M29 36h3M13 37h1M29 37h4M28 38h7M12 39h2M17 39h1M24 39h1M27 39h8" />
<path stroke="#bfac01" d="M30 33h1" />
<path stroke="#dfa900" d="M31 33h1" />
<path stroke="#faa200" d="M32 33h1" />
<path stroke="#ff9900" d="M33 33h1" />
<path stroke="#ff8e00" d="M34 33h1" />
<path stroke="#ff7500" d="M36 33h1" />
<path stroke="#ff6500" d="M37 33h1" />
<path stroke="#ff5500" d="M38 33h1" />
<path stroke="#ff4800" d="M39 33h1" />
<path stroke="#ff4900" d="M1 34h1" />
<path stroke="#ff6d00" d="M3 34h1" />
<path stroke="#ff7f00" d="M4 34h1" />
<path stroke="#ff8f00" d="M5 34h1" />
<path stroke="#ff9b00" d="M6 34h1M38 35h1" />
<path stroke="#ffa500" d="M7 34h1" />
<path stroke="#ffad00" d="M8 34h1" />
<path stroke="#ffb300" d="M9 34h1" />
<path stroke="#fab900" d="M10 34h1M35 35h1" />
<path stroke="#dbbb01" d="M11 34h1" />
<path stroke="#a4b902" d="M12 34h1" />
<path stroke="#27ae07" d="M13 34h1" />
<path stroke="#d6d2d2" d="M22 34h1M19 35h2M19 36h1M19 37h1M19 38h1M20 39h1" />
<path stroke="#333d81" d="M28 34h1M17 35h1M28 35h1M17 36h1M28 36h1M17 37h1M27 37h2M17 38h1M24 38h1M27 38h1M16 39h1M25 39h2" />
<path stroke="#41af06" d="M31 34h1" />
<path stroke="#c1b701" d="M32 34h1" />
<path stroke="#dfb300" d="M33 34h1" />
<path stroke="#faac00" d="M34 34h1" />
<path stroke="#ffa200" d="M35 34h1" />
<path stroke="#ff9600" d="M36 34h1" />
<path stroke="#ff8800" d="M37 34h1" />
<path stroke="#ff7900" d="M38 34h1" />
<path stroke="#ff6c00" d="M39 34h1" />
<path stroke="#ff5a00" d="M0 35h1" />
<path stroke="#ff7d00" d="M2 35h1M0 36h1" />
<path stroke="#ff9000" d="M3 35h1" />
<path stroke="#ffa000" d="M4 35h1" />
<path stroke="#ffae00" d="M5 35h1M3 36h1" />
<path stroke="#ffb800" d="M6 35h1" />
<path stroke="#ffbf00" d="M7 35h1M37 36h1" />
<path stroke="#ffc400" d="M8 35h1M5 36h1" />
<path stroke="#fac700" d="M9 35h1" />
<path stroke="#c7c501" d="M10 35h1" />
<path stroke="#44b306" d="M11 35h1" />
<path stroke="#29b006" d="M12 35h1" />
<path stroke="#2aaf07" d="M32 35h1" />
<path stroke="#41b006" d="M33 35h1" />
<path stroke="#c4ba01" d="M34 35h1" />
<path stroke="#ffb200" d="M36 35h1" />
<path stroke="#ffa700" d="M37 35h1" />
<path stroke="#ff9100" d="M39 35h1" />
<path stroke="#ff8c00" d="M1 36h1" />
<path stroke="#ff9e00" d="M2 36h1M0 37h1" />
<path stroke="#ffba00" d="M4 36h1" />
<path stroke="#ffca00" d="M6 36h1M38 37h1M0 39h1" />
<path stroke="#ffce00" d="M7 36h1M1 39h1" />
<path stroke="#fad000" d="M8 36h1" />
<path stroke="#c7ca01" d="M9 36h1" />
<path stroke="#3fb406" d="M10 36h1" />
<path stroke="#11ad07" d="M11 36h1" />
<path stroke="#26af07" d="M33 36h1" />
<path stroke="#42b206" d="M34 36h1" />
<path stroke="#c4c201" d="M35 36h1" />
<path stroke="#fac400" d="M36 36h1" />
<path stroke="#ffb700" d="M38 36h1M2 37h1" />
<path stroke="#ffb100" d="M39 36h1" />
<path stroke="#ffaa00" d="M1 37h1" />
<path stroke="#ffc300" d="M3 37h1" />
<path stroke="#ffcb00" d="M4 37h1" />
<path stroke="#ffd000" d="M5 37h1" />
<path stroke="#ffd400" d="M6 37h1M4 38h1" />
<path stroke="#ffd500" d="M7 37h1M3 39h1" />
<path stroke="#e2d300" d="M8 37h1" />
<path stroke="#44b605" d="M9 37h1" />
<path stroke="#43b406" d="M35 37h1" />
<path stroke="#c6c801" d="M36 37h1" />
<path stroke="#facd00" d="M37 37h1" />
<path stroke="#ffc700" d="M39 37h1" />
<path stroke="#ffb900" d="M0 38h1" />
<path stroke="#ffc100" d="M1 38h1" />
<path stroke="#ffc900" d="M2 38h1" />
<path stroke="#ffcf00" d="M3 38h1" />
<path stroke="#ffd600" d="M5 38h1" />
<path stroke="#ffd800" d="M6 38h1M5 39h2" />
<path stroke="#fad700" d="M7 38h1" />
<path stroke="#c2cd01" d="M8 38h1" />
<path stroke="#2bb206" d="M9 38h1" />
<path stroke="#22b007" d="M10 38h1" />
<path stroke="#48b606" d="M36 38h1" />
<path stroke="#e1d000" d="M37 38h1" />
<path stroke="#ffd300" d="M38 38h1" />
<path stroke="#ffd200" d="M39 38h1M2 39h1" />
<path stroke="#ffd700" d="M4 39h1M38 39h2" />
<path stroke="#e1d300" d="M7 39h1" />
<path stroke="#44b705" d="M8 39h1" />
<path stroke="#29b106" d="M9 39h1" />
<path stroke="#9fc602" d="M10 39h1" />
<path stroke="#48b605" d="M36 39h1" />
<path stroke="#ddd201" d="M37 39h1" />
</svg>