<svg xmlns="http://www.w3.org/2000/svg" viewBox="0 -0.5 40 40" shape-rendering="crispEdges">
<metadata>Made with Pixels to Svg https://codepen.io/shshaw/pen/XbxvNj</metadata>
<path stroke="#840867" d="M0 0h40M0 1h14M24 1h16M0 2h13M25 2h15M0 3h12M34 3h6M0 4h11M39 4h1M0 5h8M0 6h4M0 7h7M29 7h4M0 8h10M29 8h11M0 9h11M29 9h11M0 10h10M29 10h11M0 11h10M29 11h3M28 12h2M0 13h1M34 14h1M7 15h3M29 15h2M34 15h1M37 15h1M0 16h1M6 16h3M29 16h2M36 16h1M0 17h9M29 17h2M1 18h2M4 18h4M29 18h2M1 19h1M3 19h4M30 19h1M0 20h1M3 20h3M30 20h1M0 21h2M5 21h1M0 22h3M4 22h3M0 23h3M4 23h4M10 23h2M2 24h1M4 24h10M4 25h5M10 25h3M5 26h1" />
<path stroke="#000000" d="M14 1h10M13 2h12M12 3h15M11 4h16M10 5h10M24 5h4M10 6h2M13 6h6M25 6h4M10 7h1M14 7h4M26 7h3M10 8h1M15 8h2M26 8h3M11 9h3M15 9h1M18 9h4M27 9h2M10 10h1M22 10h1M27 10h2M10 11h1M13 11h2M18 11h3M27 11h2M10 12h1M12 12h1M15 12h1M17 12h1M21 12h1M27 12h1M30 12h1M32 12h1M34 12h1M11 13h1M15 13h1M17 13h1M21 13h1M27 13h1M31 13h3M37 13h2M11 14h1M15 14h1M17 14h1M20 14h2M28 14h1M31 14h3M35 14h5M10 15h2M14 15h2M17 15h1M19 15h3M28 15h1M31 15h3M35 15h2M38 15h2M9 16h1M11 16h1M14 16h2M17 16h1M19 16h3M23 16h4M28 16h1M31 16h5M37 16h3M9 17h1M12 17h1M14 17h4M19 17h4M27 17h2M31 17h9M0 18h1M3 18h1M8 18h8M17 18h1M20 18h2M24 18h2M28 18h1M31 18h9M0 19h1M2 19h1M7 19h1M16 19h5M26 19h1M29 19h1M31 19h9M1 20h2M6 20h1M9 20h4M25 20h1M27 20h1M29 20h1M31 20h5M37 20h3M2 21h3M6 21h1M8 21h1M13 21h4M24 21h1M29 21h1M33 21h1M35 21h1M37 21h1M39 21h1M3 22h1M7 22h1M10 22h2M14 22h1M17 22h8M27 22h2M3 23h1M8 23h2M12 23h2M15 23h1M23 23h1M26 23h1M3 24h1M14 24h1M16 24h1M23 24h1M25 24h1M3 25h1M13 25h3M17 25h1M22 25h1M24 25h6M3 26h1M10 26h6M17 26h1M21 26h1M23 26h10M7 27h2M10 27h7M18 27h3M22 27h13M6 28h12M21 28h1M23 28h11M5 29h14M23 29h6M11 30h8M23 30h5M13 31h6M23 31h4M14 32h5M24 32h2M16 33h4M23 33h4M15 34h5M23 34h7M14 35h6M23 35h9M13 36h6M24 36h9M12 37h8M23 37h10M11 38h9M22 38h12M11 39h10M22 39h12" />
<path stroke="#b60404" d="M27 3h7M27 4h12M8 5h2M28 5h12M4 6h6M36 6h4M32 11h8M0 12h10M31 12h1M33 12h1M35 12h5M1 13h10M28 13h3M0 14h5" />
<path stroke="#ffffff" d="M20 5h4M12 6h1M19 6h6M11 7h3M18 7h8M11 8h4M17 8h9M14 9h1M16 9h2M22 9h5M11 10h11M23 10h4M11 11h2M15 11h3M21 11h6M11 12h1M16 12h1M22 12h5M16 13h1M22 13h5M14 14h1M16 14h1M19 14h1M22 14h6M16 15h1M22 15h6M16 16h1M22 16h1M27 16h1M9 21h1M9 22h1M16 22h1M16 23h1M22 28h1M19 29h4M19 30h4M19 31h4M20 32h2M20 36h3M20 37h3M20 38h2M21 39h1" />
<path stroke="#da0000" d="M29 6h7M7 7h3M33 7h7M34 13h3M39 13h1M5 14h6M29 14h2M0 15h7M1 16h5" />
<path stroke="#c3d9f9" d="M13 12h2M18 12h3M12 13h3M18 13h3M12 14h2M18 14h1M12 15h2M18 15h1M12 16h2M18 16h1M13 17h1M18 17h1M18 18h2" />
<path stroke="#ff8a00" d="M10 16h1M10 17h2M23 17h4M16 18h1M22 18h2M26 18h2M8 19h8M21 19h5M27 19h2M7 20h2M13 20h12M26 20h1M28 20h1M7 21h1M10 21h3M17 21h7M25 21h4M8 22h1M12 22h2M25 22h2M14 23h1M24 23h2M15 24h1M24 24h1M16 25h1M23 25h1M16 26h1M22 26h1M17 27h1M21 27h1M18 28h3" />
<path stroke="#b8038e" d="M36 20h1M36 21h1" />
<path stroke="#59017e" d="M30 21h3M34 21h1M38 21h1M29 22h11M27 23h13M0 24h2M29 24h2M38 24h2M0 25h3M39 25h1M4 26h1M6 26h4M0 28h6M28 30h5M0 31h8M12 31h1M36 31h4M11 32h3M30 32h10M0 33h7M15 33h1M33 36h7M0 39h2" />
<path stroke="#ff0000" d="M15 22h1M17 23h2M22 23h1M17 24h1M21 24h2M9 25h1M20 25h2M18 26h3M9 27h1M9 31h1M19 32h1M22 32h2M21 33h1M20 34h1M22 34h1M21 35h1M19 36h1M23 36h1" />
<path stroke="#fc809a" d="M19 23h3M18 24h3M18 25h2" />
<path stroke="#4a0169" d="M26 24h3M31 24h7M30 25h9M0 26h3M33 26h7M0 27h7M35 27h5M34 28h6M0 29h5M29 29h11M0 30h11M33 30h7M8 31h1M10 31h2M27 31h9M0 32h11M26 32h4M7 33h8M27 33h13M0 34h15M30 34h10M0 35h14M32 35h8M0 36h13M0 37h12M33 37h7M0 38h11M34 38h6M2 39h9M34 39h6" />
<path stroke="#830aa0" d="M20 33h1M22 33h1M20 35h1M22 35h1" />
<path stroke="#ffef00" d="M21 34h1" />
</svg>