<svg xmlns="http://www.w3.org/2000/svg" viewBox="0 -0.5 40 40" shape-rendering="crispEdges">
<metadata>Made with Pixels to Svg https://codepen.io/shshaw/pen/XbxvNj</metadata>
<path stroke="#cdc5c5" d="M0 0h31M38 0h2M0 1h9M29 1h1M39 1h1M0 2h4M34 2h1M0 3h2M0 4h1" />
<path stroke="#ccc4c4" d="M31 0h1M37 0h1M30 1h1M38 1h1M4 2h1M33 2h1M35 2h1M39 2h1M2 3h1M1 4h1" />
<path stroke="#b9b3b3" d="M32 0h1M38 8h2M29 25h1" />
<path stroke="#6b6868" d="M33 0h1" />
<path stroke="#b8b2b2" d="M34 0h1M37 8h1" />
<path stroke="#6b6767" d="M35 0h1" />
<path stroke="#b8b1b1" d="M36 0h1M4 3h1M31 10h1" />
<path stroke="#000000" d="M9 1h7M18 1h2M22 1h7M8 2h1M16 2h7M29 2h1M8 3h1M17 3h3M30 3h1M8 4h1M18 4h1M30 4h1M8 5h1M30 5h1M9 6h15M30 6h1M12 7h13M29 7h1M12 8h1M23 8h7M11 9h3M18 9h4M24 9h1M29 9h1M10 10h1M22 10h1M25 10h1M29 10h2M10 11h1M26 11h1M29 11h3M35 11h1M10 12h1M13 12h2M18 12h2M26 12h2M30 12h5M11 13h1M13 13h2M18 13h2M27 13h1M32 13h4M11 14h1M13 14h3M18 14h3M28 14h1M10 15h2M13 15h3M18 15h3M28 15h1M9 16h1M11 16h2M23 16h4M28 16h1M9 17h1M12 17h1M15 17h3M21 17h2M27 17h2M8 18h8M17 18h1M20 18h2M24 18h2M28 18h1M7 19h1M16 19h5M26 19h1M29 19h1M6 20h1M9 20h4M25 20h1M27 20h1M29 20h1M6 21h1M8 21h1M13 21h4M24 21h1M29 21h1M7 22h1M10 22h3M14 22h1M17 22h8M27 22h2M8 23h2M12 23h2M15 23h1M23 23h1M26 23h1M14 24h1M16 24h1M23 24h1M25 24h1M15 25h1M17 25h1M22 25h1M24 25h1M15 26h1M17 26h1M21 26h1M23 26h1M16 27h1M18 27h3M22 27h1M17 28h1M21 28h2M19 29h1M22 29h1M18 30h1M22 30h2M17 31h2M23 31h2M16 32h4M22 32h4M16 33h1M18 33h6M26 33h1M15 34h1M17 34h3M22 34h3M27 34h3M14 35h2M30 35h2M13 36h1M31 36h2M12 37h1M16 37h1M32 37h1M12 38h1M16 38h1M28 38h1M33 38h1M12 39h1M15 39h2M28 39h2M33 39h1" />
<path stroke="#cfc8c8" d="M16 1h2M20 1h2" />
<path stroke="#bbb4b4" d="M31 1h1M33 1h1M37 1h1M38 2h1M7 16h1M35 23h1M0 33h4M7 33h4M14 33h2M39 33h1M0 34h4M7 34h4M14 34h1M39 34h1M0 35h4M7 35h4M39 35h1M0 36h4M7 36h4M39 36h1M0 37h4M7 37h4M39 37h1M0 38h4M7 38h4M39 38h1M0 39h4M7 39h4M39 39h1" />
<path stroke="#777373" d="M32 1h1M37 2h1" />
<path stroke="#cbc3c3" d="M34 1h1" />
<path stroke="#bdb5b5" d="M35 1h1M30 2h1" />
<path stroke="#787373" d="M36 1h1" />
<path stroke="#c4bcbc" d="M5 2h1" />
<path stroke="#c3bbbb" d="M6 2h2" />
<path stroke="#353535" d="M9 2h7M23 2h6M9 3h8M20 3h10M9 4h9M19 4h11M9 5h21M24 6h6M25 7h4" />
<path stroke="#7a7676" d="M31 2h1" />
<path stroke="#bcb5b5" d="M32 2h1M36 2h1" />
<path stroke="#c2bbbb" d="M3 3h1" />
<path stroke="#5b5757" d="M5 3h1" />
<path stroke="#646363" d="M6 3h1M28 26h1M29 28h1M35 28h1" />
<path stroke="#666565" d="M7 3h1" />
<path stroke="#bdb8b8" d="M31 3h1" />
<path stroke="#c1bbbb" d="M32 3h1" />
<path stroke="#c1baba" d="M33 3h3M5 21h1" />
<path stroke="#c0b9b9" d="M36 3h1" />
<path stroke="#afa9a9" d="M37 3h1M33 8h2" />
<path stroke="#656262" d="M38 3h1M5 18h1M5 19h1" />
<path stroke="#b7b0b0" d="M39 3h1M36 22h2M36 23h1M0 32h4M7 32h4M14 32h2M39 32h1M4 33h1M6 33h1M11 33h1M13 33h1M27 33h1M4 34h1M6 34h1M11 34h1M13 34h1M4 35h1M6 35h1M11 35h1M13 35h1M4 36h1M6 36h1M11 36h1M4 37h1M6 37h1M11 37h1M4 38h1M6 38h1M11 38h1M4 39h1M6 39h1M11 39h1" />
<path stroke="#b9b2b2" d="M2 4h1" />
<path stroke="#5a5757" d="M3 4h1M3 14h1" />
<path stroke="#626161" d="M4 4h1" />
<path stroke="#6f6e6e" d="M5 4h1" />
<path stroke="#e4e4e4" d="M6 4h1M4 13h1M28 29h1M34 29h1" />
<path stroke="#e0dfdf" d="M7 4h1" />
<path stroke="#595656" d="M31 4h1M2 13h1" />
<path stroke="#585555" d="M32 4h1" />
<path stroke="#575454" d="M33 4h4" />
<path stroke="#555252" d="M37 4h1M39 4h1M33 7h1M28 10h1M37 25h1" />
<path stroke="#424040" d="M38 4h1" />
<path stroke="#cec6c6" d="M0 5h1" />
<path stroke="#c5bebe" d="M1 5h1M29 18h7" />
<path stroke="#5b5858" d="M2 5h1" />
<path stroke="#6b6b6b" d="M3 5h1" />
<path stroke="#e6e6e6" d="M4 5h1M2 11h1M3 12h1M28 27h1M34 27h1" />
<path stroke="#f4f4f4" d="M5 5h1M4 12h1M9 13h1" />
<path stroke="#f2f2f2" d="M6 5h1M2 8h1M8 8h1M2 9h1M2 10h1M0 27h16M23 27h5M39 27h1M28 28h1M34 28h1" />
<path stroke="#858585" d="M7 5h1M7 8h1" />
<path stroke="#b1abab" d="M31 5h9M27 9h1M27 10h1M27 11h1M34 33h1M34 34h1M34 35h1M34 36h1M34 37h1M34 38h1M34 39h1" />
<path stroke="#d0c9c9" d="M0 6h1" />
<path stroke="#c8c3c3" d="M1 6h1" />
<path stroke="#7d7c7c" d="M2 6h1" />
<path stroke="#e8e8e8" d="M3 6h1M2 7h1M6 8h1" />
<path stroke="#fefefe" d="M4 6h1M3 7h1M5 8h1M4 9h1M8 9h1M3 10h1M7 10h1M6 11h1M5 12h1M5 13h1" />
<path stroke="#ffffff" d="M5 6h1M4 7h2M9 7h2M3 8h2M9 8h2M13 8h10M3 9h1M9 9h2M14 9h4M22 9h2M8 10h2M11 10h11M23 10h2M7 11h3M11 11h15M6 12h4M11 12h2M15 12h3M20 12h6M6 13h3M12 13h1M15 13h3M20 13h7M12 14h1M16 14h2M21 14h7M12 15h1M16 15h2M21 15h7M13 16h10M27 16h1M13 17h2M18 17h3M18 18h2M0 28h17M23 28h5M39 28h1M20 29h2M19 30h3M19 31h4M20 32h2M17 33h1M24 33h2M16 34h1M20 34h2M25 34h2M16 35h14M14 36h17M13 37h3M17 37h15M13 38h3M17 38h11M29 38h4M13 39h2M17 39h11M30 39h3" />
<path stroke="#f3f3f3" d="M6 6h1M6 7h1M3 11h1" />
<path stroke="#727272" d="M7 6h1M7 7h1" />
<path stroke="#efefef" d="M8 6h1" />
<path stroke="#b0aaaa" d="M31 6h9M34 24h1M36 25h1" />
<path stroke="#d5cfcf" d="M0 7h1M29 24h1" />
<path stroke="#7a7878" d="M1 7h1" />
<path stroke="#f0f0f0" d="M8 7h1M33 28h1M38 28h1" />
<path stroke="#f6f4f4" d="M11 7h1" />
<path stroke="#605d5d" d="M30 7h1M32 7h1M1 12h1" />
<path stroke="#625f5f" d="M31 7h1M38 23h1" />
<path stroke="#535050" d="M34 7h3M30 25h1M29 33h1M35 33h1M37 33h1M35 34h1M37 34h1M35 35h1M37 35h1M35 36h1M37 36h1M35 37h1M37 37h1M35 38h1M37 38h1M35 39h1M37 39h1" />
<path stroke="#535151" d="M37 7h3" />
<path stroke="#d6d0d0" d="M0 8h1M0 9h1M0 10h1M0 11h1M4 17h1M4 18h1M7 18h1M4 19h1" />
<path stroke="#6c6a6a" d="M1 8h1M1 9h1M1 10h1" />
<path stroke="#f9f9f9" d="M11 8h1" />
<path stroke="#e6e1e1" d="M30 8h1" />
<path stroke="#e7e1e1" d="M31 8h1" />
<path stroke="#e1dbdb" d="M32 8h1M0 14h1M0 15h2M0 16h3M0 17h4M0 18h4M0 19h4M0 20h4M30 20h3M0 21h4M30 21h1M0 22h5M6 22h1M29 22h1M0 23h8M10 23h2M27 23h2" />
<path stroke="#a8a2a2" d="M35 8h1" />
<path stroke="#a9a3a3" d="M36 8h1" />
<path stroke="#e9e9e9" d="M5 9h1M4 10h1M6 10h1M5 11h1" />
<path stroke="#969696" d="M6 9h1M5 10h1" />
<path stroke="#eaeaea" d="M7 9h1" />
<path stroke="#5c5a5a" d="M25 9h1M0 30h5M6 30h6M13 30h5M24 30h2M27 30h1M39 30h1" />
<path stroke="#afaaaa" d="M26 9h1M26 10h1M33 33h1M38 33h1M33 34h1M38 34h1M33 35h1M38 35h1M33 36h1M38 36h1M33 37h1M38 37h1M38 38h1M38 39h1" />
<path stroke="#5f5c5c" d="M28 9h1" />
<path stroke="#eee8e8" d="M30 9h1" />
<path stroke="#c8c2c2" d="M31 9h1" />
<path stroke="#bab3b3" d="M32 9h1M39 10h1M6 16h1M35 24h1" />
<path stroke="#686464" d="M33 9h1" />
<path stroke="#a09a9a" d="M34 9h1" />
<path stroke="#575353" d="M35 9h1M32 11h1" />
<path stroke="#636060" d="M36 9h1" />
<path stroke="#dfd9d9" d="M37 9h1M0 13h1M3 16h1M30 19h5M5 22h1M0 24h14M26 24h3" />
<path stroke="#eae4e4" d="M38 9h1" />
<path stroke="#ede7e7" d="M39 9h1" />
<path stroke="#aaa3a3" d="M32 10h1M32 24h1" />
<path stroke="#484444" d="M33 10h1" />
<path stroke="#4c4949" d="M34 10h1" />
<path stroke="#3d3a3a" d="M35 10h1" />
<path stroke="#494646" d="M36 10h1M29 31h1M35 31h1M37 31h1M32 33h1M32 34h1M32 35h1" />
<path stroke="#928c8c" d="M37 10h1" />
<path stroke="#989292" d="M38 10h1" />
<path stroke="#686767" d="M1 11h1" />
<path stroke="#999999" d="M4 11h1" />
<path stroke="#524f4f" d="M28 11h1M37 32h1" />
<path stroke="#3d3939" d="M33 11h1" />
<path stroke="#7e7777" d="M34 11h1" />
<path stroke="#857f7f" d="M36 11h1" />
<path stroke="#847e7e" d="M37 11h1" />
<path stroke="#524e4e" d="M38 11h1" />
<path stroke="#8a8383" d="M39 11h1M0 31h5M6 31h6M13 31h4M25 31h1M27 31h1M39 31h1" />
<path stroke="#d7d1d1" d="M0 12h1M4 20h1" />
<path stroke="#6b6a6a" d="M2 12h1" />
<path stroke="#4a4747" d="M28 12h1" />
<path stroke="#827c7c" d="M29 12h1M37 13h1M31 26h1M33 31h1M38 31h1" />
<path stroke="#8b8484" d="M35 12h2" />
<path stroke="#857e7e" d="M37 12h1M39 12h1M5 31h1M12 31h1M26 31h1" />
<path stroke="#514c4c" d="M38 12h1" />
<path stroke="#c1b9b9" d="M1 13h1M3 15h1" />
<path stroke="#6a6a6a" d="M3 13h1" />
<path stroke="#b8b4b4" d="M10 13h1" />
<path stroke="#484545" d="M28 13h1M32 32h1" />
<path stroke="#7a7373" d="M29 13h1" />
<path stroke="#7c7777" d="M30 13h1M38 13h1" />
<path stroke="#817c7c" d="M31 13h1M39 13h1" />
<path stroke="#837d7d" d="M36 13h1M29 16h11" />
<path stroke="#ddd7d7" d="M1 14h1M2 15h1M4 21h1" />
<path stroke="#bfb9b9" d="M2 14h1" />
<path stroke="#696969" d="M4 14h1" />
<path stroke="#e3e3e3" d="M5 14h1M33 27h1M38 27h1" />
<path stroke="#f1f1f1" d="M6 14h2M0 29h19M23 29h5M39 29h1" />
<path stroke="#ecebeb" d="M8 14h1" />
<path stroke="#b9b4b4" d="M9 14h1" />
<path stroke="#696666" d="M10 14h1" />
<path stroke="#3c3939" d="M29 14h1" />
<path stroke="#3e3b3b" d="M30 14h10M32 31h1" />
<path stroke="#5e5b5b" d="M4 15h1" />
<path stroke="#515050" d="M5 15h1" />
<path stroke="#656464" d="M6 15h2" />
<path stroke="#545353" d="M8 15h1" />
<path stroke="#6e6a6a" d="M9 15h1" />
<path stroke="#847d7d" d="M29 15h11" />
<path stroke="#ccc7c7" d="M4 16h1" />
<path stroke="#5c5959" d="M5 16h1M8 16h1" />
<path stroke="#9d9d9d" d="M10 16h1M10 17h2M23 17h4M16 18h1M22 18h2M26 18h2M8 19h8M21 19h5M27 19h2M7 20h2M13 20h12M26 20h1M28 20h1M7 21h1M9 21h4M17 21h7M25 21h4M8 22h2M13 22h1M25 22h2M14 23h1M24 23h2M15 24h1M24 24h1M16 25h1M23 25h1M16 26h1M22 26h1M17 27h1M21 27h1M18 28h3" />
<path stroke="#646161" d="M5 17h1M8 17h1" />
<path stroke="#d3cccc" d="M6 17h1M37 19h3" />
<path stroke="#d4cece" d="M7 17h1" />
<path stroke="#4e4b4b" d="M29 17h11" />
<path stroke="#d5cece" d="M6 18h1M6 19h1" />
<path stroke="#c5bdbd" d="M36 18h4" />
<path stroke="#ded8d8" d="M35 19h1" />
<path stroke="#d4cdcd" d="M36 19h1" />
<path stroke="#737070" d="M5 20h1" />
<path stroke="#e0dada" d="M33 20h1M31 21h1M30 22h1M29 23h1" />
<path stroke="#d6cfcf" d="M34 20h1M32 21h1" />
<path stroke="#ccc5c5" d="M35 20h1M33 21h1" />
<path stroke="#6a6565" d="M36 20h1" />
<path stroke="#5c5858" d="M37 20h1" />
<path stroke="#5d5959" d="M38 20h2" />
<path stroke="#696565" d="M34 21h1M30 24h1" />
<path stroke="#615d5d" d="M35 21h1M37 24h1" />
<path stroke="#8a8484" d="M36 21h1" />
<path stroke="#afa8a8" d="M37 21h1" />
<path stroke="#b2abab" d="M38 21h2M39 22h1M36 24h1M28 33h1" />
<path stroke="#4c4c4c" d="M15 22h2M16 23h3M22 23h1M17 24h1M21 24h2M20 25h2M18 26h3" />
<path stroke="#cec8c8" d="M31 22h1" />
<path stroke="#605e5e" d="M32 22h1" />
<path stroke="#595555" d="M33 22h1" />
<path stroke="#888383" d="M34 22h1" />
<path stroke="#aea8a8" d="M35 22h1" />
<path stroke="#b3acac" d="M38 22h1M34 23h1M4 32h1M6 32h1M11 32h1M13 32h1M27 32h1" />
<path stroke="#a8a8a8" d="M19 23h3M18 24h3M18 25h2" />
<path stroke="#cdc6c6" d="M30 23h1" />
<path stroke="#676363" d="M31 23h1" />
<path stroke="#494747" d="M32 23h1" />
<path stroke="#898383" d="M33 23h1M31 28h1M31 29h1M31 30h1M31 31h1M31 32h1M31 33h1M31 34h1" />
<path stroke="#8a8585" d="M37 23h1" />
<path stroke="#5d5a5a" d="M39 23h1" />
<path stroke="#888282" d="M31 24h1M31 27h1" />
<path stroke="#aba6a6" d="M33 24h1M30 28h1M30 29h1M30 30h1M30 31h1M30 32h1M33 32h1M38 32h1M30 33h1M30 34h1" />
<path stroke="#c7c2c2" d="M38 24h1" />
<path stroke="#d3cece" d="M39 24h1" />
<path stroke="#c3bdbd" d="M0 25h15M25 25h4M39 25h1" />
<path stroke="#a39d9d" d="M31 25h1M30 27h1" />
<path stroke="#878282" d="M32 25h1" />
<path stroke="#474444" d="M33 25h1" />
<path stroke="#4e4c4c" d="M34 25h1" />
<path stroke="#a7a2a2" d="M35 25h1M36 26h1" />
<path stroke="#b7b1b1" d="M38 25h1" />
<path stroke="#676666" d="M0 26h15M24 26h4M39 26h1" />
<path stroke="#444242" d="M29 26h1" />
<path stroke="#484646" d="M30 26h1" />
<path stroke="#403e3e" d="M32 26h1" />
<path stroke="#4d4d4d" d="M33 26h1" />
<path stroke="#4f4f4f" d="M34 26h1" />
<path stroke="#525050" d="M35 26h1M29 32h1M35 32h1" />
<path stroke="#434141" d="M37 26h1" />
<path stroke="#626060" d="M38 26h1" />
<path stroke="#5f5e5e" d="M29 27h1M37 29h1" />
<path stroke="#585757" d="M32 27h1" />
<path stroke="#605f5f" d="M35 27h1M37 27h1M29 29h1M35 29h1" />
<path stroke="#a5a0a0" d="M36 27h1M36 28h1M36 29h1M36 30h1M36 31h1M36 32h1M36 33h1M36 34h1M36 35h1M36 36h1M36 37h1M36 38h1M36 39h1" />
<path stroke="#5b5a5a" d="M32 28h1M5 30h1M12 30h1M26 30h1" />
<path stroke="#636262" d="M37 28h1" />
<path stroke="#575656" d="M32 29h1" />
<path stroke="#e1e1e1" d="M33 29h1M38 29h1" />
<path stroke="#575555" d="M28 30h1M34 30h1" />
<path stroke="#413f3f" d="M29 30h1M35 30h1M37 30h1" />
<path stroke="#343232" d="M32 30h1" />
<path stroke="#565555" d="M33 30h1M38 30h1" />
<path stroke="#837c7c" d="M28 31h1M34 31h1" />
<path stroke="#958e8e" d="M5 32h1M12 32h1M26 32h1" />
<path stroke="#aea7a7" d="M28 32h1" />
<path stroke="#ada7a7" d="M34 32h1" />
<path stroke="#968f8f" d="M5 33h1M12 33h1M5 34h1M12 34h1M5 35h1M12 35h1M5 36h1M12 36h1M5 37h1M5 38h1M5 39h1" />
</svg>