<svg xmlns="http://www.w3.org/2000/svg" viewBox="0 -0.5 40 40" shape-rendering="crispEdges">
<metadata>Made with Pixels to Svg https://codepen.io/shshaw/pen/XbxvNj</metadata>
<path stroke="#fa9406" d="M0 0h22M27 0h13M0 1h20M28 1h12M0 2h19M29 2h11M0 3h16M29 3h11M0 4h13M29 4h11M0 5h12M29 5h11M0 6h11M29 6h11M0 7h10M29 7h11M0 8h9M29 8h11M0 9h9M29 9h11M0 10h9M29 10h11M0 11h9M29 11h11M0 12h9M29 12h11M0 13h9M29 13h11M0 14h9M29 14h11M0 15h10M29 15h11M0 16h9M29 16h11M0 17h9M29 17h11M0 18h8M29 18h11M0 19h7M30 19h10M0 20h6M30 20h10M0 21h6M30 21h10M0 22h7M29 22h11M0 23h8M10 23h2M27 23h13M0 24h2M5 24h9M26 24h14M0 25h1M6 25h9M25 25h15M0 26h1M7 26h8M24 26h16M0 27h1M8 27h8M23 27h17M0 28h1M8 28h9M23 28h17M8 29h11M23 29h17M1 30h1M8 30h10M24 30h16M1 31h2M7 31h10M25 31h15M1 32h2M7 32h9M26 32h14M1 33h2M7 33h9M27 33h13M1 34h2M8 34h7M30 34h10M1 35h3M8 35h6M32 35h8M1 36h3M9 36h4M33 36h7M2 37h2M9 37h3M33 37h7M2 38h3M10 38h2M34 38h6M2 39h3M10 39h2M34 39h6" />
<path stroke="#000000" d="M22 0h1M26 0h1M20 1h2M27 1h1M19 2h1M28 2h1M16 3h3M28 3h1M13 4h3M28 4h1M12 5h1M28 5h1M11 6h1M28 6h1M10 7h1M28 7h1M9 8h1M28 8h1M9 9h1M28 9h1M9 10h1M28 10h1M9 11h1M28 11h1M9 12h1M28 12h1M9 13h1M28 13h1M9 14h1M28 14h1M10 15h2M28 15h1M9 16h1M11 16h1M23 16h4M28 16h1M9 17h1M12 17h1M15 17h3M21 17h2M27 17h2M8 18h8M17 18h1M20 18h2M24 18h2M28 18h1M7 19h1M16 19h5M26 19h1M29 19h1M6 20h1M9 20h4M25 20h1M27 20h1M29 20h1M6 21h1M8 21h1M13 21h4M24 21h1M29 21h1M7 22h1M10 22h3M14 22h1M17 22h8M27 22h2M8 23h2M12 23h2M15 23h1M23 23h1M26 23h1M2 24h3M14 24h1M16 24h1M23 24h1M25 24h1M1 25h1M5 25h1M15 25h1M17 25h1M22 25h1M24 25h1M1 26h1M5 26h2M15 26h1M17 26h1M21 26h1M23 26h1M1 27h1M5 27h1M7 27h1M16 27h1M18 27h3M22 27h1M1 28h1M5 28h1M7 28h1M17 28h1M21 28h2M1 29h1M7 29h1M19 29h1M22 29h1M2 30h1M7 30h1M18 30h1M22 30h2M3 31h1M6 31h1M17 31h2M23 31h2M3 32h1M6 32h1M16 32h1M25 32h1M3 33h1M6 33h1M16 33h1M26 33h1M3 34h1M7 34h1M15 34h1M27 34h3M4 35h1M7 35h1M14 35h1M30 35h2M4 36h1M7 36h2M13 36h1M31 36h2M4 37h1M8 37h1M12 37h1M32 37h1M5 38h1M9 38h1M12 38h1M15 38h1M27 38h1M33 38h1M5 39h1M9 39h1M12 39h1M15 39h1M28 39h1M33 39h1" />
<path stroke="#0fc10e" d="M23 0h3M22 1h1M25 1h2M20 2h1M26 2h2M19 3h1M27 3h1M16 4h1M27 4h1M27 5h1M27 6h1M27 7h1M27 8h1M27 9h1M27 10h1M27 11h1M15 12h1M20 12h1M27 12h1M16 13h1M21 13h1M27 13h1M16 14h1M21 14h1M27 14h1M16 15h1M21 15h1M27 15h1M16 16h1M21 16h1M27 16h1M2 25h3M4 26h1M4 27h1M6 27h1M4 28h1M6 28h1M6 29h1M21 29h1M6 30h1M21 30h1M5 31h1M22 31h1M5 32h1M24 32h1M5 33h1M25 33h1M6 34h1M26 34h1M6 35h1M29 35h1M6 36h1M30 36h1M7 37h1M31 37h1M8 38h1M32 38h1M8 39h1M32 39h1" />
<path stroke="#04a303" d="M23 1h2M21 2h5M20 3h7M17 4h10M13 5h14M12 6h15M11 7h16M10 8h17M10 9h3M15 9h3M20 9h7M10 10h2M13 10h2M16 10h1M18 10h2M21 10h6M10 11h17M10 12h3M16 12h2M21 12h6M10 13h2M22 13h5M10 14h2M22 14h5M22 15h5M22 16h1M2 26h2M2 27h2M2 28h2M2 29h4M20 29h1M3 30h3M19 30h2M4 31h1M19 31h3M4 32h1M17 32h7M4 33h1M17 33h8M4 34h2M16 34h10M5 35h1M15 35h14M5 36h1M14 36h16M5 37h2M13 37h18M6 38h2M13 38h2M16 38h11M28 38h4M6 39h2M13 39h2M16 39h12M29 39h3" />
<path stroke="#ffd00a" d="M13 9h2M18 9h2M12 10h1M15 10h1M17 10h1M20 10h1M10 16h1M10 17h2M23 17h4M16 18h1M22 18h2M26 18h2M8 19h8M21 19h5M27 19h2M7 20h2M13 20h12M26 20h1M28 20h1M7 21h1M9 21h4M17 21h7M25 21h4M8 22h2M13 22h1M25 22h2M14 23h1M24 23h2M15 24h1M24 24h1M16 25h1M23 25h1M16 26h1M22 26h1M17 27h1M21 27h1M18 28h3" />
<path stroke="#ffffff" d="M13 12h2M18 12h2M12 13h4M17 13h4M12 14h4M17 14h4M12 15h2M17 15h2M12 16h2M17 16h2M13 17h1M18 17h1M18 18h2" />
<path stroke="#e00303" d="M14 15h2M19 15h2M14 16h2M19 16h2M14 17h1M19 17h2" />
<path stroke="#ff0000" d="M15 22h2M16 23h3M22 23h1M17 24h1M21 24h2M20 25h2M18 26h3" />
<path stroke="#fc809a" d="M19 23h3M18 24h3M18 25h2" />
<path stroke="#faaf06" d="M0 29h1M0 30h1M0 31h1M0 32h1M0 33h1M0 34h1M0 35h1M0 36h1M0 37h2M0 38h2M0 39h2" />
</svg>