<svg xmlns="http://www.w3.org/2000/svg" viewBox="0 -0.5 40 40" shape-rendering="crispEdges">
<metadata>Made with Pixels to Svg https://codepen.io/shshaw/pen/XbxvNj</metadata>
<path stroke="#1f89ff" d="M0 0h5M32 0h8M0 1h4M36 1h4M0 2h4M16 2h4M21 2h1M37 2h3M0 3h5M13 3h3M18 3h2M21 3h4M38 3h2M0 4h6M9 4h6M16 4h2M19 4h1M21 4h1M24 4h2M38 4h2M0 5h19M22 5h6M38 5h2M0 6h14M25 6h7M37 6h3M0 7h13M28 7h12M0 8h12M30 8h10M0 9h10M31 9h9M0 10h9M32 10h8M0 11h9M32 11h8M0 12h8M33 12h7M0 13h8M33 13h7M0 14h8M33 14h7M0 15h8M33 15h7M0 16h8M33 16h7M0 17h9M32 17h8M0 18h8M32 18h8M0 19h7M31 19h9M0 20h6M30 20h10M0 21h6M30 21h10M0 22h7M29 22h11M0 23h5M7 23h1M10 23h2M27 23h11M2 24h2M8 24h6M26 24h6M34 24h3M3 25h1M8 25h7M25 25h6M35 25h1M7 26h8M24 26h7M7 27h9M23 27h9M7 28h10M23 28h9M8 29h10M23 29h9M9 30h9M23 30h8M11 31h5M25 31h5M12 32h4M25 32h4M39 32h1M0 33h3M13 33h3M25 33h3M35 33h5M0 34h6M14 34h1M26 34h1M34 34h6M0 35h8M32 35h8M0 36h11M30 36h10M0 37h13M29 37h11M0 38h14M29 38h11M0 39h14M29 39h11" />
<path stroke="#000000" d="M5 0h1M20 0h1M22 0h10M4 1h1M16 1h6M32 1h4M4 2h1M13 2h3M20 2h1M22 2h3M36 2h1M5 3h1M9 3h4M16 3h2M20 3h1M25 3h1M37 3h1M6 4h3M15 4h1M18 4h1M20 4h1M22 4h2M26 4h2M37 4h1M19 5h3M28 5h4M37 5h1M14 6h11M32 6h5M13 7h1M25 7h3M12 8h3M17 8h4M28 8h2M10 9h2M21 9h1M30 9h1M9 10h1M13 10h3M18 10h3M31 10h1M9 11h1M12 11h1M17 11h1M21 11h1M31 11h1M8 12h1M12 12h1M16 12h1M22 12h1M32 12h1M8 13h1M11 13h1M17 13h2M22 13h1M32 13h1M8 14h1M11 14h1M14 14h2M17 14h2M22 14h1M32 14h1M8 15h1M10 15h2M14 15h2M22 15h1M32 15h1M8 16h2M11 16h1M16 16h1M22 16h5M32 16h1M9 17h1M12 17h1M15 17h3M22 17h1M27 17h1M31 17h1M8 18h8M17 18h1M21 18h1M24 18h2M28 18h1M31 18h1M7 19h1M16 19h5M26 19h1M29 19h2M6 20h1M9 20h4M25 20h1M27 20h1M29 20h1M6 21h1M8 21h1M13 21h4M24 21h1M29 21h1M7 22h1M10 22h3M14 22h1M17 22h8M27 22h2M5 23h2M8 23h2M12 23h2M15 23h1M17 23h1M20 23h1M23 23h1M26 23h1M38 23h2M0 24h2M4 24h1M7 24h1M14 24h1M16 24h2M20 24h1M23 24h1M25 24h1M32 24h2M37 24h1M2 25h1M4 25h1M7 25h1M15 25h1M17 25h1M20 25h1M22 25h1M24 25h1M31 25h1M34 25h1M36 25h1M39 25h1M0 26h1M3 26h2M6 26h1M15 26h1M17 26h1M20 26h2M23 26h1M31 26h1M34 26h2M38 26h1M1 27h1M4 27h1M6 27h1M16 27h1M18 27h3M22 27h1M32 27h1M34 27h1M37 27h1M2 28h1M6 28h1M17 28h1M21 28h2M32 28h1M36 28h1M39 28h1M0 29h1M3 29h1M7 29h1M18 29h3M22 29h1M32 29h1M38 29h1M1 30h1M8 30h1M18 30h1M22 30h1M31 30h2M37 30h1M7 31h1M9 31h2M16 31h9M30 31h1M33 31h1M39 31h1M0 32h3M6 32h1M11 32h1M16 32h1M24 32h1M29 32h1M34 32h5M3 33h4M12 33h1M16 33h9M28 33h1M34 33h1M6 34h2M13 34h1M15 34h1M25 34h1M27 34h1M32 34h2M8 35h3M14 35h1M26 35h1M30 35h2M11 36h2M29 36h1M13 37h1M28 37h1M14 38h1M28 38h1M14 39h5M21 39h2M24 39h5" />
<path stroke="#ff9dbd" d="M6 0h3M18 0h1M5 1h1M28 9h2M29 10h2M29 11h2M9 12h1M30 12h2M9 13h1M30 13h2M30 14h2M31 15h1M0 25h2M1 26h2M32 26h1M39 26h1M2 27h2M33 27h1M38 27h2M0 28h2M3 28h2M37 28h1M1 29h2M21 29h1M37 29h1M0 30h1M2 30h2M5 30h2M20 30h2M38 30h1M0 31h2M5 31h2M38 31h1M5 32h1" />
<path stroke="#ff9dbb" d="M9 0h9M6 1h10M22 1h10M5 2h8M25 2h11M6 3h3M26 3h11M28 4h9M32 5h5M14 7h11M15 8h2M21 8h1M24 8h4M20 9h1M26 9h2M10 10h1M17 10h1M27 10h2M10 11h1M27 11h2M28 12h2M29 13h1M30 15h1M30 16h2M30 17h1M30 18h1M5 24h2M38 24h2M5 25h2M32 25h2M37 25h2M5 26h1M33 26h1M36 26h2M5 27h1M35 27h2M5 28h1M33 28h3M38 28h1M4 29h3M33 29h4M4 30h1M33 30h4M2 31h3M34 31h4M3 32h2" />
<path stroke="#ff9dbf" d="M19 0h1M21 0h1M0 27h1M39 29h1M7 30h1M39 30h1" />
<path stroke="#ff9db9" d="M22 8h2M12 9h8M22 9h4M11 10h2M16 10h1M21 10h6M11 11h1M16 11h1M22 11h5M10 12h2M23 12h5M10 13h1M23 13h6M9 14h2M23 14h7M9 15h1M23 15h7M27 16h3M28 17h2M29 18h1M19 30h1" />
<path stroke="#ffffff" d="M13 11h3M18 11h3M13 12h3M17 12h5M12 13h5M19 13h3M12 14h2M16 14h1M19 14h3M12 15h2M16 15h6M12 16h4M17 16h5M13 17h2M18 17h4M18 18h3M15 22h2M16 23h1M18 23h2M21 23h2M18 24h2M21 24h2M18 25h2M21 25h1M18 26h2M19 38h4M19 39h2M23 39h1" />
<path stroke="#ff8a00" d="M10 16h1M10 17h2M23 17h4M16 18h1M22 18h2M26 18h2M8 19h8M21 19h5M27 19h2M7 20h2M13 20h12M26 20h1M28 20h1M7 21h1M9 21h4M17 21h7M25 21h4M8 22h2M13 22h1M25 22h2M14 23h1M24 23h2M15 24h1M24 24h1M16 25h1M23 25h1M16 26h1M22 26h1M17 27h1M21 27h1M18 28h3" />
<path stroke="#09c200" d="M8 31h1M31 31h2M7 32h4M17 32h7M30 32h4M7 33h5M29 33h5M8 34h5M16 34h9M28 34h4M11 35h3M15 35h11M27 35h3M13 36h16M14 37h14M15 38h4M23 38h5" />
</svg>