<svg xmlns="http://www.w3.org/2000/svg" viewBox="0 -0.5 40 40" shape-rendering="crispEdges">
<metadata>Made with Pixels to Svg https://codepen.io/shshaw/pen/XbxvNj</metadata>
<path stroke="#f2ff00" d="M0 0h6M23 0h17M0 1h6M23 1h17M0 2h5M23 2h17M0 3h3M23 3h14M0 4h2M23 4h14M0 5h2M25 5h11M0 6h2M26 6h10M0 7h2M28 7h8M0 8h2M27 8h7M0 9h2M27 9h7M0 10h3M27 10h7M0 11h4M27 11h7M0 12h6M28 12h6M0 13h6M28 13h6M2 14h4M29 14h4M3 15h4M29 15h4M3 16h4M29 16h4M2 17h5M29 17h4M2 18h6M29 18h3M2 19h5M30 19h2M3 20h3M30 20h2M3 21h3M30 21h2M4 22h3M29 22h4M34 22h1M5 23h3M10 23h2M27 23h7M6 24h8M26 24h7M7 25h8M25 25h8M8 26h7M24 26h8M9 27h7M23 27h7M11 28h6M23 28h6M13 29h6M23 29h4M16 30h2" />
<path stroke="#f1ff00" d="M6 0h17M6 1h17M12 2h11M17 3h6M21 4h2M22 5h3M23 6h3M24 7h4M24 8h3M25 9h2M26 10h1M6 12h3M6 13h4M6 14h5M7 15h3M7 16h2M7 17h2" />
<path stroke="#000000" d="M5 2h7M3 3h2M11 3h6M2 4h1M9 4h2M17 4h4M2 5h1M8 5h2M21 5h1M2 6h1M8 6h1M22 6h1M2 7h1M4 7h1M8 7h1M18 7h2M23 7h1M2 8h1M4 8h2M8 8h1M11 8h1M17 8h1M20 8h1M23 8h1M2 9h1M8 9h1M11 9h2M17 9h1M20 9h1M23 9h2M3 10h1M8 10h1M16 10h1M20 10h1M23 10h1M25 10h1M4 11h5M16 11h1M20 11h1M23 11h1M26 11h1M9 12h1M15 12h1M19 12h1M22 12h1M26 12h2M10 13h5M27 13h1M11 14h1M28 14h1M10 15h2M28 15h1M9 16h1M11 16h1M23 16h4M28 16h1M9 17h1M12 17h1M15 17h2M21 17h2M27 17h2M8 18h8M17 18h1M20 18h2M24 18h2M28 18h1M7 19h1M16 19h5M26 19h1M29 19h1M6 20h1M9 20h4M25 20h1M27 20h1M29 20h1M6 21h1M8 21h1M13 21h4M24 21h1M29 21h1M7 22h1M10 22h3M14 22h1M17 22h8M27 22h2M8 23h2M12 23h2M15 23h1M23 23h1M26 23h1M14 24h1M16 24h1M23 24h1M25 24h1M15 25h1M17 25h1M22 25h1M24 25h1M15 26h1M17 26h1M21 26h1M23 26h1M16 27h1M18 27h3M22 27h1M17 28h1M21 28h2M19 29h1M22 29h1M18 30h1M22 30h2M17 31h2M23 31h2M16 32h1M19 32h1M22 32h1M25 32h1M16 33h1M20 33h1M22 33h1M26 33h1M15 34h1M19 34h1M23 34h1M27 34h3M14 35h2M20 35h1M22 35h1M26 35h1M30 35h2M13 36h1M16 36h1M19 36h1M23 36h1M25 36h2M31 36h2M12 37h1M17 37h2M24 37h1M32 37h1M12 38h1M16 38h1M28 38h1M33 38h1M12 39h1M15 39h2M28 39h2M33 39h1" />
<path stroke="#ffffff" d="M5 3h6M4 4h4M11 4h6M4 5h3M10 5h11M9 6h13M5 7h1M9 7h1M14 7h3M21 7h2M9 8h1M12 8h1M14 8h3M22 8h1M9 9h1M14 9h2M22 9h1M9 10h1M14 10h2M22 10h1M24 10h1M10 11h5M22 11h1M24 11h2M11 12h3M21 12h1M23 12h3M18 13h9M16 14h12M14 15h14M13 16h10M27 16h1M13 17h2M17 17h4M18 18h2M20 29h2M19 30h3M19 31h4M20 32h2M27 35h3M14 36h2M20 36h3M27 36h4M13 37h4M19 37h5M25 37h7M13 38h3M17 38h11M29 38h4M13 39h2M17 39h11M30 39h3" />
<path stroke="#f3ff00" d="M37 3h3M37 4h3M36 5h4M36 6h4M36 7h4M34 8h6M34 9h6M34 10h6M34 11h4M34 12h4M34 13h4M0 14h2M33 14h4M0 15h3M33 15h4M0 16h3M33 16h4M0 17h2M33 17h3M32 18h4M32 19h4M32 20h3M32 21h3M33 22h1" />
<path stroke="#efefef" d="M3 4h1M8 4h1M3 5h1M7 5h1M7 6h1M7 7h1M17 7h1M20 7h1M7 8h1M21 8h1M7 9h1M16 9h1M21 9h1M5 10h3M21 10h1M9 11h1M15 11h1M21 11h1M10 12h1M14 12h1M18 12h1M20 12h1M16 13h2M12 14h4M12 15h2M12 16h1" />
<path stroke="#ffac00" d="M3 6h1M3 7h1M10 7h1M3 8h1M10 8h1M4 9h3M10 9h1M11 10h3" />
<path stroke="#f6a500" d="M4 6h3M6 7h1M11 7h3M6 8h1M13 8h1M13 9h1" />
<path stroke="#dfd7d7" d="M18 8h2M18 9h2M4 10h1M17 10h3M17 11h3M16 12h2M15 13h1" />
<path stroke="#f3d144" d="M3 9h1" />
<path stroke="#ffde48" d="M10 10h1" />
<path stroke="#f0ff00" d="M38 11h1" />
<path stroke="#e5ff00" d="M39 11h1M38 12h1M37 15h1M0 18h1M36 18h1M35 21h1" />
<path stroke="#b4ff00" d="M39 12h1" />
<path stroke="#e1ff00" d="M38 13h1M37 16h1M36 19h1M35 22h1" />
<path stroke="#a1ff00" d="M39 13h1" />
<path stroke="#efff00" d="M37 14h1M36 17h1M1 18h1M35 20h1M33 24h1M30 27h1M10 28h1M12 29h1M27 29h1M15 30h1M24 30h1" />
<path stroke="#d5ff00" d="M38 14h1M36 20h1M2 22h1M35 23h1M33 26h1M32 27h1M10 29h1M29 29h1M12 30h1M27 30h1" />
<path stroke="#9aff00" d="M39 14h1M38 17h1M0 20h1M37 20h1M1 22h1M36 23h1M32 28h1M29 30h1M12 31h1M27 31h1" />
<path stroke="#afff00" d="M38 15h1M36 21h1" />
<path stroke="#89ff00" d="M39 15h1M38 18h1M37 21h1M2 24h1M3 25h1M35 25h1M4 26h1M5 27h1M6 28h1M31 29h1" />
<path stroke="#ff8a00" d="M10 16h1M10 17h2M23 17h4M16 18h1M22 18h2M26 18h2M8 19h8M21 19h5M27 19h2M7 20h2M13 20h12M26 20h1M28 20h1M7 21h1M9 21h4M17 21h7M25 21h4M8 22h2M13 22h1M25 22h2M14 23h1M24 23h2M15 24h1M24 24h1M16 25h1M23 25h1M16 26h1M22 26h1M17 27h1M21 27h1M18 28h3" />
<path stroke="#a0ff00" d="M38 16h1M36 22h1" />
<path stroke="#83ff00" d="M39 16h1M37 22h1" />
<path stroke="#d6ff00" d="M37 17h1" />
<path stroke="#82ff00" d="M39 17h1M38 19h1M38 20h1M0 22h1M37 23h1M35 26h1M32 29h1M8 30h1M10 31h1M29 31h1M12 32h2M26 32h2M15 33h1" />
<path stroke="#aeff00" d="M37 18h1M34 25h1M31 28h1M9 29h1M11 30h1M28 30h1M14 31h1M25 31h1" />
<path stroke="#81ff00" d="M39 18h1M39 19h1M39 20h1M38 21h2M38 22h2M0 23h1M38 23h2M0 24h2M37 24h3M0 25h3M36 25h4M0 26h4M36 26h4M0 27h5M35 27h5M0 28h6M34 28h6M0 29h7M33 29h7M0 30h8M31 30h9M0 31h10M30 31h10M0 32h12M28 32h12M0 33h15M27 33h13M0 34h15M30 34h10M0 35h14M32 35h8M0 36h13M33 36h7M0 37h12M33 37h7M0 38h12M34 38h6M0 39h12M34 39h6" />
<path stroke="#b3ff00" d="M0 19h1" />
<path stroke="#e3ff00" d="M1 19h1" />
<path stroke="#9fff00" d="M37 19h1M13 31h1M26 31h1" />
<path stroke="#d4ff00" d="M1 20h1M8 28h1M15 31h1" />
<path stroke="#eeff00" d="M2 20h1M3 22h1M4 23h1M34 23h1M5 24h1M6 25h1M7 26h1M32 26h1M8 27h1M29 28h1" />
<path stroke="#88ff00" d="M0 21h1M1 23h1M36 24h1M34 27h1M33 28h1M7 29h1M9 30h1M30 30h1M11 31h1M28 31h1M14 32h1" />
<path stroke="#adff00" d="M1 21h1" />
<path stroke="#e4ff00" d="M2 21h1M33 25h1M31 27h1M9 28h1M11 29h1M28 29h1M14 30h1M25 30h1" />
<path stroke="#ff0000" d="M15 22h2M16 23h3M22 23h1M17 24h1M21 24h2M20 25h2M18 26h3" />
<path stroke="#a9ff00" d="M2 23h1M3 24h1M35 24h1M4 25h1M5 26h1M6 27h1M33 27h1M7 28h1M30 29h1" />
<path stroke="#d8ff00" d="M3 23h1M4 24h1M5 25h1M6 26h1M7 27h1" />
<path stroke="#fc809a" d="M19 23h3M18 24h3M18 25h2" />
<path stroke="#d9ff00" d="M34 24h1M30 28h1" />
<path stroke="#9bff00" d="M34 26h1" />
<path stroke="#99ff00" d="M8 29h1M10 30h1M15 32h1" />
<path stroke="#e0ff00" d="M13 30h1M26 30h1M16 31h1" />
<path stroke="#aa07b8" d="M17 32h2M23 32h2M17 33h3M21 33h1M23 33h3M16 34h3M20 34h3M24 34h3M16 35h4M21 35h1M23 35h3M17 36h2M24 36h1" />
</svg>