<svg xmlns="http://www.w3.org/2000/svg" viewBox="0 -0.5 40 40" shape-rendering="crispEdges">
<metadata>Made with Pixels to Svg https://codepen.io/shshaw/pen/XbxvNj</metadata>
<path stroke="#f7dc00" d="M0 0h7M19 0h21M0 1h4M13 1h2M18 1h22M0 2h9M11 2h29M0 3h40M0 4h14M22 4h18M0 5h9M24 5h16M0 6h8M9 6h3M26 6h14M0 7h10M27 7h5M36 7h4M0 8h9M28 8h1M0 9h8M9 9h2M0 10h10M29 10h11M0 11h10M29 11h11M4 12h6M30 12h10M5 13h6M32 13h8M0 14h1M8 14h2M33 14h7M0 15h10M34 15h6M0 16h9M35 16h5M0 17h9M29 17h1M36 17h4M0 18h8M29 18h2M37 18h3M0 19h7M30 19h3M37 19h3M0 20h6M30 20h4M37 20h3M0 21h6M30 21h10M0 22h7M31 22h9M0 23h8M10 23h2M27 23h1M31 23h9M1 24h1M3 24h11M26 24h2M32 24h8M5 25h10M25 25h3M33 25h7M6 26h9M24 26h5M34 26h6M6 27h10M23 27h6M35 27h5M0 28h1M6 28h10M25 28h5M35 28h5M0 29h2M7 29h7M29 29h2M36 29h4M0 30h4M8 30h5M30 30h2M36 30h4M0 31h4M9 31h3M31 31h9M0 32h4M11 32h4M28 32h12M0 33h4M11 33h3M27 33h13M2 34h3M30 34h7M32 35h2" />
<path stroke="#ffffff" d="M7 0h12M4 1h9M15 1h3M9 2h2M32 7h4M29 8h11M28 9h12M0 12h4M0 13h5M1 14h7M22 31h2M18 32h1M21 32h3M18 33h5M18 34h5M18 35h5M19 36h3M19 37h2M19 38h2M19 39h1" />
<path stroke="#9907d9" d="M14 4h8M15 5h7M17 6h3M19 7h2M20 8h1M11 10h3M15 10h1M17 10h1M19 10h1M21 10h3M11 11h9M21 11h4M24 12h1M32 15h1M33 16h2M34 17h2M34 18h2M35 19h2M35 20h2" />
<path stroke="#000000" d="M9 5h6M8 6h1M12 6h5M10 7h9M9 8h11M8 9h1M13 9h8M10 12h1M25 13h2M25 14h4M9 16h1M24 16h5M9 17h1M15 17h2M26 17h3M8 18h8M17 18h1M20 18h2M24 18h5M7 19h1M16 19h5M26 19h4M6 20h1M9 20h4M25 20h1M27 20h3M6 21h1M8 21h1M13 21h4M24 21h1M27 21h3M7 22h1M10 22h3M14 22h1M17 22h8M27 22h4M8 23h2M12 23h2M15 23h1M23 23h1M26 23h1M28 23h3M14 24h1M16 24h1M23 24h1M25 24h1M28 24h4M15 25h1M17 25h1M22 25h1M24 25h1M28 25h5M15 26h1M17 26h1M21 26h1M23 26h1M29 26h5M16 27h1M18 27h3M22 27h1M29 27h6M17 28h1M21 28h2M30 28h5M18 29h3M31 29h5M22 30h1M32 30h4M18 31h1M21 31h1M19 32h2M16 33h1M26 33h1M28 34h1M14 35h1M27 35h1M26 36h1M11 37h1M25 37h1M10 38h1M25 38h1M9 39h1M24 39h1" />
<path stroke="#9e07d9" d="M22 5h2M20 6h6M21 7h6M21 8h7M11 9h2M21 9h7M10 10h1M24 10h5M10 11h1M25 11h4M25 12h5M27 13h5M31 14h2M33 15h1M36 18h1" />
<path stroke="#6b079f" d="M14 10h1M16 10h1M18 10h1" />
<path stroke="#9407d9" d="M20 10h1M20 11h1" />
<path stroke="#d93407" d="M11 12h13M15 13h3M23 13h2M16 14h1M24 14h1M16 16h1M18 18h2M21 29h1M19 30h3M4 31h2M7 31h2M19 31h2M4 32h1M6 32h2M9 32h2M4 33h1M6 33h1M8 33h2M5 34h2M8 34h1M5 35h5M7 36h2" />
<path stroke="#a7a7a7" d="M11 13h4M18 13h5M10 14h1M15 14h1M17 14h1M23 14h1M15 15h3M24 15h5M10 16h1M15 16h1M17 16h1M23 16h1M11 17h4M17 17h6" />
<path stroke="#2c74df" d="M11 14h4M18 14h5M10 15h5M18 15h6M11 16h4M18 16h5" />
<path stroke="#71079f" d="M29 14h2" />
<path stroke="#6e079f" d="M29 15h3M29 16h4M30 17h4M31 18h3M33 19h2M34 20h1" />
<path stroke="#ff8a00" d="M10 17h1M23 17h3M16 18h1M22 18h2M8 19h8M21 19h5M7 20h2M13 20h12M26 20h1M7 21h1M9 21h4M17 21h7M25 21h2M8 22h2M13 22h1M25 22h2M14 23h1M24 23h2M15 24h1M24 24h1M16 25h1M23 25h1M16 26h1M22 26h1M17 27h1M21 27h1M18 28h3" />
<path stroke="#ff0000" d="M15 22h2M16 23h3M22 23h1M17 24h1M21 24h2M20 25h2M18 26h3" />
<path stroke="#fc809a" d="M19 23h3M18 24h3M18 25h2" />
<path stroke="#eae2e2" d="M0 24h1M2 24h1M4 25h1" />
<path stroke="#5f5c5c" d="M0 25h1M2 26h1M4 27h1" />
<path stroke="#59ffb5" d="M1 25h1M4 26h2M0 27h1M5 27h1M3 28h1" />
<path stroke="#59ffb3" d="M2 25h2M0 26h2M3 26h1" />
<path stroke="#59ffb6" d="M1 27h2M1 28h2M2 29h1" />
<path stroke="#59ffb8" d="M3 27h1" />
<path stroke="#59ffb1" d="M4 28h1M3 29h1" />
<path stroke="#fae8ad" d="M5 28h1M4 29h3M4 30h4M10 33h1M9 34h3M10 35h3M11 36h4M12 37h4M13 38h4M14 39h4" />
<path stroke="#2f2e2e" d="M16 28h1M23 28h2M14 29h4M22 29h7M13 30h6M23 30h7M12 31h6M24 31h7M15 32h3M24 32h4M17 33h1M23 33h3M15 34h3M23 34h5M29 34h1M15 35h3M23 35h4M28 35h4M9 36h2M15 36h4M22 36h4M27 36h6M6 37h5M16 37h3M21 37h4M26 37h7M6 38h4M11 38h2M17 38h2M21 38h4M26 38h8M7 39h2M10 39h4M18 39h1M20 39h4M25 39h10" />
<path stroke="#a22806" d="M6 31h1M5 32h1M8 32h1M5 33h1M7 33h1M7 34h1" />
<path stroke="#ff9a0c" d="M14 33h2M0 34h2M12 34h3M37 34h3M0 35h5M13 35h1M34 35h6M0 36h7M33 36h7M0 37h6M33 37h7" />
<path stroke="#00ce07" d="M0 38h6M34 38h6M0 39h7M35 39h5" />
</svg>