<svg xmlns="http://www.w3.org/2000/svg" viewBox="0 -0.5 40 40" shape-rendering="crispEdges">
<metadata>Made with Pixels to Svg https://codepen.io/shshaw/pen/XbxvNj</metadata>
<path stroke="#46b9ff" d="M0 0h2M9 0h31M11 1h13M26 1h4M36 1h2M39 1h1M11 2h12M0 3h1M8 3h15M0 4h2M6 4h8M15 4h7M0 5h15M16 5h2M19 5h3M0 6h16M17 6h1M21 6h1M0 7h10M12 7h1M27 7h5M0 8h9M10 8h1M26 8h6M0 9h6M8 9h3M28 9h4M0 10h4M29 10h3M33 10h2M0 11h1M31 11h4M0 12h1M28 12h3M32 12h2M0 13h3M28 13h6M0 14h8M30 14h4M2 15h6M31 15h3M4 16h3M29 16h2M32 16h1M4 17h2M7 17h1M30 17h2M5 18h3" />
<path stroke="#ffffff" d="M2 0h7M0 1h11M31 1h5M2 2h6M10 2h1M30 2h7M4 3h2M32 3h3M6 9h2M4 10h6M1 11h8M4 12h5M13 12h2M18 12h3M12 13h3M18 13h3M12 14h1M18 14h1M12 15h2M18 15h2M12 16h1M18 16h1M13 17h2M18 17h3M18 18h2" />
<path stroke="#27a000" d="M24 1h2M23 2h5M23 3h6M23 4h5M18 5h1M24 5h3M19 6h2M21 7h3M24 8h2M26 9h2" />
<path stroke="#46bbff" d="M30 1h1M29 2h1M39 2h1M30 3h1M38 3h2M31 4h1M37 4h2M36 5h2M27 6h2M35 6h2M35 7h1" />
<path stroke="#46b8ff" d="M38 1h1" />
<path stroke="#ddddda" d="M0 2h2M8 2h2M1 3h3M6 3h2M31 3h1M35 3h2M2 4h4M32 4h4M1 12h3M4 13h5" />
<path stroke="#46baff" d="M28 2h1M37 2h2M29 3h1M37 3h1M29 4h2M36 4h1M29 5h7M29 6h6M32 7h3M32 8h3M32 9h4M32 10h1M35 10h1M35 11h1M34 12h2M3 13h1M34 13h2M34 14h1" />
<path stroke="#ffeb00" d="M14 4h1M15 5h1M16 6h1M10 7h2M13 7h5M9 8h1M13 8h7M11 9h11M11 10h14M10 11h2M15 11h2M21 11h10M10 12h1M16 12h1M22 12h6M31 12h1M10 13h1M16 13h1M23 13h5M9 14h2M16 14h1M23 14h7M9 15h1M16 15h1M23 15h8M16 16h1M27 16h2M31 16h1M6 17h1M28 17h2M29 18h2M30 19h1M30 20h1M30 21h1M29 22h2M27 23h3M31 23h1M26 24h4M32 24h1M2 25h2M8 25h1M12 25h2M25 25h3M32 25h1M2 26h2M6 26h1M10 26h4M24 26h5M2 27h2M6 27h2M11 27h4M23 27h4M29 27h1M3 28h1M6 28h2M11 28h5M23 28h5M0 29h1M3 29h4M11 29h6M21 29h8M30 29h1M0 30h7M9 30h1M12 30h15M28 30h2M31 30h1M1 31h6M12 31h1M14 31h16M2 32h4M12 32h1M14 32h3M18 32h2M23 32h8M4 33h2M12 33h6M21 33h1M23 33h10M4 34h3M12 34h4M17 34h1M19 34h1M23 34h2M26 34h6M33 34h1M4 35h3M12 35h1M14 35h4M22 35h11M5 36h3M10 36h2M13 36h2M16 36h2M22 36h4M27 36h2M30 36h1M32 36h1M5 37h3M10 37h2M13 37h2M16 37h3M22 37h5M28 37h1M30 37h2M33 37h2M6 38h3M11 38h1M13 38h5M20 38h2M23 38h2M26 38h1M28 38h1M30 38h1M32 38h2M35 38h1M6 39h4M11 39h7M20 39h2M23 39h2M26 39h1M28 39h1M30 39h1M32 39h2" />
<path stroke="#36cc05" d="M22 4h1M22 5h2M22 6h3M25 7h2" />
<path stroke="#207f01" d="M28 4h1M27 5h2M18 6h1M26 6h1M19 7h2M21 8h3M24 9h2M26 10h3" />
<path stroke="#f8d409" d="M39 4h1" />
<path stroke="#f8d609" d="M38 5h1M37 6h1M35 8h5" />
<path stroke="#f8d509" d="M39 5h1M38 6h2M36 7h4" />
<path stroke="#3ee106" d="M25 6h1M24 7h1" />
<path stroke="#ffd600" d="M18 7h1M11 8h2M10 10h1M9 11h1M12 11h1M17 11h1M9 12h1M11 12h1M9 13h1M22 13h1M8 14h1M22 14h1M8 15h1M22 15h1M7 16h2M22 16h1M8 17h1M9 24h3M10 25h2M1 26h1M5 26h1M14 26h1M1 27h1M5 27h1M15 27h1M2 28h1M5 28h1M10 28h1M16 28h1M2 29h1M9 29h1M17 29h1M11 30h1M27 30h1M0 31h1M13 31h1M1 32h1M11 32h1M13 32h1M17 32h1M2 33h2M11 33h1M3 34h1M11 34h1M16 34h1M25 34h1M3 35h1M10 35h2M13 35h1M21 35h1M4 36h1M9 36h1M12 36h1M15 36h1M18 36h2M26 36h1M29 36h1M31 36h1M4 37h1M12 37h1M15 37h1M20 37h1M27 37h1M32 37h1M5 38h1M10 38h1M12 38h1M19 38h1M25 38h1M27 38h1M31 38h1M5 39h1M19 39h1M25 39h1M27 39h1M31 39h1" />
<path stroke="#efc803" d="M20 8h1M22 9h2M25 10h1M10 23h2M12 24h2M14 25h1M8 37h2M29 37h1M9 38h1M29 38h1M10 39h1M29 39h1" />
<path stroke="#e2780a" d="M36 9h4" />
<path stroke="#f88309" d="M36 10h1M38 10h1M37 11h3M39 12h1" />
<path stroke="#acdeff" d="M37 10h1M39 10h1" />
<path stroke="#000000" d="M13 11h2M18 11h3M12 12h1M15 12h1M17 12h1M21 12h1M11 13h1M15 13h1M17 13h1M21 13h1M11 14h1M13 14h3M17 14h1M19 14h3M10 15h2M14 15h2M17 15h1M20 15h2M9 16h1M11 16h1M13 16h3M17 16h1M19 16h3M23 16h4M9 17h1M12 17h1M15 17h3M21 17h2M27 17h1M8 18h8M17 18h1M20 18h2M24 18h2M28 18h1M7 19h1M16 19h5M26 19h1M29 19h1M6 20h1M9 20h4M25 20h1M27 20h1M29 20h1M6 21h1M8 21h1M13 21h4M24 21h1M29 21h1M7 22h1M10 22h3M14 22h1M17 22h8M27 22h2M8 23h2M12 23h2M15 23h1M23 23h1M26 23h1M14 24h1M16 24h1M23 24h1M25 24h1M15 25h1M17 25h1M22 25h1M24 25h1M15 26h1M17 26h1M21 26h1M23 26h1M16 27h1M18 27h3M22 27h1M17 28h1M21 28h2M18 29h3M20 32h3M18 33h3M22 33h1M18 34h1M20 34h3M18 35h3M20 36h2M19 37h1M21 37h1M18 38h1M22 38h1M18 39h1M22 39h1" />
<path stroke="#f88409" d="M36 11h1M36 12h1M38 12h1M36 13h1M38 13h1" />
<path stroke="#ff0082" d="M37 12h1M37 13h1" />
<path stroke="#00d11b" d="M39 13h1M36 14h4M36 15h4M33 16h7M32 17h8M31 18h9M31 19h9M31 20h9M2 21h4M31 21h9M0 22h7M31 22h9M0 23h8M30 23h1M32 23h8M0 24h9M30 24h2M33 24h7M0 25h2M4 25h4M9 25h1M28 25h4M33 25h7M0 26h1M4 26h1M7 26h3M29 26h11M0 27h1M4 27h1M8 27h3M27 27h2M30 27h8M0 28h2M4 28h1M8 28h2M28 28h8M7 29h2M10 29h1M29 29h1M31 29h2M7 30h2M10 30h1M30 30h1M7 31h5M8 32h3M10 33h1" />
<path stroke="#00d119" d="M35 14h1M34 15h2" />
<path stroke="#05e721" d="M0 15h2M0 16h4M0 17h4M0 18h5M0 19h7M0 20h6M0 21h2" />
<path stroke="#ff8a00" d="M10 16h1M10 17h2M23 17h4M16 18h1M22 18h2M26 18h2M8 19h8M21 19h5M27 19h2M7 20h2M13 20h12M26 20h1M28 20h1M7 21h1M9 21h4M17 21h7M25 21h4M8 22h2M13 22h1M25 22h2M14 23h1M24 23h2M15 24h1M24 24h1M16 25h1M23 25h1M16 26h1M22 26h1M17 27h1M21 27h1M18 28h3" />
<path stroke="#e00000" d="M15 22h2M16 23h3M22 23h1M17 24h1M21 24h2M20 25h2M18 26h3" />
<path stroke="#ff66b0" d="M19 23h3M18 24h3M18 25h2" />
<path stroke="#06a91b" d="M38 27h2M36 28h4M1 29h1M33 29h7M32 30h8M30 31h10M0 32h1M6 32h2M31 32h9M0 33h2M6 33h4M33 33h7M0 34h3M7 34h4M32 34h1M34 34h6M0 35h3M7 35h3M33 35h7M0 36h4M8 36h1M33 36h7M0 37h4M35 37h5M0 38h5M34 38h1M36 38h4M0 39h5M34 39h6" />
</svg>