<svg xmlns="http://www.w3.org/2000/svg" viewBox="0 -0.5 40 40" shape-rendering="crispEdges">
<metadata>Made with Pixels to Svg https://codepen.io/shshaw/pen/XbxvNj</metadata>
<path stroke="#f3008d" d="M0 0h16M25 0h4M4 1h4M2 2h9M29 2h11M1 3h2M8 3h5M37 3h3M28 4h12M28 5h12M0 6h10M36 6h3M6 7h3M36 7h3M30 9h5M31 10h2M34 11h3M0 12h7M34 12h2M32 16h2M34 17h1M32 18h3M0 22h1M3 22h1M5 22h1" />
<path stroke="#000000" d="M16 0h4M21 0h1M24 0h1M15 1h6M22 1h2M14 2h8M3 3h2M13 3h2M23 3h2M2 4h2M19 4h4M2 5h1M15 5h11M12 6h6M24 6h6M39 6h1M10 7h3M29 7h3M39 7h1M7 8h4M32 8h3M39 8h1M3 9h6M13 9h3M18 9h4M35 9h2M38 9h2M3 10h4M12 10h1M22 10h1M38 10h2M13 11h2M18 11h3M37 11h3M12 12h1M15 12h1M17 12h1M21 12h1M36 12h4M3 13h2M6 13h1M11 13h1M15 13h1M17 13h1M21 13h1M35 13h5M4 14h2M11 14h1M15 14h1M17 14h1M20 14h2M33 14h7M0 15h1M3 15h1M10 15h2M14 15h2M17 15h1M19 15h3M32 15h8M0 16h1M3 16h2M9 16h1M11 16h1M14 16h2M17 16h1M19 16h3M23 16h2M34 16h3M38 16h1M0 17h2M3 17h2M9 17h1M12 17h1M14 17h4M19 17h4M35 17h5M1 18h3M8 18h8M17 18h1M20 18h2M24 18h1M35 18h2M38 18h1M1 19h3M7 19h1M16 19h5M35 19h5M2 20h1M6 20h1M9 20h4M35 20h5M1 21h2M6 21h1M8 21h1M13 21h4M24 21h1M35 21h5M1 22h2M4 22h1M7 22h1M10 22h3M14 22h1M17 22h8M35 22h5M1 23h4M8 23h2M12 23h2M15 23h1M23 23h1M34 23h6M2 24h2M14 24h1M16 24h1M23 24h1M32 24h8M2 25h2M15 25h1M17 25h1M22 25h1M32 25h8M2 26h2M15 26h1M17 26h1M21 26h1M23 26h1M32 26h8M2 27h3M16 27h1M18 27h3M22 27h1M32 27h8M2 28h3M17 28h1M21 28h2M32 28h8M2 29h3M19 29h1M22 29h1M32 29h8M2 30h3M18 30h1M22 30h2M32 30h8M1 31h8M18 31h1M23 31h1M32 31h8M0 32h4M23 32h1M0 33h1M18 33h1M23 33h1M15 34h2M22 34h2M26 34h2M1 35h1M14 35h3M22 35h2M26 35h2M5 36h1M13 36h5M22 36h2M26 36h2M30 36h1M32 36h1M2 37h2M12 37h8M21 37h2M26 37h2M30 37h1M32 37h1M12 38h7M21 38h2M26 38h2M30 38h1M12 39h8M21 39h13" />
<path stroke="#212020" d="M20 0h1M22 0h2M21 1h1M24 1h1M22 2h4M15 3h4M25 3h2M13 4h2M26 4h2M11 6h1M30 6h1M9 7h1M32 7h2M35 8h4M37 9h1M17 31h1M16 32h2M22 32h1M16 33h2M22 33h1M17 34h2M17 35h2M21 35h1M30 35h1M18 36h1M21 36h1M20 37h1M23 37h1M19 38h2M23 38h1M32 38h2M2 39h2M20 39h1" />
<path stroke="#f3000d" d="M29 0h11M0 1h4M8 1h7M25 1h15M0 2h2M11 2h3M26 2h3M0 3h1M5 3h3M27 3h10M0 4h2M4 4h9M0 5h2M3 5h10M10 6h1M31 6h5M0 7h6M34 7h2M0 8h7M30 8h2M0 9h3M0 10h3M33 10h5M0 11h6M7 12h2M0 13h3M5 13h1M7 13h1M32 13h3M6 14h2M32 14h1M2 17h1M5 17h3M32 17h2M4 18h2M0 20h2M3 20h3M0 21h1M3 21h3M0 24h2M4 24h1M0 25h2M4 25h4" />
<path stroke="#363636" d="M19 3h4M15 4h4M23 4h3M13 5h2M26 5h2" />
<path stroke="#d50000" d="M18 6h3M13 7h4M18 7h5M24 7h2M28 7h1M12 8h2M21 8h3M25 8h2M28 8h1M10 9h1M12 9h1M22 9h2M26 9h1M28 9h1M10 10h2M23 10h2M27 10h1M10 11h1M24 11h2M27 11h1M29 11h2M10 12h1M25 12h1M27 12h4M10 13h1M25 13h1M27 13h3M10 14h1M25 14h1M27 14h2M30 14h1M9 15h1M27 15h2M30 15h1M28 16h1M30 16h1M28 17h1M30 17h1M26 18h1M28 18h1M30 18h2M26 19h1M28 19h1M30 19h1M26 20h1M28 20h3M26 21h1M29 21h2M26 22h1M28 22h3M10 23h1M26 23h1M28 23h3M9 24h2M13 24h1M26 24h1M28 24h3M9 25h2M13 25h1M26 25h1M28 25h3M9 26h2M13 26h1M26 26h1M28 26h1M30 26h1M9 27h1M12 27h2M26 27h1M28 27h1M30 27h1M9 28h1M13 28h1M16 28h1M26 28h1M30 28h1M9 29h1M13 29h1M16 29h1M26 29h1M9 30h1M13 30h1M16 30h1M26 30h1M30 30h2M9 31h1M13 31h1M15 31h2M25 31h2M28 31h1M30 31h2M9 32h1M15 32h1M25 32h4M30 32h2M9 33h1M14 33h2M25 33h4M30 33h2M9 34h1M12 34h3M25 34h1M28 34h2M31 34h1M9 35h1M13 35h1M25 35h1M28 35h2M31 35h1M9 36h1M25 36h1M28 36h2M31 36h1M9 37h1M25 37h1M28 37h2M31 37h1M9 38h1M24 38h2M28 38h2M31 38h1M10 39h1" />
<path stroke="#ff7c00" d="M21 6h3M29 8h1M29 9h1M30 10h1M26 13h1M30 13h2M26 14h1M31 14h1M26 15h1M31 15h1M26 16h1M29 16h1M31 16h1M26 17h1M29 17h1M31 17h1M29 18h1M29 19h1M27 20h1M27 21h1M27 22h1M27 23h1M27 24h1M27 25h1M27 26h1M10 27h1M27 27h1M10 28h1M12 28h1M27 28h1M29 28h1M10 29h1M12 29h1M14 29h1M27 29h1M29 29h1M10 30h1M12 30h1M14 30h1M27 30h1M29 30h1M10 31h1M12 31h1M14 31h1M27 31h1M29 31h1M10 32h1M12 32h1M14 32h1M29 32h1M10 33h1M12 33h2M29 33h1M10 34h1M10 35h1" />
<path stroke="#559013" d="M17 7h1M14 8h7M16 9h2M16 10h2M11 11h2M15 11h3M22 11h2M11 12h1M16 12h1M23 12h2M16 13h1M23 13h2M16 14h1M23 14h2M16 15h1M23 15h2M16 16h1M21 30h1M19 31h4M18 32h4M19 33h3M20 34h2M20 35h1" />
<path stroke="#ff0000" d="M23 7h1M26 7h2M11 8h1M24 8h1M27 8h1M11 9h1M24 9h2M27 9h1M25 10h2M28 10h2M9 11h1M26 11h1M28 11h1M9 12h1M26 12h1M9 13h1M9 14h1M29 14h1M25 15h1M29 15h1M25 16h1M27 16h1M25 17h1M27 17h1M25 18h1M27 18h1M25 19h1M27 19h1M31 19h1M25 20h1M31 20h1M25 21h1M28 21h1M31 21h1M15 22h2M25 22h1M31 22h1M11 23h1M16 23h3M22 23h1M24 23h2M31 23h1M11 24h1M17 24h1M21 24h2M24 24h2M31 24h1M11 25h1M20 25h2M24 25h2M31 25h1M11 26h1M18 26h3M24 26h2M29 26h1M31 26h1M11 27h1M24 27h2M29 27h1M31 27h1M11 28h1M24 28h2M28 28h1M31 28h1M11 29h1M24 29h2M28 29h1M30 29h2M11 30h1M24 30h2M28 30h1M11 31h1M24 31h1M11 32h1M13 32h1M24 32h1M11 33h1M24 33h1M11 34h1M24 34h1M11 35h2M24 35h1M10 36h3M24 36h1M10 37h2M24 37h1M10 38h2M11 39h1" />
<path stroke="#f30093" d="M9 9h1M7 10h3M6 11h3M31 11h3M31 12h3M8 13h1M8 14h1M2 15h1M4 15h5M5 16h4M8 17h1M6 18h2M32 21h3M6 22h1M32 22h3M6 23h2M32 23h2M5 24h4M0 26h2M4 26h5M5 27h4M5 28h4M0 29h1M8 29h1" />
<path stroke="#60a315" d="M13 10h3M18 10h4M21 11h1M22 12h1M22 13h1M22 14h1M22 15h1M22 16h1" />
<path stroke="#ffed00" d="M13 12h2M18 12h3M12 13h3M18 13h3M12 14h2M18 14h1M12 15h2M18 15h1M12 16h2M18 16h1M13 17h1M18 17h1M18 18h2" />
<path stroke="#ff7700" d="M0 14h4M1 15h1M1 16h2M0 18h1M0 19h1M4 19h3M32 19h3M32 20h3M0 23h1M5 23h1M8 25h1M0 27h2M0 28h2M1 29h1M5 29h3M0 30h2M5 30h4M0 31h1" />
<path stroke="#ffffff" d="M14 14h1M19 14h1" />
<path stroke="#ff8a00" d="M10 16h1M10 17h2M23 17h2M16 18h1M22 18h2M8 19h8M21 19h4M7 20h2M13 20h12M7 21h1M9 21h4M17 21h7M8 22h2M13 22h1M14 23h1M15 24h1M16 25h1M23 25h1M16 26h1M22 26h1M17 27h1M21 27h1M18 28h3" />
<path stroke="#ff8d00" d="M37 16h1M39 16h1M37 18h1M39 18h1" />
<path stroke="#fc809a" d="M19 23h3M18 24h3M18 25h2" />
<path stroke="#b40505" d="M12 24h1M12 25h1M14 25h1M12 26h1M14 26h1M14 27h2M23 27h1M14 28h2M23 28h1M15 29h1M17 29h2M23 29h1M15 30h1M17 30h1" />
<path stroke="#4a7f0e" d="M20 29h2M19 30h2M19 34h1M19 35h1M19 36h2" />
<path stroke="#3f0330" d="M4 32h5M32 32h8M1 33h8M32 33h3M39 33h1M0 34h3M6 34h3M32 34h2M36 34h4M0 35h1M32 35h8M0 36h1M33 36h2M0 37h2M33 37h2M0 38h3M37 38h3M0 39h2" />
<path stroke="#610149" d="M35 33h4M3 34h3M34 34h2M2 35h7" />
<path stroke="#78005a" d="M30 34h1M1 36h4M6 36h3M35 36h5M4 37h5M35 37h5M3 38h6M34 38h3M4 39h6M34 39h6" />
</svg>