<svg xmlns="http://www.w3.org/2000/svg" viewBox="0 -0.5 40 40" shape-rendering="crispEdges">
<metadata>Made with Pixels to Svg https://codepen.io/shshaw/pen/XbxvNj</metadata>
<path stroke="#0f672a" d="M0 0h1" />
<path stroke="#0f692a" d="M1 0h1" />
<path stroke="#116c2c" d="M2 0h1" />
<path stroke="#13712e" d="M3 0h1" />
<path stroke="#157831" d="M4 0h1" />
<path stroke="#ffffff" d="M5 0h1M10 0h1M15 0h1M17 0h1M21 0h1M23 0h3M31 0h2M2 1h1M6 1h1M10 1h1M14 1h1M16 1h1M19 1h2M22 1h1M27 1h1M30 1h2M3 2h2M7 2h1M12 2h2M17 2h1M20 2h3M29 2h2M34 2h1M4 3h2M8 3h1M10 3h1M19 3h1M23 3h1M26 3h1M29 3h1M33 3h1M5 4h2M8 4h1M26 4h1M28 4h1M31 4h2M36 4h2M0 5h2M6 5h1M9 5h1M23 5h1M31 5h2M35 5h2M1 6h3M7 6h1M12 6h13M29 6h1M35 6h2M2 7h1M4 7h1M13 7h13M28 7h1M32 7h3M3 8h3M14 8h4M22 8h5M29 8h5M5 9h2M8 9h1M15 9h7M23 9h3M30 9h1M32 9h1M16 10h1M21 10h4M31 10h2M35 10h2M1 11h3M15 11h2M22 11h5M29 11h2M33 11h2M3 12h2M9 12h1M16 12h1M22 12h4M30 12h4M16 13h1M22 13h4M27 13h1M30 13h3M35 13h2M3 14h2M14 14h1M16 14h1M19 14h1M22 14h4M27 14h2M32 14h3M36 14h2M0 15h3M5 15h2M16 15h1M22 15h5M29 15h1M36 15h1M38 15h1M8 16h1M22 16h1M27 16h1M30 16h1M32 16h2M2 17h2M30 17h2M2 18h1M7 18h1M29 18h2M34 18h1M3 19h2M3 20h2M12 20h1M20 20h1M35 20h2M2 21h1M11 21h1M17 21h1M22 21h2M10 22h1M17 22h1M21 22h1M24 22h1M30 22h1M32 22h1M10 23h1M23 23h1M31 23h1M4 24h1M35 24h2M33 25h1M36 25h1M4 26h1M35 26h1M35 27h2M7 28h3M26 28h2M29 28h2M32 28h3M7 29h1M12 29h2M20 29h2M26 29h1M28 29h1M30 29h1M32 29h1M7 30h3M20 30h2M26 30h1M30 30h1M32 30h1M7 31h1M12 31h2M18 31h2M22 31h2M26 31h1M30 31h1M32 31h1M7 32h3M17 32h2M22 32h3M26 32h1M30 32h1M32 32h3M17 33h1M24 33h2M17 34h1" />
<path stroke="#198839" d="M6 0h1" />
<path stroke="#8c8a8a" d="M7 0h1M13 0h1M8 1h1M11 1h1M15 1h1M18 1h1M25 1h1M10 2h2M15 2h2M18 2h1M25 2h1M11 3h1M14 3h2M11 4h2M14 4h1M7 5h2M11 5h1M24 5h2M9 6h2M5 7h1M26 7h1M6 8h1M9 8h1M7 9h1M9 9h1M6 10h1M7 11h3M14 12h1M18 12h1M20 12h1M9 13h1M12 13h1M14 13h1M18 13h1M20 13h1M7 14h1M7 15h1" />
<path stroke="#dddddd" d="M8 0h1M14 0h1M18 0h1M20 0h1M27 0h2M7 1h1M9 1h1M21 1h1M6 2h1M8 2h2M26 2h3M6 3h2M9 3h1M12 3h1M20 3h1M25 3h1M28 3h1M7 4h1M9 4h1M16 4h1M18 4h2M24 4h1M29 4h2M5 5h1M27 5h4M33 5h2M8 6h1M25 6h4M30 6h5M3 7h1M6 7h1M10 7h1M27 7h1M29 7h3M7 8h1M26 9h1M28 9h1M31 9h1M9 10h1M25 10h4M33 10h2M4 11h1M27 11h1M31 11h2M5 12h2M8 12h1M26 12h4M4 13h1M7 13h1M26 13h1M29 13h1M33 13h2M5 14h2M26 14h1M29 14h1M31 14h1M35 14h1M3 15h2M27 15h2M30 15h2M37 15h1M6 16h2M28 16h2M31 16h1M6 17h1M29 17h1M32 17h2M5 18h1M32 18h2M6 19h1M30 19h1M34 19h2M11 20h1M14 20h2M17 20h1M19 20h1M21 20h1M30 20h1M10 21h1M12 21h2M15 21h2M18 21h1M20 21h2M30 21h2M6 22h1M11 22h2M14 22h2M18 22h1M20 22h1M22 22h2M31 22h1M5 23h2M9 23h1M24 23h1M32 23h1M5 24h1M9 24h1M24 24h1M32 24h1M4 25h2M19 32h1M21 32h1M18 33h1M22 33h2M18 34h1M24 34h2" />
<path stroke="#1ea445" d="M9 0h1" />
<path stroke="#21b64b" d="M11 0h1" />
<path stroke="#afaaaa" d="M12 0h1M16 0h1M19 0h1M33 0h1M12 1h2M17 1h1M23 1h2M26 1h1M29 1h1M14 2h1M19 2h1M23 2h2M13 3h1M16 3h3M21 3h2M24 3h1M27 3h1M10 4h1M13 4h1M15 4h1M17 4h1M20 4h4M25 4h1M27 4h1M10 5h1M26 5h1M4 6h3M7 7h3M8 8h1M18 8h4M27 8h2M11 9h4M22 9h1M27 9h1M29 9h1M4 10h2M7 10h2M15 10h1M29 10h2M5 11h2M28 11h1M7 12h1M5 13h2M8 13h1M28 13h1M8 14h2M30 14h1M8 15h1M4 16h2M4 17h2M7 17h1M3 18h2M6 18h1M13 20h1M16 20h1M18 20h1M14 21h1M19 21h1M9 22h1M13 22h1M16 22h1M19 22h1" />
<path stroke="#25ce54" d="M22 0h1" />
<path stroke="#24b74d" d="M26 0h1" />
<path stroke="#229e45" d="M29 0h1" />
<path stroke="#209542" d="M30 0h1" />
<path stroke="#187633" d="M34 0h1" />
<path stroke="#15702f" d="M35 0h1" />
<path stroke="#136b2d" d="M36 0h1" />
<path stroke="#11682b" d="M37 0h1" />
<path stroke="#0f6629" d="M38 0h1" />
<path stroke="#0e6528" d="M39 0h1M39 1h1" />
<path stroke="#0f682a" d="M0 1h1M39 4h1" />
<path stroke="#106a2b" d="M1 1h1" />
<path stroke="#147430" d="M3 1h1" />
<path stroke="#157b33" d="M4 1h1" />
<path stroke="#178336" d="M5 1h1" />
<path stroke="#23ac4a" d="M28 1h1" />
<path stroke="#1d883c" d="M32 1h1" />
<path stroke="#1b8038" d="M33 1h1M0 13h1" />
<path stroke="#187834" d="M34 1h1M37 10h1" />
<path stroke="#167230" d="M35 1h1" />
<path stroke="#136d2e" d="M36 1h1M0 3h1" />
<path stroke="#11692b" d="M37 1h1M39 6h1" />
<path stroke="#0f6729" d="M38 1h1M39 3h1" />
<path stroke="#116b2c" d="M0 2h1" />
<path stroke="#126d2d" d="M1 2h1M38 6h1" />
<path stroke="#14722f" d="M2 2h1" />
<path stroke="#198b39" d="M5 2h1" />
<path stroke="#1f9b42" d="M31 2h1" />
<path stroke="#1d903e" d="M32 2h1M2 14h1" />
<path stroke="#1b863a" d="M33 2h1" />
<path stroke="#177632" d="M35 2h1M37 8h1" />
<path stroke="#146f2f" d="M36 2h1M38 8h1" />
<path stroke="#126b2c" d="M37 2h1" />
<path stroke="#10682a" d="M38 2h1" />
<path stroke="#0e6628" d="M39 2h1" />
<path stroke="#14702f" d="M1 3h1" />
<path stroke="#167732" d="M2 3h1" />
<path stroke="#177f35" d="M3 3h1" />
<path stroke="#21af49" d="M30 3h1" />
<path stroke="#20a445" d="M31 3h1" />
<path stroke="#1e9841" d="M32 3h1" />
<path stroke="#1a8238" d="M34 3h1" />
<path stroke="#187a34" d="M35 3h1" />
<path stroke="#157230" d="M36 3h1" />
<path stroke="#136c2d" d="M37 3h1" />
<path stroke="#10692a" d="M38 3h1" />
<path stroke="#157030" d="M0 4h1M38 9h1" />
<path stroke="#167431" d="M1 4h1M37 7h1" />
<path stroke="#187c35" d="M2 4h1" />
<path stroke="#198538" d="M3 4h1" />
<path stroke="#1b903c" d="M4 4h1" />
<path stroke="#1d943f" d="M33 4h1" />
<path stroke="#1b883a" d="M34 4h1M35 7h1" />
<path stroke="#197e36" d="M35 4h1" />
<path stroke="#116a2c" d="M38 4h1" />
<path stroke="#198037" d="M2 5h1" />
<path stroke="#1b8b3b" d="M3 5h1" />
<path stroke="#1c973f" d="M4 5h1" />
<path stroke="#f5f5f5" d="M12 5h11M11 6h1M11 7h2M10 8h4M10 9h1M10 10h5M17 10h4M10 11h3M17 11h1M21 11h1M10 12h2M10 13h1M10 14h1M16 16h1" />
<path stroke="#147130" d="M37 5h1" />
<path stroke="#126b2d" d="M38 5h1M39 8h1" />
<path stroke="#10682b" d="M39 5h1" />
<path stroke="#197634" d="M0 6h1" />
<path stroke="#157331" d="M37 6h1" />
<path stroke="#1a7936" d="M0 7h1" />
<path stroke="#1b7f38" d="M1 7h1M0 14h1" />
<path stroke="#187d36" d="M36 7h1" />
<path stroke="#136e2e" d="M38 7h1" />
<path stroke="#126a2c" d="M39 7h1" />
<path stroke="#1b7c38" d="M0 8h1" />
<path stroke="#1c823a" d="M1 8h1" />
<path stroke="#1d8d3e" d="M2 8h1" />
<path stroke="#1e9941" d="M34 8h1" />
<path stroke="#1c8b3c" d="M35 8h1" />
<path stroke="#197f37" d="M36 8h1" />
<path stroke="#1c7f39" d="M0 9h1" />
<path stroke="#1d853b" d="M1 9h1" />
<path stroke="#1e903f" d="M2 9h1" />
<path stroke="#1f9e43" d="M3 9h1" />
<path stroke="#20ad48" d="M4 9h1" />
<path stroke="#20ab47" d="M33 9h1" />
<path stroke="#1f9c42" d="M34 9h1" />
<path stroke="#1d8e3d" d="M35 9h1" />
<path stroke="#1a8138" d="M36 9h1" />
<path stroke="#177733" d="M37 9h1" />
<path stroke="#136c2e" d="M39 9h1" />
<path stroke="#1c8039" d="M0 10h1M1 16h1" />
<path stroke="#1d863b" d="M1 10h1" />
<path stroke="#1e9340" d="M2 10h1" />
<path stroke="#1fa044" d="M3 10h1M3 13h1" />
<path stroke="#157130" d="M38 10h1" />
<path stroke="#146d2e" d="M39 10h1" />
<path stroke="#1c8139" d="M0 11h1M0 12h1" />
<path stroke="#000000" d="M13 11h2M18 11h3M12 12h1M15 12h1M17 12h1M21 12h1M11 13h1M15 13h1M17 13h1M21 13h1M11 14h1M15 14h1M17 14h1M20 14h2M10 15h2M14 15h2M17 15h1M19 15h3M9 16h1M11 16h1M14 16h2M17 16h1M19 16h3M23 16h4M9 17h1M12 17h1M14 17h4M19 17h4M27 17h2M8 18h8M17 18h1M20 18h2M24 18h2M28 18h1M7 19h1M16 19h5M26 19h1M29 19h1M6 20h1M9 20h2M25 20h1M27 20h1M29 20h1M6 21h1M8 21h1M24 21h1M29 21h1M7 22h1M27 22h2M8 23h1M12 23h2M15 23h1M26 23h1M14 24h1M16 24h1M23 24h1M25 24h1M15 25h1M17 25h1M22 25h1M24 25h1M15 26h1M17 26h1M21 26h1M23 26h1M16 27h1M18 27h3M22 27h1M17 28h1M21 28h2M19 29h1M22 29h1M18 30h2M22 30h2M17 31h1M20 31h2M24 31h1M16 32h1M20 32h1M25 32h1M16 33h1M26 33h1M15 34h1M27 34h3M14 35h1M30 35h2M13 36h1M32 36h1M12 37h1M32 37h1M12 38h1M33 38h1M12 39h1M33 39h1" />
<path stroke="#1e903e" d="M35 11h1M35 12h1" />
<path stroke="#1b8439" d="M36 11h1" />
<path stroke="#197935" d="M37 11h1" />
<path stroke="#167131" d="M38 11h1" />
<path stroke="#156d2f" d="M39 11h1" />
<path stroke="#1d873b" d="M1 12h1" />
<path stroke="#1e9440" d="M2 12h1" />
<path stroke="#b1a9a9" d="M13 12h1M19 12h1M13 13h1M19 13h1" />
<path stroke="#209e43" d="M34 12h1" />
<path stroke="#1c843a" d="M36 12h1" />
<path stroke="#197a35" d="M37 12h1" />
<path stroke="#177232" d="M38 12h1" />
<path stroke="#156e2f" d="M39 12h1" />
<path stroke="#1c863b" d="M1 13h1" />
<path stroke="#1e933f" d="M2 13h1" />
<path stroke="#1a7a36" d="M37 13h1" />
<path stroke="#187232" d="M38 13h1" />
<path stroke="#166e30" d="M39 13h1" />
<path stroke="#1c853a" d="M1 14h1" />
<path stroke="#c3d9f9" d="M12 14h2M18 14h1M12 15h2M18 15h1M12 16h2M18 16h1M13 17h1M18 17h1M18 18h2" />
<path stroke="#197233" d="M38 14h1" />
<path stroke="#186f31" d="M39 14h1" />
<path stroke="#23dd57" d="M9 15h1" />
<path stroke="#23b54c" d="M32 15h1" />
<path stroke="#22a748" d="M33 15h1" />
<path stroke="#219944" d="M34 15h1" />
<path stroke="#208c3f" d="M35 15h1" />
<path stroke="#196f32" d="M39 15h1" />
<path stroke="#1b7b37" d="M0 16h1" />
<path stroke="#1e893c" d="M2 16h1" />
<path stroke="#1f9441" d="M3 16h1" />
<path stroke="#ff8a00" d="M10 16h1M10 17h2M23 17h4M16 18h1M22 18h2M26 18h2M8 19h8M21 19h5M27 19h2M7 20h2M22 20h3M26 20h1M28 20h1M7 21h1M9 21h1M25 21h4M8 22h1M25 22h2M14 23h1M25 23h1M15 24h1M16 25h1M23 25h1M16 26h1M22 26h1M17 27h1M21 27h1M18 28h3" />
<path stroke="#229543" d="M34 16h1" />
<path stroke="#218a3f" d="M35 16h1" />
<path stroke="#1f803b" d="M36 16h1" />
<path stroke="#1d7838" d="M37 16h1" />
<path stroke="#1b7235" d="M38 16h1" />
<path stroke="#1a6f33" d="M39 16h1" />
<path stroke="#1c7937" d="M0 17h1" />
<path stroke="#1d7d38" d="M1 17h1" />
<path stroke="#24c250" d="M8 17h1" />
<path stroke="#239143" d="M34 17h1" />
<path stroke="#21873f" d="M35 17h1" />
<path stroke="#207e3c" d="M36 17h1" />
<path stroke="#1e7739" d="M37 17h1" />
<path stroke="#1c7236" d="M38 17h1" />
<path stroke="#1c6f34" d="M39 17h1" />
<path stroke="#1c7637" d="M0 18h1" />
<path stroke="#1d7a38" d="M1 18h1" />
<path stroke="#25b04c" d="M31 18h1" />
<path stroke="#22833f" d="M35 18h1" />
<path stroke="#217c3c" d="M36 18h1" />
<path stroke="#207639" d="M37 18h1" />
<path stroke="#1e7137" d="M38 18h1" />
<path stroke="#1e6f36" d="M39 18h1" />
<path stroke="#1d7437" d="M0 19h1" />
<path stroke="#1e7738" d="M1 19h1" />
<path stroke="#1f7d3b" d="M2 19h1" />
<path stroke="#239243" d="M5 19h1" />
<path stroke="#25a84a" d="M31 19h1" />
<path stroke="#259c47" d="M32 19h1" />
<path stroke="#259144" d="M33 19h1" />
<path stroke="#22793d" d="M36 19h1" />
<path stroke="#21743a" d="M37 19h1" />
<path stroke="#207138" d="M38 19h1" />
<path stroke="#1f6f37" d="M39 19h1" />
<path stroke="#1d7237" d="M0 20h1" />
<path stroke="#1e7438" d="M1 20h1" />
<path stroke="#20783a" d="M2 20h1" />
<path stroke="#248a42" d="M5 20h1" />
<path stroke="#259f48" d="M31 20h1" />
<path stroke="#259546" d="M32 20h1" />
<path stroke="#258b43" d="M33 20h1" />
<path stroke="#258341" d="M34 20h1" />
<path stroke="#22733b" d="M37 20h1M3 23h1" />
<path stroke="#21713a" d="M38 20h1M2 23h1" />
<path stroke="#217039" d="M39 20h1M2 24h1" />
<path stroke="#1e7037" d="M0 21h1" />
<path stroke="#1f7238" d="M1 21h1" />
<path stroke="#22793c" d="M3 21h1" />
<path stroke="#237e3e" d="M4 21h1" />
<path stroke="#248340" d="M5 21h1" />
<path stroke="#268e44" d="M32 21h1M14 26h1" />
<path stroke="#268642" d="M33 21h1" />
<path stroke="#257f41" d="M34 21h1" />
<path stroke="#257a3f" d="M35 21h1" />
<path stroke="#24763e" d="M36 21h1" />
<path stroke="#23733c" d="M37 21h1" />
<path stroke="#23713b" d="M38 21h1" />
<path stroke="#22703a" d="M39 21h1M3 25h1M3 26h1" />
<path stroke="#1e6f37" d="M0 22h1" />
<path stroke="#1f7038" d="M1 22h1" />
<path stroke="#21723a" d="M2 22h1" />
<path stroke="#22753c" d="M3 22h1" />
<path stroke="#23793d" d="M4 22h1" />
<path stroke="#247d3f" d="M5 22h1" />
<path stroke="#26a34a" d="M29 22h1M28 23h1" />
<path stroke="#268142" d="M33 22h1" />
<path stroke="#267b40" d="M34 22h1" />
<path stroke="#25773f" d="M35 22h1M6 24h1" />
<path stroke="#25753e" d="M36 22h1" />
<path stroke="#24733d" d="M37 22h1" />
<path stroke="#23713c" d="M38 22h2" />
<path stroke="#1f6e37" d="M0 23h1" />
<path stroke="#1f6f38" d="M1 23h1" />
<path stroke="#23753d" d="M4 23h1" />
<path stroke="#267e41" d="M7 23h1" />
<path stroke="#269246" d="M11 23h1" />
<path stroke="#730505" d="M16 23h7M17 24h1M22 24h1" />
<path stroke="#26ad4c" d="M27 23h1" />
<path stroke="#269a47" d="M29 23h1M23 27h1" />
<path stroke="#269145" d="M30 23h1M29 24h1M25 27h1" />
<path stroke="#267d41" d="M33 23h1" />
<path stroke="#267840" d="M34 23h1M8 25h1" />
<path stroke="#26753f" d="M35 23h1" />
<path stroke="#25743e" d="M36 23h1M6 25h1" />
<path stroke="#25723d" d="M37 23h1M37 24h1M37 25h1M5 26h1" />
<path stroke="#24713d" d="M38 23h2M39 24h1M38 27h1" />
<path stroke="#1f6d37" d="M0 24h1M0 25h2M1 26h1M2 29h1M38 31h1M4 32h1M37 32h1M35 35h1M34 37h1" />
<path stroke="#1f6e38" d="M1 24h1" />
<path stroke="#22713b" d="M3 24h1" />
<path stroke="#267940" d="M7 24h1" />
<path stroke="#267c41" d="M8 24h1" />
<path stroke="#268443" d="M10 24h1" />
<path stroke="#268944" d="M11 24h1" />
<path stroke="#269045" d="M12 24h1M28 25h1" />
<path stroke="#269847" d="M13 24h1M27 25h1" />
<path stroke="#8a0505" d="M18 24h4M18 25h1" />
<path stroke="#26ab4b" d="M26 24h1" />
<path stroke="#26a249" d="M27 24h1" />
<path stroke="#269947" d="M28 24h1" />
<path stroke="#278943" d="M30 24h1" />
<path stroke="#278342" d="M31 24h1M30 25h1M17 29h1" />
<path stroke="#277940" d="M33 24h1" />
<path stroke="#25733d" d="M34 24h1" />
<path stroke="#25713d" d="M38 24h1M38 25h2M37 26h3M5 27h1M37 27h1M10 35h1M10 36h1" />
<path stroke="#216f39" d="M2 25h1" />
<path stroke="#26763f" d="M7 25h1" />
<path stroke="#277b41" d="M9 25h1M14 29h1M16 30h1" />
<path stroke="#277e42" d="M10 25h1M30 26h1" />
<path stroke="#278343" d="M11 25h1M15 28h1" />
<path stroke="#278944" d="M12 25h1M29 25h1" />
<path stroke="#268f45" d="M13 25h1M27 26h1" />
<path stroke="#269747" d="M14 25h1" />
<path stroke="#f48989" d="M19 25h3M18 26h3" />
<path stroke="#26a84a" d="M25 25h1" />
<path stroke="#26a049" d="M26 25h1" />
<path stroke="#277e41" d="M31 25h1" />
<path stroke="#277a40" d="M32 25h1" />
<path stroke="#1e5c31" d="M34 25h1" />
<path stroke="#133a1f" d="M35 25h1" />
<path stroke="#1f6c37" d="M0 26h1M1 27h1M39 31h1M6 36h1" />
<path stroke="#216e39" d="M2 26h1M38 30h1M35 33h1M34 35h1M7 36h1M33 37h1" />
<path stroke="#25733e" d="M6 26h1" />
<path stroke="#26743f" d="M7 26h1M8 27h1" />
<path stroke="#267640" d="M8 26h1" />
<path stroke="#277840" d="M9 26h1" />
<path stroke="#277a41" d="M10 26h1M31 26h1M11 27h1M30 27h1" />
<path stroke="#277d42" d="M11 26h1M15 29h1" />
<path stroke="#278242" d="M12 26h1" />
<path stroke="#278743" d="M13 26h1" />
<path stroke="#26a149" d="M24 26h1" />
<path stroke="#269b48" d="M25 26h1" />
<path stroke="#269546" d="M26 26h1" />
<path stroke="#278844" d="M28 26h1" />
<path stroke="#278243" d="M29 26h1" />
<path stroke="#277740" d="M32 26h1M10 27h1M31 27h1M11 28h1M14 30h1M16 31h1" />
<path stroke="#226638" d="M33 26h1M9 31h1M10 32h1M13 32h1" />
<path stroke="#0f2d18" d="M34 26h1" />
<path stroke="#256f3c" d="M36 26h1" />
<path stroke="#1e6c36" d="M0 27h1M1 28h1M4 33h1M36 34h1M5 35h1M35 36h1M6 37h1M7 39h1" />
<path stroke="#206e39" d="M2 27h1M3 29h1" />
<path stroke="#226f3a" d="M3 27h1M4 29h1M38 29h1M37 30h1M36 31h1M35 32h1M8 36h1M33 36h1" />
<path stroke="#24703c" d="M4 27h1M39 27h1M35 30h1M32 35h1M9 36h1M10 38h1" />
<path stroke="#25713e" d="M6 27h1" />
<path stroke="#26723f" d="M7 27h1M12 34h1" />
<path stroke="#277540" d="M9 27h1M32 27h1M10 28h1M14 31h1M27 31h1" />
<path stroke="#277d41" d="M12 27h1M17 30h1" />
<path stroke="#278142" d="M13 27h1" />
<path stroke="#278643" d="M14 27h1M18 29h1" />
<path stroke="#268b44" d="M15 27h1" />
<path stroke="#269646" d="M24 27h1" />
<path stroke="#268c44" d="M26 27h1" />
<path stroke="#268442" d="M27 27h1" />
<path stroke="#23743c" d="M28 27h1" />
<path stroke="#267a40" d="M29 27h1" />
<path stroke="#226537" d="M33 27h1M33 30h1" />
<path stroke="#0e2d18" d="M34 27h1" />
<path stroke="#1d6b35" d="M0 28h1M1 29h1M39 32h1M4 34h1M36 35h1M5 36h1" />
<path stroke="#1f6d38" d="M2 28h1" />
<path stroke="#216f3a" d="M3 28h1" />
<path stroke="#23703b" d="M4 28h1" />
<path stroke="#236d3a" d="M5 28h1" />
<path stroke="#216436" d="M6 28h1" />
<path stroke="#277941" d="M12 28h1M15 30h1" />
<path stroke="#277c41" d="M13 28h1" />
<path stroke="#278042" d="M14 28h1M16 29h1" />
<path stroke="#268843" d="M16 28h1" />
<path stroke="#268e45" d="M23 28h1" />
<path stroke="#258842" d="M24 28h1" />
<path stroke="#21793b" d="M25 28h1" />
<path stroke="#123b1f" d="M28 28h1" />
<path stroke="#226839" d="M31 28h1" />
<path stroke="#12391f" d="M35 28h1" />
<path stroke="#216536" d="M36 28h1" />
<path stroke="#24703d" d="M37 28h1M34 31h1" />
<path stroke="#23703c" d="M38 28h1" />
<path stroke="#236f3b" d="M39 28h1M37 29h1M36 30h1M8 35h1M33 35h1M9 37h1M9 38h1" />
<path stroke="#1c6b34" d="M0 29h1M3 33h1M38 33h1M37 34h1M4 35h1M36 36h1M6 38h1M35 38h1" />
<path stroke="#1f6234" d="M5 29h1M8 34h1" />
<path stroke="#0f2f19" d="M6 29h1" />
<path stroke="#143c20" d="M8 29h1M33 29h1M8 31h1" />
<path stroke="#226738" d="M9 29h1" />
<path stroke="#26713d" d="M10 29h1" />
<path stroke="#226637" d="M11 29h1" />
<path stroke="#278543" d="M23 29h1" />
<path stroke="#22733a" d="M24 29h1" />
<path stroke="#10351b" d="M25 29h1" />
<path stroke="#133d20" d="M27 29h1" />
<path stroke="#0f2e19" d="M29 29h1M12 32h1M8 33h1M33 33h1" />
<path stroke="#10301a" d="M31 29h1M12 30h1" />
<path stroke="#216236" d="M34 29h1M28 32h1" />
<path stroke="#216537" d="M35 29h1" />
<path stroke="#236e3b" d="M36 29h1" />
<path stroke="#226e3a" d="M39 29h1M7 35h1M8 37h1M9 39h1" />
<path stroke="#1b6a32" d="M0 30h1M1 31h1" />
<path stroke="#1c6b33" d="M1 30h1M35 39h1" />
<path stroke="#1e6c35" d="M2 30h1M38 32h1M37 33h1" />
<path stroke="#206e37" d="M3 30h1" />
<path stroke="#226f39" d="M4 30h1" />
<path stroke="#1d5f32" d="M5 30h1" />
<path stroke="#0b2312" d="M6 30h1M6 31h1" />
<path stroke="#236839" d="M10 30h1" />
<path stroke="#10311a" d="M11 30h1" />
<path stroke="#226939" d="M13 30h1" />
<path stroke="#216a38" d="M24 30h1" />
<path stroke="#0c2614" d="M25 30h1" />
<path stroke="#236b39" d="M27 30h1" />
<path stroke="#206135" d="M28 30h1M30 34h1" />
<path stroke="#0c2413" d="M29 30h1" />
<path stroke="#0b2313" d="M31 30h1M31 31h1" />
<path stroke="#246f3c" d="M34 30h1M10 39h1" />
<path stroke="#206d38" d="M39 30h1M35 34h1M6 35h1M7 37h1M8 39h1" />
<path stroke="#1a6931" d="M0 31h1M36 38h1" />
<path stroke="#1d6c34" d="M2 31h1" />
<path stroke="#1f6d36" d="M3 31h1M34 38h1" />
<path stroke="#216e38" d="M4 31h1M37 31h1M36 32h1" />
<path stroke="#1d5e31" d="M5 31h1" />
<path stroke="#256d3c" d="M10 31h1" />
<path stroke="#1d552e" d="M11 31h1" />
<path stroke="#277640" d="M15 31h1" />
<path stroke="#0c2513" d="M25 31h1" />
<path stroke="#216336" d="M28 31h1" />
<path stroke="#0c2313" d="M29 31h1" />
<path stroke="#25703d" d="M33 31h1M10 37h1M11 38h1M11 39h1" />
<path stroke="#246f3b" d="M35 31h1" />
<path stroke="#186830" d="M0 32h1M1 33h1M39 35h1M3 36h1" />
<path stroke="#196931" d="M1 32h1M39 34h1M3 35h1M37 36h1M4 37h1M5 39h1M36 39h1" />
<path stroke="#1b6b33" d="M2 32h1" />
<path stroke="#1d6c35" d="M3 32h1M35 37h1" />
<path stroke="#1c5d30" d="M5 32h1" />
<path stroke="#092011" d="M6 32h1" />
<path stroke="#102f1a" d="M11 32h1" />
<path stroke="#277340" d="M14 32h1M27 32h1M14 33h2M27 33h1" />
<path stroke="#277440" d="M15 32h1" />
<path stroke="#0b2112" d="M29 32h1" />
<path stroke="#0a1e10" d="M31 32h1M30 33h1" />
<path stroke="#17682f" d="M0 33h1M2 35h1M38 36h1M4 38h1M37 38h1" />
<path stroke="#1a6a32" d="M2 33h1M4 36h1M36 37h1" />
<path stroke="#1c6031" d="M5 33h1" />
<path stroke="#0a2312" d="M6 33h1" />
<path stroke="#0a2011" d="M7 33h1M32 33h1" />
<path stroke="#216437" d="M9 33h1M11 33h1" />
<path stroke="#256e3c" d="M10 33h1" />
<path stroke="#226437" d="M12 33h1" />
<path stroke="#26703d" d="M13 33h1" />
<path stroke="#b49a57" d="M19 33h1M20 34h2" />
<path stroke="#b49b57" d="M20 33h2" />
<path stroke="#226438" d="M28 33h1" />
<path stroke="#0c2414" d="M29 33h1" />
<path stroke="#07170c" d="M31 33h1" />
<path stroke="#1f6334" d="M34 33h1" />
<path stroke="#206d37" d="M36 33h1" />
<path stroke="#1b6a33" d="M39 33h1M3 34h1M37 35h1M5 37h1M6 39h1" />
<path stroke="#15672d" d="M0 34h1M2 36h1M38 37h1M3 38h1" />
<path stroke="#16682e" d="M1 34h1" />
<path stroke="#186930" d="M2 34h1M37 37h1" />
<path stroke="#1e6b36" d="M5 34h1" />
<path stroke="#1d6032" d="M6 34h1" />
<path stroke="#1e5f32" d="M7 34h1" />
<path stroke="#246e3c" d="M9 34h1" />
<path stroke="#26713e" d="M10 34h2M11 35h1M11 36h1M11 37h1" />
<path stroke="#27723f" d="M13 34h1M13 35h1" />
<path stroke="#277240" d="M14 34h1" />
<path stroke="#dabf71" d="M16 34h1M22 34h1M26 34h1M16 35h1M18 35h1M20 35h1M22 35h1M24 35h1M26 35h1M28 35h1M14 36h1M16 36h1M18 36h1M20 36h1M22 36h1M24 36h1M26 36h1M28 36h1M30 36h1M14 37h1M16 37h1M18 37h1M20 37h1M22 37h1M24 37h1M26 37h1M30 37h1M14 38h1M16 38h1M18 38h1M20 38h1M22 38h1M24 38h1M26 38h1M30 38h1M32 38h1M14 39h1M16 39h1M18 39h1M20 39h1M22 39h1M24 39h1M26 39h1M30 39h1M32 39h1" />
<path stroke="#c6ac64" d="M19 34h1M23 34h1M15 35h1M17 35h1M19 35h1M21 35h1M23 35h1M25 35h1M27 35h1M29 35h1M15 36h1M17 36h1M19 36h1M21 36h1M23 36h1M25 36h1M27 36h1M29 36h1M31 36h1M13 37h1M15 37h1M17 37h1M19 37h1M21 37h1M23 37h1M25 37h1M27 37h1M29 37h1M31 37h1M13 38h1M17 38h1M19 38h1M21 38h1M23 38h1M25 38h1M27 38h1M29 38h1M31 38h1M13 39h1M17 39h1M19 39h1M21 39h1M23 39h1M25 39h1M27 39h1M29 39h1M31 39h1" />
<path stroke="#1f6034" d="M31 34h1" />
<path stroke="#1e5f33" d="M32 34h1" />
<path stroke="#1e6233" d="M33 34h1" />
<path stroke="#216d39" d="M34 34h1M8 38h1" />
<path stroke="#1a6932" d="M38 34h1M5 38h1" />
<path stroke="#13662c" d="M0 35h1" />
<path stroke="#14672d" d="M1 35h1" />
<path stroke="#25703c" d="M9 35h1" />
<path stroke="#26723e" d="M12 35h1M12 36h1" />
<path stroke="#196831" d="M38 35h1" />
<path stroke="#11652a" d="M0 36h1M1 37h1" />
<path stroke="#13662b" d="M1 36h1M39 38h1M39 39h1" />
<path stroke="#206e38" d="M34 36h1" />
<path stroke="#16672e" d="M39 36h1M3 37h1M37 39h1" />
<path stroke="#106529" d="M0 37h1" />
<path stroke="#14662c" d="M2 37h1M38 39h1" />
<path stroke="#635021" d="M28 37h1M15 38h1M28 38h1M15 39h1M28 39h1" />
<path stroke="#14672c" d="M39 37h1M38 38h1" />
<path stroke="#0f6429" d="M0 38h1M0 39h1" />
<path stroke="#10652a" d="M1 38h1" />
<path stroke="#12662b" d="M2 38h1" />
<path stroke="#1e6c37" d="M7 38h1" />
<path stroke="#106429" d="M1 39h1" />
<path stroke="#12652b" d="M2 39h1" />
<path stroke="#14662d" d="M3 39h1" />
<path stroke="#16672f" d="M4 39h1" />
<path stroke="#1f6c36" d="M34 39h1" />
</svg>