<svg xmlns="http://www.w3.org/2000/svg" viewBox="0 -0.5 40 40" shape-rendering="crispEdges">
<metadata>Made with Pixels to Svg https://codepen.io/shshaw/pen/XbxvNj</metadata>
<path stroke="#76aaff" d="M0 0h3M12 0h28M16 1h24M17 2h7M29 2h11M10 3h11M29 3h11M13 4h4M28 4h12M28 5h6M28 6h4M28 7h2" />
<path stroke="#76acff" d="M3 0h9M0 1h16M0 2h17M0 3h4M0 4h1" />
<path stroke="#6a361f" d="M24 2h5M21 3h6M18 4h7M16 5h2M19 5h3M18 6h2M17 7h1M16 8h1M14 9h8M22 10h2M23 11h2M24 12h2M25 13h1M26 14h1M27 15h1M27 16h2M29 17h1M29 18h1M30 19h1M30 20h1M30 21h1M29 22h2M27 23h3M26 24h3M25 25h3M24 26h3M23 27h3M22 28h3M21 29h4M19 30h5M19 31h5M20 32h5M17 33h2M20 33h3M7 34h1M9 34h1M16 34h7M30 34h1M8 35h2M15 35h8M8 36h1M10 36h1M15 36h8M30 36h1M7 37h2M10 37h1M14 37h7M29 37h3M7 38h2M10 38h1M14 38h2M17 38h4M29 38h3M8 39h2M11 39h1M15 39h1M17 39h4M28 39h5" />
<path stroke="#c18609" d="M4 3h6M1 4h12M0 5h14M0 6h12M0 7h2M3 7h8M0 8h10M0 9h5M6 9h4M0 10h2M4 10h5M28 10h4M0 11h9M29 11h6M37 11h2M0 12h5M6 12h2M29 12h1M32 12h6M39 12h1M0 13h5M6 13h2M29 13h10M0 14h8M30 14h4M0 15h5M6 15h1M30 15h2M0 16h3M4 16h3M1 17h6M1 18h5M0 19h2M3 19h2M0 20h1M2 20h4M0 21h6M0 22h3M6 22h1M0 23h1M6 23h1M0 24h3M6 24h1M9 24h1M0 25h3M6 25h5M2 26h2M5 26h3M10 26h2M34 26h2M2 27h2M5 27h1M33 27h2M0 28h2M10 28h1M28 29h1M12 30h1M36 31h1M10 35h3M11 36h1M33 36h1M37 36h3M11 37h1M34 37h6M35 38h5M0 39h2M35 39h5" />
<path stroke="#954b2a" d="M27 3h2M25 4h3M22 5h6M20 6h8M18 7h10M17 8h11M22 9h6M24 10h4M25 11h4M26 12h3M26 13h3M27 14h3M28 15h2M29 16h2M30 17h1M30 18h2M31 19h1M31 20h1M31 21h1M31 22h1M30 23h1M24 31h1M8 33h1M8 34h1M26 34h1M7 35h1M30 35h2M9 36h1M31 36h2M9 37h1M24 37h1M32 37h2M9 38h1M32 38h3M10 39h1M33 39h2" />
<path stroke="#48200f" d="M17 4h1M14 5h1M12 6h1M11 7h1M10 8h1M10 9h1M9 10h1M9 11h1M9 12h1M9 13h1M8 14h1M7 15h1M7 16h1M7 17h1M6 18h1M6 19h1M10 23h2M10 24h4M11 25h1M13 25h2M14 26h1M12 27h1M15 27h1M13 28h1M16 28h1M14 29h1M15 30h2M25 31h4M26 32h2M14 33h1M24 33h1M27 33h1M13 34h1M24 34h1M24 35h1M7 36h1M25 36h1M27 36h1M6 37h1M12 37h1M22 37h1M3 38h4M12 38h1M16 38h1M22 38h1M2 39h1M12 39h1M16 39h1" />
<path stroke="#582c18" d="M15 5h1M18 5h1M13 6h5M12 7h5M11 8h5M11 9h3M10 10h3M10 11h1M10 12h1M10 13h1M9 14h2M8 15h2M8 16h1M8 17h1M7 18h1M12 25h1M12 26h2M13 27h2M14 28h2M15 29h6M17 30h2M16 31h3M15 32h5M28 32h1M15 33h2M19 33h1M14 34h2M13 35h2M13 36h2M13 37h1M13 38h1M3 39h5M13 39h2" />
<path stroke="#eabf63" d="M34 5h6M32 6h8M30 7h10M28 8h12M28 9h12M33 10h7M35 11h2M39 14h1M35 15h5M32 16h8M31 17h9M32 18h7M32 19h8M32 20h8M32 21h8M32 22h8M7 23h1M31 23h4M37 23h3M7 24h2M29 24h11M28 25h12M27 26h7M36 26h4M8 27h1M26 27h7M35 27h5M6 28h4M11 28h2M25 28h15M2 29h1M6 29h8M25 29h3M29 29h11M0 30h3M6 30h6M13 30h2M24 30h16M0 31h3M6 31h10M29 31h7M37 31h3M0 32h4M6 32h9M29 32h11M0 33h2M6 33h2M9 33h5M30 33h10M0 34h1M6 34h1M10 34h3M31 34h9M0 35h1M32 35h5M12 36h1M11 38h1" />
<path stroke="#d89406" d="M2 7h1M5 9h1M2 10h2M39 11h1M5 12h1M38 12h1M5 13h1M5 15h1M5 19h1M1 20h1M1 26h1M1 27h1" />
<path stroke="#000000" d="M13 10h9M11 11h12M11 12h2M15 12h4M21 12h3M11 13h1M15 13h3M21 13h4M11 14h1M15 14h3M21 14h5M10 15h2M15 15h3M21 15h6M9 16h1M11 16h1M15 16h3M21 16h6M9 17h1M12 17h1M15 17h3M21 17h2M27 17h2M8 18h8M17 18h1M20 18h2M24 18h2M28 18h1M7 19h1M16 19h5M26 19h1M29 19h1M6 20h1M9 20h4M25 20h1M27 20h1M29 20h1M6 21h1M8 21h1M13 21h4M24 21h1M29 21h1M3 22h2M7 22h1M10 22h3M14 22h1M17 22h8M27 22h2M5 23h1M8 23h2M12 23h2M15 23h1M23 23h1M26 23h1M3 24h1M14 24h1M16 24h1M23 24h1M25 24h1M5 25h1M15 25h1M17 25h1M22 25h1M24 25h1M4 26h1M15 26h1M17 26h1M21 26h1M23 26h1M16 27h1M18 27h3M22 27h1M17 28h1M21 28h1M3 30h2M3 31h1M2 33h2M1 34h1M3 34h1M1 35h2M4 35h3M29 35h1M2 36h1M5 36h2M29 36h1M4 37h2M28 37h1M28 38h1M27 39h1" />
<path stroke="#986904" d="M32 10h1M8 12h1M30 12h2M8 13h1M3 16h1M0 17h1M0 18h1M39 18h1M2 19h1M1 23h2M35 23h2M0 26h1M0 27h1M9 27h2M37 35h3M34 36h3" />
<path stroke="#fffa00" d="M13 12h2M19 12h2M12 13h1M14 13h1M12 16h1M18 16h1M13 17h2M18 17h3M18 18h2" />
<path stroke="#fffc67" d="M13 13h1M18 13h3M12 14h2M18 14h2M12 15h1M14 15h1M18 15h1M20 15h1M13 16h2M19 16h2" />
<path stroke="#986804" d="M39 13h1M34 14h5M32 15h3M31 16h1M8 26h2M6 27h2M11 27h1M2 28h2M5 28h1M0 29h2" />
<path stroke="#fffed3" d="M14 14h1M20 14h1M13 15h1M19 15h1" />
<path stroke="#ff8a00" d="M10 16h1M10 17h2M23 17h4M16 18h1M22 18h2M26 18h2M8 19h8M21 19h5M27 19h2M7 20h2M13 20h12M26 20h1M28 20h1M7 21h1M9 21h4M17 21h7M25 21h4M8 22h2M13 22h1M25 22h2M14 23h1M24 23h2M15 24h1M24 24h1M16 25h1M23 25h1M16 26h1M22 26h1M17 27h1M21 27h1M18 28h3" />
<path stroke="#847f7f" d="M5 22h1M4 23h1M5 24h1M4 25h1M26 33h1M24 36h1" />
<path stroke="#ff0000" d="M15 22h2M16 23h3M22 23h1M17 24h1M21 24h2M20 25h2M18 26h3" />
<path stroke="#2b2929" d="M3 23h1M4 24h1M3 25h1M3 29h2M4 31h1M4 32h1M4 33h1M2 34h1M4 34h1M3 35h1M0 36h2M3 36h1M1 37h2" />
<path stroke="#fc809a" d="M19 23h3M18 24h3M18 25h2" />
<path stroke="#343232" d="M4 27h1M4 28h1" />
<path stroke="#514e4e" d="M5 29h1M5 30h1M5 31h1M5 32h1M5 33h1M5 34h1M4 36h1M3 37h1M2 38h1M22 39h1" />
<path stroke="#34170a" d="M25 32h1M23 33h1M25 33h1M29 33h1M23 34h1M25 34h1M29 34h1M23 35h1M25 35h4M23 36h1M28 36h1M21 37h1M23 37h1M27 37h1M21 38h1M23 38h5M21 39h1M23 39h2M26 39h1" />
<path stroke="#c56840" d="M28 33h1M27 34h2M26 36h1M25 37h2M25 39h1" />
<path stroke="#1e1c1c" d="M0 37h1M0 38h2" />
</svg>