<svg xmlns="http://www.w3.org/2000/svg" viewBox="0 -0.5 40 40" shape-rendering="crispEdges">
<metadata>Made with Pixels to Svg https://codepen.io/shshaw/pen/XbxvNj</metadata>
<path stroke="#ff9ab4" d="M0 0h40M0 1h23M28 1h12M0 2h23M28 2h12M0 3h10M16 3h6M30 3h10M0 4h10M16 4h1M30 4h10M0 5h10M32 5h8M0 6h10M32 6h8M0 7h10M32 7h8M0 8h10M32 8h8M0 9h11M31 9h9M0 10h10M30 10h10M0 11h10M29 11h11M0 12h9M29 12h11M0 13h10M28 13h12M0 14h9M29 14h11M0 15h10M29 15h11M0 16h9M29 16h11M0 17h9M29 17h11M0 18h8M29 18h11M0 19h7M30 19h10M0 20h6M30 20h10M0 21h6M30 21h10M0 22h7M29 22h11M0 23h8M10 23h2M27 23h13M0 24h14M26 24h14M0 25h15M25 25h15M0 26h15M24 26h16M0 27h16M23 27h17M0 28h17M23 28h17M0 29h19M23 29h17M0 30h18M24 30h16M0 31h17M25 31h15M0 32h16M26 32h14M0 33h16M27 33h13M0 34h15M30 34h10M0 35h14M32 35h8M0 36h13M33 36h7M0 37h12M33 37h7M0 38h12M34 38h6M0 39h12M34 39h6" />
<path stroke="#000000" d="M23 1h5M23 2h1M27 2h1M10 3h6M22 3h1M27 3h3M10 4h1M15 4h1M17 4h5M25 4h3M29 4h1M10 5h1M16 5h1M21 5h1M24 5h2M28 5h4M10 6h1M21 6h1M24 6h1M28 6h1M31 6h1M10 7h1M12 7h1M22 7h3M27 7h2M31 7h1M10 8h2M25 8h3M31 8h1M11 9h1M25 9h1M30 9h1M10 10h1M25 10h1M29 10h1M10 11h1M24 11h5M9 12h3M27 12h2M10 13h1M24 13h2M27 13h1M9 14h3M14 14h1M20 14h1M28 14h1M10 15h1M14 15h1M20 15h1M24 15h2M28 15h1M9 16h1M11 16h1M23 16h4M28 16h1M9 17h1M12 17h1M15 17h3M21 17h2M27 17h2M8 18h8M17 18h1M20 18h2M24 18h2M28 18h1M7 19h1M16 19h5M26 19h1M29 19h1M6 20h1M9 20h4M25 20h1M27 20h1M29 20h1M6 21h1M8 21h1M13 21h4M24 21h1M29 21h1M7 22h1M10 22h3M14 22h1M17 22h8M27 22h2M8 23h2M12 23h2M15 23h1M23 23h1M26 23h1M14 24h1M16 24h1M23 24h1M25 24h1M15 25h1M17 25h1M22 25h1M24 25h1M15 26h1M17 26h1M21 26h1M23 26h1M16 27h1M18 27h3M22 27h1M17 28h1M21 28h2M19 29h1M22 29h1M18 30h1M22 30h2M17 31h2M23 31h2M16 32h2M25 32h1M16 33h1M18 33h1M24 33h1M26 33h1M15 34h1M19 34h1M23 34h1M27 34h3M14 35h2M30 35h2M13 36h1M31 36h2M12 37h1M32 37h1M12 38h1M16 38h1M28 38h1M33 38h1M12 39h1M15 39h2M28 39h2M33 39h1" />
<path stroke="#ff0000" d="M24 2h3M23 3h4M22 4h3M22 5h2M26 5h2M22 6h2M25 6h3M29 6h2M25 7h2M29 7h2M28 8h3M26 9h4M26 10h3M15 22h2M16 23h3M22 23h1M17 24h1M21 24h2M20 25h2M18 26h3M19 30h3M19 32h5M20 34h3M13 37h3M29 37h3M13 39h2M30 39h3" />
<path stroke="#ffffff" d="M11 4h4M28 4h1M11 5h5M17 5h4M11 6h10M11 7h1M13 7h9M12 8h13M12 9h13M11 10h14M11 11h13M12 12h15M11 13h13M26 13h1M12 14h2M15 14h5M21 14h7M11 15h3M15 15h5M21 15h3M26 15h2M12 16h11M27 16h1M13 17h2M18 17h3M18 18h2M20 29h2M19 31h4M19 33h5M14 36h2M30 36h1M13 38h3M29 38h4" />
<path stroke="#ffd92d" d="M10 16h1M10 17h2M23 17h4M16 18h1M22 18h2M26 18h2M8 19h8M21 19h5M27 19h2M7 20h2M13 20h12M26 20h1M28 20h1M7 21h1M9 21h4M17 21h7M25 21h4M8 22h2M13 22h1M25 22h2M14 23h1M24 23h2M15 24h1M24 24h1M16 25h1M23 25h1M16 26h1M22 26h1M17 27h1M21 27h1M18 28h3M18 37h2M24 37h2M18 38h2M24 38h2" />
<path stroke="#fc809a" d="M19 23h3M18 24h3M18 25h2" />
<path stroke="#2066f9" d="M18 32h1M24 32h1M17 33h1M25 33h1M16 34h3M24 34h3M16 35h14M16 36h14M16 37h2M20 37h4M26 37h3M17 38h1M20 38h4M26 38h2M17 39h11" />
</svg>