<svg xmlns="http://www.w3.org/2000/svg" viewBox="0 -0.5 40 40" shape-rendering="crispEdges">
<metadata>Made with Pixels to Svg https://codepen.io/shshaw/pen/XbxvNj</metadata>
<path stroke="#dce2fb" d="M0 0h1" />
<path stroke="#aebfd7" d="M1 0h1" />
<path stroke="#497d70" d="M2 0h1" />
<path stroke="#55847b" d="M3 0h1" />
<path stroke="#b0c2d9" d="M4 0h1" />
<path stroke="#738c96" d="M5 0h1" />
<path stroke="#5b797a" d="M6 0h1M6 1h1M6 2h1" />
<path stroke="#bfc9de" d="M7 0h1M39 1h1M1 11h1" />
<path stroke="#dce2f9" d="M8 0h1" />
<path stroke="#bfccde" d="M9 0h1M14 0h1M12 1h1" />
<path stroke="#537973" d="M10 0h1" />
<path stroke="#5b847b" d="M11 0h1" />
<path stroke="#ced8ed" d="M12 0h1" />
<path stroke="#dfe6fd" d="M13 0h1" />
<path stroke="#758d94" d="M15 0h1" />
<path stroke="#bac5d8" d="M16 0h1" />
<path stroke="#bbc4d9" d="M17 0h1M39 13h1" />
<path stroke="#536871" d="M18 0h1M6 10h1" />
<path stroke="#596d79" d="M19 0h1M21 0h1" />
<path stroke="#b5bfd5" d="M20 0h1" />
<path stroke="#526870" d="M22 0h1" />
<path stroke="#b9c5d7" d="M23 0h1" />
<path stroke="#becade" d="M24 0h1" />
<path stroke="#8ea8b1" d="M25 0h1" />
<path stroke="#d0daef" d="M26 0h1M13 1h1" />
<path stroke="#e2e7ff" d="M27 0h2M27 1h2M0 4h1M0 5h1M5 5h1M0 10h1" />
<path stroke="#ced6ed" d="M29 0h1M29 1h1" />
<path stroke="#80969f" d="M30 0h1" />
<path stroke="#cbd5eb" d="M31 0h1" />
<path stroke="#e1e7ff" d="M32 0h1" />
<path stroke="#dfe5fd" d="M33 0h1M27 2h1M0 3h1M5 4h1M4 7h1" />
<path stroke="#bfcade" d="M34 0h1M5 2h1M1 16h1" />
<path stroke="#537373" d="M35 0h1" />
<path stroke="#00512f" d="M36 0h2M36 1h1" />
<path stroke="#255846" d="M38 0h1M37 1h1M2 12h1" />
<path stroke="#537372" d="M39 0h1" />
<path stroke="#d1d9ef" d="M0 1h1M4 5h1M4 6h1M0 7h1" />
<path stroke="#768f98" d="M1 1h1" />
<path stroke="#56827b" d="M2 1h1" />
<path stroke="#759796" d="M3 1h1" />
<path stroke="#bdc9dd" d="M4 1h1" />
<path stroke="#bcc6da" d="M5 1h1M29 3h1" />
<path stroke="#738a93" d="M7 1h1" />
<path stroke="#b9c6db" d="M8 1h1" />
<path stroke="#749694" d="M9 1h1" />
<path stroke="#256b49" d="M10 1h1" />
<path stroke="#528073" d="M11 1h1" />
<path stroke="#91a9b1" d="M14 1h1" />
<path stroke="#5e7d82" d="M15 1h1" />
<path stroke="#596f78" d="M16 1h1" />
<path stroke="#516771" d="M17 1h1M34 4h1M33 11h1" />
<path stroke="#244744" d="M18 1h1M35 4h1" />
<path stroke="#4d6570" d="M19 1h1" />
<path stroke="#9cadc3" d="M20 1h1" />
<path stroke="#4e6770" d="M21 1h1" />
<path stroke="#245145" d="M22 1h1" />
<path stroke="#517670" d="M23 1h1" />
<path stroke="#718694" d="M24 1h1" />
<path stroke="#b8c6e1" d="M25 1h1" />
<path stroke="#dce4fd" d="M26 1h1M26 2h1M32 9h1M0 11h1M1 18h1" />
<path stroke="#7c939f" d="M30 1h1" />
<path stroke="#bbcae6" d="M31 1h1" />
<path stroke="#cdd6ee" d="M32 1h1" />
<path stroke="#c3cce1" d="M33 1h1" />
<path stroke="#889ba7" d="M34 1h1" />
<path stroke="#346055" d="M35 1h1" />
<path stroke="#6f878f" d="M38 1h1" />
<path stroke="#d2d9ef" d="M0 2h1M0 8h1" />
<path stroke="#8a9eab" d="M1 2h1" />
<path stroke="#a7b9cf" d="M2 2h1" />
<path stroke="#becbde" d="M3 2h1" />
<path stroke="#a3b2c1" d="M4 2h1" />
<path stroke="#456c6f" d="M7 2h1" />
<path stroke="#8ca7bf" d="M8 2h1" />
<path stroke="#467c70" d="M9 2h1" />
<path stroke="#036132" d="M10 2h1" />
<path stroke="#245f47" d="M11 2h1" />
<path stroke="#719095" d="M12 2h1" />
<path stroke="#c0cfe8" d="M13 2h1" />
<path stroke="#bcc9de" d="M14 2h1" />
<path stroke="#9fb0c6" d="M15 2h1" />
<path stroke="#456069" d="M16 2h1" />
<path stroke="#003c29" d="M17 2h2M11 4h1M36 4h1M35 5h3M36 6h1" />
<path stroke="#214d44" d="M19 2h1" />
<path stroke="#44706a" d="M20 2h1" />
<path stroke="#2f5953" d="M21 2h1" />
<path stroke="#456f6a" d="M22 2h1" />
<path stroke="#215145" d="M23 2h1" />
<path stroke="#4d6671" d="M24 2h1" />
<path stroke="#b4c3de" d="M25 2h1" />
<path stroke="#d6ddf4" d="M28 2h1" />
<path stroke="#cbd4e9" d="M29 2h1" />
<path stroke="#728b98" d="M30 2h1" />
<path stroke="#8ea5c2" d="M31 2h1" />
<path stroke="#718397" d="M32 2h1" />
<path stroke="#8897a9" d="M33 2h1" />
<path stroke="#afbbcf" d="M34 2h1" />
<path stroke="#537172" d="M35 2h1M39 7h1" />
<path stroke="#004e2e" d="M36 2h1M2 13h1" />
<path stroke="#527272" d="M37 2h1" />
<path stroke="#bbc6d9" d="M38 2h1" />
<path stroke="#ced6ec" d="M39 2h1M5 8h1M2 18h1" />
<path stroke="#c5cfe3" d="M1 3h1" />
<path stroke="#8ea0af" d="M2 3h1" />
<path stroke="#cdd6ec" d="M3 3h1M6 5h1M1 10h1M0 15h1M1 17h1" />
<path stroke="#d5ddf3" d="M4 3h1" />
<path stroke="#cfd6ed" d="M5 3h1" />
<path stroke="#788f97" d="M6 3h1" />
<path stroke="#2f6053" d="M7 3h1" />
<path stroke="#3a7366" d="M8 3h1" />
<path stroke="#1d6846" d="M9 3h1" />
<path stroke="#024c2d" d="M10 3h1" />
<path stroke="#00412a" d="M11 3h1M9 7h1" />
<path stroke="#4c6870" d="M12 3h1" />
<path stroke="#9daec7" d="M13 3h1" />
<path stroke="#708794" d="M14 3h1" />
<path stroke="#4e6b72" d="M15 3h1" />
<path stroke="#224744" d="M16 3h1" />
<path stroke="#003a28" d="M17 3h2M27 7h1M9 8h1M8 9h1M7 10h1M7 11h1M7 12h1" />
<path stroke="#01422a" d="M19 3h1" />
<path stroke="#035730" d="M20 3h1" />
<path stroke="#446369" d="M21 3h1" />
<path stroke="#8b9eb5" d="M22 3h1" />
<path stroke="#445f69" d="M23 3h1" />
<path stroke="#214b44" d="M24 3h1" />
<path stroke="#718e93" d="M25 3h1" />
<path stroke="#d0daee" d="M26 3h1" />
<path stroke="#d2d8ef" d="M27 3h1M5 7h1" />
<path stroke="#96a1b4" d="M28 3h1" />
<path stroke="#5f7a81" d="M30 3h1" />
<path stroke="#45686e" d="M31 3h1" />
<path stroke="#6a7d8d" d="M32 3h1" />
<path stroke="#a5b3cd" d="M33 3h1" />
<path stroke="#b5bfd6" d="M34 3h1M29 4h1" />
<path stroke="#536971" d="M35 3h1" />
<path stroke="#00422a" d="M36 3h1" />
<path stroke="#526e71" d="M37 3h1M35 12h1" />
<path stroke="#a9b6c7" d="M38 3h1" />
<path stroke="#758493" d="M39 3h1" />
<path stroke="#d3daf0" d="M1 4h1" />
<path stroke="#91a2af" d="M2 4h1" />
<path stroke="#c2cce0" d="M3 4h1" />
<path stroke="#dee5fc" d="M4 4h1" />
<path stroke="#c1cbdf" d="M6 4h1" />
<path stroke="#547573" d="M7 4h1" />
<path stroke="#1d6746" d="M8 4h1" />
<path stroke="#3a7167" d="M9 4h1" />
<path stroke="#1d4b42" d="M10 4h1" />
<path stroke="#214543" d="M12 4h1M23 4h1" />
<path stroke="#435c67" d="M13 4h1" />
<path stroke="#214643" d="M14 4h1" />
<path stroke="#f0f7ff" d="M15 4h1M17 5h1M13 6h2M17 6h2M22 6h1M11 7h3M15 7h1M17 7h1M19 8h1M21 8h1M23 8h1M25 8h1M10 9h1M12 9h1M16 9h2M25 9h1M9 10h1M26 10h1M26 12h1M28 12h1M27 13h1M28 14h1M26 18h1M14 20h1" />
<path stroke="#003327" d="M16 4h1M13 5h1M23 5h1M12 6h1M24 6h1M28 8h2M30 13h1M31 14h1" />
<path stroke="#ffffff" d="M17 4h1M19 4h1M16 5h1M18 5h1M15 6h1M20 6h1M16 8h1M18 8h1M20 8h1M22 8h1M14 9h1M22 9h1M11 10h1M13 10h1M15 10h3M19 10h3M24 10h1M11 11h1M15 11h1M21 11h2M24 11h1M11 12h1M20 12h1M23 12h2M12 13h1M20 13h1M23 13h1M12 14h3M18 14h3M22 14h1M24 14h1M12 15h3M18 15h3M22 15h2M25 15h1M18 16h3M22 16h1M20 29h2M20 30h1" />
<path stroke="#003227" d="M18 4h1M24 7h2M10 8h1M26 8h1M28 9h1M8 11h1M8 12h1M30 15h3" />
<path stroke="#c3d9f9" d="M20 4h1M21 5h1M14 7h1M18 7h1M11 8h1M13 8h1M15 8h1M17 8h1M24 8h1M13 9h1M12 10h1M18 10h1M27 10h1M12 11h1M14 11h1M16 11h2M19 11h1M23 11h1M9 12h1M22 12h1M8 13h1M10 13h1M16 13h1M22 13h1M9 14h1M16 14h1M9 15h1M16 15h1M8 16h1M16 16h1M24 16h1M7 17h1M25 17h1M7 18h1M15 18h1M29 18h1M17 19h1M26 20h1M14 21h1M18 21h1M26 21h1M14 22h1M26 22h1M9 24h1M16 30h1M24 32h1M28 33h1M18 34h1M29 34h1M31 36h1M25 37h1M30 38h1M16 39h1" />
<path stroke="#204542" d="M21 4h1M29 9h1" />
<path stroke="#435c69" d="M22 4h1" />
<path stroke="#003d29" d="M24 4h1" />
<path stroke="#516a70" d="M25 4h1" />
<path stroke="#bcc6db" d="M26 4h1" />
<path stroke="#c5cfe7" d="M27 4h1" />
<path stroke="#7e8d9f" d="M28 4h1" />
<path stroke="#597079" d="M30 4h1" />
<path stroke="#526971" d="M31 4h1" />
<path stroke="#aab5cb" d="M32 4h1" />
<path stroke="#728294" d="M33 4h1" />
<path stroke="#234943" d="M37 4h1" />
<path stroke="#486067" d="M38 4h1" />
<path stroke="#244943" d="M39 4h1" />
<path stroke="#dce3fc" d="M1 5h1" />
<path stroke="#c4cde1" d="M2 5h1" />
<path stroke="#90a2af" d="M3 5h1" />
<path stroke="#5a787a" d="M7 5h1" />
<path stroke="#3a6865" d="M8 5h1" />
<path stroke="#7692a9" d="M9 5h1" />
<path stroke="#3a5964" d="M10 5h1" />
<path stroke="#003b28" d="M11 5h1" />
<path stroke="#003928" d="M12 5h1M24 5h1M31 13h1" />
<path stroke="#dfeafa" d="M14 5h1M19 5h1M16 6h1M21 6h1M23 6h1M19 7h1M22 7h1M27 11h1M16 12h1M27 15h1M29 15h1M29 17h1M11 18h1M10 19h1M14 19h1M9 20h1M18 20h1M9 21h1M9 22h1M19 22h1M30 22h1M9 23h1M28 24h1M29 25h1" />
<path stroke="#000000" d="M15 5h1M20 5h1M21 7h1M12 8h1M11 9h1M19 9h3M24 9h1M22 10h1M25 10h1M9 11h1M13 11h1M18 11h1M20 11h1M26 11h1M12 12h4M17 12h3M21 12h1M27 12h1M11 13h1M13 13h3M17 13h3M21 13h1M28 13h1M8 14h1M11 14h1M15 14h1M17 14h1M21 14h1M27 14h1M8 15h1M10 15h2M15 15h1M17 15h1M21 15h1M9 16h1M11 16h1M15 16h1M17 16h1M21 16h1M23 16h1M25 16h2M28 16h1M9 17h1M12 17h1M14 17h1M16 17h2M21 17h2M27 17h2M8 18h3M12 18h3M17 18h1M20 18h2M24 18h2M28 18h1M7 19h1M16 19h1M18 19h3M29 19h1M6 20h1M10 20h3M25 20h1M27 20h1M29 20h1M6 21h1M8 21h1M13 21h1M15 21h2M24 21h1M29 21h1M7 22h1M10 22h3M17 22h2M20 22h5M27 22h2M8 23h1M12 23h2M15 23h1M23 23h1M26 23h1M14 24h1M16 24h1M23 24h1M25 24h1M15 25h1M17 25h1M22 25h1M24 25h1M15 26h1M17 26h1M21 26h1M23 26h1M16 27h1M18 27h3M22 27h1M17 28h1M21 28h2M19 29h1" />
<path stroke="#2a241d" d="M22 5h1M23 7h1M27 8h1M26 9h2M10 10h1M28 10h1M10 11h1M25 11h1M28 11h2M10 12h1M9 13h1M26 13h1M10 14h1M25 14h1M29 16h2M30 17h2M27 23h1" />
<path stroke="#234642" d="M25 5h1" />
<path stroke="#647989" d="M26 5h1" />
<path stroke="#91a3c2" d="M27 5h1" />
<path stroke="#6e8197" d="M28 5h1" />
<path stroke="#acbad5" d="M29 5h1" />
<path stroke="#556d79" d="M30 5h1" />
<path stroke="#4e6571" d="M31 5h1M37 9h1" />
<path stroke="#a1afca" d="M32 5h1" />
<path stroke="#687c8e" d="M33 5h1" />
<path stroke="#224644" d="M34 5h1" />
<path stroke="#003f2a" d="M38 5h1M36 7h1M33 12h1" />
<path stroke="#00482c" d="M39 5h1" />
<path stroke="#dce3fb" d="M0 6h1" />
<path stroke="#c5cfe9" d="M1 6h1" />
<path stroke="#bcc7dc" d="M2 6h1" />
<path stroke="#92a4b0" d="M3 6h1" />
<path stroke="#dde4fd" d="M5 6h1M0 9h1" />
<path stroke="#bbc6e1" d="M6 6h1" />
<path stroke="#697f8f" d="M7 6h1" />
<path stroke="#2d5a52" d="M8 6h1" />
<path stroke="#396064" d="M9 6h1" />
<path stroke="#1c4541" d="M10 6h1" />
<path stroke="#003927" d="M11 6h1M25 6h1M9 9h1M32 14h1" />
<path stroke="#373d55" d="M19 6h1M20 7h1M25 12h1M25 13h1M26 14h1M29 22h1M10 23h2M30 23h1M11 24h1M27 24h1M25 25h1M28 25h1M26 26h1" />
<path stroke="#1b4241" d="M26 6h1" />
<path stroke="#3a5764" d="M27 6h1" />
<path stroke="#516978" d="M28 6h1" />
<path stroke="#98a9c3" d="M29 6h1" />
<path stroke="#4c6971" d="M30 6h1" />
<path stroke="#214744" d="M31 6h1" />
<path stroke="#617588" d="M32 6h1" />
<path stroke="#8e9fb7" d="M33 6h1M3 21h1" />
<path stroke="#446069" d="M34 6h1" />
<path stroke="#003f29" d="M35 6h1" />
<path stroke="#254744" d="M37 6h1" />
<path stroke="#4a6169" d="M38 6h1" />
<path stroke="#254d45" d="M39 6h1" />
<path stroke="#778e98" d="M1 7h1" />
<path stroke="#758b94" d="M2 7h1" />
<path stroke="#c3cde0" d="M3 7h1" />
<path stroke="#8695aa" d="M6 7h1" />
<path stroke="#90a1ba" d="M7 7h1" />
<path stroke="#45676a" d="M8 7h1" />
<path stroke="#003527" d="M10 7h1" />
<path stroke="#3f4663" d="M16 7h1M14 8h1M24 13h1M29 13h1M26 15h1M28 15h1M27 16h1M9 25h1M12 25h1M9 26h1M10 27h1" />
<path stroke="#003427" d="M26 7h1M8 10h1" />
<path stroke="#214343" d="M28 7h1" />
<path stroke="#445868" d="M29 7h1" />
<path stroke="#214143" d="M30 7h1" />
<path stroke="#254043" d="M31 7h1" />
<path stroke="#5a6979" d="M32 7h1" />
<path stroke="#6d7d8e" d="M33 7h1" />
<path stroke="#325a54" d="M34 7h1" />
<path stroke="#004b2d" d="M35 7h1" />
<path stroke="#526771" d="M37 7h1" />
<path stroke="#a6b3c6" d="M38 7h1" />
<path stroke="#758d97" d="M1 8h1" />
<path stroke="#5e7b81" d="M2 8h1" />
<path stroke="#c7d2e9" d="M3 8h1" />
<path stroke="#e1e6ff" d="M4 8h1" />
<path stroke="#627481" d="M6 8h1" />
<path stroke="#445e69" d="M7 8h1" />
<path stroke="#214844" d="M8 8h1" />
<path stroke="#254144" d="M30 8h1" />
<path stroke="#707d8e" d="M31 8h1" />
<path stroke="#c0c7de" d="M32 8h1" />
<path stroke="#c0c8de" d="M33 8h1" />
<path stroke="#758c97" d="M34 8h1" />
<path stroke="#5a767b" d="M35 8h1" />
<path stroke="#4e6772" d="M36 8h1" />
<path stroke="#596d78" d="M37 8h1" />
<path stroke="#a5b2c4" d="M38 8h1" />
<path stroke="#527271" d="M39 8h1" />
<path stroke="#b9c6df" d="M1 9h1" />
<path stroke="#698591" d="M2 9h1" />
<path stroke="#a5b7d5" d="M3 9h1M4 10h1" />
<path stroke="#d5def9" d="M4 9h1" />
<path stroke="#cdd5ec" d="M5 9h1" />
<path stroke="#5c6e79" d="M6 9h1" />
<path stroke="#003b29" d="M7 9h1" />
<path stroke="#d0e1f9" d="M15 9h1M18 9h1M23 9h1M14 10h1M23 10h1M23 14h1M24 15h1M15 17h1M26 19h1" />
<path stroke="#69808c" d="M30 9h1" />
<path stroke="#bfcae1" d="M31 9h1" />
<path stroke="#dae0f9" d="M33 9h1" />
<path stroke="#bcc7e1" d="M34 9h1" />
<path stroke="#c4cee5" d="M35 9h1" />
<path stroke="#a3b1ca" d="M36 9h1" />
<path stroke="#526970" d="M38 9h1M3 15h1" />
<path stroke="#5b777a" d="M39 9h1" />
<path stroke="#5f7b81" d="M2 10h1" />
<path stroke="#5a7b88" d="M3 10h1" />
<path stroke="#b5c1d7" d="M5 10h1" />
<path stroke="#475f6d" d="M29 10h1" />
<path stroke="#a7b7d5" d="M30 10h1" />
<path stroke="#c8d6f6" d="M31 10h1" />
<path stroke="#c5d1ee" d="M32 10h1M0 18h1" />
<path stroke="#bdc6de" d="M33 10h1" />
<path stroke="#8e9baf" d="M34 10h1" />
<path stroke="#bdc7dd" d="M35 10h1" />
<path stroke="#778799" d="M36 10h1M3 19h1" />
<path stroke="#4d6471" d="M37 10h1" />
<path stroke="#596e79" d="M38 10h1" />
<path stroke="#bbc5d9" d="M39 10h1" />
<path stroke="#537272" d="M2 11h1" />
<path stroke="#1c5643" d="M3 11h1" />
<path stroke="#4e7176" d="M4 11h1" />
<path stroke="#6d848e" d="M5 11h1" />
<path stroke="#345253" d="M6 11h1" />
<path stroke="#96aacd" d="M30 11h1" />
<path stroke="#9db0d4" d="M31 11h1" />
<path stroke="#677c91" d="M32 11h1" />
<path stroke="#5a6e78" d="M34 11h1" />
<path stroke="#a5b1c4" d="M35 11h1" />
<path stroke="#6b7d8d" d="M36 11h1M38 11h1" />
<path stroke="#8b9bb4" d="M37 11h1" />
<path stroke="#bac4d8" d="M39 11h1" />
<path stroke="#c6d2ef" d="M0 12h1" />
<path stroke="#728a95" d="M1 12h1" />
<path stroke="#245646" d="M3 12h1" />
<path stroke="#698188" d="M4 12h1" />
<path stroke="#9aa7b8" d="M5 12h1" />
<path stroke="#4a6069" d="M6 12h1" />
<path stroke="#1c3b41" d="M29 12h1" />
<path stroke="#415b6c" d="M30 12h1" />
<path stroke="#415d6c" d="M31 12h1" />
<path stroke="#1d4441" d="M32 12h1" />
<path stroke="#234c44" d="M34 12h1" />
<path stroke="#596c79" d="M36 12h1" />
<path stroke="#4e6071" d="M37 12h1" />
<path stroke="#3e585f" d="M38 12h1" />
<path stroke="#758a94" d="M39 12h1" />
<path stroke="#c3d0ed" d="M0 13h1" />
<path stroke="#57787c" d="M1 13h1" />
<path stroke="#536b71" d="M3 13h1" />
<path stroke="#acb6ca" d="M4 13h1" />
<path stroke="#6f7d8e" d="M5 13h1" />
<path stroke="#244143" d="M6 13h1" />
<path stroke="#003827" d="M7 13h1" />
<path stroke="#003e29" d="M32 13h1" />
<path stroke="#00472b" d="M33 13h1" />
<path stroke="#00492c" d="M34 13h1" />
<path stroke="#537072" d="M35 13h1" />
<path stroke="#a7b2c6" d="M36 13h1" />
<path stroke="#536271" d="M37 13h1" />
<path stroke="#526370" d="M38 13h1" />
<path stroke="#d0d9ef" d="M0 14h1" />
<path stroke="#778e97" d="M1 14h1" />
<path stroke="#255646" d="M2 14h1" />
<path stroke="#5a7079" d="M3 14h1" />
<path stroke="#bbc3d9" d="M4 14h1" />
<path stroke="#7c879a" d="M5 14h1" />
<path stroke="#4c5d6f" d="M6 14h1" />
<path stroke="#203d41" d="M7 14h1M7 16h1" />
<path stroke="#003328" d="M29 14h1" />
<path stroke="#003127" d="M30 14h1M33 15h1M8 17h1M6 18h1M6 19h1" />
<path stroke="#003728" d="M33 14h1" />
<path stroke="#1f4141" d="M34 14h1" />
<path stroke="#708191" d="M35 14h1" />
<path stroke="#bdc6dd" d="M36 14h1" />
<path stroke="#728094" d="M37 14h1" />
<path stroke="#596978" d="M38 14h1" />
<path stroke="#b9c2d8" d="M39 14h1" />
<path stroke="#bdc7da" d="M1 15h1" />
<path stroke="#547072" d="M2 15h1" />
<path stroke="#b9c2d7" d="M4 15h1" />
<path stroke="#c5cde6" d="M5 15h1" />
<path stroke="#9da8c3" d="M6 15h1" />
<path stroke="#425565" d="M7 15h1" />
<path stroke="#405864" d="M34 15h1" />
<path stroke="#9faec6" d="M35 15h1" />
<path stroke="#ced6f1" d="M36 15h1" />
<path stroke="#aab7d2" d="M37 15h1" />
<path stroke="#6e8095" d="M38 15h1" />
<path stroke="#768799" d="M39 15h1" />
<path stroke="#7c909a" d="M0 16h1" />
<path stroke="#768b95" d="M2 16h1" />
<path stroke="#345353" d="M3 16h1" />
<path stroke="#697a8a" d="M4 16h1" />
<path stroke="#9facc6" d="M5 16h1" />
<path stroke="#647688" d="M6 16h1" />
<path stroke="#ff8a00" d="M10 16h1M10 17h2M23 17h2M26 17h1M16 18h1M22 18h2M27 18h1M8 19h2M11 19h3M15 19h1M21 19h5M27 19h2M7 20h2M13 20h1M15 20h3M19 20h6M28 20h1M7 21h1M10 21h3M17 21h1M19 21h5M25 21h1M27 21h2M8 22h1M13 22h1M25 22h1M14 23h1M24 23h2M15 24h1M24 24h1M16 25h1M23 25h1M16 26h1M22 26h1M17 27h1M21 27h1M18 28h3" />
<path stroke="#f7f9ff" d="M12 16h3M18 17h2" />
<path stroke="#4a6170" d="M31 16h1" />
<path stroke="#4a6075" d="M32 16h1" />
<path stroke="#486075" d="M33 16h1" />
<path stroke="#4f6f7c" d="M34 16h1" />
<path stroke="#7e95a9" d="M35 16h1" />
<path stroke="#b5c4e2" d="M36 16h1" />
<path stroke="#8fa0bc" d="M37 16h1" />
<path stroke="#a1b0cd" d="M38 16h1" />
<path stroke="#aab9d6" d="M39 16h1" />
<path stroke="#778f9a" d="M0 17h1" />
<path stroke="#c0c9de" d="M2 17h1" />
<path stroke="#5c6f7a" d="M3 17h1" />
<path stroke="#506570" d="M4 17h1" />
<path stroke="#4a5e6e" d="M5 17h1" />
<path stroke="#1f3d41" d="M6 17h1" />
<path stroke="#ff7878" d="M13 17h1M20 17h1M18 18h2" />
<path stroke="#a7bae2" d="M32 17h1" />
<path stroke="#a5b8e1" d="M33 17h1" />
<path stroke="#a6bbe2" d="M34 17h1" />
<path stroke="#a7bce2" d="M35 17h1" />
<path stroke="#a7bbe0" d="M36 17h1" />
<path stroke="#9aaecf" d="M37 17h1" />
<path stroke="#7b8fa8" d="M38 17h1" />
<path stroke="#70859c" d="M39 17h1" />
<path stroke="#7b899a" d="M3 18h1" />
<path stroke="#a5afc5" d="M4 18h1" />
<path stroke="#516271" d="M5 18h1" />
<path stroke="#688598" d="M30 18h1" />
<path stroke="#acc1e7" d="M31 18h1" />
<path stroke="#b6cbf6" d="M32 18h1M4 25h1M35 28h1" />
<path stroke="#b7ccf7" d="M33 18h1M6 24h1M30 30h1" />
<path stroke="#bccff8" d="M34 18h1M4 26h1M35 29h1M12 36h1" />
<path stroke="#a5b9de" d="M35 18h1M38 18h1" />
<path stroke="#667e97" d="M36 18h1" />
<path stroke="#778da8" d="M37 18h1" />
<path stroke="#a8bde6" d="M39 18h1" />
<path stroke="#cdd7f8" d="M0 19h1" />
<path stroke="#dbe3fd" d="M1 19h1" />
<path stroke="#ccd4ec" d="M2 19h1" />
<path stroke="#9da9c4" d="M4 19h1" />
<path stroke="#4e6070" d="M5 19h1" />
<path stroke="#b4c8ee" d="M30 19h1M5 23h1" />
<path stroke="#bed1fa" d="M31 19h1" />
<path stroke="#c0d3fd" d="M32 19h1M35 27h2M32 28h1" />
<path stroke="#c1d4fe" d="M33 19h1M37 27h1" />
<path stroke="#b6caf2" d="M34 19h1" />
<path stroke="#7e93af" d="M35 19h1" />
<path stroke="#6b819a" d="M36 19h1" />
<path stroke="#a9bce1" d="M37 19h1" />
<path stroke="#c1d4fc" d="M38 19h1" />
<path stroke="#c4d6fe" d="M39 19h1M13 33h1" />
<path stroke="#b6c3e1" d="M0 20h1" />
<path stroke="#bbc6e4" d="M1 20h1" />
<path stroke="#b3c0dc" d="M2 20h1" />
<path stroke="#6e8594" d="M3 20h1" />
<path stroke="#4c6070" d="M4 20h1" />
<path stroke="#213d43" d="M5 20h1" />
<path stroke="#c2d5fe" d="M30 20h2M39 25h1M36 26h4M31 28h1M29 29h1" />
<path stroke="#c3d6fe" d="M32 20h1M38 25h1M35 26h1M30 28h1M28 29h1M10 31h1M4 32h1" />
<path stroke="#c5d6fe" d="M33 20h1M30 21h2M39 24h1M36 25h2M31 27h2M38 27h2M28 28h2M26 29h2M10 30h1M28 30h1M9 31h1M11 31h1M3 32h1M3 33h1M14 34h1" />
<path stroke="#c3d5fc" d="M34 20h1" />
<path stroke="#b9caef" d="M35 20h1" />
<path stroke="#b8caee" d="M36 20h1" />
<path stroke="#c5d6fc" d="M37 20h1" />
<path stroke="#cddcff" d="M38 20h1M33 21h1M37 24h1M33 26h1M29 27h1M26 28h1M8 30h1M3 31h1M12 31h1M6 32h1M12 32h1" />
<path stroke="#cfddff" d="M39 20h1M34 21h3M31 22h1M39 23h1M36 24h1M31 26h2M28 27h1M16 28h1M39 28h1M10 29h3M5 30h3M7 32h2M13 32h1M15 33h1M2 34h2" />
<path stroke="#4e6175" d="M0 21h1" />
<path stroke="#4f6275" d="M1 21h1" />
<path stroke="#66788d" d="M2 21h1" />
<path stroke="#445c69" d="M4 21h1" />
<path stroke="#1f4143" d="M5 21h1" />
<path stroke="#c6d8ff" d="M32 21h1M38 24h1M35 25h1M30 27h1M27 28h1M9 30h1M4 31h1M2 32h1M4 33h1" />
<path stroke="#d0deff" d="M37 21h1M32 22h1M38 23h1M35 24h1M30 26h1M27 27h1M25 28h1M9 29h1M13 29h1M4 30h1M14 30h1M2 31h1M13 31h1M0 33h1M1 34h1M4 34h1" />
<path stroke="#d1deff" d="M38 21h2M33 22h7M28 23h2M31 23h7M10 24h1M12 24h2M26 24h1M29 24h6M10 25h2M13 25h2M26 25h2M30 25h4M10 26h5M24 26h2M27 26h3M5 27h5M11 27h5M23 27h4M0 28h16M24 28h1M0 29h9M14 29h3M38 29h2M0 30h4M15 30h1M36 30h4M0 31h2M14 31h1M33 31h7M0 32h1M32 32h8M6 33h2M30 33h10M0 34h1M5 34h4M31 34h9M0 35h7M32 35h8M0 36h3M33 36h7M0 37h2M33 37h7M0 38h2M10 38h2M34 38h6M0 39h3M4 39h8M34 39h6" />
<path stroke="#003729" d="M0 22h2" />
<path stroke="#2e4c52" d="M2 22h1" />
<path stroke="#637e8d" d="M3 22h1" />
<path stroke="#567581" d="M4 22h1" />
<path stroke="#668194" d="M5 22h1" />
<path stroke="#a4b9dc" d="M6 22h1" />
<path stroke="#ff0000" d="M15 22h2M16 23h3M22 23h1M21 24h2M20 25h1M19 26h1" />
<path stroke="#4e7079" d="M0 23h2" />
<path stroke="#617f91" d="M2 23h1" />
<path stroke="#a2b8da" d="M3 23h1" />
<path stroke="#b1c6eb" d="M4 23h1" />
<path stroke="#bdd1f9" d="M6 23h1M29 31h1" />
<path stroke="#c0d3fc" d="M7 23h1" />
<path stroke="#fc809a" d="M19 23h3M18 24h3M18 25h2" />
<path stroke="#aec3e8" d="M0 24h1" />
<path stroke="#adc2e7" d="M1 24h1" />
<path stroke="#a9bee6" d="M2 24h1" />
<path stroke="#b5c9f2" d="M3 24h1" />
<path stroke="#bed2fb" d="M4 24h1" />
<path stroke="#bed2fc" d="M5 24h1" />
<path stroke="#b5caf6" d="M7 24h1M34 28h1" />
<path stroke="#bbcef7" d="M8 24h1M10 33h1M10 35h1" />
<path stroke="#fffaee" d="M17 24h1M21 25h1M18 26h1M20 26h1" />
<path stroke="#b5caf5" d="M0 25h2M12 34h1" />
<path stroke="#b4c8f4" d="M2 25h2M11 35h2" />
<path stroke="#bacdf7" d="M5 25h1" />
<path stroke="#b9cdf7" d="M6 25h1M30 31h1" />
<path stroke="#b8ccf7" d="M7 25h1M0 26h4M33 28h1M11 36h1" />
<path stroke="#bdcff8" d="M8 25h1M31 31h1" />
<path stroke="#ceddff" d="M34 25h1M1 32h1M5 33h1" />
<path stroke="#cad8fd" d="M5 26h1M36 29h1M9 35h1M6 36h1M10 37h1M4 38h1" />
<path stroke="#cddbfe" d="M6 26h2M0 27h4M38 28h1M34 30h1M32 31h1M30 32h1M9 34h1M7 35h1M3 36h1M2 37h1M11 37h1M2 38h1M5 38h4" />
<path stroke="#cddcfe" d="M8 26h1M4 27h1M37 29h1M33 30h1M35 30h1M29 32h1M31 32h1M9 38h1" />
<path stroke="#c6d7ff" d="M34 26h1M5 32h1" />
<path stroke="#c3d5fe" d="M33 27h1" />
<path stroke="#c1d4fd" d="M34 27h1M30 29h2" />
<path stroke="#ac001d" d="M23 28h1M24 29h2M26 30h1M15 31h1M17 31h1M23 31h1M26 31h2M14 32h1M22 32h1M26 33h1M15 34h2M21 34h2M24 34h2M27 34h2M30 34h1M14 35h4M23 35h1M26 35h1M28 35h4M13 36h1M16 36h3M22 36h2M27 36h3M13 37h2M17 37h2M22 37h1M24 37h1M28 37h1M12 38h1M14 38h2M18 38h2M22 38h1M25 38h1M28 38h1M32 38h1M12 39h4M18 39h2M23 39h4M30 39h4" />
<path stroke="#bacef7" d="M36 28h1M31 30h1" />
<path stroke="#bed0f9" d="M37 28h1" />
<path stroke="#263682" d="M17 29h2M22 29h2M22 30h2M19 31h1M18 32h1M19 33h3M19 34h2M20 35h1" />
<path stroke="#c2d5fd" d="M32 29h1M10 32h1" />
<path stroke="#bbcff8" d="M33 29h1" />
<path stroke="#b8cdf7" d="M34 29h1" />
<path stroke="#c5d7fe" d="M11 30h1M5 31h1M28 31h1M2 33h1" />
<path stroke="#c7d8fe" d="M12 30h1M6 31h3" />
<path stroke="#c9d9ff" d="M13 30h1" />
<path stroke="#e8f1fe" d="M17 30h1M24 30h1M16 31h1M24 31h2M15 32h1M17 32h1M23 32h1M17 33h2M22 33h2M26 34h1M21 35h1M25 35h1M27 35h1M14 36h2M24 36h3M30 36h1M32 36h1M12 37h1M15 37h2M19 37h1M23 37h1M26 37h1M30 37h2M13 38h1M16 38h2M23 38h2M29 38h1M31 38h1M17 39h1M22 39h1M27 39h3" />
<path stroke="#263582" d="M18 30h1M18 31h1M22 31h1" />
<path stroke="#263782" d="M19 30h1M21 30h1M21 31h1M20 32h1" />
<path stroke="#ac0021" d="M25 30h1M16 32h1M25 32h1M28 32h1M19 35h1M24 35h1M21 37h1M27 37h1M29 37h1M21 38h1M26 38h2M21 39h1" />
<path stroke="#ccdbff" d="M27 30h1" />
<path stroke="#bfd2fc" d="M29 30h1" />
<path stroke="#cbdafe" d="M32 30h1" />
<path stroke="#152259" d="M20 31h1M19 32h1M21 32h1" />
<path stroke="#cad9fe" d="M9 32h1" />
<path stroke="#c3d5fd" d="M11 32h1" />
<path stroke="#6b0317" d="M26 32h1M16 33h1M24 33h2M17 34h1M23 34h1M18 35h1M22 35h1M19 36h1" />
<path stroke="#ecf4ff" d="M27 32h1M29 33h1M32 37h1M33 38h1" />
<path stroke="#c9daff" d="M1 33h1" />
<path stroke="#cedcfe" d="M8 33h1M3 39h1" />
<path stroke="#c1d4f9" d="M9 33h1" />
<path stroke="#b9cdf6" d="M11 33h1M7 37h1" />
<path stroke="#c1d3fc" d="M12 33h1" />
<path stroke="#c6d7fe" d="M14 33h1" />
<path stroke="#6b0318" d="M27 33h1M20 36h2" />
<path stroke="#c5d6fb" d="M10 34h1" />
<path stroke="#b7cbf6" d="M11 34h1" />
<path stroke="#b8cdf6" d="M13 34h1" />
<path stroke="#cddafe" d="M8 35h1M4 36h2" />
<path stroke="#bccff7" d="M13 35h1" />
<path stroke="#bccff6" d="M7 36h1M9 37h1" />
<path stroke="#b8ccf6" d="M8 36h3" />
<path stroke="#bed0f8" d="M3 37h1" />
<path stroke="#bdcff7" d="M4 37h3" />
<path stroke="#b8ccf5" d="M8 37h1" />
<path stroke="#6b031a" d="M20 37h1M20 38h1M20 39h1" />
<path stroke="#c1d3f9" d="M3 38h1" />
</svg>