<svg xmlns="http://www.w3.org/2000/svg" viewBox="0 -0.5 40 40" shape-rendering="crispEdges">
<metadata>Made with Pixels to Svg https://codepen.io/shshaw/pen/XbxvNj</metadata>
<path stroke="#ff7395" d="M0 0h14M20 0h9M0 1h12M20 1h7M0 2h11M18 2h8M0 3h10M17 3h8M32 3h1M0 4h8M31 4h3M0 5h7M30 5h5M0 6h6M28 6h6M2 7h3M29 7h5M2 8h1M11 8h1M29 8h4M9 9h2M30 9h2M8 10h2M30 10h2M30 11h1M30 12h1M5 14h2M6 15h3M6 16h3M7 17h2M30 17h1M7 18h1M29 18h3M30 19h2M31 20h2M31 21h3M31 22h3M10 23h2M32 23h3M10 24h3M26 24h2M33 24h3M11 25h2M25 25h3M33 25h3M11 26h1M24 26h5M34 26h3M25 27h4M34 27h4M35 28h2M17 29h1M35 29h1M17 30h1M35 30h1M16 31h1M26 32h3M27 33h7M30 34h3" />
<path stroke="#ff7596" d="M14 0h1M12 1h1M19 1h1M27 1h1M11 2h1M17 2h1M26 2h1M10 3h1M25 3h1M31 3h1M8 4h1M24 4h1M30 4h1M7 5h1M29 5h1M6 6h1M5 7h1M11 7h1M3 8h1M10 8h1M8 9h1M7 14h1M9 15h1M30 20h1M27 23h1M31 23h1M32 24h1M28 25h1M12 26h1M33 26h1M24 27h1M29 27h1M29 28h1M34 28h1M18 29h1M16 30h1M15 32h1M29 32h1" />
<path stroke="#ff869d" d="M15 0h1M14 1h1M17 1h1M10 4h1M27 5h1M5 8h1M8 8h1M7 11h1M7 13h1M9 14h1M28 23h1M29 25h1M13 26h1M30 27h1M24 30h1M29 31h1" />
<path stroke="#ffa5aa" d="M16 0h1M30 0h1M30 1h1M29 2h1M27 4h1M10 5h1M8 7h1M5 9h1M9 13h2M30 25h1M31 26h1M14 27h1M31 27h1M13 28h1M32 28h1M13 29h1M26 29h2M26 30h2M33 30h1M31 31h2" />
<path stroke="#ffa7ab" d="M17 0h1M4 11h1M32 29h1M14 30h1M31 30h1" />
<path stroke="#ff9ea7" d="M18 0h1M14 25h1M14 26h1M33 31h1" />
<path stroke="#ff7d99" d="M19 0h1M13 1h1M18 1h1M28 1h1M9 4h1M28 5h1M4 8h1M9 8h1M9 11h1M5 13h1M8 14h1M30 21h1M28 24h1M32 25h1M29 26h1M12 27h1M23 27h1M33 27h1M16 28h1M28 28h1M30 28h1M16 29h1M34 29h1M15 31h1M25 31h1M34 31h1M30 32h1M33 32h1" />
<path stroke="#ff7f9a" d="M29 0h1M8 11h1M6 13h1M30 22h1M13 24h1M13 25h1M12 28h1M25 28h3M34 30h1M26 31h3M31 32h2" />
<path stroke="#faa0a0" d="M31 0h1" />
<path stroke="#e15258" d="M32 0h1" />
<path stroke="#d4141a" d="M33 0h1M34 1h1M35 2h1M32 15h1M33 16h1M34 18h1M35 19h1M36 21h1M38 24h1M39 25h1" />
<path stroke="#d20000" d="M34 0h1M35 1h1M36 2h1M37 6h1M37 7h1M36 8h1M36 9h1M35 10h1M34 11h1M34 12h1M33 15h1M34 16h1M34 17h1M35 18h1M36 19h1M36 20h1M37 21h1M38 23h1M39 24h1M39 30h1M37 33h1M36 34h1M36 35h1M35 36h1M34 37h1M34 38h1" />
<path stroke="#d10000" d="M35 0h5M36 1h4M37 2h3M39 3h1M39 4h1M39 5h1M38 6h2M38 7h2M37 8h3M37 9h3M36 10h4M35 11h5M35 12h1M39 12h1M33 13h3M39 13h1M33 14h3M39 14h1M34 15h6M35 16h5M35 17h5M36 18h4M37 19h3M37 20h3M38 21h2M38 22h2M39 23h1M38 31h2M38 32h2M38 33h2M37 34h3M36 36h1M35 37h2M35 38h5M34 39h6" />
<path stroke="#ff9fa7" d="M15 1h2M28 2h1M26 4h1M28 4h1M9 5h1M7 7h1M6 8h2M4 9h1M6 9h1M3 10h1M5 12h1M8 13h1M10 14h1M29 23h1M30 24h1M31 25h1M30 26h1M13 27h1M32 27h1M15 28h1M31 28h1M15 29h1M33 29h1M25 30h1M30 31h1" />
<path stroke="#ff889e" d="M29 1h1" />
<path stroke="#fe9ea5" d="M31 1h1" />
<path stroke="#f66e85" d="M32 1h1" />
<path stroke="#df3a4c" d="M33 1h1M34 2h1M35 3h1M32 16h1M34 19h1M36 22h1M38 25h1" />
<path stroke="#ff849c" d="M12 2h1M27 2h1M25 4h1M6 7h1M7 9h1" />
<path stroke="#000000" d="M13 2h2M11 3h1M13 3h4M11 4h13M11 5h16M11 6h17M12 7h1M16 7h1M23 7h6M12 8h1M24 8h5M11 9h3M18 9h4M25 9h5M10 10h1M22 10h1M24 10h6M10 11h1M13 11h2M18 11h3M24 11h6M10 12h1M12 12h1M15 12h1M17 12h1M21 12h1M26 12h4M11 13h1M15 13h1M17 13h1M21 13h1M27 13h3M11 14h1M14 14h2M17 14h1M20 14h2M28 14h2M10 15h2M13 15h3M17 15h1M19 15h3M28 15h2M9 16h1M11 16h1M13 16h3M17 16h1M19 16h3M23 16h4M28 16h2M9 17h1M12 17h1M15 17h3M21 17h2M27 17h3M8 18h8M17 18h1M20 18h2M24 18h2M28 18h1M7 19h1M16 19h5M26 19h1M29 19h1M6 20h1M9 20h4M25 20h1M27 20h1M29 20h1M6 21h1M8 21h1M13 21h4M24 21h1M29 21h1M7 22h1M10 22h3M14 22h1M17 22h8M27 22h2M8 23h2M12 23h2M15 23h1M23 23h1M26 23h1M14 24h1M16 24h1M23 24h1M25 24h1M15 25h1M17 25h1M22 25h1M24 25h1M15 26h1M17 26h1M21 26h1M23 26h1M16 27h1M18 27h3M22 27h1M17 28h1M21 28h2M19 29h1M22 29h1M22 30h1M17 31h1M24 31h1M16 32h1M25 32h1M16 33h1M26 33h1M15 34h1M27 34h3M14 35h1M30 35h2M13 36h1M31 36h2M12 37h1M32 37h1M12 38h1M28 38h1M33 38h1M12 39h1M15 39h1M28 39h2M33 39h1" />
<path stroke="#ff9fa8" d="M15 2h1M30 2h1M9 7h1M7 12h1M9 12h1M23 28h1M24 29h1M28 29h1M29 30h1" />
<path stroke="#ff859c" d="M16 2h1M31 2h1M26 3h1M30 3h1M29 4h1M8 5h1M7 6h1M10 7h1M3 9h1M31 24h1" />
<path stroke="#fe7394" d="M32 2h1M34 32h1" />
<path stroke="#f66381" d="M33 2h1M34 3h1M31 16h1M33 19h1M35 22h1M37 25h1M35 32h1" />
<path stroke="#ffa1a8" d="M12 3h1M27 3h1M29 3h1M8 6h1M10 6h1M6 11h1" />
<path stroke="#ffabad" d="M28 3h1M9 6h1M5 11h1" />
<path stroke="#fe7193" d="M33 3h1M34 4h1M34 6h1M33 8h1M32 9h1M31 11h1M30 13h1M30 16h1M31 17h1M32 19h1M33 20h1M34 22h1M35 23h1M36 25h1M37 26h1M37 28h1M36 29h1M35 31h1M33 34h1M32 35h1" />
<path stroke="#d5241a" d="M36 3h1" />
<path stroke="#d73b00" d="M37 3h1" />
<path stroke="#d31e00" d="M38 3h1M38 5h1M38 12h1M38 14h1M37 35h1M39 35h1" />
<path stroke="#f5617e" d="M35 4h1M34 20h1M36 23h1M38 26h1" />
<path stroke="#de4938" d="M36 4h1" />
<path stroke="#e37200" d="M37 4h1M37 13h1" />
<path stroke="#d63b00" d="M38 4h1M37 12h1M38 13h1" />
<path stroke="#f86887" d="M35 5h1" />
<path stroke="#dd383e" d="M36 5h1" />
<path stroke="#d63900" d="M37 5h1M37 14h1" />
<path stroke="#f4607d" d="M35 6h1M34 8h1M32 11h1M38 28h1M34 34h1" />
<path stroke="#d92b38" d="M36 6h1M35 8h1M33 11h1M32 13h1M33 17h1M37 23h1M37 31h1M35 34h1M33 37h1" />
<path stroke="#ed8398" d="M0 7h1" />
<path stroke="#fc7796" d="M1 7h1" />
<path stroke="#ffffff" d="M13 7h3M17 7h6M13 8h11M14 9h4M22 9h3M11 10h11M23 10h1M11 11h2M15 11h3M21 11h3M11 12h1M13 12h2M16 12h1M18 12h3M22 12h4M12 13h3M16 13h1M18 13h3M22 13h5M12 14h2M16 14h1M18 14h2M22 14h6M12 15h1M16 15h1M18 15h1M22 15h6M12 16h1M16 16h1M18 16h1M22 16h1M27 16h1M13 17h2M18 17h3M18 18h2M20 29h2M19 30h3M20 31h2M20 34h2M19 35h4M18 36h6M18 37h6M19 38h4M19 39h4" />
<path stroke="#fa6a8a" d="M34 7h1M32 10h1M30 14h1M30 15h1M32 18h1M34 21h1M36 24h1M34 33h1" />
<path stroke="#e23d50" d="M35 7h1" />
<path stroke="#d4131a" d="M36 7h1M33 12h1" />
<path stroke="#8fb3a2" d="M0 8h1" />
<path stroke="#eb8398" d="M1 8h1M4 14h1M5 16h1M6 18h1M9 24h1M10 26h1" />
<path stroke="#5fc0a5" d="M0 9h1M7 23h1" />
<path stroke="#d5929a" d="M1 9h1M3 13h1M4 15h1M6 19h1M9 25h1M14 33h1" />
<path stroke="#fb7997" d="M2 9h1M4 13h1" />
<path stroke="#f56280" d="M33 9h1M37 29h1M33 35h1" />
<path stroke="#df394b" d="M34 9h1M38 29h1M34 35h1" />
<path stroke="#d41319" d="M35 9h1M34 10h1M39 29h1M38 30h1M36 33h1M35 35h1M34 36h1" />
<path stroke="#2ac7a7" d="M0 10h1M1 12h1M5 20h1M6 22h1M7 24h1M8 26h1M13 34h1" />
<path stroke="#87b5a2" d="M1 10h1" />
<path stroke="#ec8c9c" d="M2 10h1" />
<path stroke="#ffadad" d="M4 10h1M14 28h1M14 29h1M32 30h1" />
<path stroke="#ffa9ac" d="M5 10h1" />
<path stroke="#ff8ea0" d="M6 10h1" />
<path stroke="#ff7897" d="M7 10h1" />
<path stroke="#e13d50" d="M33 10h1M31 14h1M35 33h1M33 36h1" />
<path stroke="#02c9a7" d="M0 11h1M0 12h1M4 20h1M3 21h3M3 22h3M3 23h4M5 24h2M7 25h1M0 27h1M0 28h3M0 29h5M0 30h6M0 31h7M0 32h7M11 32h1M0 33h7M11 33h2M0 34h6M11 34h2M0 35h6M11 35h3M0 36h6M10 36h3M0 37h5M10 37h2M0 38h5M9 38h3M0 39h5M9 39h3" />
<path stroke="#5fbfa5" d="M1 11h1" />
<path stroke="#d7999e" d="M2 11h1" />
<path stroke="#fba0a7" d="M3 11h1M14 31h1" />
<path stroke="#87b6a3" d="M2 12h1" />
<path stroke="#eb8d9c" d="M3 12h1M14 32h1" />
<path stroke="#ff879d" d="M4 12h1M30 23h1M32 26h1M15 27h1M24 28h1M33 28h1M29 29h1M15 30h1" />
<path stroke="#ffa4a9" d="M6 12h1M8 12h1M29 22h1M25 29h1M28 30h1M30 30h1" />
<path stroke="#f96a8a" d="M31 12h1M36 30h1" />
<path stroke="#e03d50" d="M32 12h1" />
<path stroke="#d31d00" d="M36 12h1M36 14h1M37 37h1M39 37h1" />
<path stroke="#02c2a1" d="M0 13h1M0 22h1M0 23h1M0 26h1M10 32h1M7 33h1M10 33h1M6 36h1M8 38h1M5 39h1M8 39h1" />
<path stroke="#02c3a2" d="M1 13h1M2 21h1M1 23h1M3 24h1M5 25h1M7 32h1M10 34h1M6 35h1M9 36h1M5 38h1" />
<path stroke="#5fbea4" d="M2 13h1" />
<path stroke="#f3607d" d="M31 13h1M36 31h1" />
<path stroke="#d63a00" d="M36 13h1M38 35h1M37 36h1M39 36h1M38 37h1" />
<path stroke="#02a286" d="M0 14h1M0 24h1M2 25h1M4 26h1M5 27h1M7 28h1M9 29h1M7 39h1" />
<path stroke="#02a88b" d="M1 14h1M2 15h1M3 17h1M1 24h1M3 25h1M5 26h1M6 27h1M8 28h1M7 35h1M7 37h1" />
<path stroke="#2abc9d" d="M2 14h1" />
<path stroke="#86b4a1" d="M3 14h1M4 16h1" />
<path stroke="#d3131a" d="M32 14h1M37 32h1" />
<path stroke="#02a285" d="M0 15h1" />
<path stroke="#029d81" d="M1 15h1" />
<path stroke="#5eb99f" d="M3 15h1M4 17h1" />
<path stroke="#fb7796" d="M5 15h1M6 17h1M10 25h1M11 27h1M15 33h1" />
<path stroke="#e23e50" d="M31 15h1M33 18h1M35 21h1" />
<path stroke="#02bd9d" d="M0 16h1M1 17h1M1 18h1M0 19h1M2 20h1M2 24h1M4 25h1M1 26h1M3 27h1M7 27h1M5 28h1M8 31h1M10 31h1M7 34h1M9 35h1M6 37h1M8 37h1" />
<path stroke="#02a88a" d="M1 16h1" />
<path stroke="#02a386" d="M2 16h1M2 17h1M2 18h1M1 20h1M0 21h1M0 25h2M3 26h1M8 29h1M9 30h1M8 33h2M8 34h1M8 35h1M6 39h1" />
<path stroke="#2abb9b" d="M3 16h1" />
<path stroke="#ff8a00" d="M10 16h1M10 17h2M23 17h4M16 18h1M22 18h2M26 18h2M8 19h8M21 19h5M27 19h2M7 20h2M13 20h12M26 20h1M28 20h1M7 21h1M9 21h4M17 21h7M25 21h4M8 22h2M13 22h1M25 22h2M14 23h1M24 23h2M15 24h1M24 24h1M16 25h1M23 25h1M16 26h1M22 26h1M17 27h1M21 27h1M18 28h3" />
<path stroke="#02c8a6" d="M0 17h1M0 18h1M4 19h1M3 20h1M2 22h1M2 23h1M4 24h1M6 25h1M7 26h1M1 27h1M3 28h1M5 29h1M6 30h1M7 31h1M6 34h1M10 35h1M5 37h1M9 37h1" />
<path stroke="#d6919a" d="M5 17h1M10 27h1" />
<path stroke="#f4617e" d="M32 17h1" />
<path stroke="#02a98b" d="M3 18h1M1 19h2M2 26h1M4 27h1M6 28h1M7 29h1M9 31h1M8 32h1M9 34h1M8 36h1M6 38h1" />
<path stroke="#2ac1a1" d="M4 18h1" />
<path stroke="#86b5a2" d="M5 18h1M8 24h1M9 26h1M14 34h1" />
<path stroke="#02be9e" d="M3 19h1M6 26h1" />
<path stroke="#5ec0a5" d="M5 19h1M8 25h1M13 33h1" />
<path stroke="#02a185" d="M0 20h1" />
<path stroke="#da2b38" d="M35 20h1M39 26h1M39 28h1" />
<path stroke="#02aa8c" d="M1 21h1" />
<path stroke="#02c4a2" d="M1 22h1M2 27h1M8 27h1M4 28h1M7 30h1" />
<path stroke="#ff0000" d="M15 22h2M16 23h3M22 23h1M17 24h1M21 24h2M20 25h2M18 26h3M18 30h1M23 30h1M18 31h2M22 31h2M18 32h6M18 33h6M18 34h2M22 34h2M18 35h1M23 35h1" />
<path stroke="#d3141a" d="M37 22h1" />
<path stroke="#fc809a" d="M19 23h3M18 24h3M18 25h2" />
<path stroke="#ff9da7" d="M29 24h1" />
<path stroke="#e13e50" d="M37 24h1" />
<path stroke="#5ebea4" d="M9 27h1" />
<path stroke="#f86888" d="M38 27h1" />
<path stroke="#dc303e" d="M39 27h1" />
<path stroke="#2abb9c" d="M9 28h1" />
<path stroke="#86ae9d" d="M10 28h1" />
<path stroke="#eb8197" d="M11 28h1" />
<path stroke="#02bf9e" d="M6 29h1" />
<path stroke="#5e9e89" d="M10 29h1" />
<path stroke="#d58995" d="M11 29h1" />
<path stroke="#fb829a" d="M12 29h1" />
<path stroke="#ffa3a9" d="M23 29h1" />
<path stroke="#ff819b" d="M30 29h1" />
<path stroke="#ff8fa0" d="M31 29h1" />
<path stroke="#02bc9c" d="M8 30h1" />
<path stroke="#2aa68a" d="M10 30h1" />
<path stroke="#7eb09d" d="M11 30h1" />
<path stroke="#db989e" d="M12 30h1" />
<path stroke="#fba8ab" d="M13 30h1" />
<path stroke="#e03d4f" d="M37 30h1" />
<path stroke="#2ac6a6" d="M11 31h1" />
<path stroke="#7fbea6" d="M12 31h1" />
<path stroke="#d9b3ab" d="M13 31h1" />
<path stroke="#02a487" d="M9 32h1M7 36h1M7 38h1" />
<path stroke="#2bc9a7" d="M12 32h1" />
<path stroke="#87bca6" d="M13 32h1" />
<path stroke="#848484" d="M17 32h1M24 32h1M17 33h1M24 33h2M16 34h2M24 34h3M16 35h2M24 35h3M28 35h2M14 36h1M16 36h2M24 36h2M27 36h4M13 37h3M17 37h1M24 37h2M27 37h5M13 38h3M17 38h2M23 38h2M26 38h2M29 38h4M13 39h2M17 39h2M23 39h2M26 39h2M30 39h3" />
<path stroke="#df394c" d="M36 32h1" />
<path stroke="#4f4e4e" d="M15 35h1M27 35h1M15 36h1M26 36h1M16 37h1M26 37h1M16 38h1M25 38h1M16 39h1M25 39h1" />
<path stroke="#e37000" d="M38 36h1" />
</svg>