<svg xmlns="http://www.w3.org/2000/svg" viewBox="0 -0.5 40 40" shape-rendering="crispEdges">
<metadata>Made with Pixels to Svg https://codepen.io/shshaw/pen/XbxvNj</metadata>
<path stroke="#fdbc02" d="M0 0h19M21 0h19M0 1h10M15 1h3M20 1h4M28 1h12M0 2h9M16 2h1M20 2h2M30 2h10M0 3h11M27 3h2M32 3h8M0 4h8M23 4h1M29 4h1M33 4h7M0 5h7M11 5h1M33 5h7M0 6h6M9 6h1M34 6h6M0 7h6M8 7h1M30 7h1M34 7h6M0 8h5M7 8h1M26 8h1M31 8h1M35 8h5M0 9h5M6 9h1M27 9h1M32 9h1M35 9h5M0 10h5M6 10h1M27 10h2M33 10h1M35 10h5M0 11h4M6 11h1M29 11h1M33 11h7M0 12h4M5 12h1M30 12h2M34 12h6M0 13h4M5 13h1M32 13h1M34 13h6M0 14h6M32 14h8M0 15h6M7 15h1M33 15h7M0 16h6M7 16h1M33 16h7M0 17h8M31 17h1M34 17h6M0 18h8M34 18h6M0 19h7M34 19h6M0 20h6M30 20h1M35 20h5M0 21h6M30 21h1M35 21h5M0 22h6M31 22h1M34 22h6M0 23h6M31 23h1M34 23h6M0 24h5M8 24h1M31 24h1M34 24h6M0 25h5M8 25h1M11 25h1M31 25h2M34 25h6M0 26h6M7 26h1M11 26h1M28 26h1M32 26h8M0 27h6M7 27h1M10 27h2M29 27h1M32 27h8M0 28h6M7 28h1M9 28h3M14 28h1M26 28h2M30 28h1M32 28h8M0 29h8M9 29h3M13 29h4M23 29h2M27 29h1M29 29h2M32 29h8M0 30h8M9 30h3M13 30h5M24 30h1M27 30h13M0 31h17M25 31h1M27 31h13M0 32h15M28 32h1M31 32h9M0 33h13M33 33h7M0 34h12M34 34h6M0 35h11M35 35h5M0 36h10M36 36h4M0 37h9M36 37h4M0 38h9M37 38h3M0 39h9M37 39h3" />
<path stroke="#9d4a07" d="M19 0h2M11 1h3M24 1h4M13 2h1M17 2h1M22 2h1M13 3h1M20 3h1M8 4h1M16 4h1M19 4h1M24 4h3M31 4h2M7 5h1M12 5h1M18 5h1M22 5h2M32 5h1M6 6h1M10 6h1M13 6h1M16 6h2M21 6h2M33 6h1M9 7h1M13 7h1M16 7h1M20 7h6M28 7h2M5 8h1M8 8h2M14 8h3M19 8h7M30 8h1M5 9h1M7 9h2M14 9h4M22 9h2M31 9h1M7 10h1M16 10h1M23 10h1M32 10h1M4 11h1M16 11h1M23 11h1M28 11h1M32 11h1M4 12h1M6 12h1M16 12h1M23 12h3M29 12h1M32 12h2M4 13h1M16 13h1M23 13h1M25 13h2M29 13h3M33 13h1M16 14h1M23 14h2M26 14h1M30 14h2M9 15h1M16 15h1M23 15h2M26 15h2M31 15h2M6 16h1M8 16h1M16 16h1M27 16h1M31 16h2M8 17h1M32 17h2M32 18h2M30 19h1M33 19h1M33 20h2M31 21h1M34 21h1M29 22h2M30 23h1M30 24h1M32 24h1M14 25h1M28 25h1M10 26h1M31 26h1M16 27h1M23 27h1M26 27h1M16 28h1M23 28h1M17 29h2M31 29h1M8 30h1M21 30h1M26 30h1M19 31h4M26 31h1M20 32h2M28 33h1M30 33h3M28 34h1M30 34h2M33 34h1M27 35h2M31 35h1M10 36h2M15 36h1M20 36h3M27 36h3M9 37h2M16 37h1M19 37h3M25 37h3M29 37h1M33 37h1M17 38h2M20 38h2M24 38h4M30 38h1M33 38h1M17 39h2M21 39h1M24 39h4M30 39h1M33 39h1" />
<path stroke="#c25b08" d="M10 1h1M18 1h2M9 2h4M18 2h2M23 2h2M16 3h2M21 3h4M26 3h1M13 4h1M21 4h2M27 4h2M30 4h1M8 5h1M13 5h1M15 5h1M20 5h1M26 5h5M7 6h2M11 6h2M15 6h1M19 6h1M24 6h2M31 6h2M6 7h2M10 7h3M17 7h2M33 7h1M6 8h1M10 8h2M13 8h1M17 8h2M33 8h1M5 10h1M8 10h1M11 10h5M17 10h5M24 10h2M5 11h1M8 11h1M11 11h2M15 11h1M17 11h1M21 11h2M24 11h2M7 12h2M11 12h1M22 12h1M26 12h1M7 13h2M10 13h1M22 13h1M27 13h1M7 14h1M10 14h1M22 14h1M27 14h1M22 15h1M28 15h2M22 16h1M29 17h1M6 22h1M6 23h1M28 23h2M5 24h2M28 24h2M5 25h1M29 25h1M29 26h2M13 27h1M30 27h1M8 28h1M12 28h2M8 29h1M12 29h1M29 32h2M29 33h1M29 34h1M32 34h1M13 35h2M29 35h2M33 35h1M12 36h2M30 36h2M34 36h1M12 37h1M14 37h2M28 37h1M30 37h2M34 37h2M12 38h1M14 38h2M28 38h2M31 38h1M34 38h2M12 39h1M14 39h1M28 39h2M34 39h2" />
<path stroke="#673003" d="M14 1h1M14 2h2M25 2h5M11 3h2M14 3h2M18 3h2M25 3h1M29 3h3M9 4h4M14 4h2M17 4h2M20 4h1M9 5h2M14 5h1M16 5h2M19 5h1M21 5h1M24 5h2M31 5h1M14 6h1M18 6h1M20 6h1M23 6h1M26 6h5M14 7h2M19 7h1M26 7h2M31 7h2M12 8h1M27 8h3M32 8h1M34 8h1M9 9h2M24 9h3M28 9h3M33 9h2M9 10h1M26 10h1M29 10h3M34 10h1M7 11h1M9 11h1M26 11h2M30 11h2M9 12h1M27 12h2M6 13h1M9 13h1M24 13h1M28 13h1M6 14h1M8 14h2M25 14h1M28 14h2M6 15h1M8 15h1M25 15h1M30 15h1M29 16h2M30 17h1M29 18h3M31 19h2M31 20h2M32 21h2M32 22h2M7 23h1M10 23h2M27 23h1M32 23h2M7 24h1M9 24h5M26 24h2M33 24h1M6 25h2M9 25h2M12 25h2M25 25h3M30 25h1M33 25h1M6 26h1M8 26h2M12 26h3M24 26h4M6 27h1M8 27h2M12 27h1M14 27h2M24 27h2M27 27h2M31 27h1M6 28h1M15 28h1M24 28h2M28 28h2M31 28h1M20 29h2M25 29h2M28 29h1M12 30h1M20 30h1M25 30h1M26 32h2M15 33h1M27 33h1M12 34h3M11 35h1M32 35h1M34 35h1M14 36h1M33 36h1M35 36h1M11 37h1M13 37h1M22 37h2M9 38h2M13 38h1M19 38h1M22 38h2M36 38h1M9 39h2M13 39h1M15 39h1M19 39h2M22 39h2M36 39h1" />
<path stroke="#000000" d="M11 9h3M18 9h4M10 10h1M22 10h1M10 11h1M13 11h2M18 11h3M10 12h1M12 12h1M15 12h1M17 12h1M21 12h1M11 13h1M15 13h1M17 13h1M21 13h1M11 14h1M15 14h1M17 14h1M20 14h2M10 15h2M14 15h2M17 15h1M19 15h3M9 16h1M11 16h1M14 16h2M17 16h1M19 16h3M23 16h4M28 16h1M9 17h1M12 17h1M14 17h4M19 17h4M27 17h2M8 18h8M17 18h1M20 18h2M24 18h2M28 18h1M7 19h1M16 19h5M26 19h1M29 19h1M6 20h1M9 20h4M25 20h1M27 20h1M29 20h1M6 21h1M8 21h1M13 21h4M24 21h1M29 21h1M7 22h1M10 22h3M14 22h1M17 22h8M27 22h2M8 23h2M12 23h2M15 23h1M23 23h1M26 23h1M14 24h1M16 24h1M23 24h1M25 24h1M15 25h1M17 25h1M22 25h1M24 25h1M15 26h1M17 26h1M21 26h1M23 26h1M18 27h3M22 27h1M17 28h1M21 28h2M19 29h1M22 29h1M18 30h2M22 30h2M17 31h2M23 31h2M15 32h2M19 32h1M22 32h1M25 32h1M13 33h2M16 33h1M20 33h1M22 33h1M26 33h1M15 34h1M19 34h1M23 34h1M27 34h1M12 35h1M15 35h1M20 35h1M22 35h1M26 35h1M16 36h1M19 36h1M23 36h1M25 36h2M32 36h1M17 37h2M24 37h1M32 37h1M11 38h1M16 38h1M32 38h1M11 39h1M16 39h1M31 39h2" />
<path stroke="#c3d9f9" d="M13 12h2M18 12h3M12 13h3M18 13h3M12 14h2M18 14h1M12 15h2M18 15h1M12 16h2M18 16h1M13 17h1M18 17h1M18 18h2" />
<path stroke="#ffffff" d="M14 14h1M19 14h1" />
<path stroke="#ff8a00" d="M10 16h1M10 17h2M23 17h4M16 18h1M22 18h2M26 18h2M8 19h8M21 19h5M27 19h2M7 20h2M13 20h12M26 20h1M28 20h1M7 21h1M9 21h4M17 21h7M25 21h4M8 22h2M13 22h1M25 22h2M14 23h1M24 23h2M15 24h1M24 24h1M16 25h1M23 25h1M16 26h1M22 26h1M17 27h1M21 27h1M18 28h3" />
<path stroke="#ff0000" d="M15 22h2M16 23h3M22 23h1M17 24h1M21 24h2M20 25h2M18 26h3" />
<path stroke="#fc809a" d="M19 23h3M18 24h3M18 25h2" />
<path stroke="#0ad207" d="M17 32h1M24 32h1M17 33h2M21 33h1M24 33h2M16 34h2M20 34h3M25 34h2M16 35h3M21 35h1M24 35h2" />
<path stroke="#079e04" d="M18 32h1M23 32h1M19 33h1M23 33h1M18 34h1M24 34h1M19 35h1M23 35h1M17 36h2M24 36h1" />
</svg>