<svg xmlns="http://www.w3.org/2000/svg" viewBox="0 -0.5 40 40" shape-rendering="crispEdges">
<metadata>Made with Pixels to Svg https://codepen.io/shshaw/pen/XbxvNj</metadata>
<path stroke="#502e59" d="M0 0h16M17 0h23M2 1h34M38 1h2M2 2h2M5 2h15M23 2h17M0 3h14M28 3h12M0 4h4M7 4h4M26 4h14M3 5h5M28 5h6M36 5h4M2 6h9M27 6h13M0 7h10M28 7h12M0 8h10M28 8h12M1 9h9M29 9h2M34 9h6M2 10h8M29 10h8M5 11h5M34 11h6M0 12h10M29 12h11M0 13h11M29 13h3M34 13h6M0 14h11M29 14h11M1 15h9M29 15h3M33 15h7M0 16h9M29 16h10M0 17h6M7 17h2M29 17h4M36 17h1M2 18h6M29 18h2M1 19h6M30 19h1M0 20h6M30 20h1M2 21h2M30 21h2M2 22h5M0 23h1M3 23h5M27 23h4M32 23h1M34 23h6M0 24h14M26 24h5M32 24h1M34 24h6M3 25h5M9 25h6M25 25h2M5 26h3M14 26h1M24 26h4M0 27h2M9 27h1M1 28h1M12 28h1" />
<path stroke="#75607b" d="M16 0h1M0 1h2M36 1h2M0 2h2M8 5h3M0 6h2M31 9h3M0 10h2M0 11h4M32 13h2M6 17h1M0 18h1M31 20h1M4 21h2M1 25h2M8 25h1" />
<path stroke="#573f5d" d="M4 2h1M25 3h3M4 4h3M11 4h1M0 5h3M27 5h1M34 5h2M0 9h1M37 10h3M4 11h1M29 11h5M0 15h1M32 15h1M1 18h1M0 19h1M0 21h2M33 21h1M35 21h2M0 22h2M29 22h2M34 22h6M1 23h2M10 23h2M0 25h1M27 25h2M35 25h5M0 26h5M8 26h6M13 30h1M16 30h1M26 30h1" />
<path stroke="#000000" d="M20 2h3M14 3h6M23 3h2M12 4h2M25 4h1M11 5h1M26 5h1M11 6h1M26 6h1M10 7h1M27 7h1M10 8h1M27 8h1M10 9h2M27 9h2M10 10h1M13 10h1M19 10h1M28 10h1M10 11h1M12 11h1M14 11h1M18 11h1M20 11h1M28 11h1M10 12h2M15 12h1M17 12h1M21 12h1M28 12h1M11 13h1M15 13h1M17 13h1M21 13h1M28 13h1M11 14h1M15 14h1M17 14h1M21 14h1M28 14h1M10 15h2M13 15h1M15 15h1M17 15h1M19 15h1M21 15h1M28 15h1M9 16h1M11 16h1M15 16h1M17 16h1M21 16h1M23 16h4M28 16h1M9 17h1M12 17h1M15 17h1M17 17h1M21 17h1M27 17h2M8 18h7M17 18h1M20 18h2M24 18h2M28 18h1M7 19h1M18 19h3M26 19h1M29 19h1M6 20h1M9 20h4M25 20h1M27 20h1M29 20h1M6 21h1M8 21h1M13 21h4M24 21h1M29 21h1M7 22h1M10 22h3M14 22h1M20 22h5M27 22h2M33 22h1M8 23h2M12 23h2M15 23h1M23 23h1M26 23h1M31 23h1M33 23h1M14 24h1M16 24h1M23 24h1M25 24h1M31 24h1M33 24h1M15 25h1M17 25h1M22 25h1M24 25h1M29 25h6M15 26h1M17 26h1M21 26h1M23 26h1M28 26h11M16 27h1M18 27h1M20 27h1M22 27h1M28 27h11M4 28h4M17 28h1M22 28h1M27 28h4M32 28h4M37 28h3M3 29h1M8 29h2M19 29h1M22 29h1M27 29h3M32 29h3M37 29h3M1 30h2M10 30h1M18 30h1M22 30h2M27 30h13M0 31h1M10 31h1M17 31h2M23 31h2M0 32h1M11 32h1M16 32h1M25 32h1M0 33h1M3 33h2M7 33h1M12 33h1M16 33h1M26 33h1M0 34h1M3 34h1M5 34h1M7 34h2M13 34h1M15 34h1M27 34h3M0 35h1M3 35h1M5 35h1M7 35h1M9 35h1M14 35h2M30 35h2M0 36h1M3 36h1M6 36h1M9 36h1M15 36h1M31 36h2M1 37h1M3 37h1M10 37h1M16 37h1M32 37h1M1 38h2M10 38h1M28 38h1M33 38h1M10 39h1M29 39h1M33 39h1" />
<path stroke="#908b8b" d="M20 3h1M14 4h2M17 4h3M24 4h1M14 5h1M16 5h3M22 5h1M14 6h4M23 6h1M11 7h1M15 7h2M19 7h2M25 7h1M11 8h2M18 8h4M25 8h1M16 9h3M22 9h1M25 9h2M16 10h1M25 10h2M24 11h1M27 11h1M16 12h1M25 12h1M16 14h1M23 15h1M27 15h1M16 16h1M27 16h1M39 16h1M22 17h1M33 17h1M35 17h1M37 17h3M16 18h1M22 18h1M31 18h2M38 18h2M21 19h1M31 19h1M36 19h2M39 19h1M19 20h1M9 21h4M17 21h1M8 22h2M17 22h2M18 23h1M19 24h1M19 25h1M19 26h1M19 27h1M19 28h1M7 29h1M6 30h2M4 31h1M9 31h1M22 31h1M2 32h2M5 32h1M8 32h2M22 32h3M2 33h1M5 33h1M8 33h4M19 33h1M23 33h1M25 33h1M2 34h1M9 34h1M12 34h1M16 34h1M19 34h1M24 34h3M2 35h1M13 35h1M16 35h1M18 35h1M20 35h1M26 35h3M10 36h1M13 36h2M16 36h1M18 36h1M21 36h1M28 36h1M13 37h3M17 37h3M22 37h1M25 37h1M28 37h2M14 38h3M18 38h1M21 38h2M25 38h2M29 38h2M32 38h1M14 39h1M20 39h3M25 39h2M30 39h1M32 39h1" />
<path stroke="#ada7a7" d="M21 3h1M20 4h2M23 4h1M12 5h1M19 5h3M24 5h1M12 6h1M18 6h1M21 6h2M25 6h1M13 7h1M17 7h1M22 7h3M14 8h3M23 8h2M13 9h1M15 9h1M20 9h1M24 9h1M12 10h1M15 10h1M18 10h1M21 10h1M24 10h1M27 10h1M11 11h1M15 11h1M17 11h1M22 11h2M26 11h1M24 12h1M27 12h1M23 13h3M27 13h1M25 14h1M27 14h1M22 15h1M25 15h2M15 19h2M15 20h1M18 20h1M7 21h1M13 22h1M19 22h1M26 22h1M14 23h1M25 23h1M15 24h1M16 25h1M23 25h1M16 26h1M22 26h1M17 27h1M21 27h1M18 28h1M20 28h1M4 29h1M6 29h1M3 30h2M8 30h1M21 30h1M1 31h3M7 31h2M21 31h1M1 32h1M7 32h1M18 32h1M21 32h1M1 33h1M6 33h1M18 33h1M22 33h1M1 34h1M6 34h1M11 34h1M20 34h1M23 34h1M1 35h1M6 35h1M11 35h2M23 35h2M1 36h2M12 36h1M17 36h1M24 36h1M26 36h1M30 36h1M2 37h1M12 37h1M24 37h1M27 37h1M31 37h1M12 38h2M17 38h1M24 38h1M31 38h1M12 39h2M16 39h2M19 39h1M24 39h1M31 39h1" />
<path stroke="#656161" d="M22 3h1M16 4h1M22 4h1M15 5h1M23 5h1M20 6h1M24 6h1M12 7h1M21 7h1M13 8h1M22 8h1M26 8h1M12 9h1M14 9h1M23 9h1M11 10h1M14 10h1M20 10h1M23 10h1M21 11h1M25 11h1M26 12h1M22 13h1M26 13h1M24 14h1M26 14h1M24 15h1M10 16h1M10 17h2M15 18h1M14 19h1M17 19h1M16 20h1M20 20h1M19 21h1M21 28h1M5 29h1M20 29h2M5 30h1M19 30h2M6 31h1M19 31h2M4 32h1M17 32h1M19 32h2M17 33h1M20 33h1M10 34h1M17 34h1M21 34h1M10 35h1M17 35h1M21 35h2M11 36h1M19 36h1M22 36h2M25 36h1M29 36h1M11 37h1M20 37h1M23 37h1M26 37h1M30 37h1M11 38h1M19 38h1M23 38h1M27 38h1M11 39h1M15 39h1M18 39h1M23 39h1M27 39h2" />
<path stroke="#c2bcbc" d="M13 5h1M25 5h1M13 6h1M19 6h1M14 7h1M18 7h1M26 7h1M17 8h1M19 9h1M21 9h1M17 10h1M22 10h1M16 11h1M22 12h2M16 13h1M22 14h2M16 15h1M22 16h1M16 17h1M23 17h4M23 18h1M26 18h2M8 19h6M22 19h4M27 19h2M7 20h2M13 20h2M17 20h1M21 20h4M26 20h1M28 20h1M18 21h1M20 21h4M25 21h4M25 22h1M19 23h1M24 23h1M24 24h1M9 30h1M5 31h1M6 32h1M10 32h1M21 33h1M24 33h1M18 34h1M22 34h1M19 35h1M25 35h1M29 35h1M20 36h1M27 36h1M21 37h1M20 38h1" />
<path stroke="#ff0000" d="M13 11h1M19 11h1M12 12h3M18 12h3M12 13h3M18 13h3M12 14h1M14 14h1M18 14h1M20 14h1M12 16h1M14 16h1M18 16h1M20 16h1M13 17h2M18 17h3M18 18h2M15 22h2M16 23h2M22 23h1M17 24h1M21 24h2M20 25h2M18 26h1M20 26h1M31 28h1M36 28h1M30 29h2M35 29h2" />
<path stroke="#ffdf00" d="M13 14h1M19 14h1M12 15h1M14 15h1M18 15h1M20 15h1M13 16h1M19 16h1" />
<path stroke="#6d6767" d="M34 17h1M33 18h1M35 18h1M34 19h1M32 20h1" />
<path stroke="#4e4747" d="M34 18h1M37 18h1M33 19h1M35 20h1M38 20h2" />
<path stroke="#322d2d" d="M36 18h1M32 19h1M35 19h1M38 19h1M33 20h2M36 20h2M32 21h1M34 21h1M37 21h3M31 22h1" />
<path stroke="#563f5d" d="M32 22h1" />
<path stroke="#fc809a" d="M20 23h2M18 24h1M20 24h1M18 25h1" />
<path stroke="#6d1f85" d="M39 26h1M2 27h5M10 27h6M23 27h5M24 28h1" />
<path stroke="#7b2395" d="M7 27h2M39 27h1M2 28h1M8 28h4M13 28h4M23 28h1M25 28h2M0 29h1M2 29h1M15 29h1M23 29h4M0 30h1M14 30h2M17 30h1M24 30h2" />
<path stroke="#7d2395" d="M0 28h1M3 28h1M1 29h1M10 29h5M16 29h3M11 30h2" />
<path stroke="#4b6f55" d="M11 31h6M25 31h1M28 31h2M39 31h1M36 33h1M39 34h1M8 35h1M34 35h1M38 35h1M35 36h1M37 36h1M7 37h1M5 38h1M8 38h1M6 39h1" />
<path stroke="#6f6e4b" d="M26 31h2M38 33h1M38 34h1M32 35h1" />
<path stroke="#3a5842" d="M30 31h9M12 32h4M26 32h2M29 32h10M13 33h3M27 33h9M37 33h1M39 33h1M30 34h8M33 35h1M35 35h3M4 36h2M7 36h2M33 36h1M36 36h1M8 37h2M33 37h7M4 38h1M7 38h1M34 38h6M7 39h1M34 39h6" />
<path stroke="#525c3c" d="M28 32h1M39 32h1M14 34h1M39 35h1M34 36h1M38 36h2M0 37h1M4 37h3M0 38h1M3 38h1M6 38h1M9 38h1M0 39h6M8 39h2" />
<path stroke="#4b6f56" d="M4 34h1M4 35h1" />
</svg>